<?xml version="1.0" standalone="yes"?><!DOCTYPE svg PUBLIC "-//W3C//DTD SVG 1.1//EN" "http://www.w3.org/Graphics/SVG/1.1/DTD/svg11.dtd"[]><svg height="1600.00" id="34702" width="2100.00" xmlns="http://www.w3.org/2000/svg" xmlns:xlink="http://www.w3.org/1999/xlink"><rect Type="region" height="5.00" y="810.00" Name="艾里迪亚" width="5.00" x="280.00" id="34703" /><text x="280.00" y="810.00" id="34704">艾里迪亚</text><rect Type="region" height="5.00" y="500.00" Name="暗涌之域" width="5.00" x="900.00" id="34706" /><text x="900.00" y="500.00" id="34707">暗涌之域</text><rect Type="region" height="5.00" y="920.00" Name="幽暗之域" width="5.00" x="1000.00" id="34709" /><text x="1000.00" y="920.00" id="34710">幽暗之域</text><rect Type="region" height="5.00" y="100.00" Name="血脉" width="5.00" x="1040.00" id="34712" /><text x="1040.00" y="100.00" id="34713">血脉</text><rect Type="region" height="5.00" y="800.00" Name="地窖" width="5.00" x="1930.00" id="34715" /><text x="1930.00" y="800.00" id="34716">地窖</text><rect Type="region" height="5.00" y="1280.00" Name="卡彻" width="5.00" x="1110.00" id="34718" /><text x="1110.00" y="1280.00" id="34719">卡彻</text><rect Type="region" height="5.00" y="620.00" Name="赛塔德洱" width="5.00" x="1010.00" id="34721" /><text x="1010.00" y="620.00" id="34722">赛塔德洱</text><rect Type="region" height="5.00" y="240.00" Name="云环" width="5.00" x="500.00" id="34724" /><text x="500.00" y="240.00" id="34725">云环</text><rect Type="region" height="5.00" y="130.00" Name="钴蓝边域" width="5.00" x="1900.00" id="34727" /><text x="1900.00" y="130.00" id="34728">钴蓝边域</text><rect Type="region" height="5.00" y="1120.00" Name="柯尔斯" width="5.00" x="1350.00" id="34730" /><text x="1350.00" y="1120.00" id="34731">柯尔斯</text><rect Type="region" height="5.00" y="150.00" Name="德克廉" width="5.00" x="820.00" id="34733" /><text x="820.00" y="150.00" id="34734">德克廉</text><rect Type="region" height="5.00" y="1210.00" Name="绝地之域" width="5.00" x="230.00" id="34736" /><text x="230.00" y="1210.00" id="34737">绝地之域</text><rect Type="region" height="5.00" y="970.00" Name="德里克" width="5.00" x="1300.00" id="34739" /><text x="1300.00" y="970.00" id="34740">德里克</text><rect Type="region" height="5.00" y="1400.00" Name="底特里德" width="5.00" x="1760.00" id="34742" /><text x="1760.00" y="1400.00" id="34743">底特里德</text><rect Type="region" height="5.00" y="1060.00" Name="破碎" width="5.00" x="990.00" id="34745" /><text x="990.00" y="1060.00" id="34746">破碎</text><rect Type="region" height="5.00" y="960.00" Name="多美" width="5.00" x="810.00" id="34748" /><text x="810.00" y="960.00" id="34749">多美</text><rect Type="region" height="5.00" y="1450.00" Name="埃索特亚" width="5.00" x="880.00" id="34751" /><text x="880.00" y="1450.00" id="34752">埃索特亚</text><rect Type="region" height="5.00" y="580.00" Name="精华之域" width="5.00" x="740.00" id="34754" /><text x="740.00" y="580.00" id="34755">精华之域</text><rect Type="region" height="5.00" y="620.00" Name="琉蓝之穹" width="5.00" x="1570.00" id="34757" /><text x="1570.00" y="620.00" id="34758">琉蓝之穹</text><rect Type="region" height="5.00" y="730.00" Name="埃维希尔" width="5.00" x="660.00" id="34760" /><text x="660.00" y="730.00" id="34761">埃维希尔</text><rect Type="region" height="5.00" y="260.00" Name="斐德" width="5.00" x="720.00" id="34763" /><text x="720.00" y="260.00" id="34764">斐德</text><rect Type="region" height="5.00" y="1510.00" Name="非塔波利斯" width="5.00" x="1070.00" id="34766" /><text x="1070.00" y="1510.00" id="34767">非塔波利斯</text><rect Type="region" height="5.00" y="620.00" Name="伏尔戈" width="5.00" x="1200.00" id="34769" /><text x="1200.00" y="620.00" id="34770">伏尔戈</text><rect Type="region" height="5.00" y="500.00" Name="源泉之域" width="5.00" x="120.00" id="34772" /><text x="120.00" y="500.00" id="34773">源泉之域</text><rect Type="region" height="5.00" y="490.00" Name="对舞之域" width="5.00" x="1330.00" id="34775" /><text x="1330.00" y="490.00" id="34776">对舞之域</text><rect Type="region" height="5.00" y="860.00" Name="吉勒西斯" width="5.00" x="480.00" id="34778" /><text x="480.00" y="860.00" id="34779">吉勒西斯</text><rect Type="region" height="5.00" y="920.00" Name="大荒野" width="5.00" x="1630.00" id="34781" /><text x="1630.00" y="920.00" id="34782">大荒野</text><rect Type="region" height="5.00" y="860.00" Name="西玛特尔" width="5.00" x="1220.00" id="34784" /><text x="1220.00" y="860.00" id="34785">西玛特尔</text><rect Type="region" height="5.00" y="1230.00" Name="伊梅瑟亚" width="5.00" x="1350.00" id="34787" /><text x="1350.00" y="1230.00" id="34788">伊梅瑟亚</text><rect Type="region" height="5.00" y="1390.00" Name="绝径" width="5.00" x="1200.00" id="34790" /><text x="1200.00" y="1390.00" id="34791">绝径</text><rect Type="region" height="5.00" y="1160.00" Name="因斯姆尔" width="5.00" x="1880.00" id="34793" /><text x="1880.00" y="1160.00" id="34794">因斯姆尔</text><rect Type="region" height="5.00" y="880.00" Name="卡多尔" width="5.00" x="660.00" id="34796" /><text x="660.00" y="880.00" id="34797">卡多尔</text><rect Type="region" height="5.00" y="370.00" Name="卡勒瓦拉阔地" width="5.00" x="1490.00" id="34799" /><text x="1490.00" y="370.00" id="34800">卡勒瓦拉阔地</text><rect Type="region" height="5.00" y="1140.00" Name="卡尼迪" width="5.00" x="470.00" id="34802" /><text x="470.00" y="1140.00" id="34803">卡尼迪</text><rect Type="region" height="5.00" y="1010.00" Name="柯埃佐" width="5.00" x="500.00" id="34805" /><text x="500.00" y="1010.00" id="34806">柯埃佐</text><rect Type="region" height="5.00" y="460.00" Name="长征" width="5.00" x="1100.00" id="34808" /><text x="1100.00" y="460.00" id="34809">长征</text><rect Type="region" height="5.00" y="520.00" Name="糟粕之域" width="5.00" x="1770.00" id="34811" /><text x="1770.00" y="520.00" id="34812">糟粕之域</text><rect Type="region" height="5.00" y="730.00" Name="美特伯里斯" width="5.00" x="1330.00" id="34814" /><text x="1330.00" y="730.00" id="34815">美特伯里斯</text><rect Type="region" height="5.00" y="860.00" Name="摩登赫斯" width="5.00" x="1460.00" id="34817" /><text x="1460.00" y="860.00" id="34818">摩登赫斯</text><rect Type="region" height="5.00" y="320.00" Name="欧莎" width="5.00" x="1890.00" id="34820" /><text x="1890.00" y="320.00" id="34821">欧莎</text><rect Type="region" height="5.00" y="1480.00" Name="欧米斯特" width="5.00" x="1440.00" id="34823" /><text x="1440.00" y="1480.00" id="34824">欧米斯特</text><rect Type="region" height="5.00" y="460.00" Name="域外走廊" width="5.00" x="1930.00" id="34826" /><text x="1930.00" y="460.00" id="34827">域外走廊</text><rect Type="region" height="5.00" y="280.00" Name="外环" width="5.00" x="240.00" id="34829" /><text x="240.00" y="280.00" id="34830">外环</text><rect Type="region" height="5.00" y="1480.00" Name="摄魂之域" width="5.00" x="640.00" id="34832" /><text x="640.00" y="1480.00" id="34833">摄魂之域</text><rect Type="region" height="5.00" y="1400.00" Name="贝斯" width="5.00" x="440.00" id="34835" /><text x="440.00" y="1400.00" id="34836">贝斯</text><rect Type="region" height="5.00" y="260.00" Name="佩利根弗" width="5.00" x="1600.00" id="34838" /><text x="1600.00" y="260.00" id="34839">佩利根弗</text><rect Type="region" height="5.00" y="440.00" Name="宁静之域" width="5.00" x="600.00" id="34841" /><text x="600.00" y="440.00" id="34842">宁静之域</text><rect Type="region" height="5.00" y="1130.00" Name="普罗维登斯" width="5.00" x="1010.00" id="34844" /><text x="1010.00" y="1130.00" id="34845">普罗维登斯</text><rect Type="region" height="5.00" y="380.00" Name="黑渊" width="5.00" x="870.00" id="34847" /><text x="870.00" y="380.00" id="34848">黑渊</text><rect Type="region" height="5.00" y="1280.00" Name="逑瑞斯" width="5.00" x="680.00" id="34850" /><text x="680.00" y="1280.00" id="34851">逑瑞斯</text><rect Type="region" height="5.00" y="1080.00" Name="灼热之径" width="5.00" x="1600.00" id="34853" /><text x="1600.00" y="1080.00" id="34854">灼热之径</text><rect Type="region" height="5.00" y="770.00" Name="金纳泽" width="5.00" x="950.00" id="34856" /><text x="950.00" y="770.00" id="34857">金纳泽</text><rect Type="region" height="5.00" y="670.00" Name="孤独之域" width="5.00" x="310.00" id="34859" /><text x="310.00" y="670.00" id="34860">孤独之域</text><rect Type="region" height="5.00" y="700.00" Name="螺旋之域" width="5.00" x="1720.00" id="34862" /><text x="1720.00" y="700.00" id="34863">螺旋之域</text><rect Type="region" height="5.00" y="1350.00" Name="混浊" width="5.00" x="900.00" id="34865" /><text x="900.00" y="1350.00" id="34866">混浊</text><rect Type="region" height="5.00" y="500.00" Name="辛迪加" width="5.00" x="360.00" id="34868" /><text x="360.00" y="500.00" id="34869">辛迪加</text><rect Type="region" height="5.00" y="1090.00" Name="塔什蒙贡" width="5.00" x="730.00" id="34871" /><text x="730.00" y="1090.00" id="34872">塔什蒙贡</text><rect Type="region" height="5.00" y="140.00" Name="特纳" width="5.00" x="1400.00" id="34874" /><text x="1400.00" y="140.00" id="34875">特纳</text><rect Type="region" height="5.00" y="1350.00" Name="特里菲斯" width="5.00" x="1430.00" id="34877" /><text x="1430.00" y="1350.00" id="34878">特里菲斯</text><rect Type="region" height="5.00" y="290.00" Name="特布特" width="5.00" x="1070.00" id="34880" /><text x="1070.00" y="290.00" id="34881">特布特</text><rect Type="region" height="5.00" y="380.00" Name="静寂谷" width="5.00" x="1230.00" id="34883" /><text x="1230.00" y="380.00" id="34884">静寂谷</text><rect Type="region" height="5.00" y="210.00" Name="维纳尔" width="5.00" x="1140.00" id="34886" /><text x="1140.00" y="210.00" id="34887">维纳尔</text><rect Type="region" height="5.00" y="660.00" Name="维格温铎" width="5.00" x="490.00" id="34889" /><text x="490.00" y="660.00" id="34890">维格温铎</text><rect Type="region" height="5.00" y="1230.00" Name="邪恶湾流" width="5.00" x="1580.00" id="34892" /><text x="1580.00" y="1230.00" id="34893">邪恶湾流</text><rect Type="region" height="5.00" y="50.00" Name="波赫文" width="5.00" x="50.00" id="34895" /><text x="50.00" y="50.00" id="34896">波赫文</text><rect Type="region" height="5.00" y="120.00" Name="战争地带 - 艾玛 vs 米玛塔尔" width="5.00" x="50.00" id="34898" /><text x="50.00" y="120.00" id="34899">战争地带 - 艾玛 vs 米玛塔尔</text><rect Type="region" height="5.00" y="190.00" Name="战争地带 - 加达里 vs 盖伦特" width="5.00" x="50.00" id="34901" /><text x="50.00" y="190.00" id="34902">战争地带 - 加达里 vs 盖伦特</text><rect Type="region" height="5.00" y="260.00" Name="赞颂之域" width="5.00" x="50.00" id="34904" /><text x="50.00" y="260.00" id="34905">赞颂之域</text></svg>
