<?xml version="1.0" standalone="yes"?><!DOCTYPE svg PUBLIC "-//W3C//DTD SVG 1.1//EN" "http://www.w3.org/Graphics/SVG/1.1/DTD/svg11.dtd"[]><svg width="2100.00" height="1600.00" id="34702" xmlns="http://www.w3.org/2000/svg" xmlns:xlink="http://www.w3.org/1999/xlink"><rect Type="region" x="280.00" id="34703" height="5.00" width="5.00" Name="艾里迪亚" y="810.00" /><text y="810.00" x="280.00" id="34704">艾里迪亚</text><rect Type="region" x="900.00" id="34706" height="5.00" width="5.00" Name="暗涌之域" y="500.00" /><text y="500.00" x="900.00" id="34707">暗涌之域</text><rect Type="region" x="1000.00" id="34709" height="5.00" width="5.00" Name="幽暗之域" y="920.00" /><text y="920.00" x="1000.00" id="34710">幽暗之域</text><rect Type="region" x="1040.00" id="34712" height="5.00" width="5.00" Name="血脉" y="100.00" /><text y="100.00" x="1040.00" id="34713">血脉</text><rect Type="region" x="1930.00" id="34715" height="5.00" width="5.00" Name="地窖" y="800.00" /><text y="800.00" x="1930.00" id="34716">地窖</text><rect Type="region" x="1110.00" id="34718" height="5.00" width="5.00" Name="卡彻" y="1280.00" /><text y="1280.00" x="1110.00" id="34719">卡彻</text><rect Type="region" x="1010.00" id="34721" height="5.00" width="5.00" Name="赛塔德洱" y="620.00" /><text y="620.00" x="1010.00" id="34722">赛塔德洱</text><rect Type="region" x="500.00" id="34724" height="5.00" width="5.00" Name="云环" y="240.00" /><text y="240.00" x="500.00" id="34725">云环</text><rect Type="region" x="1900.00" id="34727" height="5.00" width="5.00" Name="钴蓝边域" y="130.00" /><text y="130.00" x="1900.00" id="34728">钴蓝边域</text><rect Type="region" x="1350.00" id="34730" height="5.00" width="5.00" Name="柯尔斯" y="1120.00" /><text y="1120.00" x="1350.00" id="34731">柯尔斯</text><rect Type="region" x="820.00" id="34733" height="5.00" width="5.00" Name="德克廉" y="150.00" /><text y="150.00" x="820.00" id="34734">德克廉</text><rect Type="region" x="230.00" id="34736" height="5.00" width="5.00" Name="绝地之域" y="1210.00" /><text y="1210.00" x="230.00" id="34737">绝地之域</text><rect Type="region" x="1300.00" id="34739" height="5.00" width="5.00" Name="德里克" y="970.00" /><text y="970.00" x="1300.00" id="34740">德里克</text><rect Type="region" x="1760.00" id="34742" height="5.00" width="5.00" Name="底特里德" y="1400.00" /><text y="1400.00" x="1760.00" id="34743">底特里德</text><rect Type="region" x="990.00" id="34745" height="5.00" width="5.00" Name="破碎" y="1060.00" /><text y="1060.00" x="990.00" id="34746">破碎</text><rect Type="region" x="810.00" id="34748" height="5.00" width="5.00" Name="多美" y="960.00" /><text y="960.00" x="810.00" id="34749">多美</text><rect Type="region" x="880.00" id="34751" height="5.00" width="5.00" Name="埃索特亚" y="1450.00" /><text y="1450.00" x="880.00" id="34752">埃索特亚</text><rect Type="region" x="740.00" id="34754" height="5.00" width="5.00" Name="精华之域" y="580.00" /><text y="580.00" x="740.00" id="34755">精华之域</text><rect Type="region" x="1570.00" id="34757" height="5.00" width="5.00" Name="琉蓝之穹" y="620.00" /><text y="620.00" x="1570.00" id="34758">琉蓝之穹</text><rect Type="region" x="660.00" id="34760" height="5.00" width="5.00" Name="埃维希尔" y="730.00" /><text y="730.00" x="660.00" id="34761">埃维希尔</text><rect Type="region" x="720.00" id="34763" height="5.00" width="5.00" Name="斐德" y="260.00" /><text y="260.00" x="720.00" id="34764">斐德</text><rect Type="region" x="1070.00" id="34766" height="5.00" width="5.00" Name="非塔波利斯" y="1510.00" /><text y="1510.00" x="1070.00" id="34767">非塔波利斯</text><rect Type="region" x="1200.00" id="34769" height="5.00" width="5.00" Name="伏尔戈" y="620.00" /><text y="620.00" x="1200.00" id="34770">伏尔戈</text><rect Type="region" x="120.00" id="34772" height="5.00" width="5.00" Name="源泉之域" y="500.00" /><text y="500.00" x="120.00" id="34773">源泉之域</text><rect Type="region" x="1330.00" id="34775" height="5.00" width="5.00" Name="对舞之域" y="490.00" /><text y="490.00" x="1330.00" id="34776">对舞之域</text><rect Type="region" x="480.00" id="34778" height="5.00" width="5.00" Name="吉勒西斯" y="860.00" /><text y="860.00" x="480.00" id="34779">吉勒西斯</text><rect Type="region" x="1630.00" id="34781" height="5.00" width="5.00" Name="大荒野" y="920.00" /><text y="920.00" x="1630.00" id="34782">大荒野</text><rect Type="region" x="1220.00" id="34784" height="5.00" width="5.00" Name="西玛特尔" y="860.00" /><text y="860.00" x="1220.00" id="34785">西玛特尔</text><rect Type="region" x="1350.00" id="34787" height="5.00" width="5.00" Name="伊梅瑟亚" y="1230.00" /><text y="1230.00" x="1350.00" id="34788">伊梅瑟亚</text><rect Type="region" x="1200.00" id="34790" height="5.00" width="5.00" Name="绝径" y="1390.00" /><text y="1390.00" x="1200.00" id="34791">绝径</text><rect Type="region" x="1880.00" id="34793" height="5.00" width="5.00" Name="因斯姆尔" y="1160.00" /><text y="1160.00" x="1880.00" id="34794">因斯姆尔</text><rect Type="region" x="660.00" id="34796" height="5.00" width="5.00" Name="卡多尔" y="880.00" /><text y="880.00" x="660.00" id="34797">卡多尔</text><rect Type="region" x="1490.00" id="34799" height="5.00" width="5.00" Name="卡勒瓦拉阔地" y="370.00" /><text y="370.00" x="1490.00" id="34800">卡勒瓦拉阔地</text><rect Type="region" x="470.00" id="34802" height="5.00" width="5.00" Name="卡尼迪" y="1140.00" /><text y="1140.00" x="470.00" id="34803">卡尼迪</text><rect Type="region" x="500.00" id="34805" height="5.00" width="5.00" Name="柯埃佐" y="1010.00" /><text y="1010.00" x="500.00" id="34806">柯埃佐</text><rect Type="region" x="1100.00" id="34808" height="5.00" width="5.00" Name="长征" y="460.00" /><text y="460.00" x="1100.00" id="34809">长征</text><rect Type="region" x="1770.00" id="34811" height="5.00" width="5.00" Name="糟粕之域" y="520.00" /><text y="520.00" x="1770.00" id="34812">糟粕之域</text><rect Type="region" x="1330.00" id="34814" height="5.00" width="5.00" Name="美特伯里斯" y="730.00" /><text y="730.00" x="1330.00" id="34815">美特伯里斯</text><rect Type="region" x="1460.00" id="34817" height="5.00" width="5.00" Name="摩登赫斯" y="860.00" /><text y="860.00" x="1460.00" id="34818">摩登赫斯</text><rect Type="region" x="1890.00" id="34820" height="5.00" width="5.00" Name="欧莎" y="320.00" /><text y="320.00" x="1890.00" id="34821">欧莎</text><rect Type="region" x="1440.00" id="34823" height="5.00" width="5.00" Name="欧米斯特" y="1480.00" /><text y="1480.00" x="1440.00" id="34824">欧米斯特</text><rect Type="region" x="1930.00" id="34826" height="5.00" width="5.00" Name="域外走廊" y="460.00" /><text y="460.00" x="1930.00" id="34827">域外走廊</text><rect Type="region" x="240.00" id="34829" height="5.00" width="5.00" Name="外环" y="280.00" /><text y="280.00" x="240.00" id="34830">外环</text><rect Type="region" x="640.00" id="34832" height="5.00" width="5.00" Name="摄魂之域" y="1480.00" /><text y="1480.00" x="640.00" id="34833">摄魂之域</text><rect Type="region" x="440.00" id="34835" height="5.00" width="5.00" Name="贝斯" y="1400.00" /><text y="1400.00" x="440.00" id="34836">贝斯</text><rect Type="region" x="1600.00" id="34838" height="5.00" width="5.00" Name="佩利根弗" y="260.00" /><text y="260.00" x="1600.00" id="34839">佩利根弗</text><rect Type="region" x="600.00" id="34841" height="5.00" width="5.00" Name="宁静之域" y="440.00" /><text y="440.00" x="600.00" id="34842">宁静之域</text><rect Type="region" x="1010.00" id="34844" height="5.00" width="5.00" Name="普罗维登斯" y="1130.00" /><text y="1130.00" x="1010.00" id="34845">普罗维登斯</text><rect Type="region" x="870.00" id="34847" height="5.00" width="5.00" Name="黑渊" y="380.00" /><text y="380.00" x="870.00" id="34848">黑渊</text><rect Type="region" x="680.00" id="34850" height="5.00" width="5.00" Name="逑瑞斯" y="1280.00" /><text y="1280.00" x="680.00" id="34851">逑瑞斯</text><rect Type="region" x="1600.00" id="34853" height="5.00" width="5.00" Name="灼热之径" y="1080.00" /><text y="1080.00" x="1600.00" id="34854">灼热之径</text><rect Type="region" x="950.00" id="34856" height="5.00" width="5.00" Name="金纳泽" y="770.00" /><text y="770.00" x="950.00" id="34857">金纳泽</text><rect Type="region" x="310.00" id="34859" height="5.00" width="5.00" Name="孤独之域" y="670.00" /><text y="670.00" x="310.00" id="34860">孤独之域</text><rect Type="region" x="1720.00" id="34862" height="5.00" width="5.00" Name="螺旋之域" y="700.00" /><text y="700.00" x="1720.00" id="34863">螺旋之域</text><rect Type="region" x="900.00" id="34865" height="5.00" width="5.00" Name="混浊" y="1350.00" /><text y="1350.00" x="900.00" id="34866">混浊</text><rect Type="region" x="360.00" id="34868" height="5.00" width="5.00" Name="辛迪加" y="500.00" /><text y="500.00" x="360.00" id="34869">辛迪加</text><rect Type="region" x="730.00" id="34871" height="5.00" width="5.00" Name="塔什蒙贡" y="1090.00" /><text y="1090.00" x="730.00" id="34872">塔什蒙贡</text><rect Type="region" x="1400.00" id="34874" height="5.00" width="5.00" Name="特纳" y="140.00" /><text y="140.00" x="1400.00" id="34875">特纳</text><rect Type="region" x="1430.00" id="34877" height="5.00" width="5.00" Name="特里菲斯" y="1350.00" /><text y="1350.00" x="1430.00" id="34878">特里菲斯</text><rect Type="region" x="1070.00" id="34880" height="5.00" width="5.00" Name="特布特" y="290.00" /><text y="290.00" x="1070.00" id="34881">特布特</text><rect Type="region" x="1230.00" id="34883" height="5.00" width="5.00" Name="静寂谷" y="380.00" /><text y="380.00" x="1230.00" id="34884">静寂谷</text><rect Type="region" x="1140.00" id="34886" height="5.00" width="5.00" Name="维纳尔" y="210.00" /><text y="210.00" x="1140.00" id="34887">维纳尔</text><rect Type="region" x="490.00" id="34889" height="5.00" width="5.00" Name="维格温铎" y="660.00" /><text y="660.00" x="490.00" id="34890">维格温铎</text><rect Type="region" x="1580.00" id="34892" height="5.00" width="5.00" Name="邪恶湾流" y="1230.00" /><text y="1230.00" x="1580.00" id="34893">邪恶湾流</text><rect Type="region" x="50.00" id="34895" height="5.00" width="5.00" Name="波赫文" y="50.00" /><text y="50.00" x="50.00" id="34896">波赫文</text><rect Type="region" x="50.00" id="34898" height="5.00" width="5.00" Name="战争地带 - 艾玛 vs 米玛塔尔" y="120.00" /><text y="120.00" x="50.00" id="34899">战争地带 - 艾玛 vs 米玛塔尔</text><rect Type="region" x="50.00" id="34901" height="5.00" width="5.00" Name="战争地带 - 加达里 vs 盖伦特" y="190.00" /><text y="190.00" x="50.00" id="34902">战争地带 - 加达里 vs 盖伦特</text><rect Type="region" x="50.00" id="34904" height="5.00" width="5.00" Name="赞颂之域" y="260.00" /><text y="260.00" x="50.00" id="34905">赞颂之域</text></svg>
