<?xml version="1.0" standalone="yes"?><!DOCTYPE svg PUBLIC "-//W3C//DTD SVG 1.1//EN" "http://www.w3.org/Graphics/SVG/1.1/DTD/svg11.dtd"[]><svg height="800.00" id="3145" width="1050.00" xmlns="http://www.w3.org/2000/svg" xmlns:xlink="http://www.w3.org/1999/xlink"><rect Type="system" Region="云环" height="5.00" y="580.00" Name="1-3HWZ" width="5.00" x="120.00" id="3146" ID="30004037" /><text x="120.00" y="580.00" id="3147">1-3HWZ</text><rect Type="system" Region="云环" height="5.00" y="75.50" Name="Z-Y7R7" width="5.00" x="200.00" id="3149" ID="30004063" /><text x="200.00" y="75.50" id="3150">Z-Y7R7</text><rect Type="system" Region="云环" height="5.00" y="124.50" Name="O-BDXB" width="5.00" x="200.00" id="3152" ID="30004060" /><text x="200.00" y="124.50" id="3153">O-BDXB</text><rect Type="system" Region="云环" height="5.00" y="180.00" Name="MJYW-3" width="5.00" x="200.00" id="3155" ID="30004064" /><text x="200.00" y="180.00" id="3156">MJYW-3</text><rect Type="system" Region="云环" height="5.00" y="575.50" Name="XT-R36" width="5.00" x="180.00" id="3158" ID="30004038" /><text x="180.00" y="575.50" id="3159">XT-R36</text><rect Type="system" Region="云环" height="5.00" y="624.50" Name="5-MLDT" width="5.00" x="180.00" id="3161" ID="30004039" /><text x="180.00" y="624.50" id="3162">5-MLDT</text><rect Type="system" Region="云环" height="5.00" y="75.50" Name="G8AD-C" width="5.00" x="270.00" id="3164" ID="30004061" /><text x="270.00" y="75.50" id="3165">G8AD-C</text><rect Type="system" Region="云环" height="5.00" y="124.50" Name="9-4RP2" width="5.00" x="270.00" id="3167" ID="30004059" /><text x="270.00" y="124.50" id="3168">9-4RP2</text><rect Type="system" Region="云环" height="5.00" y="575.50" Name="QXW-PV" width="5.00" x="260.00" id="3170" ID="30004041" /><text x="260.00" y="575.50" id="3171">QXW-PV</text><rect Type="system" Region="云环" height="5.00" y="624.50" Name="B-DBYQ" width="5.00" x="260.00" id="3173" ID="30004040" /><text x="260.00" y="624.50" id="3174">B-DBYQ</text><rect Type="system" Region="云环" height="5.00" y="75.50" Name="XZH-4X" width="5.00" x="350.00" id="3176" ID="30004062" /><text x="350.00" y="75.50" id="3177">XZH-4X</text><rect Type="system" Region="云环" height="5.00" y="124.50" Name="FQ9W-C" width="5.00" x="350.00" id="3179" ID="30004058" /><text x="350.00" y="124.50" id="3180">FQ9W-C</text><rect Type="system" Region="云环" height="5.00" y="620.00" Name="DY-F70" width="5.00" x="330.00" id="3182" ID="30004042" /><text x="330.00" y="620.00" id="3183">DY-F70</text><rect Type="system" Region="云环" height="5.00" y="120.00" Name="6Z9-0M" width="5.00" x="420.00" id="3185" ID="30004057" /><text x="420.00" y="120.00" id="3186">6Z9-0M</text><rect Type="system" Region="云环" height="5.00" y="130.00" Name="U65-CN" width="5.00" x="500.00" id="3188" ID="30004074" /><text x="500.00" y="130.00" id="3189">U65-CN</text><rect Type="system" Region="云环" height="5.00" y="20.00" Name="CX7-70" width="5.00" x="580.00" id="3191" ID="30004072" /><text x="580.00" y="20.00" id="3192">CX7-70</text><rect Type="system" Region="云环" height="5.00" y="75.50" Name="6ON-RW" width="5.00" x="580.00" id="3194" ID="30004073" /><text x="580.00" y="75.50" id="3195">6ON-RW</text><rect Type="system" Region="云环" height="5.00" y="124.50" Name="X-M9ON" width="5.00" x="580.00" id="3197" ID="30004075" /><text x="580.00" y="124.50" id="3198">X-M9ON</text><rect Type="system" Region="云环" height="5.00" y="580.00" Name="O-IVNH" width="5.00" x="580.00" id="3200" ID="30004049" /><text x="580.00" y="580.00" id="3201">O-IVNH</text><rect Type="system" Region="云环" height="5.00" y="20.00" Name="28O-JY" width="5.00" x="650.00" id="3203" ID="30004071" /><text x="650.00" y="20.00" id="3204">28O-JY</text><rect Type="system" Region="云环" height="5.00" y="120.00" Name="P5-KCC" width="5.00" x="650.00" id="3206" ID="30004076" /><text x="650.00" y="120.00" id="3207">P5-KCC</text><rect Type="system" Region="云环" height="5.00" y="580.00" Name="1-NW2G" width="5.00" x="650.00" id="3209" ID="30004048" /><text x="650.00" y="580.00" id="3210">1-NW2G</text><rect Type="system" Region="云环" height="5.00" y="350.00" Name="8R-RTB" width="5.00" x="750.00" id="3212" ID="30004056" /><text x="750.00" y="350.00" id="3213">8R-RTB</text><rect Type="system" Region="云环" height="5.00" y="400.00" Name="YI-8ZM" width="5.00" x="750.00" id="3215" ID="30004051" /><text x="750.00" y="400.00" id="3216">YI-8ZM</text><rect Type="system" Region="云环" height="5.00" y="450.00" Name="O-0HW8" width="5.00" x="750.00" id="3218" ID="30004050" /><text x="750.00" y="450.00" id="3219">O-0HW8</text><rect Type="system" Region="云环" height="5.00" y="575.50" Name="O-ZXUV" width="5.00" x="750.00" id="3221" ID="30004044" /><text x="750.00" y="575.50" id="3222">O-ZXUV</text><rect Type="system" Region="云环" height="5.00" y="624.50" Name="FD53-H" width="5.00" x="750.00" id="3224" ID="30004043" /><text x="750.00" y="624.50" id="3225">FD53-H</text><rect Type="system" Region="云环" height="5.00" y="120.00" Name="XG-D1L" width="5.00" x="750.00" id="3227" ID="30004069" /><text x="750.00" y="120.00" id="3228">XG-D1L</text><rect Type="system" Region="云环" height="5.00" y="180.00" Name="00TY-J" width="5.00" x="750.00" id="3230" ID="30004068" /><text x="750.00" y="180.00" id="3231">00TY-J</text><rect Type="system" Region="云环" height="5.00" y="250.00" Name="PPG-XC" width="5.00" x="750.00" id="3233" ID="30004065" /><text x="750.00" y="250.00" id="3234">PPG-XC</text><rect Type="system" Region="云环" height="5.00" y="575.50" Name="F7C-H0" width="5.00" x="820.00" id="3236" ID="30004046" /><text x="820.00" y="575.50" id="3237">F7C-H0</text><rect Type="system" Region="云环" height="5.00" y="624.50" Name="77-KDQ" width="5.00" x="820.00" id="3239" ID="30004045" /><text x="820.00" y="624.50" id="3240">77-KDQ</text><rect Type="system" Region="云环" height="5.00" y="700.00" Name="TN-T7T" width="5.00" x="820.00" id="3242" ID="30004047" /><text x="820.00" y="700.00" id="3243">TN-T7T</text><rect Type="system" Region="云环" height="5.00" y="350.00" Name="Q-UA3C" width="5.00" x="820.00" id="3245" ID="30004054" /><text x="820.00" y="350.00" id="3246">Q-UA3C</text><rect Type="system" Region="云环" height="5.00" y="400.00" Name="OU-X3P" width="5.00" x="820.00" id="3248" ID="30004052" /><text x="820.00" y="400.00" id="3249">OU-X3P</text><rect Type="system" Region="云环" height="5.00" y="450.00" Name="6-4V20" width="5.00" x="820.00" id="3251" ID="30004053" /><text x="820.00" y="450.00" id="3252">6-4V20</text><rect Type="system" Region="云环" height="5.00" y="120.00" Name="6RCQ-V" width="5.00" x="830.00" id="3254" ID="30004070" /><text x="830.00" y="120.00" id="3255">6RCQ-V</text><rect Type="system" Region="云环" height="5.00" y="180.00" Name="5S-KNL" width="5.00" x="830.00" id="3257" ID="30004067" /><text x="830.00" y="180.00" id="3258">5S-KNL</text><rect Type="system" Region="云环" height="5.00" y="250.00" Name="QA1-BT" width="5.00" x="830.00" id="3260" ID="30004066" /><text x="830.00" y="250.00" id="3261">QA1-BT</text><rect Type="system" Region="云环" height="5.00" y="450.00" Name="W-4NUU" width="5.00" x="900.00" id="3263" ID="30004055" /><text x="900.00" y="450.00" id="3264">W-4NUU</text><rect Type="system" Region="黑渊" height="5.00" y="80.00" Name="7D-0SQ" width="5.00" x="70.00" id="3266" ID="30002046" /><text x="70.00" y="80.00" id="3267">7D-0SQ</text><rect Type="system" Region="辛迪加" height="5.00" y="580.00" Name="A-SJ8X" width="5.00" x="30.00" id="3269" ID="30003335" /><text x="30.00" y="580.00" id="3270">A-SJ8X</text><rect Type="system" Region="外环" height="5.00" y="680.00" Name="IZ-AOB" width="5.00" x="80.00" id="3272" ID="30004535" /><text x="80.00" y="680.00" id="3273">IZ-AOB</text><rect Type="system" Region="源泉之域" height="5.00" y="700.00" Name="J5A-IX" width="5.00" x="260.00" id="3275" ID="30004589" /><text x="260.00" y="700.00" id="3276">J5A-IX</text><rect Type="system" Region="宁静之域" height="5.00" y="580.00" Name="奥萨温伦" width="5.00" x="950.00" id="3278" ID="30003841" /><text x="950.00" y="580.00" id="3279">奥萨温伦</text><rect Type="system" Region="暗涌之域" height="5.00" y="450.00" Name="欧卡伽肯" width="5.00" x="980.00" id="3281" ID="30045307" /><text x="980.00" y="450.00" id="3282">欧卡伽肯</text><rect Type="system" Region="斐德" height="5.00" y="130.00" Name="E9KD-N" width="5.00" x="950.00" id="3284" ID="30003694" /><text x="950.00" y="130.00" id="3285">E9KD-N</text><line x2="30.00" style="fill:blue;stroke:blue;" y1="580.00" x1="120.00" id="3287" y2="580.00" /><line x2="180.00" style="fill:blue;stroke:blue;" y1="580.00" x1="120.00" id="3288" y2="575.50" /><line x2="70.00" style="fill:blue;stroke:blue;" y1="75.50" x1="200.00" id="3289" y2="80.00" /><line x2="200.00" style="fill:blue;stroke:blue;" y1="75.50" x1="200.00" id="3290" y2="124.50" /><line x2="270.00" style="fill:blue;stroke:blue;" y1="75.50" x1="200.00" id="3291" y2="75.50" /><line x2="270.00" style="fill:blue;stroke:blue;" y1="124.50" x1="200.00" id="3292" y2="124.50" /><line x2="200.00" style="fill:blue;stroke:blue;" y1="124.50" x1="200.00" id="3293" y2="75.50" /><line x2="200.00" style="fill:blue;stroke:blue;" y1="124.50" x1="200.00" id="3294" y2="180.00" /><line x2="260.00" style="fill:blue;stroke:blue;" y1="180.00" x1="200.00" id="3295" y2="575.50" /><line x2="200.00" style="fill:blue;stroke:blue;" y1="180.00" x1="200.00" id="3296" y2="124.50" /><line x2="120.00" style="fill:blue;stroke:blue;" y1="575.50" x1="180.00" id="3297" y2="580.00" /><line x2="180.00" style="fill:blue;stroke:blue;" y1="575.50" x1="180.00" id="3298" y2="624.50" /><line x2="260.00" style="fill:blue;stroke:blue;" y1="575.50" x1="180.00" id="3299" y2="575.50" /><line x2="180.00" style="fill:blue;stroke:blue;" y1="624.50" x1="180.00" id="3300" y2="575.50" /><line x2="260.00" style="fill:blue;stroke:blue;" y1="624.50" x1="180.00" id="3301" y2="624.50" /><line x2="80.00" style="fill:blue;stroke:blue;" y1="624.50" x1="180.00" id="3302" y2="680.00" /><line x2="270.00" style="fill:blue;stroke:blue;" y1="75.50" x1="270.00" id="3303" y2="124.50" /><line x2="200.00" style="fill:blue;stroke:blue;" y1="75.50" x1="270.00" id="3304" y2="75.50" /><line x2="350.00" style="fill:blue;stroke:blue;" y1="124.50" x1="270.00" id="3305" y2="124.50" /><line x2="200.00" style="fill:blue;stroke:blue;" y1="124.50" x1="270.00" id="3306" y2="124.50" /><line x2="270.00" style="fill:blue;stroke:blue;" y1="124.50" x1="270.00" id="3307" y2="75.50" /><line x2="350.00" style="fill:blue;stroke:blue;" y1="124.50" x1="270.00" id="3308" y2="75.50" /><line x2="180.00" style="fill:blue;stroke:blue;" y1="575.50" x1="260.00" id="3309" y2="575.50" /><line x2="260.00" style="fill:blue;stroke:blue;" y1="575.50" x1="260.00" id="3310" y2="624.50" /><line x2="200.00" style="fill:blue;stroke:blue;" y1="575.50" x1="260.00" id="3311" y2="180.00" /><line x2="180.00" style="fill:blue;stroke:blue;" y1="624.50" x1="260.00" id="3312" y2="624.50" /><line x2="260.00" style="fill:blue;stroke:blue;" y1="624.50" x1="260.00" id="3313" y2="575.50" /><line x2="330.00" style="fill:blue;stroke:blue;" y1="624.50" x1="260.00" id="3314" y2="620.00" /><line x2="260.00" style="fill:blue;stroke:blue;" y1="624.50" x1="260.00" id="3315" y2="700.00" /><line x2="270.00" style="fill:blue;stroke:blue;" y1="75.50" x1="350.00" id="3316" y2="124.50" /><line x2="420.00" style="fill:blue;stroke:blue;" y1="124.50" x1="350.00" id="3317" y2="120.00" /><line x2="270.00" style="fill:blue;stroke:blue;" y1="124.50" x1="350.00" id="3318" y2="124.50" /><line x2="260.00" style="fill:blue;stroke:blue;" y1="620.00" x1="330.00" id="3319" y2="624.50" /><line x2="750.00" style="fill:blue;stroke:blue;" y1="620.00" x1="330.00" id="3320" y2="624.50" /><line x2="350.00" style="fill:blue;stroke:blue;" y1="120.00" x1="420.00" id="3321" y2="124.50" /><line x2="500.00" style="fill:blue;stroke:blue;" y1="120.00" x1="420.00" id="3322" y2="130.00" /><line x2="420.00" style="fill:blue;stroke:blue;" y1="130.00" x1="500.00" id="3323" y2="120.00" /><line x2="580.00" style="fill:blue;stroke:blue;" y1="130.00" x1="500.00" id="3324" y2="75.50" /><line x2="580.00" style="fill:blue;stroke:blue;" y1="130.00" x1="500.00" id="3325" y2="124.50" /><line x2="650.00" style="fill:blue;stroke:blue;" y1="20.00" x1="580.00" id="3326" y2="20.00" /><line x2="580.00" style="fill:blue;stroke:blue;" y1="20.00" x1="580.00" id="3327" y2="75.50" /><line x2="580.00" style="fill:blue;stroke:blue;" y1="75.50" x1="580.00" id="3328" y2="20.00" /><line x2="500.00" style="fill:blue;stroke:blue;" y1="75.50" x1="580.00" id="3329" y2="130.00" /><line x2="580.00" style="fill:blue;stroke:blue;" y1="75.50" x1="580.00" id="3330" y2="124.50" /><line x2="650.00" style="fill:blue;stroke:blue;" y1="75.50" x1="580.00" id="3331" y2="120.00" /><line x2="580.00" style="fill:blue;stroke:blue;" y1="124.50" x1="580.00" id="3332" y2="75.50" /><line x2="500.00" style="fill:blue;stroke:blue;" y1="124.50" x1="580.00" id="3333" y2="130.00" /><line x2="650.00" style="fill:blue;stroke:blue;" y1="124.50" x1="580.00" id="3334" y2="120.00" /><line x2="650.00" style="fill:blue;stroke:blue;" y1="580.00" x1="580.00" id="3335" y2="580.00" /><line x2="580.00" style="fill:blue;stroke:blue;" y1="20.00" x1="650.00" id="3336" y2="20.00" /><line x2="650.00" style="fill:blue;stroke:blue;" y1="20.00" x1="650.00" id="3337" y2="120.00" /><line x2="750.00" style="fill:blue;stroke:blue;" y1="120.00" x1="650.00" id="3338" y2="120.00" /><line x2="650.00" style="fill:blue;stroke:blue;" y1="120.00" x1="650.00" id="3339" y2="20.00" /><line x2="580.00" style="fill:blue;stroke:blue;" y1="120.00" x1="650.00" id="3340" y2="75.50" /><line x2="580.00" style="fill:blue;stroke:blue;" y1="120.00" x1="650.00" id="3341" y2="124.50" /><line x2="750.00" style="fill:blue;stroke:blue;" y1="580.00" x1="650.00" id="3342" y2="575.50" /><line x2="580.00" style="fill:blue;stroke:blue;" y1="580.00" x1="650.00" id="3343" y2="580.00" /><line x2="750.00" style="fill:blue;stroke:blue;" y1="350.00" x1="750.00" id="3344" y2="400.00" /><line x2="820.00" style="fill:blue;stroke:blue;" y1="350.00" x1="750.00" id="3345" y2="350.00" /><line x2="750.00" style="fill:blue;stroke:blue;" y1="350.00" x1="750.00" id="3346" y2="250.00" /><line x2="750.00" style="fill:blue;stroke:blue;" y1="400.00" x1="750.00" id="3347" y2="450.00" /><line x2="820.00" style="fill:blue;stroke:blue;" y1="400.00" x1="750.00" id="3348" y2="400.00" /><line x2="820.00" style="fill:blue;stroke:blue;" y1="400.00" x1="750.00" id="3349" y2="450.00" /><line x2="750.00" style="fill:blue;stroke:blue;" y1="400.00" x1="750.00" id="3350" y2="350.00" /><line x2="750.00" style="fill:blue;stroke:blue;" y1="450.00" x1="750.00" id="3351" y2="575.50" /><line x2="750.00" style="fill:blue;stroke:blue;" y1="450.00" x1="750.00" id="3352" y2="400.00" /><line x2="820.00" style="fill:blue;stroke:blue;" y1="450.00" x1="750.00" id="3353" y2="450.00" /><line x2="750.00" style="fill:blue;stroke:blue;" y1="575.50" x1="750.00" id="3354" y2="624.50" /><line x2="820.00" style="fill:blue;stroke:blue;" y1="575.50" x1="750.00" id="3355" y2="624.50" /><line x2="820.00" style="fill:blue;stroke:blue;" y1="575.50" x1="750.00" id="3356" y2="575.50" /><line x2="650.00" style="fill:blue;stroke:blue;" y1="575.50" x1="750.00" id="3357" y2="580.00" /><line x2="750.00" style="fill:blue;stroke:blue;" y1="575.50" x1="750.00" id="3358" y2="450.00" /><line x2="330.00" style="fill:blue;stroke:blue;" y1="624.50" x1="750.00" id="3359" y2="620.00" /><line x2="750.00" style="fill:blue;stroke:blue;" y1="624.50" x1="750.00" id="3360" y2="575.50" /><line x2="750.00" style="fill:blue;stroke:blue;" y1="120.00" x1="750.00" id="3361" y2="180.00" /><line x2="830.00" style="fill:blue;stroke:blue;" y1="120.00" x1="750.00" id="3362" y2="120.00" /><line x2="650.00" style="fill:blue;stroke:blue;" y1="120.00" x1="750.00" id="3363" y2="120.00" /><line x2="750.00" style="fill:blue;stroke:blue;" y1="180.00" x1="750.00" id="3364" y2="250.00" /><line x2="830.00" style="fill:blue;stroke:blue;" y1="180.00" x1="750.00" id="3365" y2="180.00" /><line x2="750.00" style="fill:blue;stroke:blue;" y1="180.00" x1="750.00" id="3366" y2="120.00" /><line x2="830.00" style="fill:blue;stroke:blue;" y1="180.00" x1="750.00" id="3367" y2="120.00" /><line x2="750.00" style="fill:blue;stroke:blue;" y1="250.00" x1="750.00" id="3368" y2="350.00" /><line x2="830.00" style="fill:blue;stroke:blue;" y1="250.00" x1="750.00" id="3369" y2="250.00" /><line x2="750.00" style="fill:blue;stroke:blue;" y1="250.00" x1="750.00" id="3370" y2="180.00" /><line x2="950.00" style="fill:blue;stroke:blue;" y1="575.50" x1="820.00" id="3371" y2="580.00" /><line x2="750.00" style="fill:blue;stroke:blue;" y1="575.50" x1="820.00" id="3372" y2="575.50" /><line x2="820.00" style="fill:blue;stroke:blue;" y1="575.50" x1="820.00" id="3373" y2="624.50" /><line x2="750.00" style="fill:blue;stroke:blue;" y1="624.50" x1="820.00" id="3374" y2="575.50" /><line x2="820.00" style="fill:blue;stroke:blue;" y1="624.50" x1="820.00" id="3375" y2="575.50" /><line x2="820.00" style="fill:blue;stroke:blue;" y1="624.50" x1="820.00" id="3376" y2="700.00" /><line x2="820.00" style="fill:blue;stroke:blue;" y1="700.00" x1="820.00" id="3377" y2="624.50" /><line x2="820.00" style="fill:blue;stroke:blue;" y1="350.00" x1="820.00" id="3378" y2="400.00" /><line x2="750.00" style="fill:blue;stroke:blue;" y1="350.00" x1="820.00" id="3379" y2="350.00" /><line x2="750.00" style="fill:blue;stroke:blue;" y1="400.00" x1="820.00" id="3380" y2="400.00" /><line x2="820.00" style="fill:blue;stroke:blue;" y1="400.00" x1="820.00" id="3381" y2="350.00" /><line x2="750.00" style="fill:blue;stroke:blue;" y1="450.00" x1="820.00" id="3382" y2="450.00" /><line x2="750.00" style="fill:blue;stroke:blue;" y1="450.00" x1="820.00" id="3383" y2="400.00" /><line x2="900.00" style="fill:blue;stroke:blue;" y1="450.00" x1="820.00" id="3384" y2="450.00" /><line x2="950.00" style="fill:blue;stroke:blue;" y1="120.00" x1="830.00" id="3385" y2="130.00" /><line x2="750.00" style="fill:blue;stroke:blue;" y1="120.00" x1="830.00" id="3386" y2="180.00" /><line x2="750.00" style="fill:blue;stroke:blue;" y1="120.00" x1="830.00" id="3387" y2="120.00" /><line x2="830.00" style="fill:blue;stroke:blue;" y1="180.00" x1="830.00" id="3388" y2="250.00" /><line x2="750.00" style="fill:blue;stroke:blue;" y1="180.00" x1="830.00" id="3389" y2="180.00" /><line x2="750.00" style="fill:blue;stroke:blue;" y1="250.00" x1="830.00" id="3390" y2="250.00" /><line x2="830.00" style="fill:blue;stroke:blue;" y1="250.00" x1="830.00" id="3391" y2="180.00" /><line x2="820.00" style="fill:blue;stroke:blue;" y1="450.00" x1="900.00" id="3392" y2="450.00" /><line x2="980.00" style="fill:blue;stroke:blue;" y1="450.00" x1="900.00" id="3393" y2="450.00" /><line x2="200.00" style="fill:blue;stroke:blue;" y1="80.00" x1="70.00" id="3394" y2="75.50" /><line x2="120.00" style="fill:blue;stroke:blue;" y1="580.00" x1="30.00" id="3395" y2="580.00" /><line x2="180.00" style="fill:blue;stroke:blue;" y1="680.00" x1="80.00" id="3396" y2="624.50" /><line x2="260.00" style="fill:blue;stroke:blue;" y1="700.00" x1="260.00" id="3397" y2="624.50" /><line x2="820.00" style="fill:blue;stroke:blue;" y1="580.00" x1="950.00" id="3398" y2="575.50" /><line x2="900.00" style="fill:blue;stroke:blue;" y1="450.00" x1="980.00" id="3399" y2="450.00" /><line x2="830.00" style="fill:blue;stroke:blue;" y1="130.00" x1="950.00" id="3400" y2="120.00" /></svg>
