<?xml version="1.0" standalone="yes"?><!DOCTYPE svg PUBLIC "-//W3C//DTD SVG 1.1//EN" "http://www.w3.org/Graphics/SVG/1.1/DTD/svg11.dtd"[]><svg width="1050.00" height="800.00" id="3145" xmlns="http://www.w3.org/2000/svg" xmlns:xlink="http://www.w3.org/1999/xlink"><rect Type="system" x="120.00" id="3146" height="5.00" width="5.00" Name="1-3HWZ" ID="30004037" Region="云环" y="580.00" /><text y="580.00" x="120.00" id="3147">1-3HWZ</text><rect Type="system" x="200.00" id="3149" height="5.00" width="5.00" Name="Z-Y7R7" ID="30004063" Region="云环" y="75.50" /><text y="75.50" x="200.00" id="3150">Z-Y7R7</text><rect Type="system" x="200.00" id="3152" height="5.00" width="5.00" Name="O-BDXB" ID="30004060" Region="云环" y="124.50" /><text y="124.50" x="200.00" id="3153">O-BDXB</text><rect Type="system" x="200.00" id="3155" height="5.00" width="5.00" Name="MJYW-3" ID="30004064" Region="云环" y="180.00" /><text y="180.00" x="200.00" id="3156">MJYW-3</text><rect Type="system" x="180.00" id="3158" height="5.00" width="5.00" Name="XT-R36" ID="30004038" Region="云环" y="575.50" /><text y="575.50" x="180.00" id="3159">XT-R36</text><rect Type="system" x="180.00" id="3161" height="5.00" width="5.00" Name="5-MLDT" ID="30004039" Region="云环" y="624.50" /><text y="624.50" x="180.00" id="3162">5-MLDT</text><rect Type="system" x="270.00" id="3164" height="5.00" width="5.00" Name="G8AD-C" ID="30004061" Region="云环" y="75.50" /><text y="75.50" x="270.00" id="3165">G8AD-C</text><rect Type="system" x="270.00" id="3167" height="5.00" width="5.00" Name="9-4RP2" ID="30004059" Region="云环" y="124.50" /><text y="124.50" x="270.00" id="3168">9-4RP2</text><rect Type="system" x="260.00" id="3170" height="5.00" width="5.00" Name="QXW-PV" ID="30004041" Region="云环" y="575.50" /><text y="575.50" x="260.00" id="3171">QXW-PV</text><rect Type="system" x="260.00" id="3173" height="5.00" width="5.00" Name="B-DBYQ" ID="30004040" Region="云环" y="624.50" /><text y="624.50" x="260.00" id="3174">B-DBYQ</text><rect Type="system" x="350.00" id="3176" height="5.00" width="5.00" Name="XZH-4X" ID="30004062" Region="云环" y="75.50" /><text y="75.50" x="350.00" id="3177">XZH-4X</text><rect Type="system" x="350.00" id="3179" height="5.00" width="5.00" Name="FQ9W-C" ID="30004058" Region="云环" y="124.50" /><text y="124.50" x="350.00" id="3180">FQ9W-C</text><rect Type="system" x="330.00" id="3182" height="5.00" width="5.00" Name="DY-F70" ID="30004042" Region="云环" y="620.00" /><text y="620.00" x="330.00" id="3183">DY-F70</text><rect Type="system" x="420.00" id="3185" height="5.00" width="5.00" Name="6Z9-0M" ID="30004057" Region="云环" y="120.00" /><text y="120.00" x="420.00" id="3186">6Z9-0M</text><rect Type="system" x="500.00" id="3188" height="5.00" width="5.00" Name="U65-CN" ID="30004074" Region="云环" y="130.00" /><text y="130.00" x="500.00" id="3189">U65-CN</text><rect Type="system" x="580.00" id="3191" height="5.00" width="5.00" Name="CX7-70" ID="30004072" Region="云环" y="20.00" /><text y="20.00" x="580.00" id="3192">CX7-70</text><rect Type="system" x="580.00" id="3194" height="5.00" width="5.00" Name="6ON-RW" ID="30004073" Region="云环" y="75.50" /><text y="75.50" x="580.00" id="3195">6ON-RW</text><rect Type="system" x="580.00" id="3197" height="5.00" width="5.00" Name="X-M9ON" ID="30004075" Region="云环" y="124.50" /><text y="124.50" x="580.00" id="3198">X-M9ON</text><rect Type="system" x="580.00" id="3200" height="5.00" width="5.00" Name="O-IVNH" ID="30004049" Region="云环" y="580.00" /><text y="580.00" x="580.00" id="3201">O-IVNH</text><rect Type="system" x="650.00" id="3203" height="5.00" width="5.00" Name="28O-JY" ID="30004071" Region="云环" y="20.00" /><text y="20.00" x="650.00" id="3204">28O-JY</text><rect Type="system" x="650.00" id="3206" height="5.00" width="5.00" Name="P5-KCC" ID="30004076" Region="云环" y="120.00" /><text y="120.00" x="650.00" id="3207">P5-KCC</text><rect Type="system" x="650.00" id="3209" height="5.00" width="5.00" Name="1-NW2G" ID="30004048" Region="云环" y="580.00" /><text y="580.00" x="650.00" id="3210">1-NW2G</text><rect Type="system" x="750.00" id="3212" height="5.00" width="5.00" Name="8R-RTB" ID="30004056" Region="云环" y="350.00" /><text y="350.00" x="750.00" id="3213">8R-RTB</text><rect Type="system" x="750.00" id="3215" height="5.00" width="5.00" Name="YI-8ZM" ID="30004051" Region="云环" y="400.00" /><text y="400.00" x="750.00" id="3216">YI-8ZM</text><rect Type="system" x="750.00" id="3218" height="5.00" width="5.00" Name="O-0HW8" ID="30004050" Region="云环" y="450.00" /><text y="450.00" x="750.00" id="3219">O-0HW8</text><rect Type="system" x="750.00" id="3221" height="5.00" width="5.00" Name="O-ZXUV" ID="30004044" Region="云环" y="575.50" /><text y="575.50" x="750.00" id="3222">O-ZXUV</text><rect Type="system" x="750.00" id="3224" height="5.00" width="5.00" Name="FD53-H" ID="30004043" Region="云环" y="624.50" /><text y="624.50" x="750.00" id="3225">FD53-H</text><rect Type="system" x="750.00" id="3227" height="5.00" width="5.00" Name="XG-D1L" ID="30004069" Region="云环" y="120.00" /><text y="120.00" x="750.00" id="3228">XG-D1L</text><rect Type="system" x="750.00" id="3230" height="5.00" width="5.00" Name="00TY-J" ID="30004068" Region="云环" y="180.00" /><text y="180.00" x="750.00" id="3231">00TY-J</text><rect Type="system" x="750.00" id="3233" height="5.00" width="5.00" Name="PPG-XC" ID="30004065" Region="云环" y="250.00" /><text y="250.00" x="750.00" id="3234">PPG-XC</text><rect Type="system" x="820.00" id="3236" height="5.00" width="5.00" Name="F7C-H0" ID="30004046" Region="云环" y="575.50" /><text y="575.50" x="820.00" id="3237">F7C-H0</text><rect Type="system" x="820.00" id="3239" height="5.00" width="5.00" Name="77-KDQ" ID="30004045" Region="云环" y="624.50" /><text y="624.50" x="820.00" id="3240">77-KDQ</text><rect Type="system" x="820.00" id="3242" height="5.00" width="5.00" Name="TN-T7T" ID="30004047" Region="云环" y="700.00" /><text y="700.00" x="820.00" id="3243">TN-T7T</text><rect Type="system" x="820.00" id="3245" height="5.00" width="5.00" Name="Q-UA3C" ID="30004054" Region="云环" y="350.00" /><text y="350.00" x="820.00" id="3246">Q-UA3C</text><rect Type="system" x="820.00" id="3248" height="5.00" width="5.00" Name="OU-X3P" ID="30004052" Region="云环" y="400.00" /><text y="400.00" x="820.00" id="3249">OU-X3P</text><rect Type="system" x="820.00" id="3251" height="5.00" width="5.00" Name="6-4V20" ID="30004053" Region="云环" y="450.00" /><text y="450.00" x="820.00" id="3252">6-4V20</text><rect Type="system" x="830.00" id="3254" height="5.00" width="5.00" Name="6RCQ-V" ID="30004070" Region="云环" y="120.00" /><text y="120.00" x="830.00" id="3255">6RCQ-V</text><rect Type="system" x="830.00" id="3257" height="5.00" width="5.00" Name="5S-KNL" ID="30004067" Region="云环" y="180.00" /><text y="180.00" x="830.00" id="3258">5S-KNL</text><rect Type="system" x="830.00" id="3260" height="5.00" width="5.00" Name="QA1-BT" ID="30004066" Region="云环" y="250.00" /><text y="250.00" x="830.00" id="3261">QA1-BT</text><rect Type="system" x="900.00" id="3263" height="5.00" width="5.00" Name="W-4NUU" ID="30004055" Region="云环" y="450.00" /><text y="450.00" x="900.00" id="3264">W-4NUU</text><rect Type="system" x="70.00" id="3266" height="5.00" width="5.00" Name="7D-0SQ" ID="30002046" Region="黑渊" y="80.00" /><text y="80.00" x="70.00" id="3267">7D-0SQ</text><rect Type="system" x="30.00" id="3269" height="5.00" width="5.00" Name="A-SJ8X" ID="30003335" Region="辛迪加" y="580.00" /><text y="580.00" x="30.00" id="3270">A-SJ8X</text><rect Type="system" x="80.00" id="3272" height="5.00" width="5.00" Name="IZ-AOB" ID="30004535" Region="外环" y="680.00" /><text y="680.00" x="80.00" id="3273">IZ-AOB</text><rect Type="system" x="260.00" id="3275" height="5.00" width="5.00" Name="J5A-IX" ID="30004589" Region="源泉之域" y="700.00" /><text y="700.00" x="260.00" id="3276">J5A-IX</text><rect Type="system" x="950.00" id="3278" height="5.00" width="5.00" Name="奥萨温伦" ID="30003841" Region="宁静之域" y="580.00" /><text y="580.00" x="950.00" id="3279">奥萨温伦</text><rect Type="system" x="980.00" id="3281" height="5.00" width="5.00" Name="欧卡伽肯" ID="30045307" Region="暗涌之域" y="450.00" /><text y="450.00" x="980.00" id="3282">欧卡伽肯</text><rect Type="system" x="950.00" id="3284" height="5.00" width="5.00" Name="E9KD-N" ID="30003694" Region="斐德" y="130.00" /><text y="130.00" x="950.00" id="3285">E9KD-N</text><line style="stroke:blue;fill:blue;" id="3287" x2="30.00" x1="120.00" y1="580.00" y2="580.00" /><line style="stroke:blue;fill:blue;" id="3288" x2="180.00" x1="120.00" y1="580.00" y2="575.50" /><line style="stroke:blue;fill:blue;" id="3289" x2="70.00" x1="200.00" y1="75.50" y2="80.00" /><line style="stroke:blue;fill:blue;" id="3290" x2="200.00" x1="200.00" y1="75.50" y2="124.50" /><line style="stroke:blue;fill:blue;" id="3291" x2="270.00" x1="200.00" y1="75.50" y2="75.50" /><line style="stroke:blue;fill:blue;" id="3292" x2="270.00" x1="200.00" y1="124.50" y2="124.50" /><line style="stroke:blue;fill:blue;" id="3293" x2="200.00" x1="200.00" y1="124.50" y2="75.50" /><line style="stroke:blue;fill:blue;" id="3294" x2="200.00" x1="200.00" y1="124.50" y2="180.00" /><line style="stroke:blue;fill:blue;" id="3295" x2="260.00" x1="200.00" y1="180.00" y2="575.50" /><line style="stroke:blue;fill:blue;" id="3296" x2="200.00" x1="200.00" y1="180.00" y2="124.50" /><line style="stroke:blue;fill:blue;" id="3297" x2="120.00" x1="180.00" y1="575.50" y2="580.00" /><line style="stroke:blue;fill:blue;" id="3298" x2="180.00" x1="180.00" y1="575.50" y2="624.50" /><line style="stroke:blue;fill:blue;" id="3299" x2="260.00" x1="180.00" y1="575.50" y2="575.50" /><line style="stroke:blue;fill:blue;" id="3300" x2="180.00" x1="180.00" y1="624.50" y2="575.50" /><line style="stroke:blue;fill:blue;" id="3301" x2="260.00" x1="180.00" y1="624.50" y2="624.50" /><line style="stroke:blue;fill:blue;" id="3302" x2="80.00" x1="180.00" y1="624.50" y2="680.00" /><line style="stroke:blue;fill:blue;" id="3303" x2="270.00" x1="270.00" y1="75.50" y2="124.50" /><line style="stroke:blue;fill:blue;" id="3304" x2="200.00" x1="270.00" y1="75.50" y2="75.50" /><line style="stroke:blue;fill:blue;" id="3305" x2="350.00" x1="270.00" y1="124.50" y2="124.50" /><line style="stroke:blue;fill:blue;" id="3306" x2="200.00" x1="270.00" y1="124.50" y2="124.50" /><line style="stroke:blue;fill:blue;" id="3307" x2="270.00" x1="270.00" y1="124.50" y2="75.50" /><line style="stroke:blue;fill:blue;" id="3308" x2="350.00" x1="270.00" y1="124.50" y2="75.50" /><line style="stroke:blue;fill:blue;" id="3309" x2="180.00" x1="260.00" y1="575.50" y2="575.50" /><line style="stroke:blue;fill:blue;" id="3310" x2="260.00" x1="260.00" y1="575.50" y2="624.50" /><line style="stroke:blue;fill:blue;" id="3311" x2="200.00" x1="260.00" y1="575.50" y2="180.00" /><line style="stroke:blue;fill:blue;" id="3312" x2="180.00" x1="260.00" y1="624.50" y2="624.50" /><line style="stroke:blue;fill:blue;" id="3313" x2="260.00" x1="260.00" y1="624.50" y2="575.50" /><line style="stroke:blue;fill:blue;" id="3314" x2="330.00" x1="260.00" y1="624.50" y2="620.00" /><line style="stroke:blue;fill:blue;" id="3315" x2="260.00" x1="260.00" y1="624.50" y2="700.00" /><line style="stroke:blue;fill:blue;" id="3316" x2="270.00" x1="350.00" y1="75.50" y2="124.50" /><line style="stroke:blue;fill:blue;" id="3317" x2="420.00" x1="350.00" y1="124.50" y2="120.00" /><line style="stroke:blue;fill:blue;" id="3318" x2="270.00" x1="350.00" y1="124.50" y2="124.50" /><line style="stroke:blue;fill:blue;" id="3319" x2="260.00" x1="330.00" y1="620.00" y2="624.50" /><line style="stroke:blue;fill:blue;" id="3320" x2="750.00" x1="330.00" y1="620.00" y2="624.50" /><line style="stroke:blue;fill:blue;" id="3321" x2="350.00" x1="420.00" y1="120.00" y2="124.50" /><line style="stroke:blue;fill:blue;" id="3322" x2="500.00" x1="420.00" y1="120.00" y2="130.00" /><line style="stroke:blue;fill:blue;" id="3323" x2="420.00" x1="500.00" y1="130.00" y2="120.00" /><line style="stroke:blue;fill:blue;" id="3324" x2="580.00" x1="500.00" y1="130.00" y2="75.50" /><line style="stroke:blue;fill:blue;" id="3325" x2="580.00" x1="500.00" y1="130.00" y2="124.50" /><line style="stroke:blue;fill:blue;" id="3326" x2="650.00" x1="580.00" y1="20.00" y2="20.00" /><line style="stroke:blue;fill:blue;" id="3327" x2="580.00" x1="580.00" y1="20.00" y2="75.50" /><line style="stroke:blue;fill:blue;" id="3328" x2="580.00" x1="580.00" y1="75.50" y2="20.00" /><line style="stroke:blue;fill:blue;" id="3329" x2="500.00" x1="580.00" y1="75.50" y2="130.00" /><line style="stroke:blue;fill:blue;" id="3330" x2="580.00" x1="580.00" y1="75.50" y2="124.50" /><line style="stroke:blue;fill:blue;" id="3331" x2="650.00" x1="580.00" y1="75.50" y2="120.00" /><line style="stroke:blue;fill:blue;" id="3332" x2="580.00" x1="580.00" y1="124.50" y2="75.50" /><line style="stroke:blue;fill:blue;" id="3333" x2="500.00" x1="580.00" y1="124.50" y2="130.00" /><line style="stroke:blue;fill:blue;" id="3334" x2="650.00" x1="580.00" y1="124.50" y2="120.00" /><line style="stroke:blue;fill:blue;" id="3335" x2="650.00" x1="580.00" y1="580.00" y2="580.00" /><line style="stroke:blue;fill:blue;" id="3336" x2="580.00" x1="650.00" y1="20.00" y2="20.00" /><line style="stroke:blue;fill:blue;" id="3337" x2="650.00" x1="650.00" y1="20.00" y2="120.00" /><line style="stroke:blue;fill:blue;" id="3338" x2="750.00" x1="650.00" y1="120.00" y2="120.00" /><line style="stroke:blue;fill:blue;" id="3339" x2="650.00" x1="650.00" y1="120.00" y2="20.00" /><line style="stroke:blue;fill:blue;" id="3340" x2="580.00" x1="650.00" y1="120.00" y2="75.50" /><line style="stroke:blue;fill:blue;" id="3341" x2="580.00" x1="650.00" y1="120.00" y2="124.50" /><line style="stroke:blue;fill:blue;" id="3342" x2="750.00" x1="650.00" y1="580.00" y2="575.50" /><line style="stroke:blue;fill:blue;" id="3343" x2="580.00" x1="650.00" y1="580.00" y2="580.00" /><line style="stroke:blue;fill:blue;" id="3344" x2="750.00" x1="750.00" y1="350.00" y2="400.00" /><line style="stroke:blue;fill:blue;" id="3345" x2="820.00" x1="750.00" y1="350.00" y2="350.00" /><line style="stroke:blue;fill:blue;" id="3346" x2="750.00" x1="750.00" y1="350.00" y2="250.00" /><line style="stroke:blue;fill:blue;" id="3347" x2="750.00" x1="750.00" y1="400.00" y2="450.00" /><line style="stroke:blue;fill:blue;" id="3348" x2="820.00" x1="750.00" y1="400.00" y2="400.00" /><line style="stroke:blue;fill:blue;" id="3349" x2="820.00" x1="750.00" y1="400.00" y2="450.00" /><line style="stroke:blue;fill:blue;" id="3350" x2="750.00" x1="750.00" y1="400.00" y2="350.00" /><line style="stroke:blue;fill:blue;" id="3351" x2="750.00" x1="750.00" y1="450.00" y2="575.50" /><line style="stroke:blue;fill:blue;" id="3352" x2="750.00" x1="750.00" y1="450.00" y2="400.00" /><line style="stroke:blue;fill:blue;" id="3353" x2="820.00" x1="750.00" y1="450.00" y2="450.00" /><line style="stroke:blue;fill:blue;" id="3354" x2="750.00" x1="750.00" y1="575.50" y2="624.50" /><line style="stroke:blue;fill:blue;" id="3355" x2="820.00" x1="750.00" y1="575.50" y2="624.50" /><line style="stroke:blue;fill:blue;" id="3356" x2="820.00" x1="750.00" y1="575.50" y2="575.50" /><line style="stroke:blue;fill:blue;" id="3357" x2="650.00" x1="750.00" y1="575.50" y2="580.00" /><line style="stroke:blue;fill:blue;" id="3358" x2="750.00" x1="750.00" y1="575.50" y2="450.00" /><line style="stroke:blue;fill:blue;" id="3359" x2="330.00" x1="750.00" y1="624.50" y2="620.00" /><line style="stroke:blue;fill:blue;" id="3360" x2="750.00" x1="750.00" y1="624.50" y2="575.50" /><line style="stroke:blue;fill:blue;" id="3361" x2="750.00" x1="750.00" y1="120.00" y2="180.00" /><line style="stroke:blue;fill:blue;" id="3362" x2="830.00" x1="750.00" y1="120.00" y2="120.00" /><line style="stroke:blue;fill:blue;" id="3363" x2="650.00" x1="750.00" y1="120.00" y2="120.00" /><line style="stroke:blue;fill:blue;" id="3364" x2="750.00" x1="750.00" y1="180.00" y2="250.00" /><line style="stroke:blue;fill:blue;" id="3365" x2="830.00" x1="750.00" y1="180.00" y2="180.00" /><line style="stroke:blue;fill:blue;" id="3366" x2="750.00" x1="750.00" y1="180.00" y2="120.00" /><line style="stroke:blue;fill:blue;" id="3367" x2="830.00" x1="750.00" y1="180.00" y2="120.00" /><line style="stroke:blue;fill:blue;" id="3368" x2="750.00" x1="750.00" y1="250.00" y2="350.00" /><line style="stroke:blue;fill:blue;" id="3369" x2="830.00" x1="750.00" y1="250.00" y2="250.00" /><line style="stroke:blue;fill:blue;" id="3370" x2="750.00" x1="750.00" y1="250.00" y2="180.00" /><line style="stroke:blue;fill:blue;" id="3371" x2="950.00" x1="820.00" y1="575.50" y2="580.00" /><line style="stroke:blue;fill:blue;" id="3372" x2="750.00" x1="820.00" y1="575.50" y2="575.50" /><line style="stroke:blue;fill:blue;" id="3373" x2="820.00" x1="820.00" y1="575.50" y2="624.50" /><line style="stroke:blue;fill:blue;" id="3374" x2="750.00" x1="820.00" y1="624.50" y2="575.50" /><line style="stroke:blue;fill:blue;" id="3375" x2="820.00" x1="820.00" y1="624.50" y2="575.50" /><line style="stroke:blue;fill:blue;" id="3376" x2="820.00" x1="820.00" y1="624.50" y2="700.00" /><line style="stroke:blue;fill:blue;" id="3377" x2="820.00" x1="820.00" y1="700.00" y2="624.50" /><line style="stroke:blue;fill:blue;" id="3378" x2="820.00" x1="820.00" y1="350.00" y2="400.00" /><line style="stroke:blue;fill:blue;" id="3379" x2="750.00" x1="820.00" y1="350.00" y2="350.00" /><line style="stroke:blue;fill:blue;" id="3380" x2="750.00" x1="820.00" y1="400.00" y2="400.00" /><line style="stroke:blue;fill:blue;" id="3381" x2="820.00" x1="820.00" y1="400.00" y2="350.00" /><line style="stroke:blue;fill:blue;" id="3382" x2="750.00" x1="820.00" y1="450.00" y2="450.00" /><line style="stroke:blue;fill:blue;" id="3383" x2="750.00" x1="820.00" y1="450.00" y2="400.00" /><line style="stroke:blue;fill:blue;" id="3384" x2="900.00" x1="820.00" y1="450.00" y2="450.00" /><line style="stroke:blue;fill:blue;" id="3385" x2="950.00" x1="830.00" y1="120.00" y2="130.00" /><line style="stroke:blue;fill:blue;" id="3386" x2="750.00" x1="830.00" y1="120.00" y2="180.00" /><line style="stroke:blue;fill:blue;" id="3387" x2="750.00" x1="830.00" y1="120.00" y2="120.00" /><line style="stroke:blue;fill:blue;" id="3388" x2="830.00" x1="830.00" y1="180.00" y2="250.00" /><line style="stroke:blue;fill:blue;" id="3389" x2="750.00" x1="830.00" y1="180.00" y2="180.00" /><line style="stroke:blue;fill:blue;" id="3390" x2="750.00" x1="830.00" y1="250.00" y2="250.00" /><line style="stroke:blue;fill:blue;" id="3391" x2="830.00" x1="830.00" y1="250.00" y2="180.00" /><line style="stroke:blue;fill:blue;" id="3392" x2="820.00" x1="900.00" y1="450.00" y2="450.00" /><line style="stroke:blue;fill:blue;" id="3393" x2="980.00" x1="900.00" y1="450.00" y2="450.00" /><line style="stroke:blue;fill:blue;" id="3394" x2="200.00" x1="70.00" y1="80.00" y2="75.50" /><line style="stroke:blue;fill:blue;" id="3395" x2="120.00" x1="30.00" y1="580.00" y2="580.00" /><line style="stroke:blue;fill:blue;" id="3396" x2="180.00" x1="80.00" y1="680.00" y2="624.50" /><line style="stroke:blue;fill:blue;" id="3397" x2="260.00" x1="260.00" y1="700.00" y2="624.50" /><line style="stroke:blue;fill:blue;" id="3398" x2="820.00" x1="950.00" y1="580.00" y2="575.50" /><line style="stroke:blue;fill:blue;" id="3399" x2="900.00" x1="980.00" y1="450.00" y2="450.00" /><line style="stroke:blue;fill:blue;" id="3400" x2="830.00" x1="950.00" y1="130.00" y2="120.00" /></svg>
