<?xml version="1.0" standalone="yes"?><!DOCTYPE svg PUBLIC "-//W3C//DTD SVG 1.1//EN" "http://www.w3.org/Graphics/SVG/1.1/DTD/svg11.dtd"[]><svg width="1050.00" height="800.00" id="14376" xmlns="http://www.w3.org/2000/svg" xmlns:xlink="http://www.w3.org/1999/xlink"><rect Type="system" x="50.00" id="14377" height="5.00" width="5.00" Name="94FR-S" ID="30002131" Region="伊梅瑟亚" y="80.00" /><text y="80.00" x="50.00" id="14378">94FR-S</text><rect Type="system" x="50.00" id="14380" height="5.00" width="5.00" Name="ZJA-6U" ID="30002130" Region="伊梅瑟亚" y="200.00" /><text y="200.00" x="50.00" id="14381">ZJA-6U</text><rect Type="system" x="50.00" id="14383" height="5.00" width="5.00" Name="O7-7UX" ID="30002116" Region="伊梅瑟亚" y="680.00" /><text y="680.00" x="50.00" id="14384">O7-7UX</text><rect Type="system" x="50.00" id="14386" height="5.00" width="5.00" Name="ZBP-TP" ID="30002121" Region="伊梅瑟亚" y="400.00" /><text y="400.00" x="50.00" id="14387">ZBP-TP</text><rect Type="system" x="78.09" id="14389" height="5.00" width="5.00" Name="XD-JW7" ID="30002118" Region="伊梅瑟亚" y="320.96" /><text y="320.96" x="78.09" id="14390">XD-JW7</text><rect Type="system" x="80.00" id="14392" height="5.00" width="5.00" Name="R-ZUOL" ID="30002135" Region="伊梅瑟亚" y="120.00" /><text y="120.00" x="80.00" id="14393">R-ZUOL</text><rect Type="system" x="100.00" id="14395" height="5.00" width="5.00" Name="B-R5RB" ID="30002157" Region="伊梅瑟亚" y="20.00" /><text y="20.00" x="100.00" id="14396">B-R5RB</text><rect Type="system" x="100.00" id="14398" height="5.00" width="5.00" Name="Q-HJ97" ID="30002132" Region="伊梅瑟亚" y="250.00" /><text y="250.00" x="100.00" id="14399">Q-HJ97</text><rect Type="system" x="100.00" id="14401" height="5.00" width="5.00" Name="JDAS-0" ID="30002112" Region="伊梅瑟亚" y="600.00" /><text y="600.00" x="100.00" id="14402">JDAS-0</text><rect Type="system" x="100.00" id="14404" height="5.00" width="5.00" Name="Y2-QUV" ID="30002115" Region="伊梅瑟亚" y="680.00" /><text y="680.00" x="100.00" id="14405">Y2-QUV</text><rect Type="system" x="121.91" id="14407" height="5.00" width="5.00" Name="H-RXNZ" ID="30002120" Region="伊梅瑟亚" y="299.04" /><text y="299.04" x="121.91" id="14408">H-RXNZ</text><rect Type="system" x="120.00" id="14410" height="5.00" width="5.00" Name="Z8-81T" ID="30002117" Region="伊梅瑟亚" y="350.00" /><text y="350.00" x="120.00" id="14411">Z8-81T</text><rect Type="system" x="120.00" id="14413" height="5.00" width="5.00" Name="DY-P7Q" ID="30002119" Region="伊梅瑟亚" y="400.00" /><text y="400.00" x="120.00" id="14414">DY-P7Q</text><rect Type="system" x="150.00" id="14416" height="5.00" width="5.00" Name="I-NGI8" ID="30002134" Region="伊梅瑟亚" y="120.00" /><text y="120.00" x="150.00" id="14417">I-NGI8</text><rect Type="system" x="140.00" id="14419" height="5.00" width="5.00" Name="E1F-LK" ID="30002136" Region="伊梅瑟亚" y="170.00" /><text y="170.00" x="140.00" id="14420">E1F-LK</text><rect Type="system" x="150.00" id="14422" height="5.00" width="5.00" Name="XVV-21" ID="30002122" Region="伊梅瑟亚" y="450.00" /><text y="450.00" x="150.00" id="14423">XVV-21</text><rect Type="system" x="180.00" id="14425" height="5.00" width="5.00" Name="O3Z5-G" ID="30002153" Region="伊梅瑟亚" y="20.00" /><text y="20.00" x="180.00" id="14426">O3Z5-G</text><rect Type="system" x="180.00" id="14428" height="5.00" width="5.00" Name="RF6T-8" ID="30002129" Region="伊梅瑟亚" y="80.00" /><text y="80.00" x="180.00" id="14429">RF6T-8</text><rect Type="system" x="179.04" id="14431" height="5.00" width="5.00" Name="GM-0K7" ID="30002133" Region="伊梅瑟亚" y="208.09" /><text y="208.09" x="179.04" id="14432">GM-0K7</text><rect Type="system" x="200.00" id="14434" height="5.00" width="5.00" Name="B9E-H6" ID="30002110" Region="伊梅瑟亚" y="550.00" /><text y="550.00" x="200.00" id="14435">B9E-H6</text><rect Type="system" x="200.00" id="14437" height="5.00" width="5.00" Name="Y19P-1" ID="30002109" Region="伊梅瑟亚" y="600.00" /><text y="600.00" x="200.00" id="14438">Y19P-1</text><rect Type="system" x="200.00" id="14440" height="5.00" width="5.00" Name="SPBS-6" ID="30002111" Region="伊梅瑟亚" y="680.00" /><text y="680.00" x="200.00" id="14441">SPBS-6</text><rect Type="system" x="200.96" id="14443" height="5.00" width="5.00" Name="Z4-QLD" ID="30002137" Region="伊梅瑟亚" y="251.91" /><text y="251.91" x="200.96" id="14444">Z4-QLD</text><rect Type="system" x="250.00" id="14446" height="5.00" width="5.00" Name="4DV-1T" ID="30002154" Region="伊梅瑟亚" y="20.00" /><text y="20.00" x="250.00" id="14447">4DV-1T</text><rect Type="system" x="250.00" id="14449" height="5.00" width="5.00" Name="78TS-Q" ID="30002125" Region="伊梅瑟亚" y="300.00" /><text y="300.00" x="250.00" id="14450">78TS-Q</text><rect Type="system" x="250.00" id="14452" height="5.00" width="5.00" Name="GXK-7F" ID="30002123" Region="伊梅瑟亚" y="350.00" /><text y="350.00" x="250.00" id="14453">GXK-7F</text><rect Type="system" x="280.00" id="14455" height="5.00" width="5.00" Name="NS2L-4" ID="30002103" Region="伊梅瑟亚" y="500.00" /><text y="500.00" x="280.00" id="14456">NS2L-4</text><rect Type="system" x="280.00" id="14458" height="5.00" width="5.00" Name="LN-56V" ID="30002114" Region="伊梅瑟亚" y="600.00" /><text y="600.00" x="280.00" id="14459">LN-56V</text><rect Type="system" x="280.00" id="14461" height="5.00" width="5.00" Name="A4B-V5" ID="30002113" Region="伊梅瑟亚" y="680.00" /><text y="680.00" x="280.00" id="14462">A4B-V5</text><rect Type="system" x="300.00" id="14464" height="5.00" width="5.00" Name="QN-6J2" ID="30002186" Region="伊梅瑟亚" y="100.00" /><text y="100.00" x="300.00" id="14465">QN-6J2</text><rect Type="system" x="350.00" id="14467" height="5.00" width="5.00" Name="XS-K1O" ID="30002155" Region="伊梅瑟亚" y="20.00" /><text y="20.00" x="350.00" id="14468">XS-K1O</text><rect Type="system" x="350.00" id="14470" height="5.00" width="5.00" Name="CJNF-J" ID="30002127" Region="伊梅瑟亚" y="300.00" /><text y="300.00" x="350.00" id="14471">CJNF-J</text><rect Type="system" x="350.00" id="14473" height="5.00" width="5.00" Name="EA-HSA" ID="30002124" Region="伊梅瑟亚" y="350.00" /><text y="350.00" x="350.00" id="14474">EA-HSA</text><rect Type="system" x="350.00" id="14476" height="5.00" width="5.00" Name="AF0-V5" ID="30002107" Region="伊梅瑟亚" y="450.00" /><text y="450.00" x="350.00" id="14477">AF0-V5</text><rect Type="system" x="350.00" id="14479" height="5.00" width="5.00" Name="B-S347" ID="30002105" Region="伊梅瑟亚" y="500.00" /><text y="500.00" x="350.00" id="14480">B-S347</text><rect Type="system" x="380.00" id="14482" height="5.00" width="5.00" Name="PH-NFR" ID="30002145" Region="伊梅瑟亚" y="550.00" /><text y="550.00" x="380.00" id="14483">PH-NFR</text><rect Type="system" x="380.00" id="14485" height="5.00" width="5.00" Name="X-6WC7" ID="30002148" Region="伊梅瑟亚" y="720.00" /><text y="720.00" x="380.00" id="14486">X-6WC7</text><rect Type="system" x="400.00" id="14488" height="5.00" width="5.00" Name="DR-427" ID="30002184" Region="伊梅瑟亚" y="75.50" /><text y="75.50" x="400.00" id="14489">DR-427</text><rect Type="system" x="400.00" id="14491" height="5.00" width="5.00" Name="M-ZJWJ" ID="30002181" Region="伊梅瑟亚" y="124.50" /><text y="124.50" x="400.00" id="14492">M-ZJWJ</text><rect Type="system" x="400.00" id="14494" height="5.00" width="5.00" Name="NI-J0B" ID="30002185" Region="伊梅瑟亚" y="175.50" /><text y="175.50" x="400.00" id="14495">NI-J0B</text><rect Type="system" x="400.00" id="14497" height="5.00" width="5.00" Name="RU-PT9" ID="30002183" Region="伊梅瑟亚" y="224.50" /><text y="224.50" x="400.00" id="14498">RU-PT9</text><rect Type="system" x="420.00" id="14500" height="5.00" width="5.00" Name="FN-DSR" ID="30002156" Region="伊梅瑟亚" y="20.00" /><text y="20.00" x="420.00" id="14501">FN-DSR</text><rect Type="system" x="420.00" id="14503" height="5.00" width="5.00" Name="FYI-49" ID="30002128" Region="伊梅瑟亚" y="300.00" /><text y="300.00" x="420.00" id="14504">FYI-49</text><rect Type="system" x="420.00" id="14506" height="5.00" width="5.00" Name="WYF8-8" ID="30002126" Region="伊梅瑟亚" y="350.00" /><text y="350.00" x="420.00" id="14507">WYF8-8</text><rect Type="system" x="420.00" id="14509" height="5.00" width="5.00" Name="PPFB-U" ID="30002106" Region="伊梅瑟亚" y="400.00" /><text y="400.00" x="420.00" id="14510">PPFB-U</text><rect Type="system" x="420.00" id="14512" height="5.00" width="5.00" Name="B-A587" ID="30002108" Region="伊梅瑟亚" y="450.00" /><text y="450.00" x="420.00" id="14513">B-A587</text><rect Type="system" x="420.00" id="14515" height="5.00" width="5.00" Name="QI-S9W" ID="30002104" Region="伊梅瑟亚" y="500.00" /><text y="500.00" x="420.00" id="14516">QI-S9W</text><rect Type="system" x="450.00" id="14518" height="5.00" width="5.00" Name="DW-N2S" ID="30002146" Region="伊梅瑟亚" y="575.50" /><text y="575.50" x="450.00" id="14519">DW-N2S</text><rect Type="system" x="450.00" id="14521" height="5.00" width="5.00" Name="D-BAMJ" ID="30002149" Region="伊梅瑟亚" y="624.50" /><text y="624.50" x="450.00" id="14522">D-BAMJ</text><rect Type="system" x="450.00" id="14524" height="5.00" width="5.00" Name="RHE7-W" ID="30002151" Region="伊梅瑟亚" y="675.50" /><text y="675.50" x="450.00" id="14525">RHE7-W</text><rect Type="system" x="450.00" id="14527" height="5.00" width="5.00" Name="F76-8Q" ID="30002152" Region="伊梅瑟亚" y="724.50" /><text y="724.50" x="450.00" id="14528">F76-8Q</text><rect Type="system" x="480.00" id="14530" height="5.00" width="5.00" Name="FRTC-5" ID="30002180" Region="伊梅瑟亚" y="100.00" /><text y="100.00" x="480.00" id="14531">FRTC-5</text><rect Type="system" x="480.00" id="14533" height="5.00" width="5.00" Name="O7-VJ5" ID="30002179" Region="伊梅瑟亚" y="150.00" /><text y="150.00" x="480.00" id="14534">O7-VJ5</text><rect Type="system" x="480.00" id="14536" height="5.00" width="5.00" Name="R-ORB7" ID="30002182" Region="伊梅瑟亚" y="200.00" /><text y="200.00" x="480.00" id="14537">R-ORB7</text><rect Type="system" x="500.00" id="14539" height="5.00" width="5.00" Name="7-ZT1Y" ID="30002158" Region="伊梅瑟亚" y="20.00" /><text y="20.00" x="500.00" id="14540">7-ZT1Y</text><rect Type="system" x="500.00" id="14542" height="5.00" width="5.00" Name="W-FHWJ" ID="30002147" Region="伊梅瑟亚" y="550.00" /><text y="550.00" x="500.00" id="14543">W-FHWJ</text><rect Type="system" x="500.00" id="14545" height="5.00" width="5.00" Name="L-5JCJ" ID="30002142" Region="伊梅瑟亚" y="350.00" /><text y="350.00" x="500.00" id="14546">L-5JCJ</text><rect Type="system" x="550.00" id="14548" height="5.00" width="5.00" Name="QE-E1D" ID="30002138" Region="伊梅瑟亚" y="500.00" /><text y="500.00" x="550.00" id="14549">QE-E1D</text><rect Type="system" x="550.00" id="14551" height="5.00" width="5.00" Name="REB-KR" ID="30002140" Region="伊梅瑟亚" y="400.00" /><text y="400.00" x="550.00" id="14552">REB-KR</text><rect Type="system" x="550.00" id="14554" height="5.00" width="5.00" Name="JKWP-U" ID="30002150" Region="伊梅瑟亚" y="650.00" /><text y="650.00" x="550.00" id="14555">JKWP-U</text><rect Type="system" x="580.00" id="14557" height="5.00" width="5.00" Name="KCDX-7" ID="30002178" Region="伊梅瑟亚" y="100.00" /><text y="100.00" x="580.00" id="14558">KCDX-7</text><rect Type="system" x="580.00" id="14560" height="5.00" width="5.00" Name="4-GB14" ID="30002144" Region="伊梅瑟亚" y="350.00" /><text y="350.00" x="580.00" id="14561">4-GB14</text><rect Type="system" x="620.00" id="14563" height="5.00" width="5.00" Name="LK1K-5" ID="30002139" Region="伊梅瑟亚" y="500.00" /><text y="500.00" x="620.00" id="14564">LK1K-5</text><rect Type="system" x="650.00" id="14566" height="5.00" width="5.00" Name="LBA-SO" ID="30002161" Region="伊梅瑟亚" y="600.00" /><text y="600.00" x="650.00" id="14567">LBA-SO</text><rect Type="system" x="650.00" id="14569" height="5.00" width="5.00" Name="6-I162" ID="30002167" Region="伊梅瑟亚" y="250.00" /><text y="250.00" x="650.00" id="14570">6-I162</text><rect Type="system" x="680.00" id="14572" height="5.00" width="5.00" Name="E8-YS9" ID="30002163" Region="伊梅瑟亚" y="650.00" /><text y="650.00" x="680.00" id="14573">E8-YS9</text><rect Type="system" x="700.00" id="14575" height="5.00" width="5.00" Name="8X6T-8" ID="30002171" Region="伊梅瑟亚" y="50.00" /><text y="50.00" x="700.00" id="14576">8X6T-8</text><rect Type="system" x="700.00" id="14578" height="5.00" width="5.00" Name="CKX-RW" ID="30002170" Region="伊梅瑟亚" y="100.00" /><text y="100.00" x="700.00" id="14579">CKX-RW</text><rect Type="system" x="700.00" id="14581" height="5.00" width="5.00" Name="Y-C4AL" ID="30002169" Region="伊梅瑟亚" y="150.00" /><text y="150.00" x="700.00" id="14582">Y-C4AL</text><rect Type="system" x="700.00" id="14584" height="5.00" width="5.00" Name="08-N7Q" ID="30002168" Region="伊梅瑟亚" y="220.00" /><text y="220.00" x="700.00" id="14585">08-N7Q</text><rect Type="system" x="700.00" id="14587" height="5.00" width="5.00" Name="B2-UQW" ID="30002165" Region="伊梅瑟亚" y="300.00" /><text y="300.00" x="700.00" id="14588">B2-UQW</text><rect Type="system" x="700.00" id="14590" height="5.00" width="5.00" Name="Z-H2MA" ID="30002141" Region="伊梅瑟亚" y="500.00" /><text y="500.00" x="700.00" id="14591">Z-H2MA</text><rect Type="system" x="720.00" id="14593" height="5.00" width="5.00" Name="AC-7LZ" ID="30002160" Region="伊梅瑟亚" y="600.00" /><text y="600.00" x="720.00" id="14594">AC-7LZ</text><rect Type="system" x="750.00" id="14596" height="5.00" width="5.00" Name="U9U-TQ" ID="30002166" Region="伊梅瑟亚" y="250.00" /><text y="250.00" x="750.00" id="14597">U9U-TQ</text><rect Type="system" x="750.00" id="14599" height="5.00" width="5.00" Name="B-KDOZ" ID="30002143" Region="伊梅瑟亚" y="500.00" /><text y="500.00" x="750.00" id="14600">B-KDOZ</text><rect Type="system" x="800.00" id="14602" height="5.00" width="5.00" Name="9-XN3F" ID="30002159" Region="伊梅瑟亚" y="580.00" /><text y="580.00" x="800.00" id="14603">9-XN3F</text><rect Type="system" x="800.00" id="14605" height="5.00" width="5.00" Name="2O-EEW" ID="30002175" Region="伊梅瑟亚" y="180.00" /><text y="180.00" x="800.00" id="14606">2O-EEW</text><rect Type="system" x="850.00" id="14608" height="5.00" width="5.00" Name="Y-FZ5N" ID="30002162" Region="伊梅瑟亚" y="520.00" /><text y="520.00" x="850.00" id="14609">Y-FZ5N</text><rect Type="system" x="880.00" id="14611" height="5.00" width="5.00" Name="7YSF-E" ID="30002177" Region="伊梅瑟亚" y="80.00" /><text y="80.00" x="880.00" id="14612">7YSF-E</text><rect Type="system" x="880.00" id="14614" height="5.00" width="5.00" Name="J-QA7I" ID="30002174" Region="伊梅瑟亚" y="150.00" /><text y="150.00" x="880.00" id="14615">J-QA7I</text><rect Type="system" x="880.00" id="14617" height="5.00" width="5.00" Name="Y-N4EF" ID="30002176" Region="伊梅瑟亚" y="200.00" /><text y="200.00" x="880.00" id="14618">Y-N4EF</text><rect Type="system" x="880.00" id="14620" height="5.00" width="5.00" Name="W4E-IT" ID="30002172" Region="伊梅瑟亚" y="300.00" /><text y="300.00" x="880.00" id="14621">W4E-IT</text><rect Type="system" x="880.00" id="14623" height="5.00" width="5.00" Name="U79-JF" ID="30002164" Region="伊梅瑟亚" y="450.00" /><text y="450.00" x="880.00" id="14624">U79-JF</text><rect Type="system" x="950.00" id="14626" height="5.00" width="5.00" Name="OP9L-F" ID="30002173" Region="伊梅瑟亚" y="180.00" /><text y="180.00" x="950.00" id="14627">OP9L-F</text><rect Type="system" x="20.00" id="14629" height="5.00" width="5.00" Name="9-8GBA" ID="30001166" Region="卡彻" y="320.00" /><text y="320.00" x="20.00" id="14630">9-8GBA</text><rect Type="system" x="50.00" id="14632" height="5.00" width="5.00" Name="BW-WJ2" ID="30004804" Region="特里菲斯" y="480.00" /><text y="480.00" x="50.00" id="14633">BW-WJ2</text><rect Type="system" x="300.00" id="14635" height="5.00" width="5.00" Name="62O-UE" ID="30000513" Region="底特里德" y="150.00" /><text y="150.00" x="300.00" id="14636">62O-UE</text><rect Type="system" x="300.00" id="14638" height="5.00" width="5.00" Name="R1-IMO" ID="30004871" Region="特里菲斯" y="220.00" /><text y="220.00" x="300.00" id="14639">R1-IMO</text><rect Type="system" x="680.00" id="14641" height="5.00" width="5.00" Name="I-9GI1" ID="30000520" Region="底特里德" y="720.00" /><text y="720.00" x="680.00" id="14642">I-9GI1</text><rect Type="system" x="920.00" id="14644" height="5.00" width="5.00" Name="ZMV9-A" ID="30004820" Region="特里菲斯" y="550.00" /><text y="550.00" x="920.00" id="14645">ZMV9-A</text><line style="stroke:blue;fill:blue;" id="14647" x2="180.00" x1="50.00" y1="80.00" y2="80.00" /><line style="stroke:blue;fill:blue;" id="14648" x2="50.00" x1="50.00" y1="80.00" y2="200.00" /><line style="stroke:blue;fill:blue;" id="14649" x2="150.00" x1="50.00" y1="80.00" y2="120.00" /><line style="stroke:blue;fill:blue;" id="14650" x2="80.00" x1="50.00" y1="80.00" y2="120.00" /><line style="stroke:blue;fill:blue;" id="14651" x2="50.00" x1="50.00" y1="200.00" y2="80.00" /><line style="stroke:blue;fill:blue;" id="14652" x2="179.04" x1="50.00" y1="200.00" y2="208.09" /><line style="stroke:blue;fill:blue;" id="14653" x2="150.00" x1="50.00" y1="200.00" y2="120.00" /><line style="stroke:blue;fill:blue;" id="14654" x2="140.00" x1="50.00" y1="200.00" y2="170.00" /><line style="stroke:blue;fill:blue;" id="14655" x2="100.00" x1="50.00" y1="680.00" y2="680.00" /><line style="stroke:blue;fill:blue;" id="14656" x2="120.00" x1="50.00" y1="400.00" y2="400.00" /><line style="stroke:blue;fill:blue;" id="14657" x2="20.00" x1="78.09" y1="320.96" y2="320.00" /><line style="stroke:blue;fill:blue;" id="14658" x2="121.91" x1="78.09" y1="320.96" y2="299.04" /><line style="stroke:blue;fill:blue;" id="14659" x2="50.00" x1="80.00" y1="120.00" y2="80.00" /><line style="stroke:blue;fill:blue;" id="14660" x2="150.00" x1="80.00" y1="120.00" y2="120.00" /><line style="stroke:blue;fill:blue;" id="14661" x2="180.00" x1="100.00" y1="20.00" y2="20.00" /><line style="stroke:blue;fill:blue;" id="14662" x2="179.04" x1="100.00" y1="250.00" y2="208.09" /><line style="stroke:blue;fill:blue;" id="14663" x2="200.00" x1="100.00" y1="600.00" y2="600.00" /><line style="stroke:blue;fill:blue;" id="14664" x2="200.00" x1="100.00" y1="600.00" y2="550.00" /><line style="stroke:blue;fill:blue;" id="14665" x2="100.00" x1="100.00" y1="600.00" y2="680.00" /><line style="stroke:blue;fill:blue;" id="14666" x2="100.00" x1="100.00" y1="680.00" y2="600.00" /><line style="stroke:blue;fill:blue;" id="14667" x2="50.00" x1="100.00" y1="680.00" y2="680.00" /><line style="stroke:blue;fill:blue;" id="14668" x2="120.00" x1="121.91" y1="299.04" y2="350.00" /><line style="stroke:blue;fill:blue;" id="14669" x2="78.09" x1="121.91" y1="299.04" y2="320.96" /><line style="stroke:blue;fill:blue;" id="14670" x2="179.04" x1="121.91" y1="299.04" y2="208.09" /><line style="stroke:blue;fill:blue;" id="14671" x2="120.00" x1="120.00" y1="350.00" y2="400.00" /><line style="stroke:blue;fill:blue;" id="14672" x2="121.91" x1="120.00" y1="350.00" y2="299.04" /><line style="stroke:blue;fill:blue;" id="14673" x2="120.00" x1="120.00" y1="400.00" y2="350.00" /><line style="stroke:blue;fill:blue;" id="14674" x2="50.00" x1="120.00" y1="400.00" y2="400.00" /><line style="stroke:blue;fill:blue;" id="14675" x2="150.00" x1="120.00" y1="400.00" y2="450.00" /><line style="stroke:blue;fill:blue;" id="14676" x2="250.00" x1="120.00" y1="400.00" y2="350.00" /><line style="stroke:blue;fill:blue;" id="14677" x2="180.00" x1="150.00" y1="120.00" y2="80.00" /><line style="stroke:blue;fill:blue;" id="14678" x2="50.00" x1="150.00" y1="120.00" y2="200.00" /><line style="stroke:blue;fill:blue;" id="14679" x2="50.00" x1="150.00" y1="120.00" y2="80.00" /><line style="stroke:blue;fill:blue;" id="14680" x2="80.00" x1="150.00" y1="120.00" y2="120.00" /><line style="stroke:blue;fill:blue;" id="14681" x2="140.00" x1="150.00" y1="120.00" y2="170.00" /><line style="stroke:blue;fill:blue;" id="14682" x2="50.00" x1="140.00" y1="170.00" y2="200.00" /><line style="stroke:blue;fill:blue;" id="14683" x2="150.00" x1="140.00" y1="170.00" y2="120.00" /><line style="stroke:blue;fill:blue;" id="14684" x2="280.00" x1="150.00" y1="450.00" y2="500.00" /><line style="stroke:blue;fill:blue;" id="14685" x2="200.00" x1="150.00" y1="450.00" y2="550.00" /><line style="stroke:blue;fill:blue;" id="14686" x2="120.00" x1="150.00" y1="450.00" y2="400.00" /><line style="stroke:blue;fill:blue;" id="14687" x2="50.00" x1="150.00" y1="450.00" y2="480.00" /><line style="stroke:blue;fill:blue;" id="14688" x2="180.00" x1="180.00" y1="20.00" y2="80.00" /><line style="stroke:blue;fill:blue;" id="14689" x2="250.00" x1="180.00" y1="20.00" y2="20.00" /><line style="stroke:blue;fill:blue;" id="14690" x2="100.00" x1="180.00" y1="20.00" y2="20.00" /><line style="stroke:blue;fill:blue;" id="14691" x2="50.00" x1="180.00" y1="80.00" y2="80.00" /><line style="stroke:blue;fill:blue;" id="14692" x2="179.04" x1="180.00" y1="80.00" y2="208.09" /><line style="stroke:blue;fill:blue;" id="14693" x2="150.00" x1="180.00" y1="80.00" y2="120.00" /><line style="stroke:blue;fill:blue;" id="14694" x2="180.00" x1="180.00" y1="80.00" y2="20.00" /><line style="stroke:blue;fill:blue;" id="14695" x2="121.91" x1="179.04" y1="208.09" y2="299.04" /><line style="stroke:blue;fill:blue;" id="14696" x2="180.00" x1="179.04" y1="208.09" y2="80.00" /><line style="stroke:blue;fill:blue;" id="14697" x2="50.00" x1="179.04" y1="208.09" y2="200.00" /><line style="stroke:blue;fill:blue;" id="14698" x2="100.00" x1="179.04" y1="208.09" y2="250.00" /><line style="stroke:blue;fill:blue;" id="14699" x2="200.96" x1="179.04" y1="208.09" y2="251.91" /><line style="stroke:blue;fill:blue;" id="14700" x2="200.00" x1="200.00" y1="550.00" y2="600.00" /><line style="stroke:blue;fill:blue;" id="14701" x2="100.00" x1="200.00" y1="550.00" y2="600.00" /><line style="stroke:blue;fill:blue;" id="14702" x2="150.00" x1="200.00" y1="550.00" y2="450.00" /><line style="stroke:blue;fill:blue;" id="14703" x2="380.00" x1="200.00" y1="550.00" y2="550.00" /><line style="stroke:blue;fill:blue;" id="14704" x2="200.00" x1="200.00" y1="600.00" y2="550.00" /><line style="stroke:blue;fill:blue;" id="14705" x2="200.00" x1="200.00" y1="600.00" y2="680.00" /><line style="stroke:blue;fill:blue;" id="14706" x2="100.00" x1="200.00" y1="600.00" y2="600.00" /><line style="stroke:blue;fill:blue;" id="14707" x2="280.00" x1="200.00" y1="600.00" y2="680.00" /><line style="stroke:blue;fill:blue;" id="14708" x2="280.00" x1="200.00" y1="600.00" y2="600.00" /><line style="stroke:blue;fill:blue;" id="14709" x2="200.00" x1="200.00" y1="680.00" y2="600.00" /><line style="stroke:blue;fill:blue;" id="14710" x2="280.00" x1="200.00" y1="680.00" y2="680.00" /><line style="stroke:blue;fill:blue;" id="14711" x2="280.00" x1="200.00" y1="680.00" y2="600.00" /><line style="stroke:blue;fill:blue;" id="14712" x2="179.04" x1="200.96" y1="251.91" y2="208.09" /><line style="stroke:blue;fill:blue;" id="14713" x2="180.00" x1="250.00" y1="20.00" y2="20.00" /><line style="stroke:blue;fill:blue;" id="14714" x2="350.00" x1="250.00" y1="20.00" y2="20.00" /><line style="stroke:blue;fill:blue;" id="14715" x2="250.00" x1="250.00" y1="300.00" y2="350.00" /><line style="stroke:blue;fill:blue;" id="14716" x2="350.00" x1="250.00" y1="300.00" y2="300.00" /><line style="stroke:blue;fill:blue;" id="14717" x2="120.00" x1="250.00" y1="350.00" y2="400.00" /><line style="stroke:blue;fill:blue;" id="14718" x2="350.00" x1="250.00" y1="350.00" y2="350.00" /><line style="stroke:blue;fill:blue;" id="14719" x2="250.00" x1="250.00" y1="350.00" y2="300.00" /><line style="stroke:blue;fill:blue;" id="14720" x2="350.00" x1="250.00" y1="350.00" y2="300.00" /><line style="stroke:blue;fill:blue;" id="14721" x2="350.00" x1="280.00" y1="500.00" y2="500.00" /><line style="stroke:blue;fill:blue;" id="14722" x2="150.00" x1="280.00" y1="500.00" y2="450.00" /><line style="stroke:blue;fill:blue;" id="14723" x2="200.00" x1="280.00" y1="600.00" y2="600.00" /><line style="stroke:blue;fill:blue;" id="14724" x2="200.00" x1="280.00" y1="600.00" y2="680.00" /><line style="stroke:blue;fill:blue;" id="14725" x2="280.00" x1="280.00" y1="600.00" y2="680.00" /><line style="stroke:blue;fill:blue;" id="14726" x2="200.00" x1="280.00" y1="680.00" y2="600.00" /><line style="stroke:blue;fill:blue;" id="14727" x2="200.00" x1="280.00" y1="680.00" y2="680.00" /><line style="stroke:blue;fill:blue;" id="14728" x2="280.00" x1="280.00" y1="680.00" y2="600.00" /><line style="stroke:blue;fill:blue;" id="14729" x2="400.00" x1="300.00" y1="100.00" y2="75.50" /><line style="stroke:blue;fill:blue;" id="14730" x2="250.00" x1="350.00" y1="20.00" y2="20.00" /><line style="stroke:blue;fill:blue;" id="14731" x2="420.00" x1="350.00" y1="20.00" y2="20.00" /><line style="stroke:blue;fill:blue;" id="14732" x2="250.00" x1="350.00" y1="300.00" y2="350.00" /><line style="stroke:blue;fill:blue;" id="14733" x2="350.00" x1="350.00" y1="300.00" y2="350.00" /><line style="stroke:blue;fill:blue;" id="14734" x2="250.00" x1="350.00" y1="300.00" y2="300.00" /><line style="stroke:blue;fill:blue;" id="14735" x2="250.00" x1="350.00" y1="350.00" y2="350.00" /><line style="stroke:blue;fill:blue;" id="14736" x2="420.00" x1="350.00" y1="350.00" y2="350.00" /><line style="stroke:blue;fill:blue;" id="14737" x2="350.00" x1="350.00" y1="350.00" y2="300.00" /><line style="stroke:blue;fill:blue;" id="14738" x2="350.00" x1="350.00" y1="450.00" y2="500.00" /><line style="stroke:blue;fill:blue;" id="14739" x2="280.00" x1="350.00" y1="500.00" y2="500.00" /><line style="stroke:blue;fill:blue;" id="14740" x2="420.00" x1="350.00" y1="500.00" y2="500.00" /><line style="stroke:blue;fill:blue;" id="14741" x2="350.00" x1="350.00" y1="500.00" y2="450.00" /><line style="stroke:blue;fill:blue;" id="14742" x2="200.00" x1="380.00" y1="550.00" y2="550.00" /><line style="stroke:blue;fill:blue;" id="14743" x2="450.00" x1="380.00" y1="550.00" y2="575.50" /><line style="stroke:blue;fill:blue;" id="14744" x2="500.00" x1="380.00" y1="550.00" y2="550.00" /><line style="stroke:blue;fill:blue;" id="14745" x2="380.00" x1="380.00" y1="550.00" y2="720.00" /><line style="stroke:blue;fill:blue;" id="14746" x2="380.00" x1="380.00" y1="720.00" y2="550.00" /><line style="stroke:blue;fill:blue;" id="14747" x2="450.00" x1="380.00" y1="720.00" y2="575.50" /><line style="stroke:blue;fill:blue;" id="14748" x2="550.00" x1="380.00" y1="720.00" y2="650.00" /><line style="stroke:blue;fill:blue;" id="14749" x2="480.00" x1="400.00" y1="75.50" y2="100.00" /><line style="stroke:blue;fill:blue;" id="14750" x2="300.00" x1="400.00" y1="75.50" y2="100.00" /><line style="stroke:blue;fill:blue;" id="14751" x2="300.00" x1="400.00" y1="124.50" y2="150.00" /><line style="stroke:blue;fill:blue;" id="14752" x2="480.00" x1="400.00" y1="124.50" y2="150.00" /><line style="stroke:blue;fill:blue;" id="14753" x2="480.00" x1="400.00" y1="124.50" y2="100.00" /><line style="stroke:blue;fill:blue;" id="14754" x2="400.00" x1="400.00" y1="124.50" y2="175.50" /><line style="stroke:blue;fill:blue;" id="14755" x2="400.00" x1="400.00" y1="175.50" y2="124.50" /><line style="stroke:blue;fill:blue;" id="14756" x2="480.00" x1="400.00" y1="224.50" y2="200.00" /><line style="stroke:blue;fill:blue;" id="14757" x2="300.00" x1="400.00" y1="224.50" y2="220.00" /><line style="stroke:blue;fill:blue;" id="14758" x2="350.00" x1="420.00" y1="20.00" y2="20.00" /><line style="stroke:blue;fill:blue;" id="14759" x2="500.00" x1="420.00" y1="20.00" y2="20.00" /><line style="stroke:blue;fill:blue;" id="14760" x2="420.00" x1="420.00" y1="300.00" y2="350.00" /><line style="stroke:blue;fill:blue;" id="14761" x2="350.00" x1="420.00" y1="350.00" y2="350.00" /><line style="stroke:blue;fill:blue;" id="14762" x2="420.00" x1="420.00" y1="350.00" y2="300.00" /><line style="stroke:blue;fill:blue;" id="14763" x2="420.00" x1="420.00" y1="400.00" y2="450.00" /><line style="stroke:blue;fill:blue;" id="14764" x2="420.00" x1="420.00" y1="450.00" y2="500.00" /><line style="stroke:blue;fill:blue;" id="14765" x2="420.00" x1="420.00" y1="450.00" y2="400.00" /><line style="stroke:blue;fill:blue;" id="14766" x2="350.00" x1="420.00" y1="500.00" y2="500.00" /><line style="stroke:blue;fill:blue;" id="14767" x2="420.00" x1="420.00" y1="500.00" y2="450.00" /><line style="stroke:blue;fill:blue;" id="14768" x2="550.00" x1="420.00" y1="500.00" y2="500.00" /><line style="stroke:blue;fill:blue;" id="14769" x2="380.00" x1="450.00" y1="575.50" y2="550.00" /><line style="stroke:blue;fill:blue;" id="14770" x2="500.00" x1="450.00" y1="575.50" y2="550.00" /><line style="stroke:blue;fill:blue;" id="14771" x2="380.00" x1="450.00" y1="575.50" y2="720.00" /><line style="stroke:blue;fill:blue;" id="14772" x2="450.00" x1="450.00" y1="575.50" y2="624.50" /><line style="stroke:blue;fill:blue;" id="14773" x2="550.00" x1="450.00" y1="575.50" y2="650.00" /><line style="stroke:blue;fill:blue;" id="14774" x2="450.00" x1="450.00" y1="624.50" y2="575.50" /><line style="stroke:blue;fill:blue;" id="14775" x2="550.00" x1="450.00" y1="624.50" y2="650.00" /><line style="stroke:blue;fill:blue;" id="14776" x2="450.00" x1="450.00" y1="624.50" y2="675.50" /><line style="stroke:blue;fill:blue;" id="14777" x2="450.00" x1="450.00" y1="675.50" y2="624.50" /><line style="stroke:blue;fill:blue;" id="14778" x2="450.00" x1="450.00" y1="675.50" y2="724.50" /><line style="stroke:blue;fill:blue;" id="14779" x2="450.00" x1="450.00" y1="724.50" y2="675.50" /><line style="stroke:blue;fill:blue;" id="14780" x2="580.00" x1="480.00" y1="100.00" y2="100.00" /><line style="stroke:blue;fill:blue;" id="14781" x2="480.00" x1="480.00" y1="100.00" y2="150.00" /><line style="stroke:blue;fill:blue;" id="14782" x2="400.00" x1="480.00" y1="100.00" y2="124.50" /><line style="stroke:blue;fill:blue;" id="14783" x2="400.00" x1="480.00" y1="100.00" y2="75.50" /><line style="stroke:blue;fill:blue;" id="14784" x2="580.00" x1="480.00" y1="150.00" y2="100.00" /><line style="stroke:blue;fill:blue;" id="14785" x2="480.00" x1="480.00" y1="150.00" y2="100.00" /><line style="stroke:blue;fill:blue;" id="14786" x2="400.00" x1="480.00" y1="150.00" y2="124.50" /><line style="stroke:blue;fill:blue;" id="14787" x2="480.00" x1="480.00" y1="150.00" y2="200.00" /><line style="stroke:blue;fill:blue;" id="14788" x2="480.00" x1="480.00" y1="200.00" y2="150.00" /><line style="stroke:blue;fill:blue;" id="14789" x2="400.00" x1="480.00" y1="200.00" y2="224.50" /><line style="stroke:blue;fill:blue;" id="14790" x2="420.00" x1="500.00" y1="20.00" y2="20.00" /><line style="stroke:blue;fill:blue;" id="14791" x2="380.00" x1="500.00" y1="550.00" y2="550.00" /><line style="stroke:blue;fill:blue;" id="14792" x2="450.00" x1="500.00" y1="550.00" y2="575.50" /><line style="stroke:blue;fill:blue;" id="14793" x2="550.00" x1="500.00" y1="550.00" y2="650.00" /><line style="stroke:blue;fill:blue;" id="14794" x2="550.00" x1="500.00" y1="350.00" y2="400.00" /><line style="stroke:blue;fill:blue;" id="14795" x2="580.00" x1="500.00" y1="350.00" y2="350.00" /><line style="stroke:blue;fill:blue;" id="14796" x2="420.00" x1="550.00" y1="500.00" y2="500.00" /><line style="stroke:blue;fill:blue;" id="14797" x2="620.00" x1="550.00" y1="500.00" y2="500.00" /><line style="stroke:blue;fill:blue;" id="14798" x2="550.00" x1="550.00" y1="500.00" y2="400.00" /><line style="stroke:blue;fill:blue;" id="14799" x2="550.00" x1="550.00" y1="400.00" y2="500.00" /><line style="stroke:blue;fill:blue;" id="14800" x2="500.00" x1="550.00" y1="400.00" y2="350.00" /><line style="stroke:blue;fill:blue;" id="14801" x2="580.00" x1="550.00" y1="400.00" y2="350.00" /><line style="stroke:blue;fill:blue;" id="14802" x2="450.00" x1="550.00" y1="650.00" y2="575.50" /><line style="stroke:blue;fill:blue;" id="14803" x2="500.00" x1="550.00" y1="650.00" y2="550.00" /><line style="stroke:blue;fill:blue;" id="14804" x2="380.00" x1="550.00" y1="650.00" y2="720.00" /><line style="stroke:blue;fill:blue;" id="14805" x2="450.00" x1="550.00" y1="650.00" y2="624.50" /><line style="stroke:blue;fill:blue;" id="14806" x2="700.00" x1="580.00" y1="100.00" y2="100.00" /><line style="stroke:blue;fill:blue;" id="14807" x2="480.00" x1="580.00" y1="100.00" y2="150.00" /><line style="stroke:blue;fill:blue;" id="14808" x2="480.00" x1="580.00" y1="100.00" y2="100.00" /><line style="stroke:blue;fill:blue;" id="14809" x2="550.00" x1="580.00" y1="350.00" y2="400.00" /><line style="stroke:blue;fill:blue;" id="14810" x2="500.00" x1="580.00" y1="350.00" y2="350.00" /><line style="stroke:blue;fill:blue;" id="14811" x2="550.00" x1="620.00" y1="500.00" y2="500.00" /><line style="stroke:blue;fill:blue;" id="14812" x2="700.00" x1="620.00" y1="500.00" y2="500.00" /><line style="stroke:blue;fill:blue;" id="14813" x2="700.00" x1="620.00" y1="500.00" y2="300.00" /><line style="stroke:blue;fill:blue;" id="14814" x2="720.00" x1="650.00" y1="600.00" y2="600.00" /><line style="stroke:blue;fill:blue;" id="14815" x2="680.00" x1="650.00" y1="600.00" y2="650.00" /><line style="stroke:blue;fill:blue;" id="14816" x2="700.00" x1="650.00" y1="250.00" y2="300.00" /><line style="stroke:blue;fill:blue;" id="14817" x2="700.00" x1="650.00" y1="250.00" y2="220.00" /><line style="stroke:blue;fill:blue;" id="14818" x2="680.00" x1="680.00" y1="650.00" y2="720.00" /><line style="stroke:blue;fill:blue;" id="14819" x2="720.00" x1="680.00" y1="650.00" y2="600.00" /><line style="stroke:blue;fill:blue;" id="14820" x2="650.00" x1="680.00" y1="650.00" y2="600.00" /><line style="stroke:blue;fill:blue;" id="14821" x2="700.00" x1="700.00" y1="50.00" y2="100.00" /><line style="stroke:blue;fill:blue;" id="14822" x2="700.00" x1="700.00" y1="100.00" y2="150.00" /><line style="stroke:blue;fill:blue;" id="14823" x2="700.00" x1="700.00" y1="100.00" y2="50.00" /><line style="stroke:blue;fill:blue;" id="14824" x2="580.00" x1="700.00" y1="100.00" y2="100.00" /><line style="stroke:blue;fill:blue;" id="14825" x2="700.00" x1="700.00" y1="150.00" y2="220.00" /><line style="stroke:blue;fill:blue;" id="14826" x2="700.00" x1="700.00" y1="150.00" y2="100.00" /><line style="stroke:blue;fill:blue;" id="14827" x2="750.00" x1="700.00" y1="220.00" y2="250.00" /><line style="stroke:blue;fill:blue;" id="14828" x2="650.00" x1="700.00" y1="220.00" y2="250.00" /><line style="stroke:blue;fill:blue;" id="14829" x2="700.00" x1="700.00" y1="220.00" y2="150.00" /><line style="stroke:blue;fill:blue;" id="14830" x2="620.00" x1="700.00" y1="300.00" y2="500.00" /><line style="stroke:blue;fill:blue;" id="14831" x2="750.00" x1="700.00" y1="300.00" y2="250.00" /><line style="stroke:blue;fill:blue;" id="14832" x2="650.00" x1="700.00" y1="300.00" y2="250.00" /><line style="stroke:blue;fill:blue;" id="14833" x2="620.00" x1="700.00" y1="500.00" y2="500.00" /><line style="stroke:blue;fill:blue;" id="14834" x2="750.00" x1="700.00" y1="500.00" y2="500.00" /><line style="stroke:blue;fill:blue;" id="14835" x2="800.00" x1="720.00" y1="600.00" y2="580.00" /><line style="stroke:blue;fill:blue;" id="14836" x2="650.00" x1="720.00" y1="600.00" y2="600.00" /><line style="stroke:blue;fill:blue;" id="14837" x2="680.00" x1="720.00" y1="600.00" y2="650.00" /><line style="stroke:blue;fill:blue;" id="14838" x2="700.00" x1="750.00" y1="250.00" y2="300.00" /><line style="stroke:blue;fill:blue;" id="14839" x2="700.00" x1="750.00" y1="250.00" y2="220.00" /><line style="stroke:blue;fill:blue;" id="14840" x2="700.00" x1="750.00" y1="500.00" y2="500.00" /><line style="stroke:blue;fill:blue;" id="14841" x2="800.00" x1="750.00" y1="500.00" y2="580.00" /><line style="stroke:blue;fill:blue;" id="14842" x2="750.00" x1="800.00" y1="580.00" y2="500.00" /><line style="stroke:blue;fill:blue;" id="14843" x2="720.00" x1="800.00" y1="580.00" y2="600.00" /><line style="stroke:blue;fill:blue;" id="14844" x2="850.00" x1="800.00" y1="580.00" y2="520.00" /><line style="stroke:blue;fill:blue;" id="14845" x2="880.00" x1="800.00" y1="180.00" y2="300.00" /><line style="stroke:blue;fill:blue;" id="14846" x2="950.00" x1="800.00" y1="180.00" y2="180.00" /><line style="stroke:blue;fill:blue;" id="14847" x2="880.00" x1="800.00" y1="180.00" y2="150.00" /><line style="stroke:blue;fill:blue;" id="14848" x2="880.00" x1="800.00" y1="180.00" y2="200.00" /><line style="stroke:blue;fill:blue;" id="14849" x2="800.00" x1="850.00" y1="520.00" y2="580.00" /><line style="stroke:blue;fill:blue;" id="14850" x2="880.00" x1="850.00" y1="520.00" y2="450.00" /><line style="stroke:blue;fill:blue;" id="14851" x2="920.00" x1="850.00" y1="520.00" y2="550.00" /><line style="stroke:blue;fill:blue;" id="14852" x2="880.00" x1="880.00" y1="80.00" y2="150.00" /><line style="stroke:blue;fill:blue;" id="14853" x2="950.00" x1="880.00" y1="150.00" y2="180.00" /><line style="stroke:blue;fill:blue;" id="14854" x2="800.00" x1="880.00" y1="150.00" y2="180.00" /><line style="stroke:blue;fill:blue;" id="14855" x2="880.00" x1="880.00" y1="150.00" y2="80.00" /><line style="stroke:blue;fill:blue;" id="14856" x2="950.00" x1="880.00" y1="200.00" y2="180.00" /><line style="stroke:blue;fill:blue;" id="14857" x2="800.00" x1="880.00" y1="200.00" y2="180.00" /><line style="stroke:blue;fill:blue;" id="14858" x2="880.00" x1="880.00" y1="300.00" y2="450.00" /><line style="stroke:blue;fill:blue;" id="14859" x2="950.00" x1="880.00" y1="300.00" y2="180.00" /><line style="stroke:blue;fill:blue;" id="14860" x2="800.00" x1="880.00" y1="300.00" y2="180.00" /><line style="stroke:blue;fill:blue;" id="14861" x2="850.00" x1="880.00" y1="450.00" y2="520.00" /><line style="stroke:blue;fill:blue;" id="14862" x2="880.00" x1="880.00" y1="450.00" y2="300.00" /><line style="stroke:blue;fill:blue;" id="14863" x2="880.00" x1="950.00" y1="180.00" y2="300.00" /><line style="stroke:blue;fill:blue;" id="14864" x2="880.00" x1="950.00" y1="180.00" y2="150.00" /><line style="stroke:blue;fill:blue;" id="14865" x2="800.00" x1="950.00" y1="180.00" y2="180.00" /><line style="stroke:blue;fill:blue;" id="14866" x2="880.00" x1="950.00" y1="180.00" y2="200.00" /><line style="stroke:blue;fill:blue;" id="14867" x2="78.09" x1="20.00" y1="320.00" y2="320.96" /><line style="stroke:blue;fill:blue;" id="14868" x2="150.00" x1="50.00" y1="480.00" y2="450.00" /><line style="stroke:blue;fill:blue;" id="14869" x2="400.00" x1="300.00" y1="150.00" y2="124.50" /><line style="stroke:blue;fill:blue;" id="14870" x2="400.00" x1="300.00" y1="220.00" y2="224.50" /><line style="stroke:blue;fill:blue;" id="14871" x2="680.00" x1="680.00" y1="720.00" y2="650.00" /><line style="stroke:blue;fill:blue;" id="14872" x2="850.00" x1="920.00" y1="550.00" y2="520.00" /></svg>
