<?xml version="1.0" standalone="yes"?><!DOCTYPE svg PUBLIC "-//W3C//DTD SVG 1.1//EN" "http://www.w3.org/Graphics/SVG/1.1/DTD/svg11.dtd"[]><svg height="800.00" id="14376" width="1050.00" xmlns="http://www.w3.org/2000/svg" xmlns:xlink="http://www.w3.org/1999/xlink"><rect Type="system" Region="伊梅瑟亚" height="5.00" y="80.00" Name="94FR-S" width="5.00" x="50.00" id="14377" ID="30002131" /><text x="50.00" y="80.00" id="14378">94FR-S</text><rect Type="system" Region="伊梅瑟亚" height="5.00" y="200.00" Name="ZJA-6U" width="5.00" x="50.00" id="14380" ID="30002130" /><text x="50.00" y="200.00" id="14381">ZJA-6U</text><rect Type="system" Region="伊梅瑟亚" height="5.00" y="680.00" Name="O7-7UX" width="5.00" x="50.00" id="14383" ID="30002116" /><text x="50.00" y="680.00" id="14384">O7-7UX</text><rect Type="system" Region="伊梅瑟亚" height="5.00" y="400.00" Name="ZBP-TP" width="5.00" x="50.00" id="14386" ID="30002121" /><text x="50.00" y="400.00" id="14387">ZBP-TP</text><rect Type="system" Region="伊梅瑟亚" height="5.00" y="320.96" Name="XD-JW7" width="5.00" x="78.09" id="14389" ID="30002118" /><text x="78.09" y="320.96" id="14390">XD-JW7</text><rect Type="system" Region="伊梅瑟亚" height="5.00" y="120.00" Name="R-ZUOL" width="5.00" x="80.00" id="14392" ID="30002135" /><text x="80.00" y="120.00" id="14393">R-ZUOL</text><rect Type="system" Region="伊梅瑟亚" height="5.00" y="20.00" Name="B-R5RB" width="5.00" x="100.00" id="14395" ID="30002157" /><text x="100.00" y="20.00" id="14396">B-R5RB</text><rect Type="system" Region="伊梅瑟亚" height="5.00" y="250.00" Name="Q-HJ97" width="5.00" x="100.00" id="14398" ID="30002132" /><text x="100.00" y="250.00" id="14399">Q-HJ97</text><rect Type="system" Region="伊梅瑟亚" height="5.00" y="600.00" Name="JDAS-0" width="5.00" x="100.00" id="14401" ID="30002112" /><text x="100.00" y="600.00" id="14402">JDAS-0</text><rect Type="system" Region="伊梅瑟亚" height="5.00" y="680.00" Name="Y2-QUV" width="5.00" x="100.00" id="14404" ID="30002115" /><text x="100.00" y="680.00" id="14405">Y2-QUV</text><rect Type="system" Region="伊梅瑟亚" height="5.00" y="299.04" Name="H-RXNZ" width="5.00" x="121.91" id="14407" ID="30002120" /><text x="121.91" y="299.04" id="14408">H-RXNZ</text><rect Type="system" Region="伊梅瑟亚" height="5.00" y="350.00" Name="Z8-81T" width="5.00" x="120.00" id="14410" ID="30002117" /><text x="120.00" y="350.00" id="14411">Z8-81T</text><rect Type="system" Region="伊梅瑟亚" height="5.00" y="400.00" Name="DY-P7Q" width="5.00" x="120.00" id="14413" ID="30002119" /><text x="120.00" y="400.00" id="14414">DY-P7Q</text><rect Type="system" Region="伊梅瑟亚" height="5.00" y="120.00" Name="I-NGI8" width="5.00" x="150.00" id="14416" ID="30002134" /><text x="150.00" y="120.00" id="14417">I-NGI8</text><rect Type="system" Region="伊梅瑟亚" height="5.00" y="170.00" Name="E1F-LK" width="5.00" x="140.00" id="14419" ID="30002136" /><text x="140.00" y="170.00" id="14420">E1F-LK</text><rect Type="system" Region="伊梅瑟亚" height="5.00" y="450.00" Name="XVV-21" width="5.00" x="150.00" id="14422" ID="30002122" /><text x="150.00" y="450.00" id="14423">XVV-21</text><rect Type="system" Region="伊梅瑟亚" height="5.00" y="20.00" Name="O3Z5-G" width="5.00" x="180.00" id="14425" ID="30002153" /><text x="180.00" y="20.00" id="14426">O3Z5-G</text><rect Type="system" Region="伊梅瑟亚" height="5.00" y="80.00" Name="RF6T-8" width="5.00" x="180.00" id="14428" ID="30002129" /><text x="180.00" y="80.00" id="14429">RF6T-8</text><rect Type="system" Region="伊梅瑟亚" height="5.00" y="208.09" Name="GM-0K7" width="5.00" x="179.04" id="14431" ID="30002133" /><text x="179.04" y="208.09" id="14432">GM-0K7</text><rect Type="system" Region="伊梅瑟亚" height="5.00" y="550.00" Name="B9E-H6" width="5.00" x="200.00" id="14434" ID="30002110" /><text x="200.00" y="550.00" id="14435">B9E-H6</text><rect Type="system" Region="伊梅瑟亚" height="5.00" y="600.00" Name="Y19P-1" width="5.00" x="200.00" id="14437" ID="30002109" /><text x="200.00" y="600.00" id="14438">Y19P-1</text><rect Type="system" Region="伊梅瑟亚" height="5.00" y="680.00" Name="SPBS-6" width="5.00" x="200.00" id="14440" ID="30002111" /><text x="200.00" y="680.00" id="14441">SPBS-6</text><rect Type="system" Region="伊梅瑟亚" height="5.00" y="251.91" Name="Z4-QLD" width="5.00" x="200.96" id="14443" ID="30002137" /><text x="200.96" y="251.91" id="14444">Z4-QLD</text><rect Type="system" Region="伊梅瑟亚" height="5.00" y="20.00" Name="4DV-1T" width="5.00" x="250.00" id="14446" ID="30002154" /><text x="250.00" y="20.00" id="14447">4DV-1T</text><rect Type="system" Region="伊梅瑟亚" height="5.00" y="300.00" Name="78TS-Q" width="5.00" x="250.00" id="14449" ID="30002125" /><text x="250.00" y="300.00" id="14450">78TS-Q</text><rect Type="system" Region="伊梅瑟亚" height="5.00" y="350.00" Name="GXK-7F" width="5.00" x="250.00" id="14452" ID="30002123" /><text x="250.00" y="350.00" id="14453">GXK-7F</text><rect Type="system" Region="伊梅瑟亚" height="5.00" y="500.00" Name="NS2L-4" width="5.00" x="280.00" id="14455" ID="30002103" /><text x="280.00" y="500.00" id="14456">NS2L-4</text><rect Type="system" Region="伊梅瑟亚" height="5.00" y="600.00" Name="LN-56V" width="5.00" x="280.00" id="14458" ID="30002114" /><text x="280.00" y="600.00" id="14459">LN-56V</text><rect Type="system" Region="伊梅瑟亚" height="5.00" y="680.00" Name="A4B-V5" width="5.00" x="280.00" id="14461" ID="30002113" /><text x="280.00" y="680.00" id="14462">A4B-V5</text><rect Type="system" Region="伊梅瑟亚" height="5.00" y="100.00" Name="QN-6J2" width="5.00" x="300.00" id="14464" ID="30002186" /><text x="300.00" y="100.00" id="14465">QN-6J2</text><rect Type="system" Region="伊梅瑟亚" height="5.00" y="20.00" Name="XS-K1O" width="5.00" x="350.00" id="14467" ID="30002155" /><text x="350.00" y="20.00" id="14468">XS-K1O</text><rect Type="system" Region="伊梅瑟亚" height="5.00" y="300.00" Name="CJNF-J" width="5.00" x="350.00" id="14470" ID="30002127" /><text x="350.00" y="300.00" id="14471">CJNF-J</text><rect Type="system" Region="伊梅瑟亚" height="5.00" y="350.00" Name="EA-HSA" width="5.00" x="350.00" id="14473" ID="30002124" /><text x="350.00" y="350.00" id="14474">EA-HSA</text><rect Type="system" Region="伊梅瑟亚" height="5.00" y="450.00" Name="AF0-V5" width="5.00" x="350.00" id="14476" ID="30002107" /><text x="350.00" y="450.00" id="14477">AF0-V5</text><rect Type="system" Region="伊梅瑟亚" height="5.00" y="500.00" Name="B-S347" width="5.00" x="350.00" id="14479" ID="30002105" /><text x="350.00" y="500.00" id="14480">B-S347</text><rect Type="system" Region="伊梅瑟亚" height="5.00" y="550.00" Name="PH-NFR" width="5.00" x="380.00" id="14482" ID="30002145" /><text x="380.00" y="550.00" id="14483">PH-NFR</text><rect Type="system" Region="伊梅瑟亚" height="5.00" y="720.00" Name="X-6WC7" width="5.00" x="380.00" id="14485" ID="30002148" /><text x="380.00" y="720.00" id="14486">X-6WC7</text><rect Type="system" Region="伊梅瑟亚" height="5.00" y="75.50" Name="DR-427" width="5.00" x="400.00" id="14488" ID="30002184" /><text x="400.00" y="75.50" id="14489">DR-427</text><rect Type="system" Region="伊梅瑟亚" height="5.00" y="124.50" Name="M-ZJWJ" width="5.00" x="400.00" id="14491" ID="30002181" /><text x="400.00" y="124.50" id="14492">M-ZJWJ</text><rect Type="system" Region="伊梅瑟亚" height="5.00" y="175.50" Name="NI-J0B" width="5.00" x="400.00" id="14494" ID="30002185" /><text x="400.00" y="175.50" id="14495">NI-J0B</text><rect Type="system" Region="伊梅瑟亚" height="5.00" y="224.50" Name="RU-PT9" width="5.00" x="400.00" id="14497" ID="30002183" /><text x="400.00" y="224.50" id="14498">RU-PT9</text><rect Type="system" Region="伊梅瑟亚" height="5.00" y="20.00" Name="FN-DSR" width="5.00" x="420.00" id="14500" ID="30002156" /><text x="420.00" y="20.00" id="14501">FN-DSR</text><rect Type="system" Region="伊梅瑟亚" height="5.00" y="300.00" Name="FYI-49" width="5.00" x="420.00" id="14503" ID="30002128" /><text x="420.00" y="300.00" id="14504">FYI-49</text><rect Type="system" Region="伊梅瑟亚" height="5.00" y="350.00" Name="WYF8-8" width="5.00" x="420.00" id="14506" ID="30002126" /><text x="420.00" y="350.00" id="14507">WYF8-8</text><rect Type="system" Region="伊梅瑟亚" height="5.00" y="400.00" Name="PPFB-U" width="5.00" x="420.00" id="14509" ID="30002106" /><text x="420.00" y="400.00" id="14510">PPFB-U</text><rect Type="system" Region="伊梅瑟亚" height="5.00" y="450.00" Name="B-A587" width="5.00" x="420.00" id="14512" ID="30002108" /><text x="420.00" y="450.00" id="14513">B-A587</text><rect Type="system" Region="伊梅瑟亚" height="5.00" y="500.00" Name="QI-S9W" width="5.00" x="420.00" id="14515" ID="30002104" /><text x="420.00" y="500.00" id="14516">QI-S9W</text><rect Type="system" Region="伊梅瑟亚" height="5.00" y="575.50" Name="DW-N2S" width="5.00" x="450.00" id="14518" ID="30002146" /><text x="450.00" y="575.50" id="14519">DW-N2S</text><rect Type="system" Region="伊梅瑟亚" height="5.00" y="624.50" Name="D-BAMJ" width="5.00" x="450.00" id="14521" ID="30002149" /><text x="450.00" y="624.50" id="14522">D-BAMJ</text><rect Type="system" Region="伊梅瑟亚" height="5.00" y="675.50" Name="RHE7-W" width="5.00" x="450.00" id="14524" ID="30002151" /><text x="450.00" y="675.50" id="14525">RHE7-W</text><rect Type="system" Region="伊梅瑟亚" height="5.00" y="724.50" Name="F76-8Q" width="5.00" x="450.00" id="14527" ID="30002152" /><text x="450.00" y="724.50" id="14528">F76-8Q</text><rect Type="system" Region="伊梅瑟亚" height="5.00" y="100.00" Name="FRTC-5" width="5.00" x="480.00" id="14530" ID="30002180" /><text x="480.00" y="100.00" id="14531">FRTC-5</text><rect Type="system" Region="伊梅瑟亚" height="5.00" y="150.00" Name="O7-VJ5" width="5.00" x="480.00" id="14533" ID="30002179" /><text x="480.00" y="150.00" id="14534">O7-VJ5</text><rect Type="system" Region="伊梅瑟亚" height="5.00" y="200.00" Name="R-ORB7" width="5.00" x="480.00" id="14536" ID="30002182" /><text x="480.00" y="200.00" id="14537">R-ORB7</text><rect Type="system" Region="伊梅瑟亚" height="5.00" y="20.00" Name="7-ZT1Y" width="5.00" x="500.00" id="14539" ID="30002158" /><text x="500.00" y="20.00" id="14540">7-ZT1Y</text><rect Type="system" Region="伊梅瑟亚" height="5.00" y="550.00" Name="W-FHWJ" width="5.00" x="500.00" id="14542" ID="30002147" /><text x="500.00" y="550.00" id="14543">W-FHWJ</text><rect Type="system" Region="伊梅瑟亚" height="5.00" y="350.00" Name="L-5JCJ" width="5.00" x="500.00" id="14545" ID="30002142" /><text x="500.00" y="350.00" id="14546">L-5JCJ</text><rect Type="system" Region="伊梅瑟亚" height="5.00" y="500.00" Name="QE-E1D" width="5.00" x="550.00" id="14548" ID="30002138" /><text x="550.00" y="500.00" id="14549">QE-E1D</text><rect Type="system" Region="伊梅瑟亚" height="5.00" y="400.00" Name="REB-KR" width="5.00" x="550.00" id="14551" ID="30002140" /><text x="550.00" y="400.00" id="14552">REB-KR</text><rect Type="system" Region="伊梅瑟亚" height="5.00" y="650.00" Name="JKWP-U" width="5.00" x="550.00" id="14554" ID="30002150" /><text x="550.00" y="650.00" id="14555">JKWP-U</text><rect Type="system" Region="伊梅瑟亚" height="5.00" y="100.00" Name="KCDX-7" width="5.00" x="580.00" id="14557" ID="30002178" /><text x="580.00" y="100.00" id="14558">KCDX-7</text><rect Type="system" Region="伊梅瑟亚" height="5.00" y="350.00" Name="4-GB14" width="5.00" x="580.00" id="14560" ID="30002144" /><text x="580.00" y="350.00" id="14561">4-GB14</text><rect Type="system" Region="伊梅瑟亚" height="5.00" y="500.00" Name="LK1K-5" width="5.00" x="620.00" id="14563" ID="30002139" /><text x="620.00" y="500.00" id="14564">LK1K-5</text><rect Type="system" Region="伊梅瑟亚" height="5.00" y="600.00" Name="LBA-SO" width="5.00" x="650.00" id="14566" ID="30002161" /><text x="650.00" y="600.00" id="14567">LBA-SO</text><rect Type="system" Region="伊梅瑟亚" height="5.00" y="250.00" Name="6-I162" width="5.00" x="650.00" id="14569" ID="30002167" /><text x="650.00" y="250.00" id="14570">6-I162</text><rect Type="system" Region="伊梅瑟亚" height="5.00" y="650.00" Name="E8-YS9" width="5.00" x="680.00" id="14572" ID="30002163" /><text x="680.00" y="650.00" id="14573">E8-YS9</text><rect Type="system" Region="伊梅瑟亚" height="5.00" y="50.00" Name="8X6T-8" width="5.00" x="700.00" id="14575" ID="30002171" /><text x="700.00" y="50.00" id="14576">8X6T-8</text><rect Type="system" Region="伊梅瑟亚" height="5.00" y="100.00" Name="CKX-RW" width="5.00" x="700.00" id="14578" ID="30002170" /><text x="700.00" y="100.00" id="14579">CKX-RW</text><rect Type="system" Region="伊梅瑟亚" height="5.00" y="150.00" Name="Y-C4AL" width="5.00" x="700.00" id="14581" ID="30002169" /><text x="700.00" y="150.00" id="14582">Y-C4AL</text><rect Type="system" Region="伊梅瑟亚" height="5.00" y="220.00" Name="08-N7Q" width="5.00" x="700.00" id="14584" ID="30002168" /><text x="700.00" y="220.00" id="14585">08-N7Q</text><rect Type="system" Region="伊梅瑟亚" height="5.00" y="300.00" Name="B2-UQW" width="5.00" x="700.00" id="14587" ID="30002165" /><text x="700.00" y="300.00" id="14588">B2-UQW</text><rect Type="system" Region="伊梅瑟亚" height="5.00" y="500.00" Name="Z-H2MA" width="5.00" x="700.00" id="14590" ID="30002141" /><text x="700.00" y="500.00" id="14591">Z-H2MA</text><rect Type="system" Region="伊梅瑟亚" height="5.00" y="600.00" Name="AC-7LZ" width="5.00" x="720.00" id="14593" ID="30002160" /><text x="720.00" y="600.00" id="14594">AC-7LZ</text><rect Type="system" Region="伊梅瑟亚" height="5.00" y="250.00" Name="U9U-TQ" width="5.00" x="750.00" id="14596" ID="30002166" /><text x="750.00" y="250.00" id="14597">U9U-TQ</text><rect Type="system" Region="伊梅瑟亚" height="5.00" y="500.00" Name="B-KDOZ" width="5.00" x="750.00" id="14599" ID="30002143" /><text x="750.00" y="500.00" id="14600">B-KDOZ</text><rect Type="system" Region="伊梅瑟亚" height="5.00" y="580.00" Name="9-XN3F" width="5.00" x="800.00" id="14602" ID="30002159" /><text x="800.00" y="580.00" id="14603">9-XN3F</text><rect Type="system" Region="伊梅瑟亚" height="5.00" y="180.00" Name="2O-EEW" width="5.00" x="800.00" id="14605" ID="30002175" /><text x="800.00" y="180.00" id="14606">2O-EEW</text><rect Type="system" Region="伊梅瑟亚" height="5.00" y="520.00" Name="Y-FZ5N" width="5.00" x="850.00" id="14608" ID="30002162" /><text x="850.00" y="520.00" id="14609">Y-FZ5N</text><rect Type="system" Region="伊梅瑟亚" height="5.00" y="80.00" Name="7YSF-E" width="5.00" x="880.00" id="14611" ID="30002177" /><text x="880.00" y="80.00" id="14612">7YSF-E</text><rect Type="system" Region="伊梅瑟亚" height="5.00" y="150.00" Name="J-QA7I" width="5.00" x="880.00" id="14614" ID="30002174" /><text x="880.00" y="150.00" id="14615">J-QA7I</text><rect Type="system" Region="伊梅瑟亚" height="5.00" y="200.00" Name="Y-N4EF" width="5.00" x="880.00" id="14617" ID="30002176" /><text x="880.00" y="200.00" id="14618">Y-N4EF</text><rect Type="system" Region="伊梅瑟亚" height="5.00" y="300.00" Name="W4E-IT" width="5.00" x="880.00" id="14620" ID="30002172" /><text x="880.00" y="300.00" id="14621">W4E-IT</text><rect Type="system" Region="伊梅瑟亚" height="5.00" y="450.00" Name="U79-JF" width="5.00" x="880.00" id="14623" ID="30002164" /><text x="880.00" y="450.00" id="14624">U79-JF</text><rect Type="system" Region="伊梅瑟亚" height="5.00" y="180.00" Name="OP9L-F" width="5.00" x="950.00" id="14626" ID="30002173" /><text x="950.00" y="180.00" id="14627">OP9L-F</text><rect Type="system" Region="卡彻" height="5.00" y="320.00" Name="9-8GBA" width="5.00" x="20.00" id="14629" ID="30001166" /><text x="20.00" y="320.00" id="14630">9-8GBA</text><rect Type="system" Region="特里菲斯" height="5.00" y="480.00" Name="BW-WJ2" width="5.00" x="50.00" id="14632" ID="30004804" /><text x="50.00" y="480.00" id="14633">BW-WJ2</text><rect Type="system" Region="底特里德" height="5.00" y="150.00" Name="62O-UE" width="5.00" x="300.00" id="14635" ID="30000513" /><text x="300.00" y="150.00" id="14636">62O-UE</text><rect Type="system" Region="特里菲斯" height="5.00" y="220.00" Name="R1-IMO" width="5.00" x="300.00" id="14638" ID="30004871" /><text x="300.00" y="220.00" id="14639">R1-IMO</text><rect Type="system" Region="底特里德" height="5.00" y="720.00" Name="I-9GI1" width="5.00" x="680.00" id="14641" ID="30000520" /><text x="680.00" y="720.00" id="14642">I-9GI1</text><rect Type="system" Region="特里菲斯" height="5.00" y="550.00" Name="ZMV9-A" width="5.00" x="920.00" id="14644" ID="30004820" /><text x="920.00" y="550.00" id="14645">ZMV9-A</text><line x2="180.00" style="fill:blue;stroke:blue;" y1="80.00" x1="50.00" id="14647" y2="80.00" /><line x2="50.00" style="fill:blue;stroke:blue;" y1="80.00" x1="50.00" id="14648" y2="200.00" /><line x2="150.00" style="fill:blue;stroke:blue;" y1="80.00" x1="50.00" id="14649" y2="120.00" /><line x2="80.00" style="fill:blue;stroke:blue;" y1="80.00" x1="50.00" id="14650" y2="120.00" /><line x2="50.00" style="fill:blue;stroke:blue;" y1="200.00" x1="50.00" id="14651" y2="80.00" /><line x2="179.04" style="fill:blue;stroke:blue;" y1="200.00" x1="50.00" id="14652" y2="208.09" /><line x2="150.00" style="fill:blue;stroke:blue;" y1="200.00" x1="50.00" id="14653" y2="120.00" /><line x2="140.00" style="fill:blue;stroke:blue;" y1="200.00" x1="50.00" id="14654" y2="170.00" /><line x2="100.00" style="fill:blue;stroke:blue;" y1="680.00" x1="50.00" id="14655" y2="680.00" /><line x2="120.00" style="fill:blue;stroke:blue;" y1="400.00" x1="50.00" id="14656" y2="400.00" /><line x2="20.00" style="fill:blue;stroke:blue;" y1="320.96" x1="78.09" id="14657" y2="320.00" /><line x2="121.91" style="fill:blue;stroke:blue;" y1="320.96" x1="78.09" id="14658" y2="299.04" /><line x2="50.00" style="fill:blue;stroke:blue;" y1="120.00" x1="80.00" id="14659" y2="80.00" /><line x2="150.00" style="fill:blue;stroke:blue;" y1="120.00" x1="80.00" id="14660" y2="120.00" /><line x2="180.00" style="fill:blue;stroke:blue;" y1="20.00" x1="100.00" id="14661" y2="20.00" /><line x2="179.04" style="fill:blue;stroke:blue;" y1="250.00" x1="100.00" id="14662" y2="208.09" /><line x2="200.00" style="fill:blue;stroke:blue;" y1="600.00" x1="100.00" id="14663" y2="600.00" /><line x2="200.00" style="fill:blue;stroke:blue;" y1="600.00" x1="100.00" id="14664" y2="550.00" /><line x2="100.00" style="fill:blue;stroke:blue;" y1="600.00" x1="100.00" id="14665" y2="680.00" /><line x2="100.00" style="fill:blue;stroke:blue;" y1="680.00" x1="100.00" id="14666" y2="600.00" /><line x2="50.00" style="fill:blue;stroke:blue;" y1="680.00" x1="100.00" id="14667" y2="680.00" /><line x2="120.00" style="fill:blue;stroke:blue;" y1="299.04" x1="121.91" id="14668" y2="350.00" /><line x2="78.09" style="fill:blue;stroke:blue;" y1="299.04" x1="121.91" id="14669" y2="320.96" /><line x2="179.04" style="fill:blue;stroke:blue;" y1="299.04" x1="121.91" id="14670" y2="208.09" /><line x2="120.00" style="fill:blue;stroke:blue;" y1="350.00" x1="120.00" id="14671" y2="400.00" /><line x2="121.91" style="fill:blue;stroke:blue;" y1="350.00" x1="120.00" id="14672" y2="299.04" /><line x2="120.00" style="fill:blue;stroke:blue;" y1="400.00" x1="120.00" id="14673" y2="350.00" /><line x2="50.00" style="fill:blue;stroke:blue;" y1="400.00" x1="120.00" id="14674" y2="400.00" /><line x2="150.00" style="fill:blue;stroke:blue;" y1="400.00" x1="120.00" id="14675" y2="450.00" /><line x2="250.00" style="fill:blue;stroke:blue;" y1="400.00" x1="120.00" id="14676" y2="350.00" /><line x2="180.00" style="fill:blue;stroke:blue;" y1="120.00" x1="150.00" id="14677" y2="80.00" /><line x2="50.00" style="fill:blue;stroke:blue;" y1="120.00" x1="150.00" id="14678" y2="200.00" /><line x2="50.00" style="fill:blue;stroke:blue;" y1="120.00" x1="150.00" id="14679" y2="80.00" /><line x2="80.00" style="fill:blue;stroke:blue;" y1="120.00" x1="150.00" id="14680" y2="120.00" /><line x2="140.00" style="fill:blue;stroke:blue;" y1="120.00" x1="150.00" id="14681" y2="170.00" /><line x2="50.00" style="fill:blue;stroke:blue;" y1="170.00" x1="140.00" id="14682" y2="200.00" /><line x2="150.00" style="fill:blue;stroke:blue;" y1="170.00" x1="140.00" id="14683" y2="120.00" /><line x2="280.00" style="fill:blue;stroke:blue;" y1="450.00" x1="150.00" id="14684" y2="500.00" /><line x2="200.00" style="fill:blue;stroke:blue;" y1="450.00" x1="150.00" id="14685" y2="550.00" /><line x2="120.00" style="fill:blue;stroke:blue;" y1="450.00" x1="150.00" id="14686" y2="400.00" /><line x2="50.00" style="fill:blue;stroke:blue;" y1="450.00" x1="150.00" id="14687" y2="480.00" /><line x2="180.00" style="fill:blue;stroke:blue;" y1="20.00" x1="180.00" id="14688" y2="80.00" /><line x2="250.00" style="fill:blue;stroke:blue;" y1="20.00" x1="180.00" id="14689" y2="20.00" /><line x2="100.00" style="fill:blue;stroke:blue;" y1="20.00" x1="180.00" id="14690" y2="20.00" /><line x2="50.00" style="fill:blue;stroke:blue;" y1="80.00" x1="180.00" id="14691" y2="80.00" /><line x2="179.04" style="fill:blue;stroke:blue;" y1="80.00" x1="180.00" id="14692" y2="208.09" /><line x2="150.00" style="fill:blue;stroke:blue;" y1="80.00" x1="180.00" id="14693" y2="120.00" /><line x2="180.00" style="fill:blue;stroke:blue;" y1="80.00" x1="180.00" id="14694" y2="20.00" /><line x2="121.91" style="fill:blue;stroke:blue;" y1="208.09" x1="179.04" id="14695" y2="299.04" /><line x2="180.00" style="fill:blue;stroke:blue;" y1="208.09" x1="179.04" id="14696" y2="80.00" /><line x2="50.00" style="fill:blue;stroke:blue;" y1="208.09" x1="179.04" id="14697" y2="200.00" /><line x2="100.00" style="fill:blue;stroke:blue;" y1="208.09" x1="179.04" id="14698" y2="250.00" /><line x2="200.96" style="fill:blue;stroke:blue;" y1="208.09" x1="179.04" id="14699" y2="251.91" /><line x2="200.00" style="fill:blue;stroke:blue;" y1="550.00" x1="200.00" id="14700" y2="600.00" /><line x2="100.00" style="fill:blue;stroke:blue;" y1="550.00" x1="200.00" id="14701" y2="600.00" /><line x2="150.00" style="fill:blue;stroke:blue;" y1="550.00" x1="200.00" id="14702" y2="450.00" /><line x2="380.00" style="fill:blue;stroke:blue;" y1="550.00" x1="200.00" id="14703" y2="550.00" /><line x2="200.00" style="fill:blue;stroke:blue;" y1="600.00" x1="200.00" id="14704" y2="550.00" /><line x2="200.00" style="fill:blue;stroke:blue;" y1="600.00" x1="200.00" id="14705" y2="680.00" /><line x2="100.00" style="fill:blue;stroke:blue;" y1="600.00" x1="200.00" id="14706" y2="600.00" /><line x2="280.00" style="fill:blue;stroke:blue;" y1="600.00" x1="200.00" id="14707" y2="680.00" /><line x2="280.00" style="fill:blue;stroke:blue;" y1="600.00" x1="200.00" id="14708" y2="600.00" /><line x2="200.00" style="fill:blue;stroke:blue;" y1="680.00" x1="200.00" id="14709" y2="600.00" /><line x2="280.00" style="fill:blue;stroke:blue;" y1="680.00" x1="200.00" id="14710" y2="680.00" /><line x2="280.00" style="fill:blue;stroke:blue;" y1="680.00" x1="200.00" id="14711" y2="600.00" /><line x2="179.04" style="fill:blue;stroke:blue;" y1="251.91" x1="200.96" id="14712" y2="208.09" /><line x2="180.00" style="fill:blue;stroke:blue;" y1="20.00" x1="250.00" id="14713" y2="20.00" /><line x2="350.00" style="fill:blue;stroke:blue;" y1="20.00" x1="250.00" id="14714" y2="20.00" /><line x2="250.00" style="fill:blue;stroke:blue;" y1="300.00" x1="250.00" id="14715" y2="350.00" /><line x2="350.00" style="fill:blue;stroke:blue;" y1="300.00" x1="250.00" id="14716" y2="300.00" /><line x2="120.00" style="fill:blue;stroke:blue;" y1="350.00" x1="250.00" id="14717" y2="400.00" /><line x2="350.00" style="fill:blue;stroke:blue;" y1="350.00" x1="250.00" id="14718" y2="350.00" /><line x2="250.00" style="fill:blue;stroke:blue;" y1="350.00" x1="250.00" id="14719" y2="300.00" /><line x2="350.00" style="fill:blue;stroke:blue;" y1="350.00" x1="250.00" id="14720" y2="300.00" /><line x2="350.00" style="fill:blue;stroke:blue;" y1="500.00" x1="280.00" id="14721" y2="500.00" /><line x2="150.00" style="fill:blue;stroke:blue;" y1="500.00" x1="280.00" id="14722" y2="450.00" /><line x2="200.00" style="fill:blue;stroke:blue;" y1="600.00" x1="280.00" id="14723" y2="600.00" /><line x2="200.00" style="fill:blue;stroke:blue;" y1="600.00" x1="280.00" id="14724" y2="680.00" /><line x2="280.00" style="fill:blue;stroke:blue;" y1="600.00" x1="280.00" id="14725" y2="680.00" /><line x2="200.00" style="fill:blue;stroke:blue;" y1="680.00" x1="280.00" id="14726" y2="600.00" /><line x2="200.00" style="fill:blue;stroke:blue;" y1="680.00" x1="280.00" id="14727" y2="680.00" /><line x2="280.00" style="fill:blue;stroke:blue;" y1="680.00" x1="280.00" id="14728" y2="600.00" /><line x2="400.00" style="fill:blue;stroke:blue;" y1="100.00" x1="300.00" id="14729" y2="75.50" /><line x2="250.00" style="fill:blue;stroke:blue;" y1="20.00" x1="350.00" id="14730" y2="20.00" /><line x2="420.00" style="fill:blue;stroke:blue;" y1="20.00" x1="350.00" id="14731" y2="20.00" /><line x2="250.00" style="fill:blue;stroke:blue;" y1="300.00" x1="350.00" id="14732" y2="350.00" /><line x2="350.00" style="fill:blue;stroke:blue;" y1="300.00" x1="350.00" id="14733" y2="350.00" /><line x2="250.00" style="fill:blue;stroke:blue;" y1="300.00" x1="350.00" id="14734" y2="300.00" /><line x2="250.00" style="fill:blue;stroke:blue;" y1="350.00" x1="350.00" id="14735" y2="350.00" /><line x2="420.00" style="fill:blue;stroke:blue;" y1="350.00" x1="350.00" id="14736" y2="350.00" /><line x2="350.00" style="fill:blue;stroke:blue;" y1="350.00" x1="350.00" id="14737" y2="300.00" /><line x2="350.00" style="fill:blue;stroke:blue;" y1="450.00" x1="350.00" id="14738" y2="500.00" /><line x2="280.00" style="fill:blue;stroke:blue;" y1="500.00" x1="350.00" id="14739" y2="500.00" /><line x2="420.00" style="fill:blue;stroke:blue;" y1="500.00" x1="350.00" id="14740" y2="500.00" /><line x2="350.00" style="fill:blue;stroke:blue;" y1="500.00" x1="350.00" id="14741" y2="450.00" /><line x2="200.00" style="fill:blue;stroke:blue;" y1="550.00" x1="380.00" id="14742" y2="550.00" /><line x2="450.00" style="fill:blue;stroke:blue;" y1="550.00" x1="380.00" id="14743" y2="575.50" /><line x2="500.00" style="fill:blue;stroke:blue;" y1="550.00" x1="380.00" id="14744" y2="550.00" /><line x2="380.00" style="fill:blue;stroke:blue;" y1="550.00" x1="380.00" id="14745" y2="720.00" /><line x2="380.00" style="fill:blue;stroke:blue;" y1="720.00" x1="380.00" id="14746" y2="550.00" /><line x2="450.00" style="fill:blue;stroke:blue;" y1="720.00" x1="380.00" id="14747" y2="575.50" /><line x2="550.00" style="fill:blue;stroke:blue;" y1="720.00" x1="380.00" id="14748" y2="650.00" /><line x2="480.00" style="fill:blue;stroke:blue;" y1="75.50" x1="400.00" id="14749" y2="100.00" /><line x2="300.00" style="fill:blue;stroke:blue;" y1="75.50" x1="400.00" id="14750" y2="100.00" /><line x2="300.00" style="fill:blue;stroke:blue;" y1="124.50" x1="400.00" id="14751" y2="150.00" /><line x2="480.00" style="fill:blue;stroke:blue;" y1="124.50" x1="400.00" id="14752" y2="150.00" /><line x2="480.00" style="fill:blue;stroke:blue;" y1="124.50" x1="400.00" id="14753" y2="100.00" /><line x2="400.00" style="fill:blue;stroke:blue;" y1="124.50" x1="400.00" id="14754" y2="175.50" /><line x2="400.00" style="fill:blue;stroke:blue;" y1="175.50" x1="400.00" id="14755" y2="124.50" /><line x2="480.00" style="fill:blue;stroke:blue;" y1="224.50" x1="400.00" id="14756" y2="200.00" /><line x2="300.00" style="fill:blue;stroke:blue;" y1="224.50" x1="400.00" id="14757" y2="220.00" /><line x2="350.00" style="fill:blue;stroke:blue;" y1="20.00" x1="420.00" id="14758" y2="20.00" /><line x2="500.00" style="fill:blue;stroke:blue;" y1="20.00" x1="420.00" id="14759" y2="20.00" /><line x2="420.00" style="fill:blue;stroke:blue;" y1="300.00" x1="420.00" id="14760" y2="350.00" /><line x2="350.00" style="fill:blue;stroke:blue;" y1="350.00" x1="420.00" id="14761" y2="350.00" /><line x2="420.00" style="fill:blue;stroke:blue;" y1="350.00" x1="420.00" id="14762" y2="300.00" /><line x2="420.00" style="fill:blue;stroke:blue;" y1="400.00" x1="420.00" id="14763" y2="450.00" /><line x2="420.00" style="fill:blue;stroke:blue;" y1="450.00" x1="420.00" id="14764" y2="500.00" /><line x2="420.00" style="fill:blue;stroke:blue;" y1="450.00" x1="420.00" id="14765" y2="400.00" /><line x2="350.00" style="fill:blue;stroke:blue;" y1="500.00" x1="420.00" id="14766" y2="500.00" /><line x2="420.00" style="fill:blue;stroke:blue;" y1="500.00" x1="420.00" id="14767" y2="450.00" /><line x2="550.00" style="fill:blue;stroke:blue;" y1="500.00" x1="420.00" id="14768" y2="500.00" /><line x2="380.00" style="fill:blue;stroke:blue;" y1="575.50" x1="450.00" id="14769" y2="550.00" /><line x2="500.00" style="fill:blue;stroke:blue;" y1="575.50" x1="450.00" id="14770" y2="550.00" /><line x2="380.00" style="fill:blue;stroke:blue;" y1="575.50" x1="450.00" id="14771" y2="720.00" /><line x2="450.00" style="fill:blue;stroke:blue;" y1="575.50" x1="450.00" id="14772" y2="624.50" /><line x2="550.00" style="fill:blue;stroke:blue;" y1="575.50" x1="450.00" id="14773" y2="650.00" /><line x2="450.00" style="fill:blue;stroke:blue;" y1="624.50" x1="450.00" id="14774" y2="575.50" /><line x2="550.00" style="fill:blue;stroke:blue;" y1="624.50" x1="450.00" id="14775" y2="650.00" /><line x2="450.00" style="fill:blue;stroke:blue;" y1="624.50" x1="450.00" id="14776" y2="675.50" /><line x2="450.00" style="fill:blue;stroke:blue;" y1="675.50" x1="450.00" id="14777" y2="624.50" /><line x2="450.00" style="fill:blue;stroke:blue;" y1="675.50" x1="450.00" id="14778" y2="724.50" /><line x2="450.00" style="fill:blue;stroke:blue;" y1="724.50" x1="450.00" id="14779" y2="675.50" /><line x2="580.00" style="fill:blue;stroke:blue;" y1="100.00" x1="480.00" id="14780" y2="100.00" /><line x2="480.00" style="fill:blue;stroke:blue;" y1="100.00" x1="480.00" id="14781" y2="150.00" /><line x2="400.00" style="fill:blue;stroke:blue;" y1="100.00" x1="480.00" id="14782" y2="124.50" /><line x2="400.00" style="fill:blue;stroke:blue;" y1="100.00" x1="480.00" id="14783" y2="75.50" /><line x2="580.00" style="fill:blue;stroke:blue;" y1="150.00" x1="480.00" id="14784" y2="100.00" /><line x2="480.00" style="fill:blue;stroke:blue;" y1="150.00" x1="480.00" id="14785" y2="100.00" /><line x2="400.00" style="fill:blue;stroke:blue;" y1="150.00" x1="480.00" id="14786" y2="124.50" /><line x2="480.00" style="fill:blue;stroke:blue;" y1="150.00" x1="480.00" id="14787" y2="200.00" /><line x2="480.00" style="fill:blue;stroke:blue;" y1="200.00" x1="480.00" id="14788" y2="150.00" /><line x2="400.00" style="fill:blue;stroke:blue;" y1="200.00" x1="480.00" id="14789" y2="224.50" /><line x2="420.00" style="fill:blue;stroke:blue;" y1="20.00" x1="500.00" id="14790" y2="20.00" /><line x2="380.00" style="fill:blue;stroke:blue;" y1="550.00" x1="500.00" id="14791" y2="550.00" /><line x2="450.00" style="fill:blue;stroke:blue;" y1="550.00" x1="500.00" id="14792" y2="575.50" /><line x2="550.00" style="fill:blue;stroke:blue;" y1="550.00" x1="500.00" id="14793" y2="650.00" /><line x2="550.00" style="fill:blue;stroke:blue;" y1="350.00" x1="500.00" id="14794" y2="400.00" /><line x2="580.00" style="fill:blue;stroke:blue;" y1="350.00" x1="500.00" id="14795" y2="350.00" /><line x2="420.00" style="fill:blue;stroke:blue;" y1="500.00" x1="550.00" id="14796" y2="500.00" /><line x2="620.00" style="fill:blue;stroke:blue;" y1="500.00" x1="550.00" id="14797" y2="500.00" /><line x2="550.00" style="fill:blue;stroke:blue;" y1="500.00" x1="550.00" id="14798" y2="400.00" /><line x2="550.00" style="fill:blue;stroke:blue;" y1="400.00" x1="550.00" id="14799" y2="500.00" /><line x2="500.00" style="fill:blue;stroke:blue;" y1="400.00" x1="550.00" id="14800" y2="350.00" /><line x2="580.00" style="fill:blue;stroke:blue;" y1="400.00" x1="550.00" id="14801" y2="350.00" /><line x2="450.00" style="fill:blue;stroke:blue;" y1="650.00" x1="550.00" id="14802" y2="575.50" /><line x2="500.00" style="fill:blue;stroke:blue;" y1="650.00" x1="550.00" id="14803" y2="550.00" /><line x2="380.00" style="fill:blue;stroke:blue;" y1="650.00" x1="550.00" id="14804" y2="720.00" /><line x2="450.00" style="fill:blue;stroke:blue;" y1="650.00" x1="550.00" id="14805" y2="624.50" /><line x2="700.00" style="fill:blue;stroke:blue;" y1="100.00" x1="580.00" id="14806" y2="100.00" /><line x2="480.00" style="fill:blue;stroke:blue;" y1="100.00" x1="580.00" id="14807" y2="150.00" /><line x2="480.00" style="fill:blue;stroke:blue;" y1="100.00" x1="580.00" id="14808" y2="100.00" /><line x2="550.00" style="fill:blue;stroke:blue;" y1="350.00" x1="580.00" id="14809" y2="400.00" /><line x2="500.00" style="fill:blue;stroke:blue;" y1="350.00" x1="580.00" id="14810" y2="350.00" /><line x2="550.00" style="fill:blue;stroke:blue;" y1="500.00" x1="620.00" id="14811" y2="500.00" /><line x2="700.00" style="fill:blue;stroke:blue;" y1="500.00" x1="620.00" id="14812" y2="500.00" /><line x2="700.00" style="fill:blue;stroke:blue;" y1="500.00" x1="620.00" id="14813" y2="300.00" /><line x2="720.00" style="fill:blue;stroke:blue;" y1="600.00" x1="650.00" id="14814" y2="600.00" /><line x2="680.00" style="fill:blue;stroke:blue;" y1="600.00" x1="650.00" id="14815" y2="650.00" /><line x2="700.00" style="fill:blue;stroke:blue;" y1="250.00" x1="650.00" id="14816" y2="300.00" /><line x2="700.00" style="fill:blue;stroke:blue;" y1="250.00" x1="650.00" id="14817" y2="220.00" /><line x2="680.00" style="fill:blue;stroke:blue;" y1="650.00" x1="680.00" id="14818" y2="720.00" /><line x2="720.00" style="fill:blue;stroke:blue;" y1="650.00" x1="680.00" id="14819" y2="600.00" /><line x2="650.00" style="fill:blue;stroke:blue;" y1="650.00" x1="680.00" id="14820" y2="600.00" /><line x2="700.00" style="fill:blue;stroke:blue;" y1="50.00" x1="700.00" id="14821" y2="100.00" /><line x2="700.00" style="fill:blue;stroke:blue;" y1="100.00" x1="700.00" id="14822" y2="150.00" /><line x2="700.00" style="fill:blue;stroke:blue;" y1="100.00" x1="700.00" id="14823" y2="50.00" /><line x2="580.00" style="fill:blue;stroke:blue;" y1="100.00" x1="700.00" id="14824" y2="100.00" /><line x2="700.00" style="fill:blue;stroke:blue;" y1="150.00" x1="700.00" id="14825" y2="220.00" /><line x2="700.00" style="fill:blue;stroke:blue;" y1="150.00" x1="700.00" id="14826" y2="100.00" /><line x2="750.00" style="fill:blue;stroke:blue;" y1="220.00" x1="700.00" id="14827" y2="250.00" /><line x2="650.00" style="fill:blue;stroke:blue;" y1="220.00" x1="700.00" id="14828" y2="250.00" /><line x2="700.00" style="fill:blue;stroke:blue;" y1="220.00" x1="700.00" id="14829" y2="150.00" /><line x2="620.00" style="fill:blue;stroke:blue;" y1="300.00" x1="700.00" id="14830" y2="500.00" /><line x2="750.00" style="fill:blue;stroke:blue;" y1="300.00" x1="700.00" id="14831" y2="250.00" /><line x2="650.00" style="fill:blue;stroke:blue;" y1="300.00" x1="700.00" id="14832" y2="250.00" /><line x2="620.00" style="fill:blue;stroke:blue;" y1="500.00" x1="700.00" id="14833" y2="500.00" /><line x2="750.00" style="fill:blue;stroke:blue;" y1="500.00" x1="700.00" id="14834" y2="500.00" /><line x2="800.00" style="fill:blue;stroke:blue;" y1="600.00" x1="720.00" id="14835" y2="580.00" /><line x2="650.00" style="fill:blue;stroke:blue;" y1="600.00" x1="720.00" id="14836" y2="600.00" /><line x2="680.00" style="fill:blue;stroke:blue;" y1="600.00" x1="720.00" id="14837" y2="650.00" /><line x2="700.00" style="fill:blue;stroke:blue;" y1="250.00" x1="750.00" id="14838" y2="300.00" /><line x2="700.00" style="fill:blue;stroke:blue;" y1="250.00" x1="750.00" id="14839" y2="220.00" /><line x2="700.00" style="fill:blue;stroke:blue;" y1="500.00" x1="750.00" id="14840" y2="500.00" /><line x2="800.00" style="fill:blue;stroke:blue;" y1="500.00" x1="750.00" id="14841" y2="580.00" /><line x2="750.00" style="fill:blue;stroke:blue;" y1="580.00" x1="800.00" id="14842" y2="500.00" /><line x2="720.00" style="fill:blue;stroke:blue;" y1="580.00" x1="800.00" id="14843" y2="600.00" /><line x2="850.00" style="fill:blue;stroke:blue;" y1="580.00" x1="800.00" id="14844" y2="520.00" /><line x2="880.00" style="fill:blue;stroke:blue;" y1="180.00" x1="800.00" id="14845" y2="300.00" /><line x2="950.00" style="fill:blue;stroke:blue;" y1="180.00" x1="800.00" id="14846" y2="180.00" /><line x2="880.00" style="fill:blue;stroke:blue;" y1="180.00" x1="800.00" id="14847" y2="150.00" /><line x2="880.00" style="fill:blue;stroke:blue;" y1="180.00" x1="800.00" id="14848" y2="200.00" /><line x2="800.00" style="fill:blue;stroke:blue;" y1="520.00" x1="850.00" id="14849" y2="580.00" /><line x2="880.00" style="fill:blue;stroke:blue;" y1="520.00" x1="850.00" id="14850" y2="450.00" /><line x2="920.00" style="fill:blue;stroke:blue;" y1="520.00" x1="850.00" id="14851" y2="550.00" /><line x2="880.00" style="fill:blue;stroke:blue;" y1="80.00" x1="880.00" id="14852" y2="150.00" /><line x2="950.00" style="fill:blue;stroke:blue;" y1="150.00" x1="880.00" id="14853" y2="180.00" /><line x2="800.00" style="fill:blue;stroke:blue;" y1="150.00" x1="880.00" id="14854" y2="180.00" /><line x2="880.00" style="fill:blue;stroke:blue;" y1="150.00" x1="880.00" id="14855" y2="80.00" /><line x2="950.00" style="fill:blue;stroke:blue;" y1="200.00" x1="880.00" id="14856" y2="180.00" /><line x2="800.00" style="fill:blue;stroke:blue;" y1="200.00" x1="880.00" id="14857" y2="180.00" /><line x2="880.00" style="fill:blue;stroke:blue;" y1="300.00" x1="880.00" id="14858" y2="450.00" /><line x2="950.00" style="fill:blue;stroke:blue;" y1="300.00" x1="880.00" id="14859" y2="180.00" /><line x2="800.00" style="fill:blue;stroke:blue;" y1="300.00" x1="880.00" id="14860" y2="180.00" /><line x2="850.00" style="fill:blue;stroke:blue;" y1="450.00" x1="880.00" id="14861" y2="520.00" /><line x2="880.00" style="fill:blue;stroke:blue;" y1="450.00" x1="880.00" id="14862" y2="300.00" /><line x2="880.00" style="fill:blue;stroke:blue;" y1="180.00" x1="950.00" id="14863" y2="300.00" /><line x2="880.00" style="fill:blue;stroke:blue;" y1="180.00" x1="950.00" id="14864" y2="150.00" /><line x2="800.00" style="fill:blue;stroke:blue;" y1="180.00" x1="950.00" id="14865" y2="180.00" /><line x2="880.00" style="fill:blue;stroke:blue;" y1="180.00" x1="950.00" id="14866" y2="200.00" /><line x2="78.09" style="fill:blue;stroke:blue;" y1="320.00" x1="20.00" id="14867" y2="320.96" /><line x2="150.00" style="fill:blue;stroke:blue;" y1="480.00" x1="50.00" id="14868" y2="450.00" /><line x2="400.00" style="fill:blue;stroke:blue;" y1="150.00" x1="300.00" id="14869" y2="124.50" /><line x2="400.00" style="fill:blue;stroke:blue;" y1="220.00" x1="300.00" id="14870" y2="224.50" /><line x2="680.00" style="fill:blue;stroke:blue;" y1="720.00" x1="680.00" id="14871" y2="650.00" /><line x2="850.00" style="fill:blue;stroke:blue;" y1="550.00" x1="920.00" id="14872" y2="520.00" /></svg>
