<?xml version="1.0" standalone="yes"?><!DOCTYPE svg PUBLIC "-//W3C//DTD SVG 1.1//EN" "http://www.w3.org/Graphics/SVG/1.1/DTD/svg11.dtd"[]><svg height="800.00" id="10758" width="1050.00" xmlns="http://www.w3.org/2000/svg" xmlns:xlink="http://www.w3.org/1999/xlink"><rect Type="system" Region="伏尔戈" height="5.00" y="152.32" Name="欧图尼" width="5.00" x="17.68" id="10759" ID="30000135" /><text x="17.68" y="152.32" id="10760">欧图尼</text><rect Type="system" Region="伏尔戈" height="5.00" y="117.68" Name="尤斯库仑" width="5.00" x="52.32" id="10762" ID="30000137" /><text x="52.32" y="117.68" id="10763">尤斯库仑</text><rect Type="system" Region="伏尔戈" height="5.00" y="200.00" Name="西卡塔" width="5.00" x="80.00" id="10765" ID="30000134" /><text x="80.00" y="200.00" id="10766">西卡塔</text><rect Type="system" Region="伏尔戈" height="5.00" y="250.00" Name="安斯拉" width="5.00" x="100.00" id="10768" ID="30000132" /><text x="100.00" y="250.00" id="10769">安斯拉</text><rect Type="system" Region="伏尔戈" height="5.00" y="150.00" Name="奥马海仑" width="5.00" x="100.00" id="10771" ID="30000136" /><text x="100.00" y="150.00" id="10772">奥马海仑</text><rect Type="system" Region="伏尔戈" height="5.00" y="300.00" Name="伊库奇" width="5.00" x="120.00" id="10774" ID="30000138" /><text x="120.00" y="300.00" id="10775">伊库奇</text><rect Type="system" Region="伏尔戈" height="5.00" y="500.00" Name="乌尔仑" width="5.00" x="120.00" id="10777" ID="30000139" /><text x="120.00" y="500.00" id="10778">乌尔仑</text><rect Type="system" Region="伏尔戈" height="5.00" y="280.00" Name="希尔塔蒙" width="5.00" x="180.00" id="10780" ID="30000133" /><text x="180.00" y="280.00" id="10781">希尔塔蒙</text><rect Type="system" Region="伏尔戈" height="5.00" y="600.00" Name="乌恩帕斯" width="5.00" x="150.00" id="10783" ID="30000129" /><text x="150.00" y="600.00" id="10784">乌恩帕斯</text><rect Type="system" Region="伏尔戈" height="5.00" y="220.00" Name="奥坎尼托" width="5.00" x="180.00" id="10786" ID="30021407" /><text x="180.00" y="220.00" id="10787">奥坎尼托</text><rect Type="system" Region="伏尔戈" height="5.00" y="400.00" Name="皮尔米特" width="5.00" x="180.00" id="10789" ID="30000144" /><text x="180.00" y="400.00" id="10790">皮尔米特</text><rect Type="system" Region="伏尔戈" height="5.00" y="350.00" Name="尼亚拜伦" width="5.00" x="180.00" id="10792" ID="30000143" /><text x="180.00" y="350.00" id="10793">尼亚拜伦</text><rect Type="system" Region="伏尔戈" height="5.00" y="90.00" Name="欧贝" width="5.00" x="200.00" id="10795" ID="30000205" /><text x="200.00" y="90.00" id="10796">欧贝</text><rect Type="system" Region="伏尔戈" height="5.00" y="500.00" Name="基索加" width="5.00" x="200.00" id="10798" ID="30000141" /><text x="200.00" y="500.00" id="10799">基索加</text><rect Type="system" Region="伏尔戈" height="5.00" y="550.00" Name="乌伊特里拉" width="5.00" x="220.00" id="10801" ID="30030141" /><text x="220.00" y="550.00" id="10802">乌伊特里拉</text><rect Type="system" Region="伏尔戈" height="5.00" y="650.00" Name="什胡肯" width="5.00" x="220.00" id="10804" ID="30000130" /><text x="220.00" y="650.00" id="10805">什胡肯</text><rect Type="system" Region="伏尔戈" height="5.00" y="350.00" Name="吉他" width="5.00" x="250.00" id="10807" ID="30000142" /><text x="250.00" y="350.00" id="10808">吉他</text><rect Type="system" Region="伏尔戈" height="5.00" y="90.00" Name="欧库仑" width="5.00" x="270.00" id="10810" ID="30000204" /><text x="270.00" y="90.00" id="10811">欧库仑</text><rect Type="system" Region="伏尔戈" height="5.00" y="300.00" Name="新加达里" width="5.00" x="250.00" id="10813" ID="30000145" /><text x="250.00" y="300.00" id="10814">新加达里</text><rect Type="system" Region="伏尔戈" height="5.00" y="400.00" Name="玛乌纳斯" width="5.00" x="250.00" id="10816" ID="30000140" /><text x="250.00" y="400.00" id="10817">玛乌纳斯</text><rect Type="system" Region="伏尔戈" height="5.00" y="450.00" Name="贾塔特" width="5.00" x="275.50" id="10819" ID="30000121" /><text x="275.50" y="450.00" id="10820">贾塔特</text><rect Type="system" Region="伏尔戈" height="5.00" y="500.00" Name="瓦安卡伦" width="5.00" x="300.00" id="10822" ID="30000123" /><text x="300.00" y="500.00" id="10823">瓦安卡伦</text><rect Type="system" Region="吉勒西斯" height="5.00" y="220.00" Name="阿巴宗" width="5.00" x="20.00" id="10825" ID="30005196" /><text x="20.00" y="220.00" id="10826">阿巴宗</text><rect Type="system" Region="伏尔戈" height="5.00" y="700.00" Name="希尔瑟新" width="5.00" x="300.00" id="10828" ID="30000127" /><text x="300.00" y="700.00" id="10829">希尔瑟新</text><rect Type="system" Region="伏尔戈" height="5.00" y="90.00" Name="马斯塔克蒙" width="5.00" x="350.00" id="10831" ID="30000202" /><text x="350.00" y="90.00" id="10832">马斯塔克蒙</text><rect Type="system" Region="伏尔戈" height="5.00" y="140.00" Name="乌查什" width="5.00" x="350.00" id="10834" ID="30000201" /><text x="350.00" y="140.00" id="10835">乌查什</text><rect Type="system" Region="伏尔戈" height="5.00" y="450.00" Name="伊塔莫" width="5.00" x="324.50" id="10837" ID="30000119" /><text x="324.50" y="450.00" id="10838">伊塔莫</text><rect Type="system" Region="伏尔戈" height="5.00" y="650.00" Name="图乌瑞纳" width="5.00" x="350.00" id="10840" ID="30000128" /><text x="350.00" y="650.00" id="10841">图乌瑞纳</text><rect Type="system" Region="伏尔戈" height="5.00" y="200.00" Name="乌卡伦" width="5.00" x="350.00" id="10843" ID="30000177" /><text x="350.00" y="200.00" id="10844">乌卡伦</text><rect Type="system" Region="伏尔戈" height="5.00" y="500.00" Name="密茨伦" width="5.00" x="350.00" id="10846" ID="30000120" /><text x="350.00" y="500.00" id="10847">密茨伦</text><rect Type="system" Region="伏尔戈" height="5.00" y="70.00" Name="伊卢卡" width="5.00" x="400.00" id="10849" ID="30000203" /><text x="400.00" y="70.00" id="10850">伊卢卡</text><rect Type="system" Region="伏尔戈" height="5.00" y="430.00" Name="基尔玛贝" width="5.00" x="380.00" id="10852" ID="30000124" /><text x="380.00" y="430.00" id="10853">基尔玛贝</text><rect Type="system" Region="伏尔戈" height="5.00" y="550.00" Name="玛提斯塔" width="5.00" x="400.00" id="10855" ID="30000122" /><text x="400.00" y="550.00" id="10856">玛提斯塔</text><rect Type="system" Region="伏尔戈" height="5.00" y="480.00" Name="阿图莱玛" width="5.00" x="400.00" id="10858" ID="30000125" /><text x="400.00" y="480.00" id="10859">阿图莱玛</text><rect Type="system" Region="伏尔戈" height="5.00" y="90.00" Name="奥斯阿" width="5.00" x="450.00" id="10861" ID="30000207" /><text x="450.00" y="90.00" id="10862">奥斯阿</text><rect Type="system" Region="伏尔戈" height="5.00" y="220.00" Name="科伊卡肯" width="5.00" x="420.00" id="10864" ID="30000176" /><text x="420.00" y="220.00" id="10865">科伊卡肯</text><rect Type="system" Region="伏尔戈" height="5.00" y="140.00" Name="沃斯基奥" width="5.00" x="470.00" id="10867" ID="30000193" /><text x="470.00" y="140.00" id="10868">沃斯基奥</text><rect Type="system" Region="伏尔戈" height="5.00" y="650.00" Name="基尔拉斯" width="5.00" x="450.00" id="10870" ID="30000126" /><text x="450.00" y="650.00" id="10871">基尔拉斯</text><rect Type="system" Region="伏尔戈" height="5.00" y="475.50" Name="贾卡纳尔维" width="5.00" x="480.00" id="10873" ID="30000148" /><text x="480.00" y="475.50" id="10874">贾卡纳尔维</text><rect Type="system" Region="伏尔戈" height="5.00" y="524.50" Name="赛西奥" width="5.00" x="480.00" id="10876" ID="30000146" /><text x="480.00" y="524.50" id="10877">赛西奥</text><rect Type="system" Region="伏尔戈" height="5.00" y="424.50" Name="格昆塔米" width="5.00" x="500.00" id="10879" ID="30000149" /><text x="500.00" y="424.50" id="10880">格昆塔米</text><rect Type="system" Region="伏尔戈" height="5.00" y="250.00" Name="温努斯" width="5.00" x="500.00" id="10882" ID="30000174" /><text x="500.00" y="250.00" id="10883">温努斯</text><rect Type="system" Region="伏尔戈" height="5.00" y="375.50" Name="欧约伦" width="5.00" x="500.00" id="10885" ID="30000151" /><text x="500.00" y="375.50" id="10886">欧约伦</text><rect Type="system" Region="伏尔戈" height="5.00" y="120.00" Name="瓦萨拉" width="5.00" x="520.00" id="10888" ID="30000190" /><text x="520.00" y="120.00" id="10889">瓦萨拉</text><rect Type="system" Region="伏尔戈" height="5.00" y="650.00" Name="诺玛尔" width="5.00" x="510.00" id="10891" ID="30000131" /><text x="510.00" y="650.00" id="10892">诺玛尔</text><rect Type="system" Region="伏尔戈" height="5.00" y="550.00" Name="埃巴加瓦" width="5.00" x="550.00" id="10894" ID="30000147" /><text x="550.00" y="550.00" id="10895">埃巴加瓦</text><rect Type="system" Region="伏尔戈" height="5.00" y="450.00" Name="哈比伦" width="5.00" x="550.00" id="10897" ID="30000152" /><text x="550.00" y="450.00" id="10898">哈比伦</text><rect Type="system" Region="伏尔戈" height="5.00" y="282.32" Name="瓦托伦" width="5.00" x="547.68" id="10900" ID="30000173" /><text x="547.68" y="282.32" id="10901">瓦托伦</text><rect Type="system" Region="伏尔戈" height="5.00" y="247.68" Name="埃吉伦" width="5.00" x="582.32" id="10903" ID="30000178" /><text x="582.32" y="247.68" id="10904">埃吉伦</text><rect Type="system" Region="伏尔戈" height="5.00" y="500.00" Name="胡尔托肯" width="5.00" x="580.00" id="10906" ID="30000150" /><text x="580.00" y="500.00" id="10907">胡尔托肯</text><rect Type="system" Region="伏尔戈" height="5.00" y="100.00" Name="瓦尔瓦林" width="5.00" x="600.00" id="10909" ID="30000191" /><text x="600.00" y="100.00" id="10910">瓦尔瓦林</text><rect Type="system" Region="伏尔戈" height="5.00" y="150.00" Name="吉安提" width="5.00" x="600.00" id="10912" ID="30000189" /><text x="600.00" y="150.00" id="10913">吉安提</text><rect Type="system" Region="伏尔戈" height="5.00" y="200.00" Name="恒托加拉" width="5.00" x="600.00" id="10915" ID="30000188" /><text x="600.00" y="200.00" id="10916">恒托加拉</text><rect Type="system" Region="伏尔戈" height="5.00" y="300.00" Name="乔萨密陀" width="5.00" x="600.00" id="10918" ID="30000156" /><text x="600.00" y="300.00" id="10919">乔萨密陀</text><rect Type="system" Region="伏尔戈" height="5.00" y="630.00" Name="埃加奥" width="5.00" x="650.00" id="10921" ID="30000200" /><text x="650.00" y="630.00" id="10922">埃加奥</text><rect Type="system" Region="伏尔戈" height="5.00" y="250.00" Name="索什恩" width="5.00" x="650.00" id="10924" ID="30000175" /><text x="650.00" y="250.00" id="10925">索什恩</text><rect Type="system" Region="伏尔戈" height="5.00" y="120.00" Name="欧特色拉" width="5.00" x="680.00" id="10927" ID="30000194" /><text x="680.00" y="120.00" id="10928">欧特色拉</text><rect Type="system" Region="伏尔戈" height="5.00" y="320.00" Name="列库里" width="5.00" x="680.00" id="10930" ID="30000154" /><text x="680.00" y="320.00" id="10931">列库里</text><rect Type="system" Region="伏尔戈" height="5.00" y="721.91" Name="帕拉" width="5.00" x="679.04" id="10933" ID="30000198" /><text x="679.04" y="721.91" id="10934">帕拉</text><rect Type="system" Region="伏尔戈" height="5.00" y="550.00" Name="普尔乔拉" width="5.00" x="700.00" id="10936" ID="30000161" /><text x="700.00" y="550.00" id="10937">普尔乔拉</text><rect Type="system" Region="伏尔戈" height="5.00" y="400.00" Name="波耶伦" width="5.00" x="700.00" id="10939" ID="30000153" /><text x="700.00" y="400.00" id="10940">波耶伦</text><rect Type="system" Region="伏尔戈" height="5.00" y="500.00" Name="伊卡密" width="5.00" x="700.00" id="10942" ID="30000159" /><text x="700.00" y="500.00" id="10943">伊卡密</text><rect Type="system" Region="伏尔戈" height="5.00" y="678.09" Name="奥塔希拉" width="5.00" x="700.96" id="10945" ID="30000196" /><text x="700.96" y="678.09" id="10946">奥塔希拉</text><rect Type="system" Region="伏尔戈" height="5.00" y="280.00" Name="斯勒恩" width="5.00" x="720.00" id="10948" ID="30000179" /><text x="720.00" y="280.00" id="10949">斯勒恩</text><rect Type="system" Region="伏尔戈" height="5.00" y="600.00" Name="马伊拉" width="5.00" x="750.00" id="10951" ID="30000162" /><text x="750.00" y="600.00" id="10952">马伊拉</text><rect Type="system" Region="伏尔戈" height="5.00" y="350.00" Name="奥班伦" width="5.00" x="750.00" id="10954" ID="30000155" /><text x="750.00" y="350.00" id="10955">奥班伦</text><rect Type="system" Region="伏尔戈" height="5.00" y="701.91" Name="尤蒙" width="5.00" x="749.04" id="10957" ID="30000197" /><text x="749.04" y="701.91" id="10958">尤蒙</text><rect Type="system" Region="伏尔戈" height="5.00" y="520.96" Name="莱伊森" width="5.00" x="778.09" id="10960" ID="30000160" /><text x="778.09" y="520.96" id="10961">莱伊森</text><rect Type="system" Region="伏尔戈" height="5.00" y="658.09" Name="塔瑟提" width="5.00" x="770.96" id="10963" ID="30000195" /><text x="770.96" y="658.09" id="10964">塔瑟提</text><rect Type="system" Region="伏尔戈" height="5.00" y="250.00" Name="艾尔米亚" width="5.00" x="780.00" id="10966" ID="30000166" /><text x="780.00" y="250.00" id="10967">艾尔米亚</text><rect Type="system" Region="伏尔戈" height="5.00" y="150.00" Name="以哈坎拿" width="5.00" x="800.00" id="10969" ID="30000169" /><text x="800.00" y="150.00" id="10970">以哈坎拿</text><rect Type="system" Region="伏尔戈" height="5.00" y="623.77" Name="米瑟约亚" width="5.00" x="809.06" id="10972" ID="30000164" /><text x="809.06" y="623.77" id="10973">米瑟约亚</text><rect Type="system" Region="伏尔戈" height="5.00" y="200.00" Name="弗瑞吉" width="5.00" x="820.00" id="10975" ID="30000168" /><text x="820.00" y="200.00" id="10976">弗瑞吉</text><rect Type="system" Region="伏尔戈" height="5.00" y="300.00" Name="伊什索蒙" width="5.00" x="820.00" id="10978" ID="30000165" /><text x="820.00" y="300.00" id="10979">伊什索蒙</text><rect Type="system" Region="伏尔戈" height="5.00" y="350.00" Name="欧罗" width="5.00" x="820.00" id="10981" ID="30000158" /><text x="820.00" y="350.00" id="10982">欧罗</text><rect Type="system" Region="伏尔戈" height="5.00" y="576.23" Name="爱科拉" width="5.00" x="820.94" id="10984" ID="30000163" /><text x="820.94" y="576.23" id="10985">爱科拉</text><rect Type="system" Region="伏尔戈" height="5.00" y="720.00" Name="夫斯库仑" width="5.00" x="820.00" id="10987" ID="30000199" /><text x="820.00" y="720.00" id="10988">夫斯库仑</text><rect Type="system" Region="伏尔戈" height="5.00" y="400.00" Name="欧斯蒙" width="5.00" x="840.00" id="10990" ID="30000180" /><text x="840.00" y="400.00" id="10991">欧斯蒙</text><rect Type="system" Region="伏尔戈" height="5.00" y="450.00" Name="库尔斯基" width="5.00" x="850.00" id="10993" ID="30000181" /><text x="850.00" y="450.00" id="10994">库尔斯基</text><rect Type="system" Region="伏尔戈" height="5.00" y="499.04" Name="艾拉肯" width="5.00" x="821.91" id="10996" ID="30000185" /><text x="821.91" y="499.04" id="10997">艾拉肯</text><rect Type="system" Region="伏尔戈" height="5.00" y="540.00" Name="欧加仑" width="5.00" x="860.00" id="10999" ID="30000186" /><text x="860.00" y="540.00" id="11000">欧加仑</text><rect Type="system" Region="伏尔戈" height="5.00" y="250.00" Name="萨基凯伦" width="5.00" x="850.00" id="11002" ID="30000167" /><text x="850.00" y="250.00" id="11003">萨基凯伦</text><rect Type="system" Region="伏尔戈" height="5.00" y="100.00" Name="欧塔迈伦" width="5.00" x="850.00" id="11005" ID="30000172" /><text x="850.00" y="100.00" id="11006">欧塔迈伦</text><rect Type="system" Region="伏尔戈" height="5.00" y="370.00" Name="因纳亚" width="5.00" x="880.00" id="11008" ID="30000182" /><text x="880.00" y="370.00" id="11009">因纳亚</text><rect Type="system" Region="伏尔戈" height="5.00" y="450.00" Name="鲁肯" width="5.00" x="900.00" id="11011" ID="30000183" /><text x="900.00" y="450.00" id="11012">鲁肯</text><rect Type="system" Region="伏尔戈" height="5.00" y="150.00" Name="欧提托" width="5.00" x="900.00" id="11014" ID="30000171" /><text x="900.00" y="150.00" id="11015">欧提托</text><rect Type="system" Region="伏尔戈" height="5.00" y="320.00" Name="乌欧斯" width="5.00" x="920.00" id="11017" ID="30000187" /><text x="920.00" y="320.00" id="11018">乌欧斯</text><rect Type="system" Region="伏尔戈" height="5.00" y="250.00" Name="瓦胡诺米" width="5.00" x="920.00" id="11020" ID="30000170" /><text x="920.00" y="250.00" id="11021">瓦胡诺米</text><rect Type="system" Region="伏尔戈" height="5.00" y="380.00" Name="乌米纳斯" width="5.00" x="950.00" id="11023" ID="30000184" /><text x="950.00" y="380.00" id="11024">乌米纳斯</text><rect Type="system" Region="赛塔德洱" height="5.00" y="480.00" Name="库索蒙莫" width="5.00" x="50.00" id="11026" ID="30002802" /><text x="50.00" y="480.00" id="11027">库索蒙莫</text><rect Type="system" Region="金纳泽" height="5.00" y="400.00" Name="伊恩-奥斯塔" width="5.00" x="50.00" id="11029" ID="30002642" /><text x="50.00" y="400.00" id="11030">伊恩-奥斯塔</text><rect Type="system" Region="赛塔德洱" height="5.00" y="620.00" Name="希尔帕拉" width="5.00" x="60.00" id="11032" ID="30002791" /><text x="60.00" y="620.00" id="11033">希尔帕拉</text><rect Type="system" Region="长征" height="5.00" y="320.00" Name="吞塔拉斯" width="5.00" x="60.00" id="11035" ID="30001379" /><text x="60.00" y="320.00" id="11036">吞塔拉斯</text><rect Type="system" Region="长征" height="5.00" y="90.00" Name="哈克农" width="5.00" x="150.00" id="11038" ID="30001448" /><text x="150.00" y="90.00" id="11039">哈克农</text><rect Type="system" Region="赛塔德洱" height="5.00" y="720.00" Name="伊纳洛" width="5.00" x="120.00" id="11041" ID="30002788" /><text x="120.00" y="720.00" id="11042">伊纳洛</text><rect Type="system" Region="静寂谷" height="5.00" y="40.00" Name="P3EN-E" width="5.00" x="200.00" id="11044" ID="30000250" /><text x="200.00" y="40.00" id="11045">P3EN-E</text><rect Type="system" Region="长征" height="5.00" y="300.00" Name="莫卡冷" width="5.00" x="350.00" id="11047" ID="30001393" /><text x="350.00" y="300.00" id="11048">莫卡冷</text><rect Type="system" Region="赛塔德洱" height="5.00" y="400.00" Name="姆沃莱伦" width="5.00" x="340.00" id="11050" ID="30002780" /><text x="340.00" y="400.00" id="11051">姆沃莱伦</text><rect Type="system" Region="赛塔德洱" height="5.00" y="250.00" Name="阿里卡拉" width="5.00" x="350.00" id="11053" ID="30002754" /><text x="350.00" y="250.00" id="11054">阿里卡拉</text><rect Type="system" Region="长征" height="5.00" y="350.00" Name="索巴色基" width="5.00" x="350.00" id="11056" ID="30001363" /><text x="350.00" y="350.00" id="11057">索巴色基</text><rect Type="system" Region="对舞之域" height="5.00" y="580.00" Name="EOA-ZC" width="5.00" x="620.00" id="11059" ID="30002475" /><text x="620.00" y="580.00" id="11060">EOA-ZC</text><rect Type="system" Region="美特伯里斯" height="5.00" y="630.00" Name="托蒂弗伦" width="5.00" x="580.00" id="11062" ID="30002062" /><text x="580.00" y="630.00" id="11063">托蒂弗伦</text><rect Type="system" Region="琉蓝之穹" height="5.00" y="740.00" Name="LXQ2-T" width="5.00" x="610.00" id="11065" ID="30002355" /><text x="610.00" y="740.00" id="11066">LXQ2-T</text><rect Type="system" Region="美特伯里斯" height="5.00" y="720.00" Name="欧法戈" width="5.00" x="900.00" id="11068" ID="30003446" /><text x="900.00" y="720.00" id="11069">欧法戈</text><rect Type="system" Region="对舞之域" height="5.00" y="570.00" Name="BWF-ZZ" width="5.00" x="920.00" id="11071" ID="30002440" /><text x="920.00" y="570.00" id="11072">BWF-ZZ</text><line x2="80.00" style="fill:blue;stroke:blue;" y1="152.32" x1="17.68" id="11074" y2="200.00" /><line x2="100.00" style="fill:blue;stroke:blue;" y1="152.32" x1="17.68" id="11075" y2="150.00" /><line x2="52.32" style="fill:blue;stroke:blue;" y1="152.32" x1="17.68" id="11076" y2="117.68" /><line x2="17.68" style="fill:blue;stroke:blue;" y1="117.68" x1="52.32" id="11077" y2="152.32" /><line x2="100.00" style="fill:blue;stroke:blue;" y1="117.68" x1="52.32" id="11078" y2="150.00" /><line x2="100.00" style="fill:blue;stroke:blue;" y1="200.00" x1="80.00" id="11079" y2="250.00" /><line x2="17.68" style="fill:blue;stroke:blue;" y1="200.00" x1="80.00" id="11080" y2="152.32" /><line x2="100.00" style="fill:blue;stroke:blue;" y1="200.00" x1="80.00" id="11081" y2="150.00" /><line x2="20.00" style="fill:blue;stroke:blue;" y1="200.00" x1="80.00" id="11082" y2="220.00" /><line x2="180.00" style="fill:blue;stroke:blue;" y1="250.00" x1="100.00" id="11083" y2="280.00" /><line x2="80.00" style="fill:blue;stroke:blue;" y1="250.00" x1="100.00" id="11084" y2="200.00" /><line x2="120.00" style="fill:blue;stroke:blue;" y1="250.00" x1="100.00" id="11085" y2="300.00" /><line x2="80.00" style="fill:blue;stroke:blue;" y1="150.00" x1="100.00" id="11086" y2="200.00" /><line x2="17.68" style="fill:blue;stroke:blue;" y1="150.00" x1="100.00" id="11087" y2="152.32" /><line x2="52.32" style="fill:blue;stroke:blue;" y1="150.00" x1="100.00" id="11088" y2="117.68" /><line x2="100.00" style="fill:blue;stroke:blue;" y1="300.00" x1="120.00" id="11089" y2="250.00" /><line x2="180.00" style="fill:blue;stroke:blue;" y1="300.00" x1="120.00" id="11090" y2="280.00" /><line x2="250.00" style="fill:blue;stroke:blue;" y1="300.00" x1="120.00" id="11091" y2="350.00" /><line x2="60.00" style="fill:blue;stroke:blue;" y1="300.00" x1="120.00" id="11092" y2="320.00" /><line x2="150.00" style="fill:blue;stroke:blue;" y1="500.00" x1="120.00" id="11093" y2="600.00" /><line x2="200.00" style="fill:blue;stroke:blue;" y1="500.00" x1="120.00" id="11094" y2="500.00" /><line x2="180.00" style="fill:blue;stroke:blue;" y1="500.00" x1="120.00" id="11095" y2="400.00" /><line x2="60.00" style="fill:blue;stroke:blue;" y1="500.00" x1="120.00" id="11096" y2="620.00" /><line x2="50.00" style="fill:blue;stroke:blue;" y1="500.00" x1="120.00" id="11097" y2="480.00" /><line x2="100.00" style="fill:blue;stroke:blue;" y1="280.00" x1="180.00" id="11098" y2="250.00" /><line x2="120.00" style="fill:blue;stroke:blue;" y1="280.00" x1="180.00" id="11099" y2="300.00" /><line x2="250.00" style="fill:blue;stroke:blue;" y1="280.00" x1="180.00" id="11100" y2="300.00" /><line x2="180.00" style="fill:blue;stroke:blue;" y1="280.00" x1="180.00" id="11101" y2="220.00" /><line x2="220.00" style="fill:blue;stroke:blue;" y1="600.00" x1="150.00" id="11102" y2="650.00" /><line x2="120.00" style="fill:blue;stroke:blue;" y1="600.00" x1="150.00" id="11103" y2="500.00" /><line x2="220.00" style="fill:blue;stroke:blue;" y1="600.00" x1="150.00" id="11104" y2="550.00" /><line x2="180.00" style="fill:blue;stroke:blue;" y1="220.00" x1="180.00" id="11105" y2="280.00" /><line x2="120.00" style="fill:blue;stroke:blue;" y1="400.00" x1="180.00" id="11106" y2="500.00" /><line x2="250.00" style="fill:blue;stroke:blue;" y1="400.00" x1="180.00" id="11107" y2="400.00" /><line x2="250.00" style="fill:blue;stroke:blue;" y1="400.00" x1="180.00" id="11108" y2="350.00" /><line x2="180.00" style="fill:blue;stroke:blue;" y1="400.00" x1="180.00" id="11109" y2="350.00" /><line x2="50.00" style="fill:blue;stroke:blue;" y1="400.00" x1="180.00" id="11110" y2="400.00" /><line x2="250.00" style="fill:blue;stroke:blue;" y1="350.00" x1="180.00" id="11111" y2="350.00" /><line x2="180.00" style="fill:blue;stroke:blue;" y1="350.00" x1="180.00" id="11112" y2="400.00" /><line x2="250.00" style="fill:blue;stroke:blue;" y1="350.00" x1="180.00" id="11113" y2="300.00" /><line x2="60.00" style="fill:blue;stroke:blue;" y1="350.00" x1="180.00" id="11114" y2="320.00" /><line x2="270.00" style="fill:blue;stroke:blue;" y1="90.00" x1="200.00" id="11115" y2="90.00" /><line x2="200.00" style="fill:blue;stroke:blue;" y1="90.00" x1="200.00" id="11116" y2="40.00" /><line x2="150.00" style="fill:blue;stroke:blue;" y1="90.00" x1="200.00" id="11117" y2="90.00" /><line x2="120.00" style="fill:blue;stroke:blue;" y1="500.00" x1="200.00" id="11118" y2="500.00" /><line x2="150.00" style="fill:blue;stroke:blue;" y1="550.00" x1="220.00" id="11119" y2="600.00" /><line x2="350.00" style="fill:blue;stroke:blue;" y1="650.00" x1="220.00" id="11120" y2="650.00" /><line x2="150.00" style="fill:blue;stroke:blue;" y1="650.00" x1="220.00" id="11121" y2="600.00" /><line x2="120.00" style="fill:blue;stroke:blue;" y1="350.00" x1="250.00" id="11122" y2="300.00" /><line x2="250.00" style="fill:blue;stroke:blue;" y1="350.00" x1="250.00" id="11123" y2="400.00" /><line x2="180.00" style="fill:blue;stroke:blue;" y1="350.00" x1="250.00" id="11124" y2="350.00" /><line x2="180.00" style="fill:blue;stroke:blue;" y1="350.00" x1="250.00" id="11125" y2="400.00" /><line x2="250.00" style="fill:blue;stroke:blue;" y1="350.00" x1="250.00" id="11126" y2="300.00" /><line x2="350.00" style="fill:blue;stroke:blue;" y1="350.00" x1="250.00" id="11127" y2="350.00" /><line x2="340.00" style="fill:blue;stroke:blue;" y1="350.00" x1="250.00" id="11128" y2="400.00" /><line x2="350.00" style="fill:blue;stroke:blue;" y1="90.00" x1="270.00" id="11129" y2="90.00" /><line x2="200.00" style="fill:blue;stroke:blue;" y1="90.00" x1="270.00" id="11130" y2="90.00" /><line x2="180.00" style="fill:blue;stroke:blue;" y1="300.00" x1="250.00" id="11131" y2="280.00" /><line x2="250.00" style="fill:blue;stroke:blue;" y1="300.00" x1="250.00" id="11132" y2="350.00" /><line x2="180.00" style="fill:blue;stroke:blue;" y1="300.00" x1="250.00" id="11133" y2="350.00" /><line x2="600.00" style="fill:blue;stroke:blue;" y1="300.00" x1="250.00" id="11134" y2="300.00" /><line x2="350.00" style="fill:blue;stroke:blue;" y1="300.00" x1="250.00" id="11135" y2="300.00" /><line x2="350.00" style="fill:blue;stroke:blue;" y1="300.00" x1="250.00" id="11136" y2="250.00" /><line x2="324.50" style="fill:blue;stroke:blue;" y1="400.00" x1="250.00" id="11137" y2="450.00" /><line x2="250.00" style="fill:blue;stroke:blue;" y1="400.00" x1="250.00" id="11138" y2="350.00" /><line x2="180.00" style="fill:blue;stroke:blue;" y1="400.00" x1="250.00" id="11139" y2="400.00" /><line x2="340.00" style="fill:blue;stroke:blue;" y1="400.00" x1="250.00" id="11140" y2="400.00" /><line x2="324.50" style="fill:blue;stroke:blue;" y1="450.00" x1="275.50" id="11141" y2="450.00" /><line x2="324.50" style="fill:blue;stroke:blue;" y1="500.00" x1="300.00" id="11142" y2="450.00" /><line x2="80.00" style="fill:blue;stroke:blue;" y1="220.00" x1="20.00" id="11143" y2="200.00" /><line x2="350.00" style="fill:blue;stroke:blue;" y1="700.00" x1="300.00" id="11144" y2="650.00" /><line x2="120.00" style="fill:blue;stroke:blue;" y1="700.00" x1="300.00" id="11145" y2="720.00" /><line x2="350.00" style="fill:blue;stroke:blue;" y1="90.00" x1="350.00" id="11146" y2="140.00" /><line x2="400.00" style="fill:blue;stroke:blue;" y1="90.00" x1="350.00" id="11147" y2="70.00" /><line x2="270.00" style="fill:blue;stroke:blue;" y1="90.00" x1="350.00" id="11148" y2="90.00" /><line x2="450.00" style="fill:blue;stroke:blue;" y1="90.00" x1="350.00" id="11149" y2="90.00" /><line x2="470.00" style="fill:blue;stroke:blue;" y1="140.00" x1="350.00" id="11150" y2="140.00" /><line x2="350.00" style="fill:blue;stroke:blue;" y1="140.00" x1="350.00" id="11151" y2="90.00" /><line x2="350.00" style="fill:blue;stroke:blue;" y1="450.00" x1="324.50" id="11152" y2="500.00" /><line x2="275.50" style="fill:blue;stroke:blue;" y1="450.00" x1="324.50" id="11153" y2="450.00" /><line x2="300.00" style="fill:blue;stroke:blue;" y1="450.00" x1="324.50" id="11154" y2="500.00" /><line x2="380.00" style="fill:blue;stroke:blue;" y1="450.00" x1="324.50" id="11155" y2="430.00" /><line x2="400.00" style="fill:blue;stroke:blue;" y1="450.00" x1="324.50" id="11156" y2="480.00" /><line x2="250.00" style="fill:blue;stroke:blue;" y1="450.00" x1="324.50" id="11157" y2="400.00" /><line x2="450.00" style="fill:blue;stroke:blue;" y1="650.00" x1="350.00" id="11158" y2="650.00" /><line x2="300.00" style="fill:blue;stroke:blue;" y1="650.00" x1="350.00" id="11159" y2="700.00" /><line x2="220.00" style="fill:blue;stroke:blue;" y1="650.00" x1="350.00" id="11160" y2="650.00" /><line x2="420.00" style="fill:blue;stroke:blue;" y1="200.00" x1="350.00" id="11161" y2="220.00" /><line x2="324.50" style="fill:blue;stroke:blue;" y1="500.00" x1="350.00" id="11162" y2="450.00" /><line x2="400.00" style="fill:blue;stroke:blue;" y1="500.00" x1="350.00" id="11163" y2="550.00" /><line x2="350.00" style="fill:blue;stroke:blue;" y1="70.00" x1="400.00" id="11164" y2="90.00" /><line x2="450.00" style="fill:blue;stroke:blue;" y1="70.00" x1="400.00" id="11165" y2="90.00" /><line x2="324.50" style="fill:blue;stroke:blue;" y1="430.00" x1="380.00" id="11166" y2="450.00" /><line x2="350.00" style="fill:blue;stroke:blue;" y1="550.00" x1="400.00" id="11167" y2="500.00" /><line x2="324.50" style="fill:blue;stroke:blue;" y1="480.00" x1="400.00" id="11168" y2="450.00" /><line x2="350.00" style="fill:blue;stroke:blue;" y1="90.00" x1="450.00" id="11169" y2="90.00" /><line x2="400.00" style="fill:blue;stroke:blue;" y1="90.00" x1="450.00" id="11170" y2="70.00" /><line x2="500.00" style="fill:blue;stroke:blue;" y1="220.00" x1="420.00" id="11171" y2="250.00" /><line x2="350.00" style="fill:blue;stroke:blue;" y1="220.00" x1="420.00" id="11172" y2="200.00" /><line x2="520.00" style="fill:blue;stroke:blue;" y1="140.00" x1="470.00" id="11173" y2="120.00" /><line x2="350.00" style="fill:blue;stroke:blue;" y1="140.00" x1="470.00" id="11174" y2="140.00" /><line x2="350.00" style="fill:blue;stroke:blue;" y1="650.00" x1="450.00" id="11175" y2="650.00" /><line x2="510.00" style="fill:blue;stroke:blue;" y1="650.00" x1="450.00" id="11176" y2="650.00" /><line x2="480.00" style="fill:blue;stroke:blue;" y1="475.50" x1="480.00" id="11177" y2="524.50" /><line x2="500.00" style="fill:blue;stroke:blue;" y1="475.50" x1="480.00" id="11178" y2="424.50" /><line x2="550.00" style="fill:blue;stroke:blue;" y1="475.50" x1="480.00" id="11179" y2="450.00" /><line x2="510.00" style="fill:blue;stroke:blue;" y1="524.50" x1="480.00" id="11180" y2="650.00" /><line x2="550.00" style="fill:blue;stroke:blue;" y1="524.50" x1="480.00" id="11181" y2="550.00" /><line x2="480.00" style="fill:blue;stroke:blue;" y1="524.50" x1="480.00" id="11182" y2="475.50" /><line x2="480.00" style="fill:blue;stroke:blue;" y1="424.50" x1="500.00" id="11183" y2="475.50" /><line x2="500.00" style="fill:blue;stroke:blue;" y1="424.50" x1="500.00" id="11184" y2="375.50" /><line x2="547.68" style="fill:blue;stroke:blue;" y1="250.00" x1="500.00" id="11185" y2="282.32" /><line x2="420.00" style="fill:blue;stroke:blue;" y1="250.00" x1="500.00" id="11186" y2="220.00" /><line x2="582.32" style="fill:blue;stroke:blue;" y1="250.00" x1="500.00" id="11187" y2="247.68" /><line x2="500.00" style="fill:blue;stroke:blue;" y1="375.50" x1="500.00" id="11188" y2="424.50" /><line x2="547.68" style="fill:blue;stroke:blue;" y1="375.50" x1="500.00" id="11189" y2="282.32" /><line x2="600.00" style="fill:blue;stroke:blue;" y1="120.00" x1="520.00" id="11190" y2="150.00" /><line x2="600.00" style="fill:blue;stroke:blue;" y1="120.00" x1="520.00" id="11191" y2="100.00" /><line x2="470.00" style="fill:blue;stroke:blue;" y1="120.00" x1="520.00" id="11192" y2="140.00" /><line x2="680.00" style="fill:blue;stroke:blue;" y1="120.00" x1="520.00" id="11193" y2="120.00" /><line x2="450.00" style="fill:blue;stroke:blue;" y1="650.00" x1="510.00" id="11194" y2="650.00" /><line x2="480.00" style="fill:blue;stroke:blue;" y1="650.00" x1="510.00" id="11195" y2="524.50" /><line x2="700.00" style="fill:blue;stroke:blue;" y1="650.00" x1="510.00" id="11196" y2="400.00" /><line x2="480.00" style="fill:blue;stroke:blue;" y1="550.00" x1="550.00" id="11197" y2="524.50" /><line x2="580.00" style="fill:blue;stroke:blue;" y1="550.00" x1="550.00" id="11198" y2="500.00" /><line x2="480.00" style="fill:blue;stroke:blue;" y1="450.00" x1="550.00" id="11199" y2="475.50" /><line x2="580.00" style="fill:blue;stroke:blue;" y1="450.00" x1="550.00" id="11200" y2="500.00" /><line x2="700.00" style="fill:blue;stroke:blue;" y1="450.00" x1="550.00" id="11201" y2="500.00" /><line x2="500.00" style="fill:blue;stroke:blue;" y1="282.32" x1="547.68" id="11202" y2="375.50" /><line x2="500.00" style="fill:blue;stroke:blue;" y1="282.32" x1="547.68" id="11203" y2="250.00" /><line x2="650.00" style="fill:blue;stroke:blue;" y1="282.32" x1="547.68" id="11204" y2="250.00" /><line x2="582.32" style="fill:blue;stroke:blue;" y1="282.32" x1="547.68" id="11205" y2="247.68" /><line x2="547.68" style="fill:blue;stroke:blue;" y1="247.68" x1="582.32" id="11206" y2="282.32" /><line x2="500.00" style="fill:blue;stroke:blue;" y1="247.68" x1="582.32" id="11207" y2="250.00" /><line x2="650.00" style="fill:blue;stroke:blue;" y1="247.68" x1="582.32" id="11208" y2="250.00" /><line x2="600.00" style="fill:blue;stroke:blue;" y1="247.68" x1="582.32" id="11209" y2="200.00" /><line x2="550.00" style="fill:blue;stroke:blue;" y1="500.00" x1="580.00" id="11210" y2="550.00" /><line x2="550.00" style="fill:blue;stroke:blue;" y1="500.00" x1="580.00" id="11211" y2="450.00" /><line x2="600.00" style="fill:blue;stroke:blue;" y1="100.00" x1="600.00" id="11212" y2="150.00" /><line x2="520.00" style="fill:blue;stroke:blue;" y1="100.00" x1="600.00" id="11213" y2="120.00" /><line x2="680.00" style="fill:blue;stroke:blue;" y1="100.00" x1="600.00" id="11214" y2="120.00" /><line x2="600.00" style="fill:blue;stroke:blue;" y1="150.00" x1="600.00" id="11215" y2="200.00" /><line x2="520.00" style="fill:blue;stroke:blue;" y1="150.00" x1="600.00" id="11216" y2="120.00" /><line x2="600.00" style="fill:blue;stroke:blue;" y1="150.00" x1="600.00" id="11217" y2="100.00" /><line x2="680.00" style="fill:blue;stroke:blue;" y1="150.00" x1="600.00" id="11218" y2="120.00" /><line x2="582.32" style="fill:blue;stroke:blue;" y1="200.00" x1="600.00" id="11219" y2="247.68" /><line x2="600.00" style="fill:blue;stroke:blue;" y1="200.00" x1="600.00" id="11220" y2="150.00" /><line x2="680.00" style="fill:blue;stroke:blue;" y1="200.00" x1="600.00" id="11221" y2="120.00" /><line x2="250.00" style="fill:blue;stroke:blue;" y1="300.00" x1="600.00" id="11222" y2="300.00" /><line x2="700.00" style="fill:blue;stroke:blue;" y1="300.00" x1="600.00" id="11223" y2="400.00" /><line x2="680.00" style="fill:blue;stroke:blue;" y1="300.00" x1="600.00" id="11224" y2="320.00" /><line x2="700.96" style="fill:blue;stroke:blue;" y1="630.00" x1="650.00" id="11225" y2="678.09" /><line x2="580.00" style="fill:blue;stroke:blue;" y1="630.00" x1="650.00" id="11226" y2="630.00" /><line x2="620.00" style="fill:blue;stroke:blue;" y1="630.00" x1="650.00" id="11227" y2="580.00" /><line x2="547.68" style="fill:blue;stroke:blue;" y1="250.00" x1="650.00" id="11228" y2="282.32" /><line x2="582.32" style="fill:blue;stroke:blue;" y1="250.00" x1="650.00" id="11229" y2="247.68" /><line x2="720.00" style="fill:blue;stroke:blue;" y1="250.00" x1="650.00" id="11230" y2="280.00" /><line x2="800.00" style="fill:blue;stroke:blue;" y1="120.00" x1="680.00" id="11231" y2="150.00" /><line x2="600.00" style="fill:blue;stroke:blue;" y1="120.00" x1="680.00" id="11232" y2="200.00" /><line x2="600.00" style="fill:blue;stroke:blue;" y1="120.00" x1="680.00" id="11233" y2="150.00" /><line x2="520.00" style="fill:blue;stroke:blue;" y1="120.00" x1="680.00" id="11234" y2="120.00" /><line x2="600.00" style="fill:blue;stroke:blue;" y1="120.00" x1="680.00" id="11235" y2="100.00" /><line x2="700.00" style="fill:blue;stroke:blue;" y1="320.00" x1="680.00" id="11236" y2="400.00" /><line x2="750.00" style="fill:blue;stroke:blue;" y1="320.00" x1="680.00" id="11237" y2="350.00" /><line x2="600.00" style="fill:blue;stroke:blue;" y1="320.00" x1="680.00" id="11238" y2="300.00" /><line x2="749.04" style="fill:blue;stroke:blue;" y1="721.91" x1="679.04" id="11239" y2="701.91" /><line x2="610.00" style="fill:blue;stroke:blue;" y1="721.91" x1="679.04" id="11240" y2="740.00" /><line x2="700.00" style="fill:blue;stroke:blue;" y1="550.00" x1="700.00" id="11241" y2="500.00" /><line x2="778.09" style="fill:blue;stroke:blue;" y1="550.00" x1="700.00" id="11242" y2="520.96" /><line x2="750.00" style="fill:blue;stroke:blue;" y1="550.00" x1="700.00" id="11243" y2="600.00" /><line x2="510.00" style="fill:blue;stroke:blue;" y1="400.00" x1="700.00" id="11244" y2="650.00" /><line x2="680.00" style="fill:blue;stroke:blue;" y1="400.00" x1="700.00" id="11245" y2="320.00" /><line x2="750.00" style="fill:blue;stroke:blue;" y1="400.00" x1="700.00" id="11246" y2="350.00" /><line x2="600.00" style="fill:blue;stroke:blue;" y1="400.00" x1="700.00" id="11247" y2="300.00" /><line x2="550.00" style="fill:blue;stroke:blue;" y1="500.00" x1="700.00" id="11248" y2="450.00" /><line x2="778.09" style="fill:blue;stroke:blue;" y1="500.00" x1="700.00" id="11249" y2="520.96" /><line x2="700.00" style="fill:blue;stroke:blue;" y1="500.00" x1="700.00" id="11250" y2="550.00" /><line x2="770.96" style="fill:blue;stroke:blue;" y1="678.09" x1="700.96" id="11251" y2="658.09" /><line x2="749.04" style="fill:blue;stroke:blue;" y1="678.09" x1="700.96" id="11252" y2="701.91" /><line x2="650.00" style="fill:blue;stroke:blue;" y1="678.09" x1="700.96" id="11253" y2="630.00" /><line x2="650.00" style="fill:blue;stroke:blue;" y1="280.00" x1="720.00" id="11254" y2="250.00" /><line x2="700.00" style="fill:blue;stroke:blue;" y1="600.00" x1="750.00" id="11255" y2="550.00" /><line x2="820.94" style="fill:blue;stroke:blue;" y1="600.00" x1="750.00" id="11256" y2="576.23" /><line x2="700.00" style="fill:blue;stroke:blue;" y1="350.00" x1="750.00" id="11257" y2="400.00" /><line x2="680.00" style="fill:blue;stroke:blue;" y1="350.00" x1="750.00" id="11258" y2="320.00" /><line x2="820.00" style="fill:blue;stroke:blue;" y1="350.00" x1="750.00" id="11259" y2="350.00" /><line x2="700.96" style="fill:blue;stroke:blue;" y1="701.91" x1="749.04" id="11260" y2="678.09" /><line x2="679.04" style="fill:blue;stroke:blue;" y1="701.91" x1="749.04" id="11261" y2="721.91" /><line x2="820.00" style="fill:blue;stroke:blue;" y1="701.91" x1="749.04" id="11262" y2="720.00" /><line x2="700.00" style="fill:blue;stroke:blue;" y1="520.96" x1="778.09" id="11263" y2="500.00" /><line x2="700.00" style="fill:blue;stroke:blue;" y1="520.96" x1="778.09" id="11264" y2="550.00" /><line x2="820.94" style="fill:blue;stroke:blue;" y1="520.96" x1="778.09" id="11265" y2="576.23" /><line x2="809.06" style="fill:blue;stroke:blue;" y1="658.09" x1="770.96" id="11266" y2="623.77" /><line x2="700.96" style="fill:blue;stroke:blue;" y1="658.09" x1="770.96" id="11267" y2="678.09" /><line x2="820.00" style="fill:blue;stroke:blue;" y1="250.00" x1="780.00" id="11268" y2="300.00" /><line x2="850.00" style="fill:blue;stroke:blue;" y1="250.00" x1="780.00" id="11269" y2="250.00" /><line x2="820.00" style="fill:blue;stroke:blue;" y1="250.00" x1="780.00" id="11270" y2="200.00" /><line x2="820.00" style="fill:blue;stroke:blue;" y1="150.00" x1="800.00" id="11271" y2="200.00" /><line x2="900.00" style="fill:blue;stroke:blue;" y1="150.00" x1="800.00" id="11272" y2="150.00" /><line x2="850.00" style="fill:blue;stroke:blue;" y1="150.00" x1="800.00" id="11273" y2="100.00" /><line x2="680.00" style="fill:blue;stroke:blue;" y1="150.00" x1="800.00" id="11274" y2="120.00" /><line x2="820.94" style="fill:blue;stroke:blue;" y1="623.77" x1="809.06" id="11275" y2="576.23" /><line x2="770.96" style="fill:blue;stroke:blue;" y1="623.77" x1="809.06" id="11276" y2="658.09" /><line x2="780.00" style="fill:blue;stroke:blue;" y1="200.00" x1="820.00" id="11277" y2="250.00" /><line x2="850.00" style="fill:blue;stroke:blue;" y1="200.00" x1="820.00" id="11278" y2="250.00" /><line x2="800.00" style="fill:blue;stroke:blue;" y1="200.00" x1="820.00" id="11279" y2="150.00" /><line x2="900.00" style="fill:blue;stroke:blue;" y1="200.00" x1="820.00" id="11280" y2="150.00" /><line x2="820.00" style="fill:blue;stroke:blue;" y1="300.00" x1="820.00" id="11281" y2="350.00" /><line x2="780.00" style="fill:blue;stroke:blue;" y1="300.00" x1="820.00" id="11282" y2="250.00" /><line x2="850.00" style="fill:blue;stroke:blue;" y1="300.00" x1="820.00" id="11283" y2="250.00" /><line x2="750.00" style="fill:blue;stroke:blue;" y1="350.00" x1="820.00" id="11284" y2="350.00" /><line x2="820.00" style="fill:blue;stroke:blue;" y1="350.00" x1="820.00" id="11285" y2="300.00" /><line x2="840.00" style="fill:blue;stroke:blue;" y1="350.00" x1="820.00" id="11286" y2="400.00" /><line x2="778.09" style="fill:blue;stroke:blue;" y1="576.23" x1="820.94" id="11287" y2="520.96" /><line x2="750.00" style="fill:blue;stroke:blue;" y1="576.23" x1="820.94" id="11288" y2="600.00" /><line x2="809.06" style="fill:blue;stroke:blue;" y1="576.23" x1="820.94" id="11289" y2="623.77" /><line x2="860.00" style="fill:blue;stroke:blue;" y1="576.23" x1="820.94" id="11290" y2="540.00" /><line x2="749.04" style="fill:blue;stroke:blue;" y1="720.00" x1="820.00" id="11291" y2="701.91" /><line x2="900.00" style="fill:blue;stroke:blue;" y1="720.00" x1="820.00" id="11292" y2="720.00" /><line x2="820.00" style="fill:blue;stroke:blue;" y1="400.00" x1="840.00" id="11293" y2="350.00" /><line x2="850.00" style="fill:blue;stroke:blue;" y1="400.00" x1="840.00" id="11294" y2="450.00" /><line x2="880.00" style="fill:blue;stroke:blue;" y1="400.00" x1="840.00" id="11295" y2="370.00" /><line x2="840.00" style="fill:blue;stroke:blue;" y1="450.00" x1="850.00" id="11296" y2="400.00" /><line x2="900.00" style="fill:blue;stroke:blue;" y1="450.00" x1="850.00" id="11297" y2="450.00" /><line x2="821.91" style="fill:blue;stroke:blue;" y1="450.00" x1="850.00" id="11298" y2="499.04" /><line x2="850.00" style="fill:blue;stroke:blue;" y1="499.04" x1="821.91" id="11299" y2="450.00" /><line x2="860.00" style="fill:blue;stroke:blue;" y1="499.04" x1="821.91" id="11300" y2="540.00" /><line x2="820.94" style="fill:blue;stroke:blue;" y1="540.00" x1="860.00" id="11301" y2="576.23" /><line x2="821.91" style="fill:blue;stroke:blue;" y1="540.00" x1="860.00" id="11302" y2="499.04" /><line x2="920.00" style="fill:blue;stroke:blue;" y1="540.00" x1="860.00" id="11303" y2="570.00" /><line x2="820.00" style="fill:blue;stroke:blue;" y1="250.00" x1="850.00" id="11304" y2="300.00" /><line x2="780.00" style="fill:blue;stroke:blue;" y1="250.00" x1="850.00" id="11305" y2="250.00" /><line x2="820.00" style="fill:blue;stroke:blue;" y1="250.00" x1="850.00" id="11306" y2="200.00" /><line x2="920.00" style="fill:blue;stroke:blue;" y1="250.00" x1="850.00" id="11307" y2="250.00" /><line x2="800.00" style="fill:blue;stroke:blue;" y1="100.00" x1="850.00" id="11308" y2="150.00" /><line x2="840.00" style="fill:blue;stroke:blue;" y1="370.00" x1="880.00" id="11309" y2="400.00" /><line x2="950.00" style="fill:blue;stroke:blue;" y1="370.00" x1="880.00" id="11310" y2="380.00" /><line x2="920.00" style="fill:blue;stroke:blue;" y1="370.00" x1="880.00" id="11311" y2="320.00" /><line x2="850.00" style="fill:blue;stroke:blue;" y1="450.00" x1="900.00" id="11312" y2="450.00" /><line x2="820.00" style="fill:blue;stroke:blue;" y1="150.00" x1="900.00" id="11313" y2="200.00" /><line x2="800.00" style="fill:blue;stroke:blue;" y1="150.00" x1="900.00" id="11314" y2="150.00" /><line x2="880.00" style="fill:blue;stroke:blue;" y1="320.00" x1="920.00" id="11315" y2="370.00" /><line x2="850.00" style="fill:blue;stroke:blue;" y1="250.00" x1="920.00" id="11316" y2="250.00" /><line x2="880.00" style="fill:blue;stroke:blue;" y1="380.00" x1="950.00" id="11317" y2="370.00" /><line x2="120.00" style="fill:blue;stroke:blue;" y1="480.00" x1="50.00" id="11318" y2="500.00" /><line x2="180.00" style="fill:blue;stroke:blue;" y1="400.00" x1="50.00" id="11319" y2="400.00" /><line x2="120.00" style="fill:blue;stroke:blue;" y1="620.00" x1="60.00" id="11320" y2="500.00" /><line x2="120.00" style="fill:blue;stroke:blue;" y1="620.00" x1="60.00" id="11321" y2="720.00" /><line x2="120.00" style="fill:blue;stroke:blue;" y1="320.00" x1="60.00" id="11322" y2="300.00" /><line x2="180.00" style="fill:blue;stroke:blue;" y1="320.00" x1="60.00" id="11323" y2="350.00" /><line x2="200.00" style="fill:blue;stroke:blue;" y1="90.00" x1="150.00" id="11324" y2="90.00" /><line x2="300.00" style="fill:blue;stroke:blue;" y1="720.00" x1="120.00" id="11325" y2="700.00" /><line x2="60.00" style="fill:blue;stroke:blue;" y1="720.00" x1="120.00" id="11326" y2="620.00" /><line x2="200.00" style="fill:blue;stroke:blue;" y1="40.00" x1="200.00" id="11327" y2="90.00" /><line x2="250.00" style="fill:blue;stroke:blue;" y1="300.00" x1="350.00" id="11328" y2="300.00" /><line x2="350.00" style="fill:blue;stroke:blue;" y1="300.00" x1="350.00" id="11329" y2="350.00" /><line x2="250.00" style="fill:blue;stroke:blue;" y1="400.00" x1="340.00" id="11330" y2="400.00" /><line x2="250.00" style="fill:blue;stroke:blue;" y1="400.00" x1="340.00" id="11331" y2="350.00" /><line x2="250.00" style="fill:blue;stroke:blue;" y1="250.00" x1="350.00" id="11332" y2="300.00" /><line x2="250.00" style="fill:blue;stroke:blue;" y1="350.00" x1="350.00" id="11333" y2="350.00" /><line x2="350.00" style="fill:blue;stroke:blue;" y1="350.00" x1="350.00" id="11334" y2="300.00" /><line x2="650.00" style="fill:blue;stroke:blue;" y1="580.00" x1="620.00" id="11335" y2="630.00" /><line x2="650.00" style="fill:blue;stroke:blue;" y1="630.00" x1="580.00" id="11336" y2="630.00" /><line x2="679.04" style="fill:blue;stroke:blue;" y1="740.00" x1="610.00" id="11337" y2="721.91" /><line x2="820.00" style="fill:blue;stroke:blue;" y1="720.00" x1="900.00" id="11338" y2="720.00" /><line x2="860.00" style="fill:blue;stroke:blue;" y1="570.00" x1="920.00" id="11339" y2="540.00" /></svg>
