<?xml version="1.0" standalone="yes"?><!DOCTYPE svg PUBLIC "-//W3C//DTD SVG 1.1//EN" "http://www.w3.org/Graphics/SVG/1.1/DTD/svg11.dtd"[]><svg width="1050.00" height="800.00" id="10758" xmlns="http://www.w3.org/2000/svg" xmlns:xlink="http://www.w3.org/1999/xlink"><rect Type="system" x="17.68" id="10759" height="5.00" width="5.00" Name="欧图尼" ID="30000135" Region="伏尔戈" y="152.32" /><text y="152.32" x="17.68" id="10760">欧图尼</text><rect Type="system" x="52.32" id="10762" height="5.00" width="5.00" Name="尤斯库仑" ID="30000137" Region="伏尔戈" y="117.68" /><text y="117.68" x="52.32" id="10763">尤斯库仑</text><rect Type="system" x="80.00" id="10765" height="5.00" width="5.00" Name="西卡塔" ID="30000134" Region="伏尔戈" y="200.00" /><text y="200.00" x="80.00" id="10766">西卡塔</text><rect Type="system" x="100.00" id="10768" height="5.00" width="5.00" Name="安斯拉" ID="30000132" Region="伏尔戈" y="250.00" /><text y="250.00" x="100.00" id="10769">安斯拉</text><rect Type="system" x="100.00" id="10771" height="5.00" width="5.00" Name="奥马海仑" ID="30000136" Region="伏尔戈" y="150.00" /><text y="150.00" x="100.00" id="10772">奥马海仑</text><rect Type="system" x="120.00" id="10774" height="5.00" width="5.00" Name="伊库奇" ID="30000138" Region="伏尔戈" y="300.00" /><text y="300.00" x="120.00" id="10775">伊库奇</text><rect Type="system" x="120.00" id="10777" height="5.00" width="5.00" Name="乌尔仑" ID="30000139" Region="伏尔戈" y="500.00" /><text y="500.00" x="120.00" id="10778">乌尔仑</text><rect Type="system" x="180.00" id="10780" height="5.00" width="5.00" Name="希尔塔蒙" ID="30000133" Region="伏尔戈" y="280.00" /><text y="280.00" x="180.00" id="10781">希尔塔蒙</text><rect Type="system" x="150.00" id="10783" height="5.00" width="5.00" Name="乌恩帕斯" ID="30000129" Region="伏尔戈" y="600.00" /><text y="600.00" x="150.00" id="10784">乌恩帕斯</text><rect Type="system" x="180.00" id="10786" height="5.00" width="5.00" Name="奥坎尼托" ID="30021407" Region="伏尔戈" y="220.00" /><text y="220.00" x="180.00" id="10787">奥坎尼托</text><rect Type="system" x="180.00" id="10789" height="5.00" width="5.00" Name="皮尔米特" ID="30000144" Region="伏尔戈" y="400.00" /><text y="400.00" x="180.00" id="10790">皮尔米特</text><rect Type="system" x="180.00" id="10792" height="5.00" width="5.00" Name="尼亚拜伦" ID="30000143" Region="伏尔戈" y="350.00" /><text y="350.00" x="180.00" id="10793">尼亚拜伦</text><rect Type="system" x="200.00" id="10795" height="5.00" width="5.00" Name="欧贝" ID="30000205" Region="伏尔戈" y="90.00" /><text y="90.00" x="200.00" id="10796">欧贝</text><rect Type="system" x="200.00" id="10798" height="5.00" width="5.00" Name="基索加" ID="30000141" Region="伏尔戈" y="500.00" /><text y="500.00" x="200.00" id="10799">基索加</text><rect Type="system" x="220.00" id="10801" height="5.00" width="5.00" Name="乌伊特里拉" ID="30030141" Region="伏尔戈" y="550.00" /><text y="550.00" x="220.00" id="10802">乌伊特里拉</text><rect Type="system" x="220.00" id="10804" height="5.00" width="5.00" Name="什胡肯" ID="30000130" Region="伏尔戈" y="650.00" /><text y="650.00" x="220.00" id="10805">什胡肯</text><rect Type="system" x="250.00" id="10807" height="5.00" width="5.00" Name="吉他" ID="30000142" Region="伏尔戈" y="350.00" /><text y="350.00" x="250.00" id="10808">吉他</text><rect Type="system" x="270.00" id="10810" height="5.00" width="5.00" Name="欧库仑" ID="30000204" Region="伏尔戈" y="90.00" /><text y="90.00" x="270.00" id="10811">欧库仑</text><rect Type="system" x="250.00" id="10813" height="5.00" width="5.00" Name="新加达里" ID="30000145" Region="伏尔戈" y="300.00" /><text y="300.00" x="250.00" id="10814">新加达里</text><rect Type="system" x="250.00" id="10816" height="5.00" width="5.00" Name="玛乌纳斯" ID="30000140" Region="伏尔戈" y="400.00" /><text y="400.00" x="250.00" id="10817">玛乌纳斯</text><rect Type="system" x="275.50" id="10819" height="5.00" width="5.00" Name="贾塔特" ID="30000121" Region="伏尔戈" y="450.00" /><text y="450.00" x="275.50" id="10820">贾塔特</text><rect Type="system" x="300.00" id="10822" height="5.00" width="5.00" Name="瓦安卡伦" ID="30000123" Region="伏尔戈" y="500.00" /><text y="500.00" x="300.00" id="10823">瓦安卡伦</text><rect Type="system" x="20.00" id="10825" height="5.00" width="5.00" Name="阿巴宗" ID="30005196" Region="吉勒西斯" y="220.00" /><text y="220.00" x="20.00" id="10826">阿巴宗</text><rect Type="system" x="300.00" id="10828" height="5.00" width="5.00" Name="希尔瑟新" ID="30000127" Region="伏尔戈" y="700.00" /><text y="700.00" x="300.00" id="10829">希尔瑟新</text><rect Type="system" x="350.00" id="10831" height="5.00" width="5.00" Name="马斯塔克蒙" ID="30000202" Region="伏尔戈" y="90.00" /><text y="90.00" x="350.00" id="10832">马斯塔克蒙</text><rect Type="system" x="350.00" id="10834" height="5.00" width="5.00" Name="乌查什" ID="30000201" Region="伏尔戈" y="140.00" /><text y="140.00" x="350.00" id="10835">乌查什</text><rect Type="system" x="324.50" id="10837" height="5.00" width="5.00" Name="伊塔莫" ID="30000119" Region="伏尔戈" y="450.00" /><text y="450.00" x="324.50" id="10838">伊塔莫</text><rect Type="system" x="350.00" id="10840" height="5.00" width="5.00" Name="图乌瑞纳" ID="30000128" Region="伏尔戈" y="650.00" /><text y="650.00" x="350.00" id="10841">图乌瑞纳</text><rect Type="system" x="350.00" id="10843" height="5.00" width="5.00" Name="乌卡伦" ID="30000177" Region="伏尔戈" y="200.00" /><text y="200.00" x="350.00" id="10844">乌卡伦</text><rect Type="system" x="350.00" id="10846" height="5.00" width="5.00" Name="密茨伦" ID="30000120" Region="伏尔戈" y="500.00" /><text y="500.00" x="350.00" id="10847">密茨伦</text><rect Type="system" x="400.00" id="10849" height="5.00" width="5.00" Name="伊卢卡" ID="30000203" Region="伏尔戈" y="70.00" /><text y="70.00" x="400.00" id="10850">伊卢卡</text><rect Type="system" x="380.00" id="10852" height="5.00" width="5.00" Name="基尔玛贝" ID="30000124" Region="伏尔戈" y="430.00" /><text y="430.00" x="380.00" id="10853">基尔玛贝</text><rect Type="system" x="400.00" id="10855" height="5.00" width="5.00" Name="玛提斯塔" ID="30000122" Region="伏尔戈" y="550.00" /><text y="550.00" x="400.00" id="10856">玛提斯塔</text><rect Type="system" x="400.00" id="10858" height="5.00" width="5.00" Name="阿图莱玛" ID="30000125" Region="伏尔戈" y="480.00" /><text y="480.00" x="400.00" id="10859">阿图莱玛</text><rect Type="system" x="450.00" id="10861" height="5.00" width="5.00" Name="奥斯阿" ID="30000207" Region="伏尔戈" y="90.00" /><text y="90.00" x="450.00" id="10862">奥斯阿</text><rect Type="system" x="420.00" id="10864" height="5.00" width="5.00" Name="科伊卡肯" ID="30000176" Region="伏尔戈" y="220.00" /><text y="220.00" x="420.00" id="10865">科伊卡肯</text><rect Type="system" x="470.00" id="10867" height="5.00" width="5.00" Name="沃斯基奥" ID="30000193" Region="伏尔戈" y="140.00" /><text y="140.00" x="470.00" id="10868">沃斯基奥</text><rect Type="system" x="450.00" id="10870" height="5.00" width="5.00" Name="基尔拉斯" ID="30000126" Region="伏尔戈" y="650.00" /><text y="650.00" x="450.00" id="10871">基尔拉斯</text><rect Type="system" x="480.00" id="10873" height="5.00" width="5.00" Name="贾卡纳尔维" ID="30000148" Region="伏尔戈" y="475.50" /><text y="475.50" x="480.00" id="10874">贾卡纳尔维</text><rect Type="system" x="480.00" id="10876" height="5.00" width="5.00" Name="赛西奥" ID="30000146" Region="伏尔戈" y="524.50" /><text y="524.50" x="480.00" id="10877">赛西奥</text><rect Type="system" x="500.00" id="10879" height="5.00" width="5.00" Name="格昆塔米" ID="30000149" Region="伏尔戈" y="424.50" /><text y="424.50" x="500.00" id="10880">格昆塔米</text><rect Type="system" x="500.00" id="10882" height="5.00" width="5.00" Name="温努斯" ID="30000174" Region="伏尔戈" y="250.00" /><text y="250.00" x="500.00" id="10883">温努斯</text><rect Type="system" x="500.00" id="10885" height="5.00" width="5.00" Name="欧约伦" ID="30000151" Region="伏尔戈" y="375.50" /><text y="375.50" x="500.00" id="10886">欧约伦</text><rect Type="system" x="520.00" id="10888" height="5.00" width="5.00" Name="瓦萨拉" ID="30000190" Region="伏尔戈" y="120.00" /><text y="120.00" x="520.00" id="10889">瓦萨拉</text><rect Type="system" x="510.00" id="10891" height="5.00" width="5.00" Name="诺玛尔" ID="30000131" Region="伏尔戈" y="650.00" /><text y="650.00" x="510.00" id="10892">诺玛尔</text><rect Type="system" x="550.00" id="10894" height="5.00" width="5.00" Name="埃巴加瓦" ID="30000147" Region="伏尔戈" y="550.00" /><text y="550.00" x="550.00" id="10895">埃巴加瓦</text><rect Type="system" x="550.00" id="10897" height="5.00" width="5.00" Name="哈比伦" ID="30000152" Region="伏尔戈" y="450.00" /><text y="450.00" x="550.00" id="10898">哈比伦</text><rect Type="system" x="547.68" id="10900" height="5.00" width="5.00" Name="瓦托伦" ID="30000173" Region="伏尔戈" y="282.32" /><text y="282.32" x="547.68" id="10901">瓦托伦</text><rect Type="system" x="582.32" id="10903" height="5.00" width="5.00" Name="埃吉伦" ID="30000178" Region="伏尔戈" y="247.68" /><text y="247.68" x="582.32" id="10904">埃吉伦</text><rect Type="system" x="580.00" id="10906" height="5.00" width="5.00" Name="胡尔托肯" ID="30000150" Region="伏尔戈" y="500.00" /><text y="500.00" x="580.00" id="10907">胡尔托肯</text><rect Type="system" x="600.00" id="10909" height="5.00" width="5.00" Name="瓦尔瓦林" ID="30000191" Region="伏尔戈" y="100.00" /><text y="100.00" x="600.00" id="10910">瓦尔瓦林</text><rect Type="system" x="600.00" id="10912" height="5.00" width="5.00" Name="吉安提" ID="30000189" Region="伏尔戈" y="150.00" /><text y="150.00" x="600.00" id="10913">吉安提</text><rect Type="system" x="600.00" id="10915" height="5.00" width="5.00" Name="恒托加拉" ID="30000188" Region="伏尔戈" y="200.00" /><text y="200.00" x="600.00" id="10916">恒托加拉</text><rect Type="system" x="600.00" id="10918" height="5.00" width="5.00" Name="乔萨密陀" ID="30000156" Region="伏尔戈" y="300.00" /><text y="300.00" x="600.00" id="10919">乔萨密陀</text><rect Type="system" x="650.00" id="10921" height="5.00" width="5.00" Name="埃加奥" ID="30000200" Region="伏尔戈" y="630.00" /><text y="630.00" x="650.00" id="10922">埃加奥</text><rect Type="system" x="650.00" id="10924" height="5.00" width="5.00" Name="索什恩" ID="30000175" Region="伏尔戈" y="250.00" /><text y="250.00" x="650.00" id="10925">索什恩</text><rect Type="system" x="680.00" id="10927" height="5.00" width="5.00" Name="欧特色拉" ID="30000194" Region="伏尔戈" y="120.00" /><text y="120.00" x="680.00" id="10928">欧特色拉</text><rect Type="system" x="680.00" id="10930" height="5.00" width="5.00" Name="列库里" ID="30000154" Region="伏尔戈" y="320.00" /><text y="320.00" x="680.00" id="10931">列库里</text><rect Type="system" x="679.04" id="10933" height="5.00" width="5.00" Name="帕拉" ID="30000198" Region="伏尔戈" y="721.91" /><text y="721.91" x="679.04" id="10934">帕拉</text><rect Type="system" x="700.00" id="10936" height="5.00" width="5.00" Name="普尔乔拉" ID="30000161" Region="伏尔戈" y="550.00" /><text y="550.00" x="700.00" id="10937">普尔乔拉</text><rect Type="system" x="700.00" id="10939" height="5.00" width="5.00" Name="波耶伦" ID="30000153" Region="伏尔戈" y="400.00" /><text y="400.00" x="700.00" id="10940">波耶伦</text><rect Type="system" x="700.00" id="10942" height="5.00" width="5.00" Name="伊卡密" ID="30000159" Region="伏尔戈" y="500.00" /><text y="500.00" x="700.00" id="10943">伊卡密</text><rect Type="system" x="700.96" id="10945" height="5.00" width="5.00" Name="奥塔希拉" ID="30000196" Region="伏尔戈" y="678.09" /><text y="678.09" x="700.96" id="10946">奥塔希拉</text><rect Type="system" x="720.00" id="10948" height="5.00" width="5.00" Name="斯勒恩" ID="30000179" Region="伏尔戈" y="280.00" /><text y="280.00" x="720.00" id="10949">斯勒恩</text><rect Type="system" x="750.00" id="10951" height="5.00" width="5.00" Name="马伊拉" ID="30000162" Region="伏尔戈" y="600.00" /><text y="600.00" x="750.00" id="10952">马伊拉</text><rect Type="system" x="750.00" id="10954" height="5.00" width="5.00" Name="奥班伦" ID="30000155" Region="伏尔戈" y="350.00" /><text y="350.00" x="750.00" id="10955">奥班伦</text><rect Type="system" x="749.04" id="10957" height="5.00" width="5.00" Name="尤蒙" ID="30000197" Region="伏尔戈" y="701.91" /><text y="701.91" x="749.04" id="10958">尤蒙</text><rect Type="system" x="778.09" id="10960" height="5.00" width="5.00" Name="莱伊森" ID="30000160" Region="伏尔戈" y="520.96" /><text y="520.96" x="778.09" id="10961">莱伊森</text><rect Type="system" x="770.96" id="10963" height="5.00" width="5.00" Name="塔瑟提" ID="30000195" Region="伏尔戈" y="658.09" /><text y="658.09" x="770.96" id="10964">塔瑟提</text><rect Type="system" x="780.00" id="10966" height="5.00" width="5.00" Name="艾尔米亚" ID="30000166" Region="伏尔戈" y="250.00" /><text y="250.00" x="780.00" id="10967">艾尔米亚</text><rect Type="system" x="800.00" id="10969" height="5.00" width="5.00" Name="以哈坎拿" ID="30000169" Region="伏尔戈" y="150.00" /><text y="150.00" x="800.00" id="10970">以哈坎拿</text><rect Type="system" x="809.06" id="10972" height="5.00" width="5.00" Name="米瑟约亚" ID="30000164" Region="伏尔戈" y="623.77" /><text y="623.77" x="809.06" id="10973">米瑟约亚</text><rect Type="system" x="820.00" id="10975" height="5.00" width="5.00" Name="弗瑞吉" ID="30000168" Region="伏尔戈" y="200.00" /><text y="200.00" x="820.00" id="10976">弗瑞吉</text><rect Type="system" x="820.00" id="10978" height="5.00" width="5.00" Name="伊什索蒙" ID="30000165" Region="伏尔戈" y="300.00" /><text y="300.00" x="820.00" id="10979">伊什索蒙</text><rect Type="system" x="820.00" id="10981" height="5.00" width="5.00" Name="欧罗" ID="30000158" Region="伏尔戈" y="350.00" /><text y="350.00" x="820.00" id="10982">欧罗</text><rect Type="system" x="820.94" id="10984" height="5.00" width="5.00" Name="爱科拉" ID="30000163" Region="伏尔戈" y="576.23" /><text y="576.23" x="820.94" id="10985">爱科拉</text><rect Type="system" x="820.00" id="10987" height="5.00" width="5.00" Name="夫斯库仑" ID="30000199" Region="伏尔戈" y="720.00" /><text y="720.00" x="820.00" id="10988">夫斯库仑</text><rect Type="system" x="840.00" id="10990" height="5.00" width="5.00" Name="欧斯蒙" ID="30000180" Region="伏尔戈" y="400.00" /><text y="400.00" x="840.00" id="10991">欧斯蒙</text><rect Type="system" x="850.00" id="10993" height="5.00" width="5.00" Name="库尔斯基" ID="30000181" Region="伏尔戈" y="450.00" /><text y="450.00" x="850.00" id="10994">库尔斯基</text><rect Type="system" x="821.91" id="10996" height="5.00" width="5.00" Name="艾拉肯" ID="30000185" Region="伏尔戈" y="499.04" /><text y="499.04" x="821.91" id="10997">艾拉肯</text><rect Type="system" x="860.00" id="10999" height="5.00" width="5.00" Name="欧加仑" ID="30000186" Region="伏尔戈" y="540.00" /><text y="540.00" x="860.00" id="11000">欧加仑</text><rect Type="system" x="850.00" id="11002" height="5.00" width="5.00" Name="萨基凯伦" ID="30000167" Region="伏尔戈" y="250.00" /><text y="250.00" x="850.00" id="11003">萨基凯伦</text><rect Type="system" x="850.00" id="11005" height="5.00" width="5.00" Name="欧塔迈伦" ID="30000172" Region="伏尔戈" y="100.00" /><text y="100.00" x="850.00" id="11006">欧塔迈伦</text><rect Type="system" x="880.00" id="11008" height="5.00" width="5.00" Name="因纳亚" ID="30000182" Region="伏尔戈" y="370.00" /><text y="370.00" x="880.00" id="11009">因纳亚</text><rect Type="system" x="900.00" id="11011" height="5.00" width="5.00" Name="鲁肯" ID="30000183" Region="伏尔戈" y="450.00" /><text y="450.00" x="900.00" id="11012">鲁肯</text><rect Type="system" x="900.00" id="11014" height="5.00" width="5.00" Name="欧提托" ID="30000171" Region="伏尔戈" y="150.00" /><text y="150.00" x="900.00" id="11015">欧提托</text><rect Type="system" x="920.00" id="11017" height="5.00" width="5.00" Name="乌欧斯" ID="30000187" Region="伏尔戈" y="320.00" /><text y="320.00" x="920.00" id="11018">乌欧斯</text><rect Type="system" x="920.00" id="11020" height="5.00" width="5.00" Name="瓦胡诺米" ID="30000170" Region="伏尔戈" y="250.00" /><text y="250.00" x="920.00" id="11021">瓦胡诺米</text><rect Type="system" x="950.00" id="11023" height="5.00" width="5.00" Name="乌米纳斯" ID="30000184" Region="伏尔戈" y="380.00" /><text y="380.00" x="950.00" id="11024">乌米纳斯</text><rect Type="system" x="50.00" id="11026" height="5.00" width="5.00" Name="库索蒙莫" ID="30002802" Region="赛塔德洱" y="480.00" /><text y="480.00" x="50.00" id="11027">库索蒙莫</text><rect Type="system" x="50.00" id="11029" height="5.00" width="5.00" Name="伊恩-奥斯塔" ID="30002642" Region="金纳泽" y="400.00" /><text y="400.00" x="50.00" id="11030">伊恩-奥斯塔</text><rect Type="system" x="60.00" id="11032" height="5.00" width="5.00" Name="希尔帕拉" ID="30002791" Region="赛塔德洱" y="620.00" /><text y="620.00" x="60.00" id="11033">希尔帕拉</text><rect Type="system" x="60.00" id="11035" height="5.00" width="5.00" Name="吞塔拉斯" ID="30001379" Region="长征" y="320.00" /><text y="320.00" x="60.00" id="11036">吞塔拉斯</text><rect Type="system" x="150.00" id="11038" height="5.00" width="5.00" Name="哈克农" ID="30001448" Region="长征" y="90.00" /><text y="90.00" x="150.00" id="11039">哈克农</text><rect Type="system" x="120.00" id="11041" height="5.00" width="5.00" Name="伊纳洛" ID="30002788" Region="赛塔德洱" y="720.00" /><text y="720.00" x="120.00" id="11042">伊纳洛</text><rect Type="system" x="200.00" id="11044" height="5.00" width="5.00" Name="P3EN-E" ID="30000250" Region="静寂谷" y="40.00" /><text y="40.00" x="200.00" id="11045">P3EN-E</text><rect Type="system" x="350.00" id="11047" height="5.00" width="5.00" Name="莫卡冷" ID="30001393" Region="长征" y="300.00" /><text y="300.00" x="350.00" id="11048">莫卡冷</text><rect Type="system" x="340.00" id="11050" height="5.00" width="5.00" Name="姆沃莱伦" ID="30002780" Region="赛塔德洱" y="400.00" /><text y="400.00" x="340.00" id="11051">姆沃莱伦</text><rect Type="system" x="350.00" id="11053" height="5.00" width="5.00" Name="阿里卡拉" ID="30002754" Region="赛塔德洱" y="250.00" /><text y="250.00" x="350.00" id="11054">阿里卡拉</text><rect Type="system" x="350.00" id="11056" height="5.00" width="5.00" Name="索巴色基" ID="30001363" Region="长征" y="350.00" /><text y="350.00" x="350.00" id="11057">索巴色基</text><rect Type="system" x="620.00" id="11059" height="5.00" width="5.00" Name="EOA-ZC" ID="30002475" Region="对舞之域" y="580.00" /><text y="580.00" x="620.00" id="11060">EOA-ZC</text><rect Type="system" x="580.00" id="11062" height="5.00" width="5.00" Name="托蒂弗伦" ID="30002062" Region="美特伯里斯" y="630.00" /><text y="630.00" x="580.00" id="11063">托蒂弗伦</text><rect Type="system" x="610.00" id="11065" height="5.00" width="5.00" Name="LXQ2-T" ID="30002355" Region="琉蓝之穹" y="740.00" /><text y="740.00" x="610.00" id="11066">LXQ2-T</text><rect Type="system" x="900.00" id="11068" height="5.00" width="5.00" Name="欧法戈" ID="30003446" Region="美特伯里斯" y="720.00" /><text y="720.00" x="900.00" id="11069">欧法戈</text><rect Type="system" x="920.00" id="11071" height="5.00" width="5.00" Name="BWF-ZZ" ID="30002440" Region="对舞之域" y="570.00" /><text y="570.00" x="920.00" id="11072">BWF-ZZ</text><line style="stroke:blue;fill:blue;" id="11074" x2="80.00" x1="17.68" y1="152.32" y2="200.00" /><line style="stroke:blue;fill:blue;" id="11075" x2="100.00" x1="17.68" y1="152.32" y2="150.00" /><line style="stroke:blue;fill:blue;" id="11076" x2="52.32" x1="17.68" y1="152.32" y2="117.68" /><line style="stroke:blue;fill:blue;" id="11077" x2="17.68" x1="52.32" y1="117.68" y2="152.32" /><line style="stroke:blue;fill:blue;" id="11078" x2="100.00" x1="52.32" y1="117.68" y2="150.00" /><line style="stroke:blue;fill:blue;" id="11079" x2="100.00" x1="80.00" y1="200.00" y2="250.00" /><line style="stroke:blue;fill:blue;" id="11080" x2="17.68" x1="80.00" y1="200.00" y2="152.32" /><line style="stroke:blue;fill:blue;" id="11081" x2="100.00" x1="80.00" y1="200.00" y2="150.00" /><line style="stroke:blue;fill:blue;" id="11082" x2="20.00" x1="80.00" y1="200.00" y2="220.00" /><line style="stroke:blue;fill:blue;" id="11083" x2="180.00" x1="100.00" y1="250.00" y2="280.00" /><line style="stroke:blue;fill:blue;" id="11084" x2="80.00" x1="100.00" y1="250.00" y2="200.00" /><line style="stroke:blue;fill:blue;" id="11085" x2="120.00" x1="100.00" y1="250.00" y2="300.00" /><line style="stroke:blue;fill:blue;" id="11086" x2="80.00" x1="100.00" y1="150.00" y2="200.00" /><line style="stroke:blue;fill:blue;" id="11087" x2="17.68" x1="100.00" y1="150.00" y2="152.32" /><line style="stroke:blue;fill:blue;" id="11088" x2="52.32" x1="100.00" y1="150.00" y2="117.68" /><line style="stroke:blue;fill:blue;" id="11089" x2="100.00" x1="120.00" y1="300.00" y2="250.00" /><line style="stroke:blue;fill:blue;" id="11090" x2="180.00" x1="120.00" y1="300.00" y2="280.00" /><line style="stroke:blue;fill:blue;" id="11091" x2="250.00" x1="120.00" y1="300.00" y2="350.00" /><line style="stroke:blue;fill:blue;" id="11092" x2="60.00" x1="120.00" y1="300.00" y2="320.00" /><line style="stroke:blue;fill:blue;" id="11093" x2="150.00" x1="120.00" y1="500.00" y2="600.00" /><line style="stroke:blue;fill:blue;" id="11094" x2="200.00" x1="120.00" y1="500.00" y2="500.00" /><line style="stroke:blue;fill:blue;" id="11095" x2="180.00" x1="120.00" y1="500.00" y2="400.00" /><line style="stroke:blue;fill:blue;" id="11096" x2="60.00" x1="120.00" y1="500.00" y2="620.00" /><line style="stroke:blue;fill:blue;" id="11097" x2="50.00" x1="120.00" y1="500.00" y2="480.00" /><line style="stroke:blue;fill:blue;" id="11098" x2="100.00" x1="180.00" y1="280.00" y2="250.00" /><line style="stroke:blue;fill:blue;" id="11099" x2="120.00" x1="180.00" y1="280.00" y2="300.00" /><line style="stroke:blue;fill:blue;" id="11100" x2="250.00" x1="180.00" y1="280.00" y2="300.00" /><line style="stroke:blue;fill:blue;" id="11101" x2="180.00" x1="180.00" y1="280.00" y2="220.00" /><line style="stroke:blue;fill:blue;" id="11102" x2="220.00" x1="150.00" y1="600.00" y2="650.00" /><line style="stroke:blue;fill:blue;" id="11103" x2="120.00" x1="150.00" y1="600.00" y2="500.00" /><line style="stroke:blue;fill:blue;" id="11104" x2="220.00" x1="150.00" y1="600.00" y2="550.00" /><line style="stroke:blue;fill:blue;" id="11105" x2="180.00" x1="180.00" y1="220.00" y2="280.00" /><line style="stroke:blue;fill:blue;" id="11106" x2="120.00" x1="180.00" y1="400.00" y2="500.00" /><line style="stroke:blue;fill:blue;" id="11107" x2="250.00" x1="180.00" y1="400.00" y2="400.00" /><line style="stroke:blue;fill:blue;" id="11108" x2="250.00" x1="180.00" y1="400.00" y2="350.00" /><line style="stroke:blue;fill:blue;" id="11109" x2="180.00" x1="180.00" y1="400.00" y2="350.00" /><line style="stroke:blue;fill:blue;" id="11110" x2="50.00" x1="180.00" y1="400.00" y2="400.00" /><line style="stroke:blue;fill:blue;" id="11111" x2="250.00" x1="180.00" y1="350.00" y2="350.00" /><line style="stroke:blue;fill:blue;" id="11112" x2="180.00" x1="180.00" y1="350.00" y2="400.00" /><line style="stroke:blue;fill:blue;" id="11113" x2="250.00" x1="180.00" y1="350.00" y2="300.00" /><line style="stroke:blue;fill:blue;" id="11114" x2="60.00" x1="180.00" y1="350.00" y2="320.00" /><line style="stroke:blue;fill:blue;" id="11115" x2="270.00" x1="200.00" y1="90.00" y2="90.00" /><line style="stroke:blue;fill:blue;" id="11116" x2="200.00" x1="200.00" y1="90.00" y2="40.00" /><line style="stroke:blue;fill:blue;" id="11117" x2="150.00" x1="200.00" y1="90.00" y2="90.00" /><line style="stroke:blue;fill:blue;" id="11118" x2="120.00" x1="200.00" y1="500.00" y2="500.00" /><line style="stroke:blue;fill:blue;" id="11119" x2="150.00" x1="220.00" y1="550.00" y2="600.00" /><line style="stroke:blue;fill:blue;" id="11120" x2="350.00" x1="220.00" y1="650.00" y2="650.00" /><line style="stroke:blue;fill:blue;" id="11121" x2="150.00" x1="220.00" y1="650.00" y2="600.00" /><line style="stroke:blue;fill:blue;" id="11122" x2="120.00" x1="250.00" y1="350.00" y2="300.00" /><line style="stroke:blue;fill:blue;" id="11123" x2="250.00" x1="250.00" y1="350.00" y2="400.00" /><line style="stroke:blue;fill:blue;" id="11124" x2="180.00" x1="250.00" y1="350.00" y2="350.00" /><line style="stroke:blue;fill:blue;" id="11125" x2="180.00" x1="250.00" y1="350.00" y2="400.00" /><line style="stroke:blue;fill:blue;" id="11126" x2="250.00" x1="250.00" y1="350.00" y2="300.00" /><line style="stroke:blue;fill:blue;" id="11127" x2="350.00" x1="250.00" y1="350.00" y2="350.00" /><line style="stroke:blue;fill:blue;" id="11128" x2="340.00" x1="250.00" y1="350.00" y2="400.00" /><line style="stroke:blue;fill:blue;" id="11129" x2="350.00" x1="270.00" y1="90.00" y2="90.00" /><line style="stroke:blue;fill:blue;" id="11130" x2="200.00" x1="270.00" y1="90.00" y2="90.00" /><line style="stroke:blue;fill:blue;" id="11131" x2="180.00" x1="250.00" y1="300.00" y2="280.00" /><line style="stroke:blue;fill:blue;" id="11132" x2="250.00" x1="250.00" y1="300.00" y2="350.00" /><line style="stroke:blue;fill:blue;" id="11133" x2="180.00" x1="250.00" y1="300.00" y2="350.00" /><line style="stroke:blue;fill:blue;" id="11134" x2="600.00" x1="250.00" y1="300.00" y2="300.00" /><line style="stroke:blue;fill:blue;" id="11135" x2="350.00" x1="250.00" y1="300.00" y2="300.00" /><line style="stroke:blue;fill:blue;" id="11136" x2="350.00" x1="250.00" y1="300.00" y2="250.00" /><line style="stroke:blue;fill:blue;" id="11137" x2="324.50" x1="250.00" y1="400.00" y2="450.00" /><line style="stroke:blue;fill:blue;" id="11138" x2="250.00" x1="250.00" y1="400.00" y2="350.00" /><line style="stroke:blue;fill:blue;" id="11139" x2="180.00" x1="250.00" y1="400.00" y2="400.00" /><line style="stroke:blue;fill:blue;" id="11140" x2="340.00" x1="250.00" y1="400.00" y2="400.00" /><line style="stroke:blue;fill:blue;" id="11141" x2="324.50" x1="275.50" y1="450.00" y2="450.00" /><line style="stroke:blue;fill:blue;" id="11142" x2="324.50" x1="300.00" y1="500.00" y2="450.00" /><line style="stroke:blue;fill:blue;" id="11143" x2="80.00" x1="20.00" y1="220.00" y2="200.00" /><line style="stroke:blue;fill:blue;" id="11144" x2="350.00" x1="300.00" y1="700.00" y2="650.00" /><line style="stroke:blue;fill:blue;" id="11145" x2="120.00" x1="300.00" y1="700.00" y2="720.00" /><line style="stroke:blue;fill:blue;" id="11146" x2="350.00" x1="350.00" y1="90.00" y2="140.00" /><line style="stroke:blue;fill:blue;" id="11147" x2="400.00" x1="350.00" y1="90.00" y2="70.00" /><line style="stroke:blue;fill:blue;" id="11148" x2="270.00" x1="350.00" y1="90.00" y2="90.00" /><line style="stroke:blue;fill:blue;" id="11149" x2="450.00" x1="350.00" y1="90.00" y2="90.00" /><line style="stroke:blue;fill:blue;" id="11150" x2="470.00" x1="350.00" y1="140.00" y2="140.00" /><line style="stroke:blue;fill:blue;" id="11151" x2="350.00" x1="350.00" y1="140.00" y2="90.00" /><line style="stroke:blue;fill:blue;" id="11152" x2="350.00" x1="324.50" y1="450.00" y2="500.00" /><line style="stroke:blue;fill:blue;" id="11153" x2="275.50" x1="324.50" y1="450.00" y2="450.00" /><line style="stroke:blue;fill:blue;" id="11154" x2="300.00" x1="324.50" y1="450.00" y2="500.00" /><line style="stroke:blue;fill:blue;" id="11155" x2="380.00" x1="324.50" y1="450.00" y2="430.00" /><line style="stroke:blue;fill:blue;" id="11156" x2="400.00" x1="324.50" y1="450.00" y2="480.00" /><line style="stroke:blue;fill:blue;" id="11157" x2="250.00" x1="324.50" y1="450.00" y2="400.00" /><line style="stroke:blue;fill:blue;" id="11158" x2="450.00" x1="350.00" y1="650.00" y2="650.00" /><line style="stroke:blue;fill:blue;" id="11159" x2="300.00" x1="350.00" y1="650.00" y2="700.00" /><line style="stroke:blue;fill:blue;" id="11160" x2="220.00" x1="350.00" y1="650.00" y2="650.00" /><line style="stroke:blue;fill:blue;" id="11161" x2="420.00" x1="350.00" y1="200.00" y2="220.00" /><line style="stroke:blue;fill:blue;" id="11162" x2="324.50" x1="350.00" y1="500.00" y2="450.00" /><line style="stroke:blue;fill:blue;" id="11163" x2="400.00" x1="350.00" y1="500.00" y2="550.00" /><line style="stroke:blue;fill:blue;" id="11164" x2="350.00" x1="400.00" y1="70.00" y2="90.00" /><line style="stroke:blue;fill:blue;" id="11165" x2="450.00" x1="400.00" y1="70.00" y2="90.00" /><line style="stroke:blue;fill:blue;" id="11166" x2="324.50" x1="380.00" y1="430.00" y2="450.00" /><line style="stroke:blue;fill:blue;" id="11167" x2="350.00" x1="400.00" y1="550.00" y2="500.00" /><line style="stroke:blue;fill:blue;" id="11168" x2="324.50" x1="400.00" y1="480.00" y2="450.00" /><line style="stroke:blue;fill:blue;" id="11169" x2="350.00" x1="450.00" y1="90.00" y2="90.00" /><line style="stroke:blue;fill:blue;" id="11170" x2="400.00" x1="450.00" y1="90.00" y2="70.00" /><line style="stroke:blue;fill:blue;" id="11171" x2="500.00" x1="420.00" y1="220.00" y2="250.00" /><line style="stroke:blue;fill:blue;" id="11172" x2="350.00" x1="420.00" y1="220.00" y2="200.00" /><line style="stroke:blue;fill:blue;" id="11173" x2="520.00" x1="470.00" y1="140.00" y2="120.00" /><line style="stroke:blue;fill:blue;" id="11174" x2="350.00" x1="470.00" y1="140.00" y2="140.00" /><line style="stroke:blue;fill:blue;" id="11175" x2="350.00" x1="450.00" y1="650.00" y2="650.00" /><line style="stroke:blue;fill:blue;" id="11176" x2="510.00" x1="450.00" y1="650.00" y2="650.00" /><line style="stroke:blue;fill:blue;" id="11177" x2="480.00" x1="480.00" y1="475.50" y2="524.50" /><line style="stroke:blue;fill:blue;" id="11178" x2="500.00" x1="480.00" y1="475.50" y2="424.50" /><line style="stroke:blue;fill:blue;" id="11179" x2="550.00" x1="480.00" y1="475.50" y2="450.00" /><line style="stroke:blue;fill:blue;" id="11180" x2="510.00" x1="480.00" y1="524.50" y2="650.00" /><line style="stroke:blue;fill:blue;" id="11181" x2="550.00" x1="480.00" y1="524.50" y2="550.00" /><line style="stroke:blue;fill:blue;" id="11182" x2="480.00" x1="480.00" y1="524.50" y2="475.50" /><line style="stroke:blue;fill:blue;" id="11183" x2="480.00" x1="500.00" y1="424.50" y2="475.50" /><line style="stroke:blue;fill:blue;" id="11184" x2="500.00" x1="500.00" y1="424.50" y2="375.50" /><line style="stroke:blue;fill:blue;" id="11185" x2="547.68" x1="500.00" y1="250.00" y2="282.32" /><line style="stroke:blue;fill:blue;" id="11186" x2="420.00" x1="500.00" y1="250.00" y2="220.00" /><line style="stroke:blue;fill:blue;" id="11187" x2="582.32" x1="500.00" y1="250.00" y2="247.68" /><line style="stroke:blue;fill:blue;" id="11188" x2="500.00" x1="500.00" y1="375.50" y2="424.50" /><line style="stroke:blue;fill:blue;" id="11189" x2="547.68" x1="500.00" y1="375.50" y2="282.32" /><line style="stroke:blue;fill:blue;" id="11190" x2="600.00" x1="520.00" y1="120.00" y2="150.00" /><line style="stroke:blue;fill:blue;" id="11191" x2="600.00" x1="520.00" y1="120.00" y2="100.00" /><line style="stroke:blue;fill:blue;" id="11192" x2="470.00" x1="520.00" y1="120.00" y2="140.00" /><line style="stroke:blue;fill:blue;" id="11193" x2="680.00" x1="520.00" y1="120.00" y2="120.00" /><line style="stroke:blue;fill:blue;" id="11194" x2="450.00" x1="510.00" y1="650.00" y2="650.00" /><line style="stroke:blue;fill:blue;" id="11195" x2="480.00" x1="510.00" y1="650.00" y2="524.50" /><line style="stroke:blue;fill:blue;" id="11196" x2="700.00" x1="510.00" y1="650.00" y2="400.00" /><line style="stroke:blue;fill:blue;" id="11197" x2="480.00" x1="550.00" y1="550.00" y2="524.50" /><line style="stroke:blue;fill:blue;" id="11198" x2="580.00" x1="550.00" y1="550.00" y2="500.00" /><line style="stroke:blue;fill:blue;" id="11199" x2="480.00" x1="550.00" y1="450.00" y2="475.50" /><line style="stroke:blue;fill:blue;" id="11200" x2="580.00" x1="550.00" y1="450.00" y2="500.00" /><line style="stroke:blue;fill:blue;" id="11201" x2="700.00" x1="550.00" y1="450.00" y2="500.00" /><line style="stroke:blue;fill:blue;" id="11202" x2="500.00" x1="547.68" y1="282.32" y2="375.50" /><line style="stroke:blue;fill:blue;" id="11203" x2="500.00" x1="547.68" y1="282.32" y2="250.00" /><line style="stroke:blue;fill:blue;" id="11204" x2="650.00" x1="547.68" y1="282.32" y2="250.00" /><line style="stroke:blue;fill:blue;" id="11205" x2="582.32" x1="547.68" y1="282.32" y2="247.68" /><line style="stroke:blue;fill:blue;" id="11206" x2="547.68" x1="582.32" y1="247.68" y2="282.32" /><line style="stroke:blue;fill:blue;" id="11207" x2="500.00" x1="582.32" y1="247.68" y2="250.00" /><line style="stroke:blue;fill:blue;" id="11208" x2="650.00" x1="582.32" y1="247.68" y2="250.00" /><line style="stroke:blue;fill:blue;" id="11209" x2="600.00" x1="582.32" y1="247.68" y2="200.00" /><line style="stroke:blue;fill:blue;" id="11210" x2="550.00" x1="580.00" y1="500.00" y2="550.00" /><line style="stroke:blue;fill:blue;" id="11211" x2="550.00" x1="580.00" y1="500.00" y2="450.00" /><line style="stroke:blue;fill:blue;" id="11212" x2="600.00" x1="600.00" y1="100.00" y2="150.00" /><line style="stroke:blue;fill:blue;" id="11213" x2="520.00" x1="600.00" y1="100.00" y2="120.00" /><line style="stroke:blue;fill:blue;" id="11214" x2="680.00" x1="600.00" y1="100.00" y2="120.00" /><line style="stroke:blue;fill:blue;" id="11215" x2="600.00" x1="600.00" y1="150.00" y2="200.00" /><line style="stroke:blue;fill:blue;" id="11216" x2="520.00" x1="600.00" y1="150.00" y2="120.00" /><line style="stroke:blue;fill:blue;" id="11217" x2="600.00" x1="600.00" y1="150.00" y2="100.00" /><line style="stroke:blue;fill:blue;" id="11218" x2="680.00" x1="600.00" y1="150.00" y2="120.00" /><line style="stroke:blue;fill:blue;" id="11219" x2="582.32" x1="600.00" y1="200.00" y2="247.68" /><line style="stroke:blue;fill:blue;" id="11220" x2="600.00" x1="600.00" y1="200.00" y2="150.00" /><line style="stroke:blue;fill:blue;" id="11221" x2="680.00" x1="600.00" y1="200.00" y2="120.00" /><line style="stroke:blue;fill:blue;" id="11222" x2="250.00" x1="600.00" y1="300.00" y2="300.00" /><line style="stroke:blue;fill:blue;" id="11223" x2="700.00" x1="600.00" y1="300.00" y2="400.00" /><line style="stroke:blue;fill:blue;" id="11224" x2="680.00" x1="600.00" y1="300.00" y2="320.00" /><line style="stroke:blue;fill:blue;" id="11225" x2="700.96" x1="650.00" y1="630.00" y2="678.09" /><line style="stroke:blue;fill:blue;" id="11226" x2="580.00" x1="650.00" y1="630.00" y2="630.00" /><line style="stroke:blue;fill:blue;" id="11227" x2="620.00" x1="650.00" y1="630.00" y2="580.00" /><line style="stroke:blue;fill:blue;" id="11228" x2="547.68" x1="650.00" y1="250.00" y2="282.32" /><line style="stroke:blue;fill:blue;" id="11229" x2="582.32" x1="650.00" y1="250.00" y2="247.68" /><line style="stroke:blue;fill:blue;" id="11230" x2="720.00" x1="650.00" y1="250.00" y2="280.00" /><line style="stroke:blue;fill:blue;" id="11231" x2="800.00" x1="680.00" y1="120.00" y2="150.00" /><line style="stroke:blue;fill:blue;" id="11232" x2="600.00" x1="680.00" y1="120.00" y2="200.00" /><line style="stroke:blue;fill:blue;" id="11233" x2="600.00" x1="680.00" y1="120.00" y2="150.00" /><line style="stroke:blue;fill:blue;" id="11234" x2="520.00" x1="680.00" y1="120.00" y2="120.00" /><line style="stroke:blue;fill:blue;" id="11235" x2="600.00" x1="680.00" y1="120.00" y2="100.00" /><line style="stroke:blue;fill:blue;" id="11236" x2="700.00" x1="680.00" y1="320.00" y2="400.00" /><line style="stroke:blue;fill:blue;" id="11237" x2="750.00" x1="680.00" y1="320.00" y2="350.00" /><line style="stroke:blue;fill:blue;" id="11238" x2="600.00" x1="680.00" y1="320.00" y2="300.00" /><line style="stroke:blue;fill:blue;" id="11239" x2="749.04" x1="679.04" y1="721.91" y2="701.91" /><line style="stroke:blue;fill:blue;" id="11240" x2="610.00" x1="679.04" y1="721.91" y2="740.00" /><line style="stroke:blue;fill:blue;" id="11241" x2="700.00" x1="700.00" y1="550.00" y2="500.00" /><line style="stroke:blue;fill:blue;" id="11242" x2="778.09" x1="700.00" y1="550.00" y2="520.96" /><line style="stroke:blue;fill:blue;" id="11243" x2="750.00" x1="700.00" y1="550.00" y2="600.00" /><line style="stroke:blue;fill:blue;" id="11244" x2="510.00" x1="700.00" y1="400.00" y2="650.00" /><line style="stroke:blue;fill:blue;" id="11245" x2="680.00" x1="700.00" y1="400.00" y2="320.00" /><line style="stroke:blue;fill:blue;" id="11246" x2="750.00" x1="700.00" y1="400.00" y2="350.00" /><line style="stroke:blue;fill:blue;" id="11247" x2="600.00" x1="700.00" y1="400.00" y2="300.00" /><line style="stroke:blue;fill:blue;" id="11248" x2="550.00" x1="700.00" y1="500.00" y2="450.00" /><line style="stroke:blue;fill:blue;" id="11249" x2="778.09" x1="700.00" y1="500.00" y2="520.96" /><line style="stroke:blue;fill:blue;" id="11250" x2="700.00" x1="700.00" y1="500.00" y2="550.00" /><line style="stroke:blue;fill:blue;" id="11251" x2="770.96" x1="700.96" y1="678.09" y2="658.09" /><line style="stroke:blue;fill:blue;" id="11252" x2="749.04" x1="700.96" y1="678.09" y2="701.91" /><line style="stroke:blue;fill:blue;" id="11253" x2="650.00" x1="700.96" y1="678.09" y2="630.00" /><line style="stroke:blue;fill:blue;" id="11254" x2="650.00" x1="720.00" y1="280.00" y2="250.00" /><line style="stroke:blue;fill:blue;" id="11255" x2="700.00" x1="750.00" y1="600.00" y2="550.00" /><line style="stroke:blue;fill:blue;" id="11256" x2="820.94" x1="750.00" y1="600.00" y2="576.23" /><line style="stroke:blue;fill:blue;" id="11257" x2="700.00" x1="750.00" y1="350.00" y2="400.00" /><line style="stroke:blue;fill:blue;" id="11258" x2="680.00" x1="750.00" y1="350.00" y2="320.00" /><line style="stroke:blue;fill:blue;" id="11259" x2="820.00" x1="750.00" y1="350.00" y2="350.00" /><line style="stroke:blue;fill:blue;" id="11260" x2="700.96" x1="749.04" y1="701.91" y2="678.09" /><line style="stroke:blue;fill:blue;" id="11261" x2="679.04" x1="749.04" y1="701.91" y2="721.91" /><line style="stroke:blue;fill:blue;" id="11262" x2="820.00" x1="749.04" y1="701.91" y2="720.00" /><line style="stroke:blue;fill:blue;" id="11263" x2="700.00" x1="778.09" y1="520.96" y2="500.00" /><line style="stroke:blue;fill:blue;" id="11264" x2="700.00" x1="778.09" y1="520.96" y2="550.00" /><line style="stroke:blue;fill:blue;" id="11265" x2="820.94" x1="778.09" y1="520.96" y2="576.23" /><line style="stroke:blue;fill:blue;" id="11266" x2="809.06" x1="770.96" y1="658.09" y2="623.77" /><line style="stroke:blue;fill:blue;" id="11267" x2="700.96" x1="770.96" y1="658.09" y2="678.09" /><line style="stroke:blue;fill:blue;" id="11268" x2="820.00" x1="780.00" y1="250.00" y2="300.00" /><line style="stroke:blue;fill:blue;" id="11269" x2="850.00" x1="780.00" y1="250.00" y2="250.00" /><line style="stroke:blue;fill:blue;" id="11270" x2="820.00" x1="780.00" y1="250.00" y2="200.00" /><line style="stroke:blue;fill:blue;" id="11271" x2="820.00" x1="800.00" y1="150.00" y2="200.00" /><line style="stroke:blue;fill:blue;" id="11272" x2="900.00" x1="800.00" y1="150.00" y2="150.00" /><line style="stroke:blue;fill:blue;" id="11273" x2="850.00" x1="800.00" y1="150.00" y2="100.00" /><line style="stroke:blue;fill:blue;" id="11274" x2="680.00" x1="800.00" y1="150.00" y2="120.00" /><line style="stroke:blue;fill:blue;" id="11275" x2="820.94" x1="809.06" y1="623.77" y2="576.23" /><line style="stroke:blue;fill:blue;" id="11276" x2="770.96" x1="809.06" y1="623.77" y2="658.09" /><line style="stroke:blue;fill:blue;" id="11277" x2="780.00" x1="820.00" y1="200.00" y2="250.00" /><line style="stroke:blue;fill:blue;" id="11278" x2="850.00" x1="820.00" y1="200.00" y2="250.00" /><line style="stroke:blue;fill:blue;" id="11279" x2="800.00" x1="820.00" y1="200.00" y2="150.00" /><line style="stroke:blue;fill:blue;" id="11280" x2="900.00" x1="820.00" y1="200.00" y2="150.00" /><line style="stroke:blue;fill:blue;" id="11281" x2="820.00" x1="820.00" y1="300.00" y2="350.00" /><line style="stroke:blue;fill:blue;" id="11282" x2="780.00" x1="820.00" y1="300.00" y2="250.00" /><line style="stroke:blue;fill:blue;" id="11283" x2="850.00" x1="820.00" y1="300.00" y2="250.00" /><line style="stroke:blue;fill:blue;" id="11284" x2="750.00" x1="820.00" y1="350.00" y2="350.00" /><line style="stroke:blue;fill:blue;" id="11285" x2="820.00" x1="820.00" y1="350.00" y2="300.00" /><line style="stroke:blue;fill:blue;" id="11286" x2="840.00" x1="820.00" y1="350.00" y2="400.00" /><line style="stroke:blue;fill:blue;" id="11287" x2="778.09" x1="820.94" y1="576.23" y2="520.96" /><line style="stroke:blue;fill:blue;" id="11288" x2="750.00" x1="820.94" y1="576.23" y2="600.00" /><line style="stroke:blue;fill:blue;" id="11289" x2="809.06" x1="820.94" y1="576.23" y2="623.77" /><line style="stroke:blue;fill:blue;" id="11290" x2="860.00" x1="820.94" y1="576.23" y2="540.00" /><line style="stroke:blue;fill:blue;" id="11291" x2="749.04" x1="820.00" y1="720.00" y2="701.91" /><line style="stroke:blue;fill:blue;" id="11292" x2="900.00" x1="820.00" y1="720.00" y2="720.00" /><line style="stroke:blue;fill:blue;" id="11293" x2="820.00" x1="840.00" y1="400.00" y2="350.00" /><line style="stroke:blue;fill:blue;" id="11294" x2="850.00" x1="840.00" y1="400.00" y2="450.00" /><line style="stroke:blue;fill:blue;" id="11295" x2="880.00" x1="840.00" y1="400.00" y2="370.00" /><line style="stroke:blue;fill:blue;" id="11296" x2="840.00" x1="850.00" y1="450.00" y2="400.00" /><line style="stroke:blue;fill:blue;" id="11297" x2="900.00" x1="850.00" y1="450.00" y2="450.00" /><line style="stroke:blue;fill:blue;" id="11298" x2="821.91" x1="850.00" y1="450.00" y2="499.04" /><line style="stroke:blue;fill:blue;" id="11299" x2="850.00" x1="821.91" y1="499.04" y2="450.00" /><line style="stroke:blue;fill:blue;" id="11300" x2="860.00" x1="821.91" y1="499.04" y2="540.00" /><line style="stroke:blue;fill:blue;" id="11301" x2="820.94" x1="860.00" y1="540.00" y2="576.23" /><line style="stroke:blue;fill:blue;" id="11302" x2="821.91" x1="860.00" y1="540.00" y2="499.04" /><line style="stroke:blue;fill:blue;" id="11303" x2="920.00" x1="860.00" y1="540.00" y2="570.00" /><line style="stroke:blue;fill:blue;" id="11304" x2="820.00" x1="850.00" y1="250.00" y2="300.00" /><line style="stroke:blue;fill:blue;" id="11305" x2="780.00" x1="850.00" y1="250.00" y2="250.00" /><line style="stroke:blue;fill:blue;" id="11306" x2="820.00" x1="850.00" y1="250.00" y2="200.00" /><line style="stroke:blue;fill:blue;" id="11307" x2="920.00" x1="850.00" y1="250.00" y2="250.00" /><line style="stroke:blue;fill:blue;" id="11308" x2="800.00" x1="850.00" y1="100.00" y2="150.00" /><line style="stroke:blue;fill:blue;" id="11309" x2="840.00" x1="880.00" y1="370.00" y2="400.00" /><line style="stroke:blue;fill:blue;" id="11310" x2="950.00" x1="880.00" y1="370.00" y2="380.00" /><line style="stroke:blue;fill:blue;" id="11311" x2="920.00" x1="880.00" y1="370.00" y2="320.00" /><line style="stroke:blue;fill:blue;" id="11312" x2="850.00" x1="900.00" y1="450.00" y2="450.00" /><line style="stroke:blue;fill:blue;" id="11313" x2="820.00" x1="900.00" y1="150.00" y2="200.00" /><line style="stroke:blue;fill:blue;" id="11314" x2="800.00" x1="900.00" y1="150.00" y2="150.00" /><line style="stroke:blue;fill:blue;" id="11315" x2="880.00" x1="920.00" y1="320.00" y2="370.00" /><line style="stroke:blue;fill:blue;" id="11316" x2="850.00" x1="920.00" y1="250.00" y2="250.00" /><line style="stroke:blue;fill:blue;" id="11317" x2="880.00" x1="950.00" y1="380.00" y2="370.00" /><line style="stroke:blue;fill:blue;" id="11318" x2="120.00" x1="50.00" y1="480.00" y2="500.00" /><line style="stroke:blue;fill:blue;" id="11319" x2="180.00" x1="50.00" y1="400.00" y2="400.00" /><line style="stroke:blue;fill:blue;" id="11320" x2="120.00" x1="60.00" y1="620.00" y2="500.00" /><line style="stroke:blue;fill:blue;" id="11321" x2="120.00" x1="60.00" y1="620.00" y2="720.00" /><line style="stroke:blue;fill:blue;" id="11322" x2="120.00" x1="60.00" y1="320.00" y2="300.00" /><line style="stroke:blue;fill:blue;" id="11323" x2="180.00" x1="60.00" y1="320.00" y2="350.00" /><line style="stroke:blue;fill:blue;" id="11324" x2="200.00" x1="150.00" y1="90.00" y2="90.00" /><line style="stroke:blue;fill:blue;" id="11325" x2="300.00" x1="120.00" y1="720.00" y2="700.00" /><line style="stroke:blue;fill:blue;" id="11326" x2="60.00" x1="120.00" y1="720.00" y2="620.00" /><line style="stroke:blue;fill:blue;" id="11327" x2="200.00" x1="200.00" y1="40.00" y2="90.00" /><line style="stroke:blue;fill:blue;" id="11328" x2="250.00" x1="350.00" y1="300.00" y2="300.00" /><line style="stroke:blue;fill:blue;" id="11329" x2="350.00" x1="350.00" y1="300.00" y2="350.00" /><line style="stroke:blue;fill:blue;" id="11330" x2="250.00" x1="340.00" y1="400.00" y2="400.00" /><line style="stroke:blue;fill:blue;" id="11331" x2="250.00" x1="340.00" y1="400.00" y2="350.00" /><line style="stroke:blue;fill:blue;" id="11332" x2="250.00" x1="350.00" y1="250.00" y2="300.00" /><line style="stroke:blue;fill:blue;" id="11333" x2="250.00" x1="350.00" y1="350.00" y2="350.00" /><line style="stroke:blue;fill:blue;" id="11334" x2="350.00" x1="350.00" y1="350.00" y2="300.00" /><line style="stroke:blue;fill:blue;" id="11335" x2="650.00" x1="620.00" y1="580.00" y2="630.00" /><line style="stroke:blue;fill:blue;" id="11336" x2="650.00" x1="580.00" y1="630.00" y2="630.00" /><line style="stroke:blue;fill:blue;" id="11337" x2="679.04" x1="610.00" y1="740.00" y2="721.91" /><line style="stroke:blue;fill:blue;" id="11338" x2="820.00" x1="900.00" y1="720.00" y2="720.00" /><line style="stroke:blue;fill:blue;" id="11339" x2="860.00" x1="920.00" y1="570.00" y2="540.00" /></svg>
