<?xml version="1.0" standalone="yes"?><!DOCTYPE svg PUBLIC "-//W3C//DTD SVG 1.1//EN" "http://www.w3.org/Graphics/SVG/1.1/DTD/svg11.dtd"[]><svg height="800.00" id="16400" width="1050.00" xmlns="http://www.w3.org/2000/svg" xmlns:xlink="http://www.w3.org/1999/xlink"><rect Type="system" Region="卡勒瓦拉阔地" height="5.00" y="380.00" Name="1S-SU1" width="5.00" x="50.00" id="16401" ID="30002866" /><text x="50.00" y="380.00" id="16402">1S-SU1</text><rect Type="system" Region="对舞之域" height="5.00" y="280.00" Name="9P4O-F" width="5.00" x="50.00" id="16404" ID="30002472" /><text x="50.00" y="280.00" id="16405">9P4O-F</text><rect Type="system" Region="对舞之域" height="5.00" y="220.00" Name="Q-TBHW" width="5.00" x="50.00" id="16407" ID="30002471" /><text x="50.00" y="220.00" id="16408">Q-TBHW</text><rect Type="system" Region="卡勒瓦拉阔地" height="5.00" y="420.96" Name="LEM-I1" width="5.00" x="78.09" id="16410" ID="30002865" /><text x="78.09" y="420.96" id="16411">LEM-I1</text><rect Type="system" Region="卡勒瓦拉阔地" height="5.00" y="399.04" Name="42G-OB" width="5.00" x="121.91" id="16413" ID="30002864" /><text x="121.91" y="399.04" id="16414">42G-OB</text><rect Type="system" Region="对舞之域" height="5.00" y="100.00" Name="P-E9GN" width="5.00" x="120.00" id="16416" ID="30002467" /><text x="120.00" y="100.00" id="16417">P-E9GN</text><rect Type="system" Region="对舞之域" height="5.00" y="150.00" Name="L-TOFR" width="5.00" x="120.00" id="16419" ID="30002470" /><text x="120.00" y="150.00" id="16420">L-TOFR</text><rect Type="system" Region="卡勒瓦拉阔地" height="5.00" y="480.00" Name="ND-GL4" width="5.00" x="150.00" id="16422" ID="30002867" /><text x="150.00" y="480.00" id="16423">ND-GL4</text><rect Type="system" Region="卡勒瓦拉阔地" height="5.00" y="424.50" Name="HD-HOZ" width="5.00" x="180.00" id="16425" ID="30002863" /><text x="180.00" y="424.50" id="16426">HD-HOZ</text><rect Type="system" Region="卡勒瓦拉阔地" height="5.00" y="375.50" Name="V2-GZS" width="5.00" x="180.00" id="16428" ID="30002862" /><text x="180.00" y="375.50" id="16429">V2-GZS</text><rect Type="system" Region="卡勒瓦拉阔地" height="5.00" y="580.00" Name="K95-9I" width="5.00" x="190.00" id="16431" ID="30002873" /><text x="190.00" y="580.00" id="16432">K95-9I</text><rect Type="system" Region="卡勒瓦拉阔地" height="5.00" y="320.00" Name="G4-QU6" width="5.00" x="200.00" id="16434" ID="30002861" /><text x="200.00" y="320.00" id="16435">G4-QU6</text><rect Type="system" Region="静寂谷" height="5.00" y="100.00" Name="9-GBPD" width="5.00" x="250.00" id="16437" ID="30000318" /><text x="250.00" y="100.00" id="16438">9-GBPD</text><rect Type="system" Region="静寂谷" height="5.00" y="50.00" Name="A3-RQ3" width="5.00" x="280.00" id="16440" ID="30000317" /><text x="280.00" y="50.00" id="16441">A3-RQ3</text><rect Type="system" Region="卡勒瓦拉阔地" height="5.00" y="730.00" Name="HVGR-R" width="5.00" x="240.00" id="16443" ID="30002871" /><text x="240.00" y="730.00" id="16444">HVGR-R</text><rect Type="system" Region="卡勒瓦拉阔地" height="5.00" y="470.00" Name="GQ-7SP" width="5.00" x="270.00" id="16446" ID="30002875" /><text x="270.00" y="470.00" id="16447">GQ-7SP</text><rect Type="system" Region="卡勒瓦拉阔地" height="5.00" y="600.00" Name="M-75WN" width="5.00" x="240.00" id="16449" ID="30002869" /><text x="240.00" y="600.00" id="16450">M-75WN</text><rect Type="system" Region="卡勒瓦拉阔地" height="5.00" y="300.00" Name="Q-GICU" width="5.00" x="250.00" id="16452" ID="30002844" /><text x="250.00" y="300.00" id="16453">Q-GICU</text><rect Type="system" Region="卡勒瓦拉阔地" height="5.00" y="650.00" Name="PNFW-O" width="5.00" x="290.00" id="16455" ID="30002870" /><text x="290.00" y="650.00" id="16456">PNFW-O</text><rect Type="system" Region="静寂谷" height="5.00" y="80.00" Name="LS-JEP" width="5.00" x="320.00" id="16458" ID="30000319" /><text x="320.00" y="80.00" id="16459">LS-JEP</text><rect Type="system" Region="卡勒瓦拉阔地" height="5.00" y="490.00" Name="O9K-FT" width="5.00" x="320.00" id="16461" ID="30002879" /><text x="320.00" y="490.00" id="16462">O9K-FT</text><rect Type="system" Region="卡勒瓦拉阔地" height="5.00" y="375.50" Name="R1O-GN" width="5.00" x="320.00" id="16464" ID="30002874" /><text x="320.00" y="375.50" id="16465">R1O-GN</text><rect Type="system" Region="卡勒瓦拉阔地" height="5.00" y="424.50" Name="BGMZ-0" width="5.00" x="320.00" id="16467" ID="30002876" /><text x="320.00" y="424.50" id="16468">BGMZ-0</text><rect Type="system" Region="卡勒瓦拉阔地" height="5.00" y="280.00" Name="TA9T-P" width="5.00" x="350.00" id="16470" ID="30002841" /><text x="350.00" y="280.00" id="16471">TA9T-P</text><rect Type="system" Region="卡勒瓦拉阔地" height="5.00" y="620.00" Name="K76A-3" width="5.00" x="340.00" id="16473" ID="30002872" /><text x="340.00" y="620.00" id="16474">K76A-3</text><rect Type="system" Region="卡勒瓦拉阔地" height="5.00" y="200.00" Name="EPCD-D" width="5.00" x="350.00" id="16476" ID="30002845" /><text x="350.00" y="200.00" id="16477">EPCD-D</text><rect Type="system" Region="卡勒瓦拉阔地" height="5.00" y="420.00" Name="I2D3-5" width="5.00" x="400.00" id="16479" ID="30002877" /><text x="400.00" y="420.00" id="16480">I2D3-5</text><rect Type="system" Region="卡勒瓦拉阔地" height="5.00" y="350.00" Name="RQOO-U" width="5.00" x="400.00" id="16482" ID="30002880" /><text x="400.00" y="350.00" id="16483">RQOO-U</text><rect Type="system" Region="卡勒瓦拉阔地" height="5.00" y="280.00" Name="RAI-0E" width="5.00" x="400.00" id="16485" ID="30002839" /><text x="400.00" y="280.00" id="16486">RAI-0E</text><rect Type="system" Region="卡勒瓦拉阔地" height="5.00" y="480.00" Name="FZX-PU" width="5.00" x="400.00" id="16488" ID="30002878" /><text x="400.00" y="480.00" id="16489">FZX-PU</text><rect Type="system" Region="卡勒瓦拉阔地" height="5.00" y="220.00" Name="L-TLFU" width="5.00" x="420.00" id="16491" ID="30002842" /><text x="420.00" y="220.00" id="16492">L-TLFU</text><rect Type="system" Region="卡勒瓦拉阔地" height="5.00" y="50.00" Name="UDVW-O" width="5.00" x="420.00" id="16494" ID="30002825" /><text x="420.00" y="50.00" id="16495">UDVW-O</text><rect Type="system" Region="卡勒瓦拉阔地" height="5.00" y="600.00" Name="9-0QB7" width="5.00" x="440.00" id="16497" ID="30002868" /><text x="440.00" y="600.00" id="16498">9-0QB7</text><rect Type="system" Region="卡勒瓦拉阔地" height="5.00" y="280.00" Name="MN9P-A" width="5.00" x="480.00" id="16500" ID="30002840" /><text x="480.00" y="280.00" id="16501">MN9P-A</text><rect Type="system" Region="卡勒瓦拉阔地" height="5.00" y="120.00" Name="JT2I-7" width="5.00" x="480.00" id="16503" ID="30002821" /><text x="480.00" y="120.00" id="16504">JT2I-7</text><rect Type="system" Region="卡勒瓦拉阔地" height="5.00" y="221.91" Name="BM-VYZ" width="5.00" x="499.04" id="16506" ID="30002843" /><text x="499.04" y="221.91" id="16507">BM-VYZ</text><rect Type="system" Region="卡勒瓦拉阔地" height="5.00" y="178.09" Name="LE-67X" width="5.00" x="520.96" id="16509" ID="30002849" /><text x="520.96" y="178.09" id="16510">LE-67X</text><rect Type="system" Region="卡勒瓦拉阔地" height="5.00" y="40.00" Name="UJXC-B" width="5.00" x="520.00" id="16512" ID="30002824" /><text x="520.00" y="40.00" id="16513">UJXC-B</text><rect Type="system" Region="卡勒瓦拉阔地" height="5.00" y="600.00" Name="H7S-5I" width="5.00" x="520.00" id="16515" ID="30002857" /><text x="520.00" y="600.00" id="16516">H7S-5I</text><rect Type="system" Region="卡勒瓦拉阔地" height="5.00" y="80.00" Name="1-KCSA" width="5.00" x="560.00" id="16518" ID="30002823" /><text x="560.00" y="80.00" id="16519">1-KCSA</text><rect Type="system" Region="卡勒瓦拉阔地" height="5.00" y="130.00" Name="XTJ-5Q" width="5.00" x="550.00" id="16521" ID="30002822" /><text x="550.00" y="130.00" id="16522">XTJ-5Q</text><rect Type="system" Region="卡勒瓦拉阔地" height="5.00" y="300.00" Name="74-DRC" width="5.00" x="550.00" id="16524" ID="30002848" /><text x="550.00" y="300.00" id="16525">74-DRC</text><rect Type="system" Region="卡勒瓦拉阔地" height="5.00" y="170.00" Name="N-JK02" width="5.00" x="580.00" id="16527" ID="30002820" /><text x="580.00" y="170.00" id="16528">N-JK02</text><rect Type="system" Region="卡勒瓦拉阔地" height="5.00" y="220.96" Name="L-GY1B" width="5.00" x="578.09" id="16530" ID="30002847" /><text x="578.09" y="220.96" id="16531">L-GY1B</text><rect Type="system" Region="卡勒瓦拉阔地" height="5.00" y="520.00" Name="6FS-CZ" width="5.00" x="600.00" id="16533" ID="30002855" /><text x="600.00" y="520.00" id="16534">6FS-CZ</text><rect Type="system" Region="卡勒瓦拉阔地" height="5.00" y="50.00" Name="F48K-D" width="5.00" x="600.00" id="16536" ID="30002826" /><text x="600.00" y="50.00" id="16537">F48K-D</text><rect Type="system" Region="卡勒瓦拉阔地" height="5.00" y="700.00" Name="AU2V-J" width="5.00" x="620.00" id="16539" ID="30002834" /><text x="620.00" y="700.00" id="16540">AU2V-J</text><rect Type="system" Region="卡勒瓦拉阔地" height="5.00" y="532.32" Name="GSO-SR" width="5.00" x="647.68" id="16542" ID="30002859" /><text x="647.68" y="532.32" id="16543">GSO-SR</text><rect Type="system" Region="卡勒瓦拉阔地" height="5.00" y="600.00" Name="A-YB15" width="5.00" x="650.00" id="16545" ID="30002836" /><text x="650.00" y="600.00" id="16546">A-YB15</text><rect Type="system" Region="卡勒瓦拉阔地" height="5.00" y="450.00" Name="HPV-RJ" width="5.00" x="670.00" id="16548" ID="30002856" /><text x="670.00" y="450.00" id="16549">HPV-RJ</text><rect Type="system" Region="卡勒瓦拉阔地" height="5.00" y="350.00" Name="0S1-GI" width="5.00" x="680.00" id="16551" ID="30002846" /><text x="680.00" y="350.00" id="16552">0S1-GI</text><rect Type="system" Region="卡勒瓦拉阔地" height="5.00" y="497.68" Name="WNM-V0" width="5.00" x="682.32" id="16554" ID="30002854" /><text x="682.32" y="497.68" id="16555">WNM-V0</text><rect Type="system" Region="卡勒瓦拉阔地" height="5.00" y="700.00" Name="D-6PKO" width="5.00" x="680.00" id="16557" ID="30002838" /><text x="680.00" y="700.00" id="16558">D-6PKO</text><rect Type="system" Region="卡勒瓦拉阔地" height="5.00" y="550.00" Name="B3ZU-H" width="5.00" x="700.00" id="16560" ID="30002860" /><text x="700.00" y="550.00" id="16561">B3ZU-H</text><rect Type="system" Region="卡勒瓦拉阔地" height="5.00" y="300.00" Name="M3-H2Y" width="5.00" x="700.00" id="16563" ID="30002852" /><text x="700.00" y="300.00" id="16564">M3-H2Y</text><rect Type="system" Region="卡勒瓦拉阔地" height="5.00" y="50.00" Name="FB5U-I" width="5.00" x="720.00" id="16566" ID="30002881" /><text x="720.00" y="50.00" id="16567">FB5U-I</text><rect Type="system" Region="卡勒瓦拉阔地" height="5.00" y="750.00" Name="SY-0AM" width="5.00" x="720.00" id="16569" ID="30002835" /><text x="720.00" y="750.00" id="16570">SY-0AM</text><rect Type="system" Region="卡勒瓦拉阔地" height="5.00" y="650.00" Name="QZX-L9" width="5.00" x="720.00" id="16572" ID="30002837" /><text x="720.00" y="650.00" id="16573">QZX-L9</text><rect Type="system" Region="卡勒瓦拉阔地" height="5.00" y="600.00" Name="SG-3HY" width="5.00" x="750.00" id="16575" ID="30002833" /><text x="750.00" y="600.00" id="16576">SG-3HY</text><rect Type="system" Region="卡勒瓦拉阔地" height="5.00" y="500.00" Name="G-KCFT" width="5.00" x="750.00" id="16578" ID="30002853" /><text x="750.00" y="500.00" id="16579">G-KCFT</text><rect Type="system" Region="卡勒瓦拉阔地" height="5.00" y="450.00" Name="C3J0-O" width="5.00" x="750.00" id="16581" ID="30002858" /><text x="750.00" y="450.00" id="16582">C3J0-O</text><rect Type="system" Region="卡勒瓦拉阔地" height="5.00" y="400.00" Name="O31W-6" width="5.00" x="750.00" id="16584" ID="30002851" /><text x="750.00" y="400.00" id="16585">O31W-6</text><rect Type="system" Region="卡勒瓦拉阔地" height="5.00" y="121.91" Name="5-VFC6" width="5.00" x="779.04" id="16587" ID="30002883" /><text x="779.04" y="121.91" id="16588">5-VFC6</text><rect Type="system" Region="卡勒瓦拉阔地" height="5.00" y="20.00" Name="J-OAH2" width="5.00" x="780.00" id="16590" ID="30002887" /><text x="780.00" y="20.00" id="16591">J-OAH2</text><rect Type="system" Region="卡勒瓦拉阔地" height="5.00" y="78.09" Name="BZ-BCK" width="5.00" x="800.96" id="16593" ID="30002882" /><text x="800.96" y="78.09" id="16594">BZ-BCK</text><rect Type="system" Region="卡勒瓦拉阔地" height="5.00" y="280.00" Name="SH6X-F" width="5.00" x="850.00" id="16596" ID="30002831" /><text x="850.00" y="280.00" id="16597">SH6X-F</text><rect Type="system" Region="卡勒瓦拉阔地" height="5.00" y="353.83" Name="B1UE-J" width="5.00" x="846.08" id="16599" ID="30002850" /><text x="846.08" y="353.83" id="16600">B1UE-J</text><rect Type="system" Region="卡勒瓦拉阔地" height="5.00" y="80.00" Name="O5-YNW" width="5.00" x="850.00" id="16602" ID="30002884" /><text x="850.00" y="80.00" id="16603">O5-YNW</text><rect Type="system" Region="卡勒瓦拉阔地" height="5.00" y="20.00" Name="86L-9F" width="5.00" x="850.00" id="16605" ID="30002885" /><text x="850.00" y="20.00" id="16606">86L-9F</text><rect Type="system" Region="卡勒瓦拉阔地" height="5.00" y="320.44" Name="FBH-JN" width="5.00" x="881.93" id="16608" ID="30002827" /><text x="881.93" y="320.44" id="16609">FBH-JN</text><rect Type="system" Region="卡勒瓦拉阔地" height="5.00" y="275.73" Name="BVRQ-O" width="5.00" x="901.99" id="16611" ID="30002828" /><text x="901.99" y="275.73" id="16612">BVRQ-O</text><rect Type="system" Region="卡勒瓦拉阔地" height="5.00" y="50.00" Name="IUU3-L" width="5.00" x="920.00" id="16614" ID="30002886" /><text x="920.00" y="50.00" id="16615">IUU3-L</text><rect Type="system" Region="卡勒瓦拉阔地" height="5.00" y="221.20" Name="QX-4HO" width="5.00" x="919.12" id="16617" ID="30002829" /><text x="919.12" y="221.20" id="16618">QX-4HO</text><rect Type="system" Region="卡勒瓦拉阔地" height="5.00" y="181.64" Name="LS3-HP" width="5.00" x="948.03" id="16620" ID="30002830" /><text x="948.03" y="181.64" id="16621">LS3-HP</text><rect Type="system" Region="卡勒瓦拉阔地" height="5.00" y="147.16" Name="6V-D0E" width="5.00" x="982.85" id="16623" ID="30002832" /><text x="982.85" y="147.16" id="16624">6V-D0E</text><rect Type="system" Region="卡勒瓦拉阔地" height="5.00" y="20.00" Name="S-LHPJ" width="5.00" x="980.00" id="16626" ID="30002888" /><text x="980.00" y="20.00" id="16627">S-LHPJ</text><rect Type="system" Region="对舞之域" height="5.00" y="100.00" Name="HJO-84" width="5.00" x="50.00" id="16629" ID="30002468" /><text x="50.00" y="100.00" id="16630">HJO-84</text><rect Type="system" Region="对舞之域" height="5.00" y="150.00" Name="4D9-66" width="5.00" x="50.00" id="16632" ID="30002469" /><text x="50.00" y="150.00" id="16633">4D9-66</text><rect Type="system" Region="对舞之域" height="5.00" y="50.00" Name="9-KWXC" width="5.00" x="100.00" id="16635" ID="30002450" /><text x="100.00" y="50.00" id="16636">9-KWXC</text><rect Type="system" Region="静寂谷" height="5.00" y="0.00" Name="PX5-LR" width="5.00" x="250.00" id="16638" ID="30000316" /><text x="250.00" y="0.00" id="16639">PX5-LR</text><rect Type="system" Region="琉蓝之穹" height="5.00" y="430.00" Name="TZ-74M" width="5.00" x="530.00" id="16641" ID="30002353" /><text x="530.00" y="430.00" id="16642">TZ-74M</text><rect Type="system" Region="琉蓝之穹" height="5.00" y="600.00" Name="FB-MPY" width="5.00" x="580.00" id="16644" ID="30002321" /><text x="580.00" y="600.00" id="16645">FB-MPY</text><rect Type="system" Region="琉蓝之穹" height="5.00" y="199.04" Name="AID-9T" width="5.00" x="621.91" id="16647" ID="30002289" /><text x="621.91" y="199.04" id="16648">AID-9T</text><rect Type="system" Region="糟粕之域" height="5.00" y="650.00" Name="Z-EKCY" width="5.00" x="800.00" id="16650" ID="30001097" /><text x="800.00" y="650.00" id="16651">Z-EKCY</text><rect Type="system" Region="琉蓝之穹" height="5.00" y="750.00" Name="J7M-3W" width="5.00" x="800.00" id="16653" ID="30002285" /><text x="800.00" y="750.00" id="16654">J7M-3W</text><rect Type="system" Region="糟粕之域" height="5.00" y="450.00" Name="7-YHRX" width="5.00" x="850.00" id="16656" ID="30001057" /><text x="850.00" y="450.00" id="16657">7-YHRX</text><rect Type="system" Region="糟粕之域" height="5.00" y="380.00" Name="V3P-AZ" width="5.00" x="950.00" id="16659" ID="30001084" /><text x="950.00" y="380.00" id="16660">V3P-AZ</text><line x2="50.00" style="fill:blue;stroke:blue;" y1="380.00" x1="50.00" id="16662" y2="280.00" /><line x2="78.09" style="fill:blue;stroke:blue;" y1="380.00" x1="50.00" id="16663" y2="420.96" /><line x2="50.00" style="fill:blue;stroke:blue;" y1="280.00" x1="50.00" id="16664" y2="220.00" /><line x2="50.00" style="fill:blue;stroke:blue;" y1="280.00" x1="50.00" id="16665" y2="380.00" /><line x2="120.00" style="fill:blue;stroke:blue;" y1="220.00" x1="50.00" id="16666" y2="150.00" /><line x2="50.00" style="fill:blue;stroke:blue;" y1="220.00" x1="50.00" id="16667" y2="280.00" /><line x2="180.00" style="fill:blue;stroke:blue;" y1="420.96" x1="78.09" id="16668" y2="424.50" /><line x2="121.91" style="fill:blue;stroke:blue;" y1="420.96" x1="78.09" id="16669" y2="399.04" /><line x2="50.00" style="fill:blue;stroke:blue;" y1="420.96" x1="78.09" id="16670" y2="380.00" /><line x2="150.00" style="fill:blue;stroke:blue;" y1="420.96" x1="78.09" id="16671" y2="480.00" /><line x2="180.00" style="fill:blue;stroke:blue;" y1="399.04" x1="121.91" id="16672" y2="375.50" /><line x2="180.00" style="fill:blue;stroke:blue;" y1="399.04" x1="121.91" id="16673" y2="424.50" /><line x2="78.09" style="fill:blue;stroke:blue;" y1="399.04" x1="121.91" id="16674" y2="420.96" /><line x2="100.00" style="fill:blue;stroke:blue;" y1="100.00" x1="120.00" id="16675" y2="50.00" /><line x2="50.00" style="fill:blue;stroke:blue;" y1="100.00" x1="120.00" id="16676" y2="100.00" /><line x2="120.00" style="fill:blue;stroke:blue;" y1="100.00" x1="120.00" id="16677" y2="150.00" /><line x2="250.00" style="fill:blue;stroke:blue;" y1="150.00" x1="120.00" id="16678" y2="100.00" /><line x2="120.00" style="fill:blue;stroke:blue;" y1="150.00" x1="120.00" id="16679" y2="100.00" /><line x2="50.00" style="fill:blue;stroke:blue;" y1="150.00" x1="120.00" id="16680" y2="150.00" /><line x2="50.00" style="fill:blue;stroke:blue;" y1="150.00" x1="120.00" id="16681" y2="220.00" /><line x2="180.00" style="fill:blue;stroke:blue;" y1="480.00" x1="150.00" id="16682" y2="424.50" /><line x2="78.09" style="fill:blue;stroke:blue;" y1="480.00" x1="150.00" id="16683" y2="420.96" /><line x2="190.00" style="fill:blue;stroke:blue;" y1="480.00" x1="150.00" id="16684" y2="580.00" /><line x2="180.00" style="fill:blue;stroke:blue;" y1="424.50" x1="180.00" id="16685" y2="375.50" /><line x2="121.91" style="fill:blue;stroke:blue;" y1="424.50" x1="180.00" id="16686" y2="399.04" /><line x2="78.09" style="fill:blue;stroke:blue;" y1="424.50" x1="180.00" id="16687" y2="420.96" /><line x2="150.00" style="fill:blue;stroke:blue;" y1="424.50" x1="180.00" id="16688" y2="480.00" /><line x2="200.00" style="fill:blue;stroke:blue;" y1="375.50" x1="180.00" id="16689" y2="320.00" /><line x2="180.00" style="fill:blue;stroke:blue;" y1="375.50" x1="180.00" id="16690" y2="424.50" /><line x2="121.91" style="fill:blue;stroke:blue;" y1="375.50" x1="180.00" id="16691" y2="399.04" /><line x2="150.00" style="fill:blue;stroke:blue;" y1="580.00" x1="190.00" id="16692" y2="480.00" /><line x2="240.00" style="fill:blue;stroke:blue;" y1="580.00" x1="190.00" id="16693" y2="600.00" /><line x2="240.00" style="fill:blue;stroke:blue;" y1="580.00" x1="190.00" id="16694" y2="730.00" /><line x2="250.00" style="fill:blue;stroke:blue;" y1="320.00" x1="200.00" id="16695" y2="300.00" /><line x2="180.00" style="fill:blue;stroke:blue;" y1="320.00" x1="200.00" id="16696" y2="375.50" /><line x2="280.00" style="fill:blue;stroke:blue;" y1="100.00" x1="250.00" id="16697" y2="50.00" /><line x2="320.00" style="fill:blue;stroke:blue;" y1="100.00" x1="250.00" id="16698" y2="80.00" /><line x2="120.00" style="fill:blue;stroke:blue;" y1="100.00" x1="250.00" id="16699" y2="150.00" /><line x2="250.00" style="fill:blue;stroke:blue;" y1="50.00" x1="280.00" id="16700" y2="0.00" /><line x2="250.00" style="fill:blue;stroke:blue;" y1="50.00" x1="280.00" id="16701" y2="100.00" /><line x2="320.00" style="fill:blue;stroke:blue;" y1="50.00" x1="280.00" id="16702" y2="80.00" /><line x2="440.00" style="fill:blue;stroke:blue;" y1="730.00" x1="240.00" id="16703" y2="600.00" /><line x2="240.00" style="fill:blue;stroke:blue;" y1="730.00" x1="240.00" id="16704" y2="600.00" /><line x2="290.00" style="fill:blue;stroke:blue;" y1="730.00" x1="240.00" id="16705" y2="650.00" /><line x2="190.00" style="fill:blue;stroke:blue;" y1="730.00" x1="240.00" id="16706" y2="580.00" /><line x2="320.00" style="fill:blue;stroke:blue;" y1="470.00" x1="270.00" id="16707" y2="375.50" /><line x2="320.00" style="fill:blue;stroke:blue;" y1="470.00" x1="270.00" id="16708" y2="424.50" /><line x2="400.00" style="fill:blue;stroke:blue;" y1="470.00" x1="270.00" id="16709" y2="420.00" /><line x2="400.00" style="fill:blue;stroke:blue;" y1="470.00" x1="270.00" id="16710" y2="480.00" /><line x2="320.00" style="fill:blue;stroke:blue;" y1="470.00" x1="270.00" id="16711" y2="490.00" /><line x2="440.00" style="fill:blue;stroke:blue;" y1="600.00" x1="240.00" id="16712" y2="600.00" /><line x2="290.00" style="fill:blue;stroke:blue;" y1="600.00" x1="240.00" id="16713" y2="650.00" /><line x2="240.00" style="fill:blue;stroke:blue;" y1="600.00" x1="240.00" id="16714" y2="730.00" /><line x2="190.00" style="fill:blue;stroke:blue;" y1="600.00" x1="240.00" id="16715" y2="580.00" /><line x2="350.00" style="fill:blue;stroke:blue;" y1="300.00" x1="250.00" id="16716" y2="280.00" /><line x2="200.00" style="fill:blue;stroke:blue;" y1="300.00" x1="250.00" id="16717" y2="320.00" /><line x2="320.00" style="fill:blue;stroke:blue;" y1="300.00" x1="250.00" id="16718" y2="375.50" /><line x2="240.00" style="fill:blue;stroke:blue;" y1="650.00" x1="290.00" id="16719" y2="600.00" /><line x2="240.00" style="fill:blue;stroke:blue;" y1="650.00" x1="290.00" id="16720" y2="730.00" /><line x2="340.00" style="fill:blue;stroke:blue;" y1="650.00" x1="290.00" id="16721" y2="620.00" /><line x2="280.00" style="fill:blue;stroke:blue;" y1="80.00" x1="320.00" id="16722" y2="50.00" /><line x2="250.00" style="fill:blue;stroke:blue;" y1="80.00" x1="320.00" id="16723" y2="100.00" /><line x2="420.00" style="fill:blue;stroke:blue;" y1="80.00" x1="320.00" id="16724" y2="50.00" /><line x2="270.00" style="fill:blue;stroke:blue;" y1="490.00" x1="320.00" id="16725" y2="470.00" /><line x2="400.00" style="fill:blue;stroke:blue;" y1="490.00" x1="320.00" id="16726" y2="480.00" /><line x2="250.00" style="fill:blue;stroke:blue;" y1="375.50" x1="320.00" id="16727" y2="300.00" /><line x2="270.00" style="fill:blue;stroke:blue;" y1="375.50" x1="320.00" id="16728" y2="470.00" /><line x2="320.00" style="fill:blue;stroke:blue;" y1="375.50" x1="320.00" id="16729" y2="424.50" /><line x2="400.00" style="fill:blue;stroke:blue;" y1="375.50" x1="320.00" id="16730" y2="420.00" /><line x2="400.00" style="fill:blue;stroke:blue;" y1="375.50" x1="320.00" id="16731" y2="350.00" /><line x2="320.00" style="fill:blue;stroke:blue;" y1="424.50" x1="320.00" id="16732" y2="375.50" /><line x2="270.00" style="fill:blue;stroke:blue;" y1="424.50" x1="320.00" id="16733" y2="470.00" /><line x2="400.00" style="fill:blue;stroke:blue;" y1="424.50" x1="320.00" id="16734" y2="420.00" /><line x2="400.00" style="fill:blue;stroke:blue;" y1="280.00" x1="350.00" id="16735" y2="280.00" /><line x2="250.00" style="fill:blue;stroke:blue;" y1="280.00" x1="350.00" id="16736" y2="300.00" /><line x2="290.00" style="fill:blue;stroke:blue;" y1="620.00" x1="340.00" id="16737" y2="650.00" /><line x2="420.00" style="fill:blue;stroke:blue;" y1="200.00" x1="350.00" id="16738" y2="220.00" /><line x2="320.00" style="fill:blue;stroke:blue;" y1="420.00" x1="400.00" id="16739" y2="375.50" /><line x2="270.00" style="fill:blue;stroke:blue;" y1="420.00" x1="400.00" id="16740" y2="470.00" /><line x2="320.00" style="fill:blue;stroke:blue;" y1="420.00" x1="400.00" id="16741" y2="424.50" /><line x2="400.00" style="fill:blue;stroke:blue;" y1="420.00" x1="400.00" id="16742" y2="480.00" /><line x2="400.00" style="fill:blue;stroke:blue;" y1="420.00" x1="400.00" id="16743" y2="350.00" /><line x2="320.00" style="fill:blue;stroke:blue;" y1="350.00" x1="400.00" id="16744" y2="375.50" /><line x2="400.00" style="fill:blue;stroke:blue;" y1="350.00" x1="400.00" id="16745" y2="420.00" /><line x2="480.00" style="fill:blue;stroke:blue;" y1="280.00" x1="400.00" id="16746" y2="280.00" /><line x2="350.00" style="fill:blue;stroke:blue;" y1="280.00" x1="400.00" id="16747" y2="280.00" /><line x2="530.00" style="fill:blue;stroke:blue;" y1="480.00" x1="400.00" id="16748" y2="430.00" /><line x2="270.00" style="fill:blue;stroke:blue;" y1="480.00" x1="400.00" id="16749" y2="470.00" /><line x2="400.00" style="fill:blue;stroke:blue;" y1="480.00" x1="400.00" id="16750" y2="420.00" /><line x2="320.00" style="fill:blue;stroke:blue;" y1="480.00" x1="400.00" id="16751" y2="490.00" /><line x2="480.00" style="fill:blue;stroke:blue;" y1="220.00" x1="420.00" id="16752" y2="280.00" /><line x2="499.04" style="fill:blue;stroke:blue;" y1="220.00" x1="420.00" id="16753" y2="221.91" /><line x2="350.00" style="fill:blue;stroke:blue;" y1="220.00" x1="420.00" id="16754" y2="200.00" /><line x2="320.00" style="fill:blue;stroke:blue;" y1="50.00" x1="420.00" id="16755" y2="80.00" /><line x2="520.00" style="fill:blue;stroke:blue;" y1="50.00" x1="420.00" id="16756" y2="40.00" /><line x2="520.00" style="fill:blue;stroke:blue;" y1="600.00" x1="440.00" id="16757" y2="600.00" /><line x2="240.00" style="fill:blue;stroke:blue;" y1="600.00" x1="440.00" id="16758" y2="600.00" /><line x2="240.00" style="fill:blue;stroke:blue;" y1="600.00" x1="440.00" id="16759" y2="730.00" /><line x2="400.00" style="fill:blue;stroke:blue;" y1="280.00" x1="480.00" id="16760" y2="280.00" /><line x2="420.00" style="fill:blue;stroke:blue;" y1="280.00" x1="480.00" id="16761" y2="220.00" /><line x2="499.04" style="fill:blue;stroke:blue;" y1="280.00" x1="480.00" id="16762" y2="221.91" /><line x2="550.00" style="fill:blue;stroke:blue;" y1="280.00" x1="480.00" id="16763" y2="300.00" /><line x2="550.00" style="fill:blue;stroke:blue;" y1="120.00" x1="480.00" id="16764" y2="130.00" /><line x2="480.00" style="fill:blue;stroke:blue;" y1="221.91" x1="499.04" id="16765" y2="280.00" /><line x2="420.00" style="fill:blue;stroke:blue;" y1="221.91" x1="499.04" id="16766" y2="220.00" /><line x2="578.09" style="fill:blue;stroke:blue;" y1="178.09" x1="520.96" id="16767" y2="220.96" /><line x2="560.00" style="fill:blue;stroke:blue;" y1="40.00" x1="520.00" id="16768" y2="80.00" /><line x2="420.00" style="fill:blue;stroke:blue;" y1="40.00" x1="520.00" id="16769" y2="50.00" /><line x2="600.00" style="fill:blue;stroke:blue;" y1="40.00" x1="520.00" id="16770" y2="50.00" /><line x2="600.00" style="fill:blue;stroke:blue;" y1="600.00" x1="520.00" id="16771" y2="520.00" /><line x2="440.00" style="fill:blue;stroke:blue;" y1="600.00" x1="520.00" id="16772" y2="600.00" /><line x2="550.00" style="fill:blue;stroke:blue;" y1="80.00" x1="560.00" id="16773" y2="130.00" /><line x2="520.00" style="fill:blue;stroke:blue;" y1="80.00" x1="560.00" id="16774" y2="40.00" /><line x2="600.00" style="fill:blue;stroke:blue;" y1="80.00" x1="560.00" id="16775" y2="50.00" /><line x2="580.00" style="fill:blue;stroke:blue;" y1="130.00" x1="550.00" id="16776" y2="170.00" /><line x2="480.00" style="fill:blue;stroke:blue;" y1="130.00" x1="550.00" id="16777" y2="120.00" /><line x2="560.00" style="fill:blue;stroke:blue;" y1="130.00" x1="550.00" id="16778" y2="80.00" /><line x2="480.00" style="fill:blue;stroke:blue;" y1="300.00" x1="550.00" id="16779" y2="280.00" /><line x2="680.00" style="fill:blue;stroke:blue;" y1="300.00" x1="550.00" id="16780" y2="350.00" /><line x2="578.09" style="fill:blue;stroke:blue;" y1="300.00" x1="550.00" id="16781" y2="220.96" /><line x2="550.00" style="fill:blue;stroke:blue;" y1="170.00" x1="580.00" id="16782" y2="130.00" /><line x2="578.09" style="fill:blue;stroke:blue;" y1="170.00" x1="580.00" id="16783" y2="220.96" /><line x2="621.91" style="fill:blue;stroke:blue;" y1="220.96" x1="578.09" id="16784" y2="199.04" /><line x2="580.00" style="fill:blue;stroke:blue;" y1="220.96" x1="578.09" id="16785" y2="170.00" /><line x2="550.00" style="fill:blue;stroke:blue;" y1="220.96" x1="578.09" id="16786" y2="300.00" /><line x2="520.96" style="fill:blue;stroke:blue;" y1="220.96" x1="578.09" id="16787" y2="178.09" /><line x2="682.32" style="fill:blue;stroke:blue;" y1="520.00" x1="600.00" id="16788" y2="497.68" /><line x2="520.00" style="fill:blue;stroke:blue;" y1="520.00" x1="600.00" id="16789" y2="600.00" /><line x2="560.00" style="fill:blue;stroke:blue;" y1="50.00" x1="600.00" id="16790" y2="80.00" /><line x2="520.00" style="fill:blue;stroke:blue;" y1="50.00" x1="600.00" id="16791" y2="40.00" /><line x2="720.00" style="fill:blue;stroke:blue;" y1="50.00" x1="600.00" id="16792" y2="50.00" /><line x2="720.00" style="fill:blue;stroke:blue;" y1="700.00" x1="620.00" id="16793" y2="750.00" /><line x2="720.00" style="fill:blue;stroke:blue;" y1="700.00" x1="620.00" id="16794" y2="650.00" /><line x2="680.00" style="fill:blue;stroke:blue;" y1="700.00" x1="620.00" id="16795" y2="700.00" /><line x2="682.32" style="fill:blue;stroke:blue;" y1="532.32" x1="647.68" id="16796" y2="497.68" /><line x2="700.00" style="fill:blue;stroke:blue;" y1="532.32" x1="647.68" id="16797" y2="550.00" /><line x2="580.00" style="fill:blue;stroke:blue;" y1="600.00" x1="650.00" id="16798" y2="600.00" /><line x2="750.00" style="fill:blue;stroke:blue;" y1="600.00" x1="650.00" id="16799" y2="600.00" /><line x2="682.32" style="fill:blue;stroke:blue;" y1="450.00" x1="670.00" id="16800" y2="497.68" /><line x2="550.00" style="fill:blue;stroke:blue;" y1="350.00" x1="680.00" id="16801" y2="300.00" /><line x2="750.00" style="fill:blue;stroke:blue;" y1="350.00" x1="680.00" id="16802" y2="400.00" /><line x2="700.00" style="fill:blue;stroke:blue;" y1="350.00" x1="680.00" id="16803" y2="300.00" /><line x2="750.00" style="fill:blue;stroke:blue;" y1="497.68" x1="682.32" id="16804" y2="500.00" /><line x2="600.00" style="fill:blue;stroke:blue;" y1="497.68" x1="682.32" id="16805" y2="520.00" /><line x2="670.00" style="fill:blue;stroke:blue;" y1="497.68" x1="682.32" id="16806" y2="450.00" /><line x2="750.00" style="fill:blue;stroke:blue;" y1="497.68" x1="682.32" id="16807" y2="450.00" /><line x2="647.68" style="fill:blue;stroke:blue;" y1="497.68" x1="682.32" id="16808" y2="532.32" /><line x2="700.00" style="fill:blue;stroke:blue;" y1="497.68" x1="682.32" id="16809" y2="550.00" /><line x2="620.00" style="fill:blue;stroke:blue;" y1="700.00" x1="680.00" id="16810" y2="700.00" /><line x2="720.00" style="fill:blue;stroke:blue;" y1="700.00" x1="680.00" id="16811" y2="750.00" /><line x2="720.00" style="fill:blue;stroke:blue;" y1="700.00" x1="680.00" id="16812" y2="650.00" /><line x2="750.00" style="fill:blue;stroke:blue;" y1="550.00" x1="700.00" id="16813" y2="500.00" /><line x2="682.32" style="fill:blue;stroke:blue;" y1="550.00" x1="700.00" id="16814" y2="497.68" /><line x2="647.68" style="fill:blue;stroke:blue;" y1="550.00" x1="700.00" id="16815" y2="532.32" /><line x2="680.00" style="fill:blue;stroke:blue;" y1="300.00" x1="700.00" id="16816" y2="350.00" /><line x2="600.00" style="fill:blue;stroke:blue;" y1="50.00" x1="720.00" id="16817" y2="50.00" /><line x2="800.96" style="fill:blue;stroke:blue;" y1="50.00" x1="720.00" id="16818" y2="78.09" /><line x2="800.00" style="fill:blue;stroke:blue;" y1="750.00" x1="720.00" id="16819" y2="750.00" /><line x2="620.00" style="fill:blue;stroke:blue;" y1="750.00" x1="720.00" id="16820" y2="700.00" /><line x2="720.00" style="fill:blue;stroke:blue;" y1="750.00" x1="720.00" id="16821" y2="650.00" /><line x2="680.00" style="fill:blue;stroke:blue;" y1="750.00" x1="720.00" id="16822" y2="700.00" /><line x2="800.00" style="fill:blue;stroke:blue;" y1="650.00" x1="720.00" id="16823" y2="650.00" /><line x2="750.00" style="fill:blue;stroke:blue;" y1="650.00" x1="720.00" id="16824" y2="600.00" /><line x2="620.00" style="fill:blue;stroke:blue;" y1="650.00" x1="720.00" id="16825" y2="700.00" /><line x2="720.00" style="fill:blue;stroke:blue;" y1="650.00" x1="720.00" id="16826" y2="750.00" /><line x2="680.00" style="fill:blue;stroke:blue;" y1="650.00" x1="720.00" id="16827" y2="700.00" /><line x2="650.00" style="fill:blue;stroke:blue;" y1="600.00" x1="750.00" id="16828" y2="600.00" /><line x2="720.00" style="fill:blue;stroke:blue;" y1="600.00" x1="750.00" id="16829" y2="650.00" /><line x2="750.00" style="fill:blue;stroke:blue;" y1="600.00" x1="750.00" id="16830" y2="500.00" /><line x2="750.00" style="fill:blue;stroke:blue;" y1="500.00" x1="750.00" id="16831" y2="600.00" /><line x2="682.32" style="fill:blue;stroke:blue;" y1="500.00" x1="750.00" id="16832" y2="497.68" /><line x2="750.00" style="fill:blue;stroke:blue;" y1="500.00" x1="750.00" id="16833" y2="450.00" /><line x2="700.00" style="fill:blue;stroke:blue;" y1="500.00" x1="750.00" id="16834" y2="550.00" /><line x2="750.00" style="fill:blue;stroke:blue;" y1="450.00" x1="750.00" id="16835" y2="400.00" /><line x2="750.00" style="fill:blue;stroke:blue;" y1="450.00" x1="750.00" id="16836" y2="500.00" /><line x2="682.32" style="fill:blue;stroke:blue;" y1="450.00" x1="750.00" id="16837" y2="497.68" /><line x2="850.00" style="fill:blue;stroke:blue;" y1="400.00" x1="750.00" id="16838" y2="450.00" /><line x2="680.00" style="fill:blue;stroke:blue;" y1="400.00" x1="750.00" id="16839" y2="350.00" /><line x2="846.08" style="fill:blue;stroke:blue;" y1="400.00" x1="750.00" id="16840" y2="353.83" /><line x2="750.00" style="fill:blue;stroke:blue;" y1="400.00" x1="750.00" id="16841" y2="450.00" /><line x2="800.96" style="fill:blue;stroke:blue;" y1="121.91" x1="779.04" id="16842" y2="78.09" /><line x2="800.96" style="fill:blue;stroke:blue;" y1="20.00" x1="780.00" id="16843" y2="78.09" /><line x2="720.00" style="fill:blue;stroke:blue;" y1="78.09" x1="800.96" id="16844" y2="50.00" /><line x2="779.04" style="fill:blue;stroke:blue;" y1="78.09" x1="800.96" id="16845" y2="121.91" /><line x2="850.00" style="fill:blue;stroke:blue;" y1="78.09" x1="800.96" id="16846" y2="80.00" /><line x2="780.00" style="fill:blue;stroke:blue;" y1="78.09" x1="800.96" id="16847" y2="20.00" /><line x2="881.93" style="fill:blue;stroke:blue;" y1="280.00" x1="850.00" id="16848" y2="320.44" /><line x2="950.00" style="fill:blue;stroke:blue;" y1="353.83" x1="846.08" id="16849" y2="380.00" /><line x2="881.93" style="fill:blue;stroke:blue;" y1="353.83" x1="846.08" id="16850" y2="320.44" /><line x2="750.00" style="fill:blue;stroke:blue;" y1="353.83" x1="846.08" id="16851" y2="400.00" /><line x2="800.96" style="fill:blue;stroke:blue;" y1="80.00" x1="850.00" id="16852" y2="78.09" /><line x2="850.00" style="fill:blue;stroke:blue;" y1="80.00" x1="850.00" id="16853" y2="20.00" /><line x2="920.00" style="fill:blue;stroke:blue;" y1="80.00" x1="850.00" id="16854" y2="50.00" /><line x2="850.00" style="fill:blue;stroke:blue;" y1="20.00" x1="850.00" id="16855" y2="80.00" /><line x2="901.99" style="fill:blue;stroke:blue;" y1="320.44" x1="881.93" id="16856" y2="275.73" /><line x2="850.00" style="fill:blue;stroke:blue;" y1="320.44" x1="881.93" id="16857" y2="280.00" /><line x2="846.08" style="fill:blue;stroke:blue;" y1="320.44" x1="881.93" id="16858" y2="353.83" /><line x2="881.93" style="fill:blue;stroke:blue;" y1="275.73" x1="901.99" id="16859" y2="320.44" /><line x2="919.12" style="fill:blue;stroke:blue;" y1="275.73" x1="901.99" id="16860" y2="221.20" /><line x2="850.00" style="fill:blue;stroke:blue;" y1="50.00" x1="920.00" id="16861" y2="80.00" /><line x2="980.00" style="fill:blue;stroke:blue;" y1="50.00" x1="920.00" id="16862" y2="20.00" /><line x2="901.99" style="fill:blue;stroke:blue;" y1="221.20" x1="919.12" id="16863" y2="275.73" /><line x2="948.03" style="fill:blue;stroke:blue;" y1="221.20" x1="919.12" id="16864" y2="181.64" /><line x2="919.12" style="fill:blue;stroke:blue;" y1="181.64" x1="948.03" id="16865" y2="221.20" /><line x2="982.85" style="fill:blue;stroke:blue;" y1="181.64" x1="948.03" id="16866" y2="147.16" /><line x2="948.03" style="fill:blue;stroke:blue;" y1="147.16" x1="982.85" id="16867" y2="181.64" /><line x2="920.00" style="fill:blue;stroke:blue;" y1="20.00" x1="980.00" id="16868" y2="50.00" /><line x2="120.00" style="fill:blue;stroke:blue;" y1="100.00" x1="50.00" id="16869" y2="100.00" /><line x2="50.00" style="fill:blue;stroke:blue;" y1="100.00" x1="50.00" id="16870" y2="150.00" /><line x2="50.00" style="fill:blue;stroke:blue;" y1="150.00" x1="50.00" id="16871" y2="100.00" /><line x2="120.00" style="fill:blue;stroke:blue;" y1="150.00" x1="50.00" id="16872" y2="150.00" /><line x2="120.00" style="fill:blue;stroke:blue;" y1="50.00" x1="100.00" id="16873" y2="100.00" /><line x2="280.00" style="fill:blue;stroke:blue;" y1="0.00" x1="250.00" id="16874" y2="50.00" /><line x2="400.00" style="fill:blue;stroke:blue;" y1="430.00" x1="530.00" id="16875" y2="480.00" /><line x2="650.00" style="fill:blue;stroke:blue;" y1="600.00" x1="580.00" id="16876" y2="600.00" /><line x2="578.09" style="fill:blue;stroke:blue;" y1="199.04" x1="621.91" id="16877" y2="220.96" /><line x2="720.00" style="fill:blue;stroke:blue;" y1="650.00" x1="800.00" id="16878" y2="650.00" /><line x2="720.00" style="fill:blue;stroke:blue;" y1="750.00" x1="800.00" id="16879" y2="750.00" /><line x2="750.00" style="fill:blue;stroke:blue;" y1="450.00" x1="850.00" id="16880" y2="400.00" /><line x2="846.08" style="fill:blue;stroke:blue;" y1="380.00" x1="950.00" id="16881" y2="353.83" /></svg>
