<?xml version="1.0" standalone="yes"?><!DOCTYPE svg PUBLIC "-//W3C//DTD SVG 1.1//EN" "http://www.w3.org/Graphics/SVG/1.1/DTD/svg11.dtd"[]><svg width="1050.00" height="800.00" id="16400" xmlns="http://www.w3.org/2000/svg" xmlns:xlink="http://www.w3.org/1999/xlink"><rect Type="system" x="50.00" id="16401" height="5.00" width="5.00" Name="1S-SU1" ID="30002866" Region="卡勒瓦拉阔地" y="380.00" /><text y="380.00" x="50.00" id="16402">1S-SU1</text><rect Type="system" x="50.00" id="16404" height="5.00" width="5.00" Name="9P4O-F" ID="30002472" Region="对舞之域" y="280.00" /><text y="280.00" x="50.00" id="16405">9P4O-F</text><rect Type="system" x="50.00" id="16407" height="5.00" width="5.00" Name="Q-TBHW" ID="30002471" Region="对舞之域" y="220.00" /><text y="220.00" x="50.00" id="16408">Q-TBHW</text><rect Type="system" x="78.09" id="16410" height="5.00" width="5.00" Name="LEM-I1" ID="30002865" Region="卡勒瓦拉阔地" y="420.96" /><text y="420.96" x="78.09" id="16411">LEM-I1</text><rect Type="system" x="121.91" id="16413" height="5.00" width="5.00" Name="42G-OB" ID="30002864" Region="卡勒瓦拉阔地" y="399.04" /><text y="399.04" x="121.91" id="16414">42G-OB</text><rect Type="system" x="120.00" id="16416" height="5.00" width="5.00" Name="P-E9GN" ID="30002467" Region="对舞之域" y="100.00" /><text y="100.00" x="120.00" id="16417">P-E9GN</text><rect Type="system" x="120.00" id="16419" height="5.00" width="5.00" Name="L-TOFR" ID="30002470" Region="对舞之域" y="150.00" /><text y="150.00" x="120.00" id="16420">L-TOFR</text><rect Type="system" x="150.00" id="16422" height="5.00" width="5.00" Name="ND-GL4" ID="30002867" Region="卡勒瓦拉阔地" y="480.00" /><text y="480.00" x="150.00" id="16423">ND-GL4</text><rect Type="system" x="180.00" id="16425" height="5.00" width="5.00" Name="HD-HOZ" ID="30002863" Region="卡勒瓦拉阔地" y="424.50" /><text y="424.50" x="180.00" id="16426">HD-HOZ</text><rect Type="system" x="180.00" id="16428" height="5.00" width="5.00" Name="V2-GZS" ID="30002862" Region="卡勒瓦拉阔地" y="375.50" /><text y="375.50" x="180.00" id="16429">V2-GZS</text><rect Type="system" x="190.00" id="16431" height="5.00" width="5.00" Name="K95-9I" ID="30002873" Region="卡勒瓦拉阔地" y="580.00" /><text y="580.00" x="190.00" id="16432">K95-9I</text><rect Type="system" x="200.00" id="16434" height="5.00" width="5.00" Name="G4-QU6" ID="30002861" Region="卡勒瓦拉阔地" y="320.00" /><text y="320.00" x="200.00" id="16435">G4-QU6</text><rect Type="system" x="250.00" id="16437" height="5.00" width="5.00" Name="9-GBPD" ID="30000318" Region="静寂谷" y="100.00" /><text y="100.00" x="250.00" id="16438">9-GBPD</text><rect Type="system" x="280.00" id="16440" height="5.00" width="5.00" Name="A3-RQ3" ID="30000317" Region="静寂谷" y="50.00" /><text y="50.00" x="280.00" id="16441">A3-RQ3</text><rect Type="system" x="240.00" id="16443" height="5.00" width="5.00" Name="HVGR-R" ID="30002871" Region="卡勒瓦拉阔地" y="730.00" /><text y="730.00" x="240.00" id="16444">HVGR-R</text><rect Type="system" x="270.00" id="16446" height="5.00" width="5.00" Name="GQ-7SP" ID="30002875" Region="卡勒瓦拉阔地" y="470.00" /><text y="470.00" x="270.00" id="16447">GQ-7SP</text><rect Type="system" x="240.00" id="16449" height="5.00" width="5.00" Name="M-75WN" ID="30002869" Region="卡勒瓦拉阔地" y="600.00" /><text y="600.00" x="240.00" id="16450">M-75WN</text><rect Type="system" x="250.00" id="16452" height="5.00" width="5.00" Name="Q-GICU" ID="30002844" Region="卡勒瓦拉阔地" y="300.00" /><text y="300.00" x="250.00" id="16453">Q-GICU</text><rect Type="system" x="290.00" id="16455" height="5.00" width="5.00" Name="PNFW-O" ID="30002870" Region="卡勒瓦拉阔地" y="650.00" /><text y="650.00" x="290.00" id="16456">PNFW-O</text><rect Type="system" x="320.00" id="16458" height="5.00" width="5.00" Name="LS-JEP" ID="30000319" Region="静寂谷" y="80.00" /><text y="80.00" x="320.00" id="16459">LS-JEP</text><rect Type="system" x="320.00" id="16461" height="5.00" width="5.00" Name="O9K-FT" ID="30002879" Region="卡勒瓦拉阔地" y="490.00" /><text y="490.00" x="320.00" id="16462">O9K-FT</text><rect Type="system" x="320.00" id="16464" height="5.00" width="5.00" Name="R1O-GN" ID="30002874" Region="卡勒瓦拉阔地" y="375.50" /><text y="375.50" x="320.00" id="16465">R1O-GN</text><rect Type="system" x="320.00" id="16467" height="5.00" width="5.00" Name="BGMZ-0" ID="30002876" Region="卡勒瓦拉阔地" y="424.50" /><text y="424.50" x="320.00" id="16468">BGMZ-0</text><rect Type="system" x="350.00" id="16470" height="5.00" width="5.00" Name="TA9T-P" ID="30002841" Region="卡勒瓦拉阔地" y="280.00" /><text y="280.00" x="350.00" id="16471">TA9T-P</text><rect Type="system" x="340.00" id="16473" height="5.00" width="5.00" Name="K76A-3" ID="30002872" Region="卡勒瓦拉阔地" y="620.00" /><text y="620.00" x="340.00" id="16474">K76A-3</text><rect Type="system" x="350.00" id="16476" height="5.00" width="5.00" Name="EPCD-D" ID="30002845" Region="卡勒瓦拉阔地" y="200.00" /><text y="200.00" x="350.00" id="16477">EPCD-D</text><rect Type="system" x="400.00" id="16479" height="5.00" width="5.00" Name="I2D3-5" ID="30002877" Region="卡勒瓦拉阔地" y="420.00" /><text y="420.00" x="400.00" id="16480">I2D3-5</text><rect Type="system" x="400.00" id="16482" height="5.00" width="5.00" Name="RQOO-U" ID="30002880" Region="卡勒瓦拉阔地" y="350.00" /><text y="350.00" x="400.00" id="16483">RQOO-U</text><rect Type="system" x="400.00" id="16485" height="5.00" width="5.00" Name="RAI-0E" ID="30002839" Region="卡勒瓦拉阔地" y="280.00" /><text y="280.00" x="400.00" id="16486">RAI-0E</text><rect Type="system" x="400.00" id="16488" height="5.00" width="5.00" Name="FZX-PU" ID="30002878" Region="卡勒瓦拉阔地" y="480.00" /><text y="480.00" x="400.00" id="16489">FZX-PU</text><rect Type="system" x="420.00" id="16491" height="5.00" width="5.00" Name="L-TLFU" ID="30002842" Region="卡勒瓦拉阔地" y="220.00" /><text y="220.00" x="420.00" id="16492">L-TLFU</text><rect Type="system" x="420.00" id="16494" height="5.00" width="5.00" Name="UDVW-O" ID="30002825" Region="卡勒瓦拉阔地" y="50.00" /><text y="50.00" x="420.00" id="16495">UDVW-O</text><rect Type="system" x="440.00" id="16497" height="5.00" width="5.00" Name="9-0QB7" ID="30002868" Region="卡勒瓦拉阔地" y="600.00" /><text y="600.00" x="440.00" id="16498">9-0QB7</text><rect Type="system" x="480.00" id="16500" height="5.00" width="5.00" Name="MN9P-A" ID="30002840" Region="卡勒瓦拉阔地" y="280.00" /><text y="280.00" x="480.00" id="16501">MN9P-A</text><rect Type="system" x="480.00" id="16503" height="5.00" width="5.00" Name="JT2I-7" ID="30002821" Region="卡勒瓦拉阔地" y="120.00" /><text y="120.00" x="480.00" id="16504">JT2I-7</text><rect Type="system" x="499.04" id="16506" height="5.00" width="5.00" Name="BM-VYZ" ID="30002843" Region="卡勒瓦拉阔地" y="221.91" /><text y="221.91" x="499.04" id="16507">BM-VYZ</text><rect Type="system" x="520.96" id="16509" height="5.00" width="5.00" Name="LE-67X" ID="30002849" Region="卡勒瓦拉阔地" y="178.09" /><text y="178.09" x="520.96" id="16510">LE-67X</text><rect Type="system" x="520.00" id="16512" height="5.00" width="5.00" Name="UJXC-B" ID="30002824" Region="卡勒瓦拉阔地" y="40.00" /><text y="40.00" x="520.00" id="16513">UJXC-B</text><rect Type="system" x="520.00" id="16515" height="5.00" width="5.00" Name="H7S-5I" ID="30002857" Region="卡勒瓦拉阔地" y="600.00" /><text y="600.00" x="520.00" id="16516">H7S-5I</text><rect Type="system" x="560.00" id="16518" height="5.00" width="5.00" Name="1-KCSA" ID="30002823" Region="卡勒瓦拉阔地" y="80.00" /><text y="80.00" x="560.00" id="16519">1-KCSA</text><rect Type="system" x="550.00" id="16521" height="5.00" width="5.00" Name="XTJ-5Q" ID="30002822" Region="卡勒瓦拉阔地" y="130.00" /><text y="130.00" x="550.00" id="16522">XTJ-5Q</text><rect Type="system" x="550.00" id="16524" height="5.00" width="5.00" Name="74-DRC" ID="30002848" Region="卡勒瓦拉阔地" y="300.00" /><text y="300.00" x="550.00" id="16525">74-DRC</text><rect Type="system" x="580.00" id="16527" height="5.00" width="5.00" Name="N-JK02" ID="30002820" Region="卡勒瓦拉阔地" y="170.00" /><text y="170.00" x="580.00" id="16528">N-JK02</text><rect Type="system" x="578.09" id="16530" height="5.00" width="5.00" Name="L-GY1B" ID="30002847" Region="卡勒瓦拉阔地" y="220.96" /><text y="220.96" x="578.09" id="16531">L-GY1B</text><rect Type="system" x="600.00" id="16533" height="5.00" width="5.00" Name="6FS-CZ" ID="30002855" Region="卡勒瓦拉阔地" y="520.00" /><text y="520.00" x="600.00" id="16534">6FS-CZ</text><rect Type="system" x="600.00" id="16536" height="5.00" width="5.00" Name="F48K-D" ID="30002826" Region="卡勒瓦拉阔地" y="50.00" /><text y="50.00" x="600.00" id="16537">F48K-D</text><rect Type="system" x="620.00" id="16539" height="5.00" width="5.00" Name="AU2V-J" ID="30002834" Region="卡勒瓦拉阔地" y="700.00" /><text y="700.00" x="620.00" id="16540">AU2V-J</text><rect Type="system" x="647.68" id="16542" height="5.00" width="5.00" Name="GSO-SR" ID="30002859" Region="卡勒瓦拉阔地" y="532.32" /><text y="532.32" x="647.68" id="16543">GSO-SR</text><rect Type="system" x="650.00" id="16545" height="5.00" width="5.00" Name="A-YB15" ID="30002836" Region="卡勒瓦拉阔地" y="600.00" /><text y="600.00" x="650.00" id="16546">A-YB15</text><rect Type="system" x="670.00" id="16548" height="5.00" width="5.00" Name="HPV-RJ" ID="30002856" Region="卡勒瓦拉阔地" y="450.00" /><text y="450.00" x="670.00" id="16549">HPV-RJ</text><rect Type="system" x="680.00" id="16551" height="5.00" width="5.00" Name="0S1-GI" ID="30002846" Region="卡勒瓦拉阔地" y="350.00" /><text y="350.00" x="680.00" id="16552">0S1-GI</text><rect Type="system" x="682.32" id="16554" height="5.00" width="5.00" Name="WNM-V0" ID="30002854" Region="卡勒瓦拉阔地" y="497.68" /><text y="497.68" x="682.32" id="16555">WNM-V0</text><rect Type="system" x="680.00" id="16557" height="5.00" width="5.00" Name="D-6PKO" ID="30002838" Region="卡勒瓦拉阔地" y="700.00" /><text y="700.00" x="680.00" id="16558">D-6PKO</text><rect Type="system" x="700.00" id="16560" height="5.00" width="5.00" Name="B3ZU-H" ID="30002860" Region="卡勒瓦拉阔地" y="550.00" /><text y="550.00" x="700.00" id="16561">B3ZU-H</text><rect Type="system" x="700.00" id="16563" height="5.00" width="5.00" Name="M3-H2Y" ID="30002852" Region="卡勒瓦拉阔地" y="300.00" /><text y="300.00" x="700.00" id="16564">M3-H2Y</text><rect Type="system" x="720.00" id="16566" height="5.00" width="5.00" Name="FB5U-I" ID="30002881" Region="卡勒瓦拉阔地" y="50.00" /><text y="50.00" x="720.00" id="16567">FB5U-I</text><rect Type="system" x="720.00" id="16569" height="5.00" width="5.00" Name="SY-0AM" ID="30002835" Region="卡勒瓦拉阔地" y="750.00" /><text y="750.00" x="720.00" id="16570">SY-0AM</text><rect Type="system" x="720.00" id="16572" height="5.00" width="5.00" Name="QZX-L9" ID="30002837" Region="卡勒瓦拉阔地" y="650.00" /><text y="650.00" x="720.00" id="16573">QZX-L9</text><rect Type="system" x="750.00" id="16575" height="5.00" width="5.00" Name="SG-3HY" ID="30002833" Region="卡勒瓦拉阔地" y="600.00" /><text y="600.00" x="750.00" id="16576">SG-3HY</text><rect Type="system" x="750.00" id="16578" height="5.00" width="5.00" Name="G-KCFT" ID="30002853" Region="卡勒瓦拉阔地" y="500.00" /><text y="500.00" x="750.00" id="16579">G-KCFT</text><rect Type="system" x="750.00" id="16581" height="5.00" width="5.00" Name="C3J0-O" ID="30002858" Region="卡勒瓦拉阔地" y="450.00" /><text y="450.00" x="750.00" id="16582">C3J0-O</text><rect Type="system" x="750.00" id="16584" height="5.00" width="5.00" Name="O31W-6" ID="30002851" Region="卡勒瓦拉阔地" y="400.00" /><text y="400.00" x="750.00" id="16585">O31W-6</text><rect Type="system" x="779.04" id="16587" height="5.00" width="5.00" Name="5-VFC6" ID="30002883" Region="卡勒瓦拉阔地" y="121.91" /><text y="121.91" x="779.04" id="16588">5-VFC6</text><rect Type="system" x="780.00" id="16590" height="5.00" width="5.00" Name="J-OAH2" ID="30002887" Region="卡勒瓦拉阔地" y="20.00" /><text y="20.00" x="780.00" id="16591">J-OAH2</text><rect Type="system" x="800.96" id="16593" height="5.00" width="5.00" Name="BZ-BCK" ID="30002882" Region="卡勒瓦拉阔地" y="78.09" /><text y="78.09" x="800.96" id="16594">BZ-BCK</text><rect Type="system" x="850.00" id="16596" height="5.00" width="5.00" Name="SH6X-F" ID="30002831" Region="卡勒瓦拉阔地" y="280.00" /><text y="280.00" x="850.00" id="16597">SH6X-F</text><rect Type="system" x="846.08" id="16599" height="5.00" width="5.00" Name="B1UE-J" ID="30002850" Region="卡勒瓦拉阔地" y="353.83" /><text y="353.83" x="846.08" id="16600">B1UE-J</text><rect Type="system" x="850.00" id="16602" height="5.00" width="5.00" Name="O5-YNW" ID="30002884" Region="卡勒瓦拉阔地" y="80.00" /><text y="80.00" x="850.00" id="16603">O5-YNW</text><rect Type="system" x="850.00" id="16605" height="5.00" width="5.00" Name="86L-9F" ID="30002885" Region="卡勒瓦拉阔地" y="20.00" /><text y="20.00" x="850.00" id="16606">86L-9F</text><rect Type="system" x="881.93" id="16608" height="5.00" width="5.00" Name="FBH-JN" ID="30002827" Region="卡勒瓦拉阔地" y="320.44" /><text y="320.44" x="881.93" id="16609">FBH-JN</text><rect Type="system" x="901.99" id="16611" height="5.00" width="5.00" Name="BVRQ-O" ID="30002828" Region="卡勒瓦拉阔地" y="275.73" /><text y="275.73" x="901.99" id="16612">BVRQ-O</text><rect Type="system" x="920.00" id="16614" height="5.00" width="5.00" Name="IUU3-L" ID="30002886" Region="卡勒瓦拉阔地" y="50.00" /><text y="50.00" x="920.00" id="16615">IUU3-L</text><rect Type="system" x="919.12" id="16617" height="5.00" width="5.00" Name="QX-4HO" ID="30002829" Region="卡勒瓦拉阔地" y="221.20" /><text y="221.20" x="919.12" id="16618">QX-4HO</text><rect Type="system" x="948.03" id="16620" height="5.00" width="5.00" Name="LS3-HP" ID="30002830" Region="卡勒瓦拉阔地" y="181.64" /><text y="181.64" x="948.03" id="16621">LS3-HP</text><rect Type="system" x="982.85" id="16623" height="5.00" width="5.00" Name="6V-D0E" ID="30002832" Region="卡勒瓦拉阔地" y="147.16" /><text y="147.16" x="982.85" id="16624">6V-D0E</text><rect Type="system" x="980.00" id="16626" height="5.00" width="5.00" Name="S-LHPJ" ID="30002888" Region="卡勒瓦拉阔地" y="20.00" /><text y="20.00" x="980.00" id="16627">S-LHPJ</text><rect Type="system" x="50.00" id="16629" height="5.00" width="5.00" Name="HJO-84" ID="30002468" Region="对舞之域" y="100.00" /><text y="100.00" x="50.00" id="16630">HJO-84</text><rect Type="system" x="50.00" id="16632" height="5.00" width="5.00" Name="4D9-66" ID="30002469" Region="对舞之域" y="150.00" /><text y="150.00" x="50.00" id="16633">4D9-66</text><rect Type="system" x="100.00" id="16635" height="5.00" width="5.00" Name="9-KWXC" ID="30002450" Region="对舞之域" y="50.00" /><text y="50.00" x="100.00" id="16636">9-KWXC</text><rect Type="system" x="250.00" id="16638" height="5.00" width="5.00" Name="PX5-LR" ID="30000316" Region="静寂谷" y="0.00" /><text y="0.00" x="250.00" id="16639">PX5-LR</text><rect Type="system" x="530.00" id="16641" height="5.00" width="5.00" Name="TZ-74M" ID="30002353" Region="琉蓝之穹" y="430.00" /><text y="430.00" x="530.00" id="16642">TZ-74M</text><rect Type="system" x="580.00" id="16644" height="5.00" width="5.00" Name="FB-MPY" ID="30002321" Region="琉蓝之穹" y="600.00" /><text y="600.00" x="580.00" id="16645">FB-MPY</text><rect Type="system" x="621.91" id="16647" height="5.00" width="5.00" Name="AID-9T" ID="30002289" Region="琉蓝之穹" y="199.04" /><text y="199.04" x="621.91" id="16648">AID-9T</text><rect Type="system" x="800.00" id="16650" height="5.00" width="5.00" Name="Z-EKCY" ID="30001097" Region="糟粕之域" y="650.00" /><text y="650.00" x="800.00" id="16651">Z-EKCY</text><rect Type="system" x="800.00" id="16653" height="5.00" width="5.00" Name="J7M-3W" ID="30002285" Region="琉蓝之穹" y="750.00" /><text y="750.00" x="800.00" id="16654">J7M-3W</text><rect Type="system" x="850.00" id="16656" height="5.00" width="5.00" Name="7-YHRX" ID="30001057" Region="糟粕之域" y="450.00" /><text y="450.00" x="850.00" id="16657">7-YHRX</text><rect Type="system" x="950.00" id="16659" height="5.00" width="5.00" Name="V3P-AZ" ID="30001084" Region="糟粕之域" y="380.00" /><text y="380.00" x="950.00" id="16660">V3P-AZ</text><line style="stroke:blue;fill:blue;" id="16662" x2="50.00" x1="50.00" y1="380.00" y2="280.00" /><line style="stroke:blue;fill:blue;" id="16663" x2="78.09" x1="50.00" y1="380.00" y2="420.96" /><line style="stroke:blue;fill:blue;" id="16664" x2="50.00" x1="50.00" y1="280.00" y2="220.00" /><line style="stroke:blue;fill:blue;" id="16665" x2="50.00" x1="50.00" y1="280.00" y2="380.00" /><line style="stroke:blue;fill:blue;" id="16666" x2="120.00" x1="50.00" y1="220.00" y2="150.00" /><line style="stroke:blue;fill:blue;" id="16667" x2="50.00" x1="50.00" y1="220.00" y2="280.00" /><line style="stroke:blue;fill:blue;" id="16668" x2="180.00" x1="78.09" y1="420.96" y2="424.50" /><line style="stroke:blue;fill:blue;" id="16669" x2="121.91" x1="78.09" y1="420.96" y2="399.04" /><line style="stroke:blue;fill:blue;" id="16670" x2="50.00" x1="78.09" y1="420.96" y2="380.00" /><line style="stroke:blue;fill:blue;" id="16671" x2="150.00" x1="78.09" y1="420.96" y2="480.00" /><line style="stroke:blue;fill:blue;" id="16672" x2="180.00" x1="121.91" y1="399.04" y2="375.50" /><line style="stroke:blue;fill:blue;" id="16673" x2="180.00" x1="121.91" y1="399.04" y2="424.50" /><line style="stroke:blue;fill:blue;" id="16674" x2="78.09" x1="121.91" y1="399.04" y2="420.96" /><line style="stroke:blue;fill:blue;" id="16675" x2="100.00" x1="120.00" y1="100.00" y2="50.00" /><line style="stroke:blue;fill:blue;" id="16676" x2="50.00" x1="120.00" y1="100.00" y2="100.00" /><line style="stroke:blue;fill:blue;" id="16677" x2="120.00" x1="120.00" y1="100.00" y2="150.00" /><line style="stroke:blue;fill:blue;" id="16678" x2="250.00" x1="120.00" y1="150.00" y2="100.00" /><line style="stroke:blue;fill:blue;" id="16679" x2="120.00" x1="120.00" y1="150.00" y2="100.00" /><line style="stroke:blue;fill:blue;" id="16680" x2="50.00" x1="120.00" y1="150.00" y2="150.00" /><line style="stroke:blue;fill:blue;" id="16681" x2="50.00" x1="120.00" y1="150.00" y2="220.00" /><line style="stroke:blue;fill:blue;" id="16682" x2="180.00" x1="150.00" y1="480.00" y2="424.50" /><line style="stroke:blue;fill:blue;" id="16683" x2="78.09" x1="150.00" y1="480.00" y2="420.96" /><line style="stroke:blue;fill:blue;" id="16684" x2="190.00" x1="150.00" y1="480.00" y2="580.00" /><line style="stroke:blue;fill:blue;" id="16685" x2="180.00" x1="180.00" y1="424.50" y2="375.50" /><line style="stroke:blue;fill:blue;" id="16686" x2="121.91" x1="180.00" y1="424.50" y2="399.04" /><line style="stroke:blue;fill:blue;" id="16687" x2="78.09" x1="180.00" y1="424.50" y2="420.96" /><line style="stroke:blue;fill:blue;" id="16688" x2="150.00" x1="180.00" y1="424.50" y2="480.00" /><line style="stroke:blue;fill:blue;" id="16689" x2="200.00" x1="180.00" y1="375.50" y2="320.00" /><line style="stroke:blue;fill:blue;" id="16690" x2="180.00" x1="180.00" y1="375.50" y2="424.50" /><line style="stroke:blue;fill:blue;" id="16691" x2="121.91" x1="180.00" y1="375.50" y2="399.04" /><line style="stroke:blue;fill:blue;" id="16692" x2="150.00" x1="190.00" y1="580.00" y2="480.00" /><line style="stroke:blue;fill:blue;" id="16693" x2="240.00" x1="190.00" y1="580.00" y2="600.00" /><line style="stroke:blue;fill:blue;" id="16694" x2="240.00" x1="190.00" y1="580.00" y2="730.00" /><line style="stroke:blue;fill:blue;" id="16695" x2="250.00" x1="200.00" y1="320.00" y2="300.00" /><line style="stroke:blue;fill:blue;" id="16696" x2="180.00" x1="200.00" y1="320.00" y2="375.50" /><line style="stroke:blue;fill:blue;" id="16697" x2="280.00" x1="250.00" y1="100.00" y2="50.00" /><line style="stroke:blue;fill:blue;" id="16698" x2="320.00" x1="250.00" y1="100.00" y2="80.00" /><line style="stroke:blue;fill:blue;" id="16699" x2="120.00" x1="250.00" y1="100.00" y2="150.00" /><line style="stroke:blue;fill:blue;" id="16700" x2="250.00" x1="280.00" y1="50.00" y2="0.00" /><line style="stroke:blue;fill:blue;" id="16701" x2="250.00" x1="280.00" y1="50.00" y2="100.00" /><line style="stroke:blue;fill:blue;" id="16702" x2="320.00" x1="280.00" y1="50.00" y2="80.00" /><line style="stroke:blue;fill:blue;" id="16703" x2="440.00" x1="240.00" y1="730.00" y2="600.00" /><line style="stroke:blue;fill:blue;" id="16704" x2="240.00" x1="240.00" y1="730.00" y2="600.00" /><line style="stroke:blue;fill:blue;" id="16705" x2="290.00" x1="240.00" y1="730.00" y2="650.00" /><line style="stroke:blue;fill:blue;" id="16706" x2="190.00" x1="240.00" y1="730.00" y2="580.00" /><line style="stroke:blue;fill:blue;" id="16707" x2="320.00" x1="270.00" y1="470.00" y2="375.50" /><line style="stroke:blue;fill:blue;" id="16708" x2="320.00" x1="270.00" y1="470.00" y2="424.50" /><line style="stroke:blue;fill:blue;" id="16709" x2="400.00" x1="270.00" y1="470.00" y2="420.00" /><line style="stroke:blue;fill:blue;" id="16710" x2="400.00" x1="270.00" y1="470.00" y2="480.00" /><line style="stroke:blue;fill:blue;" id="16711" x2="320.00" x1="270.00" y1="470.00" y2="490.00" /><line style="stroke:blue;fill:blue;" id="16712" x2="440.00" x1="240.00" y1="600.00" y2="600.00" /><line style="stroke:blue;fill:blue;" id="16713" x2="290.00" x1="240.00" y1="600.00" y2="650.00" /><line style="stroke:blue;fill:blue;" id="16714" x2="240.00" x1="240.00" y1="600.00" y2="730.00" /><line style="stroke:blue;fill:blue;" id="16715" x2="190.00" x1="240.00" y1="600.00" y2="580.00" /><line style="stroke:blue;fill:blue;" id="16716" x2="350.00" x1="250.00" y1="300.00" y2="280.00" /><line style="stroke:blue;fill:blue;" id="16717" x2="200.00" x1="250.00" y1="300.00" y2="320.00" /><line style="stroke:blue;fill:blue;" id="16718" x2="320.00" x1="250.00" y1="300.00" y2="375.50" /><line style="stroke:blue;fill:blue;" id="16719" x2="240.00" x1="290.00" y1="650.00" y2="600.00" /><line style="stroke:blue;fill:blue;" id="16720" x2="240.00" x1="290.00" y1="650.00" y2="730.00" /><line style="stroke:blue;fill:blue;" id="16721" x2="340.00" x1="290.00" y1="650.00" y2="620.00" /><line style="stroke:blue;fill:blue;" id="16722" x2="280.00" x1="320.00" y1="80.00" y2="50.00" /><line style="stroke:blue;fill:blue;" id="16723" x2="250.00" x1="320.00" y1="80.00" y2="100.00" /><line style="stroke:blue;fill:blue;" id="16724" x2="420.00" x1="320.00" y1="80.00" y2="50.00" /><line style="stroke:blue;fill:blue;" id="16725" x2="270.00" x1="320.00" y1="490.00" y2="470.00" /><line style="stroke:blue;fill:blue;" id="16726" x2="400.00" x1="320.00" y1="490.00" y2="480.00" /><line style="stroke:blue;fill:blue;" id="16727" x2="250.00" x1="320.00" y1="375.50" y2="300.00" /><line style="stroke:blue;fill:blue;" id="16728" x2="270.00" x1="320.00" y1="375.50" y2="470.00" /><line style="stroke:blue;fill:blue;" id="16729" x2="320.00" x1="320.00" y1="375.50" y2="424.50" /><line style="stroke:blue;fill:blue;" id="16730" x2="400.00" x1="320.00" y1="375.50" y2="420.00" /><line style="stroke:blue;fill:blue;" id="16731" x2="400.00" x1="320.00" y1="375.50" y2="350.00" /><line style="stroke:blue;fill:blue;" id="16732" x2="320.00" x1="320.00" y1="424.50" y2="375.50" /><line style="stroke:blue;fill:blue;" id="16733" x2="270.00" x1="320.00" y1="424.50" y2="470.00" /><line style="stroke:blue;fill:blue;" id="16734" x2="400.00" x1="320.00" y1="424.50" y2="420.00" /><line style="stroke:blue;fill:blue;" id="16735" x2="400.00" x1="350.00" y1="280.00" y2="280.00" /><line style="stroke:blue;fill:blue;" id="16736" x2="250.00" x1="350.00" y1="280.00" y2="300.00" /><line style="stroke:blue;fill:blue;" id="16737" x2="290.00" x1="340.00" y1="620.00" y2="650.00" /><line style="stroke:blue;fill:blue;" id="16738" x2="420.00" x1="350.00" y1="200.00" y2="220.00" /><line style="stroke:blue;fill:blue;" id="16739" x2="320.00" x1="400.00" y1="420.00" y2="375.50" /><line style="stroke:blue;fill:blue;" id="16740" x2="270.00" x1="400.00" y1="420.00" y2="470.00" /><line style="stroke:blue;fill:blue;" id="16741" x2="320.00" x1="400.00" y1="420.00" y2="424.50" /><line style="stroke:blue;fill:blue;" id="16742" x2="400.00" x1="400.00" y1="420.00" y2="480.00" /><line style="stroke:blue;fill:blue;" id="16743" x2="400.00" x1="400.00" y1="420.00" y2="350.00" /><line style="stroke:blue;fill:blue;" id="16744" x2="320.00" x1="400.00" y1="350.00" y2="375.50" /><line style="stroke:blue;fill:blue;" id="16745" x2="400.00" x1="400.00" y1="350.00" y2="420.00" /><line style="stroke:blue;fill:blue;" id="16746" x2="480.00" x1="400.00" y1="280.00" y2="280.00" /><line style="stroke:blue;fill:blue;" id="16747" x2="350.00" x1="400.00" y1="280.00" y2="280.00" /><line style="stroke:blue;fill:blue;" id="16748" x2="530.00" x1="400.00" y1="480.00" y2="430.00" /><line style="stroke:blue;fill:blue;" id="16749" x2="270.00" x1="400.00" y1="480.00" y2="470.00" /><line style="stroke:blue;fill:blue;" id="16750" x2="400.00" x1="400.00" y1="480.00" y2="420.00" /><line style="stroke:blue;fill:blue;" id="16751" x2="320.00" x1="400.00" y1="480.00" y2="490.00" /><line style="stroke:blue;fill:blue;" id="16752" x2="480.00" x1="420.00" y1="220.00" y2="280.00" /><line style="stroke:blue;fill:blue;" id="16753" x2="499.04" x1="420.00" y1="220.00" y2="221.91" /><line style="stroke:blue;fill:blue;" id="16754" x2="350.00" x1="420.00" y1="220.00" y2="200.00" /><line style="stroke:blue;fill:blue;" id="16755" x2="320.00" x1="420.00" y1="50.00" y2="80.00" /><line style="stroke:blue;fill:blue;" id="16756" x2="520.00" x1="420.00" y1="50.00" y2="40.00" /><line style="stroke:blue;fill:blue;" id="16757" x2="520.00" x1="440.00" y1="600.00" y2="600.00" /><line style="stroke:blue;fill:blue;" id="16758" x2="240.00" x1="440.00" y1="600.00" y2="600.00" /><line style="stroke:blue;fill:blue;" id="16759" x2="240.00" x1="440.00" y1="600.00" y2="730.00" /><line style="stroke:blue;fill:blue;" id="16760" x2="400.00" x1="480.00" y1="280.00" y2="280.00" /><line style="stroke:blue;fill:blue;" id="16761" x2="420.00" x1="480.00" y1="280.00" y2="220.00" /><line style="stroke:blue;fill:blue;" id="16762" x2="499.04" x1="480.00" y1="280.00" y2="221.91" /><line style="stroke:blue;fill:blue;" id="16763" x2="550.00" x1="480.00" y1="280.00" y2="300.00" /><line style="stroke:blue;fill:blue;" id="16764" x2="550.00" x1="480.00" y1="120.00" y2="130.00" /><line style="stroke:blue;fill:blue;" id="16765" x2="480.00" x1="499.04" y1="221.91" y2="280.00" /><line style="stroke:blue;fill:blue;" id="16766" x2="420.00" x1="499.04" y1="221.91" y2="220.00" /><line style="stroke:blue;fill:blue;" id="16767" x2="578.09" x1="520.96" y1="178.09" y2="220.96" /><line style="stroke:blue;fill:blue;" id="16768" x2="560.00" x1="520.00" y1="40.00" y2="80.00" /><line style="stroke:blue;fill:blue;" id="16769" x2="420.00" x1="520.00" y1="40.00" y2="50.00" /><line style="stroke:blue;fill:blue;" id="16770" x2="600.00" x1="520.00" y1="40.00" y2="50.00" /><line style="stroke:blue;fill:blue;" id="16771" x2="600.00" x1="520.00" y1="600.00" y2="520.00" /><line style="stroke:blue;fill:blue;" id="16772" x2="440.00" x1="520.00" y1="600.00" y2="600.00" /><line style="stroke:blue;fill:blue;" id="16773" x2="550.00" x1="560.00" y1="80.00" y2="130.00" /><line style="stroke:blue;fill:blue;" id="16774" x2="520.00" x1="560.00" y1="80.00" y2="40.00" /><line style="stroke:blue;fill:blue;" id="16775" x2="600.00" x1="560.00" y1="80.00" y2="50.00" /><line style="stroke:blue;fill:blue;" id="16776" x2="580.00" x1="550.00" y1="130.00" y2="170.00" /><line style="stroke:blue;fill:blue;" id="16777" x2="480.00" x1="550.00" y1="130.00" y2="120.00" /><line style="stroke:blue;fill:blue;" id="16778" x2="560.00" x1="550.00" y1="130.00" y2="80.00" /><line style="stroke:blue;fill:blue;" id="16779" x2="480.00" x1="550.00" y1="300.00" y2="280.00" /><line style="stroke:blue;fill:blue;" id="16780" x2="680.00" x1="550.00" y1="300.00" y2="350.00" /><line style="stroke:blue;fill:blue;" id="16781" x2="578.09" x1="550.00" y1="300.00" y2="220.96" /><line style="stroke:blue;fill:blue;" id="16782" x2="550.00" x1="580.00" y1="170.00" y2="130.00" /><line style="stroke:blue;fill:blue;" id="16783" x2="578.09" x1="580.00" y1="170.00" y2="220.96" /><line style="stroke:blue;fill:blue;" id="16784" x2="621.91" x1="578.09" y1="220.96" y2="199.04" /><line style="stroke:blue;fill:blue;" id="16785" x2="580.00" x1="578.09" y1="220.96" y2="170.00" /><line style="stroke:blue;fill:blue;" id="16786" x2="550.00" x1="578.09" y1="220.96" y2="300.00" /><line style="stroke:blue;fill:blue;" id="16787" x2="520.96" x1="578.09" y1="220.96" y2="178.09" /><line style="stroke:blue;fill:blue;" id="16788" x2="682.32" x1="600.00" y1="520.00" y2="497.68" /><line style="stroke:blue;fill:blue;" id="16789" x2="520.00" x1="600.00" y1="520.00" y2="600.00" /><line style="stroke:blue;fill:blue;" id="16790" x2="560.00" x1="600.00" y1="50.00" y2="80.00" /><line style="stroke:blue;fill:blue;" id="16791" x2="520.00" x1="600.00" y1="50.00" y2="40.00" /><line style="stroke:blue;fill:blue;" id="16792" x2="720.00" x1="600.00" y1="50.00" y2="50.00" /><line style="stroke:blue;fill:blue;" id="16793" x2="720.00" x1="620.00" y1="700.00" y2="750.00" /><line style="stroke:blue;fill:blue;" id="16794" x2="720.00" x1="620.00" y1="700.00" y2="650.00" /><line style="stroke:blue;fill:blue;" id="16795" x2="680.00" x1="620.00" y1="700.00" y2="700.00" /><line style="stroke:blue;fill:blue;" id="16796" x2="682.32" x1="647.68" y1="532.32" y2="497.68" /><line style="stroke:blue;fill:blue;" id="16797" x2="700.00" x1="647.68" y1="532.32" y2="550.00" /><line style="stroke:blue;fill:blue;" id="16798" x2="580.00" x1="650.00" y1="600.00" y2="600.00" /><line style="stroke:blue;fill:blue;" id="16799" x2="750.00" x1="650.00" y1="600.00" y2="600.00" /><line style="stroke:blue;fill:blue;" id="16800" x2="682.32" x1="670.00" y1="450.00" y2="497.68" /><line style="stroke:blue;fill:blue;" id="16801" x2="550.00" x1="680.00" y1="350.00" y2="300.00" /><line style="stroke:blue;fill:blue;" id="16802" x2="750.00" x1="680.00" y1="350.00" y2="400.00" /><line style="stroke:blue;fill:blue;" id="16803" x2="700.00" x1="680.00" y1="350.00" y2="300.00" /><line style="stroke:blue;fill:blue;" id="16804" x2="750.00" x1="682.32" y1="497.68" y2="500.00" /><line style="stroke:blue;fill:blue;" id="16805" x2="600.00" x1="682.32" y1="497.68" y2="520.00" /><line style="stroke:blue;fill:blue;" id="16806" x2="670.00" x1="682.32" y1="497.68" y2="450.00" /><line style="stroke:blue;fill:blue;" id="16807" x2="750.00" x1="682.32" y1="497.68" y2="450.00" /><line style="stroke:blue;fill:blue;" id="16808" x2="647.68" x1="682.32" y1="497.68" y2="532.32" /><line style="stroke:blue;fill:blue;" id="16809" x2="700.00" x1="682.32" y1="497.68" y2="550.00" /><line style="stroke:blue;fill:blue;" id="16810" x2="620.00" x1="680.00" y1="700.00" y2="700.00" /><line style="stroke:blue;fill:blue;" id="16811" x2="720.00" x1="680.00" y1="700.00" y2="750.00" /><line style="stroke:blue;fill:blue;" id="16812" x2="720.00" x1="680.00" y1="700.00" y2="650.00" /><line style="stroke:blue;fill:blue;" id="16813" x2="750.00" x1="700.00" y1="550.00" y2="500.00" /><line style="stroke:blue;fill:blue;" id="16814" x2="682.32" x1="700.00" y1="550.00" y2="497.68" /><line style="stroke:blue;fill:blue;" id="16815" x2="647.68" x1="700.00" y1="550.00" y2="532.32" /><line style="stroke:blue;fill:blue;" id="16816" x2="680.00" x1="700.00" y1="300.00" y2="350.00" /><line style="stroke:blue;fill:blue;" id="16817" x2="600.00" x1="720.00" y1="50.00" y2="50.00" /><line style="stroke:blue;fill:blue;" id="16818" x2="800.96" x1="720.00" y1="50.00" y2="78.09" /><line style="stroke:blue;fill:blue;" id="16819" x2="800.00" x1="720.00" y1="750.00" y2="750.00" /><line style="stroke:blue;fill:blue;" id="16820" x2="620.00" x1="720.00" y1="750.00" y2="700.00" /><line style="stroke:blue;fill:blue;" id="16821" x2="720.00" x1="720.00" y1="750.00" y2="650.00" /><line style="stroke:blue;fill:blue;" id="16822" x2="680.00" x1="720.00" y1="750.00" y2="700.00" /><line style="stroke:blue;fill:blue;" id="16823" x2="800.00" x1="720.00" y1="650.00" y2="650.00" /><line style="stroke:blue;fill:blue;" id="16824" x2="750.00" x1="720.00" y1="650.00" y2="600.00" /><line style="stroke:blue;fill:blue;" id="16825" x2="620.00" x1="720.00" y1="650.00" y2="700.00" /><line style="stroke:blue;fill:blue;" id="16826" x2="720.00" x1="720.00" y1="650.00" y2="750.00" /><line style="stroke:blue;fill:blue;" id="16827" x2="680.00" x1="720.00" y1="650.00" y2="700.00" /><line style="stroke:blue;fill:blue;" id="16828" x2="650.00" x1="750.00" y1="600.00" y2="600.00" /><line style="stroke:blue;fill:blue;" id="16829" x2="720.00" x1="750.00" y1="600.00" y2="650.00" /><line style="stroke:blue;fill:blue;" id="16830" x2="750.00" x1="750.00" y1="600.00" y2="500.00" /><line style="stroke:blue;fill:blue;" id="16831" x2="750.00" x1="750.00" y1="500.00" y2="600.00" /><line style="stroke:blue;fill:blue;" id="16832" x2="682.32" x1="750.00" y1="500.00" y2="497.68" /><line style="stroke:blue;fill:blue;" id="16833" x2="750.00" x1="750.00" y1="500.00" y2="450.00" /><line style="stroke:blue;fill:blue;" id="16834" x2="700.00" x1="750.00" y1="500.00" y2="550.00" /><line style="stroke:blue;fill:blue;" id="16835" x2="750.00" x1="750.00" y1="450.00" y2="400.00" /><line style="stroke:blue;fill:blue;" id="16836" x2="750.00" x1="750.00" y1="450.00" y2="500.00" /><line style="stroke:blue;fill:blue;" id="16837" x2="682.32" x1="750.00" y1="450.00" y2="497.68" /><line style="stroke:blue;fill:blue;" id="16838" x2="850.00" x1="750.00" y1="400.00" y2="450.00" /><line style="stroke:blue;fill:blue;" id="16839" x2="680.00" x1="750.00" y1="400.00" y2="350.00" /><line style="stroke:blue;fill:blue;" id="16840" x2="846.08" x1="750.00" y1="400.00" y2="353.83" /><line style="stroke:blue;fill:blue;" id="16841" x2="750.00" x1="750.00" y1="400.00" y2="450.00" /><line style="stroke:blue;fill:blue;" id="16842" x2="800.96" x1="779.04" y1="121.91" y2="78.09" /><line style="stroke:blue;fill:blue;" id="16843" x2="800.96" x1="780.00" y1="20.00" y2="78.09" /><line style="stroke:blue;fill:blue;" id="16844" x2="720.00" x1="800.96" y1="78.09" y2="50.00" /><line style="stroke:blue;fill:blue;" id="16845" x2="779.04" x1="800.96" y1="78.09" y2="121.91" /><line style="stroke:blue;fill:blue;" id="16846" x2="850.00" x1="800.96" y1="78.09" y2="80.00" /><line style="stroke:blue;fill:blue;" id="16847" x2="780.00" x1="800.96" y1="78.09" y2="20.00" /><line style="stroke:blue;fill:blue;" id="16848" x2="881.93" x1="850.00" y1="280.00" y2="320.44" /><line style="stroke:blue;fill:blue;" id="16849" x2="950.00" x1="846.08" y1="353.83" y2="380.00" /><line style="stroke:blue;fill:blue;" id="16850" x2="881.93" x1="846.08" y1="353.83" y2="320.44" /><line style="stroke:blue;fill:blue;" id="16851" x2="750.00" x1="846.08" y1="353.83" y2="400.00" /><line style="stroke:blue;fill:blue;" id="16852" x2="800.96" x1="850.00" y1="80.00" y2="78.09" /><line style="stroke:blue;fill:blue;" id="16853" x2="850.00" x1="850.00" y1="80.00" y2="20.00" /><line style="stroke:blue;fill:blue;" id="16854" x2="920.00" x1="850.00" y1="80.00" y2="50.00" /><line style="stroke:blue;fill:blue;" id="16855" x2="850.00" x1="850.00" y1="20.00" y2="80.00" /><line style="stroke:blue;fill:blue;" id="16856" x2="901.99" x1="881.93" y1="320.44" y2="275.73" /><line style="stroke:blue;fill:blue;" id="16857" x2="850.00" x1="881.93" y1="320.44" y2="280.00" /><line style="stroke:blue;fill:blue;" id="16858" x2="846.08" x1="881.93" y1="320.44" y2="353.83" /><line style="stroke:blue;fill:blue;" id="16859" x2="881.93" x1="901.99" y1="275.73" y2="320.44" /><line style="stroke:blue;fill:blue;" id="16860" x2="919.12" x1="901.99" y1="275.73" y2="221.20" /><line style="stroke:blue;fill:blue;" id="16861" x2="850.00" x1="920.00" y1="50.00" y2="80.00" /><line style="stroke:blue;fill:blue;" id="16862" x2="980.00" x1="920.00" y1="50.00" y2="20.00" /><line style="stroke:blue;fill:blue;" id="16863" x2="901.99" x1="919.12" y1="221.20" y2="275.73" /><line style="stroke:blue;fill:blue;" id="16864" x2="948.03" x1="919.12" y1="221.20" y2="181.64" /><line style="stroke:blue;fill:blue;" id="16865" x2="919.12" x1="948.03" y1="181.64" y2="221.20" /><line style="stroke:blue;fill:blue;" id="16866" x2="982.85" x1="948.03" y1="181.64" y2="147.16" /><line style="stroke:blue;fill:blue;" id="16867" x2="948.03" x1="982.85" y1="147.16" y2="181.64" /><line style="stroke:blue;fill:blue;" id="16868" x2="920.00" x1="980.00" y1="20.00" y2="50.00" /><line style="stroke:blue;fill:blue;" id="16869" x2="120.00" x1="50.00" y1="100.00" y2="100.00" /><line style="stroke:blue;fill:blue;" id="16870" x2="50.00" x1="50.00" y1="100.00" y2="150.00" /><line style="stroke:blue;fill:blue;" id="16871" x2="50.00" x1="50.00" y1="150.00" y2="100.00" /><line style="stroke:blue;fill:blue;" id="16872" x2="120.00" x1="50.00" y1="150.00" y2="150.00" /><line style="stroke:blue;fill:blue;" id="16873" x2="120.00" x1="100.00" y1="50.00" y2="100.00" /><line style="stroke:blue;fill:blue;" id="16874" x2="280.00" x1="250.00" y1="0.00" y2="50.00" /><line style="stroke:blue;fill:blue;" id="16875" x2="400.00" x1="530.00" y1="430.00" y2="480.00" /><line style="stroke:blue;fill:blue;" id="16876" x2="650.00" x1="580.00" y1="600.00" y2="600.00" /><line style="stroke:blue;fill:blue;" id="16877" x2="578.09" x1="621.91" y1="199.04" y2="220.96" /><line style="stroke:blue;fill:blue;" id="16878" x2="720.00" x1="800.00" y1="650.00" y2="650.00" /><line style="stroke:blue;fill:blue;" id="16879" x2="720.00" x1="800.00" y1="750.00" y2="750.00" /><line style="stroke:blue;fill:blue;" id="16880" x2="750.00" x1="850.00" y1="450.00" y2="400.00" /><line style="stroke:blue;fill:blue;" id="16881" x2="846.08" x1="950.00" y1="380.00" y2="353.83" /></svg>
