<?xml version="1.0" standalone="yes"?><!DOCTYPE svg PUBLIC "-//W3C//DTD SVG 1.1//EN" "http://www.w3.org/Graphics/SVG/1.1/DTD/svg11.dtd"[]><svg width="1050.00" height="800.00" id="16882" xmlns="http://www.w3.org/2000/svg" xmlns:xlink="http://www.w3.org/1999/xlink"><rect Type="system" x="20.00" id="16883" height="5.00" width="5.00" Name="勒达" ID="30003929" Region="卡尼迪" y="280.00" /><text y="280.00" x="20.00" id="16884">勒达</text><rect Type="system" x="50.00" id="16886" height="5.00" width="5.00" Name="库里" ID="30003926" Region="卡尼迪" y="350.00" /><text y="350.00" x="50.00" id="16887">库里</text><rect Type="system" x="50.00" id="16889" height="5.00" width="5.00" Name="代莫罕" ID="30003924" Region="卡尼迪" y="400.00" /><text y="400.00" x="50.00" id="16890">代莫罕</text><rect Type="system" x="47.68" id="16892" height="5.00" width="5.00" Name="卡贝基" ID="30003934" Region="卡尼迪" y="497.68" /><text y="497.68" x="47.68" id="16893">卡贝基</text><rect Type="system" x="79.04" id="16895" height="5.00" width="5.00" Name="拉菲姆" ID="30003941" Region="卡尼迪" y="78.09" /><text y="78.09" x="79.04" id="16896">拉菲姆</text><rect Type="system" x="82.32" id="16898" height="5.00" width="5.00" Name="迪姆但" ID="30003932" Region="卡尼迪" y="532.32" /><text y="532.32" x="82.32" id="16899">迪姆但</text><rect Type="system" x="80.00" id="16901" height="5.00" width="5.00" Name="伊巴尼" ID="30003933" Region="卡尼迪" y="600.00" /><text y="600.00" x="80.00" id="16902">伊巴尼</text><rect Type="system" x="100.96" id="16904" height="5.00" width="5.00" Name="博特" ID="30003940" Region="卡尼迪" y="121.91" /><text y="121.91" x="100.96" id="16905">博特</text><rect Type="system" x="100.00" id="16907" height="5.00" width="5.00" Name="那吉斯" ID="30003936" Region="卡尼迪" y="180.00" /><text y="180.00" x="100.00" id="16908">那吉斯</text><rect Type="system" x="100.00" id="16910" height="5.00" width="5.00" Name="泽法恩" ID="30003928" Region="卡尼迪" y="250.00" /><text y="250.00" x="100.00" id="16911">泽法恩</text><rect Type="system" x="100.00" id="16913" height="5.00" width="5.00" Name="扎赫费尤斯" ID="30003927" Region="卡尼迪" y="300.00" /><text y="300.00" x="100.00" id="16914">扎赫费尤斯</text><rect Type="system" x="100.00" id="16916" height="5.00" width="5.00" Name="齐提雅蒙" ID="30003925" Region="卡尼迪" y="350.00" /><text y="350.00" x="100.00" id="16917">齐提雅蒙</text><rect Type="system" x="150.00" id="16919" height="5.00" width="5.00" Name="南德扎" ID="30003923" Region="卡尼迪" y="400.00" /><text y="400.00" x="150.00" id="16920">南德扎</text><rect Type="system" x="147.68" id="16922" height="5.00" width="5.00" Name="各乌迪亚" ID="30003930" Region="卡尼迪" y="497.68" /><text y="497.68" x="147.68" id="16923">各乌迪亚</text><rect Type="system" x="150.00" id="16925" height="5.00" width="5.00" Name="法纳托尔" ID="30003938" Region="卡尼迪" y="100.00" /><text y="100.00" x="150.00" id="16926">法纳托尔</text><rect Type="system" x="180.00" id="16928" height="5.00" width="5.00" Name="赫泽勒" ID="30003937" Region="卡尼迪" y="150.00" /><text y="150.00" x="180.00" id="16929">赫泽勒</text><rect Type="system" x="180.00" id="16931" height="5.00" width="5.00" Name="基尔瑟姆" ID="30003939" Region="卡尼迪" y="200.00" /><text y="200.00" x="180.00" id="16932">基尔瑟姆</text><rect Type="system" x="182.32" id="16934" height="5.00" width="5.00" Name="萨瑟克" ID="30003931" Region="卡尼迪" y="532.32" /><text y="532.32" x="182.32" id="16935">萨瑟克</text><rect Type="system" x="180.00" id="16937" height="5.00" width="5.00" Name="依尔玛琳" ID="30003935" Region="卡尼迪" y="600.00" /><text y="600.00" x="180.00" id="16938">依尔玛琳</text><rect Type="system" x="220.00" id="16940" height="5.00" width="5.00" Name="巴拉塔尔" ID="30003920" Region="卡尼迪" y="450.00" /><text y="450.00" x="220.00" id="16941">巴拉塔尔</text><rect Type="system" x="250.00" id="16943" height="5.00" width="5.00" Name="西莫尼尔" ID="30003902" Region="卡尼迪" y="650.00" /><text y="650.00" x="250.00" id="16944">西莫尼尔</text><rect Type="system" x="250.00" id="16946" height="5.00" width="5.00" Name="阿茨厄" ID="30003921" Region="卡尼迪" y="350.00" /><text y="350.00" x="250.00" id="16947">阿茨厄</text><rect Type="system" x="280.00" id="16949" height="5.00" width="5.00" Name="埃什库" ID="30003919" Region="卡尼迪" y="450.00" /><text y="450.00" x="280.00" id="16950">埃什库</text><rect Type="system" x="300.00" id="16952" height="5.00" width="5.00" Name="尤普特" ID="30003901" Region="卡尼迪" y="520.00" /><text y="520.00" x="300.00" id="16953">尤普特</text><rect Type="system" x="300.00" id="16955" height="5.00" width="5.00" Name="哈卡纳" ID="30003918" Region="卡尼迪" y="400.00" /><text y="400.00" x="300.00" id="16956">哈卡纳</text><rect Type="system" x="320.00" id="16958" height="5.00" width="5.00" Name="瑟什拉" ID="30003898" Region="卡尼迪" y="620.00" /><text y="620.00" x="320.00" id="16959">瑟什拉</text><rect Type="system" x="350.00" id="16961" height="5.00" width="5.00" Name="阿玛菲" ID="30003917" Region="卡尼迪" y="450.00" /><text y="450.00" x="350.00" id="16962">阿玛菲</text><rect Type="system" x="350.00" id="16964" height="5.00" width="5.00" Name="纳赫米德尔" ID="30003922" Region="卡尼迪" y="380.00" /><text y="380.00" x="350.00" id="16965">纳赫米德尔</text><rect Type="system" x="350.00" id="16967" height="5.00" width="5.00" Name="哈姆" ID="30003900" Region="卡尼迪" y="500.00" /><text y="500.00" x="350.00" id="16968">哈姆</text><rect Type="system" x="350.00" id="16970" height="5.00" width="5.00" Name="维兹拉" ID="30003899" Region="卡尼迪" y="550.00" /><text y="550.00" x="350.00" id="16971">维兹拉</text><rect Type="system" x="380.00" id="16973" height="5.00" width="5.00" Name="盖溪" ID="30003897" Region="卡尼迪" y="600.00" /><text y="600.00" x="380.00" id="16974">盖溪</text><rect Type="system" x="410.00" id="16976" height="5.00" width="5.00" Name="克莱尼" ID="30003896" Region="卡尼迪" y="640.00" /><text y="640.00" x="410.00" id="16977">克莱尼</text><rect Type="system" x="450.00" id="16979" height="5.00" width="5.00" Name="波玛纳" ID="30003913" Region="卡尼迪" y="200.00" /><text y="200.00" x="450.00" id="16980">波玛纳</text><rect Type="system" x="470.00" id="16982" height="5.00" width="5.00" Name="巴什雅姆" ID="30003908" Region="卡尼迪" y="420.00" /><text y="420.00" x="470.00" id="16983">巴什雅姆</text><rect Type="system" x="499.04" id="16985" height="5.00" width="5.00" Name="达尼拉" ID="30003912" Region="卡尼迪" y="178.09" /><text y="178.09" x="499.04" id="16986">达尼拉</text><rect Type="system" x="520.00" id="16988" height="5.00" width="5.00" Name="查尔梅米" ID="30003905" Region="卡尼迪" y="400.00" /><text y="400.00" x="520.00" id="16989">查尔梅米</text><rect Type="system" x="520.00" id="16991" height="5.00" width="5.00" Name="帕尔瑟斯" ID="30003909" Region="卡尼迪" y="450.00" /><text y="450.00" x="520.00" id="16992">帕尔瑟斯</text><rect Type="system" x="520.00" id="16994" height="5.00" width="5.00" Name="巴拉那茨" ID="30003910" Region="卡尼迪" y="500.00" /><text y="500.00" x="520.00" id="16995">巴拉那茨</text><rect Type="system" x="520.96" id="16997" height="5.00" width="5.00" Name="奥勒杰特" ID="30003915" Region="卡尼迪" y="221.91" /><text y="221.91" x="520.96" id="16998">奥勒杰特</text><rect Type="system" x="490.00" id="17000" height="5.00" width="5.00" Name="埃什马瑞尔" ID="30003886" Region="卡尼迪" y="600.00" /><text y="600.00" x="490.00" id="17001">埃什马瑞尔</text><rect Type="system" x="520.00" id="17003" height="5.00" width="5.00" Name="凯拉" ID="30003887" Region="卡尼迪" y="650.00" /><text y="650.00" x="520.00" id="17004">凯拉</text><rect Type="system" x="580.00" id="17006" height="5.00" width="5.00" Name="拉哈贝达" ID="30003914" Region="卡尼迪" y="150.00" /><text y="150.00" x="580.00" id="17007">拉哈贝达</text><rect Type="system" x="580.00" id="17009" height="5.00" width="5.00" Name="特格隆" ID="30003907" Region="卡尼迪" y="340.00" /><text y="340.00" x="580.00" id="17010">特格隆</text><rect Type="system" x="580.00" id="17012" height="5.00" width="5.00" Name="科尔" ID="30003904" Region="卡尼迪" y="400.00" /><text y="400.00" x="580.00" id="17013">科尔</text><rect Type="system" x="580.00" id="17015" height="5.00" width="5.00" Name="埃纳卡特" ID="30003903" Region="卡尼迪" y="450.00" /><text y="450.00" x="580.00" id="17016">埃纳卡特</text><rect Type="system" x="580.00" id="17018" height="5.00" width="5.00" Name="阿尔扎尼" ID="30003885" Region="卡尼迪" y="550.00" /><text y="550.00" x="580.00" id="17019">阿尔扎尼</text><rect Type="system" x="580.00" id="17021" height="5.00" width="5.00" Name="利勒拉" ID="30003916" Region="卡尼迪" y="250.00" /><text y="250.00" x="580.00" id="17022">利勒拉</text><rect Type="system" x="600.00" id="17024" height="5.00" width="5.00" Name="俄达尼" ID="30003911" Region="卡尼迪" y="200.00" /><text y="200.00" x="600.00" id="17025">俄达尼</text><rect Type="system" x="680.00" id="17027" height="5.00" width="5.00" Name="埃尔法" ID="30003892" Region="卡尼迪" y="680.00" /><text y="680.00" x="680.00" id="17028">埃尔法</text><rect Type="system" x="620.00" id="17030" height="5.00" width="5.00" Name="诺尔巴" ID="30003884" Region="卡尼迪" y="580.00" /><text y="580.00" x="620.00" id="17031">诺尔巴</text><rect Type="system" x="650.00" id="17033" height="5.00" width="5.00" Name="克博兹" ID="30003883" Region="卡尼迪" y="520.00" /><text y="520.00" x="650.00" id="17034">克博兹</text><rect Type="system" x="650.00" id="17036" height="5.00" width="5.00" Name="费尔巴" ID="30003906" Region="卡尼迪" y="450.00" /><text y="450.00" x="650.00" id="17037">费尔巴</text><rect Type="system" x="640.00" id="17039" height="5.00" width="5.00" Name="蒙尼尤库" ID="30003881" Region="卡尼迪" y="120.00" /><text y="120.00" x="640.00" id="17040">蒙尼尤库</text><rect Type="system" x="770.00" id="17042" height="5.00" width="5.00" Name="撒布斯" ID="30003894" Region="卡尼迪" y="660.00" /><text y="660.00" x="770.00" id="17043">撒布斯</text><rect Type="system" x="730.00" id="17045" height="5.00" width="5.00" Name="摩洛" ID="30003893" Region="卡尼迪" y="720.00" /><text y="720.00" x="730.00" id="17046">摩洛</text><rect Type="system" x="700.00" id="17048" height="5.00" width="5.00" Name="兰瑟茨" ID="30003882" Region="卡尼迪" y="500.00" /><text y="500.00" x="700.00" id="17049">兰瑟茨</text><rect Type="system" x="700.00" id="17051" height="5.00" width="5.00" Name="勒特卡" ID="30003880" Region="卡尼迪" y="80.00" /><text y="80.00" x="700.00" id="17052">勒特卡</text><rect Type="system" x="760.00" id="17054" height="5.00" width="5.00" Name="查什拉" ID="30003891" Region="卡尼迪" y="600.00" /><text y="600.00" x="760.00" id="17055">查什拉</text><rect Type="system" x="920.00" id="17057" height="5.00" width="5.00" Name="阿什伊" ID="30003890" Region="卡尼迪" y="660.00" /><text y="660.00" x="920.00" id="17058">阿什伊</text><rect Type="system" x="800.00" id="17060" height="5.00" width="5.00" Name="艾恩山" ID="30003895" Region="卡尼迪" y="720.00" /><text y="720.00" x="800.00" id="17061">艾恩山</text><rect Type="system" x="750.00" id="17063" height="5.00" width="5.00" Name="各茨提克" ID="30003871" Region="卡尼迪" y="200.00" /><text y="200.00" x="750.00" id="17064">各茨提克</text><rect Type="system" x="750.00" id="17066" height="5.00" width="5.00" Name="奥塞斯" ID="30003870" Region="卡尼迪" y="150.00" /><text y="150.00" x="750.00" id="17067">奥塞斯</text><rect Type="system" x="780.00" id="17069" height="5.00" width="5.00" Name="细莎伊" ID="30003875" Region="卡尼迪" y="250.00" /><text y="250.00" x="780.00" id="17070">细莎伊</text><rect Type="system" x="780.00" id="17072" height="5.00" width="5.00" Name="帕拉斯" ID="30003878" Region="卡尼迪" y="50.00" /><text y="50.00" x="780.00" id="17073">帕拉斯</text><rect Type="system" x="780.00" id="17075" height="5.00" width="5.00" Name="波卡" ID="30003866" Region="卡尼迪" y="450.00" /><text y="450.00" x="780.00" id="17076">波卡</text><rect Type="system" x="850.00" id="17078" height="5.00" width="5.00" Name="塔里达尔" ID="30003889" Region="卡尼迪" y="700.00" /><text y="700.00" x="850.00" id="17079">塔里达尔</text><rect Type="system" x="850.00" id="17081" height="5.00" width="5.00" Name="巴蒂维夫" ID="30003888" Region="卡尼迪" y="650.00" /><text y="650.00" x="850.00" id="17082">巴蒂维夫</text><rect Type="system" x="860.00" id="17084" height="5.00" width="5.00" Name="萨泽勒" ID="30003865" Region="卡尼迪" y="560.00" /><text y="560.00" x="860.00" id="17085">萨泽勒</text><rect Type="system" x="790.00" id="17087" height="5.00" width="5.00" Name="萨夫舍拉" ID="30003879" Region="卡尼迪" y="100.00" /><text y="100.00" x="790.00" id="17088">萨夫舍拉</text><rect Type="system" x="820.00" id="17090" height="5.00" width="5.00" Name="埃基尔" ID="30003862" Region="卡尼迪" y="400.00" /><text y="400.00" x="820.00" id="17091">埃基尔</text><rect Type="system" x="850.00" id="17093" height="5.00" width="5.00" Name="吉达利" ID="30003877" Region="卡尼迪" y="30.00" /><text y="30.00" x="850.00" id="17094">吉达利</text><rect Type="system" x="870.00" id="17096" height="5.00" width="5.00" Name="贾查努" ID="30003864" Region="卡尼迪" y="500.00" /><text y="500.00" x="870.00" id="17097">贾查努</text><rect Type="system" x="880.00" id="17099" height="5.00" width="5.00" Name="耶扎尔" ID="30003872" Region="卡尼迪" y="250.00" /><text y="250.00" x="880.00" id="17100">耶扎尔</text><rect Type="system" x="879.04" id="17102" height="5.00" width="5.00" Name="伊佩佛" ID="30003861" Region="卡尼迪" y="378.09" /><text y="378.09" x="879.04" id="17103">伊佩佛</text><rect Type="system" x="900.00" id="17105" height="5.00" width="5.00" Name="瑟尔萨瑟" ID="30003869" Region="卡尼迪" y="120.00" /><text y="120.00" x="900.00" id="17106">瑟尔萨瑟</text><rect Type="system" x="900.96" id="17108" height="5.00" width="5.00" Name="基塔里德" ID="30003860" Region="卡尼迪" y="421.91" /><text y="421.91" x="900.96" id="17109">基塔里德</text><rect Type="system" x="900.00" id="17111" height="5.00" width="5.00" Name="莫利亚" ID="30003876" Region="卡尼迪" y="20.00" /><text y="20.00" x="900.00" id="17112">莫利亚</text><rect Type="system" x="890.00" id="17114" height="5.00" width="5.00" Name="伊维卡姆" ID="30003867" Region="卡尼迪" y="180.00" /><text y="180.00" x="890.00" id="17115">伊维卡姆</text><rect Type="system" x="920.00" id="17117" height="5.00" width="5.00" Name="卡尼迪首星" ID="30003863" Region="卡尼迪" y="480.00" /><text y="480.00" x="920.00" id="17118">卡尼迪首星</text><rect Type="system" x="950.00" id="17120" height="5.00" width="5.00" Name="卡尔哈" ID="30003873" Region="卡尼迪" y="100.00" /><text y="100.00" x="950.00" id="17121">卡尔哈</text><rect Type="system" x="948.09" id="17123" height="5.00" width="5.00" Name="古索维巴" ID="30003858" Region="卡尼迪" y="399.04" /><text y="399.04" x="948.09" id="17124">古索维巴</text><rect Type="system" x="980.00" id="17126" height="5.00" width="5.00" Name="玛什塔蒙" ID="30003868" Region="卡尼迪" y="200.00" /><text y="200.00" x="980.00" id="17127">玛什塔蒙</text><rect Type="system" x="991.91" id="17129" height="5.00" width="5.00" Name="尼伊" ID="30003859" Region="卡尼迪" y="420.96" /><text y="420.96" x="991.91" id="17130">尼伊</text><rect Type="system" x="1000.00" id="17132" height="5.00" width="5.00" Name="赛罗提" ID="30003874" Region="卡尼迪" y="150.00" /><text y="150.00" x="1000.00" id="17133">赛罗提</text><rect Type="system" x="20.00" id="17135" height="5.00" width="5.00" Name="安特" ID="30004301" Region="艾里迪亚" y="50.00" /><text y="50.00" x="20.00" id="17136">安特</text><rect Type="system" x="350.00" id="17138" height="5.00" width="5.00" Name="埃巴特" ID="30005062" Region="柯埃佐" y="300.00" /><text y="300.00" x="350.00" id="17139">埃巴特</text><rect Type="system" x="440.00" id="17141" height="5.00" width="5.00" Name="A2-V27" ID="30003942" Region="逑瑞斯" y="730.00" /><text y="730.00" x="440.00" id="17142">A2-V27</text><rect Type="system" x="610.00" id="17144" height="5.00" width="5.00" Name="3-FKCZ" ID="30004019" Region="逑瑞斯" y="690.00" /><text y="690.00" x="610.00" id="17145">3-FKCZ</text><rect Type="system" x="600.00" id="17147" height="5.00" width="5.00" Name="库鲁" ID="30005050" Region="柯埃佐" y="60.00" /><text y="60.00" x="600.00" id="17148">库鲁</text><rect Type="system" x="750.00" id="17150" height="5.00" width="5.00" Name="HED-GP" ID="30001161" Region="卡彻" y="550.00" /><text y="550.00" x="750.00" id="17151">HED-GP</text><rect Type="system" x="840.00" id="17153" height="5.00" width="5.00" Name="马萨努" ID="30005041" Region="柯埃佐" y="160.00" /><text y="160.00" x="840.00" id="17154">马萨努</text><rect Type="system" x="980.00" id="17156" height="5.00" width="5.00" Name="纳奎格德" ID="30005043" Region="柯埃佐" y="20.00" /><text y="20.00" x="980.00" id="17157">纳奎格德</text><rect Type="system" x="1000.00" id="17159" height="5.00" width="5.00" Name="米迷梅" ID="30001691" Region="塔什蒙贡" y="320.00" /><text y="320.00" x="1000.00" id="17160">米迷梅</text><line style="stroke:blue;fill:blue;" id="17162" x2="100.00" x1="20.00" y1="280.00" y2="250.00" /><line style="stroke:blue;fill:blue;" id="17163" x2="100.00" x1="50.00" y1="350.00" y2="350.00" /><line style="stroke:blue;fill:blue;" id="17164" x2="150.00" x1="50.00" y1="400.00" y2="400.00" /><line style="stroke:blue;fill:blue;" id="17165" x2="82.32" x1="47.68" y1="497.68" y2="532.32" /><line style="stroke:blue;fill:blue;" id="17166" x2="100.96" x1="79.04" y1="78.09" y2="121.91" /><line style="stroke:blue;fill:blue;" id="17167" x2="20.00" x1="79.04" y1="78.09" y2="50.00" /><line style="stroke:blue;fill:blue;" id="17168" x2="147.68" x1="82.32" y1="532.32" y2="497.68" /><line style="stroke:blue;fill:blue;" id="17169" x2="182.32" x1="82.32" y1="532.32" y2="532.32" /><line style="stroke:blue;fill:blue;" id="17170" x2="80.00" x1="82.32" y1="532.32" y2="600.00" /><line style="stroke:blue;fill:blue;" id="17171" x2="47.68" x1="82.32" y1="532.32" y2="497.68" /><line style="stroke:blue;fill:blue;" id="17172" x2="82.32" x1="80.00" y1="600.00" y2="532.32" /><line style="stroke:blue;fill:blue;" id="17173" x2="180.00" x1="80.00" y1="600.00" y2="600.00" /><line style="stroke:blue;fill:blue;" id="17174" x2="100.00" x1="100.96" y1="121.91" y2="180.00" /><line style="stroke:blue;fill:blue;" id="17175" x2="150.00" x1="100.96" y1="121.91" y2="100.00" /><line style="stroke:blue;fill:blue;" id="17176" x2="79.04" x1="100.96" y1="121.91" y2="78.09" /><line style="stroke:blue;fill:blue;" id="17177" x2="100.00" x1="100.00" y1="180.00" y2="250.00" /><line style="stroke:blue;fill:blue;" id="17178" x2="180.00" x1="100.00" y1="180.00" y2="150.00" /><line style="stroke:blue;fill:blue;" id="17179" x2="180.00" x1="100.00" y1="180.00" y2="200.00" /><line style="stroke:blue;fill:blue;" id="17180" x2="100.96" x1="100.00" y1="180.00" y2="121.91" /><line style="stroke:blue;fill:blue;" id="17181" x2="100.00" x1="100.00" y1="250.00" y2="300.00" /><line style="stroke:blue;fill:blue;" id="17182" x2="20.00" x1="100.00" y1="250.00" y2="280.00" /><line style="stroke:blue;fill:blue;" id="17183" x2="100.00" x1="100.00" y1="250.00" y2="180.00" /><line style="stroke:blue;fill:blue;" id="17184" x2="100.00" x1="100.00" y1="300.00" y2="350.00" /><line style="stroke:blue;fill:blue;" id="17185" x2="100.00" x1="100.00" y1="300.00" y2="250.00" /><line style="stroke:blue;fill:blue;" id="17186" x2="150.00" x1="100.00" y1="350.00" y2="400.00" /><line style="stroke:blue;fill:blue;" id="17187" x2="50.00" x1="100.00" y1="350.00" y2="350.00" /><line style="stroke:blue;fill:blue;" id="17188" x2="100.00" x1="100.00" y1="350.00" y2="300.00" /><line style="stroke:blue;fill:blue;" id="17189" x2="220.00" x1="150.00" y1="400.00" y2="450.00" /><line style="stroke:blue;fill:blue;" id="17190" x2="50.00" x1="150.00" y1="400.00" y2="400.00" /><line style="stroke:blue;fill:blue;" id="17191" x2="100.00" x1="150.00" y1="400.00" y2="350.00" /><line style="stroke:blue;fill:blue;" id="17192" x2="220.00" x1="147.68" y1="497.68" y2="450.00" /><line style="stroke:blue;fill:blue;" id="17193" x2="182.32" x1="147.68" y1="497.68" y2="532.32" /><line style="stroke:blue;fill:blue;" id="17194" x2="82.32" x1="147.68" y1="497.68" y2="532.32" /><line style="stroke:blue;fill:blue;" id="17195" x2="180.00" x1="150.00" y1="100.00" y2="150.00" /><line style="stroke:blue;fill:blue;" id="17196" x2="100.96" x1="150.00" y1="100.00" y2="121.91" /><line style="stroke:blue;fill:blue;" id="17197" x2="100.00" x1="180.00" y1="150.00" y2="180.00" /><line style="stroke:blue;fill:blue;" id="17198" x2="150.00" x1="180.00" y1="150.00" y2="100.00" /><line style="stroke:blue;fill:blue;" id="17199" x2="100.00" x1="180.00" y1="200.00" y2="180.00" /><line style="stroke:blue;fill:blue;" id="17200" x2="147.68" x1="182.32" y1="532.32" y2="497.68" /><line style="stroke:blue;fill:blue;" id="17201" x2="82.32" x1="182.32" y1="532.32" y2="532.32" /><line style="stroke:blue;fill:blue;" id="17202" x2="180.00" x1="182.32" y1="532.32" y2="600.00" /><line style="stroke:blue;fill:blue;" id="17203" x2="182.32" x1="180.00" y1="600.00" y2="532.32" /><line style="stroke:blue;fill:blue;" id="17204" x2="80.00" x1="180.00" y1="600.00" y2="600.00" /><line style="stroke:blue;fill:blue;" id="17205" x2="280.00" x1="220.00" y1="450.00" y2="450.00" /><line style="stroke:blue;fill:blue;" id="17206" x2="150.00" x1="220.00" y1="450.00" y2="400.00" /><line style="stroke:blue;fill:blue;" id="17207" x2="147.68" x1="220.00" y1="450.00" y2="497.68" /><line style="stroke:blue;fill:blue;" id="17208" x2="320.00" x1="250.00" y1="650.00" y2="620.00" /><line style="stroke:blue;fill:blue;" id="17209" x2="300.00" x1="250.00" y1="350.00" y2="400.00" /><line style="stroke:blue;fill:blue;" id="17210" x2="350.00" x1="280.00" y1="450.00" y2="450.00" /><line style="stroke:blue;fill:blue;" id="17211" x2="220.00" x1="280.00" y1="450.00" y2="450.00" /><line style="stroke:blue;fill:blue;" id="17212" x2="350.00" x1="300.00" y1="520.00" y2="500.00" /><line style="stroke:blue;fill:blue;" id="17213" x2="350.00" x1="300.00" y1="400.00" y2="450.00" /><line style="stroke:blue;fill:blue;" id="17214" x2="250.00" x1="300.00" y1="400.00" y2="350.00" /><line style="stroke:blue;fill:blue;" id="17215" x2="380.00" x1="320.00" y1="620.00" y2="600.00" /><line style="stroke:blue;fill:blue;" id="17216" x2="250.00" x1="320.00" y1="620.00" y2="650.00" /><line style="stroke:blue;fill:blue;" id="17217" x2="350.00" x1="350.00" y1="450.00" y2="500.00" /><line style="stroke:blue;fill:blue;" id="17218" x2="300.00" x1="350.00" y1="450.00" y2="400.00" /><line style="stroke:blue;fill:blue;" id="17219" x2="280.00" x1="350.00" y1="450.00" y2="450.00" /><line style="stroke:blue;fill:blue;" id="17220" x2="350.00" x1="350.00" y1="450.00" y2="380.00" /><line style="stroke:blue;fill:blue;" id="17221" x2="350.00" x1="350.00" y1="380.00" y2="450.00" /><line style="stroke:blue;fill:blue;" id="17222" x2="350.00" x1="350.00" y1="380.00" y2="300.00" /><line style="stroke:blue;fill:blue;" id="17223" x2="350.00" x1="350.00" y1="500.00" y2="550.00" /><line style="stroke:blue;fill:blue;" id="17224" x2="300.00" x1="350.00" y1="500.00" y2="520.00" /><line style="stroke:blue;fill:blue;" id="17225" x2="350.00" x1="350.00" y1="500.00" y2="450.00" /><line style="stroke:blue;fill:blue;" id="17226" x2="380.00" x1="350.00" y1="550.00" y2="600.00" /><line style="stroke:blue;fill:blue;" id="17227" x2="350.00" x1="350.00" y1="550.00" y2="500.00" /><line style="stroke:blue;fill:blue;" id="17228" x2="410.00" x1="380.00" y1="600.00" y2="640.00" /><line style="stroke:blue;fill:blue;" id="17229" x2="320.00" x1="380.00" y1="600.00" y2="620.00" /><line style="stroke:blue;fill:blue;" id="17230" x2="350.00" x1="380.00" y1="600.00" y2="550.00" /><line style="stroke:blue;fill:blue;" id="17231" x2="490.00" x1="410.00" y1="640.00" y2="600.00" /><line style="stroke:blue;fill:blue;" id="17232" x2="380.00" x1="410.00" y1="640.00" y2="600.00" /><line style="stroke:blue;fill:blue;" id="17233" x2="499.04" x1="450.00" y1="200.00" y2="178.09" /><line style="stroke:blue;fill:blue;" id="17234" x2="520.96" x1="450.00" y1="200.00" y2="221.91" /><line style="stroke:blue;fill:blue;" id="17235" x2="520.00" x1="470.00" y1="420.00" y2="400.00" /><line style="stroke:blue;fill:blue;" id="17236" x2="520.00" x1="470.00" y1="420.00" y2="450.00" /><line style="stroke:blue;fill:blue;" id="17237" x2="600.00" x1="499.04" y1="178.09" y2="200.00" /><line style="stroke:blue;fill:blue;" id="17238" x2="450.00" x1="499.04" y1="178.09" y2="200.00" /><line style="stroke:blue;fill:blue;" id="17239" x2="580.00" x1="499.04" y1="178.09" y2="150.00" /><line style="stroke:blue;fill:blue;" id="17240" x2="580.00" x1="520.00" y1="400.00" y2="400.00" /><line style="stroke:blue;fill:blue;" id="17241" x2="470.00" x1="520.00" y1="400.00" y2="420.00" /><line style="stroke:blue;fill:blue;" id="17242" x2="520.00" x1="520.00" y1="400.00" y2="450.00" /><line style="stroke:blue;fill:blue;" id="17243" x2="580.00" x1="520.00" y1="450.00" y2="450.00" /><line style="stroke:blue;fill:blue;" id="17244" x2="520.00" x1="520.00" y1="450.00" y2="400.00" /><line style="stroke:blue;fill:blue;" id="17245" x2="470.00" x1="520.00" y1="450.00" y2="420.00" /><line style="stroke:blue;fill:blue;" id="17246" x2="520.00" x1="520.00" y1="450.00" y2="500.00" /><line style="stroke:blue;fill:blue;" id="17247" x2="520.00" x1="520.00" y1="500.00" y2="450.00" /><line style="stroke:blue;fill:blue;" id="17248" x2="450.00" x1="520.96" y1="221.91" y2="200.00" /><line style="stroke:blue;fill:blue;" id="17249" x2="580.00" x1="520.96" y1="221.91" y2="250.00" /><line style="stroke:blue;fill:blue;" id="17250" x2="580.00" x1="490.00" y1="600.00" y2="550.00" /><line style="stroke:blue;fill:blue;" id="17251" x2="520.00" x1="490.00" y1="600.00" y2="650.00" /><line style="stroke:blue;fill:blue;" id="17252" x2="410.00" x1="490.00" y1="600.00" y2="640.00" /><line style="stroke:blue;fill:blue;" id="17253" x2="490.00" x1="520.00" y1="650.00" y2="600.00" /><line style="stroke:blue;fill:blue;" id="17254" x2="440.00" x1="520.00" y1="650.00" y2="730.00" /><line style="stroke:blue;fill:blue;" id="17255" x2="600.00" x1="580.00" y1="150.00" y2="200.00" /><line style="stroke:blue;fill:blue;" id="17256" x2="499.04" x1="580.00" y1="150.00" y2="178.09" /><line style="stroke:blue;fill:blue;" id="17257" x2="580.00" x1="580.00" y1="340.00" y2="400.00" /><line style="stroke:blue;fill:blue;" id="17258" x2="580.00" x1="580.00" y1="340.00" y2="250.00" /><line style="stroke:blue;fill:blue;" id="17259" x2="580.00" x1="580.00" y1="400.00" y2="450.00" /><line style="stroke:blue;fill:blue;" id="17260" x2="520.00" x1="580.00" y1="400.00" y2="400.00" /><line style="stroke:blue;fill:blue;" id="17261" x2="580.00" x1="580.00" y1="400.00" y2="340.00" /><line style="stroke:blue;fill:blue;" id="17262" x2="580.00" x1="580.00" y1="450.00" y2="550.00" /><line style="stroke:blue;fill:blue;" id="17263" x2="580.00" x1="580.00" y1="450.00" y2="400.00" /><line style="stroke:blue;fill:blue;" id="17264" x2="650.00" x1="580.00" y1="450.00" y2="450.00" /><line style="stroke:blue;fill:blue;" id="17265" x2="520.00" x1="580.00" y1="450.00" y2="450.00" /><line style="stroke:blue;fill:blue;" id="17266" x2="650.00" x1="580.00" y1="550.00" y2="520.00" /><line style="stroke:blue;fill:blue;" id="17267" x2="490.00" x1="580.00" y1="550.00" y2="600.00" /><line style="stroke:blue;fill:blue;" id="17268" x2="580.00" x1="580.00" y1="550.00" y2="450.00" /><line style="stroke:blue;fill:blue;" id="17269" x2="580.00" x1="580.00" y1="250.00" y2="340.00" /><line style="stroke:blue;fill:blue;" id="17270" x2="600.00" x1="580.00" y1="250.00" y2="200.00" /><line style="stroke:blue;fill:blue;" id="17271" x2="520.96" x1="580.00" y1="250.00" y2="221.91" /><line style="stroke:blue;fill:blue;" id="17272" x2="640.00" x1="600.00" y1="200.00" y2="120.00" /><line style="stroke:blue;fill:blue;" id="17273" x2="499.04" x1="600.00" y1="200.00" y2="178.09" /><line style="stroke:blue;fill:blue;" id="17274" x2="580.00" x1="600.00" y1="200.00" y2="150.00" /><line style="stroke:blue;fill:blue;" id="17275" x2="580.00" x1="600.00" y1="200.00" y2="250.00" /><line style="stroke:blue;fill:blue;" id="17276" x2="760.00" x1="680.00" y1="680.00" y2="600.00" /><line style="stroke:blue;fill:blue;" id="17277" x2="730.00" x1="680.00" y1="680.00" y2="720.00" /><line style="stroke:blue;fill:blue;" id="17278" x2="770.00" x1="680.00" y1="680.00" y2="660.00" /><line style="stroke:blue;fill:blue;" id="17279" x2="610.00" x1="680.00" y1="680.00" y2="690.00" /><line style="stroke:blue;fill:blue;" id="17280" x2="650.00" x1="620.00" y1="580.00" y2="520.00" /><line style="stroke:blue;fill:blue;" id="17281" x2="750.00" x1="650.00" y1="520.00" y2="550.00" /><line style="stroke:blue;fill:blue;" id="17282" x2="700.00" x1="650.00" y1="520.00" y2="500.00" /><line style="stroke:blue;fill:blue;" id="17283" x2="620.00" x1="650.00" y1="520.00" y2="580.00" /><line style="stroke:blue;fill:blue;" id="17284" x2="580.00" x1="650.00" y1="520.00" y2="550.00" /><line style="stroke:blue;fill:blue;" id="17285" x2="580.00" x1="650.00" y1="450.00" y2="450.00" /><line style="stroke:blue;fill:blue;" id="17286" x2="700.00" x1="640.00" y1="120.00" y2="80.00" /><line style="stroke:blue;fill:blue;" id="17287" x2="600.00" x1="640.00" y1="120.00" y2="200.00" /><line style="stroke:blue;fill:blue;" id="17288" x2="600.00" x1="640.00" y1="120.00" y2="60.00" /><line style="stroke:blue;fill:blue;" id="17289" x2="760.00" x1="770.00" y1="660.00" y2="600.00" /><line style="stroke:blue;fill:blue;" id="17290" x2="680.00" x1="770.00" y1="660.00" y2="680.00" /><line style="stroke:blue;fill:blue;" id="17291" x2="680.00" x1="730.00" y1="720.00" y2="680.00" /><line style="stroke:blue;fill:blue;" id="17292" x2="800.00" x1="730.00" y1="720.00" y2="720.00" /><line style="stroke:blue;fill:blue;" id="17293" x2="780.00" x1="700.00" y1="500.00" y2="450.00" /><line style="stroke:blue;fill:blue;" id="17294" x2="650.00" x1="700.00" y1="500.00" y2="520.00" /><line style="stroke:blue;fill:blue;" id="17295" x2="780.00" x1="700.00" y1="80.00" y2="50.00" /><line style="stroke:blue;fill:blue;" id="17296" x2="640.00" x1="700.00" y1="80.00" y2="120.00" /><line style="stroke:blue;fill:blue;" id="17297" x2="850.00" x1="760.00" y1="600.00" y2="650.00" /><line style="stroke:blue;fill:blue;" id="17298" x2="680.00" x1="760.00" y1="600.00" y2="680.00" /><line style="stroke:blue;fill:blue;" id="17299" x2="770.00" x1="760.00" y1="600.00" y2="660.00" /><line style="stroke:blue;fill:blue;" id="17300" x2="850.00" x1="920.00" y1="660.00" y2="650.00" /><line style="stroke:blue;fill:blue;" id="17301" x2="850.00" x1="800.00" y1="720.00" y2="700.00" /><line style="stroke:blue;fill:blue;" id="17302" x2="730.00" x1="800.00" y1="720.00" y2="720.00" /><line style="stroke:blue;fill:blue;" id="17303" x2="750.00" x1="750.00" y1="200.00" y2="150.00" /><line style="stroke:blue;fill:blue;" id="17304" x2="780.00" x1="750.00" y1="200.00" y2="250.00" /><line style="stroke:blue;fill:blue;" id="17305" x2="900.00" x1="750.00" y1="150.00" y2="120.00" /><line style="stroke:blue;fill:blue;" id="17306" x2="750.00" x1="750.00" y1="150.00" y2="200.00" /><line style="stroke:blue;fill:blue;" id="17307" x2="880.00" x1="750.00" y1="150.00" y2="250.00" /><line style="stroke:blue;fill:blue;" id="17308" x2="820.00" x1="780.00" y1="250.00" y2="400.00" /><line style="stroke:blue;fill:blue;" id="17309" x2="750.00" x1="780.00" y1="250.00" y2="200.00" /><line style="stroke:blue;fill:blue;" id="17310" x2="850.00" x1="780.00" y1="50.00" y2="30.00" /><line style="stroke:blue;fill:blue;" id="17311" x2="790.00" x1="780.00" y1="50.00" y2="100.00" /><line style="stroke:blue;fill:blue;" id="17312" x2="700.00" x1="780.00" y1="50.00" y2="80.00" /><line style="stroke:blue;fill:blue;" id="17313" x2="820.00" x1="780.00" y1="450.00" y2="400.00" /><line style="stroke:blue;fill:blue;" id="17314" x2="700.00" x1="780.00" y1="450.00" y2="500.00" /><line style="stroke:blue;fill:blue;" id="17315" x2="850.00" x1="850.00" y1="700.00" y2="650.00" /><line style="stroke:blue;fill:blue;" id="17316" x2="800.00" x1="850.00" y1="700.00" y2="720.00" /><line style="stroke:blue;fill:blue;" id="17317" x2="860.00" x1="850.00" y1="650.00" y2="560.00" /><line style="stroke:blue;fill:blue;" id="17318" x2="850.00" x1="850.00" y1="650.00" y2="700.00" /><line style="stroke:blue;fill:blue;" id="17319" x2="920.00" x1="850.00" y1="650.00" y2="660.00" /><line style="stroke:blue;fill:blue;" id="17320" x2="760.00" x1="850.00" y1="650.00" y2="600.00" /><line style="stroke:blue;fill:blue;" id="17321" x2="870.00" x1="860.00" y1="560.00" y2="500.00" /><line style="stroke:blue;fill:blue;" id="17322" x2="850.00" x1="860.00" y1="560.00" y2="650.00" /><line style="stroke:blue;fill:blue;" id="17323" x2="780.00" x1="790.00" y1="100.00" y2="50.00" /><line style="stroke:blue;fill:blue;" id="17324" x2="879.04" x1="820.00" y1="400.00" y2="378.09" /><line style="stroke:blue;fill:blue;" id="17325" x2="780.00" x1="820.00" y1="400.00" y2="450.00" /><line style="stroke:blue;fill:blue;" id="17326" x2="780.00" x1="820.00" y1="400.00" y2="250.00" /><line style="stroke:blue;fill:blue;" id="17327" x2="900.00" x1="850.00" y1="30.00" y2="20.00" /><line style="stroke:blue;fill:blue;" id="17328" x2="780.00" x1="850.00" y1="30.00" y2="50.00" /><line style="stroke:blue;fill:blue;" id="17329" x2="900.96" x1="870.00" y1="500.00" y2="421.91" /><line style="stroke:blue;fill:blue;" id="17330" x2="860.00" x1="870.00" y1="500.00" y2="560.00" /><line style="stroke:blue;fill:blue;" id="17331" x2="890.00" x1="880.00" y1="250.00" y2="180.00" /><line style="stroke:blue;fill:blue;" id="17332" x2="980.00" x1="880.00" y1="250.00" y2="200.00" /><line style="stroke:blue;fill:blue;" id="17333" x2="750.00" x1="880.00" y1="250.00" y2="150.00" /><line style="stroke:blue;fill:blue;" id="17334" x2="900.96" x1="879.04" y1="378.09" y2="421.91" /><line style="stroke:blue;fill:blue;" id="17335" x2="820.00" x1="879.04" y1="378.09" y2="400.00" /><line style="stroke:blue;fill:blue;" id="17336" x2="890.00" x1="900.00" y1="120.00" y2="180.00" /><line style="stroke:blue;fill:blue;" id="17337" x2="980.00" x1="900.00" y1="120.00" y2="200.00" /><line style="stroke:blue;fill:blue;" id="17338" x2="750.00" x1="900.00" y1="120.00" y2="150.00" /><line style="stroke:blue;fill:blue;" id="17339" x2="950.00" x1="900.00" y1="120.00" y2="100.00" /><line style="stroke:blue;fill:blue;" id="17340" x2="948.09" x1="900.96" y1="421.91" y2="399.04" /><line style="stroke:blue;fill:blue;" id="17341" x2="879.04" x1="900.96" y1="421.91" y2="378.09" /><line style="stroke:blue;fill:blue;" id="17342" x2="920.00" x1="900.96" y1="421.91" y2="480.00" /><line style="stroke:blue;fill:blue;" id="17343" x2="870.00" x1="900.96" y1="421.91" y2="500.00" /><line style="stroke:blue;fill:blue;" id="17344" x2="850.00" x1="900.00" y1="20.00" y2="30.00" /><line style="stroke:blue;fill:blue;" id="17345" x2="980.00" x1="900.00" y1="20.00" y2="20.00" /><line style="stroke:blue;fill:blue;" id="17346" x2="980.00" x1="890.00" y1="180.00" y2="200.00" /><line style="stroke:blue;fill:blue;" id="17347" x2="900.00" x1="890.00" y1="180.00" y2="120.00" /><line style="stroke:blue;fill:blue;" id="17348" x2="880.00" x1="890.00" y1="180.00" y2="250.00" /><line style="stroke:blue;fill:blue;" id="17349" x2="840.00" x1="890.00" y1="180.00" y2="160.00" /><line style="stroke:blue;fill:blue;" id="17350" x2="900.96" x1="920.00" y1="480.00" y2="421.91" /><line style="stroke:blue;fill:blue;" id="17351" x2="900.00" x1="950.00" y1="100.00" y2="120.00" /><line style="stroke:blue;fill:blue;" id="17352" x2="1000.00" x1="950.00" y1="100.00" y2="150.00" /><line style="stroke:blue;fill:blue;" id="17353" x2="1000.00" x1="948.09" y1="399.04" y2="320.00" /><line style="stroke:blue;fill:blue;" id="17354" x2="991.91" x1="948.09" y1="399.04" y2="420.96" /><line style="stroke:blue;fill:blue;" id="17355" x2="900.96" x1="948.09" y1="399.04" y2="421.91" /><line style="stroke:blue;fill:blue;" id="17356" x2="890.00" x1="980.00" y1="200.00" y2="180.00" /><line style="stroke:blue;fill:blue;" id="17357" x2="900.00" x1="980.00" y1="200.00" y2="120.00" /><line style="stroke:blue;fill:blue;" id="17358" x2="880.00" x1="980.00" y1="200.00" y2="250.00" /><line style="stroke:blue;fill:blue;" id="17359" x2="1000.00" x1="980.00" y1="200.00" y2="150.00" /><line style="stroke:blue;fill:blue;" id="17360" x2="948.09" x1="991.91" y1="420.96" y2="399.04" /><line style="stroke:blue;fill:blue;" id="17361" x2="980.00" x1="1000.00" y1="150.00" y2="200.00" /><line style="stroke:blue;fill:blue;" id="17362" x2="950.00" x1="1000.00" y1="150.00" y2="100.00" /><line style="stroke:blue;fill:blue;" id="17363" x2="79.04" x1="20.00" y1="50.00" y2="78.09" /><line style="stroke:blue;fill:blue;" id="17364" x2="350.00" x1="350.00" y1="300.00" y2="380.00" /><line style="stroke:blue;fill:blue;" id="17365" x2="520.00" x1="440.00" y1="730.00" y2="650.00" /><line style="stroke:blue;fill:blue;" id="17366" x2="680.00" x1="610.00" y1="690.00" y2="680.00" /><line style="stroke:blue;fill:blue;" id="17367" x2="640.00" x1="600.00" y1="60.00" y2="120.00" /><line style="stroke:blue;fill:blue;" id="17368" x2="650.00" x1="750.00" y1="550.00" y2="520.00" /><line style="stroke:blue;fill:blue;" id="17369" x2="890.00" x1="840.00" y1="160.00" y2="180.00" /><line style="stroke:blue;fill:blue;" id="17370" x2="900.00" x1="980.00" y1="20.00" y2="20.00" /><line style="stroke:blue;fill:blue;" id="17371" x2="948.09" x1="1000.00" y1="320.00" y2="399.04" /></svg>
