<?xml version="1.0" standalone="yes"?><!DOCTYPE svg PUBLIC "-//W3C//DTD SVG 1.1//EN" "http://www.w3.org/Graphics/SVG/1.1/DTD/svg11.dtd"[]><svg width="1050.00" height="800.00" id="15836" xmlns="http://www.w3.org/2000/svg" xmlns:xlink="http://www.w3.org/1999/xlink"><rect Type="system" x="30.00" id="15837" height="5.00" width="5.00" Name="希米尔" ID="30004141" Region="卡多尔" y="270.00" /><text y="270.00" x="30.00" id="15838">希米尔</text><rect Type="system" x="30.00" id="15840" height="5.00" width="5.00" Name="埃克哈瓦" ID="30015042" Region="卡多尔" y="640.00" /><text y="640.00" x="30.00" id="15841">埃克哈瓦</text><rect Type="system" x="50.00" id="15843" height="5.00" width="5.00" Name="莱耶勒特" ID="30004116" Region="卡多尔" y="70.00" /><text y="70.00" x="50.00" id="15844">莱耶勒特</text><rect Type="system" x="50.00" id="15846" height="5.00" width="5.00" Name="马萨努" ID="30005041" Region="柯埃佐" y="520.00" /><text y="520.00" x="50.00" id="15847">马萨努</text><rect Type="system" x="80.00" id="15849" height="5.00" width="5.00" Name="孙尼尔" ID="30004101" Region="卡多尔" y="570.00" /><text y="570.00" x="80.00" id="15850">孙尼尔</text><rect Type="system" x="80.00" id="15852" height="5.00" width="5.00" Name="埃斯-伊利斯" ID="30004102" Region="卡多尔" y="620.00" /><text y="620.00" x="80.00" id="15853">埃斯-伊利斯</text><rect Type="system" x="100.00" id="15855" height="5.00" width="5.00" Name="加萨瓦基" ID="30004119" Region="卡多尔" y="100.00" /><text y="100.00" x="100.00" id="15856">加萨瓦基</text><rect Type="system" x="79.37" id="15858" height="5.00" width="5.00" Name="门利" ID="30004121" Region="卡多尔" y="149.06" /><text y="149.06" x="79.37" id="15859">门利</text><rect Type="system" x="106.46" id="15861" height="5.00" width="5.00" Name="莫德" ID="30004136" Region="卡多尔" y="189.90" /><text y="189.90" x="106.46" id="15862">莫德</text><rect Type="system" x="70.00" id="15864" height="5.00" width="5.00" Name="欧漫" ID="30004137" Region="卡多尔" y="230.00" /><text y="230.00" x="70.00" id="15865">欧漫</text><rect Type="system" x="100.00" id="15867" height="5.00" width="5.00" Name="瑟西玛伦" ID="30004139" Region="卡多尔" y="270.00" /><text y="270.00" x="100.00" id="15868">瑟西玛伦</text><rect Type="system" x="160.00" id="15870" height="5.00" width="5.00" Name="左拉贝的" ID="30004160" Region="卡多尔" y="650.00" /><text y="650.00" x="160.00" id="15871">左拉贝的</text><rect Type="system" x="130.00" id="15873" height="5.00" width="5.00" Name="特朗" ID="30004158" Region="卡多尔" y="720.00" /><text y="720.00" x="130.00" id="15874">特朗</text><rect Type="system" x="130.00" id="15876" height="5.00" width="5.00" Name="布舍马尔" ID="30004117" Region="卡多尔" y="50.00" /><text y="50.00" x="130.00" id="15877">布舍马尔</text><rect Type="system" x="130.00" id="15879" height="5.00" width="5.00" Name="拉扎纳" ID="30004159" Region="卡多尔" y="770.00" /><text y="770.00" x="130.00" id="15880">拉扎纳</text><rect Type="system" x="150.00" id="15882" height="5.00" width="5.00" Name="哈利拜" ID="30004100" Region="卡多尔" y="550.00" /><text y="550.00" x="150.00" id="15883">哈利拜</text><rect Type="system" x="150.00" id="15885" height="5.00" width="5.00" Name="索娜玛" ID="30004099" Region="卡多尔" y="600.00" /><text y="600.00" x="150.00" id="15886">索娜玛</text><rect Type="system" x="150.00" id="15888" height="5.00" width="5.00" Name="息诺" ID="30004140" Region="卡多尔" y="300.00" /><text y="300.00" x="150.00" id="15889">息诺</text><rect Type="system" x="154.17" id="15891" height="5.00" width="5.00" Name="贝尔希里姆" ID="30004138" Region="卡多尔" y="201.04" /><text y="201.04" x="154.17" id="15892">贝尔希里姆</text><rect Type="system" x="190.00" id="15894" height="5.00" width="5.00" Name="阿尔迪斯" ID="30004118" Region="卡多尔" y="50.00" /><text y="50.00" x="190.00" id="15895">阿尔迪斯</text><rect Type="system" x="200.00" id="15897" height="5.00" width="5.00" Name="丹塔恩" ID="30004097" Region="卡多尔" y="420.00" /><text y="420.00" x="200.00" id="15898">丹塔恩</text><rect Type="system" x="200.00" id="15900" height="5.00" width="5.00" Name="阿斯里欧斯" ID="30004156" Region="卡多尔" y="700.00" /><text y="700.00" x="200.00" id="15901">阿斯里欧斯</text><rect Type="system" x="200.00" id="15903" height="5.00" width="5.00" Name="伊塔尔" ID="30004157" Region="卡多尔" y="750.00" /><text y="750.00" x="200.00" id="15904">伊塔尔</text><rect Type="system" x="230.00" id="15906" height="5.00" width="5.00" Name="科特" ID="30004103" Region="卡多尔" y="550.00" /><text y="550.00" x="230.00" id="15907">科特</text><rect Type="system" x="230.00" id="15909" height="5.00" width="5.00" Name="图尔巴" ID="30004098" Region="卡多尔" y="600.00" /><text y="600.00" x="230.00" id="15910">图尔巴</text><rect Type="system" x="250.00" id="15912" height="5.00" width="5.00" Name="艾奥基特" ID="30004120" Region="卡多尔" y="50.00" /><text y="50.00" x="250.00" id="15913">艾奥基特</text><rect Type="system" x="250.00" id="15915" height="5.00" width="5.00" Name="勒布拉比" ID="30004089" Region="卡多尔" y="320.00" /><text y="320.00" x="250.00" id="15916">勒布拉比</text><rect Type="system" x="250.00" id="15918" height="5.00" width="5.00" Name="舍马尔" ID="30004155" Region="卡多尔" y="720.00" /><text y="720.00" x="250.00" id="15919">舍马尔</text><rect Type="system" x="280.00" id="15921" height="5.00" width="5.00" Name="卡多尔首星" ID="30004095" Region="卡多尔" y="450.00" /><text y="450.00" x="280.00" id="15922">卡多尔首星</text><rect Type="system" x="300.00" id="15924" height="5.00" width="5.00" Name="卡菲斯" ID="30004096" Region="卡多尔" y="400.00" /><text y="400.00" x="300.00" id="15925">卡菲斯</text><rect Type="system" x="300.00" id="15927" height="5.00" width="5.00" Name="诺尔达" ID="30004094" Region="卡多尔" y="500.00" /><text y="500.00" x="300.00" id="15928">诺尔达</text><rect Type="system" x="300.00" id="15930" height="5.00" width="5.00" Name="库纳" ID="30004128" Region="卡多尔" y="220.00" /><text y="220.00" x="300.00" id="15931">库纳</text><rect Type="system" x="330.00" id="15933" height="5.00" width="5.00" Name="霍斯塔阔" ID="30004130" Region="卡多尔" y="550.00" /><text y="550.00" x="330.00" id="15934">霍斯塔阔</text><rect Type="system" x="330.00" id="15936" height="5.00" width="5.00" Name="果南" ID="30004087" Region="卡多尔" y="350.00" /><text y="350.00" x="330.00" id="15937">果南</text><rect Type="system" x="330.00" id="15939" height="5.00" width="5.00" Name="尤奥" ID="30004131" Region="卡多尔" y="600.00" /><text y="600.00" x="330.00" id="15940">尤奥</text><rect Type="system" x="350.03" id="15942" height="5.00" width="5.00" Name="西玛尔" ID="30004133" Region="卡多尔" y="649.29" /><text y="649.29" x="350.03" id="15943">西玛尔</text><rect Type="system" x="350.00" id="15945" height="5.00" width="5.00" Name="贾吉利" ID="30004125" Region="卡多尔" y="70.00" /><text y="70.00" x="350.00" id="15946">贾吉利</text><rect Type="system" x="347.47" id="15948" height="5.00" width="5.00" Name="卡茨" ID="30004134" Region="卡多尔" y="698.22" /><text y="698.22" x="347.47" id="15949">卡茨</text><rect Type="system" x="380.02" id="15951" height="5.00" width="5.00" Name="兹姆瑟" ID="30004127" Region="卡多尔" y="199.18" /><text y="199.18" x="380.02" id="15952">兹姆瑟</text><rect Type="system" x="378.65" id="15954" height="5.00" width="5.00" Name="蒙诺瑞" ID="30004129" Region="卡多尔" y="248.16" /><text y="248.16" x="378.65" id="15955">蒙诺瑞</text><rect Type="system" x="380.00" id="15957" height="5.00" width="5.00" Name="尼杜帕德" ID="30004126" Region="卡多尔" y="150.00" /><text y="150.00" x="380.00" id="15958">尼杜帕德</text><rect Type="system" x="382.49" id="15960" height="5.00" width="5.00" Name="西卡恩索" ID="30004142" Region="卡多尔" y="732.49" /><text y="732.49" x="382.49" id="15961">西卡恩索</text><rect Type="system" x="400.00" id="15963" height="5.00" width="5.00" Name="杰士德" ID="30004132" Region="卡多尔" y="600.00" /><text y="600.00" x="400.00" id="15964">杰士德</text><rect Type="system" x="400.75" id="15966" height="5.00" width="5.00" Name="阿班德" ID="30004090" Region="卡多尔" y="291.89" /><text y="291.89" x="400.75" id="15967">阿班德</text><rect Type="system" x="400.00" id="15969" height="5.00" width="5.00" Name="舒尔拉" ID="30004135" Region="卡多尔" y="670.00" /><text y="670.00" x="400.00" id="15970">舒尔拉</text><rect Type="system" x="430.00" id="15972" height="5.00" width="5.00" Name="咖利萨斯" ID="30004123" Region="卡多尔" y="30.00" /><text y="30.00" x="430.00" id="15973">咖利萨斯</text><rect Type="system" x="430.58" id="15975" height="5.00" width="5.00" Name="戈西斯" ID="30004084" Region="卡多尔" y="330.76" /><text y="330.76" x="430.58" id="15976">戈西斯</text><rect Type="system" x="450.00" id="15978" height="5.00" width="5.00" Name="穆利尼" ID="30004092" Region="卡多尔" y="490.00" /><text y="490.00" x="450.00" id="15979">穆利尼</text><rect Type="system" x="450.00" id="15981" height="5.00" width="5.00" Name="希尔库索" ID="30004143" Region="卡多尔" y="770.00" /><text y="770.00" x="450.00" id="15982">希尔库索</text><rect Type="system" x="450.00" id="15984" height="5.00" width="5.00" Name="乌亚尼姆" ID="30004091" Region="卡多尔" y="570.00" /><text y="570.00" x="450.00" id="15985">乌亚尼姆</text><rect Type="system" x="480.00" id="15987" height="5.00" width="5.00" Name="乔亚马" ID="30004086" Region="卡多尔" y="370.00" /><text y="370.00" x="480.00" id="15988">乔亚马</text><rect Type="system" x="480.00" id="15990" height="5.00" width="5.00" Name="埃费" ID="30004124" Region="卡多尔" y="150.00" /><text y="150.00" x="480.00" id="15991">埃费</text><rect Type="system" x="490.00" id="15993" height="5.00" width="5.00" Name="耶尼费" ID="30004154" Region="卡多尔" y="540.00" /><text y="540.00" x="490.00" id="15994">耶尼费</text><rect Type="system" x="500.00" id="15996" height="5.00" width="5.00" Name="阿斯科纳克" ID="30004093" Region="卡多尔" y="450.00" /><text y="450.00" x="500.00" id="15997">阿斯科纳克</text><rect Type="system" x="500.00" id="15999" height="5.00" width="5.00" Name="查浓" ID="30004122" Region="卡多尔" y="70.00" /><text y="70.00" x="500.00" id="16000">查浓</text><rect Type="system" x="510.00" id="16002" height="5.00" width="5.00" Name="耶博茨" ID="30004144" Region="卡多尔" y="770.00" /><text y="770.00" x="510.00" id="16003">耶博茨</text><rect Type="system" x="550.00" id="16005" height="5.00" width="5.00" Name="贾姆迪斯" ID="30004085" Region="卡多尔" y="320.00" /><text y="320.00" x="550.00" id="16006">贾姆迪斯</text><rect Type="system" x="550.00" id="16008" height="5.00" width="5.00" Name="尤拉默克" ID="30004088" Region="卡多尔" y="370.00" /><text y="370.00" x="550.00" id="16009">尤拉默克</text><rect Type="system" x="550.00" id="16011" height="5.00" width="5.00" Name="酷热恩" ID="30004152" Region="卡多尔" y="520.00" /><text y="520.00" x="550.00" id="16012">酷热恩</text><rect Type="system" x="580.00" id="16014" height="5.00" width="5.00" Name="哈巴拉" ID="30004145" Region="卡多尔" y="770.00" /><text y="770.00" x="580.00" id="16015">哈巴拉</text><rect Type="system" x="600.00" id="16017" height="5.00" width="5.00" Name="沙格特" ID="30004150" Region="卡多尔" y="500.00" /><text y="500.00" x="600.00" id="16018">沙格特</text><rect Type="system" x="600.00" id="16020" height="5.00" width="5.00" Name="米宁" ID="30004153" Region="卡多尔" y="450.00" /><text y="450.00" x="600.00" id="16021">米宁</text><rect Type="system" x="640.00" id="16023" height="5.00" width="5.00" Name="萨拉赫" ID="30004146" Region="卡多尔" y="770.00" /><text y="770.00" x="640.00" id="16024">萨拉赫</text><rect Type="system" x="650.00" id="16026" height="5.00" width="5.00" Name="德洛克" ID="30004105" Region="卡多尔" y="50.00" /><text y="50.00" x="650.00" id="16027">德洛克</text><rect Type="system" x="650.00" id="16029" height="5.00" width="5.00" Name="安萨索斯" ID="30004104" Region="卡多尔" y="100.00" /><text y="100.00" x="650.00" id="16030">安萨索斯</text><rect Type="system" x="650.00" id="16032" height="5.00" width="5.00" Name="厄尔梅德" ID="30004149" Region="卡多尔" y="520.00" /><text y="520.00" x="650.00" id="16033">厄尔梅德</text><rect Type="system" x="650.00" id="16035" height="5.00" width="5.00" Name="乌特尼亚" ID="30004151" Region="卡多尔" y="470.00" /><text y="470.00" x="650.00" id="16036">乌特尼亚</text><rect Type="system" x="700.00" id="16038" height="5.00" width="5.00" Name="查尼亚" ID="30004108" Region="卡多尔" y="120.00" /><text y="120.00" x="700.00" id="16039">查尼亚</text><rect Type="system" x="700.00" id="16041" height="5.00" width="5.00" Name="阿克蒙" ID="30004147" Region="卡多尔" y="770.00" /><text y="770.00" x="700.00" id="16042">阿克蒙</text><rect Type="system" x="700.00" id="16044" height="5.00" width="5.00" Name="简尼姆" ID="30004148" Region="卡多尔" y="570.00" /><text y="570.00" x="700.00" id="16045">简尼姆</text><rect Type="system" x="730.00" id="16047" height="5.00" width="5.00" Name="佐尔茨" ID="30004081" Region="卡多尔" y="320.00" /><text y="320.00" x="730.00" id="16048">佐尔茨</text><rect Type="system" x="730.00" id="16050" height="5.00" width="5.00" Name="波尔丹" ID="30004106" Region="卡多尔" y="70.00" /><text y="70.00" x="730.00" id="16051">波尔丹</text><rect Type="system" x="780.00" id="16053" height="5.00" width="5.00" Name="欧贝伦" ID="30004109" Region="卡多尔" y="120.00" /><text y="120.00" x="780.00" id="16054">欧贝伦</text><rect Type="system" x="800.00" id="16056" height="5.00" width="5.00" Name="基恩瑟拉" ID="30004083" Region="卡多尔" y="270.00" /><text y="270.00" x="800.00" id="16057">基恩瑟拉</text><rect Type="system" x="800.00" id="16059" height="5.00" width="5.00" Name="德勒斯" ID="30004078" Region="卡多尔" y="320.00" /><text y="320.00" x="800.00" id="16060">德勒斯</text><rect Type="system" x="800.00" id="16062" height="5.00" width="5.00" Name="茨梅姆" ID="30004107" Region="卡多尔" y="70.00" /><text y="70.00" x="800.00" id="16063">茨梅姆</text><rect Type="system" x="850.00" id="16065" height="5.00" width="5.00" Name="埃费恩的" ID="30004079" Region="卡多尔" y="400.00" /><text y="400.00" x="850.00" id="16066">埃费恩的</text><rect Type="system" x="850.00" id="16068" height="5.00" width="5.00" Name="曼铎" ID="30004112" Region="卡多尔" y="120.00" /><text y="120.00" x="850.00" id="16069">曼铎</text><rect Type="system" x="850.00" id="16071" height="5.00" width="5.00" Name="佩伊利" ID="30004114" Region="卡多尔" y="170.00" /><text y="170.00" x="850.00" id="16072">佩伊利</text><rect Type="system" x="850.00" id="16074" height="5.00" width="5.00" Name="卡姆达" ID="30004115" Region="卡多尔" y="220.00" /><text y="220.00" x="850.00" id="16075">卡姆达</text><rect Type="system" x="850.00" id="16077" height="5.00" width="5.00" Name="米娅" ID="30004113" Region="卡多尔" y="270.00" /><text y="270.00" x="850.00" id="16078">米娅</text><rect Type="system" x="880.00" id="16080" height="5.00" width="5.00" Name="罗密" ID="30004080" Region="卡多尔" y="450.00" /><text y="450.00" x="880.00" id="16081">罗密</text><rect Type="system" x="880.00" id="16083" height="5.00" width="5.00" Name="艾哈拉勒" ID="30004082" Region="卡多尔" y="320.00" /><text y="320.00" x="880.00" id="16084">艾哈拉勒</text><rect Type="system" x="950.00" id="16086" height="5.00" width="5.00" Name="芬尼迪" ID="30004110" Region="卡多尔" y="220.00" /><text y="220.00" x="950.00" id="16087">芬尼迪</text><rect Type="system" x="950.00" id="16089" height="5.00" width="5.00" Name="亚勒巴浦" ID="30004111" Region="卡多尔" y="270.00" /><text y="270.00" x="950.00" id="16090">亚勒巴浦</text><rect Type="system" x="950.00" id="16092" height="5.00" width="5.00" Name="希罗德" ID="30004077" Region="卡多尔" y="350.00" /><text y="350.00" x="950.00" id="16093">希罗德</text><rect Type="system" x="30.00" id="16095" height="5.00" width="5.00" Name="阿莫德" ID="30003480" Region="多美" y="170.00" /><text y="170.00" x="30.00" id="16096">阿莫德</text><rect Type="system" x="50.00" id="16098" height="5.00" width="5.00" Name="希礼赞" ID="30005248" Region="吉勒西斯" y="20.00" /><text y="20.00" x="50.00" id="16099">希礼赞</text><rect Type="system" x="50.00" id="16101" height="5.00" width="5.00" Name="勒瓦" ID="30005039" Region="柯埃佐" y="470.00" /><text y="470.00" x="50.00" id="16102">勒瓦</text><rect Type="system" x="130.00" id="16104" height="5.00" width="5.00" Name="安姆多尼" ID="30005036" Region="柯埃佐" y="420.00" /><text y="420.00" x="130.00" id="16105">安姆多尼</text><rect Type="system" x="120.00" id="16107" height="5.00" width="5.00" Name="伊维卡姆" ID="30003867" Region="卡尼迪" y="490.00" /><text y="490.00" x="120.00" id="16108">伊维卡姆</text><rect Type="system" x="180.00" id="16110" height="5.00" width="5.00" Name="丹亚娜" ID="30005044" Region="柯埃佐" y="370.00" /><text y="370.00" x="180.00" id="16111">丹亚娜</text><rect Type="system" x="230.00" id="16113" height="5.00" width="5.00" Name="欧纳泽尔" ID="30001688" Region="塔什蒙贡" y="650.00" /><text y="650.00" x="230.00" id="16114">欧纳泽尔</text><rect Type="system" x="300.00" id="16116" height="5.00" width="5.00" Name="佩蒂杜" ID="30005241" Region="吉勒西斯" y="50.00" /><text y="50.00" x="300.00" id="16117">佩蒂杜</text><rect Type="system" x="350.00" id="16119" height="5.00" width="5.00" Name="博拉那伊" ID="30002188" Region="多美" y="450.00" /><text y="450.00" x="350.00" id="16120">博拉那伊</text><rect Type="system" x="560.00" id="16122" height="5.00" width="5.00" Name="马耳他" ID="30002194" Region="多美" y="580.00" /><text y="580.00" x="560.00" id="16123">马耳他</text><rect Type="system" x="580.00" id="16125" height="5.00" width="5.00" Name="普姆索" ID="30001652" Region="塔什蒙贡" y="630.00" /><text y="630.00" x="580.00" id="16126">普姆索</text><rect Type="system" x="580.00" id="16128" height="5.00" width="5.00" Name="伊德里庸" ID="30005227" Region="吉勒西斯" y="70.00" /><text y="70.00" x="580.00" id="16129">伊德里庸</text><rect Type="system" x="700.00" id="16131" height="5.00" width="5.00" Name="埃克拉甘" ID="30002197" Region="多美" y="400.00" /><text y="400.00" x="700.00" id="16132">埃克拉甘</text><rect Type="system" x="780.00" id="16134" height="5.00" width="5.00" Name="萨费安" ID="30002279" Region="多美" y="610.00" /><text y="610.00" x="780.00" id="16135">萨费安</text><rect Type="system" x="780.00" id="16137" height="5.00" width="5.00" Name="马蒂米里若" ID="30003503" Region="多美" y="500.00" /><text y="500.00" x="780.00" id="16138">马蒂米里若</text><rect Type="system" x="800.00" id="16140" height="5.00" width="5.00" Name="舍拉" ID="30005192" Region="吉勒西斯" y="220.00" /><text y="220.00" x="800.00" id="16141">舍拉</text><rect Type="system" x="860.00" id="16143" height="5.00" width="5.00" Name="必泽巴" ID="30002282" Region="多美" y="550.00" /><text y="550.00" x="860.00" id="16144">必泽巴</text><rect Type="system" x="990.00" id="16146" height="5.00" width="5.00" Name="萨亚尔臣" ID="30003508" Region="多美" y="480.00" /><text y="480.00" x="990.00" id="16147">萨亚尔臣</text><rect Type="system" x="980.00" id="16149" height="5.00" width="5.00" Name="法胡尔" ID="30003473" Region="多美" y="400.00" /><text y="400.00" x="980.00" id="16150">法胡尔</text><line style="stroke:blue;fill:blue;" id="16152" x2="100.00" x1="30.00" y1="270.00" y2="270.00" /><line style="stroke:blue;fill:blue;" id="16153" x2="80.00" x1="30.00" y1="640.00" y2="620.00" /><line style="stroke:blue;fill:blue;" id="16154" x2="130.00" x1="50.00" y1="70.00" y2="50.00" /><line style="stroke:blue;fill:blue;" id="16155" x2="100.00" x1="50.00" y1="70.00" y2="100.00" /><line style="stroke:blue;fill:blue;" id="16156" x2="50.00" x1="50.00" y1="70.00" y2="20.00" /><line style="stroke:blue;fill:blue;" id="16157" x2="120.00" x1="50.00" y1="520.00" y2="490.00" /><line style="stroke:blue;fill:blue;" id="16158" x2="80.00" x1="50.00" y1="520.00" y2="570.00" /><line style="stroke:blue;fill:blue;" id="16159" x2="50.00" x1="50.00" y1="520.00" y2="470.00" /><line style="stroke:blue;fill:blue;" id="16160" x2="150.00" x1="80.00" y1="570.00" y2="600.00" /><line style="stroke:blue;fill:blue;" id="16161" x2="80.00" x1="80.00" y1="570.00" y2="620.00" /><line style="stroke:blue;fill:blue;" id="16162" x2="50.00" x1="80.00" y1="570.00" y2="520.00" /><line style="stroke:blue;fill:blue;" id="16163" x2="150.00" x1="80.00" y1="620.00" y2="600.00" /><line style="stroke:blue;fill:blue;" id="16164" x2="80.00" x1="80.00" y1="620.00" y2="570.00" /><line style="stroke:blue;fill:blue;" id="16165" x2="30.00" x1="80.00" y1="620.00" y2="640.00" /><line style="stroke:blue;fill:blue;" id="16166" x2="50.00" x1="100.00" y1="100.00" y2="70.00" /><line style="stroke:blue;fill:blue;" id="16167" x2="130.00" x1="100.00" y1="100.00" y2="50.00" /><line style="stroke:blue;fill:blue;" id="16168" x2="79.37" x1="100.00" y1="100.00" y2="149.06" /><line style="stroke:blue;fill:blue;" id="16169" x2="100.00" x1="79.37" y1="149.06" y2="100.00" /><line style="stroke:blue;fill:blue;" id="16170" x2="106.46" x1="79.37" y1="149.06" y2="189.90" /><line style="stroke:blue;fill:blue;" id="16171" x2="30.00" x1="106.46" y1="189.90" y2="170.00" /><line style="stroke:blue;fill:blue;" id="16172" x2="79.37" x1="106.46" y1="189.90" y2="149.06" /><line style="stroke:blue;fill:blue;" id="16173" x2="70.00" x1="106.46" y1="189.90" y2="230.00" /><line style="stroke:blue;fill:blue;" id="16174" x2="154.17" x1="106.46" y1="189.90" y2="201.04" /><line style="stroke:blue;fill:blue;" id="16175" x2="106.46" x1="70.00" y1="230.00" y2="189.90" /><line style="stroke:blue;fill:blue;" id="16176" x2="154.17" x1="70.00" y1="230.00" y2="201.04" /><line style="stroke:blue;fill:blue;" id="16177" x2="100.00" x1="70.00" y1="230.00" y2="270.00" /><line style="stroke:blue;fill:blue;" id="16178" x2="70.00" x1="100.00" y1="270.00" y2="230.00" /><line style="stroke:blue;fill:blue;" id="16179" x2="150.00" x1="100.00" y1="270.00" y2="300.00" /><line style="stroke:blue;fill:blue;" id="16180" x2="30.00" x1="100.00" y1="270.00" y2="270.00" /><line style="stroke:blue;fill:blue;" id="16181" x2="200.00" x1="160.00" y1="650.00" y2="700.00" /><line style="stroke:blue;fill:blue;" id="16182" x2="200.00" x1="130.00" y1="720.00" y2="700.00" /><line style="stroke:blue;fill:blue;" id="16183" x2="50.00" x1="130.00" y1="50.00" y2="70.00" /><line style="stroke:blue;fill:blue;" id="16184" x2="190.00" x1="130.00" y1="50.00" y2="50.00" /><line style="stroke:blue;fill:blue;" id="16185" x2="100.00" x1="130.00" y1="50.00" y2="100.00" /><line style="stroke:blue;fill:blue;" id="16186" x2="200.00" x1="130.00" y1="770.00" y2="750.00" /><line style="stroke:blue;fill:blue;" id="16187" x2="150.00" x1="150.00" y1="550.00" y2="600.00" /><line style="stroke:blue;fill:blue;" id="16188" x2="230.00" x1="150.00" y1="600.00" y2="600.00" /><line style="stroke:blue;fill:blue;" id="16189" x2="150.00" x1="150.00" y1="600.00" y2="550.00" /><line style="stroke:blue;fill:blue;" id="16190" x2="80.00" x1="150.00" y1="600.00" y2="570.00" /><line style="stroke:blue;fill:blue;" id="16191" x2="80.00" x1="150.00" y1="600.00" y2="620.00" /><line style="stroke:blue;fill:blue;" id="16192" x2="250.00" x1="150.00" y1="300.00" y2="320.00" /><line style="stroke:blue;fill:blue;" id="16193" x2="100.00" x1="150.00" y1="300.00" y2="270.00" /><line style="stroke:blue;fill:blue;" id="16194" x2="106.46" x1="154.17" y1="201.04" y2="189.90" /><line style="stroke:blue;fill:blue;" id="16195" x2="70.00" x1="154.17" y1="201.04" y2="230.00" /><line style="stroke:blue;fill:blue;" id="16196" x2="130.00" x1="190.00" y1="50.00" y2="50.00" /><line style="stroke:blue;fill:blue;" id="16197" x2="250.00" x1="190.00" y1="50.00" y2="50.00" /><line style="stroke:blue;fill:blue;" id="16198" x2="280.00" x1="200.00" y1="420.00" y2="450.00" /><line style="stroke:blue;fill:blue;" id="16199" x2="130.00" x1="200.00" y1="420.00" y2="420.00" /><line style="stroke:blue;fill:blue;" id="16200" x2="180.00" x1="200.00" y1="420.00" y2="370.00" /><line style="stroke:blue;fill:blue;" id="16201" x2="250.00" x1="200.00" y1="700.00" y2="720.00" /><line style="stroke:blue;fill:blue;" id="16202" x2="130.00" x1="200.00" y1="700.00" y2="720.00" /><line style="stroke:blue;fill:blue;" id="16203" x2="160.00" x1="200.00" y1="700.00" y2="650.00" /><line style="stroke:blue;fill:blue;" id="16204" x2="250.00" x1="200.00" y1="750.00" y2="720.00" /><line style="stroke:blue;fill:blue;" id="16205" x2="130.00" x1="200.00" y1="750.00" y2="770.00" /><line style="stroke:blue;fill:blue;" id="16206" x2="230.00" x1="230.00" y1="550.00" y2="600.00" /><line style="stroke:blue;fill:blue;" id="16207" x2="230.00" x1="230.00" y1="600.00" y2="650.00" /><line style="stroke:blue;fill:blue;" id="16208" x2="150.00" x1="230.00" y1="600.00" y2="600.00" /><line style="stroke:blue;fill:blue;" id="16209" x2="230.00" x1="230.00" y1="600.00" y2="550.00" /><line style="stroke:blue;fill:blue;" id="16210" x2="330.00" x1="230.00" y1="600.00" y2="600.00" /><line style="stroke:blue;fill:blue;" id="16211" x2="190.00" x1="250.00" y1="50.00" y2="50.00" /><line style="stroke:blue;fill:blue;" id="16212" x2="300.00" x1="250.00" y1="50.00" y2="50.00" /><line style="stroke:blue;fill:blue;" id="16213" x2="330.00" x1="250.00" y1="320.00" y2="350.00" /><line style="stroke:blue;fill:blue;" id="16214" x2="150.00" x1="250.00" y1="320.00" y2="300.00" /><line style="stroke:blue;fill:blue;" id="16215" x2="347.47" x1="250.00" y1="720.00" y2="698.22" /><line style="stroke:blue;fill:blue;" id="16216" x2="200.00" x1="250.00" y1="720.00" y2="700.00" /><line style="stroke:blue;fill:blue;" id="16217" x2="200.00" x1="250.00" y1="720.00" y2="750.00" /><line style="stroke:blue;fill:blue;" id="16218" x2="350.00" x1="280.00" y1="450.00" y2="450.00" /><line style="stroke:blue;fill:blue;" id="16219" x2="300.00" x1="280.00" y1="450.00" y2="500.00" /><line style="stroke:blue;fill:blue;" id="16220" x2="300.00" x1="280.00" y1="450.00" y2="400.00" /><line style="stroke:blue;fill:blue;" id="16221" x2="200.00" x1="280.00" y1="450.00" y2="420.00" /><line style="stroke:blue;fill:blue;" id="16222" x2="330.00" x1="300.00" y1="400.00" y2="350.00" /><line style="stroke:blue;fill:blue;" id="16223" x2="280.00" x1="300.00" y1="400.00" y2="450.00" /><line style="stroke:blue;fill:blue;" id="16224" x2="450.00" x1="300.00" y1="500.00" y2="490.00" /><line style="stroke:blue;fill:blue;" id="16225" x2="280.00" x1="300.00" y1="500.00" y2="450.00" /><line style="stroke:blue;fill:blue;" id="16226" x2="330.00" x1="300.00" y1="500.00" y2="550.00" /><line style="stroke:blue;fill:blue;" id="16227" x2="380.02" x1="300.00" y1="220.00" y2="199.18" /><line style="stroke:blue;fill:blue;" id="16228" x2="378.65" x1="300.00" y1="220.00" y2="248.16" /><line style="stroke:blue;fill:blue;" id="16229" x2="300.00" x1="330.00" y1="550.00" y2="500.00" /><line style="stroke:blue;fill:blue;" id="16230" x2="330.00" x1="330.00" y1="550.00" y2="600.00" /><line style="stroke:blue;fill:blue;" id="16231" x2="430.58" x1="330.00" y1="350.00" y2="330.76" /><line style="stroke:blue;fill:blue;" id="16232" x2="250.00" x1="330.00" y1="350.00" y2="320.00" /><line style="stroke:blue;fill:blue;" id="16233" x2="300.00" x1="330.00" y1="350.00" y2="400.00" /><line style="stroke:blue;fill:blue;" id="16234" x2="230.00" x1="330.00" y1="600.00" y2="600.00" /><line style="stroke:blue;fill:blue;" id="16235" x2="330.00" x1="330.00" y1="600.00" y2="550.00" /><line style="stroke:blue;fill:blue;" id="16236" x2="400.00" x1="330.00" y1="600.00" y2="600.00" /><line style="stroke:blue;fill:blue;" id="16237" x2="350.03" x1="330.00" y1="600.00" y2="649.29" /><line style="stroke:blue;fill:blue;" id="16238" x2="330.00" x1="350.03" y1="649.29" y2="600.00" /><line style="stroke:blue;fill:blue;" id="16239" x2="400.00" x1="350.03" y1="649.29" y2="600.00" /><line style="stroke:blue;fill:blue;" id="16240" x2="347.47" x1="350.03" y1="649.29" y2="698.22" /><line style="stroke:blue;fill:blue;" id="16241" x2="400.00" x1="350.03" y1="649.29" y2="670.00" /><line style="stroke:blue;fill:blue;" id="16242" x2="500.00" x1="350.00" y1="70.00" y2="70.00" /><line style="stroke:blue;fill:blue;" id="16243" x2="430.00" x1="350.00" y1="70.00" y2="30.00" /><line style="stroke:blue;fill:blue;" id="16244" x2="480.00" x1="350.00" y1="70.00" y2="150.00" /><line style="stroke:blue;fill:blue;" id="16245" x2="380.00" x1="350.00" y1="70.00" y2="150.00" /><line style="stroke:blue;fill:blue;" id="16246" x2="350.03" x1="347.47" y1="698.22" y2="649.29" /><line style="stroke:blue;fill:blue;" id="16247" x2="400.00" x1="347.47" y1="698.22" y2="670.00" /><line style="stroke:blue;fill:blue;" id="16248" x2="382.49" x1="347.47" y1="698.22" y2="732.49" /><line style="stroke:blue;fill:blue;" id="16249" x2="250.00" x1="347.47" y1="698.22" y2="720.00" /><line style="stroke:blue;fill:blue;" id="16250" x2="380.00" x1="380.02" y1="199.18" y2="150.00" /><line style="stroke:blue;fill:blue;" id="16251" x2="300.00" x1="380.02" y1="199.18" y2="220.00" /><line style="stroke:blue;fill:blue;" id="16252" x2="378.65" x1="380.02" y1="199.18" y2="248.16" /><line style="stroke:blue;fill:blue;" id="16253" x2="400.75" x1="378.65" y1="248.16" y2="291.89" /><line style="stroke:blue;fill:blue;" id="16254" x2="380.02" x1="378.65" y1="248.16" y2="199.18" /><line style="stroke:blue;fill:blue;" id="16255" x2="300.00" x1="378.65" y1="248.16" y2="220.00" /><line style="stroke:blue;fill:blue;" id="16256" x2="500.00" x1="380.00" y1="150.00" y2="70.00" /><line style="stroke:blue;fill:blue;" id="16257" x2="430.00" x1="380.00" y1="150.00" y2="30.00" /><line style="stroke:blue;fill:blue;" id="16258" x2="480.00" x1="380.00" y1="150.00" y2="150.00" /><line style="stroke:blue;fill:blue;" id="16259" x2="350.00" x1="380.00" y1="150.00" y2="70.00" /><line style="stroke:blue;fill:blue;" id="16260" x2="380.02" x1="380.00" y1="150.00" y2="199.18" /><line style="stroke:blue;fill:blue;" id="16261" x2="347.47" x1="382.49" y1="732.49" y2="698.22" /><line style="stroke:blue;fill:blue;" id="16262" x2="450.00" x1="382.49" y1="732.49" y2="770.00" /><line style="stroke:blue;fill:blue;" id="16263" x2="330.00" x1="400.00" y1="600.00" y2="600.00" /><line style="stroke:blue;fill:blue;" id="16264" x2="350.03" x1="400.00" y1="600.00" y2="649.29" /><line style="stroke:blue;fill:blue;" id="16265" x2="430.58" x1="400.75" y1="291.89" y2="330.76" /><line style="stroke:blue;fill:blue;" id="16266" x2="378.65" x1="400.75" y1="291.89" y2="248.16" /><line style="stroke:blue;fill:blue;" id="16267" x2="350.03" x1="400.00" y1="670.00" y2="649.29" /><line style="stroke:blue;fill:blue;" id="16268" x2="347.47" x1="400.00" y1="670.00" y2="698.22" /><line style="stroke:blue;fill:blue;" id="16269" x2="500.00" x1="430.00" y1="30.00" y2="70.00" /><line style="stroke:blue;fill:blue;" id="16270" x2="480.00" x1="430.00" y1="30.00" y2="150.00" /><line style="stroke:blue;fill:blue;" id="16271" x2="350.00" x1="430.00" y1="30.00" y2="70.00" /><line style="stroke:blue;fill:blue;" id="16272" x2="380.00" x1="430.00" y1="30.00" y2="150.00" /><line style="stroke:blue;fill:blue;" id="16273" x2="550.00" x1="430.58" y1="330.76" y2="320.00" /><line style="stroke:blue;fill:blue;" id="16274" x2="480.00" x1="430.58" y1="330.76" y2="370.00" /><line style="stroke:blue;fill:blue;" id="16275" x2="330.00" x1="430.58" y1="330.76" y2="350.00" /><line style="stroke:blue;fill:blue;" id="16276" x2="400.75" x1="430.58" y1="330.76" y2="291.89" /><line style="stroke:blue;fill:blue;" id="16277" x2="450.00" x1="450.00" y1="490.00" y2="570.00" /><line style="stroke:blue;fill:blue;" id="16278" x2="500.00" x1="450.00" y1="490.00" y2="450.00" /><line style="stroke:blue;fill:blue;" id="16279" x2="300.00" x1="450.00" y1="490.00" y2="500.00" /><line style="stroke:blue;fill:blue;" id="16280" x2="600.00" x1="450.00" y1="490.00" y2="500.00" /><line style="stroke:blue;fill:blue;" id="16281" x2="382.49" x1="450.00" y1="770.00" y2="732.49" /><line style="stroke:blue;fill:blue;" id="16282" x2="510.00" x1="450.00" y1="770.00" y2="770.00" /><line style="stroke:blue;fill:blue;" id="16283" x2="580.00" x1="450.00" y1="570.00" y2="630.00" /><line style="stroke:blue;fill:blue;" id="16284" x2="450.00" x1="450.00" y1="570.00" y2="490.00" /><line style="stroke:blue;fill:blue;" id="16285" x2="430.58" x1="480.00" y1="370.00" y2="330.76" /><line style="stroke:blue;fill:blue;" id="16286" x2="500.00" x1="480.00" y1="150.00" y2="70.00" /><line style="stroke:blue;fill:blue;" id="16287" x2="430.00" x1="480.00" y1="150.00" y2="30.00" /><line style="stroke:blue;fill:blue;" id="16288" x2="350.00" x1="480.00" y1="150.00" y2="70.00" /><line style="stroke:blue;fill:blue;" id="16289" x2="380.00" x1="480.00" y1="150.00" y2="150.00" /><line style="stroke:blue;fill:blue;" id="16290" x2="550.00" x1="490.00" y1="540.00" y2="520.00" /><line style="stroke:blue;fill:blue;" id="16291" x2="450.00" x1="500.00" y1="450.00" y2="490.00" /><line style="stroke:blue;fill:blue;" id="16292" x2="600.00" x1="500.00" y1="450.00" y2="450.00" /><line style="stroke:blue;fill:blue;" id="16293" x2="430.00" x1="500.00" y1="70.00" y2="30.00" /><line style="stroke:blue;fill:blue;" id="16294" x2="480.00" x1="500.00" y1="70.00" y2="150.00" /><line style="stroke:blue;fill:blue;" id="16295" x2="350.00" x1="500.00" y1="70.00" y2="70.00" /><line style="stroke:blue;fill:blue;" id="16296" x2="380.00" x1="500.00" y1="70.00" y2="150.00" /><line style="stroke:blue;fill:blue;" id="16297" x2="580.00" x1="500.00" y1="70.00" y2="70.00" /><line style="stroke:blue;fill:blue;" id="16298" x2="450.00" x1="510.00" y1="770.00" y2="770.00" /><line style="stroke:blue;fill:blue;" id="16299" x2="580.00" x1="510.00" y1="770.00" y2="770.00" /><line style="stroke:blue;fill:blue;" id="16300" x2="730.00" x1="550.00" y1="320.00" y2="320.00" /><line style="stroke:blue;fill:blue;" id="16301" x2="430.58" x1="550.00" y1="320.00" y2="330.76" /><line style="stroke:blue;fill:blue;" id="16302" x2="550.00" x1="550.00" y1="320.00" y2="370.00" /><line style="stroke:blue;fill:blue;" id="16303" x2="550.00" x1="550.00" y1="370.00" y2="320.00" /><line style="stroke:blue;fill:blue;" id="16304" x2="560.00" x1="550.00" y1="520.00" y2="580.00" /><line style="stroke:blue;fill:blue;" id="16305" x2="600.00" x1="550.00" y1="520.00" y2="500.00" /><line style="stroke:blue;fill:blue;" id="16306" x2="490.00" x1="550.00" y1="520.00" y2="540.00" /><line style="stroke:blue;fill:blue;" id="16307" x2="510.00" x1="580.00" y1="770.00" y2="770.00" /><line style="stroke:blue;fill:blue;" id="16308" x2="640.00" x1="580.00" y1="770.00" y2="770.00" /><line style="stroke:blue;fill:blue;" id="16309" x2="450.00" x1="600.00" y1="500.00" y2="490.00" /><line style="stroke:blue;fill:blue;" id="16310" x2="650.00" x1="600.00" y1="500.00" y2="520.00" /><line style="stroke:blue;fill:blue;" id="16311" x2="650.00" x1="600.00" y1="500.00" y2="470.00" /><line style="stroke:blue;fill:blue;" id="16312" x2="550.00" x1="600.00" y1="500.00" y2="520.00" /><line style="stroke:blue;fill:blue;" id="16313" x2="500.00" x1="600.00" y1="450.00" y2="450.00" /><line style="stroke:blue;fill:blue;" id="16314" x2="650.00" x1="600.00" y1="450.00" y2="470.00" /><line style="stroke:blue;fill:blue;" id="16315" x2="580.00" x1="640.00" y1="770.00" y2="770.00" /><line style="stroke:blue;fill:blue;" id="16316" x2="700.00" x1="640.00" y1="770.00" y2="770.00" /><line style="stroke:blue;fill:blue;" id="16317" x2="650.00" x1="650.00" y1="50.00" y2="100.00" /><line style="stroke:blue;fill:blue;" id="16318" x2="650.00" x1="650.00" y1="100.00" y2="50.00" /><line style="stroke:blue;fill:blue;" id="16319" x2="730.00" x1="650.00" y1="100.00" y2="70.00" /><line style="stroke:blue;fill:blue;" id="16320" x2="580.00" x1="650.00" y1="100.00" y2="70.00" /><line style="stroke:blue;fill:blue;" id="16321" x2="580.00" x1="650.00" y1="520.00" y2="630.00" /><line style="stroke:blue;fill:blue;" id="16322" x2="700.00" x1="650.00" y1="520.00" y2="570.00" /><line style="stroke:blue;fill:blue;" id="16323" x2="600.00" x1="650.00" y1="520.00" y2="500.00" /><line style="stroke:blue;fill:blue;" id="16324" x2="650.00" x1="650.00" y1="520.00" y2="470.00" /><line style="stroke:blue;fill:blue;" id="16325" x2="650.00" x1="650.00" y1="470.00" y2="520.00" /><line style="stroke:blue;fill:blue;" id="16326" x2="600.00" x1="650.00" y1="470.00" y2="500.00" /><line style="stroke:blue;fill:blue;" id="16327" x2="600.00" x1="650.00" y1="470.00" y2="450.00" /><line style="stroke:blue;fill:blue;" id="16328" x2="730.00" x1="700.00" y1="120.00" y2="70.00" /><line style="stroke:blue;fill:blue;" id="16329" x2="780.00" x1="700.00" y1="120.00" y2="120.00" /><line style="stroke:blue;fill:blue;" id="16330" x2="640.00" x1="700.00" y1="770.00" y2="770.00" /><line style="stroke:blue;fill:blue;" id="16331" x2="780.00" x1="700.00" y1="570.00" y2="610.00" /><line style="stroke:blue;fill:blue;" id="16332" x2="650.00" x1="700.00" y1="570.00" y2="520.00" /><line style="stroke:blue;fill:blue;" id="16333" x2="700.00" x1="730.00" y1="320.00" y2="400.00" /><line style="stroke:blue;fill:blue;" id="16334" x2="800.00" x1="730.00" y1="320.00" y2="320.00" /><line style="stroke:blue;fill:blue;" id="16335" x2="800.00" x1="730.00" y1="320.00" y2="270.00" /><line style="stroke:blue;fill:blue;" id="16336" x2="550.00" x1="730.00" y1="320.00" y2="320.00" /><line style="stroke:blue;fill:blue;" id="16337" x2="650.00" x1="730.00" y1="70.00" y2="100.00" /><line style="stroke:blue;fill:blue;" id="16338" x2="800.00" x1="730.00" y1="70.00" y2="70.00" /><line style="stroke:blue;fill:blue;" id="16339" x2="700.00" x1="730.00" y1="70.00" y2="120.00" /><line style="stroke:blue;fill:blue;" id="16340" x2="780.00" x1="730.00" y1="70.00" y2="120.00" /><line style="stroke:blue;fill:blue;" id="16341" x2="730.00" x1="780.00" y1="120.00" y2="70.00" /><line style="stroke:blue;fill:blue;" id="16342" x2="700.00" x1="780.00" y1="120.00" y2="120.00" /><line style="stroke:blue;fill:blue;" id="16343" x2="800.00" x1="800.00" y1="270.00" y2="320.00" /><line style="stroke:blue;fill:blue;" id="16344" x2="730.00" x1="800.00" y1="270.00" y2="320.00" /><line style="stroke:blue;fill:blue;" id="16345" x2="850.00" x1="800.00" y1="270.00" y2="270.00" /><line style="stroke:blue;fill:blue;" id="16346" x2="800.00" x1="800.00" y1="270.00" y2="220.00" /><line style="stroke:blue;fill:blue;" id="16347" x2="850.00" x1="800.00" y1="320.00" y2="400.00" /><line style="stroke:blue;fill:blue;" id="16348" x2="730.00" x1="800.00" y1="320.00" y2="320.00" /><line style="stroke:blue;fill:blue;" id="16349" x2="880.00" x1="800.00" y1="320.00" y2="320.00" /><line style="stroke:blue;fill:blue;" id="16350" x2="800.00" x1="800.00" y1="320.00" y2="270.00" /><line style="stroke:blue;fill:blue;" id="16351" x2="730.00" x1="800.00" y1="70.00" y2="70.00" /><line style="stroke:blue;fill:blue;" id="16352" x2="850.00" x1="800.00" y1="70.00" y2="120.00" /><line style="stroke:blue;fill:blue;" id="16353" x2="800.00" x1="850.00" y1="400.00" y2="320.00" /><line style="stroke:blue;fill:blue;" id="16354" x2="880.00" x1="850.00" y1="400.00" y2="450.00" /><line style="stroke:blue;fill:blue;" id="16355" x2="800.00" x1="850.00" y1="120.00" y2="70.00" /><line style="stroke:blue;fill:blue;" id="16356" x2="850.00" x1="850.00" y1="120.00" y2="170.00" /><line style="stroke:blue;fill:blue;" id="16357" x2="850.00" x1="850.00" y1="170.00" y2="120.00" /><line style="stroke:blue;fill:blue;" id="16358" x2="850.00" x1="850.00" y1="170.00" y2="220.00" /><line style="stroke:blue;fill:blue;" id="16359" x2="850.00" x1="850.00" y1="220.00" y2="270.00" /><line style="stroke:blue;fill:blue;" id="16360" x2="850.00" x1="850.00" y1="220.00" y2="170.00" /><line style="stroke:blue;fill:blue;" id="16361" x2="800.00" x1="850.00" y1="220.00" y2="220.00" /><line style="stroke:blue;fill:blue;" id="16362" x2="800.00" x1="850.00" y1="270.00" y2="270.00" /><line style="stroke:blue;fill:blue;" id="16363" x2="950.00" x1="850.00" y1="270.00" y2="270.00" /><line style="stroke:blue;fill:blue;" id="16364" x2="850.00" x1="850.00" y1="270.00" y2="220.00" /><line style="stroke:blue;fill:blue;" id="16365" x2="860.00" x1="880.00" y1="450.00" y2="550.00" /><line style="stroke:blue;fill:blue;" id="16366" x2="780.00" x1="880.00" y1="450.00" y2="500.00" /><line style="stroke:blue;fill:blue;" id="16367" x2="990.00" x1="880.00" y1="450.00" y2="480.00" /><line style="stroke:blue;fill:blue;" id="16368" x2="850.00" x1="880.00" y1="450.00" y2="400.00" /><line style="stroke:blue;fill:blue;" id="16369" x2="950.00" x1="880.00" y1="320.00" y2="350.00" /><line style="stroke:blue;fill:blue;" id="16370" x2="800.00" x1="880.00" y1="320.00" y2="320.00" /><line style="stroke:blue;fill:blue;" id="16371" x2="950.00" x1="950.00" y1="220.00" y2="270.00" /><line style="stroke:blue;fill:blue;" id="16372" x2="950.00" x1="950.00" y1="270.00" y2="220.00" /><line style="stroke:blue;fill:blue;" id="16373" x2="850.00" x1="950.00" y1="270.00" y2="270.00" /><line style="stroke:blue;fill:blue;" id="16374" x2="980.00" x1="950.00" y1="350.00" y2="400.00" /><line style="stroke:blue;fill:blue;" id="16375" x2="880.00" x1="950.00" y1="350.00" y2="320.00" /><line style="stroke:blue;fill:blue;" id="16376" x2="106.46" x1="30.00" y1="170.00" y2="189.90" /><line style="stroke:blue;fill:blue;" id="16377" x2="50.00" x1="50.00" y1="20.00" y2="70.00" /><line style="stroke:blue;fill:blue;" id="16378" x2="130.00" x1="50.00" y1="470.00" y2="420.00" /><line style="stroke:blue;fill:blue;" id="16379" x2="50.00" x1="50.00" y1="470.00" y2="520.00" /><line style="stroke:blue;fill:blue;" id="16380" x2="200.00" x1="130.00" y1="420.00" y2="420.00" /><line style="stroke:blue;fill:blue;" id="16381" x2="50.00" x1="130.00" y1="420.00" y2="470.00" /><line style="stroke:blue;fill:blue;" id="16382" x2="50.00" x1="120.00" y1="490.00" y2="520.00" /><line style="stroke:blue;fill:blue;" id="16383" x2="200.00" x1="180.00" y1="370.00" y2="420.00" /><line style="stroke:blue;fill:blue;" id="16384" x2="230.00" x1="230.00" y1="650.00" y2="600.00" /><line style="stroke:blue;fill:blue;" id="16385" x2="250.00" x1="300.00" y1="50.00" y2="50.00" /><line style="stroke:blue;fill:blue;" id="16386" x2="280.00" x1="350.00" y1="450.00" y2="450.00" /><line style="stroke:blue;fill:blue;" id="16387" x2="550.00" x1="560.00" y1="580.00" y2="520.00" /><line style="stroke:blue;fill:blue;" id="16388" x2="450.00" x1="580.00" y1="630.00" y2="570.00" /><line style="stroke:blue;fill:blue;" id="16389" x2="650.00" x1="580.00" y1="630.00" y2="520.00" /><line style="stroke:blue;fill:blue;" id="16390" x2="650.00" x1="580.00" y1="70.00" y2="100.00" /><line style="stroke:blue;fill:blue;" id="16391" x2="500.00" x1="580.00" y1="70.00" y2="70.00" /><line style="stroke:blue;fill:blue;" id="16392" x2="730.00" x1="700.00" y1="400.00" y2="320.00" /><line style="stroke:blue;fill:blue;" id="16393" x2="700.00" x1="780.00" y1="610.00" y2="570.00" /><line style="stroke:blue;fill:blue;" id="16394" x2="880.00" x1="780.00" y1="500.00" y2="450.00" /><line style="stroke:blue;fill:blue;" id="16395" x2="800.00" x1="800.00" y1="220.00" y2="270.00" /><line style="stroke:blue;fill:blue;" id="16396" x2="850.00" x1="800.00" y1="220.00" y2="220.00" /><line style="stroke:blue;fill:blue;" id="16397" x2="880.00" x1="860.00" y1="550.00" y2="450.00" /><line style="stroke:blue;fill:blue;" id="16398" x2="880.00" x1="990.00" y1="480.00" y2="450.00" /><line style="stroke:blue;fill:blue;" id="16399" x2="950.00" x1="980.00" y1="400.00" y2="350.00" /></svg>
