<?xml version="1.0" standalone="yes"?><!DOCTYPE svg PUBLIC "-//W3C//DTD SVG 1.1//EN" "http://www.w3.org/Graphics/SVG/1.1/DTD/svg11.dtd"[]><svg height="800.00" id="15836" width="1050.00" xmlns="http://www.w3.org/2000/svg" xmlns:xlink="http://www.w3.org/1999/xlink"><rect Type="system" Region="卡多尔" height="5.00" y="270.00" Name="希米尔" width="5.00" x="30.00" id="15837" ID="30004141" /><text x="30.00" y="270.00" id="15838">希米尔</text><rect Type="system" Region="卡多尔" height="5.00" y="640.00" Name="埃克哈瓦" width="5.00" x="30.00" id="15840" ID="30015042" /><text x="30.00" y="640.00" id="15841">埃克哈瓦</text><rect Type="system" Region="卡多尔" height="5.00" y="70.00" Name="莱耶勒特" width="5.00" x="50.00" id="15843" ID="30004116" /><text x="50.00" y="70.00" id="15844">莱耶勒特</text><rect Type="system" Region="柯埃佐" height="5.00" y="520.00" Name="马萨努" width="5.00" x="50.00" id="15846" ID="30005041" /><text x="50.00" y="520.00" id="15847">马萨努</text><rect Type="system" Region="卡多尔" height="5.00" y="570.00" Name="孙尼尔" width="5.00" x="80.00" id="15849" ID="30004101" /><text x="80.00" y="570.00" id="15850">孙尼尔</text><rect Type="system" Region="卡多尔" height="5.00" y="620.00" Name="埃斯-伊利斯" width="5.00" x="80.00" id="15852" ID="30004102" /><text x="80.00" y="620.00" id="15853">埃斯-伊利斯</text><rect Type="system" Region="卡多尔" height="5.00" y="100.00" Name="加萨瓦基" width="5.00" x="100.00" id="15855" ID="30004119" /><text x="100.00" y="100.00" id="15856">加萨瓦基</text><rect Type="system" Region="卡多尔" height="5.00" y="149.06" Name="门利" width="5.00" x="79.37" id="15858" ID="30004121" /><text x="79.37" y="149.06" id="15859">门利</text><rect Type="system" Region="卡多尔" height="5.00" y="189.90" Name="莫德" width="5.00" x="106.46" id="15861" ID="30004136" /><text x="106.46" y="189.90" id="15862">莫德</text><rect Type="system" Region="卡多尔" height="5.00" y="230.00" Name="欧漫" width="5.00" x="70.00" id="15864" ID="30004137" /><text x="70.00" y="230.00" id="15865">欧漫</text><rect Type="system" Region="卡多尔" height="5.00" y="270.00" Name="瑟西玛伦" width="5.00" x="100.00" id="15867" ID="30004139" /><text x="100.00" y="270.00" id="15868">瑟西玛伦</text><rect Type="system" Region="卡多尔" height="5.00" y="650.00" Name="左拉贝的" width="5.00" x="160.00" id="15870" ID="30004160" /><text x="160.00" y="650.00" id="15871">左拉贝的</text><rect Type="system" Region="卡多尔" height="5.00" y="720.00" Name="特朗" width="5.00" x="130.00" id="15873" ID="30004158" /><text x="130.00" y="720.00" id="15874">特朗</text><rect Type="system" Region="卡多尔" height="5.00" y="50.00" Name="布舍马尔" width="5.00" x="130.00" id="15876" ID="30004117" /><text x="130.00" y="50.00" id="15877">布舍马尔</text><rect Type="system" Region="卡多尔" height="5.00" y="770.00" Name="拉扎纳" width="5.00" x="130.00" id="15879" ID="30004159" /><text x="130.00" y="770.00" id="15880">拉扎纳</text><rect Type="system" Region="卡多尔" height="5.00" y="550.00" Name="哈利拜" width="5.00" x="150.00" id="15882" ID="30004100" /><text x="150.00" y="550.00" id="15883">哈利拜</text><rect Type="system" Region="卡多尔" height="5.00" y="600.00" Name="索娜玛" width="5.00" x="150.00" id="15885" ID="30004099" /><text x="150.00" y="600.00" id="15886">索娜玛</text><rect Type="system" Region="卡多尔" height="5.00" y="300.00" Name="息诺" width="5.00" x="150.00" id="15888" ID="30004140" /><text x="150.00" y="300.00" id="15889">息诺</text><rect Type="system" Region="卡多尔" height="5.00" y="201.04" Name="贝尔希里姆" width="5.00" x="154.17" id="15891" ID="30004138" /><text x="154.17" y="201.04" id="15892">贝尔希里姆</text><rect Type="system" Region="卡多尔" height="5.00" y="50.00" Name="阿尔迪斯" width="5.00" x="190.00" id="15894" ID="30004118" /><text x="190.00" y="50.00" id="15895">阿尔迪斯</text><rect Type="system" Region="卡多尔" height="5.00" y="420.00" Name="丹塔恩" width="5.00" x="200.00" id="15897" ID="30004097" /><text x="200.00" y="420.00" id="15898">丹塔恩</text><rect Type="system" Region="卡多尔" height="5.00" y="700.00" Name="阿斯里欧斯" width="5.00" x="200.00" id="15900" ID="30004156" /><text x="200.00" y="700.00" id="15901">阿斯里欧斯</text><rect Type="system" Region="卡多尔" height="5.00" y="750.00" Name="伊塔尔" width="5.00" x="200.00" id="15903" ID="30004157" /><text x="200.00" y="750.00" id="15904">伊塔尔</text><rect Type="system" Region="卡多尔" height="5.00" y="550.00" Name="科特" width="5.00" x="230.00" id="15906" ID="30004103" /><text x="230.00" y="550.00" id="15907">科特</text><rect Type="system" Region="卡多尔" height="5.00" y="600.00" Name="图尔巴" width="5.00" x="230.00" id="15909" ID="30004098" /><text x="230.00" y="600.00" id="15910">图尔巴</text><rect Type="system" Region="卡多尔" height="5.00" y="50.00" Name="艾奥基特" width="5.00" x="250.00" id="15912" ID="30004120" /><text x="250.00" y="50.00" id="15913">艾奥基特</text><rect Type="system" Region="卡多尔" height="5.00" y="320.00" Name="勒布拉比" width="5.00" x="250.00" id="15915" ID="30004089" /><text x="250.00" y="320.00" id="15916">勒布拉比</text><rect Type="system" Region="卡多尔" height="5.00" y="720.00" Name="舍马尔" width="5.00" x="250.00" id="15918" ID="30004155" /><text x="250.00" y="720.00" id="15919">舍马尔</text><rect Type="system" Region="卡多尔" height="5.00" y="450.00" Name="卡多尔首星" width="5.00" x="280.00" id="15921" ID="30004095" /><text x="280.00" y="450.00" id="15922">卡多尔首星</text><rect Type="system" Region="卡多尔" height="5.00" y="400.00" Name="卡菲斯" width="5.00" x="300.00" id="15924" ID="30004096" /><text x="300.00" y="400.00" id="15925">卡菲斯</text><rect Type="system" Region="卡多尔" height="5.00" y="500.00" Name="诺尔达" width="5.00" x="300.00" id="15927" ID="30004094" /><text x="300.00" y="500.00" id="15928">诺尔达</text><rect Type="system" Region="卡多尔" height="5.00" y="220.00" Name="库纳" width="5.00" x="300.00" id="15930" ID="30004128" /><text x="300.00" y="220.00" id="15931">库纳</text><rect Type="system" Region="卡多尔" height="5.00" y="550.00" Name="霍斯塔阔" width="5.00" x="330.00" id="15933" ID="30004130" /><text x="330.00" y="550.00" id="15934">霍斯塔阔</text><rect Type="system" Region="卡多尔" height="5.00" y="350.00" Name="果南" width="5.00" x="330.00" id="15936" ID="30004087" /><text x="330.00" y="350.00" id="15937">果南</text><rect Type="system" Region="卡多尔" height="5.00" y="600.00" Name="尤奥" width="5.00" x="330.00" id="15939" ID="30004131" /><text x="330.00" y="600.00" id="15940">尤奥</text><rect Type="system" Region="卡多尔" height="5.00" y="649.29" Name="西玛尔" width="5.00" x="350.03" id="15942" ID="30004133" /><text x="350.03" y="649.29" id="15943">西玛尔</text><rect Type="system" Region="卡多尔" height="5.00" y="70.00" Name="贾吉利" width="5.00" x="350.00" id="15945" ID="30004125" /><text x="350.00" y="70.00" id="15946">贾吉利</text><rect Type="system" Region="卡多尔" height="5.00" y="698.22" Name="卡茨" width="5.00" x="347.47" id="15948" ID="30004134" /><text x="347.47" y="698.22" id="15949">卡茨</text><rect Type="system" Region="卡多尔" height="5.00" y="199.18" Name="兹姆瑟" width="5.00" x="380.02" id="15951" ID="30004127" /><text x="380.02" y="199.18" id="15952">兹姆瑟</text><rect Type="system" Region="卡多尔" height="5.00" y="248.16" Name="蒙诺瑞" width="5.00" x="378.65" id="15954" ID="30004129" /><text x="378.65" y="248.16" id="15955">蒙诺瑞</text><rect Type="system" Region="卡多尔" height="5.00" y="150.00" Name="尼杜帕德" width="5.00" x="380.00" id="15957" ID="30004126" /><text x="380.00" y="150.00" id="15958">尼杜帕德</text><rect Type="system" Region="卡多尔" height="5.00" y="732.49" Name="西卡恩索" width="5.00" x="382.49" id="15960" ID="30004142" /><text x="382.49" y="732.49" id="15961">西卡恩索</text><rect Type="system" Region="卡多尔" height="5.00" y="600.00" Name="杰士德" width="5.00" x="400.00" id="15963" ID="30004132" /><text x="400.00" y="600.00" id="15964">杰士德</text><rect Type="system" Region="卡多尔" height="5.00" y="291.89" Name="阿班德" width="5.00" x="400.75" id="15966" ID="30004090" /><text x="400.75" y="291.89" id="15967">阿班德</text><rect Type="system" Region="卡多尔" height="5.00" y="670.00" Name="舒尔拉" width="5.00" x="400.00" id="15969" ID="30004135" /><text x="400.00" y="670.00" id="15970">舒尔拉</text><rect Type="system" Region="卡多尔" height="5.00" y="30.00" Name="咖利萨斯" width="5.00" x="430.00" id="15972" ID="30004123" /><text x="430.00" y="30.00" id="15973">咖利萨斯</text><rect Type="system" Region="卡多尔" height="5.00" y="330.76" Name="戈西斯" width="5.00" x="430.58" id="15975" ID="30004084" /><text x="430.58" y="330.76" id="15976">戈西斯</text><rect Type="system" Region="卡多尔" height="5.00" y="490.00" Name="穆利尼" width="5.00" x="450.00" id="15978" ID="30004092" /><text x="450.00" y="490.00" id="15979">穆利尼</text><rect Type="system" Region="卡多尔" height="5.00" y="770.00" Name="希尔库索" width="5.00" x="450.00" id="15981" ID="30004143" /><text x="450.00" y="770.00" id="15982">希尔库索</text><rect Type="system" Region="卡多尔" height="5.00" y="570.00" Name="乌亚尼姆" width="5.00" x="450.00" id="15984" ID="30004091" /><text x="450.00" y="570.00" id="15985">乌亚尼姆</text><rect Type="system" Region="卡多尔" height="5.00" y="370.00" Name="乔亚马" width="5.00" x="480.00" id="15987" ID="30004086" /><text x="480.00" y="370.00" id="15988">乔亚马</text><rect Type="system" Region="卡多尔" height="5.00" y="150.00" Name="埃费" width="5.00" x="480.00" id="15990" ID="30004124" /><text x="480.00" y="150.00" id="15991">埃费</text><rect Type="system" Region="卡多尔" height="5.00" y="540.00" Name="耶尼费" width="5.00" x="490.00" id="15993" ID="30004154" /><text x="490.00" y="540.00" id="15994">耶尼费</text><rect Type="system" Region="卡多尔" height="5.00" y="450.00" Name="阿斯科纳克" width="5.00" x="500.00" id="15996" ID="30004093" /><text x="500.00" y="450.00" id="15997">阿斯科纳克</text><rect Type="system" Region="卡多尔" height="5.00" y="70.00" Name="查浓" width="5.00" x="500.00" id="15999" ID="30004122" /><text x="500.00" y="70.00" id="16000">查浓</text><rect Type="system" Region="卡多尔" height="5.00" y="770.00" Name="耶博茨" width="5.00" x="510.00" id="16002" ID="30004144" /><text x="510.00" y="770.00" id="16003">耶博茨</text><rect Type="system" Region="卡多尔" height="5.00" y="320.00" Name="贾姆迪斯" width="5.00" x="550.00" id="16005" ID="30004085" /><text x="550.00" y="320.00" id="16006">贾姆迪斯</text><rect Type="system" Region="卡多尔" height="5.00" y="370.00" Name="尤拉默克" width="5.00" x="550.00" id="16008" ID="30004088" /><text x="550.00" y="370.00" id="16009">尤拉默克</text><rect Type="system" Region="卡多尔" height="5.00" y="520.00" Name="酷热恩" width="5.00" x="550.00" id="16011" ID="30004152" /><text x="550.00" y="520.00" id="16012">酷热恩</text><rect Type="system" Region="卡多尔" height="5.00" y="770.00" Name="哈巴拉" width="5.00" x="580.00" id="16014" ID="30004145" /><text x="580.00" y="770.00" id="16015">哈巴拉</text><rect Type="system" Region="卡多尔" height="5.00" y="500.00" Name="沙格特" width="5.00" x="600.00" id="16017" ID="30004150" /><text x="600.00" y="500.00" id="16018">沙格特</text><rect Type="system" Region="卡多尔" height="5.00" y="450.00" Name="米宁" width="5.00" x="600.00" id="16020" ID="30004153" /><text x="600.00" y="450.00" id="16021">米宁</text><rect Type="system" Region="卡多尔" height="5.00" y="770.00" Name="萨拉赫" width="5.00" x="640.00" id="16023" ID="30004146" /><text x="640.00" y="770.00" id="16024">萨拉赫</text><rect Type="system" Region="卡多尔" height="5.00" y="50.00" Name="德洛克" width="5.00" x="650.00" id="16026" ID="30004105" /><text x="650.00" y="50.00" id="16027">德洛克</text><rect Type="system" Region="卡多尔" height="5.00" y="100.00" Name="安萨索斯" width="5.00" x="650.00" id="16029" ID="30004104" /><text x="650.00" y="100.00" id="16030">安萨索斯</text><rect Type="system" Region="卡多尔" height="5.00" y="520.00" Name="厄尔梅德" width="5.00" x="650.00" id="16032" ID="30004149" /><text x="650.00" y="520.00" id="16033">厄尔梅德</text><rect Type="system" Region="卡多尔" height="5.00" y="470.00" Name="乌特尼亚" width="5.00" x="650.00" id="16035" ID="30004151" /><text x="650.00" y="470.00" id="16036">乌特尼亚</text><rect Type="system" Region="卡多尔" height="5.00" y="120.00" Name="查尼亚" width="5.00" x="700.00" id="16038" ID="30004108" /><text x="700.00" y="120.00" id="16039">查尼亚</text><rect Type="system" Region="卡多尔" height="5.00" y="770.00" Name="阿克蒙" width="5.00" x="700.00" id="16041" ID="30004147" /><text x="700.00" y="770.00" id="16042">阿克蒙</text><rect Type="system" Region="卡多尔" height="5.00" y="570.00" Name="简尼姆" width="5.00" x="700.00" id="16044" ID="30004148" /><text x="700.00" y="570.00" id="16045">简尼姆</text><rect Type="system" Region="卡多尔" height="5.00" y="320.00" Name="佐尔茨" width="5.00" x="730.00" id="16047" ID="30004081" /><text x="730.00" y="320.00" id="16048">佐尔茨</text><rect Type="system" Region="卡多尔" height="5.00" y="70.00" Name="波尔丹" width="5.00" x="730.00" id="16050" ID="30004106" /><text x="730.00" y="70.00" id="16051">波尔丹</text><rect Type="system" Region="卡多尔" height="5.00" y="120.00" Name="欧贝伦" width="5.00" x="780.00" id="16053" ID="30004109" /><text x="780.00" y="120.00" id="16054">欧贝伦</text><rect Type="system" Region="卡多尔" height="5.00" y="270.00" Name="基恩瑟拉" width="5.00" x="800.00" id="16056" ID="30004083" /><text x="800.00" y="270.00" id="16057">基恩瑟拉</text><rect Type="system" Region="卡多尔" height="5.00" y="320.00" Name="德勒斯" width="5.00" x="800.00" id="16059" ID="30004078" /><text x="800.00" y="320.00" id="16060">德勒斯</text><rect Type="system" Region="卡多尔" height="5.00" y="70.00" Name="茨梅姆" width="5.00" x="800.00" id="16062" ID="30004107" /><text x="800.00" y="70.00" id="16063">茨梅姆</text><rect Type="system" Region="卡多尔" height="5.00" y="400.00" Name="埃费恩的" width="5.00" x="850.00" id="16065" ID="30004079" /><text x="850.00" y="400.00" id="16066">埃费恩的</text><rect Type="system" Region="卡多尔" height="5.00" y="120.00" Name="曼铎" width="5.00" x="850.00" id="16068" ID="30004112" /><text x="850.00" y="120.00" id="16069">曼铎</text><rect Type="system" Region="卡多尔" height="5.00" y="170.00" Name="佩伊利" width="5.00" x="850.00" id="16071" ID="30004114" /><text x="850.00" y="170.00" id="16072">佩伊利</text><rect Type="system" Region="卡多尔" height="5.00" y="220.00" Name="卡姆达" width="5.00" x="850.00" id="16074" ID="30004115" /><text x="850.00" y="220.00" id="16075">卡姆达</text><rect Type="system" Region="卡多尔" height="5.00" y="270.00" Name="米娅" width="5.00" x="850.00" id="16077" ID="30004113" /><text x="850.00" y="270.00" id="16078">米娅</text><rect Type="system" Region="卡多尔" height="5.00" y="450.00" Name="罗密" width="5.00" x="880.00" id="16080" ID="30004080" /><text x="880.00" y="450.00" id="16081">罗密</text><rect Type="system" Region="卡多尔" height="5.00" y="320.00" Name="艾哈拉勒" width="5.00" x="880.00" id="16083" ID="30004082" /><text x="880.00" y="320.00" id="16084">艾哈拉勒</text><rect Type="system" Region="卡多尔" height="5.00" y="220.00" Name="芬尼迪" width="5.00" x="950.00" id="16086" ID="30004110" /><text x="950.00" y="220.00" id="16087">芬尼迪</text><rect Type="system" Region="卡多尔" height="5.00" y="270.00" Name="亚勒巴浦" width="5.00" x="950.00" id="16089" ID="30004111" /><text x="950.00" y="270.00" id="16090">亚勒巴浦</text><rect Type="system" Region="卡多尔" height="5.00" y="350.00" Name="希罗德" width="5.00" x="950.00" id="16092" ID="30004077" /><text x="950.00" y="350.00" id="16093">希罗德</text><rect Type="system" Region="多美" height="5.00" y="170.00" Name="阿莫德" width="5.00" x="30.00" id="16095" ID="30003480" /><text x="30.00" y="170.00" id="16096">阿莫德</text><rect Type="system" Region="吉勒西斯" height="5.00" y="20.00" Name="希礼赞" width="5.00" x="50.00" id="16098" ID="30005248" /><text x="50.00" y="20.00" id="16099">希礼赞</text><rect Type="system" Region="柯埃佐" height="5.00" y="470.00" Name="勒瓦" width="5.00" x="50.00" id="16101" ID="30005039" /><text x="50.00" y="470.00" id="16102">勒瓦</text><rect Type="system" Region="柯埃佐" height="5.00" y="420.00" Name="安姆多尼" width="5.00" x="130.00" id="16104" ID="30005036" /><text x="130.00" y="420.00" id="16105">安姆多尼</text><rect Type="system" Region="卡尼迪" height="5.00" y="490.00" Name="伊维卡姆" width="5.00" x="120.00" id="16107" ID="30003867" /><text x="120.00" y="490.00" id="16108">伊维卡姆</text><rect Type="system" Region="柯埃佐" height="5.00" y="370.00" Name="丹亚娜" width="5.00" x="180.00" id="16110" ID="30005044" /><text x="180.00" y="370.00" id="16111">丹亚娜</text><rect Type="system" Region="塔什蒙贡" height="5.00" y="650.00" Name="欧纳泽尔" width="5.00" x="230.00" id="16113" ID="30001688" /><text x="230.00" y="650.00" id="16114">欧纳泽尔</text><rect Type="system" Region="吉勒西斯" height="5.00" y="50.00" Name="佩蒂杜" width="5.00" x="300.00" id="16116" ID="30005241" /><text x="300.00" y="50.00" id="16117">佩蒂杜</text><rect Type="system" Region="多美" height="5.00" y="450.00" Name="博拉那伊" width="5.00" x="350.00" id="16119" ID="30002188" /><text x="350.00" y="450.00" id="16120">博拉那伊</text><rect Type="system" Region="多美" height="5.00" y="580.00" Name="马耳他" width="5.00" x="560.00" id="16122" ID="30002194" /><text x="560.00" y="580.00" id="16123">马耳他</text><rect Type="system" Region="塔什蒙贡" height="5.00" y="630.00" Name="普姆索" width="5.00" x="580.00" id="16125" ID="30001652" /><text x="580.00" y="630.00" id="16126">普姆索</text><rect Type="system" Region="吉勒西斯" height="5.00" y="70.00" Name="伊德里庸" width="5.00" x="580.00" id="16128" ID="30005227" /><text x="580.00" y="70.00" id="16129">伊德里庸</text><rect Type="system" Region="多美" height="5.00" y="400.00" Name="埃克拉甘" width="5.00" x="700.00" id="16131" ID="30002197" /><text x="700.00" y="400.00" id="16132">埃克拉甘</text><rect Type="system" Region="多美" height="5.00" y="610.00" Name="萨费安" width="5.00" x="780.00" id="16134" ID="30002279" /><text x="780.00" y="610.00" id="16135">萨费安</text><rect Type="system" Region="多美" height="5.00" y="500.00" Name="马蒂米里若" width="5.00" x="780.00" id="16137" ID="30003503" /><text x="780.00" y="500.00" id="16138">马蒂米里若</text><rect Type="system" Region="吉勒西斯" height="5.00" y="220.00" Name="舍拉" width="5.00" x="800.00" id="16140" ID="30005192" /><text x="800.00" y="220.00" id="16141">舍拉</text><rect Type="system" Region="多美" height="5.00" y="550.00" Name="必泽巴" width="5.00" x="860.00" id="16143" ID="30002282" /><text x="860.00" y="550.00" id="16144">必泽巴</text><rect Type="system" Region="多美" height="5.00" y="480.00" Name="萨亚尔臣" width="5.00" x="990.00" id="16146" ID="30003508" /><text x="990.00" y="480.00" id="16147">萨亚尔臣</text><rect Type="system" Region="多美" height="5.00" y="400.00" Name="法胡尔" width="5.00" x="980.00" id="16149" ID="30003473" /><text x="980.00" y="400.00" id="16150">法胡尔</text><line x2="100.00" style="fill:blue;stroke:blue;" y1="270.00" x1="30.00" id="16152" y2="270.00" /><line x2="80.00" style="fill:blue;stroke:blue;" y1="640.00" x1="30.00" id="16153" y2="620.00" /><line x2="130.00" style="fill:blue;stroke:blue;" y1="70.00" x1="50.00" id="16154" y2="50.00" /><line x2="100.00" style="fill:blue;stroke:blue;" y1="70.00" x1="50.00" id="16155" y2="100.00" /><line x2="50.00" style="fill:blue;stroke:blue;" y1="70.00" x1="50.00" id="16156" y2="20.00" /><line x2="120.00" style="fill:blue;stroke:blue;" y1="520.00" x1="50.00" id="16157" y2="490.00" /><line x2="80.00" style="fill:blue;stroke:blue;" y1="520.00" x1="50.00" id="16158" y2="570.00" /><line x2="50.00" style="fill:blue;stroke:blue;" y1="520.00" x1="50.00" id="16159" y2="470.00" /><line x2="150.00" style="fill:blue;stroke:blue;" y1="570.00" x1="80.00" id="16160" y2="600.00" /><line x2="80.00" style="fill:blue;stroke:blue;" y1="570.00" x1="80.00" id="16161" y2="620.00" /><line x2="50.00" style="fill:blue;stroke:blue;" y1="570.00" x1="80.00" id="16162" y2="520.00" /><line x2="150.00" style="fill:blue;stroke:blue;" y1="620.00" x1="80.00" id="16163" y2="600.00" /><line x2="80.00" style="fill:blue;stroke:blue;" y1="620.00" x1="80.00" id="16164" y2="570.00" /><line x2="30.00" style="fill:blue;stroke:blue;" y1="620.00" x1="80.00" id="16165" y2="640.00" /><line x2="50.00" style="fill:blue;stroke:blue;" y1="100.00" x1="100.00" id="16166" y2="70.00" /><line x2="130.00" style="fill:blue;stroke:blue;" y1="100.00" x1="100.00" id="16167" y2="50.00" /><line x2="79.37" style="fill:blue;stroke:blue;" y1="100.00" x1="100.00" id="16168" y2="149.06" /><line x2="100.00" style="fill:blue;stroke:blue;" y1="149.06" x1="79.37" id="16169" y2="100.00" /><line x2="106.46" style="fill:blue;stroke:blue;" y1="149.06" x1="79.37" id="16170" y2="189.90" /><line x2="30.00" style="fill:blue;stroke:blue;" y1="189.90" x1="106.46" id="16171" y2="170.00" /><line x2="79.37" style="fill:blue;stroke:blue;" y1="189.90" x1="106.46" id="16172" y2="149.06" /><line x2="70.00" style="fill:blue;stroke:blue;" y1="189.90" x1="106.46" id="16173" y2="230.00" /><line x2="154.17" style="fill:blue;stroke:blue;" y1="189.90" x1="106.46" id="16174" y2="201.04" /><line x2="106.46" style="fill:blue;stroke:blue;" y1="230.00" x1="70.00" id="16175" y2="189.90" /><line x2="154.17" style="fill:blue;stroke:blue;" y1="230.00" x1="70.00" id="16176" y2="201.04" /><line x2="100.00" style="fill:blue;stroke:blue;" y1="230.00" x1="70.00" id="16177" y2="270.00" /><line x2="70.00" style="fill:blue;stroke:blue;" y1="270.00" x1="100.00" id="16178" y2="230.00" /><line x2="150.00" style="fill:blue;stroke:blue;" y1="270.00" x1="100.00" id="16179" y2="300.00" /><line x2="30.00" style="fill:blue;stroke:blue;" y1="270.00" x1="100.00" id="16180" y2="270.00" /><line x2="200.00" style="fill:blue;stroke:blue;" y1="650.00" x1="160.00" id="16181" y2="700.00" /><line x2="200.00" style="fill:blue;stroke:blue;" y1="720.00" x1="130.00" id="16182" y2="700.00" /><line x2="50.00" style="fill:blue;stroke:blue;" y1="50.00" x1="130.00" id="16183" y2="70.00" /><line x2="190.00" style="fill:blue;stroke:blue;" y1="50.00" x1="130.00" id="16184" y2="50.00" /><line x2="100.00" style="fill:blue;stroke:blue;" y1="50.00" x1="130.00" id="16185" y2="100.00" /><line x2="200.00" style="fill:blue;stroke:blue;" y1="770.00" x1="130.00" id="16186" y2="750.00" /><line x2="150.00" style="fill:blue;stroke:blue;" y1="550.00" x1="150.00" id="16187" y2="600.00" /><line x2="230.00" style="fill:blue;stroke:blue;" y1="600.00" x1="150.00" id="16188" y2="600.00" /><line x2="150.00" style="fill:blue;stroke:blue;" y1="600.00" x1="150.00" id="16189" y2="550.00" /><line x2="80.00" style="fill:blue;stroke:blue;" y1="600.00" x1="150.00" id="16190" y2="570.00" /><line x2="80.00" style="fill:blue;stroke:blue;" y1="600.00" x1="150.00" id="16191" y2="620.00" /><line x2="250.00" style="fill:blue;stroke:blue;" y1="300.00" x1="150.00" id="16192" y2="320.00" /><line x2="100.00" style="fill:blue;stroke:blue;" y1="300.00" x1="150.00" id="16193" y2="270.00" /><line x2="106.46" style="fill:blue;stroke:blue;" y1="201.04" x1="154.17" id="16194" y2="189.90" /><line x2="70.00" style="fill:blue;stroke:blue;" y1="201.04" x1="154.17" id="16195" y2="230.00" /><line x2="130.00" style="fill:blue;stroke:blue;" y1="50.00" x1="190.00" id="16196" y2="50.00" /><line x2="250.00" style="fill:blue;stroke:blue;" y1="50.00" x1="190.00" id="16197" y2="50.00" /><line x2="280.00" style="fill:blue;stroke:blue;" y1="420.00" x1="200.00" id="16198" y2="450.00" /><line x2="130.00" style="fill:blue;stroke:blue;" y1="420.00" x1="200.00" id="16199" y2="420.00" /><line x2="180.00" style="fill:blue;stroke:blue;" y1="420.00" x1="200.00" id="16200" y2="370.00" /><line x2="250.00" style="fill:blue;stroke:blue;" y1="700.00" x1="200.00" id="16201" y2="720.00" /><line x2="130.00" style="fill:blue;stroke:blue;" y1="700.00" x1="200.00" id="16202" y2="720.00" /><line x2="160.00" style="fill:blue;stroke:blue;" y1="700.00" x1="200.00" id="16203" y2="650.00" /><line x2="250.00" style="fill:blue;stroke:blue;" y1="750.00" x1="200.00" id="16204" y2="720.00" /><line x2="130.00" style="fill:blue;stroke:blue;" y1="750.00" x1="200.00" id="16205" y2="770.00" /><line x2="230.00" style="fill:blue;stroke:blue;" y1="550.00" x1="230.00" id="16206" y2="600.00" /><line x2="230.00" style="fill:blue;stroke:blue;" y1="600.00" x1="230.00" id="16207" y2="650.00" /><line x2="150.00" style="fill:blue;stroke:blue;" y1="600.00" x1="230.00" id="16208" y2="600.00" /><line x2="230.00" style="fill:blue;stroke:blue;" y1="600.00" x1="230.00" id="16209" y2="550.00" /><line x2="330.00" style="fill:blue;stroke:blue;" y1="600.00" x1="230.00" id="16210" y2="600.00" /><line x2="190.00" style="fill:blue;stroke:blue;" y1="50.00" x1="250.00" id="16211" y2="50.00" /><line x2="300.00" style="fill:blue;stroke:blue;" y1="50.00" x1="250.00" id="16212" y2="50.00" /><line x2="330.00" style="fill:blue;stroke:blue;" y1="320.00" x1="250.00" id="16213" y2="350.00" /><line x2="150.00" style="fill:blue;stroke:blue;" y1="320.00" x1="250.00" id="16214" y2="300.00" /><line x2="347.47" style="fill:blue;stroke:blue;" y1="720.00" x1="250.00" id="16215" y2="698.22" /><line x2="200.00" style="fill:blue;stroke:blue;" y1="720.00" x1="250.00" id="16216" y2="700.00" /><line x2="200.00" style="fill:blue;stroke:blue;" y1="720.00" x1="250.00" id="16217" y2="750.00" /><line x2="350.00" style="fill:blue;stroke:blue;" y1="450.00" x1="280.00" id="16218" y2="450.00" /><line x2="300.00" style="fill:blue;stroke:blue;" y1="450.00" x1="280.00" id="16219" y2="500.00" /><line x2="300.00" style="fill:blue;stroke:blue;" y1="450.00" x1="280.00" id="16220" y2="400.00" /><line x2="200.00" style="fill:blue;stroke:blue;" y1="450.00" x1="280.00" id="16221" y2="420.00" /><line x2="330.00" style="fill:blue;stroke:blue;" y1="400.00" x1="300.00" id="16222" y2="350.00" /><line x2="280.00" style="fill:blue;stroke:blue;" y1="400.00" x1="300.00" id="16223" y2="450.00" /><line x2="450.00" style="fill:blue;stroke:blue;" y1="500.00" x1="300.00" id="16224" y2="490.00" /><line x2="280.00" style="fill:blue;stroke:blue;" y1="500.00" x1="300.00" id="16225" y2="450.00" /><line x2="330.00" style="fill:blue;stroke:blue;" y1="500.00" x1="300.00" id="16226" y2="550.00" /><line x2="380.02" style="fill:blue;stroke:blue;" y1="220.00" x1="300.00" id="16227" y2="199.18" /><line x2="378.65" style="fill:blue;stroke:blue;" y1="220.00" x1="300.00" id="16228" y2="248.16" /><line x2="300.00" style="fill:blue;stroke:blue;" y1="550.00" x1="330.00" id="16229" y2="500.00" /><line x2="330.00" style="fill:blue;stroke:blue;" y1="550.00" x1="330.00" id="16230" y2="600.00" /><line x2="430.58" style="fill:blue;stroke:blue;" y1="350.00" x1="330.00" id="16231" y2="330.76" /><line x2="250.00" style="fill:blue;stroke:blue;" y1="350.00" x1="330.00" id="16232" y2="320.00" /><line x2="300.00" style="fill:blue;stroke:blue;" y1="350.00" x1="330.00" id="16233" y2="400.00" /><line x2="230.00" style="fill:blue;stroke:blue;" y1="600.00" x1="330.00" id="16234" y2="600.00" /><line x2="330.00" style="fill:blue;stroke:blue;" y1="600.00" x1="330.00" id="16235" y2="550.00" /><line x2="400.00" style="fill:blue;stroke:blue;" y1="600.00" x1="330.00" id="16236" y2="600.00" /><line x2="350.03" style="fill:blue;stroke:blue;" y1="600.00" x1="330.00" id="16237" y2="649.29" /><line x2="330.00" style="fill:blue;stroke:blue;" y1="649.29" x1="350.03" id="16238" y2="600.00" /><line x2="400.00" style="fill:blue;stroke:blue;" y1="649.29" x1="350.03" id="16239" y2="600.00" /><line x2="347.47" style="fill:blue;stroke:blue;" y1="649.29" x1="350.03" id="16240" y2="698.22" /><line x2="400.00" style="fill:blue;stroke:blue;" y1="649.29" x1="350.03" id="16241" y2="670.00" /><line x2="500.00" style="fill:blue;stroke:blue;" y1="70.00" x1="350.00" id="16242" y2="70.00" /><line x2="430.00" style="fill:blue;stroke:blue;" y1="70.00" x1="350.00" id="16243" y2="30.00" /><line x2="480.00" style="fill:blue;stroke:blue;" y1="70.00" x1="350.00" id="16244" y2="150.00" /><line x2="380.00" style="fill:blue;stroke:blue;" y1="70.00" x1="350.00" id="16245" y2="150.00" /><line x2="350.03" style="fill:blue;stroke:blue;" y1="698.22" x1="347.47" id="16246" y2="649.29" /><line x2="400.00" style="fill:blue;stroke:blue;" y1="698.22" x1="347.47" id="16247" y2="670.00" /><line x2="382.49" style="fill:blue;stroke:blue;" y1="698.22" x1="347.47" id="16248" y2="732.49" /><line x2="250.00" style="fill:blue;stroke:blue;" y1="698.22" x1="347.47" id="16249" y2="720.00" /><line x2="380.00" style="fill:blue;stroke:blue;" y1="199.18" x1="380.02" id="16250" y2="150.00" /><line x2="300.00" style="fill:blue;stroke:blue;" y1="199.18" x1="380.02" id="16251" y2="220.00" /><line x2="378.65" style="fill:blue;stroke:blue;" y1="199.18" x1="380.02" id="16252" y2="248.16" /><line x2="400.75" style="fill:blue;stroke:blue;" y1="248.16" x1="378.65" id="16253" y2="291.89" /><line x2="380.02" style="fill:blue;stroke:blue;" y1="248.16" x1="378.65" id="16254" y2="199.18" /><line x2="300.00" style="fill:blue;stroke:blue;" y1="248.16" x1="378.65" id="16255" y2="220.00" /><line x2="500.00" style="fill:blue;stroke:blue;" y1="150.00" x1="380.00" id="16256" y2="70.00" /><line x2="430.00" style="fill:blue;stroke:blue;" y1="150.00" x1="380.00" id="16257" y2="30.00" /><line x2="480.00" style="fill:blue;stroke:blue;" y1="150.00" x1="380.00" id="16258" y2="150.00" /><line x2="350.00" style="fill:blue;stroke:blue;" y1="150.00" x1="380.00" id="16259" y2="70.00" /><line x2="380.02" style="fill:blue;stroke:blue;" y1="150.00" x1="380.00" id="16260" y2="199.18" /><line x2="347.47" style="fill:blue;stroke:blue;" y1="732.49" x1="382.49" id="16261" y2="698.22" /><line x2="450.00" style="fill:blue;stroke:blue;" y1="732.49" x1="382.49" id="16262" y2="770.00" /><line x2="330.00" style="fill:blue;stroke:blue;" y1="600.00" x1="400.00" id="16263" y2="600.00" /><line x2="350.03" style="fill:blue;stroke:blue;" y1="600.00" x1="400.00" id="16264" y2="649.29" /><line x2="430.58" style="fill:blue;stroke:blue;" y1="291.89" x1="400.75" id="16265" y2="330.76" /><line x2="378.65" style="fill:blue;stroke:blue;" y1="291.89" x1="400.75" id="16266" y2="248.16" /><line x2="350.03" style="fill:blue;stroke:blue;" y1="670.00" x1="400.00" id="16267" y2="649.29" /><line x2="347.47" style="fill:blue;stroke:blue;" y1="670.00" x1="400.00" id="16268" y2="698.22" /><line x2="500.00" style="fill:blue;stroke:blue;" y1="30.00" x1="430.00" id="16269" y2="70.00" /><line x2="480.00" style="fill:blue;stroke:blue;" y1="30.00" x1="430.00" id="16270" y2="150.00" /><line x2="350.00" style="fill:blue;stroke:blue;" y1="30.00" x1="430.00" id="16271" y2="70.00" /><line x2="380.00" style="fill:blue;stroke:blue;" y1="30.00" x1="430.00" id="16272" y2="150.00" /><line x2="550.00" style="fill:blue;stroke:blue;" y1="330.76" x1="430.58" id="16273" y2="320.00" /><line x2="480.00" style="fill:blue;stroke:blue;" y1="330.76" x1="430.58" id="16274" y2="370.00" /><line x2="330.00" style="fill:blue;stroke:blue;" y1="330.76" x1="430.58" id="16275" y2="350.00" /><line x2="400.75" style="fill:blue;stroke:blue;" y1="330.76" x1="430.58" id="16276" y2="291.89" /><line x2="450.00" style="fill:blue;stroke:blue;" y1="490.00" x1="450.00" id="16277" y2="570.00" /><line x2="500.00" style="fill:blue;stroke:blue;" y1="490.00" x1="450.00" id="16278" y2="450.00" /><line x2="300.00" style="fill:blue;stroke:blue;" y1="490.00" x1="450.00" id="16279" y2="500.00" /><line x2="600.00" style="fill:blue;stroke:blue;" y1="490.00" x1="450.00" id="16280" y2="500.00" /><line x2="382.49" style="fill:blue;stroke:blue;" y1="770.00" x1="450.00" id="16281" y2="732.49" /><line x2="510.00" style="fill:blue;stroke:blue;" y1="770.00" x1="450.00" id="16282" y2="770.00" /><line x2="580.00" style="fill:blue;stroke:blue;" y1="570.00" x1="450.00" id="16283" y2="630.00" /><line x2="450.00" style="fill:blue;stroke:blue;" y1="570.00" x1="450.00" id="16284" y2="490.00" /><line x2="430.58" style="fill:blue;stroke:blue;" y1="370.00" x1="480.00" id="16285" y2="330.76" /><line x2="500.00" style="fill:blue;stroke:blue;" y1="150.00" x1="480.00" id="16286" y2="70.00" /><line x2="430.00" style="fill:blue;stroke:blue;" y1="150.00" x1="480.00" id="16287" y2="30.00" /><line x2="350.00" style="fill:blue;stroke:blue;" y1="150.00" x1="480.00" id="16288" y2="70.00" /><line x2="380.00" style="fill:blue;stroke:blue;" y1="150.00" x1="480.00" id="16289" y2="150.00" /><line x2="550.00" style="fill:blue;stroke:blue;" y1="540.00" x1="490.00" id="16290" y2="520.00" /><line x2="450.00" style="fill:blue;stroke:blue;" y1="450.00" x1="500.00" id="16291" y2="490.00" /><line x2="600.00" style="fill:blue;stroke:blue;" y1="450.00" x1="500.00" id="16292" y2="450.00" /><line x2="430.00" style="fill:blue;stroke:blue;" y1="70.00" x1="500.00" id="16293" y2="30.00" /><line x2="480.00" style="fill:blue;stroke:blue;" y1="70.00" x1="500.00" id="16294" y2="150.00" /><line x2="350.00" style="fill:blue;stroke:blue;" y1="70.00" x1="500.00" id="16295" y2="70.00" /><line x2="380.00" style="fill:blue;stroke:blue;" y1="70.00" x1="500.00" id="16296" y2="150.00" /><line x2="580.00" style="fill:blue;stroke:blue;" y1="70.00" x1="500.00" id="16297" y2="70.00" /><line x2="450.00" style="fill:blue;stroke:blue;" y1="770.00" x1="510.00" id="16298" y2="770.00" /><line x2="580.00" style="fill:blue;stroke:blue;" y1="770.00" x1="510.00" id="16299" y2="770.00" /><line x2="730.00" style="fill:blue;stroke:blue;" y1="320.00" x1="550.00" id="16300" y2="320.00" /><line x2="430.58" style="fill:blue;stroke:blue;" y1="320.00" x1="550.00" id="16301" y2="330.76" /><line x2="550.00" style="fill:blue;stroke:blue;" y1="320.00" x1="550.00" id="16302" y2="370.00" /><line x2="550.00" style="fill:blue;stroke:blue;" y1="370.00" x1="550.00" id="16303" y2="320.00" /><line x2="560.00" style="fill:blue;stroke:blue;" y1="520.00" x1="550.00" id="16304" y2="580.00" /><line x2="600.00" style="fill:blue;stroke:blue;" y1="520.00" x1="550.00" id="16305" y2="500.00" /><line x2="490.00" style="fill:blue;stroke:blue;" y1="520.00" x1="550.00" id="16306" y2="540.00" /><line x2="510.00" style="fill:blue;stroke:blue;" y1="770.00" x1="580.00" id="16307" y2="770.00" /><line x2="640.00" style="fill:blue;stroke:blue;" y1="770.00" x1="580.00" id="16308" y2="770.00" /><line x2="450.00" style="fill:blue;stroke:blue;" y1="500.00" x1="600.00" id="16309" y2="490.00" /><line x2="650.00" style="fill:blue;stroke:blue;" y1="500.00" x1="600.00" id="16310" y2="520.00" /><line x2="650.00" style="fill:blue;stroke:blue;" y1="500.00" x1="600.00" id="16311" y2="470.00" /><line x2="550.00" style="fill:blue;stroke:blue;" y1="500.00" x1="600.00" id="16312" y2="520.00" /><line x2="500.00" style="fill:blue;stroke:blue;" y1="450.00" x1="600.00" id="16313" y2="450.00" /><line x2="650.00" style="fill:blue;stroke:blue;" y1="450.00" x1="600.00" id="16314" y2="470.00" /><line x2="580.00" style="fill:blue;stroke:blue;" y1="770.00" x1="640.00" id="16315" y2="770.00" /><line x2="700.00" style="fill:blue;stroke:blue;" y1="770.00" x1="640.00" id="16316" y2="770.00" /><line x2="650.00" style="fill:blue;stroke:blue;" y1="50.00" x1="650.00" id="16317" y2="100.00" /><line x2="650.00" style="fill:blue;stroke:blue;" y1="100.00" x1="650.00" id="16318" y2="50.00" /><line x2="730.00" style="fill:blue;stroke:blue;" y1="100.00" x1="650.00" id="16319" y2="70.00" /><line x2="580.00" style="fill:blue;stroke:blue;" y1="100.00" x1="650.00" id="16320" y2="70.00" /><line x2="580.00" style="fill:blue;stroke:blue;" y1="520.00" x1="650.00" id="16321" y2="630.00" /><line x2="700.00" style="fill:blue;stroke:blue;" y1="520.00" x1="650.00" id="16322" y2="570.00" /><line x2="600.00" style="fill:blue;stroke:blue;" y1="520.00" x1="650.00" id="16323" y2="500.00" /><line x2="650.00" style="fill:blue;stroke:blue;" y1="520.00" x1="650.00" id="16324" y2="470.00" /><line x2="650.00" style="fill:blue;stroke:blue;" y1="470.00" x1="650.00" id="16325" y2="520.00" /><line x2="600.00" style="fill:blue;stroke:blue;" y1="470.00" x1="650.00" id="16326" y2="500.00" /><line x2="600.00" style="fill:blue;stroke:blue;" y1="470.00" x1="650.00" id="16327" y2="450.00" /><line x2="730.00" style="fill:blue;stroke:blue;" y1="120.00" x1="700.00" id="16328" y2="70.00" /><line x2="780.00" style="fill:blue;stroke:blue;" y1="120.00" x1="700.00" id="16329" y2="120.00" /><line x2="640.00" style="fill:blue;stroke:blue;" y1="770.00" x1="700.00" id="16330" y2="770.00" /><line x2="780.00" style="fill:blue;stroke:blue;" y1="570.00" x1="700.00" id="16331" y2="610.00" /><line x2="650.00" style="fill:blue;stroke:blue;" y1="570.00" x1="700.00" id="16332" y2="520.00" /><line x2="700.00" style="fill:blue;stroke:blue;" y1="320.00" x1="730.00" id="16333" y2="400.00" /><line x2="800.00" style="fill:blue;stroke:blue;" y1="320.00" x1="730.00" id="16334" y2="320.00" /><line x2="800.00" style="fill:blue;stroke:blue;" y1="320.00" x1="730.00" id="16335" y2="270.00" /><line x2="550.00" style="fill:blue;stroke:blue;" y1="320.00" x1="730.00" id="16336" y2="320.00" /><line x2="650.00" style="fill:blue;stroke:blue;" y1="70.00" x1="730.00" id="16337" y2="100.00" /><line x2="800.00" style="fill:blue;stroke:blue;" y1="70.00" x1="730.00" id="16338" y2="70.00" /><line x2="700.00" style="fill:blue;stroke:blue;" y1="70.00" x1="730.00" id="16339" y2="120.00" /><line x2="780.00" style="fill:blue;stroke:blue;" y1="70.00" x1="730.00" id="16340" y2="120.00" /><line x2="730.00" style="fill:blue;stroke:blue;" y1="120.00" x1="780.00" id="16341" y2="70.00" /><line x2="700.00" style="fill:blue;stroke:blue;" y1="120.00" x1="780.00" id="16342" y2="120.00" /><line x2="800.00" style="fill:blue;stroke:blue;" y1="270.00" x1="800.00" id="16343" y2="320.00" /><line x2="730.00" style="fill:blue;stroke:blue;" y1="270.00" x1="800.00" id="16344" y2="320.00" /><line x2="850.00" style="fill:blue;stroke:blue;" y1="270.00" x1="800.00" id="16345" y2="270.00" /><line x2="800.00" style="fill:blue;stroke:blue;" y1="270.00" x1="800.00" id="16346" y2="220.00" /><line x2="850.00" style="fill:blue;stroke:blue;" y1="320.00" x1="800.00" id="16347" y2="400.00" /><line x2="730.00" style="fill:blue;stroke:blue;" y1="320.00" x1="800.00" id="16348" y2="320.00" /><line x2="880.00" style="fill:blue;stroke:blue;" y1="320.00" x1="800.00" id="16349" y2="320.00" /><line x2="800.00" style="fill:blue;stroke:blue;" y1="320.00" x1="800.00" id="16350" y2="270.00" /><line x2="730.00" style="fill:blue;stroke:blue;" y1="70.00" x1="800.00" id="16351" y2="70.00" /><line x2="850.00" style="fill:blue;stroke:blue;" y1="70.00" x1="800.00" id="16352" y2="120.00" /><line x2="800.00" style="fill:blue;stroke:blue;" y1="400.00" x1="850.00" id="16353" y2="320.00" /><line x2="880.00" style="fill:blue;stroke:blue;" y1="400.00" x1="850.00" id="16354" y2="450.00" /><line x2="800.00" style="fill:blue;stroke:blue;" y1="120.00" x1="850.00" id="16355" y2="70.00" /><line x2="850.00" style="fill:blue;stroke:blue;" y1="120.00" x1="850.00" id="16356" y2="170.00" /><line x2="850.00" style="fill:blue;stroke:blue;" y1="170.00" x1="850.00" id="16357" y2="120.00" /><line x2="850.00" style="fill:blue;stroke:blue;" y1="170.00" x1="850.00" id="16358" y2="220.00" /><line x2="850.00" style="fill:blue;stroke:blue;" y1="220.00" x1="850.00" id="16359" y2="270.00" /><line x2="850.00" style="fill:blue;stroke:blue;" y1="220.00" x1="850.00" id="16360" y2="170.00" /><line x2="800.00" style="fill:blue;stroke:blue;" y1="220.00" x1="850.00" id="16361" y2="220.00" /><line x2="800.00" style="fill:blue;stroke:blue;" y1="270.00" x1="850.00" id="16362" y2="270.00" /><line x2="950.00" style="fill:blue;stroke:blue;" y1="270.00" x1="850.00" id="16363" y2="270.00" /><line x2="850.00" style="fill:blue;stroke:blue;" y1="270.00" x1="850.00" id="16364" y2="220.00" /><line x2="860.00" style="fill:blue;stroke:blue;" y1="450.00" x1="880.00" id="16365" y2="550.00" /><line x2="780.00" style="fill:blue;stroke:blue;" y1="450.00" x1="880.00" id="16366" y2="500.00" /><line x2="990.00" style="fill:blue;stroke:blue;" y1="450.00" x1="880.00" id="16367" y2="480.00" /><line x2="850.00" style="fill:blue;stroke:blue;" y1="450.00" x1="880.00" id="16368" y2="400.00" /><line x2="950.00" style="fill:blue;stroke:blue;" y1="320.00" x1="880.00" id="16369" y2="350.00" /><line x2="800.00" style="fill:blue;stroke:blue;" y1="320.00" x1="880.00" id="16370" y2="320.00" /><line x2="950.00" style="fill:blue;stroke:blue;" y1="220.00" x1="950.00" id="16371" y2="270.00" /><line x2="950.00" style="fill:blue;stroke:blue;" y1="270.00" x1="950.00" id="16372" y2="220.00" /><line x2="850.00" style="fill:blue;stroke:blue;" y1="270.00" x1="950.00" id="16373" y2="270.00" /><line x2="980.00" style="fill:blue;stroke:blue;" y1="350.00" x1="950.00" id="16374" y2="400.00" /><line x2="880.00" style="fill:blue;stroke:blue;" y1="350.00" x1="950.00" id="16375" y2="320.00" /><line x2="106.46" style="fill:blue;stroke:blue;" y1="170.00" x1="30.00" id="16376" y2="189.90" /><line x2="50.00" style="fill:blue;stroke:blue;" y1="20.00" x1="50.00" id="16377" y2="70.00" /><line x2="130.00" style="fill:blue;stroke:blue;" y1="470.00" x1="50.00" id="16378" y2="420.00" /><line x2="50.00" style="fill:blue;stroke:blue;" y1="470.00" x1="50.00" id="16379" y2="520.00" /><line x2="200.00" style="fill:blue;stroke:blue;" y1="420.00" x1="130.00" id="16380" y2="420.00" /><line x2="50.00" style="fill:blue;stroke:blue;" y1="420.00" x1="130.00" id="16381" y2="470.00" /><line x2="50.00" style="fill:blue;stroke:blue;" y1="490.00" x1="120.00" id="16382" y2="520.00" /><line x2="200.00" style="fill:blue;stroke:blue;" y1="370.00" x1="180.00" id="16383" y2="420.00" /><line x2="230.00" style="fill:blue;stroke:blue;" y1="650.00" x1="230.00" id="16384" y2="600.00" /><line x2="250.00" style="fill:blue;stroke:blue;" y1="50.00" x1="300.00" id="16385" y2="50.00" /><line x2="280.00" style="fill:blue;stroke:blue;" y1="450.00" x1="350.00" id="16386" y2="450.00" /><line x2="550.00" style="fill:blue;stroke:blue;" y1="580.00" x1="560.00" id="16387" y2="520.00" /><line x2="450.00" style="fill:blue;stroke:blue;" y1="630.00" x1="580.00" id="16388" y2="570.00" /><line x2="650.00" style="fill:blue;stroke:blue;" y1="630.00" x1="580.00" id="16389" y2="520.00" /><line x2="650.00" style="fill:blue;stroke:blue;" y1="70.00" x1="580.00" id="16390" y2="100.00" /><line x2="500.00" style="fill:blue;stroke:blue;" y1="70.00" x1="580.00" id="16391" y2="70.00" /><line x2="730.00" style="fill:blue;stroke:blue;" y1="400.00" x1="700.00" id="16392" y2="320.00" /><line x2="700.00" style="fill:blue;stroke:blue;" y1="610.00" x1="780.00" id="16393" y2="570.00" /><line x2="880.00" style="fill:blue;stroke:blue;" y1="500.00" x1="780.00" id="16394" y2="450.00" /><line x2="800.00" style="fill:blue;stroke:blue;" y1="220.00" x1="800.00" id="16395" y2="270.00" /><line x2="850.00" style="fill:blue;stroke:blue;" y1="220.00" x1="800.00" id="16396" y2="220.00" /><line x2="880.00" style="fill:blue;stroke:blue;" y1="550.00" x1="860.00" id="16397" y2="450.00" /><line x2="880.00" style="fill:blue;stroke:blue;" y1="480.00" x1="990.00" id="16398" y2="450.00" /><line x2="950.00" style="fill:blue;stroke:blue;" y1="400.00" x1="980.00" id="16399" y2="350.00" /></svg>
