<?xml version="1.0" standalone="yes"?><!DOCTYPE svg PUBLIC "-//W3C//DTD SVG 1.1//EN" "http://www.w3.org/Graphics/SVG/1.1/DTD/svg11.dtd"[]><svg height="800.00" id="16882" width="1050.00" xmlns="http://www.w3.org/2000/svg" xmlns:xlink="http://www.w3.org/1999/xlink"><rect Type="system" Region="卡尼迪" height="5.00" y="280.00" Name="勒达" width="5.00" x="20.00" id="16883" ID="30003929" /><text x="20.00" y="280.00" id="16884">勒达</text><rect Type="system" Region="卡尼迪" height="5.00" y="350.00" Name="库里" width="5.00" x="50.00" id="16886" ID="30003926" /><text x="50.00" y="350.00" id="16887">库里</text><rect Type="system" Region="卡尼迪" height="5.00" y="400.00" Name="代莫罕" width="5.00" x="50.00" id="16889" ID="30003924" /><text x="50.00" y="400.00" id="16890">代莫罕</text><rect Type="system" Region="卡尼迪" height="5.00" y="497.68" Name="卡贝基" width="5.00" x="47.68" id="16892" ID="30003934" /><text x="47.68" y="497.68" id="16893">卡贝基</text><rect Type="system" Region="卡尼迪" height="5.00" y="78.09" Name="拉菲姆" width="5.00" x="79.04" id="16895" ID="30003941" /><text x="79.04" y="78.09" id="16896">拉菲姆</text><rect Type="system" Region="卡尼迪" height="5.00" y="532.32" Name="迪姆但" width="5.00" x="82.32" id="16898" ID="30003932" /><text x="82.32" y="532.32" id="16899">迪姆但</text><rect Type="system" Region="卡尼迪" height="5.00" y="600.00" Name="伊巴尼" width="5.00" x="80.00" id="16901" ID="30003933" /><text x="80.00" y="600.00" id="16902">伊巴尼</text><rect Type="system" Region="卡尼迪" height="5.00" y="121.91" Name="博特" width="5.00" x="100.96" id="16904" ID="30003940" /><text x="100.96" y="121.91" id="16905">博特</text><rect Type="system" Region="卡尼迪" height="5.00" y="180.00" Name="那吉斯" width="5.00" x="100.00" id="16907" ID="30003936" /><text x="100.00" y="180.00" id="16908">那吉斯</text><rect Type="system" Region="卡尼迪" height="5.00" y="250.00" Name="泽法恩" width="5.00" x="100.00" id="16910" ID="30003928" /><text x="100.00" y="250.00" id="16911">泽法恩</text><rect Type="system" Region="卡尼迪" height="5.00" y="300.00" Name="扎赫费尤斯" width="5.00" x="100.00" id="16913" ID="30003927" /><text x="100.00" y="300.00" id="16914">扎赫费尤斯</text><rect Type="system" Region="卡尼迪" height="5.00" y="350.00" Name="齐提雅蒙" width="5.00" x="100.00" id="16916" ID="30003925" /><text x="100.00" y="350.00" id="16917">齐提雅蒙</text><rect Type="system" Region="卡尼迪" height="5.00" y="400.00" Name="南德扎" width="5.00" x="150.00" id="16919" ID="30003923" /><text x="150.00" y="400.00" id="16920">南德扎</text><rect Type="system" Region="卡尼迪" height="5.00" y="497.68" Name="各乌迪亚" width="5.00" x="147.68" id="16922" ID="30003930" /><text x="147.68" y="497.68" id="16923">各乌迪亚</text><rect Type="system" Region="卡尼迪" height="5.00" y="100.00" Name="法纳托尔" width="5.00" x="150.00" id="16925" ID="30003938" /><text x="150.00" y="100.00" id="16926">法纳托尔</text><rect Type="system" Region="卡尼迪" height="5.00" y="150.00" Name="赫泽勒" width="5.00" x="180.00" id="16928" ID="30003937" /><text x="180.00" y="150.00" id="16929">赫泽勒</text><rect Type="system" Region="卡尼迪" height="5.00" y="200.00" Name="基尔瑟姆" width="5.00" x="180.00" id="16931" ID="30003939" /><text x="180.00" y="200.00" id="16932">基尔瑟姆</text><rect Type="system" Region="卡尼迪" height="5.00" y="532.32" Name="萨瑟克" width="5.00" x="182.32" id="16934" ID="30003931" /><text x="182.32" y="532.32" id="16935">萨瑟克</text><rect Type="system" Region="卡尼迪" height="5.00" y="600.00" Name="依尔玛琳" width="5.00" x="180.00" id="16937" ID="30003935" /><text x="180.00" y="600.00" id="16938">依尔玛琳</text><rect Type="system" Region="卡尼迪" height="5.00" y="450.00" Name="巴拉塔尔" width="5.00" x="220.00" id="16940" ID="30003920" /><text x="220.00" y="450.00" id="16941">巴拉塔尔</text><rect Type="system" Region="卡尼迪" height="5.00" y="650.00" Name="西莫尼尔" width="5.00" x="250.00" id="16943" ID="30003902" /><text x="250.00" y="650.00" id="16944">西莫尼尔</text><rect Type="system" Region="卡尼迪" height="5.00" y="350.00" Name="阿茨厄" width="5.00" x="250.00" id="16946" ID="30003921" /><text x="250.00" y="350.00" id="16947">阿茨厄</text><rect Type="system" Region="卡尼迪" height="5.00" y="450.00" Name="埃什库" width="5.00" x="280.00" id="16949" ID="30003919" /><text x="280.00" y="450.00" id="16950">埃什库</text><rect Type="system" Region="卡尼迪" height="5.00" y="520.00" Name="尤普特" width="5.00" x="300.00" id="16952" ID="30003901" /><text x="300.00" y="520.00" id="16953">尤普特</text><rect Type="system" Region="卡尼迪" height="5.00" y="400.00" Name="哈卡纳" width="5.00" x="300.00" id="16955" ID="30003918" /><text x="300.00" y="400.00" id="16956">哈卡纳</text><rect Type="system" Region="卡尼迪" height="5.00" y="620.00" Name="瑟什拉" width="5.00" x="320.00" id="16958" ID="30003898" /><text x="320.00" y="620.00" id="16959">瑟什拉</text><rect Type="system" Region="卡尼迪" height="5.00" y="450.00" Name="阿玛菲" width="5.00" x="350.00" id="16961" ID="30003917" /><text x="350.00" y="450.00" id="16962">阿玛菲</text><rect Type="system" Region="卡尼迪" height="5.00" y="380.00" Name="纳赫米德尔" width="5.00" x="350.00" id="16964" ID="30003922" /><text x="350.00" y="380.00" id="16965">纳赫米德尔</text><rect Type="system" Region="卡尼迪" height="5.00" y="500.00" Name="哈姆" width="5.00" x="350.00" id="16967" ID="30003900" /><text x="350.00" y="500.00" id="16968">哈姆</text><rect Type="system" Region="卡尼迪" height="5.00" y="550.00" Name="维兹拉" width="5.00" x="350.00" id="16970" ID="30003899" /><text x="350.00" y="550.00" id="16971">维兹拉</text><rect Type="system" Region="卡尼迪" height="5.00" y="600.00" Name="盖溪" width="5.00" x="380.00" id="16973" ID="30003897" /><text x="380.00" y="600.00" id="16974">盖溪</text><rect Type="system" Region="卡尼迪" height="5.00" y="640.00" Name="克莱尼" width="5.00" x="410.00" id="16976" ID="30003896" /><text x="410.00" y="640.00" id="16977">克莱尼</text><rect Type="system" Region="卡尼迪" height="5.00" y="200.00" Name="波玛纳" width="5.00" x="450.00" id="16979" ID="30003913" /><text x="450.00" y="200.00" id="16980">波玛纳</text><rect Type="system" Region="卡尼迪" height="5.00" y="420.00" Name="巴什雅姆" width="5.00" x="470.00" id="16982" ID="30003908" /><text x="470.00" y="420.00" id="16983">巴什雅姆</text><rect Type="system" Region="卡尼迪" height="5.00" y="178.09" Name="达尼拉" width="5.00" x="499.04" id="16985" ID="30003912" /><text x="499.04" y="178.09" id="16986">达尼拉</text><rect Type="system" Region="卡尼迪" height="5.00" y="400.00" Name="查尔梅米" width="5.00" x="520.00" id="16988" ID="30003905" /><text x="520.00" y="400.00" id="16989">查尔梅米</text><rect Type="system" Region="卡尼迪" height="5.00" y="450.00" Name="帕尔瑟斯" width="5.00" x="520.00" id="16991" ID="30003909" /><text x="520.00" y="450.00" id="16992">帕尔瑟斯</text><rect Type="system" Region="卡尼迪" height="5.00" y="500.00" Name="巴拉那茨" width="5.00" x="520.00" id="16994" ID="30003910" /><text x="520.00" y="500.00" id="16995">巴拉那茨</text><rect Type="system" Region="卡尼迪" height="5.00" y="221.91" Name="奥勒杰特" width="5.00" x="520.96" id="16997" ID="30003915" /><text x="520.96" y="221.91" id="16998">奥勒杰特</text><rect Type="system" Region="卡尼迪" height="5.00" y="600.00" Name="埃什马瑞尔" width="5.00" x="490.00" id="17000" ID="30003886" /><text x="490.00" y="600.00" id="17001">埃什马瑞尔</text><rect Type="system" Region="卡尼迪" height="5.00" y="650.00" Name="凯拉" width="5.00" x="520.00" id="17003" ID="30003887" /><text x="520.00" y="650.00" id="17004">凯拉</text><rect Type="system" Region="卡尼迪" height="5.00" y="150.00" Name="拉哈贝达" width="5.00" x="580.00" id="17006" ID="30003914" /><text x="580.00" y="150.00" id="17007">拉哈贝达</text><rect Type="system" Region="卡尼迪" height="5.00" y="340.00" Name="特格隆" width="5.00" x="580.00" id="17009" ID="30003907" /><text x="580.00" y="340.00" id="17010">特格隆</text><rect Type="system" Region="卡尼迪" height="5.00" y="400.00" Name="科尔" width="5.00" x="580.00" id="17012" ID="30003904" /><text x="580.00" y="400.00" id="17013">科尔</text><rect Type="system" Region="卡尼迪" height="5.00" y="450.00" Name="埃纳卡特" width="5.00" x="580.00" id="17015" ID="30003903" /><text x="580.00" y="450.00" id="17016">埃纳卡特</text><rect Type="system" Region="卡尼迪" height="5.00" y="550.00" Name="阿尔扎尼" width="5.00" x="580.00" id="17018" ID="30003885" /><text x="580.00" y="550.00" id="17019">阿尔扎尼</text><rect Type="system" Region="卡尼迪" height="5.00" y="250.00" Name="利勒拉" width="5.00" x="580.00" id="17021" ID="30003916" /><text x="580.00" y="250.00" id="17022">利勒拉</text><rect Type="system" Region="卡尼迪" height="5.00" y="200.00" Name="俄达尼" width="5.00" x="600.00" id="17024" ID="30003911" /><text x="600.00" y="200.00" id="17025">俄达尼</text><rect Type="system" Region="卡尼迪" height="5.00" y="680.00" Name="埃尔法" width="5.00" x="680.00" id="17027" ID="30003892" /><text x="680.00" y="680.00" id="17028">埃尔法</text><rect Type="system" Region="卡尼迪" height="5.00" y="580.00" Name="诺尔巴" width="5.00" x="620.00" id="17030" ID="30003884" /><text x="620.00" y="580.00" id="17031">诺尔巴</text><rect Type="system" Region="卡尼迪" height="5.00" y="520.00" Name="克博兹" width="5.00" x="650.00" id="17033" ID="30003883" /><text x="650.00" y="520.00" id="17034">克博兹</text><rect Type="system" Region="卡尼迪" height="5.00" y="450.00" Name="费尔巴" width="5.00" x="650.00" id="17036" ID="30003906" /><text x="650.00" y="450.00" id="17037">费尔巴</text><rect Type="system" Region="卡尼迪" height="5.00" y="120.00" Name="蒙尼尤库" width="5.00" x="640.00" id="17039" ID="30003881" /><text x="640.00" y="120.00" id="17040">蒙尼尤库</text><rect Type="system" Region="卡尼迪" height="5.00" y="660.00" Name="撒布斯" width="5.00" x="770.00" id="17042" ID="30003894" /><text x="770.00" y="660.00" id="17043">撒布斯</text><rect Type="system" Region="卡尼迪" height="5.00" y="720.00" Name="摩洛" width="5.00" x="730.00" id="17045" ID="30003893" /><text x="730.00" y="720.00" id="17046">摩洛</text><rect Type="system" Region="卡尼迪" height="5.00" y="500.00" Name="兰瑟茨" width="5.00" x="700.00" id="17048" ID="30003882" /><text x="700.00" y="500.00" id="17049">兰瑟茨</text><rect Type="system" Region="卡尼迪" height="5.00" y="80.00" Name="勒特卡" width="5.00" x="700.00" id="17051" ID="30003880" /><text x="700.00" y="80.00" id="17052">勒特卡</text><rect Type="system" Region="卡尼迪" height="5.00" y="600.00" Name="查什拉" width="5.00" x="760.00" id="17054" ID="30003891" /><text x="760.00" y="600.00" id="17055">查什拉</text><rect Type="system" Region="卡尼迪" height="5.00" y="660.00" Name="阿什伊" width="5.00" x="920.00" id="17057" ID="30003890" /><text x="920.00" y="660.00" id="17058">阿什伊</text><rect Type="system" Region="卡尼迪" height="5.00" y="720.00" Name="艾恩山" width="5.00" x="800.00" id="17060" ID="30003895" /><text x="800.00" y="720.00" id="17061">艾恩山</text><rect Type="system" Region="卡尼迪" height="5.00" y="200.00" Name="各茨提克" width="5.00" x="750.00" id="17063" ID="30003871" /><text x="750.00" y="200.00" id="17064">各茨提克</text><rect Type="system" Region="卡尼迪" height="5.00" y="150.00" Name="奥塞斯" width="5.00" x="750.00" id="17066" ID="30003870" /><text x="750.00" y="150.00" id="17067">奥塞斯</text><rect Type="system" Region="卡尼迪" height="5.00" y="250.00" Name="细莎伊" width="5.00" x="780.00" id="17069" ID="30003875" /><text x="780.00" y="250.00" id="17070">细莎伊</text><rect Type="system" Region="卡尼迪" height="5.00" y="50.00" Name="帕拉斯" width="5.00" x="780.00" id="17072" ID="30003878" /><text x="780.00" y="50.00" id="17073">帕拉斯</text><rect Type="system" Region="卡尼迪" height="5.00" y="450.00" Name="波卡" width="5.00" x="780.00" id="17075" ID="30003866" /><text x="780.00" y="450.00" id="17076">波卡</text><rect Type="system" Region="卡尼迪" height="5.00" y="700.00" Name="塔里达尔" width="5.00" x="850.00" id="17078" ID="30003889" /><text x="850.00" y="700.00" id="17079">塔里达尔</text><rect Type="system" Region="卡尼迪" height="5.00" y="650.00" Name="巴蒂维夫" width="5.00" x="850.00" id="17081" ID="30003888" /><text x="850.00" y="650.00" id="17082">巴蒂维夫</text><rect Type="system" Region="卡尼迪" height="5.00" y="560.00" Name="萨泽勒" width="5.00" x="860.00" id="17084" ID="30003865" /><text x="860.00" y="560.00" id="17085">萨泽勒</text><rect Type="system" Region="卡尼迪" height="5.00" y="100.00" Name="萨夫舍拉" width="5.00" x="790.00" id="17087" ID="30003879" /><text x="790.00" y="100.00" id="17088">萨夫舍拉</text><rect Type="system" Region="卡尼迪" height="5.00" y="400.00" Name="埃基尔" width="5.00" x="820.00" id="17090" ID="30003862" /><text x="820.00" y="400.00" id="17091">埃基尔</text><rect Type="system" Region="卡尼迪" height="5.00" y="30.00" Name="吉达利" width="5.00" x="850.00" id="17093" ID="30003877" /><text x="850.00" y="30.00" id="17094">吉达利</text><rect Type="system" Region="卡尼迪" height="5.00" y="500.00" Name="贾查努" width="5.00" x="870.00" id="17096" ID="30003864" /><text x="870.00" y="500.00" id="17097">贾查努</text><rect Type="system" Region="卡尼迪" height="5.00" y="250.00" Name="耶扎尔" width="5.00" x="880.00" id="17099" ID="30003872" /><text x="880.00" y="250.00" id="17100">耶扎尔</text><rect Type="system" Region="卡尼迪" height="5.00" y="378.09" Name="伊佩佛" width="5.00" x="879.04" id="17102" ID="30003861" /><text x="879.04" y="378.09" id="17103">伊佩佛</text><rect Type="system" Region="卡尼迪" height="5.00" y="120.00" Name="瑟尔萨瑟" width="5.00" x="900.00" id="17105" ID="30003869" /><text x="900.00" y="120.00" id="17106">瑟尔萨瑟</text><rect Type="system" Region="卡尼迪" height="5.00" y="421.91" Name="基塔里德" width="5.00" x="900.96" id="17108" ID="30003860" /><text x="900.96" y="421.91" id="17109">基塔里德</text><rect Type="system" Region="卡尼迪" height="5.00" y="20.00" Name="莫利亚" width="5.00" x="900.00" id="17111" ID="30003876" /><text x="900.00" y="20.00" id="17112">莫利亚</text><rect Type="system" Region="卡尼迪" height="5.00" y="180.00" Name="伊维卡姆" width="5.00" x="890.00" id="17114" ID="30003867" /><text x="890.00" y="180.00" id="17115">伊维卡姆</text><rect Type="system" Region="卡尼迪" height="5.00" y="480.00" Name="卡尼迪首星" width="5.00" x="920.00" id="17117" ID="30003863" /><text x="920.00" y="480.00" id="17118">卡尼迪首星</text><rect Type="system" Region="卡尼迪" height="5.00" y="100.00" Name="卡尔哈" width="5.00" x="950.00" id="17120" ID="30003873" /><text x="950.00" y="100.00" id="17121">卡尔哈</text><rect Type="system" Region="卡尼迪" height="5.00" y="399.04" Name="古索维巴" width="5.00" x="948.09" id="17123" ID="30003858" /><text x="948.09" y="399.04" id="17124">古索维巴</text><rect Type="system" Region="卡尼迪" height="5.00" y="200.00" Name="玛什塔蒙" width="5.00" x="980.00" id="17126" ID="30003868" /><text x="980.00" y="200.00" id="17127">玛什塔蒙</text><rect Type="system" Region="卡尼迪" height="5.00" y="420.96" Name="尼伊" width="5.00" x="991.91" id="17129" ID="30003859" /><text x="991.91" y="420.96" id="17130">尼伊</text><rect Type="system" Region="卡尼迪" height="5.00" y="150.00" Name="赛罗提" width="5.00" x="1000.00" id="17132" ID="30003874" /><text x="1000.00" y="150.00" id="17133">赛罗提</text><rect Type="system" Region="艾里迪亚" height="5.00" y="50.00" Name="安特" width="5.00" x="20.00" id="17135" ID="30004301" /><text x="20.00" y="50.00" id="17136">安特</text><rect Type="system" Region="柯埃佐" height="5.00" y="300.00" Name="埃巴特" width="5.00" x="350.00" id="17138" ID="30005062" /><text x="350.00" y="300.00" id="17139">埃巴特</text><rect Type="system" Region="逑瑞斯" height="5.00" y="730.00" Name="A2-V27" width="5.00" x="440.00" id="17141" ID="30003942" /><text x="440.00" y="730.00" id="17142">A2-V27</text><rect Type="system" Region="逑瑞斯" height="5.00" y="690.00" Name="3-FKCZ" width="5.00" x="610.00" id="17144" ID="30004019" /><text x="610.00" y="690.00" id="17145">3-FKCZ</text><rect Type="system" Region="柯埃佐" height="5.00" y="60.00" Name="库鲁" width="5.00" x="600.00" id="17147" ID="30005050" /><text x="600.00" y="60.00" id="17148">库鲁</text><rect Type="system" Region="卡彻" height="5.00" y="550.00" Name="HED-GP" width="5.00" x="750.00" id="17150" ID="30001161" /><text x="750.00" y="550.00" id="17151">HED-GP</text><rect Type="system" Region="柯埃佐" height="5.00" y="160.00" Name="马萨努" width="5.00" x="840.00" id="17153" ID="30005041" /><text x="840.00" y="160.00" id="17154">马萨努</text><rect Type="system" Region="柯埃佐" height="5.00" y="20.00" Name="纳奎格德" width="5.00" x="980.00" id="17156" ID="30005043" /><text x="980.00" y="20.00" id="17157">纳奎格德</text><rect Type="system" Region="塔什蒙贡" height="5.00" y="320.00" Name="米迷梅" width="5.00" x="1000.00" id="17159" ID="30001691" /><text x="1000.00" y="320.00" id="17160">米迷梅</text><line x2="100.00" style="fill:blue;stroke:blue;" y1="280.00" x1="20.00" id="17162" y2="250.00" /><line x2="100.00" style="fill:blue;stroke:blue;" y1="350.00" x1="50.00" id="17163" y2="350.00" /><line x2="150.00" style="fill:blue;stroke:blue;" y1="400.00" x1="50.00" id="17164" y2="400.00" /><line x2="82.32" style="fill:blue;stroke:blue;" y1="497.68" x1="47.68" id="17165" y2="532.32" /><line x2="100.96" style="fill:blue;stroke:blue;" y1="78.09" x1="79.04" id="17166" y2="121.91" /><line x2="20.00" style="fill:blue;stroke:blue;" y1="78.09" x1="79.04" id="17167" y2="50.00" /><line x2="147.68" style="fill:blue;stroke:blue;" y1="532.32" x1="82.32" id="17168" y2="497.68" /><line x2="182.32" style="fill:blue;stroke:blue;" y1="532.32" x1="82.32" id="17169" y2="532.32" /><line x2="80.00" style="fill:blue;stroke:blue;" y1="532.32" x1="82.32" id="17170" y2="600.00" /><line x2="47.68" style="fill:blue;stroke:blue;" y1="532.32" x1="82.32" id="17171" y2="497.68" /><line x2="82.32" style="fill:blue;stroke:blue;" y1="600.00" x1="80.00" id="17172" y2="532.32" /><line x2="180.00" style="fill:blue;stroke:blue;" y1="600.00" x1="80.00" id="17173" y2="600.00" /><line x2="100.00" style="fill:blue;stroke:blue;" y1="121.91" x1="100.96" id="17174" y2="180.00" /><line x2="150.00" style="fill:blue;stroke:blue;" y1="121.91" x1="100.96" id="17175" y2="100.00" /><line x2="79.04" style="fill:blue;stroke:blue;" y1="121.91" x1="100.96" id="17176" y2="78.09" /><line x2="100.00" style="fill:blue;stroke:blue;" y1="180.00" x1="100.00" id="17177" y2="250.00" /><line x2="180.00" style="fill:blue;stroke:blue;" y1="180.00" x1="100.00" id="17178" y2="150.00" /><line x2="180.00" style="fill:blue;stroke:blue;" y1="180.00" x1="100.00" id="17179" y2="200.00" /><line x2="100.96" style="fill:blue;stroke:blue;" y1="180.00" x1="100.00" id="17180" y2="121.91" /><line x2="100.00" style="fill:blue;stroke:blue;" y1="250.00" x1="100.00" id="17181" y2="300.00" /><line x2="20.00" style="fill:blue;stroke:blue;" y1="250.00" x1="100.00" id="17182" y2="280.00" /><line x2="100.00" style="fill:blue;stroke:blue;" y1="250.00" x1="100.00" id="17183" y2="180.00" /><line x2="100.00" style="fill:blue;stroke:blue;" y1="300.00" x1="100.00" id="17184" y2="350.00" /><line x2="100.00" style="fill:blue;stroke:blue;" y1="300.00" x1="100.00" id="17185" y2="250.00" /><line x2="150.00" style="fill:blue;stroke:blue;" y1="350.00" x1="100.00" id="17186" y2="400.00" /><line x2="50.00" style="fill:blue;stroke:blue;" y1="350.00" x1="100.00" id="17187" y2="350.00" /><line x2="100.00" style="fill:blue;stroke:blue;" y1="350.00" x1="100.00" id="17188" y2="300.00" /><line x2="220.00" style="fill:blue;stroke:blue;" y1="400.00" x1="150.00" id="17189" y2="450.00" /><line x2="50.00" style="fill:blue;stroke:blue;" y1="400.00" x1="150.00" id="17190" y2="400.00" /><line x2="100.00" style="fill:blue;stroke:blue;" y1="400.00" x1="150.00" id="17191" y2="350.00" /><line x2="220.00" style="fill:blue;stroke:blue;" y1="497.68" x1="147.68" id="17192" y2="450.00" /><line x2="182.32" style="fill:blue;stroke:blue;" y1="497.68" x1="147.68" id="17193" y2="532.32" /><line x2="82.32" style="fill:blue;stroke:blue;" y1="497.68" x1="147.68" id="17194" y2="532.32" /><line x2="180.00" style="fill:blue;stroke:blue;" y1="100.00" x1="150.00" id="17195" y2="150.00" /><line x2="100.96" style="fill:blue;stroke:blue;" y1="100.00" x1="150.00" id="17196" y2="121.91" /><line x2="100.00" style="fill:blue;stroke:blue;" y1="150.00" x1="180.00" id="17197" y2="180.00" /><line x2="150.00" style="fill:blue;stroke:blue;" y1="150.00" x1="180.00" id="17198" y2="100.00" /><line x2="100.00" style="fill:blue;stroke:blue;" y1="200.00" x1="180.00" id="17199" y2="180.00" /><line x2="147.68" style="fill:blue;stroke:blue;" y1="532.32" x1="182.32" id="17200" y2="497.68" /><line x2="82.32" style="fill:blue;stroke:blue;" y1="532.32" x1="182.32" id="17201" y2="532.32" /><line x2="180.00" style="fill:blue;stroke:blue;" y1="532.32" x1="182.32" id="17202" y2="600.00" /><line x2="182.32" style="fill:blue;stroke:blue;" y1="600.00" x1="180.00" id="17203" y2="532.32" /><line x2="80.00" style="fill:blue;stroke:blue;" y1="600.00" x1="180.00" id="17204" y2="600.00" /><line x2="280.00" style="fill:blue;stroke:blue;" y1="450.00" x1="220.00" id="17205" y2="450.00" /><line x2="150.00" style="fill:blue;stroke:blue;" y1="450.00" x1="220.00" id="17206" y2="400.00" /><line x2="147.68" style="fill:blue;stroke:blue;" y1="450.00" x1="220.00" id="17207" y2="497.68" /><line x2="320.00" style="fill:blue;stroke:blue;" y1="650.00" x1="250.00" id="17208" y2="620.00" /><line x2="300.00" style="fill:blue;stroke:blue;" y1="350.00" x1="250.00" id="17209" y2="400.00" /><line x2="350.00" style="fill:blue;stroke:blue;" y1="450.00" x1="280.00" id="17210" y2="450.00" /><line x2="220.00" style="fill:blue;stroke:blue;" y1="450.00" x1="280.00" id="17211" y2="450.00" /><line x2="350.00" style="fill:blue;stroke:blue;" y1="520.00" x1="300.00" id="17212" y2="500.00" /><line x2="350.00" style="fill:blue;stroke:blue;" y1="400.00" x1="300.00" id="17213" y2="450.00" /><line x2="250.00" style="fill:blue;stroke:blue;" y1="400.00" x1="300.00" id="17214" y2="350.00" /><line x2="380.00" style="fill:blue;stroke:blue;" y1="620.00" x1="320.00" id="17215" y2="600.00" /><line x2="250.00" style="fill:blue;stroke:blue;" y1="620.00" x1="320.00" id="17216" y2="650.00" /><line x2="350.00" style="fill:blue;stroke:blue;" y1="450.00" x1="350.00" id="17217" y2="500.00" /><line x2="300.00" style="fill:blue;stroke:blue;" y1="450.00" x1="350.00" id="17218" y2="400.00" /><line x2="280.00" style="fill:blue;stroke:blue;" y1="450.00" x1="350.00" id="17219" y2="450.00" /><line x2="350.00" style="fill:blue;stroke:blue;" y1="450.00" x1="350.00" id="17220" y2="380.00" /><line x2="350.00" style="fill:blue;stroke:blue;" y1="380.00" x1="350.00" id="17221" y2="450.00" /><line x2="350.00" style="fill:blue;stroke:blue;" y1="380.00" x1="350.00" id="17222" y2="300.00" /><line x2="350.00" style="fill:blue;stroke:blue;" y1="500.00" x1="350.00" id="17223" y2="550.00" /><line x2="300.00" style="fill:blue;stroke:blue;" y1="500.00" x1="350.00" id="17224" y2="520.00" /><line x2="350.00" style="fill:blue;stroke:blue;" y1="500.00" x1="350.00" id="17225" y2="450.00" /><line x2="380.00" style="fill:blue;stroke:blue;" y1="550.00" x1="350.00" id="17226" y2="600.00" /><line x2="350.00" style="fill:blue;stroke:blue;" y1="550.00" x1="350.00" id="17227" y2="500.00" /><line x2="410.00" style="fill:blue;stroke:blue;" y1="600.00" x1="380.00" id="17228" y2="640.00" /><line x2="320.00" style="fill:blue;stroke:blue;" y1="600.00" x1="380.00" id="17229" y2="620.00" /><line x2="350.00" style="fill:blue;stroke:blue;" y1="600.00" x1="380.00" id="17230" y2="550.00" /><line x2="490.00" style="fill:blue;stroke:blue;" y1="640.00" x1="410.00" id="17231" y2="600.00" /><line x2="380.00" style="fill:blue;stroke:blue;" y1="640.00" x1="410.00" id="17232" y2="600.00" /><line x2="499.04" style="fill:blue;stroke:blue;" y1="200.00" x1="450.00" id="17233" y2="178.09" /><line x2="520.96" style="fill:blue;stroke:blue;" y1="200.00" x1="450.00" id="17234" y2="221.91" /><line x2="520.00" style="fill:blue;stroke:blue;" y1="420.00" x1="470.00" id="17235" y2="400.00" /><line x2="520.00" style="fill:blue;stroke:blue;" y1="420.00" x1="470.00" id="17236" y2="450.00" /><line x2="600.00" style="fill:blue;stroke:blue;" y1="178.09" x1="499.04" id="17237" y2="200.00" /><line x2="450.00" style="fill:blue;stroke:blue;" y1="178.09" x1="499.04" id="17238" y2="200.00" /><line x2="580.00" style="fill:blue;stroke:blue;" y1="178.09" x1="499.04" id="17239" y2="150.00" /><line x2="580.00" style="fill:blue;stroke:blue;" y1="400.00" x1="520.00" id="17240" y2="400.00" /><line x2="470.00" style="fill:blue;stroke:blue;" y1="400.00" x1="520.00" id="17241" y2="420.00" /><line x2="520.00" style="fill:blue;stroke:blue;" y1="400.00" x1="520.00" id="17242" y2="450.00" /><line x2="580.00" style="fill:blue;stroke:blue;" y1="450.00" x1="520.00" id="17243" y2="450.00" /><line x2="520.00" style="fill:blue;stroke:blue;" y1="450.00" x1="520.00" id="17244" y2="400.00" /><line x2="470.00" style="fill:blue;stroke:blue;" y1="450.00" x1="520.00" id="17245" y2="420.00" /><line x2="520.00" style="fill:blue;stroke:blue;" y1="450.00" x1="520.00" id="17246" y2="500.00" /><line x2="520.00" style="fill:blue;stroke:blue;" y1="500.00" x1="520.00" id="17247" y2="450.00" /><line x2="450.00" style="fill:blue;stroke:blue;" y1="221.91" x1="520.96" id="17248" y2="200.00" /><line x2="580.00" style="fill:blue;stroke:blue;" y1="221.91" x1="520.96" id="17249" y2="250.00" /><line x2="580.00" style="fill:blue;stroke:blue;" y1="600.00" x1="490.00" id="17250" y2="550.00" /><line x2="520.00" style="fill:blue;stroke:blue;" y1="600.00" x1="490.00" id="17251" y2="650.00" /><line x2="410.00" style="fill:blue;stroke:blue;" y1="600.00" x1="490.00" id="17252" y2="640.00" /><line x2="490.00" style="fill:blue;stroke:blue;" y1="650.00" x1="520.00" id="17253" y2="600.00" /><line x2="440.00" style="fill:blue;stroke:blue;" y1="650.00" x1="520.00" id="17254" y2="730.00" /><line x2="600.00" style="fill:blue;stroke:blue;" y1="150.00" x1="580.00" id="17255" y2="200.00" /><line x2="499.04" style="fill:blue;stroke:blue;" y1="150.00" x1="580.00" id="17256" y2="178.09" /><line x2="580.00" style="fill:blue;stroke:blue;" y1="340.00" x1="580.00" id="17257" y2="400.00" /><line x2="580.00" style="fill:blue;stroke:blue;" y1="340.00" x1="580.00" id="17258" y2="250.00" /><line x2="580.00" style="fill:blue;stroke:blue;" y1="400.00" x1="580.00" id="17259" y2="450.00" /><line x2="520.00" style="fill:blue;stroke:blue;" y1="400.00" x1="580.00" id="17260" y2="400.00" /><line x2="580.00" style="fill:blue;stroke:blue;" y1="400.00" x1="580.00" id="17261" y2="340.00" /><line x2="580.00" style="fill:blue;stroke:blue;" y1="450.00" x1="580.00" id="17262" y2="550.00" /><line x2="580.00" style="fill:blue;stroke:blue;" y1="450.00" x1="580.00" id="17263" y2="400.00" /><line x2="650.00" style="fill:blue;stroke:blue;" y1="450.00" x1="580.00" id="17264" y2="450.00" /><line x2="520.00" style="fill:blue;stroke:blue;" y1="450.00" x1="580.00" id="17265" y2="450.00" /><line x2="650.00" style="fill:blue;stroke:blue;" y1="550.00" x1="580.00" id="17266" y2="520.00" /><line x2="490.00" style="fill:blue;stroke:blue;" y1="550.00" x1="580.00" id="17267" y2="600.00" /><line x2="580.00" style="fill:blue;stroke:blue;" y1="550.00" x1="580.00" id="17268" y2="450.00" /><line x2="580.00" style="fill:blue;stroke:blue;" y1="250.00" x1="580.00" id="17269" y2="340.00" /><line x2="600.00" style="fill:blue;stroke:blue;" y1="250.00" x1="580.00" id="17270" y2="200.00" /><line x2="520.96" style="fill:blue;stroke:blue;" y1="250.00" x1="580.00" id="17271" y2="221.91" /><line x2="640.00" style="fill:blue;stroke:blue;" y1="200.00" x1="600.00" id="17272" y2="120.00" /><line x2="499.04" style="fill:blue;stroke:blue;" y1="200.00" x1="600.00" id="17273" y2="178.09" /><line x2="580.00" style="fill:blue;stroke:blue;" y1="200.00" x1="600.00" id="17274" y2="150.00" /><line x2="580.00" style="fill:blue;stroke:blue;" y1="200.00" x1="600.00" id="17275" y2="250.00" /><line x2="760.00" style="fill:blue;stroke:blue;" y1="680.00" x1="680.00" id="17276" y2="600.00" /><line x2="730.00" style="fill:blue;stroke:blue;" y1="680.00" x1="680.00" id="17277" y2="720.00" /><line x2="770.00" style="fill:blue;stroke:blue;" y1="680.00" x1="680.00" id="17278" y2="660.00" /><line x2="610.00" style="fill:blue;stroke:blue;" y1="680.00" x1="680.00" id="17279" y2="690.00" /><line x2="650.00" style="fill:blue;stroke:blue;" y1="580.00" x1="620.00" id="17280" y2="520.00" /><line x2="750.00" style="fill:blue;stroke:blue;" y1="520.00" x1="650.00" id="17281" y2="550.00" /><line x2="700.00" style="fill:blue;stroke:blue;" y1="520.00" x1="650.00" id="17282" y2="500.00" /><line x2="620.00" style="fill:blue;stroke:blue;" y1="520.00" x1="650.00" id="17283" y2="580.00" /><line x2="580.00" style="fill:blue;stroke:blue;" y1="520.00" x1="650.00" id="17284" y2="550.00" /><line x2="580.00" style="fill:blue;stroke:blue;" y1="450.00" x1="650.00" id="17285" y2="450.00" /><line x2="700.00" style="fill:blue;stroke:blue;" y1="120.00" x1="640.00" id="17286" y2="80.00" /><line x2="600.00" style="fill:blue;stroke:blue;" y1="120.00" x1="640.00" id="17287" y2="200.00" /><line x2="600.00" style="fill:blue;stroke:blue;" y1="120.00" x1="640.00" id="17288" y2="60.00" /><line x2="760.00" style="fill:blue;stroke:blue;" y1="660.00" x1="770.00" id="17289" y2="600.00" /><line x2="680.00" style="fill:blue;stroke:blue;" y1="660.00" x1="770.00" id="17290" y2="680.00" /><line x2="680.00" style="fill:blue;stroke:blue;" y1="720.00" x1="730.00" id="17291" y2="680.00" /><line x2="800.00" style="fill:blue;stroke:blue;" y1="720.00" x1="730.00" id="17292" y2="720.00" /><line x2="780.00" style="fill:blue;stroke:blue;" y1="500.00" x1="700.00" id="17293" y2="450.00" /><line x2="650.00" style="fill:blue;stroke:blue;" y1="500.00" x1="700.00" id="17294" y2="520.00" /><line x2="780.00" style="fill:blue;stroke:blue;" y1="80.00" x1="700.00" id="17295" y2="50.00" /><line x2="640.00" style="fill:blue;stroke:blue;" y1="80.00" x1="700.00" id="17296" y2="120.00" /><line x2="850.00" style="fill:blue;stroke:blue;" y1="600.00" x1="760.00" id="17297" y2="650.00" /><line x2="680.00" style="fill:blue;stroke:blue;" y1="600.00" x1="760.00" id="17298" y2="680.00" /><line x2="770.00" style="fill:blue;stroke:blue;" y1="600.00" x1="760.00" id="17299" y2="660.00" /><line x2="850.00" style="fill:blue;stroke:blue;" y1="660.00" x1="920.00" id="17300" y2="650.00" /><line x2="850.00" style="fill:blue;stroke:blue;" y1="720.00" x1="800.00" id="17301" y2="700.00" /><line x2="730.00" style="fill:blue;stroke:blue;" y1="720.00" x1="800.00" id="17302" y2="720.00" /><line x2="750.00" style="fill:blue;stroke:blue;" y1="200.00" x1="750.00" id="17303" y2="150.00" /><line x2="780.00" style="fill:blue;stroke:blue;" y1="200.00" x1="750.00" id="17304" y2="250.00" /><line x2="900.00" style="fill:blue;stroke:blue;" y1="150.00" x1="750.00" id="17305" y2="120.00" /><line x2="750.00" style="fill:blue;stroke:blue;" y1="150.00" x1="750.00" id="17306" y2="200.00" /><line x2="880.00" style="fill:blue;stroke:blue;" y1="150.00" x1="750.00" id="17307" y2="250.00" /><line x2="820.00" style="fill:blue;stroke:blue;" y1="250.00" x1="780.00" id="17308" y2="400.00" /><line x2="750.00" style="fill:blue;stroke:blue;" y1="250.00" x1="780.00" id="17309" y2="200.00" /><line x2="850.00" style="fill:blue;stroke:blue;" y1="50.00" x1="780.00" id="17310" y2="30.00" /><line x2="790.00" style="fill:blue;stroke:blue;" y1="50.00" x1="780.00" id="17311" y2="100.00" /><line x2="700.00" style="fill:blue;stroke:blue;" y1="50.00" x1="780.00" id="17312" y2="80.00" /><line x2="820.00" style="fill:blue;stroke:blue;" y1="450.00" x1="780.00" id="17313" y2="400.00" /><line x2="700.00" style="fill:blue;stroke:blue;" y1="450.00" x1="780.00" id="17314" y2="500.00" /><line x2="850.00" style="fill:blue;stroke:blue;" y1="700.00" x1="850.00" id="17315" y2="650.00" /><line x2="800.00" style="fill:blue;stroke:blue;" y1="700.00" x1="850.00" id="17316" y2="720.00" /><line x2="860.00" style="fill:blue;stroke:blue;" y1="650.00" x1="850.00" id="17317" y2="560.00" /><line x2="850.00" style="fill:blue;stroke:blue;" y1="650.00" x1="850.00" id="17318" y2="700.00" /><line x2="920.00" style="fill:blue;stroke:blue;" y1="650.00" x1="850.00" id="17319" y2="660.00" /><line x2="760.00" style="fill:blue;stroke:blue;" y1="650.00" x1="850.00" id="17320" y2="600.00" /><line x2="870.00" style="fill:blue;stroke:blue;" y1="560.00" x1="860.00" id="17321" y2="500.00" /><line x2="850.00" style="fill:blue;stroke:blue;" y1="560.00" x1="860.00" id="17322" y2="650.00" /><line x2="780.00" style="fill:blue;stroke:blue;" y1="100.00" x1="790.00" id="17323" y2="50.00" /><line x2="879.04" style="fill:blue;stroke:blue;" y1="400.00" x1="820.00" id="17324" y2="378.09" /><line x2="780.00" style="fill:blue;stroke:blue;" y1="400.00" x1="820.00" id="17325" y2="450.00" /><line x2="780.00" style="fill:blue;stroke:blue;" y1="400.00" x1="820.00" id="17326" y2="250.00" /><line x2="900.00" style="fill:blue;stroke:blue;" y1="30.00" x1="850.00" id="17327" y2="20.00" /><line x2="780.00" style="fill:blue;stroke:blue;" y1="30.00" x1="850.00" id="17328" y2="50.00" /><line x2="900.96" style="fill:blue;stroke:blue;" y1="500.00" x1="870.00" id="17329" y2="421.91" /><line x2="860.00" style="fill:blue;stroke:blue;" y1="500.00" x1="870.00" id="17330" y2="560.00" /><line x2="890.00" style="fill:blue;stroke:blue;" y1="250.00" x1="880.00" id="17331" y2="180.00" /><line x2="980.00" style="fill:blue;stroke:blue;" y1="250.00" x1="880.00" id="17332" y2="200.00" /><line x2="750.00" style="fill:blue;stroke:blue;" y1="250.00" x1="880.00" id="17333" y2="150.00" /><line x2="900.96" style="fill:blue;stroke:blue;" y1="378.09" x1="879.04" id="17334" y2="421.91" /><line x2="820.00" style="fill:blue;stroke:blue;" y1="378.09" x1="879.04" id="17335" y2="400.00" /><line x2="890.00" style="fill:blue;stroke:blue;" y1="120.00" x1="900.00" id="17336" y2="180.00" /><line x2="980.00" style="fill:blue;stroke:blue;" y1="120.00" x1="900.00" id="17337" y2="200.00" /><line x2="750.00" style="fill:blue;stroke:blue;" y1="120.00" x1="900.00" id="17338" y2="150.00" /><line x2="950.00" style="fill:blue;stroke:blue;" y1="120.00" x1="900.00" id="17339" y2="100.00" /><line x2="948.09" style="fill:blue;stroke:blue;" y1="421.91" x1="900.96" id="17340" y2="399.04" /><line x2="879.04" style="fill:blue;stroke:blue;" y1="421.91" x1="900.96" id="17341" y2="378.09" /><line x2="920.00" style="fill:blue;stroke:blue;" y1="421.91" x1="900.96" id="17342" y2="480.00" /><line x2="870.00" style="fill:blue;stroke:blue;" y1="421.91" x1="900.96" id="17343" y2="500.00" /><line x2="850.00" style="fill:blue;stroke:blue;" y1="20.00" x1="900.00" id="17344" y2="30.00" /><line x2="980.00" style="fill:blue;stroke:blue;" y1="20.00" x1="900.00" id="17345" y2="20.00" /><line x2="980.00" style="fill:blue;stroke:blue;" y1="180.00" x1="890.00" id="17346" y2="200.00" /><line x2="900.00" style="fill:blue;stroke:blue;" y1="180.00" x1="890.00" id="17347" y2="120.00" /><line x2="880.00" style="fill:blue;stroke:blue;" y1="180.00" x1="890.00" id="17348" y2="250.00" /><line x2="840.00" style="fill:blue;stroke:blue;" y1="180.00" x1="890.00" id="17349" y2="160.00" /><line x2="900.96" style="fill:blue;stroke:blue;" y1="480.00" x1="920.00" id="17350" y2="421.91" /><line x2="900.00" style="fill:blue;stroke:blue;" y1="100.00" x1="950.00" id="17351" y2="120.00" /><line x2="1000.00" style="fill:blue;stroke:blue;" y1="100.00" x1="950.00" id="17352" y2="150.00" /><line x2="1000.00" style="fill:blue;stroke:blue;" y1="399.04" x1="948.09" id="17353" y2="320.00" /><line x2="991.91" style="fill:blue;stroke:blue;" y1="399.04" x1="948.09" id="17354" y2="420.96" /><line x2="900.96" style="fill:blue;stroke:blue;" y1="399.04" x1="948.09" id="17355" y2="421.91" /><line x2="890.00" style="fill:blue;stroke:blue;" y1="200.00" x1="980.00" id="17356" y2="180.00" /><line x2="900.00" style="fill:blue;stroke:blue;" y1="200.00" x1="980.00" id="17357" y2="120.00" /><line x2="880.00" style="fill:blue;stroke:blue;" y1="200.00" x1="980.00" id="17358" y2="250.00" /><line x2="1000.00" style="fill:blue;stroke:blue;" y1="200.00" x1="980.00" id="17359" y2="150.00" /><line x2="948.09" style="fill:blue;stroke:blue;" y1="420.96" x1="991.91" id="17360" y2="399.04" /><line x2="980.00" style="fill:blue;stroke:blue;" y1="150.00" x1="1000.00" id="17361" y2="200.00" /><line x2="950.00" style="fill:blue;stroke:blue;" y1="150.00" x1="1000.00" id="17362" y2="100.00" /><line x2="79.04" style="fill:blue;stroke:blue;" y1="50.00" x1="20.00" id="17363" y2="78.09" /><line x2="350.00" style="fill:blue;stroke:blue;" y1="300.00" x1="350.00" id="17364" y2="380.00" /><line x2="520.00" style="fill:blue;stroke:blue;" y1="730.00" x1="440.00" id="17365" y2="650.00" /><line x2="680.00" style="fill:blue;stroke:blue;" y1="690.00" x1="610.00" id="17366" y2="680.00" /><line x2="640.00" style="fill:blue;stroke:blue;" y1="60.00" x1="600.00" id="17367" y2="120.00" /><line x2="650.00" style="fill:blue;stroke:blue;" y1="550.00" x1="750.00" id="17368" y2="520.00" /><line x2="890.00" style="fill:blue;stroke:blue;" y1="160.00" x1="840.00" id="17369" y2="180.00" /><line x2="900.00" style="fill:blue;stroke:blue;" y1="20.00" x1="980.00" id="17370" y2="20.00" /><line x2="948.09" style="fill:blue;stroke:blue;" y1="320.00" x1="1000.00" id="17371" y2="399.04" /></svg>
