<?xml version="1.0" standalone="yes"?><!DOCTYPE svg PUBLIC "-//W3C//DTD SVG 1.1//EN" "http://www.w3.org/Graphics/SVG/1.1/DTD/svg11.dtd"[]><svg height="800.00" id="1577" width="1050.00" xmlns="http://www.w3.org/2000/svg" xmlns:xlink="http://www.w3.org/1999/xlink"><rect Type="system" Region="地窖" height="5.00" y="220.00" Name="U-QMOA" width="5.00" x="50.00" id="1578" ID="30000629" /><text x="50.00" y="220.00" id="1579">U-QMOA</text><rect Type="system" Region="地窖" height="5.00" y="180.00" Name="O-5TN1" width="5.00" x="100.00" id="1581" ID="30000627" /><text x="100.00" y="180.00" id="1582">O-5TN1</text><rect Type="system" Region="地窖" height="5.00" y="350.00" Name="LMM7-L" width="5.00" x="150.00" id="1584" ID="30000615" /><text x="150.00" y="350.00" id="1585">LMM7-L</text><rect Type="system" Region="地窖" height="5.00" y="670.00" Name="IVP-KA" width="5.00" x="160.00" id="1587" ID="30000622" /><text x="160.00" y="670.00" id="1588">IVP-KA</text><rect Type="system" Region="地窖" height="5.00" y="300.00" Name="E1W-TB" width="5.00" x="150.00" id="1590" ID="30000612" /><text x="150.00" y="300.00" id="1591">E1W-TB</text><rect Type="system" Region="地窖" height="5.00" y="400.00" Name="2-2EWC" width="5.00" x="150.00" id="1593" ID="30000611" /><text x="150.00" y="400.00" id="1594">2-2EWC</text><rect Type="system" Region="地窖" height="5.00" y="620.00" Name="W2T-TR" width="5.00" x="160.00" id="1596" ID="30000617" /><text x="160.00" y="620.00" id="1597">W2T-TR</text><rect Type="system" Region="地窖" height="5.00" y="150.00" Name="I6-SYN" width="5.00" x="150.00" id="1599" ID="30000626" /><text x="150.00" y="150.00" id="1600">I6-SYN</text><rect Type="system" Region="地窖" height="5.00" y="570.00" Name="YE1-9S" width="5.00" x="190.00" id="1602" ID="30000621" /><text x="190.00" y="570.00" id="1603">YE1-9S</text><rect Type="system" Region="地窖" height="5.00" y="520.00" Name="Q-UEN6" width="5.00" x="190.00" id="1605" ID="30000618" /><text x="190.00" y="520.00" id="1606">Q-UEN6</text><rect Type="system" Region="地窖" height="5.00" y="420.00" Name="995-3G" width="5.00" x="220.00" id="1608" ID="30000616" /><text x="220.00" y="420.00" id="1609">995-3G</text><rect Type="system" Region="地窖" height="5.00" y="150.00" Name="VK-A5G" width="5.00" x="250.00" id="1611" ID="30000625" /><text x="250.00" y="150.00" id="1612">VK-A5G</text><rect Type="system" Region="地窖" height="5.00" y="650.00" Name="04EI-U" width="5.00" x="260.00" id="1614" ID="30000623" /><text x="260.00" y="650.00" id="1615">04EI-U</text><rect Type="system" Region="地窖" height="5.00" y="570.00" Name="M-CNUD" width="5.00" x="290.00" id="1617" ID="30000620" /><text x="290.00" y="570.00" id="1618">M-CNUD</text><rect Type="system" Region="地窖" height="5.00" y="520.00" Name="BLMX-B" width="5.00" x="290.00" id="1620" ID="30000619" /><text x="290.00" y="520.00" id="1621">BLMX-B</text><rect Type="system" Region="地窖" height="5.00" y="420.00" Name="D-6H64" width="5.00" x="300.00" id="1623" ID="30000613" /><text x="300.00" y="420.00" id="1624">D-6H64</text><rect Type="system" Region="地窖" height="5.00" y="150.00" Name="B-T6BT" width="5.00" x="300.00" id="1626" ID="30000624" /><text x="300.00" y="150.00" id="1627">B-T6BT</text><rect Type="system" Region="地窖" height="5.00" y="100.00" Name="8-SPNN" width="5.00" x="320.00" id="1629" ID="30000628" /><text x="320.00" y="100.00" id="1630">8-SPNN</text><rect Type="system" Region="螺旋之域" height="5.00" y="50.00" Name="JNG7-K" width="5.00" x="350.00" id="1632" ID="30001542" /><text x="350.00" y="50.00" id="1633">JNG7-K</text><rect Type="system" Region="地窖" height="5.00" y="370.00" Name="8-BIE3" width="5.00" x="370.00" id="1635" ID="30000614" /><text x="370.00" y="370.00" id="1636">8-BIE3</text><rect Type="system" Region="地窖" height="5.00" y="250.00" Name="K-RMI5" width="5.00" x="400.00" id="1638" ID="30000631" /><text x="400.00" y="250.00" id="1639">K-RMI5</text><rect Type="system" Region="地窖" height="5.00" y="300.00" Name="4S0-NP" width="5.00" x="400.00" id="1641" ID="30000630" /><text x="400.00" y="300.00" id="1642">4S0-NP</text><rect Type="system" Region="螺旋之域" height="5.00" y="50.00" Name="5LAJ-8" width="5.00" x="450.00" id="1644" ID="30001532" /><text x="450.00" y="50.00" id="1645">5LAJ-8</text><rect Type="system" Region="地窖" height="5.00" y="250.00" Name="C-6YHJ" width="5.00" x="450.00" id="1647" ID="30000632" /><text x="450.00" y="250.00" id="1648">C-6YHJ</text><rect Type="system" Region="地窖" height="5.00" y="200.00" Name="M53-1V" width="5.00" x="500.00" id="1650" ID="30000633" /><text x="500.00" y="200.00" id="1651">M53-1V</text><rect Type="system" Region="地窖" height="5.00" y="300.00" Name="I-2705" width="5.00" x="500.00" id="1653" ID="30000636" /><text x="500.00" y="300.00" id="1654">I-2705</text><rect Type="system" Region="地窖" height="5.00" y="250.00" Name="E5T-CS" width="5.00" x="550.00" id="1656" ID="30000634" /><text x="550.00" y="250.00" id="1657">E5T-CS</text><rect Type="system" Region="螺旋之域" height="5.00" y="47.68" Name="GF-GR7" width="5.00" x="582.32" id="1659" ID="30001580" /><text x="582.32" y="47.68" id="1660">GF-GR7</text><rect Type="system" Region="地窖" height="5.00" y="250.00" Name="W4C8-Q" width="5.00" x="600.00" id="1662" ID="30000635" /><text x="600.00" y="250.00" id="1663">W4C8-Q</text><rect Type="system" Region="地窖" height="5.00" y="560.00" Name="8-VC6H" width="5.00" x="660.00" id="1665" ID="30000648" /><text x="660.00" y="560.00" id="1666">8-VC6H</text><rect Type="system" Region="地窖" height="5.00" y="470.00" Name="0LY-W1" width="5.00" x="680.00" id="1668" ID="30000645" /><text x="680.00" y="470.00" id="1669">0LY-W1</text><rect Type="system" Region="螺旋之域" height="5.00" y="47.68" Name="DVN6-0" width="5.00" x="652.32" id="1671" ID="30001581" /><text x="652.32" y="47.68" id="1672">DVN6-0</text><rect Type="system" Region="地窖" height="5.00" y="300.00" Name="5F-MG1" width="5.00" x="700.00" id="1674" ID="30000637" /><text x="700.00" y="300.00" id="1675">5F-MG1</text><rect Type="system" Region="地窖" height="5.00" y="490.00" Name="BTLH-I" width="5.00" x="730.00" id="1677" ID="30000643" /><text x="730.00" y="490.00" id="1678">BTLH-I</text><rect Type="system" Region="地窖" height="5.00" y="540.00" Name="U93O-A" width="5.00" x="730.00" id="1680" ID="30000644" /><text x="730.00" y="540.00" id="1681">U93O-A</text><rect Type="system" Region="地窖" height="5.00" y="590.00" Name="4YO-QK" width="5.00" x="730.00" id="1683" ID="30000646" /><text x="730.00" y="590.00" id="1684">4YO-QK</text><rect Type="system" Region="地窖" height="5.00" y="80.00" Name="8OYE-Z" width="5.00" x="720.00" id="1686" ID="30000652" /><text x="720.00" y="80.00" id="1687">8OYE-Z</text><rect Type="system" Region="地窖" height="5.00" y="610.00" Name="LJ-RJK" width="5.00" x="780.00" id="1689" ID="30000647" /><text x="780.00" y="610.00" id="1690">LJ-RJK</text><rect Type="system" Region="地窖" height="5.00" y="100.00" Name="NG-M8K" width="5.00" x="775.50" id="1692" ID="30000650" /><text x="775.50" y="100.00" id="1693">NG-M8K</text><rect Type="system" Region="地窖" height="5.00" y="150.00" Name="LQ-01M" width="5.00" x="780.00" id="1695" ID="30000649" /><text x="780.00" y="150.00" id="1696">LQ-01M</text><rect Type="system" Region="地窖" height="5.00" y="250.00" Name="M-MCP8" width="5.00" x="780.00" id="1698" ID="30000639" /><text x="780.00" y="250.00" id="1699">M-MCP8</text><rect Type="system" Region="地窖" height="5.00" y="300.00" Name="P7-45V" width="5.00" x="780.00" id="1701" ID="30000638" /><text x="780.00" y="300.00" id="1702">P7-45V</text><rect Type="system" Region="地窖" height="5.00" y="350.00" Name="JZ-B5Y" width="5.00" x="780.00" id="1704" ID="30000640" /><text x="780.00" y="350.00" id="1705">JZ-B5Y</text><rect Type="system" Region="地窖" height="5.00" y="400.00" Name="NIF-JE" width="5.00" x="780.00" id="1707" ID="30000642" /><text x="780.00" y="400.00" id="1708">NIF-JE</text><rect Type="system" Region="地窖" height="5.00" y="100.00" Name="K85Y-6" width="5.00" x="824.50" id="1710" ID="30000653" /><text x="824.50" y="100.00" id="1711">K85Y-6</text><rect Type="system" Region="地窖" height="5.00" y="280.00" Name="TPG-DD" width="5.00" x="850.00" id="1713" ID="30000641" /><text x="850.00" y="280.00" id="1714">TPG-DD</text><rect Type="system" Region="地窖" height="5.00" y="150.00" Name="RV5-TT" width="5.00" x="850.00" id="1716" ID="30000651" /><text x="850.00" y="150.00" id="1717">RV5-TT</text><rect Type="system" Region="地窖" height="5.00" y="150.00" Name="PKN-NJ" width="5.00" x="920.00" id="1719" ID="30000654" /><text x="920.00" y="150.00" id="1720">PKN-NJ</text><rect Type="system" Region="大荒野" height="5.00" y="80.00" Name="K-IYNW" width="5.00" x="80.00" id="1722" ID="30001000" /><text x="80.00" y="80.00" id="1723">K-IYNW</text><rect Type="system" Region="因斯姆尔" height="5.00" y="720.00" Name="5-2PQU" width="5.00" x="110.00" id="1725" ID="30000762" /><text x="110.00" y="720.00" id="1726">5-2PQU</text><rect Type="system" Region="螺旋之域" height="5.00" y="20.00" Name="VX1-HV" width="5.00" x="280.00" id="1728" ID="30001541" /><text x="280.00" y="20.00" id="1729">VX1-HV</text><rect Type="system" Region="因斯姆尔" height="5.00" y="560.00" Name="C1G-XC" width="5.00" x="460.00" id="1731" ID="30000821" /><text x="460.00" y="560.00" id="1732">C1G-XC</text><rect Type="system" Region="螺旋之域" height="5.00" y="100.00" Name="HIK-MC" width="5.00" x="450.00" id="1734" ID="30001528" /><text x="450.00" y="100.00" id="1735">HIK-MC</text><rect Type="system" Region="因斯姆尔" height="5.00" y="560.00" Name="3-0FYP" width="5.00" x="530.00" id="1737" ID="30000823" /><text x="530.00" y="560.00" id="1738">3-0FYP</text><rect Type="system" Region="螺旋之域" height="5.00" y="50.00" Name="B9EA-G" width="5.00" x="500.00" id="1740" ID="30001529" /><text x="500.00" y="50.00" id="1741">B9EA-G</text><rect Type="system" Region="螺旋之域" height="5.00" y="82.32" Name="HPMN-V" width="5.00" x="547.68" id="1743" ID="30001583" /><text x="547.68" y="82.32" id="1744">HPMN-V</text><rect Type="system" Region="螺旋之域" height="5.00" y="82.32" Name="Z19-B8" width="5.00" x="617.68" id="1746" ID="30001582" /><text x="617.68" y="82.32" id="1747">Z19-B8</text><rect Type="system" Region="螺旋之域" height="5.00" y="20.00" Name="U1-VHY" width="5.00" x="720.00" id="1749" ID="30001585" /><text x="720.00" y="20.00" id="1750">U1-VHY</text><rect Type="system" Region="域外走廊" height="5.00" y="660.00" Name="RT64-C" width="5.00" x="880.00" id="1752" ID="30001773" /><text x="880.00" y="660.00" id="1753">RT64-C</text><rect Type="system" Region="域外走廊" height="5.00" y="50.00" Name="LTT-AP" width="5.00" x="820.00" id="1755" ID="30001804" /><text x="820.00" y="50.00" id="1756">LTT-AP</text><rect Type="system" Region="域外走廊" height="5.00" y="200.00" Name="XUPK-Z" width="5.00" x="920.00" id="1758" ID="30001753" /><text x="920.00" y="200.00" id="1759">XUPK-Z</text><line x2="100.00" style="fill:blue;stroke:blue;" y1="220.00" x1="50.00" id="1761" y2="180.00" /><line x2="150.00" style="fill:blue;stroke:blue;" y1="180.00" x1="100.00" id="1762" y2="150.00" /><line x2="50.00" style="fill:blue;stroke:blue;" y1="180.00" x1="100.00" id="1763" y2="220.00" /><line x2="150.00" style="fill:blue;stroke:blue;" y1="350.00" x1="150.00" id="1764" y2="400.00" /><line x2="150.00" style="fill:blue;stroke:blue;" y1="350.00" x1="150.00" id="1765" y2="300.00" /><line x2="160.00" style="fill:blue;stroke:blue;" y1="670.00" x1="160.00" id="1766" y2="620.00" /><line x2="110.00" style="fill:blue;stroke:blue;" y1="670.00" x1="160.00" id="1767" y2="720.00" /><line x2="150.00" style="fill:blue;stroke:blue;" y1="300.00" x1="150.00" id="1768" y2="350.00" /><line x2="150.00" style="fill:blue;stroke:blue;" y1="300.00" x1="150.00" id="1769" y2="150.00" /><line x2="150.00" style="fill:blue;stroke:blue;" y1="400.00" x1="150.00" id="1770" y2="350.00" /><line x2="220.00" style="fill:blue;stroke:blue;" y1="400.00" x1="150.00" id="1771" y2="420.00" /><line x2="190.00" style="fill:blue;stroke:blue;" y1="400.00" x1="150.00" id="1772" y2="520.00" /><line x2="290.00" style="fill:blue;stroke:blue;" y1="620.00" x1="160.00" id="1773" y2="570.00" /><line x2="190.00" style="fill:blue;stroke:blue;" y1="620.00" x1="160.00" id="1774" y2="570.00" /><line x2="160.00" style="fill:blue;stroke:blue;" y1="620.00" x1="160.00" id="1775" y2="670.00" /><line x2="260.00" style="fill:blue;stroke:blue;" y1="620.00" x1="160.00" id="1776" y2="650.00" /><line x2="150.00" style="fill:blue;stroke:blue;" y1="150.00" x1="150.00" id="1777" y2="300.00" /><line x2="250.00" style="fill:blue;stroke:blue;" y1="150.00" x1="150.00" id="1778" y2="150.00" /><line x2="100.00" style="fill:blue;stroke:blue;" y1="150.00" x1="150.00" id="1779" y2="180.00" /><line x2="80.00" style="fill:blue;stroke:blue;" y1="150.00" x1="150.00" id="1780" y2="80.00" /><line x2="160.00" style="fill:blue;stroke:blue;" y1="570.00" x1="190.00" id="1781" y2="620.00" /><line x2="190.00" style="fill:blue;stroke:blue;" y1="570.00" x1="190.00" id="1782" y2="520.00" /><line x2="150.00" style="fill:blue;stroke:blue;" y1="520.00" x1="190.00" id="1783" y2="400.00" /><line x2="290.00" style="fill:blue;stroke:blue;" y1="520.00" x1="190.00" id="1784" y2="520.00" /><line x2="190.00" style="fill:blue;stroke:blue;" y1="520.00" x1="190.00" id="1785" y2="570.00" /><line x2="150.00" style="fill:blue;stroke:blue;" y1="420.00" x1="220.00" id="1786" y2="400.00" /><line x2="300.00" style="fill:blue;stroke:blue;" y1="420.00" x1="220.00" id="1787" y2="420.00" /><line x2="300.00" style="fill:blue;stroke:blue;" y1="150.00" x1="250.00" id="1788" y2="150.00" /><line x2="150.00" style="fill:blue;stroke:blue;" y1="150.00" x1="250.00" id="1789" y2="150.00" /><line x2="160.00" style="fill:blue;stroke:blue;" y1="650.00" x1="260.00" id="1790" y2="620.00" /><line x2="290.00" style="fill:blue;stroke:blue;" y1="650.00" x1="260.00" id="1791" y2="570.00" /><line x2="160.00" style="fill:blue;stroke:blue;" y1="570.00" x1="290.00" id="1792" y2="620.00" /><line x2="290.00" style="fill:blue;stroke:blue;" y1="570.00" x1="290.00" id="1793" y2="520.00" /><line x2="260.00" style="fill:blue;stroke:blue;" y1="570.00" x1="290.00" id="1794" y2="650.00" /><line x2="190.00" style="fill:blue;stroke:blue;" y1="520.00" x1="290.00" id="1795" y2="520.00" /><line x2="290.00" style="fill:blue;stroke:blue;" y1="520.00" x1="290.00" id="1796" y2="570.00" /><line x2="460.00" style="fill:blue;stroke:blue;" y1="520.00" x1="290.00" id="1797" y2="560.00" /><line x2="370.00" style="fill:blue;stroke:blue;" y1="420.00" x1="300.00" id="1798" y2="370.00" /><line x2="220.00" style="fill:blue;stroke:blue;" y1="420.00" x1="300.00" id="1799" y2="420.00" /><line x2="250.00" style="fill:blue;stroke:blue;" y1="150.00" x1="300.00" id="1800" y2="150.00" /><line x2="320.00" style="fill:blue;stroke:blue;" y1="150.00" x1="300.00" id="1801" y2="100.00" /><line x2="400.00" style="fill:blue;stroke:blue;" y1="150.00" x1="300.00" id="1802" y2="250.00" /><line x2="300.00" style="fill:blue;stroke:blue;" y1="100.00" x1="320.00" id="1803" y2="150.00" /><line x2="350.00" style="fill:blue;stroke:blue;" y1="100.00" x1="320.00" id="1804" y2="50.00" /><line x2="320.00" style="fill:blue;stroke:blue;" y1="50.00" x1="350.00" id="1805" y2="100.00" /><line x2="450.00" style="fill:blue;stroke:blue;" y1="50.00" x1="350.00" id="1806" y2="50.00" /><line x2="280.00" style="fill:blue;stroke:blue;" y1="50.00" x1="350.00" id="1807" y2="20.00" /><line x2="300.00" style="fill:blue;stroke:blue;" y1="370.00" x1="370.00" id="1808" y2="420.00" /><line x2="400.00" style="fill:blue;stroke:blue;" y1="370.00" x1="370.00" id="1809" y2="300.00" /><line x2="300.00" style="fill:blue;stroke:blue;" y1="250.00" x1="400.00" id="1810" y2="150.00" /><line x2="400.00" style="fill:blue;stroke:blue;" y1="250.00" x1="400.00" id="1811" y2="300.00" /><line x2="450.00" style="fill:blue;stroke:blue;" y1="250.00" x1="400.00" id="1812" y2="250.00" /><line x2="370.00" style="fill:blue;stroke:blue;" y1="300.00" x1="400.00" id="1813" y2="370.00" /><line x2="400.00" style="fill:blue;stroke:blue;" y1="300.00" x1="400.00" id="1814" y2="250.00" /><line x2="450.00" style="fill:blue;stroke:blue;" y1="50.00" x1="450.00" id="1815" y2="100.00" /><line x2="500.00" style="fill:blue;stroke:blue;" y1="50.00" x1="450.00" id="1816" y2="50.00" /><line x2="350.00" style="fill:blue;stroke:blue;" y1="50.00" x1="450.00" id="1817" y2="50.00" /><line x2="400.00" style="fill:blue;stroke:blue;" y1="250.00" x1="450.00" id="1818" y2="250.00" /><line x2="500.00" style="fill:blue;stroke:blue;" y1="250.00" x1="450.00" id="1819" y2="200.00" /><line x2="500.00" style="fill:blue;stroke:blue;" y1="250.00" x1="450.00" id="1820" y2="300.00" /><line x2="450.00" style="fill:blue;stroke:blue;" y1="200.00" x1="500.00" id="1821" y2="250.00" /><line x2="550.00" style="fill:blue;stroke:blue;" y1="200.00" x1="500.00" id="1822" y2="250.00" /><line x2="450.00" style="fill:blue;stroke:blue;" y1="300.00" x1="500.00" id="1823" y2="250.00" /><line x2="550.00" style="fill:blue;stroke:blue;" y1="300.00" x1="500.00" id="1824" y2="250.00" /><line x2="500.00" style="fill:blue;stroke:blue;" y1="250.00" x1="550.00" id="1825" y2="200.00" /><line x2="600.00" style="fill:blue;stroke:blue;" y1="250.00" x1="550.00" id="1826" y2="250.00" /><line x2="500.00" style="fill:blue;stroke:blue;" y1="250.00" x1="550.00" id="1827" y2="300.00" /><line x2="500.00" style="fill:blue;stroke:blue;" y1="47.68" x1="582.32" id="1828" y2="50.00" /><line x2="652.32" style="fill:blue;stroke:blue;" y1="47.68" x1="582.32" id="1829" y2="47.68" /><line x2="617.68" style="fill:blue;stroke:blue;" y1="47.68" x1="582.32" id="1830" y2="82.32" /><line x2="547.68" style="fill:blue;stroke:blue;" y1="47.68" x1="582.32" id="1831" y2="82.32" /><line x2="550.00" style="fill:blue;stroke:blue;" y1="250.00" x1="600.00" id="1832" y2="250.00" /><line x2="700.00" style="fill:blue;stroke:blue;" y1="250.00" x1="600.00" id="1833" y2="300.00" /><line x2="730.00" style="fill:blue;stroke:blue;" y1="560.00" x1="660.00" id="1834" y2="590.00" /><line x2="530.00" style="fill:blue;stroke:blue;" y1="560.00" x1="660.00" id="1835" y2="560.00" /><line x2="730.00" style="fill:blue;stroke:blue;" y1="470.00" x1="680.00" id="1836" y2="490.00" /><line x2="720.00" style="fill:blue;stroke:blue;" y1="47.68" x1="652.32" id="1837" y2="80.00" /><line x2="582.32" style="fill:blue;stroke:blue;" y1="47.68" x1="652.32" id="1838" y2="47.68" /><line x2="720.00" style="fill:blue;stroke:blue;" y1="47.68" x1="652.32" id="1839" y2="20.00" /><line x2="600.00" style="fill:blue;stroke:blue;" y1="300.00" x1="700.00" id="1840" y2="250.00" /><line x2="780.00" style="fill:blue;stroke:blue;" y1="300.00" x1="700.00" id="1841" y2="300.00" /><line x2="780.00" style="fill:blue;stroke:blue;" y1="490.00" x1="730.00" id="1842" y2="400.00" /><line x2="730.00" style="fill:blue;stroke:blue;" y1="490.00" x1="730.00" id="1843" y2="540.00" /><line x2="680.00" style="fill:blue;stroke:blue;" y1="490.00" x1="730.00" id="1844" y2="470.00" /><line x2="730.00" style="fill:blue;stroke:blue;" y1="540.00" x1="730.00" id="1845" y2="490.00" /><line x2="730.00" style="fill:blue;stroke:blue;" y1="540.00" x1="730.00" id="1846" y2="590.00" /><line x2="730.00" style="fill:blue;stroke:blue;" y1="590.00" x1="730.00" id="1847" y2="540.00" /><line x2="780.00" style="fill:blue;stroke:blue;" y1="590.00" x1="730.00" id="1848" y2="610.00" /><line x2="660.00" style="fill:blue;stroke:blue;" y1="590.00" x1="730.00" id="1849" y2="560.00" /><line x2="775.50" style="fill:blue;stroke:blue;" y1="80.00" x1="720.00" id="1850" y2="100.00" /><line x2="652.32" style="fill:blue;stroke:blue;" y1="80.00" x1="720.00" id="1851" y2="47.68" /><line x2="730.00" style="fill:blue;stroke:blue;" y1="610.00" x1="780.00" id="1852" y2="590.00" /><line x2="880.00" style="fill:blue;stroke:blue;" y1="610.00" x1="780.00" id="1853" y2="660.00" /><line x2="780.00" style="fill:blue;stroke:blue;" y1="100.00" x1="775.50" id="1854" y2="150.00" /><line x2="720.00" style="fill:blue;stroke:blue;" y1="100.00" x1="775.50" id="1855" y2="80.00" /><line x2="824.50" style="fill:blue;stroke:blue;" y1="100.00" x1="775.50" id="1856" y2="100.00" /><line x2="780.00" style="fill:blue;stroke:blue;" y1="150.00" x1="780.00" id="1857" y2="250.00" /><line x2="775.50" style="fill:blue;stroke:blue;" y1="150.00" x1="780.00" id="1858" y2="100.00" /><line x2="850.00" style="fill:blue;stroke:blue;" y1="150.00" x1="780.00" id="1859" y2="150.00" /><line x2="780.00" style="fill:blue;stroke:blue;" y1="250.00" x1="780.00" id="1860" y2="300.00" /><line x2="850.00" style="fill:blue;stroke:blue;" y1="250.00" x1="780.00" id="1861" y2="280.00" /><line x2="780.00" style="fill:blue;stroke:blue;" y1="250.00" x1="780.00" id="1862" y2="150.00" /><line x2="700.00" style="fill:blue;stroke:blue;" y1="300.00" x1="780.00" id="1863" y2="300.00" /><line x2="780.00" style="fill:blue;stroke:blue;" y1="300.00" x1="780.00" id="1864" y2="250.00" /><line x2="780.00" style="fill:blue;stroke:blue;" y1="300.00" x1="780.00" id="1865" y2="350.00" /><line x2="850.00" style="fill:blue;stroke:blue;" y1="300.00" x1="780.00" id="1866" y2="280.00" /><line x2="780.00" style="fill:blue;stroke:blue;" y1="350.00" x1="780.00" id="1867" y2="300.00" /><line x2="780.00" style="fill:blue;stroke:blue;" y1="350.00" x1="780.00" id="1868" y2="400.00" /><line x2="780.00" style="fill:blue;stroke:blue;" y1="400.00" x1="780.00" id="1869" y2="350.00" /><line x2="730.00" style="fill:blue;stroke:blue;" y1="400.00" x1="780.00" id="1870" y2="490.00" /><line x2="775.50" style="fill:blue;stroke:blue;" y1="100.00" x1="824.50" id="1871" y2="100.00" /><line x2="820.00" style="fill:blue;stroke:blue;" y1="100.00" x1="824.50" id="1872" y2="50.00" /><line x2="780.00" style="fill:blue;stroke:blue;" y1="280.00" x1="850.00" id="1873" y2="300.00" /><line x2="780.00" style="fill:blue;stroke:blue;" y1="280.00" x1="850.00" id="1874" y2="250.00" /><line x2="780.00" style="fill:blue;stroke:blue;" y1="150.00" x1="850.00" id="1875" y2="150.00" /><line x2="920.00" style="fill:blue;stroke:blue;" y1="150.00" x1="850.00" id="1876" y2="150.00" /><line x2="850.00" style="fill:blue;stroke:blue;" y1="150.00" x1="920.00" id="1877" y2="150.00" /><line x2="920.00" style="fill:blue;stroke:blue;" y1="150.00" x1="920.00" id="1878" y2="200.00" /><line x2="150.00" style="fill:blue;stroke:blue;" y1="80.00" x1="80.00" id="1879" y2="150.00" /><line x2="160.00" style="fill:blue;stroke:blue;" y1="720.00" x1="110.00" id="1880" y2="670.00" /><line x2="350.00" style="fill:blue;stroke:blue;" y1="20.00" x1="280.00" id="1881" y2="50.00" /><line x2="290.00" style="fill:blue;stroke:blue;" y1="560.00" x1="460.00" id="1882" y2="520.00" /><line x2="530.00" style="fill:blue;stroke:blue;" y1="560.00" x1="460.00" id="1883" y2="560.00" /><line x2="450.00" style="fill:blue;stroke:blue;" y1="100.00" x1="450.00" id="1884" y2="50.00" /><line x2="660.00" style="fill:blue;stroke:blue;" y1="560.00" x1="530.00" id="1885" y2="560.00" /><line x2="460.00" style="fill:blue;stroke:blue;" y1="560.00" x1="530.00" id="1886" y2="560.00" /><line x2="450.00" style="fill:blue;stroke:blue;" y1="50.00" x1="500.00" id="1887" y2="50.00" /><line x2="582.32" style="fill:blue;stroke:blue;" y1="50.00" x1="500.00" id="1888" y2="47.68" /><line x2="582.32" style="fill:blue;stroke:blue;" y1="82.32" x1="547.68" id="1889" y2="47.68" /><line x2="617.68" style="fill:blue;stroke:blue;" y1="82.32" x1="547.68" id="1890" y2="82.32" /><line x2="582.32" style="fill:blue;stroke:blue;" y1="82.32" x1="617.68" id="1891" y2="47.68" /><line x2="547.68" style="fill:blue;stroke:blue;" y1="82.32" x1="617.68" id="1892" y2="82.32" /><line x2="652.32" style="fill:blue;stroke:blue;" y1="20.00" x1="720.00" id="1893" y2="47.68" /><line x2="780.00" style="fill:blue;stroke:blue;" y1="660.00" x1="880.00" id="1894" y2="610.00" /><line x2="824.50" style="fill:blue;stroke:blue;" y1="50.00" x1="820.00" id="1895" y2="100.00" /><line x2="920.00" style="fill:blue;stroke:blue;" y1="200.00" x1="920.00" id="1896" y2="150.00" /></svg>
