<?xml version="1.0" standalone="yes"?><!DOCTYPE svg PUBLIC "-//W3C//DTD SVG 1.1//EN" "http://www.w3.org/Graphics/SVG/1.1/DTD/svg11.dtd"[]><svg width="1050.00" height="800.00" id="1577" xmlns="http://www.w3.org/2000/svg" xmlns:xlink="http://www.w3.org/1999/xlink"><rect Type="system" x="50.00" id="1578" height="5.00" width="5.00" Name="U-QMOA" ID="30000629" Region="地窖" y="220.00" /><text y="220.00" x="50.00" id="1579">U-QMOA</text><rect Type="system" x="100.00" id="1581" height="5.00" width="5.00" Name="O-5TN1" ID="30000627" Region="地窖" y="180.00" /><text y="180.00" x="100.00" id="1582">O-5TN1</text><rect Type="system" x="150.00" id="1584" height="5.00" width="5.00" Name="LMM7-L" ID="30000615" Region="地窖" y="350.00" /><text y="350.00" x="150.00" id="1585">LMM7-L</text><rect Type="system" x="160.00" id="1587" height="5.00" width="5.00" Name="IVP-KA" ID="30000622" Region="地窖" y="670.00" /><text y="670.00" x="160.00" id="1588">IVP-KA</text><rect Type="system" x="150.00" id="1590" height="5.00" width="5.00" Name="E1W-TB" ID="30000612" Region="地窖" y="300.00" /><text y="300.00" x="150.00" id="1591">E1W-TB</text><rect Type="system" x="150.00" id="1593" height="5.00" width="5.00" Name="2-2EWC" ID="30000611" Region="地窖" y="400.00" /><text y="400.00" x="150.00" id="1594">2-2EWC</text><rect Type="system" x="160.00" id="1596" height="5.00" width="5.00" Name="W2T-TR" ID="30000617" Region="地窖" y="620.00" /><text y="620.00" x="160.00" id="1597">W2T-TR</text><rect Type="system" x="150.00" id="1599" height="5.00" width="5.00" Name="I6-SYN" ID="30000626" Region="地窖" y="150.00" /><text y="150.00" x="150.00" id="1600">I6-SYN</text><rect Type="system" x="190.00" id="1602" height="5.00" width="5.00" Name="YE1-9S" ID="30000621" Region="地窖" y="570.00" /><text y="570.00" x="190.00" id="1603">YE1-9S</text><rect Type="system" x="190.00" id="1605" height="5.00" width="5.00" Name="Q-UEN6" ID="30000618" Region="地窖" y="520.00" /><text y="520.00" x="190.00" id="1606">Q-UEN6</text><rect Type="system" x="220.00" id="1608" height="5.00" width="5.00" Name="995-3G" ID="30000616" Region="地窖" y="420.00" /><text y="420.00" x="220.00" id="1609">995-3G</text><rect Type="system" x="250.00" id="1611" height="5.00" width="5.00" Name="VK-A5G" ID="30000625" Region="地窖" y="150.00" /><text y="150.00" x="250.00" id="1612">VK-A5G</text><rect Type="system" x="260.00" id="1614" height="5.00" width="5.00" Name="04EI-U" ID="30000623" Region="地窖" y="650.00" /><text y="650.00" x="260.00" id="1615">04EI-U</text><rect Type="system" x="290.00" id="1617" height="5.00" width="5.00" Name="M-CNUD" ID="30000620" Region="地窖" y="570.00" /><text y="570.00" x="290.00" id="1618">M-CNUD</text><rect Type="system" x="290.00" id="1620" height="5.00" width="5.00" Name="BLMX-B" ID="30000619" Region="地窖" y="520.00" /><text y="520.00" x="290.00" id="1621">BLMX-B</text><rect Type="system" x="300.00" id="1623" height="5.00" width="5.00" Name="D-6H64" ID="30000613" Region="地窖" y="420.00" /><text y="420.00" x="300.00" id="1624">D-6H64</text><rect Type="system" x="300.00" id="1626" height="5.00" width="5.00" Name="B-T6BT" ID="30000624" Region="地窖" y="150.00" /><text y="150.00" x="300.00" id="1627">B-T6BT</text><rect Type="system" x="320.00" id="1629" height="5.00" width="5.00" Name="8-SPNN" ID="30000628" Region="地窖" y="100.00" /><text y="100.00" x="320.00" id="1630">8-SPNN</text><rect Type="system" x="350.00" id="1632" height="5.00" width="5.00" Name="JNG7-K" ID="30001542" Region="螺旋之域" y="50.00" /><text y="50.00" x="350.00" id="1633">JNG7-K</text><rect Type="system" x="370.00" id="1635" height="5.00" width="5.00" Name="8-BIE3" ID="30000614" Region="地窖" y="370.00" /><text y="370.00" x="370.00" id="1636">8-BIE3</text><rect Type="system" x="400.00" id="1638" height="5.00" width="5.00" Name="K-RMI5" ID="30000631" Region="地窖" y="250.00" /><text y="250.00" x="400.00" id="1639">K-RMI5</text><rect Type="system" x="400.00" id="1641" height="5.00" width="5.00" Name="4S0-NP" ID="30000630" Region="地窖" y="300.00" /><text y="300.00" x="400.00" id="1642">4S0-NP</text><rect Type="system" x="450.00" id="1644" height="5.00" width="5.00" Name="5LAJ-8" ID="30001532" Region="螺旋之域" y="50.00" /><text y="50.00" x="450.00" id="1645">5LAJ-8</text><rect Type="system" x="450.00" id="1647" height="5.00" width="5.00" Name="C-6YHJ" ID="30000632" Region="地窖" y="250.00" /><text y="250.00" x="450.00" id="1648">C-6YHJ</text><rect Type="system" x="500.00" id="1650" height="5.00" width="5.00" Name="M53-1V" ID="30000633" Region="地窖" y="200.00" /><text y="200.00" x="500.00" id="1651">M53-1V</text><rect Type="system" x="500.00" id="1653" height="5.00" width="5.00" Name="I-2705" ID="30000636" Region="地窖" y="300.00" /><text y="300.00" x="500.00" id="1654">I-2705</text><rect Type="system" x="550.00" id="1656" height="5.00" width="5.00" Name="E5T-CS" ID="30000634" Region="地窖" y="250.00" /><text y="250.00" x="550.00" id="1657">E5T-CS</text><rect Type="system" x="582.32" id="1659" height="5.00" width="5.00" Name="GF-GR7" ID="30001580" Region="螺旋之域" y="47.68" /><text y="47.68" x="582.32" id="1660">GF-GR7</text><rect Type="system" x="600.00" id="1662" height="5.00" width="5.00" Name="W4C8-Q" ID="30000635" Region="地窖" y="250.00" /><text y="250.00" x="600.00" id="1663">W4C8-Q</text><rect Type="system" x="660.00" id="1665" height="5.00" width="5.00" Name="8-VC6H" ID="30000648" Region="地窖" y="560.00" /><text y="560.00" x="660.00" id="1666">8-VC6H</text><rect Type="system" x="680.00" id="1668" height="5.00" width="5.00" Name="0LY-W1" ID="30000645" Region="地窖" y="470.00" /><text y="470.00" x="680.00" id="1669">0LY-W1</text><rect Type="system" x="652.32" id="1671" height="5.00" width="5.00" Name="DVN6-0" ID="30001581" Region="螺旋之域" y="47.68" /><text y="47.68" x="652.32" id="1672">DVN6-0</text><rect Type="system" x="700.00" id="1674" height="5.00" width="5.00" Name="5F-MG1" ID="30000637" Region="地窖" y="300.00" /><text y="300.00" x="700.00" id="1675">5F-MG1</text><rect Type="system" x="730.00" id="1677" height="5.00" width="5.00" Name="BTLH-I" ID="30000643" Region="地窖" y="490.00" /><text y="490.00" x="730.00" id="1678">BTLH-I</text><rect Type="system" x="730.00" id="1680" height="5.00" width="5.00" Name="U93O-A" ID="30000644" Region="地窖" y="540.00" /><text y="540.00" x="730.00" id="1681">U93O-A</text><rect Type="system" x="730.00" id="1683" height="5.00" width="5.00" Name="4YO-QK" ID="30000646" Region="地窖" y="590.00" /><text y="590.00" x="730.00" id="1684">4YO-QK</text><rect Type="system" x="720.00" id="1686" height="5.00" width="5.00" Name="8OYE-Z" ID="30000652" Region="地窖" y="80.00" /><text y="80.00" x="720.00" id="1687">8OYE-Z</text><rect Type="system" x="780.00" id="1689" height="5.00" width="5.00" Name="LJ-RJK" ID="30000647" Region="地窖" y="610.00" /><text y="610.00" x="780.00" id="1690">LJ-RJK</text><rect Type="system" x="775.50" id="1692" height="5.00" width="5.00" Name="NG-M8K" ID="30000650" Region="地窖" y="100.00" /><text y="100.00" x="775.50" id="1693">NG-M8K</text><rect Type="system" x="780.00" id="1695" height="5.00" width="5.00" Name="LQ-01M" ID="30000649" Region="地窖" y="150.00" /><text y="150.00" x="780.00" id="1696">LQ-01M</text><rect Type="system" x="780.00" id="1698" height="5.00" width="5.00" Name="M-MCP8" ID="30000639" Region="地窖" y="250.00" /><text y="250.00" x="780.00" id="1699">M-MCP8</text><rect Type="system" x="780.00" id="1701" height="5.00" width="5.00" Name="P7-45V" ID="30000638" Region="地窖" y="300.00" /><text y="300.00" x="780.00" id="1702">P7-45V</text><rect Type="system" x="780.00" id="1704" height="5.00" width="5.00" Name="JZ-B5Y" ID="30000640" Region="地窖" y="350.00" /><text y="350.00" x="780.00" id="1705">JZ-B5Y</text><rect Type="system" x="780.00" id="1707" height="5.00" width="5.00" Name="NIF-JE" ID="30000642" Region="地窖" y="400.00" /><text y="400.00" x="780.00" id="1708">NIF-JE</text><rect Type="system" x="824.50" id="1710" height="5.00" width="5.00" Name="K85Y-6" ID="30000653" Region="地窖" y="100.00" /><text y="100.00" x="824.50" id="1711">K85Y-6</text><rect Type="system" x="850.00" id="1713" height="5.00" width="5.00" Name="TPG-DD" ID="30000641" Region="地窖" y="280.00" /><text y="280.00" x="850.00" id="1714">TPG-DD</text><rect Type="system" x="850.00" id="1716" height="5.00" width="5.00" Name="RV5-TT" ID="30000651" Region="地窖" y="150.00" /><text y="150.00" x="850.00" id="1717">RV5-TT</text><rect Type="system" x="920.00" id="1719" height="5.00" width="5.00" Name="PKN-NJ" ID="30000654" Region="地窖" y="150.00" /><text y="150.00" x="920.00" id="1720">PKN-NJ</text><rect Type="system" x="80.00" id="1722" height="5.00" width="5.00" Name="K-IYNW" ID="30001000" Region="大荒野" y="80.00" /><text y="80.00" x="80.00" id="1723">K-IYNW</text><rect Type="system" x="110.00" id="1725" height="5.00" width="5.00" Name="5-2PQU" ID="30000762" Region="因斯姆尔" y="720.00" /><text y="720.00" x="110.00" id="1726">5-2PQU</text><rect Type="system" x="280.00" id="1728" height="5.00" width="5.00" Name="VX1-HV" ID="30001541" Region="螺旋之域" y="20.00" /><text y="20.00" x="280.00" id="1729">VX1-HV</text><rect Type="system" x="460.00" id="1731" height="5.00" width="5.00" Name="C1G-XC" ID="30000821" Region="因斯姆尔" y="560.00" /><text y="560.00" x="460.00" id="1732">C1G-XC</text><rect Type="system" x="450.00" id="1734" height="5.00" width="5.00" Name="HIK-MC" ID="30001528" Region="螺旋之域" y="100.00" /><text y="100.00" x="450.00" id="1735">HIK-MC</text><rect Type="system" x="530.00" id="1737" height="5.00" width="5.00" Name="3-0FYP" ID="30000823" Region="因斯姆尔" y="560.00" /><text y="560.00" x="530.00" id="1738">3-0FYP</text><rect Type="system" x="500.00" id="1740" height="5.00" width="5.00" Name="B9EA-G" ID="30001529" Region="螺旋之域" y="50.00" /><text y="50.00" x="500.00" id="1741">B9EA-G</text><rect Type="system" x="547.68" id="1743" height="5.00" width="5.00" Name="HPMN-V" ID="30001583" Region="螺旋之域" y="82.32" /><text y="82.32" x="547.68" id="1744">HPMN-V</text><rect Type="system" x="617.68" id="1746" height="5.00" width="5.00" Name="Z19-B8" ID="30001582" Region="螺旋之域" y="82.32" /><text y="82.32" x="617.68" id="1747">Z19-B8</text><rect Type="system" x="720.00" id="1749" height="5.00" width="5.00" Name="U1-VHY" ID="30001585" Region="螺旋之域" y="20.00" /><text y="20.00" x="720.00" id="1750">U1-VHY</text><rect Type="system" x="880.00" id="1752" height="5.00" width="5.00" Name="RT64-C" ID="30001773" Region="域外走廊" y="660.00" /><text y="660.00" x="880.00" id="1753">RT64-C</text><rect Type="system" x="820.00" id="1755" height="5.00" width="5.00" Name="LTT-AP" ID="30001804" Region="域外走廊" y="50.00" /><text y="50.00" x="820.00" id="1756">LTT-AP</text><rect Type="system" x="920.00" id="1758" height="5.00" width="5.00" Name="XUPK-Z" ID="30001753" Region="域外走廊" y="200.00" /><text y="200.00" x="920.00" id="1759">XUPK-Z</text><line style="stroke:blue;fill:blue;" id="1761" x2="100.00" x1="50.00" y1="220.00" y2="180.00" /><line style="stroke:blue;fill:blue;" id="1762" x2="150.00" x1="100.00" y1="180.00" y2="150.00" /><line style="stroke:blue;fill:blue;" id="1763" x2="50.00" x1="100.00" y1="180.00" y2="220.00" /><line style="stroke:blue;fill:blue;" id="1764" x2="150.00" x1="150.00" y1="350.00" y2="400.00" /><line style="stroke:blue;fill:blue;" id="1765" x2="150.00" x1="150.00" y1="350.00" y2="300.00" /><line style="stroke:blue;fill:blue;" id="1766" x2="160.00" x1="160.00" y1="670.00" y2="620.00" /><line style="stroke:blue;fill:blue;" id="1767" x2="110.00" x1="160.00" y1="670.00" y2="720.00" /><line style="stroke:blue;fill:blue;" id="1768" x2="150.00" x1="150.00" y1="300.00" y2="350.00" /><line style="stroke:blue;fill:blue;" id="1769" x2="150.00" x1="150.00" y1="300.00" y2="150.00" /><line style="stroke:blue;fill:blue;" id="1770" x2="150.00" x1="150.00" y1="400.00" y2="350.00" /><line style="stroke:blue;fill:blue;" id="1771" x2="220.00" x1="150.00" y1="400.00" y2="420.00" /><line style="stroke:blue;fill:blue;" id="1772" x2="190.00" x1="150.00" y1="400.00" y2="520.00" /><line style="stroke:blue;fill:blue;" id="1773" x2="290.00" x1="160.00" y1="620.00" y2="570.00" /><line style="stroke:blue;fill:blue;" id="1774" x2="190.00" x1="160.00" y1="620.00" y2="570.00" /><line style="stroke:blue;fill:blue;" id="1775" x2="160.00" x1="160.00" y1="620.00" y2="670.00" /><line style="stroke:blue;fill:blue;" id="1776" x2="260.00" x1="160.00" y1="620.00" y2="650.00" /><line style="stroke:blue;fill:blue;" id="1777" x2="150.00" x1="150.00" y1="150.00" y2="300.00" /><line style="stroke:blue;fill:blue;" id="1778" x2="250.00" x1="150.00" y1="150.00" y2="150.00" /><line style="stroke:blue;fill:blue;" id="1779" x2="100.00" x1="150.00" y1="150.00" y2="180.00" /><line style="stroke:blue;fill:blue;" id="1780" x2="80.00" x1="150.00" y1="150.00" y2="80.00" /><line style="stroke:blue;fill:blue;" id="1781" x2="160.00" x1="190.00" y1="570.00" y2="620.00" /><line style="stroke:blue;fill:blue;" id="1782" x2="190.00" x1="190.00" y1="570.00" y2="520.00" /><line style="stroke:blue;fill:blue;" id="1783" x2="150.00" x1="190.00" y1="520.00" y2="400.00" /><line style="stroke:blue;fill:blue;" id="1784" x2="290.00" x1="190.00" y1="520.00" y2="520.00" /><line style="stroke:blue;fill:blue;" id="1785" x2="190.00" x1="190.00" y1="520.00" y2="570.00" /><line style="stroke:blue;fill:blue;" id="1786" x2="150.00" x1="220.00" y1="420.00" y2="400.00" /><line style="stroke:blue;fill:blue;" id="1787" x2="300.00" x1="220.00" y1="420.00" y2="420.00" /><line style="stroke:blue;fill:blue;" id="1788" x2="300.00" x1="250.00" y1="150.00" y2="150.00" /><line style="stroke:blue;fill:blue;" id="1789" x2="150.00" x1="250.00" y1="150.00" y2="150.00" /><line style="stroke:blue;fill:blue;" id="1790" x2="160.00" x1="260.00" y1="650.00" y2="620.00" /><line style="stroke:blue;fill:blue;" id="1791" x2="290.00" x1="260.00" y1="650.00" y2="570.00" /><line style="stroke:blue;fill:blue;" id="1792" x2="160.00" x1="290.00" y1="570.00" y2="620.00" /><line style="stroke:blue;fill:blue;" id="1793" x2="290.00" x1="290.00" y1="570.00" y2="520.00" /><line style="stroke:blue;fill:blue;" id="1794" x2="260.00" x1="290.00" y1="570.00" y2="650.00" /><line style="stroke:blue;fill:blue;" id="1795" x2="190.00" x1="290.00" y1="520.00" y2="520.00" /><line style="stroke:blue;fill:blue;" id="1796" x2="290.00" x1="290.00" y1="520.00" y2="570.00" /><line style="stroke:blue;fill:blue;" id="1797" x2="460.00" x1="290.00" y1="520.00" y2="560.00" /><line style="stroke:blue;fill:blue;" id="1798" x2="370.00" x1="300.00" y1="420.00" y2="370.00" /><line style="stroke:blue;fill:blue;" id="1799" x2="220.00" x1="300.00" y1="420.00" y2="420.00" /><line style="stroke:blue;fill:blue;" id="1800" x2="250.00" x1="300.00" y1="150.00" y2="150.00" /><line style="stroke:blue;fill:blue;" id="1801" x2="320.00" x1="300.00" y1="150.00" y2="100.00" /><line style="stroke:blue;fill:blue;" id="1802" x2="400.00" x1="300.00" y1="150.00" y2="250.00" /><line style="stroke:blue;fill:blue;" id="1803" x2="300.00" x1="320.00" y1="100.00" y2="150.00" /><line style="stroke:blue;fill:blue;" id="1804" x2="350.00" x1="320.00" y1="100.00" y2="50.00" /><line style="stroke:blue;fill:blue;" id="1805" x2="320.00" x1="350.00" y1="50.00" y2="100.00" /><line style="stroke:blue;fill:blue;" id="1806" x2="450.00" x1="350.00" y1="50.00" y2="50.00" /><line style="stroke:blue;fill:blue;" id="1807" x2="280.00" x1="350.00" y1="50.00" y2="20.00" /><line style="stroke:blue;fill:blue;" id="1808" x2="300.00" x1="370.00" y1="370.00" y2="420.00" /><line style="stroke:blue;fill:blue;" id="1809" x2="400.00" x1="370.00" y1="370.00" y2="300.00" /><line style="stroke:blue;fill:blue;" id="1810" x2="300.00" x1="400.00" y1="250.00" y2="150.00" /><line style="stroke:blue;fill:blue;" id="1811" x2="400.00" x1="400.00" y1="250.00" y2="300.00" /><line style="stroke:blue;fill:blue;" id="1812" x2="450.00" x1="400.00" y1="250.00" y2="250.00" /><line style="stroke:blue;fill:blue;" id="1813" x2="370.00" x1="400.00" y1="300.00" y2="370.00" /><line style="stroke:blue;fill:blue;" id="1814" x2="400.00" x1="400.00" y1="300.00" y2="250.00" /><line style="stroke:blue;fill:blue;" id="1815" x2="450.00" x1="450.00" y1="50.00" y2="100.00" /><line style="stroke:blue;fill:blue;" id="1816" x2="500.00" x1="450.00" y1="50.00" y2="50.00" /><line style="stroke:blue;fill:blue;" id="1817" x2="350.00" x1="450.00" y1="50.00" y2="50.00" /><line style="stroke:blue;fill:blue;" id="1818" x2="400.00" x1="450.00" y1="250.00" y2="250.00" /><line style="stroke:blue;fill:blue;" id="1819" x2="500.00" x1="450.00" y1="250.00" y2="200.00" /><line style="stroke:blue;fill:blue;" id="1820" x2="500.00" x1="450.00" y1="250.00" y2="300.00" /><line style="stroke:blue;fill:blue;" id="1821" x2="450.00" x1="500.00" y1="200.00" y2="250.00" /><line style="stroke:blue;fill:blue;" id="1822" x2="550.00" x1="500.00" y1="200.00" y2="250.00" /><line style="stroke:blue;fill:blue;" id="1823" x2="450.00" x1="500.00" y1="300.00" y2="250.00" /><line style="stroke:blue;fill:blue;" id="1824" x2="550.00" x1="500.00" y1="300.00" y2="250.00" /><line style="stroke:blue;fill:blue;" id="1825" x2="500.00" x1="550.00" y1="250.00" y2="200.00" /><line style="stroke:blue;fill:blue;" id="1826" x2="600.00" x1="550.00" y1="250.00" y2="250.00" /><line style="stroke:blue;fill:blue;" id="1827" x2="500.00" x1="550.00" y1="250.00" y2="300.00" /><line style="stroke:blue;fill:blue;" id="1828" x2="500.00" x1="582.32" y1="47.68" y2="50.00" /><line style="stroke:blue;fill:blue;" id="1829" x2="652.32" x1="582.32" y1="47.68" y2="47.68" /><line style="stroke:blue;fill:blue;" id="1830" x2="617.68" x1="582.32" y1="47.68" y2="82.32" /><line style="stroke:blue;fill:blue;" id="1831" x2="547.68" x1="582.32" y1="47.68" y2="82.32" /><line style="stroke:blue;fill:blue;" id="1832" x2="550.00" x1="600.00" y1="250.00" y2="250.00" /><line style="stroke:blue;fill:blue;" id="1833" x2="700.00" x1="600.00" y1="250.00" y2="300.00" /><line style="stroke:blue;fill:blue;" id="1834" x2="730.00" x1="660.00" y1="560.00" y2="590.00" /><line style="stroke:blue;fill:blue;" id="1835" x2="530.00" x1="660.00" y1="560.00" y2="560.00" /><line style="stroke:blue;fill:blue;" id="1836" x2="730.00" x1="680.00" y1="470.00" y2="490.00" /><line style="stroke:blue;fill:blue;" id="1837" x2="720.00" x1="652.32" y1="47.68" y2="80.00" /><line style="stroke:blue;fill:blue;" id="1838" x2="582.32" x1="652.32" y1="47.68" y2="47.68" /><line style="stroke:blue;fill:blue;" id="1839" x2="720.00" x1="652.32" y1="47.68" y2="20.00" /><line style="stroke:blue;fill:blue;" id="1840" x2="600.00" x1="700.00" y1="300.00" y2="250.00" /><line style="stroke:blue;fill:blue;" id="1841" x2="780.00" x1="700.00" y1="300.00" y2="300.00" /><line style="stroke:blue;fill:blue;" id="1842" x2="780.00" x1="730.00" y1="490.00" y2="400.00" /><line style="stroke:blue;fill:blue;" id="1843" x2="730.00" x1="730.00" y1="490.00" y2="540.00" /><line style="stroke:blue;fill:blue;" id="1844" x2="680.00" x1="730.00" y1="490.00" y2="470.00" /><line style="stroke:blue;fill:blue;" id="1845" x2="730.00" x1="730.00" y1="540.00" y2="490.00" /><line style="stroke:blue;fill:blue;" id="1846" x2="730.00" x1="730.00" y1="540.00" y2="590.00" /><line style="stroke:blue;fill:blue;" id="1847" x2="730.00" x1="730.00" y1="590.00" y2="540.00" /><line style="stroke:blue;fill:blue;" id="1848" x2="780.00" x1="730.00" y1="590.00" y2="610.00" /><line style="stroke:blue;fill:blue;" id="1849" x2="660.00" x1="730.00" y1="590.00" y2="560.00" /><line style="stroke:blue;fill:blue;" id="1850" x2="775.50" x1="720.00" y1="80.00" y2="100.00" /><line style="stroke:blue;fill:blue;" id="1851" x2="652.32" x1="720.00" y1="80.00" y2="47.68" /><line style="stroke:blue;fill:blue;" id="1852" x2="730.00" x1="780.00" y1="610.00" y2="590.00" /><line style="stroke:blue;fill:blue;" id="1853" x2="880.00" x1="780.00" y1="610.00" y2="660.00" /><line style="stroke:blue;fill:blue;" id="1854" x2="780.00" x1="775.50" y1="100.00" y2="150.00" /><line style="stroke:blue;fill:blue;" id="1855" x2="720.00" x1="775.50" y1="100.00" y2="80.00" /><line style="stroke:blue;fill:blue;" id="1856" x2="824.50" x1="775.50" y1="100.00" y2="100.00" /><line style="stroke:blue;fill:blue;" id="1857" x2="780.00" x1="780.00" y1="150.00" y2="250.00" /><line style="stroke:blue;fill:blue;" id="1858" x2="775.50" x1="780.00" y1="150.00" y2="100.00" /><line style="stroke:blue;fill:blue;" id="1859" x2="850.00" x1="780.00" y1="150.00" y2="150.00" /><line style="stroke:blue;fill:blue;" id="1860" x2="780.00" x1="780.00" y1="250.00" y2="300.00" /><line style="stroke:blue;fill:blue;" id="1861" x2="850.00" x1="780.00" y1="250.00" y2="280.00" /><line style="stroke:blue;fill:blue;" id="1862" x2="780.00" x1="780.00" y1="250.00" y2="150.00" /><line style="stroke:blue;fill:blue;" id="1863" x2="700.00" x1="780.00" y1="300.00" y2="300.00" /><line style="stroke:blue;fill:blue;" id="1864" x2="780.00" x1="780.00" y1="300.00" y2="250.00" /><line style="stroke:blue;fill:blue;" id="1865" x2="780.00" x1="780.00" y1="300.00" y2="350.00" /><line style="stroke:blue;fill:blue;" id="1866" x2="850.00" x1="780.00" y1="300.00" y2="280.00" /><line style="stroke:blue;fill:blue;" id="1867" x2="780.00" x1="780.00" y1="350.00" y2="300.00" /><line style="stroke:blue;fill:blue;" id="1868" x2="780.00" x1="780.00" y1="350.00" y2="400.00" /><line style="stroke:blue;fill:blue;" id="1869" x2="780.00" x1="780.00" y1="400.00" y2="350.00" /><line style="stroke:blue;fill:blue;" id="1870" x2="730.00" x1="780.00" y1="400.00" y2="490.00" /><line style="stroke:blue;fill:blue;" id="1871" x2="775.50" x1="824.50" y1="100.00" y2="100.00" /><line style="stroke:blue;fill:blue;" id="1872" x2="820.00" x1="824.50" y1="100.00" y2="50.00" /><line style="stroke:blue;fill:blue;" id="1873" x2="780.00" x1="850.00" y1="280.00" y2="300.00" /><line style="stroke:blue;fill:blue;" id="1874" x2="780.00" x1="850.00" y1="280.00" y2="250.00" /><line style="stroke:blue;fill:blue;" id="1875" x2="780.00" x1="850.00" y1="150.00" y2="150.00" /><line style="stroke:blue;fill:blue;" id="1876" x2="920.00" x1="850.00" y1="150.00" y2="150.00" /><line style="stroke:blue;fill:blue;" id="1877" x2="850.00" x1="920.00" y1="150.00" y2="150.00" /><line style="stroke:blue;fill:blue;" id="1878" x2="920.00" x1="920.00" y1="150.00" y2="200.00" /><line style="stroke:blue;fill:blue;" id="1879" x2="150.00" x1="80.00" y1="80.00" y2="150.00" /><line style="stroke:blue;fill:blue;" id="1880" x2="160.00" x1="110.00" y1="720.00" y2="670.00" /><line style="stroke:blue;fill:blue;" id="1881" x2="350.00" x1="280.00" y1="20.00" y2="50.00" /><line style="stroke:blue;fill:blue;" id="1882" x2="290.00" x1="460.00" y1="560.00" y2="520.00" /><line style="stroke:blue;fill:blue;" id="1883" x2="530.00" x1="460.00" y1="560.00" y2="560.00" /><line style="stroke:blue;fill:blue;" id="1884" x2="450.00" x1="450.00" y1="100.00" y2="50.00" /><line style="stroke:blue;fill:blue;" id="1885" x2="660.00" x1="530.00" y1="560.00" y2="560.00" /><line style="stroke:blue;fill:blue;" id="1886" x2="460.00" x1="530.00" y1="560.00" y2="560.00" /><line style="stroke:blue;fill:blue;" id="1887" x2="450.00" x1="500.00" y1="50.00" y2="50.00" /><line style="stroke:blue;fill:blue;" id="1888" x2="582.32" x1="500.00" y1="50.00" y2="47.68" /><line style="stroke:blue;fill:blue;" id="1889" x2="582.32" x1="547.68" y1="82.32" y2="47.68" /><line style="stroke:blue;fill:blue;" id="1890" x2="617.68" x1="547.68" y1="82.32" y2="82.32" /><line style="stroke:blue;fill:blue;" id="1891" x2="582.32" x1="617.68" y1="82.32" y2="47.68" /><line style="stroke:blue;fill:blue;" id="1892" x2="547.68" x1="617.68" y1="82.32" y2="82.32" /><line style="stroke:blue;fill:blue;" id="1893" x2="652.32" x1="720.00" y1="20.00" y2="47.68" /><line style="stroke:blue;fill:blue;" id="1894" x2="780.00" x1="880.00" y1="660.00" y2="610.00" /><line style="stroke:blue;fill:blue;" id="1895" x2="824.50" x1="820.00" y1="50.00" y2="100.00" /><line style="stroke:blue;fill:blue;" id="1896" x2="920.00" x1="920.00" y1="200.00" y2="150.00" /></svg>
