<?xml version="1.0" standalone="yes"?><!DOCTYPE svg PUBLIC "-//W3C//DTD SVG 1.1//EN" "http://www.w3.org/Graphics/SVG/1.1/DTD/svg11.dtd"[]><svg width="1050.00" height="800.00" id="9677" xmlns="http://www.w3.org/2000/svg" xmlns:xlink="http://www.w3.org/1999/xlink"><rect Type="system" x="50.00" id="9678" height="5.00" width="5.00" Name="安加塔列" ID="30003062" Region="埃维希尔" y="550.00" /><text y="550.00" x="50.00" id="9679">安加塔列</text><rect Type="system" x="50.00" id="9681" height="5.00" width="5.00" Name="爱多陶克斯" ID="30003055" Region="埃维希尔" y="100.00" /><text y="100.00" x="50.00" id="9682">爱多陶克斯</text><rect Type="system" x="100.00" id="9684" height="5.00" width="5.00" Name="马纳尔" ID="30003060" Region="埃维希尔" y="600.00" /><text y="600.00" x="100.00" id="9685">马纳尔</text><rect Type="system" x="100.00" id="9687" height="5.00" width="5.00" Name="毛尔梅罗特" ID="30003061" Region="埃维希尔" y="550.00" /><text y="550.00" x="100.00" id="9688">毛尔梅罗特</text><rect Type="system" x="100.00" id="9690" height="5.00" width="5.00" Name="埃德尔" ID="30003059" Region="埃维希尔" y="650.00" /><text y="650.00" x="100.00" id="9691">埃德尔</text><rect Type="system" x="120.00" id="9693" height="5.00" width="5.00" Name="爵尔勒瑟" ID="30003013" Region="埃维希尔" y="350.00" /><text y="350.00" x="120.00" id="9694">爵尔勒瑟</text><rect Type="system" x="120.00" id="9696" height="5.00" width="5.00" Name="托尔勒" ID="30003052" Region="埃维希尔" y="100.00" /><text y="100.00" x="120.00" id="9697">托尔勒</text><rect Type="system" x="150.00" id="9699" height="5.00" width="5.00" Name="欧里德" ID="30003058" Region="埃维希尔" y="620.00" /><text y="620.00" x="150.00" id="9700">欧里德</text><rect Type="system" x="180.00" id="9702" height="5.00" width="5.00" Name="艾瑟" ID="30003015" Region="埃维希尔" y="300.00" /><text y="300.00" x="180.00" id="9703">艾瑟</text><rect Type="system" x="200.00" id="9705" height="5.00" width="5.00" Name="爱马特恩" ID="30003012" Region="埃维希尔" y="420.00" /><text y="420.00" x="200.00" id="9706">爱马特恩</text><rect Type="system" x="200.00" id="9708" height="5.00" width="5.00" Name="卡利庸汀" ID="30003048" Region="埃维希尔" y="100.00" /><text y="100.00" x="200.00" id="9709">卡利庸汀</text><rect Type="system" x="200.00" id="9711" height="5.00" width="5.00" Name="彻拉金斯" ID="30003054" Region="埃维希尔" y="180.00" /><text y="180.00" x="200.00" id="9712">彻拉金斯</text><rect Type="system" x="220.00" id="9714" height="5.00" width="5.00" Name="格鲁提西斯" ID="30003057" Region="埃维希尔" y="650.00" /><text y="650.00" x="220.00" id="9715">格鲁提西斯</text><rect Type="system" x="220.00" id="9717" height="5.00" width="5.00" Name="郡索尔特" ID="30003016" Region="埃维希尔" y="350.00" /><text y="350.00" x="220.00" id="9718">郡索尔特</text><rect Type="system" x="280.00" id="9720" height="5.00" width="5.00" Name="姆尔" ID="30003056" Region="埃维希尔" y="50.00" /><text y="50.00" x="280.00" id="9721">姆尔</text><rect Type="system" x="300.00" id="9723" height="5.00" width="5.00" Name="奥迪科希尔" ID="30003050" Region="埃维希尔" y="100.00" /><text y="100.00" x="300.00" id="9724">奥迪科希尔</text><rect Type="system" x="300.00" id="9726" height="5.00" width="5.00" Name="亚维伦" ID="30003047" Region="埃维希尔" y="175.50" /><text y="175.50" x="300.00" id="9727">亚维伦</text><rect Type="system" x="300.00" id="9729" height="5.00" width="5.00" Name="爱马特利" ID="30003009" Region="埃维希尔" y="300.00" /><text y="300.00" x="300.00" id="9730">爱马特利</text><rect Type="system" x="300.00" id="9732" height="5.00" width="5.00" Name="尤费勒" ID="30003043" Region="埃维希尔" y="520.00" /><text y="520.00" x="300.00" id="9733">尤费勒</text><rect Type="system" x="300.00" id="9735" height="5.00" width="5.00" Name="贝勒耶" ID="30003014" Region="埃维希尔" y="400.00" /><text y="400.00" x="300.00" id="9736">贝勒耶</text><rect Type="system" x="300.00" id="9738" height="5.00" width="5.00" Name="厄勒多尔" ID="30003045" Region="埃维希尔" y="224.50" /><text y="224.50" x="300.00" id="9739">厄勒多尔</text><rect Type="system" x="299.04" id="9741" height="5.00" width="5.00" Name="厄尔瑞" ID="30003044" Region="埃维希尔" y="621.91" /><text y="621.91" x="299.04" id="9742">厄尔瑞</text><rect Type="system" x="320.96" id="9744" height="5.00" width="5.00" Name="拜勒" ID="30003040" Region="埃维希尔" y="578.09" /><text y="578.09" x="320.96" id="9745">拜勒</text><rect Type="system" x="350.00" id="9747" height="5.00" width="5.00" Name="莫尔蒙" ID="30003011" Region="埃维希尔" y="280.00" /><text y="280.00" x="350.00" id="9748">莫尔蒙</text><rect Type="system" x="350.00" id="9750" height="5.00" width="5.00" Name="哈尔勒" ID="30003010" Region="埃维希尔" y="350.00" /><text y="350.00" x="350.00" id="9751">哈尔勒</text><rect Type="system" x="379.04" id="9753" height="5.00" width="5.00" Name="莱茨" ID="30003049" Region="埃维希尔" y="221.91" /><text y="221.91" x="379.04" id="9754">莱茨</text><rect Type="system" x="400.96" id="9756" height="5.00" width="5.00" Name="安托拉热" ID="30003051" Region="埃维希尔" y="178.09" /><text y="178.09" x="400.96" id="9757">安托拉热</text><rect Type="system" x="420.00" id="9759" height="5.00" width="5.00" Name="里瑞布洛佩斯" ID="30003039" Region="埃维希尔" y="500.00" /><text y="500.00" x="420.00" id="9760">里瑞布洛佩斯</text><rect Type="system" x="420.00" id="9762" height="5.00" width="5.00" Name="爱拉彻里" ID="30003042" Region="埃维希尔" y="550.00" /><text y="550.00" x="420.00" id="9763">爱拉彻里</text><rect Type="system" x="450.00" id="9765" height="5.00" width="5.00" Name="亚维尔" ID="30003053" Region="埃维希尔" y="220.00" /><text y="220.00" x="450.00" id="9766">亚维尔</text><rect Type="system" x="500.00" id="9768" height="5.00" width="5.00" Name="考茨尔" ID="30003041" Region="埃维希尔" y="450.00" /><text y="450.00" x="500.00" id="9769">考茨尔</text><rect Type="system" x="500.00" id="9771" height="5.00" width="5.00" Name="艾塔尼丝" ID="30003038" Region="埃维希尔" y="620.00" /><text y="620.00" x="500.00" id="9772">艾塔尼丝</text><rect Type="system" x="550.00" id="9774" height="5.00" width="5.00" Name="麦亚" ID="30003022" Region="埃维希尔" y="320.00" /><text y="320.00" x="550.00" id="9775">麦亚</text><rect Type="system" x="550.00" id="9777" height="5.00" width="5.00" Name="基尔佩尔" ID="30003023" Region="埃维希尔" y="250.00" /><text y="250.00" x="550.00" id="9778">基尔佩尔</text><rect Type="system" x="579.04" id="9780" height="5.00" width="5.00" Name="托维" ID="30003020" Region="埃维希尔" y="378.09" /><text y="378.09" x="579.04" id="9781">托维</text><rect Type="system" x="600.96" id="9783" height="5.00" width="5.00" Name="埃泽尔" ID="30003018" Region="埃维希尔" y="421.91" /><text y="421.91" x="600.96" id="9784">埃泽尔</text><rect Type="system" x="620.00" id="9786" height="5.00" width="5.00" Name="漠森" ID="30003021" Region="埃维希尔" y="480.00" /><text y="480.00" x="620.00" id="9787">漠森</text><rect Type="system" x="650.00" id="9789" height="5.00" width="5.00" Name="瓦乌尔特" ID="30003027" Region="埃维希尔" y="600.00" /><text y="600.00" x="650.00" id="9790">瓦乌尔特</text><rect Type="system" x="650.00" id="9792" height="5.00" width="5.00" Name="库伊尔" ID="30003037" Region="埃维希尔" y="80.00" /><text y="80.00" x="650.00" id="9793">库伊尔</text><rect Type="system" x="650.00" id="9795" height="5.00" width="5.00" Name="哈瑞格特" ID="30003017" Region="埃维希尔" y="350.00" /><text y="350.00" x="650.00" id="9796">哈瑞格特</text><rect Type="system" x="680.00" id="9798" height="5.00" width="5.00" Name="彻尔勒" ID="30003019" Region="埃维希尔" y="450.00" /><text y="450.00" x="680.00" id="9799">彻尔勒</text><rect Type="system" x="700.00" id="9801" height="5.00" width="5.00" Name="加舒尔茨" ID="30003029" Region="埃维希尔" y="550.00" /><text y="550.00" x="700.00" id="9802">加舒尔茨</text><rect Type="system" x="730.00" id="9804" height="5.00" width="5.00" Name="马洛希尔" ID="30003024" Region="埃维希尔" y="630.00" /><text y="630.00" x="730.00" id="9805">马洛希尔</text><rect Type="system" x="760.00" id="9807" height="5.00" width="5.00" Name="阿克兰" ID="30003028" Region="埃维希尔" y="570.00" /><text y="570.00" x="760.00" id="9808">阿克兰</text><rect Type="system" x="750.00" id="9810" height="5.00" width="5.00" Name="弗拉洛勒" ID="30003036" Region="埃维希尔" y="120.00" /><text y="120.00" x="750.00" id="9811">弗拉洛勒</text><rect Type="system" x="809.06" id="9813" height="5.00" width="5.00" Name="挨达拉拜尔" ID="30003030" Region="埃维希尔" y="676.23" /><text y="676.23" x="809.06" id="9814">挨达拉拜尔</text><rect Type="system" x="800.00" id="9816" height="5.00" width="5.00" Name="勒萨乌敦" ID="30003025" Region="埃维希尔" y="600.00" /><text y="600.00" x="800.00" id="9817">勒萨乌敦</text><rect Type="system" x="800.00" id="9819" height="5.00" width="5.00" Name="基科德" ID="30003035" Region="埃维希尔" y="180.00" /><text y="180.00" x="800.00" id="9820">基科德</text><rect Type="system" x="800.00" id="9822" height="5.00" width="5.00" Name="伊特尔尼迪" ID="30003033" Region="埃维希尔" y="250.00" /><text y="250.00" x="800.00" id="9823">伊特尔尼迪</text><rect Type="system" x="850.00" id="9825" height="5.00" width="5.00" Name="梅温斯" ID="30003032" Region="埃维希尔" y="300.00" /><text y="300.00" x="850.00" id="9826">梅温斯</text><rect Type="system" x="880.00" id="9828" height="5.00" width="5.00" Name="布拉梅斯顿" ID="30003026" Region="埃维希尔" y="520.00" /><text y="520.00" x="880.00" id="9829">布拉梅斯顿</text><rect Type="system" x="900.00" id="9831" height="5.00" width="5.00" Name="玛提瑞" ID="30003034" Region="埃维希尔" y="220.00" /><text y="220.00" x="900.00" id="9832">玛提瑞</text><rect Type="system" x="920.00" id="9834" height="5.00" width="5.00" Name="埃提纳的" ID="30003031" Region="埃维希尔" y="280.00" /><text y="280.00" x="920.00" id="9835">埃提纳的</text><rect Type="system" x="20.00" id="9837" height="5.00" width="5.00" Name="里尔米勒维" ID="30002728" Region="金纳泽" y="500.00" /><text y="500.00" x="20.00" id="9838">里尔米勒维</text><rect Type="system" x="50.00" id="9840" height="5.00" width="5.00" Name="吉尼-法" ID="30005288" Region="吉勒西斯" y="50.00" /><text y="50.00" x="50.00" id="9841">吉尼-法</text><rect Type="system" x="100.00" id="9843" height="5.00" width="5.00" Name="舒拉撒拿" ID="30002654" Region="金纳泽" y="500.00" /><text y="500.00" x="100.00" id="9844">舒拉撒拿</text><rect Type="system" x="100.00" id="9846" height="5.00" width="5.00" Name="马纳克" ID="30005201" Region="吉勒西斯" y="50.00" /><text y="50.00" x="100.00" id="9847">马纳克</text><rect Type="system" x="380.00" id="9849" height="5.00" width="5.00" Name="米尔斯" ID="30004968" Region="精华之域" y="400.00" /><text y="400.00" x="380.00" id="9850">米尔斯</text><rect Type="system" x="720.00" id="9852" height="5.00" width="5.00" Name="布拉佩列" ID="30002699" Region="金纳泽" y="730.00" /><text y="730.00" x="720.00" id="9853">布拉佩列</text><rect Type="system" x="650.00" id="9855" height="5.00" width="5.00" Name="克莱辛" ID="30002708" Region="金纳泽" y="280.00" /><text y="280.00" x="650.00" id="9856">克莱辛</text><rect Type="system" x="820.94" id="9858" height="5.00" width="5.00" Name="杰尔" ID="30002692" Region="金纳泽" y="723.77" /><text y="723.77" x="820.94" id="9859">杰尔</text><rect Type="system" x="750.00" id="9861" height="5.00" width="5.00" Name="普林" ID="30002662" Region="金纳泽" y="500.00" /><text y="500.00" x="750.00" id="9862">普林</text><rect Type="system" x="750.00" id="9864" height="5.00" width="5.00" Name="博因列斯" ID="30002715" Region="金纳泽" y="220.00" /><text y="220.00" x="750.00" id="9865">博因列斯</text><rect Type="system" x="910.00" id="9867" height="5.00" width="5.00" Name="阿尔蒂尼" ID="30002648" Region="金纳泽" y="690.00" /><text y="690.00" x="910.00" id="9868">阿尔蒂尼</text><rect Type="system" x="900.00" id="9870" height="5.00" width="5.00" Name="维拉德" ID="30002655" Region="金纳泽" y="450.00" /><text y="450.00" x="900.00" id="9871">维拉德</text><rect Type="system" x="920.00" id="9873" height="5.00" width="5.00" Name="埃卓蓝德" ID="30002639" Region="金纳泽" y="150.00" /><text y="150.00" x="920.00" id="9874">埃卓蓝德</text><rect Type="system" x="920.00" id="9876" height="5.00" width="5.00" Name="多迪谢" ID="30002659" Region="金纳泽" y="350.00" /><text y="350.00" x="920.00" id="9877">多迪谢</text><rect Type="system" x="1000.00" id="9879" height="5.00" width="5.00" Name="多苏维特" ID="30002706" Region="金纳泽" y="200.00" /><text y="200.00" x="1000.00" id="9880">多苏维特</text><line style="stroke:blue;fill:blue;" id="9882" x2="20.00" x1="50.00" y1="550.00" y2="500.00" /><line style="stroke:blue;fill:blue;" id="9883" x2="100.00" x1="50.00" y1="550.00" y2="600.00" /><line style="stroke:blue;fill:blue;" id="9884" x2="120.00" x1="50.00" y1="100.00" y2="100.00" /><line style="stroke:blue;fill:blue;" id="9885" x2="50.00" x1="50.00" y1="100.00" y2="50.00" /><line style="stroke:blue;fill:blue;" id="9886" x2="150.00" x1="100.00" y1="600.00" y2="620.00" /><line style="stroke:blue;fill:blue;" id="9887" x2="100.00" x1="100.00" y1="600.00" y2="550.00" /><line style="stroke:blue;fill:blue;" id="9888" x2="50.00" x1="100.00" y1="600.00" y2="550.00" /><line style="stroke:blue;fill:blue;" id="9889" x2="100.00" x1="100.00" y1="550.00" y2="500.00" /><line style="stroke:blue;fill:blue;" id="9890" x2="100.00" x1="100.00" y1="550.00" y2="600.00" /><line style="stroke:blue;fill:blue;" id="9891" x2="150.00" x1="100.00" y1="650.00" y2="620.00" /><line style="stroke:blue;fill:blue;" id="9892" x2="300.00" x1="120.00" y1="350.00" y2="300.00" /><line style="stroke:blue;fill:blue;" id="9893" x2="200.00" x1="120.00" y1="350.00" y2="420.00" /><line style="stroke:blue;fill:blue;" id="9894" x2="300.00" x1="120.00" y1="350.00" y2="400.00" /><line style="stroke:blue;fill:blue;" id="9895" x2="180.00" x1="120.00" y1="350.00" y2="300.00" /><line style="stroke:blue;fill:blue;" id="9896" x2="220.00" x1="120.00" y1="350.00" y2="350.00" /><line style="stroke:blue;fill:blue;" id="9897" x2="200.00" x1="120.00" y1="100.00" y2="100.00" /><line style="stroke:blue;fill:blue;" id="9898" x2="50.00" x1="120.00" y1="100.00" y2="100.00" /><line style="stroke:blue;fill:blue;" id="9899" x2="100.00" x1="120.00" y1="100.00" y2="50.00" /><line style="stroke:blue;fill:blue;" id="9900" x2="220.00" x1="150.00" y1="620.00" y2="650.00" /><line style="stroke:blue;fill:blue;" id="9901" x2="100.00" x1="150.00" y1="620.00" y2="650.00" /><line style="stroke:blue;fill:blue;" id="9902" x2="100.00" x1="150.00" y1="620.00" y2="600.00" /><line style="stroke:blue;fill:blue;" id="9903" x2="200.00" x1="180.00" y1="300.00" y2="420.00" /><line style="stroke:blue;fill:blue;" id="9904" x2="120.00" x1="180.00" y1="300.00" y2="350.00" /><line style="stroke:blue;fill:blue;" id="9905" x2="300.00" x1="180.00" y1="300.00" y2="400.00" /><line style="stroke:blue;fill:blue;" id="9906" x2="300.00" x1="180.00" y1="300.00" y2="224.50" /><line style="stroke:blue;fill:blue;" id="9907" x2="300.00" x1="200.00" y1="420.00" y2="300.00" /><line style="stroke:blue;fill:blue;" id="9908" x2="120.00" x1="200.00" y1="420.00" y2="350.00" /><line style="stroke:blue;fill:blue;" id="9909" x2="300.00" x1="200.00" y1="420.00" y2="400.00" /><line style="stroke:blue;fill:blue;" id="9910" x2="180.00" x1="200.00" y1="420.00" y2="300.00" /><line style="stroke:blue;fill:blue;" id="9911" x2="220.00" x1="200.00" y1="420.00" y2="350.00" /><line style="stroke:blue;fill:blue;" id="9912" x2="300.00" x1="200.00" y1="420.00" y2="520.00" /><line style="stroke:blue;fill:blue;" id="9913" x2="300.00" x1="200.00" y1="100.00" y2="175.50" /><line style="stroke:blue;fill:blue;" id="9914" x2="300.00" x1="200.00" y1="100.00" y2="100.00" /><line style="stroke:blue;fill:blue;" id="9915" x2="120.00" x1="200.00" y1="100.00" y2="100.00" /><line style="stroke:blue;fill:blue;" id="9916" x2="200.00" x1="200.00" y1="100.00" y2="180.00" /><line style="stroke:blue;fill:blue;" id="9917" x2="300.00" x1="200.00" y1="180.00" y2="224.50" /><line style="stroke:blue;fill:blue;" id="9918" x2="300.00" x1="200.00" y1="180.00" y2="175.50" /><line style="stroke:blue;fill:blue;" id="9919" x2="200.00" x1="200.00" y1="180.00" y2="100.00" /><line style="stroke:blue;fill:blue;" id="9920" x2="300.00" x1="200.00" y1="180.00" y2="100.00" /><line style="stroke:blue;fill:blue;" id="9921" x2="280.00" x1="200.00" y1="180.00" y2="50.00" /><line style="stroke:blue;fill:blue;" id="9922" x2="299.04" x1="220.00" y1="650.00" y2="621.91" /><line style="stroke:blue;fill:blue;" id="9923" x2="150.00" x1="220.00" y1="650.00" y2="620.00" /><line style="stroke:blue;fill:blue;" id="9924" x2="300.00" x1="220.00" y1="350.00" y2="300.00" /><line style="stroke:blue;fill:blue;" id="9925" x2="200.00" x1="220.00" y1="350.00" y2="420.00" /><line style="stroke:blue;fill:blue;" id="9926" x2="120.00" x1="220.00" y1="350.00" y2="350.00" /><line style="stroke:blue;fill:blue;" id="9927" x2="300.00" x1="280.00" y1="50.00" y2="100.00" /><line style="stroke:blue;fill:blue;" id="9928" x2="200.00" x1="280.00" y1="50.00" y2="180.00" /><line style="stroke:blue;fill:blue;" id="9929" x2="300.00" x1="300.00" y1="100.00" y2="175.50" /><line style="stroke:blue;fill:blue;" id="9930" x2="200.00" x1="300.00" y1="100.00" y2="100.00" /><line style="stroke:blue;fill:blue;" id="9931" x2="200.00" x1="300.00" y1="100.00" y2="180.00" /><line style="stroke:blue;fill:blue;" id="9932" x2="280.00" x1="300.00" y1="100.00" y2="50.00" /><line style="stroke:blue;fill:blue;" id="9933" x2="300.00" x1="300.00" y1="175.50" y2="224.50" /><line style="stroke:blue;fill:blue;" id="9934" x2="200.00" x1="300.00" y1="175.50" y2="100.00" /><line style="stroke:blue;fill:blue;" id="9935" x2="300.00" x1="300.00" y1="175.50" y2="100.00" /><line style="stroke:blue;fill:blue;" id="9936" x2="200.00" x1="300.00" y1="175.50" y2="180.00" /><line style="stroke:blue;fill:blue;" id="9937" x2="350.00" x1="300.00" y1="300.00" y2="350.00" /><line style="stroke:blue;fill:blue;" id="9938" x2="350.00" x1="300.00" y1="300.00" y2="280.00" /><line style="stroke:blue;fill:blue;" id="9939" x2="200.00" x1="300.00" y1="300.00" y2="420.00" /><line style="stroke:blue;fill:blue;" id="9940" x2="120.00" x1="300.00" y1="300.00" y2="350.00" /><line style="stroke:blue;fill:blue;" id="9941" x2="300.00" x1="300.00" y1="300.00" y2="400.00" /><line style="stroke:blue;fill:blue;" id="9942" x2="220.00" x1="300.00" y1="300.00" y2="350.00" /><line style="stroke:blue;fill:blue;" id="9943" x2="200.00" x1="300.00" y1="520.00" y2="420.00" /><line style="stroke:blue;fill:blue;" id="9944" x2="420.00" x1="300.00" y1="520.00" y2="500.00" /><line style="stroke:blue;fill:blue;" id="9945" x2="320.96" x1="300.00" y1="520.00" y2="578.09" /><line style="stroke:blue;fill:blue;" id="9946" x2="420.00" x1="300.00" y1="520.00" y2="550.00" /><line style="stroke:blue;fill:blue;" id="9947" x2="300.00" x1="300.00" y1="400.00" y2="300.00" /><line style="stroke:blue;fill:blue;" id="9948" x2="350.00" x1="300.00" y1="400.00" y2="350.00" /><line style="stroke:blue;fill:blue;" id="9949" x2="200.00" x1="300.00" y1="400.00" y2="420.00" /><line style="stroke:blue;fill:blue;" id="9950" x2="120.00" x1="300.00" y1="400.00" y2="350.00" /><line style="stroke:blue;fill:blue;" id="9951" x2="180.00" x1="300.00" y1="400.00" y2="300.00" /><line style="stroke:blue;fill:blue;" id="9952" x2="420.00" x1="300.00" y1="400.00" y2="500.00" /><line style="stroke:blue;fill:blue;" id="9953" x2="380.00" x1="300.00" y1="400.00" y2="400.00" /><line style="stroke:blue;fill:blue;" id="9954" x2="180.00" x1="300.00" y1="224.50" y2="300.00" /><line style="stroke:blue;fill:blue;" id="9955" x2="300.00" x1="300.00" y1="224.50" y2="175.50" /><line style="stroke:blue;fill:blue;" id="9956" x2="379.04" x1="300.00" y1="224.50" y2="221.91" /><line style="stroke:blue;fill:blue;" id="9957" x2="400.96" x1="300.00" y1="224.50" y2="178.09" /><line style="stroke:blue;fill:blue;" id="9958" x2="200.00" x1="300.00" y1="224.50" y2="180.00" /><line style="stroke:blue;fill:blue;" id="9959" x2="500.00" x1="299.04" y1="621.91" y2="620.00" /><line style="stroke:blue;fill:blue;" id="9960" x2="320.96" x1="299.04" y1="621.91" y2="578.09" /><line style="stroke:blue;fill:blue;" id="9961" x2="220.00" x1="299.04" y1="621.91" y2="650.00" /><line style="stroke:blue;fill:blue;" id="9962" x2="500.00" x1="320.96" y1="578.09" y2="620.00" /><line style="stroke:blue;fill:blue;" id="9963" x2="420.00" x1="320.96" y1="578.09" y2="500.00" /><line style="stroke:blue;fill:blue;" id="9964" x2="300.00" x1="320.96" y1="578.09" y2="520.00" /><line style="stroke:blue;fill:blue;" id="9965" x2="299.04" x1="320.96" y1="578.09" y2="621.91" /><line style="stroke:blue;fill:blue;" id="9966" x2="300.00" x1="350.00" y1="280.00" y2="300.00" /><line style="stroke:blue;fill:blue;" id="9967" x2="350.00" x1="350.00" y1="280.00" y2="350.00" /><line style="stroke:blue;fill:blue;" id="9968" x2="300.00" x1="350.00" y1="350.00" y2="300.00" /><line style="stroke:blue;fill:blue;" id="9969" x2="350.00" x1="350.00" y1="350.00" y2="280.00" /><line style="stroke:blue;fill:blue;" id="9970" x2="300.00" x1="350.00" y1="350.00" y2="400.00" /><line style="stroke:blue;fill:blue;" id="9971" x2="300.00" x1="379.04" y1="221.91" y2="224.50" /><line style="stroke:blue;fill:blue;" id="9972" x2="400.96" x1="379.04" y1="221.91" y2="178.09" /><line style="stroke:blue;fill:blue;" id="9973" x2="300.00" x1="400.96" y1="178.09" y2="224.50" /><line style="stroke:blue;fill:blue;" id="9974" x2="379.04" x1="400.96" y1="178.09" y2="221.91" /><line style="stroke:blue;fill:blue;" id="9975" x2="450.00" x1="400.96" y1="178.09" y2="220.00" /><line style="stroke:blue;fill:blue;" id="9976" x2="300.00" x1="420.00" y1="500.00" y2="400.00" /><line style="stroke:blue;fill:blue;" id="9977" x2="500.00" x1="420.00" y1="500.00" y2="620.00" /><line style="stroke:blue;fill:blue;" id="9978" x2="320.96" x1="420.00" y1="500.00" y2="578.09" /><line style="stroke:blue;fill:blue;" id="9979" x2="500.00" x1="420.00" y1="500.00" y2="450.00" /><line style="stroke:blue;fill:blue;" id="9980" x2="300.00" x1="420.00" y1="500.00" y2="520.00" /><line style="stroke:blue;fill:blue;" id="9981" x2="450.00" x1="420.00" y1="500.00" y2="220.00" /><line style="stroke:blue;fill:blue;" id="9982" x2="500.00" x1="420.00" y1="550.00" y2="620.00" /><line style="stroke:blue;fill:blue;" id="9983" x2="300.00" x1="420.00" y1="550.00" y2="520.00" /><line style="stroke:blue;fill:blue;" id="9984" x2="420.00" x1="450.00" y1="220.00" y2="500.00" /><line style="stroke:blue;fill:blue;" id="9985" x2="400.96" x1="450.00" y1="220.00" y2="178.09" /><line style="stroke:blue;fill:blue;" id="9986" x2="420.00" x1="500.00" y1="450.00" y2="500.00" /><line style="stroke:blue;fill:blue;" id="9987" x2="600.96" x1="500.00" y1="620.00" y2="421.91" /><line style="stroke:blue;fill:blue;" id="9988" x2="650.00" x1="500.00" y1="620.00" y2="600.00" /><line style="stroke:blue;fill:blue;" id="9989" x2="420.00" x1="500.00" y1="620.00" y2="500.00" /><line style="stroke:blue;fill:blue;" id="9990" x2="320.96" x1="500.00" y1="620.00" y2="578.09" /><line style="stroke:blue;fill:blue;" id="9991" x2="420.00" x1="500.00" y1="620.00" y2="550.00" /><line style="stroke:blue;fill:blue;" id="9992" x2="299.04" x1="500.00" y1="620.00" y2="621.91" /><line style="stroke:blue;fill:blue;" id="9993" x2="579.04" x1="550.00" y1="320.00" y2="378.09" /><line style="stroke:blue;fill:blue;" id="9994" x2="550.00" x1="550.00" y1="320.00" y2="250.00" /><line style="stroke:blue;fill:blue;" id="9995" x2="550.00" x1="550.00" y1="250.00" y2="320.00" /><line style="stroke:blue;fill:blue;" id="9996" x2="600.96" x1="579.04" y1="378.09" y2="421.91" /><line style="stroke:blue;fill:blue;" id="9997" x2="550.00" x1="579.04" y1="378.09" y2="320.00" /><line style="stroke:blue;fill:blue;" id="9998" x2="650.00" x1="600.96" y1="421.91" y2="350.00" /><line style="stroke:blue;fill:blue;" id="9999" x2="680.00" x1="600.96" y1="421.91" y2="450.00" /><line style="stroke:blue;fill:blue;" id="10000" x2="579.04" x1="600.96" y1="421.91" y2="378.09" /><line style="stroke:blue;fill:blue;" id="10001" x2="620.00" x1="600.96" y1="421.91" y2="480.00" /><line style="stroke:blue;fill:blue;" id="10002" x2="500.00" x1="600.96" y1="421.91" y2="620.00" /><line style="stroke:blue;fill:blue;" id="10003" x2="600.96" x1="620.00" y1="480.00" y2="421.91" /><line style="stroke:blue;fill:blue;" id="10004" x2="680.00" x1="620.00" y1="480.00" y2="450.00" /><line style="stroke:blue;fill:blue;" id="10005" x2="650.00" x1="620.00" y1="480.00" y2="600.00" /><line style="stroke:blue;fill:blue;" id="10006" x2="620.00" x1="650.00" y1="600.00" y2="480.00" /><line style="stroke:blue;fill:blue;" id="10007" x2="730.00" x1="650.00" y1="600.00" y2="630.00" /><line style="stroke:blue;fill:blue;" id="10008" x2="700.00" x1="650.00" y1="600.00" y2="550.00" /><line style="stroke:blue;fill:blue;" id="10009" x2="500.00" x1="650.00" y1="600.00" y2="620.00" /><line style="stroke:blue;fill:blue;" id="10010" x2="750.00" x1="650.00" y1="80.00" y2="120.00" /><line style="stroke:blue;fill:blue;" id="10011" x2="650.00" x1="650.00" y1="350.00" y2="280.00" /><line style="stroke:blue;fill:blue;" id="10012" x2="600.96" x1="650.00" y1="350.00" y2="421.91" /><line style="stroke:blue;fill:blue;" id="10013" x2="680.00" x1="650.00" y1="350.00" y2="450.00" /><line style="stroke:blue;fill:blue;" id="10014" x2="800.00" x1="650.00" y1="350.00" y2="250.00" /><line style="stroke:blue;fill:blue;" id="10015" x2="650.00" x1="680.00" y1="450.00" y2="350.00" /><line style="stroke:blue;fill:blue;" id="10016" x2="600.96" x1="680.00" y1="450.00" y2="421.91" /><line style="stroke:blue;fill:blue;" id="10017" x2="620.00" x1="680.00" y1="450.00" y2="480.00" /><line style="stroke:blue;fill:blue;" id="10018" x2="700.00" x1="680.00" y1="450.00" y2="550.00" /><line style="stroke:blue;fill:blue;" id="10019" x2="750.00" x1="700.00" y1="550.00" y2="500.00" /><line style="stroke:blue;fill:blue;" id="10020" x2="680.00" x1="700.00" y1="550.00" y2="450.00" /><line style="stroke:blue;fill:blue;" id="10021" x2="730.00" x1="700.00" y1="550.00" y2="630.00" /><line style="stroke:blue;fill:blue;" id="10022" x2="650.00" x1="700.00" y1="550.00" y2="600.00" /><line style="stroke:blue;fill:blue;" id="10023" x2="760.00" x1="700.00" y1="550.00" y2="570.00" /><line style="stroke:blue;fill:blue;" id="10024" x2="800.00" x1="730.00" y1="630.00" y2="600.00" /><line style="stroke:blue;fill:blue;" id="10025" x2="650.00" x1="730.00" y1="630.00" y2="600.00" /><line style="stroke:blue;fill:blue;" id="10026" x2="700.00" x1="730.00" y1="630.00" y2="550.00" /><line style="stroke:blue;fill:blue;" id="10027" x2="700.00" x1="760.00" y1="570.00" y2="550.00" /><line style="stroke:blue;fill:blue;" id="10028" x2="800.00" x1="750.00" y1="120.00" y2="180.00" /><line style="stroke:blue;fill:blue;" id="10029" x2="650.00" x1="750.00" y1="120.00" y2="80.00" /><line style="stroke:blue;fill:blue;" id="10030" x2="910.00" x1="809.06" y1="676.23" y2="690.00" /><line style="stroke:blue;fill:blue;" id="10031" x2="820.94" x1="809.06" y1="676.23" y2="723.77" /><line style="stroke:blue;fill:blue;" id="10032" x2="720.00" x1="809.06" y1="676.23" y2="730.00" /><line style="stroke:blue;fill:blue;" id="10033" x2="800.00" x1="809.06" y1="676.23" y2="600.00" /><line style="stroke:blue;fill:blue;" id="10034" x2="730.00" x1="800.00" y1="600.00" y2="630.00" /><line style="stroke:blue;fill:blue;" id="10035" x2="880.00" x1="800.00" y1="600.00" y2="520.00" /><line style="stroke:blue;fill:blue;" id="10036" x2="809.06" x1="800.00" y1="600.00" y2="676.23" /><line style="stroke:blue;fill:blue;" id="10037" x2="850.00" x1="800.00" y1="600.00" y2="300.00" /><line style="stroke:blue;fill:blue;" id="10038" x2="800.00" x1="800.00" y1="180.00" y2="250.00" /><line style="stroke:blue;fill:blue;" id="10039" x2="900.00" x1="800.00" y1="180.00" y2="220.00" /><line style="stroke:blue;fill:blue;" id="10040" x2="750.00" x1="800.00" y1="180.00" y2="120.00" /><line style="stroke:blue;fill:blue;" id="10041" x2="750.00" x1="800.00" y1="250.00" y2="220.00" /><line style="stroke:blue;fill:blue;" id="10042" x2="650.00" x1="800.00" y1="250.00" y2="350.00" /><line style="stroke:blue;fill:blue;" id="10043" x2="920.00" x1="800.00" y1="250.00" y2="280.00" /><line style="stroke:blue;fill:blue;" id="10044" x2="850.00" x1="800.00" y1="250.00" y2="300.00" /><line style="stroke:blue;fill:blue;" id="10045" x2="900.00" x1="800.00" y1="250.00" y2="220.00" /><line style="stroke:blue;fill:blue;" id="10046" x2="800.00" x1="800.00" y1="250.00" y2="180.00" /><line style="stroke:blue;fill:blue;" id="10047" x2="920.00" x1="850.00" y1="300.00" y2="350.00" /><line style="stroke:blue;fill:blue;" id="10048" x2="800.00" x1="850.00" y1="300.00" y2="600.00" /><line style="stroke:blue;fill:blue;" id="10049" x2="920.00" x1="850.00" y1="300.00" y2="280.00" /><line style="stroke:blue;fill:blue;" id="10050" x2="800.00" x1="850.00" y1="300.00" y2="250.00" /><line style="stroke:blue;fill:blue;" id="10051" x2="900.00" x1="850.00" y1="300.00" y2="220.00" /><line style="stroke:blue;fill:blue;" id="10052" x2="900.00" x1="880.00" y1="520.00" y2="450.00" /><line style="stroke:blue;fill:blue;" id="10053" x2="800.00" x1="880.00" y1="520.00" y2="600.00" /><line style="stroke:blue;fill:blue;" id="10054" x2="920.00" x1="900.00" y1="220.00" y2="150.00" /><line style="stroke:blue;fill:blue;" id="10055" x2="1000.00" x1="900.00" y1="220.00" y2="200.00" /><line style="stroke:blue;fill:blue;" id="10056" x2="850.00" x1="900.00" y1="220.00" y2="300.00" /><line style="stroke:blue;fill:blue;" id="10057" x2="800.00" x1="900.00" y1="220.00" y2="250.00" /><line style="stroke:blue;fill:blue;" id="10058" x2="800.00" x1="900.00" y1="220.00" y2="180.00" /><line style="stroke:blue;fill:blue;" id="10059" x2="920.00" x1="920.00" y1="280.00" y2="350.00" /><line style="stroke:blue;fill:blue;" id="10060" x2="850.00" x1="920.00" y1="280.00" y2="300.00" /><line style="stroke:blue;fill:blue;" id="10061" x2="800.00" x1="920.00" y1="280.00" y2="250.00" /><line style="stroke:blue;fill:blue;" id="10062" x2="50.00" x1="20.00" y1="500.00" y2="550.00" /><line style="stroke:blue;fill:blue;" id="10063" x2="50.00" x1="50.00" y1="50.00" y2="100.00" /><line style="stroke:blue;fill:blue;" id="10064" x2="100.00" x1="100.00" y1="500.00" y2="550.00" /><line style="stroke:blue;fill:blue;" id="10065" x2="120.00" x1="100.00" y1="50.00" y2="100.00" /><line style="stroke:blue;fill:blue;" id="10066" x2="300.00" x1="380.00" y1="400.00" y2="400.00" /><line style="stroke:blue;fill:blue;" id="10067" x2="809.06" x1="720.00" y1="730.00" y2="676.23" /><line style="stroke:blue;fill:blue;" id="10068" x2="650.00" x1="650.00" y1="280.00" y2="350.00" /><line style="stroke:blue;fill:blue;" id="10069" x2="809.06" x1="820.94" y1="723.77" y2="676.23" /><line style="stroke:blue;fill:blue;" id="10070" x2="700.00" x1="750.00" y1="500.00" y2="550.00" /><line style="stroke:blue;fill:blue;" id="10071" x2="800.00" x1="750.00" y1="220.00" y2="250.00" /><line style="stroke:blue;fill:blue;" id="10072" x2="809.06" x1="910.00" y1="690.00" y2="676.23" /><line style="stroke:blue;fill:blue;" id="10073" x2="920.00" x1="900.00" y1="450.00" y2="350.00" /><line style="stroke:blue;fill:blue;" id="10074" x2="880.00" x1="900.00" y1="450.00" y2="520.00" /><line style="stroke:blue;fill:blue;" id="10075" x2="900.00" x1="920.00" y1="150.00" y2="220.00" /><line style="stroke:blue;fill:blue;" id="10076" x2="900.00" x1="920.00" y1="350.00" y2="450.00" /><line style="stroke:blue;fill:blue;" id="10077" x2="920.00" x1="920.00" y1="350.00" y2="280.00" /><line style="stroke:blue;fill:blue;" id="10078" x2="850.00" x1="920.00" y1="350.00" y2="300.00" /><line style="stroke:blue;fill:blue;" id="10079" x2="900.00" x1="1000.00" y1="200.00" y2="220.00" /></svg>
