<?xml version="1.0" standalone="yes"?><!DOCTYPE svg PUBLIC "-//W3C//DTD SVG 1.1//EN" "http://www.w3.org/Graphics/SVG/1.1/DTD/svg11.dtd"[]><svg height="800.00" id="8089" width="1050.00" xmlns="http://www.w3.org/2000/svg" xmlns:xlink="http://www.w3.org/1999/xlink"><rect Type="system" Region="埃索特亚" height="5.00" y="670.00" Name="G-4H4C" width="5.00" x="50.00" id="8090" ID="30003161" /><text x="50.00" y="670.00" id="8091">G-4H4C</text><rect Type="system" Region="埃索特亚" height="5.00" y="150.00" Name="A-CJGE" width="5.00" x="50.00" id="8093" ID="30003100" /><text x="50.00" y="150.00" id="8094">A-CJGE</text><rect Type="system" Region="埃索特亚" height="5.00" y="200.00" Name="WAC-HW" width="5.00" x="50.00" id="8096" ID="30003102" /><text x="50.00" y="200.00" id="8097">WAC-HW</text><rect Type="system" Region="埃索特亚" height="5.00" y="250.00" Name="RBW-8G" width="5.00" x="50.00" id="8099" ID="30003104" /><text x="50.00" y="250.00" id="8100">RBW-8G</text><rect Type="system" Region="埃索特亚" height="5.00" y="300.00" Name="C-VZAK" width="5.00" x="50.00" id="8102" ID="30003113" /><text x="50.00" y="300.00" id="8103">C-VZAK</text><rect Type="system" Region="埃索特亚" height="5.00" y="350.00" Name="0-O6XF" width="5.00" x="50.00" id="8105" ID="30003114" /><text x="50.00" y="350.00" id="8106">0-O6XF</text><rect Type="system" Region="埃索特亚" height="5.00" y="400.00" Name="NH-R5B" width="5.00" x="50.00" id="8108" ID="30003117" /><text x="50.00" y="400.00" id="8109">NH-R5B</text><rect Type="system" Region="埃索特亚" height="5.00" y="450.00" Name="FN-GFQ" width="5.00" x="50.00" id="8111" ID="30003118" /><text x="50.00" y="450.00" id="8112">FN-GFQ</text><rect Type="system" Region="埃索特亚" height="5.00" y="620.00" Name="H-YHYM" width="5.00" x="100.00" id="8114" ID="30003160" /><text x="100.00" y="620.00" id="8115">H-YHYM</text><rect Type="system" Region="埃索特亚" height="5.00" y="120.00" Name="HHQ-M1" width="5.00" x="100.00" id="8117" ID="30003099" /><text x="100.00" y="120.00" id="8118">HHQ-M1</text><rect Type="system" Region="埃索特亚" height="5.00" y="170.00" Name="G2-INZ" width="5.00" x="120.00" id="8120" ID="30003101" /><text x="120.00" y="170.00" id="8121">G2-INZ</text><rect Type="system" Region="埃索特亚" height="5.00" y="320.00" Name="D-FVI7" width="5.00" x="120.00" id="8123" ID="30003115" /><text x="120.00" y="320.00" id="8124">D-FVI7</text><rect Type="system" Region="埃索特亚" height="5.00" y="370.00" Name="VL7-60" width="5.00" x="120.00" id="8126" ID="30003116" /><text x="120.00" y="370.00" id="8127">VL7-60</text><rect Type="system" Region="埃索特亚" height="5.00" y="570.00" Name="DIBH-Q" width="5.00" x="120.00" id="8129" ID="30003156" /><text x="120.00" y="570.00" id="8130">DIBH-Q</text><rect Type="system" Region="埃索特亚" height="5.00" y="670.00" Name="HHE5-L" width="5.00" x="120.00" id="8132" ID="30003162" /><text x="120.00" y="670.00" id="8133">HHE5-L</text><rect Type="system" Region="埃索特亚" height="5.00" y="70.00" Name="VYJ-DA" width="5.00" x="150.00" id="8135" ID="30003098" /><text x="150.00" y="70.00" id="8136">VYJ-DA</text><rect Type="system" Region="埃索特亚" height="5.00" y="520.00" Name="G-JC9R" width="5.00" x="150.00" id="8138" ID="30003155" /><text x="150.00" y="520.00" id="8139">G-JC9R</text><rect Type="system" Region="埃索特亚" height="5.00" y="620.00" Name="YAP-TN" width="5.00" x="180.00" id="8141" ID="30003158" /><text x="180.00" y="620.00" id="8142">YAP-TN</text><rect Type="system" Region="埃索特亚" height="5.00" y="500.00" Name="Z-MO29" width="5.00" x="220.00" id="8144" ID="30003154" /><text x="220.00" y="500.00" id="8145">Z-MO29</text><rect Type="system" Region="埃索特亚" height="5.00" y="70.00" Name="HT4K-M" width="5.00" x="250.00" id="8147" ID="30003103" /><text x="250.00" y="70.00" id="8148">HT4K-M</text><rect Type="system" Region="埃索特亚" height="5.00" y="600.00" Name="PE-H02" width="5.00" x="250.00" id="8150" ID="30003159" /><text x="250.00" y="600.00" id="8151">PE-H02</text><rect Type="system" Region="埃索特亚" height="5.00" y="170.00" Name="BY-MSY" width="5.00" x="250.00" id="8153" ID="30003138" /><text x="250.00" y="170.00" id="8154">BY-MSY</text><rect Type="system" Region="埃索特亚" height="5.00" y="720.00" Name="B1D-KU" width="5.00" x="250.00" id="8156" ID="30003180" /><text x="250.00" y="720.00" id="8157">B1D-KU</text><rect Type="system" Region="埃索特亚" height="5.00" y="550.00" Name="DNEP-Y" width="5.00" x="280.00" id="8159" ID="30003157" /><text x="280.00" y="550.00" id="8160">DNEP-Y</text><rect Type="system" Region="埃索特亚" height="5.00" y="20.00" Name="HAJ-DQ" width="5.00" x="320.00" id="8162" ID="30003106" /><text x="320.00" y="20.00" id="8163">HAJ-DQ</text><rect Type="system" Region="埃索特亚" height="5.00" y="70.00" Name="4-OUKF" width="5.00" x="320.00" id="8165" ID="30003105" /><text x="320.00" y="70.00" id="8166">4-OUKF</text><rect Type="system" Region="埃索特亚" height="5.00" y="170.00" Name="E1UU-3" width="5.00" x="320.00" id="8168" ID="30003136" /><text x="320.00" y="170.00" id="8169">E1UU-3</text><rect Type="system" Region="埃索特亚" height="5.00" y="400.00" Name="SN9S-N" width="5.00" x="350.00" id="8171" ID="30003152" /><text x="350.00" y="400.00" id="8172">SN9S-N</text><rect Type="system" Region="埃索特亚" height="5.00" y="720.00" Name="6SB-BN" width="5.00" x="350.00" id="8174" ID="30003179" /><text x="350.00" y="720.00" id="8175">6SB-BN</text><rect Type="system" Region="埃索特亚" height="5.00" y="770.00" Name="2R-KLH" width="5.00" x="350.00" id="8177" ID="30003182" /><text x="350.00" y="770.00" id="8178">2R-KLH</text><rect Type="system" Region="埃索特亚" height="5.00" y="300.00" Name="A5MT-B" width="5.00" x="350.00" id="8180" ID="30003150" /><text x="350.00" y="300.00" id="8181">A5MT-B</text><rect Type="system" Region="埃索特亚" height="5.00" y="170.00" Name="D-PNP9" width="5.00" x="400.00" id="8183" ID="30003135" /><text x="400.00" y="170.00" id="8184">D-PNP9</text><rect Type="system" Region="埃索特亚" height="5.00" y="220.00" Name="6EK-BV" width="5.00" x="400.00" id="8186" ID="30003139" /><text x="400.00" y="220.00" id="8187">6EK-BV</text><rect Type="system" Region="埃索特亚" height="5.00" y="350.00" Name="JD-TYH" width="5.00" x="400.00" id="8189" ID="30003148" /><text x="400.00" y="350.00" id="8190">JD-TYH</text><rect Type="system" Region="埃索特亚" height="5.00" y="70.00" Name="JAUD-V" width="5.00" x="400.00" id="8192" ID="30003107" /><text x="400.00" y="70.00" id="8193">JAUD-V</text><rect Type="system" Region="埃索特亚" height="5.00" y="720.00" Name="KSM-1T" width="5.00" x="400.00" id="8195" ID="30003177" /><text x="400.00" y="720.00" id="8196">KSM-1T</text><rect Type="system" Region="埃索特亚" height="5.00" y="770.00" Name="QFIU-K" width="5.00" x="400.00" id="8198" ID="30003181" /><text x="400.00" y="770.00" id="8199">QFIU-K</text><rect Type="system" Region="埃索特亚" height="5.00" y="400.00" Name="02V-BK" width="5.00" x="450.00" id="8201" ID="30003149" /><text x="450.00" y="400.00" id="8202">02V-BK</text><rect Type="system" Region="埃索特亚" height="5.00" y="120.00" Name="P-3XVV" width="5.00" x="450.00" id="8204" ID="30003137" /><text x="450.00" y="120.00" id="8205">P-3XVV</text><rect Type="system" Region="埃索特亚" height="5.00" y="170.00" Name="G-YZUX" width="5.00" x="450.00" id="8207" ID="30003133" /><text x="450.00" y="170.00" id="8208">G-YZUX</text><rect Type="system" Region="埃索特亚" height="5.00" y="220.00" Name="CZ6U-1" width="5.00" x="450.00" id="8210" ID="30003134" /><text x="450.00" y="220.00" id="8211">CZ6U-1</text><rect Type="system" Region="埃索特亚" height="5.00" y="270.96" Name="450I-W" width="5.00" x="478.09" id="8213" ID="30003131" /><text x="478.09" y="270.96" id="8214">450I-W</text><rect Type="system" Region="埃索特亚" height="5.00" y="720.00" Name="YRV-MZ" width="5.00" x="480.00" id="8216" ID="30003178" /><text x="480.00" y="720.00" id="8217">YRV-MZ</text><rect Type="system" Region="埃索特亚" height="5.00" y="70.00" Name="DTX8-M" width="5.00" x="500.00" id="8219" ID="30003108" /><text x="500.00" y="70.00" id="8220">DTX8-M</text><rect Type="system" Region="埃索特亚" height="5.00" y="370.00" Name="DL-CDY" width="5.00" x="500.00" id="8222" ID="30003170" /><text x="500.00" y="370.00" id="8223">DL-CDY</text><rect Type="system" Region="埃索特亚" height="5.00" y="470.00" Name="R-ARKN" width="5.00" x="500.00" id="8225" ID="30003151" /><text x="500.00" y="470.00" id="8226">R-ARKN</text><rect Type="system" Region="埃索特亚" height="5.00" y="249.04" Name="VUAC-Y" width="5.00" x="521.91" id="8228" ID="30003129" /><text x="521.91" y="249.04" id="8229">VUAC-Y</text><rect Type="system" Region="埃索特亚" height="5.00" y="350.00" Name="29YH-V" width="5.00" x="550.00" id="8231" ID="30003171" /><text x="550.00" y="350.00" id="8232">29YH-V</text><rect Type="system" Region="埃索特亚" height="5.00" y="420.00" Name="X-HISR" width="5.00" x="550.00" id="8234" ID="30003173" /><text x="550.00" y="420.00" id="8235">X-HISR</text><rect Type="system" Region="埃索特亚" height="5.00" y="70.00" Name="C9N-CC" width="5.00" x="580.00" id="8237" ID="30003109" /><text x="580.00" y="70.00" id="8238">C9N-CC</text><rect Type="system" Region="埃索特亚" height="5.00" y="120.00" Name="5-9UXZ" width="5.00" x="580.00" id="8240" ID="30003111" /><text x="580.00" y="120.00" id="8241">5-9UXZ</text><rect Type="system" Region="埃索特亚" height="5.00" y="220.00" Name="A1-AUH" width="5.00" x="580.00" id="8243" ID="30003125" /><text x="580.00" y="220.00" id="8244">A1-AUH</text><rect Type="system" Region="埃索特亚" height="5.00" y="320.00" Name="LG-RO2" width="5.00" x="600.00" id="8246" ID="30003172" /><text x="600.00" y="320.00" id="8247">LG-RO2</text><rect Type="system" Region="埃索特亚" height="5.00" y="520.00" Name="MS2-V8" width="5.00" x="600.00" id="8249" ID="30003153" /><text x="600.00" y="520.00" id="8250">MS2-V8</text><rect Type="system" Region="埃索特亚" height="5.00" y="400.00" Name="VR-YRV" width="5.00" x="650.00" id="8252" ID="30003175" /><text x="650.00" y="400.00" id="8253">VR-YRV</text><rect Type="system" Region="埃索特亚" height="5.00" y="450.00" Name="QS-530" width="5.00" x="650.00" id="8255" ID="30003174" /><text x="650.00" y="450.00" id="8256">QS-530</text><rect Type="system" Region="埃索特亚" height="5.00" y="320.00" Name="IPX-H5" width="5.00" x="650.00" id="8258" ID="30003176" /><text x="650.00" y="320.00" id="8259">IPX-H5</text><rect Type="system" Region="埃索特亚" height="5.00" y="580.00" Name="P9F-ZG" width="5.00" x="670.00" id="8261" ID="30003163" /><text x="670.00" y="580.00" id="8262">P9F-ZG</text><rect Type="system" Region="埃索特亚" height="5.00" y="620.00" Name="QFGB-E" width="5.00" x="720.00" id="8264" ID="30003164" /><text x="720.00" y="620.00" id="8265">QFGB-E</text><rect Type="system" Region="埃索特亚" height="5.00" y="670.00" Name="WT-2J9" width="5.00" x="750.00" id="8267" ID="30003166" /><text x="750.00" y="670.00" id="8268">WT-2J9</text><rect Type="system" Region="埃索特亚" height="5.00" y="700.00" Name="C-PEWN" width="5.00" x="800.00" id="8270" ID="30003169" /><text x="800.00" y="700.00" id="8271">C-PEWN</text><rect Type="system" Region="埃索特亚" height="5.00" y="70.00" Name="X-7BIX" width="5.00" x="680.00" id="8273" ID="30003110" /><text x="680.00" y="70.00" id="8274">X-7BIX</text><rect Type="system" Region="埃索特亚" height="5.00" y="170.00" Name="Q0OH-V" width="5.00" x="680.00" id="8276" ID="30003112" /><text x="680.00" y="170.00" id="8277">Q0OH-V</text><rect Type="system" Region="埃索特亚" height="5.00" y="270.00" Name="V-XANH" width="5.00" x="720.00" id="8279" ID="30003130" /><text x="720.00" y="270.00" id="8280">V-XANH</text><rect Type="system" Region="埃索特亚" height="5.00" y="540.00" Name="PK-PHZ" width="5.00" x="700.00" id="8282" ID="30003167" /><text x="700.00" y="540.00" id="8283">PK-PHZ</text><rect Type="system" Region="埃索特亚" height="5.00" y="670.00" Name="7P-J38" width="5.00" x="680.00" id="8285" ID="30003165" /><text x="680.00" y="670.00" id="8286">7P-J38</text><rect Type="system" Region="埃索特亚" height="5.00" y="220.00" Name="F-UVBV" width="5.00" x="780.00" id="8288" ID="30003126" /><text x="780.00" y="220.00" id="8289">F-UVBV</text><rect Type="system" Region="埃索特亚" height="5.00" y="320.00" Name="OIOM-Y" width="5.00" x="780.00" id="8291" ID="30003132" /><text x="780.00" y="320.00" id="8292">OIOM-Y</text><rect Type="system" Region="埃索特亚" height="5.00" y="170.00" Name="XKZ8-H" width="5.00" x="780.00" id="8294" ID="30003119" /><text x="780.00" y="170.00" id="8295">XKZ8-H</text><rect Type="system" Region="埃索特亚" height="5.00" y="370.00" Name="IR-FDV" width="5.00" x="800.00" id="8297" ID="30003140" /><text x="800.00" y="370.00" id="8298">IR-FDV</text><rect Type="system" Region="埃索特亚" height="5.00" y="500.00" Name="L-M6JK" width="5.00" x="750.00" id="8300" ID="30003168" /><text x="750.00" y="500.00" id="8301">L-M6JK</text><rect Type="system" Region="埃索特亚" height="5.00" y="270.00" Name="TEIZ-C" width="5.00" x="820.00" id="8303" ID="30003128" /><text x="820.00" y="270.00" id="8304">TEIZ-C</text><rect Type="system" Region="埃索特亚" height="5.00" y="450.00" Name="6-TYRX" width="5.00" x="820.00" id="8306" ID="30003145" /><text x="820.00" y="450.00" id="8307">6-TYRX</text><rect Type="system" Region="埃索特亚" height="5.00" y="350.00" Name="NIZJ-0" width="5.00" x="850.00" id="8309" ID="30003141" /><text x="850.00" y="350.00" id="8310">NIZJ-0</text><rect Type="system" Region="埃索特亚" height="5.00" y="70.00" Name="BZ-0GW" width="5.00" x="880.00" id="8312" ID="30003121" /><text x="880.00" y="70.00" id="8313">BZ-0GW</text><rect Type="system" Region="埃索特亚" height="5.00" y="120.00" Name="WX-6UX" width="5.00" x="880.00" id="8315" ID="30003120" /><text x="880.00" y="120.00" id="8316">WX-6UX</text><rect Type="system" Region="埃索特亚" height="5.00" y="220.00" Name="R-FM0G" width="5.00" x="880.00" id="8318" ID="30003127" /><text x="880.00" y="220.00" id="8319">R-FM0G</text><rect Type="system" Region="埃索特亚" height="5.00" y="470.00" Name="Q1-R7K" width="5.00" x="900.00" id="8321" ID="30003146" /><text x="900.00" y="470.00" id="8322">Q1-R7K</text><rect Type="system" Region="埃索特亚" height="5.00" y="170.00" Name="Z-Y9C3" width="5.00" x="920.00" id="8324" ID="30003124" /><text x="920.00" y="170.00" id="8325">Z-Y9C3</text><rect Type="system" Region="埃索特亚" height="5.00" y="400.00" Name="J-RVGD" width="5.00" x="920.00" id="8327" ID="30003142" /><text x="920.00" y="400.00" id="8328">J-RVGD</text><rect Type="system" Region="埃索特亚" height="5.00" y="300.00" Name="V1ZC-S" width="5.00" x="920.00" id="8330" ID="30003143" /><text x="920.00" y="300.00" id="8331">V1ZC-S</text><rect Type="system" Region="埃索特亚" height="5.00" y="70.00" Name="16P-PX" width="5.00" x="950.00" id="8333" ID="30003122" /><text x="950.00" y="70.00" id="8334">16P-PX</text><rect Type="system" Region="埃索特亚" height="5.00" y="120.00" Name="CR-0E5" width="5.00" x="980.00" id="8336" ID="30003123" /><text x="980.00" y="120.00" id="8337">CR-0E5</text><rect Type="system" Region="埃索特亚" height="5.00" y="350.00" Name="H-T40Z" width="5.00" x="980.00" id="8339" ID="30003144" /><text x="980.00" y="350.00" id="8340">H-T40Z</text><rect Type="system" Region="埃索特亚" height="5.00" y="450.00" Name="111-F1" width="5.00" x="980.00" id="8342" ID="30003147" /><text x="980.00" y="450.00" id="8343">111-F1</text><rect Type="system" Region="混浊" height="5.00" y="70.00" Name="U-WLT9" width="5.00" x="50.00" id="8345" ID="30001865" /><text x="50.00" y="70.00" id="8346">U-WLT9</text><rect Type="system" Region="摄魂之域" height="5.00" y="550.00" Name="JI-K5H" width="5.00" x="380.00" id="8348" ID="30004667" /><text x="380.00" y="550.00" id="8349">JI-K5H</text><rect Type="system" Region="摄魂之域" height="5.00" y="620.00" Name="O-MCZR" width="5.00" x="380.00" id="8351" ID="30004671" /><text x="380.00" y="620.00" id="8352">O-MCZR</text><rect Type="system" Region="摄魂之域" height="5.00" y="520.00" Name="O4T-Z5" width="5.00" x="500.00" id="8354" ID="30004691" /><text x="500.00" y="520.00" id="8355">O4T-Z5</text><rect Type="system" Region="非塔波利斯" height="5.00" y="720.00" Name="D4-2XN" width="5.00" x="850.00" id="8357" ID="30004491" /><text x="850.00" y="720.00" id="8358">D4-2XN</text><rect Type="system" Region="非塔波利斯" height="5.00" y="70.00" Name="TR07-S" width="5.00" x="780.00" id="8360" ID="30004452" /><text x="780.00" y="70.00" id="8361">TR07-S</text><line x2="100.00" style="fill:blue;stroke:blue;" y1="670.00" x1="50.00" id="8363" y2="620.00" /><line x2="100.00" style="fill:blue;stroke:blue;" y1="150.00" x1="50.00" id="8364" y2="120.00" /><line x2="120.00" style="fill:blue;stroke:blue;" y1="150.00" x1="50.00" id="8365" y2="170.00" /><line x2="50.00" style="fill:blue;stroke:blue;" y1="150.00" x1="50.00" id="8366" y2="200.00" /><line x2="50.00" style="fill:blue;stroke:blue;" y1="200.00" x1="50.00" id="8367" y2="150.00" /><line x2="50.00" style="fill:blue;stroke:blue;" y1="200.00" x1="50.00" id="8368" y2="250.00" /><line x2="50.00" style="fill:blue;stroke:blue;" y1="250.00" x1="50.00" id="8369" y2="200.00" /><line x2="50.00" style="fill:blue;stroke:blue;" y1="250.00" x1="50.00" id="8370" y2="300.00" /><line x2="50.00" style="fill:blue;stroke:blue;" y1="300.00" x1="50.00" id="8371" y2="250.00" /><line x2="50.00" style="fill:blue;stroke:blue;" y1="300.00" x1="50.00" id="8372" y2="350.00" /><line x2="50.00" style="fill:blue;stroke:blue;" y1="350.00" x1="50.00" id="8373" y2="300.00" /><line x2="120.00" style="fill:blue;stroke:blue;" y1="350.00" x1="50.00" id="8374" y2="320.00" /><line x2="120.00" style="fill:blue;stroke:blue;" y1="350.00" x1="50.00" id="8375" y2="370.00" /><line x2="50.00" style="fill:blue;stroke:blue;" y1="350.00" x1="50.00" id="8376" y2="400.00" /><line x2="50.00" style="fill:blue;stroke:blue;" y1="400.00" x1="50.00" id="8377" y2="350.00" /><line x2="50.00" style="fill:blue;stroke:blue;" y1="400.00" x1="50.00" id="8378" y2="450.00" /><line x2="50.00" style="fill:blue;stroke:blue;" y1="450.00" x1="50.00" id="8379" y2="400.00" /><line x2="120.00" style="fill:blue;stroke:blue;" y1="620.00" x1="100.00" id="8380" y2="570.00" /><line x2="50.00" style="fill:blue;stroke:blue;" y1="620.00" x1="100.00" id="8381" y2="670.00" /><line x2="120.00" style="fill:blue;stroke:blue;" y1="620.00" x1="100.00" id="8382" y2="670.00" /><line x2="150.00" style="fill:blue;stroke:blue;" y1="120.00" x1="100.00" id="8383" y2="70.00" /><line x2="50.00" style="fill:blue;stroke:blue;" y1="120.00" x1="100.00" id="8384" y2="150.00" /><line x2="50.00" style="fill:blue;stroke:blue;" y1="170.00" x1="120.00" id="8385" y2="150.00" /><line x2="50.00" style="fill:blue;stroke:blue;" y1="320.00" x1="120.00" id="8386" y2="350.00" /><line x2="50.00" style="fill:blue;stroke:blue;" y1="370.00" x1="120.00" id="8387" y2="350.00" /><line x2="150.00" style="fill:blue;stroke:blue;" y1="570.00" x1="120.00" id="8388" y2="520.00" /><line x2="180.00" style="fill:blue;stroke:blue;" y1="570.00" x1="120.00" id="8389" y2="620.00" /><line x2="100.00" style="fill:blue;stroke:blue;" y1="570.00" x1="120.00" id="8390" y2="620.00" /><line x2="180.00" style="fill:blue;stroke:blue;" y1="670.00" x1="120.00" id="8391" y2="620.00" /><line x2="100.00" style="fill:blue;stroke:blue;" y1="670.00" x1="120.00" id="8392" y2="620.00" /><line x2="50.00" style="fill:blue;stroke:blue;" y1="70.00" x1="150.00" id="8393" y2="70.00" /><line x2="100.00" style="fill:blue;stroke:blue;" y1="70.00" x1="150.00" id="8394" y2="120.00" /><line x2="250.00" style="fill:blue;stroke:blue;" y1="70.00" x1="150.00" id="8395" y2="70.00" /><line x2="220.00" style="fill:blue;stroke:blue;" y1="520.00" x1="150.00" id="8396" y2="500.00" /><line x2="120.00" style="fill:blue;stroke:blue;" y1="520.00" x1="150.00" id="8397" y2="570.00" /><line x2="120.00" style="fill:blue;stroke:blue;" y1="620.00" x1="180.00" id="8398" y2="570.00" /><line x2="250.00" style="fill:blue;stroke:blue;" y1="620.00" x1="180.00" id="8399" y2="600.00" /><line x2="120.00" style="fill:blue;stroke:blue;" y1="620.00" x1="180.00" id="8400" y2="670.00" /><line x2="350.00" style="fill:blue;stroke:blue;" y1="500.00" x1="220.00" id="8401" y2="400.00" /><line x2="150.00" style="fill:blue;stroke:blue;" y1="500.00" x1="220.00" id="8402" y2="520.00" /><line x2="280.00" style="fill:blue;stroke:blue;" y1="500.00" x1="220.00" id="8403" y2="550.00" /><line x2="150.00" style="fill:blue;stroke:blue;" y1="70.00" x1="250.00" id="8404" y2="70.00" /><line x2="320.00" style="fill:blue;stroke:blue;" y1="70.00" x1="250.00" id="8405" y2="70.00" /><line x2="280.00" style="fill:blue;stroke:blue;" y1="600.00" x1="250.00" id="8406" y2="550.00" /><line x2="180.00" style="fill:blue;stroke:blue;" y1="600.00" x1="250.00" id="8407" y2="620.00" /><line x2="320.00" style="fill:blue;stroke:blue;" y1="170.00" x1="250.00" id="8408" y2="170.00" /><line x2="350.00" style="fill:blue;stroke:blue;" y1="720.00" x1="250.00" id="8409" y2="720.00" /><line x2="350.00" style="fill:blue;stroke:blue;" y1="720.00" x1="250.00" id="8410" y2="770.00" /><line x2="220.00" style="fill:blue;stroke:blue;" y1="550.00" x1="280.00" id="8411" y2="500.00" /><line x2="250.00" style="fill:blue;stroke:blue;" y1="550.00" x1="280.00" id="8412" y2="600.00" /><line x2="320.00" style="fill:blue;stroke:blue;" y1="20.00" x1="320.00" id="8413" y2="70.00" /><line x2="250.00" style="fill:blue;stroke:blue;" y1="70.00" x1="320.00" id="8414" y2="70.00" /><line x2="320.00" style="fill:blue;stroke:blue;" y1="70.00" x1="320.00" id="8415" y2="20.00" /><line x2="400.00" style="fill:blue;stroke:blue;" y1="70.00" x1="320.00" id="8416" y2="70.00" /><line x2="400.00" style="fill:blue;stroke:blue;" y1="170.00" x1="320.00" id="8417" y2="170.00" /><line x2="250.00" style="fill:blue;stroke:blue;" y1="170.00" x1="320.00" id="8418" y2="170.00" /><line x2="400.00" style="fill:blue;stroke:blue;" y1="400.00" x1="350.00" id="8419" y2="350.00" /><line x2="220.00" style="fill:blue;stroke:blue;" y1="400.00" x1="350.00" id="8420" y2="500.00" /><line x2="380.00" style="fill:blue;stroke:blue;" y1="400.00" x1="350.00" id="8421" y2="550.00" /><line x2="400.00" style="fill:blue;stroke:blue;" y1="720.00" x1="350.00" id="8422" y2="720.00" /><line x2="250.00" style="fill:blue;stroke:blue;" y1="720.00" x1="350.00" id="8423" y2="720.00" /><line x2="400.00" style="fill:blue;stroke:blue;" y1="720.00" x1="350.00" id="8424" y2="770.00" /><line x2="350.00" style="fill:blue;stroke:blue;" y1="720.00" x1="350.00" id="8425" y2="770.00" /><line x2="350.00" style="fill:blue;stroke:blue;" y1="770.00" x1="350.00" id="8426" y2="720.00" /><line x2="250.00" style="fill:blue;stroke:blue;" y1="770.00" x1="350.00" id="8427" y2="720.00" /><line x2="400.00" style="fill:blue;stroke:blue;" y1="770.00" x1="350.00" id="8428" y2="770.00" /><line x2="400.00" style="fill:blue;stroke:blue;" y1="300.00" x1="350.00" id="8429" y2="350.00" /><line x2="450.00" style="fill:blue;stroke:blue;" y1="170.00" x1="400.00" id="8430" y2="170.00" /><line x2="320.00" style="fill:blue;stroke:blue;" y1="170.00" x1="400.00" id="8431" y2="170.00" /><line x2="400.00" style="fill:blue;stroke:blue;" y1="170.00" x1="400.00" id="8432" y2="220.00" /><line x2="400.00" style="fill:blue;stroke:blue;" y1="220.00" x1="400.00" id="8433" y2="170.00" /><line x2="478.09" style="fill:blue;stroke:blue;" y1="350.00" x1="400.00" id="8434" y2="270.96" /><line x2="450.00" style="fill:blue;stroke:blue;" y1="350.00" x1="400.00" id="8435" y2="400.00" /><line x2="350.00" style="fill:blue;stroke:blue;" y1="350.00" x1="400.00" id="8436" y2="300.00" /><line x2="350.00" style="fill:blue;stroke:blue;" y1="350.00" x1="400.00" id="8437" y2="400.00" /><line x2="320.00" style="fill:blue;stroke:blue;" y1="70.00" x1="400.00" id="8438" y2="70.00" /><line x2="500.00" style="fill:blue;stroke:blue;" y1="70.00" x1="400.00" id="8439" y2="70.00" /><line x2="480.00" style="fill:blue;stroke:blue;" y1="720.00" x1="400.00" id="8440" y2="720.00" /><line x2="350.00" style="fill:blue;stroke:blue;" y1="720.00" x1="400.00" id="8441" y2="720.00" /><line x2="380.00" style="fill:blue;stroke:blue;" y1="720.00" x1="400.00" id="8442" y2="620.00" /><line x2="480.00" style="fill:blue;stroke:blue;" y1="770.00" x1="400.00" id="8443" y2="720.00" /><line x2="350.00" style="fill:blue;stroke:blue;" y1="770.00" x1="400.00" id="8444" y2="720.00" /><line x2="350.00" style="fill:blue;stroke:blue;" y1="770.00" x1="400.00" id="8445" y2="770.00" /><line x2="400.00" style="fill:blue;stroke:blue;" y1="400.00" x1="450.00" id="8446" y2="350.00" /><line x2="500.00" style="fill:blue;stroke:blue;" y1="400.00" x1="450.00" id="8447" y2="470.00" /><line x2="500.00" style="fill:blue;stroke:blue;" y1="400.00" x1="450.00" id="8448" y2="370.00" /><line x2="450.00" style="fill:blue;stroke:blue;" y1="120.00" x1="450.00" id="8449" y2="170.00" /><line x2="580.00" style="fill:blue;stroke:blue;" y1="170.00" x1="450.00" id="8450" y2="220.00" /><line x2="450.00" style="fill:blue;stroke:blue;" y1="170.00" x1="450.00" id="8451" y2="220.00" /><line x2="400.00" style="fill:blue;stroke:blue;" y1="170.00" x1="450.00" id="8452" y2="170.00" /><line x2="450.00" style="fill:blue;stroke:blue;" y1="170.00" x1="450.00" id="8453" y2="120.00" /><line x2="450.00" style="fill:blue;stroke:blue;" y1="220.00" x1="450.00" id="8454" y2="170.00" /><line x2="521.91" style="fill:blue;stroke:blue;" y1="270.96" x1="478.09" id="8455" y2="249.04" /><line x2="400.00" style="fill:blue;stroke:blue;" y1="270.96" x1="478.09" id="8456" y2="350.00" /><line x2="400.00" style="fill:blue;stroke:blue;" y1="720.00" x1="480.00" id="8457" y2="720.00" /><line x2="400.00" style="fill:blue;stroke:blue;" y1="720.00" x1="480.00" id="8458" y2="770.00" /><line x2="400.00" style="fill:blue;stroke:blue;" y1="70.00" x1="500.00" id="8459" y2="70.00" /><line x2="580.00" style="fill:blue;stroke:blue;" y1="70.00" x1="500.00" id="8460" y2="70.00" /><line x2="450.00" style="fill:blue;stroke:blue;" y1="370.00" x1="500.00" id="8461" y2="400.00" /><line x2="550.00" style="fill:blue;stroke:blue;" y1="370.00" x1="500.00" id="8462" y2="350.00" /><line x2="550.00" style="fill:blue;stroke:blue;" y1="370.00" x1="500.00" id="8463" y2="420.00" /><line x2="450.00" style="fill:blue;stroke:blue;" y1="470.00" x1="500.00" id="8464" y2="400.00" /><line x2="600.00" style="fill:blue;stroke:blue;" y1="470.00" x1="500.00" id="8465" y2="520.00" /><line x2="500.00" style="fill:blue;stroke:blue;" y1="470.00" x1="500.00" id="8466" y2="520.00" /><line x2="580.00" style="fill:blue;stroke:blue;" y1="249.04" x1="521.91" id="8467" y2="220.00" /><line x2="478.09" style="fill:blue;stroke:blue;" y1="249.04" x1="521.91" id="8468" y2="270.96" /><line x2="500.00" style="fill:blue;stroke:blue;" y1="350.00" x1="550.00" id="8469" y2="370.00" /><line x2="600.00" style="fill:blue;stroke:blue;" y1="350.00" x1="550.00" id="8470" y2="320.00" /><line x2="500.00" style="fill:blue;stroke:blue;" y1="420.00" x1="550.00" id="8471" y2="370.00" /><line x2="650.00" style="fill:blue;stroke:blue;" y1="420.00" x1="550.00" id="8472" y2="450.00" /><line x2="650.00" style="fill:blue;stroke:blue;" y1="420.00" x1="550.00" id="8473" y2="400.00" /><line x2="500.00" style="fill:blue;stroke:blue;" y1="70.00" x1="580.00" id="8474" y2="70.00" /><line x2="680.00" style="fill:blue;stroke:blue;" y1="70.00" x1="580.00" id="8475" y2="70.00" /><line x2="680.00" style="fill:blue;stroke:blue;" y1="120.00" x1="580.00" id="8476" y2="70.00" /><line x2="680.00" style="fill:blue;stroke:blue;" y1="120.00" x1="580.00" id="8477" y2="170.00" /><line x2="680.00" style="fill:blue;stroke:blue;" y1="220.00" x1="580.00" id="8478" y2="170.00" /><line x2="780.00" style="fill:blue;stroke:blue;" y1="220.00" x1="580.00" id="8479" y2="220.00" /><line x2="521.91" style="fill:blue;stroke:blue;" y1="220.00" x1="580.00" id="8480" y2="249.04" /><line x2="450.00" style="fill:blue;stroke:blue;" y1="220.00" x1="580.00" id="8481" y2="170.00" /><line x2="550.00" style="fill:blue;stroke:blue;" y1="320.00" x1="600.00" id="8482" y2="350.00" /><line x2="500.00" style="fill:blue;stroke:blue;" y1="520.00" x1="600.00" id="8483" y2="470.00" /><line x2="670.00" style="fill:blue;stroke:blue;" y1="520.00" x1="600.00" id="8484" y2="580.00" /><line x2="550.00" style="fill:blue;stroke:blue;" y1="400.00" x1="650.00" id="8485" y2="420.00" /><line x2="650.00" style="fill:blue;stroke:blue;" y1="400.00" x1="650.00" id="8486" y2="450.00" /><line x2="650.00" style="fill:blue;stroke:blue;" y1="400.00" x1="650.00" id="8487" y2="320.00" /><line x2="550.00" style="fill:blue;stroke:blue;" y1="450.00" x1="650.00" id="8488" y2="420.00" /><line x2="650.00" style="fill:blue;stroke:blue;" y1="450.00" x1="650.00" id="8489" y2="400.00" /><line x2="650.00" style="fill:blue;stroke:blue;" y1="320.00" x1="650.00" id="8490" y2="400.00" /><line x2="600.00" style="fill:blue;stroke:blue;" y1="580.00" x1="670.00" id="8491" y2="520.00" /><line x2="720.00" style="fill:blue;stroke:blue;" y1="580.00" x1="670.00" id="8492" y2="620.00" /><line x2="700.00" style="fill:blue;stroke:blue;" y1="580.00" x1="670.00" id="8493" y2="540.00" /><line x2="670.00" style="fill:blue;stroke:blue;" y1="620.00" x1="720.00" id="8494" y2="580.00" /><line x2="680.00" style="fill:blue;stroke:blue;" y1="620.00" x1="720.00" id="8495" y2="670.00" /><line x2="750.00" style="fill:blue;stroke:blue;" y1="620.00" x1="720.00" id="8496" y2="670.00" /><line x2="720.00" style="fill:blue;stroke:blue;" y1="670.00" x1="750.00" id="8497" y2="620.00" /><line x2="680.00" style="fill:blue;stroke:blue;" y1="670.00" x1="750.00" id="8498" y2="670.00" /><line x2="800.00" style="fill:blue;stroke:blue;" y1="670.00" x1="750.00" id="8499" y2="700.00" /><line x2="750.00" style="fill:blue;stroke:blue;" y1="700.00" x1="800.00" id="8500" y2="670.00" /><line x2="850.00" style="fill:blue;stroke:blue;" y1="700.00" x1="800.00" id="8501" y2="720.00" /><line x2="580.00" style="fill:blue;stroke:blue;" y1="70.00" x1="680.00" id="8502" y2="70.00" /><line x2="580.00" style="fill:blue;stroke:blue;" y1="70.00" x1="680.00" id="8503" y2="120.00" /><line x2="680.00" style="fill:blue;stroke:blue;" y1="70.00" x1="680.00" id="8504" y2="170.00" /><line x2="780.00" style="fill:blue;stroke:blue;" y1="70.00" x1="680.00" id="8505" y2="70.00" /><line x2="680.00" style="fill:blue;stroke:blue;" y1="170.00" x1="680.00" id="8506" y2="70.00" /><line x2="580.00" style="fill:blue;stroke:blue;" y1="170.00" x1="680.00" id="8507" y2="120.00" /><line x2="780.00" style="fill:blue;stroke:blue;" y1="170.00" x1="680.00" id="8508" y2="170.00" /><line x2="580.00" style="fill:blue;stroke:blue;" y1="170.00" x1="680.00" id="8509" y2="220.00" /><line x2="780.00" style="fill:blue;stroke:blue;" y1="270.00" x1="720.00" id="8510" y2="220.00" /><line x2="780.00" style="fill:blue;stroke:blue;" y1="270.00" x1="720.00" id="8511" y2="320.00" /><line x2="670.00" style="fill:blue;stroke:blue;" y1="540.00" x1="700.00" id="8512" y2="580.00" /><line x2="750.00" style="fill:blue;stroke:blue;" y1="540.00" x1="700.00" id="8513" y2="500.00" /><line x2="720.00" style="fill:blue;stroke:blue;" y1="670.00" x1="680.00" id="8514" y2="620.00" /><line x2="750.00" style="fill:blue;stroke:blue;" y1="670.00" x1="680.00" id="8515" y2="670.00" /><line x2="580.00" style="fill:blue;stroke:blue;" y1="220.00" x1="780.00" id="8516" y2="220.00" /><line x2="880.00" style="fill:blue;stroke:blue;" y1="220.00" x1="780.00" id="8517" y2="220.00" /><line x2="820.00" style="fill:blue;stroke:blue;" y1="220.00" x1="780.00" id="8518" y2="270.00" /><line x2="720.00" style="fill:blue;stroke:blue;" y1="220.00" x1="780.00" id="8519" y2="270.00" /><line x2="820.00" style="fill:blue;stroke:blue;" y1="320.00" x1="780.00" id="8520" y2="270.00" /><line x2="720.00" style="fill:blue;stroke:blue;" y1="320.00" x1="780.00" id="8521" y2="270.00" /><line x2="800.00" style="fill:blue;stroke:blue;" y1="320.00" x1="780.00" id="8522" y2="370.00" /><line x2="680.00" style="fill:blue;stroke:blue;" y1="170.00" x1="780.00" id="8523" y2="170.00" /><line x2="880.00" style="fill:blue;stroke:blue;" y1="170.00" x1="780.00" id="8524" y2="120.00" /><line x2="920.00" style="fill:blue;stroke:blue;" y1="170.00" x1="780.00" id="8525" y2="170.00" /><line x2="780.00" style="fill:blue;stroke:blue;" y1="370.00" x1="800.00" id="8526" y2="320.00" /><line x2="850.00" style="fill:blue;stroke:blue;" y1="370.00" x1="800.00" id="8527" y2="350.00" /><line x2="820.00" style="fill:blue;stroke:blue;" y1="370.00" x1="800.00" id="8528" y2="450.00" /><line x2="700.00" style="fill:blue;stroke:blue;" y1="500.00" x1="750.00" id="8529" y2="540.00" /><line x2="780.00" style="fill:blue;stroke:blue;" y1="270.00" x1="820.00" id="8530" y2="220.00" /><line x2="880.00" style="fill:blue;stroke:blue;" y1="270.00" x1="820.00" id="8531" y2="220.00" /><line x2="780.00" style="fill:blue;stroke:blue;" y1="270.00" x1="820.00" id="8532" y2="320.00" /><line x2="800.00" style="fill:blue;stroke:blue;" y1="450.00" x1="820.00" id="8533" y2="370.00" /><line x2="900.00" style="fill:blue;stroke:blue;" y1="450.00" x1="820.00" id="8534" y2="470.00" /><line x2="800.00" style="fill:blue;stroke:blue;" y1="350.00" x1="850.00" id="8535" y2="370.00" /><line x2="920.00" style="fill:blue;stroke:blue;" y1="350.00" x1="850.00" id="8536" y2="400.00" /><line x2="920.00" style="fill:blue;stroke:blue;" y1="350.00" x1="850.00" id="8537" y2="300.00" /><line x2="880.00" style="fill:blue;stroke:blue;" y1="70.00" x1="880.00" id="8538" y2="120.00" /><line x2="780.00" style="fill:blue;stroke:blue;" y1="120.00" x1="880.00" id="8539" y2="170.00" /><line x2="880.00" style="fill:blue;stroke:blue;" y1="120.00" x1="880.00" id="8540" y2="70.00" /><line x2="950.00" style="fill:blue;stroke:blue;" y1="120.00" x1="880.00" id="8541" y2="70.00" /><line x2="780.00" style="fill:blue;stroke:blue;" y1="220.00" x1="880.00" id="8542" y2="220.00" /><line x2="820.00" style="fill:blue;stroke:blue;" y1="220.00" x1="880.00" id="8543" y2="270.00" /><line x2="820.00" style="fill:blue;stroke:blue;" y1="470.00" x1="900.00" id="8544" y2="450.00" /><line x2="780.00" style="fill:blue;stroke:blue;" y1="170.00" x1="920.00" id="8545" y2="170.00" /><line x2="980.00" style="fill:blue;stroke:blue;" y1="170.00" x1="920.00" id="8546" y2="120.00" /><line x2="850.00" style="fill:blue;stroke:blue;" y1="400.00" x1="920.00" id="8547" y2="350.00" /><line x2="980.00" style="fill:blue;stroke:blue;" y1="400.00" x1="920.00" id="8548" y2="350.00" /><line x2="980.00" style="fill:blue;stroke:blue;" y1="400.00" x1="920.00" id="8549" y2="450.00" /><line x2="850.00" style="fill:blue;stroke:blue;" y1="300.00" x1="920.00" id="8550" y2="350.00" /><line x2="880.00" style="fill:blue;stroke:blue;" y1="70.00" x1="950.00" id="8551" y2="120.00" /><line x2="980.00" style="fill:blue;stroke:blue;" y1="70.00" x1="950.00" id="8552" y2="120.00" /><line x2="950.00" style="fill:blue;stroke:blue;" y1="120.00" x1="980.00" id="8553" y2="70.00" /><line x2="920.00" style="fill:blue;stroke:blue;" y1="120.00" x1="980.00" id="8554" y2="170.00" /><line x2="920.00" style="fill:blue;stroke:blue;" y1="350.00" x1="980.00" id="8555" y2="400.00" /><line x2="980.00" style="fill:blue;stroke:blue;" y1="350.00" x1="980.00" id="8556" y2="450.00" /><line x2="920.00" style="fill:blue;stroke:blue;" y1="450.00" x1="980.00" id="8557" y2="400.00" /><line x2="980.00" style="fill:blue;stroke:blue;" y1="450.00" x1="980.00" id="8558" y2="350.00" /><line x2="150.00" style="fill:blue;stroke:blue;" y1="70.00" x1="50.00" id="8559" y2="70.00" /><line x2="350.00" style="fill:blue;stroke:blue;" y1="550.00" x1="380.00" id="8560" y2="400.00" /><line x2="380.00" style="fill:blue;stroke:blue;" y1="550.00" x1="380.00" id="8561" y2="620.00" /><line x2="400.00" style="fill:blue;stroke:blue;" y1="620.00" x1="380.00" id="8562" y2="720.00" /><line x2="380.00" style="fill:blue;stroke:blue;" y1="620.00" x1="380.00" id="8563" y2="550.00" /><line x2="500.00" style="fill:blue;stroke:blue;" y1="520.00" x1="500.00" id="8564" y2="470.00" /><line x2="800.00" style="fill:blue;stroke:blue;" y1="720.00" x1="850.00" id="8565" y2="700.00" /><line x2="680.00" style="fill:blue;stroke:blue;" y1="70.00" x1="780.00" id="8566" y2="70.00" /></svg>
