<?xml version="1.0" standalone="yes"?><!DOCTYPE svg PUBLIC "-//W3C//DTD SVG 1.1//EN" "http://www.w3.org/Graphics/SVG/1.1/DTD/svg11.dtd"[]><svg width="1050.00" height="800.00" id="8089" xmlns="http://www.w3.org/2000/svg" xmlns:xlink="http://www.w3.org/1999/xlink"><rect Type="system" x="50.00" id="8090" height="5.00" width="5.00" Name="G-4H4C" ID="30003161" Region="埃索特亚" y="670.00" /><text y="670.00" x="50.00" id="8091">G-4H4C</text><rect Type="system" x="50.00" id="8093" height="5.00" width="5.00" Name="A-CJGE" ID="30003100" Region="埃索特亚" y="150.00" /><text y="150.00" x="50.00" id="8094">A-CJGE</text><rect Type="system" x="50.00" id="8096" height="5.00" width="5.00" Name="WAC-HW" ID="30003102" Region="埃索特亚" y="200.00" /><text y="200.00" x="50.00" id="8097">WAC-HW</text><rect Type="system" x="50.00" id="8099" height="5.00" width="5.00" Name="RBW-8G" ID="30003104" Region="埃索特亚" y="250.00" /><text y="250.00" x="50.00" id="8100">RBW-8G</text><rect Type="system" x="50.00" id="8102" height="5.00" width="5.00" Name="C-VZAK" ID="30003113" Region="埃索特亚" y="300.00" /><text y="300.00" x="50.00" id="8103">C-VZAK</text><rect Type="system" x="50.00" id="8105" height="5.00" width="5.00" Name="0-O6XF" ID="30003114" Region="埃索特亚" y="350.00" /><text y="350.00" x="50.00" id="8106">0-O6XF</text><rect Type="system" x="50.00" id="8108" height="5.00" width="5.00" Name="NH-R5B" ID="30003117" Region="埃索特亚" y="400.00" /><text y="400.00" x="50.00" id="8109">NH-R5B</text><rect Type="system" x="50.00" id="8111" height="5.00" width="5.00" Name="FN-GFQ" ID="30003118" Region="埃索特亚" y="450.00" /><text y="450.00" x="50.00" id="8112">FN-GFQ</text><rect Type="system" x="100.00" id="8114" height="5.00" width="5.00" Name="H-YHYM" ID="30003160" Region="埃索特亚" y="620.00" /><text y="620.00" x="100.00" id="8115">H-YHYM</text><rect Type="system" x="100.00" id="8117" height="5.00" width="5.00" Name="HHQ-M1" ID="30003099" Region="埃索特亚" y="120.00" /><text y="120.00" x="100.00" id="8118">HHQ-M1</text><rect Type="system" x="120.00" id="8120" height="5.00" width="5.00" Name="G2-INZ" ID="30003101" Region="埃索特亚" y="170.00" /><text y="170.00" x="120.00" id="8121">G2-INZ</text><rect Type="system" x="120.00" id="8123" height="5.00" width="5.00" Name="D-FVI7" ID="30003115" Region="埃索特亚" y="320.00" /><text y="320.00" x="120.00" id="8124">D-FVI7</text><rect Type="system" x="120.00" id="8126" height="5.00" width="5.00" Name="VL7-60" ID="30003116" Region="埃索特亚" y="370.00" /><text y="370.00" x="120.00" id="8127">VL7-60</text><rect Type="system" x="120.00" id="8129" height="5.00" width="5.00" Name="DIBH-Q" ID="30003156" Region="埃索特亚" y="570.00" /><text y="570.00" x="120.00" id="8130">DIBH-Q</text><rect Type="system" x="120.00" id="8132" height="5.00" width="5.00" Name="HHE5-L" ID="30003162" Region="埃索特亚" y="670.00" /><text y="670.00" x="120.00" id="8133">HHE5-L</text><rect Type="system" x="150.00" id="8135" height="5.00" width="5.00" Name="VYJ-DA" ID="30003098" Region="埃索特亚" y="70.00" /><text y="70.00" x="150.00" id="8136">VYJ-DA</text><rect Type="system" x="150.00" id="8138" height="5.00" width="5.00" Name="G-JC9R" ID="30003155" Region="埃索特亚" y="520.00" /><text y="520.00" x="150.00" id="8139">G-JC9R</text><rect Type="system" x="180.00" id="8141" height="5.00" width="5.00" Name="YAP-TN" ID="30003158" Region="埃索特亚" y="620.00" /><text y="620.00" x="180.00" id="8142">YAP-TN</text><rect Type="system" x="220.00" id="8144" height="5.00" width="5.00" Name="Z-MO29" ID="30003154" Region="埃索特亚" y="500.00" /><text y="500.00" x="220.00" id="8145">Z-MO29</text><rect Type="system" x="250.00" id="8147" height="5.00" width="5.00" Name="HT4K-M" ID="30003103" Region="埃索特亚" y="70.00" /><text y="70.00" x="250.00" id="8148">HT4K-M</text><rect Type="system" x="250.00" id="8150" height="5.00" width="5.00" Name="PE-H02" ID="30003159" Region="埃索特亚" y="600.00" /><text y="600.00" x="250.00" id="8151">PE-H02</text><rect Type="system" x="250.00" id="8153" height="5.00" width="5.00" Name="BY-MSY" ID="30003138" Region="埃索特亚" y="170.00" /><text y="170.00" x="250.00" id="8154">BY-MSY</text><rect Type="system" x="250.00" id="8156" height="5.00" width="5.00" Name="B1D-KU" ID="30003180" Region="埃索特亚" y="720.00" /><text y="720.00" x="250.00" id="8157">B1D-KU</text><rect Type="system" x="280.00" id="8159" height="5.00" width="5.00" Name="DNEP-Y" ID="30003157" Region="埃索特亚" y="550.00" /><text y="550.00" x="280.00" id="8160">DNEP-Y</text><rect Type="system" x="320.00" id="8162" height="5.00" width="5.00" Name="HAJ-DQ" ID="30003106" Region="埃索特亚" y="20.00" /><text y="20.00" x="320.00" id="8163">HAJ-DQ</text><rect Type="system" x="320.00" id="8165" height="5.00" width="5.00" Name="4-OUKF" ID="30003105" Region="埃索特亚" y="70.00" /><text y="70.00" x="320.00" id="8166">4-OUKF</text><rect Type="system" x="320.00" id="8168" height="5.00" width="5.00" Name="E1UU-3" ID="30003136" Region="埃索特亚" y="170.00" /><text y="170.00" x="320.00" id="8169">E1UU-3</text><rect Type="system" x="350.00" id="8171" height="5.00" width="5.00" Name="SN9S-N" ID="30003152" Region="埃索特亚" y="400.00" /><text y="400.00" x="350.00" id="8172">SN9S-N</text><rect Type="system" x="350.00" id="8174" height="5.00" width="5.00" Name="6SB-BN" ID="30003179" Region="埃索特亚" y="720.00" /><text y="720.00" x="350.00" id="8175">6SB-BN</text><rect Type="system" x="350.00" id="8177" height="5.00" width="5.00" Name="2R-KLH" ID="30003182" Region="埃索特亚" y="770.00" /><text y="770.00" x="350.00" id="8178">2R-KLH</text><rect Type="system" x="350.00" id="8180" height="5.00" width="5.00" Name="A5MT-B" ID="30003150" Region="埃索特亚" y="300.00" /><text y="300.00" x="350.00" id="8181">A5MT-B</text><rect Type="system" x="400.00" id="8183" height="5.00" width="5.00" Name="D-PNP9" ID="30003135" Region="埃索特亚" y="170.00" /><text y="170.00" x="400.00" id="8184">D-PNP9</text><rect Type="system" x="400.00" id="8186" height="5.00" width="5.00" Name="6EK-BV" ID="30003139" Region="埃索特亚" y="220.00" /><text y="220.00" x="400.00" id="8187">6EK-BV</text><rect Type="system" x="400.00" id="8189" height="5.00" width="5.00" Name="JD-TYH" ID="30003148" Region="埃索特亚" y="350.00" /><text y="350.00" x="400.00" id="8190">JD-TYH</text><rect Type="system" x="400.00" id="8192" height="5.00" width="5.00" Name="JAUD-V" ID="30003107" Region="埃索特亚" y="70.00" /><text y="70.00" x="400.00" id="8193">JAUD-V</text><rect Type="system" x="400.00" id="8195" height="5.00" width="5.00" Name="KSM-1T" ID="30003177" Region="埃索特亚" y="720.00" /><text y="720.00" x="400.00" id="8196">KSM-1T</text><rect Type="system" x="400.00" id="8198" height="5.00" width="5.00" Name="QFIU-K" ID="30003181" Region="埃索特亚" y="770.00" /><text y="770.00" x="400.00" id="8199">QFIU-K</text><rect Type="system" x="450.00" id="8201" height="5.00" width="5.00" Name="02V-BK" ID="30003149" Region="埃索特亚" y="400.00" /><text y="400.00" x="450.00" id="8202">02V-BK</text><rect Type="system" x="450.00" id="8204" height="5.00" width="5.00" Name="P-3XVV" ID="30003137" Region="埃索特亚" y="120.00" /><text y="120.00" x="450.00" id="8205">P-3XVV</text><rect Type="system" x="450.00" id="8207" height="5.00" width="5.00" Name="G-YZUX" ID="30003133" Region="埃索特亚" y="170.00" /><text y="170.00" x="450.00" id="8208">G-YZUX</text><rect Type="system" x="450.00" id="8210" height="5.00" width="5.00" Name="CZ6U-1" ID="30003134" Region="埃索特亚" y="220.00" /><text y="220.00" x="450.00" id="8211">CZ6U-1</text><rect Type="system" x="478.09" id="8213" height="5.00" width="5.00" Name="450I-W" ID="30003131" Region="埃索特亚" y="270.96" /><text y="270.96" x="478.09" id="8214">450I-W</text><rect Type="system" x="480.00" id="8216" height="5.00" width="5.00" Name="YRV-MZ" ID="30003178" Region="埃索特亚" y="720.00" /><text y="720.00" x="480.00" id="8217">YRV-MZ</text><rect Type="system" x="500.00" id="8219" height="5.00" width="5.00" Name="DTX8-M" ID="30003108" Region="埃索特亚" y="70.00" /><text y="70.00" x="500.00" id="8220">DTX8-M</text><rect Type="system" x="500.00" id="8222" height="5.00" width="5.00" Name="DL-CDY" ID="30003170" Region="埃索特亚" y="370.00" /><text y="370.00" x="500.00" id="8223">DL-CDY</text><rect Type="system" x="500.00" id="8225" height="5.00" width="5.00" Name="R-ARKN" ID="30003151" Region="埃索特亚" y="470.00" /><text y="470.00" x="500.00" id="8226">R-ARKN</text><rect Type="system" x="521.91" id="8228" height="5.00" width="5.00" Name="VUAC-Y" ID="30003129" Region="埃索特亚" y="249.04" /><text y="249.04" x="521.91" id="8229">VUAC-Y</text><rect Type="system" x="550.00" id="8231" height="5.00" width="5.00" Name="29YH-V" ID="30003171" Region="埃索特亚" y="350.00" /><text y="350.00" x="550.00" id="8232">29YH-V</text><rect Type="system" x="550.00" id="8234" height="5.00" width="5.00" Name="X-HISR" ID="30003173" Region="埃索特亚" y="420.00" /><text y="420.00" x="550.00" id="8235">X-HISR</text><rect Type="system" x="580.00" id="8237" height="5.00" width="5.00" Name="C9N-CC" ID="30003109" Region="埃索特亚" y="70.00" /><text y="70.00" x="580.00" id="8238">C9N-CC</text><rect Type="system" x="580.00" id="8240" height="5.00" width="5.00" Name="5-9UXZ" ID="30003111" Region="埃索特亚" y="120.00" /><text y="120.00" x="580.00" id="8241">5-9UXZ</text><rect Type="system" x="580.00" id="8243" height="5.00" width="5.00" Name="A1-AUH" ID="30003125" Region="埃索特亚" y="220.00" /><text y="220.00" x="580.00" id="8244">A1-AUH</text><rect Type="system" x="600.00" id="8246" height="5.00" width="5.00" Name="LG-RO2" ID="30003172" Region="埃索特亚" y="320.00" /><text y="320.00" x="600.00" id="8247">LG-RO2</text><rect Type="system" x="600.00" id="8249" height="5.00" width="5.00" Name="MS2-V8" ID="30003153" Region="埃索特亚" y="520.00" /><text y="520.00" x="600.00" id="8250">MS2-V8</text><rect Type="system" x="650.00" id="8252" height="5.00" width="5.00" Name="VR-YRV" ID="30003175" Region="埃索特亚" y="400.00" /><text y="400.00" x="650.00" id="8253">VR-YRV</text><rect Type="system" x="650.00" id="8255" height="5.00" width="5.00" Name="QS-530" ID="30003174" Region="埃索特亚" y="450.00" /><text y="450.00" x="650.00" id="8256">QS-530</text><rect Type="system" x="650.00" id="8258" height="5.00" width="5.00" Name="IPX-H5" ID="30003176" Region="埃索特亚" y="320.00" /><text y="320.00" x="650.00" id="8259">IPX-H5</text><rect Type="system" x="670.00" id="8261" height="5.00" width="5.00" Name="P9F-ZG" ID="30003163" Region="埃索特亚" y="580.00" /><text y="580.00" x="670.00" id="8262">P9F-ZG</text><rect Type="system" x="720.00" id="8264" height="5.00" width="5.00" Name="QFGB-E" ID="30003164" Region="埃索特亚" y="620.00" /><text y="620.00" x="720.00" id="8265">QFGB-E</text><rect Type="system" x="750.00" id="8267" height="5.00" width="5.00" Name="WT-2J9" ID="30003166" Region="埃索特亚" y="670.00" /><text y="670.00" x="750.00" id="8268">WT-2J9</text><rect Type="system" x="800.00" id="8270" height="5.00" width="5.00" Name="C-PEWN" ID="30003169" Region="埃索特亚" y="700.00" /><text y="700.00" x="800.00" id="8271">C-PEWN</text><rect Type="system" x="680.00" id="8273" height="5.00" width="5.00" Name="X-7BIX" ID="30003110" Region="埃索特亚" y="70.00" /><text y="70.00" x="680.00" id="8274">X-7BIX</text><rect Type="system" x="680.00" id="8276" height="5.00" width="5.00" Name="Q0OH-V" ID="30003112" Region="埃索特亚" y="170.00" /><text y="170.00" x="680.00" id="8277">Q0OH-V</text><rect Type="system" x="720.00" id="8279" height="5.00" width="5.00" Name="V-XANH" ID="30003130" Region="埃索特亚" y="270.00" /><text y="270.00" x="720.00" id="8280">V-XANH</text><rect Type="system" x="700.00" id="8282" height="5.00" width="5.00" Name="PK-PHZ" ID="30003167" Region="埃索特亚" y="540.00" /><text y="540.00" x="700.00" id="8283">PK-PHZ</text><rect Type="system" x="680.00" id="8285" height="5.00" width="5.00" Name="7P-J38" ID="30003165" Region="埃索特亚" y="670.00" /><text y="670.00" x="680.00" id="8286">7P-J38</text><rect Type="system" x="780.00" id="8288" height="5.00" width="5.00" Name="F-UVBV" ID="30003126" Region="埃索特亚" y="220.00" /><text y="220.00" x="780.00" id="8289">F-UVBV</text><rect Type="system" x="780.00" id="8291" height="5.00" width="5.00" Name="OIOM-Y" ID="30003132" Region="埃索特亚" y="320.00" /><text y="320.00" x="780.00" id="8292">OIOM-Y</text><rect Type="system" x="780.00" id="8294" height="5.00" width="5.00" Name="XKZ8-H" ID="30003119" Region="埃索特亚" y="170.00" /><text y="170.00" x="780.00" id="8295">XKZ8-H</text><rect Type="system" x="800.00" id="8297" height="5.00" width="5.00" Name="IR-FDV" ID="30003140" Region="埃索特亚" y="370.00" /><text y="370.00" x="800.00" id="8298">IR-FDV</text><rect Type="system" x="750.00" id="8300" height="5.00" width="5.00" Name="L-M6JK" ID="30003168" Region="埃索特亚" y="500.00" /><text y="500.00" x="750.00" id="8301">L-M6JK</text><rect Type="system" x="820.00" id="8303" height="5.00" width="5.00" Name="TEIZ-C" ID="30003128" Region="埃索特亚" y="270.00" /><text y="270.00" x="820.00" id="8304">TEIZ-C</text><rect Type="system" x="820.00" id="8306" height="5.00" width="5.00" Name="6-TYRX" ID="30003145" Region="埃索特亚" y="450.00" /><text y="450.00" x="820.00" id="8307">6-TYRX</text><rect Type="system" x="850.00" id="8309" height="5.00" width="5.00" Name="NIZJ-0" ID="30003141" Region="埃索特亚" y="350.00" /><text y="350.00" x="850.00" id="8310">NIZJ-0</text><rect Type="system" x="880.00" id="8312" height="5.00" width="5.00" Name="BZ-0GW" ID="30003121" Region="埃索特亚" y="70.00" /><text y="70.00" x="880.00" id="8313">BZ-0GW</text><rect Type="system" x="880.00" id="8315" height="5.00" width="5.00" Name="WX-6UX" ID="30003120" Region="埃索特亚" y="120.00" /><text y="120.00" x="880.00" id="8316">WX-6UX</text><rect Type="system" x="880.00" id="8318" height="5.00" width="5.00" Name="R-FM0G" ID="30003127" Region="埃索特亚" y="220.00" /><text y="220.00" x="880.00" id="8319">R-FM0G</text><rect Type="system" x="900.00" id="8321" height="5.00" width="5.00" Name="Q1-R7K" ID="30003146" Region="埃索特亚" y="470.00" /><text y="470.00" x="900.00" id="8322">Q1-R7K</text><rect Type="system" x="920.00" id="8324" height="5.00" width="5.00" Name="Z-Y9C3" ID="30003124" Region="埃索特亚" y="170.00" /><text y="170.00" x="920.00" id="8325">Z-Y9C3</text><rect Type="system" x="920.00" id="8327" height="5.00" width="5.00" Name="J-RVGD" ID="30003142" Region="埃索特亚" y="400.00" /><text y="400.00" x="920.00" id="8328">J-RVGD</text><rect Type="system" x="920.00" id="8330" height="5.00" width="5.00" Name="V1ZC-S" ID="30003143" Region="埃索特亚" y="300.00" /><text y="300.00" x="920.00" id="8331">V1ZC-S</text><rect Type="system" x="950.00" id="8333" height="5.00" width="5.00" Name="16P-PX" ID="30003122" Region="埃索特亚" y="70.00" /><text y="70.00" x="950.00" id="8334">16P-PX</text><rect Type="system" x="980.00" id="8336" height="5.00" width="5.00" Name="CR-0E5" ID="30003123" Region="埃索特亚" y="120.00" /><text y="120.00" x="980.00" id="8337">CR-0E5</text><rect Type="system" x="980.00" id="8339" height="5.00" width="5.00" Name="H-T40Z" ID="30003144" Region="埃索特亚" y="350.00" /><text y="350.00" x="980.00" id="8340">H-T40Z</text><rect Type="system" x="980.00" id="8342" height="5.00" width="5.00" Name="111-F1" ID="30003147" Region="埃索特亚" y="450.00" /><text y="450.00" x="980.00" id="8343">111-F1</text><rect Type="system" x="50.00" id="8345" height="5.00" width="5.00" Name="U-WLT9" ID="30001865" Region="混浊" y="70.00" /><text y="70.00" x="50.00" id="8346">U-WLT9</text><rect Type="system" x="380.00" id="8348" height="5.00" width="5.00" Name="JI-K5H" ID="30004667" Region="摄魂之域" y="550.00" /><text y="550.00" x="380.00" id="8349">JI-K5H</text><rect Type="system" x="380.00" id="8351" height="5.00" width="5.00" Name="O-MCZR" ID="30004671" Region="摄魂之域" y="620.00" /><text y="620.00" x="380.00" id="8352">O-MCZR</text><rect Type="system" x="500.00" id="8354" height="5.00" width="5.00" Name="O4T-Z5" ID="30004691" Region="摄魂之域" y="520.00" /><text y="520.00" x="500.00" id="8355">O4T-Z5</text><rect Type="system" x="850.00" id="8357" height="5.00" width="5.00" Name="D4-2XN" ID="30004491" Region="非塔波利斯" y="720.00" /><text y="720.00" x="850.00" id="8358">D4-2XN</text><rect Type="system" x="780.00" id="8360" height="5.00" width="5.00" Name="TR07-S" ID="30004452" Region="非塔波利斯" y="70.00" /><text y="70.00" x="780.00" id="8361">TR07-S</text><line style="stroke:blue;fill:blue;" id="8363" x2="100.00" x1="50.00" y1="670.00" y2="620.00" /><line style="stroke:blue;fill:blue;" id="8364" x2="100.00" x1="50.00" y1="150.00" y2="120.00" /><line style="stroke:blue;fill:blue;" id="8365" x2="120.00" x1="50.00" y1="150.00" y2="170.00" /><line style="stroke:blue;fill:blue;" id="8366" x2="50.00" x1="50.00" y1="150.00" y2="200.00" /><line style="stroke:blue;fill:blue;" id="8367" x2="50.00" x1="50.00" y1="200.00" y2="150.00" /><line style="stroke:blue;fill:blue;" id="8368" x2="50.00" x1="50.00" y1="200.00" y2="250.00" /><line style="stroke:blue;fill:blue;" id="8369" x2="50.00" x1="50.00" y1="250.00" y2="200.00" /><line style="stroke:blue;fill:blue;" id="8370" x2="50.00" x1="50.00" y1="250.00" y2="300.00" /><line style="stroke:blue;fill:blue;" id="8371" x2="50.00" x1="50.00" y1="300.00" y2="250.00" /><line style="stroke:blue;fill:blue;" id="8372" x2="50.00" x1="50.00" y1="300.00" y2="350.00" /><line style="stroke:blue;fill:blue;" id="8373" x2="50.00" x1="50.00" y1="350.00" y2="300.00" /><line style="stroke:blue;fill:blue;" id="8374" x2="120.00" x1="50.00" y1="350.00" y2="320.00" /><line style="stroke:blue;fill:blue;" id="8375" x2="120.00" x1="50.00" y1="350.00" y2="370.00" /><line style="stroke:blue;fill:blue;" id="8376" x2="50.00" x1="50.00" y1="350.00" y2="400.00" /><line style="stroke:blue;fill:blue;" id="8377" x2="50.00" x1="50.00" y1="400.00" y2="350.00" /><line style="stroke:blue;fill:blue;" id="8378" x2="50.00" x1="50.00" y1="400.00" y2="450.00" /><line style="stroke:blue;fill:blue;" id="8379" x2="50.00" x1="50.00" y1="450.00" y2="400.00" /><line style="stroke:blue;fill:blue;" id="8380" x2="120.00" x1="100.00" y1="620.00" y2="570.00" /><line style="stroke:blue;fill:blue;" id="8381" x2="50.00" x1="100.00" y1="620.00" y2="670.00" /><line style="stroke:blue;fill:blue;" id="8382" x2="120.00" x1="100.00" y1="620.00" y2="670.00" /><line style="stroke:blue;fill:blue;" id="8383" x2="150.00" x1="100.00" y1="120.00" y2="70.00" /><line style="stroke:blue;fill:blue;" id="8384" x2="50.00" x1="100.00" y1="120.00" y2="150.00" /><line style="stroke:blue;fill:blue;" id="8385" x2="50.00" x1="120.00" y1="170.00" y2="150.00" /><line style="stroke:blue;fill:blue;" id="8386" x2="50.00" x1="120.00" y1="320.00" y2="350.00" /><line style="stroke:blue;fill:blue;" id="8387" x2="50.00" x1="120.00" y1="370.00" y2="350.00" /><line style="stroke:blue;fill:blue;" id="8388" x2="150.00" x1="120.00" y1="570.00" y2="520.00" /><line style="stroke:blue;fill:blue;" id="8389" x2="180.00" x1="120.00" y1="570.00" y2="620.00" /><line style="stroke:blue;fill:blue;" id="8390" x2="100.00" x1="120.00" y1="570.00" y2="620.00" /><line style="stroke:blue;fill:blue;" id="8391" x2="180.00" x1="120.00" y1="670.00" y2="620.00" /><line style="stroke:blue;fill:blue;" id="8392" x2="100.00" x1="120.00" y1="670.00" y2="620.00" /><line style="stroke:blue;fill:blue;" id="8393" x2="50.00" x1="150.00" y1="70.00" y2="70.00" /><line style="stroke:blue;fill:blue;" id="8394" x2="100.00" x1="150.00" y1="70.00" y2="120.00" /><line style="stroke:blue;fill:blue;" id="8395" x2="250.00" x1="150.00" y1="70.00" y2="70.00" /><line style="stroke:blue;fill:blue;" id="8396" x2="220.00" x1="150.00" y1="520.00" y2="500.00" /><line style="stroke:blue;fill:blue;" id="8397" x2="120.00" x1="150.00" y1="520.00" y2="570.00" /><line style="stroke:blue;fill:blue;" id="8398" x2="120.00" x1="180.00" y1="620.00" y2="570.00" /><line style="stroke:blue;fill:blue;" id="8399" x2="250.00" x1="180.00" y1="620.00" y2="600.00" /><line style="stroke:blue;fill:blue;" id="8400" x2="120.00" x1="180.00" y1="620.00" y2="670.00" /><line style="stroke:blue;fill:blue;" id="8401" x2="350.00" x1="220.00" y1="500.00" y2="400.00" /><line style="stroke:blue;fill:blue;" id="8402" x2="150.00" x1="220.00" y1="500.00" y2="520.00" /><line style="stroke:blue;fill:blue;" id="8403" x2="280.00" x1="220.00" y1="500.00" y2="550.00" /><line style="stroke:blue;fill:blue;" id="8404" x2="150.00" x1="250.00" y1="70.00" y2="70.00" /><line style="stroke:blue;fill:blue;" id="8405" x2="320.00" x1="250.00" y1="70.00" y2="70.00" /><line style="stroke:blue;fill:blue;" id="8406" x2="280.00" x1="250.00" y1="600.00" y2="550.00" /><line style="stroke:blue;fill:blue;" id="8407" x2="180.00" x1="250.00" y1="600.00" y2="620.00" /><line style="stroke:blue;fill:blue;" id="8408" x2="320.00" x1="250.00" y1="170.00" y2="170.00" /><line style="stroke:blue;fill:blue;" id="8409" x2="350.00" x1="250.00" y1="720.00" y2="720.00" /><line style="stroke:blue;fill:blue;" id="8410" x2="350.00" x1="250.00" y1="720.00" y2="770.00" /><line style="stroke:blue;fill:blue;" id="8411" x2="220.00" x1="280.00" y1="550.00" y2="500.00" /><line style="stroke:blue;fill:blue;" id="8412" x2="250.00" x1="280.00" y1="550.00" y2="600.00" /><line style="stroke:blue;fill:blue;" id="8413" x2="320.00" x1="320.00" y1="20.00" y2="70.00" /><line style="stroke:blue;fill:blue;" id="8414" x2="250.00" x1="320.00" y1="70.00" y2="70.00" /><line style="stroke:blue;fill:blue;" id="8415" x2="320.00" x1="320.00" y1="70.00" y2="20.00" /><line style="stroke:blue;fill:blue;" id="8416" x2="400.00" x1="320.00" y1="70.00" y2="70.00" /><line style="stroke:blue;fill:blue;" id="8417" x2="400.00" x1="320.00" y1="170.00" y2="170.00" /><line style="stroke:blue;fill:blue;" id="8418" x2="250.00" x1="320.00" y1="170.00" y2="170.00" /><line style="stroke:blue;fill:blue;" id="8419" x2="400.00" x1="350.00" y1="400.00" y2="350.00" /><line style="stroke:blue;fill:blue;" id="8420" x2="220.00" x1="350.00" y1="400.00" y2="500.00" /><line style="stroke:blue;fill:blue;" id="8421" x2="380.00" x1="350.00" y1="400.00" y2="550.00" /><line style="stroke:blue;fill:blue;" id="8422" x2="400.00" x1="350.00" y1="720.00" y2="720.00" /><line style="stroke:blue;fill:blue;" id="8423" x2="250.00" x1="350.00" y1="720.00" y2="720.00" /><line style="stroke:blue;fill:blue;" id="8424" x2="400.00" x1="350.00" y1="720.00" y2="770.00" /><line style="stroke:blue;fill:blue;" id="8425" x2="350.00" x1="350.00" y1="720.00" y2="770.00" /><line style="stroke:blue;fill:blue;" id="8426" x2="350.00" x1="350.00" y1="770.00" y2="720.00" /><line style="stroke:blue;fill:blue;" id="8427" x2="250.00" x1="350.00" y1="770.00" y2="720.00" /><line style="stroke:blue;fill:blue;" id="8428" x2="400.00" x1="350.00" y1="770.00" y2="770.00" /><line style="stroke:blue;fill:blue;" id="8429" x2="400.00" x1="350.00" y1="300.00" y2="350.00" /><line style="stroke:blue;fill:blue;" id="8430" x2="450.00" x1="400.00" y1="170.00" y2="170.00" /><line style="stroke:blue;fill:blue;" id="8431" x2="320.00" x1="400.00" y1="170.00" y2="170.00" /><line style="stroke:blue;fill:blue;" id="8432" x2="400.00" x1="400.00" y1="170.00" y2="220.00" /><line style="stroke:blue;fill:blue;" id="8433" x2="400.00" x1="400.00" y1="220.00" y2="170.00" /><line style="stroke:blue;fill:blue;" id="8434" x2="478.09" x1="400.00" y1="350.00" y2="270.96" /><line style="stroke:blue;fill:blue;" id="8435" x2="450.00" x1="400.00" y1="350.00" y2="400.00" /><line style="stroke:blue;fill:blue;" id="8436" x2="350.00" x1="400.00" y1="350.00" y2="300.00" /><line style="stroke:blue;fill:blue;" id="8437" x2="350.00" x1="400.00" y1="350.00" y2="400.00" /><line style="stroke:blue;fill:blue;" id="8438" x2="320.00" x1="400.00" y1="70.00" y2="70.00" /><line style="stroke:blue;fill:blue;" id="8439" x2="500.00" x1="400.00" y1="70.00" y2="70.00" /><line style="stroke:blue;fill:blue;" id="8440" x2="480.00" x1="400.00" y1="720.00" y2="720.00" /><line style="stroke:blue;fill:blue;" id="8441" x2="350.00" x1="400.00" y1="720.00" y2="720.00" /><line style="stroke:blue;fill:blue;" id="8442" x2="380.00" x1="400.00" y1="720.00" y2="620.00" /><line style="stroke:blue;fill:blue;" id="8443" x2="480.00" x1="400.00" y1="770.00" y2="720.00" /><line style="stroke:blue;fill:blue;" id="8444" x2="350.00" x1="400.00" y1="770.00" y2="720.00" /><line style="stroke:blue;fill:blue;" id="8445" x2="350.00" x1="400.00" y1="770.00" y2="770.00" /><line style="stroke:blue;fill:blue;" id="8446" x2="400.00" x1="450.00" y1="400.00" y2="350.00" /><line style="stroke:blue;fill:blue;" id="8447" x2="500.00" x1="450.00" y1="400.00" y2="470.00" /><line style="stroke:blue;fill:blue;" id="8448" x2="500.00" x1="450.00" y1="400.00" y2="370.00" /><line style="stroke:blue;fill:blue;" id="8449" x2="450.00" x1="450.00" y1="120.00" y2="170.00" /><line style="stroke:blue;fill:blue;" id="8450" x2="580.00" x1="450.00" y1="170.00" y2="220.00" /><line style="stroke:blue;fill:blue;" id="8451" x2="450.00" x1="450.00" y1="170.00" y2="220.00" /><line style="stroke:blue;fill:blue;" id="8452" x2="400.00" x1="450.00" y1="170.00" y2="170.00" /><line style="stroke:blue;fill:blue;" id="8453" x2="450.00" x1="450.00" y1="170.00" y2="120.00" /><line style="stroke:blue;fill:blue;" id="8454" x2="450.00" x1="450.00" y1="220.00" y2="170.00" /><line style="stroke:blue;fill:blue;" id="8455" x2="521.91" x1="478.09" y1="270.96" y2="249.04" /><line style="stroke:blue;fill:blue;" id="8456" x2="400.00" x1="478.09" y1="270.96" y2="350.00" /><line style="stroke:blue;fill:blue;" id="8457" x2="400.00" x1="480.00" y1="720.00" y2="720.00" /><line style="stroke:blue;fill:blue;" id="8458" x2="400.00" x1="480.00" y1="720.00" y2="770.00" /><line style="stroke:blue;fill:blue;" id="8459" x2="400.00" x1="500.00" y1="70.00" y2="70.00" /><line style="stroke:blue;fill:blue;" id="8460" x2="580.00" x1="500.00" y1="70.00" y2="70.00" /><line style="stroke:blue;fill:blue;" id="8461" x2="450.00" x1="500.00" y1="370.00" y2="400.00" /><line style="stroke:blue;fill:blue;" id="8462" x2="550.00" x1="500.00" y1="370.00" y2="350.00" /><line style="stroke:blue;fill:blue;" id="8463" x2="550.00" x1="500.00" y1="370.00" y2="420.00" /><line style="stroke:blue;fill:blue;" id="8464" x2="450.00" x1="500.00" y1="470.00" y2="400.00" /><line style="stroke:blue;fill:blue;" id="8465" x2="600.00" x1="500.00" y1="470.00" y2="520.00" /><line style="stroke:blue;fill:blue;" id="8466" x2="500.00" x1="500.00" y1="470.00" y2="520.00" /><line style="stroke:blue;fill:blue;" id="8467" x2="580.00" x1="521.91" y1="249.04" y2="220.00" /><line style="stroke:blue;fill:blue;" id="8468" x2="478.09" x1="521.91" y1="249.04" y2="270.96" /><line style="stroke:blue;fill:blue;" id="8469" x2="500.00" x1="550.00" y1="350.00" y2="370.00" /><line style="stroke:blue;fill:blue;" id="8470" x2="600.00" x1="550.00" y1="350.00" y2="320.00" /><line style="stroke:blue;fill:blue;" id="8471" x2="500.00" x1="550.00" y1="420.00" y2="370.00" /><line style="stroke:blue;fill:blue;" id="8472" x2="650.00" x1="550.00" y1="420.00" y2="450.00" /><line style="stroke:blue;fill:blue;" id="8473" x2="650.00" x1="550.00" y1="420.00" y2="400.00" /><line style="stroke:blue;fill:blue;" id="8474" x2="500.00" x1="580.00" y1="70.00" y2="70.00" /><line style="stroke:blue;fill:blue;" id="8475" x2="680.00" x1="580.00" y1="70.00" y2="70.00" /><line style="stroke:blue;fill:blue;" id="8476" x2="680.00" x1="580.00" y1="120.00" y2="70.00" /><line style="stroke:blue;fill:blue;" id="8477" x2="680.00" x1="580.00" y1="120.00" y2="170.00" /><line style="stroke:blue;fill:blue;" id="8478" x2="680.00" x1="580.00" y1="220.00" y2="170.00" /><line style="stroke:blue;fill:blue;" id="8479" x2="780.00" x1="580.00" y1="220.00" y2="220.00" /><line style="stroke:blue;fill:blue;" id="8480" x2="521.91" x1="580.00" y1="220.00" y2="249.04" /><line style="stroke:blue;fill:blue;" id="8481" x2="450.00" x1="580.00" y1="220.00" y2="170.00" /><line style="stroke:blue;fill:blue;" id="8482" x2="550.00" x1="600.00" y1="320.00" y2="350.00" /><line style="stroke:blue;fill:blue;" id="8483" x2="500.00" x1="600.00" y1="520.00" y2="470.00" /><line style="stroke:blue;fill:blue;" id="8484" x2="670.00" x1="600.00" y1="520.00" y2="580.00" /><line style="stroke:blue;fill:blue;" id="8485" x2="550.00" x1="650.00" y1="400.00" y2="420.00" /><line style="stroke:blue;fill:blue;" id="8486" x2="650.00" x1="650.00" y1="400.00" y2="450.00" /><line style="stroke:blue;fill:blue;" id="8487" x2="650.00" x1="650.00" y1="400.00" y2="320.00" /><line style="stroke:blue;fill:blue;" id="8488" x2="550.00" x1="650.00" y1="450.00" y2="420.00" /><line style="stroke:blue;fill:blue;" id="8489" x2="650.00" x1="650.00" y1="450.00" y2="400.00" /><line style="stroke:blue;fill:blue;" id="8490" x2="650.00" x1="650.00" y1="320.00" y2="400.00" /><line style="stroke:blue;fill:blue;" id="8491" x2="600.00" x1="670.00" y1="580.00" y2="520.00" /><line style="stroke:blue;fill:blue;" id="8492" x2="720.00" x1="670.00" y1="580.00" y2="620.00" /><line style="stroke:blue;fill:blue;" id="8493" x2="700.00" x1="670.00" y1="580.00" y2="540.00" /><line style="stroke:blue;fill:blue;" id="8494" x2="670.00" x1="720.00" y1="620.00" y2="580.00" /><line style="stroke:blue;fill:blue;" id="8495" x2="680.00" x1="720.00" y1="620.00" y2="670.00" /><line style="stroke:blue;fill:blue;" id="8496" x2="750.00" x1="720.00" y1="620.00" y2="670.00" /><line style="stroke:blue;fill:blue;" id="8497" x2="720.00" x1="750.00" y1="670.00" y2="620.00" /><line style="stroke:blue;fill:blue;" id="8498" x2="680.00" x1="750.00" y1="670.00" y2="670.00" /><line style="stroke:blue;fill:blue;" id="8499" x2="800.00" x1="750.00" y1="670.00" y2="700.00" /><line style="stroke:blue;fill:blue;" id="8500" x2="750.00" x1="800.00" y1="700.00" y2="670.00" /><line style="stroke:blue;fill:blue;" id="8501" x2="850.00" x1="800.00" y1="700.00" y2="720.00" /><line style="stroke:blue;fill:blue;" id="8502" x2="580.00" x1="680.00" y1="70.00" y2="70.00" /><line style="stroke:blue;fill:blue;" id="8503" x2="580.00" x1="680.00" y1="70.00" y2="120.00" /><line style="stroke:blue;fill:blue;" id="8504" x2="680.00" x1="680.00" y1="70.00" y2="170.00" /><line style="stroke:blue;fill:blue;" id="8505" x2="780.00" x1="680.00" y1="70.00" y2="70.00" /><line style="stroke:blue;fill:blue;" id="8506" x2="680.00" x1="680.00" y1="170.00" y2="70.00" /><line style="stroke:blue;fill:blue;" id="8507" x2="580.00" x1="680.00" y1="170.00" y2="120.00" /><line style="stroke:blue;fill:blue;" id="8508" x2="780.00" x1="680.00" y1="170.00" y2="170.00" /><line style="stroke:blue;fill:blue;" id="8509" x2="580.00" x1="680.00" y1="170.00" y2="220.00" /><line style="stroke:blue;fill:blue;" id="8510" x2="780.00" x1="720.00" y1="270.00" y2="220.00" /><line style="stroke:blue;fill:blue;" id="8511" x2="780.00" x1="720.00" y1="270.00" y2="320.00" /><line style="stroke:blue;fill:blue;" id="8512" x2="670.00" x1="700.00" y1="540.00" y2="580.00" /><line style="stroke:blue;fill:blue;" id="8513" x2="750.00" x1="700.00" y1="540.00" y2="500.00" /><line style="stroke:blue;fill:blue;" id="8514" x2="720.00" x1="680.00" y1="670.00" y2="620.00" /><line style="stroke:blue;fill:blue;" id="8515" x2="750.00" x1="680.00" y1="670.00" y2="670.00" /><line style="stroke:blue;fill:blue;" id="8516" x2="580.00" x1="780.00" y1="220.00" y2="220.00" /><line style="stroke:blue;fill:blue;" id="8517" x2="880.00" x1="780.00" y1="220.00" y2="220.00" /><line style="stroke:blue;fill:blue;" id="8518" x2="820.00" x1="780.00" y1="220.00" y2="270.00" /><line style="stroke:blue;fill:blue;" id="8519" x2="720.00" x1="780.00" y1="220.00" y2="270.00" /><line style="stroke:blue;fill:blue;" id="8520" x2="820.00" x1="780.00" y1="320.00" y2="270.00" /><line style="stroke:blue;fill:blue;" id="8521" x2="720.00" x1="780.00" y1="320.00" y2="270.00" /><line style="stroke:blue;fill:blue;" id="8522" x2="800.00" x1="780.00" y1="320.00" y2="370.00" /><line style="stroke:blue;fill:blue;" id="8523" x2="680.00" x1="780.00" y1="170.00" y2="170.00" /><line style="stroke:blue;fill:blue;" id="8524" x2="880.00" x1="780.00" y1="170.00" y2="120.00" /><line style="stroke:blue;fill:blue;" id="8525" x2="920.00" x1="780.00" y1="170.00" y2="170.00" /><line style="stroke:blue;fill:blue;" id="8526" x2="780.00" x1="800.00" y1="370.00" y2="320.00" /><line style="stroke:blue;fill:blue;" id="8527" x2="850.00" x1="800.00" y1="370.00" y2="350.00" /><line style="stroke:blue;fill:blue;" id="8528" x2="820.00" x1="800.00" y1="370.00" y2="450.00" /><line style="stroke:blue;fill:blue;" id="8529" x2="700.00" x1="750.00" y1="500.00" y2="540.00" /><line style="stroke:blue;fill:blue;" id="8530" x2="780.00" x1="820.00" y1="270.00" y2="220.00" /><line style="stroke:blue;fill:blue;" id="8531" x2="880.00" x1="820.00" y1="270.00" y2="220.00" /><line style="stroke:blue;fill:blue;" id="8532" x2="780.00" x1="820.00" y1="270.00" y2="320.00" /><line style="stroke:blue;fill:blue;" id="8533" x2="800.00" x1="820.00" y1="450.00" y2="370.00" /><line style="stroke:blue;fill:blue;" id="8534" x2="900.00" x1="820.00" y1="450.00" y2="470.00" /><line style="stroke:blue;fill:blue;" id="8535" x2="800.00" x1="850.00" y1="350.00" y2="370.00" /><line style="stroke:blue;fill:blue;" id="8536" x2="920.00" x1="850.00" y1="350.00" y2="400.00" /><line style="stroke:blue;fill:blue;" id="8537" x2="920.00" x1="850.00" y1="350.00" y2="300.00" /><line style="stroke:blue;fill:blue;" id="8538" x2="880.00" x1="880.00" y1="70.00" y2="120.00" /><line style="stroke:blue;fill:blue;" id="8539" x2="780.00" x1="880.00" y1="120.00" y2="170.00" /><line style="stroke:blue;fill:blue;" id="8540" x2="880.00" x1="880.00" y1="120.00" y2="70.00" /><line style="stroke:blue;fill:blue;" id="8541" x2="950.00" x1="880.00" y1="120.00" y2="70.00" /><line style="stroke:blue;fill:blue;" id="8542" x2="780.00" x1="880.00" y1="220.00" y2="220.00" /><line style="stroke:blue;fill:blue;" id="8543" x2="820.00" x1="880.00" y1="220.00" y2="270.00" /><line style="stroke:blue;fill:blue;" id="8544" x2="820.00" x1="900.00" y1="470.00" y2="450.00" /><line style="stroke:blue;fill:blue;" id="8545" x2="780.00" x1="920.00" y1="170.00" y2="170.00" /><line style="stroke:blue;fill:blue;" id="8546" x2="980.00" x1="920.00" y1="170.00" y2="120.00" /><line style="stroke:blue;fill:blue;" id="8547" x2="850.00" x1="920.00" y1="400.00" y2="350.00" /><line style="stroke:blue;fill:blue;" id="8548" x2="980.00" x1="920.00" y1="400.00" y2="350.00" /><line style="stroke:blue;fill:blue;" id="8549" x2="980.00" x1="920.00" y1="400.00" y2="450.00" /><line style="stroke:blue;fill:blue;" id="8550" x2="850.00" x1="920.00" y1="300.00" y2="350.00" /><line style="stroke:blue;fill:blue;" id="8551" x2="880.00" x1="950.00" y1="70.00" y2="120.00" /><line style="stroke:blue;fill:blue;" id="8552" x2="980.00" x1="950.00" y1="70.00" y2="120.00" /><line style="stroke:blue;fill:blue;" id="8553" x2="950.00" x1="980.00" y1="120.00" y2="70.00" /><line style="stroke:blue;fill:blue;" id="8554" x2="920.00" x1="980.00" y1="120.00" y2="170.00" /><line style="stroke:blue;fill:blue;" id="8555" x2="920.00" x1="980.00" y1="350.00" y2="400.00" /><line style="stroke:blue;fill:blue;" id="8556" x2="980.00" x1="980.00" y1="350.00" y2="450.00" /><line style="stroke:blue;fill:blue;" id="8557" x2="920.00" x1="980.00" y1="450.00" y2="400.00" /><line style="stroke:blue;fill:blue;" id="8558" x2="980.00" x1="980.00" y1="450.00" y2="350.00" /><line style="stroke:blue;fill:blue;" id="8559" x2="150.00" x1="50.00" y1="70.00" y2="70.00" /><line style="stroke:blue;fill:blue;" id="8560" x2="350.00" x1="380.00" y1="550.00" y2="400.00" /><line style="stroke:blue;fill:blue;" id="8561" x2="380.00" x1="380.00" y1="550.00" y2="620.00" /><line style="stroke:blue;fill:blue;" id="8562" x2="400.00" x1="380.00" y1="620.00" y2="720.00" /><line style="stroke:blue;fill:blue;" id="8563" x2="380.00" x1="380.00" y1="620.00" y2="550.00" /><line style="stroke:blue;fill:blue;" id="8564" x2="500.00" x1="500.00" y1="520.00" y2="470.00" /><line style="stroke:blue;fill:blue;" id="8565" x2="800.00" x1="850.00" y1="720.00" y2="700.00" /><line style="stroke:blue;fill:blue;" id="8566" x2="680.00" x1="780.00" y1="70.00" y2="70.00" /></svg>
