<?xml version="1.0" standalone="yes"?><!DOCTYPE svg PUBLIC "-//W3C//DTD SVG 1.1//EN" "http://www.w3.org/Graphics/SVG/1.1/DTD/svg11.dtd"[]><svg height="800.00" id="9677" width="1050.00" xmlns="http://www.w3.org/2000/svg" xmlns:xlink="http://www.w3.org/1999/xlink"><rect Type="system" Region="埃维希尔" height="5.00" y="550.00" Name="安加塔列" width="5.00" x="50.00" id="9678" ID="30003062" /><text x="50.00" y="550.00" id="9679">安加塔列</text><rect Type="system" Region="埃维希尔" height="5.00" y="100.00" Name="爱多陶克斯" width="5.00" x="50.00" id="9681" ID="30003055" /><text x="50.00" y="100.00" id="9682">爱多陶克斯</text><rect Type="system" Region="埃维希尔" height="5.00" y="600.00" Name="马纳尔" width="5.00" x="100.00" id="9684" ID="30003060" /><text x="100.00" y="600.00" id="9685">马纳尔</text><rect Type="system" Region="埃维希尔" height="5.00" y="550.00" Name="毛尔梅罗特" width="5.00" x="100.00" id="9687" ID="30003061" /><text x="100.00" y="550.00" id="9688">毛尔梅罗特</text><rect Type="system" Region="埃维希尔" height="5.00" y="650.00" Name="埃德尔" width="5.00" x="100.00" id="9690" ID="30003059" /><text x="100.00" y="650.00" id="9691">埃德尔</text><rect Type="system" Region="埃维希尔" height="5.00" y="350.00" Name="爵尔勒瑟" width="5.00" x="120.00" id="9693" ID="30003013" /><text x="120.00" y="350.00" id="9694">爵尔勒瑟</text><rect Type="system" Region="埃维希尔" height="5.00" y="100.00" Name="托尔勒" width="5.00" x="120.00" id="9696" ID="30003052" /><text x="120.00" y="100.00" id="9697">托尔勒</text><rect Type="system" Region="埃维希尔" height="5.00" y="620.00" Name="欧里德" width="5.00" x="150.00" id="9699" ID="30003058" /><text x="150.00" y="620.00" id="9700">欧里德</text><rect Type="system" Region="埃维希尔" height="5.00" y="300.00" Name="艾瑟" width="5.00" x="180.00" id="9702" ID="30003015" /><text x="180.00" y="300.00" id="9703">艾瑟</text><rect Type="system" Region="埃维希尔" height="5.00" y="420.00" Name="爱马特恩" width="5.00" x="200.00" id="9705" ID="30003012" /><text x="200.00" y="420.00" id="9706">爱马特恩</text><rect Type="system" Region="埃维希尔" height="5.00" y="100.00" Name="卡利庸汀" width="5.00" x="200.00" id="9708" ID="30003048" /><text x="200.00" y="100.00" id="9709">卡利庸汀</text><rect Type="system" Region="埃维希尔" height="5.00" y="180.00" Name="彻拉金斯" width="5.00" x="200.00" id="9711" ID="30003054" /><text x="200.00" y="180.00" id="9712">彻拉金斯</text><rect Type="system" Region="埃维希尔" height="5.00" y="650.00" Name="格鲁提西斯" width="5.00" x="220.00" id="9714" ID="30003057" /><text x="220.00" y="650.00" id="9715">格鲁提西斯</text><rect Type="system" Region="埃维希尔" height="5.00" y="350.00" Name="郡索尔特" width="5.00" x="220.00" id="9717" ID="30003016" /><text x="220.00" y="350.00" id="9718">郡索尔特</text><rect Type="system" Region="埃维希尔" height="5.00" y="50.00" Name="姆尔" width="5.00" x="280.00" id="9720" ID="30003056" /><text x="280.00" y="50.00" id="9721">姆尔</text><rect Type="system" Region="埃维希尔" height="5.00" y="100.00" Name="奥迪科希尔" width="5.00" x="300.00" id="9723" ID="30003050" /><text x="300.00" y="100.00" id="9724">奥迪科希尔</text><rect Type="system" Region="埃维希尔" height="5.00" y="175.50" Name="亚维伦" width="5.00" x="300.00" id="9726" ID="30003047" /><text x="300.00" y="175.50" id="9727">亚维伦</text><rect Type="system" Region="埃维希尔" height="5.00" y="300.00" Name="爱马特利" width="5.00" x="300.00" id="9729" ID="30003009" /><text x="300.00" y="300.00" id="9730">爱马特利</text><rect Type="system" Region="埃维希尔" height="5.00" y="520.00" Name="尤费勒" width="5.00" x="300.00" id="9732" ID="30003043" /><text x="300.00" y="520.00" id="9733">尤费勒</text><rect Type="system" Region="埃维希尔" height="5.00" y="400.00" Name="贝勒耶" width="5.00" x="300.00" id="9735" ID="30003014" /><text x="300.00" y="400.00" id="9736">贝勒耶</text><rect Type="system" Region="埃维希尔" height="5.00" y="224.50" Name="厄勒多尔" width="5.00" x="300.00" id="9738" ID="30003045" /><text x="300.00" y="224.50" id="9739">厄勒多尔</text><rect Type="system" Region="埃维希尔" height="5.00" y="621.91" Name="厄尔瑞" width="5.00" x="299.04" id="9741" ID="30003044" /><text x="299.04" y="621.91" id="9742">厄尔瑞</text><rect Type="system" Region="埃维希尔" height="5.00" y="578.09" Name="拜勒" width="5.00" x="320.96" id="9744" ID="30003040" /><text x="320.96" y="578.09" id="9745">拜勒</text><rect Type="system" Region="埃维希尔" height="5.00" y="280.00" Name="莫尔蒙" width="5.00" x="350.00" id="9747" ID="30003011" /><text x="350.00" y="280.00" id="9748">莫尔蒙</text><rect Type="system" Region="埃维希尔" height="5.00" y="350.00" Name="哈尔勒" width="5.00" x="350.00" id="9750" ID="30003010" /><text x="350.00" y="350.00" id="9751">哈尔勒</text><rect Type="system" Region="埃维希尔" height="5.00" y="221.91" Name="莱茨" width="5.00" x="379.04" id="9753" ID="30003049" /><text x="379.04" y="221.91" id="9754">莱茨</text><rect Type="system" Region="埃维希尔" height="5.00" y="178.09" Name="安托拉热" width="5.00" x="400.96" id="9756" ID="30003051" /><text x="400.96" y="178.09" id="9757">安托拉热</text><rect Type="system" Region="埃维希尔" height="5.00" y="500.00" Name="里瑞布洛佩斯" width="5.00" x="420.00" id="9759" ID="30003039" /><text x="420.00" y="500.00" id="9760">里瑞布洛佩斯</text><rect Type="system" Region="埃维希尔" height="5.00" y="550.00" Name="爱拉彻里" width="5.00" x="420.00" id="9762" ID="30003042" /><text x="420.00" y="550.00" id="9763">爱拉彻里</text><rect Type="system" Region="埃维希尔" height="5.00" y="220.00" Name="亚维尔" width="5.00" x="450.00" id="9765" ID="30003053" /><text x="450.00" y="220.00" id="9766">亚维尔</text><rect Type="system" Region="埃维希尔" height="5.00" y="450.00" Name="考茨尔" width="5.00" x="500.00" id="9768" ID="30003041" /><text x="500.00" y="450.00" id="9769">考茨尔</text><rect Type="system" Region="埃维希尔" height="5.00" y="620.00" Name="艾塔尼丝" width="5.00" x="500.00" id="9771" ID="30003038" /><text x="500.00" y="620.00" id="9772">艾塔尼丝</text><rect Type="system" Region="埃维希尔" height="5.00" y="320.00" Name="麦亚" width="5.00" x="550.00" id="9774" ID="30003022" /><text x="550.00" y="320.00" id="9775">麦亚</text><rect Type="system" Region="埃维希尔" height="5.00" y="250.00" Name="基尔佩尔" width="5.00" x="550.00" id="9777" ID="30003023" /><text x="550.00" y="250.00" id="9778">基尔佩尔</text><rect Type="system" Region="埃维希尔" height="5.00" y="378.09" Name="托维" width="5.00" x="579.04" id="9780" ID="30003020" /><text x="579.04" y="378.09" id="9781">托维</text><rect Type="system" Region="埃维希尔" height="5.00" y="421.91" Name="埃泽尔" width="5.00" x="600.96" id="9783" ID="30003018" /><text x="600.96" y="421.91" id="9784">埃泽尔</text><rect Type="system" Region="埃维希尔" height="5.00" y="480.00" Name="漠森" width="5.00" x="620.00" id="9786" ID="30003021" /><text x="620.00" y="480.00" id="9787">漠森</text><rect Type="system" Region="埃维希尔" height="5.00" y="600.00" Name="瓦乌尔特" width="5.00" x="650.00" id="9789" ID="30003027" /><text x="650.00" y="600.00" id="9790">瓦乌尔特</text><rect Type="system" Region="埃维希尔" height="5.00" y="80.00" Name="库伊尔" width="5.00" x="650.00" id="9792" ID="30003037" /><text x="650.00" y="80.00" id="9793">库伊尔</text><rect Type="system" Region="埃维希尔" height="5.00" y="350.00" Name="哈瑞格特" width="5.00" x="650.00" id="9795" ID="30003017" /><text x="650.00" y="350.00" id="9796">哈瑞格特</text><rect Type="system" Region="埃维希尔" height="5.00" y="450.00" Name="彻尔勒" width="5.00" x="680.00" id="9798" ID="30003019" /><text x="680.00" y="450.00" id="9799">彻尔勒</text><rect Type="system" Region="埃维希尔" height="5.00" y="550.00" Name="加舒尔茨" width="5.00" x="700.00" id="9801" ID="30003029" /><text x="700.00" y="550.00" id="9802">加舒尔茨</text><rect Type="system" Region="埃维希尔" height="5.00" y="630.00" Name="马洛希尔" width="5.00" x="730.00" id="9804" ID="30003024" /><text x="730.00" y="630.00" id="9805">马洛希尔</text><rect Type="system" Region="埃维希尔" height="5.00" y="570.00" Name="阿克兰" width="5.00" x="760.00" id="9807" ID="30003028" /><text x="760.00" y="570.00" id="9808">阿克兰</text><rect Type="system" Region="埃维希尔" height="5.00" y="120.00" Name="弗拉洛勒" width="5.00" x="750.00" id="9810" ID="30003036" /><text x="750.00" y="120.00" id="9811">弗拉洛勒</text><rect Type="system" Region="埃维希尔" height="5.00" y="676.23" Name="挨达拉拜尔" width="5.00" x="809.06" id="9813" ID="30003030" /><text x="809.06" y="676.23" id="9814">挨达拉拜尔</text><rect Type="system" Region="埃维希尔" height="5.00" y="600.00" Name="勒萨乌敦" width="5.00" x="800.00" id="9816" ID="30003025" /><text x="800.00" y="600.00" id="9817">勒萨乌敦</text><rect Type="system" Region="埃维希尔" height="5.00" y="180.00" Name="基科德" width="5.00" x="800.00" id="9819" ID="30003035" /><text x="800.00" y="180.00" id="9820">基科德</text><rect Type="system" Region="埃维希尔" height="5.00" y="250.00" Name="伊特尔尼迪" width="5.00" x="800.00" id="9822" ID="30003033" /><text x="800.00" y="250.00" id="9823">伊特尔尼迪</text><rect Type="system" Region="埃维希尔" height="5.00" y="300.00" Name="梅温斯" width="5.00" x="850.00" id="9825" ID="30003032" /><text x="850.00" y="300.00" id="9826">梅温斯</text><rect Type="system" Region="埃维希尔" height="5.00" y="520.00" Name="布拉梅斯顿" width="5.00" x="880.00" id="9828" ID="30003026" /><text x="880.00" y="520.00" id="9829">布拉梅斯顿</text><rect Type="system" Region="埃维希尔" height="5.00" y="220.00" Name="玛提瑞" width="5.00" x="900.00" id="9831" ID="30003034" /><text x="900.00" y="220.00" id="9832">玛提瑞</text><rect Type="system" Region="埃维希尔" height="5.00" y="280.00" Name="埃提纳的" width="5.00" x="920.00" id="9834" ID="30003031" /><text x="920.00" y="280.00" id="9835">埃提纳的</text><rect Type="system" Region="金纳泽" height="5.00" y="500.00" Name="里尔米勒维" width="5.00" x="20.00" id="9837" ID="30002728" /><text x="20.00" y="500.00" id="9838">里尔米勒维</text><rect Type="system" Region="吉勒西斯" height="5.00" y="50.00" Name="吉尼-法" width="5.00" x="50.00" id="9840" ID="30005288" /><text x="50.00" y="50.00" id="9841">吉尼-法</text><rect Type="system" Region="金纳泽" height="5.00" y="500.00" Name="舒拉撒拿" width="5.00" x="100.00" id="9843" ID="30002654" /><text x="100.00" y="500.00" id="9844">舒拉撒拿</text><rect Type="system" Region="吉勒西斯" height="5.00" y="50.00" Name="马纳克" width="5.00" x="100.00" id="9846" ID="30005201" /><text x="100.00" y="50.00" id="9847">马纳克</text><rect Type="system" Region="精华之域" height="5.00" y="400.00" Name="米尔斯" width="5.00" x="380.00" id="9849" ID="30004968" /><text x="380.00" y="400.00" id="9850">米尔斯</text><rect Type="system" Region="金纳泽" height="5.00" y="730.00" Name="布拉佩列" width="5.00" x="720.00" id="9852" ID="30002699" /><text x="720.00" y="730.00" id="9853">布拉佩列</text><rect Type="system" Region="金纳泽" height="5.00" y="280.00" Name="克莱辛" width="5.00" x="650.00" id="9855" ID="30002708" /><text x="650.00" y="280.00" id="9856">克莱辛</text><rect Type="system" Region="金纳泽" height="5.00" y="723.77" Name="杰尔" width="5.00" x="820.94" id="9858" ID="30002692" /><text x="820.94" y="723.77" id="9859">杰尔</text><rect Type="system" Region="金纳泽" height="5.00" y="500.00" Name="普林" width="5.00" x="750.00" id="9861" ID="30002662" /><text x="750.00" y="500.00" id="9862">普林</text><rect Type="system" Region="金纳泽" height="5.00" y="220.00" Name="博因列斯" width="5.00" x="750.00" id="9864" ID="30002715" /><text x="750.00" y="220.00" id="9865">博因列斯</text><rect Type="system" Region="金纳泽" height="5.00" y="690.00" Name="阿尔蒂尼" width="5.00" x="910.00" id="9867" ID="30002648" /><text x="910.00" y="690.00" id="9868">阿尔蒂尼</text><rect Type="system" Region="金纳泽" height="5.00" y="450.00" Name="维拉德" width="5.00" x="900.00" id="9870" ID="30002655" /><text x="900.00" y="450.00" id="9871">维拉德</text><rect Type="system" Region="金纳泽" height="5.00" y="150.00" Name="埃卓蓝德" width="5.00" x="920.00" id="9873" ID="30002639" /><text x="920.00" y="150.00" id="9874">埃卓蓝德</text><rect Type="system" Region="金纳泽" height="5.00" y="350.00" Name="多迪谢" width="5.00" x="920.00" id="9876" ID="30002659" /><text x="920.00" y="350.00" id="9877">多迪谢</text><rect Type="system" Region="金纳泽" height="5.00" y="200.00" Name="多苏维特" width="5.00" x="1000.00" id="9879" ID="30002706" /><text x="1000.00" y="200.00" id="9880">多苏维特</text><line x2="20.00" style="fill:blue;stroke:blue;" y1="550.00" x1="50.00" id="9882" y2="500.00" /><line x2="100.00" style="fill:blue;stroke:blue;" y1="550.00" x1="50.00" id="9883" y2="600.00" /><line x2="120.00" style="fill:blue;stroke:blue;" y1="100.00" x1="50.00" id="9884" y2="100.00" /><line x2="50.00" style="fill:blue;stroke:blue;" y1="100.00" x1="50.00" id="9885" y2="50.00" /><line x2="150.00" style="fill:blue;stroke:blue;" y1="600.00" x1="100.00" id="9886" y2="620.00" /><line x2="100.00" style="fill:blue;stroke:blue;" y1="600.00" x1="100.00" id="9887" y2="550.00" /><line x2="50.00" style="fill:blue;stroke:blue;" y1="600.00" x1="100.00" id="9888" y2="550.00" /><line x2="100.00" style="fill:blue;stroke:blue;" y1="550.00" x1="100.00" id="9889" y2="500.00" /><line x2="100.00" style="fill:blue;stroke:blue;" y1="550.00" x1="100.00" id="9890" y2="600.00" /><line x2="150.00" style="fill:blue;stroke:blue;" y1="650.00" x1="100.00" id="9891" y2="620.00" /><line x2="300.00" style="fill:blue;stroke:blue;" y1="350.00" x1="120.00" id="9892" y2="300.00" /><line x2="200.00" style="fill:blue;stroke:blue;" y1="350.00" x1="120.00" id="9893" y2="420.00" /><line x2="300.00" style="fill:blue;stroke:blue;" y1="350.00" x1="120.00" id="9894" y2="400.00" /><line x2="180.00" style="fill:blue;stroke:blue;" y1="350.00" x1="120.00" id="9895" y2="300.00" /><line x2="220.00" style="fill:blue;stroke:blue;" y1="350.00" x1="120.00" id="9896" y2="350.00" /><line x2="200.00" style="fill:blue;stroke:blue;" y1="100.00" x1="120.00" id="9897" y2="100.00" /><line x2="50.00" style="fill:blue;stroke:blue;" y1="100.00" x1="120.00" id="9898" y2="100.00" /><line x2="100.00" style="fill:blue;stroke:blue;" y1="100.00" x1="120.00" id="9899" y2="50.00" /><line x2="220.00" style="fill:blue;stroke:blue;" y1="620.00" x1="150.00" id="9900" y2="650.00" /><line x2="100.00" style="fill:blue;stroke:blue;" y1="620.00" x1="150.00" id="9901" y2="650.00" /><line x2="100.00" style="fill:blue;stroke:blue;" y1="620.00" x1="150.00" id="9902" y2="600.00" /><line x2="200.00" style="fill:blue;stroke:blue;" y1="300.00" x1="180.00" id="9903" y2="420.00" /><line x2="120.00" style="fill:blue;stroke:blue;" y1="300.00" x1="180.00" id="9904" y2="350.00" /><line x2="300.00" style="fill:blue;stroke:blue;" y1="300.00" x1="180.00" id="9905" y2="400.00" /><line x2="300.00" style="fill:blue;stroke:blue;" y1="300.00" x1="180.00" id="9906" y2="224.50" /><line x2="300.00" style="fill:blue;stroke:blue;" y1="420.00" x1="200.00" id="9907" y2="300.00" /><line x2="120.00" style="fill:blue;stroke:blue;" y1="420.00" x1="200.00" id="9908" y2="350.00" /><line x2="300.00" style="fill:blue;stroke:blue;" y1="420.00" x1="200.00" id="9909" y2="400.00" /><line x2="180.00" style="fill:blue;stroke:blue;" y1="420.00" x1="200.00" id="9910" y2="300.00" /><line x2="220.00" style="fill:blue;stroke:blue;" y1="420.00" x1="200.00" id="9911" y2="350.00" /><line x2="300.00" style="fill:blue;stroke:blue;" y1="420.00" x1="200.00" id="9912" y2="520.00" /><line x2="300.00" style="fill:blue;stroke:blue;" y1="100.00" x1="200.00" id="9913" y2="175.50" /><line x2="300.00" style="fill:blue;stroke:blue;" y1="100.00" x1="200.00" id="9914" y2="100.00" /><line x2="120.00" style="fill:blue;stroke:blue;" y1="100.00" x1="200.00" id="9915" y2="100.00" /><line x2="200.00" style="fill:blue;stroke:blue;" y1="100.00" x1="200.00" id="9916" y2="180.00" /><line x2="300.00" style="fill:blue;stroke:blue;" y1="180.00" x1="200.00" id="9917" y2="224.50" /><line x2="300.00" style="fill:blue;stroke:blue;" y1="180.00" x1="200.00" id="9918" y2="175.50" /><line x2="200.00" style="fill:blue;stroke:blue;" y1="180.00" x1="200.00" id="9919" y2="100.00" /><line x2="300.00" style="fill:blue;stroke:blue;" y1="180.00" x1="200.00" id="9920" y2="100.00" /><line x2="280.00" style="fill:blue;stroke:blue;" y1="180.00" x1="200.00" id="9921" y2="50.00" /><line x2="299.04" style="fill:blue;stroke:blue;" y1="650.00" x1="220.00" id="9922" y2="621.91" /><line x2="150.00" style="fill:blue;stroke:blue;" y1="650.00" x1="220.00" id="9923" y2="620.00" /><line x2="300.00" style="fill:blue;stroke:blue;" y1="350.00" x1="220.00" id="9924" y2="300.00" /><line x2="200.00" style="fill:blue;stroke:blue;" y1="350.00" x1="220.00" id="9925" y2="420.00" /><line x2="120.00" style="fill:blue;stroke:blue;" y1="350.00" x1="220.00" id="9926" y2="350.00" /><line x2="300.00" style="fill:blue;stroke:blue;" y1="50.00" x1="280.00" id="9927" y2="100.00" /><line x2="200.00" style="fill:blue;stroke:blue;" y1="50.00" x1="280.00" id="9928" y2="180.00" /><line x2="300.00" style="fill:blue;stroke:blue;" y1="100.00" x1="300.00" id="9929" y2="175.50" /><line x2="200.00" style="fill:blue;stroke:blue;" y1="100.00" x1="300.00" id="9930" y2="100.00" /><line x2="200.00" style="fill:blue;stroke:blue;" y1="100.00" x1="300.00" id="9931" y2="180.00" /><line x2="280.00" style="fill:blue;stroke:blue;" y1="100.00" x1="300.00" id="9932" y2="50.00" /><line x2="300.00" style="fill:blue;stroke:blue;" y1="175.50" x1="300.00" id="9933" y2="224.50" /><line x2="200.00" style="fill:blue;stroke:blue;" y1="175.50" x1="300.00" id="9934" y2="100.00" /><line x2="300.00" style="fill:blue;stroke:blue;" y1="175.50" x1="300.00" id="9935" y2="100.00" /><line x2="200.00" style="fill:blue;stroke:blue;" y1="175.50" x1="300.00" id="9936" y2="180.00" /><line x2="350.00" style="fill:blue;stroke:blue;" y1="300.00" x1="300.00" id="9937" y2="350.00" /><line x2="350.00" style="fill:blue;stroke:blue;" y1="300.00" x1="300.00" id="9938" y2="280.00" /><line x2="200.00" style="fill:blue;stroke:blue;" y1="300.00" x1="300.00" id="9939" y2="420.00" /><line x2="120.00" style="fill:blue;stroke:blue;" y1="300.00" x1="300.00" id="9940" y2="350.00" /><line x2="300.00" style="fill:blue;stroke:blue;" y1="300.00" x1="300.00" id="9941" y2="400.00" /><line x2="220.00" style="fill:blue;stroke:blue;" y1="300.00" x1="300.00" id="9942" y2="350.00" /><line x2="200.00" style="fill:blue;stroke:blue;" y1="520.00" x1="300.00" id="9943" y2="420.00" /><line x2="420.00" style="fill:blue;stroke:blue;" y1="520.00" x1="300.00" id="9944" y2="500.00" /><line x2="320.96" style="fill:blue;stroke:blue;" y1="520.00" x1="300.00" id="9945" y2="578.09" /><line x2="420.00" style="fill:blue;stroke:blue;" y1="520.00" x1="300.00" id="9946" y2="550.00" /><line x2="300.00" style="fill:blue;stroke:blue;" y1="400.00" x1="300.00" id="9947" y2="300.00" /><line x2="350.00" style="fill:blue;stroke:blue;" y1="400.00" x1="300.00" id="9948" y2="350.00" /><line x2="200.00" style="fill:blue;stroke:blue;" y1="400.00" x1="300.00" id="9949" y2="420.00" /><line x2="120.00" style="fill:blue;stroke:blue;" y1="400.00" x1="300.00" id="9950" y2="350.00" /><line x2="180.00" style="fill:blue;stroke:blue;" y1="400.00" x1="300.00" id="9951" y2="300.00" /><line x2="420.00" style="fill:blue;stroke:blue;" y1="400.00" x1="300.00" id="9952" y2="500.00" /><line x2="380.00" style="fill:blue;stroke:blue;" y1="400.00" x1="300.00" id="9953" y2="400.00" /><line x2="180.00" style="fill:blue;stroke:blue;" y1="224.50" x1="300.00" id="9954" y2="300.00" /><line x2="300.00" style="fill:blue;stroke:blue;" y1="224.50" x1="300.00" id="9955" y2="175.50" /><line x2="379.04" style="fill:blue;stroke:blue;" y1="224.50" x1="300.00" id="9956" y2="221.91" /><line x2="400.96" style="fill:blue;stroke:blue;" y1="224.50" x1="300.00" id="9957" y2="178.09" /><line x2="200.00" style="fill:blue;stroke:blue;" y1="224.50" x1="300.00" id="9958" y2="180.00" /><line x2="500.00" style="fill:blue;stroke:blue;" y1="621.91" x1="299.04" id="9959" y2="620.00" /><line x2="320.96" style="fill:blue;stroke:blue;" y1="621.91" x1="299.04" id="9960" y2="578.09" /><line x2="220.00" style="fill:blue;stroke:blue;" y1="621.91" x1="299.04" id="9961" y2="650.00" /><line x2="500.00" style="fill:blue;stroke:blue;" y1="578.09" x1="320.96" id="9962" y2="620.00" /><line x2="420.00" style="fill:blue;stroke:blue;" y1="578.09" x1="320.96" id="9963" y2="500.00" /><line x2="300.00" style="fill:blue;stroke:blue;" y1="578.09" x1="320.96" id="9964" y2="520.00" /><line x2="299.04" style="fill:blue;stroke:blue;" y1="578.09" x1="320.96" id="9965" y2="621.91" /><line x2="300.00" style="fill:blue;stroke:blue;" y1="280.00" x1="350.00" id="9966" y2="300.00" /><line x2="350.00" style="fill:blue;stroke:blue;" y1="280.00" x1="350.00" id="9967" y2="350.00" /><line x2="300.00" style="fill:blue;stroke:blue;" y1="350.00" x1="350.00" id="9968" y2="300.00" /><line x2="350.00" style="fill:blue;stroke:blue;" y1="350.00" x1="350.00" id="9969" y2="280.00" /><line x2="300.00" style="fill:blue;stroke:blue;" y1="350.00" x1="350.00" id="9970" y2="400.00" /><line x2="300.00" style="fill:blue;stroke:blue;" y1="221.91" x1="379.04" id="9971" y2="224.50" /><line x2="400.96" style="fill:blue;stroke:blue;" y1="221.91" x1="379.04" id="9972" y2="178.09" /><line x2="300.00" style="fill:blue;stroke:blue;" y1="178.09" x1="400.96" id="9973" y2="224.50" /><line x2="379.04" style="fill:blue;stroke:blue;" y1="178.09" x1="400.96" id="9974" y2="221.91" /><line x2="450.00" style="fill:blue;stroke:blue;" y1="178.09" x1="400.96" id="9975" y2="220.00" /><line x2="300.00" style="fill:blue;stroke:blue;" y1="500.00" x1="420.00" id="9976" y2="400.00" /><line x2="500.00" style="fill:blue;stroke:blue;" y1="500.00" x1="420.00" id="9977" y2="620.00" /><line x2="320.96" style="fill:blue;stroke:blue;" y1="500.00" x1="420.00" id="9978" y2="578.09" /><line x2="500.00" style="fill:blue;stroke:blue;" y1="500.00" x1="420.00" id="9979" y2="450.00" /><line x2="300.00" style="fill:blue;stroke:blue;" y1="500.00" x1="420.00" id="9980" y2="520.00" /><line x2="450.00" style="fill:blue;stroke:blue;" y1="500.00" x1="420.00" id="9981" y2="220.00" /><line x2="500.00" style="fill:blue;stroke:blue;" y1="550.00" x1="420.00" id="9982" y2="620.00" /><line x2="300.00" style="fill:blue;stroke:blue;" y1="550.00" x1="420.00" id="9983" y2="520.00" /><line x2="420.00" style="fill:blue;stroke:blue;" y1="220.00" x1="450.00" id="9984" y2="500.00" /><line x2="400.96" style="fill:blue;stroke:blue;" y1="220.00" x1="450.00" id="9985" y2="178.09" /><line x2="420.00" style="fill:blue;stroke:blue;" y1="450.00" x1="500.00" id="9986" y2="500.00" /><line x2="600.96" style="fill:blue;stroke:blue;" y1="620.00" x1="500.00" id="9987" y2="421.91" /><line x2="650.00" style="fill:blue;stroke:blue;" y1="620.00" x1="500.00" id="9988" y2="600.00" /><line x2="420.00" style="fill:blue;stroke:blue;" y1="620.00" x1="500.00" id="9989" y2="500.00" /><line x2="320.96" style="fill:blue;stroke:blue;" y1="620.00" x1="500.00" id="9990" y2="578.09" /><line x2="420.00" style="fill:blue;stroke:blue;" y1="620.00" x1="500.00" id="9991" y2="550.00" /><line x2="299.04" style="fill:blue;stroke:blue;" y1="620.00" x1="500.00" id="9992" y2="621.91" /><line x2="579.04" style="fill:blue;stroke:blue;" y1="320.00" x1="550.00" id="9993" y2="378.09" /><line x2="550.00" style="fill:blue;stroke:blue;" y1="320.00" x1="550.00" id="9994" y2="250.00" /><line x2="550.00" style="fill:blue;stroke:blue;" y1="250.00" x1="550.00" id="9995" y2="320.00" /><line x2="600.96" style="fill:blue;stroke:blue;" y1="378.09" x1="579.04" id="9996" y2="421.91" /><line x2="550.00" style="fill:blue;stroke:blue;" y1="378.09" x1="579.04" id="9997" y2="320.00" /><line x2="650.00" style="fill:blue;stroke:blue;" y1="421.91" x1="600.96" id="9998" y2="350.00" /><line x2="680.00" style="fill:blue;stroke:blue;" y1="421.91" x1="600.96" id="9999" y2="450.00" /><line x2="579.04" style="fill:blue;stroke:blue;" y1="421.91" x1="600.96" id="10000" y2="378.09" /><line x2="620.00" style="fill:blue;stroke:blue;" y1="421.91" x1="600.96" id="10001" y2="480.00" /><line x2="500.00" style="fill:blue;stroke:blue;" y1="421.91" x1="600.96" id="10002" y2="620.00" /><line x2="600.96" style="fill:blue;stroke:blue;" y1="480.00" x1="620.00" id="10003" y2="421.91" /><line x2="680.00" style="fill:blue;stroke:blue;" y1="480.00" x1="620.00" id="10004" y2="450.00" /><line x2="650.00" style="fill:blue;stroke:blue;" y1="480.00" x1="620.00" id="10005" y2="600.00" /><line x2="620.00" style="fill:blue;stroke:blue;" y1="600.00" x1="650.00" id="10006" y2="480.00" /><line x2="730.00" style="fill:blue;stroke:blue;" y1="600.00" x1="650.00" id="10007" y2="630.00" /><line x2="700.00" style="fill:blue;stroke:blue;" y1="600.00" x1="650.00" id="10008" y2="550.00" /><line x2="500.00" style="fill:blue;stroke:blue;" y1="600.00" x1="650.00" id="10009" y2="620.00" /><line x2="750.00" style="fill:blue;stroke:blue;" y1="80.00" x1="650.00" id="10010" y2="120.00" /><line x2="650.00" style="fill:blue;stroke:blue;" y1="350.00" x1="650.00" id="10011" y2="280.00" /><line x2="600.96" style="fill:blue;stroke:blue;" y1="350.00" x1="650.00" id="10012" y2="421.91" /><line x2="680.00" style="fill:blue;stroke:blue;" y1="350.00" x1="650.00" id="10013" y2="450.00" /><line x2="800.00" style="fill:blue;stroke:blue;" y1="350.00" x1="650.00" id="10014" y2="250.00" /><line x2="650.00" style="fill:blue;stroke:blue;" y1="450.00" x1="680.00" id="10015" y2="350.00" /><line x2="600.96" style="fill:blue;stroke:blue;" y1="450.00" x1="680.00" id="10016" y2="421.91" /><line x2="620.00" style="fill:blue;stroke:blue;" y1="450.00" x1="680.00" id="10017" y2="480.00" /><line x2="700.00" style="fill:blue;stroke:blue;" y1="450.00" x1="680.00" id="10018" y2="550.00" /><line x2="750.00" style="fill:blue;stroke:blue;" y1="550.00" x1="700.00" id="10019" y2="500.00" /><line x2="680.00" style="fill:blue;stroke:blue;" y1="550.00" x1="700.00" id="10020" y2="450.00" /><line x2="730.00" style="fill:blue;stroke:blue;" y1="550.00" x1="700.00" id="10021" y2="630.00" /><line x2="650.00" style="fill:blue;stroke:blue;" y1="550.00" x1="700.00" id="10022" y2="600.00" /><line x2="760.00" style="fill:blue;stroke:blue;" y1="550.00" x1="700.00" id="10023" y2="570.00" /><line x2="800.00" style="fill:blue;stroke:blue;" y1="630.00" x1="730.00" id="10024" y2="600.00" /><line x2="650.00" style="fill:blue;stroke:blue;" y1="630.00" x1="730.00" id="10025" y2="600.00" /><line x2="700.00" style="fill:blue;stroke:blue;" y1="630.00" x1="730.00" id="10026" y2="550.00" /><line x2="700.00" style="fill:blue;stroke:blue;" y1="570.00" x1="760.00" id="10027" y2="550.00" /><line x2="800.00" style="fill:blue;stroke:blue;" y1="120.00" x1="750.00" id="10028" y2="180.00" /><line x2="650.00" style="fill:blue;stroke:blue;" y1="120.00" x1="750.00" id="10029" y2="80.00" /><line x2="910.00" style="fill:blue;stroke:blue;" y1="676.23" x1="809.06" id="10030" y2="690.00" /><line x2="820.94" style="fill:blue;stroke:blue;" y1="676.23" x1="809.06" id="10031" y2="723.77" /><line x2="720.00" style="fill:blue;stroke:blue;" y1="676.23" x1="809.06" id="10032" y2="730.00" /><line x2="800.00" style="fill:blue;stroke:blue;" y1="676.23" x1="809.06" id="10033" y2="600.00" /><line x2="730.00" style="fill:blue;stroke:blue;" y1="600.00" x1="800.00" id="10034" y2="630.00" /><line x2="880.00" style="fill:blue;stroke:blue;" y1="600.00" x1="800.00" id="10035" y2="520.00" /><line x2="809.06" style="fill:blue;stroke:blue;" y1="600.00" x1="800.00" id="10036" y2="676.23" /><line x2="850.00" style="fill:blue;stroke:blue;" y1="600.00" x1="800.00" id="10037" y2="300.00" /><line x2="800.00" style="fill:blue;stroke:blue;" y1="180.00" x1="800.00" id="10038" y2="250.00" /><line x2="900.00" style="fill:blue;stroke:blue;" y1="180.00" x1="800.00" id="10039" y2="220.00" /><line x2="750.00" style="fill:blue;stroke:blue;" y1="180.00" x1="800.00" id="10040" y2="120.00" /><line x2="750.00" style="fill:blue;stroke:blue;" y1="250.00" x1="800.00" id="10041" y2="220.00" /><line x2="650.00" style="fill:blue;stroke:blue;" y1="250.00" x1="800.00" id="10042" y2="350.00" /><line x2="920.00" style="fill:blue;stroke:blue;" y1="250.00" x1="800.00" id="10043" y2="280.00" /><line x2="850.00" style="fill:blue;stroke:blue;" y1="250.00" x1="800.00" id="10044" y2="300.00" /><line x2="900.00" style="fill:blue;stroke:blue;" y1="250.00" x1="800.00" id="10045" y2="220.00" /><line x2="800.00" style="fill:blue;stroke:blue;" y1="250.00" x1="800.00" id="10046" y2="180.00" /><line x2="920.00" style="fill:blue;stroke:blue;" y1="300.00" x1="850.00" id="10047" y2="350.00" /><line x2="800.00" style="fill:blue;stroke:blue;" y1="300.00" x1="850.00" id="10048" y2="600.00" /><line x2="920.00" style="fill:blue;stroke:blue;" y1="300.00" x1="850.00" id="10049" y2="280.00" /><line x2="800.00" style="fill:blue;stroke:blue;" y1="300.00" x1="850.00" id="10050" y2="250.00" /><line x2="900.00" style="fill:blue;stroke:blue;" y1="300.00" x1="850.00" id="10051" y2="220.00" /><line x2="900.00" style="fill:blue;stroke:blue;" y1="520.00" x1="880.00" id="10052" y2="450.00" /><line x2="800.00" style="fill:blue;stroke:blue;" y1="520.00" x1="880.00" id="10053" y2="600.00" /><line x2="920.00" style="fill:blue;stroke:blue;" y1="220.00" x1="900.00" id="10054" y2="150.00" /><line x2="1000.00" style="fill:blue;stroke:blue;" y1="220.00" x1="900.00" id="10055" y2="200.00" /><line x2="850.00" style="fill:blue;stroke:blue;" y1="220.00" x1="900.00" id="10056" y2="300.00" /><line x2="800.00" style="fill:blue;stroke:blue;" y1="220.00" x1="900.00" id="10057" y2="250.00" /><line x2="800.00" style="fill:blue;stroke:blue;" y1="220.00" x1="900.00" id="10058" y2="180.00" /><line x2="920.00" style="fill:blue;stroke:blue;" y1="280.00" x1="920.00" id="10059" y2="350.00" /><line x2="850.00" style="fill:blue;stroke:blue;" y1="280.00" x1="920.00" id="10060" y2="300.00" /><line x2="800.00" style="fill:blue;stroke:blue;" y1="280.00" x1="920.00" id="10061" y2="250.00" /><line x2="50.00" style="fill:blue;stroke:blue;" y1="500.00" x1="20.00" id="10062" y2="550.00" /><line x2="50.00" style="fill:blue;stroke:blue;" y1="50.00" x1="50.00" id="10063" y2="100.00" /><line x2="100.00" style="fill:blue;stroke:blue;" y1="500.00" x1="100.00" id="10064" y2="550.00" /><line x2="120.00" style="fill:blue;stroke:blue;" y1="50.00" x1="100.00" id="10065" y2="100.00" /><line x2="300.00" style="fill:blue;stroke:blue;" y1="400.00" x1="380.00" id="10066" y2="400.00" /><line x2="809.06" style="fill:blue;stroke:blue;" y1="730.00" x1="720.00" id="10067" y2="676.23" /><line x2="650.00" style="fill:blue;stroke:blue;" y1="280.00" x1="650.00" id="10068" y2="350.00" /><line x2="809.06" style="fill:blue;stroke:blue;" y1="723.77" x1="820.94" id="10069" y2="676.23" /><line x2="700.00" style="fill:blue;stroke:blue;" y1="500.00" x1="750.00" id="10070" y2="550.00" /><line x2="800.00" style="fill:blue;stroke:blue;" y1="220.00" x1="750.00" id="10071" y2="250.00" /><line x2="809.06" style="fill:blue;stroke:blue;" y1="690.00" x1="910.00" id="10072" y2="676.23" /><line x2="920.00" style="fill:blue;stroke:blue;" y1="450.00" x1="900.00" id="10073" y2="350.00" /><line x2="880.00" style="fill:blue;stroke:blue;" y1="450.00" x1="900.00" id="10074" y2="520.00" /><line x2="900.00" style="fill:blue;stroke:blue;" y1="150.00" x1="920.00" id="10075" y2="220.00" /><line x2="900.00" style="fill:blue;stroke:blue;" y1="350.00" x1="920.00" id="10076" y2="450.00" /><line x2="920.00" style="fill:blue;stroke:blue;" y1="350.00" x1="920.00" id="10077" y2="280.00" /><line x2="850.00" style="fill:blue;stroke:blue;" y1="350.00" x1="920.00" id="10078" y2="300.00" /><line x2="900.00" style="fill:blue;stroke:blue;" y1="200.00" x1="1000.00" id="10079" y2="220.00" /></svg>
