<?xml version="1.0" standalone="yes"?><!DOCTYPE svg PUBLIC "-//W3C//DTD SVG 1.1//EN" "http://www.w3.org/Graphics/SVG/1.1/DTD/svg11.dtd"[]><svg height="800.00" id="21134" width="1050.00" xmlns="http://www.w3.org/2000/svg" xmlns:xlink="http://www.w3.org/1999/xlink"><rect Type="system" Region="域外走廊" height="5.00" y="182.32" Name="2-84WC" width="5.00" x="17.68" id="21135" ID="30001786" /><text x="17.68" y="182.32" id="21136">2-84WC</text><rect Type="system" Region="域外走廊" height="5.00" y="450.00" Name="F-WCLC" width="5.00" x="20.00" id="21138" ID="30001801" /><text x="20.00" y="450.00" id="21139">F-WCLC</text><rect Type="system" Region="域外走廊" height="5.00" y="147.68" Name="24I-FE" width="5.00" x="52.32" id="21141" ID="30001784" /><text x="52.32" y="147.68" id="21142">24I-FE</text><rect Type="system" Region="域外走廊" height="5.00" y="500.00" Name="2WU-XT" width="5.00" x="50.00" id="21144" ID="30001799" /><text x="50.00" y="500.00" id="21145">2WU-XT</text><rect Type="system" Region="域外走廊" height="5.00" y="20.00" Name="U-FQ21" width="5.00" x="50.00" id="21147" ID="30001788" /><text x="50.00" y="20.00" id="21148">U-FQ21</text><rect Type="system" Region="域外走廊" height="5.00" y="70.00" Name="V-SEE6" width="5.00" x="70.00" id="21150" ID="30001787" /><text x="70.00" y="70.00" id="21151">V-SEE6</text><rect Type="system" Region="域外走廊" height="5.00" y="110.00" Name="QOK-SX" width="5.00" x="100.00" id="21153" ID="30001783" /><text x="100.00" y="110.00" id="21154">QOK-SX</text><rect Type="system" Region="域外走廊" height="5.00" y="300.00" Name="L1YK-V" width="5.00" x="100.00" id="21156" ID="30001809" /><text x="100.00" y="300.00" id="21157">L1YK-V</text><rect Type="system" Region="域外走廊" height="5.00" y="550.00" Name="9S-GPT" width="5.00" x="120.00" id="21159" ID="30001796" /><text x="120.00" y="550.00" id="21160">9S-GPT</text><rect Type="system" Region="域外走廊" height="5.00" y="700.00" Name="LTT-AP" width="5.00" x="120.00" id="21162" ID="30001804" /><text x="120.00" y="700.00" id="21163">LTT-AP</text><rect Type="system" Region="域外走廊" height="5.00" y="70.00" Name="4H-YJZ" width="5.00" x="130.00" id="21165" ID="30001785" /><text x="130.00" y="70.00" id="21166">4H-YJZ</text><rect Type="system" Region="域外走廊" height="5.00" y="200.00" Name="8RL-OG" width="5.00" x="150.00" id="21168" ID="30001805" /><text x="150.00" y="200.00" id="21169">8RL-OG</text><rect Type="system" Region="域外走廊" height="5.00" y="350.00" Name="SN-Q1T" width="5.00" x="150.00" id="21171" ID="30001808" /><text x="150.00" y="350.00" id="21172">SN-Q1T</text><rect Type="system" Region="域外走廊" height="5.00" y="150.00" Name="DJ-GBH" width="5.00" x="150.00" id="21174" ID="30001781" /><text x="150.00" y="150.00" id="21175">DJ-GBH</text><rect Type="system" Region="域外走廊" height="5.00" y="620.00" Name="J7X-VN" width="5.00" x="150.00" id="21177" ID="30001800" /><text x="150.00" y="620.00" id="21178">J7X-VN</text><rect Type="system" Region="域外走廊" height="5.00" y="250.00" Name="R3P0-Z" width="5.00" x="150.00" id="21180" ID="30001806" /><text x="150.00" y="250.00" id="21181">R3P0-Z</text><rect Type="system" Region="域外走廊" height="5.00" y="580.00" Name="UAJ5-K" width="5.00" x="200.00" id="21183" ID="30001797" /><text x="200.00" y="580.00" id="21184">UAJ5-K</text><rect Type="system" Region="域外走廊" height="5.00" y="680.00" Name="YC-ANK" width="5.00" x="200.00" id="21186" ID="30001803" /><text x="200.00" y="680.00" id="21187">YC-ANK</text><rect Type="system" Region="域外走廊" height="5.00" y="100.00" Name="SN-DZ6" width="5.00" x="200.00" id="21189" ID="30001780" /><text x="200.00" y="100.00" id="21190">SN-DZ6</text><rect Type="system" Region="域外走廊" height="5.00" y="520.00" Name="XJ-AG7" width="5.00" x="200.00" id="21192" ID="30001798" /><text x="200.00" y="520.00" id="21193">XJ-AG7</text><rect Type="system" Region="域外走廊" height="5.00" y="320.00" Name="ZZK-VF" width="5.00" x="200.00" id="21195" ID="30001807" /><text x="200.00" y="320.00" id="21196">ZZK-VF</text><rect Type="system" Region="域外走廊" height="5.00" y="650.00" Name="G-HE0N" width="5.00" x="250.00" id="21198" ID="30001802" /><text x="250.00" y="650.00" id="21199">G-HE0N</text><rect Type="system" Region="域外走廊" height="5.00" y="150.00" Name="I0N-BM" width="5.00" x="250.00" id="21201" ID="30001782" /><text x="250.00" y="150.00" id="21202">I0N-BM</text><rect Type="system" Region="域外走廊" height="5.00" y="600.00" Name="JUE-DX" width="5.00" x="250.00" id="21204" ID="30001743" /><text x="250.00" y="600.00" id="21205">JUE-DX</text><rect Type="system" Region="域外走廊" height="5.00" y="350.00" Name="ZJ-5IS" width="5.00" x="280.00" id="21207" ID="30001810" /><text x="280.00" y="350.00" id="21208">ZJ-5IS</text><rect Type="system" Region="域外走廊" height="5.00" y="100.00" Name="0-4VQL" width="5.00" x="280.00" id="21210" ID="30001779" /><text x="280.00" y="100.00" id="21211">0-4VQL</text><rect Type="system" Region="域外走廊" height="5.00" y="720.00" Name="M4U-EH" width="5.00" x="300.00" id="21213" ID="30001754" /><text x="300.00" y="720.00" id="21214">M4U-EH</text><rect Type="system" Region="域外走廊" height="5.00" y="400.00" Name="UC-8XF" width="5.00" x="320.00" id="21216" ID="30001813" /><text x="320.00" y="400.00" id="21217">UC-8XF</text><rect Type="system" Region="域外走廊" height="5.00" y="80.00" Name="FVQF-W" width="5.00" x="350.00" id="21219" ID="30001775" /><text x="350.00" y="80.00" id="21220">FVQF-W</text><rect Type="system" Region="域外走廊" height="5.00" y="350.00" Name="GA58-7" width="5.00" x="380.00" id="21222" ID="30001811" /><text x="380.00" y="350.00" id="21223">GA58-7</text><rect Type="system" Region="域外走廊" height="5.00" y="600.00" Name="HLR-GL" width="5.00" x="380.00" id="21225" ID="30001744" /><text x="380.00" y="600.00" id="21226">HLR-GL</text><rect Type="system" Region="域外走廊" height="5.00" y="650.00" Name="80G-H5" width="5.00" x="380.00" id="21228" ID="30001745" /><text x="380.00" y="650.00" id="21229">80G-H5</text><rect Type="system" Region="域外走廊" height="5.00" y="700.00" Name="QHH-13" width="5.00" x="380.00" id="21231" ID="30001749" /><text x="380.00" y="700.00" id="21232">QHH-13</text><rect Type="system" Region="域外走廊" height="5.00" y="750.00" Name="J4AQ-O" width="5.00" x="380.00" id="21234" ID="30001750" /><text x="380.00" y="750.00" id="21235">J4AQ-O</text><rect Type="system" Region="域外走廊" height="5.00" y="500.00" Name="RQNF-9" width="5.00" x="400.00" id="21237" ID="30001830" /><text x="400.00" y="500.00" id="21238">RQNF-9</text><rect Type="system" Region="域外走廊" height="5.00" y="80.00" Name="2ID-87" width="5.00" x="420.00" id="21240" ID="30001774" /><text x="420.00" y="80.00" id="21241">2ID-87</text><rect Type="system" Region="域外走廊" height="5.00" y="420.00" Name="90-A1P" width="5.00" x="420.00" id="21243" ID="30001814" /><text x="420.00" y="420.00" id="21244">90-A1P</text><rect Type="system" Region="域外走廊" height="5.00" y="596.50" Name="2EV-BA" width="5.00" x="450.00" id="21246" ID="30001746" /><text x="450.00" y="596.50" id="21247">2EV-BA</text><rect Type="system" Region="域外走廊" height="5.00" y="645.50" Name="M1-PX9" width="5.00" x="450.00" id="21249" ID="30001747" /><text x="450.00" y="645.50" id="21250">M1-PX9</text><rect Type="system" Region="域外走廊" height="5.00" y="743.50" Name="O-O2GN" width="5.00" x="450.00" id="21252" ID="30001751" /><text x="450.00" y="743.50" id="21253">O-O2GN</text><rect Type="system" Region="域外走廊" height="5.00" y="694.50" Name="I-HRX3" width="5.00" x="450.00" id="21255" ID="30001752" /><text x="450.00" y="694.50" id="21256">I-HRX3</text><rect Type="system" Region="域外走廊" height="5.00" y="300.00" Name="4AZV-W" width="5.00" x="450.00" id="21258" ID="30001815" /><text x="450.00" y="300.00" id="21259">4AZV-W</text><rect Type="system" Region="域外走廊" height="5.00" y="350.00" Name="J-0KB3" width="5.00" x="450.00" id="21261" ID="30001812" /><text x="450.00" y="350.00" id="21262">J-0KB3</text><rect Type="system" Region="域外走廊" height="5.00" y="250.00" Name="7F-2FB" width="5.00" x="450.00" id="21264" ID="30001817" /><text x="450.00" y="250.00" id="21265">7F-2FB</text><rect Type="system" Region="域外走廊" height="5.00" y="500.00" Name="4O-ZRI" width="5.00" x="480.00" id="21267" ID="30001828" /><text x="480.00" y="500.00" id="21268">4O-ZRI</text><rect Type="system" Region="域外走廊" height="5.00" y="79.04" Name="8K-QCZ" width="5.00" x="478.09" id="21270" ID="30001776" /><text x="478.09" y="79.04" id="21271">8K-QCZ</text><rect Type="system" Region="域外走廊" height="5.00" y="620.00" Name="W9-TFD" width="5.00" x="500.00" id="21273" ID="30001748" /><text x="500.00" y="620.00" id="21274">W9-TFD</text><rect Type="system" Region="域外走廊" height="5.00" y="720.00" Name="XUPK-Z" width="5.00" x="520.00" id="21276" ID="30001753" /><text x="520.00" y="720.00" id="21277">XUPK-Z</text><rect Type="system" Region="域外走廊" height="5.00" y="100.96" Name="XDTW-F" width="5.00" x="521.91" id="21279" ID="30001778" /><text x="521.91" y="100.96" id="21280">XDTW-F</text><rect Type="system" Region="域外走廊" height="5.00" y="350.00" Name="UNV-3J" width="5.00" x="520.00" id="21282" ID="30001816" /><text x="520.00" y="350.00" id="21283">UNV-3J</text><rect Type="system" Region="域外走廊" height="5.00" y="50.00" Name="JBUH-H" width="5.00" x="550.00" id="21285" ID="30001777" /><text x="550.00" y="50.00" id="21286">JBUH-H</text><rect Type="system" Region="域外走廊" height="5.00" y="450.00" Name="CNHV-M" width="5.00" x="550.00" id="21288" ID="30001825" /><text x="550.00" y="450.00" id="21289">CNHV-M</text><rect Type="system" Region="域外走廊" height="5.00" y="500.00" Name="NEU-UD" width="5.00" x="550.00" id="21291" ID="30001826" /><text x="550.00" y="500.00" id="21292">NEU-UD</text><rect Type="system" Region="域外走廊" height="5.00" y="550.00" Name="Y-7XVJ" width="5.00" x="550.00" id="21294" ID="30001829" /><text x="550.00" y="550.00" id="21295">Y-7XVJ</text><rect Type="system" Region="域外走廊" height="5.00" y="300.00" Name="3-QNM4" width="5.00" x="630.00" id="21297" ID="30001820" /><text x="630.00" y="300.00" id="21298">3-QNM4</text><rect Type="system" Region="域外走廊" height="5.00" y="350.00" Name="MC4C-H" width="5.00" x="620.00" id="21300" ID="30001818" /><text x="620.00" y="350.00" id="21301">MC4C-H</text><rect Type="system" Region="域外走廊" height="5.00" y="500.00" Name="N-I024" width="5.00" x="620.00" id="21303" ID="30001827" /><text x="620.00" y="500.00" id="21304">N-I024</text><rect Type="system" Region="域外走廊" height="5.00" y="150.00" Name="Y-UO9U" width="5.00" x="620.00" id="21306" ID="30001791" /><text x="620.00" y="150.00" id="21307">Y-UO9U</text><rect Type="system" Region="域外走廊" height="5.00" y="450.00" Name="ZEZ1-9" width="5.00" x="650.00" id="21309" ID="30001765" /><text x="650.00" y="450.00" id="21310">ZEZ1-9</text><rect Type="system" Region="域外走廊" height="5.00" y="620.00" Name="WK2F-Y" width="5.00" x="650.00" id="21312" ID="30001755" /><text x="650.00" y="620.00" id="21313">WK2F-Y</text><rect Type="system" Region="域外走廊" height="5.00" y="50.00" Name="NHKO-4" width="5.00" x="650.00" id="21315" ID="30001789" /><text x="650.00" y="50.00" id="21316">NHKO-4</text><rect Type="system" Region="域外走廊" height="5.00" y="100.00" Name="KGCF-5" width="5.00" x="650.00" id="21318" ID="30001790" /><text x="650.00" y="100.00" id="21319">KGCF-5</text><rect Type="system" Region="域外走廊" height="5.00" y="350.00" Name="OW-QXW" width="5.00" x="700.00" id="21321" ID="30001819" /><text x="700.00" y="350.00" id="21322">OW-QXW</text><rect Type="system" Region="域外走廊" height="5.00" y="650.00" Name="WIO-OL" width="5.00" x="700.00" id="21324" ID="30001756" /><text x="700.00" y="650.00" id="21325">WIO-OL</text><rect Type="system" Region="域外走廊" height="5.00" y="580.00" Name="YQM-P1" width="5.00" x="700.00" id="21327" ID="30001758" /><text x="700.00" y="580.00" id="21328">YQM-P1</text><rect Type="system" Region="域外走廊" height="5.00" y="150.00" Name="XME-SW" width="5.00" x="700.00" id="21330" ID="30001792" /><text x="700.00" y="150.00" id="21331">XME-SW</text><rect Type="system" Region="域外走廊" height="5.00" y="50.00" Name="VH-9VO" width="5.00" x="750.00" id="21333" ID="30001794" /><text x="750.00" y="50.00" id="21334">VH-9VO</text><rect Type="system" Region="域外走廊" height="5.00" y="100.00" Name="JX-SOA" width="5.00" x="750.00" id="21336" ID="30001793" /><text x="750.00" y="100.00" id="21337">JX-SOA</text><rect Type="system" Region="域外走廊" height="5.00" y="450.00" Name="K4UV-G" width="5.00" x="750.00" id="21339" ID="30001762" /><text x="750.00" y="450.00" id="21340">K4UV-G</text><rect Type="system" Region="域外走廊" height="5.00" y="550.00" Name="D-JVGJ" width="5.00" x="750.00" id="21342" ID="30001761" /><text x="750.00" y="550.00" id="21343">D-JVGJ</text><rect Type="system" Region="域外走廊" height="5.00" y="680.00" Name="1-10QG" width="5.00" x="780.00" id="21345" ID="30001757" /><text x="780.00" y="680.00" id="21346">1-10QG</text><rect Type="system" Region="域外走廊" height="5.00" y="321.91" Name="UEPO-D" width="5.00" x="779.04" id="21348" ID="30001821" /><text x="779.04" y="321.91" id="21349">UEPO-D</text><rect Type="system" Region="域外走廊" height="5.00" y="278.09" Name="P-8PDJ" width="5.00" x="800.96" id="21351" ID="30001823" /><text x="800.96" y="278.09" id="21352">P-8PDJ</text><rect Type="system" Region="域外走廊" height="5.00" y="570.00" Name="TFPT-U" width="5.00" x="840.00" id="21354" ID="30001760" /><text x="840.00" y="570.00" id="21355">TFPT-U</text><rect Type="system" Region="域外走廊" height="5.00" y="650.00" Name="6-GRN7" width="5.00" x="840.00" id="21357" ID="30001759" /><text x="840.00" y="650.00" id="21358">6-GRN7</text><rect Type="system" Region="域外走廊" height="5.00" y="320.00" Name="NQ-M6W" width="5.00" x="850.00" id="21360" ID="30001822" /><text x="850.00" y="320.00" id="21361">NQ-M6W</text><rect Type="system" Region="域外走廊" height="5.00" y="80.00" Name="P-T9VC" width="5.00" x="850.00" id="21363" ID="30001795" /><text x="850.00" y="80.00" id="21364">P-T9VC</text><rect Type="system" Region="域外走廊" height="5.00" y="420.00" Name="Q7E-DU" width="5.00" x="850.00" id="21366" ID="30001763" /><text x="850.00" y="420.00" id="21367">Q7E-DU</text><rect Type="system" Region="域外走廊" height="5.00" y="500.00" Name="9Z-XJN" width="5.00" x="850.00" id="21369" ID="30001764" /><text x="850.00" y="500.00" id="21370">9Z-XJN</text><rect Type="system" Region="域外走廊" height="5.00" y="150.00" Name="2ULC-J" width="5.00" x="880.00" id="21372" ID="30001770" /><text x="880.00" y="150.00" id="21373">2ULC-J</text><rect Type="system" Region="域外走廊" height="5.00" y="220.00" Name="EZWQ-X" width="5.00" x="880.00" id="21375" ID="30001769" /><text x="880.00" y="220.00" id="21376">EZWQ-X</text><rect Type="system" Region="域外走廊" height="5.00" y="280.00" Name="VE-W7O" width="5.00" x="900.00" id="21378" ID="30001824" /><text x="900.00" y="280.00" id="21379">VE-W7O</text><rect Type="system" Region="域外走廊" height="5.00" y="150.00" Name="T0DT-T" width="5.00" x="950.00" id="21381" ID="30001771" /><text x="950.00" y="150.00" id="21382">T0DT-T</text><rect Type="system" Region="域外走廊" height="5.00" y="220.00" Name="8-AA98" width="5.00" x="950.00" id="21384" ID="30001768" /><text x="950.00" y="220.00" id="21385">8-AA98</text><rect Type="system" Region="域外走廊" height="5.00" y="380.00" Name="HZID-J" width="5.00" x="950.00" id="21387" ID="30001767" /><text x="950.00" y="380.00" id="21388">HZID-J</text><rect Type="system" Region="域外走廊" height="5.00" y="540.00" Name="QFRV-2" width="5.00" x="950.00" id="21390" ID="30001766" /><text x="950.00" y="540.00" id="21391">QFRV-2</text><rect Type="system" Region="域外走廊" height="5.00" y="278.09" Name="QG3-Z0" width="5.00" x="979.04" id="21393" ID="30001772" /><text x="979.04" y="278.09" id="21394">QG3-Z0</text><rect Type="system" Region="域外走廊" height="5.00" y="321.91" Name="RT64-C" width="5.00" x="1000.96" id="21396" ID="30001773" /><text x="1000.96" y="321.91" id="21397">RT64-C</text><rect Type="system" Region="螺旋之域" height="5.00" y="280.00" Name="ZWM-BB" width="5.00" x="20.00" id="21399" ID="30001590" /><text x="20.00" y="280.00" id="21400">ZWM-BB</text><rect Type="system" Region="地窖" height="5.00" y="700.00" Name="K85Y-6" width="5.00" x="50.00" id="21402" ID="30000653" /><text x="50.00" y="700.00" id="21403">K85Y-6</text><rect Type="system" Region="佩利根弗" height="5.00" y="450.00" Name="PFV-ZH" width="5.00" x="140.00" id="21405" ID="30005178" /><text x="140.00" y="450.00" id="21406">PFV-ZH</text><rect Type="system" Region="螺旋之域" height="5.00" y="520.00" Name="K-YL9T" width="5.00" x="290.00" id="21408" ID="30001572" /><text x="290.00" y="520.00" id="21409">K-YL9T</text><rect Type="system" Region="钴蓝边域" height="5.00" y="20.00" Name="SK7-G6" width="5.00" x="400.00" id="21411" ID="30004164" /><text x="400.00" y="20.00" id="21412">SK7-G6</text><rect Type="system" Region="螺旋之域" height="5.00" y="680.00" Name="XR-ZL7" width="5.00" x="600.00" id="21414" ID="30001584" /><text x="600.00" y="680.00" id="21415">XR-ZL7</text><rect Type="system" Region="地窖" height="5.00" y="750.00" Name="PKN-NJ" width="5.00" x="600.00" id="21417" ID="30000654" /><text x="600.00" y="750.00" id="21418">PKN-NJ</text><rect Type="system" Region="地窖" height="5.00" y="380.00" Name="LJ-RJK" width="5.00" x="1020.00" id="21420" ID="30000647" /><text x="1020.00" y="380.00" id="21421">LJ-RJK</text><line x2="52.32" style="fill:blue;stroke:blue;" y1="182.32" x1="17.68" id="21423" y2="147.68" /><line x2="50.00" style="fill:blue;stroke:blue;" y1="450.00" x1="20.00" id="21424" y2="500.00" /><line x2="100.00" style="fill:blue;stroke:blue;" y1="147.68" x1="52.32" id="21425" y2="110.00" /><line x2="17.68" style="fill:blue;stroke:blue;" y1="147.68" x1="52.32" id="21426" y2="182.32" /><line x2="120.00" style="fill:blue;stroke:blue;" y1="500.00" x1="50.00" id="21427" y2="550.00" /><line x2="20.00" style="fill:blue;stroke:blue;" y1="500.00" x1="50.00" id="21428" y2="450.00" /><line x2="70.00" style="fill:blue;stroke:blue;" y1="20.00" x1="50.00" id="21429" y2="70.00" /><line x2="100.00" style="fill:blue;stroke:blue;" y1="70.00" x1="70.00" id="21430" y2="110.00" /><line x2="50.00" style="fill:blue;stroke:blue;" y1="70.00" x1="70.00" id="21431" y2="20.00" /><line x2="150.00" style="fill:blue;stroke:blue;" y1="110.00" x1="100.00" id="21432" y2="150.00" /><line x2="52.32" style="fill:blue;stroke:blue;" y1="110.00" x1="100.00" id="21433" y2="147.68" /><line x2="130.00" style="fill:blue;stroke:blue;" y1="110.00" x1="100.00" id="21434" y2="70.00" /><line x2="70.00" style="fill:blue;stroke:blue;" y1="110.00" x1="100.00" id="21435" y2="70.00" /><line x2="20.00" style="fill:blue;stroke:blue;" y1="300.00" x1="100.00" id="21436" y2="280.00" /><line x2="150.00" style="fill:blue;stroke:blue;" y1="300.00" x1="100.00" id="21437" y2="250.00" /><line x2="150.00" style="fill:blue;stroke:blue;" y1="300.00" x1="100.00" id="21438" y2="350.00" /><line x2="200.00" style="fill:blue;stroke:blue;" y1="550.00" x1="120.00" id="21439" y2="580.00" /><line x2="200.00" style="fill:blue;stroke:blue;" y1="550.00" x1="120.00" id="21440" y2="520.00" /><line x2="50.00" style="fill:blue;stroke:blue;" y1="550.00" x1="120.00" id="21441" y2="500.00" /><line x2="140.00" style="fill:blue;stroke:blue;" y1="550.00" x1="120.00" id="21442" y2="450.00" /><line x2="50.00" style="fill:blue;stroke:blue;" y1="700.00" x1="120.00" id="21443" y2="700.00" /><line x2="200.00" style="fill:blue;stroke:blue;" y1="700.00" x1="120.00" id="21444" y2="680.00" /><line x2="100.00" style="fill:blue;stroke:blue;" y1="70.00" x1="130.00" id="21445" y2="110.00" /><line x2="150.00" style="fill:blue;stroke:blue;" y1="200.00" x1="150.00" id="21446" y2="150.00" /><line x2="150.00" style="fill:blue;stroke:blue;" y1="200.00" x1="150.00" id="21447" y2="250.00" /><line x2="150.00" style="fill:blue;stroke:blue;" y1="350.00" x1="150.00" id="21448" y2="250.00" /><line x2="200.00" style="fill:blue;stroke:blue;" y1="350.00" x1="150.00" id="21449" y2="320.00" /><line x2="100.00" style="fill:blue;stroke:blue;" y1="350.00" x1="150.00" id="21450" y2="300.00" /><line x2="200.00" style="fill:blue;stroke:blue;" y1="150.00" x1="150.00" id="21451" y2="100.00" /><line x2="100.00" style="fill:blue;stroke:blue;" y1="150.00" x1="150.00" id="21452" y2="110.00" /><line x2="150.00" style="fill:blue;stroke:blue;" y1="150.00" x1="150.00" id="21453" y2="200.00" /><line x2="200.00" style="fill:blue;stroke:blue;" y1="620.00" x1="150.00" id="21454" y2="580.00" /><line x2="250.00" style="fill:blue;stroke:blue;" y1="620.00" x1="150.00" id="21455" y2="650.00" /><line x2="150.00" style="fill:blue;stroke:blue;" y1="250.00" x1="150.00" id="21456" y2="200.00" /><line x2="200.00" style="fill:blue;stroke:blue;" y1="250.00" x1="150.00" id="21457" y2="320.00" /><line x2="150.00" style="fill:blue;stroke:blue;" y1="250.00" x1="150.00" id="21458" y2="350.00" /><line x2="100.00" style="fill:blue;stroke:blue;" y1="250.00" x1="150.00" id="21459" y2="300.00" /><line x2="250.00" style="fill:blue;stroke:blue;" y1="580.00" x1="200.00" id="21460" y2="600.00" /><line x2="120.00" style="fill:blue;stroke:blue;" y1="580.00" x1="200.00" id="21461" y2="550.00" /><line x2="200.00" style="fill:blue;stroke:blue;" y1="580.00" x1="200.00" id="21462" y2="520.00" /><line x2="150.00" style="fill:blue;stroke:blue;" y1="580.00" x1="200.00" id="21463" y2="620.00" /><line x2="250.00" style="fill:blue;stroke:blue;" y1="580.00" x1="200.00" id="21464" y2="650.00" /><line x2="250.00" style="fill:blue;stroke:blue;" y1="680.00" x1="200.00" id="21465" y2="650.00" /><line x2="120.00" style="fill:blue;stroke:blue;" y1="680.00" x1="200.00" id="21466" y2="700.00" /><line x2="280.00" style="fill:blue;stroke:blue;" y1="100.00" x1="200.00" id="21467" y2="100.00" /><line x2="150.00" style="fill:blue;stroke:blue;" y1="100.00" x1="200.00" id="21468" y2="150.00" /><line x2="250.00" style="fill:blue;stroke:blue;" y1="100.00" x1="200.00" id="21469" y2="150.00" /><line x2="120.00" style="fill:blue;stroke:blue;" y1="520.00" x1="200.00" id="21470" y2="550.00" /><line x2="200.00" style="fill:blue;stroke:blue;" y1="520.00" x1="200.00" id="21471" y2="580.00" /><line x2="150.00" style="fill:blue;stroke:blue;" y1="320.00" x1="200.00" id="21472" y2="250.00" /><line x2="150.00" style="fill:blue;stroke:blue;" y1="320.00" x1="200.00" id="21473" y2="350.00" /><line x2="280.00" style="fill:blue;stroke:blue;" y1="320.00" x1="200.00" id="21474" y2="350.00" /><line x2="250.00" style="fill:blue;stroke:blue;" y1="650.00" x1="250.00" id="21475" y2="600.00" /><line x2="200.00" style="fill:blue;stroke:blue;" y1="650.00" x1="250.00" id="21476" y2="580.00" /><line x2="150.00" style="fill:blue;stroke:blue;" y1="650.00" x1="250.00" id="21477" y2="620.00" /><line x2="200.00" style="fill:blue;stroke:blue;" y1="650.00" x1="250.00" id="21478" y2="680.00" /><line x2="200.00" style="fill:blue;stroke:blue;" y1="150.00" x1="250.00" id="21479" y2="100.00" /><line x2="290.00" style="fill:blue;stroke:blue;" y1="600.00" x1="250.00" id="21480" y2="520.00" /><line x2="380.00" style="fill:blue;stroke:blue;" y1="600.00" x1="250.00" id="21481" y2="600.00" /><line x2="200.00" style="fill:blue;stroke:blue;" y1="600.00" x1="250.00" id="21482" y2="580.00" /><line x2="250.00" style="fill:blue;stroke:blue;" y1="600.00" x1="250.00" id="21483" y2="650.00" /><line x2="200.00" style="fill:blue;stroke:blue;" y1="350.00" x1="280.00" id="21484" y2="320.00" /><line x2="380.00" style="fill:blue;stroke:blue;" y1="350.00" x1="280.00" id="21485" y2="350.00" /><line x2="350.00" style="fill:blue;stroke:blue;" y1="100.00" x1="280.00" id="21486" y2="80.00" /><line x2="200.00" style="fill:blue;stroke:blue;" y1="100.00" x1="280.00" id="21487" y2="100.00" /><line x2="380.00" style="fill:blue;stroke:blue;" y1="720.00" x1="300.00" id="21488" y2="750.00" /><line x2="380.00" style="fill:blue;stroke:blue;" y1="400.00" x1="320.00" id="21489" y2="350.00" /><line x2="420.00" style="fill:blue;stroke:blue;" y1="400.00" x1="320.00" id="21490" y2="420.00" /><line x2="420.00" style="fill:blue;stroke:blue;" y1="80.00" x1="350.00" id="21491" y2="80.00" /><line x2="280.00" style="fill:blue;stroke:blue;" y1="80.00" x1="350.00" id="21492" y2="100.00" /><line x2="280.00" style="fill:blue;stroke:blue;" y1="350.00" x1="380.00" id="21493" y2="350.00" /><line x2="450.00" style="fill:blue;stroke:blue;" y1="350.00" x1="380.00" id="21494" y2="350.00" /><line x2="320.00" style="fill:blue;stroke:blue;" y1="350.00" x1="380.00" id="21495" y2="400.00" /><line x2="420.00" style="fill:blue;stroke:blue;" y1="350.00" x1="380.00" id="21496" y2="420.00" /><line x2="250.00" style="fill:blue;stroke:blue;" y1="600.00" x1="380.00" id="21497" y2="600.00" /><line x2="380.00" style="fill:blue;stroke:blue;" y1="600.00" x1="380.00" id="21498" y2="650.00" /><line x2="450.00" style="fill:blue;stroke:blue;" y1="600.00" x1="380.00" id="21499" y2="596.50" /><line x2="380.00" style="fill:blue;stroke:blue;" y1="650.00" x1="380.00" id="21500" y2="600.00" /><line x2="450.00" style="fill:blue;stroke:blue;" y1="650.00" x1="380.00" id="21501" y2="645.50" /><line x2="380.00" style="fill:blue;stroke:blue;" y1="650.00" x1="380.00" id="21502" y2="700.00" /><line x2="380.00" style="fill:blue;stroke:blue;" y1="700.00" x1="380.00" id="21503" y2="650.00" /><line x2="380.00" style="fill:blue;stroke:blue;" y1="700.00" x1="380.00" id="21504" y2="750.00" /><line x2="380.00" style="fill:blue;stroke:blue;" y1="750.00" x1="380.00" id="21505" y2="700.00" /><line x2="450.00" style="fill:blue;stroke:blue;" y1="750.00" x1="380.00" id="21506" y2="743.50" /><line x2="300.00" style="fill:blue;stroke:blue;" y1="750.00" x1="380.00" id="21507" y2="720.00" /><line x2="480.00" style="fill:blue;stroke:blue;" y1="500.00" x1="400.00" id="21508" y2="500.00" /><line x2="350.00" style="fill:blue;stroke:blue;" y1="80.00" x1="420.00" id="21509" y2="80.00" /><line x2="478.09" style="fill:blue;stroke:blue;" y1="80.00" x1="420.00" id="21510" y2="79.04" /><line x2="400.00" style="fill:blue;stroke:blue;" y1="80.00" x1="420.00" id="21511" y2="20.00" /><line x2="380.00" style="fill:blue;stroke:blue;" y1="420.00" x1="420.00" id="21512" y2="350.00" /><line x2="320.00" style="fill:blue;stroke:blue;" y1="420.00" x1="420.00" id="21513" y2="400.00" /><line x2="550.00" style="fill:blue;stroke:blue;" y1="420.00" x1="420.00" id="21514" y2="450.00" /><line x2="380.00" style="fill:blue;stroke:blue;" y1="596.50" x1="450.00" id="21515" y2="600.00" /><line x2="500.00" style="fill:blue;stroke:blue;" y1="596.50" x1="450.00" id="21516" y2="620.00" /><line x2="380.00" style="fill:blue;stroke:blue;" y1="645.50" x1="450.00" id="21517" y2="650.00" /><line x2="500.00" style="fill:blue;stroke:blue;" y1="645.50" x1="450.00" id="21518" y2="620.00" /><line x2="380.00" style="fill:blue;stroke:blue;" y1="743.50" x1="450.00" id="21519" y2="750.00" /><line x2="450.00" style="fill:blue;stroke:blue;" y1="743.50" x1="450.00" id="21520" y2="694.50" /><line x2="520.00" style="fill:blue;stroke:blue;" y1="743.50" x1="450.00" id="21521" y2="720.00" /><line x2="450.00" style="fill:blue;stroke:blue;" y1="694.50" x1="450.00" id="21522" y2="743.50" /><line x2="450.00" style="fill:blue;stroke:blue;" y1="300.00" x1="450.00" id="21523" y2="350.00" /><line x2="450.00" style="fill:blue;stroke:blue;" y1="300.00" x1="450.00" id="21524" y2="250.00" /><line x2="380.00" style="fill:blue;stroke:blue;" y1="350.00" x1="450.00" id="21525" y2="350.00" /><line x2="450.00" style="fill:blue;stroke:blue;" y1="350.00" x1="450.00" id="21526" y2="300.00" /><line x2="520.00" style="fill:blue;stroke:blue;" y1="350.00" x1="450.00" id="21527" y2="350.00" /><line x2="450.00" style="fill:blue;stroke:blue;" y1="250.00" x1="450.00" id="21528" y2="300.00" /><line x2="550.00" style="fill:blue;stroke:blue;" y1="500.00" x1="480.00" id="21529" y2="500.00" /><line x2="400.00" style="fill:blue;stroke:blue;" y1="500.00" x1="480.00" id="21530" y2="500.00" /><line x2="420.00" style="fill:blue;stroke:blue;" y1="79.04" x1="478.09" id="21531" y2="80.00" /><line x2="550.00" style="fill:blue;stroke:blue;" y1="79.04" x1="478.09" id="21532" y2="50.00" /><line x2="521.91" style="fill:blue;stroke:blue;" y1="79.04" x1="478.09" id="21533" y2="100.96" /><line x2="450.00" style="fill:blue;stroke:blue;" y1="620.00" x1="500.00" id="21534" y2="596.50" /><line x2="450.00" style="fill:blue;stroke:blue;" y1="620.00" x1="500.00" id="21535" y2="645.50" /><line x2="650.00" style="fill:blue;stroke:blue;" y1="620.00" x1="500.00" id="21536" y2="620.00" /><line x2="600.00" style="fill:blue;stroke:blue;" y1="720.00" x1="520.00" id="21537" y2="750.00" /><line x2="600.00" style="fill:blue;stroke:blue;" y1="720.00" x1="520.00" id="21538" y2="680.00" /><line x2="450.00" style="fill:blue;stroke:blue;" y1="720.00" x1="520.00" id="21539" y2="743.50" /><line x2="478.09" style="fill:blue;stroke:blue;" y1="100.96" x1="521.91" id="21540" y2="79.04" /><line x2="550.00" style="fill:blue;stroke:blue;" y1="100.96" x1="521.91" id="21541" y2="50.00" /><line x2="450.00" style="fill:blue;stroke:blue;" y1="350.00" x1="520.00" id="21542" y2="350.00" /><line x2="620.00" style="fill:blue;stroke:blue;" y1="350.00" x1="520.00" id="21543" y2="350.00" /><line x2="478.09" style="fill:blue;stroke:blue;" y1="50.00" x1="550.00" id="21544" y2="79.04" /><line x2="521.91" style="fill:blue;stroke:blue;" y1="50.00" x1="550.00" id="21545" y2="100.96" /><line x2="650.00" style="fill:blue;stroke:blue;" y1="50.00" x1="550.00" id="21546" y2="50.00" /><line x2="650.00" style="fill:blue;stroke:blue;" y1="450.00" x1="550.00" id="21547" y2="450.00" /><line x2="420.00" style="fill:blue;stroke:blue;" y1="450.00" x1="550.00" id="21548" y2="420.00" /><line x2="550.00" style="fill:blue;stroke:blue;" y1="450.00" x1="550.00" id="21549" y2="500.00" /><line x2="550.00" style="fill:blue;stroke:blue;" y1="500.00" x1="550.00" id="21550" y2="450.00" /><line x2="620.00" style="fill:blue;stroke:blue;" y1="500.00" x1="550.00" id="21551" y2="500.00" /><line x2="480.00" style="fill:blue;stroke:blue;" y1="500.00" x1="550.00" id="21552" y2="500.00" /><line x2="550.00" style="fill:blue;stroke:blue;" y1="500.00" x1="550.00" id="21553" y2="550.00" /><line x2="550.00" style="fill:blue;stroke:blue;" y1="550.00" x1="550.00" id="21554" y2="500.00" /><line x2="620.00" style="fill:blue;stroke:blue;" y1="550.00" x1="550.00" id="21555" y2="500.00" /><line x2="620.00" style="fill:blue;stroke:blue;" y1="300.00" x1="630.00" id="21556" y2="350.00" /><line x2="520.00" style="fill:blue;stroke:blue;" y1="350.00" x1="620.00" id="21557" y2="350.00" /><line x2="700.00" style="fill:blue;stroke:blue;" y1="350.00" x1="620.00" id="21558" y2="350.00" /><line x2="630.00" style="fill:blue;stroke:blue;" y1="350.00" x1="620.00" id="21559" y2="300.00" /><line x2="550.00" style="fill:blue;stroke:blue;" y1="500.00" x1="620.00" id="21560" y2="500.00" /><line x2="550.00" style="fill:blue;stroke:blue;" y1="500.00" x1="620.00" id="21561" y2="550.00" /><line x2="650.00" style="fill:blue;stroke:blue;" y1="150.00" x1="620.00" id="21562" y2="100.00" /><line x2="750.00" style="fill:blue;stroke:blue;" y1="450.00" x1="650.00" id="21563" y2="450.00" /><line x2="550.00" style="fill:blue;stroke:blue;" y1="450.00" x1="650.00" id="21564" y2="450.00" /><line x2="500.00" style="fill:blue;stroke:blue;" y1="620.00" x1="650.00" id="21565" y2="620.00" /><line x2="700.00" style="fill:blue;stroke:blue;" y1="620.00" x1="650.00" id="21566" y2="650.00" /><line x2="700.00" style="fill:blue;stroke:blue;" y1="620.00" x1="650.00" id="21567" y2="580.00" /><line x2="550.00" style="fill:blue;stroke:blue;" y1="50.00" x1="650.00" id="21568" y2="50.00" /><line x2="650.00" style="fill:blue;stroke:blue;" y1="50.00" x1="650.00" id="21569" y2="100.00" /><line x2="750.00" style="fill:blue;stroke:blue;" y1="50.00" x1="650.00" id="21570" y2="50.00" /><line x2="650.00" style="fill:blue;stroke:blue;" y1="100.00" x1="650.00" id="21571" y2="50.00" /><line x2="620.00" style="fill:blue;stroke:blue;" y1="100.00" x1="650.00" id="21572" y2="150.00" /><line x2="700.00" style="fill:blue;stroke:blue;" y1="100.00" x1="650.00" id="21573" y2="150.00" /><line x2="750.00" style="fill:blue;stroke:blue;" y1="100.00" x1="650.00" id="21574" y2="100.00" /><line x2="620.00" style="fill:blue;stroke:blue;" y1="350.00" x1="700.00" id="21575" y2="350.00" /><line x2="779.04" style="fill:blue;stroke:blue;" y1="350.00" x1="700.00" id="21576" y2="321.91" /><line x2="650.00" style="fill:blue;stroke:blue;" y1="650.00" x1="700.00" id="21577" y2="620.00" /><line x2="780.00" style="fill:blue;stroke:blue;" y1="650.00" x1="700.00" id="21578" y2="680.00" /><line x2="650.00" style="fill:blue;stroke:blue;" y1="580.00" x1="700.00" id="21579" y2="620.00" /><line x2="750.00" style="fill:blue;stroke:blue;" y1="580.00" x1="700.00" id="21580" y2="550.00" /><line x2="650.00" style="fill:blue;stroke:blue;" y1="150.00" x1="700.00" id="21581" y2="100.00" /><line x2="750.00" style="fill:blue;stroke:blue;" y1="150.00" x1="700.00" id="21582" y2="100.00" /><line x2="650.00" style="fill:blue;stroke:blue;" y1="50.00" x1="750.00" id="21583" y2="50.00" /><line x2="750.00" style="fill:blue;stroke:blue;" y1="50.00" x1="750.00" id="21584" y2="100.00" /><line x2="850.00" style="fill:blue;stroke:blue;" y1="50.00" x1="750.00" id="21585" y2="80.00" /><line x2="650.00" style="fill:blue;stroke:blue;" y1="100.00" x1="750.00" id="21586" y2="100.00" /><line x2="700.00" style="fill:blue;stroke:blue;" y1="100.00" x1="750.00" id="21587" y2="150.00" /><line x2="750.00" style="fill:blue;stroke:blue;" y1="100.00" x1="750.00" id="21588" y2="50.00" /><line x2="750.00" style="fill:blue;stroke:blue;" y1="450.00" x1="750.00" id="21589" y2="550.00" /><line x2="850.00" style="fill:blue;stroke:blue;" y1="450.00" x1="750.00" id="21590" y2="420.00" /><line x2="850.00" style="fill:blue;stroke:blue;" y1="450.00" x1="750.00" id="21591" y2="500.00" /><line x2="650.00" style="fill:blue;stroke:blue;" y1="450.00" x1="750.00" id="21592" y2="450.00" /><line x2="700.00" style="fill:blue;stroke:blue;" y1="550.00" x1="750.00" id="21593" y2="580.00" /><line x2="840.00" style="fill:blue;stroke:blue;" y1="550.00" x1="750.00" id="21594" y2="570.00" /><line x2="750.00" style="fill:blue;stroke:blue;" y1="550.00" x1="750.00" id="21595" y2="450.00" /><line x2="700.00" style="fill:blue;stroke:blue;" y1="680.00" x1="780.00" id="21596" y2="650.00" /><line x2="840.00" style="fill:blue;stroke:blue;" y1="680.00" x1="780.00" id="21597" y2="650.00" /><line x2="700.00" style="fill:blue;stroke:blue;" y1="321.91" x1="779.04" id="21598" y2="350.00" /><line x2="850.00" style="fill:blue;stroke:blue;" y1="321.91" x1="779.04" id="21599" y2="320.00" /><line x2="850.00" style="fill:blue;stroke:blue;" y1="278.09" x1="800.96" id="21600" y2="320.00" /><line x2="840.00" style="fill:blue;stroke:blue;" y1="570.00" x1="840.00" id="21601" y2="650.00" /><line x2="750.00" style="fill:blue;stroke:blue;" y1="570.00" x1="840.00" id="21602" y2="550.00" /><line x2="780.00" style="fill:blue;stroke:blue;" y1="650.00" x1="840.00" id="21603" y2="680.00" /><line x2="840.00" style="fill:blue;stroke:blue;" y1="650.00" x1="840.00" id="21604" y2="570.00" /><line x2="779.04" style="fill:blue;stroke:blue;" y1="320.00" x1="850.00" id="21605" y2="321.91" /><line x2="800.96" style="fill:blue;stroke:blue;" y1="320.00" x1="850.00" id="21606" y2="278.09" /><line x2="900.00" style="fill:blue;stroke:blue;" y1="320.00" x1="850.00" id="21607" y2="280.00" /><line x2="950.00" style="fill:blue;stroke:blue;" y1="80.00" x1="850.00" id="21608" y2="150.00" /><line x2="750.00" style="fill:blue;stroke:blue;" y1="80.00" x1="850.00" id="21609" y2="50.00" /><line x2="750.00" style="fill:blue;stroke:blue;" y1="420.00" x1="850.00" id="21610" y2="450.00" /><line x2="850.00" style="fill:blue;stroke:blue;" y1="420.00" x1="850.00" id="21611" y2="500.00" /><line x2="950.00" style="fill:blue;stroke:blue;" y1="420.00" x1="850.00" id="21612" y2="380.00" /><line x2="750.00" style="fill:blue;stroke:blue;" y1="500.00" x1="850.00" id="21613" y2="450.00" /><line x2="850.00" style="fill:blue;stroke:blue;" y1="500.00" x1="850.00" id="21614" y2="420.00" /><line x2="950.00" style="fill:blue;stroke:blue;" y1="500.00" x1="850.00" id="21615" y2="540.00" /><line x2="880.00" style="fill:blue;stroke:blue;" y1="150.00" x1="880.00" id="21616" y2="220.00" /><line x2="950.00" style="fill:blue;stroke:blue;" y1="150.00" x1="880.00" id="21617" y2="150.00" /><line x2="950.00" style="fill:blue;stroke:blue;" y1="220.00" x1="880.00" id="21618" y2="220.00" /><line x2="880.00" style="fill:blue;stroke:blue;" y1="220.00" x1="880.00" id="21619" y2="150.00" /><line x2="950.00" style="fill:blue;stroke:blue;" y1="280.00" x1="900.00" id="21620" y2="220.00" /><line x2="850.00" style="fill:blue;stroke:blue;" y1="280.00" x1="900.00" id="21621" y2="320.00" /><line x2="950.00" style="fill:blue;stroke:blue;" y1="150.00" x1="950.00" id="21622" y2="220.00" /><line x2="880.00" style="fill:blue;stroke:blue;" y1="150.00" x1="950.00" id="21623" y2="150.00" /><line x2="850.00" style="fill:blue;stroke:blue;" y1="150.00" x1="950.00" id="21624" y2="80.00" /><line x2="950.00" style="fill:blue;stroke:blue;" y1="220.00" x1="950.00" id="21625" y2="380.00" /><line x2="880.00" style="fill:blue;stroke:blue;" y1="220.00" x1="950.00" id="21626" y2="220.00" /><line x2="950.00" style="fill:blue;stroke:blue;" y1="220.00" x1="950.00" id="21627" y2="150.00" /><line x2="979.04" style="fill:blue;stroke:blue;" y1="220.00" x1="950.00" id="21628" y2="278.09" /><line x2="900.00" style="fill:blue;stroke:blue;" y1="220.00" x1="950.00" id="21629" y2="280.00" /><line x2="850.00" style="fill:blue;stroke:blue;" y1="380.00" x1="950.00" id="21630" y2="420.00" /><line x2="950.00" style="fill:blue;stroke:blue;" y1="380.00" x1="950.00" id="21631" y2="220.00" /><line x2="850.00" style="fill:blue;stroke:blue;" y1="540.00" x1="950.00" id="21632" y2="500.00" /><line x2="950.00" style="fill:blue;stroke:blue;" y1="278.09" x1="979.04" id="21633" y2="220.00" /><line x2="1000.96" style="fill:blue;stroke:blue;" y1="278.09" x1="979.04" id="21634" y2="321.91" /><line x2="1020.00" style="fill:blue;stroke:blue;" y1="321.91" x1="1000.96" id="21635" y2="380.00" /><line x2="979.04" style="fill:blue;stroke:blue;" y1="321.91" x1="1000.96" id="21636" y2="278.09" /><line x2="100.00" style="fill:blue;stroke:blue;" y1="280.00" x1="20.00" id="21637" y2="300.00" /><line x2="120.00" style="fill:blue;stroke:blue;" y1="700.00" x1="50.00" id="21638" y2="700.00" /><line x2="120.00" style="fill:blue;stroke:blue;" y1="450.00" x1="140.00" id="21639" y2="550.00" /><line x2="250.00" style="fill:blue;stroke:blue;" y1="520.00" x1="290.00" id="21640" y2="600.00" /><line x2="420.00" style="fill:blue;stroke:blue;" y1="20.00" x1="400.00" id="21641" y2="80.00" /><line x2="520.00" style="fill:blue;stroke:blue;" y1="680.00" x1="600.00" id="21642" y2="720.00" /><line x2="520.00" style="fill:blue;stroke:blue;" y1="750.00" x1="600.00" id="21643" y2="720.00" /><line x2="1000.96" style="fill:blue;stroke:blue;" y1="380.00" x1="1020.00" id="21644" y2="321.91" /></svg>
