<?xml version="1.0" standalone="yes"?><!DOCTYPE svg PUBLIC "-//W3C//DTD SVG 1.1//EN" "http://www.w3.org/Graphics/SVG/1.1/DTD/svg11.dtd"[]><svg width="1050.00" height="800.00" id="21134" xmlns="http://www.w3.org/2000/svg" xmlns:xlink="http://www.w3.org/1999/xlink"><rect Type="system" x="17.68" id="21135" height="5.00" width="5.00" Name="2-84WC" ID="30001786" Region="域外走廊" y="182.32" /><text y="182.32" x="17.68" id="21136">2-84WC</text><rect Type="system" x="20.00" id="21138" height="5.00" width="5.00" Name="F-WCLC" ID="30001801" Region="域外走廊" y="450.00" /><text y="450.00" x="20.00" id="21139">F-WCLC</text><rect Type="system" x="52.32" id="21141" height="5.00" width="5.00" Name="24I-FE" ID="30001784" Region="域外走廊" y="147.68" /><text y="147.68" x="52.32" id="21142">24I-FE</text><rect Type="system" x="50.00" id="21144" height="5.00" width="5.00" Name="2WU-XT" ID="30001799" Region="域外走廊" y="500.00" /><text y="500.00" x="50.00" id="21145">2WU-XT</text><rect Type="system" x="50.00" id="21147" height="5.00" width="5.00" Name="U-FQ21" ID="30001788" Region="域外走廊" y="20.00" /><text y="20.00" x="50.00" id="21148">U-FQ21</text><rect Type="system" x="70.00" id="21150" height="5.00" width="5.00" Name="V-SEE6" ID="30001787" Region="域外走廊" y="70.00" /><text y="70.00" x="70.00" id="21151">V-SEE6</text><rect Type="system" x="100.00" id="21153" height="5.00" width="5.00" Name="QOK-SX" ID="30001783" Region="域外走廊" y="110.00" /><text y="110.00" x="100.00" id="21154">QOK-SX</text><rect Type="system" x="100.00" id="21156" height="5.00" width="5.00" Name="L1YK-V" ID="30001809" Region="域外走廊" y="300.00" /><text y="300.00" x="100.00" id="21157">L1YK-V</text><rect Type="system" x="120.00" id="21159" height="5.00" width="5.00" Name="9S-GPT" ID="30001796" Region="域外走廊" y="550.00" /><text y="550.00" x="120.00" id="21160">9S-GPT</text><rect Type="system" x="120.00" id="21162" height="5.00" width="5.00" Name="LTT-AP" ID="30001804" Region="域外走廊" y="700.00" /><text y="700.00" x="120.00" id="21163">LTT-AP</text><rect Type="system" x="130.00" id="21165" height="5.00" width="5.00" Name="4H-YJZ" ID="30001785" Region="域外走廊" y="70.00" /><text y="70.00" x="130.00" id="21166">4H-YJZ</text><rect Type="system" x="150.00" id="21168" height="5.00" width="5.00" Name="8RL-OG" ID="30001805" Region="域外走廊" y="200.00" /><text y="200.00" x="150.00" id="21169">8RL-OG</text><rect Type="system" x="150.00" id="21171" height="5.00" width="5.00" Name="SN-Q1T" ID="30001808" Region="域外走廊" y="350.00" /><text y="350.00" x="150.00" id="21172">SN-Q1T</text><rect Type="system" x="150.00" id="21174" height="5.00" width="5.00" Name="DJ-GBH" ID="30001781" Region="域外走廊" y="150.00" /><text y="150.00" x="150.00" id="21175">DJ-GBH</text><rect Type="system" x="150.00" id="21177" height="5.00" width="5.00" Name="J7X-VN" ID="30001800" Region="域外走廊" y="620.00" /><text y="620.00" x="150.00" id="21178">J7X-VN</text><rect Type="system" x="150.00" id="21180" height="5.00" width="5.00" Name="R3P0-Z" ID="30001806" Region="域外走廊" y="250.00" /><text y="250.00" x="150.00" id="21181">R3P0-Z</text><rect Type="system" x="200.00" id="21183" height="5.00" width="5.00" Name="UAJ5-K" ID="30001797" Region="域外走廊" y="580.00" /><text y="580.00" x="200.00" id="21184">UAJ5-K</text><rect Type="system" x="200.00" id="21186" height="5.00" width="5.00" Name="YC-ANK" ID="30001803" Region="域外走廊" y="680.00" /><text y="680.00" x="200.00" id="21187">YC-ANK</text><rect Type="system" x="200.00" id="21189" height="5.00" width="5.00" Name="SN-DZ6" ID="30001780" Region="域外走廊" y="100.00" /><text y="100.00" x="200.00" id="21190">SN-DZ6</text><rect Type="system" x="200.00" id="21192" height="5.00" width="5.00" Name="XJ-AG7" ID="30001798" Region="域外走廊" y="520.00" /><text y="520.00" x="200.00" id="21193">XJ-AG7</text><rect Type="system" x="200.00" id="21195" height="5.00" width="5.00" Name="ZZK-VF" ID="30001807" Region="域外走廊" y="320.00" /><text y="320.00" x="200.00" id="21196">ZZK-VF</text><rect Type="system" x="250.00" id="21198" height="5.00" width="5.00" Name="G-HE0N" ID="30001802" Region="域外走廊" y="650.00" /><text y="650.00" x="250.00" id="21199">G-HE0N</text><rect Type="system" x="250.00" id="21201" height="5.00" width="5.00" Name="I0N-BM" ID="30001782" Region="域外走廊" y="150.00" /><text y="150.00" x="250.00" id="21202">I0N-BM</text><rect Type="system" x="250.00" id="21204" height="5.00" width="5.00" Name="JUE-DX" ID="30001743" Region="域外走廊" y="600.00" /><text y="600.00" x="250.00" id="21205">JUE-DX</text><rect Type="system" x="280.00" id="21207" height="5.00" width="5.00" Name="ZJ-5IS" ID="30001810" Region="域外走廊" y="350.00" /><text y="350.00" x="280.00" id="21208">ZJ-5IS</text><rect Type="system" x="280.00" id="21210" height="5.00" width="5.00" Name="0-4VQL" ID="30001779" Region="域外走廊" y="100.00" /><text y="100.00" x="280.00" id="21211">0-4VQL</text><rect Type="system" x="300.00" id="21213" height="5.00" width="5.00" Name="M4U-EH" ID="30001754" Region="域外走廊" y="720.00" /><text y="720.00" x="300.00" id="21214">M4U-EH</text><rect Type="system" x="320.00" id="21216" height="5.00" width="5.00" Name="UC-8XF" ID="30001813" Region="域外走廊" y="400.00" /><text y="400.00" x="320.00" id="21217">UC-8XF</text><rect Type="system" x="350.00" id="21219" height="5.00" width="5.00" Name="FVQF-W" ID="30001775" Region="域外走廊" y="80.00" /><text y="80.00" x="350.00" id="21220">FVQF-W</text><rect Type="system" x="380.00" id="21222" height="5.00" width="5.00" Name="GA58-7" ID="30001811" Region="域外走廊" y="350.00" /><text y="350.00" x="380.00" id="21223">GA58-7</text><rect Type="system" x="380.00" id="21225" height="5.00" width="5.00" Name="HLR-GL" ID="30001744" Region="域外走廊" y="600.00" /><text y="600.00" x="380.00" id="21226">HLR-GL</text><rect Type="system" x="380.00" id="21228" height="5.00" width="5.00" Name="80G-H5" ID="30001745" Region="域外走廊" y="650.00" /><text y="650.00" x="380.00" id="21229">80G-H5</text><rect Type="system" x="380.00" id="21231" height="5.00" width="5.00" Name="QHH-13" ID="30001749" Region="域外走廊" y="700.00" /><text y="700.00" x="380.00" id="21232">QHH-13</text><rect Type="system" x="380.00" id="21234" height="5.00" width="5.00" Name="J4AQ-O" ID="30001750" Region="域外走廊" y="750.00" /><text y="750.00" x="380.00" id="21235">J4AQ-O</text><rect Type="system" x="400.00" id="21237" height="5.00" width="5.00" Name="RQNF-9" ID="30001830" Region="域外走廊" y="500.00" /><text y="500.00" x="400.00" id="21238">RQNF-9</text><rect Type="system" x="420.00" id="21240" height="5.00" width="5.00" Name="2ID-87" ID="30001774" Region="域外走廊" y="80.00" /><text y="80.00" x="420.00" id="21241">2ID-87</text><rect Type="system" x="420.00" id="21243" height="5.00" width="5.00" Name="90-A1P" ID="30001814" Region="域外走廊" y="420.00" /><text y="420.00" x="420.00" id="21244">90-A1P</text><rect Type="system" x="450.00" id="21246" height="5.00" width="5.00" Name="2EV-BA" ID="30001746" Region="域外走廊" y="596.50" /><text y="596.50" x="450.00" id="21247">2EV-BA</text><rect Type="system" x="450.00" id="21249" height="5.00" width="5.00" Name="M1-PX9" ID="30001747" Region="域外走廊" y="645.50" /><text y="645.50" x="450.00" id="21250">M1-PX9</text><rect Type="system" x="450.00" id="21252" height="5.00" width="5.00" Name="O-O2GN" ID="30001751" Region="域外走廊" y="743.50" /><text y="743.50" x="450.00" id="21253">O-O2GN</text><rect Type="system" x="450.00" id="21255" height="5.00" width="5.00" Name="I-HRX3" ID="30001752" Region="域外走廊" y="694.50" /><text y="694.50" x="450.00" id="21256">I-HRX3</text><rect Type="system" x="450.00" id="21258" height="5.00" width="5.00" Name="4AZV-W" ID="30001815" Region="域外走廊" y="300.00" /><text y="300.00" x="450.00" id="21259">4AZV-W</text><rect Type="system" x="450.00" id="21261" height="5.00" width="5.00" Name="J-0KB3" ID="30001812" Region="域外走廊" y="350.00" /><text y="350.00" x="450.00" id="21262">J-0KB3</text><rect Type="system" x="450.00" id="21264" height="5.00" width="5.00" Name="7F-2FB" ID="30001817" Region="域外走廊" y="250.00" /><text y="250.00" x="450.00" id="21265">7F-2FB</text><rect Type="system" x="480.00" id="21267" height="5.00" width="5.00" Name="4O-ZRI" ID="30001828" Region="域外走廊" y="500.00" /><text y="500.00" x="480.00" id="21268">4O-ZRI</text><rect Type="system" x="478.09" id="21270" height="5.00" width="5.00" Name="8K-QCZ" ID="30001776" Region="域外走廊" y="79.04" /><text y="79.04" x="478.09" id="21271">8K-QCZ</text><rect Type="system" x="500.00" id="21273" height="5.00" width="5.00" Name="W9-TFD" ID="30001748" Region="域外走廊" y="620.00" /><text y="620.00" x="500.00" id="21274">W9-TFD</text><rect Type="system" x="520.00" id="21276" height="5.00" width="5.00" Name="XUPK-Z" ID="30001753" Region="域外走廊" y="720.00" /><text y="720.00" x="520.00" id="21277">XUPK-Z</text><rect Type="system" x="521.91" id="21279" height="5.00" width="5.00" Name="XDTW-F" ID="30001778" Region="域外走廊" y="100.96" /><text y="100.96" x="521.91" id="21280">XDTW-F</text><rect Type="system" x="520.00" id="21282" height="5.00" width="5.00" Name="UNV-3J" ID="30001816" Region="域外走廊" y="350.00" /><text y="350.00" x="520.00" id="21283">UNV-3J</text><rect Type="system" x="550.00" id="21285" height="5.00" width="5.00" Name="JBUH-H" ID="30001777" Region="域外走廊" y="50.00" /><text y="50.00" x="550.00" id="21286">JBUH-H</text><rect Type="system" x="550.00" id="21288" height="5.00" width="5.00" Name="CNHV-M" ID="30001825" Region="域外走廊" y="450.00" /><text y="450.00" x="550.00" id="21289">CNHV-M</text><rect Type="system" x="550.00" id="21291" height="5.00" width="5.00" Name="NEU-UD" ID="30001826" Region="域外走廊" y="500.00" /><text y="500.00" x="550.00" id="21292">NEU-UD</text><rect Type="system" x="550.00" id="21294" height="5.00" width="5.00" Name="Y-7XVJ" ID="30001829" Region="域外走廊" y="550.00" /><text y="550.00" x="550.00" id="21295">Y-7XVJ</text><rect Type="system" x="630.00" id="21297" height="5.00" width="5.00" Name="3-QNM4" ID="30001820" Region="域外走廊" y="300.00" /><text y="300.00" x="630.00" id="21298">3-QNM4</text><rect Type="system" x="620.00" id="21300" height="5.00" width="5.00" Name="MC4C-H" ID="30001818" Region="域外走廊" y="350.00" /><text y="350.00" x="620.00" id="21301">MC4C-H</text><rect Type="system" x="620.00" id="21303" height="5.00" width="5.00" Name="N-I024" ID="30001827" Region="域外走廊" y="500.00" /><text y="500.00" x="620.00" id="21304">N-I024</text><rect Type="system" x="620.00" id="21306" height="5.00" width="5.00" Name="Y-UO9U" ID="30001791" Region="域外走廊" y="150.00" /><text y="150.00" x="620.00" id="21307">Y-UO9U</text><rect Type="system" x="650.00" id="21309" height="5.00" width="5.00" Name="ZEZ1-9" ID="30001765" Region="域外走廊" y="450.00" /><text y="450.00" x="650.00" id="21310">ZEZ1-9</text><rect Type="system" x="650.00" id="21312" height="5.00" width="5.00" Name="WK2F-Y" ID="30001755" Region="域外走廊" y="620.00" /><text y="620.00" x="650.00" id="21313">WK2F-Y</text><rect Type="system" x="650.00" id="21315" height="5.00" width="5.00" Name="NHKO-4" ID="30001789" Region="域外走廊" y="50.00" /><text y="50.00" x="650.00" id="21316">NHKO-4</text><rect Type="system" x="650.00" id="21318" height="5.00" width="5.00" Name="KGCF-5" ID="30001790" Region="域外走廊" y="100.00" /><text y="100.00" x="650.00" id="21319">KGCF-5</text><rect Type="system" x="700.00" id="21321" height="5.00" width="5.00" Name="OW-QXW" ID="30001819" Region="域外走廊" y="350.00" /><text y="350.00" x="700.00" id="21322">OW-QXW</text><rect Type="system" x="700.00" id="21324" height="5.00" width="5.00" Name="WIO-OL" ID="30001756" Region="域外走廊" y="650.00" /><text y="650.00" x="700.00" id="21325">WIO-OL</text><rect Type="system" x="700.00" id="21327" height="5.00" width="5.00" Name="YQM-P1" ID="30001758" Region="域外走廊" y="580.00" /><text y="580.00" x="700.00" id="21328">YQM-P1</text><rect Type="system" x="700.00" id="21330" height="5.00" width="5.00" Name="XME-SW" ID="30001792" Region="域外走廊" y="150.00" /><text y="150.00" x="700.00" id="21331">XME-SW</text><rect Type="system" x="750.00" id="21333" height="5.00" width="5.00" Name="VH-9VO" ID="30001794" Region="域外走廊" y="50.00" /><text y="50.00" x="750.00" id="21334">VH-9VO</text><rect Type="system" x="750.00" id="21336" height="5.00" width="5.00" Name="JX-SOA" ID="30001793" Region="域外走廊" y="100.00" /><text y="100.00" x="750.00" id="21337">JX-SOA</text><rect Type="system" x="750.00" id="21339" height="5.00" width="5.00" Name="K4UV-G" ID="30001762" Region="域外走廊" y="450.00" /><text y="450.00" x="750.00" id="21340">K4UV-G</text><rect Type="system" x="750.00" id="21342" height="5.00" width="5.00" Name="D-JVGJ" ID="30001761" Region="域外走廊" y="550.00" /><text y="550.00" x="750.00" id="21343">D-JVGJ</text><rect Type="system" x="780.00" id="21345" height="5.00" width="5.00" Name="1-10QG" ID="30001757" Region="域外走廊" y="680.00" /><text y="680.00" x="780.00" id="21346">1-10QG</text><rect Type="system" x="779.04" id="21348" height="5.00" width="5.00" Name="UEPO-D" ID="30001821" Region="域外走廊" y="321.91" /><text y="321.91" x="779.04" id="21349">UEPO-D</text><rect Type="system" x="800.96" id="21351" height="5.00" width="5.00" Name="P-8PDJ" ID="30001823" Region="域外走廊" y="278.09" /><text y="278.09" x="800.96" id="21352">P-8PDJ</text><rect Type="system" x="840.00" id="21354" height="5.00" width="5.00" Name="TFPT-U" ID="30001760" Region="域外走廊" y="570.00" /><text y="570.00" x="840.00" id="21355">TFPT-U</text><rect Type="system" x="840.00" id="21357" height="5.00" width="5.00" Name="6-GRN7" ID="30001759" Region="域外走廊" y="650.00" /><text y="650.00" x="840.00" id="21358">6-GRN7</text><rect Type="system" x="850.00" id="21360" height="5.00" width="5.00" Name="NQ-M6W" ID="30001822" Region="域外走廊" y="320.00" /><text y="320.00" x="850.00" id="21361">NQ-M6W</text><rect Type="system" x="850.00" id="21363" height="5.00" width="5.00" Name="P-T9VC" ID="30001795" Region="域外走廊" y="80.00" /><text y="80.00" x="850.00" id="21364">P-T9VC</text><rect Type="system" x="850.00" id="21366" height="5.00" width="5.00" Name="Q7E-DU" ID="30001763" Region="域外走廊" y="420.00" /><text y="420.00" x="850.00" id="21367">Q7E-DU</text><rect Type="system" x="850.00" id="21369" height="5.00" width="5.00" Name="9Z-XJN" ID="30001764" Region="域外走廊" y="500.00" /><text y="500.00" x="850.00" id="21370">9Z-XJN</text><rect Type="system" x="880.00" id="21372" height="5.00" width="5.00" Name="2ULC-J" ID="30001770" Region="域外走廊" y="150.00" /><text y="150.00" x="880.00" id="21373">2ULC-J</text><rect Type="system" x="880.00" id="21375" height="5.00" width="5.00" Name="EZWQ-X" ID="30001769" Region="域外走廊" y="220.00" /><text y="220.00" x="880.00" id="21376">EZWQ-X</text><rect Type="system" x="900.00" id="21378" height="5.00" width="5.00" Name="VE-W7O" ID="30001824" Region="域外走廊" y="280.00" /><text y="280.00" x="900.00" id="21379">VE-W7O</text><rect Type="system" x="950.00" id="21381" height="5.00" width="5.00" Name="T0DT-T" ID="30001771" Region="域外走廊" y="150.00" /><text y="150.00" x="950.00" id="21382">T0DT-T</text><rect Type="system" x="950.00" id="21384" height="5.00" width="5.00" Name="8-AA98" ID="30001768" Region="域外走廊" y="220.00" /><text y="220.00" x="950.00" id="21385">8-AA98</text><rect Type="system" x="950.00" id="21387" height="5.00" width="5.00" Name="HZID-J" ID="30001767" Region="域外走廊" y="380.00" /><text y="380.00" x="950.00" id="21388">HZID-J</text><rect Type="system" x="950.00" id="21390" height="5.00" width="5.00" Name="QFRV-2" ID="30001766" Region="域外走廊" y="540.00" /><text y="540.00" x="950.00" id="21391">QFRV-2</text><rect Type="system" x="979.04" id="21393" height="5.00" width="5.00" Name="QG3-Z0" ID="30001772" Region="域外走廊" y="278.09" /><text y="278.09" x="979.04" id="21394">QG3-Z0</text><rect Type="system" x="1000.96" id="21396" height="5.00" width="5.00" Name="RT64-C" ID="30001773" Region="域外走廊" y="321.91" /><text y="321.91" x="1000.96" id="21397">RT64-C</text><rect Type="system" x="20.00" id="21399" height="5.00" width="5.00" Name="ZWM-BB" ID="30001590" Region="螺旋之域" y="280.00" /><text y="280.00" x="20.00" id="21400">ZWM-BB</text><rect Type="system" x="50.00" id="21402" height="5.00" width="5.00" Name="K85Y-6" ID="30000653" Region="地窖" y="700.00" /><text y="700.00" x="50.00" id="21403">K85Y-6</text><rect Type="system" x="140.00" id="21405" height="5.00" width="5.00" Name="PFV-ZH" ID="30005178" Region="佩利根弗" y="450.00" /><text y="450.00" x="140.00" id="21406">PFV-ZH</text><rect Type="system" x="290.00" id="21408" height="5.00" width="5.00" Name="K-YL9T" ID="30001572" Region="螺旋之域" y="520.00" /><text y="520.00" x="290.00" id="21409">K-YL9T</text><rect Type="system" x="400.00" id="21411" height="5.00" width="5.00" Name="SK7-G6" ID="30004164" Region="钴蓝边域" y="20.00" /><text y="20.00" x="400.00" id="21412">SK7-G6</text><rect Type="system" x="600.00" id="21414" height="5.00" width="5.00" Name="XR-ZL7" ID="30001584" Region="螺旋之域" y="680.00" /><text y="680.00" x="600.00" id="21415">XR-ZL7</text><rect Type="system" x="600.00" id="21417" height="5.00" width="5.00" Name="PKN-NJ" ID="30000654" Region="地窖" y="750.00" /><text y="750.00" x="600.00" id="21418">PKN-NJ</text><rect Type="system" x="1020.00" id="21420" height="5.00" width="5.00" Name="LJ-RJK" ID="30000647" Region="地窖" y="380.00" /><text y="380.00" x="1020.00" id="21421">LJ-RJK</text><line style="stroke:blue;fill:blue;" id="21423" x2="52.32" x1="17.68" y1="182.32" y2="147.68" /><line style="stroke:blue;fill:blue;" id="21424" x2="50.00" x1="20.00" y1="450.00" y2="500.00" /><line style="stroke:blue;fill:blue;" id="21425" x2="100.00" x1="52.32" y1="147.68" y2="110.00" /><line style="stroke:blue;fill:blue;" id="21426" x2="17.68" x1="52.32" y1="147.68" y2="182.32" /><line style="stroke:blue;fill:blue;" id="21427" x2="120.00" x1="50.00" y1="500.00" y2="550.00" /><line style="stroke:blue;fill:blue;" id="21428" x2="20.00" x1="50.00" y1="500.00" y2="450.00" /><line style="stroke:blue;fill:blue;" id="21429" x2="70.00" x1="50.00" y1="20.00" y2="70.00" /><line style="stroke:blue;fill:blue;" id="21430" x2="100.00" x1="70.00" y1="70.00" y2="110.00" /><line style="stroke:blue;fill:blue;" id="21431" x2="50.00" x1="70.00" y1="70.00" y2="20.00" /><line style="stroke:blue;fill:blue;" id="21432" x2="150.00" x1="100.00" y1="110.00" y2="150.00" /><line style="stroke:blue;fill:blue;" id="21433" x2="52.32" x1="100.00" y1="110.00" y2="147.68" /><line style="stroke:blue;fill:blue;" id="21434" x2="130.00" x1="100.00" y1="110.00" y2="70.00" /><line style="stroke:blue;fill:blue;" id="21435" x2="70.00" x1="100.00" y1="110.00" y2="70.00" /><line style="stroke:blue;fill:blue;" id="21436" x2="20.00" x1="100.00" y1="300.00" y2="280.00" /><line style="stroke:blue;fill:blue;" id="21437" x2="150.00" x1="100.00" y1="300.00" y2="250.00" /><line style="stroke:blue;fill:blue;" id="21438" x2="150.00" x1="100.00" y1="300.00" y2="350.00" /><line style="stroke:blue;fill:blue;" id="21439" x2="200.00" x1="120.00" y1="550.00" y2="580.00" /><line style="stroke:blue;fill:blue;" id="21440" x2="200.00" x1="120.00" y1="550.00" y2="520.00" /><line style="stroke:blue;fill:blue;" id="21441" x2="50.00" x1="120.00" y1="550.00" y2="500.00" /><line style="stroke:blue;fill:blue;" id="21442" x2="140.00" x1="120.00" y1="550.00" y2="450.00" /><line style="stroke:blue;fill:blue;" id="21443" x2="50.00" x1="120.00" y1="700.00" y2="700.00" /><line style="stroke:blue;fill:blue;" id="21444" x2="200.00" x1="120.00" y1="700.00" y2="680.00" /><line style="stroke:blue;fill:blue;" id="21445" x2="100.00" x1="130.00" y1="70.00" y2="110.00" /><line style="stroke:blue;fill:blue;" id="21446" x2="150.00" x1="150.00" y1="200.00" y2="150.00" /><line style="stroke:blue;fill:blue;" id="21447" x2="150.00" x1="150.00" y1="200.00" y2="250.00" /><line style="stroke:blue;fill:blue;" id="21448" x2="150.00" x1="150.00" y1="350.00" y2="250.00" /><line style="stroke:blue;fill:blue;" id="21449" x2="200.00" x1="150.00" y1="350.00" y2="320.00" /><line style="stroke:blue;fill:blue;" id="21450" x2="100.00" x1="150.00" y1="350.00" y2="300.00" /><line style="stroke:blue;fill:blue;" id="21451" x2="200.00" x1="150.00" y1="150.00" y2="100.00" /><line style="stroke:blue;fill:blue;" id="21452" x2="100.00" x1="150.00" y1="150.00" y2="110.00" /><line style="stroke:blue;fill:blue;" id="21453" x2="150.00" x1="150.00" y1="150.00" y2="200.00" /><line style="stroke:blue;fill:blue;" id="21454" x2="200.00" x1="150.00" y1="620.00" y2="580.00" /><line style="stroke:blue;fill:blue;" id="21455" x2="250.00" x1="150.00" y1="620.00" y2="650.00" /><line style="stroke:blue;fill:blue;" id="21456" x2="150.00" x1="150.00" y1="250.00" y2="200.00" /><line style="stroke:blue;fill:blue;" id="21457" x2="200.00" x1="150.00" y1="250.00" y2="320.00" /><line style="stroke:blue;fill:blue;" id="21458" x2="150.00" x1="150.00" y1="250.00" y2="350.00" /><line style="stroke:blue;fill:blue;" id="21459" x2="100.00" x1="150.00" y1="250.00" y2="300.00" /><line style="stroke:blue;fill:blue;" id="21460" x2="250.00" x1="200.00" y1="580.00" y2="600.00" /><line style="stroke:blue;fill:blue;" id="21461" x2="120.00" x1="200.00" y1="580.00" y2="550.00" /><line style="stroke:blue;fill:blue;" id="21462" x2="200.00" x1="200.00" y1="580.00" y2="520.00" /><line style="stroke:blue;fill:blue;" id="21463" x2="150.00" x1="200.00" y1="580.00" y2="620.00" /><line style="stroke:blue;fill:blue;" id="21464" x2="250.00" x1="200.00" y1="580.00" y2="650.00" /><line style="stroke:blue;fill:blue;" id="21465" x2="250.00" x1="200.00" y1="680.00" y2="650.00" /><line style="stroke:blue;fill:blue;" id="21466" x2="120.00" x1="200.00" y1="680.00" y2="700.00" /><line style="stroke:blue;fill:blue;" id="21467" x2="280.00" x1="200.00" y1="100.00" y2="100.00" /><line style="stroke:blue;fill:blue;" id="21468" x2="150.00" x1="200.00" y1="100.00" y2="150.00" /><line style="stroke:blue;fill:blue;" id="21469" x2="250.00" x1="200.00" y1="100.00" y2="150.00" /><line style="stroke:blue;fill:blue;" id="21470" x2="120.00" x1="200.00" y1="520.00" y2="550.00" /><line style="stroke:blue;fill:blue;" id="21471" x2="200.00" x1="200.00" y1="520.00" y2="580.00" /><line style="stroke:blue;fill:blue;" id="21472" x2="150.00" x1="200.00" y1="320.00" y2="250.00" /><line style="stroke:blue;fill:blue;" id="21473" x2="150.00" x1="200.00" y1="320.00" y2="350.00" /><line style="stroke:blue;fill:blue;" id="21474" x2="280.00" x1="200.00" y1="320.00" y2="350.00" /><line style="stroke:blue;fill:blue;" id="21475" x2="250.00" x1="250.00" y1="650.00" y2="600.00" /><line style="stroke:blue;fill:blue;" id="21476" x2="200.00" x1="250.00" y1="650.00" y2="580.00" /><line style="stroke:blue;fill:blue;" id="21477" x2="150.00" x1="250.00" y1="650.00" y2="620.00" /><line style="stroke:blue;fill:blue;" id="21478" x2="200.00" x1="250.00" y1="650.00" y2="680.00" /><line style="stroke:blue;fill:blue;" id="21479" x2="200.00" x1="250.00" y1="150.00" y2="100.00" /><line style="stroke:blue;fill:blue;" id="21480" x2="290.00" x1="250.00" y1="600.00" y2="520.00" /><line style="stroke:blue;fill:blue;" id="21481" x2="380.00" x1="250.00" y1="600.00" y2="600.00" /><line style="stroke:blue;fill:blue;" id="21482" x2="200.00" x1="250.00" y1="600.00" y2="580.00" /><line style="stroke:blue;fill:blue;" id="21483" x2="250.00" x1="250.00" y1="600.00" y2="650.00" /><line style="stroke:blue;fill:blue;" id="21484" x2="200.00" x1="280.00" y1="350.00" y2="320.00" /><line style="stroke:blue;fill:blue;" id="21485" x2="380.00" x1="280.00" y1="350.00" y2="350.00" /><line style="stroke:blue;fill:blue;" id="21486" x2="350.00" x1="280.00" y1="100.00" y2="80.00" /><line style="stroke:blue;fill:blue;" id="21487" x2="200.00" x1="280.00" y1="100.00" y2="100.00" /><line style="stroke:blue;fill:blue;" id="21488" x2="380.00" x1="300.00" y1="720.00" y2="750.00" /><line style="stroke:blue;fill:blue;" id="21489" x2="380.00" x1="320.00" y1="400.00" y2="350.00" /><line style="stroke:blue;fill:blue;" id="21490" x2="420.00" x1="320.00" y1="400.00" y2="420.00" /><line style="stroke:blue;fill:blue;" id="21491" x2="420.00" x1="350.00" y1="80.00" y2="80.00" /><line style="stroke:blue;fill:blue;" id="21492" x2="280.00" x1="350.00" y1="80.00" y2="100.00" /><line style="stroke:blue;fill:blue;" id="21493" x2="280.00" x1="380.00" y1="350.00" y2="350.00" /><line style="stroke:blue;fill:blue;" id="21494" x2="450.00" x1="380.00" y1="350.00" y2="350.00" /><line style="stroke:blue;fill:blue;" id="21495" x2="320.00" x1="380.00" y1="350.00" y2="400.00" /><line style="stroke:blue;fill:blue;" id="21496" x2="420.00" x1="380.00" y1="350.00" y2="420.00" /><line style="stroke:blue;fill:blue;" id="21497" x2="250.00" x1="380.00" y1="600.00" y2="600.00" /><line style="stroke:blue;fill:blue;" id="21498" x2="380.00" x1="380.00" y1="600.00" y2="650.00" /><line style="stroke:blue;fill:blue;" id="21499" x2="450.00" x1="380.00" y1="600.00" y2="596.50" /><line style="stroke:blue;fill:blue;" id="21500" x2="380.00" x1="380.00" y1="650.00" y2="600.00" /><line style="stroke:blue;fill:blue;" id="21501" x2="450.00" x1="380.00" y1="650.00" y2="645.50" /><line style="stroke:blue;fill:blue;" id="21502" x2="380.00" x1="380.00" y1="650.00" y2="700.00" /><line style="stroke:blue;fill:blue;" id="21503" x2="380.00" x1="380.00" y1="700.00" y2="650.00" /><line style="stroke:blue;fill:blue;" id="21504" x2="380.00" x1="380.00" y1="700.00" y2="750.00" /><line style="stroke:blue;fill:blue;" id="21505" x2="380.00" x1="380.00" y1="750.00" y2="700.00" /><line style="stroke:blue;fill:blue;" id="21506" x2="450.00" x1="380.00" y1="750.00" y2="743.50" /><line style="stroke:blue;fill:blue;" id="21507" x2="300.00" x1="380.00" y1="750.00" y2="720.00" /><line style="stroke:blue;fill:blue;" id="21508" x2="480.00" x1="400.00" y1="500.00" y2="500.00" /><line style="stroke:blue;fill:blue;" id="21509" x2="350.00" x1="420.00" y1="80.00" y2="80.00" /><line style="stroke:blue;fill:blue;" id="21510" x2="478.09" x1="420.00" y1="80.00" y2="79.04" /><line style="stroke:blue;fill:blue;" id="21511" x2="400.00" x1="420.00" y1="80.00" y2="20.00" /><line style="stroke:blue;fill:blue;" id="21512" x2="380.00" x1="420.00" y1="420.00" y2="350.00" /><line style="stroke:blue;fill:blue;" id="21513" x2="320.00" x1="420.00" y1="420.00" y2="400.00" /><line style="stroke:blue;fill:blue;" id="21514" x2="550.00" x1="420.00" y1="420.00" y2="450.00" /><line style="stroke:blue;fill:blue;" id="21515" x2="380.00" x1="450.00" y1="596.50" y2="600.00" /><line style="stroke:blue;fill:blue;" id="21516" x2="500.00" x1="450.00" y1="596.50" y2="620.00" /><line style="stroke:blue;fill:blue;" id="21517" x2="380.00" x1="450.00" y1="645.50" y2="650.00" /><line style="stroke:blue;fill:blue;" id="21518" x2="500.00" x1="450.00" y1="645.50" y2="620.00" /><line style="stroke:blue;fill:blue;" id="21519" x2="380.00" x1="450.00" y1="743.50" y2="750.00" /><line style="stroke:blue;fill:blue;" id="21520" x2="450.00" x1="450.00" y1="743.50" y2="694.50" /><line style="stroke:blue;fill:blue;" id="21521" x2="520.00" x1="450.00" y1="743.50" y2="720.00" /><line style="stroke:blue;fill:blue;" id="21522" x2="450.00" x1="450.00" y1="694.50" y2="743.50" /><line style="stroke:blue;fill:blue;" id="21523" x2="450.00" x1="450.00" y1="300.00" y2="350.00" /><line style="stroke:blue;fill:blue;" id="21524" x2="450.00" x1="450.00" y1="300.00" y2="250.00" /><line style="stroke:blue;fill:blue;" id="21525" x2="380.00" x1="450.00" y1="350.00" y2="350.00" /><line style="stroke:blue;fill:blue;" id="21526" x2="450.00" x1="450.00" y1="350.00" y2="300.00" /><line style="stroke:blue;fill:blue;" id="21527" x2="520.00" x1="450.00" y1="350.00" y2="350.00" /><line style="stroke:blue;fill:blue;" id="21528" x2="450.00" x1="450.00" y1="250.00" y2="300.00" /><line style="stroke:blue;fill:blue;" id="21529" x2="550.00" x1="480.00" y1="500.00" y2="500.00" /><line style="stroke:blue;fill:blue;" id="21530" x2="400.00" x1="480.00" y1="500.00" y2="500.00" /><line style="stroke:blue;fill:blue;" id="21531" x2="420.00" x1="478.09" y1="79.04" y2="80.00" /><line style="stroke:blue;fill:blue;" id="21532" x2="550.00" x1="478.09" y1="79.04" y2="50.00" /><line style="stroke:blue;fill:blue;" id="21533" x2="521.91" x1="478.09" y1="79.04" y2="100.96" /><line style="stroke:blue;fill:blue;" id="21534" x2="450.00" x1="500.00" y1="620.00" y2="596.50" /><line style="stroke:blue;fill:blue;" id="21535" x2="450.00" x1="500.00" y1="620.00" y2="645.50" /><line style="stroke:blue;fill:blue;" id="21536" x2="650.00" x1="500.00" y1="620.00" y2="620.00" /><line style="stroke:blue;fill:blue;" id="21537" x2="600.00" x1="520.00" y1="720.00" y2="750.00" /><line style="stroke:blue;fill:blue;" id="21538" x2="600.00" x1="520.00" y1="720.00" y2="680.00" /><line style="stroke:blue;fill:blue;" id="21539" x2="450.00" x1="520.00" y1="720.00" y2="743.50" /><line style="stroke:blue;fill:blue;" id="21540" x2="478.09" x1="521.91" y1="100.96" y2="79.04" /><line style="stroke:blue;fill:blue;" id="21541" x2="550.00" x1="521.91" y1="100.96" y2="50.00" /><line style="stroke:blue;fill:blue;" id="21542" x2="450.00" x1="520.00" y1="350.00" y2="350.00" /><line style="stroke:blue;fill:blue;" id="21543" x2="620.00" x1="520.00" y1="350.00" y2="350.00" /><line style="stroke:blue;fill:blue;" id="21544" x2="478.09" x1="550.00" y1="50.00" y2="79.04" /><line style="stroke:blue;fill:blue;" id="21545" x2="521.91" x1="550.00" y1="50.00" y2="100.96" /><line style="stroke:blue;fill:blue;" id="21546" x2="650.00" x1="550.00" y1="50.00" y2="50.00" /><line style="stroke:blue;fill:blue;" id="21547" x2="650.00" x1="550.00" y1="450.00" y2="450.00" /><line style="stroke:blue;fill:blue;" id="21548" x2="420.00" x1="550.00" y1="450.00" y2="420.00" /><line style="stroke:blue;fill:blue;" id="21549" x2="550.00" x1="550.00" y1="450.00" y2="500.00" /><line style="stroke:blue;fill:blue;" id="21550" x2="550.00" x1="550.00" y1="500.00" y2="450.00" /><line style="stroke:blue;fill:blue;" id="21551" x2="620.00" x1="550.00" y1="500.00" y2="500.00" /><line style="stroke:blue;fill:blue;" id="21552" x2="480.00" x1="550.00" y1="500.00" y2="500.00" /><line style="stroke:blue;fill:blue;" id="21553" x2="550.00" x1="550.00" y1="500.00" y2="550.00" /><line style="stroke:blue;fill:blue;" id="21554" x2="550.00" x1="550.00" y1="550.00" y2="500.00" /><line style="stroke:blue;fill:blue;" id="21555" x2="620.00" x1="550.00" y1="550.00" y2="500.00" /><line style="stroke:blue;fill:blue;" id="21556" x2="620.00" x1="630.00" y1="300.00" y2="350.00" /><line style="stroke:blue;fill:blue;" id="21557" x2="520.00" x1="620.00" y1="350.00" y2="350.00" /><line style="stroke:blue;fill:blue;" id="21558" x2="700.00" x1="620.00" y1="350.00" y2="350.00" /><line style="stroke:blue;fill:blue;" id="21559" x2="630.00" x1="620.00" y1="350.00" y2="300.00" /><line style="stroke:blue;fill:blue;" id="21560" x2="550.00" x1="620.00" y1="500.00" y2="500.00" /><line style="stroke:blue;fill:blue;" id="21561" x2="550.00" x1="620.00" y1="500.00" y2="550.00" /><line style="stroke:blue;fill:blue;" id="21562" x2="650.00" x1="620.00" y1="150.00" y2="100.00" /><line style="stroke:blue;fill:blue;" id="21563" x2="750.00" x1="650.00" y1="450.00" y2="450.00" /><line style="stroke:blue;fill:blue;" id="21564" x2="550.00" x1="650.00" y1="450.00" y2="450.00" /><line style="stroke:blue;fill:blue;" id="21565" x2="500.00" x1="650.00" y1="620.00" y2="620.00" /><line style="stroke:blue;fill:blue;" id="21566" x2="700.00" x1="650.00" y1="620.00" y2="650.00" /><line style="stroke:blue;fill:blue;" id="21567" x2="700.00" x1="650.00" y1="620.00" y2="580.00" /><line style="stroke:blue;fill:blue;" id="21568" x2="550.00" x1="650.00" y1="50.00" y2="50.00" /><line style="stroke:blue;fill:blue;" id="21569" x2="650.00" x1="650.00" y1="50.00" y2="100.00" /><line style="stroke:blue;fill:blue;" id="21570" x2="750.00" x1="650.00" y1="50.00" y2="50.00" /><line style="stroke:blue;fill:blue;" id="21571" x2="650.00" x1="650.00" y1="100.00" y2="50.00" /><line style="stroke:blue;fill:blue;" id="21572" x2="620.00" x1="650.00" y1="100.00" y2="150.00" /><line style="stroke:blue;fill:blue;" id="21573" x2="700.00" x1="650.00" y1="100.00" y2="150.00" /><line style="stroke:blue;fill:blue;" id="21574" x2="750.00" x1="650.00" y1="100.00" y2="100.00" /><line style="stroke:blue;fill:blue;" id="21575" x2="620.00" x1="700.00" y1="350.00" y2="350.00" /><line style="stroke:blue;fill:blue;" id="21576" x2="779.04" x1="700.00" y1="350.00" y2="321.91" /><line style="stroke:blue;fill:blue;" id="21577" x2="650.00" x1="700.00" y1="650.00" y2="620.00" /><line style="stroke:blue;fill:blue;" id="21578" x2="780.00" x1="700.00" y1="650.00" y2="680.00" /><line style="stroke:blue;fill:blue;" id="21579" x2="650.00" x1="700.00" y1="580.00" y2="620.00" /><line style="stroke:blue;fill:blue;" id="21580" x2="750.00" x1="700.00" y1="580.00" y2="550.00" /><line style="stroke:blue;fill:blue;" id="21581" x2="650.00" x1="700.00" y1="150.00" y2="100.00" /><line style="stroke:blue;fill:blue;" id="21582" x2="750.00" x1="700.00" y1="150.00" y2="100.00" /><line style="stroke:blue;fill:blue;" id="21583" x2="650.00" x1="750.00" y1="50.00" y2="50.00" /><line style="stroke:blue;fill:blue;" id="21584" x2="750.00" x1="750.00" y1="50.00" y2="100.00" /><line style="stroke:blue;fill:blue;" id="21585" x2="850.00" x1="750.00" y1="50.00" y2="80.00" /><line style="stroke:blue;fill:blue;" id="21586" x2="650.00" x1="750.00" y1="100.00" y2="100.00" /><line style="stroke:blue;fill:blue;" id="21587" x2="700.00" x1="750.00" y1="100.00" y2="150.00" /><line style="stroke:blue;fill:blue;" id="21588" x2="750.00" x1="750.00" y1="100.00" y2="50.00" /><line style="stroke:blue;fill:blue;" id="21589" x2="750.00" x1="750.00" y1="450.00" y2="550.00" /><line style="stroke:blue;fill:blue;" id="21590" x2="850.00" x1="750.00" y1="450.00" y2="420.00" /><line style="stroke:blue;fill:blue;" id="21591" x2="850.00" x1="750.00" y1="450.00" y2="500.00" /><line style="stroke:blue;fill:blue;" id="21592" x2="650.00" x1="750.00" y1="450.00" y2="450.00" /><line style="stroke:blue;fill:blue;" id="21593" x2="700.00" x1="750.00" y1="550.00" y2="580.00" /><line style="stroke:blue;fill:blue;" id="21594" x2="840.00" x1="750.00" y1="550.00" y2="570.00" /><line style="stroke:blue;fill:blue;" id="21595" x2="750.00" x1="750.00" y1="550.00" y2="450.00" /><line style="stroke:blue;fill:blue;" id="21596" x2="700.00" x1="780.00" y1="680.00" y2="650.00" /><line style="stroke:blue;fill:blue;" id="21597" x2="840.00" x1="780.00" y1="680.00" y2="650.00" /><line style="stroke:blue;fill:blue;" id="21598" x2="700.00" x1="779.04" y1="321.91" y2="350.00" /><line style="stroke:blue;fill:blue;" id="21599" x2="850.00" x1="779.04" y1="321.91" y2="320.00" /><line style="stroke:blue;fill:blue;" id="21600" x2="850.00" x1="800.96" y1="278.09" y2="320.00" /><line style="stroke:blue;fill:blue;" id="21601" x2="840.00" x1="840.00" y1="570.00" y2="650.00" /><line style="stroke:blue;fill:blue;" id="21602" x2="750.00" x1="840.00" y1="570.00" y2="550.00" /><line style="stroke:blue;fill:blue;" id="21603" x2="780.00" x1="840.00" y1="650.00" y2="680.00" /><line style="stroke:blue;fill:blue;" id="21604" x2="840.00" x1="840.00" y1="650.00" y2="570.00" /><line style="stroke:blue;fill:blue;" id="21605" x2="779.04" x1="850.00" y1="320.00" y2="321.91" /><line style="stroke:blue;fill:blue;" id="21606" x2="800.96" x1="850.00" y1="320.00" y2="278.09" /><line style="stroke:blue;fill:blue;" id="21607" x2="900.00" x1="850.00" y1="320.00" y2="280.00" /><line style="stroke:blue;fill:blue;" id="21608" x2="950.00" x1="850.00" y1="80.00" y2="150.00" /><line style="stroke:blue;fill:blue;" id="21609" x2="750.00" x1="850.00" y1="80.00" y2="50.00" /><line style="stroke:blue;fill:blue;" id="21610" x2="750.00" x1="850.00" y1="420.00" y2="450.00" /><line style="stroke:blue;fill:blue;" id="21611" x2="850.00" x1="850.00" y1="420.00" y2="500.00" /><line style="stroke:blue;fill:blue;" id="21612" x2="950.00" x1="850.00" y1="420.00" y2="380.00" /><line style="stroke:blue;fill:blue;" id="21613" x2="750.00" x1="850.00" y1="500.00" y2="450.00" /><line style="stroke:blue;fill:blue;" id="21614" x2="850.00" x1="850.00" y1="500.00" y2="420.00" /><line style="stroke:blue;fill:blue;" id="21615" x2="950.00" x1="850.00" y1="500.00" y2="540.00" /><line style="stroke:blue;fill:blue;" id="21616" x2="880.00" x1="880.00" y1="150.00" y2="220.00" /><line style="stroke:blue;fill:blue;" id="21617" x2="950.00" x1="880.00" y1="150.00" y2="150.00" /><line style="stroke:blue;fill:blue;" id="21618" x2="950.00" x1="880.00" y1="220.00" y2="220.00" /><line style="stroke:blue;fill:blue;" id="21619" x2="880.00" x1="880.00" y1="220.00" y2="150.00" /><line style="stroke:blue;fill:blue;" id="21620" x2="950.00" x1="900.00" y1="280.00" y2="220.00" /><line style="stroke:blue;fill:blue;" id="21621" x2="850.00" x1="900.00" y1="280.00" y2="320.00" /><line style="stroke:blue;fill:blue;" id="21622" x2="950.00" x1="950.00" y1="150.00" y2="220.00" /><line style="stroke:blue;fill:blue;" id="21623" x2="880.00" x1="950.00" y1="150.00" y2="150.00" /><line style="stroke:blue;fill:blue;" id="21624" x2="850.00" x1="950.00" y1="150.00" y2="80.00" /><line style="stroke:blue;fill:blue;" id="21625" x2="950.00" x1="950.00" y1="220.00" y2="380.00" /><line style="stroke:blue;fill:blue;" id="21626" x2="880.00" x1="950.00" y1="220.00" y2="220.00" /><line style="stroke:blue;fill:blue;" id="21627" x2="950.00" x1="950.00" y1="220.00" y2="150.00" /><line style="stroke:blue;fill:blue;" id="21628" x2="979.04" x1="950.00" y1="220.00" y2="278.09" /><line style="stroke:blue;fill:blue;" id="21629" x2="900.00" x1="950.00" y1="220.00" y2="280.00" /><line style="stroke:blue;fill:blue;" id="21630" x2="850.00" x1="950.00" y1="380.00" y2="420.00" /><line style="stroke:blue;fill:blue;" id="21631" x2="950.00" x1="950.00" y1="380.00" y2="220.00" /><line style="stroke:blue;fill:blue;" id="21632" x2="850.00" x1="950.00" y1="540.00" y2="500.00" /><line style="stroke:blue;fill:blue;" id="21633" x2="950.00" x1="979.04" y1="278.09" y2="220.00" /><line style="stroke:blue;fill:blue;" id="21634" x2="1000.96" x1="979.04" y1="278.09" y2="321.91" /><line style="stroke:blue;fill:blue;" id="21635" x2="1020.00" x1="1000.96" y1="321.91" y2="380.00" /><line style="stroke:blue;fill:blue;" id="21636" x2="979.04" x1="1000.96" y1="321.91" y2="278.09" /><line style="stroke:blue;fill:blue;" id="21637" x2="100.00" x1="20.00" y1="280.00" y2="300.00" /><line style="stroke:blue;fill:blue;" id="21638" x2="120.00" x1="50.00" y1="700.00" y2="700.00" /><line style="stroke:blue;fill:blue;" id="21639" x2="120.00" x1="140.00" y1="450.00" y2="550.00" /><line style="stroke:blue;fill:blue;" id="21640" x2="250.00" x1="290.00" y1="520.00" y2="600.00" /><line style="stroke:blue;fill:blue;" id="21641" x2="420.00" x1="400.00" y1="20.00" y2="80.00" /><line style="stroke:blue;fill:blue;" id="21642" x2="520.00" x1="600.00" y1="680.00" y2="720.00" /><line style="stroke:blue;fill:blue;" id="21643" x2="520.00" x1="600.00" y1="750.00" y2="720.00" /><line style="stroke:blue;fill:blue;" id="21644" x2="1000.96" x1="1020.00" y1="380.00" y2="321.91" /></svg>
