<?xml version="1.0" standalone="yes"?><!DOCTYPE svg PUBLIC "-//W3C//DTD SVG 1.1//EN" "http://www.w3.org/Graphics/SVG/1.1/DTD/svg11.dtd"[]><svg height="800.00" id="21645" width="1050.00" xmlns="http://www.w3.org/2000/svg" xmlns:xlink="http://www.w3.org/1999/xlink"><rect Type="system" Region="外环" height="5.00" y="20.00" Name="A2V6-6" width="5.00" x="20.00" id="21646" ID="30004550" /><text x="20.00" y="20.00" id="21647">A2V6-6</text><rect Type="system" Region="外环" height="5.00" y="75.50" Name="0D-CHA" width="5.00" x="20.00" id="21649" ID="30004549" /><text x="20.00" y="75.50" id="21650">0D-CHA</text><rect Type="system" Region="外环" height="5.00" y="124.50" Name="YVA-F0" width="5.00" x="20.00" id="21652" ID="30004548" /><text x="20.00" y="124.50" id="21653">YVA-F0</text><rect Type="system" Region="外环" height="5.00" y="175.50" Name="VBFC-8" width="5.00" x="20.00" id="21655" ID="30004547" /><text x="20.00" y="175.50" id="21656">VBFC-8</text><rect Type="system" Region="外环" height="5.00" y="224.50" Name="E-GCX0" width="5.00" x="20.00" id="21658" ID="30004546" /><text x="20.00" y="224.50" id="21659">E-GCX0</text><rect Type="system" Region="外环" height="5.00" y="275.50" Name="BOE7-P" width="5.00" x="20.00" id="21661" ID="30004545" /><text x="20.00" y="275.50" id="21662">BOE7-P</text><rect Type="system" Region="外环" height="5.00" y="324.50" Name="A-5M31" width="5.00" x="20.00" id="21664" ID="30004544" /><text x="20.00" y="324.50" id="21665">A-5M31</text><rect Type="system" Region="外环" height="5.00" y="400.00" Name="O-RIDF" width="5.00" x="50.00" id="21667" ID="30004543" /><text x="50.00" y="400.00" id="21668">O-RIDF</text><rect Type="system" Region="外环" height="5.00" y="200.00" Name="VJ0-81" width="5.00" x="100.00" id="21670" ID="30004551" /><text x="100.00" y="200.00" id="21671">VJ0-81</text><rect Type="system" Region="外环" height="5.00" y="380.00" Name="Z-40CG" width="5.00" x="120.00" id="21673" ID="30004542" /><text x="120.00" y="380.00" id="21674">Z-40CG</text><rect Type="system" Region="外环" height="5.00" y="700.00" Name="7-692B" width="5.00" x="150.00" id="21676" ID="30004525" /><text x="150.00" y="700.00" id="21677">7-692B</text><rect Type="system" Region="外环" height="5.00" y="350.00" Name="LBV-Q1" width="5.00" x="200.00" id="21679" ID="30004541" /><text x="200.00" y="350.00" id="21680">LBV-Q1</text><rect Type="system" Region="外环" height="5.00" y="302.32" Name="ZXC8-1" width="5.00" x="217.68" id="21682" ID="30004540" /><text x="217.68" y="302.32" id="21683">ZXC8-1</text><rect Type="system" Region="外环" height="5.00" y="700.00" Name="DB-6W4" width="5.00" x="220.00" id="21685" ID="30004524" /><text x="220.00" y="700.00" id="21686">DB-6W4</text><rect Type="system" Region="外环" height="5.00" y="650.00" Name="GA-2V7" width="5.00" x="250.00" id="21688" ID="30004523" /><text x="250.00" y="650.00" id="21689">GA-2V7</text><rect Type="system" Region="外环" height="5.00" y="267.68" Name="BMU-V1" width="5.00" x="252.32" id="21691" ID="30004539" /><text x="252.32" y="267.68" id="21692">BMU-V1</text><rect Type="system" Region="外环" height="5.00" y="680.00" Name="R-OCBA" width="5.00" x="300.00" id="21694" ID="30004522" /><text x="300.00" y="680.00" id="21695">R-OCBA</text><rect Type="system" Region="外环" height="5.00" y="250.00" Name="W2F-ZH" width="5.00" x="300.00" id="21697" ID="30004538" /><text x="300.00" y="250.00" id="21698">W2F-ZH</text><rect Type="system" Region="外环" height="5.00" y="550.00" Name="RTX0-S" width="5.00" x="320.00" id="21700" ID="30004516" /><text x="320.00" y="550.00" id="21701">RTX0-S</text><rect Type="system" Region="外环" height="5.00" y="500.00" Name="MT-2VJ" width="5.00" x="320.00" id="21703" ID="30004519" /><text x="320.00" y="500.00" id="21704">MT-2VJ</text><rect Type="system" Region="外环" height="5.00" y="650.00" Name="3HQC-6" width="5.00" x="380.00" id="21706" ID="30004520" /><text x="380.00" y="650.00" id="21707">3HQC-6</text><rect Type="system" Region="外环" height="5.00" y="100.00" Name="J1H-R4" width="5.00" x="380.00" id="21709" ID="30004513" /><text x="380.00" y="100.00" id="21710">J1H-R4</text><rect Type="system" Region="外环" height="5.00" y="250.00" Name="M-NKZM" width="5.00" x="400.00" id="21712" ID="30004511" /><text x="400.00" y="250.00" id="21713">M-NKZM</text><rect Type="system" Region="外环" height="5.00" y="420.00" Name="NM-OEA" width="5.00" x="400.00" id="21715" ID="30004518" /><text x="400.00" y="420.00" id="21716">NM-OEA</text><rect Type="system" Region="外环" height="5.00" y="500.00" Name="33FN-P" width="5.00" x="400.00" id="21718" ID="30004517" /><text x="400.00" y="500.00" id="21719">33FN-P</text><rect Type="system" Region="外环" height="5.00" y="200.00" Name="0-9UHT" width="5.00" x="420.00" id="21721" ID="30004510" /><text x="420.00" y="200.00" id="21722">0-9UHT</text><rect Type="system" Region="外环" height="5.00" y="720.00" Name="OX-RGN" width="5.00" x="420.00" id="21724" ID="30004521" /><text x="420.00" y="720.00" id="21725">OX-RGN</text><rect Type="system" Region="外环" height="5.00" y="320.00" Name="H-M1BY" width="5.00" x="420.00" id="21727" ID="30004512" /><text x="420.00" y="320.00" id="21728">H-M1BY</text><rect Type="system" Region="外环" height="5.00" y="600.00" Name="JKJ-VJ" width="5.00" x="450.00" id="21730" ID="30004515" /><text x="450.00" y="600.00" id="21731">JKJ-VJ</text><rect Type="system" Region="外环" height="5.00" y="280.00" Name="5WAE-M" width="5.00" x="480.00" id="21733" ID="30004508" /><text x="480.00" y="280.00" id="21734">5WAE-M</text><rect Type="system" Region="外环" height="5.00" y="550.00" Name="J9SH-A" width="5.00" x="480.00" id="21736" ID="30004514" /><text x="480.00" y="550.00" id="21737">J9SH-A</text><rect Type="system" Region="外环" height="5.00" y="200.00" Name="0-WVQS" width="5.00" x="500.00" id="21739" ID="30004509" /><text x="500.00" y="200.00" id="21740">0-WVQS</text><rect Type="system" Region="外环" height="5.00" y="490.00" Name="LGUZ-1" width="5.00" x="510.00" id="21742" ID="30004505" /><text x="510.00" y="490.00" id="21743">LGUZ-1</text><rect Type="system" Region="外环" height="5.00" y="420.00" Name="4C-B7X" width="5.00" x="550.00" id="21745" ID="30004504" /><text x="550.00" y="420.00" id="21746">4C-B7X</text><rect Type="system" Region="外环" height="5.00" y="250.00" Name="T-Z6J2" width="5.00" x="580.00" id="21748" ID="30004529" /><text x="580.00" y="250.00" id="21749">T-Z6J2</text><rect Type="system" Region="外环" height="5.00" y="350.00" Name="BF-SDP" width="5.00" x="580.00" id="21751" ID="30004506" /><text x="580.00" y="350.00" id="21752">BF-SDP</text><rect Type="system" Region="外环" height="5.00" y="280.00" Name="L3-XYO" width="5.00" x="620.00" id="21754" ID="30004526" /><text x="620.00" y="280.00" id="21755">L3-XYO</text><rect Type="system" Region="外环" height="5.00" y="530.00" Name="F5FO-U" width="5.00" x="620.00" id="21757" ID="30004507" /><text x="620.00" y="530.00" id="21758">F5FO-U</text><rect Type="system" Region="外环" height="5.00" y="200.00" Name="AN-G54" width="5.00" x="620.00" id="21760" ID="30004527" /><text x="620.00" y="200.00" id="21761">AN-G54</text><rect Type="system" Region="外环" height="5.00" y="450.00" Name="F-XWIN" width="5.00" x="650.00" id="21763" ID="30004503" /><text x="650.00" y="450.00" id="21764">F-XWIN</text><rect Type="system" Region="外环" height="5.00" y="150.00" Name="ZXI-K2" width="5.00" x="650.00" id="21766" ID="30004528" /><text x="650.00" y="150.00" id="21767">ZXI-K2</text><rect Type="system" Region="外环" height="5.00" y="80.00" Name="B0C-LD" width="5.00" x="650.00" id="21769" ID="30004532" /><text x="650.00" y="80.00" id="21770">B0C-LD</text><rect Type="system" Region="外环" height="5.00" y="250.00" Name="CT7-5V" width="5.00" x="680.00" id="21772" ID="30004530" /><text x="680.00" y="250.00" id="21773">CT7-5V</text><rect Type="system" Region="外环" height="5.00" y="290.00" Name="2JJ-0E" width="5.00" x="710.00" id="21775" ID="30004531" /><text x="710.00" y="290.00" id="21776">2JJ-0E</text><rect Type="system" Region="外环" height="5.00" y="480.00" Name="D5IW-F" width="5.00" x="750.00" id="21778" ID="30004502" /><text x="750.00" y="480.00" id="21779">D5IW-F</text><rect Type="system" Region="外环" height="5.00" y="100.00" Name="W-Z3HW" width="5.00" x="750.00" id="21781" ID="30004537" /><text x="750.00" y="100.00" id="21782">W-Z3HW</text><rect Type="system" Region="外环" height="5.00" y="20.00" Name="NP6-38" width="5.00" x="780.00" id="21784" ID="30004533" /><text x="780.00" y="20.00" id="21785">NP6-38</text><rect Type="system" Region="外环" height="5.00" y="510.00" Name="1L-BHT" width="5.00" x="850.00" id="21787" ID="30004501" /><text x="850.00" y="510.00" id="21788">1L-BHT</text><rect Type="system" Region="外环" height="5.00" y="50.00" Name="G5-EN3" width="5.00" x="850.00" id="21790" ID="30004536" /><text x="850.00" y="50.00" id="21791">G5-EN3</text><rect Type="system" Region="外环" height="5.00" y="120.00" Name="G-YT55" width="5.00" x="850.00" id="21793" ID="30004534" /><text x="850.00" y="120.00" id="21794">G-YT55</text><rect Type="system" Region="外环" height="5.00" y="280.00" Name="TQ-RR8" width="5.00" x="850.00" id="21796" ID="30004500" /><text x="850.00" y="280.00" id="21797">TQ-RR8</text><rect Type="system" Region="外环" height="5.00" y="380.00" Name="ZQP-QV" width="5.00" x="850.00" id="21799" ID="30004496" /><text x="850.00" y="380.00" id="21800">ZQP-QV</text><rect Type="system" Region="外环" height="5.00" y="510.00" Name="E9G-MT" width="5.00" x="900.00" id="21802" ID="30004499" /><text x="900.00" y="510.00" id="21803">E9G-MT</text><rect Type="system" Region="外环" height="5.00" y="20.00" Name="IZ-AOB" width="5.00" x="920.00" id="21805" ID="30004535" /><text x="920.00" y="20.00" id="21806">IZ-AOB</text><rect Type="system" Region="外环" height="5.00" y="410.00" Name="ZJQH-S" width="5.00" x="920.00" id="21808" ID="30004498" /><text x="920.00" y="410.00" id="21809">ZJQH-S</text><rect Type="system" Region="外环" height="5.00" y="460.00" Name="UO9-YG" width="5.00" x="920.00" id="21811" ID="30004495" /><text x="920.00" y="460.00" id="21812">UO9-YG</text><rect Type="system" Region="外环" height="5.00" y="360.00" Name="P-NUWP" width="5.00" x="950.00" id="21814" ID="30004497" /><text x="950.00" y="360.00" id="21815">P-NUWP</text><rect Type="system" Region="外环" height="5.00" y="280.00" Name="C0T-77" width="5.00" x="1000.00" id="21817" ID="30004493" /><text x="1000.00" y="280.00" id="21818">C0T-77</text><rect Type="system" Region="外环" height="5.00" y="380.00" Name="RL-KT0" width="5.00" x="1000.00" id="21820" ID="30004494" /><text x="1000.00" y="380.00" id="21821">RL-KT0</text><rect Type="system" Region="源泉之域" height="5.00" y="750.00" Name="XF-TQL" width="5.00" x="100.00" id="21823" ID="30004552" /><text x="100.00" y="750.00" id="21824">XF-TQL</text><rect Type="system" Region="辛迪加" height="5.00" y="230.00" Name="0T-AMZ" width="5.00" x="850.00" id="21826" ID="30003349" /><text x="850.00" y="230.00" id="21827">0T-AMZ</text><rect Type="system" Region="辛迪加" height="5.00" y="310.00" Name="EF-F36" width="5.00" x="920.00" id="21829" ID="30003355" /><text x="920.00" y="310.00" id="21830">EF-F36</text><rect Type="system" Region="辛迪加" height="5.00" y="580.00" Name="VSIG-K" width="5.00" x="950.00" id="21832" ID="30003361" /><text x="950.00" y="580.00" id="21833">VSIG-K</text><rect Type="system" Region="云环" height="5.00" y="20.00" Name="5-MLDT" width="5.00" x="1000.00" id="21835" ID="30004039" /><text x="1000.00" y="20.00" id="21836">5-MLDT</text><rect Type="system" Region="辛迪加" height="5.00" y="210.00" Name="3KNK-A" width="5.00" x="1000.00" id="21838" ID="30003322" /><text x="1000.00" y="210.00" id="21839">3KNK-A</text><line x2="20.00" style="fill:blue;stroke:blue;" y1="20.00" x1="20.00" id="21841" y2="75.50" /><line x2="20.00" style="fill:blue;stroke:blue;" y1="75.50" x1="20.00" id="21842" y2="124.50" /><line x2="20.00" style="fill:blue;stroke:blue;" y1="75.50" x1="20.00" id="21843" y2="20.00" /><line x2="20.00" style="fill:blue;stroke:blue;" y1="124.50" x1="20.00" id="21844" y2="175.50" /><line x2="20.00" style="fill:blue;stroke:blue;" y1="124.50" x1="20.00" id="21845" y2="75.50" /><line x2="20.00" style="fill:blue;stroke:blue;" y1="175.50" x1="20.00" id="21846" y2="224.50" /><line x2="20.00" style="fill:blue;stroke:blue;" y1="175.50" x1="20.00" id="21847" y2="124.50" /><line x2="100.00" style="fill:blue;stroke:blue;" y1="175.50" x1="20.00" id="21848" y2="200.00" /><line x2="20.00" style="fill:blue;stroke:blue;" y1="224.50" x1="20.00" id="21849" y2="275.50" /><line x2="20.00" style="fill:blue;stroke:blue;" y1="224.50" x1="20.00" id="21850" y2="175.50" /><line x2="100.00" style="fill:blue;stroke:blue;" y1="224.50" x1="20.00" id="21851" y2="200.00" /><line x2="20.00" style="fill:blue;stroke:blue;" y1="275.50" x1="20.00" id="21852" y2="324.50" /><line x2="20.00" style="fill:blue;stroke:blue;" y1="275.50" x1="20.00" id="21853" y2="224.50" /><line x2="50.00" style="fill:blue;stroke:blue;" y1="324.50" x1="20.00" id="21854" y2="400.00" /><line x2="20.00" style="fill:blue;stroke:blue;" y1="324.50" x1="20.00" id="21855" y2="275.50" /><line x2="120.00" style="fill:blue;stroke:blue;" y1="400.00" x1="50.00" id="21856" y2="380.00" /><line x2="20.00" style="fill:blue;stroke:blue;" y1="400.00" x1="50.00" id="21857" y2="324.50" /><line x2="20.00" style="fill:blue;stroke:blue;" y1="200.00" x1="100.00" id="21858" y2="224.50" /><line x2="20.00" style="fill:blue;stroke:blue;" y1="200.00" x1="100.00" id="21859" y2="175.50" /><line x2="200.00" style="fill:blue;stroke:blue;" y1="380.00" x1="120.00" id="21860" y2="350.00" /><line x2="50.00" style="fill:blue;stroke:blue;" y1="380.00" x1="120.00" id="21861" y2="400.00" /><line x2="220.00" style="fill:blue;stroke:blue;" y1="700.00" x1="150.00" id="21862" y2="700.00" /><line x2="100.00" style="fill:blue;stroke:blue;" y1="700.00" x1="150.00" id="21863" y2="750.00" /><line x2="217.68" style="fill:blue;stroke:blue;" y1="350.00" x1="200.00" id="21864" y2="302.32" /><line x2="120.00" style="fill:blue;stroke:blue;" y1="350.00" x1="200.00" id="21865" y2="380.00" /><line x2="252.32" style="fill:blue;stroke:blue;" y1="302.32" x1="217.68" id="21866" y2="267.68" /><line x2="200.00" style="fill:blue;stroke:blue;" y1="302.32" x1="217.68" id="21867" y2="350.00" /><line x2="300.00" style="fill:blue;stroke:blue;" y1="700.00" x1="220.00" id="21868" y2="680.00" /><line x2="250.00" style="fill:blue;stroke:blue;" y1="700.00" x1="220.00" id="21869" y2="650.00" /><line x2="150.00" style="fill:blue;stroke:blue;" y1="700.00" x1="220.00" id="21870" y2="700.00" /><line x2="300.00" style="fill:blue;stroke:blue;" y1="650.00" x1="250.00" id="21871" y2="680.00" /><line x2="220.00" style="fill:blue;stroke:blue;" y1="650.00" x1="250.00" id="21872" y2="700.00" /><line x2="300.00" style="fill:blue;stroke:blue;" y1="267.68" x1="252.32" id="21873" y2="250.00" /><line x2="217.68" style="fill:blue;stroke:blue;" y1="267.68" x1="252.32" id="21874" y2="302.32" /><line x2="380.00" style="fill:blue;stroke:blue;" y1="680.00" x1="300.00" id="21875" y2="650.00" /><line x2="250.00" style="fill:blue;stroke:blue;" y1="680.00" x1="300.00" id="21876" y2="650.00" /><line x2="220.00" style="fill:blue;stroke:blue;" y1="680.00" x1="300.00" id="21877" y2="700.00" /><line x2="400.00" style="fill:blue;stroke:blue;" y1="250.00" x1="300.00" id="21878" y2="250.00" /><line x2="252.32" style="fill:blue;stroke:blue;" y1="250.00" x1="300.00" id="21879" y2="267.68" /><line x2="450.00" style="fill:blue;stroke:blue;" y1="550.00" x1="320.00" id="21880" y2="600.00" /><line x2="320.00" style="fill:blue;stroke:blue;" y1="550.00" x1="320.00" id="21881" y2="500.00" /><line x2="450.00" style="fill:blue;stroke:blue;" y1="500.00" x1="320.00" id="21882" y2="600.00" /><line x2="320.00" style="fill:blue;stroke:blue;" y1="500.00" x1="320.00" id="21883" y2="550.00" /><line x2="400.00" style="fill:blue;stroke:blue;" y1="500.00" x1="320.00" id="21884" y2="500.00" /><line x2="450.00" style="fill:blue;stroke:blue;" y1="650.00" x1="380.00" id="21885" y2="600.00" /><line x2="420.00" style="fill:blue;stroke:blue;" y1="650.00" x1="380.00" id="21886" y2="720.00" /><line x2="300.00" style="fill:blue;stroke:blue;" y1="650.00" x1="380.00" id="21887" y2="680.00" /><line x2="420.00" style="fill:blue;stroke:blue;" y1="100.00" x1="380.00" id="21888" y2="200.00" /><line x2="480.00" style="fill:blue;stroke:blue;" y1="250.00" x1="400.00" id="21889" y2="280.00" /><line x2="300.00" style="fill:blue;stroke:blue;" y1="250.00" x1="400.00" id="21890" y2="250.00" /><line x2="400.00" style="fill:blue;stroke:blue;" y1="420.00" x1="400.00" id="21891" y2="500.00" /><line x2="450.00" style="fill:blue;stroke:blue;" y1="500.00" x1="400.00" id="21892" y2="600.00" /><line x2="400.00" style="fill:blue;stroke:blue;" y1="500.00" x1="400.00" id="21893" y2="420.00" /><line x2="320.00" style="fill:blue;stroke:blue;" y1="500.00" x1="400.00" id="21894" y2="500.00" /><line x2="480.00" style="fill:blue;stroke:blue;" y1="200.00" x1="420.00" id="21895" y2="280.00" /><line x2="500.00" style="fill:blue;stroke:blue;" y1="200.00" x1="420.00" id="21896" y2="200.00" /><line x2="380.00" style="fill:blue;stroke:blue;" y1="200.00" x1="420.00" id="21897" y2="100.00" /><line x2="380.00" style="fill:blue;stroke:blue;" y1="720.00" x1="420.00" id="21898" y2="650.00" /><line x2="480.00" style="fill:blue;stroke:blue;" y1="320.00" x1="420.00" id="21899" y2="280.00" /><line x2="480.00" style="fill:blue;stroke:blue;" y1="600.00" x1="450.00" id="21900" y2="550.00" /><line x2="320.00" style="fill:blue;stroke:blue;" y1="600.00" x1="450.00" id="21901" y2="550.00" /><line x2="400.00" style="fill:blue;stroke:blue;" y1="600.00" x1="450.00" id="21902" y2="500.00" /><line x2="320.00" style="fill:blue;stroke:blue;" y1="600.00" x1="450.00" id="21903" y2="500.00" /><line x2="380.00" style="fill:blue;stroke:blue;" y1="600.00" x1="450.00" id="21904" y2="650.00" /><line x2="580.00" style="fill:blue;stroke:blue;" y1="280.00" x1="480.00" id="21905" y2="350.00" /><line x2="500.00" style="fill:blue;stroke:blue;" y1="280.00" x1="480.00" id="21906" y2="200.00" /><line x2="420.00" style="fill:blue;stroke:blue;" y1="280.00" x1="480.00" id="21907" y2="200.00" /><line x2="400.00" style="fill:blue;stroke:blue;" y1="280.00" x1="480.00" id="21908" y2="250.00" /><line x2="420.00" style="fill:blue;stroke:blue;" y1="280.00" x1="480.00" id="21909" y2="320.00" /><line x2="510.00" style="fill:blue;stroke:blue;" y1="550.00" x1="480.00" id="21910" y2="490.00" /><line x2="450.00" style="fill:blue;stroke:blue;" y1="550.00" x1="480.00" id="21911" y2="600.00" /><line x2="480.00" style="fill:blue;stroke:blue;" y1="200.00" x1="500.00" id="21912" y2="280.00" /><line x2="420.00" style="fill:blue;stroke:blue;" y1="200.00" x1="500.00" id="21913" y2="200.00" /><line x2="550.00" style="fill:blue;stroke:blue;" y1="490.00" x1="510.00" id="21914" y2="420.00" /><line x2="620.00" style="fill:blue;stroke:blue;" y1="490.00" x1="510.00" id="21915" y2="530.00" /><line x2="480.00" style="fill:blue;stroke:blue;" y1="490.00" x1="510.00" id="21916" y2="550.00" /><line x2="650.00" style="fill:blue;stroke:blue;" y1="420.00" x1="550.00" id="21917" y2="450.00" /><line x2="510.00" style="fill:blue;stroke:blue;" y1="420.00" x1="550.00" id="21918" y2="490.00" /><line x2="580.00" style="fill:blue;stroke:blue;" y1="420.00" x1="550.00" id="21919" y2="350.00" /><line x2="620.00" style="fill:blue;stroke:blue;" y1="250.00" x1="580.00" id="21920" y2="280.00" /><line x2="620.00" style="fill:blue;stroke:blue;" y1="250.00" x1="580.00" id="21921" y2="200.00" /><line x2="550.00" style="fill:blue;stroke:blue;" y1="350.00" x1="580.00" id="21922" y2="420.00" /><line x2="480.00" style="fill:blue;stroke:blue;" y1="350.00" x1="580.00" id="21923" y2="280.00" /><line x2="620.00" style="fill:blue;stroke:blue;" y1="350.00" x1="580.00" id="21924" y2="280.00" /><line x2="580.00" style="fill:blue;stroke:blue;" y1="280.00" x1="620.00" id="21925" y2="350.00" /><line x2="620.00" style="fill:blue;stroke:blue;" y1="280.00" x1="620.00" id="21926" y2="200.00" /><line x2="580.00" style="fill:blue;stroke:blue;" y1="280.00" x1="620.00" id="21927" y2="250.00" /><line x2="510.00" style="fill:blue;stroke:blue;" y1="530.00" x1="620.00" id="21928" y2="490.00" /><line x2="620.00" style="fill:blue;stroke:blue;" y1="200.00" x1="620.00" id="21929" y2="280.00" /><line x2="650.00" style="fill:blue;stroke:blue;" y1="200.00" x1="620.00" id="21930" y2="150.00" /><line x2="580.00" style="fill:blue;stroke:blue;" y1="200.00" x1="620.00" id="21931" y2="250.00" /><line x2="680.00" style="fill:blue;stroke:blue;" y1="200.00" x1="620.00" id="21932" y2="250.00" /><line x2="750.00" style="fill:blue;stroke:blue;" y1="450.00" x1="650.00" id="21933" y2="480.00" /><line x2="550.00" style="fill:blue;stroke:blue;" y1="450.00" x1="650.00" id="21934" y2="420.00" /><line x2="620.00" style="fill:blue;stroke:blue;" y1="150.00" x1="650.00" id="21935" y2="200.00" /><line x2="650.00" style="fill:blue;stroke:blue;" y1="150.00" x1="650.00" id="21936" y2="80.00" /><line x2="650.00" style="fill:blue;stroke:blue;" y1="80.00" x1="650.00" id="21937" y2="150.00" /><line x2="780.00" style="fill:blue;stroke:blue;" y1="80.00" x1="650.00" id="21938" y2="20.00" /><line x2="750.00" style="fill:blue;stroke:blue;" y1="80.00" x1="650.00" id="21939" y2="100.00" /><line x2="620.00" style="fill:blue;stroke:blue;" y1="250.00" x1="680.00" id="21940" y2="200.00" /><line x2="710.00" style="fill:blue;stroke:blue;" y1="250.00" x1="680.00" id="21941" y2="290.00" /><line x2="680.00" style="fill:blue;stroke:blue;" y1="290.00" x1="710.00" id="21942" y2="250.00" /><line x2="850.00" style="fill:blue;stroke:blue;" y1="480.00" x1="750.00" id="21943" y2="510.00" /><line x2="650.00" style="fill:blue;stroke:blue;" y1="480.00" x1="750.00" id="21944" y2="450.00" /><line x2="650.00" style="fill:blue;stroke:blue;" y1="100.00" x1="750.00" id="21945" y2="80.00" /><line x2="780.00" style="fill:blue;stroke:blue;" y1="100.00" x1="750.00" id="21946" y2="20.00" /><line x2="650.00" style="fill:blue;stroke:blue;" y1="20.00" x1="780.00" id="21947" y2="80.00" /><line x2="850.00" style="fill:blue;stroke:blue;" y1="20.00" x1="780.00" id="21948" y2="120.00" /><line x2="920.00" style="fill:blue;stroke:blue;" y1="20.00" x1="780.00" id="21949" y2="20.00" /><line x2="850.00" style="fill:blue;stroke:blue;" y1="20.00" x1="780.00" id="21950" y2="50.00" /><line x2="750.00" style="fill:blue;stroke:blue;" y1="20.00" x1="780.00" id="21951" y2="100.00" /><line x2="900.00" style="fill:blue;stroke:blue;" y1="510.00" x1="850.00" id="21952" y2="510.00" /><line x2="750.00" style="fill:blue;stroke:blue;" y1="510.00" x1="850.00" id="21953" y2="480.00" /><line x2="780.00" style="fill:blue;stroke:blue;" y1="50.00" x1="850.00" id="21954" y2="20.00" /><line x2="850.00" style="fill:blue;stroke:blue;" y1="50.00" x1="850.00" id="21955" y2="120.00" /><line x2="920.00" style="fill:blue;stroke:blue;" y1="50.00" x1="850.00" id="21956" y2="20.00" /><line x2="780.00" style="fill:blue;stroke:blue;" y1="120.00" x1="850.00" id="21957" y2="20.00" /><line x2="920.00" style="fill:blue;stroke:blue;" y1="120.00" x1="850.00" id="21958" y2="20.00" /><line x2="850.00" style="fill:blue;stroke:blue;" y1="120.00" x1="850.00" id="21959" y2="50.00" /><line x2="850.00" style="fill:blue;stroke:blue;" y1="280.00" x1="850.00" id="21960" y2="230.00" /><line x2="1000.00" style="fill:blue;stroke:blue;" y1="280.00" x1="850.00" id="21961" y2="280.00" /><line x2="850.00" style="fill:blue;stroke:blue;" y1="280.00" x1="850.00" id="21962" y2="380.00" /><line x2="1000.00" style="fill:blue;stroke:blue;" y1="380.00" x1="850.00" id="21963" y2="380.00" /><line x2="920.00" style="fill:blue;stroke:blue;" y1="380.00" x1="850.00" id="21964" y2="460.00" /><line x2="950.00" style="fill:blue;stroke:blue;" y1="380.00" x1="850.00" id="21965" y2="360.00" /><line x2="920.00" style="fill:blue;stroke:blue;" y1="380.00" x1="850.00" id="21966" y2="410.00" /><line x2="850.00" style="fill:blue;stroke:blue;" y1="380.00" x1="850.00" id="21967" y2="280.00" /><line x2="950.00" style="fill:blue;stroke:blue;" y1="510.00" x1="900.00" id="21968" y2="580.00" /><line x2="920.00" style="fill:blue;stroke:blue;" y1="510.00" x1="900.00" id="21969" y2="460.00" /><line x2="850.00" style="fill:blue;stroke:blue;" y1="510.00" x1="900.00" id="21970" y2="510.00" /><line x2="1000.00" style="fill:blue;stroke:blue;" y1="20.00" x1="920.00" id="21971" y2="20.00" /><line x2="780.00" style="fill:blue;stroke:blue;" y1="20.00" x1="920.00" id="21972" y2="20.00" /><line x2="850.00" style="fill:blue;stroke:blue;" y1="20.00" x1="920.00" id="21973" y2="120.00" /><line x2="850.00" style="fill:blue;stroke:blue;" y1="20.00" x1="920.00" id="21974" y2="50.00" /><line x2="1000.00" style="fill:blue;stroke:blue;" y1="410.00" x1="920.00" id="21975" y2="380.00" /><line x2="920.00" style="fill:blue;stroke:blue;" y1="410.00" x1="920.00" id="21976" y2="460.00" /><line x2="850.00" style="fill:blue;stroke:blue;" y1="410.00" x1="920.00" id="21977" y2="380.00" /><line x2="1000.00" style="fill:blue;stroke:blue;" y1="460.00" x1="920.00" id="21978" y2="380.00" /><line x2="850.00" style="fill:blue;stroke:blue;" y1="460.00" x1="920.00" id="21979" y2="380.00" /><line x2="920.00" style="fill:blue;stroke:blue;" y1="460.00" x1="920.00" id="21980" y2="410.00" /><line x2="900.00" style="fill:blue;stroke:blue;" y1="460.00" x1="920.00" id="21981" y2="510.00" /><line x2="920.00" style="fill:blue;stroke:blue;" y1="360.00" x1="950.00" id="21982" y2="310.00" /><line x2="1000.00" style="fill:blue;stroke:blue;" y1="360.00" x1="950.00" id="21983" y2="280.00" /><line x2="850.00" style="fill:blue;stroke:blue;" y1="360.00" x1="950.00" id="21984" y2="380.00" /><line x2="1000.00" style="fill:blue;stroke:blue;" y1="280.00" x1="1000.00" id="21985" y2="210.00" /><line x2="1000.00" style="fill:blue;stroke:blue;" y1="280.00" x1="1000.00" id="21986" y2="380.00" /><line x2="950.00" style="fill:blue;stroke:blue;" y1="280.00" x1="1000.00" id="21987" y2="360.00" /><line x2="850.00" style="fill:blue;stroke:blue;" y1="280.00" x1="1000.00" id="21988" y2="280.00" /><line x2="1000.00" style="fill:blue;stroke:blue;" y1="380.00" x1="1000.00" id="21989" y2="280.00" /><line x2="920.00" style="fill:blue;stroke:blue;" y1="380.00" x1="1000.00" id="21990" y2="460.00" /><line x2="850.00" style="fill:blue;stroke:blue;" y1="380.00" x1="1000.00" id="21991" y2="380.00" /><line x2="920.00" style="fill:blue;stroke:blue;" y1="380.00" x1="1000.00" id="21992" y2="410.00" /><line x2="150.00" style="fill:blue;stroke:blue;" y1="750.00" x1="100.00" id="21993" y2="700.00" /><line x2="850.00" style="fill:blue;stroke:blue;" y1="230.00" x1="850.00" id="21994" y2="280.00" /><line x2="950.00" style="fill:blue;stroke:blue;" y1="310.00" x1="920.00" id="21995" y2="360.00" /><line x2="900.00" style="fill:blue;stroke:blue;" y1="580.00" x1="950.00" id="21996" y2="510.00" /><line x2="920.00" style="fill:blue;stroke:blue;" y1="20.00" x1="1000.00" id="21997" y2="20.00" /><line x2="1000.00" style="fill:blue;stroke:blue;" y1="210.00" x1="1000.00" id="21998" y2="280.00" /></svg>
