<?xml version="1.0" standalone="yes"?><!DOCTYPE svg PUBLIC "-//W3C//DTD SVG 1.1//EN" "http://www.w3.org/Graphics/SVG/1.1/DTD/svg11.dtd"[]><svg width="1050.00" height="800.00" id="21645" xmlns="http://www.w3.org/2000/svg" xmlns:xlink="http://www.w3.org/1999/xlink"><rect Type="system" x="20.00" id="21646" height="5.00" width="5.00" Name="A2V6-6" ID="30004550" Region="外环" y="20.00" /><text y="20.00" x="20.00" id="21647">A2V6-6</text><rect Type="system" x="20.00" id="21649" height="5.00" width="5.00" Name="0D-CHA" ID="30004549" Region="外环" y="75.50" /><text y="75.50" x="20.00" id="21650">0D-CHA</text><rect Type="system" x="20.00" id="21652" height="5.00" width="5.00" Name="YVA-F0" ID="30004548" Region="外环" y="124.50" /><text y="124.50" x="20.00" id="21653">YVA-F0</text><rect Type="system" x="20.00" id="21655" height="5.00" width="5.00" Name="VBFC-8" ID="30004547" Region="外环" y="175.50" /><text y="175.50" x="20.00" id="21656">VBFC-8</text><rect Type="system" x="20.00" id="21658" height="5.00" width="5.00" Name="E-GCX0" ID="30004546" Region="外环" y="224.50" /><text y="224.50" x="20.00" id="21659">E-GCX0</text><rect Type="system" x="20.00" id="21661" height="5.00" width="5.00" Name="BOE7-P" ID="30004545" Region="外环" y="275.50" /><text y="275.50" x="20.00" id="21662">BOE7-P</text><rect Type="system" x="20.00" id="21664" height="5.00" width="5.00" Name="A-5M31" ID="30004544" Region="外环" y="324.50" /><text y="324.50" x="20.00" id="21665">A-5M31</text><rect Type="system" x="50.00" id="21667" height="5.00" width="5.00" Name="O-RIDF" ID="30004543" Region="外环" y="400.00" /><text y="400.00" x="50.00" id="21668">O-RIDF</text><rect Type="system" x="100.00" id="21670" height="5.00" width="5.00" Name="VJ0-81" ID="30004551" Region="外环" y="200.00" /><text y="200.00" x="100.00" id="21671">VJ0-81</text><rect Type="system" x="120.00" id="21673" height="5.00" width="5.00" Name="Z-40CG" ID="30004542" Region="外环" y="380.00" /><text y="380.00" x="120.00" id="21674">Z-40CG</text><rect Type="system" x="150.00" id="21676" height="5.00" width="5.00" Name="7-692B" ID="30004525" Region="外环" y="700.00" /><text y="700.00" x="150.00" id="21677">7-692B</text><rect Type="system" x="200.00" id="21679" height="5.00" width="5.00" Name="LBV-Q1" ID="30004541" Region="外环" y="350.00" /><text y="350.00" x="200.00" id="21680">LBV-Q1</text><rect Type="system" x="217.68" id="21682" height="5.00" width="5.00" Name="ZXC8-1" ID="30004540" Region="外环" y="302.32" /><text y="302.32" x="217.68" id="21683">ZXC8-1</text><rect Type="system" x="220.00" id="21685" height="5.00" width="5.00" Name="DB-6W4" ID="30004524" Region="外环" y="700.00" /><text y="700.00" x="220.00" id="21686">DB-6W4</text><rect Type="system" x="250.00" id="21688" height="5.00" width="5.00" Name="GA-2V7" ID="30004523" Region="外环" y="650.00" /><text y="650.00" x="250.00" id="21689">GA-2V7</text><rect Type="system" x="252.32" id="21691" height="5.00" width="5.00" Name="BMU-V1" ID="30004539" Region="外环" y="267.68" /><text y="267.68" x="252.32" id="21692">BMU-V1</text><rect Type="system" x="300.00" id="21694" height="5.00" width="5.00" Name="R-OCBA" ID="30004522" Region="外环" y="680.00" /><text y="680.00" x="300.00" id="21695">R-OCBA</text><rect Type="system" x="300.00" id="21697" height="5.00" width="5.00" Name="W2F-ZH" ID="30004538" Region="外环" y="250.00" /><text y="250.00" x="300.00" id="21698">W2F-ZH</text><rect Type="system" x="320.00" id="21700" height="5.00" width="5.00" Name="RTX0-S" ID="30004516" Region="外环" y="550.00" /><text y="550.00" x="320.00" id="21701">RTX0-S</text><rect Type="system" x="320.00" id="21703" height="5.00" width="5.00" Name="MT-2VJ" ID="30004519" Region="外环" y="500.00" /><text y="500.00" x="320.00" id="21704">MT-2VJ</text><rect Type="system" x="380.00" id="21706" height="5.00" width="5.00" Name="3HQC-6" ID="30004520" Region="外环" y="650.00" /><text y="650.00" x="380.00" id="21707">3HQC-6</text><rect Type="system" x="380.00" id="21709" height="5.00" width="5.00" Name="J1H-R4" ID="30004513" Region="外环" y="100.00" /><text y="100.00" x="380.00" id="21710">J1H-R4</text><rect Type="system" x="400.00" id="21712" height="5.00" width="5.00" Name="M-NKZM" ID="30004511" Region="外环" y="250.00" /><text y="250.00" x="400.00" id="21713">M-NKZM</text><rect Type="system" x="400.00" id="21715" height="5.00" width="5.00" Name="NM-OEA" ID="30004518" Region="外环" y="420.00" /><text y="420.00" x="400.00" id="21716">NM-OEA</text><rect Type="system" x="400.00" id="21718" height="5.00" width="5.00" Name="33FN-P" ID="30004517" Region="外环" y="500.00" /><text y="500.00" x="400.00" id="21719">33FN-P</text><rect Type="system" x="420.00" id="21721" height="5.00" width="5.00" Name="0-9UHT" ID="30004510" Region="外环" y="200.00" /><text y="200.00" x="420.00" id="21722">0-9UHT</text><rect Type="system" x="420.00" id="21724" height="5.00" width="5.00" Name="OX-RGN" ID="30004521" Region="外环" y="720.00" /><text y="720.00" x="420.00" id="21725">OX-RGN</text><rect Type="system" x="420.00" id="21727" height="5.00" width="5.00" Name="H-M1BY" ID="30004512" Region="外环" y="320.00" /><text y="320.00" x="420.00" id="21728">H-M1BY</text><rect Type="system" x="450.00" id="21730" height="5.00" width="5.00" Name="JKJ-VJ" ID="30004515" Region="外环" y="600.00" /><text y="600.00" x="450.00" id="21731">JKJ-VJ</text><rect Type="system" x="480.00" id="21733" height="5.00" width="5.00" Name="5WAE-M" ID="30004508" Region="外环" y="280.00" /><text y="280.00" x="480.00" id="21734">5WAE-M</text><rect Type="system" x="480.00" id="21736" height="5.00" width="5.00" Name="J9SH-A" ID="30004514" Region="外环" y="550.00" /><text y="550.00" x="480.00" id="21737">J9SH-A</text><rect Type="system" x="500.00" id="21739" height="5.00" width="5.00" Name="0-WVQS" ID="30004509" Region="外环" y="200.00" /><text y="200.00" x="500.00" id="21740">0-WVQS</text><rect Type="system" x="510.00" id="21742" height="5.00" width="5.00" Name="LGUZ-1" ID="30004505" Region="外环" y="490.00" /><text y="490.00" x="510.00" id="21743">LGUZ-1</text><rect Type="system" x="550.00" id="21745" height="5.00" width="5.00" Name="4C-B7X" ID="30004504" Region="外环" y="420.00" /><text y="420.00" x="550.00" id="21746">4C-B7X</text><rect Type="system" x="580.00" id="21748" height="5.00" width="5.00" Name="T-Z6J2" ID="30004529" Region="外环" y="250.00" /><text y="250.00" x="580.00" id="21749">T-Z6J2</text><rect Type="system" x="580.00" id="21751" height="5.00" width="5.00" Name="BF-SDP" ID="30004506" Region="外环" y="350.00" /><text y="350.00" x="580.00" id="21752">BF-SDP</text><rect Type="system" x="620.00" id="21754" height="5.00" width="5.00" Name="L3-XYO" ID="30004526" Region="外环" y="280.00" /><text y="280.00" x="620.00" id="21755">L3-XYO</text><rect Type="system" x="620.00" id="21757" height="5.00" width="5.00" Name="F5FO-U" ID="30004507" Region="外环" y="530.00" /><text y="530.00" x="620.00" id="21758">F5FO-U</text><rect Type="system" x="620.00" id="21760" height="5.00" width="5.00" Name="AN-G54" ID="30004527" Region="外环" y="200.00" /><text y="200.00" x="620.00" id="21761">AN-G54</text><rect Type="system" x="650.00" id="21763" height="5.00" width="5.00" Name="F-XWIN" ID="30004503" Region="外环" y="450.00" /><text y="450.00" x="650.00" id="21764">F-XWIN</text><rect Type="system" x="650.00" id="21766" height="5.00" width="5.00" Name="ZXI-K2" ID="30004528" Region="外环" y="150.00" /><text y="150.00" x="650.00" id="21767">ZXI-K2</text><rect Type="system" x="650.00" id="21769" height="5.00" width="5.00" Name="B0C-LD" ID="30004532" Region="外环" y="80.00" /><text y="80.00" x="650.00" id="21770">B0C-LD</text><rect Type="system" x="680.00" id="21772" height="5.00" width="5.00" Name="CT7-5V" ID="30004530" Region="外环" y="250.00" /><text y="250.00" x="680.00" id="21773">CT7-5V</text><rect Type="system" x="710.00" id="21775" height="5.00" width="5.00" Name="2JJ-0E" ID="30004531" Region="外环" y="290.00" /><text y="290.00" x="710.00" id="21776">2JJ-0E</text><rect Type="system" x="750.00" id="21778" height="5.00" width="5.00" Name="D5IW-F" ID="30004502" Region="外环" y="480.00" /><text y="480.00" x="750.00" id="21779">D5IW-F</text><rect Type="system" x="750.00" id="21781" height="5.00" width="5.00" Name="W-Z3HW" ID="30004537" Region="外环" y="100.00" /><text y="100.00" x="750.00" id="21782">W-Z3HW</text><rect Type="system" x="780.00" id="21784" height="5.00" width="5.00" Name="NP6-38" ID="30004533" Region="外环" y="20.00" /><text y="20.00" x="780.00" id="21785">NP6-38</text><rect Type="system" x="850.00" id="21787" height="5.00" width="5.00" Name="1L-BHT" ID="30004501" Region="外环" y="510.00" /><text y="510.00" x="850.00" id="21788">1L-BHT</text><rect Type="system" x="850.00" id="21790" height="5.00" width="5.00" Name="G5-EN3" ID="30004536" Region="外环" y="50.00" /><text y="50.00" x="850.00" id="21791">G5-EN3</text><rect Type="system" x="850.00" id="21793" height="5.00" width="5.00" Name="G-YT55" ID="30004534" Region="外环" y="120.00" /><text y="120.00" x="850.00" id="21794">G-YT55</text><rect Type="system" x="850.00" id="21796" height="5.00" width="5.00" Name="TQ-RR8" ID="30004500" Region="外环" y="280.00" /><text y="280.00" x="850.00" id="21797">TQ-RR8</text><rect Type="system" x="850.00" id="21799" height="5.00" width="5.00" Name="ZQP-QV" ID="30004496" Region="外环" y="380.00" /><text y="380.00" x="850.00" id="21800">ZQP-QV</text><rect Type="system" x="900.00" id="21802" height="5.00" width="5.00" Name="E9G-MT" ID="30004499" Region="外环" y="510.00" /><text y="510.00" x="900.00" id="21803">E9G-MT</text><rect Type="system" x="920.00" id="21805" height="5.00" width="5.00" Name="IZ-AOB" ID="30004535" Region="外环" y="20.00" /><text y="20.00" x="920.00" id="21806">IZ-AOB</text><rect Type="system" x="920.00" id="21808" height="5.00" width="5.00" Name="ZJQH-S" ID="30004498" Region="外环" y="410.00" /><text y="410.00" x="920.00" id="21809">ZJQH-S</text><rect Type="system" x="920.00" id="21811" height="5.00" width="5.00" Name="UO9-YG" ID="30004495" Region="外环" y="460.00" /><text y="460.00" x="920.00" id="21812">UO9-YG</text><rect Type="system" x="950.00" id="21814" height="5.00" width="5.00" Name="P-NUWP" ID="30004497" Region="外环" y="360.00" /><text y="360.00" x="950.00" id="21815">P-NUWP</text><rect Type="system" x="1000.00" id="21817" height="5.00" width="5.00" Name="C0T-77" ID="30004493" Region="外环" y="280.00" /><text y="280.00" x="1000.00" id="21818">C0T-77</text><rect Type="system" x="1000.00" id="21820" height="5.00" width="5.00" Name="RL-KT0" ID="30004494" Region="外环" y="380.00" /><text y="380.00" x="1000.00" id="21821">RL-KT0</text><rect Type="system" x="100.00" id="21823" height="5.00" width="5.00" Name="XF-TQL" ID="30004552" Region="源泉之域" y="750.00" /><text y="750.00" x="100.00" id="21824">XF-TQL</text><rect Type="system" x="850.00" id="21826" height="5.00" width="5.00" Name="0T-AMZ" ID="30003349" Region="辛迪加" y="230.00" /><text y="230.00" x="850.00" id="21827">0T-AMZ</text><rect Type="system" x="920.00" id="21829" height="5.00" width="5.00" Name="EF-F36" ID="30003355" Region="辛迪加" y="310.00" /><text y="310.00" x="920.00" id="21830">EF-F36</text><rect Type="system" x="950.00" id="21832" height="5.00" width="5.00" Name="VSIG-K" ID="30003361" Region="辛迪加" y="580.00" /><text y="580.00" x="950.00" id="21833">VSIG-K</text><rect Type="system" x="1000.00" id="21835" height="5.00" width="5.00" Name="5-MLDT" ID="30004039" Region="云环" y="20.00" /><text y="20.00" x="1000.00" id="21836">5-MLDT</text><rect Type="system" x="1000.00" id="21838" height="5.00" width="5.00" Name="3KNK-A" ID="30003322" Region="辛迪加" y="210.00" /><text y="210.00" x="1000.00" id="21839">3KNK-A</text><line style="stroke:blue;fill:blue;" id="21841" x2="20.00" x1="20.00" y1="20.00" y2="75.50" /><line style="stroke:blue;fill:blue;" id="21842" x2="20.00" x1="20.00" y1="75.50" y2="124.50" /><line style="stroke:blue;fill:blue;" id="21843" x2="20.00" x1="20.00" y1="75.50" y2="20.00" /><line style="stroke:blue;fill:blue;" id="21844" x2="20.00" x1="20.00" y1="124.50" y2="175.50" /><line style="stroke:blue;fill:blue;" id="21845" x2="20.00" x1="20.00" y1="124.50" y2="75.50" /><line style="stroke:blue;fill:blue;" id="21846" x2="20.00" x1="20.00" y1="175.50" y2="224.50" /><line style="stroke:blue;fill:blue;" id="21847" x2="20.00" x1="20.00" y1="175.50" y2="124.50" /><line style="stroke:blue;fill:blue;" id="21848" x2="100.00" x1="20.00" y1="175.50" y2="200.00" /><line style="stroke:blue;fill:blue;" id="21849" x2="20.00" x1="20.00" y1="224.50" y2="275.50" /><line style="stroke:blue;fill:blue;" id="21850" x2="20.00" x1="20.00" y1="224.50" y2="175.50" /><line style="stroke:blue;fill:blue;" id="21851" x2="100.00" x1="20.00" y1="224.50" y2="200.00" /><line style="stroke:blue;fill:blue;" id="21852" x2="20.00" x1="20.00" y1="275.50" y2="324.50" /><line style="stroke:blue;fill:blue;" id="21853" x2="20.00" x1="20.00" y1="275.50" y2="224.50" /><line style="stroke:blue;fill:blue;" id="21854" x2="50.00" x1="20.00" y1="324.50" y2="400.00" /><line style="stroke:blue;fill:blue;" id="21855" x2="20.00" x1="20.00" y1="324.50" y2="275.50" /><line style="stroke:blue;fill:blue;" id="21856" x2="120.00" x1="50.00" y1="400.00" y2="380.00" /><line style="stroke:blue;fill:blue;" id="21857" x2="20.00" x1="50.00" y1="400.00" y2="324.50" /><line style="stroke:blue;fill:blue;" id="21858" x2="20.00" x1="100.00" y1="200.00" y2="224.50" /><line style="stroke:blue;fill:blue;" id="21859" x2="20.00" x1="100.00" y1="200.00" y2="175.50" /><line style="stroke:blue;fill:blue;" id="21860" x2="200.00" x1="120.00" y1="380.00" y2="350.00" /><line style="stroke:blue;fill:blue;" id="21861" x2="50.00" x1="120.00" y1="380.00" y2="400.00" /><line style="stroke:blue;fill:blue;" id="21862" x2="220.00" x1="150.00" y1="700.00" y2="700.00" /><line style="stroke:blue;fill:blue;" id="21863" x2="100.00" x1="150.00" y1="700.00" y2="750.00" /><line style="stroke:blue;fill:blue;" id="21864" x2="217.68" x1="200.00" y1="350.00" y2="302.32" /><line style="stroke:blue;fill:blue;" id="21865" x2="120.00" x1="200.00" y1="350.00" y2="380.00" /><line style="stroke:blue;fill:blue;" id="21866" x2="252.32" x1="217.68" y1="302.32" y2="267.68" /><line style="stroke:blue;fill:blue;" id="21867" x2="200.00" x1="217.68" y1="302.32" y2="350.00" /><line style="stroke:blue;fill:blue;" id="21868" x2="300.00" x1="220.00" y1="700.00" y2="680.00" /><line style="stroke:blue;fill:blue;" id="21869" x2="250.00" x1="220.00" y1="700.00" y2="650.00" /><line style="stroke:blue;fill:blue;" id="21870" x2="150.00" x1="220.00" y1="700.00" y2="700.00" /><line style="stroke:blue;fill:blue;" id="21871" x2="300.00" x1="250.00" y1="650.00" y2="680.00" /><line style="stroke:blue;fill:blue;" id="21872" x2="220.00" x1="250.00" y1="650.00" y2="700.00" /><line style="stroke:blue;fill:blue;" id="21873" x2="300.00" x1="252.32" y1="267.68" y2="250.00" /><line style="stroke:blue;fill:blue;" id="21874" x2="217.68" x1="252.32" y1="267.68" y2="302.32" /><line style="stroke:blue;fill:blue;" id="21875" x2="380.00" x1="300.00" y1="680.00" y2="650.00" /><line style="stroke:blue;fill:blue;" id="21876" x2="250.00" x1="300.00" y1="680.00" y2="650.00" /><line style="stroke:blue;fill:blue;" id="21877" x2="220.00" x1="300.00" y1="680.00" y2="700.00" /><line style="stroke:blue;fill:blue;" id="21878" x2="400.00" x1="300.00" y1="250.00" y2="250.00" /><line style="stroke:blue;fill:blue;" id="21879" x2="252.32" x1="300.00" y1="250.00" y2="267.68" /><line style="stroke:blue;fill:blue;" id="21880" x2="450.00" x1="320.00" y1="550.00" y2="600.00" /><line style="stroke:blue;fill:blue;" id="21881" x2="320.00" x1="320.00" y1="550.00" y2="500.00" /><line style="stroke:blue;fill:blue;" id="21882" x2="450.00" x1="320.00" y1="500.00" y2="600.00" /><line style="stroke:blue;fill:blue;" id="21883" x2="320.00" x1="320.00" y1="500.00" y2="550.00" /><line style="stroke:blue;fill:blue;" id="21884" x2="400.00" x1="320.00" y1="500.00" y2="500.00" /><line style="stroke:blue;fill:blue;" id="21885" x2="450.00" x1="380.00" y1="650.00" y2="600.00" /><line style="stroke:blue;fill:blue;" id="21886" x2="420.00" x1="380.00" y1="650.00" y2="720.00" /><line style="stroke:blue;fill:blue;" id="21887" x2="300.00" x1="380.00" y1="650.00" y2="680.00" /><line style="stroke:blue;fill:blue;" id="21888" x2="420.00" x1="380.00" y1="100.00" y2="200.00" /><line style="stroke:blue;fill:blue;" id="21889" x2="480.00" x1="400.00" y1="250.00" y2="280.00" /><line style="stroke:blue;fill:blue;" id="21890" x2="300.00" x1="400.00" y1="250.00" y2="250.00" /><line style="stroke:blue;fill:blue;" id="21891" x2="400.00" x1="400.00" y1="420.00" y2="500.00" /><line style="stroke:blue;fill:blue;" id="21892" x2="450.00" x1="400.00" y1="500.00" y2="600.00" /><line style="stroke:blue;fill:blue;" id="21893" x2="400.00" x1="400.00" y1="500.00" y2="420.00" /><line style="stroke:blue;fill:blue;" id="21894" x2="320.00" x1="400.00" y1="500.00" y2="500.00" /><line style="stroke:blue;fill:blue;" id="21895" x2="480.00" x1="420.00" y1="200.00" y2="280.00" /><line style="stroke:blue;fill:blue;" id="21896" x2="500.00" x1="420.00" y1="200.00" y2="200.00" /><line style="stroke:blue;fill:blue;" id="21897" x2="380.00" x1="420.00" y1="200.00" y2="100.00" /><line style="stroke:blue;fill:blue;" id="21898" x2="380.00" x1="420.00" y1="720.00" y2="650.00" /><line style="stroke:blue;fill:blue;" id="21899" x2="480.00" x1="420.00" y1="320.00" y2="280.00" /><line style="stroke:blue;fill:blue;" id="21900" x2="480.00" x1="450.00" y1="600.00" y2="550.00" /><line style="stroke:blue;fill:blue;" id="21901" x2="320.00" x1="450.00" y1="600.00" y2="550.00" /><line style="stroke:blue;fill:blue;" id="21902" x2="400.00" x1="450.00" y1="600.00" y2="500.00" /><line style="stroke:blue;fill:blue;" id="21903" x2="320.00" x1="450.00" y1="600.00" y2="500.00" /><line style="stroke:blue;fill:blue;" id="21904" x2="380.00" x1="450.00" y1="600.00" y2="650.00" /><line style="stroke:blue;fill:blue;" id="21905" x2="580.00" x1="480.00" y1="280.00" y2="350.00" /><line style="stroke:blue;fill:blue;" id="21906" x2="500.00" x1="480.00" y1="280.00" y2="200.00" /><line style="stroke:blue;fill:blue;" id="21907" x2="420.00" x1="480.00" y1="280.00" y2="200.00" /><line style="stroke:blue;fill:blue;" id="21908" x2="400.00" x1="480.00" y1="280.00" y2="250.00" /><line style="stroke:blue;fill:blue;" id="21909" x2="420.00" x1="480.00" y1="280.00" y2="320.00" /><line style="stroke:blue;fill:blue;" id="21910" x2="510.00" x1="480.00" y1="550.00" y2="490.00" /><line style="stroke:blue;fill:blue;" id="21911" x2="450.00" x1="480.00" y1="550.00" y2="600.00" /><line style="stroke:blue;fill:blue;" id="21912" x2="480.00" x1="500.00" y1="200.00" y2="280.00" /><line style="stroke:blue;fill:blue;" id="21913" x2="420.00" x1="500.00" y1="200.00" y2="200.00" /><line style="stroke:blue;fill:blue;" id="21914" x2="550.00" x1="510.00" y1="490.00" y2="420.00" /><line style="stroke:blue;fill:blue;" id="21915" x2="620.00" x1="510.00" y1="490.00" y2="530.00" /><line style="stroke:blue;fill:blue;" id="21916" x2="480.00" x1="510.00" y1="490.00" y2="550.00" /><line style="stroke:blue;fill:blue;" id="21917" x2="650.00" x1="550.00" y1="420.00" y2="450.00" /><line style="stroke:blue;fill:blue;" id="21918" x2="510.00" x1="550.00" y1="420.00" y2="490.00" /><line style="stroke:blue;fill:blue;" id="21919" x2="580.00" x1="550.00" y1="420.00" y2="350.00" /><line style="stroke:blue;fill:blue;" id="21920" x2="620.00" x1="580.00" y1="250.00" y2="280.00" /><line style="stroke:blue;fill:blue;" id="21921" x2="620.00" x1="580.00" y1="250.00" y2="200.00" /><line style="stroke:blue;fill:blue;" id="21922" x2="550.00" x1="580.00" y1="350.00" y2="420.00" /><line style="stroke:blue;fill:blue;" id="21923" x2="480.00" x1="580.00" y1="350.00" y2="280.00" /><line style="stroke:blue;fill:blue;" id="21924" x2="620.00" x1="580.00" y1="350.00" y2="280.00" /><line style="stroke:blue;fill:blue;" id="21925" x2="580.00" x1="620.00" y1="280.00" y2="350.00" /><line style="stroke:blue;fill:blue;" id="21926" x2="620.00" x1="620.00" y1="280.00" y2="200.00" /><line style="stroke:blue;fill:blue;" id="21927" x2="580.00" x1="620.00" y1="280.00" y2="250.00" /><line style="stroke:blue;fill:blue;" id="21928" x2="510.00" x1="620.00" y1="530.00" y2="490.00" /><line style="stroke:blue;fill:blue;" id="21929" x2="620.00" x1="620.00" y1="200.00" y2="280.00" /><line style="stroke:blue;fill:blue;" id="21930" x2="650.00" x1="620.00" y1="200.00" y2="150.00" /><line style="stroke:blue;fill:blue;" id="21931" x2="580.00" x1="620.00" y1="200.00" y2="250.00" /><line style="stroke:blue;fill:blue;" id="21932" x2="680.00" x1="620.00" y1="200.00" y2="250.00" /><line style="stroke:blue;fill:blue;" id="21933" x2="750.00" x1="650.00" y1="450.00" y2="480.00" /><line style="stroke:blue;fill:blue;" id="21934" x2="550.00" x1="650.00" y1="450.00" y2="420.00" /><line style="stroke:blue;fill:blue;" id="21935" x2="620.00" x1="650.00" y1="150.00" y2="200.00" /><line style="stroke:blue;fill:blue;" id="21936" x2="650.00" x1="650.00" y1="150.00" y2="80.00" /><line style="stroke:blue;fill:blue;" id="21937" x2="650.00" x1="650.00" y1="80.00" y2="150.00" /><line style="stroke:blue;fill:blue;" id="21938" x2="780.00" x1="650.00" y1="80.00" y2="20.00" /><line style="stroke:blue;fill:blue;" id="21939" x2="750.00" x1="650.00" y1="80.00" y2="100.00" /><line style="stroke:blue;fill:blue;" id="21940" x2="620.00" x1="680.00" y1="250.00" y2="200.00" /><line style="stroke:blue;fill:blue;" id="21941" x2="710.00" x1="680.00" y1="250.00" y2="290.00" /><line style="stroke:blue;fill:blue;" id="21942" x2="680.00" x1="710.00" y1="290.00" y2="250.00" /><line style="stroke:blue;fill:blue;" id="21943" x2="850.00" x1="750.00" y1="480.00" y2="510.00" /><line style="stroke:blue;fill:blue;" id="21944" x2="650.00" x1="750.00" y1="480.00" y2="450.00" /><line style="stroke:blue;fill:blue;" id="21945" x2="650.00" x1="750.00" y1="100.00" y2="80.00" /><line style="stroke:blue;fill:blue;" id="21946" x2="780.00" x1="750.00" y1="100.00" y2="20.00" /><line style="stroke:blue;fill:blue;" id="21947" x2="650.00" x1="780.00" y1="20.00" y2="80.00" /><line style="stroke:blue;fill:blue;" id="21948" x2="850.00" x1="780.00" y1="20.00" y2="120.00" /><line style="stroke:blue;fill:blue;" id="21949" x2="920.00" x1="780.00" y1="20.00" y2="20.00" /><line style="stroke:blue;fill:blue;" id="21950" x2="850.00" x1="780.00" y1="20.00" y2="50.00" /><line style="stroke:blue;fill:blue;" id="21951" x2="750.00" x1="780.00" y1="20.00" y2="100.00" /><line style="stroke:blue;fill:blue;" id="21952" x2="900.00" x1="850.00" y1="510.00" y2="510.00" /><line style="stroke:blue;fill:blue;" id="21953" x2="750.00" x1="850.00" y1="510.00" y2="480.00" /><line style="stroke:blue;fill:blue;" id="21954" x2="780.00" x1="850.00" y1="50.00" y2="20.00" /><line style="stroke:blue;fill:blue;" id="21955" x2="850.00" x1="850.00" y1="50.00" y2="120.00" /><line style="stroke:blue;fill:blue;" id="21956" x2="920.00" x1="850.00" y1="50.00" y2="20.00" /><line style="stroke:blue;fill:blue;" id="21957" x2="780.00" x1="850.00" y1="120.00" y2="20.00" /><line style="stroke:blue;fill:blue;" id="21958" x2="920.00" x1="850.00" y1="120.00" y2="20.00" /><line style="stroke:blue;fill:blue;" id="21959" x2="850.00" x1="850.00" y1="120.00" y2="50.00" /><line style="stroke:blue;fill:blue;" id="21960" x2="850.00" x1="850.00" y1="280.00" y2="230.00" /><line style="stroke:blue;fill:blue;" id="21961" x2="1000.00" x1="850.00" y1="280.00" y2="280.00" /><line style="stroke:blue;fill:blue;" id="21962" x2="850.00" x1="850.00" y1="280.00" y2="380.00" /><line style="stroke:blue;fill:blue;" id="21963" x2="1000.00" x1="850.00" y1="380.00" y2="380.00" /><line style="stroke:blue;fill:blue;" id="21964" x2="920.00" x1="850.00" y1="380.00" y2="460.00" /><line style="stroke:blue;fill:blue;" id="21965" x2="950.00" x1="850.00" y1="380.00" y2="360.00" /><line style="stroke:blue;fill:blue;" id="21966" x2="920.00" x1="850.00" y1="380.00" y2="410.00" /><line style="stroke:blue;fill:blue;" id="21967" x2="850.00" x1="850.00" y1="380.00" y2="280.00" /><line style="stroke:blue;fill:blue;" id="21968" x2="950.00" x1="900.00" y1="510.00" y2="580.00" /><line style="stroke:blue;fill:blue;" id="21969" x2="920.00" x1="900.00" y1="510.00" y2="460.00" /><line style="stroke:blue;fill:blue;" id="21970" x2="850.00" x1="900.00" y1="510.00" y2="510.00" /><line style="stroke:blue;fill:blue;" id="21971" x2="1000.00" x1="920.00" y1="20.00" y2="20.00" /><line style="stroke:blue;fill:blue;" id="21972" x2="780.00" x1="920.00" y1="20.00" y2="20.00" /><line style="stroke:blue;fill:blue;" id="21973" x2="850.00" x1="920.00" y1="20.00" y2="120.00" /><line style="stroke:blue;fill:blue;" id="21974" x2="850.00" x1="920.00" y1="20.00" y2="50.00" /><line style="stroke:blue;fill:blue;" id="21975" x2="1000.00" x1="920.00" y1="410.00" y2="380.00" /><line style="stroke:blue;fill:blue;" id="21976" x2="920.00" x1="920.00" y1="410.00" y2="460.00" /><line style="stroke:blue;fill:blue;" id="21977" x2="850.00" x1="920.00" y1="410.00" y2="380.00" /><line style="stroke:blue;fill:blue;" id="21978" x2="1000.00" x1="920.00" y1="460.00" y2="380.00" /><line style="stroke:blue;fill:blue;" id="21979" x2="850.00" x1="920.00" y1="460.00" y2="380.00" /><line style="stroke:blue;fill:blue;" id="21980" x2="920.00" x1="920.00" y1="460.00" y2="410.00" /><line style="stroke:blue;fill:blue;" id="21981" x2="900.00" x1="920.00" y1="460.00" y2="510.00" /><line style="stroke:blue;fill:blue;" id="21982" x2="920.00" x1="950.00" y1="360.00" y2="310.00" /><line style="stroke:blue;fill:blue;" id="21983" x2="1000.00" x1="950.00" y1="360.00" y2="280.00" /><line style="stroke:blue;fill:blue;" id="21984" x2="850.00" x1="950.00" y1="360.00" y2="380.00" /><line style="stroke:blue;fill:blue;" id="21985" x2="1000.00" x1="1000.00" y1="280.00" y2="210.00" /><line style="stroke:blue;fill:blue;" id="21986" x2="1000.00" x1="1000.00" y1="280.00" y2="380.00" /><line style="stroke:blue;fill:blue;" id="21987" x2="950.00" x1="1000.00" y1="280.00" y2="360.00" /><line style="stroke:blue;fill:blue;" id="21988" x2="850.00" x1="1000.00" y1="280.00" y2="280.00" /><line style="stroke:blue;fill:blue;" id="21989" x2="1000.00" x1="1000.00" y1="380.00" y2="280.00" /><line style="stroke:blue;fill:blue;" id="21990" x2="920.00" x1="1000.00" y1="380.00" y2="460.00" /><line style="stroke:blue;fill:blue;" id="21991" x2="850.00" x1="1000.00" y1="380.00" y2="380.00" /><line style="stroke:blue;fill:blue;" id="21992" x2="920.00" x1="1000.00" y1="380.00" y2="410.00" /><line style="stroke:blue;fill:blue;" id="21993" x2="150.00" x1="100.00" y1="750.00" y2="700.00" /><line style="stroke:blue;fill:blue;" id="21994" x2="850.00" x1="850.00" y1="230.00" y2="280.00" /><line style="stroke:blue;fill:blue;" id="21995" x2="950.00" x1="920.00" y1="310.00" y2="360.00" /><line style="stroke:blue;fill:blue;" id="21996" x2="900.00" x1="950.00" y1="580.00" y2="510.00" /><line style="stroke:blue;fill:blue;" id="21997" x2="920.00" x1="1000.00" y1="20.00" y2="20.00" /><line style="stroke:blue;fill:blue;" id="21998" x2="1000.00" x1="1000.00" y1="210.00" y2="280.00" /></svg>
