<?xml version="1.0" standalone="yes"?><!DOCTYPE svg PUBLIC "-//W3C//DTD SVG 1.1//EN" "http://www.w3.org/Graphics/SVG/1.1/DTD/svg11.dtd"[]><svg height="800.00" id="13209" width="1050.00" xmlns="http://www.w3.org/2000/svg" xmlns:xlink="http://www.w3.org/1999/xlink"><rect Type="system" Region="大荒野" height="5.00" y="30.00" Name="L1S-G1" width="5.00" x="20.00" id="13210" ID="30000968" /><text x="20.00" y="30.00" id="13211">L1S-G1</text><rect Type="system" Region="大荒野" height="5.00" y="80.00" Name="UNJ-GX" width="5.00" x="20.00" id="13213" ID="30000965" /><text x="20.00" y="80.00" id="13214">UNJ-GX</text><rect Type="system" Region="大荒野" height="5.00" y="130.00" Name="SL-YBS" width="5.00" x="20.00" id="13216" ID="30000964" /><text x="20.00" y="130.00" id="13217">SL-YBS</text><rect Type="system" Region="大荒野" height="5.00" y="180.00" Name="NIH-02" width="5.00" x="20.00" id="13219" ID="30000900" /><text x="20.00" y="180.00" id="13220">NIH-02</text><rect Type="system" Region="大荒野" height="5.00" y="230.00" Name="M-MD3B" width="5.00" x="20.00" id="13222" ID="30000905" /><text x="20.00" y="230.00" id="13223">M-MD3B</text><rect Type="system" Region="大荒野" height="5.00" y="280.00" Name="E02-IK" width="5.00" x="20.00" id="13225" ID="30000903" /><text x="20.00" y="280.00" id="13226">E02-IK</text><rect Type="system" Region="大荒野" height="5.00" y="330.00" Name="NK-7XO" width="5.00" x="20.00" id="13228" ID="30000902" /><text x="20.00" y="330.00" id="13229">NK-7XO</text><rect Type="system" Region="大荒野" height="5.00" y="380.00" Name="JPL-RA" width="5.00" x="20.00" id="13231" ID="30000901" /><text x="20.00" y="380.00" id="13232">JPL-RA</text><rect Type="system" Region="大荒野" height="5.00" y="450.00" Name="CRXA-Y" width="5.00" x="20.00" id="13234" ID="30000923" /><text x="20.00" y="450.00" id="13235">CRXA-Y</text><rect Type="system" Region="大荒野" height="5.00" y="690.00" Name="AZF-GH" width="5.00" x="50.00" id="13237" ID="30000920" /><text x="50.00" y="690.00" id="13238">AZF-GH</text><rect Type="system" Region="大荒野" height="5.00" y="523.14" Name="Y-DSSK" width="5.00" x="79.15" id="13240" ID="30000958" /><text x="79.15" y="523.14" id="13241">Y-DSSK</text><rect Type="system" Region="大荒野" height="5.00" y="571.24" Name="F5-CGW" width="5.00" x="69.76" id="13243" ID="30000959" /><text x="69.76" y="571.24" id="13244">F5-CGW</text><rect Type="system" Region="大荒野" height="5.00" y="220.00" Name="N-DQ0D" width="5.00" x="100.00" id="13246" ID="30000904" /><text x="100.00" y="220.00" id="13247">N-DQ0D</text><rect Type="system" Region="大荒野" height="5.00" y="70.00" Name="0PI4-E" width="5.00" x="100.00" id="13249" ID="30000966" /><text x="100.00" y="70.00" id="13250">0PI4-E</text><rect Type="system" Region="大荒野" height="5.00" y="120.00" Name="6WT-BE" width="5.00" x="100.00" id="13252" ID="30000967" /><text x="100.00" y="120.00" id="13253">6WT-BE</text><rect Type="system" Region="大荒野" height="5.00" y="475.62" Name="B-ROFP" width="5.00" x="91.10" id="13255" ID="30000961" /><text x="91.10" y="475.62" id="13256">B-ROFP</text><rect Type="system" Region="大荒野" height="5.00" y="610.00" Name="H9S-WC" width="5.00" x="100.00" id="13258" ID="30000960" /><text x="100.00" y="610.00" id="13259">H9S-WC</text><rect Type="system" Region="大荒野" height="5.00" y="520.00" Name="IX8-JB" width="5.00" x="150.00" id="13261" ID="30000956" /><text x="150.00" y="520.00" id="13262">IX8-JB</text><rect Type="system" Region="大荒野" height="5.00" y="680.00" Name="M-EKDF" width="5.00" x="160.00" id="13264" ID="30000922" /><text x="160.00" y="680.00" id="13265">M-EKDF</text><rect Type="system" Region="大荒野" height="5.00" y="100.00" Name="9SNK-O" width="5.00" x="150.00" id="13267" ID="30000969" /><text x="150.00" y="100.00" id="13268">9SNK-O</text><rect Type="system" Region="大荒野" height="5.00" y="170.00" Name="P1T-LP" width="5.00" x="150.00" id="13270" ID="30000949" /><text x="150.00" y="170.00" id="13271">P1T-LP</text><rect Type="system" Region="大荒野" height="5.00" y="280.00" Name="8YC-AN" width="5.00" x="170.00" id="13273" ID="30000942" /><text x="170.00" y="280.00" id="13274">8YC-AN</text><rect Type="system" Region="大荒野" height="5.00" y="630.00" Name="Y4-GQV" width="5.00" x="180.00" id="13276" ID="30000918" /><text x="180.00" y="630.00" id="13277">Y4-GQV</text><rect Type="system" Region="大荒野" height="5.00" y="320.00" Name="7Q-8Z2" width="5.00" x="200.00" id="13279" ID="30000943" /><text x="200.00" y="320.00" id="13280">7Q-8Z2</text><rect Type="system" Region="大荒野" height="5.00" y="490.00" Name="1C-953" width="5.00" x="200.00" id="13282" ID="30000963" /><text x="200.00" y="490.00" id="13283">1C-953</text><rect Type="system" Region="大荒野" height="5.00" y="570.00" Name="WTIE-6" width="5.00" x="200.00" id="13285" ID="30000957" /><text x="200.00" y="570.00" id="13286">WTIE-6</text><rect Type="system" Region="大荒野" height="5.00" y="100.00" Name="B-VIP9" width="5.00" x="220.00" id="13288" ID="30000970" /><text x="220.00" y="100.00" id="13289">B-VIP9</text><rect Type="system" Region="大荒野" height="5.00" y="170.00" Name="R-ESG0" width="5.00" x="220.00" id="13291" ID="30000950" /><text x="220.00" y="170.00" id="13292">R-ESG0</text><rect Type="system" Region="大荒野" height="5.00" y="530.00" Name="1L-AED" width="5.00" x="230.00" id="13294" ID="30000962" /><text x="230.00" y="530.00" id="13295">1L-AED</text><rect Type="system" Region="大荒野" height="5.00" y="300.00" Name="SUR-F7" width="5.00" x="250.00" id="13297" ID="30000944" /><text x="250.00" y="300.00" id="13298">SUR-F7</text><rect Type="system" Region="大荒野" height="5.00" y="720.00" Name="VXO-OM" width="5.00" x="250.00" id="13300" ID="30000924" /><text x="250.00" y="720.00" id="13301">VXO-OM</text><rect Type="system" Region="大荒野" height="5.00" y="350.00" Name="OK-6XN" width="5.00" x="250.00" id="13303" ID="30000945" /><text x="250.00" y="350.00" id="13304">OK-6XN</text><rect Type="system" Region="大荒野" height="5.00" y="400.00" Name="U3K-4A" width="5.00" x="250.00" id="13306" ID="30000948" /><text x="250.00" y="400.00" id="13307">U3K-4A</text><rect Type="system" Region="大荒野" height="5.00" y="620.00" Name="92-B0X" width="5.00" x="250.00" id="13309" ID="30000994" /><text x="250.00" y="620.00" id="13310">92-B0X</text><rect Type="system" Region="大荒野" height="5.00" y="250.00" Name="LXTC-S" width="5.00" x="280.00" id="13312" ID="30000971" /><text x="280.00" y="250.00" id="13313">LXTC-S</text><rect Type="system" Region="大荒野" height="5.00" y="170.00" Name="CI4M-T" width="5.00" x="300.00" id="13315" ID="30000951" /><text x="300.00" y="170.00" id="13316">CI4M-T</text><rect Type="system" Region="大荒野" height="5.00" y="310.00" Name="Q2FL-T" width="5.00" x="340.00" id="13318" ID="30000946" /><text x="340.00" y="310.00" id="13319">Q2FL-T</text><rect Type="system" Region="大荒野" height="5.00" y="520.00" Name="N-6Z8B" width="5.00" x="350.00" id="13321" ID="30000915" /><text x="350.00" y="520.00" id="13322">N-6Z8B</text><rect Type="system" Region="大荒野" height="5.00" y="570.00" Name="52V6-B" width="5.00" x="350.00" id="13324" ID="30000989" /><text x="350.00" y="570.00" id="13325">52V6-B</text><rect Type="system" Region="大荒野" height="5.00" y="620.00" Name="SB-23C" width="5.00" x="350.00" id="13327" ID="30000991" /><text x="350.00" y="620.00" id="13328">SB-23C</text><rect Type="system" Region="大荒野" height="5.00" y="670.00" Name="O-OVOQ" width="5.00" x="350.00" id="13330" ID="30000993" /><text x="350.00" y="670.00" id="13331">O-OVOQ</text><rect Type="system" Region="大荒野" height="5.00" y="120.00" Name="M-YWAL" width="5.00" x="380.00" id="13333" ID="30000953" /><text x="380.00" y="120.00" id="13334">M-YWAL</text><rect Type="system" Region="大荒野" height="5.00" y="168.09" Name="I-QRJA" width="5.00" x="369.04" id="13336" ID="30000952" /><text x="369.04" y="168.09" id="13337">I-QRJA</text><rect Type="system" Region="大荒野" height="5.00" y="715.65" Name="UT-UZB" width="5.00" x="375.01" id="13339" ID="30000921" /><text x="375.01" y="715.65" id="13340">UT-UZB</text><rect Type="system" Region="大荒野" height="5.00" y="260.00" Name="WE3-BX" width="5.00" x="380.00" id="13342" ID="30000972" /><text x="380.00" y="260.00" id="13343">WE3-BX</text><rect Type="system" Region="大荒野" height="5.00" y="420.00" Name="YUY-LM" width="5.00" x="380.00" id="13345" ID="30000916" /><text x="380.00" y="420.00" id="13346">YUY-LM</text><rect Type="system" Region="大荒野" height="5.00" y="470.00" Name="F8K-WQ" width="5.00" x="400.00" id="13348" ID="30000913" /><text x="400.00" y="470.00" id="13349">F8K-WQ</text><rect Type="system" Region="大荒野" height="5.00" y="600.00" Name="PUC-JZ" width="5.00" x="400.00" id="13351" ID="30000990" /><text x="400.00" y="600.00" id="13352">PUC-JZ</text><rect Type="system" Region="大荒野" height="5.00" y="650.00" Name="5FCV-A" width="5.00" x="400.00" id="13354" ID="30000992" /><text x="400.00" y="650.00" id="13355">5FCV-A</text><rect Type="system" Region="大荒野" height="5.00" y="211.91" Name="H-8F5Q" width="5.00" x="390.96" id="13357" ID="30000974" /><text x="390.96" y="211.91" id="13358">H-8F5Q</text><rect Type="system" Region="大荒野" height="5.00" y="320.00" Name="Y7-XFD" width="5.00" x="430.00" id="13360" ID="30000947" /><text x="430.00" y="320.00" id="13361">Y7-XFD</text><rect Type="system" Region="大荒野" height="5.00" y="720.00" Name="BY5-V8" width="5.00" x="424.50" id="13363" ID="30000925" /><text x="424.50" y="720.00" id="13364">BY5-V8</text><rect Type="system" Region="大荒野" height="5.00" y="170.00" Name="DE71-9" width="5.00" x="450.00" id="13366" ID="30000954" /><text x="450.00" y="170.00" id="13367">DE71-9</text><rect Type="system" Region="大荒野" height="5.00" y="520.00" Name="AB-FZE" width="5.00" x="450.00" id="13369" ID="30000914" /><text x="450.00" y="520.00" id="13370">AB-FZE</text><rect Type="system" Region="大荒野" height="5.00" y="400.00" Name="168-6H" width="5.00" x="450.00" id="13372" ID="30000931" /><text x="450.00" y="400.00" id="13373">168-6H</text><rect Type="system" Region="大荒野" height="5.00" y="450.00" Name="NE-3GR" width="5.00" x="480.00" id="13375" ID="30000917" /><text x="480.00" y="450.00" id="13376">NE-3GR</text><rect Type="system" Region="大荒野" height="5.00" y="260.00" Name="H7O-JZ" width="5.00" x="500.00" id="13378" ID="30000973" /><text x="500.00" y="260.00" id="13379">H7O-JZ</text><rect Type="system" Region="大荒野" height="5.00" y="500.00" Name="504Z-V" width="5.00" x="500.00" id="13381" ID="30000912" /><text x="500.00" y="500.00" id="13382">504Z-V</text><rect Type="system" Region="大荒野" height="5.00" y="720.00" Name="7-IDWY" width="5.00" x="500.00" id="13384" ID="30000919" /><text x="500.00" y="720.00" id="13385">7-IDWY</text><rect Type="system" Region="大荒野" height="5.00" y="170.00" Name="7JF-0Z" width="5.00" x="530.00" id="13387" ID="30000955" /><text x="530.00" y="170.00" id="13388">7JF-0Z</text><rect Type="system" Region="大荒野" height="5.00" y="320.00" Name="AI-EVH" width="5.00" x="520.00" id="13390" ID="30000933" /><text x="520.00" y="320.00" id="13391">AI-EVH</text><rect Type="system" Region="大荒野" height="5.00" y="370.00" Name="W-RFUO" width="5.00" x="520.00" id="13393" ID="30000932" /><text x="520.00" y="370.00" id="13394">W-RFUO</text><rect Type="system" Region="大荒野" height="5.00" y="420.00" Name="V-2GYS" width="5.00" x="520.00" id="13396" ID="30000930" /><text x="520.00" y="420.00" id="13397">V-2GYS</text><rect Type="system" Region="大荒野" height="5.00" y="720.00" Name="TET3-B" width="5.00" x="550.00" id="13399" ID="30000926" /><text x="550.00" y="720.00" id="13400">TET3-B</text><rect Type="system" Region="大荒野" height="5.00" y="70.00" Name="V-IH6B" width="5.00" x="580.00" id="13402" ID="30000988" /><text x="580.00" y="70.00" id="13403">V-IH6B</text><rect Type="system" Region="大荒野" height="5.00" y="400.00" Name="0NV-YU" width="5.00" x="600.00" id="13405" ID="30000929" /><text x="600.00" y="400.00" id="13406">0NV-YU</text><rect Type="system" Region="大荒野" height="5.00" y="260.00" Name="O-RXCZ" width="5.00" x="600.00" id="13408" ID="30000975" /><text x="600.00" y="260.00" id="13409">O-RXCZ</text><rect Type="system" Region="大荒野" height="5.00" y="350.00" Name="F-MKH3" width="5.00" x="600.00" id="13411" ID="30000934" /><text x="600.00" y="350.00" id="13412">F-MKH3</text><rect Type="system" Region="大荒野" height="5.00" y="170.00" Name="OJOS-T" width="5.00" x="600.00" id="13414" ID="30000983" /><text x="600.00" y="170.00" id="13415">OJOS-T</text><rect Type="system" Region="大荒野" height="5.00" y="70.00" Name="JUK0-1" width="5.00" x="650.00" id="13417" ID="30000987" /><text x="650.00" y="70.00" id="13418">JUK0-1</text><rect Type="system" Region="大荒野" height="5.00" y="400.00" Name="WPR-EI" width="5.00" x="670.00" id="13420" ID="30000928" /><text x="670.00" y="400.00" id="13421">WPR-EI</text><rect Type="system" Region="大荒野" height="5.00" y="350.00" Name="ZM-DNR" width="5.00" x="670.00" id="13423" ID="30000935" /><text x="670.00" y="350.00" id="13424">ZM-DNR</text><rect Type="system" Region="大荒野" height="5.00" y="170.00" Name="V89M-R" width="5.00" x="680.00" id="13426" ID="30000984" /><text x="680.00" y="170.00" id="13427">V89M-R</text><rect Type="system" Region="大荒野" height="5.00" y="530.00" Name="QM-20X" width="5.00" x="680.00" id="13429" ID="30000941" /><text x="680.00" y="530.00" id="13430">QM-20X</text><rect Type="system" Region="大荒野" height="5.00" y="670.00" Name="9-34L5" width="5.00" x="710.00" id="13432" ID="30000939" /><text x="710.00" y="670.00" id="13433">9-34L5</text><rect Type="system" Region="大荒野" height="5.00" y="450.00" Name="UMDQ-6" width="5.00" x="700.00" id="13435" ID="30000911" /><text x="700.00" y="450.00" id="13436">UMDQ-6</text><rect Type="system" Region="大荒野" height="5.00" y="120.00" Name="66U-1P" width="5.00" x="700.00" id="13438" ID="30000985" /><text x="700.00" y="120.00" id="13439">66U-1P</text><rect Type="system" Region="大荒野" height="5.00" y="270.00" Name="4M-P1I" width="5.00" x="700.00" id="13441" ID="30000976" /><text x="700.00" y="270.00" id="13442">4M-P1I</text><rect Type="system" Region="大荒野" height="5.00" y="70.00" Name="BRT-OP" width="5.00" x="700.00" id="13444" ID="30000986" /><text x="700.00" y="70.00" id="13445">BRT-OP</text><rect Type="system" Region="大荒野" height="5.00" y="620.00" Name="GF-3FL" width="5.00" x="760.00" id="13447" ID="30000936" /><text x="760.00" y="620.00" id="13448">GF-3FL</text><rect Type="system" Region="大荒野" height="5.00" y="370.00" Name="VKU-BG" width="5.00" x="720.00" id="13450" ID="30000927" /><text x="720.00" y="370.00" id="13451">VKU-BG</text><rect Type="system" Region="大荒野" height="5.00" y="570.00" Name="ZJ-GOU" width="5.00" x="800.00" id="13453" ID="30000937" /><text x="800.00" y="570.00" id="13454">ZJ-GOU</text><rect Type="system" Region="大荒野" height="5.00" y="460.00" Name="8DL-CP" width="5.00" x="810.00" id="13456" ID="30000910" /><text x="810.00" y="460.00" id="13457">8DL-CP</text><rect Type="system" Region="大荒野" height="5.00" y="660.00" Name="0R-GZQ" width="5.00" x="820.00" id="13459" ID="30000940" /><text x="820.00" y="660.00" id="13460">0R-GZQ</text><rect Type="system" Region="大荒野" height="5.00" y="70.00" Name="N-RAEL" width="5.00" x="800.00" id="13462" ID="30000999" /><text x="800.00" y="70.00" id="13463">N-RAEL</text><rect Type="system" Region="大荒野" height="5.00" y="530.00" Name="QQ3-YI" width="5.00" x="840.00" id="13465" ID="30000938" /><text x="840.00" y="530.00" id="13466">QQ3-YI</text><rect Type="system" Region="大荒野" height="5.00" y="400.00" Name="56D-TC" width="5.00" x="860.00" id="13468" ID="30000908" /><text x="860.00" y="400.00" id="13469">56D-TC</text><rect Type="system" Region="大荒野" height="5.00" y="120.00" Name="28-QWU" width="5.00" x="820.00" id="13471" ID="30000996" /><text x="820.00" y="120.00" id="13472">28-QWU</text><rect Type="system" Region="大荒野" height="5.00" y="490.00" Name="6EG7-R" width="5.00" x="870.00" id="13474" ID="30000907" /><text x="870.00" y="490.00" id="13475">6EG7-R</text><rect Type="system" Region="大荒野" height="5.00" y="167.68" Name="0-3VW8" width="5.00" x="847.68" id="13477" ID="30000995" /><text x="847.68" y="167.68" id="13478">0-3VW8</text><rect Type="system" Region="大荒野" height="5.00" y="70.00" Name="UD-AOK" width="5.00" x="875.50" id="13480" ID="30000997" /><text x="875.50" y="70.00" id="13481">UD-AOK</text><rect Type="system" Region="大荒野" height="5.00" y="290.00" Name="O-8SOC" width="5.00" x="860.00" id="13483" ID="30000982" /><text x="860.00" y="290.00" id="13484">O-8SOC</text><rect Type="system" Region="大荒野" height="5.00" y="360.00" Name="EOE3-N" width="5.00" x="890.00" id="13486" ID="30000980" /><text x="890.00" y="360.00" id="13487">EOE3-N</text><rect Type="system" Region="大荒野" height="5.00" y="202.32" Name="F7A-MR" width="5.00" x="882.32" id="13489" ID="30000981" /><text x="882.32" y="202.32" id="13490">F7A-MR</text><rect Type="system" Region="大荒野" height="5.00" y="440.00" Name="2X7Z-L" width="5.00" x="920.00" id="13492" ID="30000909" /><text x="920.00" y="440.00" id="13493">2X7Z-L</text><rect Type="system" Region="大荒野" height="5.00" y="250.00" Name="HB-1NJ" width="5.00" x="900.00" id="13495" ID="30000979" /><text x="900.00" y="250.00" id="13496">HB-1NJ</text><rect Type="system" Region="大荒野" height="5.00" y="70.00" Name="M9U-75" width="5.00" x="924.50" id="13498" ID="30000998" /><text x="924.50" y="70.00" id="13499">M9U-75</text><rect Type="system" Region="大荒野" height="5.00" y="300.00" Name="PUZ-IO" width="5.00" x="930.00" id="13501" ID="30000978" /><text x="930.00" y="300.00" id="13502">PUZ-IO</text><rect Type="system" Region="大荒野" height="5.00" y="400.00" Name="FVXK-D" width="5.00" x="950.00" id="13504" ID="30000906" /><text x="950.00" y="400.00" id="13505">FVXK-D</text><rect Type="system" Region="大荒野" height="5.00" y="350.00" Name="P7UZ-T" width="5.00" x="950.00" id="13507" ID="30000977" /><text x="950.00" y="350.00" id="13508">P7UZ-T</text><rect Type="system" Region="大荒野" height="5.00" y="70.00" Name="K-IYNW" width="5.00" x="1000.00" id="13510" ID="30001000" /><text x="1000.00" y="70.00" id="13511">K-IYNW</text><rect Type="system" Region="德里克" height="5.00" y="370.00" Name="卡比" width="5.00" x="180.00" id="13513" ID="30000117" /><text x="180.00" y="370.00" id="13514">卡比</text><rect Type="system" Region="摩登赫斯" height="5.00" y="50.00" Name="伊格贝格尔" width="5.00" x="280.00" id="13516" ID="30002420" /><text x="280.00" y="50.00" id="13517">伊格贝格尔</text><rect Type="system" Region="柯尔斯" height="5.00" y="764.35" Name="KLMT-W" width="5.00" x="380.49" id="13519" ID="30001020" /><text x="380.49" y="764.35" id="13520">KLMT-W</text><rect Type="system" Region="灼热之径" height="5.00" y="700.00" Name="F-5FDA" width="5.00" x="650.00" id="13522" ID="30000666" /><text x="650.00" y="700.00" id="13523">F-5FDA</text><rect Type="system" Region="琉蓝之穹" height="5.00" y="20.00" Name="C-4D0W" width="5.00" x="700.00" id="13525" ID="30002375" /><text x="700.00" y="20.00" id="13526">C-4D0W</text><rect Type="system" Region="美特伯里斯" height="5.00" y="20.00" Name="克挪腊" width="5.00" x="800.00" id="13528" ID="30003471" /><text x="800.00" y="20.00" id="13529">克挪腊</text><rect Type="system" Region="对舞之域" height="5.00" y="20.00" Name="艾蒂斯" width="5.00" x="1000.00" id="13531" ID="30002489" /><text x="1000.00" y="20.00" id="13532">艾蒂斯</text><rect Type="system" Region="地窖" height="5.00" y="120.00" Name="I6-SYN" width="5.00" x="1000.00" id="13534" ID="30000626" /><text x="1000.00" y="120.00" id="13535">I6-SYN</text><rect Type="system" Region="灼热之径" height="5.00" y="270.00" Name="U2-28D" width="5.00" x="1000.00" id="13537" ID="30000703" /><text x="1000.00" y="270.00" id="13538">U2-28D</text><line x2="20.00" style="fill:blue;stroke:blue;" y1="30.00" x1="20.00" id="13540" y2="80.00" /><line x2="20.00" style="fill:blue;stroke:blue;" y1="80.00" x1="20.00" id="13541" y2="130.00" /><line x2="100.00" style="fill:blue;stroke:blue;" y1="80.00" x1="20.00" id="13542" y2="70.00" /><line x2="20.00" style="fill:blue;stroke:blue;" y1="80.00" x1="20.00" id="13543" y2="30.00" /><line x2="20.00" style="fill:blue;stroke:blue;" y1="130.00" x1="20.00" id="13544" y2="180.00" /><line x2="20.00" style="fill:blue;stroke:blue;" y1="130.00" x1="20.00" id="13545" y2="80.00" /><line x2="100.00" style="fill:blue;stroke:blue;" y1="130.00" x1="20.00" id="13546" y2="120.00" /><line x2="100.00" style="fill:blue;stroke:blue;" y1="180.00" x1="20.00" id="13547" y2="220.00" /><line x2="20.00" style="fill:blue;stroke:blue;" y1="180.00" x1="20.00" id="13548" y2="230.00" /><line x2="20.00" style="fill:blue;stroke:blue;" y1="180.00" x1="20.00" id="13549" y2="130.00" /><line x2="20.00" style="fill:blue;stroke:blue;" y1="230.00" x1="20.00" id="13550" y2="180.00" /><line x2="20.00" style="fill:blue;stroke:blue;" y1="230.00" x1="20.00" id="13551" y2="280.00" /><line x2="20.00" style="fill:blue;stroke:blue;" y1="280.00" x1="20.00" id="13552" y2="330.00" /><line x2="20.00" style="fill:blue;stroke:blue;" y1="280.00" x1="20.00" id="13553" y2="230.00" /><line x2="170.00" style="fill:blue;stroke:blue;" y1="280.00" x1="20.00" id="13554" y2="280.00" /><line x2="20.00" style="fill:blue;stroke:blue;" y1="330.00" x1="20.00" id="13555" y2="380.00" /><line x2="20.00" style="fill:blue;stroke:blue;" y1="330.00" x1="20.00" id="13556" y2="280.00" /><line x2="20.00" style="fill:blue;stroke:blue;" y1="380.00" x1="20.00" id="13557" y2="330.00" /><line x2="20.00" style="fill:blue;stroke:blue;" y1="380.00" x1="20.00" id="13558" y2="450.00" /><line x2="20.00" style="fill:blue;stroke:blue;" y1="450.00" x1="20.00" id="13559" y2="380.00" /><line x2="400.00" style="fill:blue;stroke:blue;" y1="450.00" x1="20.00" id="13560" y2="470.00" /><line x2="50.00" style="fill:blue;stroke:blue;" y1="450.00" x1="20.00" id="13561" y2="690.00" /><line x2="180.00" style="fill:blue;stroke:blue;" y1="690.00" x1="50.00" id="13562" y2="630.00" /><line x2="20.00" style="fill:blue;stroke:blue;" y1="690.00" x1="50.00" id="13563" y2="450.00" /><line x2="250.00" style="fill:blue;stroke:blue;" y1="690.00" x1="50.00" id="13564" y2="720.00" /><line x2="150.00" style="fill:blue;stroke:blue;" y1="523.14" x1="79.15" id="13565" y2="520.00" /><line x2="69.76" style="fill:blue;stroke:blue;" y1="523.14" x1="79.15" id="13566" y2="571.24" /><line x2="91.10" style="fill:blue;stroke:blue;" y1="523.14" x1="79.15" id="13567" y2="475.62" /><line x2="79.15" style="fill:blue;stroke:blue;" y1="571.24" x1="69.76" id="13568" y2="523.14" /><line x2="100.00" style="fill:blue;stroke:blue;" y1="571.24" x1="69.76" id="13569" y2="610.00" /><line x2="20.00" style="fill:blue;stroke:blue;" y1="220.00" x1="100.00" id="13570" y2="180.00" /><line x2="150.00" style="fill:blue;stroke:blue;" y1="220.00" x1="100.00" id="13571" y2="170.00" /><line x2="280.00" style="fill:blue;stroke:blue;" y1="220.00" x1="100.00" id="13572" y2="250.00" /><line x2="20.00" style="fill:blue;stroke:blue;" y1="70.00" x1="100.00" id="13573" y2="80.00" /><line x2="100.00" style="fill:blue;stroke:blue;" y1="70.00" x1="100.00" id="13574" y2="120.00" /><line x2="150.00" style="fill:blue;stroke:blue;" y1="70.00" x1="100.00" id="13575" y2="100.00" /><line x2="20.00" style="fill:blue;stroke:blue;" y1="120.00" x1="100.00" id="13576" y2="130.00" /><line x2="100.00" style="fill:blue;stroke:blue;" y1="120.00" x1="100.00" id="13577" y2="70.00" /><line x2="150.00" style="fill:blue;stroke:blue;" y1="120.00" x1="100.00" id="13578" y2="100.00" /><line x2="79.15" style="fill:blue;stroke:blue;" y1="475.62" x1="91.10" id="13579" y2="523.14" /><line x2="69.76" style="fill:blue;stroke:blue;" y1="610.00" x1="100.00" id="13580" y2="571.24" /><line x2="200.00" style="fill:blue;stroke:blue;" y1="520.00" x1="150.00" id="13581" y2="570.00" /><line x2="79.15" style="fill:blue;stroke:blue;" y1="520.00" x1="150.00" id="13582" y2="523.14" /><line x2="230.00" style="fill:blue;stroke:blue;" y1="520.00" x1="150.00" id="13583" y2="530.00" /><line x2="200.00" style="fill:blue;stroke:blue;" y1="520.00" x1="150.00" id="13584" y2="490.00" /><line x2="180.00" style="fill:blue;stroke:blue;" y1="680.00" x1="160.00" id="13585" y2="630.00" /><line x2="250.00" style="fill:blue;stroke:blue;" y1="680.00" x1="160.00" id="13586" y2="720.00" /><line x2="100.00" style="fill:blue;stroke:blue;" y1="100.00" x1="150.00" id="13587" y2="70.00" /><line x2="100.00" style="fill:blue;stroke:blue;" y1="100.00" x1="150.00" id="13588" y2="120.00" /><line x2="220.00" style="fill:blue;stroke:blue;" y1="100.00" x1="150.00" id="13589" y2="100.00" /><line x2="100.00" style="fill:blue;stroke:blue;" y1="170.00" x1="150.00" id="13590" y2="220.00" /><line x2="220.00" style="fill:blue;stroke:blue;" y1="170.00" x1="150.00" id="13591" y2="170.00" /><line x2="20.00" style="fill:blue;stroke:blue;" y1="280.00" x1="170.00" id="13592" y2="280.00" /><line x2="200.00" style="fill:blue;stroke:blue;" y1="280.00" x1="170.00" id="13593" y2="320.00" /><line x2="250.00" style="fill:blue;stroke:blue;" y1="280.00" x1="170.00" id="13594" y2="300.00" /><line x2="50.00" style="fill:blue;stroke:blue;" y1="630.00" x1="180.00" id="13595" y2="690.00" /><line x2="160.00" style="fill:blue;stroke:blue;" y1="630.00" x1="180.00" id="13596" y2="680.00" /><line x2="250.00" style="fill:blue;stroke:blue;" y1="630.00" x1="180.00" id="13597" y2="720.00" /><line x2="200.00" style="fill:blue;stroke:blue;" y1="630.00" x1="180.00" id="13598" y2="570.00" /><line x2="250.00" style="fill:blue;stroke:blue;" y1="630.00" x1="180.00" id="13599" y2="620.00" /><line x2="180.00" style="fill:blue;stroke:blue;" y1="320.00" x1="200.00" id="13600" y2="370.00" /><line x2="170.00" style="fill:blue;stroke:blue;" y1="320.00" x1="200.00" id="13601" y2="280.00" /><line x2="250.00" style="fill:blue;stroke:blue;" y1="320.00" x1="200.00" id="13602" y2="300.00" /><line x2="150.00" style="fill:blue;stroke:blue;" y1="490.00" x1="200.00" id="13603" y2="520.00" /><line x2="230.00" style="fill:blue;stroke:blue;" y1="490.00" x1="200.00" id="13604" y2="530.00" /><line x2="180.00" style="fill:blue;stroke:blue;" y1="570.00" x1="200.00" id="13605" y2="630.00" /><line x2="150.00" style="fill:blue;stroke:blue;" y1="570.00" x1="200.00" id="13606" y2="520.00" /><line x2="230.00" style="fill:blue;stroke:blue;" y1="570.00" x1="200.00" id="13607" y2="530.00" /><line x2="150.00" style="fill:blue;stroke:blue;" y1="100.00" x1="220.00" id="13608" y2="100.00" /><line x2="280.00" style="fill:blue;stroke:blue;" y1="100.00" x1="220.00" id="13609" y2="50.00" /><line x2="150.00" style="fill:blue;stroke:blue;" y1="170.00" x1="220.00" id="13610" y2="170.00" /><line x2="300.00" style="fill:blue;stroke:blue;" y1="170.00" x1="220.00" id="13611" y2="170.00" /><line x2="350.00" style="fill:blue;stroke:blue;" y1="530.00" x1="230.00" id="13612" y2="520.00" /><line x2="150.00" style="fill:blue;stroke:blue;" y1="530.00" x1="230.00" id="13613" y2="520.00" /><line x2="200.00" style="fill:blue;stroke:blue;" y1="530.00" x1="230.00" id="13614" y2="570.00" /><line x2="200.00" style="fill:blue;stroke:blue;" y1="530.00" x1="230.00" id="13615" y2="490.00" /><line x2="170.00" style="fill:blue;stroke:blue;" y1="300.00" x1="250.00" id="13616" y2="280.00" /><line x2="200.00" style="fill:blue;stroke:blue;" y1="300.00" x1="250.00" id="13617" y2="320.00" /><line x2="250.00" style="fill:blue;stroke:blue;" y1="300.00" x1="250.00" id="13618" y2="350.00" /><line x2="340.00" style="fill:blue;stroke:blue;" y1="300.00" x1="250.00" id="13619" y2="310.00" /><line x2="180.00" style="fill:blue;stroke:blue;" y1="720.00" x1="250.00" id="13620" y2="630.00" /><line x2="50.00" style="fill:blue;stroke:blue;" y1="720.00" x1="250.00" id="13621" y2="690.00" /><line x2="375.01" style="fill:blue;stroke:blue;" y1="720.00" x1="250.00" id="13622" y2="715.65" /><line x2="160.00" style="fill:blue;stroke:blue;" y1="720.00" x1="250.00" id="13623" y2="680.00" /><line x2="350.00" style="fill:blue;stroke:blue;" y1="720.00" x1="250.00" id="13624" y2="670.00" /><line x2="250.00" style="fill:blue;stroke:blue;" y1="350.00" x1="250.00" id="13625" y2="300.00" /><line x2="250.00" style="fill:blue;stroke:blue;" y1="350.00" x1="250.00" id="13626" y2="400.00" /><line x2="250.00" style="fill:blue;stroke:blue;" y1="400.00" x1="250.00" id="13627" y2="350.00" /><line x2="180.00" style="fill:blue;stroke:blue;" y1="620.00" x1="250.00" id="13628" y2="630.00" /><line x2="350.00" style="fill:blue;stroke:blue;" y1="620.00" x1="250.00" id="13629" y2="570.00" /><line x2="350.00" style="fill:blue;stroke:blue;" y1="620.00" x1="250.00" id="13630" y2="620.00" /><line x2="350.00" style="fill:blue;stroke:blue;" y1="620.00" x1="250.00" id="13631" y2="670.00" /><line x2="100.00" style="fill:blue;stroke:blue;" y1="250.00" x1="280.00" id="13632" y2="220.00" /><line x2="380.00" style="fill:blue;stroke:blue;" y1="250.00" x1="280.00" id="13633" y2="260.00" /><line x2="220.00" style="fill:blue;stroke:blue;" y1="170.00" x1="300.00" id="13634" y2="170.00" /><line x2="369.04" style="fill:blue;stroke:blue;" y1="170.00" x1="300.00" id="13635" y2="168.09" /><line x2="250.00" style="fill:blue;stroke:blue;" y1="310.00" x1="340.00" id="13636" y2="300.00" /><line x2="430.00" style="fill:blue;stroke:blue;" y1="310.00" x1="340.00" id="13637" y2="320.00" /><line x2="450.00" style="fill:blue;stroke:blue;" y1="520.00" x1="350.00" id="13638" y2="520.00" /><line x2="230.00" style="fill:blue;stroke:blue;" y1="520.00" x1="350.00" id="13639" y2="530.00" /><line x2="350.00" style="fill:blue;stroke:blue;" y1="520.00" x1="350.00" id="13640" y2="570.00" /><line x2="350.00" style="fill:blue;stroke:blue;" y1="570.00" x1="350.00" id="13641" y2="520.00" /><line x2="400.00" style="fill:blue;stroke:blue;" y1="570.00" x1="350.00" id="13642" y2="600.00" /><line x2="350.00" style="fill:blue;stroke:blue;" y1="570.00" x1="350.00" id="13643" y2="620.00" /><line x2="400.00" style="fill:blue;stroke:blue;" y1="570.00" x1="350.00" id="13644" y2="650.00" /><line x2="250.00" style="fill:blue;stroke:blue;" y1="570.00" x1="350.00" id="13645" y2="620.00" /><line x2="350.00" style="fill:blue;stroke:blue;" y1="620.00" x1="350.00" id="13646" y2="570.00" /><line x2="350.00" style="fill:blue;stroke:blue;" y1="620.00" x1="350.00" id="13647" y2="670.00" /><line x2="250.00" style="fill:blue;stroke:blue;" y1="620.00" x1="350.00" id="13648" y2="620.00" /><line x2="250.00" style="fill:blue;stroke:blue;" y1="670.00" x1="350.00" id="13649" y2="720.00" /><line x2="350.00" style="fill:blue;stroke:blue;" y1="670.00" x1="350.00" id="13650" y2="620.00" /><line x2="400.00" style="fill:blue;stroke:blue;" y1="670.00" x1="350.00" id="13651" y2="650.00" /><line x2="250.00" style="fill:blue;stroke:blue;" y1="670.00" x1="350.00" id="13652" y2="620.00" /><line x2="369.04" style="fill:blue;stroke:blue;" y1="120.00" x1="380.00" id="13653" y2="168.09" /><line x2="300.00" style="fill:blue;stroke:blue;" y1="168.09" x1="369.04" id="13654" y2="170.00" /><line x2="380.00" style="fill:blue;stroke:blue;" y1="168.09" x1="369.04" id="13655" y2="120.00" /><line x2="450.00" style="fill:blue;stroke:blue;" y1="168.09" x1="369.04" id="13656" y2="170.00" /><line x2="250.00" style="fill:blue;stroke:blue;" y1="715.65" x1="375.01" id="13657" y2="720.00" /><line x2="424.50" style="fill:blue;stroke:blue;" y1="715.65" x1="375.01" id="13658" y2="720.00" /><line x2="380.49" style="fill:blue;stroke:blue;" y1="715.65" x1="375.01" id="13659" y2="764.35" /><line x2="280.00" style="fill:blue;stroke:blue;" y1="260.00" x1="380.00" id="13660" y2="250.00" /><line x2="500.00" style="fill:blue;stroke:blue;" y1="260.00" x1="380.00" id="13661" y2="260.00" /><line x2="390.96" style="fill:blue;stroke:blue;" y1="260.00" x1="380.00" id="13662" y2="211.91" /><line x2="400.00" style="fill:blue;stroke:blue;" y1="420.00" x1="380.00" id="13663" y2="470.00" /><line x2="500.00" style="fill:blue;stroke:blue;" y1="470.00" x1="400.00" id="13664" y2="500.00" /><line x2="450.00" style="fill:blue;stroke:blue;" y1="470.00" x1="400.00" id="13665" y2="520.00" /><line x2="380.00" style="fill:blue;stroke:blue;" y1="470.00" x1="400.00" id="13666" y2="420.00" /><line x2="480.00" style="fill:blue;stroke:blue;" y1="470.00" x1="400.00" id="13667" y2="450.00" /><line x2="20.00" style="fill:blue;stroke:blue;" y1="470.00" x1="400.00" id="13668" y2="450.00" /><line x2="350.00" style="fill:blue;stroke:blue;" y1="600.00" x1="400.00" id="13669" y2="570.00" /><line x2="400.00" style="fill:blue;stroke:blue;" y1="600.00" x1="400.00" id="13670" y2="650.00" /><line x2="350.00" style="fill:blue;stroke:blue;" y1="650.00" x1="400.00" id="13671" y2="570.00" /><line x2="400.00" style="fill:blue;stroke:blue;" y1="650.00" x1="400.00" id="13672" y2="600.00" /><line x2="350.00" style="fill:blue;stroke:blue;" y1="650.00" x1="400.00" id="13673" y2="670.00" /><line x2="380.00" style="fill:blue;stroke:blue;" y1="211.91" x1="390.96" id="13674" y2="260.00" /><line x2="520.00" style="fill:blue;stroke:blue;" y1="320.00" x1="430.00" id="13675" y2="320.00" /><line x2="340.00" style="fill:blue;stroke:blue;" y1="320.00" x1="430.00" id="13676" y2="310.00" /><line x2="500.00" style="fill:blue;stroke:blue;" y1="720.00" x1="424.50" id="13677" y2="720.00" /><line x2="375.01" style="fill:blue;stroke:blue;" y1="720.00" x1="424.50" id="13678" y2="715.65" /><line x2="369.04" style="fill:blue;stroke:blue;" y1="170.00" x1="450.00" id="13679" y2="168.09" /><line x2="530.00" style="fill:blue;stroke:blue;" y1="170.00" x1="450.00" id="13680" y2="170.00" /><line x2="500.00" style="fill:blue;stroke:blue;" y1="520.00" x1="450.00" id="13681" y2="500.00" /><line x2="400.00" style="fill:blue;stroke:blue;" y1="520.00" x1="450.00" id="13682" y2="470.00" /><line x2="350.00" style="fill:blue;stroke:blue;" y1="520.00" x1="450.00" id="13683" y2="520.00" /><line x2="520.00" style="fill:blue;stroke:blue;" y1="400.00" x1="450.00" id="13684" y2="420.00" /><line x2="500.00" style="fill:blue;stroke:blue;" y1="450.00" x1="480.00" id="13685" y2="500.00" /><line x2="400.00" style="fill:blue;stroke:blue;" y1="450.00" x1="480.00" id="13686" y2="470.00" /><line x2="380.00" style="fill:blue;stroke:blue;" y1="260.00" x1="500.00" id="13687" y2="260.00" /><line x2="600.00" style="fill:blue;stroke:blue;" y1="260.00" x1="500.00" id="13688" y2="260.00" /><line x2="400.00" style="fill:blue;stroke:blue;" y1="500.00" x1="500.00" id="13689" y2="470.00" /><line x2="450.00" style="fill:blue;stroke:blue;" y1="500.00" x1="500.00" id="13690" y2="520.00" /><line x2="480.00" style="fill:blue;stroke:blue;" y1="500.00" x1="500.00" id="13691" y2="450.00" /><line x2="500.00" style="fill:blue;stroke:blue;" y1="500.00" x1="500.00" id="13692" y2="720.00" /><line x2="680.00" style="fill:blue;stroke:blue;" y1="500.00" x1="500.00" id="13693" y2="530.00" /><line x2="500.00" style="fill:blue;stroke:blue;" y1="720.00" x1="500.00" id="13694" y2="500.00" /><line x2="424.50" style="fill:blue;stroke:blue;" y1="720.00" x1="500.00" id="13695" y2="720.00" /><line x2="550.00" style="fill:blue;stroke:blue;" y1="720.00" x1="500.00" id="13696" y2="720.00" /><line x2="450.00" style="fill:blue;stroke:blue;" y1="170.00" x1="530.00" id="13697" y2="170.00" /><line x2="600.00" style="fill:blue;stroke:blue;" y1="170.00" x1="530.00" id="13698" y2="170.00" /><line x2="520.00" style="fill:blue;stroke:blue;" y1="320.00" x1="520.00" id="13699" y2="370.00" /><line x2="600.00" style="fill:blue;stroke:blue;" y1="320.00" x1="520.00" id="13700" y2="350.00" /><line x2="430.00" style="fill:blue;stroke:blue;" y1="320.00" x1="520.00" id="13701" y2="320.00" /><line x2="600.00" style="fill:blue;stroke:blue;" y1="370.00" x1="520.00" id="13702" y2="400.00" /><line x2="520.00" style="fill:blue;stroke:blue;" y1="370.00" x1="520.00" id="13703" y2="420.00" /><line x2="520.00" style="fill:blue;stroke:blue;" y1="370.00" x1="520.00" id="13704" y2="320.00" /><line x2="600.00" style="fill:blue;stroke:blue;" y1="370.00" x1="520.00" id="13705" y2="350.00" /><line x2="600.00" style="fill:blue;stroke:blue;" y1="420.00" x1="520.00" id="13706" y2="400.00" /><line x2="450.00" style="fill:blue;stroke:blue;" y1="420.00" x1="520.00" id="13707" y2="400.00" /><line x2="520.00" style="fill:blue;stroke:blue;" y1="420.00" x1="520.00" id="13708" y2="370.00" /><line x2="650.00" style="fill:blue;stroke:blue;" y1="720.00" x1="550.00" id="13709" y2="700.00" /><line x2="500.00" style="fill:blue;stroke:blue;" y1="720.00" x1="550.00" id="13710" y2="720.00" /><line x2="650.00" style="fill:blue;stroke:blue;" y1="70.00" x1="580.00" id="13711" y2="70.00" /><line x2="670.00" style="fill:blue;stroke:blue;" y1="400.00" x1="600.00" id="13712" y2="400.00" /><line x2="520.00" style="fill:blue;stroke:blue;" y1="400.00" x1="600.00" id="13713" y2="420.00" /><line x2="520.00" style="fill:blue;stroke:blue;" y1="400.00" x1="600.00" id="13714" y2="370.00" /><line x2="500.00" style="fill:blue;stroke:blue;" y1="260.00" x1="600.00" id="13715" y2="260.00" /><line x2="700.00" style="fill:blue;stroke:blue;" y1="260.00" x1="600.00" id="13716" y2="270.00" /><line x2="520.00" style="fill:blue;stroke:blue;" y1="350.00" x1="600.00" id="13717" y2="370.00" /><line x2="520.00" style="fill:blue;stroke:blue;" y1="350.00" x1="600.00" id="13718" y2="320.00" /><line x2="670.00" style="fill:blue;stroke:blue;" y1="350.00" x1="600.00" id="13719" y2="350.00" /><line x2="530.00" style="fill:blue;stroke:blue;" y1="170.00" x1="600.00" id="13720" y2="170.00" /><line x2="680.00" style="fill:blue;stroke:blue;" y1="170.00" x1="600.00" id="13721" y2="170.00" /><line x2="700.00" style="fill:blue;stroke:blue;" y1="70.00" x1="650.00" id="13722" y2="70.00" /><line x2="580.00" style="fill:blue;stroke:blue;" y1="70.00" x1="650.00" id="13723" y2="70.00" /><line x2="720.00" style="fill:blue;stroke:blue;" y1="400.00" x1="670.00" id="13724" y2="370.00" /><line x2="600.00" style="fill:blue;stroke:blue;" y1="400.00" x1="670.00" id="13725" y2="400.00" /><line x2="720.00" style="fill:blue;stroke:blue;" y1="350.00" x1="670.00" id="13726" y2="370.00" /><line x2="600.00" style="fill:blue;stroke:blue;" y1="350.00" x1="670.00" id="13727" y2="350.00" /><line x2="600.00" style="fill:blue;stroke:blue;" y1="170.00" x1="680.00" id="13728" y2="170.00" /><line x2="700.00" style="fill:blue;stroke:blue;" y1="170.00" x1="680.00" id="13729" y2="120.00" /><line x2="500.00" style="fill:blue;stroke:blue;" y1="530.00" x1="680.00" id="13730" y2="500.00" /><line x2="760.00" style="fill:blue;stroke:blue;" y1="530.00" x1="680.00" id="13731" y2="620.00" /><line x2="800.00" style="fill:blue;stroke:blue;" y1="530.00" x1="680.00" id="13732" y2="570.00" /><line x2="650.00" style="fill:blue;stroke:blue;" y1="670.00" x1="710.00" id="13733" y2="700.00" /><line x2="760.00" style="fill:blue;stroke:blue;" y1="670.00" x1="710.00" id="13734" y2="620.00" /><line x2="810.00" style="fill:blue;stroke:blue;" y1="450.00" x1="700.00" id="13735" y2="460.00" /><line x2="680.00" style="fill:blue;stroke:blue;" y1="120.00" x1="700.00" id="13736" y2="170.00" /><line x2="700.00" style="fill:blue;stroke:blue;" y1="120.00" x1="700.00" id="13737" y2="70.00" /><line x2="600.00" style="fill:blue;stroke:blue;" y1="270.00" x1="700.00" id="13738" y2="260.00" /><line x2="700.00" style="fill:blue;stroke:blue;" y1="70.00" x1="700.00" id="13739" y2="120.00" /><line x2="650.00" style="fill:blue;stroke:blue;" y1="70.00" x1="700.00" id="13740" y2="70.00" /><line x2="700.00" style="fill:blue;stroke:blue;" y1="70.00" x1="700.00" id="13741" y2="20.00" /><line x2="800.00" style="fill:blue;stroke:blue;" y1="620.00" x1="760.00" id="13742" y2="570.00" /><line x2="710.00" style="fill:blue;stroke:blue;" y1="620.00" x1="760.00" id="13743" y2="670.00" /><line x2="820.00" style="fill:blue;stroke:blue;" y1="620.00" x1="760.00" id="13744" y2="660.00" /><line x2="680.00" style="fill:blue;stroke:blue;" y1="620.00" x1="760.00" id="13745" y2="530.00" /><line x2="860.00" style="fill:blue;stroke:blue;" y1="370.00" x1="720.00" id="13746" y2="400.00" /><line x2="670.00" style="fill:blue;stroke:blue;" y1="370.00" x1="720.00" id="13747" y2="400.00" /><line x2="670.00" style="fill:blue;stroke:blue;" y1="370.00" x1="720.00" id="13748" y2="350.00" /><line x2="760.00" style="fill:blue;stroke:blue;" y1="570.00" x1="800.00" id="13749" y2="620.00" /><line x2="840.00" style="fill:blue;stroke:blue;" y1="570.00" x1="800.00" id="13750" y2="530.00" /><line x2="680.00" style="fill:blue;stroke:blue;" y1="570.00" x1="800.00" id="13751" y2="530.00" /><line x2="870.00" style="fill:blue;stroke:blue;" y1="460.00" x1="810.00" id="13752" y2="490.00" /><line x2="860.00" style="fill:blue;stroke:blue;" y1="460.00" x1="810.00" id="13753" y2="400.00" /><line x2="700.00" style="fill:blue;stroke:blue;" y1="460.00" x1="810.00" id="13754" y2="450.00" /><line x2="760.00" style="fill:blue;stroke:blue;" y1="660.00" x1="820.00" id="13755" y2="620.00" /><line x2="820.00" style="fill:blue;stroke:blue;" y1="70.00" x1="800.00" id="13756" y2="120.00" /><line x2="875.50" style="fill:blue;stroke:blue;" y1="70.00" x1="800.00" id="13757" y2="70.00" /><line x2="800.00" style="fill:blue;stroke:blue;" y1="70.00" x1="800.00" id="13758" y2="20.00" /><line x2="870.00" style="fill:blue;stroke:blue;" y1="530.00" x1="840.00" id="13759" y2="490.00" /><line x2="800.00" style="fill:blue;stroke:blue;" y1="530.00" x1="840.00" id="13760" y2="570.00" /><line x2="870.00" style="fill:blue;stroke:blue;" y1="400.00" x1="860.00" id="13761" y2="490.00" /><line x2="920.00" style="fill:blue;stroke:blue;" y1="400.00" x1="860.00" id="13762" y2="440.00" /><line x2="810.00" style="fill:blue;stroke:blue;" y1="400.00" x1="860.00" id="13763" y2="460.00" /><line x2="720.00" style="fill:blue;stroke:blue;" y1="400.00" x1="860.00" id="13764" y2="370.00" /><line x2="847.68" style="fill:blue;stroke:blue;" y1="120.00" x1="820.00" id="13765" y2="167.68" /><line x2="875.50" style="fill:blue;stroke:blue;" y1="120.00" x1="820.00" id="13766" y2="70.00" /><line x2="800.00" style="fill:blue;stroke:blue;" y1="120.00" x1="820.00" id="13767" y2="70.00" /><line x2="860.00" style="fill:blue;stroke:blue;" y1="490.00" x1="870.00" id="13768" y2="400.00" /><line x2="920.00" style="fill:blue;stroke:blue;" y1="490.00" x1="870.00" id="13769" y2="440.00" /><line x2="810.00" style="fill:blue;stroke:blue;" y1="490.00" x1="870.00" id="13770" y2="460.00" /><line x2="840.00" style="fill:blue;stroke:blue;" y1="490.00" x1="870.00" id="13771" y2="530.00" /><line x2="882.32" style="fill:blue;stroke:blue;" y1="167.68" x1="847.68" id="13772" y2="202.32" /><line x2="820.00" style="fill:blue;stroke:blue;" y1="167.68" x1="847.68" id="13773" y2="120.00" /><line x2="820.00" style="fill:blue;stroke:blue;" y1="70.00" x1="875.50" id="13774" y2="120.00" /><line x2="924.50" style="fill:blue;stroke:blue;" y1="70.00" x1="875.50" id="13775" y2="70.00" /><line x2="800.00" style="fill:blue;stroke:blue;" y1="70.00" x1="875.50" id="13776" y2="70.00" /><line x2="930.00" style="fill:blue;stroke:blue;" y1="290.00" x1="860.00" id="13777" y2="300.00" /><line x2="900.00" style="fill:blue;stroke:blue;" y1="290.00" x1="860.00" id="13778" y2="250.00" /><line x2="950.00" style="fill:blue;stroke:blue;" y1="360.00" x1="890.00" id="13779" y2="350.00" /><line x2="900.00" style="fill:blue;stroke:blue;" y1="202.32" x1="882.32" id="13780" y2="250.00" /><line x2="847.68" style="fill:blue;stroke:blue;" y1="202.32" x1="882.32" id="13781" y2="167.68" /><line x2="950.00" style="fill:blue;stroke:blue;" y1="440.00" x1="920.00" id="13782" y2="400.00" /><line x2="870.00" style="fill:blue;stroke:blue;" y1="440.00" x1="920.00" id="13783" y2="490.00" /><line x2="860.00" style="fill:blue;stroke:blue;" y1="440.00" x1="920.00" id="13784" y2="400.00" /><line x2="930.00" style="fill:blue;stroke:blue;" y1="250.00" x1="900.00" id="13785" y2="300.00" /><line x2="882.32" style="fill:blue;stroke:blue;" y1="250.00" x1="900.00" id="13786" y2="202.32" /><line x2="860.00" style="fill:blue;stroke:blue;" y1="250.00" x1="900.00" id="13787" y2="290.00" /><line x2="875.50" style="fill:blue;stroke:blue;" y1="70.00" x1="924.50" id="13788" y2="70.00" /><line x2="1000.00" style="fill:blue;stroke:blue;" y1="70.00" x1="924.50" id="13789" y2="70.00" /><line x2="1000.00" style="fill:blue;stroke:blue;" y1="300.00" x1="930.00" id="13790" y2="270.00" /><line x2="950.00" style="fill:blue;stroke:blue;" y1="300.00" x1="930.00" id="13791" y2="350.00" /><line x2="900.00" style="fill:blue;stroke:blue;" y1="300.00" x1="930.00" id="13792" y2="250.00" /><line x2="860.00" style="fill:blue;stroke:blue;" y1="300.00" x1="930.00" id="13793" y2="290.00" /><line x2="920.00" style="fill:blue;stroke:blue;" y1="400.00" x1="950.00" id="13794" y2="440.00" /><line x2="950.00" style="fill:blue;stroke:blue;" y1="400.00" x1="950.00" id="13795" y2="350.00" /><line x2="950.00" style="fill:blue;stroke:blue;" y1="350.00" x1="950.00" id="13796" y2="400.00" /><line x2="930.00" style="fill:blue;stroke:blue;" y1="350.00" x1="950.00" id="13797" y2="300.00" /><line x2="890.00" style="fill:blue;stroke:blue;" y1="350.00" x1="950.00" id="13798" y2="360.00" /><line x2="1000.00" style="fill:blue;stroke:blue;" y1="70.00" x1="1000.00" id="13799" y2="120.00" /><line x2="924.50" style="fill:blue;stroke:blue;" y1="70.00" x1="1000.00" id="13800" y2="70.00" /><line x2="1000.00" style="fill:blue;stroke:blue;" y1="70.00" x1="1000.00" id="13801" y2="20.00" /><line x2="200.00" style="fill:blue;stroke:blue;" y1="370.00" x1="180.00" id="13802" y2="320.00" /><line x2="220.00" style="fill:blue;stroke:blue;" y1="50.00" x1="280.00" id="13803" y2="100.00" /><line x2="375.01" style="fill:blue;stroke:blue;" y1="764.35" x1="380.49" id="13804" y2="715.65" /><line x2="550.00" style="fill:blue;stroke:blue;" y1="700.00" x1="650.00" id="13805" y2="720.00" /><line x2="710.00" style="fill:blue;stroke:blue;" y1="700.00" x1="650.00" id="13806" y2="670.00" /><line x2="700.00" style="fill:blue;stroke:blue;" y1="20.00" x1="700.00" id="13807" y2="70.00" /><line x2="800.00" style="fill:blue;stroke:blue;" y1="20.00" x1="800.00" id="13808" y2="70.00" /><line x2="1000.00" style="fill:blue;stroke:blue;" y1="20.00" x1="1000.00" id="13809" y2="70.00" /><line x2="1000.00" style="fill:blue;stroke:blue;" y1="120.00" x1="1000.00" id="13810" y2="70.00" /><line x2="930.00" style="fill:blue;stroke:blue;" y1="270.00" x1="1000.00" id="13811" y2="300.00" /></svg>
