<?xml version="1.0" standalone="yes"?><!DOCTYPE svg PUBLIC "-//W3C//DTD SVG 1.1//EN" "http://www.w3.org/Graphics/SVG/1.1/DTD/svg11.dtd"[]><svg width="1050.00" height="800.00" id="13209" xmlns="http://www.w3.org/2000/svg" xmlns:xlink="http://www.w3.org/1999/xlink"><rect Type="system" x="20.00" id="13210" height="5.00" width="5.00" Name="L1S-G1" ID="30000968" Region="大荒野" y="30.00" /><text y="30.00" x="20.00" id="13211">L1S-G1</text><rect Type="system" x="20.00" id="13213" height="5.00" width="5.00" Name="UNJ-GX" ID="30000965" Region="大荒野" y="80.00" /><text y="80.00" x="20.00" id="13214">UNJ-GX</text><rect Type="system" x="20.00" id="13216" height="5.00" width="5.00" Name="SL-YBS" ID="30000964" Region="大荒野" y="130.00" /><text y="130.00" x="20.00" id="13217">SL-YBS</text><rect Type="system" x="20.00" id="13219" height="5.00" width="5.00" Name="NIH-02" ID="30000900" Region="大荒野" y="180.00" /><text y="180.00" x="20.00" id="13220">NIH-02</text><rect Type="system" x="20.00" id="13222" height="5.00" width="5.00" Name="M-MD3B" ID="30000905" Region="大荒野" y="230.00" /><text y="230.00" x="20.00" id="13223">M-MD3B</text><rect Type="system" x="20.00" id="13225" height="5.00" width="5.00" Name="E02-IK" ID="30000903" Region="大荒野" y="280.00" /><text y="280.00" x="20.00" id="13226">E02-IK</text><rect Type="system" x="20.00" id="13228" height="5.00" width="5.00" Name="NK-7XO" ID="30000902" Region="大荒野" y="330.00" /><text y="330.00" x="20.00" id="13229">NK-7XO</text><rect Type="system" x="20.00" id="13231" height="5.00" width="5.00" Name="JPL-RA" ID="30000901" Region="大荒野" y="380.00" /><text y="380.00" x="20.00" id="13232">JPL-RA</text><rect Type="system" x="20.00" id="13234" height="5.00" width="5.00" Name="CRXA-Y" ID="30000923" Region="大荒野" y="450.00" /><text y="450.00" x="20.00" id="13235">CRXA-Y</text><rect Type="system" x="50.00" id="13237" height="5.00" width="5.00" Name="AZF-GH" ID="30000920" Region="大荒野" y="690.00" /><text y="690.00" x="50.00" id="13238">AZF-GH</text><rect Type="system" x="79.15" id="13240" height="5.00" width="5.00" Name="Y-DSSK" ID="30000958" Region="大荒野" y="523.14" /><text y="523.14" x="79.15" id="13241">Y-DSSK</text><rect Type="system" x="69.76" id="13243" height="5.00" width="5.00" Name="F5-CGW" ID="30000959" Region="大荒野" y="571.24" /><text y="571.24" x="69.76" id="13244">F5-CGW</text><rect Type="system" x="100.00" id="13246" height="5.00" width="5.00" Name="N-DQ0D" ID="30000904" Region="大荒野" y="220.00" /><text y="220.00" x="100.00" id="13247">N-DQ0D</text><rect Type="system" x="100.00" id="13249" height="5.00" width="5.00" Name="0PI4-E" ID="30000966" Region="大荒野" y="70.00" /><text y="70.00" x="100.00" id="13250">0PI4-E</text><rect Type="system" x="100.00" id="13252" height="5.00" width="5.00" Name="6WT-BE" ID="30000967" Region="大荒野" y="120.00" /><text y="120.00" x="100.00" id="13253">6WT-BE</text><rect Type="system" x="91.10" id="13255" height="5.00" width="5.00" Name="B-ROFP" ID="30000961" Region="大荒野" y="475.62" /><text y="475.62" x="91.10" id="13256">B-ROFP</text><rect Type="system" x="100.00" id="13258" height="5.00" width="5.00" Name="H9S-WC" ID="30000960" Region="大荒野" y="610.00" /><text y="610.00" x="100.00" id="13259">H9S-WC</text><rect Type="system" x="150.00" id="13261" height="5.00" width="5.00" Name="IX8-JB" ID="30000956" Region="大荒野" y="520.00" /><text y="520.00" x="150.00" id="13262">IX8-JB</text><rect Type="system" x="160.00" id="13264" height="5.00" width="5.00" Name="M-EKDF" ID="30000922" Region="大荒野" y="680.00" /><text y="680.00" x="160.00" id="13265">M-EKDF</text><rect Type="system" x="150.00" id="13267" height="5.00" width="5.00" Name="9SNK-O" ID="30000969" Region="大荒野" y="100.00" /><text y="100.00" x="150.00" id="13268">9SNK-O</text><rect Type="system" x="150.00" id="13270" height="5.00" width="5.00" Name="P1T-LP" ID="30000949" Region="大荒野" y="170.00" /><text y="170.00" x="150.00" id="13271">P1T-LP</text><rect Type="system" x="170.00" id="13273" height="5.00" width="5.00" Name="8YC-AN" ID="30000942" Region="大荒野" y="280.00" /><text y="280.00" x="170.00" id="13274">8YC-AN</text><rect Type="system" x="180.00" id="13276" height="5.00" width="5.00" Name="Y4-GQV" ID="30000918" Region="大荒野" y="630.00" /><text y="630.00" x="180.00" id="13277">Y4-GQV</text><rect Type="system" x="200.00" id="13279" height="5.00" width="5.00" Name="7Q-8Z2" ID="30000943" Region="大荒野" y="320.00" /><text y="320.00" x="200.00" id="13280">7Q-8Z2</text><rect Type="system" x="200.00" id="13282" height="5.00" width="5.00" Name="1C-953" ID="30000963" Region="大荒野" y="490.00" /><text y="490.00" x="200.00" id="13283">1C-953</text><rect Type="system" x="200.00" id="13285" height="5.00" width="5.00" Name="WTIE-6" ID="30000957" Region="大荒野" y="570.00" /><text y="570.00" x="200.00" id="13286">WTIE-6</text><rect Type="system" x="220.00" id="13288" height="5.00" width="5.00" Name="B-VIP9" ID="30000970" Region="大荒野" y="100.00" /><text y="100.00" x="220.00" id="13289">B-VIP9</text><rect Type="system" x="220.00" id="13291" height="5.00" width="5.00" Name="R-ESG0" ID="30000950" Region="大荒野" y="170.00" /><text y="170.00" x="220.00" id="13292">R-ESG0</text><rect Type="system" x="230.00" id="13294" height="5.00" width="5.00" Name="1L-AED" ID="30000962" Region="大荒野" y="530.00" /><text y="530.00" x="230.00" id="13295">1L-AED</text><rect Type="system" x="250.00" id="13297" height="5.00" width="5.00" Name="SUR-F7" ID="30000944" Region="大荒野" y="300.00" /><text y="300.00" x="250.00" id="13298">SUR-F7</text><rect Type="system" x="250.00" id="13300" height="5.00" width="5.00" Name="VXO-OM" ID="30000924" Region="大荒野" y="720.00" /><text y="720.00" x="250.00" id="13301">VXO-OM</text><rect Type="system" x="250.00" id="13303" height="5.00" width="5.00" Name="OK-6XN" ID="30000945" Region="大荒野" y="350.00" /><text y="350.00" x="250.00" id="13304">OK-6XN</text><rect Type="system" x="250.00" id="13306" height="5.00" width="5.00" Name="U3K-4A" ID="30000948" Region="大荒野" y="400.00" /><text y="400.00" x="250.00" id="13307">U3K-4A</text><rect Type="system" x="250.00" id="13309" height="5.00" width="5.00" Name="92-B0X" ID="30000994" Region="大荒野" y="620.00" /><text y="620.00" x="250.00" id="13310">92-B0X</text><rect Type="system" x="280.00" id="13312" height="5.00" width="5.00" Name="LXTC-S" ID="30000971" Region="大荒野" y="250.00" /><text y="250.00" x="280.00" id="13313">LXTC-S</text><rect Type="system" x="300.00" id="13315" height="5.00" width="5.00" Name="CI4M-T" ID="30000951" Region="大荒野" y="170.00" /><text y="170.00" x="300.00" id="13316">CI4M-T</text><rect Type="system" x="340.00" id="13318" height="5.00" width="5.00" Name="Q2FL-T" ID="30000946" Region="大荒野" y="310.00" /><text y="310.00" x="340.00" id="13319">Q2FL-T</text><rect Type="system" x="350.00" id="13321" height="5.00" width="5.00" Name="N-6Z8B" ID="30000915" Region="大荒野" y="520.00" /><text y="520.00" x="350.00" id="13322">N-6Z8B</text><rect Type="system" x="350.00" id="13324" height="5.00" width="5.00" Name="52V6-B" ID="30000989" Region="大荒野" y="570.00" /><text y="570.00" x="350.00" id="13325">52V6-B</text><rect Type="system" x="350.00" id="13327" height="5.00" width="5.00" Name="SB-23C" ID="30000991" Region="大荒野" y="620.00" /><text y="620.00" x="350.00" id="13328">SB-23C</text><rect Type="system" x="350.00" id="13330" height="5.00" width="5.00" Name="O-OVOQ" ID="30000993" Region="大荒野" y="670.00" /><text y="670.00" x="350.00" id="13331">O-OVOQ</text><rect Type="system" x="380.00" id="13333" height="5.00" width="5.00" Name="M-YWAL" ID="30000953" Region="大荒野" y="120.00" /><text y="120.00" x="380.00" id="13334">M-YWAL</text><rect Type="system" x="369.04" id="13336" height="5.00" width="5.00" Name="I-QRJA" ID="30000952" Region="大荒野" y="168.09" /><text y="168.09" x="369.04" id="13337">I-QRJA</text><rect Type="system" x="375.01" id="13339" height="5.00" width="5.00" Name="UT-UZB" ID="30000921" Region="大荒野" y="715.65" /><text y="715.65" x="375.01" id="13340">UT-UZB</text><rect Type="system" x="380.00" id="13342" height="5.00" width="5.00" Name="WE3-BX" ID="30000972" Region="大荒野" y="260.00" /><text y="260.00" x="380.00" id="13343">WE3-BX</text><rect Type="system" x="380.00" id="13345" height="5.00" width="5.00" Name="YUY-LM" ID="30000916" Region="大荒野" y="420.00" /><text y="420.00" x="380.00" id="13346">YUY-LM</text><rect Type="system" x="400.00" id="13348" height="5.00" width="5.00" Name="F8K-WQ" ID="30000913" Region="大荒野" y="470.00" /><text y="470.00" x="400.00" id="13349">F8K-WQ</text><rect Type="system" x="400.00" id="13351" height="5.00" width="5.00" Name="PUC-JZ" ID="30000990" Region="大荒野" y="600.00" /><text y="600.00" x="400.00" id="13352">PUC-JZ</text><rect Type="system" x="400.00" id="13354" height="5.00" width="5.00" Name="5FCV-A" ID="30000992" Region="大荒野" y="650.00" /><text y="650.00" x="400.00" id="13355">5FCV-A</text><rect Type="system" x="390.96" id="13357" height="5.00" width="5.00" Name="H-8F5Q" ID="30000974" Region="大荒野" y="211.91" /><text y="211.91" x="390.96" id="13358">H-8F5Q</text><rect Type="system" x="430.00" id="13360" height="5.00" width="5.00" Name="Y7-XFD" ID="30000947" Region="大荒野" y="320.00" /><text y="320.00" x="430.00" id="13361">Y7-XFD</text><rect Type="system" x="424.50" id="13363" height="5.00" width="5.00" Name="BY5-V8" ID="30000925" Region="大荒野" y="720.00" /><text y="720.00" x="424.50" id="13364">BY5-V8</text><rect Type="system" x="450.00" id="13366" height="5.00" width="5.00" Name="DE71-9" ID="30000954" Region="大荒野" y="170.00" /><text y="170.00" x="450.00" id="13367">DE71-9</text><rect Type="system" x="450.00" id="13369" height="5.00" width="5.00" Name="AB-FZE" ID="30000914" Region="大荒野" y="520.00" /><text y="520.00" x="450.00" id="13370">AB-FZE</text><rect Type="system" x="450.00" id="13372" height="5.00" width="5.00" Name="168-6H" ID="30000931" Region="大荒野" y="400.00" /><text y="400.00" x="450.00" id="13373">168-6H</text><rect Type="system" x="480.00" id="13375" height="5.00" width="5.00" Name="NE-3GR" ID="30000917" Region="大荒野" y="450.00" /><text y="450.00" x="480.00" id="13376">NE-3GR</text><rect Type="system" x="500.00" id="13378" height="5.00" width="5.00" Name="H7O-JZ" ID="30000973" Region="大荒野" y="260.00" /><text y="260.00" x="500.00" id="13379">H7O-JZ</text><rect Type="system" x="500.00" id="13381" height="5.00" width="5.00" Name="504Z-V" ID="30000912" Region="大荒野" y="500.00" /><text y="500.00" x="500.00" id="13382">504Z-V</text><rect Type="system" x="500.00" id="13384" height="5.00" width="5.00" Name="7-IDWY" ID="30000919" Region="大荒野" y="720.00" /><text y="720.00" x="500.00" id="13385">7-IDWY</text><rect Type="system" x="530.00" id="13387" height="5.00" width="5.00" Name="7JF-0Z" ID="30000955" Region="大荒野" y="170.00" /><text y="170.00" x="530.00" id="13388">7JF-0Z</text><rect Type="system" x="520.00" id="13390" height="5.00" width="5.00" Name="AI-EVH" ID="30000933" Region="大荒野" y="320.00" /><text y="320.00" x="520.00" id="13391">AI-EVH</text><rect Type="system" x="520.00" id="13393" height="5.00" width="5.00" Name="W-RFUO" ID="30000932" Region="大荒野" y="370.00" /><text y="370.00" x="520.00" id="13394">W-RFUO</text><rect Type="system" x="520.00" id="13396" height="5.00" width="5.00" Name="V-2GYS" ID="30000930" Region="大荒野" y="420.00" /><text y="420.00" x="520.00" id="13397">V-2GYS</text><rect Type="system" x="550.00" id="13399" height="5.00" width="5.00" Name="TET3-B" ID="30000926" Region="大荒野" y="720.00" /><text y="720.00" x="550.00" id="13400">TET3-B</text><rect Type="system" x="580.00" id="13402" height="5.00" width="5.00" Name="V-IH6B" ID="30000988" Region="大荒野" y="70.00" /><text y="70.00" x="580.00" id="13403">V-IH6B</text><rect Type="system" x="600.00" id="13405" height="5.00" width="5.00" Name="0NV-YU" ID="30000929" Region="大荒野" y="400.00" /><text y="400.00" x="600.00" id="13406">0NV-YU</text><rect Type="system" x="600.00" id="13408" height="5.00" width="5.00" Name="O-RXCZ" ID="30000975" Region="大荒野" y="260.00" /><text y="260.00" x="600.00" id="13409">O-RXCZ</text><rect Type="system" x="600.00" id="13411" height="5.00" width="5.00" Name="F-MKH3" ID="30000934" Region="大荒野" y="350.00" /><text y="350.00" x="600.00" id="13412">F-MKH3</text><rect Type="system" x="600.00" id="13414" height="5.00" width="5.00" Name="OJOS-T" ID="30000983" Region="大荒野" y="170.00" /><text y="170.00" x="600.00" id="13415">OJOS-T</text><rect Type="system" x="650.00" id="13417" height="5.00" width="5.00" Name="JUK0-1" ID="30000987" Region="大荒野" y="70.00" /><text y="70.00" x="650.00" id="13418">JUK0-1</text><rect Type="system" x="670.00" id="13420" height="5.00" width="5.00" Name="WPR-EI" ID="30000928" Region="大荒野" y="400.00" /><text y="400.00" x="670.00" id="13421">WPR-EI</text><rect Type="system" x="670.00" id="13423" height="5.00" width="5.00" Name="ZM-DNR" ID="30000935" Region="大荒野" y="350.00" /><text y="350.00" x="670.00" id="13424">ZM-DNR</text><rect Type="system" x="680.00" id="13426" height="5.00" width="5.00" Name="V89M-R" ID="30000984" Region="大荒野" y="170.00" /><text y="170.00" x="680.00" id="13427">V89M-R</text><rect Type="system" x="680.00" id="13429" height="5.00" width="5.00" Name="QM-20X" ID="30000941" Region="大荒野" y="530.00" /><text y="530.00" x="680.00" id="13430">QM-20X</text><rect Type="system" x="710.00" id="13432" height="5.00" width="5.00" Name="9-34L5" ID="30000939" Region="大荒野" y="670.00" /><text y="670.00" x="710.00" id="13433">9-34L5</text><rect Type="system" x="700.00" id="13435" height="5.00" width="5.00" Name="UMDQ-6" ID="30000911" Region="大荒野" y="450.00" /><text y="450.00" x="700.00" id="13436">UMDQ-6</text><rect Type="system" x="700.00" id="13438" height="5.00" width="5.00" Name="66U-1P" ID="30000985" Region="大荒野" y="120.00" /><text y="120.00" x="700.00" id="13439">66U-1P</text><rect Type="system" x="700.00" id="13441" height="5.00" width="5.00" Name="4M-P1I" ID="30000976" Region="大荒野" y="270.00" /><text y="270.00" x="700.00" id="13442">4M-P1I</text><rect Type="system" x="700.00" id="13444" height="5.00" width="5.00" Name="BRT-OP" ID="30000986" Region="大荒野" y="70.00" /><text y="70.00" x="700.00" id="13445">BRT-OP</text><rect Type="system" x="760.00" id="13447" height="5.00" width="5.00" Name="GF-3FL" ID="30000936" Region="大荒野" y="620.00" /><text y="620.00" x="760.00" id="13448">GF-3FL</text><rect Type="system" x="720.00" id="13450" height="5.00" width="5.00" Name="VKU-BG" ID="30000927" Region="大荒野" y="370.00" /><text y="370.00" x="720.00" id="13451">VKU-BG</text><rect Type="system" x="800.00" id="13453" height="5.00" width="5.00" Name="ZJ-GOU" ID="30000937" Region="大荒野" y="570.00" /><text y="570.00" x="800.00" id="13454">ZJ-GOU</text><rect Type="system" x="810.00" id="13456" height="5.00" width="5.00" Name="8DL-CP" ID="30000910" Region="大荒野" y="460.00" /><text y="460.00" x="810.00" id="13457">8DL-CP</text><rect Type="system" x="820.00" id="13459" height="5.00" width="5.00" Name="0R-GZQ" ID="30000940" Region="大荒野" y="660.00" /><text y="660.00" x="820.00" id="13460">0R-GZQ</text><rect Type="system" x="800.00" id="13462" height="5.00" width="5.00" Name="N-RAEL" ID="30000999" Region="大荒野" y="70.00" /><text y="70.00" x="800.00" id="13463">N-RAEL</text><rect Type="system" x="840.00" id="13465" height="5.00" width="5.00" Name="QQ3-YI" ID="30000938" Region="大荒野" y="530.00" /><text y="530.00" x="840.00" id="13466">QQ3-YI</text><rect Type="system" x="860.00" id="13468" height="5.00" width="5.00" Name="56D-TC" ID="30000908" Region="大荒野" y="400.00" /><text y="400.00" x="860.00" id="13469">56D-TC</text><rect Type="system" x="820.00" id="13471" height="5.00" width="5.00" Name="28-QWU" ID="30000996" Region="大荒野" y="120.00" /><text y="120.00" x="820.00" id="13472">28-QWU</text><rect Type="system" x="870.00" id="13474" height="5.00" width="5.00" Name="6EG7-R" ID="30000907" Region="大荒野" y="490.00" /><text y="490.00" x="870.00" id="13475">6EG7-R</text><rect Type="system" x="847.68" id="13477" height="5.00" width="5.00" Name="0-3VW8" ID="30000995" Region="大荒野" y="167.68" /><text y="167.68" x="847.68" id="13478">0-3VW8</text><rect Type="system" x="875.50" id="13480" height="5.00" width="5.00" Name="UD-AOK" ID="30000997" Region="大荒野" y="70.00" /><text y="70.00" x="875.50" id="13481">UD-AOK</text><rect Type="system" x="860.00" id="13483" height="5.00" width="5.00" Name="O-8SOC" ID="30000982" Region="大荒野" y="290.00" /><text y="290.00" x="860.00" id="13484">O-8SOC</text><rect Type="system" x="890.00" id="13486" height="5.00" width="5.00" Name="EOE3-N" ID="30000980" Region="大荒野" y="360.00" /><text y="360.00" x="890.00" id="13487">EOE3-N</text><rect Type="system" x="882.32" id="13489" height="5.00" width="5.00" Name="F7A-MR" ID="30000981" Region="大荒野" y="202.32" /><text y="202.32" x="882.32" id="13490">F7A-MR</text><rect Type="system" x="920.00" id="13492" height="5.00" width="5.00" Name="2X7Z-L" ID="30000909" Region="大荒野" y="440.00" /><text y="440.00" x="920.00" id="13493">2X7Z-L</text><rect Type="system" x="900.00" id="13495" height="5.00" width="5.00" Name="HB-1NJ" ID="30000979" Region="大荒野" y="250.00" /><text y="250.00" x="900.00" id="13496">HB-1NJ</text><rect Type="system" x="924.50" id="13498" height="5.00" width="5.00" Name="M9U-75" ID="30000998" Region="大荒野" y="70.00" /><text y="70.00" x="924.50" id="13499">M9U-75</text><rect Type="system" x="930.00" id="13501" height="5.00" width="5.00" Name="PUZ-IO" ID="30000978" Region="大荒野" y="300.00" /><text y="300.00" x="930.00" id="13502">PUZ-IO</text><rect Type="system" x="950.00" id="13504" height="5.00" width="5.00" Name="FVXK-D" ID="30000906" Region="大荒野" y="400.00" /><text y="400.00" x="950.00" id="13505">FVXK-D</text><rect Type="system" x="950.00" id="13507" height="5.00" width="5.00" Name="P7UZ-T" ID="30000977" Region="大荒野" y="350.00" /><text y="350.00" x="950.00" id="13508">P7UZ-T</text><rect Type="system" x="1000.00" id="13510" height="5.00" width="5.00" Name="K-IYNW" ID="30001000" Region="大荒野" y="70.00" /><text y="70.00" x="1000.00" id="13511">K-IYNW</text><rect Type="system" x="180.00" id="13513" height="5.00" width="5.00" Name="卡比" ID="30000117" Region="德里克" y="370.00" /><text y="370.00" x="180.00" id="13514">卡比</text><rect Type="system" x="280.00" id="13516" height="5.00" width="5.00" Name="伊格贝格尔" ID="30002420" Region="摩登赫斯" y="50.00" /><text y="50.00" x="280.00" id="13517">伊格贝格尔</text><rect Type="system" x="380.49" id="13519" height="5.00" width="5.00" Name="KLMT-W" ID="30001020" Region="柯尔斯" y="764.35" /><text y="764.35" x="380.49" id="13520">KLMT-W</text><rect Type="system" x="650.00" id="13522" height="5.00" width="5.00" Name="F-5FDA" ID="30000666" Region="灼热之径" y="700.00" /><text y="700.00" x="650.00" id="13523">F-5FDA</text><rect Type="system" x="700.00" id="13525" height="5.00" width="5.00" Name="C-4D0W" ID="30002375" Region="琉蓝之穹" y="20.00" /><text y="20.00" x="700.00" id="13526">C-4D0W</text><rect Type="system" x="800.00" id="13528" height="5.00" width="5.00" Name="克挪腊" ID="30003471" Region="美特伯里斯" y="20.00" /><text y="20.00" x="800.00" id="13529">克挪腊</text><rect Type="system" x="1000.00" id="13531" height="5.00" width="5.00" Name="艾蒂斯" ID="30002489" Region="对舞之域" y="20.00" /><text y="20.00" x="1000.00" id="13532">艾蒂斯</text><rect Type="system" x="1000.00" id="13534" height="5.00" width="5.00" Name="I6-SYN" ID="30000626" Region="地窖" y="120.00" /><text y="120.00" x="1000.00" id="13535">I6-SYN</text><rect Type="system" x="1000.00" id="13537" height="5.00" width="5.00" Name="U2-28D" ID="30000703" Region="灼热之径" y="270.00" /><text y="270.00" x="1000.00" id="13538">U2-28D</text><line style="stroke:blue;fill:blue;" id="13540" x2="20.00" x1="20.00" y1="30.00" y2="80.00" /><line style="stroke:blue;fill:blue;" id="13541" x2="20.00" x1="20.00" y1="80.00" y2="130.00" /><line style="stroke:blue;fill:blue;" id="13542" x2="100.00" x1="20.00" y1="80.00" y2="70.00" /><line style="stroke:blue;fill:blue;" id="13543" x2="20.00" x1="20.00" y1="80.00" y2="30.00" /><line style="stroke:blue;fill:blue;" id="13544" x2="20.00" x1="20.00" y1="130.00" y2="180.00" /><line style="stroke:blue;fill:blue;" id="13545" x2="20.00" x1="20.00" y1="130.00" y2="80.00" /><line style="stroke:blue;fill:blue;" id="13546" x2="100.00" x1="20.00" y1="130.00" y2="120.00" /><line style="stroke:blue;fill:blue;" id="13547" x2="100.00" x1="20.00" y1="180.00" y2="220.00" /><line style="stroke:blue;fill:blue;" id="13548" x2="20.00" x1="20.00" y1="180.00" y2="230.00" /><line style="stroke:blue;fill:blue;" id="13549" x2="20.00" x1="20.00" y1="180.00" y2="130.00" /><line style="stroke:blue;fill:blue;" id="13550" x2="20.00" x1="20.00" y1="230.00" y2="180.00" /><line style="stroke:blue;fill:blue;" id="13551" x2="20.00" x1="20.00" y1="230.00" y2="280.00" /><line style="stroke:blue;fill:blue;" id="13552" x2="20.00" x1="20.00" y1="280.00" y2="330.00" /><line style="stroke:blue;fill:blue;" id="13553" x2="20.00" x1="20.00" y1="280.00" y2="230.00" /><line style="stroke:blue;fill:blue;" id="13554" x2="170.00" x1="20.00" y1="280.00" y2="280.00" /><line style="stroke:blue;fill:blue;" id="13555" x2="20.00" x1="20.00" y1="330.00" y2="380.00" /><line style="stroke:blue;fill:blue;" id="13556" x2="20.00" x1="20.00" y1="330.00" y2="280.00" /><line style="stroke:blue;fill:blue;" id="13557" x2="20.00" x1="20.00" y1="380.00" y2="330.00" /><line style="stroke:blue;fill:blue;" id="13558" x2="20.00" x1="20.00" y1="380.00" y2="450.00" /><line style="stroke:blue;fill:blue;" id="13559" x2="20.00" x1="20.00" y1="450.00" y2="380.00" /><line style="stroke:blue;fill:blue;" id="13560" x2="400.00" x1="20.00" y1="450.00" y2="470.00" /><line style="stroke:blue;fill:blue;" id="13561" x2="50.00" x1="20.00" y1="450.00" y2="690.00" /><line style="stroke:blue;fill:blue;" id="13562" x2="180.00" x1="50.00" y1="690.00" y2="630.00" /><line style="stroke:blue;fill:blue;" id="13563" x2="20.00" x1="50.00" y1="690.00" y2="450.00" /><line style="stroke:blue;fill:blue;" id="13564" x2="250.00" x1="50.00" y1="690.00" y2="720.00" /><line style="stroke:blue;fill:blue;" id="13565" x2="150.00" x1="79.15" y1="523.14" y2="520.00" /><line style="stroke:blue;fill:blue;" id="13566" x2="69.76" x1="79.15" y1="523.14" y2="571.24" /><line style="stroke:blue;fill:blue;" id="13567" x2="91.10" x1="79.15" y1="523.14" y2="475.62" /><line style="stroke:blue;fill:blue;" id="13568" x2="79.15" x1="69.76" y1="571.24" y2="523.14" /><line style="stroke:blue;fill:blue;" id="13569" x2="100.00" x1="69.76" y1="571.24" y2="610.00" /><line style="stroke:blue;fill:blue;" id="13570" x2="20.00" x1="100.00" y1="220.00" y2="180.00" /><line style="stroke:blue;fill:blue;" id="13571" x2="150.00" x1="100.00" y1="220.00" y2="170.00" /><line style="stroke:blue;fill:blue;" id="13572" x2="280.00" x1="100.00" y1="220.00" y2="250.00" /><line style="stroke:blue;fill:blue;" id="13573" x2="20.00" x1="100.00" y1="70.00" y2="80.00" /><line style="stroke:blue;fill:blue;" id="13574" x2="100.00" x1="100.00" y1="70.00" y2="120.00" /><line style="stroke:blue;fill:blue;" id="13575" x2="150.00" x1="100.00" y1="70.00" y2="100.00" /><line style="stroke:blue;fill:blue;" id="13576" x2="20.00" x1="100.00" y1="120.00" y2="130.00" /><line style="stroke:blue;fill:blue;" id="13577" x2="100.00" x1="100.00" y1="120.00" y2="70.00" /><line style="stroke:blue;fill:blue;" id="13578" x2="150.00" x1="100.00" y1="120.00" y2="100.00" /><line style="stroke:blue;fill:blue;" id="13579" x2="79.15" x1="91.10" y1="475.62" y2="523.14" /><line style="stroke:blue;fill:blue;" id="13580" x2="69.76" x1="100.00" y1="610.00" y2="571.24" /><line style="stroke:blue;fill:blue;" id="13581" x2="200.00" x1="150.00" y1="520.00" y2="570.00" /><line style="stroke:blue;fill:blue;" id="13582" x2="79.15" x1="150.00" y1="520.00" y2="523.14" /><line style="stroke:blue;fill:blue;" id="13583" x2="230.00" x1="150.00" y1="520.00" y2="530.00" /><line style="stroke:blue;fill:blue;" id="13584" x2="200.00" x1="150.00" y1="520.00" y2="490.00" /><line style="stroke:blue;fill:blue;" id="13585" x2="180.00" x1="160.00" y1="680.00" y2="630.00" /><line style="stroke:blue;fill:blue;" id="13586" x2="250.00" x1="160.00" y1="680.00" y2="720.00" /><line style="stroke:blue;fill:blue;" id="13587" x2="100.00" x1="150.00" y1="100.00" y2="70.00" /><line style="stroke:blue;fill:blue;" id="13588" x2="100.00" x1="150.00" y1="100.00" y2="120.00" /><line style="stroke:blue;fill:blue;" id="13589" x2="220.00" x1="150.00" y1="100.00" y2="100.00" /><line style="stroke:blue;fill:blue;" id="13590" x2="100.00" x1="150.00" y1="170.00" y2="220.00" /><line style="stroke:blue;fill:blue;" id="13591" x2="220.00" x1="150.00" y1="170.00" y2="170.00" /><line style="stroke:blue;fill:blue;" id="13592" x2="20.00" x1="170.00" y1="280.00" y2="280.00" /><line style="stroke:blue;fill:blue;" id="13593" x2="200.00" x1="170.00" y1="280.00" y2="320.00" /><line style="stroke:blue;fill:blue;" id="13594" x2="250.00" x1="170.00" y1="280.00" y2="300.00" /><line style="stroke:blue;fill:blue;" id="13595" x2="50.00" x1="180.00" y1="630.00" y2="690.00" /><line style="stroke:blue;fill:blue;" id="13596" x2="160.00" x1="180.00" y1="630.00" y2="680.00" /><line style="stroke:blue;fill:blue;" id="13597" x2="250.00" x1="180.00" y1="630.00" y2="720.00" /><line style="stroke:blue;fill:blue;" id="13598" x2="200.00" x1="180.00" y1="630.00" y2="570.00" /><line style="stroke:blue;fill:blue;" id="13599" x2="250.00" x1="180.00" y1="630.00" y2="620.00" /><line style="stroke:blue;fill:blue;" id="13600" x2="180.00" x1="200.00" y1="320.00" y2="370.00" /><line style="stroke:blue;fill:blue;" id="13601" x2="170.00" x1="200.00" y1="320.00" y2="280.00" /><line style="stroke:blue;fill:blue;" id="13602" x2="250.00" x1="200.00" y1="320.00" y2="300.00" /><line style="stroke:blue;fill:blue;" id="13603" x2="150.00" x1="200.00" y1="490.00" y2="520.00" /><line style="stroke:blue;fill:blue;" id="13604" x2="230.00" x1="200.00" y1="490.00" y2="530.00" /><line style="stroke:blue;fill:blue;" id="13605" x2="180.00" x1="200.00" y1="570.00" y2="630.00" /><line style="stroke:blue;fill:blue;" id="13606" x2="150.00" x1="200.00" y1="570.00" y2="520.00" /><line style="stroke:blue;fill:blue;" id="13607" x2="230.00" x1="200.00" y1="570.00" y2="530.00" /><line style="stroke:blue;fill:blue;" id="13608" x2="150.00" x1="220.00" y1="100.00" y2="100.00" /><line style="stroke:blue;fill:blue;" id="13609" x2="280.00" x1="220.00" y1="100.00" y2="50.00" /><line style="stroke:blue;fill:blue;" id="13610" x2="150.00" x1="220.00" y1="170.00" y2="170.00" /><line style="stroke:blue;fill:blue;" id="13611" x2="300.00" x1="220.00" y1="170.00" y2="170.00" /><line style="stroke:blue;fill:blue;" id="13612" x2="350.00" x1="230.00" y1="530.00" y2="520.00" /><line style="stroke:blue;fill:blue;" id="13613" x2="150.00" x1="230.00" y1="530.00" y2="520.00" /><line style="stroke:blue;fill:blue;" id="13614" x2="200.00" x1="230.00" y1="530.00" y2="570.00" /><line style="stroke:blue;fill:blue;" id="13615" x2="200.00" x1="230.00" y1="530.00" y2="490.00" /><line style="stroke:blue;fill:blue;" id="13616" x2="170.00" x1="250.00" y1="300.00" y2="280.00" /><line style="stroke:blue;fill:blue;" id="13617" x2="200.00" x1="250.00" y1="300.00" y2="320.00" /><line style="stroke:blue;fill:blue;" id="13618" x2="250.00" x1="250.00" y1="300.00" y2="350.00" /><line style="stroke:blue;fill:blue;" id="13619" x2="340.00" x1="250.00" y1="300.00" y2="310.00" /><line style="stroke:blue;fill:blue;" id="13620" x2="180.00" x1="250.00" y1="720.00" y2="630.00" /><line style="stroke:blue;fill:blue;" id="13621" x2="50.00" x1="250.00" y1="720.00" y2="690.00" /><line style="stroke:blue;fill:blue;" id="13622" x2="375.01" x1="250.00" y1="720.00" y2="715.65" /><line style="stroke:blue;fill:blue;" id="13623" x2="160.00" x1="250.00" y1="720.00" y2="680.00" /><line style="stroke:blue;fill:blue;" id="13624" x2="350.00" x1="250.00" y1="720.00" y2="670.00" /><line style="stroke:blue;fill:blue;" id="13625" x2="250.00" x1="250.00" y1="350.00" y2="300.00" /><line style="stroke:blue;fill:blue;" id="13626" x2="250.00" x1="250.00" y1="350.00" y2="400.00" /><line style="stroke:blue;fill:blue;" id="13627" x2="250.00" x1="250.00" y1="400.00" y2="350.00" /><line style="stroke:blue;fill:blue;" id="13628" x2="180.00" x1="250.00" y1="620.00" y2="630.00" /><line style="stroke:blue;fill:blue;" id="13629" x2="350.00" x1="250.00" y1="620.00" y2="570.00" /><line style="stroke:blue;fill:blue;" id="13630" x2="350.00" x1="250.00" y1="620.00" y2="620.00" /><line style="stroke:blue;fill:blue;" id="13631" x2="350.00" x1="250.00" y1="620.00" y2="670.00" /><line style="stroke:blue;fill:blue;" id="13632" x2="100.00" x1="280.00" y1="250.00" y2="220.00" /><line style="stroke:blue;fill:blue;" id="13633" x2="380.00" x1="280.00" y1="250.00" y2="260.00" /><line style="stroke:blue;fill:blue;" id="13634" x2="220.00" x1="300.00" y1="170.00" y2="170.00" /><line style="stroke:blue;fill:blue;" id="13635" x2="369.04" x1="300.00" y1="170.00" y2="168.09" /><line style="stroke:blue;fill:blue;" id="13636" x2="250.00" x1="340.00" y1="310.00" y2="300.00" /><line style="stroke:blue;fill:blue;" id="13637" x2="430.00" x1="340.00" y1="310.00" y2="320.00" /><line style="stroke:blue;fill:blue;" id="13638" x2="450.00" x1="350.00" y1="520.00" y2="520.00" /><line style="stroke:blue;fill:blue;" id="13639" x2="230.00" x1="350.00" y1="520.00" y2="530.00" /><line style="stroke:blue;fill:blue;" id="13640" x2="350.00" x1="350.00" y1="520.00" y2="570.00" /><line style="stroke:blue;fill:blue;" id="13641" x2="350.00" x1="350.00" y1="570.00" y2="520.00" /><line style="stroke:blue;fill:blue;" id="13642" x2="400.00" x1="350.00" y1="570.00" y2="600.00" /><line style="stroke:blue;fill:blue;" id="13643" x2="350.00" x1="350.00" y1="570.00" y2="620.00" /><line style="stroke:blue;fill:blue;" id="13644" x2="400.00" x1="350.00" y1="570.00" y2="650.00" /><line style="stroke:blue;fill:blue;" id="13645" x2="250.00" x1="350.00" y1="570.00" y2="620.00" /><line style="stroke:blue;fill:blue;" id="13646" x2="350.00" x1="350.00" y1="620.00" y2="570.00" /><line style="stroke:blue;fill:blue;" id="13647" x2="350.00" x1="350.00" y1="620.00" y2="670.00" /><line style="stroke:blue;fill:blue;" id="13648" x2="250.00" x1="350.00" y1="620.00" y2="620.00" /><line style="stroke:blue;fill:blue;" id="13649" x2="250.00" x1="350.00" y1="670.00" y2="720.00" /><line style="stroke:blue;fill:blue;" id="13650" x2="350.00" x1="350.00" y1="670.00" y2="620.00" /><line style="stroke:blue;fill:blue;" id="13651" x2="400.00" x1="350.00" y1="670.00" y2="650.00" /><line style="stroke:blue;fill:blue;" id="13652" x2="250.00" x1="350.00" y1="670.00" y2="620.00" /><line style="stroke:blue;fill:blue;" id="13653" x2="369.04" x1="380.00" y1="120.00" y2="168.09" /><line style="stroke:blue;fill:blue;" id="13654" x2="300.00" x1="369.04" y1="168.09" y2="170.00" /><line style="stroke:blue;fill:blue;" id="13655" x2="380.00" x1="369.04" y1="168.09" y2="120.00" /><line style="stroke:blue;fill:blue;" id="13656" x2="450.00" x1="369.04" y1="168.09" y2="170.00" /><line style="stroke:blue;fill:blue;" id="13657" x2="250.00" x1="375.01" y1="715.65" y2="720.00" /><line style="stroke:blue;fill:blue;" id="13658" x2="424.50" x1="375.01" y1="715.65" y2="720.00" /><line style="stroke:blue;fill:blue;" id="13659" x2="380.49" x1="375.01" y1="715.65" y2="764.35" /><line style="stroke:blue;fill:blue;" id="13660" x2="280.00" x1="380.00" y1="260.00" y2="250.00" /><line style="stroke:blue;fill:blue;" id="13661" x2="500.00" x1="380.00" y1="260.00" y2="260.00" /><line style="stroke:blue;fill:blue;" id="13662" x2="390.96" x1="380.00" y1="260.00" y2="211.91" /><line style="stroke:blue;fill:blue;" id="13663" x2="400.00" x1="380.00" y1="420.00" y2="470.00" /><line style="stroke:blue;fill:blue;" id="13664" x2="500.00" x1="400.00" y1="470.00" y2="500.00" /><line style="stroke:blue;fill:blue;" id="13665" x2="450.00" x1="400.00" y1="470.00" y2="520.00" /><line style="stroke:blue;fill:blue;" id="13666" x2="380.00" x1="400.00" y1="470.00" y2="420.00" /><line style="stroke:blue;fill:blue;" id="13667" x2="480.00" x1="400.00" y1="470.00" y2="450.00" /><line style="stroke:blue;fill:blue;" id="13668" x2="20.00" x1="400.00" y1="470.00" y2="450.00" /><line style="stroke:blue;fill:blue;" id="13669" x2="350.00" x1="400.00" y1="600.00" y2="570.00" /><line style="stroke:blue;fill:blue;" id="13670" x2="400.00" x1="400.00" y1="600.00" y2="650.00" /><line style="stroke:blue;fill:blue;" id="13671" x2="350.00" x1="400.00" y1="650.00" y2="570.00" /><line style="stroke:blue;fill:blue;" id="13672" x2="400.00" x1="400.00" y1="650.00" y2="600.00" /><line style="stroke:blue;fill:blue;" id="13673" x2="350.00" x1="400.00" y1="650.00" y2="670.00" /><line style="stroke:blue;fill:blue;" id="13674" x2="380.00" x1="390.96" y1="211.91" y2="260.00" /><line style="stroke:blue;fill:blue;" id="13675" x2="520.00" x1="430.00" y1="320.00" y2="320.00" /><line style="stroke:blue;fill:blue;" id="13676" x2="340.00" x1="430.00" y1="320.00" y2="310.00" /><line style="stroke:blue;fill:blue;" id="13677" x2="500.00" x1="424.50" y1="720.00" y2="720.00" /><line style="stroke:blue;fill:blue;" id="13678" x2="375.01" x1="424.50" y1="720.00" y2="715.65" /><line style="stroke:blue;fill:blue;" id="13679" x2="369.04" x1="450.00" y1="170.00" y2="168.09" /><line style="stroke:blue;fill:blue;" id="13680" x2="530.00" x1="450.00" y1="170.00" y2="170.00" /><line style="stroke:blue;fill:blue;" id="13681" x2="500.00" x1="450.00" y1="520.00" y2="500.00" /><line style="stroke:blue;fill:blue;" id="13682" x2="400.00" x1="450.00" y1="520.00" y2="470.00" /><line style="stroke:blue;fill:blue;" id="13683" x2="350.00" x1="450.00" y1="520.00" y2="520.00" /><line style="stroke:blue;fill:blue;" id="13684" x2="520.00" x1="450.00" y1="400.00" y2="420.00" /><line style="stroke:blue;fill:blue;" id="13685" x2="500.00" x1="480.00" y1="450.00" y2="500.00" /><line style="stroke:blue;fill:blue;" id="13686" x2="400.00" x1="480.00" y1="450.00" y2="470.00" /><line style="stroke:blue;fill:blue;" id="13687" x2="380.00" x1="500.00" y1="260.00" y2="260.00" /><line style="stroke:blue;fill:blue;" id="13688" x2="600.00" x1="500.00" y1="260.00" y2="260.00" /><line style="stroke:blue;fill:blue;" id="13689" x2="400.00" x1="500.00" y1="500.00" y2="470.00" /><line style="stroke:blue;fill:blue;" id="13690" x2="450.00" x1="500.00" y1="500.00" y2="520.00" /><line style="stroke:blue;fill:blue;" id="13691" x2="480.00" x1="500.00" y1="500.00" y2="450.00" /><line style="stroke:blue;fill:blue;" id="13692" x2="500.00" x1="500.00" y1="500.00" y2="720.00" /><line style="stroke:blue;fill:blue;" id="13693" x2="680.00" x1="500.00" y1="500.00" y2="530.00" /><line style="stroke:blue;fill:blue;" id="13694" x2="500.00" x1="500.00" y1="720.00" y2="500.00" /><line style="stroke:blue;fill:blue;" id="13695" x2="424.50" x1="500.00" y1="720.00" y2="720.00" /><line style="stroke:blue;fill:blue;" id="13696" x2="550.00" x1="500.00" y1="720.00" y2="720.00" /><line style="stroke:blue;fill:blue;" id="13697" x2="450.00" x1="530.00" y1="170.00" y2="170.00" /><line style="stroke:blue;fill:blue;" id="13698" x2="600.00" x1="530.00" y1="170.00" y2="170.00" /><line style="stroke:blue;fill:blue;" id="13699" x2="520.00" x1="520.00" y1="320.00" y2="370.00" /><line style="stroke:blue;fill:blue;" id="13700" x2="600.00" x1="520.00" y1="320.00" y2="350.00" /><line style="stroke:blue;fill:blue;" id="13701" x2="430.00" x1="520.00" y1="320.00" y2="320.00" /><line style="stroke:blue;fill:blue;" id="13702" x2="600.00" x1="520.00" y1="370.00" y2="400.00" /><line style="stroke:blue;fill:blue;" id="13703" x2="520.00" x1="520.00" y1="370.00" y2="420.00" /><line style="stroke:blue;fill:blue;" id="13704" x2="520.00" x1="520.00" y1="370.00" y2="320.00" /><line style="stroke:blue;fill:blue;" id="13705" x2="600.00" x1="520.00" y1="370.00" y2="350.00" /><line style="stroke:blue;fill:blue;" id="13706" x2="600.00" x1="520.00" y1="420.00" y2="400.00" /><line style="stroke:blue;fill:blue;" id="13707" x2="450.00" x1="520.00" y1="420.00" y2="400.00" /><line style="stroke:blue;fill:blue;" id="13708" x2="520.00" x1="520.00" y1="420.00" y2="370.00" /><line style="stroke:blue;fill:blue;" id="13709" x2="650.00" x1="550.00" y1="720.00" y2="700.00" /><line style="stroke:blue;fill:blue;" id="13710" x2="500.00" x1="550.00" y1="720.00" y2="720.00" /><line style="stroke:blue;fill:blue;" id="13711" x2="650.00" x1="580.00" y1="70.00" y2="70.00" /><line style="stroke:blue;fill:blue;" id="13712" x2="670.00" x1="600.00" y1="400.00" y2="400.00" /><line style="stroke:blue;fill:blue;" id="13713" x2="520.00" x1="600.00" y1="400.00" y2="420.00" /><line style="stroke:blue;fill:blue;" id="13714" x2="520.00" x1="600.00" y1="400.00" y2="370.00" /><line style="stroke:blue;fill:blue;" id="13715" x2="500.00" x1="600.00" y1="260.00" y2="260.00" /><line style="stroke:blue;fill:blue;" id="13716" x2="700.00" x1="600.00" y1="260.00" y2="270.00" /><line style="stroke:blue;fill:blue;" id="13717" x2="520.00" x1="600.00" y1="350.00" y2="370.00" /><line style="stroke:blue;fill:blue;" id="13718" x2="520.00" x1="600.00" y1="350.00" y2="320.00" /><line style="stroke:blue;fill:blue;" id="13719" x2="670.00" x1="600.00" y1="350.00" y2="350.00" /><line style="stroke:blue;fill:blue;" id="13720" x2="530.00" x1="600.00" y1="170.00" y2="170.00" /><line style="stroke:blue;fill:blue;" id="13721" x2="680.00" x1="600.00" y1="170.00" y2="170.00" /><line style="stroke:blue;fill:blue;" id="13722" x2="700.00" x1="650.00" y1="70.00" y2="70.00" /><line style="stroke:blue;fill:blue;" id="13723" x2="580.00" x1="650.00" y1="70.00" y2="70.00" /><line style="stroke:blue;fill:blue;" id="13724" x2="720.00" x1="670.00" y1="400.00" y2="370.00" /><line style="stroke:blue;fill:blue;" id="13725" x2="600.00" x1="670.00" y1="400.00" y2="400.00" /><line style="stroke:blue;fill:blue;" id="13726" x2="720.00" x1="670.00" y1="350.00" y2="370.00" /><line style="stroke:blue;fill:blue;" id="13727" x2="600.00" x1="670.00" y1="350.00" y2="350.00" /><line style="stroke:blue;fill:blue;" id="13728" x2="600.00" x1="680.00" y1="170.00" y2="170.00" /><line style="stroke:blue;fill:blue;" id="13729" x2="700.00" x1="680.00" y1="170.00" y2="120.00" /><line style="stroke:blue;fill:blue;" id="13730" x2="500.00" x1="680.00" y1="530.00" y2="500.00" /><line style="stroke:blue;fill:blue;" id="13731" x2="760.00" x1="680.00" y1="530.00" y2="620.00" /><line style="stroke:blue;fill:blue;" id="13732" x2="800.00" x1="680.00" y1="530.00" y2="570.00" /><line style="stroke:blue;fill:blue;" id="13733" x2="650.00" x1="710.00" y1="670.00" y2="700.00" /><line style="stroke:blue;fill:blue;" id="13734" x2="760.00" x1="710.00" y1="670.00" y2="620.00" /><line style="stroke:blue;fill:blue;" id="13735" x2="810.00" x1="700.00" y1="450.00" y2="460.00" /><line style="stroke:blue;fill:blue;" id="13736" x2="680.00" x1="700.00" y1="120.00" y2="170.00" /><line style="stroke:blue;fill:blue;" id="13737" x2="700.00" x1="700.00" y1="120.00" y2="70.00" /><line style="stroke:blue;fill:blue;" id="13738" x2="600.00" x1="700.00" y1="270.00" y2="260.00" /><line style="stroke:blue;fill:blue;" id="13739" x2="700.00" x1="700.00" y1="70.00" y2="120.00" /><line style="stroke:blue;fill:blue;" id="13740" x2="650.00" x1="700.00" y1="70.00" y2="70.00" /><line style="stroke:blue;fill:blue;" id="13741" x2="700.00" x1="700.00" y1="70.00" y2="20.00" /><line style="stroke:blue;fill:blue;" id="13742" x2="800.00" x1="760.00" y1="620.00" y2="570.00" /><line style="stroke:blue;fill:blue;" id="13743" x2="710.00" x1="760.00" y1="620.00" y2="670.00" /><line style="stroke:blue;fill:blue;" id="13744" x2="820.00" x1="760.00" y1="620.00" y2="660.00" /><line style="stroke:blue;fill:blue;" id="13745" x2="680.00" x1="760.00" y1="620.00" y2="530.00" /><line style="stroke:blue;fill:blue;" id="13746" x2="860.00" x1="720.00" y1="370.00" y2="400.00" /><line style="stroke:blue;fill:blue;" id="13747" x2="670.00" x1="720.00" y1="370.00" y2="400.00" /><line style="stroke:blue;fill:blue;" id="13748" x2="670.00" x1="720.00" y1="370.00" y2="350.00" /><line style="stroke:blue;fill:blue;" id="13749" x2="760.00" x1="800.00" y1="570.00" y2="620.00" /><line style="stroke:blue;fill:blue;" id="13750" x2="840.00" x1="800.00" y1="570.00" y2="530.00" /><line style="stroke:blue;fill:blue;" id="13751" x2="680.00" x1="800.00" y1="570.00" y2="530.00" /><line style="stroke:blue;fill:blue;" id="13752" x2="870.00" x1="810.00" y1="460.00" y2="490.00" /><line style="stroke:blue;fill:blue;" id="13753" x2="860.00" x1="810.00" y1="460.00" y2="400.00" /><line style="stroke:blue;fill:blue;" id="13754" x2="700.00" x1="810.00" y1="460.00" y2="450.00" /><line style="stroke:blue;fill:blue;" id="13755" x2="760.00" x1="820.00" y1="660.00" y2="620.00" /><line style="stroke:blue;fill:blue;" id="13756" x2="820.00" x1="800.00" y1="70.00" y2="120.00" /><line style="stroke:blue;fill:blue;" id="13757" x2="875.50" x1="800.00" y1="70.00" y2="70.00" /><line style="stroke:blue;fill:blue;" id="13758" x2="800.00" x1="800.00" y1="70.00" y2="20.00" /><line style="stroke:blue;fill:blue;" id="13759" x2="870.00" x1="840.00" y1="530.00" y2="490.00" /><line style="stroke:blue;fill:blue;" id="13760" x2="800.00" x1="840.00" y1="530.00" y2="570.00" /><line style="stroke:blue;fill:blue;" id="13761" x2="870.00" x1="860.00" y1="400.00" y2="490.00" /><line style="stroke:blue;fill:blue;" id="13762" x2="920.00" x1="860.00" y1="400.00" y2="440.00" /><line style="stroke:blue;fill:blue;" id="13763" x2="810.00" x1="860.00" y1="400.00" y2="460.00" /><line style="stroke:blue;fill:blue;" id="13764" x2="720.00" x1="860.00" y1="400.00" y2="370.00" /><line style="stroke:blue;fill:blue;" id="13765" x2="847.68" x1="820.00" y1="120.00" y2="167.68" /><line style="stroke:blue;fill:blue;" id="13766" x2="875.50" x1="820.00" y1="120.00" y2="70.00" /><line style="stroke:blue;fill:blue;" id="13767" x2="800.00" x1="820.00" y1="120.00" y2="70.00" /><line style="stroke:blue;fill:blue;" id="13768" x2="860.00" x1="870.00" y1="490.00" y2="400.00" /><line style="stroke:blue;fill:blue;" id="13769" x2="920.00" x1="870.00" y1="490.00" y2="440.00" /><line style="stroke:blue;fill:blue;" id="13770" x2="810.00" x1="870.00" y1="490.00" y2="460.00" /><line style="stroke:blue;fill:blue;" id="13771" x2="840.00" x1="870.00" y1="490.00" y2="530.00" /><line style="stroke:blue;fill:blue;" id="13772" x2="882.32" x1="847.68" y1="167.68" y2="202.32" /><line style="stroke:blue;fill:blue;" id="13773" x2="820.00" x1="847.68" y1="167.68" y2="120.00" /><line style="stroke:blue;fill:blue;" id="13774" x2="820.00" x1="875.50" y1="70.00" y2="120.00" /><line style="stroke:blue;fill:blue;" id="13775" x2="924.50" x1="875.50" y1="70.00" y2="70.00" /><line style="stroke:blue;fill:blue;" id="13776" x2="800.00" x1="875.50" y1="70.00" y2="70.00" /><line style="stroke:blue;fill:blue;" id="13777" x2="930.00" x1="860.00" y1="290.00" y2="300.00" /><line style="stroke:blue;fill:blue;" id="13778" x2="900.00" x1="860.00" y1="290.00" y2="250.00" /><line style="stroke:blue;fill:blue;" id="13779" x2="950.00" x1="890.00" y1="360.00" y2="350.00" /><line style="stroke:blue;fill:blue;" id="13780" x2="900.00" x1="882.32" y1="202.32" y2="250.00" /><line style="stroke:blue;fill:blue;" id="13781" x2="847.68" x1="882.32" y1="202.32" y2="167.68" /><line style="stroke:blue;fill:blue;" id="13782" x2="950.00" x1="920.00" y1="440.00" y2="400.00" /><line style="stroke:blue;fill:blue;" id="13783" x2="870.00" x1="920.00" y1="440.00" y2="490.00" /><line style="stroke:blue;fill:blue;" id="13784" x2="860.00" x1="920.00" y1="440.00" y2="400.00" /><line style="stroke:blue;fill:blue;" id="13785" x2="930.00" x1="900.00" y1="250.00" y2="300.00" /><line style="stroke:blue;fill:blue;" id="13786" x2="882.32" x1="900.00" y1="250.00" y2="202.32" /><line style="stroke:blue;fill:blue;" id="13787" x2="860.00" x1="900.00" y1="250.00" y2="290.00" /><line style="stroke:blue;fill:blue;" id="13788" x2="875.50" x1="924.50" y1="70.00" y2="70.00" /><line style="stroke:blue;fill:blue;" id="13789" x2="1000.00" x1="924.50" y1="70.00" y2="70.00" /><line style="stroke:blue;fill:blue;" id="13790" x2="1000.00" x1="930.00" y1="300.00" y2="270.00" /><line style="stroke:blue;fill:blue;" id="13791" x2="950.00" x1="930.00" y1="300.00" y2="350.00" /><line style="stroke:blue;fill:blue;" id="13792" x2="900.00" x1="930.00" y1="300.00" y2="250.00" /><line style="stroke:blue;fill:blue;" id="13793" x2="860.00" x1="930.00" y1="300.00" y2="290.00" /><line style="stroke:blue;fill:blue;" id="13794" x2="920.00" x1="950.00" y1="400.00" y2="440.00" /><line style="stroke:blue;fill:blue;" id="13795" x2="950.00" x1="950.00" y1="400.00" y2="350.00" /><line style="stroke:blue;fill:blue;" id="13796" x2="950.00" x1="950.00" y1="350.00" y2="400.00" /><line style="stroke:blue;fill:blue;" id="13797" x2="930.00" x1="950.00" y1="350.00" y2="300.00" /><line style="stroke:blue;fill:blue;" id="13798" x2="890.00" x1="950.00" y1="350.00" y2="360.00" /><line style="stroke:blue;fill:blue;" id="13799" x2="1000.00" x1="1000.00" y1="70.00" y2="120.00" /><line style="stroke:blue;fill:blue;" id="13800" x2="924.50" x1="1000.00" y1="70.00" y2="70.00" /><line style="stroke:blue;fill:blue;" id="13801" x2="1000.00" x1="1000.00" y1="70.00" y2="20.00" /><line style="stroke:blue;fill:blue;" id="13802" x2="200.00" x1="180.00" y1="370.00" y2="320.00" /><line style="stroke:blue;fill:blue;" id="13803" x2="220.00" x1="280.00" y1="50.00" y2="100.00" /><line style="stroke:blue;fill:blue;" id="13804" x2="375.01" x1="380.49" y1="764.35" y2="715.65" /><line style="stroke:blue;fill:blue;" id="13805" x2="550.00" x1="650.00" y1="700.00" y2="720.00" /><line style="stroke:blue;fill:blue;" id="13806" x2="710.00" x1="650.00" y1="700.00" y2="670.00" /><line style="stroke:blue;fill:blue;" id="13807" x2="700.00" x1="700.00" y1="20.00" y2="70.00" /><line style="stroke:blue;fill:blue;" id="13808" x2="800.00" x1="800.00" y1="20.00" y2="70.00" /><line style="stroke:blue;fill:blue;" id="13809" x2="1000.00" x1="1000.00" y1="20.00" y2="70.00" /><line style="stroke:blue;fill:blue;" id="13810" x2="1000.00" x1="1000.00" y1="120.00" y2="70.00" /><line style="stroke:blue;fill:blue;" id="13811" x2="930.00" x1="1000.00" y1="270.00" y2="300.00" /></svg>
