<?xml version="1.0" standalone="yes"?><!DOCTYPE svg PUBLIC "-//W3C//DTD SVG 1.1//EN" "http://www.w3.org/Graphics/SVG/1.1/DTD/svg11.dtd"[]><svg height="800.00" id="26670" width="1050.00" xmlns="http://www.w3.org/2000/svg" xmlns:xlink="http://www.w3.org/1999/xlink"><rect Type="system" Region="孤独之域" height="5.00" y="280.00" Name="法鲁里" width="5.00" x="80.00" id="26671" ID="30003599" /><text x="80.00" y="280.00" id="26672">法鲁里</text><rect Type="system" Region="孤独之域" height="5.00" y="350.00" Name="埃加罗尔斯" width="5.00" x="80.00" id="26674" ID="30003600" /><text x="80.00" y="350.00" id="26675">埃加罗尔斯</text><rect Type="system" Region="孤独之域" height="5.00" y="520.00" Name="赛通勒" width="5.00" x="150.00" id="26677" ID="30003593" /><text x="150.00" y="520.00" id="26678">赛通勒</text><rect Type="system" Region="孤独之域" height="5.00" y="220.00" Name="巴比尔莫特" width="5.00" x="150.00" id="26680" ID="30003601" /><text x="150.00" y="220.00" id="26681">巴比尔莫特</text><rect Type="system" Region="孤独之域" height="5.00" y="320.00" Name="奥贾瑞亚" width="5.00" x="150.00" id="26683" ID="30003598" /><text x="150.00" y="320.00" id="26684">奥贾瑞亚</text><rect Type="system" Region="孤独之域" height="5.00" y="280.00" Name="哈勒" width="5.00" x="200.00" id="26686" ID="30003597" /><text x="200.00" y="280.00" id="26687">哈勒</text><rect Type="system" Region="孤独之域" height="5.00" y="450.00" Name="拉泽尔" width="5.00" x="200.00" id="26689" ID="30003592" /><text x="200.00" y="450.00" id="26690">拉泽尔</text><rect Type="system" Region="孤独之域" height="5.00" y="350.00" Name="奥瑞瑟" width="5.00" x="220.00" id="26692" ID="30003596" /><text x="220.00" y="350.00" id="26693">奥瑞瑟</text><rect Type="system" Region="孤独之域" height="5.00" y="220.00" Name="埃里坦特" width="5.00" x="280.00" id="26695" ID="30003595" /><text x="280.00" y="220.00" id="26696">埃里坦特</text><rect Type="system" Region="孤独之域" height="5.00" y="280.00" Name="希伦尼" width="5.00" x="280.00" id="26698" ID="30003594" /><text x="280.00" y="280.00" id="26699">希伦尼</text><rect Type="system" Region="孤独之域" height="5.00" y="450.00" Name="阿拉撒热" width="5.00" x="300.00" id="26701" ID="30003590" /><text x="300.00" y="450.00" id="26702">阿拉撒热</text><rect Type="system" Region="孤独之域" height="5.00" y="75.50" Name="托斯坦" width="5.00" x="320.00" id="26704" ID="30003606" /><text x="320.00" y="75.50" id="26705">托斯坦</text><rect Type="system" Region="孤独之域" height="5.00" y="124.50" Name="斯塔罗因" width="5.00" x="320.00" id="26707" ID="30003607" /><text x="320.00" y="124.50" id="26708">斯塔罗因</text><rect Type="system" Region="孤独之域" height="5.00" y="380.00" Name="耶维勒特" width="5.00" x="350.00" id="26710" ID="30003591" /><text x="350.00" y="380.00" id="26711">耶维勒特</text><rect Type="system" Region="孤独之域" height="5.00" y="20.00" Name="伊格横农" width="5.00" x="350.00" id="26713" ID="30003605" /><text x="350.00" y="20.00" id="26714">伊格横农</text><rect Type="system" Region="孤独之域" height="5.00" y="500.00" Name="维考迪" width="5.00" x="380.00" id="26716" ID="30003589" /><text x="380.00" y="500.00" id="26717">维考迪</text><rect Type="system" Region="孤独之域" height="5.00" y="600.00" Name="吉尔瑞克" width="5.00" x="380.00" id="26719" ID="30003586" /><text x="380.00" y="600.00" id="26720">吉尔瑞克</text><rect Type="system" Region="孤独之域" height="5.00" y="75.50" Name="波彻林佩" width="5.00" x="400.00" id="26722" ID="30003604" /><text x="400.00" y="75.50" id="26723">波彻林佩</text><rect Type="system" Region="孤独之域" height="5.00" y="124.50" Name="昂卓耶" width="5.00" x="400.00" id="26725" ID="30003603" /><text x="400.00" y="124.50" id="26726">昂卓耶</text><rect Type="system" Region="孤独之域" height="5.00" y="175.50" Name="拉提罗瑟" width="5.00" x="400.00" id="26728" ID="30003602" /><text x="400.00" y="175.50" id="26729">拉提罗瑟</text><rect Type="system" Region="孤独之域" height="5.00" y="224.50" Name="维威农" width="5.00" x="400.00" id="26731" ID="30003572" /><text x="400.00" y="224.50" id="26732">维威农</text><rect Type="system" Region="孤独之域" height="5.00" y="280.00" Name="安克尔" width="5.00" x="400.00" id="26734" ID="30003571" /><text x="400.00" y="280.00" id="26735">安克尔</text><rect Type="system" Region="孤独之域" height="5.00" y="520.00" Name="耶尔瑞勒" width="5.00" x="450.00" id="26737" ID="30003588" /><text x="450.00" y="520.00" id="26738">耶尔瑞勒</text><rect Type="system" Region="孤独之域" height="5.00" y="580.00" Name="欧丁森" width="5.00" x="480.00" id="26740" ID="30003582" /><text x="480.00" y="580.00" id="26741">欧丁森</text><rect Type="system" Region="孤独之域" height="5.00" y="650.00" Name="哈尔列尔" width="5.00" x="480.00" id="26743" ID="30003587" /><text x="480.00" y="650.00" id="26744">哈尔列尔</text><rect Type="system" Region="孤独之域" height="5.00" y="720.00" Name="爱伊提尔" width="5.00" x="480.00" id="26746" ID="30003585" /><text x="480.00" y="720.00" id="26747">爱伊提尔</text><rect Type="system" Region="孤独之域" height="5.00" y="280.00" Name="伊尔罗" width="5.00" x="500.00" id="26749" ID="30003570" /><text x="500.00" y="280.00" id="26750">伊尔罗</text><rect Type="system" Region="孤独之域" height="5.00" y="247.68" Name="缪封" width="5.00" x="547.68" id="26752" ID="30003568" /><text x="547.68" y="247.68" id="26753">缪封</text><rect Type="system" Region="孤独之域" height="5.00" y="580.00" Name="波斯托温" width="5.00" x="580.00" id="26755" ID="30003581" /><text x="580.00" y="580.00" id="26756">波斯托温</text><rect Type="system" Region="孤独之域" height="5.00" y="680.00" Name="萨尔林" width="5.00" x="580.00" id="26758" ID="30003584" /><text x="580.00" y="680.00" id="26759">萨尔林</text><rect Type="system" Region="孤独之域" height="5.00" y="282.32" Name="耶维" width="5.00" x="582.32" id="26761" ID="30003567" /><text x="582.32" y="282.32" id="26762">耶维</text><rect Type="system" Region="孤独之域" height="5.00" y="500.00" Name="奥克坦尼维" width="5.00" x="600.00" id="26764" ID="30003578" /><text x="600.00" y="500.00" id="26765">奥克坦尼维</text><rect Type="system" Region="孤独之域" height="5.00" y="280.00" Name="卡诺梅特" width="5.00" x="680.00" id="26767" ID="30003565" /><text x="680.00" y="280.00" id="26768">卡诺梅特</text><rect Type="system" Region="孤独之域" height="5.00" y="600.00" Name="黎巴勒" width="5.00" x="680.00" id="26770" ID="30003580" /><text x="680.00" y="600.00" id="26771">黎巴勒</text><rect Type="system" Region="孤独之域" height="5.00" y="221.91" Name="埃莫古尔" width="5.00" x="699.04" id="26773" ID="30003566" /><text x="699.04" y="221.91" id="26774">埃莫古尔</text><rect Type="system" Region="孤独之域" height="5.00" y="500.00" Name="麦勒" width="5.00" x="700.00" id="26776" ID="30003576" /><text x="700.00" y="500.00" id="26777">麦勒</text><rect Type="system" Region="孤独之域" height="5.00" y="420.00" Name="罗乌尔" width="5.00" x="720.00" id="26779" ID="30003575" /><text x="720.00" y="420.00" id="26780">罗乌尔</text><rect Type="system" Region="孤独之域" height="5.00" y="650.00" Name="维拉罗克斯" width="5.00" x="720.00" id="26782" ID="30003583" /><text x="720.00" y="650.00" id="26783">维拉罗克斯</text><rect Type="system" Region="孤独之域" height="5.00" y="178.09" Name="卡德兰尼" width="5.00" x="720.96" id="26785" ID="30003569" /><text x="720.96" y="178.09" id="26786">卡德兰尼</text><rect Type="system" Region="孤独之域" height="5.00" y="600.00" Name="莱瑞因" width="5.00" x="780.00" id="26788" ID="30003579" /><text x="780.00" y="600.00" id="26789">莱瑞因</text><rect Type="system" Region="孤独之域" height="5.00" y="480.00" Name="欧尔瑟" width="5.00" x="820.00" id="26791" ID="30003577" /><text x="820.00" y="480.00" id="26792">欧尔瑟</text><rect Type="system" Region="孤独之域" height="5.00" y="420.00" Name="波伊斯汀" width="5.00" x="850.00" id="26794" ID="30003574" /><text x="850.00" y="420.00" id="26795">波伊斯汀</text><rect Type="system" Region="孤独之域" height="5.00" y="350.00" Name="皮特涅尔" width="5.00" x="850.00" id="26797" ID="30003573" /><text x="850.00" y="350.00" id="26798">皮特涅尔</text><rect Type="system" Region="艾里迪亚" height="5.00" y="420.00" Name="希尔希茨" width="5.00" x="50.00" id="26800" ID="30004233" /><text x="50.00" y="420.00" id="26801">希尔希茨</text><rect Type="system" Region="辛迪加" height="5.00" y="200.00" Name="D85-VD" width="5.00" x="50.00" id="26803" ID="30003345" /><text x="50.00" y="200.00" id="26804">D85-VD</text><rect Type="system" Region="辛迪加" height="5.00" y="300.00" Name="Y9G-KS" width="5.00" x="800.00" id="26806" ID="30003307" /><text x="800.00" y="300.00" id="26807">Y9G-KS</text><rect Type="system" Region="宁静之域" height="5.00" y="20.00" Name="克宁科" width="5.00" x="280.00" id="26809" ID="30003823" /><text x="280.00" y="20.00" id="26810">克宁科</text><line x2="50.00" style="fill:blue;stroke:blue;" y1="280.00" x1="80.00" id="26812" y2="200.00" /><line x2="150.00" style="fill:blue;stroke:blue;" y1="280.00" x1="80.00" id="26813" y2="320.00" /><line x2="80.00" style="fill:blue;stroke:blue;" y1="280.00" x1="80.00" id="26814" y2="350.00" /><line x2="150.00" style="fill:blue;stroke:blue;" y1="280.00" x1="80.00" id="26815" y2="220.00" /><line x2="80.00" style="fill:blue;stroke:blue;" y1="350.00" x1="80.00" id="26816" y2="280.00" /><line x2="50.00" style="fill:blue;stroke:blue;" y1="350.00" x1="80.00" id="26817" y2="420.00" /><line x2="200.00" style="fill:blue;stroke:blue;" y1="520.00" x1="150.00" id="26818" y2="450.00" /><line x2="200.00" style="fill:blue;stroke:blue;" y1="220.00" x1="150.00" id="26819" y2="280.00" /><line x2="80.00" style="fill:blue;stroke:blue;" y1="220.00" x1="150.00" id="26820" y2="280.00" /><line x2="200.00" style="fill:blue;stroke:blue;" y1="320.00" x1="150.00" id="26821" y2="280.00" /><line x2="80.00" style="fill:blue;stroke:blue;" y1="320.00" x1="150.00" id="26822" y2="280.00" /><line x2="280.00" style="fill:blue;stroke:blue;" y1="280.00" x1="200.00" id="26823" y2="280.00" /><line x2="220.00" style="fill:blue;stroke:blue;" y1="280.00" x1="200.00" id="26824" y2="350.00" /><line x2="150.00" style="fill:blue;stroke:blue;" y1="280.00" x1="200.00" id="26825" y2="320.00" /><line x2="150.00" style="fill:blue;stroke:blue;" y1="280.00" x1="200.00" id="26826" y2="220.00" /><line x2="300.00" style="fill:blue;stroke:blue;" y1="450.00" x1="200.00" id="26827" y2="450.00" /><line x2="150.00" style="fill:blue;stroke:blue;" y1="450.00" x1="200.00" id="26828" y2="520.00" /><line x2="280.00" style="fill:blue;stroke:blue;" y1="350.00" x1="220.00" id="26829" y2="280.00" /><line x2="200.00" style="fill:blue;stroke:blue;" y1="350.00" x1="220.00" id="26830" y2="280.00" /><line x2="280.00" style="fill:blue;stroke:blue;" y1="220.00" x1="280.00" id="26831" y2="280.00" /><line x2="400.00" style="fill:blue;stroke:blue;" y1="280.00" x1="280.00" id="26832" y2="280.00" /><line x2="280.00" style="fill:blue;stroke:blue;" y1="280.00" x1="280.00" id="26833" y2="220.00" /><line x2="220.00" style="fill:blue;stroke:blue;" y1="280.00" x1="280.00" id="26834" y2="350.00" /><line x2="200.00" style="fill:blue;stroke:blue;" y1="280.00" x1="280.00" id="26835" y2="280.00" /><line x2="380.00" style="fill:blue;stroke:blue;" y1="450.00" x1="300.00" id="26836" y2="500.00" /><line x2="350.00" style="fill:blue;stroke:blue;" y1="450.00" x1="300.00" id="26837" y2="380.00" /><line x2="200.00" style="fill:blue;stroke:blue;" y1="450.00" x1="300.00" id="26838" y2="450.00" /><line x2="400.00" style="fill:blue;stroke:blue;" y1="75.50" x1="320.00" id="26839" y2="75.50" /><line x2="350.00" style="fill:blue;stroke:blue;" y1="75.50" x1="320.00" id="26840" y2="20.00" /><line x2="320.00" style="fill:blue;stroke:blue;" y1="75.50" x1="320.00" id="26841" y2="124.50" /><line x2="400.00" style="fill:blue;stroke:blue;" y1="124.50" x1="320.00" id="26842" y2="124.50" /><line x2="320.00" style="fill:blue;stroke:blue;" y1="124.50" x1="320.00" id="26843" y2="75.50" /><line x2="582.32" style="fill:blue;stroke:blue;" y1="380.00" x1="350.00" id="26844" y2="282.32" /><line x2="300.00" style="fill:blue;stroke:blue;" y1="380.00" x1="350.00" id="26845" y2="450.00" /><line x2="400.00" style="fill:blue;stroke:blue;" y1="20.00" x1="350.00" id="26846" y2="75.50" /><line x2="320.00" style="fill:blue;stroke:blue;" y1="20.00" x1="350.00" id="26847" y2="75.50" /><line x2="280.00" style="fill:blue;stroke:blue;" y1="20.00" x1="350.00" id="26848" y2="20.00" /><line x2="450.00" style="fill:blue;stroke:blue;" y1="500.00" x1="380.00" id="26849" y2="520.00" /><line x2="300.00" style="fill:blue;stroke:blue;" y1="500.00" x1="380.00" id="26850" y2="450.00" /><line x2="480.00" style="fill:blue;stroke:blue;" y1="600.00" x1="380.00" id="26851" y2="580.00" /><line x2="400.00" style="fill:blue;stroke:blue;" y1="75.50" x1="400.00" id="26852" y2="124.50" /><line x2="350.00" style="fill:blue;stroke:blue;" y1="75.50" x1="400.00" id="26853" y2="20.00" /><line x2="320.00" style="fill:blue;stroke:blue;" y1="75.50" x1="400.00" id="26854" y2="75.50" /><line x2="400.00" style="fill:blue;stroke:blue;" y1="124.50" x1="400.00" id="26855" y2="175.50" /><line x2="400.00" style="fill:blue;stroke:blue;" y1="124.50" x1="400.00" id="26856" y2="75.50" /><line x2="320.00" style="fill:blue;stroke:blue;" y1="124.50" x1="400.00" id="26857" y2="124.50" /><line x2="400.00" style="fill:blue;stroke:blue;" y1="175.50" x1="400.00" id="26858" y2="224.50" /><line x2="400.00" style="fill:blue;stroke:blue;" y1="175.50" x1="400.00" id="26859" y2="124.50" /><line x2="400.00" style="fill:blue;stroke:blue;" y1="224.50" x1="400.00" id="26860" y2="280.00" /><line x2="400.00" style="fill:blue;stroke:blue;" y1="224.50" x1="400.00" id="26861" y2="175.50" /><line x2="500.00" style="fill:blue;stroke:blue;" y1="280.00" x1="400.00" id="26862" y2="280.00" /><line x2="400.00" style="fill:blue;stroke:blue;" y1="280.00" x1="400.00" id="26863" y2="224.50" /><line x2="280.00" style="fill:blue;stroke:blue;" y1="280.00" x1="400.00" id="26864" y2="280.00" /><line x2="600.00" style="fill:blue;stroke:blue;" y1="520.00" x1="450.00" id="26865" y2="500.00" /><line x2="380.00" style="fill:blue;stroke:blue;" y1="520.00" x1="450.00" id="26866" y2="500.00" /><line x2="580.00" style="fill:blue;stroke:blue;" y1="580.00" x1="480.00" id="26867" y2="580.00" /><line x2="380.00" style="fill:blue;stroke:blue;" y1="580.00" x1="480.00" id="26868" y2="600.00" /><line x2="580.00" style="fill:blue;stroke:blue;" y1="650.00" x1="480.00" id="26869" y2="680.00" /><line x2="480.00" style="fill:blue;stroke:blue;" y1="650.00" x1="480.00" id="26870" y2="720.00" /><line x2="580.00" style="fill:blue;stroke:blue;" y1="720.00" x1="480.00" id="26871" y2="680.00" /><line x2="480.00" style="fill:blue;stroke:blue;" y1="720.00" x1="480.00" id="26872" y2="650.00" /><line x2="582.32" style="fill:blue;stroke:blue;" y1="280.00" x1="500.00" id="26873" y2="282.32" /><line x2="547.68" style="fill:blue;stroke:blue;" y1="280.00" x1="500.00" id="26874" y2="247.68" /><line x2="400.00" style="fill:blue;stroke:blue;" y1="280.00" x1="500.00" id="26875" y2="280.00" /><line x2="582.32" style="fill:blue;stroke:blue;" y1="247.68" x1="547.68" id="26876" y2="282.32" /><line x2="500.00" style="fill:blue;stroke:blue;" y1="247.68" x1="547.68" id="26877" y2="280.00" /><line x2="680.00" style="fill:blue;stroke:blue;" y1="580.00" x1="580.00" id="26878" y2="600.00" /><line x2="480.00" style="fill:blue;stroke:blue;" y1="580.00" x1="580.00" id="26879" y2="580.00" /><line x2="720.00" style="fill:blue;stroke:blue;" y1="680.00" x1="580.00" id="26880" y2="650.00" /><line x2="480.00" style="fill:blue;stroke:blue;" y1="680.00" x1="580.00" id="26881" y2="720.00" /><line x2="480.00" style="fill:blue;stroke:blue;" y1="680.00" x1="580.00" id="26882" y2="650.00" /><line x2="680.00" style="fill:blue;stroke:blue;" y1="282.32" x1="582.32" id="26883" y2="280.00" /><line x2="547.68" style="fill:blue;stroke:blue;" y1="282.32" x1="582.32" id="26884" y2="247.68" /><line x2="500.00" style="fill:blue;stroke:blue;" y1="282.32" x1="582.32" id="26885" y2="280.00" /><line x2="350.00" style="fill:blue;stroke:blue;" y1="282.32" x1="582.32" id="26886" y2="380.00" /><line x2="700.00" style="fill:blue;stroke:blue;" y1="500.00" x1="600.00" id="26887" y2="500.00" /><line x2="450.00" style="fill:blue;stroke:blue;" y1="500.00" x1="600.00" id="26888" y2="520.00" /><line x2="800.00" style="fill:blue;stroke:blue;" y1="280.00" x1="680.00" id="26889" y2="300.00" /><line x2="699.04" style="fill:blue;stroke:blue;" y1="280.00" x1="680.00" id="26890" y2="221.91" /><line x2="582.32" style="fill:blue;stroke:blue;" y1="280.00" x1="680.00" id="26891" y2="282.32" /><line x2="780.00" style="fill:blue;stroke:blue;" y1="600.00" x1="680.00" id="26892" y2="600.00" /><line x2="580.00" style="fill:blue;stroke:blue;" y1="600.00" x1="680.00" id="26893" y2="580.00" /><line x2="680.00" style="fill:blue;stroke:blue;" y1="221.91" x1="699.04" id="26894" y2="280.00" /><line x2="720.96" style="fill:blue;stroke:blue;" y1="221.91" x1="699.04" id="26895" y2="178.09" /><line x2="720.00" style="fill:blue;stroke:blue;" y1="500.00" x1="700.00" id="26896" y2="420.00" /><line x2="820.00" style="fill:blue;stroke:blue;" y1="500.00" x1="700.00" id="26897" y2="480.00" /><line x2="600.00" style="fill:blue;stroke:blue;" y1="500.00" x1="700.00" id="26898" y2="500.00" /><line x2="850.00" style="fill:blue;stroke:blue;" y1="420.00" x1="720.00" id="26899" y2="420.00" /><line x2="700.00" style="fill:blue;stroke:blue;" y1="420.00" x1="720.00" id="26900" y2="500.00" /><line x2="820.00" style="fill:blue;stroke:blue;" y1="420.00" x1="720.00" id="26901" y2="480.00" /><line x2="780.00" style="fill:blue;stroke:blue;" y1="650.00" x1="720.00" id="26902" y2="600.00" /><line x2="580.00" style="fill:blue;stroke:blue;" y1="650.00" x1="720.00" id="26903" y2="680.00" /><line x2="699.04" style="fill:blue;stroke:blue;" y1="178.09" x1="720.96" id="26904" y2="221.91" /><line x2="820.00" style="fill:blue;stroke:blue;" y1="600.00" x1="780.00" id="26905" y2="480.00" /><line x2="680.00" style="fill:blue;stroke:blue;" y1="600.00" x1="780.00" id="26906" y2="600.00" /><line x2="720.00" style="fill:blue;stroke:blue;" y1="600.00" x1="780.00" id="26907" y2="650.00" /><line x2="850.00" style="fill:blue;stroke:blue;" y1="480.00" x1="820.00" id="26908" y2="420.00" /><line x2="720.00" style="fill:blue;stroke:blue;" y1="480.00" x1="820.00" id="26909" y2="420.00" /><line x2="700.00" style="fill:blue;stroke:blue;" y1="480.00" x1="820.00" id="26910" y2="500.00" /><line x2="780.00" style="fill:blue;stroke:blue;" y1="480.00" x1="820.00" id="26911" y2="600.00" /><line x2="850.00" style="fill:blue;stroke:blue;" y1="420.00" x1="850.00" id="26912" y2="350.00" /><line x2="720.00" style="fill:blue;stroke:blue;" y1="420.00" x1="850.00" id="26913" y2="420.00" /><line x2="820.00" style="fill:blue;stroke:blue;" y1="420.00" x1="850.00" id="26914" y2="480.00" /><line x2="800.00" style="fill:blue;stroke:blue;" y1="350.00" x1="850.00" id="26915" y2="300.00" /><line x2="850.00" style="fill:blue;stroke:blue;" y1="350.00" x1="850.00" id="26916" y2="420.00" /><line x2="80.00" style="fill:blue;stroke:blue;" y1="420.00" x1="50.00" id="26917" y2="350.00" /><line x2="80.00" style="fill:blue;stroke:blue;" y1="200.00" x1="50.00" id="26918" y2="280.00" /><line x2="680.00" style="fill:blue;stroke:blue;" y1="300.00" x1="800.00" id="26919" y2="280.00" /><line x2="850.00" style="fill:blue;stroke:blue;" y1="300.00" x1="800.00" id="26920" y2="350.00" /><line x2="350.00" style="fill:blue;stroke:blue;" y1="20.00" x1="280.00" id="26921" y2="20.00" /></svg>
