<?xml version="1.0" standalone="yes"?><!DOCTYPE svg PUBLIC "-//W3C//DTD SVG 1.1//EN" "http://www.w3.org/Graphics/SVG/1.1/DTD/svg11.dtd"[]><svg width="1050.00" height="800.00" id="26670" xmlns="http://www.w3.org/2000/svg" xmlns:xlink="http://www.w3.org/1999/xlink"><rect Type="system" x="80.00" id="26671" height="5.00" width="5.00" Name="法鲁里" ID="30003599" Region="孤独之域" y="280.00" /><text y="280.00" x="80.00" id="26672">法鲁里</text><rect Type="system" x="80.00" id="26674" height="5.00" width="5.00" Name="埃加罗尔斯" ID="30003600" Region="孤独之域" y="350.00" /><text y="350.00" x="80.00" id="26675">埃加罗尔斯</text><rect Type="system" x="150.00" id="26677" height="5.00" width="5.00" Name="赛通勒" ID="30003593" Region="孤独之域" y="520.00" /><text y="520.00" x="150.00" id="26678">赛通勒</text><rect Type="system" x="150.00" id="26680" height="5.00" width="5.00" Name="巴比尔莫特" ID="30003601" Region="孤独之域" y="220.00" /><text y="220.00" x="150.00" id="26681">巴比尔莫特</text><rect Type="system" x="150.00" id="26683" height="5.00" width="5.00" Name="奥贾瑞亚" ID="30003598" Region="孤独之域" y="320.00" /><text y="320.00" x="150.00" id="26684">奥贾瑞亚</text><rect Type="system" x="200.00" id="26686" height="5.00" width="5.00" Name="哈勒" ID="30003597" Region="孤独之域" y="280.00" /><text y="280.00" x="200.00" id="26687">哈勒</text><rect Type="system" x="200.00" id="26689" height="5.00" width="5.00" Name="拉泽尔" ID="30003592" Region="孤独之域" y="450.00" /><text y="450.00" x="200.00" id="26690">拉泽尔</text><rect Type="system" x="220.00" id="26692" height="5.00" width="5.00" Name="奥瑞瑟" ID="30003596" Region="孤独之域" y="350.00" /><text y="350.00" x="220.00" id="26693">奥瑞瑟</text><rect Type="system" x="280.00" id="26695" height="5.00" width="5.00" Name="埃里坦特" ID="30003595" Region="孤独之域" y="220.00" /><text y="220.00" x="280.00" id="26696">埃里坦特</text><rect Type="system" x="280.00" id="26698" height="5.00" width="5.00" Name="希伦尼" ID="30003594" Region="孤独之域" y="280.00" /><text y="280.00" x="280.00" id="26699">希伦尼</text><rect Type="system" x="300.00" id="26701" height="5.00" width="5.00" Name="阿拉撒热" ID="30003590" Region="孤独之域" y="450.00" /><text y="450.00" x="300.00" id="26702">阿拉撒热</text><rect Type="system" x="320.00" id="26704" height="5.00" width="5.00" Name="托斯坦" ID="30003606" Region="孤独之域" y="75.50" /><text y="75.50" x="320.00" id="26705">托斯坦</text><rect Type="system" x="320.00" id="26707" height="5.00" width="5.00" Name="斯塔罗因" ID="30003607" Region="孤独之域" y="124.50" /><text y="124.50" x="320.00" id="26708">斯塔罗因</text><rect Type="system" x="350.00" id="26710" height="5.00" width="5.00" Name="耶维勒特" ID="30003591" Region="孤独之域" y="380.00" /><text y="380.00" x="350.00" id="26711">耶维勒特</text><rect Type="system" x="350.00" id="26713" height="5.00" width="5.00" Name="伊格横农" ID="30003605" Region="孤独之域" y="20.00" /><text y="20.00" x="350.00" id="26714">伊格横农</text><rect Type="system" x="380.00" id="26716" height="5.00" width="5.00" Name="维考迪" ID="30003589" Region="孤独之域" y="500.00" /><text y="500.00" x="380.00" id="26717">维考迪</text><rect Type="system" x="380.00" id="26719" height="5.00" width="5.00" Name="吉尔瑞克" ID="30003586" Region="孤独之域" y="600.00" /><text y="600.00" x="380.00" id="26720">吉尔瑞克</text><rect Type="system" x="400.00" id="26722" height="5.00" width="5.00" Name="波彻林佩" ID="30003604" Region="孤独之域" y="75.50" /><text y="75.50" x="400.00" id="26723">波彻林佩</text><rect Type="system" x="400.00" id="26725" height="5.00" width="5.00" Name="昂卓耶" ID="30003603" Region="孤独之域" y="124.50" /><text y="124.50" x="400.00" id="26726">昂卓耶</text><rect Type="system" x="400.00" id="26728" height="5.00" width="5.00" Name="拉提罗瑟" ID="30003602" Region="孤独之域" y="175.50" /><text y="175.50" x="400.00" id="26729">拉提罗瑟</text><rect Type="system" x="400.00" id="26731" height="5.00" width="5.00" Name="维威农" ID="30003572" Region="孤独之域" y="224.50" /><text y="224.50" x="400.00" id="26732">维威农</text><rect Type="system" x="400.00" id="26734" height="5.00" width="5.00" Name="安克尔" ID="30003571" Region="孤独之域" y="280.00" /><text y="280.00" x="400.00" id="26735">安克尔</text><rect Type="system" x="450.00" id="26737" height="5.00" width="5.00" Name="耶尔瑞勒" ID="30003588" Region="孤独之域" y="520.00" /><text y="520.00" x="450.00" id="26738">耶尔瑞勒</text><rect Type="system" x="480.00" id="26740" height="5.00" width="5.00" Name="欧丁森" ID="30003582" Region="孤独之域" y="580.00" /><text y="580.00" x="480.00" id="26741">欧丁森</text><rect Type="system" x="480.00" id="26743" height="5.00" width="5.00" Name="哈尔列尔" ID="30003587" Region="孤独之域" y="650.00" /><text y="650.00" x="480.00" id="26744">哈尔列尔</text><rect Type="system" x="480.00" id="26746" height="5.00" width="5.00" Name="爱伊提尔" ID="30003585" Region="孤独之域" y="720.00" /><text y="720.00" x="480.00" id="26747">爱伊提尔</text><rect Type="system" x="500.00" id="26749" height="5.00" width="5.00" Name="伊尔罗" ID="30003570" Region="孤独之域" y="280.00" /><text y="280.00" x="500.00" id="26750">伊尔罗</text><rect Type="system" x="547.68" id="26752" height="5.00" width="5.00" Name="缪封" ID="30003568" Region="孤独之域" y="247.68" /><text y="247.68" x="547.68" id="26753">缪封</text><rect Type="system" x="580.00" id="26755" height="5.00" width="5.00" Name="波斯托温" ID="30003581" Region="孤独之域" y="580.00" /><text y="580.00" x="580.00" id="26756">波斯托温</text><rect Type="system" x="580.00" id="26758" height="5.00" width="5.00" Name="萨尔林" ID="30003584" Region="孤独之域" y="680.00" /><text y="680.00" x="580.00" id="26759">萨尔林</text><rect Type="system" x="582.32" id="26761" height="5.00" width="5.00" Name="耶维" ID="30003567" Region="孤独之域" y="282.32" /><text y="282.32" x="582.32" id="26762">耶维</text><rect Type="system" x="600.00" id="26764" height="5.00" width="5.00" Name="奥克坦尼维" ID="30003578" Region="孤独之域" y="500.00" /><text y="500.00" x="600.00" id="26765">奥克坦尼维</text><rect Type="system" x="680.00" id="26767" height="5.00" width="5.00" Name="卡诺梅特" ID="30003565" Region="孤独之域" y="280.00" /><text y="280.00" x="680.00" id="26768">卡诺梅特</text><rect Type="system" x="680.00" id="26770" height="5.00" width="5.00" Name="黎巴勒" ID="30003580" Region="孤独之域" y="600.00" /><text y="600.00" x="680.00" id="26771">黎巴勒</text><rect Type="system" x="699.04" id="26773" height="5.00" width="5.00" Name="埃莫古尔" ID="30003566" Region="孤独之域" y="221.91" /><text y="221.91" x="699.04" id="26774">埃莫古尔</text><rect Type="system" x="700.00" id="26776" height="5.00" width="5.00" Name="麦勒" ID="30003576" Region="孤独之域" y="500.00" /><text y="500.00" x="700.00" id="26777">麦勒</text><rect Type="system" x="720.00" id="26779" height="5.00" width="5.00" Name="罗乌尔" ID="30003575" Region="孤独之域" y="420.00" /><text y="420.00" x="720.00" id="26780">罗乌尔</text><rect Type="system" x="720.00" id="26782" height="5.00" width="5.00" Name="维拉罗克斯" ID="30003583" Region="孤独之域" y="650.00" /><text y="650.00" x="720.00" id="26783">维拉罗克斯</text><rect Type="system" x="720.96" id="26785" height="5.00" width="5.00" Name="卡德兰尼" ID="30003569" Region="孤独之域" y="178.09" /><text y="178.09" x="720.96" id="26786">卡德兰尼</text><rect Type="system" x="780.00" id="26788" height="5.00" width="5.00" Name="莱瑞因" ID="30003579" Region="孤独之域" y="600.00" /><text y="600.00" x="780.00" id="26789">莱瑞因</text><rect Type="system" x="820.00" id="26791" height="5.00" width="5.00" Name="欧尔瑟" ID="30003577" Region="孤独之域" y="480.00" /><text y="480.00" x="820.00" id="26792">欧尔瑟</text><rect Type="system" x="850.00" id="26794" height="5.00" width="5.00" Name="波伊斯汀" ID="30003574" Region="孤独之域" y="420.00" /><text y="420.00" x="850.00" id="26795">波伊斯汀</text><rect Type="system" x="850.00" id="26797" height="5.00" width="5.00" Name="皮特涅尔" ID="30003573" Region="孤独之域" y="350.00" /><text y="350.00" x="850.00" id="26798">皮特涅尔</text><rect Type="system" x="50.00" id="26800" height="5.00" width="5.00" Name="希尔希茨" ID="30004233" Region="艾里迪亚" y="420.00" /><text y="420.00" x="50.00" id="26801">希尔希茨</text><rect Type="system" x="50.00" id="26803" height="5.00" width="5.00" Name="D85-VD" ID="30003345" Region="辛迪加" y="200.00" /><text y="200.00" x="50.00" id="26804">D85-VD</text><rect Type="system" x="800.00" id="26806" height="5.00" width="5.00" Name="Y9G-KS" ID="30003307" Region="辛迪加" y="300.00" /><text y="300.00" x="800.00" id="26807">Y9G-KS</text><rect Type="system" x="280.00" id="26809" height="5.00" width="5.00" Name="克宁科" ID="30003823" Region="宁静之域" y="20.00" /><text y="20.00" x="280.00" id="26810">克宁科</text><line style="stroke:blue;fill:blue;" id="26812" x2="50.00" x1="80.00" y1="280.00" y2="200.00" /><line style="stroke:blue;fill:blue;" id="26813" x2="150.00" x1="80.00" y1="280.00" y2="320.00" /><line style="stroke:blue;fill:blue;" id="26814" x2="80.00" x1="80.00" y1="280.00" y2="350.00" /><line style="stroke:blue;fill:blue;" id="26815" x2="150.00" x1="80.00" y1="280.00" y2="220.00" /><line style="stroke:blue;fill:blue;" id="26816" x2="80.00" x1="80.00" y1="350.00" y2="280.00" /><line style="stroke:blue;fill:blue;" id="26817" x2="50.00" x1="80.00" y1="350.00" y2="420.00" /><line style="stroke:blue;fill:blue;" id="26818" x2="200.00" x1="150.00" y1="520.00" y2="450.00" /><line style="stroke:blue;fill:blue;" id="26819" x2="200.00" x1="150.00" y1="220.00" y2="280.00" /><line style="stroke:blue;fill:blue;" id="26820" x2="80.00" x1="150.00" y1="220.00" y2="280.00" /><line style="stroke:blue;fill:blue;" id="26821" x2="200.00" x1="150.00" y1="320.00" y2="280.00" /><line style="stroke:blue;fill:blue;" id="26822" x2="80.00" x1="150.00" y1="320.00" y2="280.00" /><line style="stroke:blue;fill:blue;" id="26823" x2="280.00" x1="200.00" y1="280.00" y2="280.00" /><line style="stroke:blue;fill:blue;" id="26824" x2="220.00" x1="200.00" y1="280.00" y2="350.00" /><line style="stroke:blue;fill:blue;" id="26825" x2="150.00" x1="200.00" y1="280.00" y2="320.00" /><line style="stroke:blue;fill:blue;" id="26826" x2="150.00" x1="200.00" y1="280.00" y2="220.00" /><line style="stroke:blue;fill:blue;" id="26827" x2="300.00" x1="200.00" y1="450.00" y2="450.00" /><line style="stroke:blue;fill:blue;" id="26828" x2="150.00" x1="200.00" y1="450.00" y2="520.00" /><line style="stroke:blue;fill:blue;" id="26829" x2="280.00" x1="220.00" y1="350.00" y2="280.00" /><line style="stroke:blue;fill:blue;" id="26830" x2="200.00" x1="220.00" y1="350.00" y2="280.00" /><line style="stroke:blue;fill:blue;" id="26831" x2="280.00" x1="280.00" y1="220.00" y2="280.00" /><line style="stroke:blue;fill:blue;" id="26832" x2="400.00" x1="280.00" y1="280.00" y2="280.00" /><line style="stroke:blue;fill:blue;" id="26833" x2="280.00" x1="280.00" y1="280.00" y2="220.00" /><line style="stroke:blue;fill:blue;" id="26834" x2="220.00" x1="280.00" y1="280.00" y2="350.00" /><line style="stroke:blue;fill:blue;" id="26835" x2="200.00" x1="280.00" y1="280.00" y2="280.00" /><line style="stroke:blue;fill:blue;" id="26836" x2="380.00" x1="300.00" y1="450.00" y2="500.00" /><line style="stroke:blue;fill:blue;" id="26837" x2="350.00" x1="300.00" y1="450.00" y2="380.00" /><line style="stroke:blue;fill:blue;" id="26838" x2="200.00" x1="300.00" y1="450.00" y2="450.00" /><line style="stroke:blue;fill:blue;" id="26839" x2="400.00" x1="320.00" y1="75.50" y2="75.50" /><line style="stroke:blue;fill:blue;" id="26840" x2="350.00" x1="320.00" y1="75.50" y2="20.00" /><line style="stroke:blue;fill:blue;" id="26841" x2="320.00" x1="320.00" y1="75.50" y2="124.50" /><line style="stroke:blue;fill:blue;" id="26842" x2="400.00" x1="320.00" y1="124.50" y2="124.50" /><line style="stroke:blue;fill:blue;" id="26843" x2="320.00" x1="320.00" y1="124.50" y2="75.50" /><line style="stroke:blue;fill:blue;" id="26844" x2="582.32" x1="350.00" y1="380.00" y2="282.32" /><line style="stroke:blue;fill:blue;" id="26845" x2="300.00" x1="350.00" y1="380.00" y2="450.00" /><line style="stroke:blue;fill:blue;" id="26846" x2="400.00" x1="350.00" y1="20.00" y2="75.50" /><line style="stroke:blue;fill:blue;" id="26847" x2="320.00" x1="350.00" y1="20.00" y2="75.50" /><line style="stroke:blue;fill:blue;" id="26848" x2="280.00" x1="350.00" y1="20.00" y2="20.00" /><line style="stroke:blue;fill:blue;" id="26849" x2="450.00" x1="380.00" y1="500.00" y2="520.00" /><line style="stroke:blue;fill:blue;" id="26850" x2="300.00" x1="380.00" y1="500.00" y2="450.00" /><line style="stroke:blue;fill:blue;" id="26851" x2="480.00" x1="380.00" y1="600.00" y2="580.00" /><line style="stroke:blue;fill:blue;" id="26852" x2="400.00" x1="400.00" y1="75.50" y2="124.50" /><line style="stroke:blue;fill:blue;" id="26853" x2="350.00" x1="400.00" y1="75.50" y2="20.00" /><line style="stroke:blue;fill:blue;" id="26854" x2="320.00" x1="400.00" y1="75.50" y2="75.50" /><line style="stroke:blue;fill:blue;" id="26855" x2="400.00" x1="400.00" y1="124.50" y2="175.50" /><line style="stroke:blue;fill:blue;" id="26856" x2="400.00" x1="400.00" y1="124.50" y2="75.50" /><line style="stroke:blue;fill:blue;" id="26857" x2="320.00" x1="400.00" y1="124.50" y2="124.50" /><line style="stroke:blue;fill:blue;" id="26858" x2="400.00" x1="400.00" y1="175.50" y2="224.50" /><line style="stroke:blue;fill:blue;" id="26859" x2="400.00" x1="400.00" y1="175.50" y2="124.50" /><line style="stroke:blue;fill:blue;" id="26860" x2="400.00" x1="400.00" y1="224.50" y2="280.00" /><line style="stroke:blue;fill:blue;" id="26861" x2="400.00" x1="400.00" y1="224.50" y2="175.50" /><line style="stroke:blue;fill:blue;" id="26862" x2="500.00" x1="400.00" y1="280.00" y2="280.00" /><line style="stroke:blue;fill:blue;" id="26863" x2="400.00" x1="400.00" y1="280.00" y2="224.50" /><line style="stroke:blue;fill:blue;" id="26864" x2="280.00" x1="400.00" y1="280.00" y2="280.00" /><line style="stroke:blue;fill:blue;" id="26865" x2="600.00" x1="450.00" y1="520.00" y2="500.00" /><line style="stroke:blue;fill:blue;" id="26866" x2="380.00" x1="450.00" y1="520.00" y2="500.00" /><line style="stroke:blue;fill:blue;" id="26867" x2="580.00" x1="480.00" y1="580.00" y2="580.00" /><line style="stroke:blue;fill:blue;" id="26868" x2="380.00" x1="480.00" y1="580.00" y2="600.00" /><line style="stroke:blue;fill:blue;" id="26869" x2="580.00" x1="480.00" y1="650.00" y2="680.00" /><line style="stroke:blue;fill:blue;" id="26870" x2="480.00" x1="480.00" y1="650.00" y2="720.00" /><line style="stroke:blue;fill:blue;" id="26871" x2="580.00" x1="480.00" y1="720.00" y2="680.00" /><line style="stroke:blue;fill:blue;" id="26872" x2="480.00" x1="480.00" y1="720.00" y2="650.00" /><line style="stroke:blue;fill:blue;" id="26873" x2="582.32" x1="500.00" y1="280.00" y2="282.32" /><line style="stroke:blue;fill:blue;" id="26874" x2="547.68" x1="500.00" y1="280.00" y2="247.68" /><line style="stroke:blue;fill:blue;" id="26875" x2="400.00" x1="500.00" y1="280.00" y2="280.00" /><line style="stroke:blue;fill:blue;" id="26876" x2="582.32" x1="547.68" y1="247.68" y2="282.32" /><line style="stroke:blue;fill:blue;" id="26877" x2="500.00" x1="547.68" y1="247.68" y2="280.00" /><line style="stroke:blue;fill:blue;" id="26878" x2="680.00" x1="580.00" y1="580.00" y2="600.00" /><line style="stroke:blue;fill:blue;" id="26879" x2="480.00" x1="580.00" y1="580.00" y2="580.00" /><line style="stroke:blue;fill:blue;" id="26880" x2="720.00" x1="580.00" y1="680.00" y2="650.00" /><line style="stroke:blue;fill:blue;" id="26881" x2="480.00" x1="580.00" y1="680.00" y2="720.00" /><line style="stroke:blue;fill:blue;" id="26882" x2="480.00" x1="580.00" y1="680.00" y2="650.00" /><line style="stroke:blue;fill:blue;" id="26883" x2="680.00" x1="582.32" y1="282.32" y2="280.00" /><line style="stroke:blue;fill:blue;" id="26884" x2="547.68" x1="582.32" y1="282.32" y2="247.68" /><line style="stroke:blue;fill:blue;" id="26885" x2="500.00" x1="582.32" y1="282.32" y2="280.00" /><line style="stroke:blue;fill:blue;" id="26886" x2="350.00" x1="582.32" y1="282.32" y2="380.00" /><line style="stroke:blue;fill:blue;" id="26887" x2="700.00" x1="600.00" y1="500.00" y2="500.00" /><line style="stroke:blue;fill:blue;" id="26888" x2="450.00" x1="600.00" y1="500.00" y2="520.00" /><line style="stroke:blue;fill:blue;" id="26889" x2="800.00" x1="680.00" y1="280.00" y2="300.00" /><line style="stroke:blue;fill:blue;" id="26890" x2="699.04" x1="680.00" y1="280.00" y2="221.91" /><line style="stroke:blue;fill:blue;" id="26891" x2="582.32" x1="680.00" y1="280.00" y2="282.32" /><line style="stroke:blue;fill:blue;" id="26892" x2="780.00" x1="680.00" y1="600.00" y2="600.00" /><line style="stroke:blue;fill:blue;" id="26893" x2="580.00" x1="680.00" y1="600.00" y2="580.00" /><line style="stroke:blue;fill:blue;" id="26894" x2="680.00" x1="699.04" y1="221.91" y2="280.00" /><line style="stroke:blue;fill:blue;" id="26895" x2="720.96" x1="699.04" y1="221.91" y2="178.09" /><line style="stroke:blue;fill:blue;" id="26896" x2="720.00" x1="700.00" y1="500.00" y2="420.00" /><line style="stroke:blue;fill:blue;" id="26897" x2="820.00" x1="700.00" y1="500.00" y2="480.00" /><line style="stroke:blue;fill:blue;" id="26898" x2="600.00" x1="700.00" y1="500.00" y2="500.00" /><line style="stroke:blue;fill:blue;" id="26899" x2="850.00" x1="720.00" y1="420.00" y2="420.00" /><line style="stroke:blue;fill:blue;" id="26900" x2="700.00" x1="720.00" y1="420.00" y2="500.00" /><line style="stroke:blue;fill:blue;" id="26901" x2="820.00" x1="720.00" y1="420.00" y2="480.00" /><line style="stroke:blue;fill:blue;" id="26902" x2="780.00" x1="720.00" y1="650.00" y2="600.00" /><line style="stroke:blue;fill:blue;" id="26903" x2="580.00" x1="720.00" y1="650.00" y2="680.00" /><line style="stroke:blue;fill:blue;" id="26904" x2="699.04" x1="720.96" y1="178.09" y2="221.91" /><line style="stroke:blue;fill:blue;" id="26905" x2="820.00" x1="780.00" y1="600.00" y2="480.00" /><line style="stroke:blue;fill:blue;" id="26906" x2="680.00" x1="780.00" y1="600.00" y2="600.00" /><line style="stroke:blue;fill:blue;" id="26907" x2="720.00" x1="780.00" y1="600.00" y2="650.00" /><line style="stroke:blue;fill:blue;" id="26908" x2="850.00" x1="820.00" y1="480.00" y2="420.00" /><line style="stroke:blue;fill:blue;" id="26909" x2="720.00" x1="820.00" y1="480.00" y2="420.00" /><line style="stroke:blue;fill:blue;" id="26910" x2="700.00" x1="820.00" y1="480.00" y2="500.00" /><line style="stroke:blue;fill:blue;" id="26911" x2="780.00" x1="820.00" y1="480.00" y2="600.00" /><line style="stroke:blue;fill:blue;" id="26912" x2="850.00" x1="850.00" y1="420.00" y2="350.00" /><line style="stroke:blue;fill:blue;" id="26913" x2="720.00" x1="850.00" y1="420.00" y2="420.00" /><line style="stroke:blue;fill:blue;" id="26914" x2="820.00" x1="850.00" y1="420.00" y2="480.00" /><line style="stroke:blue;fill:blue;" id="26915" x2="800.00" x1="850.00" y1="350.00" y2="300.00" /><line style="stroke:blue;fill:blue;" id="26916" x2="850.00" x1="850.00" y1="350.00" y2="420.00" /><line style="stroke:blue;fill:blue;" id="26917" x2="80.00" x1="50.00" y1="420.00" y2="350.00" /><line style="stroke:blue;fill:blue;" id="26918" x2="80.00" x1="50.00" y1="200.00" y2="280.00" /><line style="stroke:blue;fill:blue;" id="26919" x2="680.00" x1="800.00" y1="300.00" y2="280.00" /><line style="stroke:blue;fill:blue;" id="26920" x2="850.00" x1="800.00" y1="300.00" y2="350.00" /><line style="stroke:blue;fill:blue;" id="26921" x2="350.00" x1="280.00" y1="20.00" y2="20.00" /></svg>
