<?xml version="1.0" standalone="yes"?><!DOCTYPE svg PUBLIC "-//W3C//DTD SVG 1.1//EN" "http://www.w3.org/Graphics/SVG/1.1/DTD/svg11.dtd"[]><svg width="1050.00" height="800.00" id="23173" xmlns="http://www.w3.org/2000/svg" xmlns:xlink="http://www.w3.org/1999/xlink"><rect Type="system" x="27.68" id="23174" height="5.00" width="5.00" Name="查尔达兰" ID="30003834" Region="宁静之域" y="147.68" /><text y="147.68" x="27.68" id="23175">查尔达兰</text><rect Type="system" x="60.00" id="23177" height="5.00" width="5.00" Name="克宁科" ID="30003823" Region="宁静之域" y="580.00" /><text y="580.00" x="60.00" id="23178">克宁科</text><rect Type="system" x="62.32" id="23180" height="5.00" width="5.00" Name="挨达辛" ID="30003832" Region="宁静之域" y="182.32" /><text y="182.32" x="62.32" id="23181">挨达辛</text><rect Type="system" x="100.00" id="23183" height="5.00" width="5.00" Name="维斯托维" ID="30003820" Region="宁静之域" y="480.00" /><text y="480.00" x="100.00" id="23184">维斯托维</text><rect Type="system" x="110.00" id="23186" height="5.00" width="5.00" Name="奥苏马特" ID="30003821" Region="宁静之域" y="560.00" /><text y="560.00" x="110.00" id="23187">奥苏马特</text><rect Type="system" x="130.00" id="23189" height="5.00" width="5.00" Name="毛特" ID="30003835" Region="宁静之域" y="160.00" /><text y="160.00" x="130.00" id="23190">毛特</text><rect Type="system" x="130.00" id="23192" height="5.00" width="5.00" Name="厄斯皮格尔" ID="30003822" Region="宁静之域" y="430.00" /><text y="430.00" x="130.00" id="23193">厄斯皮格尔</text><rect Type="system" x="140.00" id="23195" height="5.00" width="5.00" Name="巴尔勒归斯" ID="30003819" Region="宁静之域" y="510.00" /><text y="510.00" x="140.00" id="23196">巴尔勒归斯</text><rect Type="system" x="160.00" id="23198" height="5.00" width="5.00" Name="奥斯梅登" ID="30003831" Region="宁静之域" y="200.00" /><text y="200.00" x="160.00" id="23199">奥斯梅登</text><rect Type="system" x="190.00" id="23201" height="5.00" width="5.00" Name="阿尔帕伦纳" ID="30003850" Region="宁静之域" y="130.00" /><text y="130.00" x="190.00" id="23202">阿尔帕伦纳</text><rect Type="system" x="160.00" id="23204" height="5.00" width="5.00" Name="埃托伦" ID="30003856" Region="宁静之域" y="50.00" /><text y="50.00" x="160.00" id="23205">埃托伦</text><rect Type="system" x="100.00" id="23207" height="5.00" width="5.00" Name="萨马奴尼" ID="30045322" Region="暗涌之域" y="40.00" /><text y="40.00" x="100.00" id="23208">萨马奴尼</text><rect Type="system" x="210.00" id="23210" height="5.00" width="5.00" Name="奥布勒斯" ID="30003818" Region="宁静之域" y="530.00" /><text y="530.00" x="210.00" id="23211">奥布勒斯</text><rect Type="system" x="230.00" id="23213" height="5.00" width="5.00" Name="俄沃勒" ID="30003830" Region="宁静之域" y="200.00" /><text y="200.00" x="230.00" id="23214">俄沃勒</text><rect Type="system" x="230.00" id="23216" height="5.00" width="5.00" Name="梅尔克密西尔" ID="30003853" Region="宁静之域" y="60.00" /><text y="60.00" x="230.00" id="23217">梅尔克密西尔</text><rect Type="system" x="260.00" id="23219" height="5.00" width="5.00" Name="瑞舒尔德" ID="30003851" Region="宁静之域" y="110.00" /><text y="110.00" x="260.00" id="23220">瑞舒尔德</text><rect Type="system" x="310.00" id="23222" height="5.00" width="5.00" Name="加勒" ID="30003805" Region="宁静之域" y="530.00" /><text y="530.00" x="310.00" id="23223">加勒</text><rect Type="system" x="310.00" id="23225" height="5.00" width="5.00" Name="赫多贝尔" ID="30003846" Region="宁静之域" y="760.00" /><text y="760.00" x="310.00" id="23226">赫多贝尔</text><rect Type="system" x="310.00" id="23228" height="5.00" width="5.00" Name="瑞罗塔" ID="30003845" Region="宁静之域" y="700.00" /><text y="700.00" x="310.00" id="23229">瑞罗塔</text><rect Type="system" x="360.00" id="23231" height="5.00" width="5.00" Name="奥列" ID="30003833" Region="宁静之域" y="230.00" /><text y="230.00" x="360.00" id="23232">奥列</text><rect Type="system" x="360.00" id="23234" height="5.00" width="5.00" Name="佩恩" ID="30003804" Region="宁静之域" y="430.00" /><text y="430.00" x="360.00" id="23235">佩恩</text><rect Type="system" x="360.00" id="23237" height="5.00" width="5.00" Name="加鲁希恩" ID="30003844" Region="宁静之域" y="680.00" /><text y="680.00" x="360.00" id="23238">加鲁希恩</text><rect Type="system" x="360.00" id="23240" height="5.00" width="5.00" Name="奥波涅" ID="30003849" Region="宁静之域" y="780.00" /><text y="780.00" x="360.00" id="23241">奥波涅</text><rect Type="system" x="360.00" id="23243" height="5.00" width="5.00" Name="瑞尼尔" ID="30003803" Region="宁静之域" y="480.00" /><text y="480.00" x="360.00" id="23244">瑞尼尔</text><rect Type="system" x="360.00" id="23246" height="5.00" width="5.00" Name="奥索" ID="30003801" Region="宁静之域" y="530.00" /><text y="530.00" x="360.00" id="23247">奥索</text><rect Type="system" x="380.00" id="23249" height="5.00" width="5.00" Name="阿德罗尼" ID="30003852" Region="宁静之域" y="100.00" /><text y="100.00" x="380.00" id="23250">阿德罗尼</text><rect Type="system" x="410.00" id="23252" height="5.00" width="5.00" Name="曼特劳提" ID="30003855" Region="宁静之域" y="30.00" /><text y="30.00" x="410.00" id="23253">曼特劳提</text><rect Type="system" x="430.00" id="23255" height="5.00" width="5.00" Name="卡梅玛尔" ID="30003802" Region="宁静之域" y="560.00" /><text y="560.00" x="430.00" id="23256">卡梅玛尔</text><rect Type="system" x="430.00" id="23258" height="5.00" width="5.00" Name="埃瓦奥克" ID="30003843" Region="宁静之域" y="680.00" /><text y="680.00" x="430.00" id="23259">埃瓦奥克</text><rect Type="system" x="427.68" id="23261" height="5.00" width="5.00" Name="埃拉梅尔" ID="30003854" Region="宁静之域" y="77.68" /><text y="77.68" x="427.68" id="23262">埃拉梅尔</text><rect Type="system" x="450.00" id="23264" height="5.00" width="5.00" Name="阿玛西尔" ID="30003848" Region="宁静之域" y="780.00" /><text y="780.00" x="450.00" id="23265">阿玛西尔</text><rect Type="system" x="460.00" id="23267" height="5.00" width="5.00" Name="布瑞利斯迪尔" ID="30003809" Region="宁静之域" y="380.00" /><text y="380.00" x="460.00" id="23268">布瑞利斯迪尔</text><rect Type="system" x="460.00" id="23270" height="5.00" width="5.00" Name="吉斯拜尔" ID="30003808" Region="宁静之域" y="430.00" /><text y="430.00" x="460.00" id="23271">吉斯拜尔</text><rect Type="system" x="462.32" id="23273" height="5.00" width="5.00" Name="奥达米亚" ID="30003857" Region="宁静之域" y="112.32" /><text y="112.32" x="462.32" id="23274">奥达米亚</text><rect Type="system" x="460.00" id="23276" height="5.00" width="5.00" Name="阿尔皮劳特" ID="30003800" Region="宁静之域" y="500.00" /><text y="500.00" x="460.00" id="23277">阿尔皮劳特</text><rect Type="system" x="490.00" id="23279" height="5.00" width="5.00" Name="阿曼恩" ID="30003847" Region="宁静之域" y="750.00" /><text y="750.00" x="490.00" id="23280">阿曼恩</text><rect Type="system" x="530.00" id="23282" height="5.00" width="5.00" Name="维瓦尼尔" ID="30003810" Region="宁静之域" y="355.50" /><text y="355.50" x="530.00" id="23283">维瓦尼尔</text><rect Type="system" x="530.00" id="23285" height="5.00" width="5.00" Name="朵儿" ID="30003807" Region="宁静之域" y="404.50" /><text y="404.50" x="530.00" id="23286">朵儿</text><rect Type="system" x="560.00" id="23288" height="5.00" width="5.00" Name="佩里勒" ID="30003806" Region="宁静之域" y="460.00" /><text y="460.00" x="560.00" id="23289">佩里勒</text><rect Type="system" x="560.00" id="23291" height="5.00" width="5.00" Name="卡维因" ID="30003795" Region="宁静之域" y="580.00" /><text y="580.00" x="560.00" id="23292">卡维因</text><rect Type="system" x="560.00" id="23294" height="5.00" width="5.00" Name="斯雷斯" ID="30003798" Region="宁静之域" y="730.00" /><text y="730.00" x="560.00" id="23295">斯雷斯</text><rect Type="system" x="560.00" id="23297" height="5.00" width="5.00" Name="伊瑟塞尔" ID="30003842" Region="宁静之域" y="30.00" /><text y="30.00" x="560.00" id="23298">伊瑟塞尔</text><rect Type="system" x="580.00" id="23300" height="5.00" width="5.00" Name="安乔特斯" ID="30003840" Region="宁静之域" y="80.00" /><text y="80.00" x="580.00" id="23301">安乔特斯</text><rect Type="system" x="580.00" id="23303" height="5.00" width="5.00" Name="阿加圣纳" ID="30003811" Region="宁静之域" y="330.00" /><text y="330.00" x="580.00" id="23304">阿加圣纳</text><rect Type="system" x="610.00" id="23306" height="5.00" width="5.00" Name="奥贝纳尔" ID="30003827" Region="宁静之域" y="230.00" /><text y="230.00" x="610.00" id="23307">奥贝纳尔</text><rect Type="system" x="610.00" id="23309" height="5.00" width="5.00" Name="埃察沃内特" ID="30003824" Region="宁静之域" y="280.00" /><text y="280.00" x="610.00" id="23310">埃察沃内特</text><rect Type="system" x="650.00" id="23312" height="5.00" width="5.00" Name="斯塔克蒙" ID="30003794" Region="宁静之域" y="600.00" /><text y="600.00" x="650.00" id="23313">斯塔克蒙</text><rect Type="system" x="650.00" id="23315" height="5.00" width="5.00" Name="埃格斯" ID="30003796" Region="宁静之域" y="700.00" /><text y="700.00" x="650.00" id="23316">埃格斯</text><rect Type="system" x="660.00" id="23318" height="5.00" width="5.00" Name="奥斯玛兰奈斯" ID="30003812" Region="宁静之域" y="380.00" /><text y="380.00" x="660.00" id="23319">奥斯玛兰奈斯</text><rect Type="system" x="660.00" id="23321" height="5.00" width="5.00" Name="伊万伦" ID="30003839" Region="宁静之域" y="80.00" /><text y="80.00" x="660.00" id="23322">伊万伦</text><rect Type="system" x="660.00" id="23324" height="5.00" width="5.00" Name="瑞纳惹勒" ID="30003829" Region="宁静之域" y="200.00" /><text y="200.00" x="660.00" id="23325">瑞纳惹勒</text><rect Type="system" x="680.00" id="23327" height="5.00" width="5.00" Name="伊沃莱德尔" ID="30003813" Region="宁静之域" y="330.00" /><text y="330.00" x="680.00" id="23328">伊沃莱德尔</text><rect Type="system" x="680.00" id="23330" height="5.00" width="5.00" Name="奥斯汀格勒" ID="30003792" Region="宁静之域" y="480.00" /><text y="480.00" x="680.00" id="23331">奥斯汀格勒</text><rect Type="system" x="710.00" id="23333" height="5.00" width="5.00" Name="尤加勒斯" ID="30003825" Region="宁静之域" y="260.00" /><text y="260.00" x="710.00" id="23334">尤加勒斯</text><rect Type="system" x="720.00" id="23336" height="5.00" width="5.00" Name="达斯顿斯" ID="30003797" Region="宁静之域" y="600.00" /><text y="600.00" x="720.00" id="23337">达斯顿斯</text><rect Type="system" x="720.00" id="23339" height="5.00" width="5.00" Name="乌法兰特" ID="30003799" Region="宁静之域" y="700.00" /><text y="700.00" x="720.00" id="23340">乌法兰特</text><rect Type="system" x="730.00" id="23342" height="5.00" width="5.00" Name="欧玛依惹" ID="30003817" Region="宁静之域" y="430.00" /><text y="430.00" x="730.00" id="23343">欧玛依惹</text><rect Type="system" x="730.00" id="23345" height="5.00" width="5.00" Name="伊弗尤尔" ID="30003815" Region="宁静之域" y="380.00" /><text y="380.00" x="730.00" id="23346">伊弗尤尔</text><rect Type="system" x="730.00" id="23348" height="5.00" width="5.00" Name="阿尔达然特" ID="30003837" Region="宁静之域" y="130.00" /><text y="130.00" x="730.00" id="23349">阿尔达然特</text><rect Type="system" x="760.00" id="23351" height="5.00" width="5.00" Name="利里瑞尔" ID="30003836" Region="宁静之域" y="180.00" /><text y="180.00" x="760.00" id="23352">利里瑞尔</text><rect Type="system" x="760.00" id="23354" height="5.00" width="5.00" Name="默林" ID="30003814" Region="宁静之域" y="330.00" /><text y="330.00" x="760.00" id="23355">默林</text><rect Type="system" x="760.00" id="23357" height="5.00" width="5.00" Name="哈洛勒" ID="30003793" Region="宁静之域" y="530.00" /><text y="530.00" x="760.00" id="23358">哈洛勒</text><rect Type="system" x="760.00" id="23360" height="5.00" width="5.00" Name="莫克琳纳摩德" ID="30003828" Region="宁静之域" y="230.00" /><text y="230.00" x="760.00" id="23361">莫克琳纳摩德</text><rect Type="system" x="780.00" id="23363" height="5.00" width="5.00" Name="维林论" ID="30003816" Region="宁静之域" y="380.00" /><text y="380.00" x="780.00" id="23364">维林论</text><rect Type="system" x="810.00" id="23366" height="5.00" width="5.00" Name="弗拉烈" ID="30003826" Region="宁静之域" y="280.00" /><text y="280.00" x="810.00" id="23367">弗拉烈</text><rect Type="system" x="860.00" id="23369" height="5.00" width="5.00" Name="奥伊瑟克斯" ID="30003838" Region="宁静之域" y="130.00" /><text y="130.00" x="860.00" id="23370">奥伊瑟克斯</text><rect Type="system" x="860.00" id="23372" height="5.00" width="5.00" Name="奥萨温伦" ID="30003841" Region="宁静之域" y="180.00" /><text y="180.00" x="860.00" id="23373">奥萨温伦</text><rect Type="system" x="860.00" id="23375" height="5.00" width="5.00" Name="埃格则" ID="30003787" Region="宁静之域" y="455.50" /><text y="455.50" x="860.00" id="23376">埃格则</text><rect Type="system" x="880.00" id="23378" height="5.00" width="5.00" Name="维耶" ID="30003790" Region="宁静之域" y="380.00" /><text y="380.00" x="880.00" id="23379">维耶</text><rect Type="system" x="960.00" id="23381" height="5.00" width="5.00" Name="安南克勒" ID="30003791" Region="宁静之域" y="490.00" /><text y="490.00" x="960.00" id="23382">安南克勒</text><rect Type="system" x="960.00" id="23384" height="5.00" width="5.00" Name="印塔基" ID="30003788" Region="宁静之域" y="390.00" /><text y="390.00" x="960.00" id="23385">印塔基</text><rect Type="system" x="990.00" id="23387" height="5.00" width="5.00" Name="布拉热" ID="30003789" Region="宁静之域" y="440.00" /><text y="440.00" x="990.00" id="23388">布拉热</text><rect Type="system" x="60.00" id="23390" height="5.00" width="5.00" Name="TXW-EI" ID="30003323" Region="辛迪加" y="430.00" /><text y="430.00" x="60.00" id="23391">TXW-EI</text><rect Type="system" x="180.00" id="23393" height="5.00" width="5.00" Name="PF-346" ID="30003277" Region="辛迪加" y="280.00" /><text y="280.00" x="180.00" id="23394">PF-346</text><rect Type="system" x="260.00" id="23396" height="5.00" width="5.00" Name="美希比尔" ID="30004975" Region="精华之域" y="280.00" /><text y="280.00" x="260.00" id="23397">美希比尔</text><rect Type="system" x="310.00" id="23399" height="5.00" width="5.00" Name="RQH-MY" ID="30002039" Region="黑渊" y="60.00" /><text y="60.00" x="310.00" id="23400">RQH-MY</text><rect Type="system" x="510.00" id="23402" height="5.00" width="5.00" Name="埃达尔特" ID="30005307" Region="维格温铎" y="630.00" /><text y="630.00" x="510.00" id="23403">埃达尔特</text><rect Type="system" x="760.00" id="23405" height="5.00" width="5.00" Name="涅娜麦拉" ID="30045344" Region="暗涌之域" y="80.00" /><text y="80.00" x="760.00" id="23406">涅娜麦拉</text><rect Type="system" x="810.00" id="23408" height="5.00" width="5.00" Name="MHC-R3" ID="30003268" Region="辛迪加" y="580.00" /><text y="580.00" x="810.00" id="23409">MHC-R3</text><rect Type="system" x="860.00" id="23411" height="5.00" width="5.00" Name="伊哈" ID="30045319" Region="暗涌之域" y="80.00" /><text y="80.00" x="860.00" id="23412">伊哈</text><rect Type="system" x="860.00" id="23414" height="5.00" width="5.00" Name="罗耶斯" ID="30005300" Region="维格温铎" y="504.50" /><text y="504.50" x="860.00" id="23415">罗耶斯</text><rect Type="system" x="960.00" id="23417" height="5.00" width="5.00" Name="F7C-H0" ID="30004046" Region="云环" y="140.00" /><text y="140.00" x="960.00" id="23418">F7C-H0</text><rect Type="system" x="60.00" id="23420" height="5.00" width="5.00" Name="伊格横农" ID="30003605" Region="孤独之域" y="630.00" /><text y="630.00" x="60.00" id="23421">伊格横农</text><rect Type="system" x="900.00" id="23423" height="5.00" width="5.00" Name="荒渊" ID="30100000" Region="赞颂之域" y="240.00" /><text y="240.00" x="900.00" id="23424">荒渊</text><rect Type="system" x="970.00" id="23426" height="5.00" width="5.00" Name="埃米格农" ID="30005311" Region="维格温铎" y="340.00" /><text y="340.00" x="970.00" id="23427">埃米格农</text><line style="stroke:blue;fill:blue;" id="23429" x2="62.32" x1="27.68" y1="147.68" y2="182.32" /><line style="stroke:blue;fill:blue;" id="23430" x2="110.00" x1="60.00" y1="580.00" y2="560.00" /><line style="stroke:blue;fill:blue;" id="23431" x2="60.00" x1="60.00" y1="580.00" y2="630.00" /><line style="stroke:blue;fill:blue;" id="23432" x2="160.00" x1="62.32" y1="182.32" y2="200.00" /><line style="stroke:blue;fill:blue;" id="23433" x2="27.68" x1="62.32" y1="182.32" y2="147.68" /><line style="stroke:blue;fill:blue;" id="23434" x2="130.00" x1="62.32" y1="182.32" y2="160.00" /><line style="stroke:blue;fill:blue;" id="23435" x2="60.00" x1="100.00" y1="480.00" y2="430.00" /><line style="stroke:blue;fill:blue;" id="23436" x2="140.00" x1="100.00" y1="480.00" y2="510.00" /><line style="stroke:blue;fill:blue;" id="23437" x2="130.00" x1="100.00" y1="480.00" y2="430.00" /><line style="stroke:blue;fill:blue;" id="23438" x2="140.00" x1="110.00" y1="560.00" y2="510.00" /><line style="stroke:blue;fill:blue;" id="23439" x2="60.00" x1="110.00" y1="560.00" y2="580.00" /><line style="stroke:blue;fill:blue;" id="23440" x2="160.00" x1="130.00" y1="160.00" y2="200.00" /><line style="stroke:blue;fill:blue;" id="23441" x2="62.32" x1="130.00" y1="160.00" y2="182.32" /><line style="stroke:blue;fill:blue;" id="23442" x2="190.00" x1="130.00" y1="160.00" y2="130.00" /><line style="stroke:blue;fill:blue;" id="23443" x2="100.00" x1="130.00" y1="430.00" y2="480.00" /><line style="stroke:blue;fill:blue;" id="23444" x2="210.00" x1="140.00" y1="510.00" y2="530.00" /><line style="stroke:blue;fill:blue;" id="23445" x2="100.00" x1="140.00" y1="510.00" y2="480.00" /><line style="stroke:blue;fill:blue;" id="23446" x2="110.00" x1="140.00" y1="510.00" y2="560.00" /><line style="stroke:blue;fill:blue;" id="23447" x2="230.00" x1="160.00" y1="200.00" y2="200.00" /><line style="stroke:blue;fill:blue;" id="23448" x2="62.32" x1="160.00" y1="200.00" y2="182.32" /><line style="stroke:blue;fill:blue;" id="23449" x2="130.00" x1="160.00" y1="200.00" y2="160.00" /><line style="stroke:blue;fill:blue;" id="23450" x2="130.00" x1="190.00" y1="130.00" y2="160.00" /><line style="stroke:blue;fill:blue;" id="23451" x2="260.00" x1="190.00" y1="130.00" y2="110.00" /><line style="stroke:blue;fill:blue;" id="23452" x2="230.00" x1="160.00" y1="50.00" y2="60.00" /><line style="stroke:blue;fill:blue;" id="23453" x2="100.00" x1="160.00" y1="50.00" y2="40.00" /><line style="stroke:blue;fill:blue;" id="23454" x2="160.00" x1="100.00" y1="40.00" y2="50.00" /><line style="stroke:blue;fill:blue;" id="23455" x2="310.00" x1="210.00" y1="530.00" y2="530.00" /><line style="stroke:blue;fill:blue;" id="23456" x2="140.00" x1="210.00" y1="530.00" y2="510.00" /><line style="stroke:blue;fill:blue;" id="23457" x2="180.00" x1="230.00" y1="200.00" y2="280.00" /><line style="stroke:blue;fill:blue;" id="23458" x2="160.00" x1="230.00" y1="200.00" y2="200.00" /><line style="stroke:blue;fill:blue;" id="23459" x2="360.00" x1="230.00" y1="200.00" y2="230.00" /><line style="stroke:blue;fill:blue;" id="23460" x2="260.00" x1="230.00" y1="200.00" y2="280.00" /><line style="stroke:blue;fill:blue;" id="23461" x2="260.00" x1="230.00" y1="60.00" y2="110.00" /><line style="stroke:blue;fill:blue;" id="23462" x2="160.00" x1="230.00" y1="60.00" y2="50.00" /><line style="stroke:blue;fill:blue;" id="23463" x2="190.00" x1="260.00" y1="110.00" y2="130.00" /><line style="stroke:blue;fill:blue;" id="23464" x2="380.00" x1="260.00" y1="110.00" y2="100.00" /><line style="stroke:blue;fill:blue;" id="23465" x2="230.00" x1="260.00" y1="110.00" y2="60.00" /><line style="stroke:blue;fill:blue;" id="23466" x2="360.00" x1="310.00" y1="530.00" y2="530.00" /><line style="stroke:blue;fill:blue;" id="23467" x2="210.00" x1="310.00" y1="530.00" y2="530.00" /><line style="stroke:blue;fill:blue;" id="23468" x2="310.00" x1="310.00" y1="760.00" y2="700.00" /><line style="stroke:blue;fill:blue;" id="23469" x2="360.00" x1="310.00" y1="760.00" y2="780.00" /><line style="stroke:blue;fill:blue;" id="23470" x2="360.00" x1="310.00" y1="700.00" y2="680.00" /><line style="stroke:blue;fill:blue;" id="23471" x2="310.00" x1="310.00" y1="700.00" y2="760.00" /><line style="stroke:blue;fill:blue;" id="23472" x2="490.00" x1="310.00" y1="700.00" y2="750.00" /><line style="stroke:blue;fill:blue;" id="23473" x2="610.00" x1="360.00" y1="230.00" y2="230.00" /><line style="stroke:blue;fill:blue;" id="23474" x2="230.00" x1="360.00" y1="230.00" y2="200.00" /><line style="stroke:blue;fill:blue;" id="23475" x2="360.00" x1="360.00" y1="430.00" y2="480.00" /><line style="stroke:blue;fill:blue;" id="23476" x2="430.00" x1="360.00" y1="680.00" y2="680.00" /><line style="stroke:blue;fill:blue;" id="23477" x2="310.00" x1="360.00" y1="680.00" y2="700.00" /><line style="stroke:blue;fill:blue;" id="23478" x2="310.00" x1="360.00" y1="780.00" y2="760.00" /><line style="stroke:blue;fill:blue;" id="23479" x2="450.00" x1="360.00" y1="780.00" y2="780.00" /><line style="stroke:blue;fill:blue;" id="23480" x2="360.00" x1="360.00" y1="480.00" y2="530.00" /><line style="stroke:blue;fill:blue;" id="23481" x2="360.00" x1="360.00" y1="480.00" y2="430.00" /><line style="stroke:blue;fill:blue;" id="23482" x2="460.00" x1="360.00" y1="530.00" y2="500.00" /><line style="stroke:blue;fill:blue;" id="23483" x2="430.00" x1="360.00" y1="530.00" y2="560.00" /><line style="stroke:blue;fill:blue;" id="23484" x2="360.00" x1="360.00" y1="530.00" y2="480.00" /><line style="stroke:blue;fill:blue;" id="23485" x2="310.00" x1="360.00" y1="530.00" y2="530.00" /><line style="stroke:blue;fill:blue;" id="23486" x2="260.00" x1="380.00" y1="100.00" y2="110.00" /><line style="stroke:blue;fill:blue;" id="23487" x2="427.68" x1="380.00" y1="100.00" y2="77.68" /><line style="stroke:blue;fill:blue;" id="23488" x2="462.32" x1="380.00" y1="100.00" y2="112.32" /><line style="stroke:blue;fill:blue;" id="23489" x2="310.00" x1="410.00" y1="30.00" y2="60.00" /><line style="stroke:blue;fill:blue;" id="23490" x2="427.68" x1="410.00" y1="30.00" y2="77.68" /><line style="stroke:blue;fill:blue;" id="23491" x2="560.00" x1="430.00" y1="560.00" y2="580.00" /><line style="stroke:blue;fill:blue;" id="23492" x2="360.00" x1="430.00" y1="560.00" y2="530.00" /><line style="stroke:blue;fill:blue;" id="23493" x2="360.00" x1="430.00" y1="680.00" y2="680.00" /><line style="stroke:blue;fill:blue;" id="23494" x2="510.00" x1="430.00" y1="680.00" y2="630.00" /><line style="stroke:blue;fill:blue;" id="23495" x2="380.00" x1="427.68" y1="77.68" y2="100.00" /><line style="stroke:blue;fill:blue;" id="23496" x2="410.00" x1="427.68" y1="77.68" y2="30.00" /><line style="stroke:blue;fill:blue;" id="23497" x2="462.32" x1="427.68" y1="77.68" y2="112.32" /><line style="stroke:blue;fill:blue;" id="23498" x2="490.00" x1="450.00" y1="780.00" y2="750.00" /><line style="stroke:blue;fill:blue;" id="23499" x2="360.00" x1="450.00" y1="780.00" y2="780.00" /><line style="stroke:blue;fill:blue;" id="23500" x2="460.00" x1="460.00" y1="380.00" y2="430.00" /><line style="stroke:blue;fill:blue;" id="23501" x2="530.00" x1="460.00" y1="380.00" y2="355.50" /><line style="stroke:blue;fill:blue;" id="23502" x2="560.00" x1="460.00" y1="430.00" y2="460.00" /><line style="stroke:blue;fill:blue;" id="23503" x2="460.00" x1="460.00" y1="430.00" y2="380.00" /><line style="stroke:blue;fill:blue;" id="23504" x2="580.00" x1="462.32" y1="112.32" y2="80.00" /><line style="stroke:blue;fill:blue;" id="23505" x2="380.00" x1="462.32" y1="112.32" y2="100.00" /><line style="stroke:blue;fill:blue;" id="23506" x2="427.68" x1="462.32" y1="112.32" y2="77.68" /><line style="stroke:blue;fill:blue;" id="23507" x2="680.00" x1="460.00" y1="500.00" y2="480.00" /><line style="stroke:blue;fill:blue;" id="23508" x2="360.00" x1="460.00" y1="500.00" y2="530.00" /><line style="stroke:blue;fill:blue;" id="23509" x2="560.00" x1="490.00" y1="750.00" y2="730.00" /><line style="stroke:blue;fill:blue;" id="23510" x2="310.00" x1="490.00" y1="750.00" y2="700.00" /><line style="stroke:blue;fill:blue;" id="23511" x2="450.00" x1="490.00" y1="750.00" y2="780.00" /><line style="stroke:blue;fill:blue;" id="23512" x2="530.00" x1="530.00" y1="355.50" y2="404.50" /><line style="stroke:blue;fill:blue;" id="23513" x2="460.00" x1="530.00" y1="355.50" y2="380.00" /><line style="stroke:blue;fill:blue;" id="23514" x2="580.00" x1="530.00" y1="355.50" y2="330.00" /><line style="stroke:blue;fill:blue;" id="23515" x2="560.00" x1="530.00" y1="404.50" y2="460.00" /><line style="stroke:blue;fill:blue;" id="23516" x2="530.00" x1="530.00" y1="404.50" y2="355.50" /><line style="stroke:blue;fill:blue;" id="23517" x2="680.00" x1="560.00" y1="460.00" y2="480.00" /><line style="stroke:blue;fill:blue;" id="23518" x2="530.00" x1="560.00" y1="460.00" y2="404.50" /><line style="stroke:blue;fill:blue;" id="23519" x2="460.00" x1="560.00" y1="460.00" y2="430.00" /><line style="stroke:blue;fill:blue;" id="23520" x2="650.00" x1="560.00" y1="580.00" y2="600.00" /><line style="stroke:blue;fill:blue;" id="23521" x2="650.00" x1="560.00" y1="580.00" y2="700.00" /><line style="stroke:blue;fill:blue;" id="23522" x2="430.00" x1="560.00" y1="580.00" y2="560.00" /><line style="stroke:blue;fill:blue;" id="23523" x2="650.00" x1="560.00" y1="730.00" y2="600.00" /><line style="stroke:blue;fill:blue;" id="23524" x2="650.00" x1="560.00" y1="730.00" y2="700.00" /><line style="stroke:blue;fill:blue;" id="23525" x2="490.00" x1="560.00" y1="730.00" y2="750.00" /><line style="stroke:blue;fill:blue;" id="23526" x2="580.00" x1="560.00" y1="30.00" y2="80.00" /><line style="stroke:blue;fill:blue;" id="23527" x2="660.00" x1="580.00" y1="80.00" y2="80.00" /><line style="stroke:blue;fill:blue;" id="23528" x2="560.00" x1="580.00" y1="80.00" y2="30.00" /><line style="stroke:blue;fill:blue;" id="23529" x2="462.32" x1="580.00" y1="80.00" y2="112.32" /><line style="stroke:blue;fill:blue;" id="23530" x2="530.00" x1="580.00" y1="330.00" y2="355.50" /><line style="stroke:blue;fill:blue;" id="23531" x2="660.00" x1="580.00" y1="330.00" y2="380.00" /><line style="stroke:blue;fill:blue;" id="23532" x2="610.00" x1="580.00" y1="330.00" y2="280.00" /><line style="stroke:blue;fill:blue;" id="23533" x2="610.00" x1="610.00" y1="230.00" y2="280.00" /><line style="stroke:blue;fill:blue;" id="23534" x2="710.00" x1="610.00" y1="230.00" y2="260.00" /><line style="stroke:blue;fill:blue;" id="23535" x2="660.00" x1="610.00" y1="230.00" y2="200.00" /><line style="stroke:blue;fill:blue;" id="23536" x2="360.00" x1="610.00" y1="230.00" y2="230.00" /><line style="stroke:blue;fill:blue;" id="23537" x2="580.00" x1="610.00" y1="280.00" y2="330.00" /><line style="stroke:blue;fill:blue;" id="23538" x2="710.00" x1="610.00" y1="280.00" y2="260.00" /><line style="stroke:blue;fill:blue;" id="23539" x2="610.00" x1="610.00" y1="280.00" y2="230.00" /><line style="stroke:blue;fill:blue;" id="23540" x2="680.00" x1="650.00" y1="600.00" y2="480.00" /><line style="stroke:blue;fill:blue;" id="23541" x2="560.00" x1="650.00" y1="600.00" y2="580.00" /><line style="stroke:blue;fill:blue;" id="23542" x2="720.00" x1="650.00" y1="600.00" y2="600.00" /><line style="stroke:blue;fill:blue;" id="23543" x2="560.00" x1="650.00" y1="600.00" y2="730.00" /><line style="stroke:blue;fill:blue;" id="23544" x2="510.00" x1="650.00" y1="600.00" y2="630.00" /><line style="stroke:blue;fill:blue;" id="23545" x2="560.00" x1="650.00" y1="700.00" y2="580.00" /><line style="stroke:blue;fill:blue;" id="23546" x2="720.00" x1="650.00" y1="700.00" y2="600.00" /><line style="stroke:blue;fill:blue;" id="23547" x2="560.00" x1="650.00" y1="700.00" y2="730.00" /><line style="stroke:blue;fill:blue;" id="23548" x2="720.00" x1="650.00" y1="700.00" y2="700.00" /><line style="stroke:blue;fill:blue;" id="23549" x2="580.00" x1="660.00" y1="380.00" y2="330.00" /><line style="stroke:blue;fill:blue;" id="23550" x2="680.00" x1="660.00" y1="380.00" y2="330.00" /><line style="stroke:blue;fill:blue;" id="23551" x2="730.00" x1="660.00" y1="380.00" y2="380.00" /><line style="stroke:blue;fill:blue;" id="23552" x2="730.00" x1="660.00" y1="80.00" y2="130.00" /><line style="stroke:blue;fill:blue;" id="23553" x2="580.00" x1="660.00" y1="80.00" y2="80.00" /><line style="stroke:blue;fill:blue;" id="23554" x2="610.00" x1="660.00" y1="200.00" y2="230.00" /><line style="stroke:blue;fill:blue;" id="23555" x2="760.00" x1="660.00" y1="200.00" y2="230.00" /><line style="stroke:blue;fill:blue;" id="23556" x2="760.00" x1="660.00" y1="200.00" y2="180.00" /><line style="stroke:blue;fill:blue;" id="23557" x2="660.00" x1="680.00" y1="330.00" y2="380.00" /><line style="stroke:blue;fill:blue;" id="23558" x2="760.00" x1="680.00" y1="330.00" y2="330.00" /><line style="stroke:blue;fill:blue;" id="23559" x2="730.00" x1="680.00" y1="330.00" y2="380.00" /><line style="stroke:blue;fill:blue;" id="23560" x2="860.00" x1="680.00" y1="480.00" y2="455.50" /><line style="stroke:blue;fill:blue;" id="23561" x2="760.00" x1="680.00" y1="480.00" y2="530.00" /><line style="stroke:blue;fill:blue;" id="23562" x2="650.00" x1="680.00" y1="480.00" y2="600.00" /><line style="stroke:blue;fill:blue;" id="23563" x2="720.00" x1="680.00" y1="480.00" y2="600.00" /><line style="stroke:blue;fill:blue;" id="23564" x2="460.00" x1="680.00" y1="480.00" y2="500.00" /><line style="stroke:blue;fill:blue;" id="23565" x2="560.00" x1="680.00" y1="480.00" y2="460.00" /><line style="stroke:blue;fill:blue;" id="23566" x2="610.00" x1="710.00" y1="260.00" y2="280.00" /><line style="stroke:blue;fill:blue;" id="23567" x2="810.00" x1="710.00" y1="260.00" y2="280.00" /><line style="stroke:blue;fill:blue;" id="23568" x2="610.00" x1="710.00" y1="260.00" y2="230.00" /><line style="stroke:blue;fill:blue;" id="23569" x2="760.00" x1="710.00" y1="260.00" y2="230.00" /><line style="stroke:blue;fill:blue;" id="23570" x2="680.00" x1="720.00" y1="600.00" y2="480.00" /><line style="stroke:blue;fill:blue;" id="23571" x2="650.00" x1="720.00" y1="600.00" y2="600.00" /><line style="stroke:blue;fill:blue;" id="23572" x2="650.00" x1="720.00" y1="600.00" y2="700.00" /><line style="stroke:blue;fill:blue;" id="23573" x2="720.00" x1="720.00" y1="600.00" y2="700.00" /><line style="stroke:blue;fill:blue;" id="23574" x2="650.00" x1="720.00" y1="700.00" y2="700.00" /><line style="stroke:blue;fill:blue;" id="23575" x2="720.00" x1="720.00" y1="700.00" y2="600.00" /><line style="stroke:blue;fill:blue;" id="23576" x2="730.00" x1="730.00" y1="430.00" y2="380.00" /><line style="stroke:blue;fill:blue;" id="23577" x2="660.00" x1="730.00" y1="380.00" y2="380.00" /><line style="stroke:blue;fill:blue;" id="23578" x2="680.00" x1="730.00" y1="380.00" y2="330.00" /><line style="stroke:blue;fill:blue;" id="23579" x2="760.00" x1="730.00" y1="380.00" y2="330.00" /><line style="stroke:blue;fill:blue;" id="23580" x2="780.00" x1="730.00" y1="380.00" y2="380.00" /><line style="stroke:blue;fill:blue;" id="23581" x2="730.00" x1="730.00" y1="380.00" y2="430.00" /><line style="stroke:blue;fill:blue;" id="23582" x2="760.00" x1="730.00" y1="130.00" y2="180.00" /><line style="stroke:blue;fill:blue;" id="23583" x2="660.00" x1="730.00" y1="130.00" y2="80.00" /><line style="stroke:blue;fill:blue;" id="23584" x2="760.00" x1="730.00" y1="130.00" y2="80.00" /><line style="stroke:blue;fill:blue;" id="23585" x2="660.00" x1="760.00" y1="180.00" y2="200.00" /><line style="stroke:blue;fill:blue;" id="23586" x2="730.00" x1="760.00" y1="180.00" y2="130.00" /><line style="stroke:blue;fill:blue;" id="23587" x2="860.00" x1="760.00" y1="180.00" y2="130.00" /><line style="stroke:blue;fill:blue;" id="23588" x2="860.00" x1="760.00" y1="180.00" y2="180.00" /><line style="stroke:blue;fill:blue;" id="23589" x2="680.00" x1="760.00" y1="330.00" y2="330.00" /><line style="stroke:blue;fill:blue;" id="23590" x2="730.00" x1="760.00" y1="330.00" y2="380.00" /><line style="stroke:blue;fill:blue;" id="23591" x2="810.00" x1="760.00" y1="530.00" y2="580.00" /><line style="stroke:blue;fill:blue;" id="23592" x2="680.00" x1="760.00" y1="530.00" y2="480.00" /><line style="stroke:blue;fill:blue;" id="23593" x2="710.00" x1="760.00" y1="230.00" y2="260.00" /><line style="stroke:blue;fill:blue;" id="23594" x2="810.00" x1="760.00" y1="230.00" y2="280.00" /><line style="stroke:blue;fill:blue;" id="23595" x2="660.00" x1="760.00" y1="230.00" y2="200.00" /><line style="stroke:blue;fill:blue;" id="23596" x2="730.00" x1="780.00" y1="380.00" y2="380.00" /><line style="stroke:blue;fill:blue;" id="23597" x2="880.00" x1="810.00" y1="280.00" y2="380.00" /><line style="stroke:blue;fill:blue;" id="23598" x2="710.00" x1="810.00" y1="280.00" y2="260.00" /><line style="stroke:blue;fill:blue;" id="23599" x2="760.00" x1="810.00" y1="280.00" y2="230.00" /><line style="stroke:blue;fill:blue;" id="23600" x2="760.00" x1="860.00" y1="130.00" y2="180.00" /><line style="stroke:blue;fill:blue;" id="23601" x2="860.00" x1="860.00" y1="130.00" y2="80.00" /><line style="stroke:blue;fill:blue;" id="23602" x2="760.00" x1="860.00" y1="180.00" y2="180.00" /><line style="stroke:blue;fill:blue;" id="23603" x2="960.00" x1="860.00" y1="180.00" y2="140.00" /><line style="stroke:blue;fill:blue;" id="23604" x2="960.00" x1="860.00" y1="455.50" y2="390.00" /><line style="stroke:blue;fill:blue;" id="23605" x2="880.00" x1="860.00" y1="455.50" y2="380.00" /><line style="stroke:blue;fill:blue;" id="23606" x2="960.00" x1="860.00" y1="455.50" y2="490.00" /><line style="stroke:blue;fill:blue;" id="23607" x2="680.00" x1="860.00" y1="455.50" y2="480.00" /><line style="stroke:blue;fill:blue;" id="23608" x2="860.00" x1="860.00" y1="455.50" y2="504.50" /><line style="stroke:blue;fill:blue;" id="23609" x2="860.00" x1="880.00" y1="380.00" y2="455.50" /><line style="stroke:blue;fill:blue;" id="23610" x2="960.00" x1="880.00" y1="380.00" y2="390.00" /><line style="stroke:blue;fill:blue;" id="23611" x2="810.00" x1="880.00" y1="380.00" y2="280.00" /><line style="stroke:blue;fill:blue;" id="23612" x2="860.00" x1="960.00" y1="490.00" y2="455.50" /><line style="stroke:blue;fill:blue;" id="23613" x2="990.00" x1="960.00" y1="490.00" y2="440.00" /><line style="stroke:blue;fill:blue;" id="23614" x2="860.00" x1="960.00" y1="390.00" y2="455.50" /><line style="stroke:blue;fill:blue;" id="23615" x2="990.00" x1="960.00" y1="390.00" y2="440.00" /><line style="stroke:blue;fill:blue;" id="23616" x2="880.00" x1="960.00" y1="390.00" y2="380.00" /><line style="stroke:blue;fill:blue;" id="23617" x2="970.00" x1="960.00" y1="390.00" y2="340.00" /><line style="stroke:blue;fill:blue;" id="23618" x2="960.00" x1="990.00" y1="440.00" y2="390.00" /><line style="stroke:blue;fill:blue;" id="23619" x2="960.00" x1="990.00" y1="440.00" y2="490.00" /><line style="stroke:blue;fill:blue;" id="23620" x2="100.00" x1="60.00" y1="430.00" y2="480.00" /><line style="stroke:blue;fill:blue;" id="23621" x2="230.00" x1="180.00" y1="280.00" y2="200.00" /><line style="stroke:blue;fill:blue;" id="23622" x2="230.00" x1="260.00" y1="280.00" y2="200.00" /><line style="stroke:blue;fill:blue;" id="23623" x2="410.00" x1="310.00" y1="60.00" y2="30.00" /><line style="stroke:blue;fill:blue;" id="23624" x2="650.00" x1="510.00" y1="630.00" y2="600.00" /><line style="stroke:blue;fill:blue;" id="23625" x2="430.00" x1="510.00" y1="630.00" y2="680.00" /><line style="stroke:blue;fill:blue;" id="23626" x2="730.00" x1="760.00" y1="80.00" y2="130.00" /><line style="stroke:blue;fill:blue;" id="23627" x2="760.00" x1="810.00" y1="580.00" y2="530.00" /><line style="stroke:blue;fill:blue;" id="23628" x2="860.00" x1="860.00" y1="80.00" y2="130.00" /><line style="stroke:blue;fill:blue;" id="23629" x2="860.00" x1="860.00" y1="504.50" y2="455.50" /><line style="stroke:blue;fill:blue;" id="23630" x2="860.00" x1="960.00" y1="140.00" y2="180.00" /><line style="stroke:blue;fill:blue;" id="23631" x2="60.00" x1="60.00" y1="630.00" y2="580.00" /><line style="stroke:blue;fill:blue;" id="23632" x2="960.00" x1="970.00" y1="340.00" y2="390.00" /></svg>
