<?xml version="1.0" standalone="yes"?><!DOCTYPE svg PUBLIC "-//W3C//DTD SVG 1.1//EN" "http://www.w3.org/Graphics/SVG/1.1/DTD/svg11.dtd"[]><svg height="800.00" id="23173" width="1050.00" xmlns="http://www.w3.org/2000/svg" xmlns:xlink="http://www.w3.org/1999/xlink"><rect Type="system" Region="宁静之域" height="5.00" y="147.68" Name="查尔达兰" width="5.00" x="27.68" id="23174" ID="30003834" /><text x="27.68" y="147.68" id="23175">查尔达兰</text><rect Type="system" Region="宁静之域" height="5.00" y="580.00" Name="克宁科" width="5.00" x="60.00" id="23177" ID="30003823" /><text x="60.00" y="580.00" id="23178">克宁科</text><rect Type="system" Region="宁静之域" height="5.00" y="182.32" Name="挨达辛" width="5.00" x="62.32" id="23180" ID="30003832" /><text x="62.32" y="182.32" id="23181">挨达辛</text><rect Type="system" Region="宁静之域" height="5.00" y="480.00" Name="维斯托维" width="5.00" x="100.00" id="23183" ID="30003820" /><text x="100.00" y="480.00" id="23184">维斯托维</text><rect Type="system" Region="宁静之域" height="5.00" y="560.00" Name="奥苏马特" width="5.00" x="110.00" id="23186" ID="30003821" /><text x="110.00" y="560.00" id="23187">奥苏马特</text><rect Type="system" Region="宁静之域" height="5.00" y="160.00" Name="毛特" width="5.00" x="130.00" id="23189" ID="30003835" /><text x="130.00" y="160.00" id="23190">毛特</text><rect Type="system" Region="宁静之域" height="5.00" y="430.00" Name="厄斯皮格尔" width="5.00" x="130.00" id="23192" ID="30003822" /><text x="130.00" y="430.00" id="23193">厄斯皮格尔</text><rect Type="system" Region="宁静之域" height="5.00" y="510.00" Name="巴尔勒归斯" width="5.00" x="140.00" id="23195" ID="30003819" /><text x="140.00" y="510.00" id="23196">巴尔勒归斯</text><rect Type="system" Region="宁静之域" height="5.00" y="200.00" Name="奥斯梅登" width="5.00" x="160.00" id="23198" ID="30003831" /><text x="160.00" y="200.00" id="23199">奥斯梅登</text><rect Type="system" Region="宁静之域" height="5.00" y="130.00" Name="阿尔帕伦纳" width="5.00" x="190.00" id="23201" ID="30003850" /><text x="190.00" y="130.00" id="23202">阿尔帕伦纳</text><rect Type="system" Region="宁静之域" height="5.00" y="50.00" Name="埃托伦" width="5.00" x="160.00" id="23204" ID="30003856" /><text x="160.00" y="50.00" id="23205">埃托伦</text><rect Type="system" Region="暗涌之域" height="5.00" y="40.00" Name="萨马奴尼" width="5.00" x="100.00" id="23207" ID="30045322" /><text x="100.00" y="40.00" id="23208">萨马奴尼</text><rect Type="system" Region="宁静之域" height="5.00" y="530.00" Name="奥布勒斯" width="5.00" x="210.00" id="23210" ID="30003818" /><text x="210.00" y="530.00" id="23211">奥布勒斯</text><rect Type="system" Region="宁静之域" height="5.00" y="200.00" Name="俄沃勒" width="5.00" x="230.00" id="23213" ID="30003830" /><text x="230.00" y="200.00" id="23214">俄沃勒</text><rect Type="system" Region="宁静之域" height="5.00" y="60.00" Name="梅尔克密西尔" width="5.00" x="230.00" id="23216" ID="30003853" /><text x="230.00" y="60.00" id="23217">梅尔克密西尔</text><rect Type="system" Region="宁静之域" height="5.00" y="110.00" Name="瑞舒尔德" width="5.00" x="260.00" id="23219" ID="30003851" /><text x="260.00" y="110.00" id="23220">瑞舒尔德</text><rect Type="system" Region="宁静之域" height="5.00" y="530.00" Name="加勒" width="5.00" x="310.00" id="23222" ID="30003805" /><text x="310.00" y="530.00" id="23223">加勒</text><rect Type="system" Region="宁静之域" height="5.00" y="760.00" Name="赫多贝尔" width="5.00" x="310.00" id="23225" ID="30003846" /><text x="310.00" y="760.00" id="23226">赫多贝尔</text><rect Type="system" Region="宁静之域" height="5.00" y="700.00" Name="瑞罗塔" width="5.00" x="310.00" id="23228" ID="30003845" /><text x="310.00" y="700.00" id="23229">瑞罗塔</text><rect Type="system" Region="宁静之域" height="5.00" y="230.00" Name="奥列" width="5.00" x="360.00" id="23231" ID="30003833" /><text x="360.00" y="230.00" id="23232">奥列</text><rect Type="system" Region="宁静之域" height="5.00" y="430.00" Name="佩恩" width="5.00" x="360.00" id="23234" ID="30003804" /><text x="360.00" y="430.00" id="23235">佩恩</text><rect Type="system" Region="宁静之域" height="5.00" y="680.00" Name="加鲁希恩" width="5.00" x="360.00" id="23237" ID="30003844" /><text x="360.00" y="680.00" id="23238">加鲁希恩</text><rect Type="system" Region="宁静之域" height="5.00" y="780.00" Name="奥波涅" width="5.00" x="360.00" id="23240" ID="30003849" /><text x="360.00" y="780.00" id="23241">奥波涅</text><rect Type="system" Region="宁静之域" height="5.00" y="480.00" Name="瑞尼尔" width="5.00" x="360.00" id="23243" ID="30003803" /><text x="360.00" y="480.00" id="23244">瑞尼尔</text><rect Type="system" Region="宁静之域" height="5.00" y="530.00" Name="奥索" width="5.00" x="360.00" id="23246" ID="30003801" /><text x="360.00" y="530.00" id="23247">奥索</text><rect Type="system" Region="宁静之域" height="5.00" y="100.00" Name="阿德罗尼" width="5.00" x="380.00" id="23249" ID="30003852" /><text x="380.00" y="100.00" id="23250">阿德罗尼</text><rect Type="system" Region="宁静之域" height="5.00" y="30.00" Name="曼特劳提" width="5.00" x="410.00" id="23252" ID="30003855" /><text x="410.00" y="30.00" id="23253">曼特劳提</text><rect Type="system" Region="宁静之域" height="5.00" y="560.00" Name="卡梅玛尔" width="5.00" x="430.00" id="23255" ID="30003802" /><text x="430.00" y="560.00" id="23256">卡梅玛尔</text><rect Type="system" Region="宁静之域" height="5.00" y="680.00" Name="埃瓦奥克" width="5.00" x="430.00" id="23258" ID="30003843" /><text x="430.00" y="680.00" id="23259">埃瓦奥克</text><rect Type="system" Region="宁静之域" height="5.00" y="77.68" Name="埃拉梅尔" width="5.00" x="427.68" id="23261" ID="30003854" /><text x="427.68" y="77.68" id="23262">埃拉梅尔</text><rect Type="system" Region="宁静之域" height="5.00" y="780.00" Name="阿玛西尔" width="5.00" x="450.00" id="23264" ID="30003848" /><text x="450.00" y="780.00" id="23265">阿玛西尔</text><rect Type="system" Region="宁静之域" height="5.00" y="380.00" Name="布瑞利斯迪尔" width="5.00" x="460.00" id="23267" ID="30003809" /><text x="460.00" y="380.00" id="23268">布瑞利斯迪尔</text><rect Type="system" Region="宁静之域" height="5.00" y="430.00" Name="吉斯拜尔" width="5.00" x="460.00" id="23270" ID="30003808" /><text x="460.00" y="430.00" id="23271">吉斯拜尔</text><rect Type="system" Region="宁静之域" height="5.00" y="112.32" Name="奥达米亚" width="5.00" x="462.32" id="23273" ID="30003857" /><text x="462.32" y="112.32" id="23274">奥达米亚</text><rect Type="system" Region="宁静之域" height="5.00" y="500.00" Name="阿尔皮劳特" width="5.00" x="460.00" id="23276" ID="30003800" /><text x="460.00" y="500.00" id="23277">阿尔皮劳特</text><rect Type="system" Region="宁静之域" height="5.00" y="750.00" Name="阿曼恩" width="5.00" x="490.00" id="23279" ID="30003847" /><text x="490.00" y="750.00" id="23280">阿曼恩</text><rect Type="system" Region="宁静之域" height="5.00" y="355.50" Name="维瓦尼尔" width="5.00" x="530.00" id="23282" ID="30003810" /><text x="530.00" y="355.50" id="23283">维瓦尼尔</text><rect Type="system" Region="宁静之域" height="5.00" y="404.50" Name="朵儿" width="5.00" x="530.00" id="23285" ID="30003807" /><text x="530.00" y="404.50" id="23286">朵儿</text><rect Type="system" Region="宁静之域" height="5.00" y="460.00" Name="佩里勒" width="5.00" x="560.00" id="23288" ID="30003806" /><text x="560.00" y="460.00" id="23289">佩里勒</text><rect Type="system" Region="宁静之域" height="5.00" y="580.00" Name="卡维因" width="5.00" x="560.00" id="23291" ID="30003795" /><text x="560.00" y="580.00" id="23292">卡维因</text><rect Type="system" Region="宁静之域" height="5.00" y="730.00" Name="斯雷斯" width="5.00" x="560.00" id="23294" ID="30003798" /><text x="560.00" y="730.00" id="23295">斯雷斯</text><rect Type="system" Region="宁静之域" height="5.00" y="30.00" Name="伊瑟塞尔" width="5.00" x="560.00" id="23297" ID="30003842" /><text x="560.00" y="30.00" id="23298">伊瑟塞尔</text><rect Type="system" Region="宁静之域" height="5.00" y="80.00" Name="安乔特斯" width="5.00" x="580.00" id="23300" ID="30003840" /><text x="580.00" y="80.00" id="23301">安乔特斯</text><rect Type="system" Region="宁静之域" height="5.00" y="330.00" Name="阿加圣纳" width="5.00" x="580.00" id="23303" ID="30003811" /><text x="580.00" y="330.00" id="23304">阿加圣纳</text><rect Type="system" Region="宁静之域" height="5.00" y="230.00" Name="奥贝纳尔" width="5.00" x="610.00" id="23306" ID="30003827" /><text x="610.00" y="230.00" id="23307">奥贝纳尔</text><rect Type="system" Region="宁静之域" height="5.00" y="280.00" Name="埃察沃内特" width="5.00" x="610.00" id="23309" ID="30003824" /><text x="610.00" y="280.00" id="23310">埃察沃内特</text><rect Type="system" Region="宁静之域" height="5.00" y="600.00" Name="斯塔克蒙" width="5.00" x="650.00" id="23312" ID="30003794" /><text x="650.00" y="600.00" id="23313">斯塔克蒙</text><rect Type="system" Region="宁静之域" height="5.00" y="700.00" Name="埃格斯" width="5.00" x="650.00" id="23315" ID="30003796" /><text x="650.00" y="700.00" id="23316">埃格斯</text><rect Type="system" Region="宁静之域" height="5.00" y="380.00" Name="奥斯玛兰奈斯" width="5.00" x="660.00" id="23318" ID="30003812" /><text x="660.00" y="380.00" id="23319">奥斯玛兰奈斯</text><rect Type="system" Region="宁静之域" height="5.00" y="80.00" Name="伊万伦" width="5.00" x="660.00" id="23321" ID="30003839" /><text x="660.00" y="80.00" id="23322">伊万伦</text><rect Type="system" Region="宁静之域" height="5.00" y="200.00" Name="瑞纳惹勒" width="5.00" x="660.00" id="23324" ID="30003829" /><text x="660.00" y="200.00" id="23325">瑞纳惹勒</text><rect Type="system" Region="宁静之域" height="5.00" y="330.00" Name="伊沃莱德尔" width="5.00" x="680.00" id="23327" ID="30003813" /><text x="680.00" y="330.00" id="23328">伊沃莱德尔</text><rect Type="system" Region="宁静之域" height="5.00" y="480.00" Name="奥斯汀格勒" width="5.00" x="680.00" id="23330" ID="30003792" /><text x="680.00" y="480.00" id="23331">奥斯汀格勒</text><rect Type="system" Region="宁静之域" height="5.00" y="260.00" Name="尤加勒斯" width="5.00" x="710.00" id="23333" ID="30003825" /><text x="710.00" y="260.00" id="23334">尤加勒斯</text><rect Type="system" Region="宁静之域" height="5.00" y="600.00" Name="达斯顿斯" width="5.00" x="720.00" id="23336" ID="30003797" /><text x="720.00" y="600.00" id="23337">达斯顿斯</text><rect Type="system" Region="宁静之域" height="5.00" y="700.00" Name="乌法兰特" width="5.00" x="720.00" id="23339" ID="30003799" /><text x="720.00" y="700.00" id="23340">乌法兰特</text><rect Type="system" Region="宁静之域" height="5.00" y="430.00" Name="欧玛依惹" width="5.00" x="730.00" id="23342" ID="30003817" /><text x="730.00" y="430.00" id="23343">欧玛依惹</text><rect Type="system" Region="宁静之域" height="5.00" y="380.00" Name="伊弗尤尔" width="5.00" x="730.00" id="23345" ID="30003815" /><text x="730.00" y="380.00" id="23346">伊弗尤尔</text><rect Type="system" Region="宁静之域" height="5.00" y="130.00" Name="阿尔达然特" width="5.00" x="730.00" id="23348" ID="30003837" /><text x="730.00" y="130.00" id="23349">阿尔达然特</text><rect Type="system" Region="宁静之域" height="5.00" y="180.00" Name="利里瑞尔" width="5.00" x="760.00" id="23351" ID="30003836" /><text x="760.00" y="180.00" id="23352">利里瑞尔</text><rect Type="system" Region="宁静之域" height="5.00" y="330.00" Name="默林" width="5.00" x="760.00" id="23354" ID="30003814" /><text x="760.00" y="330.00" id="23355">默林</text><rect Type="system" Region="宁静之域" height="5.00" y="530.00" Name="哈洛勒" width="5.00" x="760.00" id="23357" ID="30003793" /><text x="760.00" y="530.00" id="23358">哈洛勒</text><rect Type="system" Region="宁静之域" height="5.00" y="230.00" Name="莫克琳纳摩德" width="5.00" x="760.00" id="23360" ID="30003828" /><text x="760.00" y="230.00" id="23361">莫克琳纳摩德</text><rect Type="system" Region="宁静之域" height="5.00" y="380.00" Name="维林论" width="5.00" x="780.00" id="23363" ID="30003816" /><text x="780.00" y="380.00" id="23364">维林论</text><rect Type="system" Region="宁静之域" height="5.00" y="280.00" Name="弗拉烈" width="5.00" x="810.00" id="23366" ID="30003826" /><text x="810.00" y="280.00" id="23367">弗拉烈</text><rect Type="system" Region="宁静之域" height="5.00" y="130.00" Name="奥伊瑟克斯" width="5.00" x="860.00" id="23369" ID="30003838" /><text x="860.00" y="130.00" id="23370">奥伊瑟克斯</text><rect Type="system" Region="宁静之域" height="5.00" y="180.00" Name="奥萨温伦" width="5.00" x="860.00" id="23372" ID="30003841" /><text x="860.00" y="180.00" id="23373">奥萨温伦</text><rect Type="system" Region="宁静之域" height="5.00" y="455.50" Name="埃格则" width="5.00" x="860.00" id="23375" ID="30003787" /><text x="860.00" y="455.50" id="23376">埃格则</text><rect Type="system" Region="宁静之域" height="5.00" y="380.00" Name="维耶" width="5.00" x="880.00" id="23378" ID="30003790" /><text x="880.00" y="380.00" id="23379">维耶</text><rect Type="system" Region="宁静之域" height="5.00" y="490.00" Name="安南克勒" width="5.00" x="960.00" id="23381" ID="30003791" /><text x="960.00" y="490.00" id="23382">安南克勒</text><rect Type="system" Region="宁静之域" height="5.00" y="390.00" Name="印塔基" width="5.00" x="960.00" id="23384" ID="30003788" /><text x="960.00" y="390.00" id="23385">印塔基</text><rect Type="system" Region="宁静之域" height="5.00" y="440.00" Name="布拉热" width="5.00" x="990.00" id="23387" ID="30003789" /><text x="990.00" y="440.00" id="23388">布拉热</text><rect Type="system" Region="辛迪加" height="5.00" y="430.00" Name="TXW-EI" width="5.00" x="60.00" id="23390" ID="30003323" /><text x="60.00" y="430.00" id="23391">TXW-EI</text><rect Type="system" Region="辛迪加" height="5.00" y="280.00" Name="PF-346" width="5.00" x="180.00" id="23393" ID="30003277" /><text x="180.00" y="280.00" id="23394">PF-346</text><rect Type="system" Region="精华之域" height="5.00" y="280.00" Name="美希比尔" width="5.00" x="260.00" id="23396" ID="30004975" /><text x="260.00" y="280.00" id="23397">美希比尔</text><rect Type="system" Region="黑渊" height="5.00" y="60.00" Name="RQH-MY" width="5.00" x="310.00" id="23399" ID="30002039" /><text x="310.00" y="60.00" id="23400">RQH-MY</text><rect Type="system" Region="维格温铎" height="5.00" y="630.00" Name="埃达尔特" width="5.00" x="510.00" id="23402" ID="30005307" /><text x="510.00" y="630.00" id="23403">埃达尔特</text><rect Type="system" Region="暗涌之域" height="5.00" y="80.00" Name="涅娜麦拉" width="5.00" x="760.00" id="23405" ID="30045344" /><text x="760.00" y="80.00" id="23406">涅娜麦拉</text><rect Type="system" Region="辛迪加" height="5.00" y="580.00" Name="MHC-R3" width="5.00" x="810.00" id="23408" ID="30003268" /><text x="810.00" y="580.00" id="23409">MHC-R3</text><rect Type="system" Region="暗涌之域" height="5.00" y="80.00" Name="伊哈" width="5.00" x="860.00" id="23411" ID="30045319" /><text x="860.00" y="80.00" id="23412">伊哈</text><rect Type="system" Region="维格温铎" height="5.00" y="504.50" Name="罗耶斯" width="5.00" x="860.00" id="23414" ID="30005300" /><text x="860.00" y="504.50" id="23415">罗耶斯</text><rect Type="system" Region="云环" height="5.00" y="140.00" Name="F7C-H0" width="5.00" x="960.00" id="23417" ID="30004046" /><text x="960.00" y="140.00" id="23418">F7C-H0</text><rect Type="system" Region="孤独之域" height="5.00" y="630.00" Name="伊格横农" width="5.00" x="60.00" id="23420" ID="30003605" /><text x="60.00" y="630.00" id="23421">伊格横农</text><rect Type="system" Region="赞颂之域" height="5.00" y="240.00" Name="荒渊" width="5.00" x="900.00" id="23423" ID="30100000" /><text x="900.00" y="240.00" id="23424">荒渊</text><rect Type="system" Region="维格温铎" height="5.00" y="340.00" Name="埃米格农" width="5.00" x="970.00" id="23426" ID="30005311" /><text x="970.00" y="340.00" id="23427">埃米格农</text><line x2="62.32" style="fill:blue;stroke:blue;" y1="147.68" x1="27.68" id="23429" y2="182.32" /><line x2="110.00" style="fill:blue;stroke:blue;" y1="580.00" x1="60.00" id="23430" y2="560.00" /><line x2="60.00" style="fill:blue;stroke:blue;" y1="580.00" x1="60.00" id="23431" y2="630.00" /><line x2="160.00" style="fill:blue;stroke:blue;" y1="182.32" x1="62.32" id="23432" y2="200.00" /><line x2="27.68" style="fill:blue;stroke:blue;" y1="182.32" x1="62.32" id="23433" y2="147.68" /><line x2="130.00" style="fill:blue;stroke:blue;" y1="182.32" x1="62.32" id="23434" y2="160.00" /><line x2="60.00" style="fill:blue;stroke:blue;" y1="480.00" x1="100.00" id="23435" y2="430.00" /><line x2="140.00" style="fill:blue;stroke:blue;" y1="480.00" x1="100.00" id="23436" y2="510.00" /><line x2="130.00" style="fill:blue;stroke:blue;" y1="480.00" x1="100.00" id="23437" y2="430.00" /><line x2="140.00" style="fill:blue;stroke:blue;" y1="560.00" x1="110.00" id="23438" y2="510.00" /><line x2="60.00" style="fill:blue;stroke:blue;" y1="560.00" x1="110.00" id="23439" y2="580.00" /><line x2="160.00" style="fill:blue;stroke:blue;" y1="160.00" x1="130.00" id="23440" y2="200.00" /><line x2="62.32" style="fill:blue;stroke:blue;" y1="160.00" x1="130.00" id="23441" y2="182.32" /><line x2="190.00" style="fill:blue;stroke:blue;" y1="160.00" x1="130.00" id="23442" y2="130.00" /><line x2="100.00" style="fill:blue;stroke:blue;" y1="430.00" x1="130.00" id="23443" y2="480.00" /><line x2="210.00" style="fill:blue;stroke:blue;" y1="510.00" x1="140.00" id="23444" y2="530.00" /><line x2="100.00" style="fill:blue;stroke:blue;" y1="510.00" x1="140.00" id="23445" y2="480.00" /><line x2="110.00" style="fill:blue;stroke:blue;" y1="510.00" x1="140.00" id="23446" y2="560.00" /><line x2="230.00" style="fill:blue;stroke:blue;" y1="200.00" x1="160.00" id="23447" y2="200.00" /><line x2="62.32" style="fill:blue;stroke:blue;" y1="200.00" x1="160.00" id="23448" y2="182.32" /><line x2="130.00" style="fill:blue;stroke:blue;" y1="200.00" x1="160.00" id="23449" y2="160.00" /><line x2="130.00" style="fill:blue;stroke:blue;" y1="130.00" x1="190.00" id="23450" y2="160.00" /><line x2="260.00" style="fill:blue;stroke:blue;" y1="130.00" x1="190.00" id="23451" y2="110.00" /><line x2="230.00" style="fill:blue;stroke:blue;" y1="50.00" x1="160.00" id="23452" y2="60.00" /><line x2="100.00" style="fill:blue;stroke:blue;" y1="50.00" x1="160.00" id="23453" y2="40.00" /><line x2="160.00" style="fill:blue;stroke:blue;" y1="40.00" x1="100.00" id="23454" y2="50.00" /><line x2="310.00" style="fill:blue;stroke:blue;" y1="530.00" x1="210.00" id="23455" y2="530.00" /><line x2="140.00" style="fill:blue;stroke:blue;" y1="530.00" x1="210.00" id="23456" y2="510.00" /><line x2="180.00" style="fill:blue;stroke:blue;" y1="200.00" x1="230.00" id="23457" y2="280.00" /><line x2="160.00" style="fill:blue;stroke:blue;" y1="200.00" x1="230.00" id="23458" y2="200.00" /><line x2="360.00" style="fill:blue;stroke:blue;" y1="200.00" x1="230.00" id="23459" y2="230.00" /><line x2="260.00" style="fill:blue;stroke:blue;" y1="200.00" x1="230.00" id="23460" y2="280.00" /><line x2="260.00" style="fill:blue;stroke:blue;" y1="60.00" x1="230.00" id="23461" y2="110.00" /><line x2="160.00" style="fill:blue;stroke:blue;" y1="60.00" x1="230.00" id="23462" y2="50.00" /><line x2="190.00" style="fill:blue;stroke:blue;" y1="110.00" x1="260.00" id="23463" y2="130.00" /><line x2="380.00" style="fill:blue;stroke:blue;" y1="110.00" x1="260.00" id="23464" y2="100.00" /><line x2="230.00" style="fill:blue;stroke:blue;" y1="110.00" x1="260.00" id="23465" y2="60.00" /><line x2="360.00" style="fill:blue;stroke:blue;" y1="530.00" x1="310.00" id="23466" y2="530.00" /><line x2="210.00" style="fill:blue;stroke:blue;" y1="530.00" x1="310.00" id="23467" y2="530.00" /><line x2="310.00" style="fill:blue;stroke:blue;" y1="760.00" x1="310.00" id="23468" y2="700.00" /><line x2="360.00" style="fill:blue;stroke:blue;" y1="760.00" x1="310.00" id="23469" y2="780.00" /><line x2="360.00" style="fill:blue;stroke:blue;" y1="700.00" x1="310.00" id="23470" y2="680.00" /><line x2="310.00" style="fill:blue;stroke:blue;" y1="700.00" x1="310.00" id="23471" y2="760.00" /><line x2="490.00" style="fill:blue;stroke:blue;" y1="700.00" x1="310.00" id="23472" y2="750.00" /><line x2="610.00" style="fill:blue;stroke:blue;" y1="230.00" x1="360.00" id="23473" y2="230.00" /><line x2="230.00" style="fill:blue;stroke:blue;" y1="230.00" x1="360.00" id="23474" y2="200.00" /><line x2="360.00" style="fill:blue;stroke:blue;" y1="430.00" x1="360.00" id="23475" y2="480.00" /><line x2="430.00" style="fill:blue;stroke:blue;" y1="680.00" x1="360.00" id="23476" y2="680.00" /><line x2="310.00" style="fill:blue;stroke:blue;" y1="680.00" x1="360.00" id="23477" y2="700.00" /><line x2="310.00" style="fill:blue;stroke:blue;" y1="780.00" x1="360.00" id="23478" y2="760.00" /><line x2="450.00" style="fill:blue;stroke:blue;" y1="780.00" x1="360.00" id="23479" y2="780.00" /><line x2="360.00" style="fill:blue;stroke:blue;" y1="480.00" x1="360.00" id="23480" y2="530.00" /><line x2="360.00" style="fill:blue;stroke:blue;" y1="480.00" x1="360.00" id="23481" y2="430.00" /><line x2="460.00" style="fill:blue;stroke:blue;" y1="530.00" x1="360.00" id="23482" y2="500.00" /><line x2="430.00" style="fill:blue;stroke:blue;" y1="530.00" x1="360.00" id="23483" y2="560.00" /><line x2="360.00" style="fill:blue;stroke:blue;" y1="530.00" x1="360.00" id="23484" y2="480.00" /><line x2="310.00" style="fill:blue;stroke:blue;" y1="530.00" x1="360.00" id="23485" y2="530.00" /><line x2="260.00" style="fill:blue;stroke:blue;" y1="100.00" x1="380.00" id="23486" y2="110.00" /><line x2="427.68" style="fill:blue;stroke:blue;" y1="100.00" x1="380.00" id="23487" y2="77.68" /><line x2="462.32" style="fill:blue;stroke:blue;" y1="100.00" x1="380.00" id="23488" y2="112.32" /><line x2="310.00" style="fill:blue;stroke:blue;" y1="30.00" x1="410.00" id="23489" y2="60.00" /><line x2="427.68" style="fill:blue;stroke:blue;" y1="30.00" x1="410.00" id="23490" y2="77.68" /><line x2="560.00" style="fill:blue;stroke:blue;" y1="560.00" x1="430.00" id="23491" y2="580.00" /><line x2="360.00" style="fill:blue;stroke:blue;" y1="560.00" x1="430.00" id="23492" y2="530.00" /><line x2="360.00" style="fill:blue;stroke:blue;" y1="680.00" x1="430.00" id="23493" y2="680.00" /><line x2="510.00" style="fill:blue;stroke:blue;" y1="680.00" x1="430.00" id="23494" y2="630.00" /><line x2="380.00" style="fill:blue;stroke:blue;" y1="77.68" x1="427.68" id="23495" y2="100.00" /><line x2="410.00" style="fill:blue;stroke:blue;" y1="77.68" x1="427.68" id="23496" y2="30.00" /><line x2="462.32" style="fill:blue;stroke:blue;" y1="77.68" x1="427.68" id="23497" y2="112.32" /><line x2="490.00" style="fill:blue;stroke:blue;" y1="780.00" x1="450.00" id="23498" y2="750.00" /><line x2="360.00" style="fill:blue;stroke:blue;" y1="780.00" x1="450.00" id="23499" y2="780.00" /><line x2="460.00" style="fill:blue;stroke:blue;" y1="380.00" x1="460.00" id="23500" y2="430.00" /><line x2="530.00" style="fill:blue;stroke:blue;" y1="380.00" x1="460.00" id="23501" y2="355.50" /><line x2="560.00" style="fill:blue;stroke:blue;" y1="430.00" x1="460.00" id="23502" y2="460.00" /><line x2="460.00" style="fill:blue;stroke:blue;" y1="430.00" x1="460.00" id="23503" y2="380.00" /><line x2="580.00" style="fill:blue;stroke:blue;" y1="112.32" x1="462.32" id="23504" y2="80.00" /><line x2="380.00" style="fill:blue;stroke:blue;" y1="112.32" x1="462.32" id="23505" y2="100.00" /><line x2="427.68" style="fill:blue;stroke:blue;" y1="112.32" x1="462.32" id="23506" y2="77.68" /><line x2="680.00" style="fill:blue;stroke:blue;" y1="500.00" x1="460.00" id="23507" y2="480.00" /><line x2="360.00" style="fill:blue;stroke:blue;" y1="500.00" x1="460.00" id="23508" y2="530.00" /><line x2="560.00" style="fill:blue;stroke:blue;" y1="750.00" x1="490.00" id="23509" y2="730.00" /><line x2="310.00" style="fill:blue;stroke:blue;" y1="750.00" x1="490.00" id="23510" y2="700.00" /><line x2="450.00" style="fill:blue;stroke:blue;" y1="750.00" x1="490.00" id="23511" y2="780.00" /><line x2="530.00" style="fill:blue;stroke:blue;" y1="355.50" x1="530.00" id="23512" y2="404.50" /><line x2="460.00" style="fill:blue;stroke:blue;" y1="355.50" x1="530.00" id="23513" y2="380.00" /><line x2="580.00" style="fill:blue;stroke:blue;" y1="355.50" x1="530.00" id="23514" y2="330.00" /><line x2="560.00" style="fill:blue;stroke:blue;" y1="404.50" x1="530.00" id="23515" y2="460.00" /><line x2="530.00" style="fill:blue;stroke:blue;" y1="404.50" x1="530.00" id="23516" y2="355.50" /><line x2="680.00" style="fill:blue;stroke:blue;" y1="460.00" x1="560.00" id="23517" y2="480.00" /><line x2="530.00" style="fill:blue;stroke:blue;" y1="460.00" x1="560.00" id="23518" y2="404.50" /><line x2="460.00" style="fill:blue;stroke:blue;" y1="460.00" x1="560.00" id="23519" y2="430.00" /><line x2="650.00" style="fill:blue;stroke:blue;" y1="580.00" x1="560.00" id="23520" y2="600.00" /><line x2="650.00" style="fill:blue;stroke:blue;" y1="580.00" x1="560.00" id="23521" y2="700.00" /><line x2="430.00" style="fill:blue;stroke:blue;" y1="580.00" x1="560.00" id="23522" y2="560.00" /><line x2="650.00" style="fill:blue;stroke:blue;" y1="730.00" x1="560.00" id="23523" y2="600.00" /><line x2="650.00" style="fill:blue;stroke:blue;" y1="730.00" x1="560.00" id="23524" y2="700.00" /><line x2="490.00" style="fill:blue;stroke:blue;" y1="730.00" x1="560.00" id="23525" y2="750.00" /><line x2="580.00" style="fill:blue;stroke:blue;" y1="30.00" x1="560.00" id="23526" y2="80.00" /><line x2="660.00" style="fill:blue;stroke:blue;" y1="80.00" x1="580.00" id="23527" y2="80.00" /><line x2="560.00" style="fill:blue;stroke:blue;" y1="80.00" x1="580.00" id="23528" y2="30.00" /><line x2="462.32" style="fill:blue;stroke:blue;" y1="80.00" x1="580.00" id="23529" y2="112.32" /><line x2="530.00" style="fill:blue;stroke:blue;" y1="330.00" x1="580.00" id="23530" y2="355.50" /><line x2="660.00" style="fill:blue;stroke:blue;" y1="330.00" x1="580.00" id="23531" y2="380.00" /><line x2="610.00" style="fill:blue;stroke:blue;" y1="330.00" x1="580.00" id="23532" y2="280.00" /><line x2="610.00" style="fill:blue;stroke:blue;" y1="230.00" x1="610.00" id="23533" y2="280.00" /><line x2="710.00" style="fill:blue;stroke:blue;" y1="230.00" x1="610.00" id="23534" y2="260.00" /><line x2="660.00" style="fill:blue;stroke:blue;" y1="230.00" x1="610.00" id="23535" y2="200.00" /><line x2="360.00" style="fill:blue;stroke:blue;" y1="230.00" x1="610.00" id="23536" y2="230.00" /><line x2="580.00" style="fill:blue;stroke:blue;" y1="280.00" x1="610.00" id="23537" y2="330.00" /><line x2="710.00" style="fill:blue;stroke:blue;" y1="280.00" x1="610.00" id="23538" y2="260.00" /><line x2="610.00" style="fill:blue;stroke:blue;" y1="280.00" x1="610.00" id="23539" y2="230.00" /><line x2="680.00" style="fill:blue;stroke:blue;" y1="600.00" x1="650.00" id="23540" y2="480.00" /><line x2="560.00" style="fill:blue;stroke:blue;" y1="600.00" x1="650.00" id="23541" y2="580.00" /><line x2="720.00" style="fill:blue;stroke:blue;" y1="600.00" x1="650.00" id="23542" y2="600.00" /><line x2="560.00" style="fill:blue;stroke:blue;" y1="600.00" x1="650.00" id="23543" y2="730.00" /><line x2="510.00" style="fill:blue;stroke:blue;" y1="600.00" x1="650.00" id="23544" y2="630.00" /><line x2="560.00" style="fill:blue;stroke:blue;" y1="700.00" x1="650.00" id="23545" y2="580.00" /><line x2="720.00" style="fill:blue;stroke:blue;" y1="700.00" x1="650.00" id="23546" y2="600.00" /><line x2="560.00" style="fill:blue;stroke:blue;" y1="700.00" x1="650.00" id="23547" y2="730.00" /><line x2="720.00" style="fill:blue;stroke:blue;" y1="700.00" x1="650.00" id="23548" y2="700.00" /><line x2="580.00" style="fill:blue;stroke:blue;" y1="380.00" x1="660.00" id="23549" y2="330.00" /><line x2="680.00" style="fill:blue;stroke:blue;" y1="380.00" x1="660.00" id="23550" y2="330.00" /><line x2="730.00" style="fill:blue;stroke:blue;" y1="380.00" x1="660.00" id="23551" y2="380.00" /><line x2="730.00" style="fill:blue;stroke:blue;" y1="80.00" x1="660.00" id="23552" y2="130.00" /><line x2="580.00" style="fill:blue;stroke:blue;" y1="80.00" x1="660.00" id="23553" y2="80.00" /><line x2="610.00" style="fill:blue;stroke:blue;" y1="200.00" x1="660.00" id="23554" y2="230.00" /><line x2="760.00" style="fill:blue;stroke:blue;" y1="200.00" x1="660.00" id="23555" y2="230.00" /><line x2="760.00" style="fill:blue;stroke:blue;" y1="200.00" x1="660.00" id="23556" y2="180.00" /><line x2="660.00" style="fill:blue;stroke:blue;" y1="330.00" x1="680.00" id="23557" y2="380.00" /><line x2="760.00" style="fill:blue;stroke:blue;" y1="330.00" x1="680.00" id="23558" y2="330.00" /><line x2="730.00" style="fill:blue;stroke:blue;" y1="330.00" x1="680.00" id="23559" y2="380.00" /><line x2="860.00" style="fill:blue;stroke:blue;" y1="480.00" x1="680.00" id="23560" y2="455.50" /><line x2="760.00" style="fill:blue;stroke:blue;" y1="480.00" x1="680.00" id="23561" y2="530.00" /><line x2="650.00" style="fill:blue;stroke:blue;" y1="480.00" x1="680.00" id="23562" y2="600.00" /><line x2="720.00" style="fill:blue;stroke:blue;" y1="480.00" x1="680.00" id="23563" y2="600.00" /><line x2="460.00" style="fill:blue;stroke:blue;" y1="480.00" x1="680.00" id="23564" y2="500.00" /><line x2="560.00" style="fill:blue;stroke:blue;" y1="480.00" x1="680.00" id="23565" y2="460.00" /><line x2="610.00" style="fill:blue;stroke:blue;" y1="260.00" x1="710.00" id="23566" y2="280.00" /><line x2="810.00" style="fill:blue;stroke:blue;" y1="260.00" x1="710.00" id="23567" y2="280.00" /><line x2="610.00" style="fill:blue;stroke:blue;" y1="260.00" x1="710.00" id="23568" y2="230.00" /><line x2="760.00" style="fill:blue;stroke:blue;" y1="260.00" x1="710.00" id="23569" y2="230.00" /><line x2="680.00" style="fill:blue;stroke:blue;" y1="600.00" x1="720.00" id="23570" y2="480.00" /><line x2="650.00" style="fill:blue;stroke:blue;" y1="600.00" x1="720.00" id="23571" y2="600.00" /><line x2="650.00" style="fill:blue;stroke:blue;" y1="600.00" x1="720.00" id="23572" y2="700.00" /><line x2="720.00" style="fill:blue;stroke:blue;" y1="600.00" x1="720.00" id="23573" y2="700.00" /><line x2="650.00" style="fill:blue;stroke:blue;" y1="700.00" x1="720.00" id="23574" y2="700.00" /><line x2="720.00" style="fill:blue;stroke:blue;" y1="700.00" x1="720.00" id="23575" y2="600.00" /><line x2="730.00" style="fill:blue;stroke:blue;" y1="430.00" x1="730.00" id="23576" y2="380.00" /><line x2="660.00" style="fill:blue;stroke:blue;" y1="380.00" x1="730.00" id="23577" y2="380.00" /><line x2="680.00" style="fill:blue;stroke:blue;" y1="380.00" x1="730.00" id="23578" y2="330.00" /><line x2="760.00" style="fill:blue;stroke:blue;" y1="380.00" x1="730.00" id="23579" y2="330.00" /><line x2="780.00" style="fill:blue;stroke:blue;" y1="380.00" x1="730.00" id="23580" y2="380.00" /><line x2="730.00" style="fill:blue;stroke:blue;" y1="380.00" x1="730.00" id="23581" y2="430.00" /><line x2="760.00" style="fill:blue;stroke:blue;" y1="130.00" x1="730.00" id="23582" y2="180.00" /><line x2="660.00" style="fill:blue;stroke:blue;" y1="130.00" x1="730.00" id="23583" y2="80.00" /><line x2="760.00" style="fill:blue;stroke:blue;" y1="130.00" x1="730.00" id="23584" y2="80.00" /><line x2="660.00" style="fill:blue;stroke:blue;" y1="180.00" x1="760.00" id="23585" y2="200.00" /><line x2="730.00" style="fill:blue;stroke:blue;" y1="180.00" x1="760.00" id="23586" y2="130.00" /><line x2="860.00" style="fill:blue;stroke:blue;" y1="180.00" x1="760.00" id="23587" y2="130.00" /><line x2="860.00" style="fill:blue;stroke:blue;" y1="180.00" x1="760.00" id="23588" y2="180.00" /><line x2="680.00" style="fill:blue;stroke:blue;" y1="330.00" x1="760.00" id="23589" y2="330.00" /><line x2="730.00" style="fill:blue;stroke:blue;" y1="330.00" x1="760.00" id="23590" y2="380.00" /><line x2="810.00" style="fill:blue;stroke:blue;" y1="530.00" x1="760.00" id="23591" y2="580.00" /><line x2="680.00" style="fill:blue;stroke:blue;" y1="530.00" x1="760.00" id="23592" y2="480.00" /><line x2="710.00" style="fill:blue;stroke:blue;" y1="230.00" x1="760.00" id="23593" y2="260.00" /><line x2="810.00" style="fill:blue;stroke:blue;" y1="230.00" x1="760.00" id="23594" y2="280.00" /><line x2="660.00" style="fill:blue;stroke:blue;" y1="230.00" x1="760.00" id="23595" y2="200.00" /><line x2="730.00" style="fill:blue;stroke:blue;" y1="380.00" x1="780.00" id="23596" y2="380.00" /><line x2="880.00" style="fill:blue;stroke:blue;" y1="280.00" x1="810.00" id="23597" y2="380.00" /><line x2="710.00" style="fill:blue;stroke:blue;" y1="280.00" x1="810.00" id="23598" y2="260.00" /><line x2="760.00" style="fill:blue;stroke:blue;" y1="280.00" x1="810.00" id="23599" y2="230.00" /><line x2="760.00" style="fill:blue;stroke:blue;" y1="130.00" x1="860.00" id="23600" y2="180.00" /><line x2="860.00" style="fill:blue;stroke:blue;" y1="130.00" x1="860.00" id="23601" y2="80.00" /><line x2="760.00" style="fill:blue;stroke:blue;" y1="180.00" x1="860.00" id="23602" y2="180.00" /><line x2="960.00" style="fill:blue;stroke:blue;" y1="180.00" x1="860.00" id="23603" y2="140.00" /><line x2="960.00" style="fill:blue;stroke:blue;" y1="455.50" x1="860.00" id="23604" y2="390.00" /><line x2="880.00" style="fill:blue;stroke:blue;" y1="455.50" x1="860.00" id="23605" y2="380.00" /><line x2="960.00" style="fill:blue;stroke:blue;" y1="455.50" x1="860.00" id="23606" y2="490.00" /><line x2="680.00" style="fill:blue;stroke:blue;" y1="455.50" x1="860.00" id="23607" y2="480.00" /><line x2="860.00" style="fill:blue;stroke:blue;" y1="455.50" x1="860.00" id="23608" y2="504.50" /><line x2="860.00" style="fill:blue;stroke:blue;" y1="380.00" x1="880.00" id="23609" y2="455.50" /><line x2="960.00" style="fill:blue;stroke:blue;" y1="380.00" x1="880.00" id="23610" y2="390.00" /><line x2="810.00" style="fill:blue;stroke:blue;" y1="380.00" x1="880.00" id="23611" y2="280.00" /><line x2="860.00" style="fill:blue;stroke:blue;" y1="490.00" x1="960.00" id="23612" y2="455.50" /><line x2="990.00" style="fill:blue;stroke:blue;" y1="490.00" x1="960.00" id="23613" y2="440.00" /><line x2="860.00" style="fill:blue;stroke:blue;" y1="390.00" x1="960.00" id="23614" y2="455.50" /><line x2="990.00" style="fill:blue;stroke:blue;" y1="390.00" x1="960.00" id="23615" y2="440.00" /><line x2="880.00" style="fill:blue;stroke:blue;" y1="390.00" x1="960.00" id="23616" y2="380.00" /><line x2="970.00" style="fill:blue;stroke:blue;" y1="390.00" x1="960.00" id="23617" y2="340.00" /><line x2="960.00" style="fill:blue;stroke:blue;" y1="440.00" x1="990.00" id="23618" y2="390.00" /><line x2="960.00" style="fill:blue;stroke:blue;" y1="440.00" x1="990.00" id="23619" y2="490.00" /><line x2="100.00" style="fill:blue;stroke:blue;" y1="430.00" x1="60.00" id="23620" y2="480.00" /><line x2="230.00" style="fill:blue;stroke:blue;" y1="280.00" x1="180.00" id="23621" y2="200.00" /><line x2="230.00" style="fill:blue;stroke:blue;" y1="280.00" x1="260.00" id="23622" y2="200.00" /><line x2="410.00" style="fill:blue;stroke:blue;" y1="60.00" x1="310.00" id="23623" y2="30.00" /><line x2="650.00" style="fill:blue;stroke:blue;" y1="630.00" x1="510.00" id="23624" y2="600.00" /><line x2="430.00" style="fill:blue;stroke:blue;" y1="630.00" x1="510.00" id="23625" y2="680.00" /><line x2="730.00" style="fill:blue;stroke:blue;" y1="80.00" x1="760.00" id="23626" y2="130.00" /><line x2="760.00" style="fill:blue;stroke:blue;" y1="580.00" x1="810.00" id="23627" y2="530.00" /><line x2="860.00" style="fill:blue;stroke:blue;" y1="80.00" x1="860.00" id="23628" y2="130.00" /><line x2="860.00" style="fill:blue;stroke:blue;" y1="504.50" x1="860.00" id="23629" y2="455.50" /><line x2="860.00" style="fill:blue;stroke:blue;" y1="140.00" x1="960.00" id="23630" y2="180.00" /><line x2="60.00" style="fill:blue;stroke:blue;" y1="630.00" x1="60.00" id="23631" y2="580.00" /><line x2="960.00" style="fill:blue;stroke:blue;" y1="340.00" x1="970.00" id="23632" y2="390.00" /></svg>
