<?xml version="1.0" standalone="yes"?><!DOCTYPE svg PUBLIC "-//W3C//DTD SVG 1.1//EN" "http://www.w3.org/Graphics/SVG/1.1/DTD/svg11.dtd"[]><svg width="1050.00" height="800.00" id="11994" xmlns="http://www.w3.org/2000/svg" xmlns:xlink="http://www.w3.org/1999/xlink"><rect Type="system" x="50.00" id="11995" height="5.00" width="5.00" Name="0-GZX9" ID="30002454" Region="对舞之域" y="50.00" /><text y="50.00" x="50.00" id="11996">0-GZX9</text><rect Type="system" x="50.00" id="11998" height="5.00" width="5.00" Name="2H-TSE" ID="30002455" Region="对舞之域" y="120.00" /><text y="120.00" x="50.00" id="11999">2H-TSE</text><rect Type="system" x="60.00" id="12001" height="5.00" width="5.00" Name="QKTR-L" ID="30002431" Region="对舞之域" y="210.00" /><text y="210.00" x="60.00" id="12002">QKTR-L</text><rect Type="system" x="80.00" id="12004" height="5.00" width="5.00" Name="EOA-ZC" ID="30002475" Region="对舞之域" y="540.00" /><text y="540.00" x="80.00" id="12005">EOA-ZC</text><rect Type="system" x="120.00" id="12007" height="5.00" width="5.00" Name="KR-V6G" ID="30002452" Region="对舞之域" y="50.00" /><text y="50.00" x="120.00" id="12008">KR-V6G</text><rect Type="system" x="120.00" id="12010" height="5.00" width="5.00" Name="AP9-LV" ID="30002453" Region="对舞之域" y="100.00" /><text y="100.00" x="120.00" id="12011">AP9-LV</text><rect Type="system" x="120.00" id="12013" height="5.00" width="5.00" Name="4NGK-F" ID="30002456" Region="对舞之域" y="150.00" /><text y="150.00" x="120.00" id="12014">4NGK-F</text><rect Type="system" x="120.00" id="12016" height="5.00" width="5.00" Name="B6-52M" ID="30002436" Region="对舞之域" y="320.00" /><text y="320.00" x="120.00" id="12017">B6-52M</text><rect Type="system" x="150.00" id="12019" height="5.00" width="5.00" Name="UBX-CC" ID="30002473" Region="对舞之域" y="500.00" /><text y="500.00" x="150.00" id="12020">UBX-CC</text><rect Type="system" x="150.00" id="12022" height="5.00" width="5.00" Name="TJM-JJ" ID="30002474" Region="对舞之域" y="580.00" /><text y="580.00" x="150.00" id="12023">TJM-JJ</text><rect Type="system" x="150.00" id="12025" height="5.00" width="5.00" Name="QP0K-B" ID="30002479" Region="对舞之域" y="650.00" /><text y="650.00" x="150.00" id="12026">QP0K-B</text><rect Type="system" x="150.00" id="12028" height="5.00" width="5.00" Name="V-MZW0" ID="30002437" Region="对舞之域" y="270.00" /><text y="270.00" x="150.00" id="12029">V-MZW0</text><rect Type="system" x="150.00" id="12031" height="5.00" width="5.00" Name="L4X-FH" ID="30002435" Region="对舞之域" y="370.00" /><text y="370.00" x="150.00" id="12032">L4X-FH</text><rect Type="system" x="200.00" id="12034" height="5.00" width="5.00" Name="NQ-9IH" ID="30002451" Region="对舞之域" y="50.00" /><text y="50.00" x="200.00" id="12035">NQ-9IH</text><rect Type="system" x="200.00" id="12037" height="5.00" width="5.00" Name="AD-5B8" ID="30002478" Region="对舞之域" y="500.00" /><text y="500.00" x="200.00" id="12038">AD-5B8</text><rect Type="system" x="200.00" id="12040" height="5.00" width="5.00" Name="G-73MR" ID="30002476" Region="对舞之域" y="580.00" /><text y="580.00" x="200.00" id="12041">G-73MR</text><rect Type="system" x="200.00" id="12043" height="5.00" width="5.00" Name="E-91FV" ID="30002477" Region="对舞之域" y="650.00" /><text y="650.00" x="200.00" id="12044">E-91FV</text><rect Type="system" x="220.00" id="12046" height="5.00" width="5.00" Name="M-MD31" ID="30002428" Region="对舞之域" y="220.00" /><text y="220.00" x="220.00" id="12047">M-MD31</text><rect Type="system" x="250.00" id="12049" height="5.00" width="5.00" Name="L-HV5C" ID="30002434" Region="对舞之域" y="300.00" /><text y="300.00" x="250.00" id="12050">L-HV5C</text><rect Type="system" x="250.00" id="12052" height="5.00" width="5.00" Name="NBPH-N" ID="30002433" Region="对舞之域" y="380.00" /><text y="380.00" x="250.00" id="12053">NBPH-N</text><rect Type="system" x="280.00" id="12055" height="5.00" width="5.00" Name="FDZ4-A" ID="30002423" Region="对舞之域" y="150.00" /><text y="150.00" x="280.00" id="12056">FDZ4-A</text><rect Type="system" x="280.00" id="12058" height="5.00" width="5.00" Name="54-MF6" ID="30002480" Region="对舞之域" y="580.00" /><text y="580.00" x="280.00" id="12059">54-MF6</text><rect Type="system" x="280.00" id="12061" height="5.00" width="5.00" Name="WH-2EZ" ID="30002429" Region="对舞之域" y="250.00" /><text y="250.00" x="280.00" id="12062">WH-2EZ</text><rect Type="system" x="300.00" id="12064" height="5.00" width="5.00" Name="MR4-MY" ID="30002421" Region="对舞之域" y="100.00" /><text y="100.00" x="300.00" id="12065">MR4-MY</text><rect Type="system" x="320.00" id="12067" height="5.00" width="5.00" Name="SR-KBB" ID="30002422" Region="对舞之域" y="50.00" /><text y="50.00" x="320.00" id="12068">SR-KBB</text><rect Type="system" x="350.00" id="12070" height="5.00" width="5.00" Name="若阿" ID="30002426" Region="对舞之域" y="180.00" /><text y="180.00" x="350.00" id="12071">若阿</text><rect Type="system" x="350.00" id="12073" height="5.00" width="5.00" Name="TZL-WT" ID="30002494" Region="对舞之域" y="550.00" /><text y="550.00" x="350.00" id="12074">TZL-WT</text><rect Type="system" x="350.00" id="12076" height="5.00" width="5.00" Name="4K0N-J" ID="30002495" Region="对舞之域" y="600.00" /><text y="600.00" x="350.00" id="12077">4K0N-J</text><rect Type="system" x="350.00" id="12079" height="5.00" width="5.00" Name="D0-F4W" ID="30002430" Region="对舞之域" y="300.00" /><text y="300.00" x="350.00" id="12080">D0-F4W</text><rect Type="system" x="350.00" id="12082" height="5.00" width="5.00" Name="YN3-E3" ID="30002432" Region="对舞之域" y="380.00" /><text y="380.00" x="350.00" id="12083">YN3-E3</text><rect Type="system" x="360.00" id="12085" height="5.00" width="5.00" Name="W-3BSU" ID="30002497" Region="对舞之域" y="670.00" /><text y="670.00" x="360.00" id="12086">W-3BSU</text><rect Type="system" x="400.00" id="12088" height="5.00" width="5.00" Name="2E-ZR5" ID="30002424" Region="对舞之域" y="50.00" /><text y="50.00" x="400.00" id="12089">2E-ZR5</text><rect Type="system" x="420.00" id="12091" height="5.00" width="5.00" Name="LR-2XT" ID="30002493" Region="对舞之域" y="520.00" /><text y="520.00" x="420.00" id="12092">LR-2XT</text><rect Type="system" x="420.00" id="12094" height="5.00" width="5.00" Name="B-F1MI" ID="30002496" Region="对舞之域" y="600.00" /><text y="600.00" x="420.00" id="12095">B-F1MI</text><rect Type="system" x="450.00" id="12097" height="5.00" width="5.00" Name="8MG-J6" ID="30002442" Region="对舞之域" y="324.50" /><text y="324.50" x="450.00" id="12098">8MG-J6</text><rect Type="system" x="450.00" id="12100" height="5.00" width="5.00" Name="O1-FTD" ID="30002425" Region="对舞之域" y="50.00" /><text y="50.00" x="450.00" id="12101">O1-FTD</text><rect Type="system" x="450.00" id="12103" height="5.00" width="5.00" Name="BND-16" ID="30002438" Region="对舞之域" y="220.00" /><text y="220.00" x="450.00" id="12104">BND-16</text><rect Type="system" x="450.00" id="12106" height="5.00" width="5.00" Name="IOO-7O" ID="30002439" Region="对舞之域" y="275.50" /><text y="275.50" x="450.00" id="12107">IOO-7O</text><rect Type="system" x="480.00" id="12109" height="5.00" width="5.00" Name="BE-UUN" ID="30002498" Region="对舞之域" y="670.00" /><text y="670.00" x="480.00" id="12110">BE-UUN</text><rect Type="system" x="520.00" id="12112" height="5.00" width="5.00" Name="BWF-ZZ" ID="30002440" Region="对舞之域" y="320.00" /><text y="320.00" x="520.00" id="12113">BWF-ZZ</text><rect Type="system" x="550.00" id="12115" height="5.00" width="5.00" Name="OEY-OR" ID="30002427" Region="对舞之域" y="50.00" /><text y="50.00" x="550.00" id="12116">OEY-OR</text><rect Type="system" x="550.00" id="12118" height="5.00" width="5.00" Name="4-CUM5" ID="30002441" Region="对舞之域" y="220.00" /><text y="220.00" x="550.00" id="12119">4-CUM5</text><rect Type="system" x="550.00" id="12121" height="5.00" width="5.00" Name="LSI-V" ID="30002443" Region="对舞之域" y="280.00" /><text y="280.00" x="550.00" id="12122">LSI-V</text><rect Type="system" x="550.00" id="12124" height="5.00" width="5.00" Name="O2O-2X" ID="30002499" Region="对舞之域" y="450.00" /><text y="450.00" x="550.00" id="12125">O2O-2X</text><rect Type="system" x="550.00" id="12127" height="5.00" width="5.00" Name="5F-YRA" ID="30002501" Region="对舞之域" y="520.00" /><text y="520.00" x="550.00" id="12128">5F-YRA</text><rect Type="system" x="550.00" id="12130" height="5.00" width="5.00" Name="TDE4-H" ID="30002502" Region="对舞之域" y="575.50" /><text y="575.50" x="550.00" id="12131">TDE4-H</text><rect Type="system" x="550.00" id="12133" height="5.00" width="5.00" Name="UER-TH" ID="30002503" Region="对舞之域" y="624.50" /><text y="624.50" x="550.00" id="12134">UER-TH</text><rect Type="system" x="550.00" id="12136" height="5.00" width="5.00" Name="UG-UWZ" ID="30002504" Region="对舞之域" y="680.00" /><text y="680.00" x="550.00" id="12137">UG-UWZ</text><rect Type="system" x="620.00" id="12139" height="5.00" width="5.00" Name="JE1-36" ID="30002500" Region="对舞之域" y="480.00" /><text y="480.00" x="620.00" id="12140">JE1-36</text><rect Type="system" x="650.00" id="12142" height="5.00" width="5.00" Name="SV-K8J" ID="30002445" Region="对舞之域" y="20.00" /><text y="20.00" x="650.00" id="12143">SV-K8J</text><rect Type="system" x="650.00" id="12145" height="5.00" width="5.00" Name="39-DGG" ID="30002444" Region="对舞之域" y="80.00" /><text y="80.00" x="650.00" id="12146">39-DGG</text><rect Type="system" x="650.00" id="12148" height="5.00" width="5.00" Name="6YC-TU" ID="30002465" Region="对舞之域" y="400.00" /><text y="400.00" x="650.00" id="12149">6YC-TU</text><rect Type="system" x="650.00" id="12151" height="5.00" width="5.00" Name="3SFU-S" ID="30002486" Region="对舞之域" y="600.00" /><text y="600.00" x="650.00" id="12152">3SFU-S</text><rect Type="system" x="650.00" id="12154" height="5.00" width="5.00" Name="RFGW-V" ID="30002491" Region="对舞之域" y="650.00" /><text y="650.00" x="650.00" id="12155">RFGW-V</text><rect Type="system" x="650.00" id="12157" height="5.00" width="5.00" Name="6L78-1" ID="30002459" Region="对舞之域" y="320.00" /><text y="320.00" x="650.00" id="12158">6L78-1</text><rect Type="system" x="680.00" id="12160" height="5.00" width="5.00" Name="8-KZXQ" ID="30002484" Region="对舞之域" y="550.00" /><text y="550.00" x="680.00" id="12161">8-KZXQ</text><rect Type="system" x="700.00" id="12163" height="5.00" width="5.00" Name="N-HK93" ID="30002492" Region="对舞之域" y="700.00" /><text y="700.00" x="700.00" id="12164">N-HK93</text><rect Type="system" x="700.00" id="12166" height="5.00" width="5.00" Name="6RQ9-A" ID="30002446" Region="对舞之域" y="50.00" /><text y="50.00" x="700.00" id="12167">6RQ9-A</text><rect Type="system" x="700.00" id="12169" height="5.00" width="5.00" Name="K42-IE" ID="30002447" Region="对舞之域" y="120.00" /><text y="120.00" x="700.00" id="12170">K42-IE</text><rect Type="system" x="720.00" id="12172" height="5.00" width="5.00" Name="O-VWPB" ID="30002457" Region="对舞之域" y="250.00" /><text y="250.00" x="720.00" id="12173">O-VWPB</text><rect Type="system" x="749.18" id="12175" height="5.00" width="5.00" Name="Y8R-XZ" ID="30002466" Region="对舞之域" y="355.98" /><text y="355.98" x="749.18" id="12176">Y8R-XZ</text><rect Type="system" x="750.01" id="12178" height="5.00" width="5.00" Name="U-L4KS" ID="30002463" Region="对舞之域" y="404.98" /><text y="404.98" x="750.01" id="12179">U-L4KS</text><rect Type="system" x="738.20" id="12181" height="5.00" width="5.00" Name="4VY-Y1" ID="30002461" Region="对舞之域" y="299.16" /><text y="299.16" x="738.20" id="12182">4VY-Y1</text><rect Type="system" x="770.00" id="12184" height="5.00" width="5.00" Name="P-6I0B" ID="30002482" Region="对舞之域" y="580.00" /><text y="580.00" x="770.00" id="12185">P-6I0B</text><rect Type="system" x="760.00" id="12187" height="5.00" width="5.00" Name="CFYY-J" ID="30002483" Region="对舞之域" y="650.00" /><text y="650.00" x="760.00" id="12188">CFYY-J</text><rect Type="system" x="750.00" id="12190" height="5.00" width="5.00" Name="HKYW-T" ID="30002485" Region="对舞之域" y="720.00" /><text y="720.00" x="750.00" id="12191">HKYW-T</text><rect Type="system" x="750.00" id="12193" height="5.00" width="5.00" Name="3USX-F" ID="30002449" Region="对舞之域" y="80.00" /><text y="80.00" x="750.00" id="12194">3USX-F</text><rect Type="system" x="780.00" id="12196" height="5.00" width="5.00" Name="VSJ-PP" ID="30002448" Region="对舞之域" y="150.00" /><text y="150.00" x="780.00" id="12197">VSJ-PP</text><rect Type="system" x="780.00" id="12199" height="5.00" width="5.00" Name="D-I9HJ" ID="30002481" Region="对舞之域" y="520.00" /><text y="520.00" x="780.00" id="12200">D-I9HJ</text><rect Type="system" x="780.00" id="12202" height="5.00" width="5.00" Name="LX-ZOJ" ID="30002458" Region="对舞之域" y="250.00" /><text y="250.00" x="780.00" id="12203">LX-ZOJ</text><rect Type="system" x="782.61" id="12205" height="5.00" width="5.00" Name="04-LQM" ID="30002460" Region="对舞之域" y="319.88" /><text y="319.88" x="782.61" id="12206">04-LQM</text><rect Type="system" x="830.00" id="12208" height="5.00" width="5.00" Name="VJ-NQP" ID="30002487" Region="对舞之域" y="700.00" /><text y="700.00" x="830.00" id="12209">VJ-NQP</text><rect Type="system" x="820.00" id="12211" height="5.00" width="5.00" Name="艾蒂斯" ID="30002489" Region="对舞之域" y="550.00" /><text y="550.00" x="820.00" id="12212">艾蒂斯</text><rect Type="system" x="820.00" id="12214" height="5.00" width="5.00" Name="K25-XD" ID="30002464" Region="对舞之域" y="380.00" /><text y="380.00" x="820.00" id="12215">K25-XD</text><rect Type="system" x="860.00" id="12217" height="5.00" width="5.00" Name="U6D-9A" ID="30002488" Region="对舞之域" y="630.00" /><text y="630.00" x="860.00" id="12218">U6D-9A</text><rect Type="system" x="850.00" id="12220" height="5.00" width="5.00" Name="9-KWXC" ID="30002450" Region="对舞之域" y="80.00" /><text y="80.00" x="850.00" id="12221">9-KWXC</text><rect Type="system" x="850.00" id="12223" height="5.00" width="5.00" Name="LU-HQS" ID="30002462" Region="对舞之域" y="300.00" /><text y="300.00" x="850.00" id="12224">LU-HQS</text><rect Type="system" x="830.00" id="12226" height="5.00" width="5.00" Name="PYY3-5" ID="30002490" Region="对舞之域" y="460.00" /><text y="460.00" x="830.00" id="12227">PYY3-5</text><rect Type="system" x="880.00" id="12229" height="5.00" width="5.00" Name="HJO-84" ID="30002468" Region="对舞之域" y="150.00" /><text y="150.00" x="880.00" id="12230">HJO-84</text><rect Type="system" x="917.68" id="12232" height="5.00" width="5.00" Name="P-E9GN" ID="30002467" Region="对舞之域" y="97.68" /><text y="97.68" x="917.68" id="12233">P-E9GN</text><rect Type="system" x="920.00" id="12235" height="5.00" width="5.00" Name="4D9-66" ID="30002469" Region="对舞之域" y="180.00" /><text y="180.00" x="920.00" id="12236">4D9-66</text><rect Type="system" x="952.32" id="12238" height="5.00" width="5.00" Name="L-TOFR" ID="30002470" Region="对舞之域" y="132.32" /><text y="132.32" x="952.32" id="12239">L-TOFR</text><rect Type="system" x="1000.00" id="12241" height="5.00" width="5.00" Name="Q-TBHW" ID="30002471" Region="对舞之域" y="180.00" /><text y="180.00" x="1000.00" id="12242">Q-TBHW</text><rect Type="system" x="1000.00" id="12244" height="5.00" width="5.00" Name="9P4O-F" ID="30002472" Region="对舞之域" y="250.00" /><text y="250.00" x="1000.00" id="12245">9P4O-F</text><rect Type="system" x="50.00" id="12247" height="5.00" width="5.00" Name="埃加奥" ID="30000200" Region="伏尔戈" y="480.00" /><text y="480.00" x="50.00" id="12248">埃加奥</text><rect Type="system" x="100.00" id="12250" height="5.00" width="5.00" Name="1W-0KS" ID="30000288" Region="静寂谷" y="680.00" /><text y="680.00" x="100.00" id="12251">1W-0KS</text><rect Type="system" x="290.00" id="12253" height="5.00" width="5.00" Name="尤加拉那" ID="30003466" Region="美特伯里斯" y="470.00" /><text y="470.00" x="290.00" id="12254">尤加拉那</text><rect Type="system" x="380.00" id="12256" height="5.00" width="5.00" Name="H-5GUI" ID="30000225" Region="静寂谷" y="120.00" /><text y="120.00" x="380.00" id="12257">H-5GUI</text><rect Type="system" x="520.00" id="12259" height="5.00" width="5.00" Name="欧加仑" ID="30000186" Region="伏尔戈" y="380.00" /><text y="380.00" x="520.00" id="12260">欧加仑</text><rect Type="system" x="950.00" id="12262" height="5.00" width="5.00" Name="K-IYNW" ID="30001000" Region="大荒野" y="510.00" /><text y="510.00" x="950.00" id="12263">K-IYNW</text><rect Type="system" x="960.00" id="12265" height="5.00" width="5.00" Name="1S-SU1" ID="30002866" Region="卡勒瓦拉阔地" y="320.00" /><text y="320.00" x="960.00" id="12266">1S-SU1</text><rect Type="system" x="980.00" id="12268" height="5.00" width="5.00" Name="9-GBPD" ID="30000318" Region="静寂谷" y="50.00" /><text y="50.00" x="980.00" id="12269">9-GBPD</text><line style="stroke:blue;fill:blue;" id="12271" x2="120.00" x1="50.00" y1="50.00" y2="50.00" /><line style="stroke:blue;fill:blue;" id="12272" x2="120.00" x1="50.00" y1="50.00" y2="100.00" /><line style="stroke:blue;fill:blue;" id="12273" x2="50.00" x1="50.00" y1="50.00" y2="120.00" /><line style="stroke:blue;fill:blue;" id="12274" x2="50.00" x1="50.00" y1="120.00" y2="50.00" /><line style="stroke:blue;fill:blue;" id="12275" x2="220.00" x1="60.00" y1="210.00" y2="220.00" /><line style="stroke:blue;fill:blue;" id="12276" x2="50.00" x1="80.00" y1="540.00" y2="480.00" /><line style="stroke:blue;fill:blue;" id="12277" x2="150.00" x1="80.00" y1="540.00" y2="500.00" /><line style="stroke:blue;fill:blue;" id="12278" x2="150.00" x1="80.00" y1="540.00" y2="580.00" /><line style="stroke:blue;fill:blue;" id="12279" x2="200.00" x1="120.00" y1="50.00" y2="50.00" /><line style="stroke:blue;fill:blue;" id="12280" x2="50.00" x1="120.00" y1="50.00" y2="50.00" /><line style="stroke:blue;fill:blue;" id="12281" x2="200.00" x1="120.00" y1="100.00" y2="50.00" /><line style="stroke:blue;fill:blue;" id="12282" x2="50.00" x1="120.00" y1="100.00" y2="50.00" /><line style="stroke:blue;fill:blue;" id="12283" x2="120.00" x1="120.00" y1="100.00" y2="150.00" /><line style="stroke:blue;fill:blue;" id="12284" x2="120.00" x1="120.00" y1="150.00" y2="100.00" /><line style="stroke:blue;fill:blue;" id="12285" x2="150.00" x1="120.00" y1="320.00" y2="370.00" /><line style="stroke:blue;fill:blue;" id="12286" x2="150.00" x1="120.00" y1="320.00" y2="270.00" /><line style="stroke:blue;fill:blue;" id="12287" x2="250.00" x1="150.00" y1="500.00" y2="380.00" /><line style="stroke:blue;fill:blue;" id="12288" x2="150.00" x1="150.00" y1="500.00" y2="580.00" /><line style="stroke:blue;fill:blue;" id="12289" x2="80.00" x1="150.00" y1="500.00" y2="540.00" /><line style="stroke:blue;fill:blue;" id="12290" x2="200.00" x1="150.00" y1="500.00" y2="500.00" /><line style="stroke:blue;fill:blue;" id="12291" x2="150.00" x1="150.00" y1="580.00" y2="500.00" /><line style="stroke:blue;fill:blue;" id="12292" x2="80.00" x1="150.00" y1="580.00" y2="540.00" /><line style="stroke:blue;fill:blue;" id="12293" x2="200.00" x1="150.00" y1="580.00" y2="580.00" /><line style="stroke:blue;fill:blue;" id="12294" x2="150.00" x1="150.00" y1="580.00" y2="650.00" /><line style="stroke:blue;fill:blue;" id="12295" x2="100.00" x1="150.00" y1="650.00" y2="680.00" /><line style="stroke:blue;fill:blue;" id="12296" x2="150.00" x1="150.00" y1="650.00" y2="580.00" /><line style="stroke:blue;fill:blue;" id="12297" x2="200.00" x1="150.00" y1="650.00" y2="650.00" /><line style="stroke:blue;fill:blue;" id="12298" x2="220.00" x1="150.00" y1="270.00" y2="220.00" /><line style="stroke:blue;fill:blue;" id="12299" x2="120.00" x1="150.00" y1="270.00" y2="320.00" /><line style="stroke:blue;fill:blue;" id="12300" x2="250.00" x1="150.00" y1="370.00" y2="380.00" /><line style="stroke:blue;fill:blue;" id="12301" x2="120.00" x1="150.00" y1="370.00" y2="320.00" /><line style="stroke:blue;fill:blue;" id="12302" x2="320.00" x1="200.00" y1="50.00" y2="50.00" /><line style="stroke:blue;fill:blue;" id="12303" x2="120.00" x1="200.00" y1="50.00" y2="50.00" /><line style="stroke:blue;fill:blue;" id="12304" x2="120.00" x1="200.00" y1="50.00" y2="100.00" /><line style="stroke:blue;fill:blue;" id="12305" x2="150.00" x1="200.00" y1="500.00" y2="500.00" /><line style="stroke:blue;fill:blue;" id="12306" x2="200.00" x1="200.00" y1="500.00" y2="580.00" /><line style="stroke:blue;fill:blue;" id="12307" x2="280.00" x1="200.00" y1="500.00" y2="580.00" /><line style="stroke:blue;fill:blue;" id="12308" x2="290.00" x1="200.00" y1="500.00" y2="470.00" /><line style="stroke:blue;fill:blue;" id="12309" x2="150.00" x1="200.00" y1="580.00" y2="580.00" /><line style="stroke:blue;fill:blue;" id="12310" x2="200.00" x1="200.00" y1="580.00" y2="650.00" /><line style="stroke:blue;fill:blue;" id="12311" x2="200.00" x1="200.00" y1="580.00" y2="500.00" /><line style="stroke:blue;fill:blue;" id="12312" x2="280.00" x1="200.00" y1="580.00" y2="580.00" /><line style="stroke:blue;fill:blue;" id="12313" x2="200.00" x1="200.00" y1="650.00" y2="580.00" /><line style="stroke:blue;fill:blue;" id="12314" x2="150.00" x1="200.00" y1="650.00" y2="650.00" /><line style="stroke:blue;fill:blue;" id="12315" x2="280.00" x1="200.00" y1="650.00" y2="580.00" /><line style="stroke:blue;fill:blue;" id="12316" x2="280.00" x1="220.00" y1="220.00" y2="150.00" /><line style="stroke:blue;fill:blue;" id="12317" x2="280.00" x1="220.00" y1="220.00" y2="250.00" /><line style="stroke:blue;fill:blue;" id="12318" x2="60.00" x1="220.00" y1="220.00" y2="210.00" /><line style="stroke:blue;fill:blue;" id="12319" x2="150.00" x1="220.00" y1="220.00" y2="270.00" /><line style="stroke:blue;fill:blue;" id="12320" x2="280.00" x1="250.00" y1="300.00" y2="250.00" /><line style="stroke:blue;fill:blue;" id="12321" x2="350.00" x1="250.00" y1="300.00" y2="300.00" /><line style="stroke:blue;fill:blue;" id="12322" x2="350.00" x1="250.00" y1="300.00" y2="380.00" /><line style="stroke:blue;fill:blue;" id="12323" x2="250.00" x1="250.00" y1="300.00" y2="380.00" /><line style="stroke:blue;fill:blue;" id="12324" x2="350.00" x1="250.00" y1="380.00" y2="300.00" /><line style="stroke:blue;fill:blue;" id="12325" x2="350.00" x1="250.00" y1="380.00" y2="380.00" /><line style="stroke:blue;fill:blue;" id="12326" x2="250.00" x1="250.00" y1="380.00" y2="300.00" /><line style="stroke:blue;fill:blue;" id="12327" x2="150.00" x1="250.00" y1="380.00" y2="370.00" /><line style="stroke:blue;fill:blue;" id="12328" x2="150.00" x1="250.00" y1="380.00" y2="500.00" /><line style="stroke:blue;fill:blue;" id="12329" x2="300.00" x1="280.00" y1="150.00" y2="100.00" /><line style="stroke:blue;fill:blue;" id="12330" x2="350.00" x1="280.00" y1="150.00" y2="180.00" /><line style="stroke:blue;fill:blue;" id="12331" x2="220.00" x1="280.00" y1="150.00" y2="220.00" /><line style="stroke:blue;fill:blue;" id="12332" x2="200.00" x1="280.00" y1="580.00" y2="580.00" /><line style="stroke:blue;fill:blue;" id="12333" x2="200.00" x1="280.00" y1="580.00" y2="650.00" /><line style="stroke:blue;fill:blue;" id="12334" x2="200.00" x1="280.00" y1="580.00" y2="500.00" /><line style="stroke:blue;fill:blue;" id="12335" x2="220.00" x1="280.00" y1="250.00" y2="220.00" /><line style="stroke:blue;fill:blue;" id="12336" x2="350.00" x1="280.00" y1="250.00" y2="300.00" /><line style="stroke:blue;fill:blue;" id="12337" x2="250.00" x1="280.00" y1="250.00" y2="300.00" /><line style="stroke:blue;fill:blue;" id="12338" x2="380.00" x1="300.00" y1="100.00" y2="120.00" /><line style="stroke:blue;fill:blue;" id="12339" x2="320.00" x1="300.00" y1="100.00" y2="50.00" /><line style="stroke:blue;fill:blue;" id="12340" x2="280.00" x1="300.00" y1="100.00" y2="150.00" /><line style="stroke:blue;fill:blue;" id="12341" x2="300.00" x1="320.00" y1="50.00" y2="100.00" /><line style="stroke:blue;fill:blue;" id="12342" x2="400.00" x1="320.00" y1="50.00" y2="50.00" /><line style="stroke:blue;fill:blue;" id="12343" x2="200.00" x1="320.00" y1="50.00" y2="50.00" /><line style="stroke:blue;fill:blue;" id="12344" x2="280.00" x1="350.00" y1="180.00" y2="150.00" /><line style="stroke:blue;fill:blue;" id="12345" x2="420.00" x1="350.00" y1="550.00" y2="520.00" /><line style="stroke:blue;fill:blue;" id="12346" x2="350.00" x1="350.00" y1="550.00" y2="600.00" /><line style="stroke:blue;fill:blue;" id="12347" x2="350.00" x1="350.00" y1="600.00" y2="550.00" /><line style="stroke:blue;fill:blue;" id="12348" x2="280.00" x1="350.00" y1="300.00" y2="250.00" /><line style="stroke:blue;fill:blue;" id="12349" x2="350.00" x1="350.00" y1="300.00" y2="380.00" /><line style="stroke:blue;fill:blue;" id="12350" x2="250.00" x1="350.00" y1="300.00" y2="380.00" /><line style="stroke:blue;fill:blue;" id="12351" x2="250.00" x1="350.00" y1="300.00" y2="300.00" /><line style="stroke:blue;fill:blue;" id="12352" x2="350.00" x1="350.00" y1="380.00" y2="300.00" /><line style="stroke:blue;fill:blue;" id="12353" x2="250.00" x1="350.00" y1="380.00" y2="380.00" /><line style="stroke:blue;fill:blue;" id="12354" x2="250.00" x1="350.00" y1="380.00" y2="300.00" /><line style="stroke:blue;fill:blue;" id="12355" x2="420.00" x1="350.00" y1="380.00" y2="520.00" /><line style="stroke:blue;fill:blue;" id="12356" x2="420.00" x1="360.00" y1="670.00" y2="600.00" /><line style="stroke:blue;fill:blue;" id="12357" x2="480.00" x1="360.00" y1="670.00" y2="670.00" /><line style="stroke:blue;fill:blue;" id="12358" x2="320.00" x1="400.00" y1="50.00" y2="50.00" /><line style="stroke:blue;fill:blue;" id="12359" x2="450.00" x1="400.00" y1="50.00" y2="50.00" /><line style="stroke:blue;fill:blue;" id="12360" x2="350.00" x1="420.00" y1="520.00" y2="380.00" /><line style="stroke:blue;fill:blue;" id="12361" x2="350.00" x1="420.00" y1="520.00" y2="550.00" /><line style="stroke:blue;fill:blue;" id="12362" x2="420.00" x1="420.00" y1="520.00" y2="600.00" /><line style="stroke:blue;fill:blue;" id="12363" x2="420.00" x1="420.00" y1="600.00" y2="520.00" /><line style="stroke:blue;fill:blue;" id="12364" x2="360.00" x1="420.00" y1="600.00" y2="670.00" /><line style="stroke:blue;fill:blue;" id="12365" x2="480.00" x1="420.00" y1="600.00" y2="670.00" /><line style="stroke:blue;fill:blue;" id="12366" x2="520.00" x1="450.00" y1="324.50" y2="320.00" /><line style="stroke:blue;fill:blue;" id="12367" x2="400.00" x1="450.00" y1="50.00" y2="50.00" /><line style="stroke:blue;fill:blue;" id="12368" x2="550.00" x1="450.00" y1="50.00" y2="50.00" /><line style="stroke:blue;fill:blue;" id="12369" x2="450.00" x1="450.00" y1="50.00" y2="220.00" /><line style="stroke:blue;fill:blue;" id="12370" x2="450.00" x1="450.00" y1="220.00" y2="50.00" /><line style="stroke:blue;fill:blue;" id="12371" x2="450.00" x1="450.00" y1="220.00" y2="275.50" /><line style="stroke:blue;fill:blue;" id="12372" x2="550.00" x1="450.00" y1="220.00" y2="220.00" /><line style="stroke:blue;fill:blue;" id="12373" x2="450.00" x1="450.00" y1="275.50" y2="220.00" /><line style="stroke:blue;fill:blue;" id="12374" x2="520.00" x1="450.00" y1="275.50" y2="320.00" /><line style="stroke:blue;fill:blue;" id="12375" x2="420.00" x1="480.00" y1="670.00" y2="600.00" /><line style="stroke:blue;fill:blue;" id="12376" x2="360.00" x1="480.00" y1="670.00" y2="670.00" /><line style="stroke:blue;fill:blue;" id="12377" x2="520.00" x1="520.00" y1="320.00" y2="380.00" /><line style="stroke:blue;fill:blue;" id="12378" x2="450.00" x1="520.00" y1="320.00" y2="275.50" /><line style="stroke:blue;fill:blue;" id="12379" x2="450.00" x1="520.00" y1="320.00" y2="324.50" /><line style="stroke:blue;fill:blue;" id="12380" x2="550.00" x1="520.00" y1="320.00" y2="280.00" /><line style="stroke:blue;fill:blue;" id="12381" x2="450.00" x1="550.00" y1="50.00" y2="50.00" /><line style="stroke:blue;fill:blue;" id="12382" x2="650.00" x1="550.00" y1="50.00" y2="80.00" /><line style="stroke:blue;fill:blue;" id="12383" x2="450.00" x1="550.00" y1="220.00" y2="220.00" /><line style="stroke:blue;fill:blue;" id="12384" x2="550.00" x1="550.00" y1="220.00" y2="280.00" /><line style="stroke:blue;fill:blue;" id="12385" x2="520.00" x1="550.00" y1="280.00" y2="320.00" /><line style="stroke:blue;fill:blue;" id="12386" x2="550.00" x1="550.00" y1="280.00" y2="220.00" /><line style="stroke:blue;fill:blue;" id="12387" x2="650.00" x1="550.00" y1="450.00" y2="400.00" /><line style="stroke:blue;fill:blue;" id="12388" x2="620.00" x1="550.00" y1="450.00" y2="480.00" /><line style="stroke:blue;fill:blue;" id="12389" x2="550.00" x1="550.00" y1="450.00" y2="520.00" /><line style="stroke:blue;fill:blue;" id="12390" x2="550.00" x1="550.00" y1="520.00" y2="450.00" /><line style="stroke:blue;fill:blue;" id="12391" x2="550.00" x1="550.00" y1="520.00" y2="575.50" /><line style="stroke:blue;fill:blue;" id="12392" x2="550.00" x1="550.00" y1="575.50" y2="520.00" /><line style="stroke:blue;fill:blue;" id="12393" x2="550.00" x1="550.00" y1="575.50" y2="624.50" /><line style="stroke:blue;fill:blue;" id="12394" x2="550.00" x1="550.00" y1="624.50" y2="575.50" /><line style="stroke:blue;fill:blue;" id="12395" x2="550.00" x1="550.00" y1="624.50" y2="680.00" /><line style="stroke:blue;fill:blue;" id="12396" x2="550.00" x1="550.00" y1="680.00" y2="624.50" /><line style="stroke:blue;fill:blue;" id="12397" x2="550.00" x1="620.00" y1="480.00" y2="450.00" /><line style="stroke:blue;fill:blue;" id="12398" x2="650.00" x1="650.00" y1="20.00" y2="80.00" /><line style="stroke:blue;fill:blue;" id="12399" x2="550.00" x1="650.00" y1="80.00" y2="50.00" /><line style="stroke:blue;fill:blue;" id="12400" x2="650.00" x1="650.00" y1="80.00" y2="20.00" /><line style="stroke:blue;fill:blue;" id="12401" x2="700.00" x1="650.00" y1="80.00" y2="50.00" /><line style="stroke:blue;fill:blue;" id="12402" x2="650.00" x1="650.00" y1="400.00" y2="320.00" /><line style="stroke:blue;fill:blue;" id="12403" x2="750.01" x1="650.00" y1="400.00" y2="404.98" /><line style="stroke:blue;fill:blue;" id="12404" x2="550.00" x1="650.00" y1="400.00" y2="450.00" /><line style="stroke:blue;fill:blue;" id="12405" x2="680.00" x1="650.00" y1="600.00" y2="550.00" /><line style="stroke:blue;fill:blue;" id="12406" x2="650.00" x1="650.00" y1="600.00" y2="650.00" /><line style="stroke:blue;fill:blue;" id="12407" x2="650.00" x1="650.00" y1="650.00" y2="600.00" /><line style="stroke:blue;fill:blue;" id="12408" x2="700.00" x1="650.00" y1="650.00" y2="700.00" /><line style="stroke:blue;fill:blue;" id="12409" x2="720.00" x1="650.00" y1="320.00" y2="250.00" /><line style="stroke:blue;fill:blue;" id="12410" x2="782.61" x1="650.00" y1="320.00" y2="319.88" /><line style="stroke:blue;fill:blue;" id="12411" x2="738.20" x1="650.00" y1="320.00" y2="299.16" /><line style="stroke:blue;fill:blue;" id="12412" x2="750.01" x1="650.00" y1="320.00" y2="404.98" /><line style="stroke:blue;fill:blue;" id="12413" x2="650.00" x1="650.00" y1="320.00" y2="400.00" /><line style="stroke:blue;fill:blue;" id="12414" x2="780.00" x1="680.00" y1="550.00" y2="520.00" /><line style="stroke:blue;fill:blue;" id="12415" x2="650.00" x1="680.00" y1="550.00" y2="600.00" /><line style="stroke:blue;fill:blue;" id="12416" x2="750.00" x1="700.00" y1="700.00" y2="720.00" /><line style="stroke:blue;fill:blue;" id="12417" x2="650.00" x1="700.00" y1="700.00" y2="650.00" /><line style="stroke:blue;fill:blue;" id="12418" x2="650.00" x1="700.00" y1="50.00" y2="80.00" /><line style="stroke:blue;fill:blue;" id="12419" x2="700.00" x1="700.00" y1="50.00" y2="120.00" /><line style="stroke:blue;fill:blue;" id="12420" x2="750.00" x1="700.00" y1="50.00" y2="80.00" /><line style="stroke:blue;fill:blue;" id="12421" x2="700.00" x1="700.00" y1="120.00" y2="50.00" /><line style="stroke:blue;fill:blue;" id="12422" x2="780.00" x1="700.00" y1="120.00" y2="150.00" /><line style="stroke:blue;fill:blue;" id="12423" x2="750.00" x1="700.00" y1="120.00" y2="80.00" /><line style="stroke:blue;fill:blue;" id="12424" x2="780.00" x1="720.00" y1="250.00" y2="150.00" /><line style="stroke:blue;fill:blue;" id="12425" x2="780.00" x1="720.00" y1="250.00" y2="250.00" /><line style="stroke:blue;fill:blue;" id="12426" x2="650.00" x1="720.00" y1="250.00" y2="320.00" /><line style="stroke:blue;fill:blue;" id="12427" x2="738.20" x1="720.00" y1="250.00" y2="299.16" /><line style="stroke:blue;fill:blue;" id="12428" x2="782.61" x1="749.18" y1="355.98" y2="319.88" /><line style="stroke:blue;fill:blue;" id="12429" x2="650.00" x1="750.01" y1="404.98" y2="320.00" /><line style="stroke:blue;fill:blue;" id="12430" x2="820.00" x1="750.01" y1="404.98" y2="380.00" /><line style="stroke:blue;fill:blue;" id="12431" x2="650.00" x1="750.01" y1="404.98" y2="400.00" /><line style="stroke:blue;fill:blue;" id="12432" x2="780.00" x1="750.01" y1="404.98" y2="520.00" /><line style="stroke:blue;fill:blue;" id="12433" x2="720.00" x1="738.20" y1="299.16" y2="250.00" /><line style="stroke:blue;fill:blue;" id="12434" x2="780.00" x1="738.20" y1="299.16" y2="250.00" /><line style="stroke:blue;fill:blue;" id="12435" x2="650.00" x1="738.20" y1="299.16" y2="320.00" /><line style="stroke:blue;fill:blue;" id="12436" x2="850.00" x1="738.20" y1="299.16" y2="300.00" /><line style="stroke:blue;fill:blue;" id="12437" x2="780.00" x1="770.00" y1="580.00" y2="520.00" /><line style="stroke:blue;fill:blue;" id="12438" x2="760.00" x1="770.00" y1="580.00" y2="650.00" /><line style="stroke:blue;fill:blue;" id="12439" x2="770.00" x1="760.00" y1="650.00" y2="580.00" /><line style="stroke:blue;fill:blue;" id="12440" x2="750.00" x1="760.00" y1="650.00" y2="720.00" /><line style="stroke:blue;fill:blue;" id="12441" x2="760.00" x1="750.00" y1="720.00" y2="650.00" /><line style="stroke:blue;fill:blue;" id="12442" x2="830.00" x1="750.00" y1="720.00" y2="700.00" /><line style="stroke:blue;fill:blue;" id="12443" x2="700.00" x1="750.00" y1="720.00" y2="700.00" /><line style="stroke:blue;fill:blue;" id="12444" x2="700.00" x1="750.00" y1="80.00" y2="50.00" /><line style="stroke:blue;fill:blue;" id="12445" x2="700.00" x1="750.00" y1="80.00" y2="120.00" /><line style="stroke:blue;fill:blue;" id="12446" x2="780.00" x1="750.00" y1="80.00" y2="150.00" /><line style="stroke:blue;fill:blue;" id="12447" x2="850.00" x1="750.00" y1="80.00" y2="80.00" /><line style="stroke:blue;fill:blue;" id="12448" x2="700.00" x1="780.00" y1="150.00" y2="120.00" /><line style="stroke:blue;fill:blue;" id="12449" x2="750.00" x1="780.00" y1="150.00" y2="80.00" /><line style="stroke:blue;fill:blue;" id="12450" x2="720.00" x1="780.00" y1="150.00" y2="250.00" /><line style="stroke:blue;fill:blue;" id="12451" x2="750.01" x1="780.00" y1="520.00" y2="404.98" /><line style="stroke:blue;fill:blue;" id="12452" x2="770.00" x1="780.00" y1="520.00" y2="580.00" /><line style="stroke:blue;fill:blue;" id="12453" x2="680.00" x1="780.00" y1="520.00" y2="550.00" /><line style="stroke:blue;fill:blue;" id="12454" x2="820.00" x1="780.00" y1="520.00" y2="550.00" /><line style="stroke:blue;fill:blue;" id="12455" x2="830.00" x1="780.00" y1="520.00" y2="460.00" /><line style="stroke:blue;fill:blue;" id="12456" x2="720.00" x1="780.00" y1="250.00" y2="250.00" /><line style="stroke:blue;fill:blue;" id="12457" x2="782.61" x1="780.00" y1="250.00" y2="319.88" /><line style="stroke:blue;fill:blue;" id="12458" x2="738.20" x1="780.00" y1="250.00" y2="299.16" /><line style="stroke:blue;fill:blue;" id="12459" x2="850.00" x1="780.00" y1="250.00" y2="300.00" /><line style="stroke:blue;fill:blue;" id="12460" x2="780.00" x1="782.61" y1="319.88" y2="250.00" /><line style="stroke:blue;fill:blue;" id="12461" x2="650.00" x1="782.61" y1="319.88" y2="320.00" /><line style="stroke:blue;fill:blue;" id="12462" x2="749.18" x1="782.61" y1="319.88" y2="355.98" /><line style="stroke:blue;fill:blue;" id="12463" x2="750.00" x1="830.00" y1="700.00" y2="720.00" /><line style="stroke:blue;fill:blue;" id="12464" x2="860.00" x1="830.00" y1="700.00" y2="630.00" /><line style="stroke:blue;fill:blue;" id="12465" x2="950.00" x1="820.00" y1="550.00" y2="510.00" /><line style="stroke:blue;fill:blue;" id="12466" x2="780.00" x1="820.00" y1="550.00" y2="520.00" /><line style="stroke:blue;fill:blue;" id="12467" x2="860.00" x1="820.00" y1="550.00" y2="630.00" /><line style="stroke:blue;fill:blue;" id="12468" x2="850.00" x1="820.00" y1="380.00" y2="300.00" /><line style="stroke:blue;fill:blue;" id="12469" x2="750.01" x1="820.00" y1="380.00" y2="404.98" /><line style="stroke:blue;fill:blue;" id="12470" x2="830.00" x1="860.00" y1="630.00" y2="700.00" /><line style="stroke:blue;fill:blue;" id="12471" x2="820.00" x1="860.00" y1="630.00" y2="550.00" /><line style="stroke:blue;fill:blue;" id="12472" x2="750.00" x1="850.00" y1="80.00" y2="80.00" /><line style="stroke:blue;fill:blue;" id="12473" x2="917.68" x1="850.00" y1="80.00" y2="97.68" /><line style="stroke:blue;fill:blue;" id="12474" x2="780.00" x1="850.00" y1="300.00" y2="250.00" /><line style="stroke:blue;fill:blue;" id="12475" x2="738.20" x1="850.00" y1="300.00" y2="299.16" /><line style="stroke:blue;fill:blue;" id="12476" x2="820.00" x1="850.00" y1="300.00" y2="380.00" /><line style="stroke:blue;fill:blue;" id="12477" x2="780.00" x1="830.00" y1="460.00" y2="520.00" /><line style="stroke:blue;fill:blue;" id="12478" x2="917.68" x1="880.00" y1="150.00" y2="97.68" /><line style="stroke:blue;fill:blue;" id="12479" x2="920.00" x1="880.00" y1="150.00" y2="180.00" /><line style="stroke:blue;fill:blue;" id="12480" x2="850.00" x1="917.68" y1="97.68" y2="80.00" /><line style="stroke:blue;fill:blue;" id="12481" x2="880.00" x1="917.68" y1="97.68" y2="150.00" /><line style="stroke:blue;fill:blue;" id="12482" x2="952.32" x1="917.68" y1="97.68" y2="132.32" /><line style="stroke:blue;fill:blue;" id="12483" x2="880.00" x1="920.00" y1="180.00" y2="150.00" /><line style="stroke:blue;fill:blue;" id="12484" x2="952.32" x1="920.00" y1="180.00" y2="132.32" /><line style="stroke:blue;fill:blue;" id="12485" x2="980.00" x1="952.32" y1="132.32" y2="50.00" /><line style="stroke:blue;fill:blue;" id="12486" x2="917.68" x1="952.32" y1="132.32" y2="97.68" /><line style="stroke:blue;fill:blue;" id="12487" x2="920.00" x1="952.32" y1="132.32" y2="180.00" /><line style="stroke:blue;fill:blue;" id="12488" x2="1000.00" x1="952.32" y1="132.32" y2="180.00" /><line style="stroke:blue;fill:blue;" id="12489" x2="952.32" x1="1000.00" y1="180.00" y2="132.32" /><line style="stroke:blue;fill:blue;" id="12490" x2="1000.00" x1="1000.00" y1="180.00" y2="250.00" /><line style="stroke:blue;fill:blue;" id="12491" x2="1000.00" x1="1000.00" y1="250.00" y2="180.00" /><line style="stroke:blue;fill:blue;" id="12492" x2="960.00" x1="1000.00" y1="250.00" y2="320.00" /><line style="stroke:blue;fill:blue;" id="12493" x2="80.00" x1="50.00" y1="480.00" y2="540.00" /><line style="stroke:blue;fill:blue;" id="12494" x2="150.00" x1="100.00" y1="680.00" y2="650.00" /><line style="stroke:blue;fill:blue;" id="12495" x2="200.00" x1="290.00" y1="470.00" y2="500.00" /><line style="stroke:blue;fill:blue;" id="12496" x2="300.00" x1="380.00" y1="120.00" y2="100.00" /><line style="stroke:blue;fill:blue;" id="12497" x2="520.00" x1="520.00" y1="380.00" y2="320.00" /><line style="stroke:blue;fill:blue;" id="12498" x2="820.00" x1="950.00" y1="510.00" y2="550.00" /><line style="stroke:blue;fill:blue;" id="12499" x2="1000.00" x1="960.00" y1="320.00" y2="250.00" /><line style="stroke:blue;fill:blue;" id="12500" x2="952.32" x1="980.00" y1="50.00" y2="132.32" /></svg>
