<?xml version="1.0" standalone="yes"?><!DOCTYPE svg PUBLIC "-//W3C//DTD SVG 1.1//EN" "http://www.w3.org/Graphics/SVG/1.1/DTD/svg11.dtd"[]><svg height="800.00" id="11994" width="1050.00" xmlns="http://www.w3.org/2000/svg" xmlns:xlink="http://www.w3.org/1999/xlink"><rect Type="system" Region="对舞之域" height="5.00" y="50.00" Name="0-GZX9" width="5.00" x="50.00" id="11995" ID="30002454" /><text x="50.00" y="50.00" id="11996">0-GZX9</text><rect Type="system" Region="对舞之域" height="5.00" y="120.00" Name="2H-TSE" width="5.00" x="50.00" id="11998" ID="30002455" /><text x="50.00" y="120.00" id="11999">2H-TSE</text><rect Type="system" Region="对舞之域" height="5.00" y="210.00" Name="QKTR-L" width="5.00" x="60.00" id="12001" ID="30002431" /><text x="60.00" y="210.00" id="12002">QKTR-L</text><rect Type="system" Region="对舞之域" height="5.00" y="540.00" Name="EOA-ZC" width="5.00" x="80.00" id="12004" ID="30002475" /><text x="80.00" y="540.00" id="12005">EOA-ZC</text><rect Type="system" Region="对舞之域" height="5.00" y="50.00" Name="KR-V6G" width="5.00" x="120.00" id="12007" ID="30002452" /><text x="120.00" y="50.00" id="12008">KR-V6G</text><rect Type="system" Region="对舞之域" height="5.00" y="100.00" Name="AP9-LV" width="5.00" x="120.00" id="12010" ID="30002453" /><text x="120.00" y="100.00" id="12011">AP9-LV</text><rect Type="system" Region="对舞之域" height="5.00" y="150.00" Name="4NGK-F" width="5.00" x="120.00" id="12013" ID="30002456" /><text x="120.00" y="150.00" id="12014">4NGK-F</text><rect Type="system" Region="对舞之域" height="5.00" y="320.00" Name="B6-52M" width="5.00" x="120.00" id="12016" ID="30002436" /><text x="120.00" y="320.00" id="12017">B6-52M</text><rect Type="system" Region="对舞之域" height="5.00" y="500.00" Name="UBX-CC" width="5.00" x="150.00" id="12019" ID="30002473" /><text x="150.00" y="500.00" id="12020">UBX-CC</text><rect Type="system" Region="对舞之域" height="5.00" y="580.00" Name="TJM-JJ" width="5.00" x="150.00" id="12022" ID="30002474" /><text x="150.00" y="580.00" id="12023">TJM-JJ</text><rect Type="system" Region="对舞之域" height="5.00" y="650.00" Name="QP0K-B" width="5.00" x="150.00" id="12025" ID="30002479" /><text x="150.00" y="650.00" id="12026">QP0K-B</text><rect Type="system" Region="对舞之域" height="5.00" y="270.00" Name="V-MZW0" width="5.00" x="150.00" id="12028" ID="30002437" /><text x="150.00" y="270.00" id="12029">V-MZW0</text><rect Type="system" Region="对舞之域" height="5.00" y="370.00" Name="L4X-FH" width="5.00" x="150.00" id="12031" ID="30002435" /><text x="150.00" y="370.00" id="12032">L4X-FH</text><rect Type="system" Region="对舞之域" height="5.00" y="50.00" Name="NQ-9IH" width="5.00" x="200.00" id="12034" ID="30002451" /><text x="200.00" y="50.00" id="12035">NQ-9IH</text><rect Type="system" Region="对舞之域" height="5.00" y="500.00" Name="AD-5B8" width="5.00" x="200.00" id="12037" ID="30002478" /><text x="200.00" y="500.00" id="12038">AD-5B8</text><rect Type="system" Region="对舞之域" height="5.00" y="580.00" Name="G-73MR" width="5.00" x="200.00" id="12040" ID="30002476" /><text x="200.00" y="580.00" id="12041">G-73MR</text><rect Type="system" Region="对舞之域" height="5.00" y="650.00" Name="E-91FV" width="5.00" x="200.00" id="12043" ID="30002477" /><text x="200.00" y="650.00" id="12044">E-91FV</text><rect Type="system" Region="对舞之域" height="5.00" y="220.00" Name="M-MD31" width="5.00" x="220.00" id="12046" ID="30002428" /><text x="220.00" y="220.00" id="12047">M-MD31</text><rect Type="system" Region="对舞之域" height="5.00" y="300.00" Name="L-HV5C" width="5.00" x="250.00" id="12049" ID="30002434" /><text x="250.00" y="300.00" id="12050">L-HV5C</text><rect Type="system" Region="对舞之域" height="5.00" y="380.00" Name="NBPH-N" width="5.00" x="250.00" id="12052" ID="30002433" /><text x="250.00" y="380.00" id="12053">NBPH-N</text><rect Type="system" Region="对舞之域" height="5.00" y="150.00" Name="FDZ4-A" width="5.00" x="280.00" id="12055" ID="30002423" /><text x="280.00" y="150.00" id="12056">FDZ4-A</text><rect Type="system" Region="对舞之域" height="5.00" y="580.00" Name="54-MF6" width="5.00" x="280.00" id="12058" ID="30002480" /><text x="280.00" y="580.00" id="12059">54-MF6</text><rect Type="system" Region="对舞之域" height="5.00" y="250.00" Name="WH-2EZ" width="5.00" x="280.00" id="12061" ID="30002429" /><text x="280.00" y="250.00" id="12062">WH-2EZ</text><rect Type="system" Region="对舞之域" height="5.00" y="100.00" Name="MR4-MY" width="5.00" x="300.00" id="12064" ID="30002421" /><text x="300.00" y="100.00" id="12065">MR4-MY</text><rect Type="system" Region="对舞之域" height="5.00" y="50.00" Name="SR-KBB" width="5.00" x="320.00" id="12067" ID="30002422" /><text x="320.00" y="50.00" id="12068">SR-KBB</text><rect Type="system" Region="对舞之域" height="5.00" y="180.00" Name="若阿" width="5.00" x="350.00" id="12070" ID="30002426" /><text x="350.00" y="180.00" id="12071">若阿</text><rect Type="system" Region="对舞之域" height="5.00" y="550.00" Name="TZL-WT" width="5.00" x="350.00" id="12073" ID="30002494" /><text x="350.00" y="550.00" id="12074">TZL-WT</text><rect Type="system" Region="对舞之域" height="5.00" y="600.00" Name="4K0N-J" width="5.00" x="350.00" id="12076" ID="30002495" /><text x="350.00" y="600.00" id="12077">4K0N-J</text><rect Type="system" Region="对舞之域" height="5.00" y="300.00" Name="D0-F4W" width="5.00" x="350.00" id="12079" ID="30002430" /><text x="350.00" y="300.00" id="12080">D0-F4W</text><rect Type="system" Region="对舞之域" height="5.00" y="380.00" Name="YN3-E3" width="5.00" x="350.00" id="12082" ID="30002432" /><text x="350.00" y="380.00" id="12083">YN3-E3</text><rect Type="system" Region="对舞之域" height="5.00" y="670.00" Name="W-3BSU" width="5.00" x="360.00" id="12085" ID="30002497" /><text x="360.00" y="670.00" id="12086">W-3BSU</text><rect Type="system" Region="对舞之域" height="5.00" y="50.00" Name="2E-ZR5" width="5.00" x="400.00" id="12088" ID="30002424" /><text x="400.00" y="50.00" id="12089">2E-ZR5</text><rect Type="system" Region="对舞之域" height="5.00" y="520.00" Name="LR-2XT" width="5.00" x="420.00" id="12091" ID="30002493" /><text x="420.00" y="520.00" id="12092">LR-2XT</text><rect Type="system" Region="对舞之域" height="5.00" y="600.00" Name="B-F1MI" width="5.00" x="420.00" id="12094" ID="30002496" /><text x="420.00" y="600.00" id="12095">B-F1MI</text><rect Type="system" Region="对舞之域" height="5.00" y="324.50" Name="8MG-J6" width="5.00" x="450.00" id="12097" ID="30002442" /><text x="450.00" y="324.50" id="12098">8MG-J6</text><rect Type="system" Region="对舞之域" height="5.00" y="50.00" Name="O1-FTD" width="5.00" x="450.00" id="12100" ID="30002425" /><text x="450.00" y="50.00" id="12101">O1-FTD</text><rect Type="system" Region="对舞之域" height="5.00" y="220.00" Name="BND-16" width="5.00" x="450.00" id="12103" ID="30002438" /><text x="450.00" y="220.00" id="12104">BND-16</text><rect Type="system" Region="对舞之域" height="5.00" y="275.50" Name="IOO-7O" width="5.00" x="450.00" id="12106" ID="30002439" /><text x="450.00" y="275.50" id="12107">IOO-7O</text><rect Type="system" Region="对舞之域" height="5.00" y="670.00" Name="BE-UUN" width="5.00" x="480.00" id="12109" ID="30002498" /><text x="480.00" y="670.00" id="12110">BE-UUN</text><rect Type="system" Region="对舞之域" height="5.00" y="320.00" Name="BWF-ZZ" width="5.00" x="520.00" id="12112" ID="30002440" /><text x="520.00" y="320.00" id="12113">BWF-ZZ</text><rect Type="system" Region="对舞之域" height="5.00" y="50.00" Name="OEY-OR" width="5.00" x="550.00" id="12115" ID="30002427" /><text x="550.00" y="50.00" id="12116">OEY-OR</text><rect Type="system" Region="对舞之域" height="5.00" y="220.00" Name="4-CUM5" width="5.00" x="550.00" id="12118" ID="30002441" /><text x="550.00" y="220.00" id="12119">4-CUM5</text><rect Type="system" Region="对舞之域" height="5.00" y="280.00" Name="LSI-V" width="5.00" x="550.00" id="12121" ID="30002443" /><text x="550.00" y="280.00" id="12122">LSI-V</text><rect Type="system" Region="对舞之域" height="5.00" y="450.00" Name="O2O-2X" width="5.00" x="550.00" id="12124" ID="30002499" /><text x="550.00" y="450.00" id="12125">O2O-2X</text><rect Type="system" Region="对舞之域" height="5.00" y="520.00" Name="5F-YRA" width="5.00" x="550.00" id="12127" ID="30002501" /><text x="550.00" y="520.00" id="12128">5F-YRA</text><rect Type="system" Region="对舞之域" height="5.00" y="575.50" Name="TDE4-H" width="5.00" x="550.00" id="12130" ID="30002502" /><text x="550.00" y="575.50" id="12131">TDE4-H</text><rect Type="system" Region="对舞之域" height="5.00" y="624.50" Name="UER-TH" width="5.00" x="550.00" id="12133" ID="30002503" /><text x="550.00" y="624.50" id="12134">UER-TH</text><rect Type="system" Region="对舞之域" height="5.00" y="680.00" Name="UG-UWZ" width="5.00" x="550.00" id="12136" ID="30002504" /><text x="550.00" y="680.00" id="12137">UG-UWZ</text><rect Type="system" Region="对舞之域" height="5.00" y="480.00" Name="JE1-36" width="5.00" x="620.00" id="12139" ID="30002500" /><text x="620.00" y="480.00" id="12140">JE1-36</text><rect Type="system" Region="对舞之域" height="5.00" y="20.00" Name="SV-K8J" width="5.00" x="650.00" id="12142" ID="30002445" /><text x="650.00" y="20.00" id="12143">SV-K8J</text><rect Type="system" Region="对舞之域" height="5.00" y="80.00" Name="39-DGG" width="5.00" x="650.00" id="12145" ID="30002444" /><text x="650.00" y="80.00" id="12146">39-DGG</text><rect Type="system" Region="对舞之域" height="5.00" y="400.00" Name="6YC-TU" width="5.00" x="650.00" id="12148" ID="30002465" /><text x="650.00" y="400.00" id="12149">6YC-TU</text><rect Type="system" Region="对舞之域" height="5.00" y="600.00" Name="3SFU-S" width="5.00" x="650.00" id="12151" ID="30002486" /><text x="650.00" y="600.00" id="12152">3SFU-S</text><rect Type="system" Region="对舞之域" height="5.00" y="650.00" Name="RFGW-V" width="5.00" x="650.00" id="12154" ID="30002491" /><text x="650.00" y="650.00" id="12155">RFGW-V</text><rect Type="system" Region="对舞之域" height="5.00" y="320.00" Name="6L78-1" width="5.00" x="650.00" id="12157" ID="30002459" /><text x="650.00" y="320.00" id="12158">6L78-1</text><rect Type="system" Region="对舞之域" height="5.00" y="550.00" Name="8-KZXQ" width="5.00" x="680.00" id="12160" ID="30002484" /><text x="680.00" y="550.00" id="12161">8-KZXQ</text><rect Type="system" Region="对舞之域" height="5.00" y="700.00" Name="N-HK93" width="5.00" x="700.00" id="12163" ID="30002492" /><text x="700.00" y="700.00" id="12164">N-HK93</text><rect Type="system" Region="对舞之域" height="5.00" y="50.00" Name="6RQ9-A" width="5.00" x="700.00" id="12166" ID="30002446" /><text x="700.00" y="50.00" id="12167">6RQ9-A</text><rect Type="system" Region="对舞之域" height="5.00" y="120.00" Name="K42-IE" width="5.00" x="700.00" id="12169" ID="30002447" /><text x="700.00" y="120.00" id="12170">K42-IE</text><rect Type="system" Region="对舞之域" height="5.00" y="250.00" Name="O-VWPB" width="5.00" x="720.00" id="12172" ID="30002457" /><text x="720.00" y="250.00" id="12173">O-VWPB</text><rect Type="system" Region="对舞之域" height="5.00" y="355.98" Name="Y8R-XZ" width="5.00" x="749.18" id="12175" ID="30002466" /><text x="749.18" y="355.98" id="12176">Y8R-XZ</text><rect Type="system" Region="对舞之域" height="5.00" y="404.98" Name="U-L4KS" width="5.00" x="750.01" id="12178" ID="30002463" /><text x="750.01" y="404.98" id="12179">U-L4KS</text><rect Type="system" Region="对舞之域" height="5.00" y="299.16" Name="4VY-Y1" width="5.00" x="738.20" id="12181" ID="30002461" /><text x="738.20" y="299.16" id="12182">4VY-Y1</text><rect Type="system" Region="对舞之域" height="5.00" y="580.00" Name="P-6I0B" width="5.00" x="770.00" id="12184" ID="30002482" /><text x="770.00" y="580.00" id="12185">P-6I0B</text><rect Type="system" Region="对舞之域" height="5.00" y="650.00" Name="CFYY-J" width="5.00" x="760.00" id="12187" ID="30002483" /><text x="760.00" y="650.00" id="12188">CFYY-J</text><rect Type="system" Region="对舞之域" height="5.00" y="720.00" Name="HKYW-T" width="5.00" x="750.00" id="12190" ID="30002485" /><text x="750.00" y="720.00" id="12191">HKYW-T</text><rect Type="system" Region="对舞之域" height="5.00" y="80.00" Name="3USX-F" width="5.00" x="750.00" id="12193" ID="30002449" /><text x="750.00" y="80.00" id="12194">3USX-F</text><rect Type="system" Region="对舞之域" height="5.00" y="150.00" Name="VSJ-PP" width="5.00" x="780.00" id="12196" ID="30002448" /><text x="780.00" y="150.00" id="12197">VSJ-PP</text><rect Type="system" Region="对舞之域" height="5.00" y="520.00" Name="D-I9HJ" width="5.00" x="780.00" id="12199" ID="30002481" /><text x="780.00" y="520.00" id="12200">D-I9HJ</text><rect Type="system" Region="对舞之域" height="5.00" y="250.00" Name="LX-ZOJ" width="5.00" x="780.00" id="12202" ID="30002458" /><text x="780.00" y="250.00" id="12203">LX-ZOJ</text><rect Type="system" Region="对舞之域" height="5.00" y="319.88" Name="04-LQM" width="5.00" x="782.61" id="12205" ID="30002460" /><text x="782.61" y="319.88" id="12206">04-LQM</text><rect Type="system" Region="对舞之域" height="5.00" y="700.00" Name="VJ-NQP" width="5.00" x="830.00" id="12208" ID="30002487" /><text x="830.00" y="700.00" id="12209">VJ-NQP</text><rect Type="system" Region="对舞之域" height="5.00" y="550.00" Name="艾蒂斯" width="5.00" x="820.00" id="12211" ID="30002489" /><text x="820.00" y="550.00" id="12212">艾蒂斯</text><rect Type="system" Region="对舞之域" height="5.00" y="380.00" Name="K25-XD" width="5.00" x="820.00" id="12214" ID="30002464" /><text x="820.00" y="380.00" id="12215">K25-XD</text><rect Type="system" Region="对舞之域" height="5.00" y="630.00" Name="U6D-9A" width="5.00" x="860.00" id="12217" ID="30002488" /><text x="860.00" y="630.00" id="12218">U6D-9A</text><rect Type="system" Region="对舞之域" height="5.00" y="80.00" Name="9-KWXC" width="5.00" x="850.00" id="12220" ID="30002450" /><text x="850.00" y="80.00" id="12221">9-KWXC</text><rect Type="system" Region="对舞之域" height="5.00" y="300.00" Name="LU-HQS" width="5.00" x="850.00" id="12223" ID="30002462" /><text x="850.00" y="300.00" id="12224">LU-HQS</text><rect Type="system" Region="对舞之域" height="5.00" y="460.00" Name="PYY3-5" width="5.00" x="830.00" id="12226" ID="30002490" /><text x="830.00" y="460.00" id="12227">PYY3-5</text><rect Type="system" Region="对舞之域" height="5.00" y="150.00" Name="HJO-84" width="5.00" x="880.00" id="12229" ID="30002468" /><text x="880.00" y="150.00" id="12230">HJO-84</text><rect Type="system" Region="对舞之域" height="5.00" y="97.68" Name="P-E9GN" width="5.00" x="917.68" id="12232" ID="30002467" /><text x="917.68" y="97.68" id="12233">P-E9GN</text><rect Type="system" Region="对舞之域" height="5.00" y="180.00" Name="4D9-66" width="5.00" x="920.00" id="12235" ID="30002469" /><text x="920.00" y="180.00" id="12236">4D9-66</text><rect Type="system" Region="对舞之域" height="5.00" y="132.32" Name="L-TOFR" width="5.00" x="952.32" id="12238" ID="30002470" /><text x="952.32" y="132.32" id="12239">L-TOFR</text><rect Type="system" Region="对舞之域" height="5.00" y="180.00" Name="Q-TBHW" width="5.00" x="1000.00" id="12241" ID="30002471" /><text x="1000.00" y="180.00" id="12242">Q-TBHW</text><rect Type="system" Region="对舞之域" height="5.00" y="250.00" Name="9P4O-F" width="5.00" x="1000.00" id="12244" ID="30002472" /><text x="1000.00" y="250.00" id="12245">9P4O-F</text><rect Type="system" Region="伏尔戈" height="5.00" y="480.00" Name="埃加奥" width="5.00" x="50.00" id="12247" ID="30000200" /><text x="50.00" y="480.00" id="12248">埃加奥</text><rect Type="system" Region="静寂谷" height="5.00" y="680.00" Name="1W-0KS" width="5.00" x="100.00" id="12250" ID="30000288" /><text x="100.00" y="680.00" id="12251">1W-0KS</text><rect Type="system" Region="美特伯里斯" height="5.00" y="470.00" Name="尤加拉那" width="5.00" x="290.00" id="12253" ID="30003466" /><text x="290.00" y="470.00" id="12254">尤加拉那</text><rect Type="system" Region="静寂谷" height="5.00" y="120.00" Name="H-5GUI" width="5.00" x="380.00" id="12256" ID="30000225" /><text x="380.00" y="120.00" id="12257">H-5GUI</text><rect Type="system" Region="伏尔戈" height="5.00" y="380.00" Name="欧加仑" width="5.00" x="520.00" id="12259" ID="30000186" /><text x="520.00" y="380.00" id="12260">欧加仑</text><rect Type="system" Region="大荒野" height="5.00" y="510.00" Name="K-IYNW" width="5.00" x="950.00" id="12262" ID="30001000" /><text x="950.00" y="510.00" id="12263">K-IYNW</text><rect Type="system" Region="卡勒瓦拉阔地" height="5.00" y="320.00" Name="1S-SU1" width="5.00" x="960.00" id="12265" ID="30002866" /><text x="960.00" y="320.00" id="12266">1S-SU1</text><rect Type="system" Region="静寂谷" height="5.00" y="50.00" Name="9-GBPD" width="5.00" x="980.00" id="12268" ID="30000318" /><text x="980.00" y="50.00" id="12269">9-GBPD</text><line x2="120.00" style="fill:blue;stroke:blue;" y1="50.00" x1="50.00" id="12271" y2="50.00" /><line x2="120.00" style="fill:blue;stroke:blue;" y1="50.00" x1="50.00" id="12272" y2="100.00" /><line x2="50.00" style="fill:blue;stroke:blue;" y1="50.00" x1="50.00" id="12273" y2="120.00" /><line x2="50.00" style="fill:blue;stroke:blue;" y1="120.00" x1="50.00" id="12274" y2="50.00" /><line x2="220.00" style="fill:blue;stroke:blue;" y1="210.00" x1="60.00" id="12275" y2="220.00" /><line x2="50.00" style="fill:blue;stroke:blue;" y1="540.00" x1="80.00" id="12276" y2="480.00" /><line x2="150.00" style="fill:blue;stroke:blue;" y1="540.00" x1="80.00" id="12277" y2="500.00" /><line x2="150.00" style="fill:blue;stroke:blue;" y1="540.00" x1="80.00" id="12278" y2="580.00" /><line x2="200.00" style="fill:blue;stroke:blue;" y1="50.00" x1="120.00" id="12279" y2="50.00" /><line x2="50.00" style="fill:blue;stroke:blue;" y1="50.00" x1="120.00" id="12280" y2="50.00" /><line x2="200.00" style="fill:blue;stroke:blue;" y1="100.00" x1="120.00" id="12281" y2="50.00" /><line x2="50.00" style="fill:blue;stroke:blue;" y1="100.00" x1="120.00" id="12282" y2="50.00" /><line x2="120.00" style="fill:blue;stroke:blue;" y1="100.00" x1="120.00" id="12283" y2="150.00" /><line x2="120.00" style="fill:blue;stroke:blue;" y1="150.00" x1="120.00" id="12284" y2="100.00" /><line x2="150.00" style="fill:blue;stroke:blue;" y1="320.00" x1="120.00" id="12285" y2="370.00" /><line x2="150.00" style="fill:blue;stroke:blue;" y1="320.00" x1="120.00" id="12286" y2="270.00" /><line x2="250.00" style="fill:blue;stroke:blue;" y1="500.00" x1="150.00" id="12287" y2="380.00" /><line x2="150.00" style="fill:blue;stroke:blue;" y1="500.00" x1="150.00" id="12288" y2="580.00" /><line x2="80.00" style="fill:blue;stroke:blue;" y1="500.00" x1="150.00" id="12289" y2="540.00" /><line x2="200.00" style="fill:blue;stroke:blue;" y1="500.00" x1="150.00" id="12290" y2="500.00" /><line x2="150.00" style="fill:blue;stroke:blue;" y1="580.00" x1="150.00" id="12291" y2="500.00" /><line x2="80.00" style="fill:blue;stroke:blue;" y1="580.00" x1="150.00" id="12292" y2="540.00" /><line x2="200.00" style="fill:blue;stroke:blue;" y1="580.00" x1="150.00" id="12293" y2="580.00" /><line x2="150.00" style="fill:blue;stroke:blue;" y1="580.00" x1="150.00" id="12294" y2="650.00" /><line x2="100.00" style="fill:blue;stroke:blue;" y1="650.00" x1="150.00" id="12295" y2="680.00" /><line x2="150.00" style="fill:blue;stroke:blue;" y1="650.00" x1="150.00" id="12296" y2="580.00" /><line x2="200.00" style="fill:blue;stroke:blue;" y1="650.00" x1="150.00" id="12297" y2="650.00" /><line x2="220.00" style="fill:blue;stroke:blue;" y1="270.00" x1="150.00" id="12298" y2="220.00" /><line x2="120.00" style="fill:blue;stroke:blue;" y1="270.00" x1="150.00" id="12299" y2="320.00" /><line x2="250.00" style="fill:blue;stroke:blue;" y1="370.00" x1="150.00" id="12300" y2="380.00" /><line x2="120.00" style="fill:blue;stroke:blue;" y1="370.00" x1="150.00" id="12301" y2="320.00" /><line x2="320.00" style="fill:blue;stroke:blue;" y1="50.00" x1="200.00" id="12302" y2="50.00" /><line x2="120.00" style="fill:blue;stroke:blue;" y1="50.00" x1="200.00" id="12303" y2="50.00" /><line x2="120.00" style="fill:blue;stroke:blue;" y1="50.00" x1="200.00" id="12304" y2="100.00" /><line x2="150.00" style="fill:blue;stroke:blue;" y1="500.00" x1="200.00" id="12305" y2="500.00" /><line x2="200.00" style="fill:blue;stroke:blue;" y1="500.00" x1="200.00" id="12306" y2="580.00" /><line x2="280.00" style="fill:blue;stroke:blue;" y1="500.00" x1="200.00" id="12307" y2="580.00" /><line x2="290.00" style="fill:blue;stroke:blue;" y1="500.00" x1="200.00" id="12308" y2="470.00" /><line x2="150.00" style="fill:blue;stroke:blue;" y1="580.00" x1="200.00" id="12309" y2="580.00" /><line x2="200.00" style="fill:blue;stroke:blue;" y1="580.00" x1="200.00" id="12310" y2="650.00" /><line x2="200.00" style="fill:blue;stroke:blue;" y1="580.00" x1="200.00" id="12311" y2="500.00" /><line x2="280.00" style="fill:blue;stroke:blue;" y1="580.00" x1="200.00" id="12312" y2="580.00" /><line x2="200.00" style="fill:blue;stroke:blue;" y1="650.00" x1="200.00" id="12313" y2="580.00" /><line x2="150.00" style="fill:blue;stroke:blue;" y1="650.00" x1="200.00" id="12314" y2="650.00" /><line x2="280.00" style="fill:blue;stroke:blue;" y1="650.00" x1="200.00" id="12315" y2="580.00" /><line x2="280.00" style="fill:blue;stroke:blue;" y1="220.00" x1="220.00" id="12316" y2="150.00" /><line x2="280.00" style="fill:blue;stroke:blue;" y1="220.00" x1="220.00" id="12317" y2="250.00" /><line x2="60.00" style="fill:blue;stroke:blue;" y1="220.00" x1="220.00" id="12318" y2="210.00" /><line x2="150.00" style="fill:blue;stroke:blue;" y1="220.00" x1="220.00" id="12319" y2="270.00" /><line x2="280.00" style="fill:blue;stroke:blue;" y1="300.00" x1="250.00" id="12320" y2="250.00" /><line x2="350.00" style="fill:blue;stroke:blue;" y1="300.00" x1="250.00" id="12321" y2="300.00" /><line x2="350.00" style="fill:blue;stroke:blue;" y1="300.00" x1="250.00" id="12322" y2="380.00" /><line x2="250.00" style="fill:blue;stroke:blue;" y1="300.00" x1="250.00" id="12323" y2="380.00" /><line x2="350.00" style="fill:blue;stroke:blue;" y1="380.00" x1="250.00" id="12324" y2="300.00" /><line x2="350.00" style="fill:blue;stroke:blue;" y1="380.00" x1="250.00" id="12325" y2="380.00" /><line x2="250.00" style="fill:blue;stroke:blue;" y1="380.00" x1="250.00" id="12326" y2="300.00" /><line x2="150.00" style="fill:blue;stroke:blue;" y1="380.00" x1="250.00" id="12327" y2="370.00" /><line x2="150.00" style="fill:blue;stroke:blue;" y1="380.00" x1="250.00" id="12328" y2="500.00" /><line x2="300.00" style="fill:blue;stroke:blue;" y1="150.00" x1="280.00" id="12329" y2="100.00" /><line x2="350.00" style="fill:blue;stroke:blue;" y1="150.00" x1="280.00" id="12330" y2="180.00" /><line x2="220.00" style="fill:blue;stroke:blue;" y1="150.00" x1="280.00" id="12331" y2="220.00" /><line x2="200.00" style="fill:blue;stroke:blue;" y1="580.00" x1="280.00" id="12332" y2="580.00" /><line x2="200.00" style="fill:blue;stroke:blue;" y1="580.00" x1="280.00" id="12333" y2="650.00" /><line x2="200.00" style="fill:blue;stroke:blue;" y1="580.00" x1="280.00" id="12334" y2="500.00" /><line x2="220.00" style="fill:blue;stroke:blue;" y1="250.00" x1="280.00" id="12335" y2="220.00" /><line x2="350.00" style="fill:blue;stroke:blue;" y1="250.00" x1="280.00" id="12336" y2="300.00" /><line x2="250.00" style="fill:blue;stroke:blue;" y1="250.00" x1="280.00" id="12337" y2="300.00" /><line x2="380.00" style="fill:blue;stroke:blue;" y1="100.00" x1="300.00" id="12338" y2="120.00" /><line x2="320.00" style="fill:blue;stroke:blue;" y1="100.00" x1="300.00" id="12339" y2="50.00" /><line x2="280.00" style="fill:blue;stroke:blue;" y1="100.00" x1="300.00" id="12340" y2="150.00" /><line x2="300.00" style="fill:blue;stroke:blue;" y1="50.00" x1="320.00" id="12341" y2="100.00" /><line x2="400.00" style="fill:blue;stroke:blue;" y1="50.00" x1="320.00" id="12342" y2="50.00" /><line x2="200.00" style="fill:blue;stroke:blue;" y1="50.00" x1="320.00" id="12343" y2="50.00" /><line x2="280.00" style="fill:blue;stroke:blue;" y1="180.00" x1="350.00" id="12344" y2="150.00" /><line x2="420.00" style="fill:blue;stroke:blue;" y1="550.00" x1="350.00" id="12345" y2="520.00" /><line x2="350.00" style="fill:blue;stroke:blue;" y1="550.00" x1="350.00" id="12346" y2="600.00" /><line x2="350.00" style="fill:blue;stroke:blue;" y1="600.00" x1="350.00" id="12347" y2="550.00" /><line x2="280.00" style="fill:blue;stroke:blue;" y1="300.00" x1="350.00" id="12348" y2="250.00" /><line x2="350.00" style="fill:blue;stroke:blue;" y1="300.00" x1="350.00" id="12349" y2="380.00" /><line x2="250.00" style="fill:blue;stroke:blue;" y1="300.00" x1="350.00" id="12350" y2="380.00" /><line x2="250.00" style="fill:blue;stroke:blue;" y1="300.00" x1="350.00" id="12351" y2="300.00" /><line x2="350.00" style="fill:blue;stroke:blue;" y1="380.00" x1="350.00" id="12352" y2="300.00" /><line x2="250.00" style="fill:blue;stroke:blue;" y1="380.00" x1="350.00" id="12353" y2="380.00" /><line x2="250.00" style="fill:blue;stroke:blue;" y1="380.00" x1="350.00" id="12354" y2="300.00" /><line x2="420.00" style="fill:blue;stroke:blue;" y1="380.00" x1="350.00" id="12355" y2="520.00" /><line x2="420.00" style="fill:blue;stroke:blue;" y1="670.00" x1="360.00" id="12356" y2="600.00" /><line x2="480.00" style="fill:blue;stroke:blue;" y1="670.00" x1="360.00" id="12357" y2="670.00" /><line x2="320.00" style="fill:blue;stroke:blue;" y1="50.00" x1="400.00" id="12358" y2="50.00" /><line x2="450.00" style="fill:blue;stroke:blue;" y1="50.00" x1="400.00" id="12359" y2="50.00" /><line x2="350.00" style="fill:blue;stroke:blue;" y1="520.00" x1="420.00" id="12360" y2="380.00" /><line x2="350.00" style="fill:blue;stroke:blue;" y1="520.00" x1="420.00" id="12361" y2="550.00" /><line x2="420.00" style="fill:blue;stroke:blue;" y1="520.00" x1="420.00" id="12362" y2="600.00" /><line x2="420.00" style="fill:blue;stroke:blue;" y1="600.00" x1="420.00" id="12363" y2="520.00" /><line x2="360.00" style="fill:blue;stroke:blue;" y1="600.00" x1="420.00" id="12364" y2="670.00" /><line x2="480.00" style="fill:blue;stroke:blue;" y1="600.00" x1="420.00" id="12365" y2="670.00" /><line x2="520.00" style="fill:blue;stroke:blue;" y1="324.50" x1="450.00" id="12366" y2="320.00" /><line x2="400.00" style="fill:blue;stroke:blue;" y1="50.00" x1="450.00" id="12367" y2="50.00" /><line x2="550.00" style="fill:blue;stroke:blue;" y1="50.00" x1="450.00" id="12368" y2="50.00" /><line x2="450.00" style="fill:blue;stroke:blue;" y1="50.00" x1="450.00" id="12369" y2="220.00" /><line x2="450.00" style="fill:blue;stroke:blue;" y1="220.00" x1="450.00" id="12370" y2="50.00" /><line x2="450.00" style="fill:blue;stroke:blue;" y1="220.00" x1="450.00" id="12371" y2="275.50" /><line x2="550.00" style="fill:blue;stroke:blue;" y1="220.00" x1="450.00" id="12372" y2="220.00" /><line x2="450.00" style="fill:blue;stroke:blue;" y1="275.50" x1="450.00" id="12373" y2="220.00" /><line x2="520.00" style="fill:blue;stroke:blue;" y1="275.50" x1="450.00" id="12374" y2="320.00" /><line x2="420.00" style="fill:blue;stroke:blue;" y1="670.00" x1="480.00" id="12375" y2="600.00" /><line x2="360.00" style="fill:blue;stroke:blue;" y1="670.00" x1="480.00" id="12376" y2="670.00" /><line x2="520.00" style="fill:blue;stroke:blue;" y1="320.00" x1="520.00" id="12377" y2="380.00" /><line x2="450.00" style="fill:blue;stroke:blue;" y1="320.00" x1="520.00" id="12378" y2="275.50" /><line x2="450.00" style="fill:blue;stroke:blue;" y1="320.00" x1="520.00" id="12379" y2="324.50" /><line x2="550.00" style="fill:blue;stroke:blue;" y1="320.00" x1="520.00" id="12380" y2="280.00" /><line x2="450.00" style="fill:blue;stroke:blue;" y1="50.00" x1="550.00" id="12381" y2="50.00" /><line x2="650.00" style="fill:blue;stroke:blue;" y1="50.00" x1="550.00" id="12382" y2="80.00" /><line x2="450.00" style="fill:blue;stroke:blue;" y1="220.00" x1="550.00" id="12383" y2="220.00" /><line x2="550.00" style="fill:blue;stroke:blue;" y1="220.00" x1="550.00" id="12384" y2="280.00" /><line x2="520.00" style="fill:blue;stroke:blue;" y1="280.00" x1="550.00" id="12385" y2="320.00" /><line x2="550.00" style="fill:blue;stroke:blue;" y1="280.00" x1="550.00" id="12386" y2="220.00" /><line x2="650.00" style="fill:blue;stroke:blue;" y1="450.00" x1="550.00" id="12387" y2="400.00" /><line x2="620.00" style="fill:blue;stroke:blue;" y1="450.00" x1="550.00" id="12388" y2="480.00" /><line x2="550.00" style="fill:blue;stroke:blue;" y1="450.00" x1="550.00" id="12389" y2="520.00" /><line x2="550.00" style="fill:blue;stroke:blue;" y1="520.00" x1="550.00" id="12390" y2="450.00" /><line x2="550.00" style="fill:blue;stroke:blue;" y1="520.00" x1="550.00" id="12391" y2="575.50" /><line x2="550.00" style="fill:blue;stroke:blue;" y1="575.50" x1="550.00" id="12392" y2="520.00" /><line x2="550.00" style="fill:blue;stroke:blue;" y1="575.50" x1="550.00" id="12393" y2="624.50" /><line x2="550.00" style="fill:blue;stroke:blue;" y1="624.50" x1="550.00" id="12394" y2="575.50" /><line x2="550.00" style="fill:blue;stroke:blue;" y1="624.50" x1="550.00" id="12395" y2="680.00" /><line x2="550.00" style="fill:blue;stroke:blue;" y1="680.00" x1="550.00" id="12396" y2="624.50" /><line x2="550.00" style="fill:blue;stroke:blue;" y1="480.00" x1="620.00" id="12397" y2="450.00" /><line x2="650.00" style="fill:blue;stroke:blue;" y1="20.00" x1="650.00" id="12398" y2="80.00" /><line x2="550.00" style="fill:blue;stroke:blue;" y1="80.00" x1="650.00" id="12399" y2="50.00" /><line x2="650.00" style="fill:blue;stroke:blue;" y1="80.00" x1="650.00" id="12400" y2="20.00" /><line x2="700.00" style="fill:blue;stroke:blue;" y1="80.00" x1="650.00" id="12401" y2="50.00" /><line x2="650.00" style="fill:blue;stroke:blue;" y1="400.00" x1="650.00" id="12402" y2="320.00" /><line x2="750.01" style="fill:blue;stroke:blue;" y1="400.00" x1="650.00" id="12403" y2="404.98" /><line x2="550.00" style="fill:blue;stroke:blue;" y1="400.00" x1="650.00" id="12404" y2="450.00" /><line x2="680.00" style="fill:blue;stroke:blue;" y1="600.00" x1="650.00" id="12405" y2="550.00" /><line x2="650.00" style="fill:blue;stroke:blue;" y1="600.00" x1="650.00" id="12406" y2="650.00" /><line x2="650.00" style="fill:blue;stroke:blue;" y1="650.00" x1="650.00" id="12407" y2="600.00" /><line x2="700.00" style="fill:blue;stroke:blue;" y1="650.00" x1="650.00" id="12408" y2="700.00" /><line x2="720.00" style="fill:blue;stroke:blue;" y1="320.00" x1="650.00" id="12409" y2="250.00" /><line x2="782.61" style="fill:blue;stroke:blue;" y1="320.00" x1="650.00" id="12410" y2="319.88" /><line x2="738.20" style="fill:blue;stroke:blue;" y1="320.00" x1="650.00" id="12411" y2="299.16" /><line x2="750.01" style="fill:blue;stroke:blue;" y1="320.00" x1="650.00" id="12412" y2="404.98" /><line x2="650.00" style="fill:blue;stroke:blue;" y1="320.00" x1="650.00" id="12413" y2="400.00" /><line x2="780.00" style="fill:blue;stroke:blue;" y1="550.00" x1="680.00" id="12414" y2="520.00" /><line x2="650.00" style="fill:blue;stroke:blue;" y1="550.00" x1="680.00" id="12415" y2="600.00" /><line x2="750.00" style="fill:blue;stroke:blue;" y1="700.00" x1="700.00" id="12416" y2="720.00" /><line x2="650.00" style="fill:blue;stroke:blue;" y1="700.00" x1="700.00" id="12417" y2="650.00" /><line x2="650.00" style="fill:blue;stroke:blue;" y1="50.00" x1="700.00" id="12418" y2="80.00" /><line x2="700.00" style="fill:blue;stroke:blue;" y1="50.00" x1="700.00" id="12419" y2="120.00" /><line x2="750.00" style="fill:blue;stroke:blue;" y1="50.00" x1="700.00" id="12420" y2="80.00" /><line x2="700.00" style="fill:blue;stroke:blue;" y1="120.00" x1="700.00" id="12421" y2="50.00" /><line x2="780.00" style="fill:blue;stroke:blue;" y1="120.00" x1="700.00" id="12422" y2="150.00" /><line x2="750.00" style="fill:blue;stroke:blue;" y1="120.00" x1="700.00" id="12423" y2="80.00" /><line x2="780.00" style="fill:blue;stroke:blue;" y1="250.00" x1="720.00" id="12424" y2="150.00" /><line x2="780.00" style="fill:blue;stroke:blue;" y1="250.00" x1="720.00" id="12425" y2="250.00" /><line x2="650.00" style="fill:blue;stroke:blue;" y1="250.00" x1="720.00" id="12426" y2="320.00" /><line x2="738.20" style="fill:blue;stroke:blue;" y1="250.00" x1="720.00" id="12427" y2="299.16" /><line x2="782.61" style="fill:blue;stroke:blue;" y1="355.98" x1="749.18" id="12428" y2="319.88" /><line x2="650.00" style="fill:blue;stroke:blue;" y1="404.98" x1="750.01" id="12429" y2="320.00" /><line x2="820.00" style="fill:blue;stroke:blue;" y1="404.98" x1="750.01" id="12430" y2="380.00" /><line x2="650.00" style="fill:blue;stroke:blue;" y1="404.98" x1="750.01" id="12431" y2="400.00" /><line x2="780.00" style="fill:blue;stroke:blue;" y1="404.98" x1="750.01" id="12432" y2="520.00" /><line x2="720.00" style="fill:blue;stroke:blue;" y1="299.16" x1="738.20" id="12433" y2="250.00" /><line x2="780.00" style="fill:blue;stroke:blue;" y1="299.16" x1="738.20" id="12434" y2="250.00" /><line x2="650.00" style="fill:blue;stroke:blue;" y1="299.16" x1="738.20" id="12435" y2="320.00" /><line x2="850.00" style="fill:blue;stroke:blue;" y1="299.16" x1="738.20" id="12436" y2="300.00" /><line x2="780.00" style="fill:blue;stroke:blue;" y1="580.00" x1="770.00" id="12437" y2="520.00" /><line x2="760.00" style="fill:blue;stroke:blue;" y1="580.00" x1="770.00" id="12438" y2="650.00" /><line x2="770.00" style="fill:blue;stroke:blue;" y1="650.00" x1="760.00" id="12439" y2="580.00" /><line x2="750.00" style="fill:blue;stroke:blue;" y1="650.00" x1="760.00" id="12440" y2="720.00" /><line x2="760.00" style="fill:blue;stroke:blue;" y1="720.00" x1="750.00" id="12441" y2="650.00" /><line x2="830.00" style="fill:blue;stroke:blue;" y1="720.00" x1="750.00" id="12442" y2="700.00" /><line x2="700.00" style="fill:blue;stroke:blue;" y1="720.00" x1="750.00" id="12443" y2="700.00" /><line x2="700.00" style="fill:blue;stroke:blue;" y1="80.00" x1="750.00" id="12444" y2="50.00" /><line x2="700.00" style="fill:blue;stroke:blue;" y1="80.00" x1="750.00" id="12445" y2="120.00" /><line x2="780.00" style="fill:blue;stroke:blue;" y1="80.00" x1="750.00" id="12446" y2="150.00" /><line x2="850.00" style="fill:blue;stroke:blue;" y1="80.00" x1="750.00" id="12447" y2="80.00" /><line x2="700.00" style="fill:blue;stroke:blue;" y1="150.00" x1="780.00" id="12448" y2="120.00" /><line x2="750.00" style="fill:blue;stroke:blue;" y1="150.00" x1="780.00" id="12449" y2="80.00" /><line x2="720.00" style="fill:blue;stroke:blue;" y1="150.00" x1="780.00" id="12450" y2="250.00" /><line x2="750.01" style="fill:blue;stroke:blue;" y1="520.00" x1="780.00" id="12451" y2="404.98" /><line x2="770.00" style="fill:blue;stroke:blue;" y1="520.00" x1="780.00" id="12452" y2="580.00" /><line x2="680.00" style="fill:blue;stroke:blue;" y1="520.00" x1="780.00" id="12453" y2="550.00" /><line x2="820.00" style="fill:blue;stroke:blue;" y1="520.00" x1="780.00" id="12454" y2="550.00" /><line x2="830.00" style="fill:blue;stroke:blue;" y1="520.00" x1="780.00" id="12455" y2="460.00" /><line x2="720.00" style="fill:blue;stroke:blue;" y1="250.00" x1="780.00" id="12456" y2="250.00" /><line x2="782.61" style="fill:blue;stroke:blue;" y1="250.00" x1="780.00" id="12457" y2="319.88" /><line x2="738.20" style="fill:blue;stroke:blue;" y1="250.00" x1="780.00" id="12458" y2="299.16" /><line x2="850.00" style="fill:blue;stroke:blue;" y1="250.00" x1="780.00" id="12459" y2="300.00" /><line x2="780.00" style="fill:blue;stroke:blue;" y1="319.88" x1="782.61" id="12460" y2="250.00" /><line x2="650.00" style="fill:blue;stroke:blue;" y1="319.88" x1="782.61" id="12461" y2="320.00" /><line x2="749.18" style="fill:blue;stroke:blue;" y1="319.88" x1="782.61" id="12462" y2="355.98" /><line x2="750.00" style="fill:blue;stroke:blue;" y1="700.00" x1="830.00" id="12463" y2="720.00" /><line x2="860.00" style="fill:blue;stroke:blue;" y1="700.00" x1="830.00" id="12464" y2="630.00" /><line x2="950.00" style="fill:blue;stroke:blue;" y1="550.00" x1="820.00" id="12465" y2="510.00" /><line x2="780.00" style="fill:blue;stroke:blue;" y1="550.00" x1="820.00" id="12466" y2="520.00" /><line x2="860.00" style="fill:blue;stroke:blue;" y1="550.00" x1="820.00" id="12467" y2="630.00" /><line x2="850.00" style="fill:blue;stroke:blue;" y1="380.00" x1="820.00" id="12468" y2="300.00" /><line x2="750.01" style="fill:blue;stroke:blue;" y1="380.00" x1="820.00" id="12469" y2="404.98" /><line x2="830.00" style="fill:blue;stroke:blue;" y1="630.00" x1="860.00" id="12470" y2="700.00" /><line x2="820.00" style="fill:blue;stroke:blue;" y1="630.00" x1="860.00" id="12471" y2="550.00" /><line x2="750.00" style="fill:blue;stroke:blue;" y1="80.00" x1="850.00" id="12472" y2="80.00" /><line x2="917.68" style="fill:blue;stroke:blue;" y1="80.00" x1="850.00" id="12473" y2="97.68" /><line x2="780.00" style="fill:blue;stroke:blue;" y1="300.00" x1="850.00" id="12474" y2="250.00" /><line x2="738.20" style="fill:blue;stroke:blue;" y1="300.00" x1="850.00" id="12475" y2="299.16" /><line x2="820.00" style="fill:blue;stroke:blue;" y1="300.00" x1="850.00" id="12476" y2="380.00" /><line x2="780.00" style="fill:blue;stroke:blue;" y1="460.00" x1="830.00" id="12477" y2="520.00" /><line x2="917.68" style="fill:blue;stroke:blue;" y1="150.00" x1="880.00" id="12478" y2="97.68" /><line x2="920.00" style="fill:blue;stroke:blue;" y1="150.00" x1="880.00" id="12479" y2="180.00" /><line x2="850.00" style="fill:blue;stroke:blue;" y1="97.68" x1="917.68" id="12480" y2="80.00" /><line x2="880.00" style="fill:blue;stroke:blue;" y1="97.68" x1="917.68" id="12481" y2="150.00" /><line x2="952.32" style="fill:blue;stroke:blue;" y1="97.68" x1="917.68" id="12482" y2="132.32" /><line x2="880.00" style="fill:blue;stroke:blue;" y1="180.00" x1="920.00" id="12483" y2="150.00" /><line x2="952.32" style="fill:blue;stroke:blue;" y1="180.00" x1="920.00" id="12484" y2="132.32" /><line x2="980.00" style="fill:blue;stroke:blue;" y1="132.32" x1="952.32" id="12485" y2="50.00" /><line x2="917.68" style="fill:blue;stroke:blue;" y1="132.32" x1="952.32" id="12486" y2="97.68" /><line x2="920.00" style="fill:blue;stroke:blue;" y1="132.32" x1="952.32" id="12487" y2="180.00" /><line x2="1000.00" style="fill:blue;stroke:blue;" y1="132.32" x1="952.32" id="12488" y2="180.00" /><line x2="952.32" style="fill:blue;stroke:blue;" y1="180.00" x1="1000.00" id="12489" y2="132.32" /><line x2="1000.00" style="fill:blue;stroke:blue;" y1="180.00" x1="1000.00" id="12490" y2="250.00" /><line x2="1000.00" style="fill:blue;stroke:blue;" y1="250.00" x1="1000.00" id="12491" y2="180.00" /><line x2="960.00" style="fill:blue;stroke:blue;" y1="250.00" x1="1000.00" id="12492" y2="320.00" /><line x2="80.00" style="fill:blue;stroke:blue;" y1="480.00" x1="50.00" id="12493" y2="540.00" /><line x2="150.00" style="fill:blue;stroke:blue;" y1="680.00" x1="100.00" id="12494" y2="650.00" /><line x2="200.00" style="fill:blue;stroke:blue;" y1="470.00" x1="290.00" id="12495" y2="500.00" /><line x2="300.00" style="fill:blue;stroke:blue;" y1="120.00" x1="380.00" id="12496" y2="100.00" /><line x2="520.00" style="fill:blue;stroke:blue;" y1="380.00" x1="520.00" id="12497" y2="320.00" /><line x2="820.00" style="fill:blue;stroke:blue;" y1="510.00" x1="950.00" id="12498" y2="550.00" /><line x2="1000.00" style="fill:blue;stroke:blue;" y1="320.00" x1="960.00" id="12499" y2="250.00" /><line x2="952.32" style="fill:blue;stroke:blue;" y1="50.00" x1="980.00" id="12500" y2="132.32" /></svg>
