<?xml version="1.0" standalone="yes"?><!DOCTYPE svg PUBLIC "-//W3C//DTD SVG 1.1//EN" "http://www.w3.org/Graphics/SVG/1.1/DTD/svg11.dtd"[]><svg height="800.00" id="797" width="1050.00" xmlns="http://www.w3.org/2000/svg" xmlns:xlink="http://www.w3.org/1999/xlink"><rect Type="system" Region="幽暗之域" height="5.00" y="50.00" Name="塞杜萨瑞斯" width="5.00" x="150.00" id="798" ID="30003090" /><text x="150.00" y="50.00" id="799">塞杜萨瑞斯</text><rect Type="system" Region="幽暗之域" height="5.00" y="150.00" Name="哈拉斯" width="5.00" x="220.00" id="801" ID="30003087" /><text x="220.00" y="150.00" id="802">哈拉斯</text><rect Type="system" Region="幽暗之域" height="5.00" y="250.00" Name="塞卡蒙" width="5.00" x="250.00" id="804" ID="30003079" /><text x="250.00" y="250.00" id="805">塞卡蒙</text><rect Type="system" Region="幽暗之域" height="5.00" y="80.00" Name="库尔尼埃能" width="5.00" x="250.00" id="807" ID="30003089" /><text x="250.00" y="80.00" id="808">库尔尼埃能</text><rect Type="system" Region="幽暗之域" height="5.00" y="350.00" Name="麦伊赫拉" width="5.00" x="280.00" id="810" ID="30003075" /><text x="280.00" y="350.00" id="811">麦伊赫拉</text><rect Type="system" Region="幽暗之域" height="5.00" y="580.00" Name="萨塔拉马" width="5.00" x="180.00" id="813" ID="30003097" /><text x="180.00" y="580.00" id="814">萨塔拉马</text><rect Type="system" Region="幽暗之域" height="5.00" y="580.00" Name="福尔斯可辛" width="5.00" x="250.00" id="816" ID="30003095" /><text x="250.00" y="580.00" id="817">福尔斯可辛</text><rect Type="system" Region="幽暗之域" height="5.00" y="120.00" Name="欧约纳塔" width="5.00" x="300.00" id="819" ID="30003088" /><text x="300.00" y="120.00" id="820">欧约纳塔</text><rect Type="system" Region="幽暗之域" height="5.00" y="550.00" Name="伊马塔" width="5.00" x="320.00" id="822" ID="30003094" /><text x="320.00" y="550.00" id="823">伊马塔</text><rect Type="system" Region="幽暗之域" height="5.00" y="200.00" Name="萨托加斯" width="5.00" x="300.00" id="825" ID="30003086" /><text x="300.00" y="200.00" id="826">萨托加斯</text><rect Type="system" Region="幽暗之域" height="5.00" y="300.00" Name="勒萨拉卡" width="5.00" x="320.00" id="828" ID="30003073" /><text x="320.00" y="300.00" id="829">勒萨拉卡</text><rect Type="system" Region="幽暗之域" height="5.00" y="350.00" Name="萨塞克" width="5.00" x="350.00" id="831" ID="30003074" /><text x="350.00" y="350.00" id="832">萨塞克</text><rect Type="system" Region="幽暗之域" height="5.00" y="250.00" Name="伊俄萨" width="5.00" x="350.00" id="834" ID="30003072" /><text x="350.00" y="250.00" id="835">伊俄萨</text><rect Type="system" Region="幽暗之域" height="5.00" y="520.00" Name="埃耶罗伊勒" width="5.00" x="390.00" id="837" ID="30003093" /><text x="390.00" y="520.00" id="838">埃耶罗伊勒</text><rect Type="system" Region="幽暗之域" height="5.00" y="300.00" Name="乌萨勒恩" width="5.00" x="400.00" id="840" ID="30003077" /><text x="400.00" y="300.00" id="841">乌萨勒恩</text><rect Type="system" Region="幽暗之域" height="5.00" y="200.00" Name="坦纳坎" width="5.00" x="420.00" id="843" ID="30003091" /><text x="420.00" y="200.00" id="844">坦纳坎</text><rect Type="system" Region="幽暗之域" height="5.00" y="480.00" Name="科马尔" width="5.00" x="420.00" id="846" ID="30003092" /><text x="420.00" y="480.00" id="847">科马尔</text><rect Type="system" Region="幽暗之域" height="5.00" y="400.00" Name="厄尔基尼" width="5.00" x="430.00" id="849" ID="30003078" /><text x="430.00" y="400.00" id="850">厄尔基尼</text><rect Type="system" Region="幽暗之域" height="5.00" y="250.00" Name="安卡" width="5.00" x="450.00" id="852" ID="30003071" /><text x="450.00" y="250.00" id="853">安卡</text><rect Type="system" Region="幽暗之域" height="5.00" y="350.00" Name="索萨拉" width="5.00" x="500.00" id="855" ID="30003070" /><text x="500.00" y="350.00" id="856">索萨拉</text><rect Type="system" Region="幽暗之域" height="5.00" y="520.00" Name="库尔玛鲁" width="5.00" x="500.00" id="858" ID="30003096" /><text x="500.00" y="520.00" id="859">库尔玛鲁</text><rect Type="system" Region="幽暗之域" height="5.00" y="300.00" Name="加姆梅尔" width="5.00" x="550.00" id="861" ID="30003076" /><text x="550.00" y="300.00" id="862">加姆梅尔</text><rect Type="system" Region="幽暗之域" height="5.00" y="100.00" Name="君森" width="5.00" x="580.00" id="864" ID="30003083" /><text x="580.00" y="100.00" id="865">君森</text><rect Type="system" Region="幽暗之域" height="5.00" y="150.00" Name="加尔克楞" width="5.00" x="620.00" id="867" ID="30003080" /><text x="620.00" y="150.00" id="868">加尔克楞</text><rect Type="system" Region="幽暗之域" height="5.00" y="200.00" Name="罗尼" width="5.00" x="650.00" id="870" ID="30003081" /><text x="650.00" y="200.00" id="871">罗尼</text><rect Type="system" Region="幽暗之域" height="5.00" y="150.00" Name="哈托里" width="5.00" x="750.00" id="873" ID="30003082" /><text x="750.00" y="150.00" id="874">哈托里</text><rect Type="system" Region="幽暗之域" height="5.00" y="220.00" Name="哈克坦" width="5.00" x="750.00" id="876" ID="30003085" /><text x="750.00" y="220.00" id="877">哈克坦</text><rect Type="system" Region="幽暗之域" height="5.00" y="450.00" Name="卡美拉" width="5.00" x="680.00" id="879" ID="30003069" /><text x="680.00" y="450.00" id="880">卡美拉</text><rect Type="system" Region="幽暗之域" height="5.00" y="400.00" Name="拉马亚" width="5.00" x="750.00" id="882" ID="30003063" /><text x="750.00" y="400.00" id="883">拉马亚</text><rect Type="system" Region="幽暗之域" height="5.00" y="550.00" Name="图欧姆塔" width="5.00" x="700.00" id="885" ID="30003064" /><text x="700.00" y="550.00" id="886">图欧姆塔</text><rect Type="system" Region="幽暗之域" height="5.00" y="130.00" Name="马尔帕拉" width="5.00" x="840.00" id="888" ID="30003084" /><text x="840.00" y="130.00" id="889">马尔帕拉</text><rect Type="system" Region="幽暗之域" height="5.00" y="430.00" Name="阔尔蒙尼" width="5.00" x="830.00" id="891" ID="30003068" /><text x="830.00" y="430.00" id="892">阔尔蒙尼</text><rect Type="system" Region="幽暗之域" height="5.00" y="600.00" Name="库欧米" width="5.00" x="800.00" id="894" ID="30003066" /><text x="800.00" y="600.00" id="895">库欧米</text><rect Type="system" Region="幽暗之域" height="5.00" y="470.00" Name="霍拉" width="5.00" x="910.00" id="897" ID="30003067" /><text x="910.00" y="470.00" id="898">霍拉</text><rect Type="system" Region="幽暗之域" height="5.00" y="550.00" Name="欧特能" width="5.00" x="900.00" id="900" ID="30003065" /><text x="900.00" y="550.00" id="901">欧特能</text><rect Type="system" Region="金纳泽" height="5.00" y="50.00" Name="格瑞特西尔" width="5.00" x="80.00" id="903" ID="30002653" /><text x="80.00" y="50.00" id="904">格瑞特西尔</text><rect Type="system" Region="美特伯里斯" height="5.00" y="20.00" Name="伊斯巴巴塔" width="5.00" x="250.00" id="906" ID="30002087" /><text x="250.00" y="20.00" id="907">伊斯巴巴塔</text><rect Type="system" Region="破碎" height="5.00" y="80.00" Name="索姗" width="5.00" x="350.00" id="909" ID="30002980" /><text x="350.00" y="80.00" id="910">索姗</text><rect Type="system" Region="破碎" height="5.00" y="100.00" Name="哈提" width="5.00" x="650.00" id="912" ID="30002994" /><text x="650.00" y="100.00" id="913">哈提</text><rect Type="system" Region="破碎" height="5.00" y="380.00" Name="切文卡" width="5.00" x="650.00" id="915" ID="30002965" /><text x="650.00" y="380.00" id="916">切文卡</text><rect Type="system" Region="破碎" height="5.00" y="500.00" Name="欧西德" width="5.00" x="620.00" id="918" ID="30002970" /><text x="620.00" y="500.00" id="919">欧西德</text><rect Type="system" Region="破碎" height="5.00" y="320.00" Name="茨维" width="5.00" x="750.00" id="921" ID="30002957" /><text x="750.00" y="320.00" id="922">茨维</text><rect Type="system" Region="西玛特尔" height="5.00" y="350.00" Name="奥加" width="5.00" x="870.00" id="924" ID="30002542" /><text x="870.00" y="350.00" id="925">奥加</text><rect Type="system" Region="破碎" height="5.00" y="390.00" Name="罗什扎尔" width="5.00" x="950.00" id="927" ID="30002975" /><text x="950.00" y="390.00" id="928">罗什扎尔</text><rect Type="system" Region="多美" height="5.00" y="600.00" Name="马霍克特" width="5.00" x="950.00" id="930" ID="30003520" /><text x="950.00" y="600.00" id="931">马霍克特</text><line x2="80.00" style="fill:blue;stroke:blue;" y1="50.00" x1="150.00" id="933" y2="50.00" /><line x2="250.00" style="fill:blue;stroke:blue;" y1="50.00" x1="150.00" id="934" y2="80.00" /><line x2="300.00" style="fill:blue;stroke:blue;" y1="150.00" x1="220.00" id="935" y2="200.00" /><line x2="280.00" style="fill:blue;stroke:blue;" y1="250.00" x1="250.00" id="936" y2="350.00" /><line x2="300.00" style="fill:blue;stroke:blue;" y1="250.00" x1="250.00" id="937" y2="200.00" /><line x2="250.00" style="fill:blue;stroke:blue;" y1="80.00" x1="250.00" id="938" y2="20.00" /><line x2="300.00" style="fill:blue;stroke:blue;" y1="80.00" x1="250.00" id="939" y2="120.00" /><line x2="150.00" style="fill:blue;stroke:blue;" y1="80.00" x1="250.00" id="940" y2="50.00" /><line x2="320.00" style="fill:blue;stroke:blue;" y1="350.00" x1="280.00" id="941" y2="300.00" /><line x2="350.00" style="fill:blue;stroke:blue;" y1="350.00" x1="280.00" id="942" y2="350.00" /><line x2="250.00" style="fill:blue;stroke:blue;" y1="350.00" x1="280.00" id="943" y2="250.00" /><line x2="250.00" style="fill:blue;stroke:blue;" y1="580.00" x1="180.00" id="944" y2="580.00" /><line x2="320.00" style="fill:blue;stroke:blue;" y1="580.00" x1="250.00" id="945" y2="550.00" /><line x2="180.00" style="fill:blue;stroke:blue;" y1="580.00" x1="250.00" id="946" y2="580.00" /><line x2="350.00" style="fill:blue;stroke:blue;" y1="120.00" x1="300.00" id="947" y2="80.00" /><line x2="300.00" style="fill:blue;stroke:blue;" y1="120.00" x1="300.00" id="948" y2="200.00" /><line x2="250.00" style="fill:blue;stroke:blue;" y1="120.00" x1="300.00" id="949" y2="80.00" /><line x2="390.00" style="fill:blue;stroke:blue;" y1="550.00" x1="320.00" id="950" y2="520.00" /><line x2="250.00" style="fill:blue;stroke:blue;" y1="550.00" x1="320.00" id="951" y2="580.00" /><line x2="250.00" style="fill:blue;stroke:blue;" y1="200.00" x1="300.00" id="952" y2="250.00" /><line x2="220.00" style="fill:blue;stroke:blue;" y1="200.00" x1="300.00" id="953" y2="150.00" /><line x2="300.00" style="fill:blue;stroke:blue;" y1="200.00" x1="300.00" id="954" y2="120.00" /><line x2="420.00" style="fill:blue;stroke:blue;" y1="200.00" x1="300.00" id="955" y2="200.00" /><line x2="350.00" style="fill:blue;stroke:blue;" y1="300.00" x1="320.00" id="956" y2="250.00" /><line x2="350.00" style="fill:blue;stroke:blue;" y1="300.00" x1="320.00" id="957" y2="350.00" /><line x2="280.00" style="fill:blue;stroke:blue;" y1="300.00" x1="320.00" id="958" y2="350.00" /><line x2="500.00" style="fill:blue;stroke:blue;" y1="350.00" x1="350.00" id="959" y2="350.00" /><line x2="320.00" style="fill:blue;stroke:blue;" y1="350.00" x1="350.00" id="960" y2="300.00" /><line x2="280.00" style="fill:blue;stroke:blue;" y1="350.00" x1="350.00" id="961" y2="350.00" /><line x2="450.00" style="fill:blue;stroke:blue;" y1="250.00" x1="350.00" id="962" y2="250.00" /><line x2="320.00" style="fill:blue;stroke:blue;" y1="250.00" x1="350.00" id="963" y2="300.00" /><line x2="400.00" style="fill:blue;stroke:blue;" y1="250.00" x1="350.00" id="964" y2="300.00" /><line x2="420.00" style="fill:blue;stroke:blue;" y1="520.00" x1="390.00" id="965" y2="480.00" /><line x2="320.00" style="fill:blue;stroke:blue;" y1="520.00" x1="390.00" id="966" y2="550.00" /><line x2="500.00" style="fill:blue;stroke:blue;" y1="300.00" x1="400.00" id="967" y2="350.00" /><line x2="350.00" style="fill:blue;stroke:blue;" y1="300.00" x1="400.00" id="968" y2="250.00" /><line x2="430.00" style="fill:blue;stroke:blue;" y1="300.00" x1="400.00" id="969" y2="400.00" /><line x2="450.00" style="fill:blue;stroke:blue;" y1="200.00" x1="420.00" id="970" y2="250.00" /><line x2="300.00" style="fill:blue;stroke:blue;" y1="200.00" x1="420.00" id="971" y2="200.00" /><line x2="430.00" style="fill:blue;stroke:blue;" y1="480.00" x1="420.00" id="972" y2="400.00" /><line x2="390.00" style="fill:blue;stroke:blue;" y1="480.00" x1="420.00" id="973" y2="520.00" /><line x2="500.00" style="fill:blue;stroke:blue;" y1="480.00" x1="420.00" id="974" y2="520.00" /><line x2="400.00" style="fill:blue;stroke:blue;" y1="400.00" x1="430.00" id="975" y2="300.00" /><line x2="420.00" style="fill:blue;stroke:blue;" y1="400.00" x1="430.00" id="976" y2="480.00" /><line x2="500.00" style="fill:blue;stroke:blue;" y1="250.00" x1="450.00" id="977" y2="350.00" /><line x2="350.00" style="fill:blue;stroke:blue;" y1="250.00" x1="450.00" id="978" y2="250.00" /><line x2="550.00" style="fill:blue;stroke:blue;" y1="250.00" x1="450.00" id="979" y2="300.00" /><line x2="420.00" style="fill:blue;stroke:blue;" y1="250.00" x1="450.00" id="980" y2="200.00" /><line x2="680.00" style="fill:blue;stroke:blue;" y1="350.00" x1="500.00" id="981" y2="450.00" /><line x2="450.00" style="fill:blue;stroke:blue;" y1="350.00" x1="500.00" id="982" y2="250.00" /><line x2="350.00" style="fill:blue;stroke:blue;" y1="350.00" x1="500.00" id="983" y2="350.00" /><line x2="550.00" style="fill:blue;stroke:blue;" y1="350.00" x1="500.00" id="984" y2="300.00" /><line x2="400.00" style="fill:blue;stroke:blue;" y1="350.00" x1="500.00" id="985" y2="300.00" /><line x2="420.00" style="fill:blue;stroke:blue;" y1="520.00" x1="500.00" id="986" y2="480.00" /><line x2="500.00" style="fill:blue;stroke:blue;" y1="300.00" x1="550.00" id="987" y2="350.00" /><line x2="450.00" style="fill:blue;stroke:blue;" y1="300.00" x1="550.00" id="988" y2="250.00" /><line x2="650.00" style="fill:blue;stroke:blue;" y1="300.00" x1="550.00" id="989" y2="200.00" /><line x2="620.00" style="fill:blue;stroke:blue;" y1="100.00" x1="580.00" id="990" y2="150.00" /><line x2="650.00" style="fill:blue;stroke:blue;" y1="150.00" x1="620.00" id="991" y2="100.00" /><line x2="650.00" style="fill:blue;stroke:blue;" y1="150.00" x1="620.00" id="992" y2="200.00" /><line x2="580.00" style="fill:blue;stroke:blue;" y1="150.00" x1="620.00" id="993" y2="100.00" /><line x2="550.00" style="fill:blue;stroke:blue;" y1="200.00" x1="650.00" id="994" y2="300.00" /><line x2="620.00" style="fill:blue;stroke:blue;" y1="200.00" x1="650.00" id="995" y2="150.00" /><line x2="750.00" style="fill:blue;stroke:blue;" y1="200.00" x1="650.00" id="996" y2="150.00" /><line x2="750.00" style="fill:blue;stroke:blue;" y1="200.00" x1="650.00" id="997" y2="220.00" /><line x2="650.00" style="fill:blue;stroke:blue;" y1="150.00" x1="750.00" id="998" y2="200.00" /><line x2="840.00" style="fill:blue;stroke:blue;" y1="150.00" x1="750.00" id="999" y2="130.00" /><line x2="750.00" style="fill:blue;stroke:blue;" y1="150.00" x1="750.00" id="1000" y2="220.00" /><line x2="650.00" style="fill:blue;stroke:blue;" y1="220.00" x1="750.00" id="1001" y2="200.00" /><line x2="750.00" style="fill:blue;stroke:blue;" y1="220.00" x1="750.00" id="1002" y2="150.00" /><line x2="650.00" style="fill:blue;stroke:blue;" y1="450.00" x1="680.00" id="1003" y2="380.00" /><line x2="620.00" style="fill:blue;stroke:blue;" y1="450.00" x1="680.00" id="1004" y2="500.00" /><line x2="750.00" style="fill:blue;stroke:blue;" y1="450.00" x1="680.00" id="1005" y2="400.00" /><line x2="700.00" style="fill:blue;stroke:blue;" y1="450.00" x1="680.00" id="1006" y2="550.00" /><line x2="830.00" style="fill:blue;stroke:blue;" y1="450.00" x1="680.00" id="1007" y2="430.00" /><line x2="500.00" style="fill:blue;stroke:blue;" y1="450.00" x1="680.00" id="1008" y2="350.00" /><line x2="750.00" style="fill:blue;stroke:blue;" y1="400.00" x1="750.00" id="1009" y2="320.00" /><line x2="830.00" style="fill:blue;stroke:blue;" y1="400.00" x1="750.00" id="1010" y2="430.00" /><line x2="680.00" style="fill:blue;stroke:blue;" y1="400.00" x1="750.00" id="1011" y2="450.00" /><line x2="800.00" style="fill:blue;stroke:blue;" y1="550.00" x1="700.00" id="1012" y2="600.00" /><line x2="680.00" style="fill:blue;stroke:blue;" y1="550.00" x1="700.00" id="1013" y2="450.00" /><line x2="750.00" style="fill:blue;stroke:blue;" y1="130.00" x1="840.00" id="1014" y2="150.00" /><line x2="870.00" style="fill:blue;stroke:blue;" y1="430.00" x1="830.00" id="1015" y2="350.00" /><line x2="750.00" style="fill:blue;stroke:blue;" y1="430.00" x1="830.00" id="1016" y2="400.00" /><line x2="910.00" style="fill:blue;stroke:blue;" y1="430.00" x1="830.00" id="1017" y2="470.00" /><line x2="680.00" style="fill:blue;stroke:blue;" y1="430.00" x1="830.00" id="1018" y2="450.00" /><line x2="700.00" style="fill:blue;stroke:blue;" y1="600.00" x1="800.00" id="1019" y2="550.00" /><line x2="900.00" style="fill:blue;stroke:blue;" y1="600.00" x1="800.00" id="1020" y2="550.00" /><line x2="950.00" style="fill:blue;stroke:blue;" y1="470.00" x1="910.00" id="1021" y2="390.00" /><line x2="900.00" style="fill:blue;stroke:blue;" y1="470.00" x1="910.00" id="1022" y2="550.00" /><line x2="830.00" style="fill:blue;stroke:blue;" y1="470.00" x1="910.00" id="1023" y2="430.00" /><line x2="800.00" style="fill:blue;stroke:blue;" y1="550.00" x1="900.00" id="1024" y2="600.00" /><line x2="910.00" style="fill:blue;stroke:blue;" y1="550.00" x1="900.00" id="1025" y2="470.00" /><line x2="950.00" style="fill:blue;stroke:blue;" y1="550.00" x1="900.00" id="1026" y2="600.00" /><line x2="150.00" style="fill:blue;stroke:blue;" y1="50.00" x1="80.00" id="1027" y2="50.00" /><line x2="250.00" style="fill:blue;stroke:blue;" y1="20.00" x1="250.00" id="1028" y2="80.00" /><line x2="300.00" style="fill:blue;stroke:blue;" y1="80.00" x1="350.00" id="1029" y2="120.00" /><line x2="620.00" style="fill:blue;stroke:blue;" y1="100.00" x1="650.00" id="1030" y2="150.00" /><line x2="680.00" style="fill:blue;stroke:blue;" y1="380.00" x1="650.00" id="1031" y2="450.00" /><line x2="680.00" style="fill:blue;stroke:blue;" y1="500.00" x1="620.00" id="1032" y2="450.00" /><line x2="750.00" style="fill:blue;stroke:blue;" y1="320.00" x1="750.00" id="1033" y2="400.00" /><line x2="830.00" style="fill:blue;stroke:blue;" y1="350.00" x1="870.00" id="1034" y2="430.00" /><line x2="910.00" style="fill:blue;stroke:blue;" y1="390.00" x1="950.00" id="1035" y2="470.00" /><line x2="900.00" style="fill:blue;stroke:blue;" y1="600.00" x1="950.00" id="1036" y2="550.00" /></svg>
