<?xml version="1.0" standalone="yes"?><!DOCTYPE svg PUBLIC "-//W3C//DTD SVG 1.1//EN" "http://www.w3.org/Graphics/SVG/1.1/DTD/svg11.dtd"[]><svg width="1050.00" height="800.00" id="797" xmlns="http://www.w3.org/2000/svg" xmlns:xlink="http://www.w3.org/1999/xlink"><rect Type="system" x="150.00" id="798" height="5.00" width="5.00" Name="塞杜萨瑞斯" ID="30003090" Region="幽暗之域" y="50.00" /><text y="50.00" x="150.00" id="799">塞杜萨瑞斯</text><rect Type="system" x="220.00" id="801" height="5.00" width="5.00" Name="哈拉斯" ID="30003087" Region="幽暗之域" y="150.00" /><text y="150.00" x="220.00" id="802">哈拉斯</text><rect Type="system" x="250.00" id="804" height="5.00" width="5.00" Name="塞卡蒙" ID="30003079" Region="幽暗之域" y="250.00" /><text y="250.00" x="250.00" id="805">塞卡蒙</text><rect Type="system" x="250.00" id="807" height="5.00" width="5.00" Name="库尔尼埃能" ID="30003089" Region="幽暗之域" y="80.00" /><text y="80.00" x="250.00" id="808">库尔尼埃能</text><rect Type="system" x="280.00" id="810" height="5.00" width="5.00" Name="麦伊赫拉" ID="30003075" Region="幽暗之域" y="350.00" /><text y="350.00" x="280.00" id="811">麦伊赫拉</text><rect Type="system" x="180.00" id="813" height="5.00" width="5.00" Name="萨塔拉马" ID="30003097" Region="幽暗之域" y="580.00" /><text y="580.00" x="180.00" id="814">萨塔拉马</text><rect Type="system" x="250.00" id="816" height="5.00" width="5.00" Name="福尔斯可辛" ID="30003095" Region="幽暗之域" y="580.00" /><text y="580.00" x="250.00" id="817">福尔斯可辛</text><rect Type="system" x="300.00" id="819" height="5.00" width="5.00" Name="欧约纳塔" ID="30003088" Region="幽暗之域" y="120.00" /><text y="120.00" x="300.00" id="820">欧约纳塔</text><rect Type="system" x="320.00" id="822" height="5.00" width="5.00" Name="伊马塔" ID="30003094" Region="幽暗之域" y="550.00" /><text y="550.00" x="320.00" id="823">伊马塔</text><rect Type="system" x="300.00" id="825" height="5.00" width="5.00" Name="萨托加斯" ID="30003086" Region="幽暗之域" y="200.00" /><text y="200.00" x="300.00" id="826">萨托加斯</text><rect Type="system" x="320.00" id="828" height="5.00" width="5.00" Name="勒萨拉卡" ID="30003073" Region="幽暗之域" y="300.00" /><text y="300.00" x="320.00" id="829">勒萨拉卡</text><rect Type="system" x="350.00" id="831" height="5.00" width="5.00" Name="萨塞克" ID="30003074" Region="幽暗之域" y="350.00" /><text y="350.00" x="350.00" id="832">萨塞克</text><rect Type="system" x="350.00" id="834" height="5.00" width="5.00" Name="伊俄萨" ID="30003072" Region="幽暗之域" y="250.00" /><text y="250.00" x="350.00" id="835">伊俄萨</text><rect Type="system" x="390.00" id="837" height="5.00" width="5.00" Name="埃耶罗伊勒" ID="30003093" Region="幽暗之域" y="520.00" /><text y="520.00" x="390.00" id="838">埃耶罗伊勒</text><rect Type="system" x="400.00" id="840" height="5.00" width="5.00" Name="乌萨勒恩" ID="30003077" Region="幽暗之域" y="300.00" /><text y="300.00" x="400.00" id="841">乌萨勒恩</text><rect Type="system" x="420.00" id="843" height="5.00" width="5.00" Name="坦纳坎" ID="30003091" Region="幽暗之域" y="200.00" /><text y="200.00" x="420.00" id="844">坦纳坎</text><rect Type="system" x="420.00" id="846" height="5.00" width="5.00" Name="科马尔" ID="30003092" Region="幽暗之域" y="480.00" /><text y="480.00" x="420.00" id="847">科马尔</text><rect Type="system" x="430.00" id="849" height="5.00" width="5.00" Name="厄尔基尼" ID="30003078" Region="幽暗之域" y="400.00" /><text y="400.00" x="430.00" id="850">厄尔基尼</text><rect Type="system" x="450.00" id="852" height="5.00" width="5.00" Name="安卡" ID="30003071" Region="幽暗之域" y="250.00" /><text y="250.00" x="450.00" id="853">安卡</text><rect Type="system" x="500.00" id="855" height="5.00" width="5.00" Name="索萨拉" ID="30003070" Region="幽暗之域" y="350.00" /><text y="350.00" x="500.00" id="856">索萨拉</text><rect Type="system" x="500.00" id="858" height="5.00" width="5.00" Name="库尔玛鲁" ID="30003096" Region="幽暗之域" y="520.00" /><text y="520.00" x="500.00" id="859">库尔玛鲁</text><rect Type="system" x="550.00" id="861" height="5.00" width="5.00" Name="加姆梅尔" ID="30003076" Region="幽暗之域" y="300.00" /><text y="300.00" x="550.00" id="862">加姆梅尔</text><rect Type="system" x="580.00" id="864" height="5.00" width="5.00" Name="君森" ID="30003083" Region="幽暗之域" y="100.00" /><text y="100.00" x="580.00" id="865">君森</text><rect Type="system" x="620.00" id="867" height="5.00" width="5.00" Name="加尔克楞" ID="30003080" Region="幽暗之域" y="150.00" /><text y="150.00" x="620.00" id="868">加尔克楞</text><rect Type="system" x="650.00" id="870" height="5.00" width="5.00" Name="罗尼" ID="30003081" Region="幽暗之域" y="200.00" /><text y="200.00" x="650.00" id="871">罗尼</text><rect Type="system" x="750.00" id="873" height="5.00" width="5.00" Name="哈托里" ID="30003082" Region="幽暗之域" y="150.00" /><text y="150.00" x="750.00" id="874">哈托里</text><rect Type="system" x="750.00" id="876" height="5.00" width="5.00" Name="哈克坦" ID="30003085" Region="幽暗之域" y="220.00" /><text y="220.00" x="750.00" id="877">哈克坦</text><rect Type="system" x="680.00" id="879" height="5.00" width="5.00" Name="卡美拉" ID="30003069" Region="幽暗之域" y="450.00" /><text y="450.00" x="680.00" id="880">卡美拉</text><rect Type="system" x="750.00" id="882" height="5.00" width="5.00" Name="拉马亚" ID="30003063" Region="幽暗之域" y="400.00" /><text y="400.00" x="750.00" id="883">拉马亚</text><rect Type="system" x="700.00" id="885" height="5.00" width="5.00" Name="图欧姆塔" ID="30003064" Region="幽暗之域" y="550.00" /><text y="550.00" x="700.00" id="886">图欧姆塔</text><rect Type="system" x="840.00" id="888" height="5.00" width="5.00" Name="马尔帕拉" ID="30003084" Region="幽暗之域" y="130.00" /><text y="130.00" x="840.00" id="889">马尔帕拉</text><rect Type="system" x="830.00" id="891" height="5.00" width="5.00" Name="阔尔蒙尼" ID="30003068" Region="幽暗之域" y="430.00" /><text y="430.00" x="830.00" id="892">阔尔蒙尼</text><rect Type="system" x="800.00" id="894" height="5.00" width="5.00" Name="库欧米" ID="30003066" Region="幽暗之域" y="600.00" /><text y="600.00" x="800.00" id="895">库欧米</text><rect Type="system" x="910.00" id="897" height="5.00" width="5.00" Name="霍拉" ID="30003067" Region="幽暗之域" y="470.00" /><text y="470.00" x="910.00" id="898">霍拉</text><rect Type="system" x="900.00" id="900" height="5.00" width="5.00" Name="欧特能" ID="30003065" Region="幽暗之域" y="550.00" /><text y="550.00" x="900.00" id="901">欧特能</text><rect Type="system" x="80.00" id="903" height="5.00" width="5.00" Name="格瑞特西尔" ID="30002653" Region="金纳泽" y="50.00" /><text y="50.00" x="80.00" id="904">格瑞特西尔</text><rect Type="system" x="250.00" id="906" height="5.00" width="5.00" Name="伊斯巴巴塔" ID="30002087" Region="美特伯里斯" y="20.00" /><text y="20.00" x="250.00" id="907">伊斯巴巴塔</text><rect Type="system" x="350.00" id="909" height="5.00" width="5.00" Name="索姗" ID="30002980" Region="破碎" y="80.00" /><text y="80.00" x="350.00" id="910">索姗</text><rect Type="system" x="650.00" id="912" height="5.00" width="5.00" Name="哈提" ID="30002994" Region="破碎" y="100.00" /><text y="100.00" x="650.00" id="913">哈提</text><rect Type="system" x="650.00" id="915" height="5.00" width="5.00" Name="切文卡" ID="30002965" Region="破碎" y="380.00" /><text y="380.00" x="650.00" id="916">切文卡</text><rect Type="system" x="620.00" id="918" height="5.00" width="5.00" Name="欧西德" ID="30002970" Region="破碎" y="500.00" /><text y="500.00" x="620.00" id="919">欧西德</text><rect Type="system" x="750.00" id="921" height="5.00" width="5.00" Name="茨维" ID="30002957" Region="破碎" y="320.00" /><text y="320.00" x="750.00" id="922">茨维</text><rect Type="system" x="870.00" id="924" height="5.00" width="5.00" Name="奥加" ID="30002542" Region="西玛特尔" y="350.00" /><text y="350.00" x="870.00" id="925">奥加</text><rect Type="system" x="950.00" id="927" height="5.00" width="5.00" Name="罗什扎尔" ID="30002975" Region="破碎" y="390.00" /><text y="390.00" x="950.00" id="928">罗什扎尔</text><rect Type="system" x="950.00" id="930" height="5.00" width="5.00" Name="马霍克特" ID="30003520" Region="多美" y="600.00" /><text y="600.00" x="950.00" id="931">马霍克特</text><line style="stroke:blue;fill:blue;" id="933" x2="80.00" x1="150.00" y1="50.00" y2="50.00" /><line style="stroke:blue;fill:blue;" id="934" x2="250.00" x1="150.00" y1="50.00" y2="80.00" /><line style="stroke:blue;fill:blue;" id="935" x2="300.00" x1="220.00" y1="150.00" y2="200.00" /><line style="stroke:blue;fill:blue;" id="936" x2="280.00" x1="250.00" y1="250.00" y2="350.00" /><line style="stroke:blue;fill:blue;" id="937" x2="300.00" x1="250.00" y1="250.00" y2="200.00" /><line style="stroke:blue;fill:blue;" id="938" x2="250.00" x1="250.00" y1="80.00" y2="20.00" /><line style="stroke:blue;fill:blue;" id="939" x2="300.00" x1="250.00" y1="80.00" y2="120.00" /><line style="stroke:blue;fill:blue;" id="940" x2="150.00" x1="250.00" y1="80.00" y2="50.00" /><line style="stroke:blue;fill:blue;" id="941" x2="320.00" x1="280.00" y1="350.00" y2="300.00" /><line style="stroke:blue;fill:blue;" id="942" x2="350.00" x1="280.00" y1="350.00" y2="350.00" /><line style="stroke:blue;fill:blue;" id="943" x2="250.00" x1="280.00" y1="350.00" y2="250.00" /><line style="stroke:blue;fill:blue;" id="944" x2="250.00" x1="180.00" y1="580.00" y2="580.00" /><line style="stroke:blue;fill:blue;" id="945" x2="320.00" x1="250.00" y1="580.00" y2="550.00" /><line style="stroke:blue;fill:blue;" id="946" x2="180.00" x1="250.00" y1="580.00" y2="580.00" /><line style="stroke:blue;fill:blue;" id="947" x2="350.00" x1="300.00" y1="120.00" y2="80.00" /><line style="stroke:blue;fill:blue;" id="948" x2="300.00" x1="300.00" y1="120.00" y2="200.00" /><line style="stroke:blue;fill:blue;" id="949" x2="250.00" x1="300.00" y1="120.00" y2="80.00" /><line style="stroke:blue;fill:blue;" id="950" x2="390.00" x1="320.00" y1="550.00" y2="520.00" /><line style="stroke:blue;fill:blue;" id="951" x2="250.00" x1="320.00" y1="550.00" y2="580.00" /><line style="stroke:blue;fill:blue;" id="952" x2="250.00" x1="300.00" y1="200.00" y2="250.00" /><line style="stroke:blue;fill:blue;" id="953" x2="220.00" x1="300.00" y1="200.00" y2="150.00" /><line style="stroke:blue;fill:blue;" id="954" x2="300.00" x1="300.00" y1="200.00" y2="120.00" /><line style="stroke:blue;fill:blue;" id="955" x2="420.00" x1="300.00" y1="200.00" y2="200.00" /><line style="stroke:blue;fill:blue;" id="956" x2="350.00" x1="320.00" y1="300.00" y2="250.00" /><line style="stroke:blue;fill:blue;" id="957" x2="350.00" x1="320.00" y1="300.00" y2="350.00" /><line style="stroke:blue;fill:blue;" id="958" x2="280.00" x1="320.00" y1="300.00" y2="350.00" /><line style="stroke:blue;fill:blue;" id="959" x2="500.00" x1="350.00" y1="350.00" y2="350.00" /><line style="stroke:blue;fill:blue;" id="960" x2="320.00" x1="350.00" y1="350.00" y2="300.00" /><line style="stroke:blue;fill:blue;" id="961" x2="280.00" x1="350.00" y1="350.00" y2="350.00" /><line style="stroke:blue;fill:blue;" id="962" x2="450.00" x1="350.00" y1="250.00" y2="250.00" /><line style="stroke:blue;fill:blue;" id="963" x2="320.00" x1="350.00" y1="250.00" y2="300.00" /><line style="stroke:blue;fill:blue;" id="964" x2="400.00" x1="350.00" y1="250.00" y2="300.00" /><line style="stroke:blue;fill:blue;" id="965" x2="420.00" x1="390.00" y1="520.00" y2="480.00" /><line style="stroke:blue;fill:blue;" id="966" x2="320.00" x1="390.00" y1="520.00" y2="550.00" /><line style="stroke:blue;fill:blue;" id="967" x2="500.00" x1="400.00" y1="300.00" y2="350.00" /><line style="stroke:blue;fill:blue;" id="968" x2="350.00" x1="400.00" y1="300.00" y2="250.00" /><line style="stroke:blue;fill:blue;" id="969" x2="430.00" x1="400.00" y1="300.00" y2="400.00" /><line style="stroke:blue;fill:blue;" id="970" x2="450.00" x1="420.00" y1="200.00" y2="250.00" /><line style="stroke:blue;fill:blue;" id="971" x2="300.00" x1="420.00" y1="200.00" y2="200.00" /><line style="stroke:blue;fill:blue;" id="972" x2="430.00" x1="420.00" y1="480.00" y2="400.00" /><line style="stroke:blue;fill:blue;" id="973" x2="390.00" x1="420.00" y1="480.00" y2="520.00" /><line style="stroke:blue;fill:blue;" id="974" x2="500.00" x1="420.00" y1="480.00" y2="520.00" /><line style="stroke:blue;fill:blue;" id="975" x2="400.00" x1="430.00" y1="400.00" y2="300.00" /><line style="stroke:blue;fill:blue;" id="976" x2="420.00" x1="430.00" y1="400.00" y2="480.00" /><line style="stroke:blue;fill:blue;" id="977" x2="500.00" x1="450.00" y1="250.00" y2="350.00" /><line style="stroke:blue;fill:blue;" id="978" x2="350.00" x1="450.00" y1="250.00" y2="250.00" /><line style="stroke:blue;fill:blue;" id="979" x2="550.00" x1="450.00" y1="250.00" y2="300.00" /><line style="stroke:blue;fill:blue;" id="980" x2="420.00" x1="450.00" y1="250.00" y2="200.00" /><line style="stroke:blue;fill:blue;" id="981" x2="680.00" x1="500.00" y1="350.00" y2="450.00" /><line style="stroke:blue;fill:blue;" id="982" x2="450.00" x1="500.00" y1="350.00" y2="250.00" /><line style="stroke:blue;fill:blue;" id="983" x2="350.00" x1="500.00" y1="350.00" y2="350.00" /><line style="stroke:blue;fill:blue;" id="984" x2="550.00" x1="500.00" y1="350.00" y2="300.00" /><line style="stroke:blue;fill:blue;" id="985" x2="400.00" x1="500.00" y1="350.00" y2="300.00" /><line style="stroke:blue;fill:blue;" id="986" x2="420.00" x1="500.00" y1="520.00" y2="480.00" /><line style="stroke:blue;fill:blue;" id="987" x2="500.00" x1="550.00" y1="300.00" y2="350.00" /><line style="stroke:blue;fill:blue;" id="988" x2="450.00" x1="550.00" y1="300.00" y2="250.00" /><line style="stroke:blue;fill:blue;" id="989" x2="650.00" x1="550.00" y1="300.00" y2="200.00" /><line style="stroke:blue;fill:blue;" id="990" x2="620.00" x1="580.00" y1="100.00" y2="150.00" /><line style="stroke:blue;fill:blue;" id="991" x2="650.00" x1="620.00" y1="150.00" y2="100.00" /><line style="stroke:blue;fill:blue;" id="992" x2="650.00" x1="620.00" y1="150.00" y2="200.00" /><line style="stroke:blue;fill:blue;" id="993" x2="580.00" x1="620.00" y1="150.00" y2="100.00" /><line style="stroke:blue;fill:blue;" id="994" x2="550.00" x1="650.00" y1="200.00" y2="300.00" /><line style="stroke:blue;fill:blue;" id="995" x2="620.00" x1="650.00" y1="200.00" y2="150.00" /><line style="stroke:blue;fill:blue;" id="996" x2="750.00" x1="650.00" y1="200.00" y2="150.00" /><line style="stroke:blue;fill:blue;" id="997" x2="750.00" x1="650.00" y1="200.00" y2="220.00" /><line style="stroke:blue;fill:blue;" id="998" x2="650.00" x1="750.00" y1="150.00" y2="200.00" /><line style="stroke:blue;fill:blue;" id="999" x2="840.00" x1="750.00" y1="150.00" y2="130.00" /><line style="stroke:blue;fill:blue;" id="1000" x2="750.00" x1="750.00" y1="150.00" y2="220.00" /><line style="stroke:blue;fill:blue;" id="1001" x2="650.00" x1="750.00" y1="220.00" y2="200.00" /><line style="stroke:blue;fill:blue;" id="1002" x2="750.00" x1="750.00" y1="220.00" y2="150.00" /><line style="stroke:blue;fill:blue;" id="1003" x2="650.00" x1="680.00" y1="450.00" y2="380.00" /><line style="stroke:blue;fill:blue;" id="1004" x2="620.00" x1="680.00" y1="450.00" y2="500.00" /><line style="stroke:blue;fill:blue;" id="1005" x2="750.00" x1="680.00" y1="450.00" y2="400.00" /><line style="stroke:blue;fill:blue;" id="1006" x2="700.00" x1="680.00" y1="450.00" y2="550.00" /><line style="stroke:blue;fill:blue;" id="1007" x2="830.00" x1="680.00" y1="450.00" y2="430.00" /><line style="stroke:blue;fill:blue;" id="1008" x2="500.00" x1="680.00" y1="450.00" y2="350.00" /><line style="stroke:blue;fill:blue;" id="1009" x2="750.00" x1="750.00" y1="400.00" y2="320.00" /><line style="stroke:blue;fill:blue;" id="1010" x2="830.00" x1="750.00" y1="400.00" y2="430.00" /><line style="stroke:blue;fill:blue;" id="1011" x2="680.00" x1="750.00" y1="400.00" y2="450.00" /><line style="stroke:blue;fill:blue;" id="1012" x2="800.00" x1="700.00" y1="550.00" y2="600.00" /><line style="stroke:blue;fill:blue;" id="1013" x2="680.00" x1="700.00" y1="550.00" y2="450.00" /><line style="stroke:blue;fill:blue;" id="1014" x2="750.00" x1="840.00" y1="130.00" y2="150.00" /><line style="stroke:blue;fill:blue;" id="1015" x2="870.00" x1="830.00" y1="430.00" y2="350.00" /><line style="stroke:blue;fill:blue;" id="1016" x2="750.00" x1="830.00" y1="430.00" y2="400.00" /><line style="stroke:blue;fill:blue;" id="1017" x2="910.00" x1="830.00" y1="430.00" y2="470.00" /><line style="stroke:blue;fill:blue;" id="1018" x2="680.00" x1="830.00" y1="430.00" y2="450.00" /><line style="stroke:blue;fill:blue;" id="1019" x2="700.00" x1="800.00" y1="600.00" y2="550.00" /><line style="stroke:blue;fill:blue;" id="1020" x2="900.00" x1="800.00" y1="600.00" y2="550.00" /><line style="stroke:blue;fill:blue;" id="1021" x2="950.00" x1="910.00" y1="470.00" y2="390.00" /><line style="stroke:blue;fill:blue;" id="1022" x2="900.00" x1="910.00" y1="470.00" y2="550.00" /><line style="stroke:blue;fill:blue;" id="1023" x2="830.00" x1="910.00" y1="470.00" y2="430.00" /><line style="stroke:blue;fill:blue;" id="1024" x2="800.00" x1="900.00" y1="550.00" y2="600.00" /><line style="stroke:blue;fill:blue;" id="1025" x2="910.00" x1="900.00" y1="550.00" y2="470.00" /><line style="stroke:blue;fill:blue;" id="1026" x2="950.00" x1="900.00" y1="550.00" y2="600.00" /><line style="stroke:blue;fill:blue;" id="1027" x2="150.00" x1="80.00" y1="50.00" y2="50.00" /><line style="stroke:blue;fill:blue;" id="1028" x2="250.00" x1="250.00" y1="20.00" y2="80.00" /><line style="stroke:blue;fill:blue;" id="1029" x2="300.00" x1="350.00" y1="80.00" y2="120.00" /><line style="stroke:blue;fill:blue;" id="1030" x2="620.00" x1="650.00" y1="100.00" y2="150.00" /><line style="stroke:blue;fill:blue;" id="1031" x2="680.00" x1="650.00" y1="380.00" y2="450.00" /><line style="stroke:blue;fill:blue;" id="1032" x2="680.00" x1="620.00" y1="500.00" y2="450.00" /><line style="stroke:blue;fill:blue;" id="1033" x2="750.00" x1="750.00" y1="320.00" y2="400.00" /><line style="stroke:blue;fill:blue;" id="1034" x2="830.00" x1="870.00" y1="350.00" y2="430.00" /><line style="stroke:blue;fill:blue;" id="1035" x2="910.00" x1="950.00" y1="390.00" y2="470.00" /><line style="stroke:blue;fill:blue;" id="1036" x2="900.00" x1="950.00" y1="600.00" y2="550.00" /></svg>
