<?xml version="1.0" standalone="yes"?><!DOCTYPE svg PUBLIC "-//W3C//DTD SVG 1.1//EN" "http://www.w3.org/Graphics/SVG/1.1/DTD/svg11.dtd"[]><svg width="1050.00" height="800.00" id="5937" xmlns="http://www.w3.org/2000/svg" xmlns:xlink="http://www.w3.org/1999/xlink"><rect Type="system" x="30.00" id="5938" height="5.00" width="5.00" Name="Q0J-RH" ID="30000507" Region="底特里德" y="200.00" /><text y="200.00" x="30.00" id="5939">Q0J-RH</text><rect Type="system" x="30.00" id="5941" height="5.00" width="5.00" Name="BOZ1-O" ID="30000504" Region="底特里德" y="280.00" /><text y="280.00" x="30.00" id="5942">BOZ1-O</text><rect Type="system" x="30.00" id="5944" height="5.00" width="5.00" Name="QIMO-2" ID="30000505" Region="底特里德" y="330.00" /><text y="330.00" x="30.00" id="5945">QIMO-2</text><rect Type="system" x="60.00" id="5947" height="5.00" width="5.00" Name="OEG-K9" ID="30000439" Region="底特里德" y="100.00" /><text y="100.00" x="60.00" id="5948">OEG-K9</text><rect Type="system" x="77.68" id="5950" height="5.00" width="5.00" Name="E-ACV6" ID="30000503" Region="底特里德" y="232.32" /><text y="232.32" x="77.68" id="5951">E-ACV6</text><rect Type="system" x="80.00" id="5953" height="5.00" width="5.00" Name="RZ-PIY" ID="30000477" Region="底特里德" y="550.00" /><text y="550.00" x="80.00" id="5954">RZ-PIY</text><rect Type="system" x="80.00" id="5956" height="5.00" width="5.00" Name="F9O-U9" ID="30000500" Region="底特里德" y="330.00" /><text y="330.00" x="80.00" id="5957">F9O-U9</text><rect Type="system" x="100.00" id="5959" height="5.00" width="5.00" Name="KE-0FB" ID="30000519" Region="底特里德" y="680.00" /><text y="680.00" x="100.00" id="5960">KE-0FB</text><rect Type="system" x="110.00" id="5962" height="5.00" width="5.00" Name="PQRE-W" ID="30000438" Region="底特里德" y="50.00" /><text y="50.00" x="110.00" id="5963">PQRE-W</text><rect Type="system" x="112.32" id="5965" height="5.00" width="5.00" Name="Z-2Y2Y" ID="30000506" Region="底特里德" y="197.68" /><text y="197.68" x="112.32" id="5966">Z-2Y2Y</text><rect Type="system" x="100.00" id="5968" height="5.00" width="5.00" Name="I-9GI1" ID="30000520" Region="底特里德" y="750.00" /><text y="750.00" x="100.00" id="5969">I-9GI1</text><rect Type="system" x="110.00" id="5971" height="5.00" width="5.00" Name="S-51XG" ID="30000501" Region="底特里德" y="280.00" /><text y="280.00" x="110.00" id="5972">S-51XG</text><rect Type="system" x="160.00" id="5974" height="5.00" width="5.00" Name="QLPX-J" ID="30000475" Region="底特里德" y="480.00" /><text y="480.00" x="160.00" id="5975">QLPX-J</text><rect Type="system" x="160.00" id="5977" height="5.00" width="5.00" Name="A-C5TC" ID="30000476" Region="底特里德" y="530.00" /><text y="530.00" x="160.00" id="5978">A-C5TC</text><rect Type="system" x="170.00" id="5980" height="5.00" width="5.00" Name="DX-DFJ" ID="30000516" Region="底特里德" y="680.00" /><text y="680.00" x="170.00" id="5981">DX-DFJ</text><rect Type="system" x="160.00" id="5983" height="5.00" width="5.00" Name="OFVH-Y" ID="30000472" Region="底特里德" y="430.00" /><text y="430.00" x="160.00" id="5984">OFVH-Y</text><rect Type="system" x="170.00" id="5986" height="5.00" width="5.00" Name="DVWV-3" ID="30000518" Region="底特里德" y="730.00" /><text y="730.00" x="170.00" id="5987">DVWV-3</text><rect Type="system" x="160.00" id="5989" height="5.00" width="5.00" Name="EU9-J3" ID="30000437" Region="底特里德" y="130.00" /><text y="130.00" x="160.00" id="5990">EU9-J3</text><rect Type="system" x="160.00" id="5992" height="5.00" width="5.00" Name="XSUD-1" ID="30000447" Region="底特里德" y="380.00" /><text y="380.00" x="160.00" id="5993">XSUD-1</text><rect Type="system" x="180.00" id="5995" height="5.00" width="5.00" Name="B-5UFY" ID="30000435" Region="底特里德" y="50.00" /><text y="50.00" x="180.00" id="5996">B-5UFY</text><rect Type="system" x="180.00" id="5998" height="5.00" width="5.00" Name="E-1XVP" ID="30000502" Region="底特里德" y="230.00" /><text y="230.00" x="180.00" id="5999">E-1XVP</text><rect Type="system" x="210.00" id="6001" height="5.00" width="5.00" Name="U0W-DR" ID="30000514" Region="底特里德" y="630.00" /><text y="630.00" x="210.00" id="6002">U0W-DR</text><rect Type="system" x="210.00" id="6004" height="5.00" width="5.00" Name="C5-SUU" ID="30000446" Region="底特里德" y="330.00" /><text y="330.00" x="210.00" id="6005">C5-SUU</text><rect Type="system" x="210.00" id="6007" height="5.00" width="5.00" Name="FR46-E" ID="30000478" Region="底特里德" y="580.00" /><text y="580.00" x="210.00" id="6008">FR46-E</text><rect Type="system" x="210.00" id="6010" height="5.00" width="5.00" Name="SK42-F" ID="30000436" Region="底特里德" y="100.00" /><text y="100.00" x="210.00" id="6011">SK42-F</text><rect Type="system" x="230.00" id="6013" height="5.00" width="5.00" Name="2-X0PF" ID="30000473" Region="底特里德" y="480.00" /><text y="480.00" x="230.00" id="6014">2-X0PF</text><rect Type="system" x="230.00" id="6016" height="5.00" width="5.00" Name="3-3EZB" ID="30000452" Region="底特里德" y="280.00" /><text y="280.00" x="230.00" id="6017">3-3EZB</text><rect Type="system" x="230.00" id="6019" height="5.00" width="5.00" Name="P7MI-T" ID="30000450" Region="底特里德" y="400.00" /><text y="400.00" x="230.00" id="6020">P7MI-T</text><rect Type="system" x="250.00" id="6022" height="5.00" width="5.00" Name="SY-UWN" ID="30000515" Region="底特里德" y="680.00" /><text y="680.00" x="250.00" id="6023">SY-UWN</text><rect Type="system" x="260.00" id="6025" height="5.00" width="5.00" Name="V-4DBR" ID="30000434" Region="底特里德" y="50.00" /><text y="50.00" x="260.00" id="6026">V-4DBR</text><rect Type="system" x="270.00" id="6028" height="5.00" width="5.00" Name="3-LJW3" ID="30000448" Region="底特里德" y="360.00" /><text y="360.00" x="270.00" id="6029">3-LJW3</text><rect Type="system" x="280.00" id="6031" height="5.00" width="5.00" Name="1-GBVE" ID="30000463" Region="底特里德" y="180.00" /><text y="180.00" x="280.00" id="6032">1-GBVE</text><rect Type="system" x="279.04" id="6034" height="5.00" width="5.00" Name="52CW-6" ID="30000453" Region="底特里德" y="278.09" /><text y="278.09" x="279.04" id="6035">52CW-6</text><rect Type="system" x="299.06" id="6037" height="5.00" width="5.00" Name="JFV-ID" ID="30000451" Region="底特里德" y="436.23" /><text y="436.23" x="299.06" id="6038">JFV-ID</text><rect Type="system" x="330.00" id="6040" height="5.00" width="5.00" Name="X-31TE" ID="30000517" Region="底特里德" y="680.00" /><text y="680.00" x="330.00" id="6041">X-31TE</text><rect Type="system" x="310.94" id="6043" height="5.00" width="5.00" Name="1-PGSG" ID="30000474" Region="底特里德" y="483.77" /><text y="483.77" x="310.94" id="6044">1-PGSG</text><rect Type="system" x="310.00" id="6046" height="5.00" width="5.00" Name="WU-FHQ" ID="30000433" Region="底特里德" y="80.00" /><text y="80.00" x="310.00" id="6047">WU-FHQ</text><rect Type="system" x="330.00" id="6049" height="5.00" width="5.00" Name="ZLO3-V" ID="30000449" Region="底特里德" y="380.00" /><text y="380.00" x="330.00" id="6050">ZLO3-V</text><rect Type="system" x="350.00" id="6052" height="5.00" width="5.00" Name="L8-WNE" ID="30000462" Region="底特里德" y="160.00" /><text y="160.00" x="350.00" id="6053">L8-WNE</text><rect Type="system" x="380.00" id="6055" height="5.00" width="5.00" Name="NB-ALM" ID="30000465" Region="底特里德" y="120.00" /><text y="120.00" x="380.00" id="6056">NB-ALM</text><rect Type="system" x="380.00" id="6058" height="5.00" width="5.00" Name="J-L9MA" ID="30000489" Region="底特里德" y="200.00" /><text y="200.00" x="380.00" id="6059">J-L9MA</text><rect Type="system" x="380.00" id="6061" height="5.00" width="5.00" Name="EDQG-L" ID="30000486" Region="底特里德" y="250.00" /><text y="250.00" x="380.00" id="6062">EDQG-L</text><rect Type="system" x="380.00" id="6064" height="5.00" width="5.00" Name="TYB-69" ID="30000485" Region="底特里德" y="300.00" /><text y="300.00" x="380.00" id="6065">TYB-69</text><rect Type="system" x="410.00" id="6067" height="5.00" width="5.00" Name="G3D-ZT" ID="30000460" Region="底特里德" y="160.00" /><text y="160.00" x="410.00" id="6068">G3D-ZT</text><rect Type="system" x="430.00" id="6070" height="5.00" width="5.00" Name="9N-0HF" ID="30000458" Region="底特里德" y="80.00" /><text y="80.00" x="430.00" id="6071">9N-0HF</text><rect Type="system" x="430.00" id="6073" height="5.00" width="5.00" Name="SAI-T9" ID="30000508" Region="底特里德" y="580.00" /><text y="580.00" x="430.00" id="6074">SAI-T9</text><rect Type="system" x="450.00" id="6076" height="5.00" width="5.00" Name="7-P1JO" ID="30000487" Region="底特里德" y="300.00" /><text y="300.00" x="450.00" id="6077">7-P1JO</text><rect Type="system" x="460.00" id="6079" height="5.00" width="5.00" Name="T-0JWP" ID="30000488" Region="底特里德" y="380.00" /><text y="380.00" x="460.00" id="6080">T-0JWP</text><rect Type="system" x="460.00" id="6082" height="5.00" width="5.00" Name="K7S-FF" ID="30000510" Region="底特里德" y="500.00" /><text y="500.00" x="460.00" id="6083">K7S-FF</text><rect Type="system" x="460.00" id="6085" height="5.00" width="5.00" Name="GC-LTF" ID="30000464" Region="底特里德" y="180.00" /><text y="180.00" x="460.00" id="6086">GC-LTF</text><rect Type="system" x="490.00" id="6088" height="5.00" width="5.00" Name="D-0UI0" ID="30000461" Region="底特里德" y="120.00" /><text y="120.00" x="490.00" id="6089">D-0UI0</text><rect Type="system" x="490.00" id="6091" height="5.00" width="5.00" Name="DX-TAR" ID="30000490" Region="底特里德" y="330.00" /><text y="330.00" x="490.00" id="6092">DX-TAR</text><rect Type="system" x="510.00" id="6094" height="5.00" width="5.00" Name="6OU9-U" ID="30000457" Region="底特里德" y="70.00" /><text y="70.00" x="510.00" id="6095">6OU9-U</text><rect Type="system" x="510.00" id="6097" height="5.00" width="5.00" Name="QXE-1N" ID="30000526" Region="底特里德" y="230.00" /><text y="230.00" x="510.00" id="6098">QXE-1N</text><rect Type="system" x="510.00" id="6100" height="5.00" width="5.00" Name="0IF-26" ID="30000522" Region="底特里德" y="280.00" /><text y="280.00" x="510.00" id="6101">0IF-26</text><rect Type="system" x="530.00" id="6103" height="5.00" width="5.00" Name="IAS-I5" ID="30000509" Region="底特里德" y="530.00" /><text y="530.00" x="530.00" id="6104">IAS-I5</text><rect Type="system" x="530.00" id="6106" height="5.00" width="5.00" Name="RT-9WL" ID="30000511" Region="底特里德" y="600.00" /><text y="600.00" x="530.00" id="6107">RT-9WL</text><rect Type="system" x="530.00" id="6109" height="5.00" width="5.00" Name="A-7XFN" ID="30000491" Region="底特里德" y="380.00" /><text y="380.00" x="530.00" id="6110">A-7XFN</text><rect Type="system" x="520.00" id="6112" height="5.00" width="5.00" Name="O5Q7-U" ID="30000512" Region="底特里德" y="650.00" /><text y="650.00" x="520.00" id="6113">O5Q7-U</text><rect Type="system" x="580.00" id="6115" height="5.00" width="5.00" Name="GR-X26" ID="30000456" Region="底特里德" y="50.00" /><text y="50.00" x="580.00" id="6116">GR-X26</text><rect Type="system" x="580.00" id="6118" height="5.00" width="5.00" Name="L-L7PE" ID="30000528" Region="底特里德" y="110.00" /><text y="110.00" x="580.00" id="6119">L-L7PE</text><rect Type="system" x="580.00" id="6121" height="5.00" width="5.00" Name="U69-YC" ID="30000527" Region="底特里德" y="160.00" /><text y="160.00" x="580.00" id="6122">U69-YC</text><rect Type="system" x="579.99" id="6124" height="5.00" width="5.00" Name="7-A6XV" ID="30000525" Region="底特里德" y="209.44" /><text y="209.44" x="579.99" id="6125">7-A6XV</text><rect Type="system" x="581.08" id="6127" height="5.00" width="5.00" Name="H-93YV" ID="30000523" Region="底特里德" y="258.43" /><text y="258.43" x="581.08" id="6128">H-93YV</text><rect Type="system" x="558.93" id="6130" height="5.00" width="5.00" Name="W6P-7U" ID="30000521" Region="底特里德" y="302.13" /><text y="302.13" x="558.93" id="6131">W6P-7U</text><rect Type="system" x="490.00" id="6133" height="5.00" width="5.00" Name="62O-UE" ID="30000513" Region="底特里德" y="700.00" /><text y="700.00" x="490.00" id="6134">62O-UE</text><rect Type="system" x="580.00" id="6136" height="5.00" width="5.00" Name="U-MFTL" ID="30000493" Region="底特里德" y="350.00" /><text y="350.00" x="580.00" id="6137">U-MFTL</text><rect Type="system" x="630.00" id="6139" height="5.00" width="5.00" Name="O3-4MN" ID="30000492" Region="底特里德" y="380.00" /><text y="380.00" x="630.00" id="6140">O3-4MN</text><rect Type="system" x="660.00" id="6142" height="5.00" width="5.00" Name="E51-JE" ID="30000524" Region="底特里德" y="230.00" /><text y="230.00" x="660.00" id="6143">E51-JE</text><rect Type="system" x="640.02" id="6145" height="5.00" width="5.00" Name="5OJ-G2" ID="30000468" Region="底特里德" y="489.26" /><text y="489.26" x="640.02" id="6146">5OJ-G2</text><rect Type="system" x="638.73" id="6148" height="5.00" width="5.00" Name="9-02G0" ID="30000469" Region="底特里德" y="538.24" /><text y="538.24" x="638.73" id="6149">9-02G0</text><rect Type="system" x="659.04" id="6151" height="5.00" width="5.00" Name="0-G8NO" ID="30000480" Region="底特里德" y="638.09" /><text y="638.09" x="659.04" id="6152">0-G8NO</text><rect Type="system" x="660.00" id="6154" height="5.00" width="5.00" Name="U-OVFR" ID="30000459" Region="底特里德" y="80.00" /><text y="80.00" x="660.00" id="6155">U-OVFR</text><rect Type="system" x="660.00" id="6157" height="5.00" width="5.00" Name="L-QQ6P" ID="30000467" Region="底特里德" y="440.00" /><text y="440.00" x="660.00" id="6158">L-QQ6P</text><rect Type="system" x="660.65" id="6160" height="5.00" width="5.00" Name="M-XUZZ" ID="30000471" Region="底特里德" y="582.07" /><text y="582.07" x="660.65" id="6161">M-XUZZ</text><rect Type="system" x="680.00" id="6163" height="5.00" width="5.00" Name="LT-XI4" ID="30000466" Region="底特里德" y="390.00" /><text y="390.00" x="680.00" id="6164">LT-XI4</text><rect Type="system" x="680.96" id="6166" height="5.00" width="5.00" Name="HZFJ-M" ID="30000482" Region="底特里德" y="681.91" /><text y="681.91" x="680.96" id="6167">HZFJ-M</text><rect Type="system" x="700.60" id="6169" height="5.00" width="5.00" Name="SLVP-D" ID="30000479" Region="底特里德" y="610.43" /><text y="610.43" x="700.60" id="6170">SLVP-D</text><rect Type="system" x="710.00" id="6172" height="5.00" width="5.00" Name="H-FGJO" ID="30000444" Region="底特里德" y="350.00" /><text y="350.00" x="710.00" id="6173">H-FGJO</text><rect Type="system" x="720.00" id="6175" height="5.00" width="5.00" Name="XA5-TY" ID="30000470" Region="底特里德" y="500.00" /><text y="500.00" x="720.00" id="6176">XA5-TY</text><rect Type="system" x="730.00" id="6178" height="5.00" width="5.00" Name="9-OUGJ" ID="30000454" Region="底特里德" y="80.00" /><text y="80.00" x="730.00" id="6179">9-OUGJ</text><rect Type="system" x="730.00" id="6181" height="5.00" width="5.00" Name="QRFJ-Q" ID="30000481" Region="底特里德" y="570.00" /><text y="570.00" x="730.00" id="6182">QRFJ-Q</text><rect Type="system" x="740.00" id="6184" height="5.00" width="5.00" Name="77S8-E" ID="30000483" Region="底特里德" y="640.00" /><text y="640.00" x="740.00" id="6185">77S8-E</text><rect Type="system" x="780.00" id="6187" height="5.00" width="5.00" Name="N7-KGJ" ID="30000841" Region="因斯姆尔" y="250.00" /><text y="250.00" x="780.00" id="6188">N7-KGJ</text><rect Type="system" x="810.00" id="6190" height="5.00" width="5.00" Name="4NDT-W" ID="30000455" Region="底特里德" y="80.00" /><text y="80.00" x="810.00" id="6191">4NDT-W</text><rect Type="system" x="820.00" id="6193" height="5.00" width="5.00" Name="FMH-OV" ID="30000484" Region="底特里德" y="620.00" /><text y="620.00" x="820.00" id="6194">FMH-OV</text><rect Type="system" x="830.00" id="6196" height="5.00" width="5.00" Name="1KAW-T" ID="30000445" Region="底特里德" y="130.00" /><text y="130.00" x="830.00" id="6197">1KAW-T</text><rect Type="system" x="850.00" id="6199" height="5.00" width="5.00" Name="XW2H-V" ID="30000499" Region="底特里德" y="540.00" /><text y="540.00" x="850.00" id="6200">XW2H-V</text><rect Type="system" x="870.00" id="6202" height="5.00" width="5.00" Name="KZ9T-C" ID="30000498" Region="底特里德" y="600.00" /><text y="600.00" x="870.00" id="6203">KZ9T-C</text><rect Type="system" x="880.00" id="6205" height="5.00" width="5.00" Name="VD-8QY" ID="30000842" Region="因斯姆尔" y="300.00" /><text y="300.00" x="880.00" id="6206">VD-8QY</text><rect Type="system" x="880.00" id="6208" height="5.00" width="5.00" Name="DG-8VJ" ID="30000441" Region="底特里德" y="130.00" /><text y="130.00" x="880.00" id="6209">DG-8VJ</text><rect Type="system" x="880.00" id="6211" height="5.00" width="5.00" Name="MD-0AW" ID="30000443" Region="底特里德" y="250.00" /><text y="250.00" x="880.00" id="6212">MD-0AW</text><rect Type="system" x="910.00" id="6214" height="5.00" width="5.00" Name="0-W778" ID="30000440" Region="底特里德" y="200.00" /><text y="200.00" x="910.00" id="6215">0-W778</text><rect Type="system" x="930.00" id="6217" height="5.00" width="5.00" Name="J-ZYSZ" ID="30000843" Region="因斯姆尔" y="330.00" /><text y="330.00" x="930.00" id="6218">J-ZYSZ</text><rect Type="system" x="940.00" id="6220" height="5.00" width="5.00" Name="F2W-C6" ID="30000497" Region="底特里德" y="580.00" /><text y="580.00" x="940.00" id="6221">F2W-C6</text><rect Type="system" x="970.00" id="6223" height="5.00" width="5.00" Name="X40H-9" ID="30000496" Region="底特里德" y="540.00" /><text y="540.00" x="970.00" id="6224">X40H-9</text><rect Type="system" x="970.00" id="6226" height="5.00" width="5.00" Name="5C-RPA" ID="30000844" Region="因斯姆尔" y="400.00" /><text y="400.00" x="970.00" id="6227">5C-RPA</text><rect Type="system" x="980.00" id="6229" height="5.00" width="5.00" Name="5J4K-9" ID="30000442" Region="底特里德" y="180.00" /><text y="180.00" x="980.00" id="6230">5J4K-9</text><rect Type="system" x="1000.00" id="6232" height="5.00" width="5.00" Name="FIDY-8" ID="30000495" Region="底特里德" y="500.00" /><text y="500.00" x="1000.00" id="6233">FIDY-8</text><rect Type="system" x="1000.00" id="6235" height="5.00" width="5.00" Name="8FN-GP" ID="30000494" Region="底特里德" y="450.00" /><text y="450.00" x="1000.00" id="6236">8FN-GP</text><rect Type="system" x="30.00" id="6238" height="5.00" width="5.00" Name="E8-YS9" ID="30002163" Region="伊梅瑟亚" y="750.00" /><text y="750.00" x="30.00" id="6239">E8-YS9</text><rect Type="system" x="60.00" id="6241" height="5.00" width="5.00" Name="V7G-RL" ID="30000603" Region="邪恶湾流" y="150.00" /><text y="150.00" x="60.00" id="6242">V7G-RL</text><rect Type="system" x="300.96" id="6244" height="5.00" width="5.00" Name="5H-SM2" ID="30000581" Region="邪恶湾流" y="321.91" /><text y="321.91" x="300.96" id="6245">5H-SM2</text><rect Type="system" x="430.00" id="6247" height="5.00" width="5.00" Name="SHBF-V" ID="30000779" Region="因斯姆尔" y="30.00" /><text y="30.00" x="430.00" id="6248">SHBF-V</text><rect Type="system" x="420.00" id="6250" height="5.00" width="5.00" Name="M-ZJWJ" ID="30002181" Region="伊梅瑟亚" y="730.00" /><text y="730.00" x="420.00" id="6251">M-ZJWJ</text><rect Type="system" x="660.00" id="6253" height="5.00" width="5.00" Name="GB-6X5" ID="30000839" Region="因斯姆尔" y="180.00" /><text y="180.00" x="660.00" id="6254">GB-6X5</text><rect Type="system" x="730.00" id="6256" height="5.00" width="5.00" Name="7EX-14" ID="30000840" Region="因斯姆尔" y="200.00" /><text y="200.00" x="730.00" id="6257">7EX-14</text><rect Type="system" x="760.00" id="6259" height="5.00" width="5.00" Name="0-6VZ5" ID="30000838" Region="因斯姆尔" y="150.00" /><text y="150.00" x="760.00" id="6260">0-6VZ5</text><rect Type="system" x="810.00" id="6262" height="5.00" width="5.00" Name="46DP-O" ID="30004878" Region="特里菲斯" y="700.00" /><text y="700.00" x="810.00" id="6263">46DP-O</text><rect Type="system" x="900.00" id="6265" height="5.00" width="5.00" Name="CR2-PQ" ID="30000845" Region="因斯姆尔" y="420.00" /><text y="420.00" x="900.00" id="6266">CR2-PQ</text><rect Type="system" x="930.00" id="6268" height="5.00" width="5.00" Name="GM-50Y" ID="30000544" Region="邪恶湾流" y="80.00" /><text y="80.00" x="930.00" id="6269">GM-50Y</text><line style="stroke:blue;fill:blue;" id="6271" x2="30.00" x1="30.00" y1="200.00" y2="280.00" /><line style="stroke:blue;fill:blue;" id="6272" x2="77.68" x1="30.00" y1="280.00" y2="232.32" /><line style="stroke:blue;fill:blue;" id="6273" x2="30.00" x1="30.00" y1="280.00" y2="330.00" /><line style="stroke:blue;fill:blue;" id="6274" x2="30.00" x1="30.00" y1="280.00" y2="200.00" /><line style="stroke:blue;fill:blue;" id="6275" x2="80.00" x1="30.00" y1="330.00" y2="330.00" /><line style="stroke:blue;fill:blue;" id="6276" x2="30.00" x1="30.00" y1="330.00" y2="280.00" /><line style="stroke:blue;fill:blue;" id="6277" x2="110.00" x1="60.00" y1="100.00" y2="50.00" /><line style="stroke:blue;fill:blue;" id="6278" x2="60.00" x1="60.00" y1="100.00" y2="150.00" /><line style="stroke:blue;fill:blue;" id="6279" x2="110.00" x1="77.68" y1="232.32" y2="280.00" /><line style="stroke:blue;fill:blue;" id="6280" x2="30.00" x1="77.68" y1="232.32" y2="280.00" /><line style="stroke:blue;fill:blue;" id="6281" x2="112.32" x1="77.68" y1="232.32" y2="197.68" /><line style="stroke:blue;fill:blue;" id="6282" x2="160.00" x1="80.00" y1="550.00" y2="530.00" /><line style="stroke:blue;fill:blue;" id="6283" x2="210.00" x1="80.00" y1="550.00" y2="580.00" /><line style="stroke:blue;fill:blue;" id="6284" x2="80.00" x1="80.00" y1="550.00" y2="330.00" /><line style="stroke:blue;fill:blue;" id="6285" x2="80.00" x1="80.00" y1="330.00" y2="550.00" /><line style="stroke:blue;fill:blue;" id="6286" x2="110.00" x1="80.00" y1="330.00" y2="280.00" /><line style="stroke:blue;fill:blue;" id="6287" x2="30.00" x1="80.00" y1="330.00" y2="330.00" /><line style="stroke:blue;fill:blue;" id="6288" x2="170.00" x1="100.00" y1="680.00" y2="680.00" /><line style="stroke:blue;fill:blue;" id="6289" x2="170.00" x1="100.00" y1="680.00" y2="730.00" /><line style="stroke:blue;fill:blue;" id="6290" x2="100.00" x1="100.00" y1="680.00" y2="750.00" /><line style="stroke:blue;fill:blue;" id="6291" x2="180.00" x1="110.00" y1="50.00" y2="50.00" /><line style="stroke:blue;fill:blue;" id="6292" x2="60.00" x1="110.00" y1="50.00" y2="100.00" /><line style="stroke:blue;fill:blue;" id="6293" x2="77.68" x1="112.32" y1="197.68" y2="232.32" /><line style="stroke:blue;fill:blue;" id="6294" x2="170.00" x1="100.00" y1="750.00" y2="730.00" /><line style="stroke:blue;fill:blue;" id="6295" x2="100.00" x1="100.00" y1="750.00" y2="680.00" /><line style="stroke:blue;fill:blue;" id="6296" x2="30.00" x1="100.00" y1="750.00" y2="750.00" /><line style="stroke:blue;fill:blue;" id="6297" x2="80.00" x1="110.00" y1="280.00" y2="330.00" /><line style="stroke:blue;fill:blue;" id="6298" x2="180.00" x1="110.00" y1="280.00" y2="230.00" /><line style="stroke:blue;fill:blue;" id="6299" x2="77.68" x1="110.00" y1="280.00" y2="232.32" /><line style="stroke:blue;fill:blue;" id="6300" x2="160.00" x1="160.00" y1="480.00" y2="430.00" /><line style="stroke:blue;fill:blue;" id="6301" x2="230.00" x1="160.00" y1="480.00" y2="480.00" /><line style="stroke:blue;fill:blue;" id="6302" x2="160.00" x1="160.00" y1="480.00" y2="530.00" /><line style="stroke:blue;fill:blue;" id="6303" x2="160.00" x1="160.00" y1="530.00" y2="480.00" /><line style="stroke:blue;fill:blue;" id="6304" x2="80.00" x1="160.00" y1="530.00" y2="550.00" /><line style="stroke:blue;fill:blue;" id="6305" x2="210.00" x1="160.00" y1="530.00" y2="580.00" /><line style="stroke:blue;fill:blue;" id="6306" x2="210.00" x1="170.00" y1="680.00" y2="630.00" /><line style="stroke:blue;fill:blue;" id="6307" x2="170.00" x1="170.00" y1="680.00" y2="730.00" /><line style="stroke:blue;fill:blue;" id="6308" x2="100.00" x1="170.00" y1="680.00" y2="680.00" /><line style="stroke:blue;fill:blue;" id="6309" x2="160.00" x1="160.00" y1="430.00" y2="380.00" /><line style="stroke:blue;fill:blue;" id="6310" x2="230.00" x1="160.00" y1="430.00" y2="480.00" /><line style="stroke:blue;fill:blue;" id="6311" x2="160.00" x1="160.00" y1="430.00" y2="480.00" /><line style="stroke:blue;fill:blue;" id="6312" x2="170.00" x1="170.00" y1="730.00" y2="680.00" /><line style="stroke:blue;fill:blue;" id="6313" x2="100.00" x1="170.00" y1="730.00" y2="680.00" /><line style="stroke:blue;fill:blue;" id="6314" x2="100.00" x1="170.00" y1="730.00" y2="750.00" /><line style="stroke:blue;fill:blue;" id="6315" x2="210.00" x1="160.00" y1="130.00" y2="100.00" /><line style="stroke:blue;fill:blue;" id="6316" x2="210.00" x1="160.00" y1="380.00" y2="330.00" /><line style="stroke:blue;fill:blue;" id="6317" x2="160.00" x1="160.00" y1="380.00" y2="430.00" /><line style="stroke:blue;fill:blue;" id="6318" x2="260.00" x1="180.00" y1="50.00" y2="50.00" /><line style="stroke:blue;fill:blue;" id="6319" x2="110.00" x1="180.00" y1="50.00" y2="50.00" /><line style="stroke:blue;fill:blue;" id="6320" x2="280.00" x1="180.00" y1="230.00" y2="180.00" /><line style="stroke:blue;fill:blue;" id="6321" x2="110.00" x1="180.00" y1="230.00" y2="280.00" /><line style="stroke:blue;fill:blue;" id="6322" x2="210.00" x1="210.00" y1="630.00" y2="580.00" /><line style="stroke:blue;fill:blue;" id="6323" x2="250.00" x1="210.00" y1="630.00" y2="680.00" /><line style="stroke:blue;fill:blue;" id="6324" x2="170.00" x1="210.00" y1="630.00" y2="680.00" /><line style="stroke:blue;fill:blue;" id="6325" x2="160.00" x1="210.00" y1="330.00" y2="380.00" /><line style="stroke:blue;fill:blue;" id="6326" x2="270.00" x1="210.00" y1="330.00" y2="360.00" /><line style="stroke:blue;fill:blue;" id="6327" x2="230.00" x1="210.00" y1="330.00" y2="400.00" /><line style="stroke:blue;fill:blue;" id="6328" x2="230.00" x1="210.00" y1="330.00" y2="280.00" /><line style="stroke:blue;fill:blue;" id="6329" x2="160.00" x1="210.00" y1="580.00" y2="530.00" /><line style="stroke:blue;fill:blue;" id="6330" x2="80.00" x1="210.00" y1="580.00" y2="550.00" /><line style="stroke:blue;fill:blue;" id="6331" x2="430.00" x1="210.00" y1="580.00" y2="580.00" /><line style="stroke:blue;fill:blue;" id="6332" x2="210.00" x1="210.00" y1="580.00" y2="630.00" /><line style="stroke:blue;fill:blue;" id="6333" x2="260.00" x1="210.00" y1="100.00" y2="50.00" /><line style="stroke:blue;fill:blue;" id="6334" x2="160.00" x1="210.00" y1="100.00" y2="130.00" /><line style="stroke:blue;fill:blue;" id="6335" x2="160.00" x1="230.00" y1="480.00" y2="430.00" /><line style="stroke:blue;fill:blue;" id="6336" x2="310.94" x1="230.00" y1="480.00" y2="483.77" /><line style="stroke:blue;fill:blue;" id="6337" x2="160.00" x1="230.00" y1="480.00" y2="480.00" /><line style="stroke:blue;fill:blue;" id="6338" x2="210.00" x1="230.00" y1="280.00" y2="330.00" /><line style="stroke:blue;fill:blue;" id="6339" x2="279.04" x1="230.00" y1="280.00" y2="278.09" /><line style="stroke:blue;fill:blue;" id="6340" x2="210.00" x1="230.00" y1="400.00" y2="330.00" /><line style="stroke:blue;fill:blue;" id="6341" x2="299.06" x1="230.00" y1="400.00" y2="436.23" /><line style="stroke:blue;fill:blue;" id="6342" x2="210.00" x1="250.00" y1="680.00" y2="630.00" /><line style="stroke:blue;fill:blue;" id="6343" x2="330.00" x1="250.00" y1="680.00" y2="680.00" /><line style="stroke:blue;fill:blue;" id="6344" x2="310.00" x1="260.00" y1="50.00" y2="80.00" /><line style="stroke:blue;fill:blue;" id="6345" x2="180.00" x1="260.00" y1="50.00" y2="50.00" /><line style="stroke:blue;fill:blue;" id="6346" x2="210.00" x1="260.00" y1="50.00" y2="100.00" /><line style="stroke:blue;fill:blue;" id="6347" x2="210.00" x1="270.00" y1="360.00" y2="330.00" /><line style="stroke:blue;fill:blue;" id="6348" x2="330.00" x1="270.00" y1="360.00" y2="380.00" /><line style="stroke:blue;fill:blue;" id="6349" x2="300.96" x1="270.00" y1="360.00" y2="321.91" /><line style="stroke:blue;fill:blue;" id="6350" x2="350.00" x1="280.00" y1="180.00" y2="160.00" /><line style="stroke:blue;fill:blue;" id="6351" x2="180.00" x1="280.00" y1="180.00" y2="230.00" /><line style="stroke:blue;fill:blue;" id="6352" x2="230.00" x1="279.04" y1="278.09" y2="280.00" /><line style="stroke:blue;fill:blue;" id="6353" x2="380.00" x1="279.04" y1="278.09" y2="300.00" /><line style="stroke:blue;fill:blue;" id="6354" x2="330.00" x1="299.06" y1="436.23" y2="380.00" /><line style="stroke:blue;fill:blue;" id="6355" x2="230.00" x1="299.06" y1="436.23" y2="400.00" /><line style="stroke:blue;fill:blue;" id="6356" x2="250.00" x1="330.00" y1="680.00" y2="680.00" /><line style="stroke:blue;fill:blue;" id="6357" x2="230.00" x1="310.94" y1="483.77" y2="480.00" /><line style="stroke:blue;fill:blue;" id="6358" x2="260.00" x1="310.00" y1="80.00" y2="50.00" /><line style="stroke:blue;fill:blue;" id="6359" x2="430.00" x1="310.00" y1="80.00" y2="80.00" /><line style="stroke:blue;fill:blue;" id="6360" x2="270.00" x1="330.00" y1="380.00" y2="360.00" /><line style="stroke:blue;fill:blue;" id="6361" x2="299.06" x1="330.00" y1="380.00" y2="436.23" /><line style="stroke:blue;fill:blue;" id="6362" x2="410.00" x1="350.00" y1="160.00" y2="160.00" /><line style="stroke:blue;fill:blue;" id="6363" x2="280.00" x1="350.00" y1="160.00" y2="180.00" /><line style="stroke:blue;fill:blue;" id="6364" x2="410.00" x1="380.00" y1="120.00" y2="160.00" /><line style="stroke:blue;fill:blue;" id="6365" x2="380.00" x1="380.00" y1="200.00" y2="250.00" /><line style="stroke:blue;fill:blue;" id="6366" x2="380.00" x1="380.00" y1="250.00" y2="300.00" /><line style="stroke:blue;fill:blue;" id="6367" x2="380.00" x1="380.00" y1="250.00" y2="200.00" /><line style="stroke:blue;fill:blue;" id="6368" x2="279.04" x1="380.00" y1="300.00" y2="278.09" /><line style="stroke:blue;fill:blue;" id="6369" x2="380.00" x1="380.00" y1="300.00" y2="250.00" /><line style="stroke:blue;fill:blue;" id="6370" x2="450.00" x1="380.00" y1="300.00" y2="300.00" /><line style="stroke:blue;fill:blue;" id="6371" x2="490.00" x1="410.00" y1="160.00" y2="120.00" /><line style="stroke:blue;fill:blue;" id="6372" x2="350.00" x1="410.00" y1="160.00" y2="160.00" /><line style="stroke:blue;fill:blue;" id="6373" x2="460.00" x1="410.00" y1="160.00" y2="180.00" /><line style="stroke:blue;fill:blue;" id="6374" x2="380.00" x1="410.00" y1="160.00" y2="120.00" /><line style="stroke:blue;fill:blue;" id="6375" x2="310.00" x1="430.00" y1="80.00" y2="80.00" /><line style="stroke:blue;fill:blue;" id="6376" x2="510.00" x1="430.00" y1="80.00" y2="70.00" /><line style="stroke:blue;fill:blue;" id="6377" x2="430.00" x1="430.00" y1="80.00" y2="30.00" /><line style="stroke:blue;fill:blue;" id="6378" x2="210.00" x1="430.00" y1="580.00" y2="580.00" /><line style="stroke:blue;fill:blue;" id="6379" x2="530.00" x1="430.00" y1="580.00" y2="530.00" /><line style="stroke:blue;fill:blue;" id="6380" x2="460.00" x1="430.00" y1="580.00" y2="500.00" /><line style="stroke:blue;fill:blue;" id="6381" x2="530.00" x1="430.00" y1="580.00" y2="600.00" /><line style="stroke:blue;fill:blue;" id="6382" x2="380.00" x1="450.00" y1="300.00" y2="300.00" /><line style="stroke:blue;fill:blue;" id="6383" x2="460.00" x1="450.00" y1="300.00" y2="380.00" /><line style="stroke:blue;fill:blue;" id="6384" x2="490.00" x1="450.00" y1="300.00" y2="330.00" /><line style="stroke:blue;fill:blue;" id="6385" x2="450.00" x1="460.00" y1="380.00" y2="300.00" /><line style="stroke:blue;fill:blue;" id="6386" x2="490.00" x1="460.00" y1="380.00" y2="330.00" /><line style="stroke:blue;fill:blue;" id="6387" x2="430.00" x1="460.00" y1="500.00" y2="580.00" /><line style="stroke:blue;fill:blue;" id="6388" x2="530.00" x1="460.00" y1="500.00" y2="530.00" /><line style="stroke:blue;fill:blue;" id="6389" x2="410.00" x1="460.00" y1="180.00" y2="160.00" /><line style="stroke:blue;fill:blue;" id="6390" x2="660.00" x1="490.00" y1="120.00" y2="80.00" /><line style="stroke:blue;fill:blue;" id="6391" x2="410.00" x1="490.00" y1="120.00" y2="160.00" /><line style="stroke:blue;fill:blue;" id="6392" x2="450.00" x1="490.00" y1="330.00" y2="300.00" /><line style="stroke:blue;fill:blue;" id="6393" x2="460.00" x1="490.00" y1="330.00" y2="380.00" /><line style="stroke:blue;fill:blue;" id="6394" x2="530.00" x1="490.00" y1="330.00" y2="380.00" /><line style="stroke:blue;fill:blue;" id="6395" x2="580.00" x1="510.00" y1="70.00" y2="50.00" /><line style="stroke:blue;fill:blue;" id="6396" x2="430.00" x1="510.00" y1="70.00" y2="80.00" /><line style="stroke:blue;fill:blue;" id="6397" x2="581.08" x1="510.00" y1="230.00" y2="258.43" /><line style="stroke:blue;fill:blue;" id="6398" x2="558.93" x1="510.00" y1="280.00" y2="302.13" /><line style="stroke:blue;fill:blue;" id="6399" x2="630.00" x1="530.00" y1="530.00" y2="380.00" /><line style="stroke:blue;fill:blue;" id="6400" x2="430.00" x1="530.00" y1="530.00" y2="580.00" /><line style="stroke:blue;fill:blue;" id="6401" x2="460.00" x1="530.00" y1="530.00" y2="500.00" /><line style="stroke:blue;fill:blue;" id="6402" x2="530.00" x1="530.00" y1="530.00" y2="600.00" /><line style="stroke:blue;fill:blue;" id="6403" x2="430.00" x1="530.00" y1="600.00" y2="580.00" /><line style="stroke:blue;fill:blue;" id="6404" x2="530.00" x1="530.00" y1="600.00" y2="530.00" /><line style="stroke:blue;fill:blue;" id="6405" x2="520.00" x1="530.00" y1="600.00" y2="650.00" /><line style="stroke:blue;fill:blue;" id="6406" x2="490.00" x1="530.00" y1="380.00" y2="330.00" /><line style="stroke:blue;fill:blue;" id="6407" x2="630.00" x1="530.00" y1="380.00" y2="380.00" /><line style="stroke:blue;fill:blue;" id="6408" x2="530.00" x1="520.00" y1="650.00" y2="600.00" /><line style="stroke:blue;fill:blue;" id="6409" x2="490.00" x1="520.00" y1="650.00" y2="700.00" /><line style="stroke:blue;fill:blue;" id="6410" x2="510.00" x1="580.00" y1="50.00" y2="70.00" /><line style="stroke:blue;fill:blue;" id="6411" x2="660.00" x1="580.00" y1="50.00" y2="80.00" /><line style="stroke:blue;fill:blue;" id="6412" x2="580.00" x1="580.00" y1="110.00" y2="160.00" /><line style="stroke:blue;fill:blue;" id="6413" x2="579.99" x1="580.00" y1="160.00" y2="209.44" /><line style="stroke:blue;fill:blue;" id="6414" x2="580.00" x1="580.00" y1="160.00" y2="110.00" /><line style="stroke:blue;fill:blue;" id="6415" x2="660.00" x1="580.00" y1="160.00" y2="180.00" /><line style="stroke:blue;fill:blue;" id="6416" x2="581.08" x1="579.99" y1="209.44" y2="258.43" /><line style="stroke:blue;fill:blue;" id="6417" x2="580.00" x1="579.99" y1="209.44" y2="160.00" /><line style="stroke:blue;fill:blue;" id="6418" x2="558.93" x1="581.08" y1="258.43" y2="302.13" /><line style="stroke:blue;fill:blue;" id="6419" x2="660.00" x1="581.08" y1="258.43" y2="230.00" /><line style="stroke:blue;fill:blue;" id="6420" x2="579.99" x1="581.08" y1="258.43" y2="209.44" /><line style="stroke:blue;fill:blue;" id="6421" x2="510.00" x1="581.08" y1="258.43" y2="230.00" /><line style="stroke:blue;fill:blue;" id="6422" x2="580.00" x1="558.93" y1="302.13" y2="350.00" /><line style="stroke:blue;fill:blue;" id="6423" x2="510.00" x1="558.93" y1="302.13" y2="280.00" /><line style="stroke:blue;fill:blue;" id="6424" x2="581.08" x1="558.93" y1="302.13" y2="258.43" /><line style="stroke:blue;fill:blue;" id="6425" x2="520.00" x1="490.00" y1="700.00" y2="650.00" /><line style="stroke:blue;fill:blue;" id="6426" x2="420.00" x1="490.00" y1="700.00" y2="730.00" /><line style="stroke:blue;fill:blue;" id="6427" x2="630.00" x1="580.00" y1="350.00" y2="380.00" /><line style="stroke:blue;fill:blue;" id="6428" x2="558.93" x1="580.00" y1="350.00" y2="302.13" /><line style="stroke:blue;fill:blue;" id="6429" x2="710.00" x1="630.00" y1="380.00" y2="350.00" /><line style="stroke:blue;fill:blue;" id="6430" x2="530.00" x1="630.00" y1="380.00" y2="380.00" /><line style="stroke:blue;fill:blue;" id="6431" x2="580.00" x1="630.00" y1="380.00" y2="350.00" /><line style="stroke:blue;fill:blue;" id="6432" x2="530.00" x1="630.00" y1="380.00" y2="530.00" /><line style="stroke:blue;fill:blue;" id="6433" x2="581.08" x1="660.00" y1="230.00" y2="258.43" /><line style="stroke:blue;fill:blue;" id="6434" x2="660.00" x1="640.02" y1="489.26" y2="440.00" /><line style="stroke:blue;fill:blue;" id="6435" x2="638.73" x1="640.02" y1="489.26" y2="538.24" /><line style="stroke:blue;fill:blue;" id="6436" x2="720.00" x1="640.02" y1="489.26" y2="500.00" /><line style="stroke:blue;fill:blue;" id="6437" x2="640.02" x1="638.73" y1="538.24" y2="489.26" /><line style="stroke:blue;fill:blue;" id="6438" x2="660.65" x1="638.73" y1="538.24" y2="582.07" /><line style="stroke:blue;fill:blue;" id="6439" x2="700.60" x1="659.04" y1="638.09" y2="610.43" /><line style="stroke:blue;fill:blue;" id="6440" x2="680.96" x1="659.04" y1="638.09" y2="681.91" /><line style="stroke:blue;fill:blue;" id="6441" x2="730.00" x1="660.00" y1="80.00" y2="80.00" /><line style="stroke:blue;fill:blue;" id="6442" x2="580.00" x1="660.00" y1="80.00" y2="50.00" /><line style="stroke:blue;fill:blue;" id="6443" x2="490.00" x1="660.00" y1="80.00" y2="120.00" /><line style="stroke:blue;fill:blue;" id="6444" x2="680.00" x1="660.00" y1="440.00" y2="390.00" /><line style="stroke:blue;fill:blue;" id="6445" x2="640.02" x1="660.00" y1="440.00" y2="489.26" /><line style="stroke:blue;fill:blue;" id="6446" x2="638.73" x1="660.65" y1="582.07" y2="538.24" /><line style="stroke:blue;fill:blue;" id="6447" x2="700.60" x1="660.65" y1="582.07" y2="610.43" /><line style="stroke:blue;fill:blue;" id="6448" x2="710.00" x1="680.00" y1="390.00" y2="350.00" /><line style="stroke:blue;fill:blue;" id="6449" x2="660.00" x1="680.00" y1="390.00" y2="440.00" /><line style="stroke:blue;fill:blue;" id="6450" x2="659.04" x1="680.96" y1="681.91" y2="638.09" /><line style="stroke:blue;fill:blue;" id="6451" x2="740.00" x1="680.96" y1="681.91" y2="640.00" /><line style="stroke:blue;fill:blue;" id="6452" x2="660.65" x1="700.60" y1="610.43" y2="582.07" /><line style="stroke:blue;fill:blue;" id="6453" x2="659.04" x1="700.60" y1="610.43" y2="638.09" /><line style="stroke:blue;fill:blue;" id="6454" x2="730.00" x1="700.60" y1="610.43" y2="570.00" /><line style="stroke:blue;fill:blue;" id="6455" x2="740.00" x1="700.60" y1="610.43" y2="640.00" /><line style="stroke:blue;fill:blue;" id="6456" x2="880.00" x1="710.00" y1="350.00" y2="250.00" /><line style="stroke:blue;fill:blue;" id="6457" x2="680.00" x1="710.00" y1="350.00" y2="390.00" /><line style="stroke:blue;fill:blue;" id="6458" x2="630.00" x1="710.00" y1="350.00" y2="380.00" /><line style="stroke:blue;fill:blue;" id="6459" x2="640.02" x1="720.00" y1="500.00" y2="489.26" /><line style="stroke:blue;fill:blue;" id="6460" x2="810.00" x1="730.00" y1="80.00" y2="80.00" /><line style="stroke:blue;fill:blue;" id="6461" x2="660.00" x1="730.00" y1="80.00" y2="80.00" /><line style="stroke:blue;fill:blue;" id="6462" x2="700.60" x1="730.00" y1="570.00" y2="610.43" /><line style="stroke:blue;fill:blue;" id="6463" x2="700.60" x1="740.00" y1="640.00" y2="610.43" /><line style="stroke:blue;fill:blue;" id="6464" x2="680.96" x1="740.00" y1="640.00" y2="681.91" /><line style="stroke:blue;fill:blue;" id="6465" x2="820.00" x1="740.00" y1="640.00" y2="620.00" /><line style="stroke:blue;fill:blue;" id="6466" x2="810.00" x1="740.00" y1="640.00" y2="700.00" /><line style="stroke:blue;fill:blue;" id="6467" x2="730.00" x1="780.00" y1="250.00" y2="200.00" /><line style="stroke:blue;fill:blue;" id="6468" x2="880.00" x1="780.00" y1="250.00" y2="300.00" /><line style="stroke:blue;fill:blue;" id="6469" x2="880.00" x1="810.00" y1="80.00" y2="130.00" /><line style="stroke:blue;fill:blue;" id="6470" x2="730.00" x1="810.00" y1="80.00" y2="80.00" /><line style="stroke:blue;fill:blue;" id="6471" x2="930.00" x1="810.00" y1="80.00" y2="80.00" /><line style="stroke:blue;fill:blue;" id="6472" x2="740.00" x1="820.00" y1="620.00" y2="640.00" /><line style="stroke:blue;fill:blue;" id="6473" x2="870.00" x1="820.00" y1="620.00" y2="600.00" /><line style="stroke:blue;fill:blue;" id="6474" x2="880.00" x1="830.00" y1="130.00" y2="130.00" /><line style="stroke:blue;fill:blue;" id="6475" x2="760.00" x1="830.00" y1="130.00" y2="150.00" /><line style="stroke:blue;fill:blue;" id="6476" x2="870.00" x1="850.00" y1="540.00" y2="600.00" /><line style="stroke:blue;fill:blue;" id="6477" x2="820.00" x1="870.00" y1="600.00" y2="620.00" /><line style="stroke:blue;fill:blue;" id="6478" x2="940.00" x1="870.00" y1="600.00" y2="580.00" /><line style="stroke:blue;fill:blue;" id="6479" x2="850.00" x1="870.00" y1="600.00" y2="540.00" /><line style="stroke:blue;fill:blue;" id="6480" x2="780.00" x1="880.00" y1="300.00" y2="250.00" /><line style="stroke:blue;fill:blue;" id="6481" x2="930.00" x1="880.00" y1="300.00" y2="330.00" /><line style="stroke:blue;fill:blue;" id="6482" x2="910.00" x1="880.00" y1="130.00" y2="200.00" /><line style="stroke:blue;fill:blue;" id="6483" x2="980.00" x1="880.00" y1="130.00" y2="180.00" /><line style="stroke:blue;fill:blue;" id="6484" x2="830.00" x1="880.00" y1="130.00" y2="130.00" /><line style="stroke:blue;fill:blue;" id="6485" x2="810.00" x1="880.00" y1="130.00" y2="80.00" /><line style="stroke:blue;fill:blue;" id="6486" x2="910.00" x1="880.00" y1="250.00" y2="200.00" /><line style="stroke:blue;fill:blue;" id="6487" x2="710.00" x1="880.00" y1="250.00" y2="350.00" /><line style="stroke:blue;fill:blue;" id="6488" x2="880.00" x1="910.00" y1="200.00" y2="130.00" /><line style="stroke:blue;fill:blue;" id="6489" x2="980.00" x1="910.00" y1="200.00" y2="180.00" /><line style="stroke:blue;fill:blue;" id="6490" x2="880.00" x1="910.00" y1="200.00" y2="250.00" /><line style="stroke:blue;fill:blue;" id="6491" x2="880.00" x1="930.00" y1="330.00" y2="300.00" /><line style="stroke:blue;fill:blue;" id="6492" x2="970.00" x1="930.00" y1="330.00" y2="400.00" /><line style="stroke:blue;fill:blue;" id="6493" x2="970.00" x1="940.00" y1="580.00" y2="540.00" /><line style="stroke:blue;fill:blue;" id="6494" x2="870.00" x1="940.00" y1="580.00" y2="600.00" /><line style="stroke:blue;fill:blue;" id="6495" x2="1000.00" x1="970.00" y1="540.00" y2="500.00" /><line style="stroke:blue;fill:blue;" id="6496" x2="940.00" x1="970.00" y1="540.00" y2="580.00" /><line style="stroke:blue;fill:blue;" id="6497" x2="1000.00" x1="970.00" y1="400.00" y2="450.00" /><line style="stroke:blue;fill:blue;" id="6498" x2="930.00" x1="970.00" y1="400.00" y2="330.00" /><line style="stroke:blue;fill:blue;" id="6499" x2="900.00" x1="970.00" y1="400.00" y2="420.00" /><line style="stroke:blue;fill:blue;" id="6500" x2="910.00" x1="980.00" y1="180.00" y2="200.00" /><line style="stroke:blue;fill:blue;" id="6501" x2="880.00" x1="980.00" y1="180.00" y2="130.00" /><line style="stroke:blue;fill:blue;" id="6502" x2="1000.00" x1="1000.00" y1="500.00" y2="450.00" /><line style="stroke:blue;fill:blue;" id="6503" x2="970.00" x1="1000.00" y1="500.00" y2="540.00" /><line style="stroke:blue;fill:blue;" id="6504" x2="1000.00" x1="1000.00" y1="450.00" y2="500.00" /><line style="stroke:blue;fill:blue;" id="6505" x2="970.00" x1="1000.00" y1="450.00" y2="400.00" /><line style="stroke:blue;fill:blue;" id="6506" x2="100.00" x1="30.00" y1="750.00" y2="750.00" /><line style="stroke:blue;fill:blue;" id="6507" x2="60.00" x1="60.00" y1="150.00" y2="100.00" /><line style="stroke:blue;fill:blue;" id="6508" x2="270.00" x1="300.96" y1="321.91" y2="360.00" /><line style="stroke:blue;fill:blue;" id="6509" x2="430.00" x1="430.00" y1="30.00" y2="80.00" /><line style="stroke:blue;fill:blue;" id="6510" x2="490.00" x1="420.00" y1="730.00" y2="700.00" /><line style="stroke:blue;fill:blue;" id="6511" x2="580.00" x1="660.00" y1="180.00" y2="160.00" /><line style="stroke:blue;fill:blue;" id="6512" x2="760.00" x1="660.00" y1="180.00" y2="150.00" /><line style="stroke:blue;fill:blue;" id="6513" x2="730.00" x1="660.00" y1="180.00" y2="200.00" /><line style="stroke:blue;fill:blue;" id="6514" x2="660.00" x1="730.00" y1="200.00" y2="180.00" /><line style="stroke:blue;fill:blue;" id="6515" x2="780.00" x1="730.00" y1="200.00" y2="250.00" /><line style="stroke:blue;fill:blue;" id="6516" x2="830.00" x1="760.00" y1="150.00" y2="130.00" /><line style="stroke:blue;fill:blue;" id="6517" x2="660.00" x1="760.00" y1="150.00" y2="180.00" /><line style="stroke:blue;fill:blue;" id="6518" x2="740.00" x1="810.00" y1="700.00" y2="640.00" /><line style="stroke:blue;fill:blue;" id="6519" x2="970.00" x1="900.00" y1="420.00" y2="400.00" /><line style="stroke:blue;fill:blue;" id="6520" x2="810.00" x1="930.00" y1="80.00" y2="80.00" /></svg>
