<?xml version="1.0" standalone="yes"?><!DOCTYPE svg PUBLIC "-//W3C//DTD SVG 1.1//EN" "http://www.w3.org/Graphics/SVG/1.1/DTD/svg11.dtd"[]><svg height="800.00" id="5937" width="1050.00" xmlns="http://www.w3.org/2000/svg" xmlns:xlink="http://www.w3.org/1999/xlink"><rect Type="system" Region="底特里德" height="5.00" y="200.00" Name="Q0J-RH" width="5.00" x="30.00" id="5938" ID="30000507" /><text x="30.00" y="200.00" id="5939">Q0J-RH</text><rect Type="system" Region="底特里德" height="5.00" y="280.00" Name="BOZ1-O" width="5.00" x="30.00" id="5941" ID="30000504" /><text x="30.00" y="280.00" id="5942">BOZ1-O</text><rect Type="system" Region="底特里德" height="5.00" y="330.00" Name="QIMO-2" width="5.00" x="30.00" id="5944" ID="30000505" /><text x="30.00" y="330.00" id="5945">QIMO-2</text><rect Type="system" Region="底特里德" height="5.00" y="100.00" Name="OEG-K9" width="5.00" x="60.00" id="5947" ID="30000439" /><text x="60.00" y="100.00" id="5948">OEG-K9</text><rect Type="system" Region="底特里德" height="5.00" y="232.32" Name="E-ACV6" width="5.00" x="77.68" id="5950" ID="30000503" /><text x="77.68" y="232.32" id="5951">E-ACV6</text><rect Type="system" Region="底特里德" height="5.00" y="550.00" Name="RZ-PIY" width="5.00" x="80.00" id="5953" ID="30000477" /><text x="80.00" y="550.00" id="5954">RZ-PIY</text><rect Type="system" Region="底特里德" height="5.00" y="330.00" Name="F9O-U9" width="5.00" x="80.00" id="5956" ID="30000500" /><text x="80.00" y="330.00" id="5957">F9O-U9</text><rect Type="system" Region="底特里德" height="5.00" y="680.00" Name="KE-0FB" width="5.00" x="100.00" id="5959" ID="30000519" /><text x="100.00" y="680.00" id="5960">KE-0FB</text><rect Type="system" Region="底特里德" height="5.00" y="50.00" Name="PQRE-W" width="5.00" x="110.00" id="5962" ID="30000438" /><text x="110.00" y="50.00" id="5963">PQRE-W</text><rect Type="system" Region="底特里德" height="5.00" y="197.68" Name="Z-2Y2Y" width="5.00" x="112.32" id="5965" ID="30000506" /><text x="112.32" y="197.68" id="5966">Z-2Y2Y</text><rect Type="system" Region="底特里德" height="5.00" y="750.00" Name="I-9GI1" width="5.00" x="100.00" id="5968" ID="30000520" /><text x="100.00" y="750.00" id="5969">I-9GI1</text><rect Type="system" Region="底特里德" height="5.00" y="280.00" Name="S-51XG" width="5.00" x="110.00" id="5971" ID="30000501" /><text x="110.00" y="280.00" id="5972">S-51XG</text><rect Type="system" Region="底特里德" height="5.00" y="480.00" Name="QLPX-J" width="5.00" x="160.00" id="5974" ID="30000475" /><text x="160.00" y="480.00" id="5975">QLPX-J</text><rect Type="system" Region="底特里德" height="5.00" y="530.00" Name="A-C5TC" width="5.00" x="160.00" id="5977" ID="30000476" /><text x="160.00" y="530.00" id="5978">A-C5TC</text><rect Type="system" Region="底特里德" height="5.00" y="680.00" Name="DX-DFJ" width="5.00" x="170.00" id="5980" ID="30000516" /><text x="170.00" y="680.00" id="5981">DX-DFJ</text><rect Type="system" Region="底特里德" height="5.00" y="430.00" Name="OFVH-Y" width="5.00" x="160.00" id="5983" ID="30000472" /><text x="160.00" y="430.00" id="5984">OFVH-Y</text><rect Type="system" Region="底特里德" height="5.00" y="730.00" Name="DVWV-3" width="5.00" x="170.00" id="5986" ID="30000518" /><text x="170.00" y="730.00" id="5987">DVWV-3</text><rect Type="system" Region="底特里德" height="5.00" y="130.00" Name="EU9-J3" width="5.00" x="160.00" id="5989" ID="30000437" /><text x="160.00" y="130.00" id="5990">EU9-J3</text><rect Type="system" Region="底特里德" height="5.00" y="380.00" Name="XSUD-1" width="5.00" x="160.00" id="5992" ID="30000447" /><text x="160.00" y="380.00" id="5993">XSUD-1</text><rect Type="system" Region="底特里德" height="5.00" y="50.00" Name="B-5UFY" width="5.00" x="180.00" id="5995" ID="30000435" /><text x="180.00" y="50.00" id="5996">B-5UFY</text><rect Type="system" Region="底特里德" height="5.00" y="230.00" Name="E-1XVP" width="5.00" x="180.00" id="5998" ID="30000502" /><text x="180.00" y="230.00" id="5999">E-1XVP</text><rect Type="system" Region="底特里德" height="5.00" y="630.00" Name="U0W-DR" width="5.00" x="210.00" id="6001" ID="30000514" /><text x="210.00" y="630.00" id="6002">U0W-DR</text><rect Type="system" Region="底特里德" height="5.00" y="330.00" Name="C5-SUU" width="5.00" x="210.00" id="6004" ID="30000446" /><text x="210.00" y="330.00" id="6005">C5-SUU</text><rect Type="system" Region="底特里德" height="5.00" y="580.00" Name="FR46-E" width="5.00" x="210.00" id="6007" ID="30000478" /><text x="210.00" y="580.00" id="6008">FR46-E</text><rect Type="system" Region="底特里德" height="5.00" y="100.00" Name="SK42-F" width="5.00" x="210.00" id="6010" ID="30000436" /><text x="210.00" y="100.00" id="6011">SK42-F</text><rect Type="system" Region="底特里德" height="5.00" y="480.00" Name="2-X0PF" width="5.00" x="230.00" id="6013" ID="30000473" /><text x="230.00" y="480.00" id="6014">2-X0PF</text><rect Type="system" Region="底特里德" height="5.00" y="280.00" Name="3-3EZB" width="5.00" x="230.00" id="6016" ID="30000452" /><text x="230.00" y="280.00" id="6017">3-3EZB</text><rect Type="system" Region="底特里德" height="5.00" y="400.00" Name="P7MI-T" width="5.00" x="230.00" id="6019" ID="30000450" /><text x="230.00" y="400.00" id="6020">P7MI-T</text><rect Type="system" Region="底特里德" height="5.00" y="680.00" Name="SY-UWN" width="5.00" x="250.00" id="6022" ID="30000515" /><text x="250.00" y="680.00" id="6023">SY-UWN</text><rect Type="system" Region="底特里德" height="5.00" y="50.00" Name="V-4DBR" width="5.00" x="260.00" id="6025" ID="30000434" /><text x="260.00" y="50.00" id="6026">V-4DBR</text><rect Type="system" Region="底特里德" height="5.00" y="360.00" Name="3-LJW3" width="5.00" x="270.00" id="6028" ID="30000448" /><text x="270.00" y="360.00" id="6029">3-LJW3</text><rect Type="system" Region="底特里德" height="5.00" y="180.00" Name="1-GBVE" width="5.00" x="280.00" id="6031" ID="30000463" /><text x="280.00" y="180.00" id="6032">1-GBVE</text><rect Type="system" Region="底特里德" height="5.00" y="278.09" Name="52CW-6" width="5.00" x="279.04" id="6034" ID="30000453" /><text x="279.04" y="278.09" id="6035">52CW-6</text><rect Type="system" Region="底特里德" height="5.00" y="436.23" Name="JFV-ID" width="5.00" x="299.06" id="6037" ID="30000451" /><text x="299.06" y="436.23" id="6038">JFV-ID</text><rect Type="system" Region="底特里德" height="5.00" y="680.00" Name="X-31TE" width="5.00" x="330.00" id="6040" ID="30000517" /><text x="330.00" y="680.00" id="6041">X-31TE</text><rect Type="system" Region="底特里德" height="5.00" y="483.77" Name="1-PGSG" width="5.00" x="310.94" id="6043" ID="30000474" /><text x="310.94" y="483.77" id="6044">1-PGSG</text><rect Type="system" Region="底特里德" height="5.00" y="80.00" Name="WU-FHQ" width="5.00" x="310.00" id="6046" ID="30000433" /><text x="310.00" y="80.00" id="6047">WU-FHQ</text><rect Type="system" Region="底特里德" height="5.00" y="380.00" Name="ZLO3-V" width="5.00" x="330.00" id="6049" ID="30000449" /><text x="330.00" y="380.00" id="6050">ZLO3-V</text><rect Type="system" Region="底特里德" height="5.00" y="160.00" Name="L8-WNE" width="5.00" x="350.00" id="6052" ID="30000462" /><text x="350.00" y="160.00" id="6053">L8-WNE</text><rect Type="system" Region="底特里德" height="5.00" y="120.00" Name="NB-ALM" width="5.00" x="380.00" id="6055" ID="30000465" /><text x="380.00" y="120.00" id="6056">NB-ALM</text><rect Type="system" Region="底特里德" height="5.00" y="200.00" Name="J-L9MA" width="5.00" x="380.00" id="6058" ID="30000489" /><text x="380.00" y="200.00" id="6059">J-L9MA</text><rect Type="system" Region="底特里德" height="5.00" y="250.00" Name="EDQG-L" width="5.00" x="380.00" id="6061" ID="30000486" /><text x="380.00" y="250.00" id="6062">EDQG-L</text><rect Type="system" Region="底特里德" height="5.00" y="300.00" Name="TYB-69" width="5.00" x="380.00" id="6064" ID="30000485" /><text x="380.00" y="300.00" id="6065">TYB-69</text><rect Type="system" Region="底特里德" height="5.00" y="160.00" Name="G3D-ZT" width="5.00" x="410.00" id="6067" ID="30000460" /><text x="410.00" y="160.00" id="6068">G3D-ZT</text><rect Type="system" Region="底特里德" height="5.00" y="80.00" Name="9N-0HF" width="5.00" x="430.00" id="6070" ID="30000458" /><text x="430.00" y="80.00" id="6071">9N-0HF</text><rect Type="system" Region="底特里德" height="5.00" y="580.00" Name="SAI-T9" width="5.00" x="430.00" id="6073" ID="30000508" /><text x="430.00" y="580.00" id="6074">SAI-T9</text><rect Type="system" Region="底特里德" height="5.00" y="300.00" Name="7-P1JO" width="5.00" x="450.00" id="6076" ID="30000487" /><text x="450.00" y="300.00" id="6077">7-P1JO</text><rect Type="system" Region="底特里德" height="5.00" y="380.00" Name="T-0JWP" width="5.00" x="460.00" id="6079" ID="30000488" /><text x="460.00" y="380.00" id="6080">T-0JWP</text><rect Type="system" Region="底特里德" height="5.00" y="500.00" Name="K7S-FF" width="5.00" x="460.00" id="6082" ID="30000510" /><text x="460.00" y="500.00" id="6083">K7S-FF</text><rect Type="system" Region="底特里德" height="5.00" y="180.00" Name="GC-LTF" width="5.00" x="460.00" id="6085" ID="30000464" /><text x="460.00" y="180.00" id="6086">GC-LTF</text><rect Type="system" Region="底特里德" height="5.00" y="120.00" Name="D-0UI0" width="5.00" x="490.00" id="6088" ID="30000461" /><text x="490.00" y="120.00" id="6089">D-0UI0</text><rect Type="system" Region="底特里德" height="5.00" y="330.00" Name="DX-TAR" width="5.00" x="490.00" id="6091" ID="30000490" /><text x="490.00" y="330.00" id="6092">DX-TAR</text><rect Type="system" Region="底特里德" height="5.00" y="70.00" Name="6OU9-U" width="5.00" x="510.00" id="6094" ID="30000457" /><text x="510.00" y="70.00" id="6095">6OU9-U</text><rect Type="system" Region="底特里德" height="5.00" y="230.00" Name="QXE-1N" width="5.00" x="510.00" id="6097" ID="30000526" /><text x="510.00" y="230.00" id="6098">QXE-1N</text><rect Type="system" Region="底特里德" height="5.00" y="280.00" Name="0IF-26" width="5.00" x="510.00" id="6100" ID="30000522" /><text x="510.00" y="280.00" id="6101">0IF-26</text><rect Type="system" Region="底特里德" height="5.00" y="530.00" Name="IAS-I5" width="5.00" x="530.00" id="6103" ID="30000509" /><text x="530.00" y="530.00" id="6104">IAS-I5</text><rect Type="system" Region="底特里德" height="5.00" y="600.00" Name="RT-9WL" width="5.00" x="530.00" id="6106" ID="30000511" /><text x="530.00" y="600.00" id="6107">RT-9WL</text><rect Type="system" Region="底特里德" height="5.00" y="380.00" Name="A-7XFN" width="5.00" x="530.00" id="6109" ID="30000491" /><text x="530.00" y="380.00" id="6110">A-7XFN</text><rect Type="system" Region="底特里德" height="5.00" y="650.00" Name="O5Q7-U" width="5.00" x="520.00" id="6112" ID="30000512" /><text x="520.00" y="650.00" id="6113">O5Q7-U</text><rect Type="system" Region="底特里德" height="5.00" y="50.00" Name="GR-X26" width="5.00" x="580.00" id="6115" ID="30000456" /><text x="580.00" y="50.00" id="6116">GR-X26</text><rect Type="system" Region="底特里德" height="5.00" y="110.00" Name="L-L7PE" width="5.00" x="580.00" id="6118" ID="30000528" /><text x="580.00" y="110.00" id="6119">L-L7PE</text><rect Type="system" Region="底特里德" height="5.00" y="160.00" Name="U69-YC" width="5.00" x="580.00" id="6121" ID="30000527" /><text x="580.00" y="160.00" id="6122">U69-YC</text><rect Type="system" Region="底特里德" height="5.00" y="209.44" Name="7-A6XV" width="5.00" x="579.99" id="6124" ID="30000525" /><text x="579.99" y="209.44" id="6125">7-A6XV</text><rect Type="system" Region="底特里德" height="5.00" y="258.43" Name="H-93YV" width="5.00" x="581.08" id="6127" ID="30000523" /><text x="581.08" y="258.43" id="6128">H-93YV</text><rect Type="system" Region="底特里德" height="5.00" y="302.13" Name="W6P-7U" width="5.00" x="558.93" id="6130" ID="30000521" /><text x="558.93" y="302.13" id="6131">W6P-7U</text><rect Type="system" Region="底特里德" height="5.00" y="700.00" Name="62O-UE" width="5.00" x="490.00" id="6133" ID="30000513" /><text x="490.00" y="700.00" id="6134">62O-UE</text><rect Type="system" Region="底特里德" height="5.00" y="350.00" Name="U-MFTL" width="5.00" x="580.00" id="6136" ID="30000493" /><text x="580.00" y="350.00" id="6137">U-MFTL</text><rect Type="system" Region="底特里德" height="5.00" y="380.00" Name="O3-4MN" width="5.00" x="630.00" id="6139" ID="30000492" /><text x="630.00" y="380.00" id="6140">O3-4MN</text><rect Type="system" Region="底特里德" height="5.00" y="230.00" Name="E51-JE" width="5.00" x="660.00" id="6142" ID="30000524" /><text x="660.00" y="230.00" id="6143">E51-JE</text><rect Type="system" Region="底特里德" height="5.00" y="489.26" Name="5OJ-G2" width="5.00" x="640.02" id="6145" ID="30000468" /><text x="640.02" y="489.26" id="6146">5OJ-G2</text><rect Type="system" Region="底特里德" height="5.00" y="538.24" Name="9-02G0" width="5.00" x="638.73" id="6148" ID="30000469" /><text x="638.73" y="538.24" id="6149">9-02G0</text><rect Type="system" Region="底特里德" height="5.00" y="638.09" Name="0-G8NO" width="5.00" x="659.04" id="6151" ID="30000480" /><text x="659.04" y="638.09" id="6152">0-G8NO</text><rect Type="system" Region="底特里德" height="5.00" y="80.00" Name="U-OVFR" width="5.00" x="660.00" id="6154" ID="30000459" /><text x="660.00" y="80.00" id="6155">U-OVFR</text><rect Type="system" Region="底特里德" height="5.00" y="440.00" Name="L-QQ6P" width="5.00" x="660.00" id="6157" ID="30000467" /><text x="660.00" y="440.00" id="6158">L-QQ6P</text><rect Type="system" Region="底特里德" height="5.00" y="582.07" Name="M-XUZZ" width="5.00" x="660.65" id="6160" ID="30000471" /><text x="660.65" y="582.07" id="6161">M-XUZZ</text><rect Type="system" Region="底特里德" height="5.00" y="390.00" Name="LT-XI4" width="5.00" x="680.00" id="6163" ID="30000466" /><text x="680.00" y="390.00" id="6164">LT-XI4</text><rect Type="system" Region="底特里德" height="5.00" y="681.91" Name="HZFJ-M" width="5.00" x="680.96" id="6166" ID="30000482" /><text x="680.96" y="681.91" id="6167">HZFJ-M</text><rect Type="system" Region="底特里德" height="5.00" y="610.43" Name="SLVP-D" width="5.00" x="700.60" id="6169" ID="30000479" /><text x="700.60" y="610.43" id="6170">SLVP-D</text><rect Type="system" Region="底特里德" height="5.00" y="350.00" Name="H-FGJO" width="5.00" x="710.00" id="6172" ID="30000444" /><text x="710.00" y="350.00" id="6173">H-FGJO</text><rect Type="system" Region="底特里德" height="5.00" y="500.00" Name="XA5-TY" width="5.00" x="720.00" id="6175" ID="30000470" /><text x="720.00" y="500.00" id="6176">XA5-TY</text><rect Type="system" Region="底特里德" height="5.00" y="80.00" Name="9-OUGJ" width="5.00" x="730.00" id="6178" ID="30000454" /><text x="730.00" y="80.00" id="6179">9-OUGJ</text><rect Type="system" Region="底特里德" height="5.00" y="570.00" Name="QRFJ-Q" width="5.00" x="730.00" id="6181" ID="30000481" /><text x="730.00" y="570.00" id="6182">QRFJ-Q</text><rect Type="system" Region="底特里德" height="5.00" y="640.00" Name="77S8-E" width="5.00" x="740.00" id="6184" ID="30000483" /><text x="740.00" y="640.00" id="6185">77S8-E</text><rect Type="system" Region="因斯姆尔" height="5.00" y="250.00" Name="N7-KGJ" width="5.00" x="780.00" id="6187" ID="30000841" /><text x="780.00" y="250.00" id="6188">N7-KGJ</text><rect Type="system" Region="底特里德" height="5.00" y="80.00" Name="4NDT-W" width="5.00" x="810.00" id="6190" ID="30000455" /><text x="810.00" y="80.00" id="6191">4NDT-W</text><rect Type="system" Region="底特里德" height="5.00" y="620.00" Name="FMH-OV" width="5.00" x="820.00" id="6193" ID="30000484" /><text x="820.00" y="620.00" id="6194">FMH-OV</text><rect Type="system" Region="底特里德" height="5.00" y="130.00" Name="1KAW-T" width="5.00" x="830.00" id="6196" ID="30000445" /><text x="830.00" y="130.00" id="6197">1KAW-T</text><rect Type="system" Region="底特里德" height="5.00" y="540.00" Name="XW2H-V" width="5.00" x="850.00" id="6199" ID="30000499" /><text x="850.00" y="540.00" id="6200">XW2H-V</text><rect Type="system" Region="底特里德" height="5.00" y="600.00" Name="KZ9T-C" width="5.00" x="870.00" id="6202" ID="30000498" /><text x="870.00" y="600.00" id="6203">KZ9T-C</text><rect Type="system" Region="因斯姆尔" height="5.00" y="300.00" Name="VD-8QY" width="5.00" x="880.00" id="6205" ID="30000842" /><text x="880.00" y="300.00" id="6206">VD-8QY</text><rect Type="system" Region="底特里德" height="5.00" y="130.00" Name="DG-8VJ" width="5.00" x="880.00" id="6208" ID="30000441" /><text x="880.00" y="130.00" id="6209">DG-8VJ</text><rect Type="system" Region="底特里德" height="5.00" y="250.00" Name="MD-0AW" width="5.00" x="880.00" id="6211" ID="30000443" /><text x="880.00" y="250.00" id="6212">MD-0AW</text><rect Type="system" Region="底特里德" height="5.00" y="200.00" Name="0-W778" width="5.00" x="910.00" id="6214" ID="30000440" /><text x="910.00" y="200.00" id="6215">0-W778</text><rect Type="system" Region="因斯姆尔" height="5.00" y="330.00" Name="J-ZYSZ" width="5.00" x="930.00" id="6217" ID="30000843" /><text x="930.00" y="330.00" id="6218">J-ZYSZ</text><rect Type="system" Region="底特里德" height="5.00" y="580.00" Name="F2W-C6" width="5.00" x="940.00" id="6220" ID="30000497" /><text x="940.00" y="580.00" id="6221">F2W-C6</text><rect Type="system" Region="底特里德" height="5.00" y="540.00" Name="X40H-9" width="5.00" x="970.00" id="6223" ID="30000496" /><text x="970.00" y="540.00" id="6224">X40H-9</text><rect Type="system" Region="因斯姆尔" height="5.00" y="400.00" Name="5C-RPA" width="5.00" x="970.00" id="6226" ID="30000844" /><text x="970.00" y="400.00" id="6227">5C-RPA</text><rect Type="system" Region="底特里德" height="5.00" y="180.00" Name="5J4K-9" width="5.00" x="980.00" id="6229" ID="30000442" /><text x="980.00" y="180.00" id="6230">5J4K-9</text><rect Type="system" Region="底特里德" height="5.00" y="500.00" Name="FIDY-8" width="5.00" x="1000.00" id="6232" ID="30000495" /><text x="1000.00" y="500.00" id="6233">FIDY-8</text><rect Type="system" Region="底特里德" height="5.00" y="450.00" Name="8FN-GP" width="5.00" x="1000.00" id="6235" ID="30000494" /><text x="1000.00" y="450.00" id="6236">8FN-GP</text><rect Type="system" Region="伊梅瑟亚" height="5.00" y="750.00" Name="E8-YS9" width="5.00" x="30.00" id="6238" ID="30002163" /><text x="30.00" y="750.00" id="6239">E8-YS9</text><rect Type="system" Region="邪恶湾流" height="5.00" y="150.00" Name="V7G-RL" width="5.00" x="60.00" id="6241" ID="30000603" /><text x="60.00" y="150.00" id="6242">V7G-RL</text><rect Type="system" Region="邪恶湾流" height="5.00" y="321.91" Name="5H-SM2" width="5.00" x="300.96" id="6244" ID="30000581" /><text x="300.96" y="321.91" id="6245">5H-SM2</text><rect Type="system" Region="因斯姆尔" height="5.00" y="30.00" Name="SHBF-V" width="5.00" x="430.00" id="6247" ID="30000779" /><text x="430.00" y="30.00" id="6248">SHBF-V</text><rect Type="system" Region="伊梅瑟亚" height="5.00" y="730.00" Name="M-ZJWJ" width="5.00" x="420.00" id="6250" ID="30002181" /><text x="420.00" y="730.00" id="6251">M-ZJWJ</text><rect Type="system" Region="因斯姆尔" height="5.00" y="180.00" Name="GB-6X5" width="5.00" x="660.00" id="6253" ID="30000839" /><text x="660.00" y="180.00" id="6254">GB-6X5</text><rect Type="system" Region="因斯姆尔" height="5.00" y="200.00" Name="7EX-14" width="5.00" x="730.00" id="6256" ID="30000840" /><text x="730.00" y="200.00" id="6257">7EX-14</text><rect Type="system" Region="因斯姆尔" height="5.00" y="150.00" Name="0-6VZ5" width="5.00" x="760.00" id="6259" ID="30000838" /><text x="760.00" y="150.00" id="6260">0-6VZ5</text><rect Type="system" Region="特里菲斯" height="5.00" y="700.00" Name="46DP-O" width="5.00" x="810.00" id="6262" ID="30004878" /><text x="810.00" y="700.00" id="6263">46DP-O</text><rect Type="system" Region="因斯姆尔" height="5.00" y="420.00" Name="CR2-PQ" width="5.00" x="900.00" id="6265" ID="30000845" /><text x="900.00" y="420.00" id="6266">CR2-PQ</text><rect Type="system" Region="邪恶湾流" height="5.00" y="80.00" Name="GM-50Y" width="5.00" x="930.00" id="6268" ID="30000544" /><text x="930.00" y="80.00" id="6269">GM-50Y</text><line x2="30.00" style="fill:blue;stroke:blue;" y1="200.00" x1="30.00" id="6271" y2="280.00" /><line x2="77.68" style="fill:blue;stroke:blue;" y1="280.00" x1="30.00" id="6272" y2="232.32" /><line x2="30.00" style="fill:blue;stroke:blue;" y1="280.00" x1="30.00" id="6273" y2="330.00" /><line x2="30.00" style="fill:blue;stroke:blue;" y1="280.00" x1="30.00" id="6274" y2="200.00" /><line x2="80.00" style="fill:blue;stroke:blue;" y1="330.00" x1="30.00" id="6275" y2="330.00" /><line x2="30.00" style="fill:blue;stroke:blue;" y1="330.00" x1="30.00" id="6276" y2="280.00" /><line x2="110.00" style="fill:blue;stroke:blue;" y1="100.00" x1="60.00" id="6277" y2="50.00" /><line x2="60.00" style="fill:blue;stroke:blue;" y1="100.00" x1="60.00" id="6278" y2="150.00" /><line x2="110.00" style="fill:blue;stroke:blue;" y1="232.32" x1="77.68" id="6279" y2="280.00" /><line x2="30.00" style="fill:blue;stroke:blue;" y1="232.32" x1="77.68" id="6280" y2="280.00" /><line x2="112.32" style="fill:blue;stroke:blue;" y1="232.32" x1="77.68" id="6281" y2="197.68" /><line x2="160.00" style="fill:blue;stroke:blue;" y1="550.00" x1="80.00" id="6282" y2="530.00" /><line x2="210.00" style="fill:blue;stroke:blue;" y1="550.00" x1="80.00" id="6283" y2="580.00" /><line x2="80.00" style="fill:blue;stroke:blue;" y1="550.00" x1="80.00" id="6284" y2="330.00" /><line x2="80.00" style="fill:blue;stroke:blue;" y1="330.00" x1="80.00" id="6285" y2="550.00" /><line x2="110.00" style="fill:blue;stroke:blue;" y1="330.00" x1="80.00" id="6286" y2="280.00" /><line x2="30.00" style="fill:blue;stroke:blue;" y1="330.00" x1="80.00" id="6287" y2="330.00" /><line x2="170.00" style="fill:blue;stroke:blue;" y1="680.00" x1="100.00" id="6288" y2="680.00" /><line x2="170.00" style="fill:blue;stroke:blue;" y1="680.00" x1="100.00" id="6289" y2="730.00" /><line x2="100.00" style="fill:blue;stroke:blue;" y1="680.00" x1="100.00" id="6290" y2="750.00" /><line x2="180.00" style="fill:blue;stroke:blue;" y1="50.00" x1="110.00" id="6291" y2="50.00" /><line x2="60.00" style="fill:blue;stroke:blue;" y1="50.00" x1="110.00" id="6292" y2="100.00" /><line x2="77.68" style="fill:blue;stroke:blue;" y1="197.68" x1="112.32" id="6293" y2="232.32" /><line x2="170.00" style="fill:blue;stroke:blue;" y1="750.00" x1="100.00" id="6294" y2="730.00" /><line x2="100.00" style="fill:blue;stroke:blue;" y1="750.00" x1="100.00" id="6295" y2="680.00" /><line x2="30.00" style="fill:blue;stroke:blue;" y1="750.00" x1="100.00" id="6296" y2="750.00" /><line x2="80.00" style="fill:blue;stroke:blue;" y1="280.00" x1="110.00" id="6297" y2="330.00" /><line x2="180.00" style="fill:blue;stroke:blue;" y1="280.00" x1="110.00" id="6298" y2="230.00" /><line x2="77.68" style="fill:blue;stroke:blue;" y1="280.00" x1="110.00" id="6299" y2="232.32" /><line x2="160.00" style="fill:blue;stroke:blue;" y1="480.00" x1="160.00" id="6300" y2="430.00" /><line x2="230.00" style="fill:blue;stroke:blue;" y1="480.00" x1="160.00" id="6301" y2="480.00" /><line x2="160.00" style="fill:blue;stroke:blue;" y1="480.00" x1="160.00" id="6302" y2="530.00" /><line x2="160.00" style="fill:blue;stroke:blue;" y1="530.00" x1="160.00" id="6303" y2="480.00" /><line x2="80.00" style="fill:blue;stroke:blue;" y1="530.00" x1="160.00" id="6304" y2="550.00" /><line x2="210.00" style="fill:blue;stroke:blue;" y1="530.00" x1="160.00" id="6305" y2="580.00" /><line x2="210.00" style="fill:blue;stroke:blue;" y1="680.00" x1="170.00" id="6306" y2="630.00" /><line x2="170.00" style="fill:blue;stroke:blue;" y1="680.00" x1="170.00" id="6307" y2="730.00" /><line x2="100.00" style="fill:blue;stroke:blue;" y1="680.00" x1="170.00" id="6308" y2="680.00" /><line x2="160.00" style="fill:blue;stroke:blue;" y1="430.00" x1="160.00" id="6309" y2="380.00" /><line x2="230.00" style="fill:blue;stroke:blue;" y1="430.00" x1="160.00" id="6310" y2="480.00" /><line x2="160.00" style="fill:blue;stroke:blue;" y1="430.00" x1="160.00" id="6311" y2="480.00" /><line x2="170.00" style="fill:blue;stroke:blue;" y1="730.00" x1="170.00" id="6312" y2="680.00" /><line x2="100.00" style="fill:blue;stroke:blue;" y1="730.00" x1="170.00" id="6313" y2="680.00" /><line x2="100.00" style="fill:blue;stroke:blue;" y1="730.00" x1="170.00" id="6314" y2="750.00" /><line x2="210.00" style="fill:blue;stroke:blue;" y1="130.00" x1="160.00" id="6315" y2="100.00" /><line x2="210.00" style="fill:blue;stroke:blue;" y1="380.00" x1="160.00" id="6316" y2="330.00" /><line x2="160.00" style="fill:blue;stroke:blue;" y1="380.00" x1="160.00" id="6317" y2="430.00" /><line x2="260.00" style="fill:blue;stroke:blue;" y1="50.00" x1="180.00" id="6318" y2="50.00" /><line x2="110.00" style="fill:blue;stroke:blue;" y1="50.00" x1="180.00" id="6319" y2="50.00" /><line x2="280.00" style="fill:blue;stroke:blue;" y1="230.00" x1="180.00" id="6320" y2="180.00" /><line x2="110.00" style="fill:blue;stroke:blue;" y1="230.00" x1="180.00" id="6321" y2="280.00" /><line x2="210.00" style="fill:blue;stroke:blue;" y1="630.00" x1="210.00" id="6322" y2="580.00" /><line x2="250.00" style="fill:blue;stroke:blue;" y1="630.00" x1="210.00" id="6323" y2="680.00" /><line x2="170.00" style="fill:blue;stroke:blue;" y1="630.00" x1="210.00" id="6324" y2="680.00" /><line x2="160.00" style="fill:blue;stroke:blue;" y1="330.00" x1="210.00" id="6325" y2="380.00" /><line x2="270.00" style="fill:blue;stroke:blue;" y1="330.00" x1="210.00" id="6326" y2="360.00" /><line x2="230.00" style="fill:blue;stroke:blue;" y1="330.00" x1="210.00" id="6327" y2="400.00" /><line x2="230.00" style="fill:blue;stroke:blue;" y1="330.00" x1="210.00" id="6328" y2="280.00" /><line x2="160.00" style="fill:blue;stroke:blue;" y1="580.00" x1="210.00" id="6329" y2="530.00" /><line x2="80.00" style="fill:blue;stroke:blue;" y1="580.00" x1="210.00" id="6330" y2="550.00" /><line x2="430.00" style="fill:blue;stroke:blue;" y1="580.00" x1="210.00" id="6331" y2="580.00" /><line x2="210.00" style="fill:blue;stroke:blue;" y1="580.00" x1="210.00" id="6332" y2="630.00" /><line x2="260.00" style="fill:blue;stroke:blue;" y1="100.00" x1="210.00" id="6333" y2="50.00" /><line x2="160.00" style="fill:blue;stroke:blue;" y1="100.00" x1="210.00" id="6334" y2="130.00" /><line x2="160.00" style="fill:blue;stroke:blue;" y1="480.00" x1="230.00" id="6335" y2="430.00" /><line x2="310.94" style="fill:blue;stroke:blue;" y1="480.00" x1="230.00" id="6336" y2="483.77" /><line x2="160.00" style="fill:blue;stroke:blue;" y1="480.00" x1="230.00" id="6337" y2="480.00" /><line x2="210.00" style="fill:blue;stroke:blue;" y1="280.00" x1="230.00" id="6338" y2="330.00" /><line x2="279.04" style="fill:blue;stroke:blue;" y1="280.00" x1="230.00" id="6339" y2="278.09" /><line x2="210.00" style="fill:blue;stroke:blue;" y1="400.00" x1="230.00" id="6340" y2="330.00" /><line x2="299.06" style="fill:blue;stroke:blue;" y1="400.00" x1="230.00" id="6341" y2="436.23" /><line x2="210.00" style="fill:blue;stroke:blue;" y1="680.00" x1="250.00" id="6342" y2="630.00" /><line x2="330.00" style="fill:blue;stroke:blue;" y1="680.00" x1="250.00" id="6343" y2="680.00" /><line x2="310.00" style="fill:blue;stroke:blue;" y1="50.00" x1="260.00" id="6344" y2="80.00" /><line x2="180.00" style="fill:blue;stroke:blue;" y1="50.00" x1="260.00" id="6345" y2="50.00" /><line x2="210.00" style="fill:blue;stroke:blue;" y1="50.00" x1="260.00" id="6346" y2="100.00" /><line x2="210.00" style="fill:blue;stroke:blue;" y1="360.00" x1="270.00" id="6347" y2="330.00" /><line x2="330.00" style="fill:blue;stroke:blue;" y1="360.00" x1="270.00" id="6348" y2="380.00" /><line x2="300.96" style="fill:blue;stroke:blue;" y1="360.00" x1="270.00" id="6349" y2="321.91" /><line x2="350.00" style="fill:blue;stroke:blue;" y1="180.00" x1="280.00" id="6350" y2="160.00" /><line x2="180.00" style="fill:blue;stroke:blue;" y1="180.00" x1="280.00" id="6351" y2="230.00" /><line x2="230.00" style="fill:blue;stroke:blue;" y1="278.09" x1="279.04" id="6352" y2="280.00" /><line x2="380.00" style="fill:blue;stroke:blue;" y1="278.09" x1="279.04" id="6353" y2="300.00" /><line x2="330.00" style="fill:blue;stroke:blue;" y1="436.23" x1="299.06" id="6354" y2="380.00" /><line x2="230.00" style="fill:blue;stroke:blue;" y1="436.23" x1="299.06" id="6355" y2="400.00" /><line x2="250.00" style="fill:blue;stroke:blue;" y1="680.00" x1="330.00" id="6356" y2="680.00" /><line x2="230.00" style="fill:blue;stroke:blue;" y1="483.77" x1="310.94" id="6357" y2="480.00" /><line x2="260.00" style="fill:blue;stroke:blue;" y1="80.00" x1="310.00" id="6358" y2="50.00" /><line x2="430.00" style="fill:blue;stroke:blue;" y1="80.00" x1="310.00" id="6359" y2="80.00" /><line x2="270.00" style="fill:blue;stroke:blue;" y1="380.00" x1="330.00" id="6360" y2="360.00" /><line x2="299.06" style="fill:blue;stroke:blue;" y1="380.00" x1="330.00" id="6361" y2="436.23" /><line x2="410.00" style="fill:blue;stroke:blue;" y1="160.00" x1="350.00" id="6362" y2="160.00" /><line x2="280.00" style="fill:blue;stroke:blue;" y1="160.00" x1="350.00" id="6363" y2="180.00" /><line x2="410.00" style="fill:blue;stroke:blue;" y1="120.00" x1="380.00" id="6364" y2="160.00" /><line x2="380.00" style="fill:blue;stroke:blue;" y1="200.00" x1="380.00" id="6365" y2="250.00" /><line x2="380.00" style="fill:blue;stroke:blue;" y1="250.00" x1="380.00" id="6366" y2="300.00" /><line x2="380.00" style="fill:blue;stroke:blue;" y1="250.00" x1="380.00" id="6367" y2="200.00" /><line x2="279.04" style="fill:blue;stroke:blue;" y1="300.00" x1="380.00" id="6368" y2="278.09" /><line x2="380.00" style="fill:blue;stroke:blue;" y1="300.00" x1="380.00" id="6369" y2="250.00" /><line x2="450.00" style="fill:blue;stroke:blue;" y1="300.00" x1="380.00" id="6370" y2="300.00" /><line x2="490.00" style="fill:blue;stroke:blue;" y1="160.00" x1="410.00" id="6371" y2="120.00" /><line x2="350.00" style="fill:blue;stroke:blue;" y1="160.00" x1="410.00" id="6372" y2="160.00" /><line x2="460.00" style="fill:blue;stroke:blue;" y1="160.00" x1="410.00" id="6373" y2="180.00" /><line x2="380.00" style="fill:blue;stroke:blue;" y1="160.00" x1="410.00" id="6374" y2="120.00" /><line x2="310.00" style="fill:blue;stroke:blue;" y1="80.00" x1="430.00" id="6375" y2="80.00" /><line x2="510.00" style="fill:blue;stroke:blue;" y1="80.00" x1="430.00" id="6376" y2="70.00" /><line x2="430.00" style="fill:blue;stroke:blue;" y1="80.00" x1="430.00" id="6377" y2="30.00" /><line x2="210.00" style="fill:blue;stroke:blue;" y1="580.00" x1="430.00" id="6378" y2="580.00" /><line x2="530.00" style="fill:blue;stroke:blue;" y1="580.00" x1="430.00" id="6379" y2="530.00" /><line x2="460.00" style="fill:blue;stroke:blue;" y1="580.00" x1="430.00" id="6380" y2="500.00" /><line x2="530.00" style="fill:blue;stroke:blue;" y1="580.00" x1="430.00" id="6381" y2="600.00" /><line x2="380.00" style="fill:blue;stroke:blue;" y1="300.00" x1="450.00" id="6382" y2="300.00" /><line x2="460.00" style="fill:blue;stroke:blue;" y1="300.00" x1="450.00" id="6383" y2="380.00" /><line x2="490.00" style="fill:blue;stroke:blue;" y1="300.00" x1="450.00" id="6384" y2="330.00" /><line x2="450.00" style="fill:blue;stroke:blue;" y1="380.00" x1="460.00" id="6385" y2="300.00" /><line x2="490.00" style="fill:blue;stroke:blue;" y1="380.00" x1="460.00" id="6386" y2="330.00" /><line x2="430.00" style="fill:blue;stroke:blue;" y1="500.00" x1="460.00" id="6387" y2="580.00" /><line x2="530.00" style="fill:blue;stroke:blue;" y1="500.00" x1="460.00" id="6388" y2="530.00" /><line x2="410.00" style="fill:blue;stroke:blue;" y1="180.00" x1="460.00" id="6389" y2="160.00" /><line x2="660.00" style="fill:blue;stroke:blue;" y1="120.00" x1="490.00" id="6390" y2="80.00" /><line x2="410.00" style="fill:blue;stroke:blue;" y1="120.00" x1="490.00" id="6391" y2="160.00" /><line x2="450.00" style="fill:blue;stroke:blue;" y1="330.00" x1="490.00" id="6392" y2="300.00" /><line x2="460.00" style="fill:blue;stroke:blue;" y1="330.00" x1="490.00" id="6393" y2="380.00" /><line x2="530.00" style="fill:blue;stroke:blue;" y1="330.00" x1="490.00" id="6394" y2="380.00" /><line x2="580.00" style="fill:blue;stroke:blue;" y1="70.00" x1="510.00" id="6395" y2="50.00" /><line x2="430.00" style="fill:blue;stroke:blue;" y1="70.00" x1="510.00" id="6396" y2="80.00" /><line x2="581.08" style="fill:blue;stroke:blue;" y1="230.00" x1="510.00" id="6397" y2="258.43" /><line x2="558.93" style="fill:blue;stroke:blue;" y1="280.00" x1="510.00" id="6398" y2="302.13" /><line x2="630.00" style="fill:blue;stroke:blue;" y1="530.00" x1="530.00" id="6399" y2="380.00" /><line x2="430.00" style="fill:blue;stroke:blue;" y1="530.00" x1="530.00" id="6400" y2="580.00" /><line x2="460.00" style="fill:blue;stroke:blue;" y1="530.00" x1="530.00" id="6401" y2="500.00" /><line x2="530.00" style="fill:blue;stroke:blue;" y1="530.00" x1="530.00" id="6402" y2="600.00" /><line x2="430.00" style="fill:blue;stroke:blue;" y1="600.00" x1="530.00" id="6403" y2="580.00" /><line x2="530.00" style="fill:blue;stroke:blue;" y1="600.00" x1="530.00" id="6404" y2="530.00" /><line x2="520.00" style="fill:blue;stroke:blue;" y1="600.00" x1="530.00" id="6405" y2="650.00" /><line x2="490.00" style="fill:blue;stroke:blue;" y1="380.00" x1="530.00" id="6406" y2="330.00" /><line x2="630.00" style="fill:blue;stroke:blue;" y1="380.00" x1="530.00" id="6407" y2="380.00" /><line x2="530.00" style="fill:blue;stroke:blue;" y1="650.00" x1="520.00" id="6408" y2="600.00" /><line x2="490.00" style="fill:blue;stroke:blue;" y1="650.00" x1="520.00" id="6409" y2="700.00" /><line x2="510.00" style="fill:blue;stroke:blue;" y1="50.00" x1="580.00" id="6410" y2="70.00" /><line x2="660.00" style="fill:blue;stroke:blue;" y1="50.00" x1="580.00" id="6411" y2="80.00" /><line x2="580.00" style="fill:blue;stroke:blue;" y1="110.00" x1="580.00" id="6412" y2="160.00" /><line x2="579.99" style="fill:blue;stroke:blue;" y1="160.00" x1="580.00" id="6413" y2="209.44" /><line x2="580.00" style="fill:blue;stroke:blue;" y1="160.00" x1="580.00" id="6414" y2="110.00" /><line x2="660.00" style="fill:blue;stroke:blue;" y1="160.00" x1="580.00" id="6415" y2="180.00" /><line x2="581.08" style="fill:blue;stroke:blue;" y1="209.44" x1="579.99" id="6416" y2="258.43" /><line x2="580.00" style="fill:blue;stroke:blue;" y1="209.44" x1="579.99" id="6417" y2="160.00" /><line x2="558.93" style="fill:blue;stroke:blue;" y1="258.43" x1="581.08" id="6418" y2="302.13" /><line x2="660.00" style="fill:blue;stroke:blue;" y1="258.43" x1="581.08" id="6419" y2="230.00" /><line x2="579.99" style="fill:blue;stroke:blue;" y1="258.43" x1="581.08" id="6420" y2="209.44" /><line x2="510.00" style="fill:blue;stroke:blue;" y1="258.43" x1="581.08" id="6421" y2="230.00" /><line x2="580.00" style="fill:blue;stroke:blue;" y1="302.13" x1="558.93" id="6422" y2="350.00" /><line x2="510.00" style="fill:blue;stroke:blue;" y1="302.13" x1="558.93" id="6423" y2="280.00" /><line x2="581.08" style="fill:blue;stroke:blue;" y1="302.13" x1="558.93" id="6424" y2="258.43" /><line x2="520.00" style="fill:blue;stroke:blue;" y1="700.00" x1="490.00" id="6425" y2="650.00" /><line x2="420.00" style="fill:blue;stroke:blue;" y1="700.00" x1="490.00" id="6426" y2="730.00" /><line x2="630.00" style="fill:blue;stroke:blue;" y1="350.00" x1="580.00" id="6427" y2="380.00" /><line x2="558.93" style="fill:blue;stroke:blue;" y1="350.00" x1="580.00" id="6428" y2="302.13" /><line x2="710.00" style="fill:blue;stroke:blue;" y1="380.00" x1="630.00" id="6429" y2="350.00" /><line x2="530.00" style="fill:blue;stroke:blue;" y1="380.00" x1="630.00" id="6430" y2="380.00" /><line x2="580.00" style="fill:blue;stroke:blue;" y1="380.00" x1="630.00" id="6431" y2="350.00" /><line x2="530.00" style="fill:blue;stroke:blue;" y1="380.00" x1="630.00" id="6432" y2="530.00" /><line x2="581.08" style="fill:blue;stroke:blue;" y1="230.00" x1="660.00" id="6433" y2="258.43" /><line x2="660.00" style="fill:blue;stroke:blue;" y1="489.26" x1="640.02" id="6434" y2="440.00" /><line x2="638.73" style="fill:blue;stroke:blue;" y1="489.26" x1="640.02" id="6435" y2="538.24" /><line x2="720.00" style="fill:blue;stroke:blue;" y1="489.26" x1="640.02" id="6436" y2="500.00" /><line x2="640.02" style="fill:blue;stroke:blue;" y1="538.24" x1="638.73" id="6437" y2="489.26" /><line x2="660.65" style="fill:blue;stroke:blue;" y1="538.24" x1="638.73" id="6438" y2="582.07" /><line x2="700.60" style="fill:blue;stroke:blue;" y1="638.09" x1="659.04" id="6439" y2="610.43" /><line x2="680.96" style="fill:blue;stroke:blue;" y1="638.09" x1="659.04" id="6440" y2="681.91" /><line x2="730.00" style="fill:blue;stroke:blue;" y1="80.00" x1="660.00" id="6441" y2="80.00" /><line x2="580.00" style="fill:blue;stroke:blue;" y1="80.00" x1="660.00" id="6442" y2="50.00" /><line x2="490.00" style="fill:blue;stroke:blue;" y1="80.00" x1="660.00" id="6443" y2="120.00" /><line x2="680.00" style="fill:blue;stroke:blue;" y1="440.00" x1="660.00" id="6444" y2="390.00" /><line x2="640.02" style="fill:blue;stroke:blue;" y1="440.00" x1="660.00" id="6445" y2="489.26" /><line x2="638.73" style="fill:blue;stroke:blue;" y1="582.07" x1="660.65" id="6446" y2="538.24" /><line x2="700.60" style="fill:blue;stroke:blue;" y1="582.07" x1="660.65" id="6447" y2="610.43" /><line x2="710.00" style="fill:blue;stroke:blue;" y1="390.00" x1="680.00" id="6448" y2="350.00" /><line x2="660.00" style="fill:blue;stroke:blue;" y1="390.00" x1="680.00" id="6449" y2="440.00" /><line x2="659.04" style="fill:blue;stroke:blue;" y1="681.91" x1="680.96" id="6450" y2="638.09" /><line x2="740.00" style="fill:blue;stroke:blue;" y1="681.91" x1="680.96" id="6451" y2="640.00" /><line x2="660.65" style="fill:blue;stroke:blue;" y1="610.43" x1="700.60" id="6452" y2="582.07" /><line x2="659.04" style="fill:blue;stroke:blue;" y1="610.43" x1="700.60" id="6453" y2="638.09" /><line x2="730.00" style="fill:blue;stroke:blue;" y1="610.43" x1="700.60" id="6454" y2="570.00" /><line x2="740.00" style="fill:blue;stroke:blue;" y1="610.43" x1="700.60" id="6455" y2="640.00" /><line x2="880.00" style="fill:blue;stroke:blue;" y1="350.00" x1="710.00" id="6456" y2="250.00" /><line x2="680.00" style="fill:blue;stroke:blue;" y1="350.00" x1="710.00" id="6457" y2="390.00" /><line x2="630.00" style="fill:blue;stroke:blue;" y1="350.00" x1="710.00" id="6458" y2="380.00" /><line x2="640.02" style="fill:blue;stroke:blue;" y1="500.00" x1="720.00" id="6459" y2="489.26" /><line x2="810.00" style="fill:blue;stroke:blue;" y1="80.00" x1="730.00" id="6460" y2="80.00" /><line x2="660.00" style="fill:blue;stroke:blue;" y1="80.00" x1="730.00" id="6461" y2="80.00" /><line x2="700.60" style="fill:blue;stroke:blue;" y1="570.00" x1="730.00" id="6462" y2="610.43" /><line x2="700.60" style="fill:blue;stroke:blue;" y1="640.00" x1="740.00" id="6463" y2="610.43" /><line x2="680.96" style="fill:blue;stroke:blue;" y1="640.00" x1="740.00" id="6464" y2="681.91" /><line x2="820.00" style="fill:blue;stroke:blue;" y1="640.00" x1="740.00" id="6465" y2="620.00" /><line x2="810.00" style="fill:blue;stroke:blue;" y1="640.00" x1="740.00" id="6466" y2="700.00" /><line x2="730.00" style="fill:blue;stroke:blue;" y1="250.00" x1="780.00" id="6467" y2="200.00" /><line x2="880.00" style="fill:blue;stroke:blue;" y1="250.00" x1="780.00" id="6468" y2="300.00" /><line x2="880.00" style="fill:blue;stroke:blue;" y1="80.00" x1="810.00" id="6469" y2="130.00" /><line x2="730.00" style="fill:blue;stroke:blue;" y1="80.00" x1="810.00" id="6470" y2="80.00" /><line x2="930.00" style="fill:blue;stroke:blue;" y1="80.00" x1="810.00" id="6471" y2="80.00" /><line x2="740.00" style="fill:blue;stroke:blue;" y1="620.00" x1="820.00" id="6472" y2="640.00" /><line x2="870.00" style="fill:blue;stroke:blue;" y1="620.00" x1="820.00" id="6473" y2="600.00" /><line x2="880.00" style="fill:blue;stroke:blue;" y1="130.00" x1="830.00" id="6474" y2="130.00" /><line x2="760.00" style="fill:blue;stroke:blue;" y1="130.00" x1="830.00" id="6475" y2="150.00" /><line x2="870.00" style="fill:blue;stroke:blue;" y1="540.00" x1="850.00" id="6476" y2="600.00" /><line x2="820.00" style="fill:blue;stroke:blue;" y1="600.00" x1="870.00" id="6477" y2="620.00" /><line x2="940.00" style="fill:blue;stroke:blue;" y1="600.00" x1="870.00" id="6478" y2="580.00" /><line x2="850.00" style="fill:blue;stroke:blue;" y1="600.00" x1="870.00" id="6479" y2="540.00" /><line x2="780.00" style="fill:blue;stroke:blue;" y1="300.00" x1="880.00" id="6480" y2="250.00" /><line x2="930.00" style="fill:blue;stroke:blue;" y1="300.00" x1="880.00" id="6481" y2="330.00" /><line x2="910.00" style="fill:blue;stroke:blue;" y1="130.00" x1="880.00" id="6482" y2="200.00" /><line x2="980.00" style="fill:blue;stroke:blue;" y1="130.00" x1="880.00" id="6483" y2="180.00" /><line x2="830.00" style="fill:blue;stroke:blue;" y1="130.00" x1="880.00" id="6484" y2="130.00" /><line x2="810.00" style="fill:blue;stroke:blue;" y1="130.00" x1="880.00" id="6485" y2="80.00" /><line x2="910.00" style="fill:blue;stroke:blue;" y1="250.00" x1="880.00" id="6486" y2="200.00" /><line x2="710.00" style="fill:blue;stroke:blue;" y1="250.00" x1="880.00" id="6487" y2="350.00" /><line x2="880.00" style="fill:blue;stroke:blue;" y1="200.00" x1="910.00" id="6488" y2="130.00" /><line x2="980.00" style="fill:blue;stroke:blue;" y1="200.00" x1="910.00" id="6489" y2="180.00" /><line x2="880.00" style="fill:blue;stroke:blue;" y1="200.00" x1="910.00" id="6490" y2="250.00" /><line x2="880.00" style="fill:blue;stroke:blue;" y1="330.00" x1="930.00" id="6491" y2="300.00" /><line x2="970.00" style="fill:blue;stroke:blue;" y1="330.00" x1="930.00" id="6492" y2="400.00" /><line x2="970.00" style="fill:blue;stroke:blue;" y1="580.00" x1="940.00" id="6493" y2="540.00" /><line x2="870.00" style="fill:blue;stroke:blue;" y1="580.00" x1="940.00" id="6494" y2="600.00" /><line x2="1000.00" style="fill:blue;stroke:blue;" y1="540.00" x1="970.00" id="6495" y2="500.00" /><line x2="940.00" style="fill:blue;stroke:blue;" y1="540.00" x1="970.00" id="6496" y2="580.00" /><line x2="1000.00" style="fill:blue;stroke:blue;" y1="400.00" x1="970.00" id="6497" y2="450.00" /><line x2="930.00" style="fill:blue;stroke:blue;" y1="400.00" x1="970.00" id="6498" y2="330.00" /><line x2="900.00" style="fill:blue;stroke:blue;" y1="400.00" x1="970.00" id="6499" y2="420.00" /><line x2="910.00" style="fill:blue;stroke:blue;" y1="180.00" x1="980.00" id="6500" y2="200.00" /><line x2="880.00" style="fill:blue;stroke:blue;" y1="180.00" x1="980.00" id="6501" y2="130.00" /><line x2="1000.00" style="fill:blue;stroke:blue;" y1="500.00" x1="1000.00" id="6502" y2="450.00" /><line x2="970.00" style="fill:blue;stroke:blue;" y1="500.00" x1="1000.00" id="6503" y2="540.00" /><line x2="1000.00" style="fill:blue;stroke:blue;" y1="450.00" x1="1000.00" id="6504" y2="500.00" /><line x2="970.00" style="fill:blue;stroke:blue;" y1="450.00" x1="1000.00" id="6505" y2="400.00" /><line x2="100.00" style="fill:blue;stroke:blue;" y1="750.00" x1="30.00" id="6506" y2="750.00" /><line x2="60.00" style="fill:blue;stroke:blue;" y1="150.00" x1="60.00" id="6507" y2="100.00" /><line x2="270.00" style="fill:blue;stroke:blue;" y1="321.91" x1="300.96" id="6508" y2="360.00" /><line x2="430.00" style="fill:blue;stroke:blue;" y1="30.00" x1="430.00" id="6509" y2="80.00" /><line x2="490.00" style="fill:blue;stroke:blue;" y1="730.00" x1="420.00" id="6510" y2="700.00" /><line x2="580.00" style="fill:blue;stroke:blue;" y1="180.00" x1="660.00" id="6511" y2="160.00" /><line x2="760.00" style="fill:blue;stroke:blue;" y1="180.00" x1="660.00" id="6512" y2="150.00" /><line x2="730.00" style="fill:blue;stroke:blue;" y1="180.00" x1="660.00" id="6513" y2="200.00" /><line x2="660.00" style="fill:blue;stroke:blue;" y1="200.00" x1="730.00" id="6514" y2="180.00" /><line x2="780.00" style="fill:blue;stroke:blue;" y1="200.00" x1="730.00" id="6515" y2="250.00" /><line x2="830.00" style="fill:blue;stroke:blue;" y1="150.00" x1="760.00" id="6516" y2="130.00" /><line x2="660.00" style="fill:blue;stroke:blue;" y1="150.00" x1="760.00" id="6517" y2="180.00" /><line x2="740.00" style="fill:blue;stroke:blue;" y1="700.00" x1="810.00" id="6518" y2="640.00" /><line x2="970.00" style="fill:blue;stroke:blue;" y1="420.00" x1="900.00" id="6519" y2="400.00" /><line x2="810.00" style="fill:blue;stroke:blue;" y1="80.00" x1="930.00" id="6520" y2="80.00" /></svg>
