<?xml version="1.0" standalone="yes"?><!DOCTYPE svg PUBLIC "-//W3C//DTD SVG 1.1//EN" "http://www.w3.org/Graphics/SVG/1.1/DTD/svg11.dtd"[]><svg height="800.00" id="4165" width="1050.00" xmlns="http://www.w3.org/2000/svg" xmlns:xlink="http://www.w3.org/1999/xlink"><rect Type="system" Region="德克廉" height="5.00" y="100.00" Name="RG9-7U" width="5.00" x="50.00" id="4166" ID="30002954" /><text x="50.00" y="100.00" id="4167">RG9-7U</text><rect Type="system" Region="德克廉" height="5.00" y="180.00" Name="UEJX-G" width="5.00" x="50.00" id="4169" ID="30002956" /><text x="50.00" y="180.00" id="4170">UEJX-G</text><rect Type="system" Region="德克廉" height="5.00" y="600.00" Name="3JN9-Q" width="5.00" x="80.00" id="4172" ID="30002937" /><text x="80.00" y="600.00" id="4173">3JN9-Q</text><rect Type="system" Region="德克廉" height="5.00" y="550.00" Name="O-2RNZ" width="5.00" x="100.00" id="4175" ID="30002935" /><text x="100.00" y="550.00" id="4176">O-2RNZ</text><rect Type="system" Region="德克廉" height="5.00" y="75.50" Name="UJY-HE" width="5.00" x="120.00" id="4178" ID="30002955" /><text x="120.00" y="75.50" id="4179">UJY-HE</text><rect Type="system" Region="德克廉" height="5.00" y="124.50" Name="CZDJ-1" width="5.00" x="120.00" id="4181" ID="30002953" /><text x="120.00" y="124.50" id="4182">CZDJ-1</text><rect Type="system" Region="德克廉" height="5.00" y="175.50" Name="A4L-A2" width="5.00" x="120.00" id="4184" ID="30002952" /><text x="120.00" y="175.50" id="4185">A4L-A2</text><rect Type="system" Region="德克廉" height="5.00" y="224.50" Name="U-TJ7Y" width="5.00" x="120.00" id="4187" ID="30002951" /><text x="120.00" y="224.50" id="4188">U-TJ7Y</text><rect Type="system" Region="德克廉" height="5.00" y="300.00" Name="X3-PBC" width="5.00" x="120.00" id="4190" ID="30002943" /><text x="120.00" y="300.00" id="4191">X3-PBC</text><rect Type="system" Region="德克廉" height="5.00" y="520.00" Name="AGG-NR" width="5.00" x="150.00" id="4193" ID="30002933" /><text x="150.00" y="520.00" id="4194">AGG-NR</text><rect Type="system" Region="德克廉" height="5.00" y="450.00" Name="0V0R-R" width="5.00" x="180.00" id="4196" ID="30002934" /><text x="180.00" y="450.00" id="4197">0V0R-R</text><rect Type="system" Region="德克廉" height="5.00" y="300.00" Name="J1AU-9" width="5.00" x="190.00" id="4199" ID="30002942" /><text x="190.00" y="300.00" id="4200">J1AU-9</text><rect Type="system" Region="德克廉" height="5.00" y="500.00" Name="LEK-N5" width="5.00" x="250.00" id="4202" ID="30002932" /><text x="250.00" y="500.00" id="4203">LEK-N5</text><rect Type="system" Region="德克廉" height="5.00" y="130.00" Name="GY5-26" width="5.00" x="240.00" id="4205" ID="30002947" /><text x="240.00" y="130.00" id="4206">GY5-26</text><rect Type="system" Region="德克廉" height="5.00" y="420.00" Name="OWXT-5" width="5.00" x="260.00" id="4208" ID="30002936" /><text x="260.00" y="420.00" id="4209">OWXT-5</text><rect Type="system" Region="德克廉" height="5.00" y="580.00" Name="E3UY-6" width="5.00" x="250.00" id="4211" ID="30002931" /><text x="250.00" y="580.00" id="4212">E3UY-6</text><rect Type="system" Region="德克廉" height="5.00" y="300.00" Name="MZ1E-P" width="5.00" x="250.00" id="4214" ID="30002940" /><text x="250.00" y="300.00" id="4215">MZ1E-P</text><rect Type="system" Region="德克廉" height="5.00" y="200.00" Name="VPLL-N" width="5.00" x="280.00" id="4217" ID="30002948" /><text x="280.00" y="200.00" id="4218">VPLL-N</text><rect Type="system" Region="德克廉" height="5.00" y="250.00" Name="N2IS-B" width="5.00" x="280.00" id="4220" ID="30002945" /><text x="280.00" y="250.00" id="4221">N2IS-B</text><rect Type="system" Region="德克廉" height="5.00" y="80.00" Name="XCBK-X" width="5.00" x="310.00" id="4223" ID="30002946" /><text x="310.00" y="80.00" id="4224">XCBK-X</text><rect Type="system" Region="德克廉" height="5.00" y="300.00" Name="3T7-M8" width="5.00" x="320.00" id="4226" ID="30002938" /><text x="320.00" y="300.00" id="4227">3T7-M8</text><rect Type="system" Region="德克廉" height="5.00" y="540.00" Name="LT-DRO" width="5.00" x="340.00" id="4229" ID="30002928" /><text x="340.00" y="540.00" id="4230">LT-DRO</text><rect Type="system" Region="德克廉" height="5.00" y="480.00" Name="5W3-DG" width="5.00" x="350.00" id="4232" ID="30002927" /><text x="350.00" y="480.00" id="4233">5W3-DG</text><rect Type="system" Region="德克廉" height="5.00" y="630.00" Name="8S28-3" width="5.00" x="340.00" id="4235" ID="30002930" /><text x="340.00" y="630.00" id="4236">8S28-3</text><rect Type="system" Region="德克廉" height="5.00" y="200.00" Name="4N-BUI" width="5.00" x="350.00" id="4238" ID="30002944" /><text x="350.00" y="200.00" id="4239">4N-BUI</text><rect Type="system" Region="德克廉" height="5.00" y="250.00" Name="WUZ-WM" width="5.00" x="350.00" id="4241" ID="30002939" /><text x="350.00" y="250.00" id="4242">WUZ-WM</text><rect Type="system" Region="德克廉" height="5.00" y="400.00" Name="RO0-AF" width="5.00" x="400.00" id="4244" ID="30002926" /><text x="400.00" y="400.00" id="4245">RO0-AF</text><rect Type="system" Region="德克廉" height="5.00" y="500.00" Name="7T6P-C" width="5.00" x="400.00" id="4247" ID="30002929" /><text x="400.00" y="500.00" id="4248">7T6P-C</text><rect Type="system" Region="德克廉" height="5.00" y="130.00" Name="9CK-KZ" width="5.00" x="390.00" id="4250" ID="30002949" /><text x="390.00" y="130.00" id="4251">9CK-KZ</text><rect Type="system" Region="德克廉" height="5.00" y="350.00" Name="ZOYW-O" width="5.00" x="450.00" id="4253" ID="30002923" /><text x="450.00" y="350.00" id="4254">ZOYW-O</text><rect Type="system" Region="德克廉" height="5.00" y="130.00" Name="5S-KXA" width="5.00" x="500.00" id="4256" ID="30002950" /><text x="500.00" y="130.00" id="4257">5S-KXA</text><rect Type="system" Region="德克廉" height="5.00" y="200.00" Name="43B-O1" width="5.00" x="450.00" id="4259" ID="30002941" /><text x="450.00" y="200.00" id="4260">43B-O1</text><rect Type="system" Region="斐德" height="5.00" y="675.50" Name="K4YZ-Y" width="5.00" x="450.00" id="4262" ID="30003687" /><text x="450.00" y="675.50" id="4263">K4YZ-Y</text><rect Type="system" Region="斐德" height="5.00" y="724.50" Name="L-C3O7" width="5.00" x="450.00" id="4265" ID="30003689" /><text x="450.00" y="724.50" id="4266">L-C3O7</text><rect Type="system" Region="德克廉" height="5.00" y="530.00" Name="R8S-1K" width="5.00" x="480.00" id="4268" ID="30002894" /><text x="480.00" y="530.00" id="4269">R8S-1K</text><rect Type="system" Region="德克廉" height="5.00" y="220.00" Name="YZ-UKA" width="5.00" x="500.00" id="4271" ID="30002925" /><text x="500.00" y="220.00" id="4272">YZ-UKA</text><rect Type="system" Region="德克廉" height="5.00" y="250.00" Name="E-FIC0" width="5.00" x="550.00" id="4274" ID="30002922" /><text x="550.00" y="250.00" id="4275">E-FIC0</text><rect Type="system" Region="德克廉" height="5.00" y="580.00" Name="T-945F" width="5.00" x="530.00" id="4277" ID="30002890" /><text x="530.00" y="580.00" id="4278">T-945F</text><rect Type="system" Region="德克廉" height="5.00" y="500.00" Name="FO8M-2" width="5.00" x="530.00" id="4280" ID="30002891" /><text x="530.00" y="500.00" id="4281">FO8M-2</text><rect Type="system" Region="德克廉" height="5.00" y="450.00" Name="QPO-WI" width="5.00" x="550.00" id="4283" ID="30002893" /><text x="550.00" y="450.00" id="4284">QPO-WI</text><rect Type="system" Region="德克廉" height="5.00" y="300.00" Name="3QE-9Q" width="5.00" x="550.00" id="4286" ID="30002921" /><text x="550.00" y="300.00" id="4287">3QE-9Q</text><rect Type="system" Region="斐德" height="5.00" y="675.50" Name="O1Y-ED" width="5.00" x="550.00" id="4289" ID="30003686" /><text x="550.00" y="675.50" id="4290">O1Y-ED</text><rect Type="system" Region="斐德" height="5.00" y="724.50" Name="X36Y-G" width="5.00" x="550.00" id="4292" ID="30003688" /><text x="550.00" y="724.50" id="4293">X36Y-G</text><rect Type="system" Region="德克廉" height="5.00" y="190.00" Name="85-B52" width="5.00" x="570.00" id="4295" ID="30002924" /><text x="570.00" y="190.00" id="4296">85-B52</text><rect Type="system" Region="德克廉" height="5.00" y="530.00" Name="4U90-Z" width="5.00" x="580.00" id="4298" ID="30002889" /><text x="580.00" y="530.00" id="4299">4U90-Z</text><rect Type="system" Region="德克廉" height="5.00" y="430.00" Name="94-H3F" width="5.00" x="620.00" id="4301" ID="30002895" /><text x="620.00" y="430.00" id="4302">94-H3F</text><rect Type="system" Region="德克廉" height="5.00" y="480.00" Name="AD-CBT" width="5.00" x="600.00" id="4304" ID="30002892" /><text x="600.00" y="480.00" id="4305">AD-CBT</text><rect Type="system" Region="德克廉" height="5.00" y="280.00" Name="MXX5-9" width="5.00" x="650.00" id="4307" ID="30002913" /><text x="650.00" y="280.00" id="4308">MXX5-9</text><rect Type="system" Region="德克廉" height="5.00" y="220.00" Name="ZZZR-5" width="5.00" x="650.00" id="4310" ID="30002914" /><text x="650.00" y="220.00" id="4311">ZZZR-5</text><rect Type="system" Region="德克廉" height="5.00" y="390.00" Name="XCF-8N" width="5.00" x="660.00" id="4313" ID="30002897" /><text x="660.00" y="390.00" id="4314">XCF-8N</text><rect Type="system" Region="德克廉" height="5.00" y="450.00" Name="CU9-T0" width="5.00" x="680.00" id="4316" ID="30002896" /><text x="680.00" y="450.00" id="4317">CU9-T0</text><rect Type="system" Region="德克廉" height="5.00" y="264.50" Name="JU-OWQ" width="5.00" x="730.00" id="4319" ID="30002911" /><text x="730.00" y="264.50" id="4320">JU-OWQ</text><rect Type="system" Region="德克廉" height="5.00" y="215.50" Name="S-DN5M" width="5.00" x="730.00" id="4322" ID="30002912" /><text x="730.00" y="215.50" id="4323">S-DN5M</text><rect Type="system" Region="德克廉" height="5.00" y="400.00" Name="FMB-JP" width="5.00" x="720.00" id="4325" ID="30002898" /><text x="720.00" y="400.00" id="4326">FMB-JP</text><rect Type="system" Region="德克廉" height="5.00" y="360.00" Name="0P-F3K" width="5.00" x="750.00" id="4328" ID="30002899" /><text x="750.00" y="360.00" id="4329">0P-F3K</text><rect Type="system" Region="德克廉" height="5.00" y="310.00" Name="K5F-Z2" width="5.00" x="750.00" id="4331" ID="30002900" /><text x="750.00" y="310.00" id="4332">K5F-Z2</text><rect Type="system" Region="德克廉" height="5.00" y="450.00" Name="TXME-A" width="5.00" x="800.00" id="4334" ID="30002901" /><text x="800.00" y="450.00" id="4335">TXME-A</text><rect Type="system" Region="德克廉" height="5.00" y="280.00" Name="2O9G-D" width="5.00" x="800.00" id="4337" ID="30002909" /><text x="800.00" y="280.00" id="4338">2O9G-D</text><rect Type="system" Region="德克廉" height="5.00" y="230.00" Name="NC-N3F" width="5.00" x="800.00" id="4340" ID="30002910" /><text x="800.00" y="230.00" id="4341">NC-N3F</text><rect Type="system" Region="斐德" height="5.00" y="680.00" Name="P-33KR" width="5.00" x="820.00" id="4343" ID="30003680" /><text x="820.00" y="680.00" id="4344">P-33KR</text><rect Type="system" Region="德克廉" height="5.00" y="320.00" Name="I30-3A" width="5.00" x="890.00" id="4346" ID="30002908" /><text x="890.00" y="320.00" id="4347">I30-3A</text><rect Type="system" Region="斐德" height="5.00" y="680.00" Name="DO6H-Q" width="5.00" x="880.00" id="4349" ID="30003681" /><text x="880.00" y="680.00" id="4350">DO6H-Q</text><rect Type="system" Region="德克廉" height="5.00" y="270.00" Name="33RB-O" width="5.00" x="920.00" id="4352" ID="30002919" /><text x="920.00" y="270.00" id="4353">33RB-O</text><rect Type="system" Region="德克廉" height="5.00" y="460.00" Name="2-KF56" width="5.00" x="930.00" id="4355" ID="30002903" /><text x="930.00" y="460.00" id="4356">2-KF56</text><rect Type="system" Region="德克廉" height="5.00" y="500.00" Name="YA0-XJ" width="5.00" x="900.00" id="4358" ID="30002902" /><text x="900.00" y="500.00" id="4359">YA0-XJ</text><rect Type="system" Region="德克廉" height="5.00" y="150.00" Name="DKUK-G" width="5.00" x="980.00" id="4361" ID="30002920" /><text x="980.00" y="150.00" id="4362">DKUK-G</text><rect Type="system" Region="德克廉" height="5.00" y="200.00" Name="N-TFXK" width="5.00" x="980.00" id="4364" ID="30002918" /><text x="980.00" y="200.00" id="4365">N-TFXK</text><rect Type="system" Region="德克廉" height="5.00" y="250.00" Name="3OAT-Q" width="5.00" x="980.00" id="4367" ID="30002917" /><text x="980.00" y="250.00" id="4368">3OAT-Q</text><rect Type="system" Region="德克廉" height="5.00" y="300.00" Name="X-Z4DA" width="5.00" x="980.00" id="4370" ID="30002916" /><text x="980.00" y="300.00" id="4371">X-Z4DA</text><rect Type="system" Region="德克廉" height="5.00" y="350.00" Name="C7Y-7Z" width="5.00" x="980.00" id="4373" ID="30002915" /><text x="980.00" y="350.00" id="4374">C7Y-7Z</text><rect Type="system" Region="德克廉" height="5.00" y="400.00" Name="II-5O9" width="5.00" x="980.00" id="4376" ID="30002907" /><text x="980.00" y="400.00" id="4377">II-5O9</text><rect Type="system" Region="德克廉" height="5.00" y="450.00" Name="VFK-IV" width="5.00" x="980.00" id="4379" ID="30002904" /><text x="980.00" y="450.00" id="4380">VFK-IV</text><rect Type="system" Region="德克廉" height="5.00" y="500.00" Name="2R-CRW" width="5.00" x="980.00" id="4382" ID="30002905" /><text x="980.00" y="500.00" id="4383">2R-CRW</text><rect Type="system" Region="德克廉" height="5.00" y="550.00" Name="CCP-US" width="5.00" x="980.00" id="4385" ID="30002906" /><text x="980.00" y="550.00" id="4386">CCP-US</text><rect Type="system" Region="血脉" height="5.00" y="20.00" Name="Y-1918" width="5.00" x="120.00" id="4388" ID="30004396" /><text x="120.00" y="20.00" id="4389">Y-1918</text><rect Type="system" Region="斐德" height="5.00" y="750.00" Name="C4C-Z4" width="5.00" x="350.00" id="4391" ID="30003697" /><text x="350.00" y="750.00" id="4392">C4C-Z4</text><rect Type="system" Region="斐德" height="5.00" y="780.00" Name="YKSC-A" width="5.00" x="550.00" id="4394" ID="30003690" /><text x="550.00" y="780.00" id="4395">YKSC-A</text><rect Type="system" Region="斐德" height="5.00" y="620.00" Name="L-SCBU" width="5.00" x="620.00" id="4397" ID="30003684" /><text x="620.00" y="620.00" id="4398">L-SCBU</text><rect Type="system" Region="维纳尔" height="5.00" y="550.00" Name="9-R6GU" width="5.00" x="630.00" id="4400" ID="30001266" /><text x="630.00" y="550.00" id="4401">9-R6GU</text><rect Type="system" Region="斐德" height="5.00" y="675.50" Name="O-CNPR" width="5.00" x="680.00" id="4403" ID="30003683" /><text x="680.00" y="675.50" id="4404">O-CNPR</text><rect Type="system" Region="斐德" height="5.00" y="724.50" Name="VRH-H7" width="5.00" x="680.00" id="4406" ID="30003685" /><text x="680.00" y="724.50" id="4407">VRH-H7</text><rect Type="system" Region="斐德" height="5.00" y="680.00" Name="DW-T2I" width="5.00" x="750.00" id="4409" ID="30003682" /><text x="750.00" y="680.00" id="4410">DW-T2I</text><rect Type="system" Region="斐德" height="5.00" y="620.00" Name="CR-IFM" width="5.00" x="820.00" id="4412" ID="30003678" /><text x="820.00" y="620.00" id="4413">CR-IFM</text><rect Type="system" Region="斐德" height="5.00" y="620.00" Name="HHK-VL" width="5.00" x="880.00" id="4415" ID="30003679" /><text x="880.00" y="620.00" id="4416">HHK-VL</text><rect Type="system" Region="黑渊" height="5.00" y="720.00" Name="U-INPD" width="5.00" x="910.00" id="4418" ID="30001997" /><text x="910.00" y="720.00" id="4419">U-INPD</text><rect Type="system" Region="维纳尔" height="5.00" y="50.00" Name="WLF-D3" width="5.00" x="980.00" id="4421" ID="30001336" /><text x="980.00" y="50.00" id="4422">WLF-D3</text><line x2="120.00" style="fill:blue;stroke:blue;" y1="100.00" x1="50.00" id="4424" y2="124.50" /><line x2="120.00" style="fill:blue;stroke:blue;" y1="100.00" x1="50.00" id="4425" y2="75.50" /><line x2="120.00" style="fill:blue;stroke:blue;" y1="180.00" x1="50.00" id="4426" y2="175.50" /><line x2="100.00" style="fill:blue;stroke:blue;" y1="600.00" x1="80.00" id="4427" y2="550.00" /><line x2="150.00" style="fill:blue;stroke:blue;" y1="550.00" x1="100.00" id="4428" y2="520.00" /><line x2="80.00" style="fill:blue;stroke:blue;" y1="550.00" x1="100.00" id="4429" y2="600.00" /><line x2="120.00" style="fill:blue;stroke:blue;" y1="75.50" x1="120.00" id="4430" y2="124.50" /><line x2="50.00" style="fill:blue;stroke:blue;" y1="75.50" x1="120.00" id="4431" y2="100.00" /><line x2="120.00" style="fill:blue;stroke:blue;" y1="75.50" x1="120.00" id="4432" y2="20.00" /><line x2="120.00" style="fill:blue;stroke:blue;" y1="124.50" x1="120.00" id="4433" y2="175.50" /><line x2="50.00" style="fill:blue;stroke:blue;" y1="124.50" x1="120.00" id="4434" y2="100.00" /><line x2="120.00" style="fill:blue;stroke:blue;" y1="124.50" x1="120.00" id="4435" y2="75.50" /><line x2="120.00" style="fill:blue;stroke:blue;" y1="175.50" x1="120.00" id="4436" y2="224.50" /><line x2="120.00" style="fill:blue;stroke:blue;" y1="175.50" x1="120.00" id="4437" y2="124.50" /><line x2="50.00" style="fill:blue;stroke:blue;" y1="175.50" x1="120.00" id="4438" y2="180.00" /><line x2="120.00" style="fill:blue;stroke:blue;" y1="224.50" x1="120.00" id="4439" y2="300.00" /><line x2="120.00" style="fill:blue;stroke:blue;" y1="224.50" x1="120.00" id="4440" y2="175.50" /><line x2="190.00" style="fill:blue;stroke:blue;" y1="300.00" x1="120.00" id="4441" y2="300.00" /><line x2="120.00" style="fill:blue;stroke:blue;" y1="300.00" x1="120.00" id="4442" y2="224.50" /><line x2="250.00" style="fill:blue;stroke:blue;" y1="520.00" x1="150.00" id="4443" y2="500.00" /><line x2="100.00" style="fill:blue;stroke:blue;" y1="520.00" x1="150.00" id="4444" y2="550.00" /><line x2="250.00" style="fill:blue;stroke:blue;" y1="450.00" x1="180.00" id="4445" y2="500.00" /><line x2="260.00" style="fill:blue;stroke:blue;" y1="450.00" x1="180.00" id="4446" y2="420.00" /><line x2="250.00" style="fill:blue;stroke:blue;" y1="300.00" x1="190.00" id="4447" y2="300.00" /><line x2="120.00" style="fill:blue;stroke:blue;" y1="300.00" x1="190.00" id="4448" y2="300.00" /><line x2="250.00" style="fill:blue;stroke:blue;" y1="500.00" x1="250.00" id="4449" y2="580.00" /><line x2="150.00" style="fill:blue;stroke:blue;" y1="500.00" x1="250.00" id="4450" y2="520.00" /><line x2="180.00" style="fill:blue;stroke:blue;" y1="500.00" x1="250.00" id="4451" y2="450.00" /><line x2="260.00" style="fill:blue;stroke:blue;" y1="500.00" x1="250.00" id="4452" y2="420.00" /><line x2="350.00" style="fill:blue;stroke:blue;" y1="130.00" x1="240.00" id="4453" y2="200.00" /><line x2="310.00" style="fill:blue;stroke:blue;" y1="130.00" x1="240.00" id="4454" y2="80.00" /><line x2="280.00" style="fill:blue;stroke:blue;" y1="130.00" x1="240.00" id="4455" y2="200.00" /><line x2="390.00" style="fill:blue;stroke:blue;" y1="130.00" x1="240.00" id="4456" y2="130.00" /><line x2="250.00" style="fill:blue;stroke:blue;" y1="420.00" x1="260.00" id="4457" y2="500.00" /><line x2="180.00" style="fill:blue;stroke:blue;" y1="420.00" x1="260.00" id="4458" y2="450.00" /><line x2="320.00" style="fill:blue;stroke:blue;" y1="420.00" x1="260.00" id="4459" y2="300.00" /><line x2="340.00" style="fill:blue;stroke:blue;" y1="580.00" x1="250.00" id="4460" y2="630.00" /><line x2="250.00" style="fill:blue;stroke:blue;" y1="580.00" x1="250.00" id="4461" y2="500.00" /><line x2="320.00" style="fill:blue;stroke:blue;" y1="300.00" x1="250.00" id="4462" y2="300.00" /><line x2="190.00" style="fill:blue;stroke:blue;" y1="300.00" x1="250.00" id="4463" y2="300.00" /><line x2="350.00" style="fill:blue;stroke:blue;" y1="200.00" x1="280.00" id="4464" y2="200.00" /><line x2="280.00" style="fill:blue;stroke:blue;" y1="200.00" x1="280.00" id="4465" y2="250.00" /><line x2="310.00" style="fill:blue;stroke:blue;" y1="200.00" x1="280.00" id="4466" y2="80.00" /><line x2="240.00" style="fill:blue;stroke:blue;" y1="200.00" x1="280.00" id="4467" y2="130.00" /><line x2="390.00" style="fill:blue;stroke:blue;" y1="200.00" x1="280.00" id="4468" y2="130.00" /><line x2="320.00" style="fill:blue;stroke:blue;" y1="250.00" x1="280.00" id="4469" y2="300.00" /><line x2="280.00" style="fill:blue;stroke:blue;" y1="250.00" x1="280.00" id="4470" y2="200.00" /><line x2="350.00" style="fill:blue;stroke:blue;" y1="80.00" x1="310.00" id="4471" y2="200.00" /><line x2="240.00" style="fill:blue;stroke:blue;" y1="80.00" x1="310.00" id="4472" y2="130.00" /><line x2="280.00" style="fill:blue;stroke:blue;" y1="80.00" x1="310.00" id="4473" y2="200.00" /><line x2="390.00" style="fill:blue;stroke:blue;" y1="80.00" x1="310.00" id="4474" y2="130.00" /><line x2="260.00" style="fill:blue;stroke:blue;" y1="300.00" x1="320.00" id="4475" y2="420.00" /><line x2="350.00" style="fill:blue;stroke:blue;" y1="300.00" x1="320.00" id="4476" y2="250.00" /><line x2="250.00" style="fill:blue;stroke:blue;" y1="300.00" x1="320.00" id="4477" y2="300.00" /><line x2="280.00" style="fill:blue;stroke:blue;" y1="300.00" x1="320.00" id="4478" y2="250.00" /><line x2="350.00" style="fill:blue;stroke:blue;" y1="540.00" x1="340.00" id="4479" y2="480.00" /><line x2="340.00" style="fill:blue;stroke:blue;" y1="540.00" x1="340.00" id="4480" y2="630.00" /><line x2="400.00" style="fill:blue;stroke:blue;" y1="480.00" x1="350.00" id="4481" y2="400.00" /><line x2="340.00" style="fill:blue;stroke:blue;" y1="480.00" x1="350.00" id="4482" y2="540.00" /><line x2="400.00" style="fill:blue;stroke:blue;" y1="480.00" x1="350.00" id="4483" y2="500.00" /><line x2="340.00" style="fill:blue;stroke:blue;" y1="630.00" x1="340.00" id="4484" y2="540.00" /><line x2="250.00" style="fill:blue;stroke:blue;" y1="630.00" x1="340.00" id="4485" y2="580.00" /><line x2="450.00" style="fill:blue;stroke:blue;" y1="630.00" x1="340.00" id="4486" y2="675.50" /><line x2="350.00" style="fill:blue;stroke:blue;" y1="200.00" x1="350.00" id="4487" y2="250.00" /><line x2="310.00" style="fill:blue;stroke:blue;" y1="200.00" x1="350.00" id="4488" y2="80.00" /><line x2="240.00" style="fill:blue;stroke:blue;" y1="200.00" x1="350.00" id="4489" y2="130.00" /><line x2="280.00" style="fill:blue;stroke:blue;" y1="200.00" x1="350.00" id="4490" y2="200.00" /><line x2="390.00" style="fill:blue;stroke:blue;" y1="200.00" x1="350.00" id="4491" y2="130.00" /><line x2="320.00" style="fill:blue;stroke:blue;" y1="250.00" x1="350.00" id="4492" y2="300.00" /><line x2="450.00" style="fill:blue;stroke:blue;" y1="250.00" x1="350.00" id="4493" y2="200.00" /><line x2="350.00" style="fill:blue;stroke:blue;" y1="250.00" x1="350.00" id="4494" y2="200.00" /><line x2="450.00" style="fill:blue;stroke:blue;" y1="400.00" x1="400.00" id="4495" y2="350.00" /><line x2="350.00" style="fill:blue;stroke:blue;" y1="400.00" x1="400.00" id="4496" y2="480.00" /><line x2="350.00" style="fill:blue;stroke:blue;" y1="500.00" x1="400.00" id="4497" y2="480.00" /><line x2="350.00" style="fill:blue;stroke:blue;" y1="130.00" x1="390.00" id="4498" y2="200.00" /><line x2="310.00" style="fill:blue;stroke:blue;" y1="130.00" x1="390.00" id="4499" y2="80.00" /><line x2="240.00" style="fill:blue;stroke:blue;" y1="130.00" x1="390.00" id="4500" y2="130.00" /><line x2="280.00" style="fill:blue;stroke:blue;" y1="130.00" x1="390.00" id="4501" y2="200.00" /><line x2="550.00" style="fill:blue;stroke:blue;" y1="350.00" x1="450.00" id="4502" y2="300.00" /><line x2="400.00" style="fill:blue;stroke:blue;" y1="350.00" x1="450.00" id="4503" y2="400.00" /><line x2="450.00" style="fill:blue;stroke:blue;" y1="130.00" x1="500.00" id="4504" y2="200.00" /><line x2="350.00" style="fill:blue;stroke:blue;" y1="200.00" x1="450.00" id="4505" y2="250.00" /><line x2="500.00" style="fill:blue;stroke:blue;" y1="200.00" x1="450.00" id="4506" y2="130.00" /><line x2="340.00" style="fill:blue;stroke:blue;" y1="675.50" x1="450.00" id="4507" y2="630.00" /><line x2="550.00" style="fill:blue;stroke:blue;" y1="675.50" x1="450.00" id="4508" y2="675.50" /><line x2="450.00" style="fill:blue;stroke:blue;" y1="675.50" x1="450.00" id="4509" y2="724.50" /><line x2="550.00" style="fill:blue;stroke:blue;" y1="724.50" x1="450.00" id="4510" y2="675.50" /><line x2="450.00" style="fill:blue;stroke:blue;" y1="724.50" x1="450.00" id="4511" y2="675.50" /><line x2="550.00" style="fill:blue;stroke:blue;" y1="724.50" x1="450.00" id="4512" y2="724.50" /><line x2="350.00" style="fill:blue;stroke:blue;" y1="724.50" x1="450.00" id="4513" y2="750.00" /><line x2="530.00" style="fill:blue;stroke:blue;" y1="530.00" x1="480.00" id="4514" y2="580.00" /><line x2="530.00" style="fill:blue;stroke:blue;" y1="530.00" x1="480.00" id="4515" y2="500.00" /><line x2="550.00" style="fill:blue;stroke:blue;" y1="220.00" x1="500.00" id="4516" y2="250.00" /><line x2="570.00" style="fill:blue;stroke:blue;" y1="220.00" x1="500.00" id="4517" y2="190.00" /><line x2="550.00" style="fill:blue;stroke:blue;" y1="250.00" x1="550.00" id="4518" y2="300.00" /><line x2="570.00" style="fill:blue;stroke:blue;" y1="250.00" x1="550.00" id="4519" y2="190.00" /><line x2="500.00" style="fill:blue;stroke:blue;" y1="250.00" x1="550.00" id="4520" y2="220.00" /><line x2="580.00" style="fill:blue;stroke:blue;" y1="580.00" x1="530.00" id="4521" y2="530.00" /><line x2="530.00" style="fill:blue;stroke:blue;" y1="580.00" x1="530.00" id="4522" y2="500.00" /><line x2="480.00" style="fill:blue;stroke:blue;" y1="580.00" x1="530.00" id="4523" y2="530.00" /><line x2="580.00" style="fill:blue;stroke:blue;" y1="500.00" x1="530.00" id="4524" y2="530.00" /><line x2="530.00" style="fill:blue;stroke:blue;" y1="500.00" x1="530.00" id="4525" y2="580.00" /><line x2="550.00" style="fill:blue;stroke:blue;" y1="500.00" x1="530.00" id="4526" y2="450.00" /><line x2="480.00" style="fill:blue;stroke:blue;" y1="500.00" x1="530.00" id="4527" y2="530.00" /><line x2="530.00" style="fill:blue;stroke:blue;" y1="450.00" x1="550.00" id="4528" y2="500.00" /><line x2="620.00" style="fill:blue;stroke:blue;" y1="450.00" x1="550.00" id="4529" y2="430.00" /><line x2="650.00" style="fill:blue;stroke:blue;" y1="300.00" x1="550.00" id="4530" y2="280.00" /><line x2="550.00" style="fill:blue;stroke:blue;" y1="300.00" x1="550.00" id="4531" y2="250.00" /><line x2="450.00" style="fill:blue;stroke:blue;" y1="300.00" x1="550.00" id="4532" y2="350.00" /><line x2="680.00" style="fill:blue;stroke:blue;" y1="675.50" x1="550.00" id="4533" y2="675.50" /><line x2="620.00" style="fill:blue;stroke:blue;" y1="675.50" x1="550.00" id="4534" y2="620.00" /><line x2="450.00" style="fill:blue;stroke:blue;" y1="675.50" x1="550.00" id="4535" y2="675.50" /><line x2="450.00" style="fill:blue;stroke:blue;" y1="675.50" x1="550.00" id="4536" y2="724.50" /><line x2="680.00" style="fill:blue;stroke:blue;" y1="724.50" x1="550.00" id="4537" y2="724.50" /><line x2="450.00" style="fill:blue;stroke:blue;" y1="724.50" x1="550.00" id="4538" y2="724.50" /><line x2="550.00" style="fill:blue;stroke:blue;" y1="724.50" x1="550.00" id="4539" y2="780.00" /><line x2="550.00" style="fill:blue;stroke:blue;" y1="190.00" x1="570.00" id="4540" y2="250.00" /><line x2="500.00" style="fill:blue;stroke:blue;" y1="190.00" x1="570.00" id="4541" y2="220.00" /><line x2="630.00" style="fill:blue;stroke:blue;" y1="530.00" x1="580.00" id="4542" y2="550.00" /><line x2="530.00" style="fill:blue;stroke:blue;" y1="530.00" x1="580.00" id="4543" y2="580.00" /><line x2="530.00" style="fill:blue;stroke:blue;" y1="530.00" x1="580.00" id="4544" y2="500.00" /><line x2="600.00" style="fill:blue;stroke:blue;" y1="530.00" x1="580.00" id="4545" y2="480.00" /><line x2="550.00" style="fill:blue;stroke:blue;" y1="430.00" x1="620.00" id="4546" y2="450.00" /><line x2="680.00" style="fill:blue;stroke:blue;" y1="430.00" x1="620.00" id="4547" y2="450.00" /><line x2="660.00" style="fill:blue;stroke:blue;" y1="430.00" x1="620.00" id="4548" y2="390.00" /><line x2="580.00" style="fill:blue;stroke:blue;" y1="480.00" x1="600.00" id="4549" y2="530.00" /><line x2="730.00" style="fill:blue;stroke:blue;" y1="280.00" x1="650.00" id="4550" y2="264.50" /><line x2="650.00" style="fill:blue;stroke:blue;" y1="280.00" x1="650.00" id="4551" y2="220.00" /><line x2="550.00" style="fill:blue;stroke:blue;" y1="280.00" x1="650.00" id="4552" y2="300.00" /><line x2="650.00" style="fill:blue;stroke:blue;" y1="220.00" x1="650.00" id="4553" y2="280.00" /><line x2="620.00" style="fill:blue;stroke:blue;" y1="390.00" x1="660.00" id="4554" y2="430.00" /><line x2="680.00" style="fill:blue;stroke:blue;" y1="390.00" x1="660.00" id="4555" y2="450.00" /><line x2="720.00" style="fill:blue;stroke:blue;" y1="390.00" x1="660.00" id="4556" y2="400.00" /><line x2="620.00" style="fill:blue;stroke:blue;" y1="450.00" x1="680.00" id="4557" y2="430.00" /><line x2="660.00" style="fill:blue;stroke:blue;" y1="450.00" x1="680.00" id="4558" y2="390.00" /><line x2="720.00" style="fill:blue;stroke:blue;" y1="450.00" x1="680.00" id="4559" y2="400.00" /><line x2="800.00" style="fill:blue;stroke:blue;" y1="264.50" x1="730.00" id="4560" y2="280.00" /><line x2="730.00" style="fill:blue;stroke:blue;" y1="264.50" x1="730.00" id="4561" y2="215.50" /><line x2="650.00" style="fill:blue;stroke:blue;" y1="264.50" x1="730.00" id="4562" y2="280.00" /><line x2="730.00" style="fill:blue;stroke:blue;" y1="215.50" x1="730.00" id="4563" y2="264.50" /><line x2="680.00" style="fill:blue;stroke:blue;" y1="400.00" x1="720.00" id="4564" y2="450.00" /><line x2="660.00" style="fill:blue;stroke:blue;" y1="400.00" x1="720.00" id="4565" y2="390.00" /><line x2="750.00" style="fill:blue;stroke:blue;" y1="400.00" x1="720.00" id="4566" y2="360.00" /><line x2="800.00" style="fill:blue;stroke:blue;" y1="400.00" x1="720.00" id="4567" y2="450.00" /><line x2="720.00" style="fill:blue;stroke:blue;" y1="360.00" x1="750.00" id="4568" y2="400.00" /><line x2="750.00" style="fill:blue;stroke:blue;" y1="360.00" x1="750.00" id="4569" y2="310.00" /><line x2="750.00" style="fill:blue;stroke:blue;" y1="310.00" x1="750.00" id="4570" y2="360.00" /><line x2="720.00" style="fill:blue;stroke:blue;" y1="450.00" x1="800.00" id="4571" y2="400.00" /><line x2="900.00" style="fill:blue;stroke:blue;" y1="450.00" x1="800.00" id="4572" y2="500.00" /><line x2="890.00" style="fill:blue;stroke:blue;" y1="280.00" x1="800.00" id="4573" y2="320.00" /><line x2="800.00" style="fill:blue;stroke:blue;" y1="280.00" x1="800.00" id="4574" y2="230.00" /><line x2="730.00" style="fill:blue;stroke:blue;" y1="280.00" x1="800.00" id="4575" y2="264.50" /><line x2="800.00" style="fill:blue;stroke:blue;" y1="230.00" x1="800.00" id="4576" y2="280.00" /><line x2="820.00" style="fill:blue;stroke:blue;" y1="680.00" x1="820.00" id="4577" y2="620.00" /><line x2="880.00" style="fill:blue;stroke:blue;" y1="680.00" x1="820.00" id="4578" y2="680.00" /><line x2="750.00" style="fill:blue;stroke:blue;" y1="680.00" x1="820.00" id="4579" y2="680.00" /><line x2="980.00" style="fill:blue;stroke:blue;" y1="320.00" x1="890.00" id="4580" y2="450.00" /><line x2="800.00" style="fill:blue;stroke:blue;" y1="320.00" x1="890.00" id="4581" y2="280.00" /><line x2="910.00" style="fill:blue;stroke:blue;" y1="680.00" x1="880.00" id="4582" y2="720.00" /><line x2="980.00" style="fill:blue;stroke:blue;" y1="680.00" x1="880.00" id="4583" y2="550.00" /><line x2="880.00" style="fill:blue;stroke:blue;" y1="680.00" x1="880.00" id="4584" y2="620.00" /><line x2="820.00" style="fill:blue;stroke:blue;" y1="680.00" x1="880.00" id="4585" y2="680.00" /><line x2="980.00" style="fill:blue;stroke:blue;" y1="270.00" x1="920.00" id="4586" y2="300.00" /><line x2="980.00" style="fill:blue;stroke:blue;" y1="270.00" x1="920.00" id="4587" y2="250.00" /><line x2="900.00" style="fill:blue;stroke:blue;" y1="460.00" x1="930.00" id="4588" y2="500.00" /><line x2="980.00" style="fill:blue;stroke:blue;" y1="460.00" x1="930.00" id="4589" y2="450.00" /><line x2="980.00" style="fill:blue;stroke:blue;" y1="460.00" x1="930.00" id="4590" y2="500.00" /><line x2="800.00" style="fill:blue;stroke:blue;" y1="500.00" x1="900.00" id="4591" y2="450.00" /><line x2="930.00" style="fill:blue;stroke:blue;" y1="500.00" x1="900.00" id="4592" y2="460.00" /><line x2="980.00" style="fill:blue;stroke:blue;" y1="500.00" x1="900.00" id="4593" y2="500.00" /><line x2="980.00" style="fill:blue;stroke:blue;" y1="150.00" x1="980.00" id="4594" y2="50.00" /><line x2="980.00" style="fill:blue;stroke:blue;" y1="150.00" x1="980.00" id="4595" y2="200.00" /><line x2="980.00" style="fill:blue;stroke:blue;" y1="200.00" x1="980.00" id="4596" y2="250.00" /><line x2="980.00" style="fill:blue;stroke:blue;" y1="200.00" x1="980.00" id="4597" y2="150.00" /><line x2="980.00" style="fill:blue;stroke:blue;" y1="250.00" x1="980.00" id="4598" y2="300.00" /><line x2="980.00" style="fill:blue;stroke:blue;" y1="250.00" x1="980.00" id="4599" y2="200.00" /><line x2="920.00" style="fill:blue;stroke:blue;" y1="250.00" x1="980.00" id="4600" y2="270.00" /><line x2="980.00" style="fill:blue;stroke:blue;" y1="300.00" x1="980.00" id="4601" y2="350.00" /><line x2="980.00" style="fill:blue;stroke:blue;" y1="300.00" x1="980.00" id="4602" y2="250.00" /><line x2="920.00" style="fill:blue;stroke:blue;" y1="300.00" x1="980.00" id="4603" y2="270.00" /><line x2="980.00" style="fill:blue;stroke:blue;" y1="350.00" x1="980.00" id="4604" y2="400.00" /><line x2="980.00" style="fill:blue;stroke:blue;" y1="350.00" x1="980.00" id="4605" y2="300.00" /><line x2="980.00" style="fill:blue;stroke:blue;" y1="400.00" x1="980.00" id="4606" y2="450.00" /><line x2="980.00" style="fill:blue;stroke:blue;" y1="400.00" x1="980.00" id="4607" y2="350.00" /><line x2="930.00" style="fill:blue;stroke:blue;" y1="450.00" x1="980.00" id="4608" y2="460.00" /><line x2="980.00" style="fill:blue;stroke:blue;" y1="450.00" x1="980.00" id="4609" y2="500.00" /><line x2="980.00" style="fill:blue;stroke:blue;" y1="450.00" x1="980.00" id="4610" y2="400.00" /><line x2="890.00" style="fill:blue;stroke:blue;" y1="450.00" x1="980.00" id="4611" y2="320.00" /><line x2="900.00" style="fill:blue;stroke:blue;" y1="500.00" x1="980.00" id="4612" y2="500.00" /><line x2="930.00" style="fill:blue;stroke:blue;" y1="500.00" x1="980.00" id="4613" y2="460.00" /><line x2="980.00" style="fill:blue;stroke:blue;" y1="500.00" x1="980.00" id="4614" y2="450.00" /><line x2="980.00" style="fill:blue;stroke:blue;" y1="500.00" x1="980.00" id="4615" y2="550.00" /><line x2="980.00" style="fill:blue;stroke:blue;" y1="550.00" x1="980.00" id="4616" y2="500.00" /><line x2="880.00" style="fill:blue;stroke:blue;" y1="550.00" x1="980.00" id="4617" y2="680.00" /><line x2="120.00" style="fill:blue;stroke:blue;" y1="20.00" x1="120.00" id="4618" y2="75.50" /><line x2="450.00" style="fill:blue;stroke:blue;" y1="750.00" x1="350.00" id="4619" y2="724.50" /><line x2="550.00" style="fill:blue;stroke:blue;" y1="780.00" x1="550.00" id="4620" y2="724.50" /><line x2="680.00" style="fill:blue;stroke:blue;" y1="620.00" x1="620.00" id="4621" y2="675.50" /><line x2="550.00" style="fill:blue;stroke:blue;" y1="620.00" x1="620.00" id="4622" y2="675.50" /><line x2="580.00" style="fill:blue;stroke:blue;" y1="550.00" x1="630.00" id="4623" y2="530.00" /><line x2="750.00" style="fill:blue;stroke:blue;" y1="675.50" x1="680.00" id="4624" y2="680.00" /><line x2="620.00" style="fill:blue;stroke:blue;" y1="675.50" x1="680.00" id="4625" y2="620.00" /><line x2="680.00" style="fill:blue;stroke:blue;" y1="675.50" x1="680.00" id="4626" y2="724.50" /><line x2="550.00" style="fill:blue;stroke:blue;" y1="675.50" x1="680.00" id="4627" y2="675.50" /><line x2="680.00" style="fill:blue;stroke:blue;" y1="724.50" x1="680.00" id="4628" y2="675.50" /><line x2="550.00" style="fill:blue;stroke:blue;" y1="724.50" x1="680.00" id="4629" y2="724.50" /><line x2="820.00" style="fill:blue;stroke:blue;" y1="680.00" x1="750.00" id="4630" y2="680.00" /><line x2="680.00" style="fill:blue;stroke:blue;" y1="680.00" x1="750.00" id="4631" y2="675.50" /><line x2="880.00" style="fill:blue;stroke:blue;" y1="620.00" x1="820.00" id="4632" y2="620.00" /><line x2="820.00" style="fill:blue;stroke:blue;" y1="620.00" x1="820.00" id="4633" y2="680.00" /><line x2="820.00" style="fill:blue;stroke:blue;" y1="620.00" x1="880.00" id="4634" y2="620.00" /><line x2="880.00" style="fill:blue;stroke:blue;" y1="620.00" x1="880.00" id="4635" y2="680.00" /><line x2="880.00" style="fill:blue;stroke:blue;" y1="720.00" x1="910.00" id="4636" y2="680.00" /><line x2="980.00" style="fill:blue;stroke:blue;" y1="50.00" x1="980.00" id="4637" y2="150.00" /></svg>
