<?xml version="1.0" standalone="yes"?><!DOCTYPE svg PUBLIC "-//W3C//DTD SVG 1.1//EN" "http://www.w3.org/Graphics/SVG/1.1/DTD/svg11.dtd"[]><svg height="800.00" id="33281" width="1050.00" xmlns="http://www.w3.org/2000/svg" xmlns:xlink="http://www.w3.org/1999/xlink"><rect Type="system" Region="幽暗之域" height="5.00" y="520.00" Name="塞卡蒙" width="5.00" x="80.00" id="33282" ID="30003079" /><text x="80.00" y="520.00" id="33283">塞卡蒙</text><rect Type="system" Region="幽暗之域" height="5.00" y="440.00" Name="哈拉斯" width="5.00" x="90.00" id="33285" ID="30003087" /><text x="90.00" y="440.00" id="33286">哈拉斯</text><rect Type="system" Region="美特伯里斯" height="5.00" y="230.00" Name="伊亚加德" width="5.00" x="100.00" id="33288" ID="30002085" /><text x="100.00" y="230.00" id="33289">伊亚加德</text><rect Type="system" Region="幽暗之域" height="5.00" y="380.00" Name="塞杜萨瑞斯" width="5.00" x="100.00" id="33291" ID="30003090" /><text x="100.00" y="380.00" id="33292">塞杜萨瑞斯</text><rect Type="system" Region="美特伯里斯" height="5.00" y="150.00" Name="埃文诺德" width="5.00" x="120.00" id="33294" ID="30002089" /><text x="120.00" y="150.00" id="33295">埃文诺德</text><rect Type="system" Region="幽暗之域" height="5.00" y="600.00" Name="伊俄萨" width="5.00" x="120.00" id="33297" ID="30003072" /><text x="120.00" y="600.00" id="33298">伊俄萨</text><rect Type="system" Region="美特伯里斯" height="5.00" y="260.00" Name="伊斯巴巴塔" width="5.00" x="140.00" id="33300" ID="30002087" /><text x="140.00" y="260.00" id="33301">伊斯巴巴塔</text><rect Type="system" Region="美特伯里斯" height="5.00" y="190.00" Name="维梅尼" width="5.00" x="150.00" id="33303" ID="30002088" /><text x="150.00" y="190.00" id="33304">维梅尼</text><rect Type="system" Region="幽暗之域" height="5.00" y="460.00" Name="萨托加斯" width="5.00" x="160.00" id="33306" ID="30003086" /><text x="160.00" y="460.00" id="33307">萨托加斯</text><rect Type="system" Region="幽暗之域" height="5.00" y="520.00" Name="坦纳坎" width="5.00" x="160.00" id="33309" ID="30003091" /><text x="160.00" y="520.00" id="33310">坦纳坎</text><rect Type="system" Region="幽暗之域" height="5.00" y="410.00" Name="库尔尼埃能" width="5.00" x="170.00" id="33312" ID="30003089" /><text x="170.00" y="410.00" id="33313">库尔尼埃能</text><rect Type="system" Region="幽暗之域" height="5.00" y="580.00" Name="安卡" width="5.00" x="180.00" id="33315" ID="30003071" /><text x="180.00" y="580.00" id="33316">安卡</text><rect Type="system" Region="幽暗之域" height="5.00" y="630.00" Name="乌萨勒恩" width="5.00" x="180.00" id="33318" ID="30003077" /><text x="180.00" y="630.00" id="33319">乌萨勒恩</text><rect Type="system" Region="美特伯里斯" height="5.00" y="260.33" Name="图尔鲁尔" width="5.00" x="219.54" id="33321" ID="30002086" /><text x="219.54" y="260.33" id="33322">图尔鲁尔</text><rect Type="system" Region="美特伯里斯" height="5.00" y="190.00" Name="艾瑟特" width="5.00" x="220.00" id="33324" ID="30002084" /><text x="220.00" y="190.00" id="33325">艾瑟特</text><rect Type="system" Region="幽暗之域" height="5.00" y="440.00" Name="欧约纳塔" width="5.00" x="240.00" id="33327" ID="30003088" /><text x="240.00" y="440.00" id="33328">欧约纳塔</text><rect Type="system" Region="美特伯里斯" height="5.00" y="110.00" Name="奥尼尔" width="5.00" x="250.00" id="33330" ID="30002059" /><text x="250.00" y="110.00" id="33331">奥尼尔</text><rect Type="system" Region="美特伯里斯" height="5.00" y="231.81" Name="尤斯佩尔" width="5.00" x="259.39" id="33333" ID="30002083" /><text x="259.39" y="231.81" id="33334">尤斯佩尔</text><rect Type="system" Region="美特伯里斯" height="5.00" y="60.00" Name="勒斯布洛克" width="5.00" x="270.00" id="33336" ID="30002056" /><text x="270.00" y="60.00" id="33337">勒斯布洛克</text><rect Type="system" Region="幽暗之域" height="5.00" y="640.00" Name="索萨拉" width="5.00" x="280.00" id="33339" ID="30003070" /><text x="280.00" y="640.00" id="33340">索萨拉</text><rect Type="system" Region="美特伯里斯" height="5.00" y="187.86" Name="弗洛瑟文" width="5.00" x="281.07" id="33342" ID="30002082" /><text x="281.07" y="187.86" id="33343">弗洛瑟文</text><rect Type="system" Region="美特伯里斯" height="5.00" y="120.00" Name="阿尔达" width="5.00" x="330.00" id="33345" ID="30002058" /><text x="330.00" y="120.00" id="33346">阿尔达</text><rect Type="system" Region="美特伯里斯" height="5.00" y="70.00" Name="哈多泽克" width="5.00" x="370.00" id="33348" ID="30002057" /><text x="370.00" y="70.00" id="33349">哈多泽克</text><rect Type="system" Region="幽暗之域" height="5.00" y="500.00" Name="霍拉" width="5.00" x="380.00" id="33351" ID="30003067" /><text x="380.00" y="500.00" id="33352">霍拉</text><rect Type="system" Region="美特伯里斯" height="5.00" y="160.00" Name="福尔塞多姆" width="5.00" x="380.00" id="33354" ID="30002090" /><text x="380.00" y="160.00" id="33355">福尔塞多姆</text><rect Type="system" Region="西玛特尔" height="5.00" y="330.00" Name="兰多恩" width="5.00" x="410.00" id="33357" ID="30002540" /><text x="410.00" y="330.00" id="33358">兰多恩</text><rect Type="system" Region="美特伯里斯" height="5.00" y="110.00" Name="昂托恩" width="5.00" x="420.00" id="33360" ID="30002091" /><text x="420.00" y="110.00" id="33361">昂托恩</text><rect Type="system" Region="幽暗之域" height="5.00" y="540.00" Name="阔尔蒙尼" width="5.00" x="430.00" id="33363" ID="30003068" /><text x="430.00" y="540.00" id="33364">阔尔蒙尼</text><rect Type="system" Region="幽暗之域" height="5.00" y="700.00" Name="卡美拉" width="5.00" x="430.00" id="33366" ID="30003069" /><text x="430.00" y="700.00" id="33367">卡美拉</text><rect Type="system" Region="美特伯里斯" height="5.00" y="230.00" Name="伊斯祖尔" width="5.00" x="430.00" id="33369" ID="30002095" /><text x="430.00" y="230.00" id="33370">伊斯祖尔</text><rect Type="system" Region="西玛特尔" height="5.00" y="280.00" Name="希瑟伊德" width="5.00" x="440.00" id="33372" ID="30002539" /><text x="440.00" y="280.00" id="33373">希瑟伊德</text><rect Type="system" Region="西玛特尔" height="5.00" y="370.00" Name="奥加" width="5.00" x="440.00" id="33375" ID="30002542" /><text x="440.00" y="370.00" id="33376">奥加</text><rect Type="system" Region="美特伯里斯" height="5.00" y="190.00" Name="加柏拉蒂" width="5.00" x="460.00" id="33378" ID="30002093" /><text x="460.00" y="190.00" id="33379">加柏拉蒂</text><rect Type="system" Region="幽暗之域" height="5.00" y="630.00" Name="拉马亚" width="5.00" x="460.00" id="33381" ID="30003063" /><text x="460.00" y="630.00" id="33382">拉马亚</text><rect Type="system" Region="美特伯里斯" height="5.00" y="70.00" Name="克洛格力" width="5.00" x="480.00" id="33384" ID="30002097" /><text x="480.00" y="70.00" id="33385">克洛格力</text><rect Type="system" Region="破碎" height="5.00" y="500.00" Name="罗什扎尔" width="5.00" x="480.00" id="33387" ID="30002975" /><text x="480.00" y="500.00" id="33388">罗什扎尔</text><rect Type="system" Region="美特伯里斯" height="5.00" y="120.00" Name="希尔勒库" width="5.00" x="510.00" id="33390" ID="30002092" /><text x="510.00" y="120.00" id="33391">希尔勒库</text><rect Type="system" Region="美特伯里斯" height="5.00" y="230.00" Name="赫加格德" width="5.00" x="520.00" id="33393" ID="30002096" /><text x="520.00" y="230.00" id="33394">赫加格德</text><rect Type="system" Region="西玛特尔" height="5.00" y="280.00" Name="达尔" width="5.00" x="520.00" id="33396" ID="30002541" /><text x="520.00" y="280.00" id="33397">达尔</text><rect Type="system" Region="西玛特尔" height="5.00" y="370.00" Name="瓦尔蒂" width="5.00" x="520.00" id="33399" ID="30002538" /><text x="520.00" y="370.00" id="33400">瓦尔蒂</text><rect Type="system" Region="破碎" height="5.00" y="540.00" Name="拉巴比" width="5.00" x="520.00" id="33402" ID="30002976" /><text x="520.00" y="540.00" id="33403">拉巴比</text><rect Type="system" Region="美特伯里斯" height="5.00" y="170.00" Name="伊波菲尔" width="5.00" x="530.00" id="33405" ID="30002094" /><text x="530.00" y="170.00" id="33406">伊波菲尔</text><rect Type="system" Region="破碎" height="5.00" y="430.00" Name="索姗" width="5.00" x="520.00" id="33408" ID="30002980" /><text x="520.00" y="430.00" id="33409">索姗</text><rect Type="system" Region="美特伯里斯" height="5.00" y="80.00" Name="欧尔弗德" width="5.00" x="560.00" id="33411" ID="30002098" /><text x="560.00" y="80.00" id="33412">欧尔弗德</text><rect Type="system" Region="破碎" height="5.00" y="500.00" Name="阿斯戈德" width="5.00" x="560.00" id="33414" ID="30002978" /><text x="560.00" y="500.00" id="33415">阿斯戈德</text><rect Type="system" Region="西玛特尔" height="5.00" y="320.00" Name="埃玛马克" width="5.00" x="570.00" id="33417" ID="30002537" /><text x="570.00" y="320.00" id="33418">埃玛马克</text><rect Type="system" Region="破碎" height="5.00" y="620.00" Name="茨维" width="5.00" x="570.00" id="33420" ID="30002957" /><text x="570.00" y="620.00" id="33421">茨维</text><rect Type="system" Region="破碎" height="5.00" y="540.00" Name="埃拉亚尔" width="5.00" x="590.00" id="33423" ID="30002977" /><text x="590.00" y="540.00" id="33424">埃拉亚尔</text><rect Type="system" Region="破碎" height="5.00" y="590.00" Name="欧耶曼" width="5.00" x="610.00" id="33426" ID="30002961" /><text x="610.00" y="590.00" id="33427">欧耶曼</text><rect Type="system" Region="美特伯里斯" height="5.00" y="30.00" Name="尤金" width="5.00" x="610.00" id="33429" ID="30002101" /><text x="610.00" y="30.00" id="33430">尤金</text><rect Type="system" Region="西玛特尔" height="5.00" y="240.00" Name="古摩洛歌德" width="5.00" x="620.00" id="33432" ID="30002517" /><text x="620.00" y="240.00" id="33433">古摩洛歌德</text><rect Type="system" Region="破碎" height="5.00" y="509.42" Name="哈马" width="5.00" x="629.56" id="33435" ID="30002981" /><text x="629.56" y="509.42" id="33436">哈马</text><rect Type="system" Region="美特伯里斯" height="5.00" y="120.00" Name="艾格玛尔" width="5.00" x="640.00" id="33438" ID="30002099" /><text x="640.00" y="120.00" id="33439">艾格玛尔</text><rect Type="system" Region="美特伯里斯" height="5.00" y="70.00" Name="塔夫" width="5.00" x="640.00" id="33441" ID="30002100" /><text x="640.00" y="70.00" id="33442">塔夫</text><rect Type="system" Region="破碎" height="5.00" y="630.03" Name="若尔" width="5.00" x="649.98" id="33444" ID="30002958" /><text x="649.98" y="630.03" id="33445">若尔</text><rect Type="system" Region="破碎" height="5.00" y="470.00" Name="塔拉燃" width="5.00" x="660.00" id="33447" ID="30002979" /><text x="660.00" y="470.00" id="33448">塔拉燃</text><rect Type="system" Region="西玛特尔" height="5.00" y="200.00" Name="鲁尔姆" width="5.00" x="680.00" id="33450" ID="30002516" /><text x="680.00" y="200.00" id="33451">鲁尔姆</text><rect Type="system" Region="破碎" height="5.00" y="592.21" Name="西非拉尔" width="5.00" x="681.14" id="33453" ID="30002959" /><text x="681.14" y="592.21" id="33454">西非拉尔</text><rect Type="system" Region="美特伯里斯" height="5.00" y="30.00" Name="古卡尔拉" width="5.00" x="690.00" id="33456" ID="30002102" /><text x="690.00" y="30.00" id="33457">古卡尔拉</text><rect Type="system" Region="西玛特尔" height="5.00" y="240.00" Name="波斯伯格" width="5.00" x="710.00" id="33459" ID="30002514" /><text x="710.00" y="240.00" id="33460">波斯伯格</text><rect Type="system" Region="美特伯里斯" height="5.00" y="110.00" Name="阿希尔" width="5.00" x="730.00" id="33462" ID="30002066" /><text x="730.00" y="110.00" id="33463">阿希尔</text><rect Type="system" Region="美特伯里斯" height="5.00" y="160.00" Name="拉斯勒努尔" width="5.00" x="740.00" id="33465" ID="30002065" /><text x="740.00" y="160.00" id="33466">拉斯勒努尔</text><rect Type="system" Region="破碎" height="5.00" y="460.00" Name="俄扎拉" width="5.00" x="760.00" id="33468" ID="30002962" /><text x="760.00" y="460.00" id="33469">俄扎拉</text><rect Type="system" Region="破碎" height="5.00" y="550.00" Name="阿尔扎德" width="5.00" x="760.00" id="33471" ID="30002960" /><text x="760.00" y="550.00" id="33472">阿尔扎德</text><rect Type="system" Region="美特伯里斯" height="5.00" y="101.91" Name="伊瓦提" width="5.00" x="799.04" id="33474" ID="30002060" /><text x="799.04" y="101.91" id="33475">伊瓦提</text><rect Type="system" Region="美特伯里斯" height="5.00" y="150.00" Name="欧法斯托德" width="5.00" x="810.00" id="33477" ID="30002061" /><text x="810.00" y="150.00" id="33478">欧法斯托德</text><rect Type="system" Region="美特伯里斯" height="5.00" y="170.00" Name="赫加特德" width="5.00" x="910.00" id="33480" ID="30002063" /><text x="910.00" y="170.00" id="33481">赫加特德</text><rect Type="system" Region="美特伯里斯" height="5.00" y="120.00" Name="托蒂弗伦" width="5.00" x="900.00" id="33483" ID="30002062" /><text x="900.00" y="120.00" id="33484">托蒂弗伦</text><rect Type="system" Region="美特伯里斯" height="5.00" y="170.00" Name="布林" width="5.00" x="980.00" id="33486" ID="30002067" /><text x="980.00" y="170.00" id="33487">布林</text><rect Type="system" Region="美特伯里斯" height="5.00" y="120.00" Name="恩斯图尔" width="5.00" x="970.00" id="33489" ID="30002064" /><text x="970.00" y="120.00" id="33490">恩斯图尔</text><rect Type="system" Region="幽暗之域" height="5.00" y="740.00" Name="麦伊赫拉" width="5.00" x="40.00" id="33492" ID="30003075" /><text x="40.00" y="740.00" id="33493">麦伊赫拉</text><rect Type="system" Region="金纳泽" height="5.00" y="130.00" Name="奥德尔尼" width="5.00" x="50.00" id="33495" ID="30002684" /><text x="50.00" y="130.00" id="33496">奥德尔尼</text><rect Type="system" Region="金纳泽" height="5.00" y="340.00" Name="格瑞特西尔" width="5.00" x="50.00" id="33498" ID="30002653" /><text x="50.00" y="340.00" id="33499">格瑞特西尔</text><rect Type="system" Region="幽暗之域" height="5.00" y="710.00" Name="勒萨拉卡" width="5.00" x="80.00" id="33501" ID="30003073" /><text x="80.00" y="710.00" id="33502">勒萨拉卡</text><rect Type="system" Region="美特伯里斯" height="5.00" y="60.00" Name="赫克" width="5.00" x="120.00" id="33504" ID="30002053" /><text x="120.00" y="60.00" id="33505">赫克</text><rect Type="system" Region="幽暗之域" height="5.00" y="680.00" Name="厄尔基尼" width="5.00" x="180.00" id="33507" ID="30003078" /><text x="180.00" y="680.00" id="33508">厄尔基尼</text><rect Type="system" Region="幽暗之域" height="5.00" y="740.00" Name="萨塞克" width="5.00" x="180.00" id="33510" ID="30003074" /><text x="180.00" y="740.00" id="33511">萨塞克</text><rect Type="system" Region="美特伯里斯" height="5.00" y="110.00" Name="阿莫" width="5.00" x="190.00" id="33513" ID="30002055" /><text x="190.00" y="110.00" id="33514">阿莫</text><rect Type="system" Region="美特伯里斯" height="5.00" y="60.00" Name="霍尔" width="5.00" x="210.00" id="33516" ID="30002054" /><text x="210.00" y="60.00" id="33517">霍尔</text><rect Type="system" Region="幽暗之域" height="5.00" y="580.00" Name="加姆梅尔" width="5.00" x="260.00" id="33519" ID="30003076" /><text x="260.00" y="580.00" id="33520">加姆梅尔</text><rect Type="system" Region="幽暗之域" height="5.00" y="601.91" Name="库欧米" width="5.00" x="329.04" id="33522" ID="30003066" /><text x="329.04" y="601.91" id="33523">库欧米</text><rect Type="system" Region="幽暗之域" height="5.00" y="558.09" Name="欧特能" width="5.00" x="350.96" id="33525" ID="30003065" /><text x="350.96" y="558.09" id="33526">欧特能</text><rect Type="system" Region="幽暗之域" height="5.00" y="650.00" Name="图欧姆塔" width="5.00" x="360.00" id="33528" ID="30003064" /><text x="360.00" y="650.00" id="33529">图欧姆塔</text><rect Type="system" Region="金纳泽" height="5.00" y="270.00" Name="伊格赫伦德" width="5.00" x="370.00" id="33531" ID="30002693" /><text x="370.00" y="270.00" id="33532">伊格赫伦德</text><rect Type="system" Region="破碎" height="5.00" y="760.00" Name="切文卡" width="5.00" x="440.00" id="33534" ID="30002965" /><text x="440.00" y="760.00" id="33535">切文卡</text><rect Type="system" Region="破碎" height="5.00" y="710.00" Name="欧西德" width="5.00" x="580.00" id="33537" ID="30002970" /><text x="580.00" y="710.00" id="33538">欧西德</text><rect Type="system" Region="破碎" height="5.00" y="680.00" Name="萨索逖库" width="5.00" x="670.00" id="33540" ID="30002971" /><text x="670.00" y="680.00" id="33541">萨索逖库</text><rect Type="system" Region="破碎" height="5.00" y="548.34" Name="米里" width="5.00" x="659.32" id="33543" ID="30003001" /><text x="659.32" y="548.34" id="33544">米里</text><rect Type="system" Region="破碎" height="5.00" y="680.00" Name="戈忒" width="5.00" x="730.00" id="33546" ID="30002972" /><text x="730.00" y="680.00" id="33547">戈忒</text><rect Type="system" Region="西玛特尔" height="5.00" y="330.00" Name="奥索古尔" width="5.00" x="700.00" id="33549" ID="30002506" /><text x="700.00" y="330.00" id="33550">奥索古尔</text><rect Type="system" Region="破碎" height="5.00" y="670.00" Name="莫哈托尔" width="5.00" x="800.00" id="33552" ID="30002974" /><text x="800.00" y="670.00" id="33553">莫哈托尔</text><rect Type="system" Region="西玛特尔" height="5.00" y="250.00" Name="达马林" width="5.00" x="780.00" id="33555" ID="30002513" /><text x="780.00" y="250.00" id="33556">达马林</text><rect Type="system" Region="西玛特尔" height="5.00" y="330.00" Name="阿布德班" width="5.00" x="780.00" id="33558" ID="30002507" /><text x="780.00" y="330.00" id="33559">阿布德班</text><rect Type="system" Region="破碎" height="5.00" y="650.00" Name="尤洱丹" width="5.00" x="880.00" id="33561" ID="30002969" /><text x="880.00" y="650.00" id="33562">尤洱丹</text><rect Type="system" Region="破碎" height="5.00" y="680.00" Name="里苏德尔" width="5.00" x="930.00" id="33564" ID="30002973" /><text x="930.00" y="680.00" id="33565">里苏德尔</text><rect Type="system" Region="西玛特尔" height="5.00" y="290.00" Name="阿拉库古" width="5.00" x="810.00" id="33567" ID="30002512" /><text x="810.00" y="290.00" id="33568">阿拉库古</text><rect Type="system" Region="西玛特尔" height="5.00" y="210.00" Name="欧菲姆" width="5.00" x="810.00" id="33570" ID="30002515" /><text x="810.00" y="210.00" id="33571">欧菲姆</text><rect Type="system" Region="美特伯里斯" height="5.00" y="58.09" Name="安赫尔" width="5.00" x="820.96" id="33573" ID="30002051" /><text x="820.96" y="58.09" id="33574">安赫尔</text><rect Type="system" Region="西玛特尔" height="5.00" y="350.00" Name="伦斯" width="5.00" x="870.00" id="33576" ID="30002510" /><text x="870.00" y="350.00" id="33577">伦斯</text><rect Type="system" Region="伏尔戈" height="5.00" y="70.00" Name="埃加奥" width="5.00" x="920.00" id="33579" ID="30000200" /><text x="920.00" y="70.00" id="33580">埃加奥</text><rect Type="system" Region="西玛特尔" height="5.00" y="70.00" Name="瓜塔特伦" width="5.00" x="990.00" id="33582" ID="30002560" /><text x="990.00" y="70.00" id="33583">瓜塔特伦</text><rect Type="system" Region="赞颂之域" height="5.00" y="320.00" Name="荒渊" width="5.00" x="260.00" id="33585" ID="30100000" /><text x="260.00" y="320.00" id="33586">荒渊</text><line x2="40.00" style="fill:blue;stroke:blue;" y1="520.00" x1="80.00" id="33588" y2="740.00" /><line x2="160.00" style="fill:blue;stroke:blue;" y1="520.00" x1="80.00" id="33589" y2="460.00" /><line x2="160.00" style="fill:blue;stroke:blue;" y1="440.00" x1="90.00" id="33590" y2="460.00" /><line x2="259.39" style="fill:blue;stroke:blue;" y1="230.00" x1="100.00" id="33591" y2="231.81" /><line x2="220.00" style="fill:blue;stroke:blue;" y1="230.00" x1="100.00" id="33592" y2="190.00" /><line x2="140.00" style="fill:blue;stroke:blue;" y1="230.00" x1="100.00" id="33593" y2="260.00" /><line x2="120.00" style="fill:blue;stroke:blue;" y1="230.00" x1="100.00" id="33594" y2="150.00" /><line x2="50.00" style="fill:blue;stroke:blue;" y1="380.00" x1="100.00" id="33595" y2="340.00" /><line x2="170.00" style="fill:blue;stroke:blue;" y1="380.00" x1="100.00" id="33596" y2="410.00" /><line x2="220.00" style="fill:blue;stroke:blue;" y1="150.00" x1="120.00" id="33597" y2="190.00" /><line x2="100.00" style="fill:blue;stroke:blue;" y1="150.00" x1="120.00" id="33598" y2="230.00" /><line x2="50.00" style="fill:blue;stroke:blue;" y1="150.00" x1="120.00" id="33599" y2="130.00" /><line x2="180.00" style="fill:blue;stroke:blue;" y1="600.00" x1="120.00" id="33600" y2="580.00" /><line x2="80.00" style="fill:blue;stroke:blue;" y1="600.00" x1="120.00" id="33601" y2="710.00" /><line x2="180.00" style="fill:blue;stroke:blue;" y1="600.00" x1="120.00" id="33602" y2="630.00" /><line x2="220.00" style="fill:blue;stroke:blue;" y1="260.00" x1="140.00" id="33603" y2="190.00" /><line x2="100.00" style="fill:blue;stroke:blue;" y1="260.00" x1="140.00" id="33604" y2="230.00" /><line x2="219.54" style="fill:blue;stroke:blue;" y1="260.00" x1="140.00" id="33605" y2="260.33" /><line x2="150.00" style="fill:blue;stroke:blue;" y1="260.00" x1="140.00" id="33606" y2="190.00" /><line x2="170.00" style="fill:blue;stroke:blue;" y1="260.00" x1="140.00" id="33607" y2="410.00" /><line x2="220.00" style="fill:blue;stroke:blue;" y1="190.00" x1="150.00" id="33608" y2="190.00" /><line x2="140.00" style="fill:blue;stroke:blue;" y1="190.00" x1="150.00" id="33609" y2="260.00" /><line x2="80.00" style="fill:blue;stroke:blue;" y1="460.00" x1="160.00" id="33610" y2="520.00" /><line x2="90.00" style="fill:blue;stroke:blue;" y1="460.00" x1="160.00" id="33611" y2="440.00" /><line x2="240.00" style="fill:blue;stroke:blue;" y1="460.00" x1="160.00" id="33612" y2="440.00" /><line x2="160.00" style="fill:blue;stroke:blue;" y1="460.00" x1="160.00" id="33613" y2="520.00" /><line x2="180.00" style="fill:blue;stroke:blue;" y1="520.00" x1="160.00" id="33614" y2="580.00" /><line x2="160.00" style="fill:blue;stroke:blue;" y1="520.00" x1="160.00" id="33615" y2="460.00" /><line x2="140.00" style="fill:blue;stroke:blue;" y1="410.00" x1="170.00" id="33616" y2="260.00" /><line x2="240.00" style="fill:blue;stroke:blue;" y1="410.00" x1="170.00" id="33617" y2="440.00" /><line x2="100.00" style="fill:blue;stroke:blue;" y1="410.00" x1="170.00" id="33618" y2="380.00" /><line x2="280.00" style="fill:blue;stroke:blue;" y1="580.00" x1="180.00" id="33619" y2="640.00" /><line x2="120.00" style="fill:blue;stroke:blue;" y1="580.00" x1="180.00" id="33620" y2="600.00" /><line x2="260.00" style="fill:blue;stroke:blue;" y1="580.00" x1="180.00" id="33621" y2="580.00" /><line x2="160.00" style="fill:blue;stroke:blue;" y1="580.00" x1="180.00" id="33622" y2="520.00" /><line x2="280.00" style="fill:blue;stroke:blue;" y1="630.00" x1="180.00" id="33623" y2="640.00" /><line x2="120.00" style="fill:blue;stroke:blue;" y1="630.00" x1="180.00" id="33624" y2="600.00" /><line x2="180.00" style="fill:blue;stroke:blue;" y1="630.00" x1="180.00" id="33625" y2="680.00" /><line x2="259.39" style="fill:blue;stroke:blue;" y1="260.33" x1="219.54" id="33626" y2="231.81" /><line x2="220.00" style="fill:blue;stroke:blue;" y1="260.33" x1="219.54" id="33627" y2="190.00" /><line x2="140.00" style="fill:blue;stroke:blue;" y1="260.33" x1="219.54" id="33628" y2="260.00" /><line x2="281.07" style="fill:blue;stroke:blue;" y1="190.00" x1="220.00" id="33629" y2="187.86" /><line x2="259.39" style="fill:blue;stroke:blue;" y1="190.00" x1="220.00" id="33630" y2="231.81" /><line x2="100.00" style="fill:blue;stroke:blue;" y1="190.00" x1="220.00" id="33631" y2="230.00" /><line x2="219.54" style="fill:blue;stroke:blue;" y1="190.00" x1="220.00" id="33632" y2="260.33" /><line x2="140.00" style="fill:blue;stroke:blue;" y1="190.00" x1="220.00" id="33633" y2="260.00" /><line x2="150.00" style="fill:blue;stroke:blue;" y1="190.00" x1="220.00" id="33634" y2="190.00" /><line x2="120.00" style="fill:blue;stroke:blue;" y1="190.00" x1="220.00" id="33635" y2="150.00" /><line x2="520.00" style="fill:blue;stroke:blue;" y1="440.00" x1="240.00" id="33636" y2="430.00" /><line x2="160.00" style="fill:blue;stroke:blue;" y1="440.00" x1="240.00" id="33637" y2="460.00" /><line x2="170.00" style="fill:blue;stroke:blue;" y1="440.00" x1="240.00" id="33638" y2="410.00" /><line x2="190.00" style="fill:blue;stroke:blue;" y1="110.00" x1="250.00" id="33639" y2="110.00" /><line x2="270.00" style="fill:blue;stroke:blue;" y1="110.00" x1="250.00" id="33640" y2="60.00" /><line x2="281.07" style="fill:blue;stroke:blue;" y1="231.81" x1="259.39" id="33641" y2="187.86" /><line x2="220.00" style="fill:blue;stroke:blue;" y1="231.81" x1="259.39" id="33642" y2="190.00" /><line x2="100.00" style="fill:blue;stroke:blue;" y1="231.81" x1="259.39" id="33643" y2="230.00" /><line x2="219.54" style="fill:blue;stroke:blue;" y1="231.81" x1="259.39" id="33644" y2="260.33" /><line x2="210.00" style="fill:blue;stroke:blue;" y1="60.00" x1="270.00" id="33645" y2="60.00" /><line x2="190.00" style="fill:blue;stroke:blue;" y1="60.00" x1="270.00" id="33646" y2="110.00" /><line x2="370.00" style="fill:blue;stroke:blue;" y1="60.00" x1="270.00" id="33647" y2="70.00" /><line x2="250.00" style="fill:blue;stroke:blue;" y1="60.00" x1="270.00" id="33648" y2="110.00" /><line x2="430.00" style="fill:blue;stroke:blue;" y1="640.00" x1="280.00" id="33649" y2="700.00" /><line x2="180.00" style="fill:blue;stroke:blue;" y1="640.00" x1="280.00" id="33650" y2="580.00" /><line x2="180.00" style="fill:blue;stroke:blue;" y1="640.00" x1="280.00" id="33651" y2="740.00" /><line x2="260.00" style="fill:blue;stroke:blue;" y1="640.00" x1="280.00" id="33652" y2="580.00" /><line x2="180.00" style="fill:blue;stroke:blue;" y1="640.00" x1="280.00" id="33653" y2="630.00" /><line x2="330.00" style="fill:blue;stroke:blue;" y1="187.86" x1="281.07" id="33654" y2="120.00" /><line x2="259.39" style="fill:blue;stroke:blue;" y1="187.86" x1="281.07" id="33655" y2="231.81" /><line x2="220.00" style="fill:blue;stroke:blue;" y1="187.86" x1="281.07" id="33656" y2="190.00" /><line x2="370.00" style="fill:blue;stroke:blue;" y1="120.00" x1="330.00" id="33657" y2="70.00" /><line x2="281.07" style="fill:blue;stroke:blue;" y1="120.00" x1="330.00" id="33658" y2="187.86" /><line x2="380.00" style="fill:blue;stroke:blue;" y1="120.00" x1="330.00" id="33659" y2="160.00" /><line x2="270.00" style="fill:blue;stroke:blue;" y1="70.00" x1="370.00" id="33660" y2="60.00" /><line x2="330.00" style="fill:blue;stroke:blue;" y1="70.00" x1="370.00" id="33661" y2="120.00" /><line x2="480.00" style="fill:blue;stroke:blue;" y1="70.00" x1="370.00" id="33662" y2="70.00" /><line x2="480.00" style="fill:blue;stroke:blue;" y1="500.00" x1="380.00" id="33663" y2="500.00" /><line x2="350.96" style="fill:blue;stroke:blue;" y1="500.00" x1="380.00" id="33664" y2="558.09" /><line x2="430.00" style="fill:blue;stroke:blue;" y1="500.00" x1="380.00" id="33665" y2="540.00" /><line x2="330.00" style="fill:blue;stroke:blue;" y1="160.00" x1="380.00" id="33666" y2="120.00" /><line x2="420.00" style="fill:blue;stroke:blue;" y1="160.00" x1="380.00" id="33667" y2="110.00" /><line x2="510.00" style="fill:blue;stroke:blue;" y1="160.00" x1="380.00" id="33668" y2="120.00" /><line x2="460.00" style="fill:blue;stroke:blue;" y1="160.00" x1="380.00" id="33669" y2="190.00" /><line x2="530.00" style="fill:blue;stroke:blue;" y1="160.00" x1="380.00" id="33670" y2="170.00" /><line x2="430.00" style="fill:blue;stroke:blue;" y1="160.00" x1="380.00" id="33671" y2="230.00" /><line x2="520.00" style="fill:blue;stroke:blue;" y1="330.00" x1="410.00" id="33672" y2="370.00" /><line x2="440.00" style="fill:blue;stroke:blue;" y1="330.00" x1="410.00" id="33673" y2="280.00" /><line x2="520.00" style="fill:blue;stroke:blue;" y1="330.00" x1="410.00" id="33674" y2="280.00" /><line x2="380.00" style="fill:blue;stroke:blue;" y1="110.00" x1="420.00" id="33675" y2="160.00" /><line x2="510.00" style="fill:blue;stroke:blue;" y1="110.00" x1="420.00" id="33676" y2="120.00" /><line x2="460.00" style="fill:blue;stroke:blue;" y1="110.00" x1="420.00" id="33677" y2="190.00" /><line x2="530.00" style="fill:blue;stroke:blue;" y1="110.00" x1="420.00" id="33678" y2="170.00" /><line x2="440.00" style="fill:blue;stroke:blue;" y1="540.00" x1="430.00" id="33679" y2="370.00" /><line x2="460.00" style="fill:blue;stroke:blue;" y1="540.00" x1="430.00" id="33680" y2="630.00" /><line x2="380.00" style="fill:blue;stroke:blue;" y1="540.00" x1="430.00" id="33681" y2="500.00" /><line x2="430.00" style="fill:blue;stroke:blue;" y1="540.00" x1="430.00" id="33682" y2="700.00" /><line x2="440.00" style="fill:blue;stroke:blue;" y1="700.00" x1="430.00" id="33683" y2="760.00" /><line x2="580.00" style="fill:blue;stroke:blue;" y1="700.00" x1="430.00" id="33684" y2="710.00" /><line x2="460.00" style="fill:blue;stroke:blue;" y1="700.00" x1="430.00" id="33685" y2="630.00" /><line x2="360.00" style="fill:blue;stroke:blue;" y1="700.00" x1="430.00" id="33686" y2="650.00" /><line x2="430.00" style="fill:blue;stroke:blue;" y1="700.00" x1="430.00" id="33687" y2="540.00" /><line x2="280.00" style="fill:blue;stroke:blue;" y1="700.00" x1="430.00" id="33688" y2="640.00" /><line x2="380.00" style="fill:blue;stroke:blue;" y1="230.00" x1="430.00" id="33689" y2="160.00" /><line x2="460.00" style="fill:blue;stroke:blue;" y1="230.00" x1="430.00" id="33690" y2="190.00" /><line x2="530.00" style="fill:blue;stroke:blue;" y1="230.00" x1="430.00" id="33691" y2="170.00" /><line x2="520.00" style="fill:blue;stroke:blue;" y1="230.00" x1="430.00" id="33692" y2="230.00" /><line x2="440.00" style="fill:blue;stroke:blue;" y1="230.00" x1="430.00" id="33693" y2="280.00" /><line x2="430.00" style="fill:blue;stroke:blue;" y1="280.00" x1="440.00" id="33694" y2="230.00" /><line x2="570.00" style="fill:blue;stroke:blue;" y1="280.00" x1="440.00" id="33695" y2="320.00" /><line x2="520.00" style="fill:blue;stroke:blue;" y1="280.00" x1="440.00" id="33696" y2="370.00" /><line x2="410.00" style="fill:blue;stroke:blue;" y1="280.00" x1="440.00" id="33697" y2="330.00" /><line x2="520.00" style="fill:blue;stroke:blue;" y1="280.00" x1="440.00" id="33698" y2="280.00" /><line x2="440.00" style="fill:blue;stroke:blue;" y1="280.00" x1="440.00" id="33699" y2="370.00" /><line x2="370.00" style="fill:blue;stroke:blue;" y1="280.00" x1="440.00" id="33700" y2="270.00" /><line x2="570.00" style="fill:blue;stroke:blue;" y1="370.00" x1="440.00" id="33701" y2="320.00" /><line x2="440.00" style="fill:blue;stroke:blue;" y1="370.00" x1="440.00" id="33702" y2="280.00" /><line x2="520.00" style="fill:blue;stroke:blue;" y1="370.00" x1="440.00" id="33703" y2="280.00" /><line x2="430.00" style="fill:blue;stroke:blue;" y1="370.00" x1="440.00" id="33704" y2="540.00" /><line x2="380.00" style="fill:blue;stroke:blue;" y1="190.00" x1="460.00" id="33705" y2="160.00" /><line x2="420.00" style="fill:blue;stroke:blue;" y1="190.00" x1="460.00" id="33706" y2="110.00" /><line x2="530.00" style="fill:blue;stroke:blue;" y1="190.00" x1="460.00" id="33707" y2="170.00" /><line x2="430.00" style="fill:blue;stroke:blue;" y1="190.00" x1="460.00" id="33708" y2="230.00" /><line x2="570.00" style="fill:blue;stroke:blue;" y1="630.00" x1="460.00" id="33709" y2="620.00" /><line x2="430.00" style="fill:blue;stroke:blue;" y1="630.00" x1="460.00" id="33710" y2="540.00" /><line x2="430.00" style="fill:blue;stroke:blue;" y1="630.00" x1="460.00" id="33711" y2="700.00" /><line x2="370.00" style="fill:blue;stroke:blue;" y1="70.00" x1="480.00" id="33712" y2="70.00" /><line x2="560.00" style="fill:blue;stroke:blue;" y1="70.00" x1="480.00" id="33713" y2="80.00" /><line x2="520.00" style="fill:blue;stroke:blue;" y1="500.00" x1="480.00" id="33714" y2="540.00" /><line x2="380.00" style="fill:blue;stroke:blue;" y1="500.00" x1="480.00" id="33715" y2="500.00" /><line x2="380.00" style="fill:blue;stroke:blue;" y1="120.00" x1="510.00" id="33716" y2="160.00" /><line x2="420.00" style="fill:blue;stroke:blue;" y1="120.00" x1="510.00" id="33717" y2="110.00" /><line x2="530.00" style="fill:blue;stroke:blue;" y1="120.00" x1="510.00" id="33718" y2="170.00" /><line x2="430.00" style="fill:blue;stroke:blue;" y1="230.00" x1="520.00" id="33719" y2="230.00" /><line x2="520.00" style="fill:blue;stroke:blue;" y1="230.00" x1="520.00" id="33720" y2="280.00" /><line x2="520.00" style="fill:blue;stroke:blue;" y1="280.00" x1="520.00" id="33721" y2="230.00" /><line x2="570.00" style="fill:blue;stroke:blue;" y1="280.00" x1="520.00" id="33722" y2="320.00" /><line x2="520.00" style="fill:blue;stroke:blue;" y1="280.00" x1="520.00" id="33723" y2="370.00" /><line x2="440.00" style="fill:blue;stroke:blue;" y1="280.00" x1="520.00" id="33724" y2="280.00" /><line x2="410.00" style="fill:blue;stroke:blue;" y1="280.00" x1="520.00" id="33725" y2="330.00" /><line x2="440.00" style="fill:blue;stroke:blue;" y1="280.00" x1="520.00" id="33726" y2="370.00" /><line x2="570.00" style="fill:blue;stroke:blue;" y1="370.00" x1="520.00" id="33727" y2="320.00" /><line x2="440.00" style="fill:blue;stroke:blue;" y1="370.00" x1="520.00" id="33728" y2="280.00" /><line x2="410.00" style="fill:blue;stroke:blue;" y1="370.00" x1="520.00" id="33729" y2="330.00" /><line x2="520.00" style="fill:blue;stroke:blue;" y1="370.00" x1="520.00" id="33730" y2="280.00" /><line x2="760.00" style="fill:blue;stroke:blue;" y1="370.00" x1="520.00" id="33731" y2="460.00" /><line x2="480.00" style="fill:blue;stroke:blue;" y1="540.00" x1="520.00" id="33732" y2="500.00" /><line x2="590.00" style="fill:blue;stroke:blue;" y1="540.00" x1="520.00" id="33733" y2="540.00" /><line x2="560.00" style="fill:blue;stroke:blue;" y1="540.00" x1="520.00" id="33734" y2="500.00" /><line x2="380.00" style="fill:blue;stroke:blue;" y1="170.00" x1="530.00" id="33735" y2="160.00" /><line x2="420.00" style="fill:blue;stroke:blue;" y1="170.00" x1="530.00" id="33736" y2="110.00" /><line x2="510.00" style="fill:blue;stroke:blue;" y1="170.00" x1="530.00" id="33737" y2="120.00" /><line x2="460.00" style="fill:blue;stroke:blue;" y1="170.00" x1="530.00" id="33738" y2="190.00" /><line x2="430.00" style="fill:blue;stroke:blue;" y1="170.00" x1="530.00" id="33739" y2="230.00" /><line x2="560.00" style="fill:blue;stroke:blue;" y1="430.00" x1="520.00" id="33740" y2="500.00" /><line x2="660.00" style="fill:blue;stroke:blue;" y1="430.00" x1="520.00" id="33741" y2="470.00" /><line x2="240.00" style="fill:blue;stroke:blue;" y1="430.00" x1="520.00" id="33742" y2="440.00" /><line x2="480.00" style="fill:blue;stroke:blue;" y1="80.00" x1="560.00" id="33743" y2="70.00" /><line x2="640.00" style="fill:blue;stroke:blue;" y1="80.00" x1="560.00" id="33744" y2="120.00" /><line x2="520.00" style="fill:blue;stroke:blue;" y1="500.00" x1="560.00" id="33745" y2="540.00" /><line x2="590.00" style="fill:blue;stroke:blue;" y1="500.00" x1="560.00" id="33746" y2="540.00" /><line x2="660.00" style="fill:blue;stroke:blue;" y1="500.00" x1="560.00" id="33747" y2="470.00" /><line x2="520.00" style="fill:blue;stroke:blue;" y1="500.00" x1="560.00" id="33748" y2="430.00" /><line x2="629.56" style="fill:blue;stroke:blue;" y1="500.00" x1="560.00" id="33749" y2="509.42" /><line x2="700.00" style="fill:blue;stroke:blue;" y1="320.00" x1="570.00" id="33750" y2="330.00" /><line x2="620.00" style="fill:blue;stroke:blue;" y1="320.00" x1="570.00" id="33751" y2="240.00" /><line x2="520.00" style="fill:blue;stroke:blue;" y1="320.00" x1="570.00" id="33752" y2="370.00" /><line x2="440.00" style="fill:blue;stroke:blue;" y1="320.00" x1="570.00" id="33753" y2="280.00" /><line x2="520.00" style="fill:blue;stroke:blue;" y1="320.00" x1="570.00" id="33754" y2="280.00" /><line x2="440.00" style="fill:blue;stroke:blue;" y1="320.00" x1="570.00" id="33755" y2="370.00" /><line x2="649.98" style="fill:blue;stroke:blue;" y1="620.00" x1="570.00" id="33756" y2="630.03" /><line x2="681.14" style="fill:blue;stroke:blue;" y1="620.00" x1="570.00" id="33757" y2="592.21" /><line x2="610.00" style="fill:blue;stroke:blue;" y1="620.00" x1="570.00" id="33758" y2="590.00" /><line x2="460.00" style="fill:blue;stroke:blue;" y1="620.00" x1="570.00" id="33759" y2="630.00" /><line x2="520.00" style="fill:blue;stroke:blue;" y1="540.00" x1="590.00" id="33760" y2="540.00" /><line x2="560.00" style="fill:blue;stroke:blue;" y1="540.00" x1="590.00" id="33761" y2="500.00" /><line x2="629.56" style="fill:blue;stroke:blue;" y1="540.00" x1="590.00" id="33762" y2="509.42" /><line x2="570.00" style="fill:blue;stroke:blue;" y1="590.00" x1="610.00" id="33763" y2="620.00" /><line x2="681.14" style="fill:blue;stroke:blue;" y1="590.00" x1="610.00" id="33764" y2="592.21" /><line x2="640.00" style="fill:blue;stroke:blue;" y1="30.00" x1="610.00" id="33765" y2="70.00" /><line x2="690.00" style="fill:blue;stroke:blue;" y1="30.00" x1="610.00" id="33766" y2="30.00" /><line x2="640.00" style="fill:blue;stroke:blue;" y1="240.00" x1="620.00" id="33767" y2="120.00" /><line x2="710.00" style="fill:blue;stroke:blue;" y1="240.00" x1="620.00" id="33768" y2="240.00" /><line x2="680.00" style="fill:blue;stroke:blue;" y1="240.00" x1="620.00" id="33769" y2="200.00" /><line x2="570.00" style="fill:blue;stroke:blue;" y1="240.00" x1="620.00" id="33770" y2="320.00" /><line x2="590.00" style="fill:blue;stroke:blue;" y1="509.42" x1="629.56" id="33771" y2="540.00" /><line x2="560.00" style="fill:blue;stroke:blue;" y1="509.42" x1="629.56" id="33772" y2="500.00" /><line x2="660.00" style="fill:blue;stroke:blue;" y1="509.42" x1="629.56" id="33773" y2="470.00" /><line x2="659.32" style="fill:blue;stroke:blue;" y1="509.42" x1="629.56" id="33774" y2="548.34" /><line x2="730.00" style="fill:blue;stroke:blue;" y1="120.00" x1="640.00" id="33775" y2="110.00" /><line x2="560.00" style="fill:blue;stroke:blue;" y1="120.00" x1="640.00" id="33776" y2="80.00" /><line x2="640.00" style="fill:blue;stroke:blue;" y1="120.00" x1="640.00" id="33777" y2="70.00" /><line x2="620.00" style="fill:blue;stroke:blue;" y1="120.00" x1="640.00" id="33778" y2="240.00" /><line x2="640.00" style="fill:blue;stroke:blue;" y1="70.00" x1="640.00" id="33779" y2="120.00" /><line x2="610.00" style="fill:blue;stroke:blue;" y1="70.00" x1="640.00" id="33780" y2="30.00" /><line x2="690.00" style="fill:blue;stroke:blue;" y1="70.00" x1="640.00" id="33781" y2="30.00" /><line x2="570.00" style="fill:blue;stroke:blue;" y1="630.03" x1="649.98" id="33782" y2="620.00" /><line x2="681.14" style="fill:blue;stroke:blue;" y1="630.03" x1="649.98" id="33783" y2="592.21" /><line x2="800.00" style="fill:blue;stroke:blue;" y1="630.03" x1="649.98" id="33784" y2="670.00" /><line x2="760.00" style="fill:blue;stroke:blue;" y1="470.00" x1="660.00" id="33785" y2="550.00" /><line x2="560.00" style="fill:blue;stroke:blue;" y1="470.00" x1="660.00" id="33786" y2="500.00" /><line x2="520.00" style="fill:blue;stroke:blue;" y1="470.00" x1="660.00" id="33787" y2="430.00" /><line x2="629.56" style="fill:blue;stroke:blue;" y1="470.00" x1="660.00" id="33788" y2="509.42" /><line x2="710.00" style="fill:blue;stroke:blue;" y1="200.00" x1="680.00" id="33789" y2="240.00" /><line x2="620.00" style="fill:blue;stroke:blue;" y1="200.00" x1="680.00" id="33790" y2="240.00" /><line x2="570.00" style="fill:blue;stroke:blue;" y1="592.21" x1="681.14" id="33791" y2="620.00" /><line x2="649.98" style="fill:blue;stroke:blue;" y1="592.21" x1="681.14" id="33792" y2="630.03" /><line x2="760.00" style="fill:blue;stroke:blue;" y1="592.21" x1="681.14" id="33793" y2="550.00" /><line x2="610.00" style="fill:blue;stroke:blue;" y1="592.21" x1="681.14" id="33794" y2="590.00" /><line x2="640.00" style="fill:blue;stroke:blue;" y1="30.00" x1="690.00" id="33795" y2="70.00" /><line x2="610.00" style="fill:blue;stroke:blue;" y1="30.00" x1="690.00" id="33796" y2="30.00" /><line x2="780.00" style="fill:blue;stroke:blue;" y1="240.00" x1="710.00" id="33797" y2="250.00" /><line x2="680.00" style="fill:blue;stroke:blue;" y1="240.00" x1="710.00" id="33798" y2="200.00" /><line x2="620.00" style="fill:blue;stroke:blue;" y1="240.00" x1="710.00" id="33799" y2="240.00" /><line x2="799.04" style="fill:blue;stroke:blue;" y1="110.00" x1="730.00" id="33800" y2="101.91" /><line x2="740.00" style="fill:blue;stroke:blue;" y1="110.00" x1="730.00" id="33801" y2="160.00" /><line x2="640.00" style="fill:blue;stroke:blue;" y1="110.00" x1="730.00" id="33802" y2="120.00" /><line x2="799.04" style="fill:blue;stroke:blue;" y1="160.00" x1="740.00" id="33803" y2="101.91" /><line x2="810.00" style="fill:blue;stroke:blue;" y1="160.00" x1="740.00" id="33804" y2="150.00" /><line x2="730.00" style="fill:blue;stroke:blue;" y1="160.00" x1="740.00" id="33805" y2="110.00" /><line x2="520.00" style="fill:blue;stroke:blue;" y1="460.00" x1="760.00" id="33806" y2="370.00" /><line x2="760.00" style="fill:blue;stroke:blue;" y1="460.00" x1="760.00" id="33807" y2="550.00" /><line x2="681.14" style="fill:blue;stroke:blue;" y1="550.00" x1="760.00" id="33808" y2="592.21" /><line x2="760.00" style="fill:blue;stroke:blue;" y1="550.00" x1="760.00" id="33809" y2="460.00" /><line x2="660.00" style="fill:blue;stroke:blue;" y1="550.00" x1="760.00" id="33810" y2="470.00" /><line x2="820.96" style="fill:blue;stroke:blue;" y1="101.91" x1="799.04" id="33811" y2="58.09" /><line x2="810.00" style="fill:blue;stroke:blue;" y1="101.91" x1="799.04" id="33812" y2="150.00" /><line x2="900.00" style="fill:blue;stroke:blue;" y1="101.91" x1="799.04" id="33813" y2="120.00" /><line x2="740.00" style="fill:blue;stroke:blue;" y1="101.91" x1="799.04" id="33814" y2="160.00" /><line x2="730.00" style="fill:blue;stroke:blue;" y1="101.91" x1="799.04" id="33815" y2="110.00" /><line x2="799.04" style="fill:blue;stroke:blue;" y1="150.00" x1="810.00" id="33816" y2="101.91" /><line x2="740.00" style="fill:blue;stroke:blue;" y1="150.00" x1="810.00" id="33817" y2="160.00" /><line x2="900.00" style="fill:blue;stroke:blue;" y1="170.00" x1="910.00" id="33818" y2="120.00" /><line x2="970.00" style="fill:blue;stroke:blue;" y1="170.00" x1="910.00" id="33819" y2="120.00" /><line x2="980.00" style="fill:blue;stroke:blue;" y1="170.00" x1="910.00" id="33820" y2="170.00" /><line x2="920.00" style="fill:blue;stroke:blue;" y1="120.00" x1="900.00" id="33821" y2="70.00" /><line x2="799.04" style="fill:blue;stroke:blue;" y1="120.00" x1="900.00" id="33822" y2="101.91" /><line x2="910.00" style="fill:blue;stroke:blue;" y1="120.00" x1="900.00" id="33823" y2="170.00" /><line x2="970.00" style="fill:blue;stroke:blue;" y1="120.00" x1="900.00" id="33824" y2="120.00" /><line x2="910.00" style="fill:blue;stroke:blue;" y1="170.00" x1="980.00" id="33825" y2="170.00" /><line x2="970.00" style="fill:blue;stroke:blue;" y1="170.00" x1="980.00" id="33826" y2="120.00" /><line x2="900.00" style="fill:blue;stroke:blue;" y1="120.00" x1="970.00" id="33827" y2="120.00" /><line x2="910.00" style="fill:blue;stroke:blue;" y1="120.00" x1="970.00" id="33828" y2="170.00" /><line x2="980.00" style="fill:blue;stroke:blue;" y1="120.00" x1="970.00" id="33829" y2="170.00" /><line x2="990.00" style="fill:blue;stroke:blue;" y1="120.00" x1="970.00" id="33830" y2="70.00" /><line x2="80.00" style="fill:blue;stroke:blue;" y1="740.00" x1="40.00" id="33831" y2="710.00" /><line x2="180.00" style="fill:blue;stroke:blue;" y1="740.00" x1="40.00" id="33832" y2="740.00" /><line x2="80.00" style="fill:blue;stroke:blue;" y1="740.00" x1="40.00" id="33833" y2="520.00" /><line x2="120.00" style="fill:blue;stroke:blue;" y1="130.00" x1="50.00" id="33834" y2="150.00" /><line x2="100.00" style="fill:blue;stroke:blue;" y1="340.00" x1="50.00" id="33835" y2="380.00" /><line x2="120.00" style="fill:blue;stroke:blue;" y1="710.00" x1="80.00" id="33836" y2="600.00" /><line x2="180.00" style="fill:blue;stroke:blue;" y1="710.00" x1="80.00" id="33837" y2="740.00" /><line x2="40.00" style="fill:blue;stroke:blue;" y1="710.00" x1="80.00" id="33838" y2="740.00" /><line x2="210.00" style="fill:blue;stroke:blue;" y1="60.00" x1="120.00" id="33839" y2="60.00" /><line x2="180.00" style="fill:blue;stroke:blue;" y1="680.00" x1="180.00" id="33840" y2="630.00" /><line x2="280.00" style="fill:blue;stroke:blue;" y1="740.00" x1="180.00" id="33841" y2="640.00" /><line x2="80.00" style="fill:blue;stroke:blue;" y1="740.00" x1="180.00" id="33842" y2="710.00" /><line x2="40.00" style="fill:blue;stroke:blue;" y1="740.00" x1="180.00" id="33843" y2="740.00" /><line x2="210.00" style="fill:blue;stroke:blue;" y1="110.00" x1="190.00" id="33844" y2="60.00" /><line x2="270.00" style="fill:blue;stroke:blue;" y1="110.00" x1="190.00" id="33845" y2="60.00" /><line x2="250.00" style="fill:blue;stroke:blue;" y1="110.00" x1="190.00" id="33846" y2="110.00" /><line x2="120.00" style="fill:blue;stroke:blue;" y1="60.00" x1="210.00" id="33847" y2="60.00" /><line x2="190.00" style="fill:blue;stroke:blue;" y1="60.00" x1="210.00" id="33848" y2="110.00" /><line x2="270.00" style="fill:blue;stroke:blue;" y1="60.00" x1="210.00" id="33849" y2="60.00" /><line x2="280.00" style="fill:blue;stroke:blue;" y1="580.00" x1="260.00" id="33850" y2="640.00" /><line x2="180.00" style="fill:blue;stroke:blue;" y1="580.00" x1="260.00" id="33851" y2="580.00" /><line x2="360.00" style="fill:blue;stroke:blue;" y1="601.91" x1="329.04" id="33852" y2="650.00" /><line x2="350.96" style="fill:blue;stroke:blue;" y1="601.91" x1="329.04" id="33853" y2="558.09" /><line x2="329.04" style="fill:blue;stroke:blue;" y1="558.09" x1="350.96" id="33854" y2="601.91" /><line x2="380.00" style="fill:blue;stroke:blue;" y1="558.09" x1="350.96" id="33855" y2="500.00" /><line x2="329.04" style="fill:blue;stroke:blue;" y1="650.00" x1="360.00" id="33856" y2="601.91" /><line x2="430.00" style="fill:blue;stroke:blue;" y1="650.00" x1="360.00" id="33857" y2="700.00" /><line x2="440.00" style="fill:blue;stroke:blue;" y1="270.00" x1="370.00" id="33858" y2="280.00" /><line x2="430.00" style="fill:blue;stroke:blue;" y1="760.00" x1="440.00" id="33859" y2="700.00" /><line x2="670.00" style="fill:blue;stroke:blue;" y1="710.00" x1="580.00" id="33860" y2="680.00" /><line x2="430.00" style="fill:blue;stroke:blue;" y1="710.00" x1="580.00" id="33861" y2="700.00" /><line x2="580.00" style="fill:blue;stroke:blue;" y1="680.00" x1="670.00" id="33862" y2="710.00" /><line x2="730.00" style="fill:blue;stroke:blue;" y1="680.00" x1="670.00" id="33863" y2="680.00" /><line x2="629.56" style="fill:blue;stroke:blue;" y1="548.34" x1="659.32" id="33864" y2="509.42" /><line x2="670.00" style="fill:blue;stroke:blue;" y1="680.00" x1="730.00" id="33865" y2="680.00" /><line x2="800.00" style="fill:blue;stroke:blue;" y1="680.00" x1="730.00" id="33866" y2="670.00" /><line x2="780.00" style="fill:blue;stroke:blue;" y1="330.00" x1="700.00" id="33867" y2="330.00" /><line x2="570.00" style="fill:blue;stroke:blue;" y1="330.00" x1="700.00" id="33868" y2="320.00" /><line x2="649.98" style="fill:blue;stroke:blue;" y1="670.00" x1="800.00" id="33869" y2="630.03" /><line x2="880.00" style="fill:blue;stroke:blue;" y1="670.00" x1="800.00" id="33870" y2="650.00" /><line x2="730.00" style="fill:blue;stroke:blue;" y1="670.00" x1="800.00" id="33871" y2="680.00" /><line x2="810.00" style="fill:blue;stroke:blue;" y1="250.00" x1="780.00" id="33872" y2="290.00" /><line x2="710.00" style="fill:blue;stroke:blue;" y1="250.00" x1="780.00" id="33873" y2="240.00" /><line x2="810.00" style="fill:blue;stroke:blue;" y1="250.00" x1="780.00" id="33874" y2="210.00" /><line x2="700.00" style="fill:blue;stroke:blue;" y1="330.00" x1="780.00" id="33875" y2="330.00" /><line x2="870.00" style="fill:blue;stroke:blue;" y1="330.00" x1="780.00" id="33876" y2="350.00" /><line x2="810.00" style="fill:blue;stroke:blue;" y1="330.00" x1="780.00" id="33877" y2="290.00" /><line x2="930.00" style="fill:blue;stroke:blue;" y1="650.00" x1="880.00" id="33878" y2="680.00" /><line x2="800.00" style="fill:blue;stroke:blue;" y1="650.00" x1="880.00" id="33879" y2="670.00" /><line x2="880.00" style="fill:blue;stroke:blue;" y1="680.00" x1="930.00" id="33880" y2="650.00" /><line x2="780.00" style="fill:blue;stroke:blue;" y1="290.00" x1="810.00" id="33881" y2="330.00" /><line x2="780.00" style="fill:blue;stroke:blue;" y1="290.00" x1="810.00" id="33882" y2="250.00" /><line x2="780.00" style="fill:blue;stroke:blue;" y1="210.00" x1="810.00" id="33883" y2="250.00" /><line x2="799.04" style="fill:blue;stroke:blue;" y1="58.09" x1="820.96" id="33884" y2="101.91" /><line x2="780.00" style="fill:blue;stroke:blue;" y1="350.00" x1="870.00" id="33885" y2="330.00" /><line x2="900.00" style="fill:blue;stroke:blue;" y1="70.00" x1="920.00" id="33886" y2="120.00" /><line x2="970.00" style="fill:blue;stroke:blue;" y1="70.00" x1="990.00" id="33887" y2="120.00" /></svg>
