<?xml version="1.0" standalone="yes"?><!DOCTYPE svg PUBLIC "-//W3C//DTD SVG 1.1//EN" "http://www.w3.org/Graphics/SVG/1.1/DTD/svg11.dtd"[]><svg width="1050.00" height="800.00" id="33281" xmlns="http://www.w3.org/2000/svg" xmlns:xlink="http://www.w3.org/1999/xlink"><rect Type="system" x="80.00" id="33282" height="5.00" width="5.00" Name="塞卡蒙" ID="30003079" Region="幽暗之域" y="520.00" /><text y="520.00" x="80.00" id="33283">塞卡蒙</text><rect Type="system" x="90.00" id="33285" height="5.00" width="5.00" Name="哈拉斯" ID="30003087" Region="幽暗之域" y="440.00" /><text y="440.00" x="90.00" id="33286">哈拉斯</text><rect Type="system" x="100.00" id="33288" height="5.00" width="5.00" Name="伊亚加德" ID="30002085" Region="美特伯里斯" y="230.00" /><text y="230.00" x="100.00" id="33289">伊亚加德</text><rect Type="system" x="100.00" id="33291" height="5.00" width="5.00" Name="塞杜萨瑞斯" ID="30003090" Region="幽暗之域" y="380.00" /><text y="380.00" x="100.00" id="33292">塞杜萨瑞斯</text><rect Type="system" x="120.00" id="33294" height="5.00" width="5.00" Name="埃文诺德" ID="30002089" Region="美特伯里斯" y="150.00" /><text y="150.00" x="120.00" id="33295">埃文诺德</text><rect Type="system" x="120.00" id="33297" height="5.00" width="5.00" Name="伊俄萨" ID="30003072" Region="幽暗之域" y="600.00" /><text y="600.00" x="120.00" id="33298">伊俄萨</text><rect Type="system" x="140.00" id="33300" height="5.00" width="5.00" Name="伊斯巴巴塔" ID="30002087" Region="美特伯里斯" y="260.00" /><text y="260.00" x="140.00" id="33301">伊斯巴巴塔</text><rect Type="system" x="150.00" id="33303" height="5.00" width="5.00" Name="维梅尼" ID="30002088" Region="美特伯里斯" y="190.00" /><text y="190.00" x="150.00" id="33304">维梅尼</text><rect Type="system" x="160.00" id="33306" height="5.00" width="5.00" Name="萨托加斯" ID="30003086" Region="幽暗之域" y="460.00" /><text y="460.00" x="160.00" id="33307">萨托加斯</text><rect Type="system" x="160.00" id="33309" height="5.00" width="5.00" Name="坦纳坎" ID="30003091" Region="幽暗之域" y="520.00" /><text y="520.00" x="160.00" id="33310">坦纳坎</text><rect Type="system" x="170.00" id="33312" height="5.00" width="5.00" Name="库尔尼埃能" ID="30003089" Region="幽暗之域" y="410.00" /><text y="410.00" x="170.00" id="33313">库尔尼埃能</text><rect Type="system" x="180.00" id="33315" height="5.00" width="5.00" Name="安卡" ID="30003071" Region="幽暗之域" y="580.00" /><text y="580.00" x="180.00" id="33316">安卡</text><rect Type="system" x="180.00" id="33318" height="5.00" width="5.00" Name="乌萨勒恩" ID="30003077" Region="幽暗之域" y="630.00" /><text y="630.00" x="180.00" id="33319">乌萨勒恩</text><rect Type="system" x="219.54" id="33321" height="5.00" width="5.00" Name="图尔鲁尔" ID="30002086" Region="美特伯里斯" y="260.33" /><text y="260.33" x="219.54" id="33322">图尔鲁尔</text><rect Type="system" x="220.00" id="33324" height="5.00" width="5.00" Name="艾瑟特" ID="30002084" Region="美特伯里斯" y="190.00" /><text y="190.00" x="220.00" id="33325">艾瑟特</text><rect Type="system" x="240.00" id="33327" height="5.00" width="5.00" Name="欧约纳塔" ID="30003088" Region="幽暗之域" y="440.00" /><text y="440.00" x="240.00" id="33328">欧约纳塔</text><rect Type="system" x="250.00" id="33330" height="5.00" width="5.00" Name="奥尼尔" ID="30002059" Region="美特伯里斯" y="110.00" /><text y="110.00" x="250.00" id="33331">奥尼尔</text><rect Type="system" x="259.39" id="33333" height="5.00" width="5.00" Name="尤斯佩尔" ID="30002083" Region="美特伯里斯" y="231.81" /><text y="231.81" x="259.39" id="33334">尤斯佩尔</text><rect Type="system" x="270.00" id="33336" height="5.00" width="5.00" Name="勒斯布洛克" ID="30002056" Region="美特伯里斯" y="60.00" /><text y="60.00" x="270.00" id="33337">勒斯布洛克</text><rect Type="system" x="280.00" id="33339" height="5.00" width="5.00" Name="索萨拉" ID="30003070" Region="幽暗之域" y="640.00" /><text y="640.00" x="280.00" id="33340">索萨拉</text><rect Type="system" x="281.07" id="33342" height="5.00" width="5.00" Name="弗洛瑟文" ID="30002082" Region="美特伯里斯" y="187.86" /><text y="187.86" x="281.07" id="33343">弗洛瑟文</text><rect Type="system" x="330.00" id="33345" height="5.00" width="5.00" Name="阿尔达" ID="30002058" Region="美特伯里斯" y="120.00" /><text y="120.00" x="330.00" id="33346">阿尔达</text><rect Type="system" x="370.00" id="33348" height="5.00" width="5.00" Name="哈多泽克" ID="30002057" Region="美特伯里斯" y="70.00" /><text y="70.00" x="370.00" id="33349">哈多泽克</text><rect Type="system" x="380.00" id="33351" height="5.00" width="5.00" Name="霍拉" ID="30003067" Region="幽暗之域" y="500.00" /><text y="500.00" x="380.00" id="33352">霍拉</text><rect Type="system" x="380.00" id="33354" height="5.00" width="5.00" Name="福尔塞多姆" ID="30002090" Region="美特伯里斯" y="160.00" /><text y="160.00" x="380.00" id="33355">福尔塞多姆</text><rect Type="system" x="410.00" id="33357" height="5.00" width="5.00" Name="兰多恩" ID="30002540" Region="西玛特尔" y="330.00" /><text y="330.00" x="410.00" id="33358">兰多恩</text><rect Type="system" x="420.00" id="33360" height="5.00" width="5.00" Name="昂托恩" ID="30002091" Region="美特伯里斯" y="110.00" /><text y="110.00" x="420.00" id="33361">昂托恩</text><rect Type="system" x="430.00" id="33363" height="5.00" width="5.00" Name="阔尔蒙尼" ID="30003068" Region="幽暗之域" y="540.00" /><text y="540.00" x="430.00" id="33364">阔尔蒙尼</text><rect Type="system" x="430.00" id="33366" height="5.00" width="5.00" Name="卡美拉" ID="30003069" Region="幽暗之域" y="700.00" /><text y="700.00" x="430.00" id="33367">卡美拉</text><rect Type="system" x="430.00" id="33369" height="5.00" width="5.00" Name="伊斯祖尔" ID="30002095" Region="美特伯里斯" y="230.00" /><text y="230.00" x="430.00" id="33370">伊斯祖尔</text><rect Type="system" x="440.00" id="33372" height="5.00" width="5.00" Name="希瑟伊德" ID="30002539" Region="西玛特尔" y="280.00" /><text y="280.00" x="440.00" id="33373">希瑟伊德</text><rect Type="system" x="440.00" id="33375" height="5.00" width="5.00" Name="奥加" ID="30002542" Region="西玛特尔" y="370.00" /><text y="370.00" x="440.00" id="33376">奥加</text><rect Type="system" x="460.00" id="33378" height="5.00" width="5.00" Name="加柏拉蒂" ID="30002093" Region="美特伯里斯" y="190.00" /><text y="190.00" x="460.00" id="33379">加柏拉蒂</text><rect Type="system" x="460.00" id="33381" height="5.00" width="5.00" Name="拉马亚" ID="30003063" Region="幽暗之域" y="630.00" /><text y="630.00" x="460.00" id="33382">拉马亚</text><rect Type="system" x="480.00" id="33384" height="5.00" width="5.00" Name="克洛格力" ID="30002097" Region="美特伯里斯" y="70.00" /><text y="70.00" x="480.00" id="33385">克洛格力</text><rect Type="system" x="480.00" id="33387" height="5.00" width="5.00" Name="罗什扎尔" ID="30002975" Region="破碎" y="500.00" /><text y="500.00" x="480.00" id="33388">罗什扎尔</text><rect Type="system" x="510.00" id="33390" height="5.00" width="5.00" Name="希尔勒库" ID="30002092" Region="美特伯里斯" y="120.00" /><text y="120.00" x="510.00" id="33391">希尔勒库</text><rect Type="system" x="520.00" id="33393" height="5.00" width="5.00" Name="赫加格德" ID="30002096" Region="美特伯里斯" y="230.00" /><text y="230.00" x="520.00" id="33394">赫加格德</text><rect Type="system" x="520.00" id="33396" height="5.00" width="5.00" Name="达尔" ID="30002541" Region="西玛特尔" y="280.00" /><text y="280.00" x="520.00" id="33397">达尔</text><rect Type="system" x="520.00" id="33399" height="5.00" width="5.00" Name="瓦尔蒂" ID="30002538" Region="西玛特尔" y="370.00" /><text y="370.00" x="520.00" id="33400">瓦尔蒂</text><rect Type="system" x="520.00" id="33402" height="5.00" width="5.00" Name="拉巴比" ID="30002976" Region="破碎" y="540.00" /><text y="540.00" x="520.00" id="33403">拉巴比</text><rect Type="system" x="530.00" id="33405" height="5.00" width="5.00" Name="伊波菲尔" ID="30002094" Region="美特伯里斯" y="170.00" /><text y="170.00" x="530.00" id="33406">伊波菲尔</text><rect Type="system" x="520.00" id="33408" height="5.00" width="5.00" Name="索姗" ID="30002980" Region="破碎" y="430.00" /><text y="430.00" x="520.00" id="33409">索姗</text><rect Type="system" x="560.00" id="33411" height="5.00" width="5.00" Name="欧尔弗德" ID="30002098" Region="美特伯里斯" y="80.00" /><text y="80.00" x="560.00" id="33412">欧尔弗德</text><rect Type="system" x="560.00" id="33414" height="5.00" width="5.00" Name="阿斯戈德" ID="30002978" Region="破碎" y="500.00" /><text y="500.00" x="560.00" id="33415">阿斯戈德</text><rect Type="system" x="570.00" id="33417" height="5.00" width="5.00" Name="埃玛马克" ID="30002537" Region="西玛特尔" y="320.00" /><text y="320.00" x="570.00" id="33418">埃玛马克</text><rect Type="system" x="570.00" id="33420" height="5.00" width="5.00" Name="茨维" ID="30002957" Region="破碎" y="620.00" /><text y="620.00" x="570.00" id="33421">茨维</text><rect Type="system" x="590.00" id="33423" height="5.00" width="5.00" Name="埃拉亚尔" ID="30002977" Region="破碎" y="540.00" /><text y="540.00" x="590.00" id="33424">埃拉亚尔</text><rect Type="system" x="610.00" id="33426" height="5.00" width="5.00" Name="欧耶曼" ID="30002961" Region="破碎" y="590.00" /><text y="590.00" x="610.00" id="33427">欧耶曼</text><rect Type="system" x="610.00" id="33429" height="5.00" width="5.00" Name="尤金" ID="30002101" Region="美特伯里斯" y="30.00" /><text y="30.00" x="610.00" id="33430">尤金</text><rect Type="system" x="620.00" id="33432" height="5.00" width="5.00" Name="古摩洛歌德" ID="30002517" Region="西玛特尔" y="240.00" /><text y="240.00" x="620.00" id="33433">古摩洛歌德</text><rect Type="system" x="629.56" id="33435" height="5.00" width="5.00" Name="哈马" ID="30002981" Region="破碎" y="509.42" /><text y="509.42" x="629.56" id="33436">哈马</text><rect Type="system" x="640.00" id="33438" height="5.00" width="5.00" Name="艾格玛尔" ID="30002099" Region="美特伯里斯" y="120.00" /><text y="120.00" x="640.00" id="33439">艾格玛尔</text><rect Type="system" x="640.00" id="33441" height="5.00" width="5.00" Name="塔夫" ID="30002100" Region="美特伯里斯" y="70.00" /><text y="70.00" x="640.00" id="33442">塔夫</text><rect Type="system" x="649.98" id="33444" height="5.00" width="5.00" Name="若尔" ID="30002958" Region="破碎" y="630.03" /><text y="630.03" x="649.98" id="33445">若尔</text><rect Type="system" x="660.00" id="33447" height="5.00" width="5.00" Name="塔拉燃" ID="30002979" Region="破碎" y="470.00" /><text y="470.00" x="660.00" id="33448">塔拉燃</text><rect Type="system" x="680.00" id="33450" height="5.00" width="5.00" Name="鲁尔姆" ID="30002516" Region="西玛特尔" y="200.00" /><text y="200.00" x="680.00" id="33451">鲁尔姆</text><rect Type="system" x="681.14" id="33453" height="5.00" width="5.00" Name="西非拉尔" ID="30002959" Region="破碎" y="592.21" /><text y="592.21" x="681.14" id="33454">西非拉尔</text><rect Type="system" x="690.00" id="33456" height="5.00" width="5.00" Name="古卡尔拉" ID="30002102" Region="美特伯里斯" y="30.00" /><text y="30.00" x="690.00" id="33457">古卡尔拉</text><rect Type="system" x="710.00" id="33459" height="5.00" width="5.00" Name="波斯伯格" ID="30002514" Region="西玛特尔" y="240.00" /><text y="240.00" x="710.00" id="33460">波斯伯格</text><rect Type="system" x="730.00" id="33462" height="5.00" width="5.00" Name="阿希尔" ID="30002066" Region="美特伯里斯" y="110.00" /><text y="110.00" x="730.00" id="33463">阿希尔</text><rect Type="system" x="740.00" id="33465" height="5.00" width="5.00" Name="拉斯勒努尔" ID="30002065" Region="美特伯里斯" y="160.00" /><text y="160.00" x="740.00" id="33466">拉斯勒努尔</text><rect Type="system" x="760.00" id="33468" height="5.00" width="5.00" Name="俄扎拉" ID="30002962" Region="破碎" y="460.00" /><text y="460.00" x="760.00" id="33469">俄扎拉</text><rect Type="system" x="760.00" id="33471" height="5.00" width="5.00" Name="阿尔扎德" ID="30002960" Region="破碎" y="550.00" /><text y="550.00" x="760.00" id="33472">阿尔扎德</text><rect Type="system" x="799.04" id="33474" height="5.00" width="5.00" Name="伊瓦提" ID="30002060" Region="美特伯里斯" y="101.91" /><text y="101.91" x="799.04" id="33475">伊瓦提</text><rect Type="system" x="810.00" id="33477" height="5.00" width="5.00" Name="欧法斯托德" ID="30002061" Region="美特伯里斯" y="150.00" /><text y="150.00" x="810.00" id="33478">欧法斯托德</text><rect Type="system" x="910.00" id="33480" height="5.00" width="5.00" Name="赫加特德" ID="30002063" Region="美特伯里斯" y="170.00" /><text y="170.00" x="910.00" id="33481">赫加特德</text><rect Type="system" x="900.00" id="33483" height="5.00" width="5.00" Name="托蒂弗伦" ID="30002062" Region="美特伯里斯" y="120.00" /><text y="120.00" x="900.00" id="33484">托蒂弗伦</text><rect Type="system" x="980.00" id="33486" height="5.00" width="5.00" Name="布林" ID="30002067" Region="美特伯里斯" y="170.00" /><text y="170.00" x="980.00" id="33487">布林</text><rect Type="system" x="970.00" id="33489" height="5.00" width="5.00" Name="恩斯图尔" ID="30002064" Region="美特伯里斯" y="120.00" /><text y="120.00" x="970.00" id="33490">恩斯图尔</text><rect Type="system" x="40.00" id="33492" height="5.00" width="5.00" Name="麦伊赫拉" ID="30003075" Region="幽暗之域" y="740.00" /><text y="740.00" x="40.00" id="33493">麦伊赫拉</text><rect Type="system" x="50.00" id="33495" height="5.00" width="5.00" Name="奥德尔尼" ID="30002684" Region="金纳泽" y="130.00" /><text y="130.00" x="50.00" id="33496">奥德尔尼</text><rect Type="system" x="50.00" id="33498" height="5.00" width="5.00" Name="格瑞特西尔" ID="30002653" Region="金纳泽" y="340.00" /><text y="340.00" x="50.00" id="33499">格瑞特西尔</text><rect Type="system" x="80.00" id="33501" height="5.00" width="5.00" Name="勒萨拉卡" ID="30003073" Region="幽暗之域" y="710.00" /><text y="710.00" x="80.00" id="33502">勒萨拉卡</text><rect Type="system" x="120.00" id="33504" height="5.00" width="5.00" Name="赫克" ID="30002053" Region="美特伯里斯" y="60.00" /><text y="60.00" x="120.00" id="33505">赫克</text><rect Type="system" x="180.00" id="33507" height="5.00" width="5.00" Name="厄尔基尼" ID="30003078" Region="幽暗之域" y="680.00" /><text y="680.00" x="180.00" id="33508">厄尔基尼</text><rect Type="system" x="180.00" id="33510" height="5.00" width="5.00" Name="萨塞克" ID="30003074" Region="幽暗之域" y="740.00" /><text y="740.00" x="180.00" id="33511">萨塞克</text><rect Type="system" x="190.00" id="33513" height="5.00" width="5.00" Name="阿莫" ID="30002055" Region="美特伯里斯" y="110.00" /><text y="110.00" x="190.00" id="33514">阿莫</text><rect Type="system" x="210.00" id="33516" height="5.00" width="5.00" Name="霍尔" ID="30002054" Region="美特伯里斯" y="60.00" /><text y="60.00" x="210.00" id="33517">霍尔</text><rect Type="system" x="260.00" id="33519" height="5.00" width="5.00" Name="加姆梅尔" ID="30003076" Region="幽暗之域" y="580.00" /><text y="580.00" x="260.00" id="33520">加姆梅尔</text><rect Type="system" x="329.04" id="33522" height="5.00" width="5.00" Name="库欧米" ID="30003066" Region="幽暗之域" y="601.91" /><text y="601.91" x="329.04" id="33523">库欧米</text><rect Type="system" x="350.96" id="33525" height="5.00" width="5.00" Name="欧特能" ID="30003065" Region="幽暗之域" y="558.09" /><text y="558.09" x="350.96" id="33526">欧特能</text><rect Type="system" x="360.00" id="33528" height="5.00" width="5.00" Name="图欧姆塔" ID="30003064" Region="幽暗之域" y="650.00" /><text y="650.00" x="360.00" id="33529">图欧姆塔</text><rect Type="system" x="370.00" id="33531" height="5.00" width="5.00" Name="伊格赫伦德" ID="30002693" Region="金纳泽" y="270.00" /><text y="270.00" x="370.00" id="33532">伊格赫伦德</text><rect Type="system" x="440.00" id="33534" height="5.00" width="5.00" Name="切文卡" ID="30002965" Region="破碎" y="760.00" /><text y="760.00" x="440.00" id="33535">切文卡</text><rect Type="system" x="580.00" id="33537" height="5.00" width="5.00" Name="欧西德" ID="30002970" Region="破碎" y="710.00" /><text y="710.00" x="580.00" id="33538">欧西德</text><rect Type="system" x="670.00" id="33540" height="5.00" width="5.00" Name="萨索逖库" ID="30002971" Region="破碎" y="680.00" /><text y="680.00" x="670.00" id="33541">萨索逖库</text><rect Type="system" x="659.32" id="33543" height="5.00" width="5.00" Name="米里" ID="30003001" Region="破碎" y="548.34" /><text y="548.34" x="659.32" id="33544">米里</text><rect Type="system" x="730.00" id="33546" height="5.00" width="5.00" Name="戈忒" ID="30002972" Region="破碎" y="680.00" /><text y="680.00" x="730.00" id="33547">戈忒</text><rect Type="system" x="700.00" id="33549" height="5.00" width="5.00" Name="奥索古尔" ID="30002506" Region="西玛特尔" y="330.00" /><text y="330.00" x="700.00" id="33550">奥索古尔</text><rect Type="system" x="800.00" id="33552" height="5.00" width="5.00" Name="莫哈托尔" ID="30002974" Region="破碎" y="670.00" /><text y="670.00" x="800.00" id="33553">莫哈托尔</text><rect Type="system" x="780.00" id="33555" height="5.00" width="5.00" Name="达马林" ID="30002513" Region="西玛特尔" y="250.00" /><text y="250.00" x="780.00" id="33556">达马林</text><rect Type="system" x="780.00" id="33558" height="5.00" width="5.00" Name="阿布德班" ID="30002507" Region="西玛特尔" y="330.00" /><text y="330.00" x="780.00" id="33559">阿布德班</text><rect Type="system" x="880.00" id="33561" height="5.00" width="5.00" Name="尤洱丹" ID="30002969" Region="破碎" y="650.00" /><text y="650.00" x="880.00" id="33562">尤洱丹</text><rect Type="system" x="930.00" id="33564" height="5.00" width="5.00" Name="里苏德尔" ID="30002973" Region="破碎" y="680.00" /><text y="680.00" x="930.00" id="33565">里苏德尔</text><rect Type="system" x="810.00" id="33567" height="5.00" width="5.00" Name="阿拉库古" ID="30002512" Region="西玛特尔" y="290.00" /><text y="290.00" x="810.00" id="33568">阿拉库古</text><rect Type="system" x="810.00" id="33570" height="5.00" width="5.00" Name="欧菲姆" ID="30002515" Region="西玛特尔" y="210.00" /><text y="210.00" x="810.00" id="33571">欧菲姆</text><rect Type="system" x="820.96" id="33573" height="5.00" width="5.00" Name="安赫尔" ID="30002051" Region="美特伯里斯" y="58.09" /><text y="58.09" x="820.96" id="33574">安赫尔</text><rect Type="system" x="870.00" id="33576" height="5.00" width="5.00" Name="伦斯" ID="30002510" Region="西玛特尔" y="350.00" /><text y="350.00" x="870.00" id="33577">伦斯</text><rect Type="system" x="920.00" id="33579" height="5.00" width="5.00" Name="埃加奥" ID="30000200" Region="伏尔戈" y="70.00" /><text y="70.00" x="920.00" id="33580">埃加奥</text><rect Type="system" x="990.00" id="33582" height="5.00" width="5.00" Name="瓜塔特伦" ID="30002560" Region="西玛特尔" y="70.00" /><text y="70.00" x="990.00" id="33583">瓜塔特伦</text><rect Type="system" x="260.00" id="33585" height="5.00" width="5.00" Name="荒渊" ID="30100000" Region="赞颂之域" y="320.00" /><text y="320.00" x="260.00" id="33586">荒渊</text><line style="stroke:blue;fill:blue;" id="33588" x2="40.00" x1="80.00" y1="520.00" y2="740.00" /><line style="stroke:blue;fill:blue;" id="33589" x2="160.00" x1="80.00" y1="520.00" y2="460.00" /><line style="stroke:blue;fill:blue;" id="33590" x2="160.00" x1="90.00" y1="440.00" y2="460.00" /><line style="stroke:blue;fill:blue;" id="33591" x2="259.39" x1="100.00" y1="230.00" y2="231.81" /><line style="stroke:blue;fill:blue;" id="33592" x2="220.00" x1="100.00" y1="230.00" y2="190.00" /><line style="stroke:blue;fill:blue;" id="33593" x2="140.00" x1="100.00" y1="230.00" y2="260.00" /><line style="stroke:blue;fill:blue;" id="33594" x2="120.00" x1="100.00" y1="230.00" y2="150.00" /><line style="stroke:blue;fill:blue;" id="33595" x2="50.00" x1="100.00" y1="380.00" y2="340.00" /><line style="stroke:blue;fill:blue;" id="33596" x2="170.00" x1="100.00" y1="380.00" y2="410.00" /><line style="stroke:blue;fill:blue;" id="33597" x2="220.00" x1="120.00" y1="150.00" y2="190.00" /><line style="stroke:blue;fill:blue;" id="33598" x2="100.00" x1="120.00" y1="150.00" y2="230.00" /><line style="stroke:blue;fill:blue;" id="33599" x2="50.00" x1="120.00" y1="150.00" y2="130.00" /><line style="stroke:blue;fill:blue;" id="33600" x2="180.00" x1="120.00" y1="600.00" y2="580.00" /><line style="stroke:blue;fill:blue;" id="33601" x2="80.00" x1="120.00" y1="600.00" y2="710.00" /><line style="stroke:blue;fill:blue;" id="33602" x2="180.00" x1="120.00" y1="600.00" y2="630.00" /><line style="stroke:blue;fill:blue;" id="33603" x2="220.00" x1="140.00" y1="260.00" y2="190.00" /><line style="stroke:blue;fill:blue;" id="33604" x2="100.00" x1="140.00" y1="260.00" y2="230.00" /><line style="stroke:blue;fill:blue;" id="33605" x2="219.54" x1="140.00" y1="260.00" y2="260.33" /><line style="stroke:blue;fill:blue;" id="33606" x2="150.00" x1="140.00" y1="260.00" y2="190.00" /><line style="stroke:blue;fill:blue;" id="33607" x2="170.00" x1="140.00" y1="260.00" y2="410.00" /><line style="stroke:blue;fill:blue;" id="33608" x2="220.00" x1="150.00" y1="190.00" y2="190.00" /><line style="stroke:blue;fill:blue;" id="33609" x2="140.00" x1="150.00" y1="190.00" y2="260.00" /><line style="stroke:blue;fill:blue;" id="33610" x2="80.00" x1="160.00" y1="460.00" y2="520.00" /><line style="stroke:blue;fill:blue;" id="33611" x2="90.00" x1="160.00" y1="460.00" y2="440.00" /><line style="stroke:blue;fill:blue;" id="33612" x2="240.00" x1="160.00" y1="460.00" y2="440.00" /><line style="stroke:blue;fill:blue;" id="33613" x2="160.00" x1="160.00" y1="460.00" y2="520.00" /><line style="stroke:blue;fill:blue;" id="33614" x2="180.00" x1="160.00" y1="520.00" y2="580.00" /><line style="stroke:blue;fill:blue;" id="33615" x2="160.00" x1="160.00" y1="520.00" y2="460.00" /><line style="stroke:blue;fill:blue;" id="33616" x2="140.00" x1="170.00" y1="410.00" y2="260.00" /><line style="stroke:blue;fill:blue;" id="33617" x2="240.00" x1="170.00" y1="410.00" y2="440.00" /><line style="stroke:blue;fill:blue;" id="33618" x2="100.00" x1="170.00" y1="410.00" y2="380.00" /><line style="stroke:blue;fill:blue;" id="33619" x2="280.00" x1="180.00" y1="580.00" y2="640.00" /><line style="stroke:blue;fill:blue;" id="33620" x2="120.00" x1="180.00" y1="580.00" y2="600.00" /><line style="stroke:blue;fill:blue;" id="33621" x2="260.00" x1="180.00" y1="580.00" y2="580.00" /><line style="stroke:blue;fill:blue;" id="33622" x2="160.00" x1="180.00" y1="580.00" y2="520.00" /><line style="stroke:blue;fill:blue;" id="33623" x2="280.00" x1="180.00" y1="630.00" y2="640.00" /><line style="stroke:blue;fill:blue;" id="33624" x2="120.00" x1="180.00" y1="630.00" y2="600.00" /><line style="stroke:blue;fill:blue;" id="33625" x2="180.00" x1="180.00" y1="630.00" y2="680.00" /><line style="stroke:blue;fill:blue;" id="33626" x2="259.39" x1="219.54" y1="260.33" y2="231.81" /><line style="stroke:blue;fill:blue;" id="33627" x2="220.00" x1="219.54" y1="260.33" y2="190.00" /><line style="stroke:blue;fill:blue;" id="33628" x2="140.00" x1="219.54" y1="260.33" y2="260.00" /><line style="stroke:blue;fill:blue;" id="33629" x2="281.07" x1="220.00" y1="190.00" y2="187.86" /><line style="stroke:blue;fill:blue;" id="33630" x2="259.39" x1="220.00" y1="190.00" y2="231.81" /><line style="stroke:blue;fill:blue;" id="33631" x2="100.00" x1="220.00" y1="190.00" y2="230.00" /><line style="stroke:blue;fill:blue;" id="33632" x2="219.54" x1="220.00" y1="190.00" y2="260.33" /><line style="stroke:blue;fill:blue;" id="33633" x2="140.00" x1="220.00" y1="190.00" y2="260.00" /><line style="stroke:blue;fill:blue;" id="33634" x2="150.00" x1="220.00" y1="190.00" y2="190.00" /><line style="stroke:blue;fill:blue;" id="33635" x2="120.00" x1="220.00" y1="190.00" y2="150.00" /><line style="stroke:blue;fill:blue;" id="33636" x2="520.00" x1="240.00" y1="440.00" y2="430.00" /><line style="stroke:blue;fill:blue;" id="33637" x2="160.00" x1="240.00" y1="440.00" y2="460.00" /><line style="stroke:blue;fill:blue;" id="33638" x2="170.00" x1="240.00" y1="440.00" y2="410.00" /><line style="stroke:blue;fill:blue;" id="33639" x2="190.00" x1="250.00" y1="110.00" y2="110.00" /><line style="stroke:blue;fill:blue;" id="33640" x2="270.00" x1="250.00" y1="110.00" y2="60.00" /><line style="stroke:blue;fill:blue;" id="33641" x2="281.07" x1="259.39" y1="231.81" y2="187.86" /><line style="stroke:blue;fill:blue;" id="33642" x2="220.00" x1="259.39" y1="231.81" y2="190.00" /><line style="stroke:blue;fill:blue;" id="33643" x2="100.00" x1="259.39" y1="231.81" y2="230.00" /><line style="stroke:blue;fill:blue;" id="33644" x2="219.54" x1="259.39" y1="231.81" y2="260.33" /><line style="stroke:blue;fill:blue;" id="33645" x2="210.00" x1="270.00" y1="60.00" y2="60.00" /><line style="stroke:blue;fill:blue;" id="33646" x2="190.00" x1="270.00" y1="60.00" y2="110.00" /><line style="stroke:blue;fill:blue;" id="33647" x2="370.00" x1="270.00" y1="60.00" y2="70.00" /><line style="stroke:blue;fill:blue;" id="33648" x2="250.00" x1="270.00" y1="60.00" y2="110.00" /><line style="stroke:blue;fill:blue;" id="33649" x2="430.00" x1="280.00" y1="640.00" y2="700.00" /><line style="stroke:blue;fill:blue;" id="33650" x2="180.00" x1="280.00" y1="640.00" y2="580.00" /><line style="stroke:blue;fill:blue;" id="33651" x2="180.00" x1="280.00" y1="640.00" y2="740.00" /><line style="stroke:blue;fill:blue;" id="33652" x2="260.00" x1="280.00" y1="640.00" y2="580.00" /><line style="stroke:blue;fill:blue;" id="33653" x2="180.00" x1="280.00" y1="640.00" y2="630.00" /><line style="stroke:blue;fill:blue;" id="33654" x2="330.00" x1="281.07" y1="187.86" y2="120.00" /><line style="stroke:blue;fill:blue;" id="33655" x2="259.39" x1="281.07" y1="187.86" y2="231.81" /><line style="stroke:blue;fill:blue;" id="33656" x2="220.00" x1="281.07" y1="187.86" y2="190.00" /><line style="stroke:blue;fill:blue;" id="33657" x2="370.00" x1="330.00" y1="120.00" y2="70.00" /><line style="stroke:blue;fill:blue;" id="33658" x2="281.07" x1="330.00" y1="120.00" y2="187.86" /><line style="stroke:blue;fill:blue;" id="33659" x2="380.00" x1="330.00" y1="120.00" y2="160.00" /><line style="stroke:blue;fill:blue;" id="33660" x2="270.00" x1="370.00" y1="70.00" y2="60.00" /><line style="stroke:blue;fill:blue;" id="33661" x2="330.00" x1="370.00" y1="70.00" y2="120.00" /><line style="stroke:blue;fill:blue;" id="33662" x2="480.00" x1="370.00" y1="70.00" y2="70.00" /><line style="stroke:blue;fill:blue;" id="33663" x2="480.00" x1="380.00" y1="500.00" y2="500.00" /><line style="stroke:blue;fill:blue;" id="33664" x2="350.96" x1="380.00" y1="500.00" y2="558.09" /><line style="stroke:blue;fill:blue;" id="33665" x2="430.00" x1="380.00" y1="500.00" y2="540.00" /><line style="stroke:blue;fill:blue;" id="33666" x2="330.00" x1="380.00" y1="160.00" y2="120.00" /><line style="stroke:blue;fill:blue;" id="33667" x2="420.00" x1="380.00" y1="160.00" y2="110.00" /><line style="stroke:blue;fill:blue;" id="33668" x2="510.00" x1="380.00" y1="160.00" y2="120.00" /><line style="stroke:blue;fill:blue;" id="33669" x2="460.00" x1="380.00" y1="160.00" y2="190.00" /><line style="stroke:blue;fill:blue;" id="33670" x2="530.00" x1="380.00" y1="160.00" y2="170.00" /><line style="stroke:blue;fill:blue;" id="33671" x2="430.00" x1="380.00" y1="160.00" y2="230.00" /><line style="stroke:blue;fill:blue;" id="33672" x2="520.00" x1="410.00" y1="330.00" y2="370.00" /><line style="stroke:blue;fill:blue;" id="33673" x2="440.00" x1="410.00" y1="330.00" y2="280.00" /><line style="stroke:blue;fill:blue;" id="33674" x2="520.00" x1="410.00" y1="330.00" y2="280.00" /><line style="stroke:blue;fill:blue;" id="33675" x2="380.00" x1="420.00" y1="110.00" y2="160.00" /><line style="stroke:blue;fill:blue;" id="33676" x2="510.00" x1="420.00" y1="110.00" y2="120.00" /><line style="stroke:blue;fill:blue;" id="33677" x2="460.00" x1="420.00" y1="110.00" y2="190.00" /><line style="stroke:blue;fill:blue;" id="33678" x2="530.00" x1="420.00" y1="110.00" y2="170.00" /><line style="stroke:blue;fill:blue;" id="33679" x2="440.00" x1="430.00" y1="540.00" y2="370.00" /><line style="stroke:blue;fill:blue;" id="33680" x2="460.00" x1="430.00" y1="540.00" y2="630.00" /><line style="stroke:blue;fill:blue;" id="33681" x2="380.00" x1="430.00" y1="540.00" y2="500.00" /><line style="stroke:blue;fill:blue;" id="33682" x2="430.00" x1="430.00" y1="540.00" y2="700.00" /><line style="stroke:blue;fill:blue;" id="33683" x2="440.00" x1="430.00" y1="700.00" y2="760.00" /><line style="stroke:blue;fill:blue;" id="33684" x2="580.00" x1="430.00" y1="700.00" y2="710.00" /><line style="stroke:blue;fill:blue;" id="33685" x2="460.00" x1="430.00" y1="700.00" y2="630.00" /><line style="stroke:blue;fill:blue;" id="33686" x2="360.00" x1="430.00" y1="700.00" y2="650.00" /><line style="stroke:blue;fill:blue;" id="33687" x2="430.00" x1="430.00" y1="700.00" y2="540.00" /><line style="stroke:blue;fill:blue;" id="33688" x2="280.00" x1="430.00" y1="700.00" y2="640.00" /><line style="stroke:blue;fill:blue;" id="33689" x2="380.00" x1="430.00" y1="230.00" y2="160.00" /><line style="stroke:blue;fill:blue;" id="33690" x2="460.00" x1="430.00" y1="230.00" y2="190.00" /><line style="stroke:blue;fill:blue;" id="33691" x2="530.00" x1="430.00" y1="230.00" y2="170.00" /><line style="stroke:blue;fill:blue;" id="33692" x2="520.00" x1="430.00" y1="230.00" y2="230.00" /><line style="stroke:blue;fill:blue;" id="33693" x2="440.00" x1="430.00" y1="230.00" y2="280.00" /><line style="stroke:blue;fill:blue;" id="33694" x2="430.00" x1="440.00" y1="280.00" y2="230.00" /><line style="stroke:blue;fill:blue;" id="33695" x2="570.00" x1="440.00" y1="280.00" y2="320.00" /><line style="stroke:blue;fill:blue;" id="33696" x2="520.00" x1="440.00" y1="280.00" y2="370.00" /><line style="stroke:blue;fill:blue;" id="33697" x2="410.00" x1="440.00" y1="280.00" y2="330.00" /><line style="stroke:blue;fill:blue;" id="33698" x2="520.00" x1="440.00" y1="280.00" y2="280.00" /><line style="stroke:blue;fill:blue;" id="33699" x2="440.00" x1="440.00" y1="280.00" y2="370.00" /><line style="stroke:blue;fill:blue;" id="33700" x2="370.00" x1="440.00" y1="280.00" y2="270.00" /><line style="stroke:blue;fill:blue;" id="33701" x2="570.00" x1="440.00" y1="370.00" y2="320.00" /><line style="stroke:blue;fill:blue;" id="33702" x2="440.00" x1="440.00" y1="370.00" y2="280.00" /><line style="stroke:blue;fill:blue;" id="33703" x2="520.00" x1="440.00" y1="370.00" y2="280.00" /><line style="stroke:blue;fill:blue;" id="33704" x2="430.00" x1="440.00" y1="370.00" y2="540.00" /><line style="stroke:blue;fill:blue;" id="33705" x2="380.00" x1="460.00" y1="190.00" y2="160.00" /><line style="stroke:blue;fill:blue;" id="33706" x2="420.00" x1="460.00" y1="190.00" y2="110.00" /><line style="stroke:blue;fill:blue;" id="33707" x2="530.00" x1="460.00" y1="190.00" y2="170.00" /><line style="stroke:blue;fill:blue;" id="33708" x2="430.00" x1="460.00" y1="190.00" y2="230.00" /><line style="stroke:blue;fill:blue;" id="33709" x2="570.00" x1="460.00" y1="630.00" y2="620.00" /><line style="stroke:blue;fill:blue;" id="33710" x2="430.00" x1="460.00" y1="630.00" y2="540.00" /><line style="stroke:blue;fill:blue;" id="33711" x2="430.00" x1="460.00" y1="630.00" y2="700.00" /><line style="stroke:blue;fill:blue;" id="33712" x2="370.00" x1="480.00" y1="70.00" y2="70.00" /><line style="stroke:blue;fill:blue;" id="33713" x2="560.00" x1="480.00" y1="70.00" y2="80.00" /><line style="stroke:blue;fill:blue;" id="33714" x2="520.00" x1="480.00" y1="500.00" y2="540.00" /><line style="stroke:blue;fill:blue;" id="33715" x2="380.00" x1="480.00" y1="500.00" y2="500.00" /><line style="stroke:blue;fill:blue;" id="33716" x2="380.00" x1="510.00" y1="120.00" y2="160.00" /><line style="stroke:blue;fill:blue;" id="33717" x2="420.00" x1="510.00" y1="120.00" y2="110.00" /><line style="stroke:blue;fill:blue;" id="33718" x2="530.00" x1="510.00" y1="120.00" y2="170.00" /><line style="stroke:blue;fill:blue;" id="33719" x2="430.00" x1="520.00" y1="230.00" y2="230.00" /><line style="stroke:blue;fill:blue;" id="33720" x2="520.00" x1="520.00" y1="230.00" y2="280.00" /><line style="stroke:blue;fill:blue;" id="33721" x2="520.00" x1="520.00" y1="280.00" y2="230.00" /><line style="stroke:blue;fill:blue;" id="33722" x2="570.00" x1="520.00" y1="280.00" y2="320.00" /><line style="stroke:blue;fill:blue;" id="33723" x2="520.00" x1="520.00" y1="280.00" y2="370.00" /><line style="stroke:blue;fill:blue;" id="33724" x2="440.00" x1="520.00" y1="280.00" y2="280.00" /><line style="stroke:blue;fill:blue;" id="33725" x2="410.00" x1="520.00" y1="280.00" y2="330.00" /><line style="stroke:blue;fill:blue;" id="33726" x2="440.00" x1="520.00" y1="280.00" y2="370.00" /><line style="stroke:blue;fill:blue;" id="33727" x2="570.00" x1="520.00" y1="370.00" y2="320.00" /><line style="stroke:blue;fill:blue;" id="33728" x2="440.00" x1="520.00" y1="370.00" y2="280.00" /><line style="stroke:blue;fill:blue;" id="33729" x2="410.00" x1="520.00" y1="370.00" y2="330.00" /><line style="stroke:blue;fill:blue;" id="33730" x2="520.00" x1="520.00" y1="370.00" y2="280.00" /><line style="stroke:blue;fill:blue;" id="33731" x2="760.00" x1="520.00" y1="370.00" y2="460.00" /><line style="stroke:blue;fill:blue;" id="33732" x2="480.00" x1="520.00" y1="540.00" y2="500.00" /><line style="stroke:blue;fill:blue;" id="33733" x2="590.00" x1="520.00" y1="540.00" y2="540.00" /><line style="stroke:blue;fill:blue;" id="33734" x2="560.00" x1="520.00" y1="540.00" y2="500.00" /><line style="stroke:blue;fill:blue;" id="33735" x2="380.00" x1="530.00" y1="170.00" y2="160.00" /><line style="stroke:blue;fill:blue;" id="33736" x2="420.00" x1="530.00" y1="170.00" y2="110.00" /><line style="stroke:blue;fill:blue;" id="33737" x2="510.00" x1="530.00" y1="170.00" y2="120.00" /><line style="stroke:blue;fill:blue;" id="33738" x2="460.00" x1="530.00" y1="170.00" y2="190.00" /><line style="stroke:blue;fill:blue;" id="33739" x2="430.00" x1="530.00" y1="170.00" y2="230.00" /><line style="stroke:blue;fill:blue;" id="33740" x2="560.00" x1="520.00" y1="430.00" y2="500.00" /><line style="stroke:blue;fill:blue;" id="33741" x2="660.00" x1="520.00" y1="430.00" y2="470.00" /><line style="stroke:blue;fill:blue;" id="33742" x2="240.00" x1="520.00" y1="430.00" y2="440.00" /><line style="stroke:blue;fill:blue;" id="33743" x2="480.00" x1="560.00" y1="80.00" y2="70.00" /><line style="stroke:blue;fill:blue;" id="33744" x2="640.00" x1="560.00" y1="80.00" y2="120.00" /><line style="stroke:blue;fill:blue;" id="33745" x2="520.00" x1="560.00" y1="500.00" y2="540.00" /><line style="stroke:blue;fill:blue;" id="33746" x2="590.00" x1="560.00" y1="500.00" y2="540.00" /><line style="stroke:blue;fill:blue;" id="33747" x2="660.00" x1="560.00" y1="500.00" y2="470.00" /><line style="stroke:blue;fill:blue;" id="33748" x2="520.00" x1="560.00" y1="500.00" y2="430.00" /><line style="stroke:blue;fill:blue;" id="33749" x2="629.56" x1="560.00" y1="500.00" y2="509.42" /><line style="stroke:blue;fill:blue;" id="33750" x2="700.00" x1="570.00" y1="320.00" y2="330.00" /><line style="stroke:blue;fill:blue;" id="33751" x2="620.00" x1="570.00" y1="320.00" y2="240.00" /><line style="stroke:blue;fill:blue;" id="33752" x2="520.00" x1="570.00" y1="320.00" y2="370.00" /><line style="stroke:blue;fill:blue;" id="33753" x2="440.00" x1="570.00" y1="320.00" y2="280.00" /><line style="stroke:blue;fill:blue;" id="33754" x2="520.00" x1="570.00" y1="320.00" y2="280.00" /><line style="stroke:blue;fill:blue;" id="33755" x2="440.00" x1="570.00" y1="320.00" y2="370.00" /><line style="stroke:blue;fill:blue;" id="33756" x2="649.98" x1="570.00" y1="620.00" y2="630.03" /><line style="stroke:blue;fill:blue;" id="33757" x2="681.14" x1="570.00" y1="620.00" y2="592.21" /><line style="stroke:blue;fill:blue;" id="33758" x2="610.00" x1="570.00" y1="620.00" y2="590.00" /><line style="stroke:blue;fill:blue;" id="33759" x2="460.00" x1="570.00" y1="620.00" y2="630.00" /><line style="stroke:blue;fill:blue;" id="33760" x2="520.00" x1="590.00" y1="540.00" y2="540.00" /><line style="stroke:blue;fill:blue;" id="33761" x2="560.00" x1="590.00" y1="540.00" y2="500.00" /><line style="stroke:blue;fill:blue;" id="33762" x2="629.56" x1="590.00" y1="540.00" y2="509.42" /><line style="stroke:blue;fill:blue;" id="33763" x2="570.00" x1="610.00" y1="590.00" y2="620.00" /><line style="stroke:blue;fill:blue;" id="33764" x2="681.14" x1="610.00" y1="590.00" y2="592.21" /><line style="stroke:blue;fill:blue;" id="33765" x2="640.00" x1="610.00" y1="30.00" y2="70.00" /><line style="stroke:blue;fill:blue;" id="33766" x2="690.00" x1="610.00" y1="30.00" y2="30.00" /><line style="stroke:blue;fill:blue;" id="33767" x2="640.00" x1="620.00" y1="240.00" y2="120.00" /><line style="stroke:blue;fill:blue;" id="33768" x2="710.00" x1="620.00" y1="240.00" y2="240.00" /><line style="stroke:blue;fill:blue;" id="33769" x2="680.00" x1="620.00" y1="240.00" y2="200.00" /><line style="stroke:blue;fill:blue;" id="33770" x2="570.00" x1="620.00" y1="240.00" y2="320.00" /><line style="stroke:blue;fill:blue;" id="33771" x2="590.00" x1="629.56" y1="509.42" y2="540.00" /><line style="stroke:blue;fill:blue;" id="33772" x2="560.00" x1="629.56" y1="509.42" y2="500.00" /><line style="stroke:blue;fill:blue;" id="33773" x2="660.00" x1="629.56" y1="509.42" y2="470.00" /><line style="stroke:blue;fill:blue;" id="33774" x2="659.32" x1="629.56" y1="509.42" y2="548.34" /><line style="stroke:blue;fill:blue;" id="33775" x2="730.00" x1="640.00" y1="120.00" y2="110.00" /><line style="stroke:blue;fill:blue;" id="33776" x2="560.00" x1="640.00" y1="120.00" y2="80.00" /><line style="stroke:blue;fill:blue;" id="33777" x2="640.00" x1="640.00" y1="120.00" y2="70.00" /><line style="stroke:blue;fill:blue;" id="33778" x2="620.00" x1="640.00" y1="120.00" y2="240.00" /><line style="stroke:blue;fill:blue;" id="33779" x2="640.00" x1="640.00" y1="70.00" y2="120.00" /><line style="stroke:blue;fill:blue;" id="33780" x2="610.00" x1="640.00" y1="70.00" y2="30.00" /><line style="stroke:blue;fill:blue;" id="33781" x2="690.00" x1="640.00" y1="70.00" y2="30.00" /><line style="stroke:blue;fill:blue;" id="33782" x2="570.00" x1="649.98" y1="630.03" y2="620.00" /><line style="stroke:blue;fill:blue;" id="33783" x2="681.14" x1="649.98" y1="630.03" y2="592.21" /><line style="stroke:blue;fill:blue;" id="33784" x2="800.00" x1="649.98" y1="630.03" y2="670.00" /><line style="stroke:blue;fill:blue;" id="33785" x2="760.00" x1="660.00" y1="470.00" y2="550.00" /><line style="stroke:blue;fill:blue;" id="33786" x2="560.00" x1="660.00" y1="470.00" y2="500.00" /><line style="stroke:blue;fill:blue;" id="33787" x2="520.00" x1="660.00" y1="470.00" y2="430.00" /><line style="stroke:blue;fill:blue;" id="33788" x2="629.56" x1="660.00" y1="470.00" y2="509.42" /><line style="stroke:blue;fill:blue;" id="33789" x2="710.00" x1="680.00" y1="200.00" y2="240.00" /><line style="stroke:blue;fill:blue;" id="33790" x2="620.00" x1="680.00" y1="200.00" y2="240.00" /><line style="stroke:blue;fill:blue;" id="33791" x2="570.00" x1="681.14" y1="592.21" y2="620.00" /><line style="stroke:blue;fill:blue;" id="33792" x2="649.98" x1="681.14" y1="592.21" y2="630.03" /><line style="stroke:blue;fill:blue;" id="33793" x2="760.00" x1="681.14" y1="592.21" y2="550.00" /><line style="stroke:blue;fill:blue;" id="33794" x2="610.00" x1="681.14" y1="592.21" y2="590.00" /><line style="stroke:blue;fill:blue;" id="33795" x2="640.00" x1="690.00" y1="30.00" y2="70.00" /><line style="stroke:blue;fill:blue;" id="33796" x2="610.00" x1="690.00" y1="30.00" y2="30.00" /><line style="stroke:blue;fill:blue;" id="33797" x2="780.00" x1="710.00" y1="240.00" y2="250.00" /><line style="stroke:blue;fill:blue;" id="33798" x2="680.00" x1="710.00" y1="240.00" y2="200.00" /><line style="stroke:blue;fill:blue;" id="33799" x2="620.00" x1="710.00" y1="240.00" y2="240.00" /><line style="stroke:blue;fill:blue;" id="33800" x2="799.04" x1="730.00" y1="110.00" y2="101.91" /><line style="stroke:blue;fill:blue;" id="33801" x2="740.00" x1="730.00" y1="110.00" y2="160.00" /><line style="stroke:blue;fill:blue;" id="33802" x2="640.00" x1="730.00" y1="110.00" y2="120.00" /><line style="stroke:blue;fill:blue;" id="33803" x2="799.04" x1="740.00" y1="160.00" y2="101.91" /><line style="stroke:blue;fill:blue;" id="33804" x2="810.00" x1="740.00" y1="160.00" y2="150.00" /><line style="stroke:blue;fill:blue;" id="33805" x2="730.00" x1="740.00" y1="160.00" y2="110.00" /><line style="stroke:blue;fill:blue;" id="33806" x2="520.00" x1="760.00" y1="460.00" y2="370.00" /><line style="stroke:blue;fill:blue;" id="33807" x2="760.00" x1="760.00" y1="460.00" y2="550.00" /><line style="stroke:blue;fill:blue;" id="33808" x2="681.14" x1="760.00" y1="550.00" y2="592.21" /><line style="stroke:blue;fill:blue;" id="33809" x2="760.00" x1="760.00" y1="550.00" y2="460.00" /><line style="stroke:blue;fill:blue;" id="33810" x2="660.00" x1="760.00" y1="550.00" y2="470.00" /><line style="stroke:blue;fill:blue;" id="33811" x2="820.96" x1="799.04" y1="101.91" y2="58.09" /><line style="stroke:blue;fill:blue;" id="33812" x2="810.00" x1="799.04" y1="101.91" y2="150.00" /><line style="stroke:blue;fill:blue;" id="33813" x2="900.00" x1="799.04" y1="101.91" y2="120.00" /><line style="stroke:blue;fill:blue;" id="33814" x2="740.00" x1="799.04" y1="101.91" y2="160.00" /><line style="stroke:blue;fill:blue;" id="33815" x2="730.00" x1="799.04" y1="101.91" y2="110.00" /><line style="stroke:blue;fill:blue;" id="33816" x2="799.04" x1="810.00" y1="150.00" y2="101.91" /><line style="stroke:blue;fill:blue;" id="33817" x2="740.00" x1="810.00" y1="150.00" y2="160.00" /><line style="stroke:blue;fill:blue;" id="33818" x2="900.00" x1="910.00" y1="170.00" y2="120.00" /><line style="stroke:blue;fill:blue;" id="33819" x2="970.00" x1="910.00" y1="170.00" y2="120.00" /><line style="stroke:blue;fill:blue;" id="33820" x2="980.00" x1="910.00" y1="170.00" y2="170.00" /><line style="stroke:blue;fill:blue;" id="33821" x2="920.00" x1="900.00" y1="120.00" y2="70.00" /><line style="stroke:blue;fill:blue;" id="33822" x2="799.04" x1="900.00" y1="120.00" y2="101.91" /><line style="stroke:blue;fill:blue;" id="33823" x2="910.00" x1="900.00" y1="120.00" y2="170.00" /><line style="stroke:blue;fill:blue;" id="33824" x2="970.00" x1="900.00" y1="120.00" y2="120.00" /><line style="stroke:blue;fill:blue;" id="33825" x2="910.00" x1="980.00" y1="170.00" y2="170.00" /><line style="stroke:blue;fill:blue;" id="33826" x2="970.00" x1="980.00" y1="170.00" y2="120.00" /><line style="stroke:blue;fill:blue;" id="33827" x2="900.00" x1="970.00" y1="120.00" y2="120.00" /><line style="stroke:blue;fill:blue;" id="33828" x2="910.00" x1="970.00" y1="120.00" y2="170.00" /><line style="stroke:blue;fill:blue;" id="33829" x2="980.00" x1="970.00" y1="120.00" y2="170.00" /><line style="stroke:blue;fill:blue;" id="33830" x2="990.00" x1="970.00" y1="120.00" y2="70.00" /><line style="stroke:blue;fill:blue;" id="33831" x2="80.00" x1="40.00" y1="740.00" y2="710.00" /><line style="stroke:blue;fill:blue;" id="33832" x2="180.00" x1="40.00" y1="740.00" y2="740.00" /><line style="stroke:blue;fill:blue;" id="33833" x2="80.00" x1="40.00" y1="740.00" y2="520.00" /><line style="stroke:blue;fill:blue;" id="33834" x2="120.00" x1="50.00" y1="130.00" y2="150.00" /><line style="stroke:blue;fill:blue;" id="33835" x2="100.00" x1="50.00" y1="340.00" y2="380.00" /><line style="stroke:blue;fill:blue;" id="33836" x2="120.00" x1="80.00" y1="710.00" y2="600.00" /><line style="stroke:blue;fill:blue;" id="33837" x2="180.00" x1="80.00" y1="710.00" y2="740.00" /><line style="stroke:blue;fill:blue;" id="33838" x2="40.00" x1="80.00" y1="710.00" y2="740.00" /><line style="stroke:blue;fill:blue;" id="33839" x2="210.00" x1="120.00" y1="60.00" y2="60.00" /><line style="stroke:blue;fill:blue;" id="33840" x2="180.00" x1="180.00" y1="680.00" y2="630.00" /><line style="stroke:blue;fill:blue;" id="33841" x2="280.00" x1="180.00" y1="740.00" y2="640.00" /><line style="stroke:blue;fill:blue;" id="33842" x2="80.00" x1="180.00" y1="740.00" y2="710.00" /><line style="stroke:blue;fill:blue;" id="33843" x2="40.00" x1="180.00" y1="740.00" y2="740.00" /><line style="stroke:blue;fill:blue;" id="33844" x2="210.00" x1="190.00" y1="110.00" y2="60.00" /><line style="stroke:blue;fill:blue;" id="33845" x2="270.00" x1="190.00" y1="110.00" y2="60.00" /><line style="stroke:blue;fill:blue;" id="33846" x2="250.00" x1="190.00" y1="110.00" y2="110.00" /><line style="stroke:blue;fill:blue;" id="33847" x2="120.00" x1="210.00" y1="60.00" y2="60.00" /><line style="stroke:blue;fill:blue;" id="33848" x2="190.00" x1="210.00" y1="60.00" y2="110.00" /><line style="stroke:blue;fill:blue;" id="33849" x2="270.00" x1="210.00" y1="60.00" y2="60.00" /><line style="stroke:blue;fill:blue;" id="33850" x2="280.00" x1="260.00" y1="580.00" y2="640.00" /><line style="stroke:blue;fill:blue;" id="33851" x2="180.00" x1="260.00" y1="580.00" y2="580.00" /><line style="stroke:blue;fill:blue;" id="33852" x2="360.00" x1="329.04" y1="601.91" y2="650.00" /><line style="stroke:blue;fill:blue;" id="33853" x2="350.96" x1="329.04" y1="601.91" y2="558.09" /><line style="stroke:blue;fill:blue;" id="33854" x2="329.04" x1="350.96" y1="558.09" y2="601.91" /><line style="stroke:blue;fill:blue;" id="33855" x2="380.00" x1="350.96" y1="558.09" y2="500.00" /><line style="stroke:blue;fill:blue;" id="33856" x2="329.04" x1="360.00" y1="650.00" y2="601.91" /><line style="stroke:blue;fill:blue;" id="33857" x2="430.00" x1="360.00" y1="650.00" y2="700.00" /><line style="stroke:blue;fill:blue;" id="33858" x2="440.00" x1="370.00" y1="270.00" y2="280.00" /><line style="stroke:blue;fill:blue;" id="33859" x2="430.00" x1="440.00" y1="760.00" y2="700.00" /><line style="stroke:blue;fill:blue;" id="33860" x2="670.00" x1="580.00" y1="710.00" y2="680.00" /><line style="stroke:blue;fill:blue;" id="33861" x2="430.00" x1="580.00" y1="710.00" y2="700.00" /><line style="stroke:blue;fill:blue;" id="33862" x2="580.00" x1="670.00" y1="680.00" y2="710.00" /><line style="stroke:blue;fill:blue;" id="33863" x2="730.00" x1="670.00" y1="680.00" y2="680.00" /><line style="stroke:blue;fill:blue;" id="33864" x2="629.56" x1="659.32" y1="548.34" y2="509.42" /><line style="stroke:blue;fill:blue;" id="33865" x2="670.00" x1="730.00" y1="680.00" y2="680.00" /><line style="stroke:blue;fill:blue;" id="33866" x2="800.00" x1="730.00" y1="680.00" y2="670.00" /><line style="stroke:blue;fill:blue;" id="33867" x2="780.00" x1="700.00" y1="330.00" y2="330.00" /><line style="stroke:blue;fill:blue;" id="33868" x2="570.00" x1="700.00" y1="330.00" y2="320.00" /><line style="stroke:blue;fill:blue;" id="33869" x2="649.98" x1="800.00" y1="670.00" y2="630.03" /><line style="stroke:blue;fill:blue;" id="33870" x2="880.00" x1="800.00" y1="670.00" y2="650.00" /><line style="stroke:blue;fill:blue;" id="33871" x2="730.00" x1="800.00" y1="670.00" y2="680.00" /><line style="stroke:blue;fill:blue;" id="33872" x2="810.00" x1="780.00" y1="250.00" y2="290.00" /><line style="stroke:blue;fill:blue;" id="33873" x2="710.00" x1="780.00" y1="250.00" y2="240.00" /><line style="stroke:blue;fill:blue;" id="33874" x2="810.00" x1="780.00" y1="250.00" y2="210.00" /><line style="stroke:blue;fill:blue;" id="33875" x2="700.00" x1="780.00" y1="330.00" y2="330.00" /><line style="stroke:blue;fill:blue;" id="33876" x2="870.00" x1="780.00" y1="330.00" y2="350.00" /><line style="stroke:blue;fill:blue;" id="33877" x2="810.00" x1="780.00" y1="330.00" y2="290.00" /><line style="stroke:blue;fill:blue;" id="33878" x2="930.00" x1="880.00" y1="650.00" y2="680.00" /><line style="stroke:blue;fill:blue;" id="33879" x2="800.00" x1="880.00" y1="650.00" y2="670.00" /><line style="stroke:blue;fill:blue;" id="33880" x2="880.00" x1="930.00" y1="680.00" y2="650.00" /><line style="stroke:blue;fill:blue;" id="33881" x2="780.00" x1="810.00" y1="290.00" y2="330.00" /><line style="stroke:blue;fill:blue;" id="33882" x2="780.00" x1="810.00" y1="290.00" y2="250.00" /><line style="stroke:blue;fill:blue;" id="33883" x2="780.00" x1="810.00" y1="210.00" y2="250.00" /><line style="stroke:blue;fill:blue;" id="33884" x2="799.04" x1="820.96" y1="58.09" y2="101.91" /><line style="stroke:blue;fill:blue;" id="33885" x2="780.00" x1="870.00" y1="350.00" y2="330.00" /><line style="stroke:blue;fill:blue;" id="33886" x2="900.00" x1="920.00" y1="70.00" y2="120.00" /><line style="stroke:blue;fill:blue;" id="33887" x2="970.00" x1="990.00" y1="70.00" y2="120.00" /></svg>
