<?xml version="1.0" standalone="yes"?><!DOCTYPE svg PUBLIC "-//W3C//DTD SVG 1.1//EN" "http://www.w3.org/Graphics/SVG/1.1/DTD/svg11.dtd"[]><svg height="800.00" id="21999" width="1050.00" xmlns="http://www.w3.org/2000/svg" xmlns:xlink="http://www.w3.org/1999/xlink"><rect Type="system" Region="摄魂之域" height="5.00" y="700.00" Name="LX5K-W" width="5.00" x="20.00" id="22000" ID="30004705" /><text x="20.00" y="700.00" id="22001">LX5K-W</text><rect Type="system" Region="摄魂之域" height="5.00" y="750.00" Name="ZDYA-G" width="5.00" x="80.00" id="22003" ID="30004704" /><text x="80.00" y="750.00" id="22004">ZDYA-G</text><rect Type="system" Region="摄魂之域" height="5.00" y="680.00" Name="O-N589" width="5.00" x="100.00" id="22006" ID="30004703" /><text x="100.00" y="680.00" id="22007">O-N589</text><rect Type="system" Region="摄魂之域" height="5.00" y="50.00" Name="G-M4GK" width="5.00" x="120.00" id="22009" ID="30004696" /><text x="120.00" y="50.00" id="22010">G-M4GK</text><rect Type="system" Region="摄魂之域" height="5.00" y="650.00" Name="MP5-KR" width="5.00" x="150.00" id="22012" ID="30004702" /><text x="150.00" y="650.00" id="22013">MP5-KR</text><rect Type="system" Region="摄魂之域" height="5.00" y="620.00" Name="ZBY-0I" width="5.00" x="200.00" id="22015" ID="30004701" /><text x="200.00" y="620.00" id="22016">ZBY-0I</text><rect Type="system" Region="摄魂之域" height="5.00" y="20.00" Name="O1Q-P1" width="5.00" x="200.00" id="22018" ID="30004699" /><text x="200.00" y="20.00" id="22019">O1Q-P1</text><rect Type="system" Region="摄魂之域" height="5.00" y="80.00" Name="0SUF-3" width="5.00" x="200.00" id="22021" ID="30004695" /><text x="200.00" y="80.00" id="22022">0SUF-3</text><rect Type="system" Region="摄魂之域" height="5.00" y="100.00" Name="G1D0-G" width="5.00" x="250.00" id="22024" ID="30004697" /><text x="250.00" y="100.00" id="22025">G1D0-G</text><rect Type="system" Region="摄魂之域" height="5.00" y="580.00" Name="LD-2VL" width="5.00" x="250.00" id="22027" ID="30004700" /><text x="250.00" y="580.00" id="22028">LD-2VL</text><rect Type="system" Region="摄魂之域" height="5.00" y="50.00" Name="GQ2S-8" width="5.00" x="280.00" id="22030" ID="30004694" /><text x="280.00" y="50.00" id="22031">GQ2S-8</text><rect Type="system" Region="摄魂之域" height="5.00" y="510.00" Name="JK-GLL" width="5.00" x="290.00" id="22033" ID="30004684" /><text x="290.00" y="510.00" id="22034">JK-GLL</text><rect Type="system" Region="摄魂之域" height="5.00" y="380.00" Name="8Q-UYU" width="5.00" x="300.00" id="22036" ID="30004681" /><text x="300.00" y="380.00" id="22037">8Q-UYU</text><rect Type="system" Region="摄魂之域" height="5.00" y="100.00" Name="KU3-BB" width="5.00" x="320.00" id="22039" ID="30004698" /><text x="320.00" y="100.00" id="22040">KU3-BB</text><rect Type="system" Region="摄魂之域" height="5.00" y="473.77" Name="S-KU8B" width="5.00" x="329.06" id="22042" ID="30004683" /><text x="329.06" y="473.77" id="22043">S-KU8B</text><rect Type="system" Region="摄魂之域" height="5.00" y="320.00" Name="LUL-WX" width="5.00" x="350.00" id="22045" ID="30004680" /><text x="350.00" y="320.00" id="22046">LUL-WX</text><rect Type="system" Region="摄魂之域" height="5.00" y="426.23" Name="3PPT-9" width="5.00" x="340.94" id="22048" ID="30004682" /><text x="340.94" y="426.23" id="22049">3PPT-9</text><rect Type="system" Region="摄魂之域" height="5.00" y="50.00" Name="2I-520" width="5.00" x="350.00" id="22051" ID="30004693" /><text x="350.00" y="50.00" id="22052">2I-520</text><rect Type="system" Region="摄魂之域" height="5.00" y="391.91" Name="UAAU-C" width="5.00" x="379.04" id="22054" ID="30004685" /><text x="379.04" y="391.91" id="22055">UAAU-C</text><rect Type="system" Region="摄魂之域" height="5.00" y="348.09" Name="YV-FDG" width="5.00" x="400.96" id="22057" ID="30004679" /><text x="400.96" y="348.09" id="22058">YV-FDG</text><rect Type="system" Region="摄魂之域" height="5.00" y="50.00" Name="O-97ZG" width="5.00" x="450.00" id="22060" ID="30004692" /><text x="450.00" y="50.00" id="22061">O-97ZG</text><rect Type="system" Region="摄魂之域" height="5.00" y="150.00" Name="AA-GWF" width="5.00" x="450.00" id="22063" ID="30004690" /><text x="450.00" y="150.00" id="22064">AA-GWF</text><rect Type="system" Region="摄魂之域" height="5.00" y="220.00" Name="HHJD-5" width="5.00" x="450.00" id="22066" ID="30004686" /><text x="450.00" y="220.00" id="22067">HHJD-5</text><rect Type="system" Region="摄魂之域" height="5.00" y="280.00" Name="H8-ZTO" width="5.00" x="480.00" id="22069" ID="30004678" /><text x="480.00" y="280.00" id="22070">H8-ZTO</text><rect Type="system" Region="摄魂之域" height="5.00" y="100.00" Name="LG-WA9" width="5.00" x="500.00" id="22072" ID="30004689" /><text x="500.00" y="100.00" id="22073">LG-WA9</text><rect Type="system" Region="摄魂之域" height="5.00" y="320.00" Name="0ZN7-G" width="5.00" x="520.00" id="22075" ID="30004677" /><text x="520.00" y="320.00" id="22076">0ZN7-G</text><rect Type="system" Region="摄魂之域" height="5.00" y="50.00" Name="O4T-Z5" width="5.00" x="550.00" id="22078" ID="30004691" /><text x="550.00" y="50.00" id="22079">O4T-Z5</text><rect Type="system" Region="摄魂之域" height="5.00" y="150.00" Name="ZWV-GD" width="5.00" x="550.00" id="22081" ID="30004687" /><text x="550.00" y="150.00" id="22082">ZWV-GD</text><rect Type="system" Region="摄魂之域" height="5.00" y="220.00" Name="1DDR-X" width="5.00" x="550.00" id="22084" ID="30004688" /><text x="550.00" y="220.00" id="22085">1DDR-X</text><rect Type="system" Region="埃索特亚" height="5.00" y="50.00" Name="R-ARKN" width="5.00" x="620.00" id="22087" ID="30003151" /><text x="620.00" y="50.00" id="22088">R-ARKN</text><rect Type="system" Region="摄魂之域" height="5.00" y="350.00" Name="T-ZFID" width="5.00" x="620.00" id="22090" ID="30004676" /><text x="620.00" y="350.00" id="22091">T-ZFID</text><rect Type="system" Region="埃索特亚" height="5.00" y="50.00" Name="02V-BK" width="5.00" x="700.00" id="22093" ID="30003149" /><text x="700.00" y="50.00" id="22094">02V-BK</text><rect Type="system" Region="摄魂之域" height="5.00" y="350.00" Name="0-MX34" width="5.00" x="720.00" id="22096" ID="30004674" /><text x="720.00" y="350.00" id="22097">0-MX34</text><rect Type="system" Region="摄魂之域" height="5.00" y="280.00" Name="5AQ-5H" width="5.00" x="750.00" id="22099" ID="30004675" /><text x="750.00" y="280.00" id="22100">5AQ-5H</text><rect Type="system" Region="埃索特亚" height="5.00" y="80.00" Name="JD-TYH" width="5.00" x="780.00" id="22102" ID="30003148" /><text x="780.00" y="80.00" id="22103">JD-TYH</text><rect Type="system" Region="摄魂之域" height="5.00" y="300.00" Name="4Y-OBL" width="5.00" x="800.00" id="22105" ID="30004673" /><text x="800.00" y="300.00" id="22106">4Y-OBL</text><rect Type="system" Region="摄魂之域" height="5.00" y="180.00" Name="JI-K5H" width="5.00" x="850.00" id="22108" ID="30004667" /><text x="850.00" y="180.00" id="22109">JI-K5H</text><rect Type="system" Region="摄魂之域" height="5.00" y="250.00" Name="33-JRO" width="5.00" x="850.00" id="22111" ID="30004668" /><text x="850.00" y="250.00" id="22112">33-JRO</text><rect Type="system" Region="摄魂之域" height="5.00" y="300.00" Name="5-CSE3" width="5.00" x="900.00" id="22114" ID="30004670" /><text x="900.00" y="300.00" id="22115">5-CSE3</text><rect Type="system" Region="摄魂之域" height="5.00" y="220.00" Name="ARBX-9" width="5.00" x="900.00" id="22117" ID="30004669" /><text x="900.00" y="220.00" id="22118">ARBX-9</text><rect Type="system" Region="摄魂之域" height="5.00" y="180.00" Name="O-MCZR" width="5.00" x="950.00" id="22120" ID="30004671" /><text x="950.00" y="180.00" id="22121">O-MCZR</text><rect Type="system" Region="摄魂之域" height="5.00" y="250.00" Name="9T-APQ" width="5.00" x="950.00" id="22123" ID="30004672" /><text x="950.00" y="250.00" id="22124">9T-APQ</text><rect Type="system" Region="贝斯" height="5.00" y="50.00" Name="TCAG-3" width="5.00" x="50.00" id="22126" ID="30004937" /><text x="50.00" y="50.00" id="22127">TCAG-3</text><rect Type="system" Region="埃索特亚" height="5.00" y="100.00" Name="MS2-V8" width="5.00" x="620.00" id="22129" ID="30003153" /><text x="620.00" y="100.00" id="22130">MS2-V8</text><rect Type="system" Region="埃索特亚" height="5.00" y="20.00" Name="DL-CDY" width="5.00" x="750.00" id="22132" ID="30003170" /><text x="750.00" y="20.00" id="22133">DL-CDY</text><rect Type="system" Region="埃索特亚" height="5.00" y="120.00" Name="A5MT-B" width="5.00" x="750.00" id="22135" ID="30003150" /><text x="750.00" y="120.00" id="22136">A5MT-B</text><rect Type="system" Region="埃索特亚" height="5.00" y="120.00" Name="SN9S-N" width="5.00" x="820.00" id="22138" ID="30003152" /><text x="820.00" y="120.00" id="22139">SN9S-N</text><rect Type="system" Region="埃索特亚" height="5.00" y="50.00" Name="450I-W" width="5.00" x="850.00" id="22141" ID="30003131" /><text x="850.00" y="50.00" id="22142">450I-W</text><rect Type="system" Region="埃索特亚" height="5.00" y="120.00" Name="KSM-1T" width="5.00" x="950.00" id="22144" ID="30003177" /><text x="950.00" y="120.00" id="22145">KSM-1T</text><line x2="100.00" style="fill:blue;stroke:blue;" y1="700.00" x1="20.00" id="22147" y2="680.00" /><line x2="80.00" style="fill:blue;stroke:blue;" y1="700.00" x1="20.00" id="22148" y2="750.00" /><line x2="100.00" style="fill:blue;stroke:blue;" y1="750.00" x1="80.00" id="22149" y2="680.00" /><line x2="20.00" style="fill:blue;stroke:blue;" y1="750.00" x1="80.00" id="22150" y2="700.00" /><line x2="150.00" style="fill:blue;stroke:blue;" y1="680.00" x1="100.00" id="22151" y2="650.00" /><line x2="80.00" style="fill:blue;stroke:blue;" y1="680.00" x1="100.00" id="22152" y2="750.00" /><line x2="20.00" style="fill:blue;stroke:blue;" y1="680.00" x1="100.00" id="22153" y2="700.00" /><line x2="200.00" style="fill:blue;stroke:blue;" y1="50.00" x1="120.00" id="22154" y2="80.00" /><line x2="50.00" style="fill:blue;stroke:blue;" y1="50.00" x1="120.00" id="22155" y2="50.00" /><line x2="200.00" style="fill:blue;stroke:blue;" y1="650.00" x1="150.00" id="22156" y2="620.00" /><line x2="100.00" style="fill:blue;stroke:blue;" y1="650.00" x1="150.00" id="22157" y2="680.00" /><line x2="250.00" style="fill:blue;stroke:blue;" y1="620.00" x1="200.00" id="22158" y2="580.00" /><line x2="150.00" style="fill:blue;stroke:blue;" y1="620.00" x1="200.00" id="22159" y2="650.00" /><line x2="200.00" style="fill:blue;stroke:blue;" y1="20.00" x1="200.00" id="22160" y2="80.00" /><line x2="280.00" style="fill:blue;stroke:blue;" y1="80.00" x1="200.00" id="22161" y2="50.00" /><line x2="120.00" style="fill:blue;stroke:blue;" y1="80.00" x1="200.00" id="22162" y2="50.00" /><line x2="200.00" style="fill:blue;stroke:blue;" y1="80.00" x1="200.00" id="22163" y2="20.00" /><line x2="280.00" style="fill:blue;stroke:blue;" y1="100.00" x1="250.00" id="22164" y2="50.00" /><line x2="290.00" style="fill:blue;stroke:blue;" y1="580.00" x1="250.00" id="22165" y2="510.00" /><line x2="200.00" style="fill:blue;stroke:blue;" y1="580.00" x1="250.00" id="22166" y2="620.00" /><line x2="350.00" style="fill:blue;stroke:blue;" y1="50.00" x1="280.00" id="22167" y2="50.00" /><line x2="200.00" style="fill:blue;stroke:blue;" y1="50.00" x1="280.00" id="22168" y2="80.00" /><line x2="250.00" style="fill:blue;stroke:blue;" y1="50.00" x1="280.00" id="22169" y2="100.00" /><line x2="320.00" style="fill:blue;stroke:blue;" y1="50.00" x1="280.00" id="22170" y2="100.00" /><line x2="329.06" style="fill:blue;stroke:blue;" y1="510.00" x1="290.00" id="22171" y2="473.77" /><line x2="250.00" style="fill:blue;stroke:blue;" y1="510.00" x1="290.00" id="22172" y2="580.00" /><line x2="400.96" style="fill:blue;stroke:blue;" y1="380.00" x1="300.00" id="22173" y2="348.09" /><line x2="350.00" style="fill:blue;stroke:blue;" y1="380.00" x1="300.00" id="22174" y2="320.00" /><line x2="340.94" style="fill:blue;stroke:blue;" y1="380.00" x1="300.00" id="22175" y2="426.23" /><line x2="379.04" style="fill:blue;stroke:blue;" y1="380.00" x1="300.00" id="22176" y2="391.91" /><line x2="280.00" style="fill:blue;stroke:blue;" y1="100.00" x1="320.00" id="22177" y2="50.00" /><line x2="340.94" style="fill:blue;stroke:blue;" y1="473.77" x1="329.06" id="22178" y2="426.23" /><line x2="290.00" style="fill:blue;stroke:blue;" y1="473.77" x1="329.06" id="22179" y2="510.00" /><line x2="400.96" style="fill:blue;stroke:blue;" y1="320.00" x1="350.00" id="22180" y2="348.09" /><line x2="300.00" style="fill:blue;stroke:blue;" y1="320.00" x1="350.00" id="22181" y2="380.00" /><line x2="300.00" style="fill:blue;stroke:blue;" y1="426.23" x1="340.94" id="22182" y2="380.00" /><line x2="329.06" style="fill:blue;stroke:blue;" y1="426.23" x1="340.94" id="22183" y2="473.77" /><line x2="379.04" style="fill:blue;stroke:blue;" y1="426.23" x1="340.94" id="22184" y2="391.91" /><line x2="450.00" style="fill:blue;stroke:blue;" y1="50.00" x1="350.00" id="22185" y2="50.00" /><line x2="280.00" style="fill:blue;stroke:blue;" y1="50.00" x1="350.00" id="22186" y2="50.00" /><line x2="400.96" style="fill:blue;stroke:blue;" y1="391.91" x1="379.04" id="22187" y2="348.09" /><line x2="300.00" style="fill:blue;stroke:blue;" y1="391.91" x1="379.04" id="22188" y2="380.00" /><line x2="340.94" style="fill:blue;stroke:blue;" y1="391.91" x1="379.04" id="22189" y2="426.23" /><line x2="480.00" style="fill:blue;stroke:blue;" y1="348.09" x1="400.96" id="22190" y2="280.00" /><line x2="350.00" style="fill:blue;stroke:blue;" y1="348.09" x1="400.96" id="22191" y2="320.00" /><line x2="300.00" style="fill:blue;stroke:blue;" y1="348.09" x1="400.96" id="22192" y2="380.00" /><line x2="379.04" style="fill:blue;stroke:blue;" y1="348.09" x1="400.96" id="22193" y2="391.91" /><line x2="550.00" style="fill:blue;stroke:blue;" y1="50.00" x1="450.00" id="22194" y2="50.00" /><line x2="350.00" style="fill:blue;stroke:blue;" y1="50.00" x1="450.00" id="22195" y2="50.00" /><line x2="450.00" style="fill:blue;stroke:blue;" y1="150.00" x1="450.00" id="22196" y2="220.00" /><line x2="550.00" style="fill:blue;stroke:blue;" y1="150.00" x1="450.00" id="22197" y2="150.00" /><line x2="550.00" style="fill:blue;stroke:blue;" y1="150.00" x1="450.00" id="22198" y2="220.00" /><line x2="500.00" style="fill:blue;stroke:blue;" y1="150.00" x1="450.00" id="22199" y2="100.00" /><line x2="480.00" style="fill:blue;stroke:blue;" y1="220.00" x1="450.00" id="22200" y2="280.00" /><line x2="550.00" style="fill:blue;stroke:blue;" y1="220.00" x1="450.00" id="22201" y2="150.00" /><line x2="550.00" style="fill:blue;stroke:blue;" y1="220.00" x1="450.00" id="22202" y2="220.00" /><line x2="450.00" style="fill:blue;stroke:blue;" y1="220.00" x1="450.00" id="22203" y2="150.00" /><line x2="520.00" style="fill:blue;stroke:blue;" y1="280.00" x1="480.00" id="22204" y2="320.00" /><line x2="400.96" style="fill:blue;stroke:blue;" y1="280.00" x1="480.00" id="22205" y2="348.09" /><line x2="450.00" style="fill:blue;stroke:blue;" y1="280.00" x1="480.00" id="22206" y2="220.00" /><line x2="550.00" style="fill:blue;stroke:blue;" y1="100.00" x1="500.00" id="22207" y2="150.00" /><line x2="450.00" style="fill:blue;stroke:blue;" y1="100.00" x1="500.00" id="22208" y2="150.00" /><line x2="550.00" style="fill:blue;stroke:blue;" y1="100.00" x1="500.00" id="22209" y2="50.00" /><line x2="620.00" style="fill:blue;stroke:blue;" y1="320.00" x1="520.00" id="22210" y2="350.00" /><line x2="480.00" style="fill:blue;stroke:blue;" y1="320.00" x1="520.00" id="22211" y2="280.00" /><line x2="620.00" style="fill:blue;stroke:blue;" y1="50.00" x1="550.00" id="22212" y2="50.00" /><line x2="500.00" style="fill:blue;stroke:blue;" y1="50.00" x1="550.00" id="22213" y2="100.00" /><line x2="450.00" style="fill:blue;stroke:blue;" y1="50.00" x1="550.00" id="22214" y2="50.00" /><line x2="450.00" style="fill:blue;stroke:blue;" y1="150.00" x1="550.00" id="22215" y2="220.00" /><line x2="550.00" style="fill:blue;stroke:blue;" y1="150.00" x1="550.00" id="22216" y2="220.00" /><line x2="500.00" style="fill:blue;stroke:blue;" y1="150.00" x1="550.00" id="22217" y2="100.00" /><line x2="450.00" style="fill:blue;stroke:blue;" y1="150.00" x1="550.00" id="22218" y2="150.00" /><line x2="450.00" style="fill:blue;stroke:blue;" y1="220.00" x1="550.00" id="22219" y2="220.00" /><line x2="550.00" style="fill:blue;stroke:blue;" y1="220.00" x1="550.00" id="22220" y2="150.00" /><line x2="450.00" style="fill:blue;stroke:blue;" y1="220.00" x1="550.00" id="22221" y2="150.00" /><line x2="700.00" style="fill:blue;stroke:blue;" y1="50.00" x1="620.00" id="22222" y2="50.00" /><line x2="620.00" style="fill:blue;stroke:blue;" y1="50.00" x1="620.00" id="22223" y2="100.00" /><line x2="550.00" style="fill:blue;stroke:blue;" y1="50.00" x1="620.00" id="22224" y2="50.00" /><line x2="720.00" style="fill:blue;stroke:blue;" y1="350.00" x1="620.00" id="22225" y2="350.00" /><line x2="520.00" style="fill:blue;stroke:blue;" y1="350.00" x1="620.00" id="22226" y2="320.00" /><line x2="780.00" style="fill:blue;stroke:blue;" y1="50.00" x1="700.00" id="22227" y2="80.00" /><line x2="620.00" style="fill:blue;stroke:blue;" y1="50.00" x1="700.00" id="22228" y2="50.00" /><line x2="750.00" style="fill:blue;stroke:blue;" y1="50.00" x1="700.00" id="22229" y2="20.00" /><line x2="800.00" style="fill:blue;stroke:blue;" y1="350.00" x1="720.00" id="22230" y2="300.00" /><line x2="750.00" style="fill:blue;stroke:blue;" y1="350.00" x1="720.00" id="22231" y2="280.00" /><line x2="620.00" style="fill:blue;stroke:blue;" y1="350.00" x1="720.00" id="22232" y2="350.00" /><line x2="800.00" style="fill:blue;stroke:blue;" y1="280.00" x1="750.00" id="22233" y2="300.00" /><line x2="720.00" style="fill:blue;stroke:blue;" y1="280.00" x1="750.00" id="22234" y2="350.00" /><line x2="850.00" style="fill:blue;stroke:blue;" y1="80.00" x1="780.00" id="22235" y2="50.00" /><line x2="700.00" style="fill:blue;stroke:blue;" y1="80.00" x1="780.00" id="22236" y2="50.00" /><line x2="750.00" style="fill:blue;stroke:blue;" y1="80.00" x1="780.00" id="22237" y2="120.00" /><line x2="820.00" style="fill:blue;stroke:blue;" y1="80.00" x1="780.00" id="22238" y2="120.00" /><line x2="850.00" style="fill:blue;stroke:blue;" y1="300.00" x1="800.00" id="22239" y2="250.00" /><line x2="720.00" style="fill:blue;stroke:blue;" y1="300.00" x1="800.00" id="22240" y2="350.00" /><line x2="750.00" style="fill:blue;stroke:blue;" y1="300.00" x1="800.00" id="22241" y2="280.00" /><line x2="820.00" style="fill:blue;stroke:blue;" y1="180.00" x1="850.00" id="22242" y2="120.00" /><line x2="850.00" style="fill:blue;stroke:blue;" y1="180.00" x1="850.00" id="22243" y2="250.00" /><line x2="900.00" style="fill:blue;stroke:blue;" y1="180.00" x1="850.00" id="22244" y2="220.00" /><line x2="950.00" style="fill:blue;stroke:blue;" y1="180.00" x1="850.00" id="22245" y2="180.00" /><line x2="850.00" style="fill:blue;stroke:blue;" y1="250.00" x1="850.00" id="22246" y2="180.00" /><line x2="900.00" style="fill:blue;stroke:blue;" y1="250.00" x1="850.00" id="22247" y2="220.00" /><line x2="900.00" style="fill:blue;stroke:blue;" y1="250.00" x1="850.00" id="22248" y2="300.00" /><line x2="950.00" style="fill:blue;stroke:blue;" y1="250.00" x1="850.00" id="22249" y2="250.00" /><line x2="800.00" style="fill:blue;stroke:blue;" y1="250.00" x1="850.00" id="22250" y2="300.00" /><line x2="850.00" style="fill:blue;stroke:blue;" y1="300.00" x1="900.00" id="22251" y2="250.00" /><line x2="850.00" style="fill:blue;stroke:blue;" y1="220.00" x1="900.00" id="22252" y2="180.00" /><line x2="850.00" style="fill:blue;stroke:blue;" y1="220.00" x1="900.00" id="22253" y2="250.00" /><line x2="950.00" style="fill:blue;stroke:blue;" y1="220.00" x1="900.00" id="22254" y2="250.00" /><line x2="950.00" style="fill:blue;stroke:blue;" y1="180.00" x1="950.00" id="22255" y2="120.00" /><line x2="850.00" style="fill:blue;stroke:blue;" y1="180.00" x1="950.00" id="22256" y2="180.00" /><line x2="950.00" style="fill:blue;stroke:blue;" y1="180.00" x1="950.00" id="22257" y2="250.00" /><line x2="850.00" style="fill:blue;stroke:blue;" y1="250.00" x1="950.00" id="22258" y2="250.00" /><line x2="900.00" style="fill:blue;stroke:blue;" y1="250.00" x1="950.00" id="22259" y2="220.00" /><line x2="950.00" style="fill:blue;stroke:blue;" y1="250.00" x1="950.00" id="22260" y2="180.00" /><line x2="120.00" style="fill:blue;stroke:blue;" y1="50.00" x1="50.00" id="22261" y2="50.00" /><line x2="620.00" style="fill:blue;stroke:blue;" y1="100.00" x1="620.00" id="22262" y2="50.00" /><line x2="700.00" style="fill:blue;stroke:blue;" y1="20.00" x1="750.00" id="22263" y2="50.00" /><line x2="780.00" style="fill:blue;stroke:blue;" y1="120.00" x1="750.00" id="22264" y2="80.00" /><line x2="780.00" style="fill:blue;stroke:blue;" y1="120.00" x1="820.00" id="22265" y2="80.00" /><line x2="850.00" style="fill:blue;stroke:blue;" y1="120.00" x1="820.00" id="22266" y2="180.00" /><line x2="780.00" style="fill:blue;stroke:blue;" y1="50.00" x1="850.00" id="22267" y2="80.00" /><line x2="950.00" style="fill:blue;stroke:blue;" y1="120.00" x1="950.00" id="22268" y2="180.00" /></svg>
