<?xml version="1.0" standalone="yes"?><!DOCTYPE svg PUBLIC "-//W3C//DTD SVG 1.1//EN" "http://www.w3.org/Graphics/SVG/1.1/DTD/svg11.dtd"[]><svg width="1050.00" height="800.00" id="21999" xmlns="http://www.w3.org/2000/svg" xmlns:xlink="http://www.w3.org/1999/xlink"><rect Type="system" x="20.00" id="22000" height="5.00" width="5.00" Name="LX5K-W" ID="30004705" Region="摄魂之域" y="700.00" /><text y="700.00" x="20.00" id="22001">LX5K-W</text><rect Type="system" x="80.00" id="22003" height="5.00" width="5.00" Name="ZDYA-G" ID="30004704" Region="摄魂之域" y="750.00" /><text y="750.00" x="80.00" id="22004">ZDYA-G</text><rect Type="system" x="100.00" id="22006" height="5.00" width="5.00" Name="O-N589" ID="30004703" Region="摄魂之域" y="680.00" /><text y="680.00" x="100.00" id="22007">O-N589</text><rect Type="system" x="120.00" id="22009" height="5.00" width="5.00" Name="G-M4GK" ID="30004696" Region="摄魂之域" y="50.00" /><text y="50.00" x="120.00" id="22010">G-M4GK</text><rect Type="system" x="150.00" id="22012" height="5.00" width="5.00" Name="MP5-KR" ID="30004702" Region="摄魂之域" y="650.00" /><text y="650.00" x="150.00" id="22013">MP5-KR</text><rect Type="system" x="200.00" id="22015" height="5.00" width="5.00" Name="ZBY-0I" ID="30004701" Region="摄魂之域" y="620.00" /><text y="620.00" x="200.00" id="22016">ZBY-0I</text><rect Type="system" x="200.00" id="22018" height="5.00" width="5.00" Name="O1Q-P1" ID="30004699" Region="摄魂之域" y="20.00" /><text y="20.00" x="200.00" id="22019">O1Q-P1</text><rect Type="system" x="200.00" id="22021" height="5.00" width="5.00" Name="0SUF-3" ID="30004695" Region="摄魂之域" y="80.00" /><text y="80.00" x="200.00" id="22022">0SUF-3</text><rect Type="system" x="250.00" id="22024" height="5.00" width="5.00" Name="G1D0-G" ID="30004697" Region="摄魂之域" y="100.00" /><text y="100.00" x="250.00" id="22025">G1D0-G</text><rect Type="system" x="250.00" id="22027" height="5.00" width="5.00" Name="LD-2VL" ID="30004700" Region="摄魂之域" y="580.00" /><text y="580.00" x="250.00" id="22028">LD-2VL</text><rect Type="system" x="280.00" id="22030" height="5.00" width="5.00" Name="GQ2S-8" ID="30004694" Region="摄魂之域" y="50.00" /><text y="50.00" x="280.00" id="22031">GQ2S-8</text><rect Type="system" x="290.00" id="22033" height="5.00" width="5.00" Name="JK-GLL" ID="30004684" Region="摄魂之域" y="510.00" /><text y="510.00" x="290.00" id="22034">JK-GLL</text><rect Type="system" x="300.00" id="22036" height="5.00" width="5.00" Name="8Q-UYU" ID="30004681" Region="摄魂之域" y="380.00" /><text y="380.00" x="300.00" id="22037">8Q-UYU</text><rect Type="system" x="320.00" id="22039" height="5.00" width="5.00" Name="KU3-BB" ID="30004698" Region="摄魂之域" y="100.00" /><text y="100.00" x="320.00" id="22040">KU3-BB</text><rect Type="system" x="329.06" id="22042" height="5.00" width="5.00" Name="S-KU8B" ID="30004683" Region="摄魂之域" y="473.77" /><text y="473.77" x="329.06" id="22043">S-KU8B</text><rect Type="system" x="350.00" id="22045" height="5.00" width="5.00" Name="LUL-WX" ID="30004680" Region="摄魂之域" y="320.00" /><text y="320.00" x="350.00" id="22046">LUL-WX</text><rect Type="system" x="340.94" id="22048" height="5.00" width="5.00" Name="3PPT-9" ID="30004682" Region="摄魂之域" y="426.23" /><text y="426.23" x="340.94" id="22049">3PPT-9</text><rect Type="system" x="350.00" id="22051" height="5.00" width="5.00" Name="2I-520" ID="30004693" Region="摄魂之域" y="50.00" /><text y="50.00" x="350.00" id="22052">2I-520</text><rect Type="system" x="379.04" id="22054" height="5.00" width="5.00" Name="UAAU-C" ID="30004685" Region="摄魂之域" y="391.91" /><text y="391.91" x="379.04" id="22055">UAAU-C</text><rect Type="system" x="400.96" id="22057" height="5.00" width="5.00" Name="YV-FDG" ID="30004679" Region="摄魂之域" y="348.09" /><text y="348.09" x="400.96" id="22058">YV-FDG</text><rect Type="system" x="450.00" id="22060" height="5.00" width="5.00" Name="O-97ZG" ID="30004692" Region="摄魂之域" y="50.00" /><text y="50.00" x="450.00" id="22061">O-97ZG</text><rect Type="system" x="450.00" id="22063" height="5.00" width="5.00" Name="AA-GWF" ID="30004690" Region="摄魂之域" y="150.00" /><text y="150.00" x="450.00" id="22064">AA-GWF</text><rect Type="system" x="450.00" id="22066" height="5.00" width="5.00" Name="HHJD-5" ID="30004686" Region="摄魂之域" y="220.00" /><text y="220.00" x="450.00" id="22067">HHJD-5</text><rect Type="system" x="480.00" id="22069" height="5.00" width="5.00" Name="H8-ZTO" ID="30004678" Region="摄魂之域" y="280.00" /><text y="280.00" x="480.00" id="22070">H8-ZTO</text><rect Type="system" x="500.00" id="22072" height="5.00" width="5.00" Name="LG-WA9" ID="30004689" Region="摄魂之域" y="100.00" /><text y="100.00" x="500.00" id="22073">LG-WA9</text><rect Type="system" x="520.00" id="22075" height="5.00" width="5.00" Name="0ZN7-G" ID="30004677" Region="摄魂之域" y="320.00" /><text y="320.00" x="520.00" id="22076">0ZN7-G</text><rect Type="system" x="550.00" id="22078" height="5.00" width="5.00" Name="O4T-Z5" ID="30004691" Region="摄魂之域" y="50.00" /><text y="50.00" x="550.00" id="22079">O4T-Z5</text><rect Type="system" x="550.00" id="22081" height="5.00" width="5.00" Name="ZWV-GD" ID="30004687" Region="摄魂之域" y="150.00" /><text y="150.00" x="550.00" id="22082">ZWV-GD</text><rect Type="system" x="550.00" id="22084" height="5.00" width="5.00" Name="1DDR-X" ID="30004688" Region="摄魂之域" y="220.00" /><text y="220.00" x="550.00" id="22085">1DDR-X</text><rect Type="system" x="620.00" id="22087" height="5.00" width="5.00" Name="R-ARKN" ID="30003151" Region="埃索特亚" y="50.00" /><text y="50.00" x="620.00" id="22088">R-ARKN</text><rect Type="system" x="620.00" id="22090" height="5.00" width="5.00" Name="T-ZFID" ID="30004676" Region="摄魂之域" y="350.00" /><text y="350.00" x="620.00" id="22091">T-ZFID</text><rect Type="system" x="700.00" id="22093" height="5.00" width="5.00" Name="02V-BK" ID="30003149" Region="埃索特亚" y="50.00" /><text y="50.00" x="700.00" id="22094">02V-BK</text><rect Type="system" x="720.00" id="22096" height="5.00" width="5.00" Name="0-MX34" ID="30004674" Region="摄魂之域" y="350.00" /><text y="350.00" x="720.00" id="22097">0-MX34</text><rect Type="system" x="750.00" id="22099" height="5.00" width="5.00" Name="5AQ-5H" ID="30004675" Region="摄魂之域" y="280.00" /><text y="280.00" x="750.00" id="22100">5AQ-5H</text><rect Type="system" x="780.00" id="22102" height="5.00" width="5.00" Name="JD-TYH" ID="30003148" Region="埃索特亚" y="80.00" /><text y="80.00" x="780.00" id="22103">JD-TYH</text><rect Type="system" x="800.00" id="22105" height="5.00" width="5.00" Name="4Y-OBL" ID="30004673" Region="摄魂之域" y="300.00" /><text y="300.00" x="800.00" id="22106">4Y-OBL</text><rect Type="system" x="850.00" id="22108" height="5.00" width="5.00" Name="JI-K5H" ID="30004667" Region="摄魂之域" y="180.00" /><text y="180.00" x="850.00" id="22109">JI-K5H</text><rect Type="system" x="850.00" id="22111" height="5.00" width="5.00" Name="33-JRO" ID="30004668" Region="摄魂之域" y="250.00" /><text y="250.00" x="850.00" id="22112">33-JRO</text><rect Type="system" x="900.00" id="22114" height="5.00" width="5.00" Name="5-CSE3" ID="30004670" Region="摄魂之域" y="300.00" /><text y="300.00" x="900.00" id="22115">5-CSE3</text><rect Type="system" x="900.00" id="22117" height="5.00" width="5.00" Name="ARBX-9" ID="30004669" Region="摄魂之域" y="220.00" /><text y="220.00" x="900.00" id="22118">ARBX-9</text><rect Type="system" x="950.00" id="22120" height="5.00" width="5.00" Name="O-MCZR" ID="30004671" Region="摄魂之域" y="180.00" /><text y="180.00" x="950.00" id="22121">O-MCZR</text><rect Type="system" x="950.00" id="22123" height="5.00" width="5.00" Name="9T-APQ" ID="30004672" Region="摄魂之域" y="250.00" /><text y="250.00" x="950.00" id="22124">9T-APQ</text><rect Type="system" x="50.00" id="22126" height="5.00" width="5.00" Name="TCAG-3" ID="30004937" Region="贝斯" y="50.00" /><text y="50.00" x="50.00" id="22127">TCAG-3</text><rect Type="system" x="620.00" id="22129" height="5.00" width="5.00" Name="MS2-V8" ID="30003153" Region="埃索特亚" y="100.00" /><text y="100.00" x="620.00" id="22130">MS2-V8</text><rect Type="system" x="750.00" id="22132" height="5.00" width="5.00" Name="DL-CDY" ID="30003170" Region="埃索特亚" y="20.00" /><text y="20.00" x="750.00" id="22133">DL-CDY</text><rect Type="system" x="750.00" id="22135" height="5.00" width="5.00" Name="A5MT-B" ID="30003150" Region="埃索特亚" y="120.00" /><text y="120.00" x="750.00" id="22136">A5MT-B</text><rect Type="system" x="820.00" id="22138" height="5.00" width="5.00" Name="SN9S-N" ID="30003152" Region="埃索特亚" y="120.00" /><text y="120.00" x="820.00" id="22139">SN9S-N</text><rect Type="system" x="850.00" id="22141" height="5.00" width="5.00" Name="450I-W" ID="30003131" Region="埃索特亚" y="50.00" /><text y="50.00" x="850.00" id="22142">450I-W</text><rect Type="system" x="950.00" id="22144" height="5.00" width="5.00" Name="KSM-1T" ID="30003177" Region="埃索特亚" y="120.00" /><text y="120.00" x="950.00" id="22145">KSM-1T</text><line style="stroke:blue;fill:blue;" id="22147" x2="100.00" x1="20.00" y1="700.00" y2="680.00" /><line style="stroke:blue;fill:blue;" id="22148" x2="80.00" x1="20.00" y1="700.00" y2="750.00" /><line style="stroke:blue;fill:blue;" id="22149" x2="100.00" x1="80.00" y1="750.00" y2="680.00" /><line style="stroke:blue;fill:blue;" id="22150" x2="20.00" x1="80.00" y1="750.00" y2="700.00" /><line style="stroke:blue;fill:blue;" id="22151" x2="150.00" x1="100.00" y1="680.00" y2="650.00" /><line style="stroke:blue;fill:blue;" id="22152" x2="80.00" x1="100.00" y1="680.00" y2="750.00" /><line style="stroke:blue;fill:blue;" id="22153" x2="20.00" x1="100.00" y1="680.00" y2="700.00" /><line style="stroke:blue;fill:blue;" id="22154" x2="200.00" x1="120.00" y1="50.00" y2="80.00" /><line style="stroke:blue;fill:blue;" id="22155" x2="50.00" x1="120.00" y1="50.00" y2="50.00" /><line style="stroke:blue;fill:blue;" id="22156" x2="200.00" x1="150.00" y1="650.00" y2="620.00" /><line style="stroke:blue;fill:blue;" id="22157" x2="100.00" x1="150.00" y1="650.00" y2="680.00" /><line style="stroke:blue;fill:blue;" id="22158" x2="250.00" x1="200.00" y1="620.00" y2="580.00" /><line style="stroke:blue;fill:blue;" id="22159" x2="150.00" x1="200.00" y1="620.00" y2="650.00" /><line style="stroke:blue;fill:blue;" id="22160" x2="200.00" x1="200.00" y1="20.00" y2="80.00" /><line style="stroke:blue;fill:blue;" id="22161" x2="280.00" x1="200.00" y1="80.00" y2="50.00" /><line style="stroke:blue;fill:blue;" id="22162" x2="120.00" x1="200.00" y1="80.00" y2="50.00" /><line style="stroke:blue;fill:blue;" id="22163" x2="200.00" x1="200.00" y1="80.00" y2="20.00" /><line style="stroke:blue;fill:blue;" id="22164" x2="280.00" x1="250.00" y1="100.00" y2="50.00" /><line style="stroke:blue;fill:blue;" id="22165" x2="290.00" x1="250.00" y1="580.00" y2="510.00" /><line style="stroke:blue;fill:blue;" id="22166" x2="200.00" x1="250.00" y1="580.00" y2="620.00" /><line style="stroke:blue;fill:blue;" id="22167" x2="350.00" x1="280.00" y1="50.00" y2="50.00" /><line style="stroke:blue;fill:blue;" id="22168" x2="200.00" x1="280.00" y1="50.00" y2="80.00" /><line style="stroke:blue;fill:blue;" id="22169" x2="250.00" x1="280.00" y1="50.00" y2="100.00" /><line style="stroke:blue;fill:blue;" id="22170" x2="320.00" x1="280.00" y1="50.00" y2="100.00" /><line style="stroke:blue;fill:blue;" id="22171" x2="329.06" x1="290.00" y1="510.00" y2="473.77" /><line style="stroke:blue;fill:blue;" id="22172" x2="250.00" x1="290.00" y1="510.00" y2="580.00" /><line style="stroke:blue;fill:blue;" id="22173" x2="400.96" x1="300.00" y1="380.00" y2="348.09" /><line style="stroke:blue;fill:blue;" id="22174" x2="350.00" x1="300.00" y1="380.00" y2="320.00" /><line style="stroke:blue;fill:blue;" id="22175" x2="340.94" x1="300.00" y1="380.00" y2="426.23" /><line style="stroke:blue;fill:blue;" id="22176" x2="379.04" x1="300.00" y1="380.00" y2="391.91" /><line style="stroke:blue;fill:blue;" id="22177" x2="280.00" x1="320.00" y1="100.00" y2="50.00" /><line style="stroke:blue;fill:blue;" id="22178" x2="340.94" x1="329.06" y1="473.77" y2="426.23" /><line style="stroke:blue;fill:blue;" id="22179" x2="290.00" x1="329.06" y1="473.77" y2="510.00" /><line style="stroke:blue;fill:blue;" id="22180" x2="400.96" x1="350.00" y1="320.00" y2="348.09" /><line style="stroke:blue;fill:blue;" id="22181" x2="300.00" x1="350.00" y1="320.00" y2="380.00" /><line style="stroke:blue;fill:blue;" id="22182" x2="300.00" x1="340.94" y1="426.23" y2="380.00" /><line style="stroke:blue;fill:blue;" id="22183" x2="329.06" x1="340.94" y1="426.23" y2="473.77" /><line style="stroke:blue;fill:blue;" id="22184" x2="379.04" x1="340.94" y1="426.23" y2="391.91" /><line style="stroke:blue;fill:blue;" id="22185" x2="450.00" x1="350.00" y1="50.00" y2="50.00" /><line style="stroke:blue;fill:blue;" id="22186" x2="280.00" x1="350.00" y1="50.00" y2="50.00" /><line style="stroke:blue;fill:blue;" id="22187" x2="400.96" x1="379.04" y1="391.91" y2="348.09" /><line style="stroke:blue;fill:blue;" id="22188" x2="300.00" x1="379.04" y1="391.91" y2="380.00" /><line style="stroke:blue;fill:blue;" id="22189" x2="340.94" x1="379.04" y1="391.91" y2="426.23" /><line style="stroke:blue;fill:blue;" id="22190" x2="480.00" x1="400.96" y1="348.09" y2="280.00" /><line style="stroke:blue;fill:blue;" id="22191" x2="350.00" x1="400.96" y1="348.09" y2="320.00" /><line style="stroke:blue;fill:blue;" id="22192" x2="300.00" x1="400.96" y1="348.09" y2="380.00" /><line style="stroke:blue;fill:blue;" id="22193" x2="379.04" x1="400.96" y1="348.09" y2="391.91" /><line style="stroke:blue;fill:blue;" id="22194" x2="550.00" x1="450.00" y1="50.00" y2="50.00" /><line style="stroke:blue;fill:blue;" id="22195" x2="350.00" x1="450.00" y1="50.00" y2="50.00" /><line style="stroke:blue;fill:blue;" id="22196" x2="450.00" x1="450.00" y1="150.00" y2="220.00" /><line style="stroke:blue;fill:blue;" id="22197" x2="550.00" x1="450.00" y1="150.00" y2="150.00" /><line style="stroke:blue;fill:blue;" id="22198" x2="550.00" x1="450.00" y1="150.00" y2="220.00" /><line style="stroke:blue;fill:blue;" id="22199" x2="500.00" x1="450.00" y1="150.00" y2="100.00" /><line style="stroke:blue;fill:blue;" id="22200" x2="480.00" x1="450.00" y1="220.00" y2="280.00" /><line style="stroke:blue;fill:blue;" id="22201" x2="550.00" x1="450.00" y1="220.00" y2="150.00" /><line style="stroke:blue;fill:blue;" id="22202" x2="550.00" x1="450.00" y1="220.00" y2="220.00" /><line style="stroke:blue;fill:blue;" id="22203" x2="450.00" x1="450.00" y1="220.00" y2="150.00" /><line style="stroke:blue;fill:blue;" id="22204" x2="520.00" x1="480.00" y1="280.00" y2="320.00" /><line style="stroke:blue;fill:blue;" id="22205" x2="400.96" x1="480.00" y1="280.00" y2="348.09" /><line style="stroke:blue;fill:blue;" id="22206" x2="450.00" x1="480.00" y1="280.00" y2="220.00" /><line style="stroke:blue;fill:blue;" id="22207" x2="550.00" x1="500.00" y1="100.00" y2="150.00" /><line style="stroke:blue;fill:blue;" id="22208" x2="450.00" x1="500.00" y1="100.00" y2="150.00" /><line style="stroke:blue;fill:blue;" id="22209" x2="550.00" x1="500.00" y1="100.00" y2="50.00" /><line style="stroke:blue;fill:blue;" id="22210" x2="620.00" x1="520.00" y1="320.00" y2="350.00" /><line style="stroke:blue;fill:blue;" id="22211" x2="480.00" x1="520.00" y1="320.00" y2="280.00" /><line style="stroke:blue;fill:blue;" id="22212" x2="620.00" x1="550.00" y1="50.00" y2="50.00" /><line style="stroke:blue;fill:blue;" id="22213" x2="500.00" x1="550.00" y1="50.00" y2="100.00" /><line style="stroke:blue;fill:blue;" id="22214" x2="450.00" x1="550.00" y1="50.00" y2="50.00" /><line style="stroke:blue;fill:blue;" id="22215" x2="450.00" x1="550.00" y1="150.00" y2="220.00" /><line style="stroke:blue;fill:blue;" id="22216" x2="550.00" x1="550.00" y1="150.00" y2="220.00" /><line style="stroke:blue;fill:blue;" id="22217" x2="500.00" x1="550.00" y1="150.00" y2="100.00" /><line style="stroke:blue;fill:blue;" id="22218" x2="450.00" x1="550.00" y1="150.00" y2="150.00" /><line style="stroke:blue;fill:blue;" id="22219" x2="450.00" x1="550.00" y1="220.00" y2="220.00" /><line style="stroke:blue;fill:blue;" id="22220" x2="550.00" x1="550.00" y1="220.00" y2="150.00" /><line style="stroke:blue;fill:blue;" id="22221" x2="450.00" x1="550.00" y1="220.00" y2="150.00" /><line style="stroke:blue;fill:blue;" id="22222" x2="700.00" x1="620.00" y1="50.00" y2="50.00" /><line style="stroke:blue;fill:blue;" id="22223" x2="620.00" x1="620.00" y1="50.00" y2="100.00" /><line style="stroke:blue;fill:blue;" id="22224" x2="550.00" x1="620.00" y1="50.00" y2="50.00" /><line style="stroke:blue;fill:blue;" id="22225" x2="720.00" x1="620.00" y1="350.00" y2="350.00" /><line style="stroke:blue;fill:blue;" id="22226" x2="520.00" x1="620.00" y1="350.00" y2="320.00" /><line style="stroke:blue;fill:blue;" id="22227" x2="780.00" x1="700.00" y1="50.00" y2="80.00" /><line style="stroke:blue;fill:blue;" id="22228" x2="620.00" x1="700.00" y1="50.00" y2="50.00" /><line style="stroke:blue;fill:blue;" id="22229" x2="750.00" x1="700.00" y1="50.00" y2="20.00" /><line style="stroke:blue;fill:blue;" id="22230" x2="800.00" x1="720.00" y1="350.00" y2="300.00" /><line style="stroke:blue;fill:blue;" id="22231" x2="750.00" x1="720.00" y1="350.00" y2="280.00" /><line style="stroke:blue;fill:blue;" id="22232" x2="620.00" x1="720.00" y1="350.00" y2="350.00" /><line style="stroke:blue;fill:blue;" id="22233" x2="800.00" x1="750.00" y1="280.00" y2="300.00" /><line style="stroke:blue;fill:blue;" id="22234" x2="720.00" x1="750.00" y1="280.00" y2="350.00" /><line style="stroke:blue;fill:blue;" id="22235" x2="850.00" x1="780.00" y1="80.00" y2="50.00" /><line style="stroke:blue;fill:blue;" id="22236" x2="700.00" x1="780.00" y1="80.00" y2="50.00" /><line style="stroke:blue;fill:blue;" id="22237" x2="750.00" x1="780.00" y1="80.00" y2="120.00" /><line style="stroke:blue;fill:blue;" id="22238" x2="820.00" x1="780.00" y1="80.00" y2="120.00" /><line style="stroke:blue;fill:blue;" id="22239" x2="850.00" x1="800.00" y1="300.00" y2="250.00" /><line style="stroke:blue;fill:blue;" id="22240" x2="720.00" x1="800.00" y1="300.00" y2="350.00" /><line style="stroke:blue;fill:blue;" id="22241" x2="750.00" x1="800.00" y1="300.00" y2="280.00" /><line style="stroke:blue;fill:blue;" id="22242" x2="820.00" x1="850.00" y1="180.00" y2="120.00" /><line style="stroke:blue;fill:blue;" id="22243" x2="850.00" x1="850.00" y1="180.00" y2="250.00" /><line style="stroke:blue;fill:blue;" id="22244" x2="900.00" x1="850.00" y1="180.00" y2="220.00" /><line style="stroke:blue;fill:blue;" id="22245" x2="950.00" x1="850.00" y1="180.00" y2="180.00" /><line style="stroke:blue;fill:blue;" id="22246" x2="850.00" x1="850.00" y1="250.00" y2="180.00" /><line style="stroke:blue;fill:blue;" id="22247" x2="900.00" x1="850.00" y1="250.00" y2="220.00" /><line style="stroke:blue;fill:blue;" id="22248" x2="900.00" x1="850.00" y1="250.00" y2="300.00" /><line style="stroke:blue;fill:blue;" id="22249" x2="950.00" x1="850.00" y1="250.00" y2="250.00" /><line style="stroke:blue;fill:blue;" id="22250" x2="800.00" x1="850.00" y1="250.00" y2="300.00" /><line style="stroke:blue;fill:blue;" id="22251" x2="850.00" x1="900.00" y1="300.00" y2="250.00" /><line style="stroke:blue;fill:blue;" id="22252" x2="850.00" x1="900.00" y1="220.00" y2="180.00" /><line style="stroke:blue;fill:blue;" id="22253" x2="850.00" x1="900.00" y1="220.00" y2="250.00" /><line style="stroke:blue;fill:blue;" id="22254" x2="950.00" x1="900.00" y1="220.00" y2="250.00" /><line style="stroke:blue;fill:blue;" id="22255" x2="950.00" x1="950.00" y1="180.00" y2="120.00" /><line style="stroke:blue;fill:blue;" id="22256" x2="850.00" x1="950.00" y1="180.00" y2="180.00" /><line style="stroke:blue;fill:blue;" id="22257" x2="950.00" x1="950.00" y1="180.00" y2="250.00" /><line style="stroke:blue;fill:blue;" id="22258" x2="850.00" x1="950.00" y1="250.00" y2="250.00" /><line style="stroke:blue;fill:blue;" id="22259" x2="900.00" x1="950.00" y1="250.00" y2="220.00" /><line style="stroke:blue;fill:blue;" id="22260" x2="950.00" x1="950.00" y1="250.00" y2="180.00" /><line style="stroke:blue;fill:blue;" id="22261" x2="120.00" x1="50.00" y1="50.00" y2="50.00" /><line style="stroke:blue;fill:blue;" id="22262" x2="620.00" x1="620.00" y1="100.00" y2="50.00" /><line style="stroke:blue;fill:blue;" id="22263" x2="700.00" x1="750.00" y1="20.00" y2="50.00" /><line style="stroke:blue;fill:blue;" id="22264" x2="780.00" x1="750.00" y1="120.00" y2="80.00" /><line style="stroke:blue;fill:blue;" id="22265" x2="780.00" x1="820.00" y1="120.00" y2="80.00" /><line style="stroke:blue;fill:blue;" id="22266" x2="850.00" x1="820.00" y1="120.00" y2="180.00" /><line style="stroke:blue;fill:blue;" id="22267" x2="780.00" x1="850.00" y1="50.00" y2="80.00" /><line style="stroke:blue;fill:blue;" id="22268" x2="950.00" x1="950.00" y1="120.00" y2="180.00" /></svg>
