<?xml version="1.0" standalone="yes"?><!DOCTYPE svg PUBLIC "-//W3C//DTD SVG 1.1//EN" "http://www.w3.org/Graphics/SVG/1.1/DTD/svg11.dtd"[]><svg height="800.00" id="20113" width="1050.00" xmlns="http://www.w3.org/2000/svg" xmlns:xlink="http://www.w3.org/1999/xlink"><rect Type="system" Region="摩登赫斯" height="5.00" y="100.00" Name="埃伊丁" width="5.00" x="20.00" id="20114" ID="30002383" /><text x="20.00" y="100.00" id="20115">埃伊丁</text><rect Type="system" Region="摩登赫斯" height="5.00" y="150.00" Name="古夫诺蒂" width="5.00" x="20.00" id="20117" ID="30002384" /><text x="20.00" y="150.00" id="20118">古夫诺蒂</text><rect Type="system" Region="摩登赫斯" height="5.00" y="450.00" Name="希尔伯" width="5.00" x="30.00" id="20120" ID="30002392" /><text x="30.00" y="450.00" id="20121">希尔伯</text><rect Type="system" Region="摩登赫斯" height="5.00" y="450.03" Name="希尔库乌" width="5.00" x="99.29" id="20123" ID="30002391" /><text x="99.29" y="450.03" id="20124">希尔库乌</text><rect Type="system" Region="摩登赫斯" height="5.00" y="150.00" Name="提鲁苏德" width="5.00" x="100.00" id="20126" ID="30002385" /><text x="100.00" y="150.00" id="20127">提鲁苏德</text><rect Type="system" Region="摩登赫斯" height="5.00" y="447.47" Name="海蒂" width="5.00" x="148.22" id="20129" ID="30002390" /><text x="148.22" y="447.47" id="20130">海蒂</text><rect Type="system" Region="摩登赫斯" height="5.00" y="520.00" Name="奥德斯代尔" width="5.00" x="150.00" id="20132" ID="30002395" /><text x="150.00" y="520.00" id="20133">奥德斯代尔</text><rect Type="system" Region="摩登赫斯" height="5.00" y="180.00" Name="伯瑟娜" width="5.00" x="180.00" id="20135" ID="30002387" /><text x="180.00" y="180.00" id="20136">伯瑟娜</text><rect Type="system" Region="摩登赫斯" height="5.00" y="482.49" Name="埃伊达特" width="5.00" x="182.49" id="20138" ID="30002393" /><text x="182.49" y="482.49" id="20139">埃伊达特</text><rect Type="system" Region="摩登赫斯" height="5.00" y="80.00" Name="杰斐文" width="5.00" x="200.00" id="20141" ID="30002386" /><text x="200.00" y="80.00" id="20142">杰斐文</text><rect Type="system" Region="摩登赫斯" height="5.00" y="120.00" Name="欧德鲁法" width="5.00" x="250.00" id="20144" ID="30002388" /><text x="250.00" y="120.00" id="20145">欧德鲁法</text><rect Type="system" Region="摩登赫斯" height="5.00" y="520.00" Name="马顿克恩" width="5.00" x="250.00" id="20147" ID="30002394" /><text x="250.00" y="520.00" id="20148">马顿克恩</text><rect Type="system" Region="摩登赫斯" height="5.00" y="275.50" Name="戈西姆" width="5.00" x="250.00" id="20150" ID="30002403" /><text x="250.00" y="275.50" id="20151">戈西姆</text><rect Type="system" Region="摩登赫斯" height="5.00" y="324.50" Name="赫达列法" width="5.00" x="250.00" id="20153" ID="30002406" /><text x="250.00" y="324.50" id="20154">赫达列法</text><rect Type="system" Region="摩登赫斯" height="5.00" y="220.00" Name="伊斯塔德" width="5.00" x="300.00" id="20156" ID="30002402" /><text x="300.00" y="220.00" id="20157">伊斯塔德</text><rect Type="system" Region="摩登赫斯" height="5.00" y="280.00" Name="哈夫" width="5.00" x="320.00" id="20159" ID="30002404" /><text x="320.00" y="280.00" id="20160">哈夫</text><rect Type="system" Region="摩登赫斯" height="5.00" y="320.00" Name="萨库尔达" width="5.00" x="350.00" id="20162" ID="30002405" /><text x="350.00" y="320.00" id="20163">萨库尔达</text><rect Type="system" Region="摩登赫斯" height="5.00" y="100.00" Name="埃塔拉尔" width="5.00" x="350.00" id="20165" ID="30002389" /><text x="350.00" y="100.00" id="20166">埃塔拉尔</text><rect Type="system" Region="摩登赫斯" height="5.00" y="220.00" Name="埃特布拉德" width="5.00" x="380.00" id="20168" ID="30002407" /><text x="380.00" y="220.00" id="20169">埃特布拉德</text><rect Type="system" Region="摩登赫斯" height="5.00" y="100.00" Name="伊拉缪尔" width="5.00" x="450.00" id="20171" ID="30002396" /><text x="450.00" y="100.00" id="20172">伊拉缪尔</text><rect Type="system" Region="摩登赫斯" height="5.00" y="170.00" Name="瓦瑞吉勒" width="5.00" x="480.00" id="20174" ID="30002400" /><text x="480.00" y="170.00" id="20175">瓦瑞吉勒</text><rect Type="system" Region="摩登赫斯" height="5.00" y="130.00" Name="赫拉卡" width="5.00" x="550.00" id="20177" ID="30002397" /><text x="550.00" y="130.00" id="20178">赫拉卡</text><rect Type="system" Region="摩登赫斯" height="5.00" y="200.00" Name="伊尔多夫" width="5.00" x="580.00" id="20180" ID="30002398" /><text x="580.00" y="200.00" id="20181">伊尔多夫</text><rect Type="system" Region="摩登赫斯" height="5.00" y="570.00" Name="伊格贝格尔" width="5.00" x="520.00" id="20183" ID="30002420" /><text x="520.00" y="570.00" id="20184">伊格贝格尔</text><rect Type="system" Region="摩登赫斯" height="5.00" y="80.00" Name="梅尔多夫" width="5.00" x="550.00" id="20186" ID="30002401" /><text x="550.00" y="80.00" id="20187">梅尔多夫</text><rect Type="system" Region="摩登赫斯" height="5.00" y="150.00" Name="欧瑞恩" width="5.00" x="650.00" id="20189" ID="30002399" /><text x="650.00" y="150.00" id="20190">欧瑞恩</text><rect Type="system" Region="摩登赫斯" height="5.00" y="550.00" Name="耶蒂泰德" width="5.00" x="650.00" id="20192" ID="30002419" /><text x="650.00" y="550.00" id="20193">耶蒂泰德</text><rect Type="system" Region="摩登赫斯" height="5.00" y="650.00" Name="赫古芬登" width="5.00" x="680.00" id="20195" ID="30002418" /><text x="680.00" y="650.00" id="20196">赫古芬登</text><rect Type="system" Region="摩登赫斯" height="5.00" y="50.00" Name="恩努尔" width="5.00" x="700.00" id="20198" ID="30002412" /><text x="700.00" y="50.00" id="20199">恩努尔</text><rect Type="system" Region="摩登赫斯" height="5.00" y="580.00" Name="卡德里纳" width="5.00" x="700.00" id="20201" ID="30002417" /><text x="700.00" y="580.00" id="20202">卡德里纳</text><rect Type="system" Region="摩登赫斯" height="5.00" y="520.00" Name="威尔德" width="5.00" x="720.00" id="20204" ID="30002415" /><text x="720.00" y="520.00" id="20205">威尔德</text><rect Type="system" Region="摩登赫斯" height="5.00" y="200.00" Name="菲格蒙克" width="5.00" x="750.00" id="20207" ID="30002408" /><text x="750.00" y="200.00" id="20208">菲格蒙克</text><rect Type="system" Region="摩登赫斯" height="5.00" y="480.00" Name="克林格特" width="5.00" x="780.00" id="20210" ID="30002414" /><text x="780.00" y="480.00" id="20211">克林格特</text><rect Type="system" Region="摩登赫斯" height="5.00" y="600.00" Name="卡特加德" width="5.00" x="780.00" id="20213" ID="30002416" /><text x="780.00" y="600.00" id="20214">卡特加德</text><rect Type="system" Region="摩登赫斯" height="5.00" y="250.00" Name="欧斯维图" width="5.00" x="800.00" id="20216" ID="30002409" /><text x="800.00" y="250.00" id="20217">欧斯维图</text><rect Type="system" Region="摩登赫斯" height="5.00" y="350.00" Name="尤勒迪克" width="5.00" x="820.00" id="20219" ID="30002413" /><text x="820.00" y="350.00" id="20220">尤勒迪克</text><rect Type="system" Region="摩登赫斯" height="5.00" y="180.00" Name="米米洛" width="5.00" x="850.00" id="20222" ID="30002410" /><text x="850.00" y="180.00" id="20223">米米洛</text><rect Type="system" Region="西玛特尔" height="5.00" y="50.00" Name="奥斯塔卡" width="5.00" x="20.00" id="20225" ID="30002523" /><text x="20.00" y="50.00" id="20226">奥斯塔卡</text><rect Type="system" Region="西玛特尔" height="5.00" y="50.00" Name="玛吉库" width="5.00" x="100.00" id="20228" ID="30002570" /><text x="100.00" y="50.00" id="20229">玛吉库</text><rect Type="system" Region="德里克" height="5.00" y="580.00" Name="科诺巴纳拉" width="5.00" x="100.00" id="20231" ID="30000116" /><text x="100.00" y="580.00" id="20232">科诺巴纳拉</text><rect Type="system" Region="大荒野" height="5.00" y="650.00" Name="B-VIP9" width="5.00" x="520.00" id="20234" ID="30000970" /><text x="520.00" y="650.00" id="20235">B-VIP9</text><rect Type="system" Region="美特伯里斯" height="5.00" y="50.00" Name="塔贝茨尔" width="5.00" x="750.00" id="20237" ID="30003465" /><text x="750.00" y="50.00" id="20238">塔贝茨尔</text><line x2="20.00" style="fill:blue;stroke:blue;" y1="100.00" x1="20.00" id="20240" y2="150.00" /><line x2="100.00" style="fill:blue;stroke:blue;" y1="100.00" x1="20.00" id="20241" y2="150.00" /><line x2="20.00" style="fill:blue;stroke:blue;" y1="100.00" x1="20.00" id="20242" y2="50.00" /><line x2="20.00" style="fill:blue;stroke:blue;" y1="150.00" x1="20.00" id="20243" y2="100.00" /><line x2="100.00" style="fill:blue;stroke:blue;" y1="150.00" x1="20.00" id="20244" y2="150.00" /><line x2="99.29" style="fill:blue;stroke:blue;" y1="450.00" x1="30.00" id="20245" y2="450.03" /><line x2="148.22" style="fill:blue;stroke:blue;" y1="450.03" x1="99.29" id="20246" y2="447.47" /><line x2="30.00" style="fill:blue;stroke:blue;" y1="450.03" x1="99.29" id="20247" y2="450.00" /><line x2="20.00" style="fill:blue;stroke:blue;" y1="150.00" x1="100.00" id="20248" y2="100.00" /><line x2="20.00" style="fill:blue;stroke:blue;" y1="150.00" x1="100.00" id="20249" y2="150.00" /><line x2="200.00" style="fill:blue;stroke:blue;" y1="150.00" x1="100.00" id="20250" y2="80.00" /><line x2="180.00" style="fill:blue;stroke:blue;" y1="150.00" x1="100.00" id="20251" y2="180.00" /><line x2="100.00" style="fill:blue;stroke:blue;" y1="150.00" x1="100.00" id="20252" y2="50.00" /><line x2="180.00" style="fill:blue;stroke:blue;" y1="447.47" x1="148.22" id="20253" y2="180.00" /><line x2="99.29" style="fill:blue;stroke:blue;" y1="447.47" x1="148.22" id="20254" y2="450.03" /><line x2="182.49" style="fill:blue;stroke:blue;" y1="447.47" x1="148.22" id="20255" y2="482.49" /><line x2="100.00" style="fill:blue;stroke:blue;" y1="520.00" x1="150.00" id="20256" y2="580.00" /><line x2="182.49" style="fill:blue;stroke:blue;" y1="520.00" x1="150.00" id="20257" y2="482.49" /><line x2="100.00" style="fill:blue;stroke:blue;" y1="180.00" x1="180.00" id="20258" y2="150.00" /><line x2="250.00" style="fill:blue;stroke:blue;" y1="180.00" x1="180.00" id="20259" y2="120.00" /><line x2="148.22" style="fill:blue;stroke:blue;" y1="180.00" x1="180.00" id="20260" y2="447.47" /><line x2="148.22" style="fill:blue;stroke:blue;" y1="482.49" x1="182.49" id="20261" y2="447.47" /><line x2="250.00" style="fill:blue;stroke:blue;" y1="482.49" x1="182.49" id="20262" y2="520.00" /><line x2="150.00" style="fill:blue;stroke:blue;" y1="482.49" x1="182.49" id="20263" y2="520.00" /><line x2="100.00" style="fill:blue;stroke:blue;" y1="80.00" x1="200.00" id="20264" y2="150.00" /><line x2="250.00" style="fill:blue;stroke:blue;" y1="80.00" x1="200.00" id="20265" y2="120.00" /><line x2="350.00" style="fill:blue;stroke:blue;" y1="80.00" x1="200.00" id="20266" y2="100.00" /><line x2="200.00" style="fill:blue;stroke:blue;" y1="120.00" x1="250.00" id="20267" y2="80.00" /><line x2="180.00" style="fill:blue;stroke:blue;" y1="120.00" x1="250.00" id="20268" y2="180.00" /><line x2="350.00" style="fill:blue;stroke:blue;" y1="120.00" x1="250.00" id="20269" y2="100.00" /><line x2="300.00" style="fill:blue;stroke:blue;" y1="120.00" x1="250.00" id="20270" y2="220.00" /><line x2="182.49" style="fill:blue;stroke:blue;" y1="520.00" x1="250.00" id="20271" y2="482.49" /><line x2="520.00" style="fill:blue;stroke:blue;" y1="520.00" x1="250.00" id="20272" y2="570.00" /><line x2="300.00" style="fill:blue;stroke:blue;" y1="275.50" x1="250.00" id="20273" y2="220.00" /><line x2="320.00" style="fill:blue;stroke:blue;" y1="275.50" x1="250.00" id="20274" y2="280.00" /><line x2="250.00" style="fill:blue;stroke:blue;" y1="275.50" x1="250.00" id="20275" y2="324.50" /><line x2="250.00" style="fill:blue;stroke:blue;" y1="324.50" x1="250.00" id="20276" y2="275.50" /><line x2="250.00" style="fill:blue;stroke:blue;" y1="220.00" x1="300.00" id="20277" y2="120.00" /><line x2="250.00" style="fill:blue;stroke:blue;" y1="220.00" x1="300.00" id="20278" y2="275.50" /><line x2="320.00" style="fill:blue;stroke:blue;" y1="220.00" x1="300.00" id="20279" y2="280.00" /><line x2="380.00" style="fill:blue;stroke:blue;" y1="220.00" x1="300.00" id="20280" y2="220.00" /><line x2="300.00" style="fill:blue;stroke:blue;" y1="280.00" x1="320.00" id="20281" y2="220.00" /><line x2="250.00" style="fill:blue;stroke:blue;" y1="280.00" x1="320.00" id="20282" y2="275.50" /><line x2="350.00" style="fill:blue;stroke:blue;" y1="280.00" x1="320.00" id="20283" y2="320.00" /><line x2="320.00" style="fill:blue;stroke:blue;" y1="320.00" x1="350.00" id="20284" y2="280.00" /><line x2="200.00" style="fill:blue;stroke:blue;" y1="100.00" x1="350.00" id="20285" y2="80.00" /><line x2="250.00" style="fill:blue;stroke:blue;" y1="100.00" x1="350.00" id="20286" y2="120.00" /><line x2="450.00" style="fill:blue;stroke:blue;" y1="100.00" x1="350.00" id="20287" y2="100.00" /><line x2="300.00" style="fill:blue;stroke:blue;" y1="220.00" x1="380.00" id="20288" y2="220.00" /><line x2="350.00" style="fill:blue;stroke:blue;" y1="100.00" x1="450.00" id="20289" y2="100.00" /><line x2="550.00" style="fill:blue;stroke:blue;" y1="100.00" x1="450.00" id="20290" y2="130.00" /><line x2="550.00" style="fill:blue;stroke:blue;" y1="100.00" x1="450.00" id="20291" y2="80.00" /><line x2="550.00" style="fill:blue;stroke:blue;" y1="170.00" x1="480.00" id="20292" y2="130.00" /><line x2="580.00" style="fill:blue;stroke:blue;" y1="170.00" x1="480.00" id="20293" y2="200.00" /><line x2="450.00" style="fill:blue;stroke:blue;" y1="130.00" x1="550.00" id="20294" y2="100.00" /><line x2="580.00" style="fill:blue;stroke:blue;" y1="130.00" x1="550.00" id="20295" y2="200.00" /><line x2="650.00" style="fill:blue;stroke:blue;" y1="130.00" x1="550.00" id="20296" y2="150.00" /><line x2="480.00" style="fill:blue;stroke:blue;" y1="130.00" x1="550.00" id="20297" y2="170.00" /><line x2="550.00" style="fill:blue;stroke:blue;" y1="200.00" x1="580.00" id="20298" y2="130.00" /><line x2="480.00" style="fill:blue;stroke:blue;" y1="200.00" x1="580.00" id="20299" y2="170.00" /><line x2="520.00" style="fill:blue;stroke:blue;" y1="570.00" x1="520.00" id="20300" y2="650.00" /><line x2="250.00" style="fill:blue;stroke:blue;" y1="570.00" x1="520.00" id="20301" y2="520.00" /><line x2="650.00" style="fill:blue;stroke:blue;" y1="570.00" x1="520.00" id="20302" y2="550.00" /><line x2="450.00" style="fill:blue;stroke:blue;" y1="80.00" x1="550.00" id="20303" y2="100.00" /><line x2="650.00" style="fill:blue;stroke:blue;" y1="80.00" x1="550.00" id="20304" y2="150.00" /><line x2="700.00" style="fill:blue;stroke:blue;" y1="80.00" x1="550.00" id="20305" y2="50.00" /><line x2="550.00" style="fill:blue;stroke:blue;" y1="150.00" x1="650.00" id="20306" y2="130.00" /><line x2="550.00" style="fill:blue;stroke:blue;" y1="150.00" x1="650.00" id="20307" y2="80.00" /><line x2="750.00" style="fill:blue;stroke:blue;" y1="150.00" x1="650.00" id="20308" y2="200.00" /><line x2="720.00" style="fill:blue;stroke:blue;" y1="550.00" x1="650.00" id="20309" y2="520.00" /><line x2="700.00" style="fill:blue;stroke:blue;" y1="550.00" x1="650.00" id="20310" y2="580.00" /><line x2="680.00" style="fill:blue;stroke:blue;" y1="550.00" x1="650.00" id="20311" y2="650.00" /><line x2="520.00" style="fill:blue;stroke:blue;" y1="550.00" x1="650.00" id="20312" y2="570.00" /><line x2="780.00" style="fill:blue;stroke:blue;" y1="650.00" x1="680.00" id="20313" y2="600.00" /><line x2="700.00" style="fill:blue;stroke:blue;" y1="650.00" x1="680.00" id="20314" y2="580.00" /><line x2="650.00" style="fill:blue;stroke:blue;" y1="650.00" x1="680.00" id="20315" y2="550.00" /><line x2="550.00" style="fill:blue;stroke:blue;" y1="50.00" x1="700.00" id="20316" y2="80.00" /><line x2="750.00" style="fill:blue;stroke:blue;" y1="50.00" x1="700.00" id="20317" y2="50.00" /><line x2="780.00" style="fill:blue;stroke:blue;" y1="580.00" x1="700.00" id="20318" y2="600.00" /><line x2="680.00" style="fill:blue;stroke:blue;" y1="580.00" x1="700.00" id="20319" y2="650.00" /><line x2="650.00" style="fill:blue;stroke:blue;" y1="580.00" x1="700.00" id="20320" y2="550.00" /><line x2="780.00" style="fill:blue;stroke:blue;" y1="520.00" x1="720.00" id="20321" y2="480.00" /><line x2="780.00" style="fill:blue;stroke:blue;" y1="520.00" x1="720.00" id="20322" y2="600.00" /><line x2="650.00" style="fill:blue;stroke:blue;" y1="520.00" x1="720.00" id="20323" y2="550.00" /><line x2="650.00" style="fill:blue;stroke:blue;" y1="200.00" x1="750.00" id="20324" y2="150.00" /><line x2="800.00" style="fill:blue;stroke:blue;" y1="200.00" x1="750.00" id="20325" y2="250.00" /><line x2="850.00" style="fill:blue;stroke:blue;" y1="200.00" x1="750.00" id="20326" y2="180.00" /><line x2="820.00" style="fill:blue;stroke:blue;" y1="480.00" x1="780.00" id="20327" y2="350.00" /><line x2="720.00" style="fill:blue;stroke:blue;" y1="480.00" x1="780.00" id="20328" y2="520.00" /><line x2="720.00" style="fill:blue;stroke:blue;" y1="600.00" x1="780.00" id="20329" y2="520.00" /><line x2="700.00" style="fill:blue;stroke:blue;" y1="600.00" x1="780.00" id="20330" y2="580.00" /><line x2="680.00" style="fill:blue;stroke:blue;" y1="600.00" x1="780.00" id="20331" y2="650.00" /><line x2="750.00" style="fill:blue;stroke:blue;" y1="250.00" x1="800.00" id="20332" y2="200.00" /><line x2="850.00" style="fill:blue;stroke:blue;" y1="250.00" x1="800.00" id="20333" y2="180.00" /><line x2="820.00" style="fill:blue;stroke:blue;" y1="250.00" x1="800.00" id="20334" y2="350.00" /><line x2="800.00" style="fill:blue;stroke:blue;" y1="350.00" x1="820.00" id="20335" y2="250.00" /><line x2="780.00" style="fill:blue;stroke:blue;" y1="350.00" x1="820.00" id="20336" y2="480.00" /><line x2="750.00" style="fill:blue;stroke:blue;" y1="180.00" x1="850.00" id="20337" y2="200.00" /><line x2="800.00" style="fill:blue;stroke:blue;" y1="180.00" x1="850.00" id="20338" y2="250.00" /><line x2="20.00" style="fill:blue;stroke:blue;" y1="50.00" x1="20.00" id="20339" y2="100.00" /><line x2="100.00" style="fill:blue;stroke:blue;" y1="50.00" x1="100.00" id="20340" y2="150.00" /><line x2="150.00" style="fill:blue;stroke:blue;" y1="580.00" x1="100.00" id="20341" y2="520.00" /><line x2="520.00" style="fill:blue;stroke:blue;" y1="650.00" x1="520.00" id="20342" y2="570.00" /><line x2="700.00" style="fill:blue;stroke:blue;" y1="50.00" x1="750.00" id="20343" y2="50.00" /></svg>
