<?xml version="1.0" standalone="yes"?><!DOCTYPE svg PUBLIC "-//W3C//DTD SVG 1.1//EN" "http://www.w3.org/Graphics/SVG/1.1/DTD/svg11.dtd"[]><svg width="1050.00" height="800.00" id="20113" xmlns="http://www.w3.org/2000/svg" xmlns:xlink="http://www.w3.org/1999/xlink"><rect Type="system" x="20.00" id="20114" height="5.00" width="5.00" Name="埃伊丁" ID="30002383" Region="摩登赫斯" y="100.00" /><text y="100.00" x="20.00" id="20115">埃伊丁</text><rect Type="system" x="20.00" id="20117" height="5.00" width="5.00" Name="古夫诺蒂" ID="30002384" Region="摩登赫斯" y="150.00" /><text y="150.00" x="20.00" id="20118">古夫诺蒂</text><rect Type="system" x="30.00" id="20120" height="5.00" width="5.00" Name="希尔伯" ID="30002392" Region="摩登赫斯" y="450.00" /><text y="450.00" x="30.00" id="20121">希尔伯</text><rect Type="system" x="99.29" id="20123" height="5.00" width="5.00" Name="希尔库乌" ID="30002391" Region="摩登赫斯" y="450.03" /><text y="450.03" x="99.29" id="20124">希尔库乌</text><rect Type="system" x="100.00" id="20126" height="5.00" width="5.00" Name="提鲁苏德" ID="30002385" Region="摩登赫斯" y="150.00" /><text y="150.00" x="100.00" id="20127">提鲁苏德</text><rect Type="system" x="148.22" id="20129" height="5.00" width="5.00" Name="海蒂" ID="30002390" Region="摩登赫斯" y="447.47" /><text y="447.47" x="148.22" id="20130">海蒂</text><rect Type="system" x="150.00" id="20132" height="5.00" width="5.00" Name="奥德斯代尔" ID="30002395" Region="摩登赫斯" y="520.00" /><text y="520.00" x="150.00" id="20133">奥德斯代尔</text><rect Type="system" x="180.00" id="20135" height="5.00" width="5.00" Name="伯瑟娜" ID="30002387" Region="摩登赫斯" y="180.00" /><text y="180.00" x="180.00" id="20136">伯瑟娜</text><rect Type="system" x="182.49" id="20138" height="5.00" width="5.00" Name="埃伊达特" ID="30002393" Region="摩登赫斯" y="482.49" /><text y="482.49" x="182.49" id="20139">埃伊达特</text><rect Type="system" x="200.00" id="20141" height="5.00" width="5.00" Name="杰斐文" ID="30002386" Region="摩登赫斯" y="80.00" /><text y="80.00" x="200.00" id="20142">杰斐文</text><rect Type="system" x="250.00" id="20144" height="5.00" width="5.00" Name="欧德鲁法" ID="30002388" Region="摩登赫斯" y="120.00" /><text y="120.00" x="250.00" id="20145">欧德鲁法</text><rect Type="system" x="250.00" id="20147" height="5.00" width="5.00" Name="马顿克恩" ID="30002394" Region="摩登赫斯" y="520.00" /><text y="520.00" x="250.00" id="20148">马顿克恩</text><rect Type="system" x="250.00" id="20150" height="5.00" width="5.00" Name="戈西姆" ID="30002403" Region="摩登赫斯" y="275.50" /><text y="275.50" x="250.00" id="20151">戈西姆</text><rect Type="system" x="250.00" id="20153" height="5.00" width="5.00" Name="赫达列法" ID="30002406" Region="摩登赫斯" y="324.50" /><text y="324.50" x="250.00" id="20154">赫达列法</text><rect Type="system" x="300.00" id="20156" height="5.00" width="5.00" Name="伊斯塔德" ID="30002402" Region="摩登赫斯" y="220.00" /><text y="220.00" x="300.00" id="20157">伊斯塔德</text><rect Type="system" x="320.00" id="20159" height="5.00" width="5.00" Name="哈夫" ID="30002404" Region="摩登赫斯" y="280.00" /><text y="280.00" x="320.00" id="20160">哈夫</text><rect Type="system" x="350.00" id="20162" height="5.00" width="5.00" Name="萨库尔达" ID="30002405" Region="摩登赫斯" y="320.00" /><text y="320.00" x="350.00" id="20163">萨库尔达</text><rect Type="system" x="350.00" id="20165" height="5.00" width="5.00" Name="埃塔拉尔" ID="30002389" Region="摩登赫斯" y="100.00" /><text y="100.00" x="350.00" id="20166">埃塔拉尔</text><rect Type="system" x="380.00" id="20168" height="5.00" width="5.00" Name="埃特布拉德" ID="30002407" Region="摩登赫斯" y="220.00" /><text y="220.00" x="380.00" id="20169">埃特布拉德</text><rect Type="system" x="450.00" id="20171" height="5.00" width="5.00" Name="伊拉缪尔" ID="30002396" Region="摩登赫斯" y="100.00" /><text y="100.00" x="450.00" id="20172">伊拉缪尔</text><rect Type="system" x="480.00" id="20174" height="5.00" width="5.00" Name="瓦瑞吉勒" ID="30002400" Region="摩登赫斯" y="170.00" /><text y="170.00" x="480.00" id="20175">瓦瑞吉勒</text><rect Type="system" x="550.00" id="20177" height="5.00" width="5.00" Name="赫拉卡" ID="30002397" Region="摩登赫斯" y="130.00" /><text y="130.00" x="550.00" id="20178">赫拉卡</text><rect Type="system" x="580.00" id="20180" height="5.00" width="5.00" Name="伊尔多夫" ID="30002398" Region="摩登赫斯" y="200.00" /><text y="200.00" x="580.00" id="20181">伊尔多夫</text><rect Type="system" x="520.00" id="20183" height="5.00" width="5.00" Name="伊格贝格尔" ID="30002420" Region="摩登赫斯" y="570.00" /><text y="570.00" x="520.00" id="20184">伊格贝格尔</text><rect Type="system" x="550.00" id="20186" height="5.00" width="5.00" Name="梅尔多夫" ID="30002401" Region="摩登赫斯" y="80.00" /><text y="80.00" x="550.00" id="20187">梅尔多夫</text><rect Type="system" x="650.00" id="20189" height="5.00" width="5.00" Name="欧瑞恩" ID="30002399" Region="摩登赫斯" y="150.00" /><text y="150.00" x="650.00" id="20190">欧瑞恩</text><rect Type="system" x="650.00" id="20192" height="5.00" width="5.00" Name="耶蒂泰德" ID="30002419" Region="摩登赫斯" y="550.00" /><text y="550.00" x="650.00" id="20193">耶蒂泰德</text><rect Type="system" x="680.00" id="20195" height="5.00" width="5.00" Name="赫古芬登" ID="30002418" Region="摩登赫斯" y="650.00" /><text y="650.00" x="680.00" id="20196">赫古芬登</text><rect Type="system" x="700.00" id="20198" height="5.00" width="5.00" Name="恩努尔" ID="30002412" Region="摩登赫斯" y="50.00" /><text y="50.00" x="700.00" id="20199">恩努尔</text><rect Type="system" x="700.00" id="20201" height="5.00" width="5.00" Name="卡德里纳" ID="30002417" Region="摩登赫斯" y="580.00" /><text y="580.00" x="700.00" id="20202">卡德里纳</text><rect Type="system" x="720.00" id="20204" height="5.00" width="5.00" Name="威尔德" ID="30002415" Region="摩登赫斯" y="520.00" /><text y="520.00" x="720.00" id="20205">威尔德</text><rect Type="system" x="750.00" id="20207" height="5.00" width="5.00" Name="菲格蒙克" ID="30002408" Region="摩登赫斯" y="200.00" /><text y="200.00" x="750.00" id="20208">菲格蒙克</text><rect Type="system" x="780.00" id="20210" height="5.00" width="5.00" Name="克林格特" ID="30002414" Region="摩登赫斯" y="480.00" /><text y="480.00" x="780.00" id="20211">克林格特</text><rect Type="system" x="780.00" id="20213" height="5.00" width="5.00" Name="卡特加德" ID="30002416" Region="摩登赫斯" y="600.00" /><text y="600.00" x="780.00" id="20214">卡特加德</text><rect Type="system" x="800.00" id="20216" height="5.00" width="5.00" Name="欧斯维图" ID="30002409" Region="摩登赫斯" y="250.00" /><text y="250.00" x="800.00" id="20217">欧斯维图</text><rect Type="system" x="820.00" id="20219" height="5.00" width="5.00" Name="尤勒迪克" ID="30002413" Region="摩登赫斯" y="350.00" /><text y="350.00" x="820.00" id="20220">尤勒迪克</text><rect Type="system" x="850.00" id="20222" height="5.00" width="5.00" Name="米米洛" ID="30002410" Region="摩登赫斯" y="180.00" /><text y="180.00" x="850.00" id="20223">米米洛</text><rect Type="system" x="20.00" id="20225" height="5.00" width="5.00" Name="奥斯塔卡" ID="30002523" Region="西玛特尔" y="50.00" /><text y="50.00" x="20.00" id="20226">奥斯塔卡</text><rect Type="system" x="100.00" id="20228" height="5.00" width="5.00" Name="玛吉库" ID="30002570" Region="西玛特尔" y="50.00" /><text y="50.00" x="100.00" id="20229">玛吉库</text><rect Type="system" x="100.00" id="20231" height="5.00" width="5.00" Name="科诺巴纳拉" ID="30000116" Region="德里克" y="580.00" /><text y="580.00" x="100.00" id="20232">科诺巴纳拉</text><rect Type="system" x="520.00" id="20234" height="5.00" width="5.00" Name="B-VIP9" ID="30000970" Region="大荒野" y="650.00" /><text y="650.00" x="520.00" id="20235">B-VIP9</text><rect Type="system" x="750.00" id="20237" height="5.00" width="5.00" Name="塔贝茨尔" ID="30003465" Region="美特伯里斯" y="50.00" /><text y="50.00" x="750.00" id="20238">塔贝茨尔</text><line style="stroke:blue;fill:blue;" id="20240" x2="20.00" x1="20.00" y1="100.00" y2="150.00" /><line style="stroke:blue;fill:blue;" id="20241" x2="100.00" x1="20.00" y1="100.00" y2="150.00" /><line style="stroke:blue;fill:blue;" id="20242" x2="20.00" x1="20.00" y1="100.00" y2="50.00" /><line style="stroke:blue;fill:blue;" id="20243" x2="20.00" x1="20.00" y1="150.00" y2="100.00" /><line style="stroke:blue;fill:blue;" id="20244" x2="100.00" x1="20.00" y1="150.00" y2="150.00" /><line style="stroke:blue;fill:blue;" id="20245" x2="99.29" x1="30.00" y1="450.00" y2="450.03" /><line style="stroke:blue;fill:blue;" id="20246" x2="148.22" x1="99.29" y1="450.03" y2="447.47" /><line style="stroke:blue;fill:blue;" id="20247" x2="30.00" x1="99.29" y1="450.03" y2="450.00" /><line style="stroke:blue;fill:blue;" id="20248" x2="20.00" x1="100.00" y1="150.00" y2="100.00" /><line style="stroke:blue;fill:blue;" id="20249" x2="20.00" x1="100.00" y1="150.00" y2="150.00" /><line style="stroke:blue;fill:blue;" id="20250" x2="200.00" x1="100.00" y1="150.00" y2="80.00" /><line style="stroke:blue;fill:blue;" id="20251" x2="180.00" x1="100.00" y1="150.00" y2="180.00" /><line style="stroke:blue;fill:blue;" id="20252" x2="100.00" x1="100.00" y1="150.00" y2="50.00" /><line style="stroke:blue;fill:blue;" id="20253" x2="180.00" x1="148.22" y1="447.47" y2="180.00" /><line style="stroke:blue;fill:blue;" id="20254" x2="99.29" x1="148.22" y1="447.47" y2="450.03" /><line style="stroke:blue;fill:blue;" id="20255" x2="182.49" x1="148.22" y1="447.47" y2="482.49" /><line style="stroke:blue;fill:blue;" id="20256" x2="100.00" x1="150.00" y1="520.00" y2="580.00" /><line style="stroke:blue;fill:blue;" id="20257" x2="182.49" x1="150.00" y1="520.00" y2="482.49" /><line style="stroke:blue;fill:blue;" id="20258" x2="100.00" x1="180.00" y1="180.00" y2="150.00" /><line style="stroke:blue;fill:blue;" id="20259" x2="250.00" x1="180.00" y1="180.00" y2="120.00" /><line style="stroke:blue;fill:blue;" id="20260" x2="148.22" x1="180.00" y1="180.00" y2="447.47" /><line style="stroke:blue;fill:blue;" id="20261" x2="148.22" x1="182.49" y1="482.49" y2="447.47" /><line style="stroke:blue;fill:blue;" id="20262" x2="250.00" x1="182.49" y1="482.49" y2="520.00" /><line style="stroke:blue;fill:blue;" id="20263" x2="150.00" x1="182.49" y1="482.49" y2="520.00" /><line style="stroke:blue;fill:blue;" id="20264" x2="100.00" x1="200.00" y1="80.00" y2="150.00" /><line style="stroke:blue;fill:blue;" id="20265" x2="250.00" x1="200.00" y1="80.00" y2="120.00" /><line style="stroke:blue;fill:blue;" id="20266" x2="350.00" x1="200.00" y1="80.00" y2="100.00" /><line style="stroke:blue;fill:blue;" id="20267" x2="200.00" x1="250.00" y1="120.00" y2="80.00" /><line style="stroke:blue;fill:blue;" id="20268" x2="180.00" x1="250.00" y1="120.00" y2="180.00" /><line style="stroke:blue;fill:blue;" id="20269" x2="350.00" x1="250.00" y1="120.00" y2="100.00" /><line style="stroke:blue;fill:blue;" id="20270" x2="300.00" x1="250.00" y1="120.00" y2="220.00" /><line style="stroke:blue;fill:blue;" id="20271" x2="182.49" x1="250.00" y1="520.00" y2="482.49" /><line style="stroke:blue;fill:blue;" id="20272" x2="520.00" x1="250.00" y1="520.00" y2="570.00" /><line style="stroke:blue;fill:blue;" id="20273" x2="300.00" x1="250.00" y1="275.50" y2="220.00" /><line style="stroke:blue;fill:blue;" id="20274" x2="320.00" x1="250.00" y1="275.50" y2="280.00" /><line style="stroke:blue;fill:blue;" id="20275" x2="250.00" x1="250.00" y1="275.50" y2="324.50" /><line style="stroke:blue;fill:blue;" id="20276" x2="250.00" x1="250.00" y1="324.50" y2="275.50" /><line style="stroke:blue;fill:blue;" id="20277" x2="250.00" x1="300.00" y1="220.00" y2="120.00" /><line style="stroke:blue;fill:blue;" id="20278" x2="250.00" x1="300.00" y1="220.00" y2="275.50" /><line style="stroke:blue;fill:blue;" id="20279" x2="320.00" x1="300.00" y1="220.00" y2="280.00" /><line style="stroke:blue;fill:blue;" id="20280" x2="380.00" x1="300.00" y1="220.00" y2="220.00" /><line style="stroke:blue;fill:blue;" id="20281" x2="300.00" x1="320.00" y1="280.00" y2="220.00" /><line style="stroke:blue;fill:blue;" id="20282" x2="250.00" x1="320.00" y1="280.00" y2="275.50" /><line style="stroke:blue;fill:blue;" id="20283" x2="350.00" x1="320.00" y1="280.00" y2="320.00" /><line style="stroke:blue;fill:blue;" id="20284" x2="320.00" x1="350.00" y1="320.00" y2="280.00" /><line style="stroke:blue;fill:blue;" id="20285" x2="200.00" x1="350.00" y1="100.00" y2="80.00" /><line style="stroke:blue;fill:blue;" id="20286" x2="250.00" x1="350.00" y1="100.00" y2="120.00" /><line style="stroke:blue;fill:blue;" id="20287" x2="450.00" x1="350.00" y1="100.00" y2="100.00" /><line style="stroke:blue;fill:blue;" id="20288" x2="300.00" x1="380.00" y1="220.00" y2="220.00" /><line style="stroke:blue;fill:blue;" id="20289" x2="350.00" x1="450.00" y1="100.00" y2="100.00" /><line style="stroke:blue;fill:blue;" id="20290" x2="550.00" x1="450.00" y1="100.00" y2="130.00" /><line style="stroke:blue;fill:blue;" id="20291" x2="550.00" x1="450.00" y1="100.00" y2="80.00" /><line style="stroke:blue;fill:blue;" id="20292" x2="550.00" x1="480.00" y1="170.00" y2="130.00" /><line style="stroke:blue;fill:blue;" id="20293" x2="580.00" x1="480.00" y1="170.00" y2="200.00" /><line style="stroke:blue;fill:blue;" id="20294" x2="450.00" x1="550.00" y1="130.00" y2="100.00" /><line style="stroke:blue;fill:blue;" id="20295" x2="580.00" x1="550.00" y1="130.00" y2="200.00" /><line style="stroke:blue;fill:blue;" id="20296" x2="650.00" x1="550.00" y1="130.00" y2="150.00" /><line style="stroke:blue;fill:blue;" id="20297" x2="480.00" x1="550.00" y1="130.00" y2="170.00" /><line style="stroke:blue;fill:blue;" id="20298" x2="550.00" x1="580.00" y1="200.00" y2="130.00" /><line style="stroke:blue;fill:blue;" id="20299" x2="480.00" x1="580.00" y1="200.00" y2="170.00" /><line style="stroke:blue;fill:blue;" id="20300" x2="520.00" x1="520.00" y1="570.00" y2="650.00" /><line style="stroke:blue;fill:blue;" id="20301" x2="250.00" x1="520.00" y1="570.00" y2="520.00" /><line style="stroke:blue;fill:blue;" id="20302" x2="650.00" x1="520.00" y1="570.00" y2="550.00" /><line style="stroke:blue;fill:blue;" id="20303" x2="450.00" x1="550.00" y1="80.00" y2="100.00" /><line style="stroke:blue;fill:blue;" id="20304" x2="650.00" x1="550.00" y1="80.00" y2="150.00" /><line style="stroke:blue;fill:blue;" id="20305" x2="700.00" x1="550.00" y1="80.00" y2="50.00" /><line style="stroke:blue;fill:blue;" id="20306" x2="550.00" x1="650.00" y1="150.00" y2="130.00" /><line style="stroke:blue;fill:blue;" id="20307" x2="550.00" x1="650.00" y1="150.00" y2="80.00" /><line style="stroke:blue;fill:blue;" id="20308" x2="750.00" x1="650.00" y1="150.00" y2="200.00" /><line style="stroke:blue;fill:blue;" id="20309" x2="720.00" x1="650.00" y1="550.00" y2="520.00" /><line style="stroke:blue;fill:blue;" id="20310" x2="700.00" x1="650.00" y1="550.00" y2="580.00" /><line style="stroke:blue;fill:blue;" id="20311" x2="680.00" x1="650.00" y1="550.00" y2="650.00" /><line style="stroke:blue;fill:blue;" id="20312" x2="520.00" x1="650.00" y1="550.00" y2="570.00" /><line style="stroke:blue;fill:blue;" id="20313" x2="780.00" x1="680.00" y1="650.00" y2="600.00" /><line style="stroke:blue;fill:blue;" id="20314" x2="700.00" x1="680.00" y1="650.00" y2="580.00" /><line style="stroke:blue;fill:blue;" id="20315" x2="650.00" x1="680.00" y1="650.00" y2="550.00" /><line style="stroke:blue;fill:blue;" id="20316" x2="550.00" x1="700.00" y1="50.00" y2="80.00" /><line style="stroke:blue;fill:blue;" id="20317" x2="750.00" x1="700.00" y1="50.00" y2="50.00" /><line style="stroke:blue;fill:blue;" id="20318" x2="780.00" x1="700.00" y1="580.00" y2="600.00" /><line style="stroke:blue;fill:blue;" id="20319" x2="680.00" x1="700.00" y1="580.00" y2="650.00" /><line style="stroke:blue;fill:blue;" id="20320" x2="650.00" x1="700.00" y1="580.00" y2="550.00" /><line style="stroke:blue;fill:blue;" id="20321" x2="780.00" x1="720.00" y1="520.00" y2="480.00" /><line style="stroke:blue;fill:blue;" id="20322" x2="780.00" x1="720.00" y1="520.00" y2="600.00" /><line style="stroke:blue;fill:blue;" id="20323" x2="650.00" x1="720.00" y1="520.00" y2="550.00" /><line style="stroke:blue;fill:blue;" id="20324" x2="650.00" x1="750.00" y1="200.00" y2="150.00" /><line style="stroke:blue;fill:blue;" id="20325" x2="800.00" x1="750.00" y1="200.00" y2="250.00" /><line style="stroke:blue;fill:blue;" id="20326" x2="850.00" x1="750.00" y1="200.00" y2="180.00" /><line style="stroke:blue;fill:blue;" id="20327" x2="820.00" x1="780.00" y1="480.00" y2="350.00" /><line style="stroke:blue;fill:blue;" id="20328" x2="720.00" x1="780.00" y1="480.00" y2="520.00" /><line style="stroke:blue;fill:blue;" id="20329" x2="720.00" x1="780.00" y1="600.00" y2="520.00" /><line style="stroke:blue;fill:blue;" id="20330" x2="700.00" x1="780.00" y1="600.00" y2="580.00" /><line style="stroke:blue;fill:blue;" id="20331" x2="680.00" x1="780.00" y1="600.00" y2="650.00" /><line style="stroke:blue;fill:blue;" id="20332" x2="750.00" x1="800.00" y1="250.00" y2="200.00" /><line style="stroke:blue;fill:blue;" id="20333" x2="850.00" x1="800.00" y1="250.00" y2="180.00" /><line style="stroke:blue;fill:blue;" id="20334" x2="820.00" x1="800.00" y1="250.00" y2="350.00" /><line style="stroke:blue;fill:blue;" id="20335" x2="800.00" x1="820.00" y1="350.00" y2="250.00" /><line style="stroke:blue;fill:blue;" id="20336" x2="780.00" x1="820.00" y1="350.00" y2="480.00" /><line style="stroke:blue;fill:blue;" id="20337" x2="750.00" x1="850.00" y1="180.00" y2="200.00" /><line style="stroke:blue;fill:blue;" id="20338" x2="800.00" x1="850.00" y1="180.00" y2="250.00" /><line style="stroke:blue;fill:blue;" id="20339" x2="20.00" x1="20.00" y1="50.00" y2="100.00" /><line style="stroke:blue;fill:blue;" id="20340" x2="100.00" x1="100.00" y1="50.00" y2="150.00" /><line style="stroke:blue;fill:blue;" id="20341" x2="150.00" x1="100.00" y1="580.00" y2="520.00" /><line style="stroke:blue;fill:blue;" id="20342" x2="520.00" x1="520.00" y1="650.00" y2="570.00" /><line style="stroke:blue;fill:blue;" id="20343" x2="700.00" x1="750.00" y1="50.00" y2="50.00" /></svg>
