<?xml version="1.0" standalone="yes"?><!DOCTYPE svg PUBLIC "-//W3C//DTD SVG 1.1//EN" "http://www.w3.org/Graphics/SVG/1.1/DTD/svg11.dtd"[]><svg height="800.00" id="10080" width="1050.00" xmlns="http://www.w3.org/2000/svg" xmlns:xlink="http://www.w3.org/1999/xlink"><rect Type="system" Region="斐德" height="5.00" y="250.00" Name="I-UUI5" width="5.00" x="50.00" id="10081" ID="30003701" /><text x="50.00" y="250.00" id="10082">I-UUI5</text><rect Type="system" Region="斐德" height="5.00" y="250.00" Name="MPPA-A" width="5.00" x="120.00" id="10084" ID="30003699" /><text x="120.00" y="250.00" id="10085">MPPA-A</text><rect Type="system" Region="斐德" height="5.00" y="320.00" Name="8QMO-E" width="5.00" x="120.00" id="10087" ID="30003702" /><text x="120.00" y="320.00" id="10088">8QMO-E</text><rect Type="system" Region="斐德" height="5.00" y="480.00" Name="0-ARFO" width="5.00" x="120.00" id="10090" ID="30003693" /><text x="120.00" y="480.00" id="10091">0-ARFO</text><rect Type="system" Region="斐德" height="5.00" y="280.00" Name="ME-PQ" width="5.00" x="180.00" id="10093" ID="30003698" /><text x="180.00" y="280.00" id="10094">ME-PQ</text><rect Type="system" Region="斐德" height="5.00" y="210.00" Name="X5-UME" width="5.00" x="200.00" id="10096" ID="30003700" /><text x="200.00" y="210.00" id="10097">X5-UME</text><rect Type="system" Region="斐德" height="5.00" y="550.00" Name="8W-OSE" width="5.00" x="200.00" id="10099" ID="30003695" /><text x="200.00" y="550.00" id="10100">8W-OSE</text><rect Type="system" Region="斐德" height="5.00" y="600.00" Name="WQY-IQ" width="5.00" x="220.00" id="10102" ID="30003696" /><text x="220.00" y="600.00" id="10103">WQY-IQ</text><rect Type="system" Region="斐德" height="5.00" y="450.00" Name="C-OK0R" width="5.00" x="250.00" id="10105" ID="30003692" /><text x="250.00" y="450.00" id="10106">C-OK0R</text><rect Type="system" Region="斐德" height="5.00" y="300.00" Name="C4C-Z4" width="5.00" x="250.00" id="10108" ID="30003697" /><text x="250.00" y="300.00" id="10109">C4C-Z4</text><rect Type="system" Region="斐德" height="5.00" y="520.00" Name="FIO1-8" width="5.00" x="300.00" id="10111" ID="30003691" /><text x="300.00" y="520.00" id="10112">FIO1-8</text><rect Type="system" Region="斐德" height="5.00" y="580.00" Name="E9KD-N" width="5.00" x="320.00" id="10114" ID="30003694" /><text x="320.00" y="580.00" id="10115">E9KD-N</text><rect Type="system" Region="斐德" height="5.00" y="450.00" Name="YKSC-A" width="5.00" x="350.00" id="10117" ID="30003690" /><text x="350.00" y="450.00" id="10118">YKSC-A</text><rect Type="system" Region="斐德" height="5.00" y="300.00" Name="L-C3O7" width="5.00" x="350.00" id="10120" ID="30003689" /><text x="350.00" y="300.00" id="10121">L-C3O7</text><rect Type="system" Region="斐德" height="5.00" y="220.00" Name="K4YZ-Y" width="5.00" x="400.00" id="10123" ID="30003687" /><text x="400.00" y="220.00" id="10124">K4YZ-Y</text><rect Type="system" Region="斐德" height="5.00" y="300.00" Name="X36Y-G" width="5.00" x="420.00" id="10126" ID="30003688" /><text x="420.00" y="300.00" id="10127">X36Y-G</text><rect Type="system" Region="斐德" height="5.00" y="220.00" Name="O1Y-ED" width="5.00" x="470.00" id="10129" ID="30003686" /><text x="470.00" y="220.00" id="10130">O1Y-ED</text><rect Type="system" Region="斐德" height="5.00" y="300.00" Name="VRH-H7" width="5.00" x="500.00" id="10132" ID="30003685" /><text x="500.00" y="300.00" id="10133">VRH-H7</text><rect Type="system" Region="斐德" height="5.00" y="220.00" Name="L-SCBU" width="5.00" x="550.00" id="10135" ID="30003684" /><text x="550.00" y="220.00" id="10136">L-SCBU</text><rect Type="system" Region="斐德" height="5.00" y="300.00" Name="O-CNPR" width="5.00" x="580.00" id="10138" ID="30003683" /><text x="580.00" y="300.00" id="10139">O-CNPR</text><rect Type="system" Region="斐德" height="5.00" y="300.00" Name="DW-T2I" width="5.00" x="680.00" id="10141" ID="30003682" /><text x="680.00" y="300.00" id="10142">DW-T2I</text><rect Type="system" Region="斐德" height="5.00" y="300.00" Name="P-33KR" width="5.00" x="750.00" id="10144" ID="30003680" /><text x="750.00" y="300.00" id="10145">P-33KR</text><rect Type="system" Region="斐德" height="5.00" y="380.00" Name="CR-IFM" width="5.00" x="750.00" id="10147" ID="30003678" /><text x="750.00" y="380.00" id="10148">CR-IFM</text><rect Type="system" Region="斐德" height="5.00" y="450.00" Name="E-9ORY" width="5.00" x="820.00" id="10150" ID="30003677" /><text x="820.00" y="450.00" id="10151">E-9ORY</text><rect Type="system" Region="斐德" height="5.00" y="520.00" Name="C8-CHY" width="5.00" x="820.00" id="10153" ID="30003676" /><text x="820.00" y="520.00" id="10154">C8-CHY</text><rect Type="system" Region="斐德" height="5.00" y="300.00" Name="DO6H-Q" width="5.00" x="880.00" id="10156" ID="30003681" /><text x="880.00" y="300.00" id="10157">DO6H-Q</text><rect Type="system" Region="斐德" height="5.00" y="380.00" Name="HHK-VL" width="5.00" x="880.00" id="10159" ID="30003679" /><text x="880.00" y="380.00" id="10160">HHK-VL</text><rect Type="system" Region="云环" height="5.00" y="650.00" Name="6RCQ-V" width="5.00" x="360.00" id="10162" ID="30004070" /><text x="360.00" y="650.00" id="10163">6RCQ-V</text><rect Type="system" Region="德克廉" height="5.00" y="150.00" Name="8S28-3" width="5.00" x="400.00" id="10165" ID="30002930" /><text x="400.00" y="150.00" id="10166">8S28-3</text><rect Type="system" Region="黑渊" height="5.00" y="420.00" Name="E-Z2ZX" width="5.00" x="500.00" id="10168" ID="30002032" /><text x="500.00" y="420.00" id="10169">E-Z2ZX</text><rect Type="system" Region="黑渊" height="5.00" y="620.00" Name="ROIR-Y" width="5.00" x="820.00" id="10171" ID="30001983" /><text x="820.00" y="620.00" id="10172">ROIR-Y</text><rect Type="system" Region="德克廉" height="5.00" y="200.00" Name="CCP-US" width="5.00" x="880.00" id="10174" ID="30002906" /><text x="880.00" y="200.00" id="10175">CCP-US</text><rect Type="system" Region="黑渊" height="5.00" y="320.00" Name="U-INPD" width="5.00" x="1000.00" id="10177" ID="30001997" /><text x="1000.00" y="320.00" id="10178">U-INPD</text><line x2="120.00" style="fill:blue;stroke:blue;" y1="250.00" x1="50.00" id="10180" y2="250.00" /><line x2="180.00" style="fill:blue;stroke:blue;" y1="250.00" x1="120.00" id="10181" y2="280.00" /><line x2="50.00" style="fill:blue;stroke:blue;" y1="250.00" x1="120.00" id="10182" y2="250.00" /><line x2="120.00" style="fill:blue;stroke:blue;" y1="250.00" x1="120.00" id="10183" y2="320.00" /><line x2="180.00" style="fill:blue;stroke:blue;" y1="320.00" x1="120.00" id="10184" y2="280.00" /><line x2="120.00" style="fill:blue;stroke:blue;" y1="320.00" x1="120.00" id="10185" y2="250.00" /><line x2="250.00" style="fill:blue;stroke:blue;" y1="480.00" x1="120.00" id="10186" y2="450.00" /><line x2="250.00" style="fill:blue;stroke:blue;" y1="280.00" x1="180.00" id="10187" y2="300.00" /><line x2="120.00" style="fill:blue;stroke:blue;" y1="280.00" x1="180.00" id="10188" y2="250.00" /><line x2="200.00" style="fill:blue;stroke:blue;" y1="280.00" x1="180.00" id="10189" y2="210.00" /><line x2="120.00" style="fill:blue;stroke:blue;" y1="280.00" x1="180.00" id="10190" y2="320.00" /><line x2="180.00" style="fill:blue;stroke:blue;" y1="210.00" x1="200.00" id="10191" y2="280.00" /><line x2="300.00" style="fill:blue;stroke:blue;" y1="550.00" x1="200.00" id="10192" y2="520.00" /><line x2="220.00" style="fill:blue;stroke:blue;" y1="550.00" x1="200.00" id="10193" y2="600.00" /><line x2="320.00" style="fill:blue;stroke:blue;" y1="600.00" x1="220.00" id="10194" y2="580.00" /><line x2="200.00" style="fill:blue;stroke:blue;" y1="600.00" x1="220.00" id="10195" y2="550.00" /><line x2="350.00" style="fill:blue;stroke:blue;" y1="450.00" x1="250.00" id="10196" y2="450.00" /><line x2="120.00" style="fill:blue;stroke:blue;" y1="450.00" x1="250.00" id="10197" y2="480.00" /><line x2="350.00" style="fill:blue;stroke:blue;" y1="300.00" x1="250.00" id="10198" y2="300.00" /><line x2="180.00" style="fill:blue;stroke:blue;" y1="300.00" x1="250.00" id="10199" y2="280.00" /><line x2="350.00" style="fill:blue;stroke:blue;" y1="520.00" x1="300.00" id="10200" y2="450.00" /><line x2="320.00" style="fill:blue;stroke:blue;" y1="520.00" x1="300.00" id="10201" y2="580.00" /><line x2="200.00" style="fill:blue;stroke:blue;" y1="520.00" x1="300.00" id="10202" y2="550.00" /><line x2="300.00" style="fill:blue;stroke:blue;" y1="580.00" x1="320.00" id="10203" y2="520.00" /><line x2="220.00" style="fill:blue;stroke:blue;" y1="580.00" x1="320.00" id="10204" y2="600.00" /><line x2="360.00" style="fill:blue;stroke:blue;" y1="580.00" x1="320.00" id="10205" y2="650.00" /><line x2="420.00" style="fill:blue;stroke:blue;" y1="450.00" x1="350.00" id="10206" y2="300.00" /><line x2="300.00" style="fill:blue;stroke:blue;" y1="450.00" x1="350.00" id="10207" y2="520.00" /><line x2="250.00" style="fill:blue;stroke:blue;" y1="450.00" x1="350.00" id="10208" y2="450.00" /><line x2="470.00" style="fill:blue;stroke:blue;" y1="300.00" x1="350.00" id="10209" y2="220.00" /><line x2="400.00" style="fill:blue;stroke:blue;" y1="300.00" x1="350.00" id="10210" y2="220.00" /><line x2="420.00" style="fill:blue;stroke:blue;" y1="300.00" x1="350.00" id="10211" y2="300.00" /><line x2="250.00" style="fill:blue;stroke:blue;" y1="300.00" x1="350.00" id="10212" y2="300.00" /><line x2="400.00" style="fill:blue;stroke:blue;" y1="220.00" x1="400.00" id="10213" y2="150.00" /><line x2="470.00" style="fill:blue;stroke:blue;" y1="220.00" x1="400.00" id="10214" y2="220.00" /><line x2="350.00" style="fill:blue;stroke:blue;" y1="220.00" x1="400.00" id="10215" y2="300.00" /><line x2="500.00" style="fill:blue;stroke:blue;" y1="300.00" x1="420.00" id="10216" y2="300.00" /><line x2="350.00" style="fill:blue;stroke:blue;" y1="300.00" x1="420.00" id="10217" y2="300.00" /><line x2="350.00" style="fill:blue;stroke:blue;" y1="300.00" x1="420.00" id="10218" y2="450.00" /><line x2="580.00" style="fill:blue;stroke:blue;" y1="220.00" x1="470.00" id="10219" y2="300.00" /><line x2="550.00" style="fill:blue;stroke:blue;" y1="220.00" x1="470.00" id="10220" y2="220.00" /><line x2="400.00" style="fill:blue;stroke:blue;" y1="220.00" x1="470.00" id="10221" y2="220.00" /><line x2="350.00" style="fill:blue;stroke:blue;" y1="220.00" x1="470.00" id="10222" y2="300.00" /><line x2="500.00" style="fill:blue;stroke:blue;" y1="300.00" x1="500.00" id="10223" y2="420.00" /><line x2="580.00" style="fill:blue;stroke:blue;" y1="300.00" x1="500.00" id="10224" y2="300.00" /><line x2="420.00" style="fill:blue;stroke:blue;" y1="300.00" x1="500.00" id="10225" y2="300.00" /><line x2="580.00" style="fill:blue;stroke:blue;" y1="220.00" x1="550.00" id="10226" y2="300.00" /><line x2="470.00" style="fill:blue;stroke:blue;" y1="220.00" x1="550.00" id="10227" y2="220.00" /><line x2="680.00" style="fill:blue;stroke:blue;" y1="300.00" x1="580.00" id="10228" y2="300.00" /><line x2="550.00" style="fill:blue;stroke:blue;" y1="300.00" x1="580.00" id="10229" y2="220.00" /><line x2="500.00" style="fill:blue;stroke:blue;" y1="300.00" x1="580.00" id="10230" y2="300.00" /><line x2="470.00" style="fill:blue;stroke:blue;" y1="300.00" x1="580.00" id="10231" y2="220.00" /><line x2="750.00" style="fill:blue;stroke:blue;" y1="300.00" x1="680.00" id="10232" y2="300.00" /><line x2="580.00" style="fill:blue;stroke:blue;" y1="300.00" x1="680.00" id="10233" y2="300.00" /><line x2="750.00" style="fill:blue;stroke:blue;" y1="300.00" x1="750.00" id="10234" y2="380.00" /><line x2="880.00" style="fill:blue;stroke:blue;" y1="300.00" x1="750.00" id="10235" y2="300.00" /><line x2="680.00" style="fill:blue;stroke:blue;" y1="300.00" x1="750.00" id="10236" y2="300.00" /><line x2="820.00" style="fill:blue;stroke:blue;" y1="380.00" x1="750.00" id="10237" y2="450.00" /><line x2="880.00" style="fill:blue;stroke:blue;" y1="380.00" x1="750.00" id="10238" y2="380.00" /><line x2="750.00" style="fill:blue;stroke:blue;" y1="380.00" x1="750.00" id="10239" y2="300.00" /><line x2="820.00" style="fill:blue;stroke:blue;" y1="450.00" x1="820.00" id="10240" y2="520.00" /><line x2="750.00" style="fill:blue;stroke:blue;" y1="450.00" x1="820.00" id="10241" y2="380.00" /><line x2="880.00" style="fill:blue;stroke:blue;" y1="450.00" x1="820.00" id="10242" y2="380.00" /><line x2="820.00" style="fill:blue;stroke:blue;" y1="520.00" x1="820.00" id="10243" y2="620.00" /><line x2="820.00" style="fill:blue;stroke:blue;" y1="520.00" x1="820.00" id="10244" y2="450.00" /><line x2="1000.00" style="fill:blue;stroke:blue;" y1="300.00" x1="880.00" id="10245" y2="320.00" /><line x2="880.00" style="fill:blue;stroke:blue;" y1="300.00" x1="880.00" id="10246" y2="200.00" /><line x2="880.00" style="fill:blue;stroke:blue;" y1="300.00" x1="880.00" id="10247" y2="380.00" /><line x2="750.00" style="fill:blue;stroke:blue;" y1="300.00" x1="880.00" id="10248" y2="300.00" /><line x2="820.00" style="fill:blue;stroke:blue;" y1="380.00" x1="880.00" id="10249" y2="450.00" /><line x2="750.00" style="fill:blue;stroke:blue;" y1="380.00" x1="880.00" id="10250" y2="380.00" /><line x2="880.00" style="fill:blue;stroke:blue;" y1="380.00" x1="880.00" id="10251" y2="300.00" /><line x2="320.00" style="fill:blue;stroke:blue;" y1="650.00" x1="360.00" id="10252" y2="580.00" /><line x2="400.00" style="fill:blue;stroke:blue;" y1="150.00" x1="400.00" id="10253" y2="220.00" /><line x2="500.00" style="fill:blue;stroke:blue;" y1="420.00" x1="500.00" id="10254" y2="300.00" /><line x2="820.00" style="fill:blue;stroke:blue;" y1="620.00" x1="820.00" id="10255" y2="520.00" /><line x2="880.00" style="fill:blue;stroke:blue;" y1="200.00" x1="880.00" id="10256" y2="300.00" /><line x2="880.00" style="fill:blue;stroke:blue;" y1="320.00" x1="1000.00" id="10257" y2="300.00" /></svg>
