<?xml version="1.0" standalone="yes"?><!DOCTYPE svg PUBLIC "-//W3C//DTD SVG 1.1//EN" "http://www.w3.org/Graphics/SVG/1.1/DTD/svg11.dtd"[]><svg width="1050.00" height="800.00" id="10080" xmlns="http://www.w3.org/2000/svg" xmlns:xlink="http://www.w3.org/1999/xlink"><rect Type="system" x="50.00" id="10081" height="5.00" width="5.00" Name="I-UUI5" ID="30003701" Region="斐德" y="250.00" /><text y="250.00" x="50.00" id="10082">I-UUI5</text><rect Type="system" x="120.00" id="10084" height="5.00" width="5.00" Name="MPPA-A" ID="30003699" Region="斐德" y="250.00" /><text y="250.00" x="120.00" id="10085">MPPA-A</text><rect Type="system" x="120.00" id="10087" height="5.00" width="5.00" Name="8QMO-E" ID="30003702" Region="斐德" y="320.00" /><text y="320.00" x="120.00" id="10088">8QMO-E</text><rect Type="system" x="120.00" id="10090" height="5.00" width="5.00" Name="0-ARFO" ID="30003693" Region="斐德" y="480.00" /><text y="480.00" x="120.00" id="10091">0-ARFO</text><rect Type="system" x="180.00" id="10093" height="5.00" width="5.00" Name="ME-PQ" ID="30003698" Region="斐德" y="280.00" /><text y="280.00" x="180.00" id="10094">ME-PQ</text><rect Type="system" x="200.00" id="10096" height="5.00" width="5.00" Name="X5-UME" ID="30003700" Region="斐德" y="210.00" /><text y="210.00" x="200.00" id="10097">X5-UME</text><rect Type="system" x="200.00" id="10099" height="5.00" width="5.00" Name="8W-OSE" ID="30003695" Region="斐德" y="550.00" /><text y="550.00" x="200.00" id="10100">8W-OSE</text><rect Type="system" x="220.00" id="10102" height="5.00" width="5.00" Name="WQY-IQ" ID="30003696" Region="斐德" y="600.00" /><text y="600.00" x="220.00" id="10103">WQY-IQ</text><rect Type="system" x="250.00" id="10105" height="5.00" width="5.00" Name="C-OK0R" ID="30003692" Region="斐德" y="450.00" /><text y="450.00" x="250.00" id="10106">C-OK0R</text><rect Type="system" x="250.00" id="10108" height="5.00" width="5.00" Name="C4C-Z4" ID="30003697" Region="斐德" y="300.00" /><text y="300.00" x="250.00" id="10109">C4C-Z4</text><rect Type="system" x="300.00" id="10111" height="5.00" width="5.00" Name="FIO1-8" ID="30003691" Region="斐德" y="520.00" /><text y="520.00" x="300.00" id="10112">FIO1-8</text><rect Type="system" x="320.00" id="10114" height="5.00" width="5.00" Name="E9KD-N" ID="30003694" Region="斐德" y="580.00" /><text y="580.00" x="320.00" id="10115">E9KD-N</text><rect Type="system" x="350.00" id="10117" height="5.00" width="5.00" Name="YKSC-A" ID="30003690" Region="斐德" y="450.00" /><text y="450.00" x="350.00" id="10118">YKSC-A</text><rect Type="system" x="350.00" id="10120" height="5.00" width="5.00" Name="L-C3O7" ID="30003689" Region="斐德" y="300.00" /><text y="300.00" x="350.00" id="10121">L-C3O7</text><rect Type="system" x="400.00" id="10123" height="5.00" width="5.00" Name="K4YZ-Y" ID="30003687" Region="斐德" y="220.00" /><text y="220.00" x="400.00" id="10124">K4YZ-Y</text><rect Type="system" x="420.00" id="10126" height="5.00" width="5.00" Name="X36Y-G" ID="30003688" Region="斐德" y="300.00" /><text y="300.00" x="420.00" id="10127">X36Y-G</text><rect Type="system" x="470.00" id="10129" height="5.00" width="5.00" Name="O1Y-ED" ID="30003686" Region="斐德" y="220.00" /><text y="220.00" x="470.00" id="10130">O1Y-ED</text><rect Type="system" x="500.00" id="10132" height="5.00" width="5.00" Name="VRH-H7" ID="30003685" Region="斐德" y="300.00" /><text y="300.00" x="500.00" id="10133">VRH-H7</text><rect Type="system" x="550.00" id="10135" height="5.00" width="5.00" Name="L-SCBU" ID="30003684" Region="斐德" y="220.00" /><text y="220.00" x="550.00" id="10136">L-SCBU</text><rect Type="system" x="580.00" id="10138" height="5.00" width="5.00" Name="O-CNPR" ID="30003683" Region="斐德" y="300.00" /><text y="300.00" x="580.00" id="10139">O-CNPR</text><rect Type="system" x="680.00" id="10141" height="5.00" width="5.00" Name="DW-T2I" ID="30003682" Region="斐德" y="300.00" /><text y="300.00" x="680.00" id="10142">DW-T2I</text><rect Type="system" x="750.00" id="10144" height="5.00" width="5.00" Name="P-33KR" ID="30003680" Region="斐德" y="300.00" /><text y="300.00" x="750.00" id="10145">P-33KR</text><rect Type="system" x="750.00" id="10147" height="5.00" width="5.00" Name="CR-IFM" ID="30003678" Region="斐德" y="380.00" /><text y="380.00" x="750.00" id="10148">CR-IFM</text><rect Type="system" x="820.00" id="10150" height="5.00" width="5.00" Name="E-9ORY" ID="30003677" Region="斐德" y="450.00" /><text y="450.00" x="820.00" id="10151">E-9ORY</text><rect Type="system" x="820.00" id="10153" height="5.00" width="5.00" Name="C8-CHY" ID="30003676" Region="斐德" y="520.00" /><text y="520.00" x="820.00" id="10154">C8-CHY</text><rect Type="system" x="880.00" id="10156" height="5.00" width="5.00" Name="DO6H-Q" ID="30003681" Region="斐德" y="300.00" /><text y="300.00" x="880.00" id="10157">DO6H-Q</text><rect Type="system" x="880.00" id="10159" height="5.00" width="5.00" Name="HHK-VL" ID="30003679" Region="斐德" y="380.00" /><text y="380.00" x="880.00" id="10160">HHK-VL</text><rect Type="system" x="360.00" id="10162" height="5.00" width="5.00" Name="6RCQ-V" ID="30004070" Region="云环" y="650.00" /><text y="650.00" x="360.00" id="10163">6RCQ-V</text><rect Type="system" x="400.00" id="10165" height="5.00" width="5.00" Name="8S28-3" ID="30002930" Region="德克廉" y="150.00" /><text y="150.00" x="400.00" id="10166">8S28-3</text><rect Type="system" x="500.00" id="10168" height="5.00" width="5.00" Name="E-Z2ZX" ID="30002032" Region="黑渊" y="420.00" /><text y="420.00" x="500.00" id="10169">E-Z2ZX</text><rect Type="system" x="820.00" id="10171" height="5.00" width="5.00" Name="ROIR-Y" ID="30001983" Region="黑渊" y="620.00" /><text y="620.00" x="820.00" id="10172">ROIR-Y</text><rect Type="system" x="880.00" id="10174" height="5.00" width="5.00" Name="CCP-US" ID="30002906" Region="德克廉" y="200.00" /><text y="200.00" x="880.00" id="10175">CCP-US</text><rect Type="system" x="1000.00" id="10177" height="5.00" width="5.00" Name="U-INPD" ID="30001997" Region="黑渊" y="320.00" /><text y="320.00" x="1000.00" id="10178">U-INPD</text><line style="stroke:blue;fill:blue;" id="10180" x2="120.00" x1="50.00" y1="250.00" y2="250.00" /><line style="stroke:blue;fill:blue;" id="10181" x2="180.00" x1="120.00" y1="250.00" y2="280.00" /><line style="stroke:blue;fill:blue;" id="10182" x2="50.00" x1="120.00" y1="250.00" y2="250.00" /><line style="stroke:blue;fill:blue;" id="10183" x2="120.00" x1="120.00" y1="250.00" y2="320.00" /><line style="stroke:blue;fill:blue;" id="10184" x2="180.00" x1="120.00" y1="320.00" y2="280.00" /><line style="stroke:blue;fill:blue;" id="10185" x2="120.00" x1="120.00" y1="320.00" y2="250.00" /><line style="stroke:blue;fill:blue;" id="10186" x2="250.00" x1="120.00" y1="480.00" y2="450.00" /><line style="stroke:blue;fill:blue;" id="10187" x2="250.00" x1="180.00" y1="280.00" y2="300.00" /><line style="stroke:blue;fill:blue;" id="10188" x2="120.00" x1="180.00" y1="280.00" y2="250.00" /><line style="stroke:blue;fill:blue;" id="10189" x2="200.00" x1="180.00" y1="280.00" y2="210.00" /><line style="stroke:blue;fill:blue;" id="10190" x2="120.00" x1="180.00" y1="280.00" y2="320.00" /><line style="stroke:blue;fill:blue;" id="10191" x2="180.00" x1="200.00" y1="210.00" y2="280.00" /><line style="stroke:blue;fill:blue;" id="10192" x2="300.00" x1="200.00" y1="550.00" y2="520.00" /><line style="stroke:blue;fill:blue;" id="10193" x2="220.00" x1="200.00" y1="550.00" y2="600.00" /><line style="stroke:blue;fill:blue;" id="10194" x2="320.00" x1="220.00" y1="600.00" y2="580.00" /><line style="stroke:blue;fill:blue;" id="10195" x2="200.00" x1="220.00" y1="600.00" y2="550.00" /><line style="stroke:blue;fill:blue;" id="10196" x2="350.00" x1="250.00" y1="450.00" y2="450.00" /><line style="stroke:blue;fill:blue;" id="10197" x2="120.00" x1="250.00" y1="450.00" y2="480.00" /><line style="stroke:blue;fill:blue;" id="10198" x2="350.00" x1="250.00" y1="300.00" y2="300.00" /><line style="stroke:blue;fill:blue;" id="10199" x2="180.00" x1="250.00" y1="300.00" y2="280.00" /><line style="stroke:blue;fill:blue;" id="10200" x2="350.00" x1="300.00" y1="520.00" y2="450.00" /><line style="stroke:blue;fill:blue;" id="10201" x2="320.00" x1="300.00" y1="520.00" y2="580.00" /><line style="stroke:blue;fill:blue;" id="10202" x2="200.00" x1="300.00" y1="520.00" y2="550.00" /><line style="stroke:blue;fill:blue;" id="10203" x2="300.00" x1="320.00" y1="580.00" y2="520.00" /><line style="stroke:blue;fill:blue;" id="10204" x2="220.00" x1="320.00" y1="580.00" y2="600.00" /><line style="stroke:blue;fill:blue;" id="10205" x2="360.00" x1="320.00" y1="580.00" y2="650.00" /><line style="stroke:blue;fill:blue;" id="10206" x2="420.00" x1="350.00" y1="450.00" y2="300.00" /><line style="stroke:blue;fill:blue;" id="10207" x2="300.00" x1="350.00" y1="450.00" y2="520.00" /><line style="stroke:blue;fill:blue;" id="10208" x2="250.00" x1="350.00" y1="450.00" y2="450.00" /><line style="stroke:blue;fill:blue;" id="10209" x2="470.00" x1="350.00" y1="300.00" y2="220.00" /><line style="stroke:blue;fill:blue;" id="10210" x2="400.00" x1="350.00" y1="300.00" y2="220.00" /><line style="stroke:blue;fill:blue;" id="10211" x2="420.00" x1="350.00" y1="300.00" y2="300.00" /><line style="stroke:blue;fill:blue;" id="10212" x2="250.00" x1="350.00" y1="300.00" y2="300.00" /><line style="stroke:blue;fill:blue;" id="10213" x2="400.00" x1="400.00" y1="220.00" y2="150.00" /><line style="stroke:blue;fill:blue;" id="10214" x2="470.00" x1="400.00" y1="220.00" y2="220.00" /><line style="stroke:blue;fill:blue;" id="10215" x2="350.00" x1="400.00" y1="220.00" y2="300.00" /><line style="stroke:blue;fill:blue;" id="10216" x2="500.00" x1="420.00" y1="300.00" y2="300.00" /><line style="stroke:blue;fill:blue;" id="10217" x2="350.00" x1="420.00" y1="300.00" y2="300.00" /><line style="stroke:blue;fill:blue;" id="10218" x2="350.00" x1="420.00" y1="300.00" y2="450.00" /><line style="stroke:blue;fill:blue;" id="10219" x2="580.00" x1="470.00" y1="220.00" y2="300.00" /><line style="stroke:blue;fill:blue;" id="10220" x2="550.00" x1="470.00" y1="220.00" y2="220.00" /><line style="stroke:blue;fill:blue;" id="10221" x2="400.00" x1="470.00" y1="220.00" y2="220.00" /><line style="stroke:blue;fill:blue;" id="10222" x2="350.00" x1="470.00" y1="220.00" y2="300.00" /><line style="stroke:blue;fill:blue;" id="10223" x2="500.00" x1="500.00" y1="300.00" y2="420.00" /><line style="stroke:blue;fill:blue;" id="10224" x2="580.00" x1="500.00" y1="300.00" y2="300.00" /><line style="stroke:blue;fill:blue;" id="10225" x2="420.00" x1="500.00" y1="300.00" y2="300.00" /><line style="stroke:blue;fill:blue;" id="10226" x2="580.00" x1="550.00" y1="220.00" y2="300.00" /><line style="stroke:blue;fill:blue;" id="10227" x2="470.00" x1="550.00" y1="220.00" y2="220.00" /><line style="stroke:blue;fill:blue;" id="10228" x2="680.00" x1="580.00" y1="300.00" y2="300.00" /><line style="stroke:blue;fill:blue;" id="10229" x2="550.00" x1="580.00" y1="300.00" y2="220.00" /><line style="stroke:blue;fill:blue;" id="10230" x2="500.00" x1="580.00" y1="300.00" y2="300.00" /><line style="stroke:blue;fill:blue;" id="10231" x2="470.00" x1="580.00" y1="300.00" y2="220.00" /><line style="stroke:blue;fill:blue;" id="10232" x2="750.00" x1="680.00" y1="300.00" y2="300.00" /><line style="stroke:blue;fill:blue;" id="10233" x2="580.00" x1="680.00" y1="300.00" y2="300.00" /><line style="stroke:blue;fill:blue;" id="10234" x2="750.00" x1="750.00" y1="300.00" y2="380.00" /><line style="stroke:blue;fill:blue;" id="10235" x2="880.00" x1="750.00" y1="300.00" y2="300.00" /><line style="stroke:blue;fill:blue;" id="10236" x2="680.00" x1="750.00" y1="300.00" y2="300.00" /><line style="stroke:blue;fill:blue;" id="10237" x2="820.00" x1="750.00" y1="380.00" y2="450.00" /><line style="stroke:blue;fill:blue;" id="10238" x2="880.00" x1="750.00" y1="380.00" y2="380.00" /><line style="stroke:blue;fill:blue;" id="10239" x2="750.00" x1="750.00" y1="380.00" y2="300.00" /><line style="stroke:blue;fill:blue;" id="10240" x2="820.00" x1="820.00" y1="450.00" y2="520.00" /><line style="stroke:blue;fill:blue;" id="10241" x2="750.00" x1="820.00" y1="450.00" y2="380.00" /><line style="stroke:blue;fill:blue;" id="10242" x2="880.00" x1="820.00" y1="450.00" y2="380.00" /><line style="stroke:blue;fill:blue;" id="10243" x2="820.00" x1="820.00" y1="520.00" y2="620.00" /><line style="stroke:blue;fill:blue;" id="10244" x2="820.00" x1="820.00" y1="520.00" y2="450.00" /><line style="stroke:blue;fill:blue;" id="10245" x2="1000.00" x1="880.00" y1="300.00" y2="320.00" /><line style="stroke:blue;fill:blue;" id="10246" x2="880.00" x1="880.00" y1="300.00" y2="200.00" /><line style="stroke:blue;fill:blue;" id="10247" x2="880.00" x1="880.00" y1="300.00" y2="380.00" /><line style="stroke:blue;fill:blue;" id="10248" x2="750.00" x1="880.00" y1="300.00" y2="300.00" /><line style="stroke:blue;fill:blue;" id="10249" x2="820.00" x1="880.00" y1="380.00" y2="450.00" /><line style="stroke:blue;fill:blue;" id="10250" x2="750.00" x1="880.00" y1="380.00" y2="380.00" /><line style="stroke:blue;fill:blue;" id="10251" x2="880.00" x1="880.00" y1="380.00" y2="300.00" /><line style="stroke:blue;fill:blue;" id="10252" x2="320.00" x1="360.00" y1="650.00" y2="580.00" /><line style="stroke:blue;fill:blue;" id="10253" x2="400.00" x1="400.00" y1="150.00" y2="220.00" /><line style="stroke:blue;fill:blue;" id="10254" x2="500.00" x1="500.00" y1="420.00" y2="300.00" /><line style="stroke:blue;fill:blue;" id="10255" x2="820.00" x1="820.00" y1="620.00" y2="520.00" /><line style="stroke:blue;fill:blue;" id="10256" x2="880.00" x1="880.00" y1="200.00" y2="300.00" /><line style="stroke:blue;fill:blue;" id="10257" x2="880.00" x1="1000.00" y1="320.00" y2="300.00" /></svg>
