<?xml version="1.0" standalone="yes"?><!DOCTYPE svg PUBLIC "-//W3C//DTD SVG 1.1//EN" "http://www.w3.org/Graphics/SVG/1.1/DTD/svg11.dtd"[]><svg width="1050.00" height="800.00" id="23633" xmlns="http://www.w3.org/2000/svg" xmlns:xlink="http://www.w3.org/1999/xlink"><rect Type="system" x="50.00" id="23634" height="5.00" width="5.00" Name="K1I1-J" ID="30003758" Region="普罗维登斯" y="220.00" /><text y="220.00" x="50.00" id="23635">K1I1-J</text><rect Type="system" x="50.00" id="23637" height="5.00" width="5.00" Name="AY-24I" ID="30003756" Region="普罗维登斯" y="320.00" /><text y="320.00" x="50.00" id="23638">AY-24I</text><rect Type="system" x="50.00" id="23640" height="5.00" width="5.00" Name="X6AB-Y" ID="30003773" Region="普罗维登斯" y="400.00" /><text y="400.00" x="50.00" id="23641">X6AB-Y</text><rect Type="system" x="50.00" id="23643" height="5.00" width="5.00" Name="X-R3NM" ID="30003770" Region="普罗维登斯" y="480.00" /><text y="480.00" x="50.00" id="23644">X-R3NM</text><rect Type="system" x="80.00" id="23646" height="5.00" width="5.00" Name="LF-2KP" ID="30003759" Region="普罗维登斯" y="50.00" /><text y="50.00" x="80.00" id="23647">LF-2KP</text><rect Type="system" x="80.00" id="23649" height="5.00" width="5.00" Name="R3-K7K" ID="30003769" Region="普罗维登斯" y="600.00" /><text y="600.00" x="80.00" id="23650">R3-K7K</text><rect Type="system" x="120.00" id="23652" height="5.00" width="5.00" Name="MVCJ-E" ID="30003755" Region="普罗维登斯" y="180.00" /><text y="180.00" x="120.00" id="23653">MVCJ-E</text><rect Type="system" x="150.00" id="23655" height="5.00" width="5.00" Name="BK4-YC" ID="30003757" Region="普罗维登斯" y="80.00" /><text y="80.00" x="150.00" id="23656">BK4-YC</text><rect Type="system" x="150.00" id="23658" height="5.00" width="5.00" Name="N8XA-L" ID="30003767" Region="普罗维登斯" y="650.00" /><text y="650.00" x="150.00" id="23659">N8XA-L</text><rect Type="system" x="150.00" id="23661" height="5.00" width="5.00" Name="8B-VLX" ID="30003771" Region="普罗维登斯" y="400.00" /><text y="400.00" x="150.00" id="23662">8B-VLX</text><rect Type="system" x="150.00" id="23664" height="5.00" width="5.00" Name="G-B22J" ID="30003772" Region="普罗维登斯" y="480.00" /><text y="480.00" x="150.00" id="23665">G-B22J</text><rect Type="system" x="150.00" id="23667" height="5.00" width="5.00" Name="18-GZM" ID="30003768" Region="普罗维登斯" y="720.00" /><text y="720.00" x="150.00" id="23668">18-GZM</text><rect Type="system" x="150.00" id="23670" height="5.00" width="5.00" Name="TXJ-II" ID="30003779" Region="普罗维登斯" y="580.00" /><text y="580.00" x="150.00" id="23671">TXJ-II</text><rect Type="system" x="180.00" id="23673" height="5.00" width="5.00" Name="2-TEGJ" ID="30003754" Region="普罗维登斯" y="280.00" /><text y="280.00" x="180.00" id="23674">2-TEGJ</text><rect Type="system" x="200.00" id="23676" height="5.00" width="5.00" Name="I-MGAB" ID="30003784" Region="普罗维登斯" y="100.00" /><text y="100.00" x="200.00" id="23677">I-MGAB</text><rect Type="system" x="200.00" id="23679" height="5.00" width="5.00" Name="18XA-C" ID="30003785" Region="普罗维登斯" y="150.00" /><text y="150.00" x="200.00" id="23680">18XA-C</text><rect Type="system" x="220.00" id="23682" height="5.00" width="5.00" Name="1-1I53" ID="30003766" Region="普罗维登斯" y="700.00" /><text y="700.00" x="220.00" id="23683">1-1I53</text><rect Type="system" x="250.00" id="23685" height="5.00" width="5.00" Name="GA9P-0" ID="30003777" Region="普罗维登斯" y="550.00" /><text y="550.00" x="250.00" id="23686">GA9P-0</text><rect Type="system" x="250.00" id="23688" height="5.00" width="5.00" Name="C1-HAB" ID="30003780" Region="普罗维登斯" y="620.00" /><text y="620.00" x="250.00" id="23689">C1-HAB</text><rect Type="system" x="278.09" id="23691" height="5.00" width="5.00" Name="0B-HLZ" ID="30003782" Region="普罗维登斯" y="79.04" /><text y="79.04" x="278.09" id="23692">0B-HLZ</text><rect Type="system" x="278.09" id="23694" height="5.00" width="5.00" Name="Z-RFE3" ID="30003783" Region="普罗维登斯" y="179.04" /><text y="179.04" x="278.09" id="23695">Z-RFE3</text><rect Type="system" x="280.00" id="23697" height="5.00" width="5.00" Name="MH9C-S" ID="30003712" Region="普罗维登斯" y="380.00" /><text y="380.00" x="280.00" id="23698">MH9C-S</text><rect Type="system" x="280.00" id="23700" height="5.00" width="5.00" Name="7YWV-S" ID="30003778" Region="普罗维登斯" y="480.00" /><text y="480.00" x="280.00" id="23701">7YWV-S</text><rect Type="system" x="320.00" id="23703" height="5.00" width="5.00" Name="ZT-LPU" ID="30003747" Region="普罗维登斯" y="700.00" /><text y="700.00" x="320.00" id="23704">ZT-LPU</text><rect Type="system" x="320.00" id="23706" height="5.00" width="5.00" Name="F-YH5B" ID="30003751" Region="普罗维登斯" y="50.00" /><text y="50.00" x="320.00" id="23707">F-YH5B</text><rect Type="system" x="321.91" id="23709" height="5.00" width="5.00" Name="3D-CQU" ID="30003786" Region="普罗维登斯" y="100.96" /><text y="100.96" x="321.91" id="23710">3D-CQU</text><rect Type="system" x="320.00" id="23712" height="5.00" width="5.00" Name="3KB-J0" ID="30003781" Region="普罗维登斯" y="150.00" /><text y="150.00" x="320.00" id="23713">3KB-J0</text><rect Type="system" x="321.91" id="23715" height="5.00" width="5.00" Name="IS-R7P" ID="30001236" Region="卡彻" y="200.96" /><text y="200.96" x="321.91" id="23716">IS-R7P</text><rect Type="system" x="350.00" id="23718" height="5.00" width="5.00" Name="HP-6Z6" ID="30003776" Region="普罗维登斯" y="550.00" /><text y="550.00" x="350.00" id="23719">HP-6Z6</text><rect Type="system" x="350.00" id="23721" height="5.00" width="5.00" Name="H9-J8N" ID="30003775" Region="普罗维登斯" y="620.00" /><text y="620.00" x="350.00" id="23722">H9-J8N</text><rect Type="system" x="350.00" id="23724" height="5.00" width="5.00" Name="BR-N97" ID="30001235" Region="卡彻" y="250.00" /><text y="250.00" x="350.00" id="23725">BR-N97</text><rect Type="system" x="380.00" id="23727" height="5.00" width="5.00" Name="T-RPFU" ID="30003715" Region="普罗维登斯" y="400.00" /><text y="400.00" x="380.00" id="23728">T-RPFU</text><rect Type="system" x="380.00" id="23730" height="5.00" width="5.00" Name="FX-7EM" ID="30003711" Region="普罗维登斯" y="450.00" /><text y="450.00" x="380.00" id="23731">FX-7EM</text><rect Type="system" x="400.00" id="23733" height="5.00" width="5.00" Name="2V-CS5" ID="30003774" Region="普罗维登斯" y="650.00" /><text y="650.00" x="400.00" id="23734">2V-CS5</text><rect Type="system" x="400.00" id="23736" height="5.00" width="5.00" Name="AY-YCU" ID="30003746" Region="普罗维登斯" y="700.00" /><text y="700.00" x="400.00" id="23737">AY-YCU</text><rect Type="system" x="400.00" id="23739" height="5.00" width="5.00" Name="DP-JD4" ID="30003721" Region="普罗维登斯" y="200.00" /><text y="200.00" x="400.00" id="23740">DP-JD4</text><rect Type="system" x="420.00" id="23742" height="5.00" width="5.00" Name="ERVK-P" ID="30001233" Region="卡彻" y="300.00" /><text y="300.00" x="420.00" id="23743">ERVK-P</text><rect Type="system" x="447.68" id="23745" height="5.00" width="5.00" Name="5IO8-U" ID="30003720" Region="普罗维登斯" y="147.68" /><text y="147.68" x="447.68" id="23746">5IO8-U</text><rect Type="system" x="450.00" id="23748" height="5.00" width="5.00" Name="OXIY-V" ID="30003722" Region="普罗维登斯" y="250.00" /><text y="250.00" x="450.00" id="23749">OXIY-V</text><rect Type="system" x="450.00" id="23751" height="5.00" width="5.00" Name="D-GTMI" ID="30003709" Region="普罗维登斯" y="400.00" /><text y="400.00" x="450.00" id="23752">D-GTMI</text><rect Type="system" x="480.00" id="23754" height="5.00" width="5.00" Name="8P9-BM" ID="30003750" Region="普罗维登斯" y="50.00" /><text y="50.00" x="480.00" id="23755">8P9-BM</text><rect Type="system" x="482.32" id="23757" height="5.00" width="5.00" Name="QR-K85" ID="30003719" Region="普罗维登斯" y="182.32" /><text y="182.32" x="482.32" id="23758">QR-K85</text><rect Type="system" x="480.00" id="23760" height="5.00" width="5.00" Name="TU-RI6" ID="30003742" Region="普罗维登斯" y="700.00" /><text y="700.00" x="480.00" id="23761">TU-RI6</text><rect Type="system" x="490.00" id="23763" height="5.00" width="5.00" Name="FSW-3C" ID="30003710" Region="普罗维登斯" y="470.00" /><text y="470.00" x="490.00" id="23764">FSW-3C</text><rect Type="system" x="500.00" id="23766" height="5.00" width="5.00" Name="6-OQJV" ID="30003745" Region="普罗维登斯" y="620.00" /><text y="620.00" x="500.00" id="23767">6-OQJV</text><rect Type="system" x="520.00" id="23769" height="5.00" width="5.00" Name="FC-3YI" ID="30003718" Region="普罗维登斯" y="120.00" /><text y="120.00" x="520.00" id="23770">FC-3YI</text><rect Type="system" x="550.00" id="23772" height="5.00" width="5.00" Name="X-4WZD" ID="30003744" Region="普罗维登斯" y="550.00" /><text y="550.00" x="550.00" id="23773">X-4WZD</text><rect Type="system" x="550.00" id="23775" height="5.00" width="5.00" Name="G-AOTH" ID="30001227" Region="卡彻" y="280.00" /><text y="280.00" x="550.00" id="23776">G-AOTH</text><rect Type="system" x="550.00" id="23778" height="5.00" width="5.00" Name="U-HYMT" ID="30003717" Region="普罗维登斯" y="180.00" /><text y="180.00" x="550.00" id="23779">U-HYMT</text><rect Type="system" x="550.00" id="23781" height="5.00" width="5.00" Name="S9X-AX" ID="30003741" Region="普罗维登斯" y="700.00" /><text y="700.00" x="550.00" id="23782">S9X-AX</text><rect Type="system" x="580.00" id="23784" height="5.00" width="5.00" Name="3GXF-U" ID="30003748" Region="普罗维登斯" y="50.00" /><text y="50.00" x="580.00" id="23785">3GXF-U</text><rect Type="system" x="600.00" id="23787" height="5.00" width="5.00" Name="08Z-JJ" ID="30003743" Region="普罗维登斯" y="620.00" /><text y="620.00" x="600.00" id="23788">08Z-JJ</text><rect Type="system" x="620.00" id="23790" height="5.00" width="5.00" Name="49GC-R" ID="30003708" Region="普罗维登斯" y="100.00" /><text y="100.00" x="620.00" id="23791">49GC-R</text><rect Type="system" x="650.00" id="23793" height="5.00" width="5.00" Name="9UY4-H" ID="30003707" Region="普罗维登斯" y="180.00" /><text y="180.00" x="650.00" id="23794">9UY4-H</text><rect Type="system" x="650.00" id="23796" height="5.00" width="5.00" Name="G7AQ-7" ID="30003713" Region="普罗维登斯" y="520.00" /><text y="520.00" x="650.00" id="23797">G7AQ-7</text><rect Type="system" x="650.00" id="23799" height="5.00" width="5.00" Name="VKI-T7" ID="30003749" Region="普罗维登斯" y="50.00" /><text y="50.00" x="650.00" id="23800">VKI-T7</text><rect Type="system" x="650.00" id="23802" height="5.00" width="5.00" Name="I7S-1S" ID="30003716" Region="普罗维登斯" y="680.00" /><text y="680.00" x="650.00" id="23803">I7S-1S</text><rect Type="system" x="700.00" id="23805" height="5.00" width="5.00" Name="4B-NQN" ID="30003706" Region="普罗维登斯" y="220.00" /><text y="220.00" x="700.00" id="23806">4B-NQN</text><rect Type="system" x="700.00" id="23808" height="5.00" width="5.00" Name="O-Y5JQ" ID="30003761" Region="普罗维登斯" y="320.00" /><text y="320.00" x="700.00" id="23809">O-Y5JQ</text><rect Type="system" x="700.00" id="23811" height="5.00" width="5.00" Name="N-RMSH" ID="30003763" Region="普罗维登斯" y="380.00" /><text y="380.00" x="700.00" id="23812">N-RMSH</text><rect Type="system" x="700.00" id="23814" height="5.00" width="5.00" Name="IWZ3-C" ID="30003765" Region="普罗维登斯" y="450.00" /><text y="450.00" x="700.00" id="23815">IWZ3-C</text><rect Type="system" x="720.00" id="23817" height="5.00" width="5.00" Name="H6-CX8" ID="30003723" Region="普罗维登斯" y="120.00" /><text y="120.00" x="720.00" id="23818">H6-CX8</text><rect Type="system" x="720.00" id="23820" height="5.00" width="5.00" Name="H-GKI6" ID="30003752" Region="普罗维登斯" y="20.00" /><text y="20.00" x="720.00" id="23821">H-GKI6</text><rect Type="system" x="720.00" id="23823" height="5.00" width="5.00" Name="QBL-BV" ID="30003714" Region="普罗维登斯" y="520.00" /><text y="520.00" x="720.00" id="23824">QBL-BV</text><rect Type="system" x="780.00" id="23826" height="5.00" width="5.00" Name="INQ-WR" ID="30003740" Region="普罗维登斯" y="650.00" /><text y="650.00" x="780.00" id="23827">INQ-WR</text><rect Type="system" x="900.00" id="23829" height="5.00" width="5.00" Name="QO-SRI" ID="30003739" Region="普罗维登斯" y="580.00" /><text y="580.00" x="900.00" id="23830">QO-SRI</text><rect Type="system" x="780.00" id="23832" height="5.00" width="5.00" Name="9-F0B2" ID="30003704" Region="普罗维登斯" y="200.00" /><text y="200.00" x="780.00" id="23833">9-F0B2</text><rect Type="system" x="780.00" id="23835" height="5.00" width="5.00" Name="YWS0-Z" ID="30003705" Region="普罗维登斯" y="250.00" /><text y="250.00" x="780.00" id="23836">YWS0-Z</text><rect Type="system" x="789.06" id="23838" height="5.00" width="5.00" Name="辛塔特" ID="30003725" Region="普罗维登斯" y="76.23" /><text y="76.23" x="789.06" id="23839">辛塔特</text><rect Type="system" x="800.00" id="23841" height="5.00" width="5.00" Name="PI5-39" ID="30003735" Region="普罗维登斯" y="580.00" /><text y="580.00" x="800.00" id="23842">PI5-39</text><rect Type="system" x="850.00" id="23844" height="5.00" width="5.00" Name="GN7-XY" ID="30003736" Region="普罗维登斯" y="620.00" /><text y="620.00" x="850.00" id="23845">GN7-XY</text><rect Type="system" x="900.00" id="23847" height="5.00" width="5.00" Name="F-DTOO" ID="30003737" Region="普罗维登斯" y="680.00" /><text y="680.00" x="900.00" id="23848">F-DTOO</text><rect Type="system" x="950.00" id="23850" height="5.00" width="5.00" Name="5KG-PY" ID="30003738" Region="普罗维登斯" y="720.00" /><text y="720.00" x="950.00" id="23851">5KG-PY</text><rect Type="system" x="800.00" id="23853" height="5.00" width="5.00" Name="JEIV-E" ID="30003760" Region="普罗维登斯" y="320.00" /><text y="320.00" x="800.00" id="23854">JEIV-E</text><rect Type="system" x="800.00" id="23856" height="5.00" width="5.00" Name="DNR-7M" ID="30003762" Region="普罗维登斯" y="380.00" /><text y="380.00" x="800.00" id="23857">DNR-7M</text><rect Type="system" x="800.00" id="23859" height="5.00" width="5.00" Name="K1Y-5H" ID="30003764" Region="普罗维登斯" y="450.00" /><text y="450.00" x="800.00" id="23860">K1Y-5H</text><rect Type="system" x="800.94" id="23862" height="5.00" width="5.00" Name="D61A-G" ID="30003724" Region="普罗维登斯" y="123.77" /><text y="123.77" x="800.94" id="23863">D61A-G</text><rect Type="system" x="800.00" id="23865" height="5.00" width="5.00" Name="YQB-22" ID="30003753" Region="普罗维登斯" y="20.00" /><text y="20.00" x="800.00" id="23866">YQB-22</text><rect Type="system" x="850.00" id="23868" height="5.00" width="5.00" Name="XHQ-7V" ID="30003731" Region="普罗维登斯" y="250.00" /><text y="250.00" x="850.00" id="23869">XHQ-7V</text><rect Type="system" x="870.00" id="23871" height="5.00" width="5.00" Name="D-6WS1" ID="30003727" Region="普罗维登斯" y="60.00" /><text y="60.00" x="870.00" id="23872">D-6WS1</text><rect Type="system" x="850.00" id="23874" height="5.00" width="5.00" Name="E-YCML" ID="30003732" Region="普罗维登斯" y="450.00" /><text y="450.00" x="850.00" id="23875">E-YCML</text><rect Type="system" x="880.00" id="23877" height="5.00" width="5.00" Name="G-5EN2" ID="30003703" Region="普罗维登斯" y="200.00" /><text y="200.00" x="880.00" id="23878">G-5EN2</text><rect Type="system" x="900.00" id="23880" height="5.00" width="5.00" Name="Y-MPWL" ID="30003726" Region="普罗维登斯" y="120.00" /><text y="120.00" x="900.00" id="23881">Y-MPWL</text><rect Type="system" x="920.00" id="23883" height="5.00" width="5.00" Name="KBP7-G" ID="30003729" Region="普罗维登斯" y="250.00" /><text y="250.00" x="920.00" id="23884">KBP7-G</text><rect Type="system" x="920.00" id="23886" height="5.00" width="5.00" Name="B-WPLZ" ID="30003730" Region="普罗维登斯" y="320.00" /><text y="320.00" x="920.00" id="23887">B-WPLZ</text><rect Type="system" x="920.00" id="23889" height="5.00" width="5.00" Name="TU-O0T" ID="30003733" Region="普罗维登斯" y="400.00" /><text y="400.00" x="920.00" id="23890">TU-O0T</text><rect Type="system" x="950.00" id="23892" height="5.00" width="5.00" Name="SI-I89" ID="30003728" Region="普罗维登斯" y="50.00" /><text y="50.00" x="950.00" id="23893">SI-I89</text><rect Type="system" x="990.00" id="23895" height="5.00" width="5.00" Name="Y9-MDG" ID="30003734" Region="普罗维登斯" y="450.00" /><text y="450.00" x="990.00" id="23896">Y9-MDG</text><rect Type="system" x="40.00" id="23898" height="5.00" width="5.00" Name="米萨巴" ID="30003563" Region="多美" y="650.00" /><text y="650.00" x="40.00" id="23899">米萨巴</text><rect Type="system" x="300.00" id="23901" height="5.00" width="5.00" Name="S25C-K" ID="30001237" Region="卡彻" y="300.00" /><text y="300.00" x="300.00" id="23902">S25C-K</text><rect Type="system" x="400.00" id="23904" height="5.00" width="5.00" Name="7MD-S1" ID="30001232" Region="卡彻" y="350.00" /><text y="350.00" x="400.00" id="23905">7MD-S1</text><rect Type="system" x="500.00" id="23907" height="5.00" width="5.00" Name="UL-7I8" ID="30001234" Region="卡彻" y="280.00" /><text y="280.00" x="500.00" id="23908">UL-7I8</text><rect Type="system" x="520.00" id="23910" height="5.00" width="5.00" Name="F9E-KX" ID="30001153" Region="卡彻" y="360.00" /><text y="360.00" x="520.00" id="23911">F9E-KX</text><rect Type="system" x="600.00" id="23913" height="5.00" width="5.00" Name="ZQ-Z3Y" ID="30001226" Region="卡彻" y="220.00" /><text y="220.00" x="600.00" id="23914">ZQ-Z3Y</text><rect Type="system" x="620.00" id="23916" height="5.00" width="5.00" Name="TA3T-3" ID="30001228" Region="卡彻" y="320.00" /><text y="320.00" x="620.00" id="23917">TA3T-3</text><rect Type="system" x="1000.00" id="23919" height="5.00" width="5.00" Name="卡利" ID="30001742" Region="塔什蒙贡" y="120.00" /><text y="120.00" x="1000.00" id="23920">卡利</text><rect Type="system" x="1000.00" id="23922" height="5.00" width="5.00" Name="艾沙哈" ID="30000075" Region="德里克" y="200.00" /><text y="200.00" x="1000.00" id="23923">艾沙哈</text><rect Type="system" x="1000.00" id="23925" height="5.00" width="5.00" Name="迪塔尔" ID="30002968" Region="破碎" y="250.00" /><text y="250.00" x="1000.00" id="23926">迪塔尔</text><line style="stroke:blue;fill:blue;" id="23928" x2="180.00" x1="50.00" y1="220.00" y2="280.00" /><line style="stroke:blue;fill:blue;" id="23929" x2="50.00" x1="50.00" y1="220.00" y2="320.00" /><line style="stroke:blue;fill:blue;" id="23930" x2="80.00" x1="50.00" y1="220.00" y2="50.00" /><line style="stroke:blue;fill:blue;" id="23931" x2="180.00" x1="50.00" y1="320.00" y2="280.00" /><line style="stroke:blue;fill:blue;" id="23932" x2="50.00" x1="50.00" y1="320.00" y2="220.00" /><line style="stroke:blue;fill:blue;" id="23933" x2="50.00" x1="50.00" y1="320.00" y2="400.00" /><line style="stroke:blue;fill:blue;" id="23934" x2="50.00" x1="50.00" y1="400.00" y2="320.00" /><line style="stroke:blue;fill:blue;" id="23935" x2="50.00" x1="50.00" y1="400.00" y2="480.00" /><line style="stroke:blue;fill:blue;" id="23936" x2="150.00" x1="50.00" y1="400.00" y2="400.00" /><line style="stroke:blue;fill:blue;" id="23937" x2="150.00" x1="50.00" y1="400.00" y2="480.00" /><line style="stroke:blue;fill:blue;" id="23938" x2="80.00" x1="50.00" y1="480.00" y2="600.00" /><line style="stroke:blue;fill:blue;" id="23939" x2="150.00" x1="50.00" y1="480.00" y2="400.00" /><line style="stroke:blue;fill:blue;" id="23940" x2="150.00" x1="50.00" y1="480.00" y2="480.00" /><line style="stroke:blue;fill:blue;" id="23941" x2="50.00" x1="50.00" y1="480.00" y2="400.00" /><line style="stroke:blue;fill:blue;" id="23942" x2="320.00" x1="80.00" y1="50.00" y2="50.00" /><line style="stroke:blue;fill:blue;" id="23943" x2="120.00" x1="80.00" y1="50.00" y2="180.00" /><line style="stroke:blue;fill:blue;" id="23944" x2="50.00" x1="80.00" y1="50.00" y2="220.00" /><line style="stroke:blue;fill:blue;" id="23945" x2="40.00" x1="80.00" y1="600.00" y2="650.00" /><line style="stroke:blue;fill:blue;" id="23946" x2="150.00" x1="80.00" y1="600.00" y2="650.00" /><line style="stroke:blue;fill:blue;" id="23947" x2="50.00" x1="80.00" y1="600.00" y2="480.00" /><line style="stroke:blue;fill:blue;" id="23948" x2="180.00" x1="120.00" y1="180.00" y2="280.00" /><line style="stroke:blue;fill:blue;" id="23949" x2="150.00" x1="120.00" y1="180.00" y2="80.00" /><line style="stroke:blue;fill:blue;" id="23950" x2="80.00" x1="120.00" y1="180.00" y2="50.00" /><line style="stroke:blue;fill:blue;" id="23951" x2="120.00" x1="150.00" y1="80.00" y2="180.00" /><line style="stroke:blue;fill:blue;" id="23952" x2="220.00" x1="150.00" y1="650.00" y2="700.00" /><line style="stroke:blue;fill:blue;" id="23953" x2="80.00" x1="150.00" y1="650.00" y2="600.00" /><line style="stroke:blue;fill:blue;" id="23954" x2="50.00" x1="150.00" y1="400.00" y2="480.00" /><line style="stroke:blue;fill:blue;" id="23955" x2="150.00" x1="150.00" y1="400.00" y2="480.00" /><line style="stroke:blue;fill:blue;" id="23956" x2="50.00" x1="150.00" y1="400.00" y2="400.00" /><line style="stroke:blue;fill:blue;" id="23957" x2="50.00" x1="150.00" y1="480.00" y2="480.00" /><line style="stroke:blue;fill:blue;" id="23958" x2="150.00" x1="150.00" y1="480.00" y2="400.00" /><line style="stroke:blue;fill:blue;" id="23959" x2="50.00" x1="150.00" y1="480.00" y2="400.00" /><line style="stroke:blue;fill:blue;" id="23960" x2="220.00" x1="150.00" y1="720.00" y2="700.00" /><line style="stroke:blue;fill:blue;" id="23961" x2="250.00" x1="150.00" y1="580.00" y2="550.00" /><line style="stroke:blue;fill:blue;" id="23962" x2="280.00" x1="180.00" y1="280.00" y2="380.00" /><line style="stroke:blue;fill:blue;" id="23963" x2="120.00" x1="180.00" y1="280.00" y2="180.00" /><line style="stroke:blue;fill:blue;" id="23964" x2="50.00" x1="180.00" y1="280.00" y2="320.00" /><line style="stroke:blue;fill:blue;" id="23965" x2="50.00" x1="180.00" y1="280.00" y2="220.00" /><line style="stroke:blue;fill:blue;" id="23966" x2="278.09" x1="200.00" y1="100.00" y2="79.04" /><line style="stroke:blue;fill:blue;" id="23967" x2="200.00" x1="200.00" y1="100.00" y2="150.00" /><line style="stroke:blue;fill:blue;" id="23968" x2="278.09" x1="200.00" y1="150.00" y2="179.04" /><line style="stroke:blue;fill:blue;" id="23969" x2="200.00" x1="200.00" y1="150.00" y2="100.00" /><line style="stroke:blue;fill:blue;" id="23970" x2="320.00" x1="220.00" y1="700.00" y2="700.00" /><line style="stroke:blue;fill:blue;" id="23971" x2="150.00" x1="220.00" y1="700.00" y2="650.00" /><line style="stroke:blue;fill:blue;" id="23972" x2="150.00" x1="220.00" y1="700.00" y2="720.00" /><line style="stroke:blue;fill:blue;" id="23973" x2="350.00" x1="250.00" y1="550.00" y2="620.00" /><line style="stroke:blue;fill:blue;" id="23974" x2="350.00" x1="250.00" y1="550.00" y2="550.00" /><line style="stroke:blue;fill:blue;" id="23975" x2="280.00" x1="250.00" y1="550.00" y2="480.00" /><line style="stroke:blue;fill:blue;" id="23976" x2="150.00" x1="250.00" y1="550.00" y2="580.00" /><line style="stroke:blue;fill:blue;" id="23977" x2="250.00" x1="250.00" y1="550.00" y2="620.00" /><line style="stroke:blue;fill:blue;" id="23978" x2="350.00" x1="250.00" y1="620.00" y2="620.00" /><line style="stroke:blue;fill:blue;" id="23979" x2="350.00" x1="250.00" y1="620.00" y2="550.00" /><line style="stroke:blue;fill:blue;" id="23980" x2="250.00" x1="250.00" y1="620.00" y2="550.00" /><line style="stroke:blue;fill:blue;" id="23981" x2="320.00" x1="278.09" y1="79.04" y2="150.00" /><line style="stroke:blue;fill:blue;" id="23982" x2="200.00" x1="278.09" y1="79.04" y2="100.00" /><line style="stroke:blue;fill:blue;" id="23983" x2="321.91" x1="278.09" y1="79.04" y2="100.96" /><line style="stroke:blue;fill:blue;" id="23984" x2="320.00" x1="278.09" y1="179.04" y2="150.00" /><line style="stroke:blue;fill:blue;" id="23985" x2="200.00" x1="278.09" y1="179.04" y2="150.00" /><line style="stroke:blue;fill:blue;" id="23986" x2="380.00" x1="280.00" y1="380.00" y2="450.00" /><line style="stroke:blue;fill:blue;" id="23987" x2="380.00" x1="280.00" y1="380.00" y2="400.00" /><line style="stroke:blue;fill:blue;" id="23988" x2="180.00" x1="280.00" y1="380.00" y2="280.00" /><line style="stroke:blue;fill:blue;" id="23989" x2="350.00" x1="280.00" y1="480.00" y2="550.00" /><line style="stroke:blue;fill:blue;" id="23990" x2="250.00" x1="280.00" y1="480.00" y2="550.00" /><line style="stroke:blue;fill:blue;" id="23991" x2="400.00" x1="320.00" y1="700.00" y2="700.00" /><line style="stroke:blue;fill:blue;" id="23992" x2="220.00" x1="320.00" y1="700.00" y2="700.00" /><line style="stroke:blue;fill:blue;" id="23993" x2="480.00" x1="320.00" y1="50.00" y2="50.00" /><line style="stroke:blue;fill:blue;" id="23994" x2="80.00" x1="320.00" y1="50.00" y2="50.00" /><line style="stroke:blue;fill:blue;" id="23995" x2="321.91" x1="320.00" y1="50.00" y2="100.96" /><line style="stroke:blue;fill:blue;" id="23996" x2="320.00" x1="321.91" y1="100.96" y2="50.00" /><line style="stroke:blue;fill:blue;" id="23997" x2="320.00" x1="321.91" y1="100.96" y2="150.00" /><line style="stroke:blue;fill:blue;" id="23998" x2="278.09" x1="321.91" y1="100.96" y2="79.04" /><line style="stroke:blue;fill:blue;" id="23999" x2="321.91" x1="320.00" y1="150.00" y2="200.96" /><line style="stroke:blue;fill:blue;" id="24000" x2="278.09" x1="320.00" y1="150.00" y2="79.04" /><line style="stroke:blue;fill:blue;" id="24001" x2="278.09" x1="320.00" y1="150.00" y2="179.04" /><line style="stroke:blue;fill:blue;" id="24002" x2="321.91" x1="320.00" y1="150.00" y2="100.96" /><line style="stroke:blue;fill:blue;" id="24003" x2="350.00" x1="321.91" y1="200.96" y2="250.00" /><line style="stroke:blue;fill:blue;" id="24004" x2="400.00" x1="321.91" y1="200.96" y2="200.00" /><line style="stroke:blue;fill:blue;" id="24005" x2="320.00" x1="321.91" y1="200.96" y2="150.00" /><line style="stroke:blue;fill:blue;" id="24006" x2="350.00" x1="350.00" y1="550.00" y2="620.00" /><line style="stroke:blue;fill:blue;" id="24007" x2="250.00" x1="350.00" y1="550.00" y2="550.00" /><line style="stroke:blue;fill:blue;" id="24008" x2="280.00" x1="350.00" y1="550.00" y2="480.00" /><line style="stroke:blue;fill:blue;" id="24009" x2="250.00" x1="350.00" y1="550.00" y2="620.00" /><line style="stroke:blue;fill:blue;" id="24010" x2="400.00" x1="350.00" y1="620.00" y2="650.00" /><line style="stroke:blue;fill:blue;" id="24011" x2="350.00" x1="350.00" y1="620.00" y2="550.00" /><line style="stroke:blue;fill:blue;" id="24012" x2="250.00" x1="350.00" y1="620.00" y2="550.00" /><line style="stroke:blue;fill:blue;" id="24013" x2="250.00" x1="350.00" y1="620.00" y2="620.00" /><line style="stroke:blue;fill:blue;" id="24014" x2="420.00" x1="350.00" y1="250.00" y2="300.00" /><line style="stroke:blue;fill:blue;" id="24015" x2="321.91" x1="350.00" y1="250.00" y2="200.96" /><line style="stroke:blue;fill:blue;" id="24016" x2="300.00" x1="350.00" y1="250.00" y2="300.00" /><line style="stroke:blue;fill:blue;" id="24017" x2="400.00" x1="380.00" y1="400.00" y2="350.00" /><line style="stroke:blue;fill:blue;" id="24018" x2="450.00" x1="380.00" y1="400.00" y2="400.00" /><line style="stroke:blue;fill:blue;" id="24019" x2="280.00" x1="380.00" y1="400.00" y2="380.00" /><line style="stroke:blue;fill:blue;" id="24020" x2="490.00" x1="380.00" y1="450.00" y2="470.00" /><line style="stroke:blue;fill:blue;" id="24021" x2="280.00" x1="380.00" y1="450.00" y2="380.00" /><line style="stroke:blue;fill:blue;" id="24022" x2="400.00" x1="400.00" y1="650.00" y2="700.00" /><line style="stroke:blue;fill:blue;" id="24023" x2="350.00" x1="400.00" y1="650.00" y2="620.00" /><line style="stroke:blue;fill:blue;" id="24024" x2="480.00" x1="400.00" y1="700.00" y2="700.00" /><line style="stroke:blue;fill:blue;" id="24025" x2="320.00" x1="400.00" y1="700.00" y2="700.00" /><line style="stroke:blue;fill:blue;" id="24026" x2="400.00" x1="400.00" y1="700.00" y2="650.00" /><line style="stroke:blue;fill:blue;" id="24027" x2="321.91" x1="400.00" y1="200.00" y2="200.96" /><line style="stroke:blue;fill:blue;" id="24028" x2="482.32" x1="400.00" y1="200.00" y2="182.32" /><line style="stroke:blue;fill:blue;" id="24029" x2="447.68" x1="400.00" y1="200.00" y2="147.68" /><line style="stroke:blue;fill:blue;" id="24030" x2="450.00" x1="400.00" y1="200.00" y2="250.00" /><line style="stroke:blue;fill:blue;" id="24031" x2="400.00" x1="420.00" y1="300.00" y2="350.00" /><line style="stroke:blue;fill:blue;" id="24032" x2="500.00" x1="420.00" y1="300.00" y2="280.00" /><line style="stroke:blue;fill:blue;" id="24033" x2="350.00" x1="420.00" y1="300.00" y2="250.00" /><line style="stroke:blue;fill:blue;" id="24034" x2="550.00" x1="447.68" y1="147.68" y2="180.00" /><line style="stroke:blue;fill:blue;" id="24035" x2="520.00" x1="447.68" y1="147.68" y2="120.00" /><line style="stroke:blue;fill:blue;" id="24036" x2="482.32" x1="447.68" y1="147.68" y2="182.32" /><line style="stroke:blue;fill:blue;" id="24037" x2="400.00" x1="447.68" y1="147.68" y2="200.00" /><line style="stroke:blue;fill:blue;" id="24038" x2="500.00" x1="450.00" y1="250.00" y2="280.00" /><line style="stroke:blue;fill:blue;" id="24039" x2="400.00" x1="450.00" y1="250.00" y2="200.00" /><line style="stroke:blue;fill:blue;" id="24040" x2="520.00" x1="450.00" y1="400.00" y2="360.00" /><line style="stroke:blue;fill:blue;" id="24041" x2="490.00" x1="450.00" y1="400.00" y2="470.00" /><line style="stroke:blue;fill:blue;" id="24042" x2="380.00" x1="450.00" y1="400.00" y2="400.00" /><line style="stroke:blue;fill:blue;" id="24043" x2="580.00" x1="480.00" y1="50.00" y2="50.00" /><line style="stroke:blue;fill:blue;" id="24044" x2="320.00" x1="480.00" y1="50.00" y2="50.00" /><line style="stroke:blue;fill:blue;" id="24045" x2="550.00" x1="482.32" y1="182.32" y2="180.00" /><line style="stroke:blue;fill:blue;" id="24046" x2="520.00" x1="482.32" y1="182.32" y2="120.00" /><line style="stroke:blue;fill:blue;" id="24047" x2="447.68" x1="482.32" y1="182.32" y2="147.68" /><line style="stroke:blue;fill:blue;" id="24048" x2="400.00" x1="482.32" y1="182.32" y2="200.00" /><line style="stroke:blue;fill:blue;" id="24049" x2="550.00" x1="480.00" y1="700.00" y2="700.00" /><line style="stroke:blue;fill:blue;" id="24050" x2="400.00" x1="480.00" y1="700.00" y2="700.00" /><line style="stroke:blue;fill:blue;" id="24051" x2="450.00" x1="490.00" y1="470.00" y2="400.00" /><line style="stroke:blue;fill:blue;" id="24052" x2="380.00" x1="490.00" y1="470.00" y2="450.00" /><line style="stroke:blue;fill:blue;" id="24053" x2="650.00" x1="490.00" y1="470.00" y2="520.00" /><line style="stroke:blue;fill:blue;" id="24054" x2="550.00" x1="500.00" y1="620.00" y2="700.00" /><line style="stroke:blue;fill:blue;" id="24055" x2="600.00" x1="500.00" y1="620.00" y2="620.00" /><line style="stroke:blue;fill:blue;" id="24056" x2="550.00" x1="500.00" y1="620.00" y2="550.00" /><line style="stroke:blue;fill:blue;" id="24057" x2="550.00" x1="520.00" y1="120.00" y2="180.00" /><line style="stroke:blue;fill:blue;" id="24058" x2="482.32" x1="520.00" y1="120.00" y2="182.32" /><line style="stroke:blue;fill:blue;" id="24059" x2="447.68" x1="520.00" y1="120.00" y2="147.68" /><line style="stroke:blue;fill:blue;" id="24060" x2="600.00" x1="550.00" y1="550.00" y2="620.00" /><line style="stroke:blue;fill:blue;" id="24061" x2="500.00" x1="550.00" y1="550.00" y2="620.00" /><line style="stroke:blue;fill:blue;" id="24062" x2="600.00" x1="550.00" y1="280.00" y2="220.00" /><line style="stroke:blue;fill:blue;" id="24063" x2="620.00" x1="550.00" y1="280.00" y2="320.00" /><line style="stroke:blue;fill:blue;" id="24064" x2="500.00" x1="550.00" y1="280.00" y2="280.00" /><line style="stroke:blue;fill:blue;" id="24065" x2="650.00" x1="550.00" y1="180.00" y2="180.00" /><line style="stroke:blue;fill:blue;" id="24066" x2="520.00" x1="550.00" y1="180.00" y2="120.00" /><line style="stroke:blue;fill:blue;" id="24067" x2="482.32" x1="550.00" y1="180.00" y2="182.32" /><line style="stroke:blue;fill:blue;" id="24068" x2="447.68" x1="550.00" y1="180.00" y2="147.68" /><line style="stroke:blue;fill:blue;" id="24069" x2="650.00" x1="550.00" y1="700.00" y2="680.00" /><line style="stroke:blue;fill:blue;" id="24070" x2="480.00" x1="550.00" y1="700.00" y2="700.00" /><line style="stroke:blue;fill:blue;" id="24071" x2="600.00" x1="550.00" y1="700.00" y2="620.00" /><line style="stroke:blue;fill:blue;" id="24072" x2="500.00" x1="550.00" y1="700.00" y2="620.00" /><line style="stroke:blue;fill:blue;" id="24073" x2="620.00" x1="580.00" y1="50.00" y2="100.00" /><line style="stroke:blue;fill:blue;" id="24074" x2="650.00" x1="580.00" y1="50.00" y2="50.00" /><line style="stroke:blue;fill:blue;" id="24075" x2="480.00" x1="580.00" y1="50.00" y2="50.00" /><line style="stroke:blue;fill:blue;" id="24076" x2="550.00" x1="600.00" y1="620.00" y2="700.00" /><line style="stroke:blue;fill:blue;" id="24077" x2="550.00" x1="600.00" y1="620.00" y2="550.00" /><line style="stroke:blue;fill:blue;" id="24078" x2="500.00" x1="600.00" y1="620.00" y2="620.00" /><line style="stroke:blue;fill:blue;" id="24079" x2="650.00" x1="620.00" y1="100.00" y2="180.00" /><line style="stroke:blue;fill:blue;" id="24080" x2="580.00" x1="620.00" y1="100.00" y2="50.00" /><line style="stroke:blue;fill:blue;" id="24081" x2="600.00" x1="650.00" y1="180.00" y2="220.00" /><line style="stroke:blue;fill:blue;" id="24082" x2="700.00" x1="650.00" y1="180.00" y2="220.00" /><line style="stroke:blue;fill:blue;" id="24083" x2="620.00" x1="650.00" y1="180.00" y2="100.00" /><line style="stroke:blue;fill:blue;" id="24084" x2="550.00" x1="650.00" y1="180.00" y2="180.00" /><line style="stroke:blue;fill:blue;" id="24085" x2="720.00" x1="650.00" y1="180.00" y2="120.00" /><line style="stroke:blue;fill:blue;" id="24086" x2="490.00" x1="650.00" y1="520.00" y2="470.00" /><line style="stroke:blue;fill:blue;" id="24087" x2="720.00" x1="650.00" y1="520.00" y2="520.00" /><line style="stroke:blue;fill:blue;" id="24088" x2="650.00" x1="650.00" y1="520.00" y2="680.00" /><line style="stroke:blue;fill:blue;" id="24089" x2="580.00" x1="650.00" y1="50.00" y2="50.00" /><line style="stroke:blue;fill:blue;" id="24090" x2="720.00" x1="650.00" y1="50.00" y2="20.00" /><line style="stroke:blue;fill:blue;" id="24091" x2="650.00" x1="650.00" y1="680.00" y2="520.00" /><line style="stroke:blue;fill:blue;" id="24092" x2="550.00" x1="650.00" y1="680.00" y2="700.00" /><line style="stroke:blue;fill:blue;" id="24093" x2="780.00" x1="700.00" y1="220.00" y2="200.00" /><line style="stroke:blue;fill:blue;" id="24094" x2="780.00" x1="700.00" y1="220.00" y2="250.00" /><line style="stroke:blue;fill:blue;" id="24095" x2="650.00" x1="700.00" y1="220.00" y2="180.00" /><line style="stroke:blue;fill:blue;" id="24096" x2="800.00" x1="700.00" y1="320.00" y2="320.00" /><line style="stroke:blue;fill:blue;" id="24097" x2="700.00" x1="700.00" y1="320.00" y2="380.00" /><line style="stroke:blue;fill:blue;" id="24098" x2="800.00" x1="700.00" y1="380.00" y2="320.00" /><line style="stroke:blue;fill:blue;" id="24099" x2="700.00" x1="700.00" y1="380.00" y2="320.00" /><line style="stroke:blue;fill:blue;" id="24100" x2="700.00" x1="700.00" y1="380.00" y2="450.00" /><line style="stroke:blue;fill:blue;" id="24101" x2="700.00" x1="700.00" y1="450.00" y2="380.00" /><line style="stroke:blue;fill:blue;" id="24102" x2="800.00" x1="700.00" y1="450.00" y2="450.00" /><line style="stroke:blue;fill:blue;" id="24103" x2="650.00" x1="720.00" y1="120.00" y2="180.00" /><line style="stroke:blue;fill:blue;" id="24104" x2="800.94" x1="720.00" y1="120.00" y2="123.77" /><line style="stroke:blue;fill:blue;" id="24105" x2="789.06" x1="720.00" y1="120.00" y2="76.23" /><line style="stroke:blue;fill:blue;" id="24106" x2="650.00" x1="720.00" y1="20.00" y2="50.00" /><line style="stroke:blue;fill:blue;" id="24107" x2="800.00" x1="720.00" y1="20.00" y2="20.00" /><line style="stroke:blue;fill:blue;" id="24108" x2="650.00" x1="720.00" y1="520.00" y2="520.00" /><line style="stroke:blue;fill:blue;" id="24109" x2="800.00" x1="720.00" y1="520.00" y2="580.00" /><line style="stroke:blue;fill:blue;" id="24110" x2="800.00" x1="780.00" y1="650.00" y2="580.00" /><line style="stroke:blue;fill:blue;" id="24111" x2="850.00" x1="780.00" y1="650.00" y2="620.00" /><line style="stroke:blue;fill:blue;" id="24112" x2="850.00" x1="900.00" y1="580.00" y2="620.00" /><line style="stroke:blue;fill:blue;" id="24113" x2="880.00" x1="780.00" y1="200.00" y2="200.00" /><line style="stroke:blue;fill:blue;" id="24114" x2="780.00" x1="780.00" y1="200.00" y2="250.00" /><line style="stroke:blue;fill:blue;" id="24115" x2="700.00" x1="780.00" y1="200.00" y2="220.00" /><line style="stroke:blue;fill:blue;" id="24116" x2="780.00" x1="780.00" y1="250.00" y2="200.00" /><line style="stroke:blue;fill:blue;" id="24117" x2="700.00" x1="780.00" y1="250.00" y2="220.00" /><line style="stroke:blue;fill:blue;" id="24118" x2="850.00" x1="780.00" y1="250.00" y2="250.00" /><line style="stroke:blue;fill:blue;" id="24119" x2="720.00" x1="789.06" y1="76.23" y2="120.00" /><line style="stroke:blue;fill:blue;" id="24120" x2="870.00" x1="789.06" y1="76.23" y2="60.00" /><line style="stroke:blue;fill:blue;" id="24121" x2="720.00" x1="800.00" y1="580.00" y2="520.00" /><line style="stroke:blue;fill:blue;" id="24122" x2="850.00" x1="800.00" y1="580.00" y2="620.00" /><line style="stroke:blue;fill:blue;" id="24123" x2="780.00" x1="800.00" y1="580.00" y2="650.00" /><line style="stroke:blue;fill:blue;" id="24124" x2="800.00" x1="850.00" y1="620.00" y2="580.00" /><line style="stroke:blue;fill:blue;" id="24125" x2="900.00" x1="850.00" y1="620.00" y2="680.00" /><line style="stroke:blue;fill:blue;" id="24126" x2="900.00" x1="850.00" y1="620.00" y2="580.00" /><line style="stroke:blue;fill:blue;" id="24127" x2="780.00" x1="850.00" y1="620.00" y2="650.00" /><line style="stroke:blue;fill:blue;" id="24128" x2="850.00" x1="900.00" y1="680.00" y2="620.00" /><line style="stroke:blue;fill:blue;" id="24129" x2="950.00" x1="900.00" y1="680.00" y2="720.00" /><line style="stroke:blue;fill:blue;" id="24130" x2="900.00" x1="950.00" y1="720.00" y2="680.00" /><line style="stroke:blue;fill:blue;" id="24131" x2="850.00" x1="800.00" y1="320.00" y2="250.00" /><line style="stroke:blue;fill:blue;" id="24132" x2="700.00" x1="800.00" y1="320.00" y2="320.00" /><line style="stroke:blue;fill:blue;" id="24133" x2="800.00" x1="800.00" y1="320.00" y2="380.00" /><line style="stroke:blue;fill:blue;" id="24134" x2="700.00" x1="800.00" y1="320.00" y2="380.00" /><line style="stroke:blue;fill:blue;" id="24135" x2="800.00" x1="800.00" y1="380.00" y2="320.00" /><line style="stroke:blue;fill:blue;" id="24136" x2="800.00" x1="800.00" y1="380.00" y2="450.00" /><line style="stroke:blue;fill:blue;" id="24137" x2="800.00" x1="800.00" y1="450.00" y2="380.00" /><line style="stroke:blue;fill:blue;" id="24138" x2="700.00" x1="800.00" y1="450.00" y2="450.00" /><line style="stroke:blue;fill:blue;" id="24139" x2="720.00" x1="800.94" y1="123.77" y2="120.00" /><line style="stroke:blue;fill:blue;" id="24140" x2="900.00" x1="800.94" y1="123.77" y2="120.00" /><line style="stroke:blue;fill:blue;" id="24141" x2="720.00" x1="800.00" y1="20.00" y2="20.00" /><line style="stroke:blue;fill:blue;" id="24142" x2="780.00" x1="850.00" y1="250.00" y2="250.00" /><line style="stroke:blue;fill:blue;" id="24143" x2="920.00" x1="850.00" y1="250.00" y2="250.00" /><line style="stroke:blue;fill:blue;" id="24144" x2="800.00" x1="850.00" y1="250.00" y2="320.00" /><line style="stroke:blue;fill:blue;" id="24145" x2="789.06" x1="870.00" y1="60.00" y2="76.23" /><line style="stroke:blue;fill:blue;" id="24146" x2="950.00" x1="870.00" y1="60.00" y2="50.00" /><line style="stroke:blue;fill:blue;" id="24147" x2="920.00" x1="850.00" y1="450.00" y2="320.00" /><line style="stroke:blue;fill:blue;" id="24148" x2="920.00" x1="850.00" y1="450.00" y2="400.00" /><line style="stroke:blue;fill:blue;" id="24149" x2="990.00" x1="850.00" y1="450.00" y2="450.00" /><line style="stroke:blue;fill:blue;" id="24150" x2="1000.00" x1="880.00" y1="200.00" y2="200.00" /><line style="stroke:blue;fill:blue;" id="24151" x2="780.00" x1="880.00" y1="200.00" y2="200.00" /><line style="stroke:blue;fill:blue;" id="24152" x2="1000.00" x1="900.00" y1="120.00" y2="120.00" /><line style="stroke:blue;fill:blue;" id="24153" x2="800.94" x1="900.00" y1="120.00" y2="123.77" /><line style="stroke:blue;fill:blue;" id="24154" x2="1000.00" x1="920.00" y1="250.00" y2="250.00" /><line style="stroke:blue;fill:blue;" id="24155" x2="920.00" x1="920.00" y1="250.00" y2="320.00" /><line style="stroke:blue;fill:blue;" id="24156" x2="850.00" x1="920.00" y1="250.00" y2="250.00" /><line style="stroke:blue;fill:blue;" id="24157" x2="920.00" x1="920.00" y1="320.00" y2="250.00" /><line style="stroke:blue;fill:blue;" id="24158" x2="850.00" x1="920.00" y1="320.00" y2="450.00" /><line style="stroke:blue;fill:blue;" id="24159" x2="920.00" x1="920.00" y1="320.00" y2="400.00" /><line style="stroke:blue;fill:blue;" id="24160" x2="990.00" x1="920.00" y1="320.00" y2="450.00" /><line style="stroke:blue;fill:blue;" id="24161" x2="920.00" x1="920.00" y1="400.00" y2="320.00" /><line style="stroke:blue;fill:blue;" id="24162" x2="850.00" x1="920.00" y1="400.00" y2="450.00" /><line style="stroke:blue;fill:blue;" id="24163" x2="990.00" x1="920.00" y1="400.00" y2="450.00" /><line style="stroke:blue;fill:blue;" id="24164" x2="870.00" x1="950.00" y1="50.00" y2="60.00" /><line style="stroke:blue;fill:blue;" id="24165" x2="920.00" x1="990.00" y1="450.00" y2="320.00" /><line style="stroke:blue;fill:blue;" id="24166" x2="850.00" x1="990.00" y1="450.00" y2="450.00" /><line style="stroke:blue;fill:blue;" id="24167" x2="920.00" x1="990.00" y1="450.00" y2="400.00" /><line style="stroke:blue;fill:blue;" id="24168" x2="80.00" x1="40.00" y1="650.00" y2="600.00" /><line style="stroke:blue;fill:blue;" id="24169" x2="350.00" x1="300.00" y1="300.00" y2="250.00" /><line style="stroke:blue;fill:blue;" id="24170" x2="420.00" x1="400.00" y1="350.00" y2="300.00" /><line style="stroke:blue;fill:blue;" id="24171" x2="380.00" x1="400.00" y1="350.00" y2="400.00" /><line style="stroke:blue;fill:blue;" id="24172" x2="550.00" x1="500.00" y1="280.00" y2="280.00" /><line style="stroke:blue;fill:blue;" id="24173" x2="420.00" x1="500.00" y1="280.00" y2="300.00" /><line style="stroke:blue;fill:blue;" id="24174" x2="450.00" x1="500.00" y1="280.00" y2="250.00" /><line style="stroke:blue;fill:blue;" id="24175" x2="450.00" x1="520.00" y1="360.00" y2="400.00" /><line style="stroke:blue;fill:blue;" id="24176" x2="550.00" x1="600.00" y1="220.00" y2="280.00" /><line style="stroke:blue;fill:blue;" id="24177" x2="650.00" x1="600.00" y1="220.00" y2="180.00" /><line style="stroke:blue;fill:blue;" id="24178" x2="550.00" x1="620.00" y1="320.00" y2="280.00" /><line style="stroke:blue;fill:blue;" id="24179" x2="900.00" x1="1000.00" y1="120.00" y2="120.00" /><line style="stroke:blue;fill:blue;" id="24180" x2="880.00" x1="1000.00" y1="200.00" y2="200.00" /><line style="stroke:blue;fill:blue;" id="24181" x2="920.00" x1="1000.00" y1="250.00" y2="250.00" /></svg>
