<?xml version="1.0" standalone="yes"?><!DOCTYPE svg PUBLIC "-//W3C//DTD SVG 1.1//EN" "http://www.w3.org/Graphics/SVG/1.1/DTD/svg11.dtd"[]><svg height="800.00" id="23633" width="1050.00" xmlns="http://www.w3.org/2000/svg" xmlns:xlink="http://www.w3.org/1999/xlink"><rect Type="system" Region="普罗维登斯" height="5.00" y="220.00" Name="K1I1-J" width="5.00" x="50.00" id="23634" ID="30003758" /><text x="50.00" y="220.00" id="23635">K1I1-J</text><rect Type="system" Region="普罗维登斯" height="5.00" y="320.00" Name="AY-24I" width="5.00" x="50.00" id="23637" ID="30003756" /><text x="50.00" y="320.00" id="23638">AY-24I</text><rect Type="system" Region="普罗维登斯" height="5.00" y="400.00" Name="X6AB-Y" width="5.00" x="50.00" id="23640" ID="30003773" /><text x="50.00" y="400.00" id="23641">X6AB-Y</text><rect Type="system" Region="普罗维登斯" height="5.00" y="480.00" Name="X-R3NM" width="5.00" x="50.00" id="23643" ID="30003770" /><text x="50.00" y="480.00" id="23644">X-R3NM</text><rect Type="system" Region="普罗维登斯" height="5.00" y="50.00" Name="LF-2KP" width="5.00" x="80.00" id="23646" ID="30003759" /><text x="80.00" y="50.00" id="23647">LF-2KP</text><rect Type="system" Region="普罗维登斯" height="5.00" y="600.00" Name="R3-K7K" width="5.00" x="80.00" id="23649" ID="30003769" /><text x="80.00" y="600.00" id="23650">R3-K7K</text><rect Type="system" Region="普罗维登斯" height="5.00" y="180.00" Name="MVCJ-E" width="5.00" x="120.00" id="23652" ID="30003755" /><text x="120.00" y="180.00" id="23653">MVCJ-E</text><rect Type="system" Region="普罗维登斯" height="5.00" y="80.00" Name="BK4-YC" width="5.00" x="150.00" id="23655" ID="30003757" /><text x="150.00" y="80.00" id="23656">BK4-YC</text><rect Type="system" Region="普罗维登斯" height="5.00" y="650.00" Name="N8XA-L" width="5.00" x="150.00" id="23658" ID="30003767" /><text x="150.00" y="650.00" id="23659">N8XA-L</text><rect Type="system" Region="普罗维登斯" height="5.00" y="400.00" Name="8B-VLX" width="5.00" x="150.00" id="23661" ID="30003771" /><text x="150.00" y="400.00" id="23662">8B-VLX</text><rect Type="system" Region="普罗维登斯" height="5.00" y="480.00" Name="G-B22J" width="5.00" x="150.00" id="23664" ID="30003772" /><text x="150.00" y="480.00" id="23665">G-B22J</text><rect Type="system" Region="普罗维登斯" height="5.00" y="720.00" Name="18-GZM" width="5.00" x="150.00" id="23667" ID="30003768" /><text x="150.00" y="720.00" id="23668">18-GZM</text><rect Type="system" Region="普罗维登斯" height="5.00" y="580.00" Name="TXJ-II" width="5.00" x="150.00" id="23670" ID="30003779" /><text x="150.00" y="580.00" id="23671">TXJ-II</text><rect Type="system" Region="普罗维登斯" height="5.00" y="280.00" Name="2-TEGJ" width="5.00" x="180.00" id="23673" ID="30003754" /><text x="180.00" y="280.00" id="23674">2-TEGJ</text><rect Type="system" Region="普罗维登斯" height="5.00" y="100.00" Name="I-MGAB" width="5.00" x="200.00" id="23676" ID="30003784" /><text x="200.00" y="100.00" id="23677">I-MGAB</text><rect Type="system" Region="普罗维登斯" height="5.00" y="150.00" Name="18XA-C" width="5.00" x="200.00" id="23679" ID="30003785" /><text x="200.00" y="150.00" id="23680">18XA-C</text><rect Type="system" Region="普罗维登斯" height="5.00" y="700.00" Name="1-1I53" width="5.00" x="220.00" id="23682" ID="30003766" /><text x="220.00" y="700.00" id="23683">1-1I53</text><rect Type="system" Region="普罗维登斯" height="5.00" y="550.00" Name="GA9P-0" width="5.00" x="250.00" id="23685" ID="30003777" /><text x="250.00" y="550.00" id="23686">GA9P-0</text><rect Type="system" Region="普罗维登斯" height="5.00" y="620.00" Name="C1-HAB" width="5.00" x="250.00" id="23688" ID="30003780" /><text x="250.00" y="620.00" id="23689">C1-HAB</text><rect Type="system" Region="普罗维登斯" height="5.00" y="79.04" Name="0B-HLZ" width="5.00" x="278.09" id="23691" ID="30003782" /><text x="278.09" y="79.04" id="23692">0B-HLZ</text><rect Type="system" Region="普罗维登斯" height="5.00" y="179.04" Name="Z-RFE3" width="5.00" x="278.09" id="23694" ID="30003783" /><text x="278.09" y="179.04" id="23695">Z-RFE3</text><rect Type="system" Region="普罗维登斯" height="5.00" y="380.00" Name="MH9C-S" width="5.00" x="280.00" id="23697" ID="30003712" /><text x="280.00" y="380.00" id="23698">MH9C-S</text><rect Type="system" Region="普罗维登斯" height="5.00" y="480.00" Name="7YWV-S" width="5.00" x="280.00" id="23700" ID="30003778" /><text x="280.00" y="480.00" id="23701">7YWV-S</text><rect Type="system" Region="普罗维登斯" height="5.00" y="700.00" Name="ZT-LPU" width="5.00" x="320.00" id="23703" ID="30003747" /><text x="320.00" y="700.00" id="23704">ZT-LPU</text><rect Type="system" Region="普罗维登斯" height="5.00" y="50.00" Name="F-YH5B" width="5.00" x="320.00" id="23706" ID="30003751" /><text x="320.00" y="50.00" id="23707">F-YH5B</text><rect Type="system" Region="普罗维登斯" height="5.00" y="100.96" Name="3D-CQU" width="5.00" x="321.91" id="23709" ID="30003786" /><text x="321.91" y="100.96" id="23710">3D-CQU</text><rect Type="system" Region="普罗维登斯" height="5.00" y="150.00" Name="3KB-J0" width="5.00" x="320.00" id="23712" ID="30003781" /><text x="320.00" y="150.00" id="23713">3KB-J0</text><rect Type="system" Region="卡彻" height="5.00" y="200.96" Name="IS-R7P" width="5.00" x="321.91" id="23715" ID="30001236" /><text x="321.91" y="200.96" id="23716">IS-R7P</text><rect Type="system" Region="普罗维登斯" height="5.00" y="550.00" Name="HP-6Z6" width="5.00" x="350.00" id="23718" ID="30003776" /><text x="350.00" y="550.00" id="23719">HP-6Z6</text><rect Type="system" Region="普罗维登斯" height="5.00" y="620.00" Name="H9-J8N" width="5.00" x="350.00" id="23721" ID="30003775" /><text x="350.00" y="620.00" id="23722">H9-J8N</text><rect Type="system" Region="卡彻" height="5.00" y="250.00" Name="BR-N97" width="5.00" x="350.00" id="23724" ID="30001235" /><text x="350.00" y="250.00" id="23725">BR-N97</text><rect Type="system" Region="普罗维登斯" height="5.00" y="400.00" Name="T-RPFU" width="5.00" x="380.00" id="23727" ID="30003715" /><text x="380.00" y="400.00" id="23728">T-RPFU</text><rect Type="system" Region="普罗维登斯" height="5.00" y="450.00" Name="FX-7EM" width="5.00" x="380.00" id="23730" ID="30003711" /><text x="380.00" y="450.00" id="23731">FX-7EM</text><rect Type="system" Region="普罗维登斯" height="5.00" y="650.00" Name="2V-CS5" width="5.00" x="400.00" id="23733" ID="30003774" /><text x="400.00" y="650.00" id="23734">2V-CS5</text><rect Type="system" Region="普罗维登斯" height="5.00" y="700.00" Name="AY-YCU" width="5.00" x="400.00" id="23736" ID="30003746" /><text x="400.00" y="700.00" id="23737">AY-YCU</text><rect Type="system" Region="普罗维登斯" height="5.00" y="200.00" Name="DP-JD4" width="5.00" x="400.00" id="23739" ID="30003721" /><text x="400.00" y="200.00" id="23740">DP-JD4</text><rect Type="system" Region="卡彻" height="5.00" y="300.00" Name="ERVK-P" width="5.00" x="420.00" id="23742" ID="30001233" /><text x="420.00" y="300.00" id="23743">ERVK-P</text><rect Type="system" Region="普罗维登斯" height="5.00" y="147.68" Name="5IO8-U" width="5.00" x="447.68" id="23745" ID="30003720" /><text x="447.68" y="147.68" id="23746">5IO8-U</text><rect Type="system" Region="普罗维登斯" height="5.00" y="250.00" Name="OXIY-V" width="5.00" x="450.00" id="23748" ID="30003722" /><text x="450.00" y="250.00" id="23749">OXIY-V</text><rect Type="system" Region="普罗维登斯" height="5.00" y="400.00" Name="D-GTMI" width="5.00" x="450.00" id="23751" ID="30003709" /><text x="450.00" y="400.00" id="23752">D-GTMI</text><rect Type="system" Region="普罗维登斯" height="5.00" y="50.00" Name="8P9-BM" width="5.00" x="480.00" id="23754" ID="30003750" /><text x="480.00" y="50.00" id="23755">8P9-BM</text><rect Type="system" Region="普罗维登斯" height="5.00" y="182.32" Name="QR-K85" width="5.00" x="482.32" id="23757" ID="30003719" /><text x="482.32" y="182.32" id="23758">QR-K85</text><rect Type="system" Region="普罗维登斯" height="5.00" y="700.00" Name="TU-RI6" width="5.00" x="480.00" id="23760" ID="30003742" /><text x="480.00" y="700.00" id="23761">TU-RI6</text><rect Type="system" Region="普罗维登斯" height="5.00" y="470.00" Name="FSW-3C" width="5.00" x="490.00" id="23763" ID="30003710" /><text x="490.00" y="470.00" id="23764">FSW-3C</text><rect Type="system" Region="普罗维登斯" height="5.00" y="620.00" Name="6-OQJV" width="5.00" x="500.00" id="23766" ID="30003745" /><text x="500.00" y="620.00" id="23767">6-OQJV</text><rect Type="system" Region="普罗维登斯" height="5.00" y="120.00" Name="FC-3YI" width="5.00" x="520.00" id="23769" ID="30003718" /><text x="520.00" y="120.00" id="23770">FC-3YI</text><rect Type="system" Region="普罗维登斯" height="5.00" y="550.00" Name="X-4WZD" width="5.00" x="550.00" id="23772" ID="30003744" /><text x="550.00" y="550.00" id="23773">X-4WZD</text><rect Type="system" Region="卡彻" height="5.00" y="280.00" Name="G-AOTH" width="5.00" x="550.00" id="23775" ID="30001227" /><text x="550.00" y="280.00" id="23776">G-AOTH</text><rect Type="system" Region="普罗维登斯" height="5.00" y="180.00" Name="U-HYMT" width="5.00" x="550.00" id="23778" ID="30003717" /><text x="550.00" y="180.00" id="23779">U-HYMT</text><rect Type="system" Region="普罗维登斯" height="5.00" y="700.00" Name="S9X-AX" width="5.00" x="550.00" id="23781" ID="30003741" /><text x="550.00" y="700.00" id="23782">S9X-AX</text><rect Type="system" Region="普罗维登斯" height="5.00" y="50.00" Name="3GXF-U" width="5.00" x="580.00" id="23784" ID="30003748" /><text x="580.00" y="50.00" id="23785">3GXF-U</text><rect Type="system" Region="普罗维登斯" height="5.00" y="620.00" Name="08Z-JJ" width="5.00" x="600.00" id="23787" ID="30003743" /><text x="600.00" y="620.00" id="23788">08Z-JJ</text><rect Type="system" Region="普罗维登斯" height="5.00" y="100.00" Name="49GC-R" width="5.00" x="620.00" id="23790" ID="30003708" /><text x="620.00" y="100.00" id="23791">49GC-R</text><rect Type="system" Region="普罗维登斯" height="5.00" y="180.00" Name="9UY4-H" width="5.00" x="650.00" id="23793" ID="30003707" /><text x="650.00" y="180.00" id="23794">9UY4-H</text><rect Type="system" Region="普罗维登斯" height="5.00" y="520.00" Name="G7AQ-7" width="5.00" x="650.00" id="23796" ID="30003713" /><text x="650.00" y="520.00" id="23797">G7AQ-7</text><rect Type="system" Region="普罗维登斯" height="5.00" y="50.00" Name="VKI-T7" width="5.00" x="650.00" id="23799" ID="30003749" /><text x="650.00" y="50.00" id="23800">VKI-T7</text><rect Type="system" Region="普罗维登斯" height="5.00" y="680.00" Name="I7S-1S" width="5.00" x="650.00" id="23802" ID="30003716" /><text x="650.00" y="680.00" id="23803">I7S-1S</text><rect Type="system" Region="普罗维登斯" height="5.00" y="220.00" Name="4B-NQN" width="5.00" x="700.00" id="23805" ID="30003706" /><text x="700.00" y="220.00" id="23806">4B-NQN</text><rect Type="system" Region="普罗维登斯" height="5.00" y="320.00" Name="O-Y5JQ" width="5.00" x="700.00" id="23808" ID="30003761" /><text x="700.00" y="320.00" id="23809">O-Y5JQ</text><rect Type="system" Region="普罗维登斯" height="5.00" y="380.00" Name="N-RMSH" width="5.00" x="700.00" id="23811" ID="30003763" /><text x="700.00" y="380.00" id="23812">N-RMSH</text><rect Type="system" Region="普罗维登斯" height="5.00" y="450.00" Name="IWZ3-C" width="5.00" x="700.00" id="23814" ID="30003765" /><text x="700.00" y="450.00" id="23815">IWZ3-C</text><rect Type="system" Region="普罗维登斯" height="5.00" y="120.00" Name="H6-CX8" width="5.00" x="720.00" id="23817" ID="30003723" /><text x="720.00" y="120.00" id="23818">H6-CX8</text><rect Type="system" Region="普罗维登斯" height="5.00" y="20.00" Name="H-GKI6" width="5.00" x="720.00" id="23820" ID="30003752" /><text x="720.00" y="20.00" id="23821">H-GKI6</text><rect Type="system" Region="普罗维登斯" height="5.00" y="520.00" Name="QBL-BV" width="5.00" x="720.00" id="23823" ID="30003714" /><text x="720.00" y="520.00" id="23824">QBL-BV</text><rect Type="system" Region="普罗维登斯" height="5.00" y="650.00" Name="INQ-WR" width="5.00" x="780.00" id="23826" ID="30003740" /><text x="780.00" y="650.00" id="23827">INQ-WR</text><rect Type="system" Region="普罗维登斯" height="5.00" y="580.00" Name="QO-SRI" width="5.00" x="900.00" id="23829" ID="30003739" /><text x="900.00" y="580.00" id="23830">QO-SRI</text><rect Type="system" Region="普罗维登斯" height="5.00" y="200.00" Name="9-F0B2" width="5.00" x="780.00" id="23832" ID="30003704" /><text x="780.00" y="200.00" id="23833">9-F0B2</text><rect Type="system" Region="普罗维登斯" height="5.00" y="250.00" Name="YWS0-Z" width="5.00" x="780.00" id="23835" ID="30003705" /><text x="780.00" y="250.00" id="23836">YWS0-Z</text><rect Type="system" Region="普罗维登斯" height="5.00" y="76.23" Name="辛塔特" width="5.00" x="789.06" id="23838" ID="30003725" /><text x="789.06" y="76.23" id="23839">辛塔特</text><rect Type="system" Region="普罗维登斯" height="5.00" y="580.00" Name="PI5-39" width="5.00" x="800.00" id="23841" ID="30003735" /><text x="800.00" y="580.00" id="23842">PI5-39</text><rect Type="system" Region="普罗维登斯" height="5.00" y="620.00" Name="GN7-XY" width="5.00" x="850.00" id="23844" ID="30003736" /><text x="850.00" y="620.00" id="23845">GN7-XY</text><rect Type="system" Region="普罗维登斯" height="5.00" y="680.00" Name="F-DTOO" width="5.00" x="900.00" id="23847" ID="30003737" /><text x="900.00" y="680.00" id="23848">F-DTOO</text><rect Type="system" Region="普罗维登斯" height="5.00" y="720.00" Name="5KG-PY" width="5.00" x="950.00" id="23850" ID="30003738" /><text x="950.00" y="720.00" id="23851">5KG-PY</text><rect Type="system" Region="普罗维登斯" height="5.00" y="320.00" Name="JEIV-E" width="5.00" x="800.00" id="23853" ID="30003760" /><text x="800.00" y="320.00" id="23854">JEIV-E</text><rect Type="system" Region="普罗维登斯" height="5.00" y="380.00" Name="DNR-7M" width="5.00" x="800.00" id="23856" ID="30003762" /><text x="800.00" y="380.00" id="23857">DNR-7M</text><rect Type="system" Region="普罗维登斯" height="5.00" y="450.00" Name="K1Y-5H" width="5.00" x="800.00" id="23859" ID="30003764" /><text x="800.00" y="450.00" id="23860">K1Y-5H</text><rect Type="system" Region="普罗维登斯" height="5.00" y="123.77" Name="D61A-G" width="5.00" x="800.94" id="23862" ID="30003724" /><text x="800.94" y="123.77" id="23863">D61A-G</text><rect Type="system" Region="普罗维登斯" height="5.00" y="20.00" Name="YQB-22" width="5.00" x="800.00" id="23865" ID="30003753" /><text x="800.00" y="20.00" id="23866">YQB-22</text><rect Type="system" Region="普罗维登斯" height="5.00" y="250.00" Name="XHQ-7V" width="5.00" x="850.00" id="23868" ID="30003731" /><text x="850.00" y="250.00" id="23869">XHQ-7V</text><rect Type="system" Region="普罗维登斯" height="5.00" y="60.00" Name="D-6WS1" width="5.00" x="870.00" id="23871" ID="30003727" /><text x="870.00" y="60.00" id="23872">D-6WS1</text><rect Type="system" Region="普罗维登斯" height="5.00" y="450.00" Name="E-YCML" width="5.00" x="850.00" id="23874" ID="30003732" /><text x="850.00" y="450.00" id="23875">E-YCML</text><rect Type="system" Region="普罗维登斯" height="5.00" y="200.00" Name="G-5EN2" width="5.00" x="880.00" id="23877" ID="30003703" /><text x="880.00" y="200.00" id="23878">G-5EN2</text><rect Type="system" Region="普罗维登斯" height="5.00" y="120.00" Name="Y-MPWL" width="5.00" x="900.00" id="23880" ID="30003726" /><text x="900.00" y="120.00" id="23881">Y-MPWL</text><rect Type="system" Region="普罗维登斯" height="5.00" y="250.00" Name="KBP7-G" width="5.00" x="920.00" id="23883" ID="30003729" /><text x="920.00" y="250.00" id="23884">KBP7-G</text><rect Type="system" Region="普罗维登斯" height="5.00" y="320.00" Name="B-WPLZ" width="5.00" x="920.00" id="23886" ID="30003730" /><text x="920.00" y="320.00" id="23887">B-WPLZ</text><rect Type="system" Region="普罗维登斯" height="5.00" y="400.00" Name="TU-O0T" width="5.00" x="920.00" id="23889" ID="30003733" /><text x="920.00" y="400.00" id="23890">TU-O0T</text><rect Type="system" Region="普罗维登斯" height="5.00" y="50.00" Name="SI-I89" width="5.00" x="950.00" id="23892" ID="30003728" /><text x="950.00" y="50.00" id="23893">SI-I89</text><rect Type="system" Region="普罗维登斯" height="5.00" y="450.00" Name="Y9-MDG" width="5.00" x="990.00" id="23895" ID="30003734" /><text x="990.00" y="450.00" id="23896">Y9-MDG</text><rect Type="system" Region="多美" height="5.00" y="650.00" Name="米萨巴" width="5.00" x="40.00" id="23898" ID="30003563" /><text x="40.00" y="650.00" id="23899">米萨巴</text><rect Type="system" Region="卡彻" height="5.00" y="300.00" Name="S25C-K" width="5.00" x="300.00" id="23901" ID="30001237" /><text x="300.00" y="300.00" id="23902">S25C-K</text><rect Type="system" Region="卡彻" height="5.00" y="350.00" Name="7MD-S1" width="5.00" x="400.00" id="23904" ID="30001232" /><text x="400.00" y="350.00" id="23905">7MD-S1</text><rect Type="system" Region="卡彻" height="5.00" y="280.00" Name="UL-7I8" width="5.00" x="500.00" id="23907" ID="30001234" /><text x="500.00" y="280.00" id="23908">UL-7I8</text><rect Type="system" Region="卡彻" height="5.00" y="360.00" Name="F9E-KX" width="5.00" x="520.00" id="23910" ID="30001153" /><text x="520.00" y="360.00" id="23911">F9E-KX</text><rect Type="system" Region="卡彻" height="5.00" y="220.00" Name="ZQ-Z3Y" width="5.00" x="600.00" id="23913" ID="30001226" /><text x="600.00" y="220.00" id="23914">ZQ-Z3Y</text><rect Type="system" Region="卡彻" height="5.00" y="320.00" Name="TA3T-3" width="5.00" x="620.00" id="23916" ID="30001228" /><text x="620.00" y="320.00" id="23917">TA3T-3</text><rect Type="system" Region="塔什蒙贡" height="5.00" y="120.00" Name="卡利" width="5.00" x="1000.00" id="23919" ID="30001742" /><text x="1000.00" y="120.00" id="23920">卡利</text><rect Type="system" Region="德里克" height="5.00" y="200.00" Name="艾沙哈" width="5.00" x="1000.00" id="23922" ID="30000075" /><text x="1000.00" y="200.00" id="23923">艾沙哈</text><rect Type="system" Region="破碎" height="5.00" y="250.00" Name="迪塔尔" width="5.00" x="1000.00" id="23925" ID="30002968" /><text x="1000.00" y="250.00" id="23926">迪塔尔</text><line x2="180.00" style="fill:blue;stroke:blue;" y1="220.00" x1="50.00" id="23928" y2="280.00" /><line x2="50.00" style="fill:blue;stroke:blue;" y1="220.00" x1="50.00" id="23929" y2="320.00" /><line x2="80.00" style="fill:blue;stroke:blue;" y1="220.00" x1="50.00" id="23930" y2="50.00" /><line x2="180.00" style="fill:blue;stroke:blue;" y1="320.00" x1="50.00" id="23931" y2="280.00" /><line x2="50.00" style="fill:blue;stroke:blue;" y1="320.00" x1="50.00" id="23932" y2="220.00" /><line x2="50.00" style="fill:blue;stroke:blue;" y1="320.00" x1="50.00" id="23933" y2="400.00" /><line x2="50.00" style="fill:blue;stroke:blue;" y1="400.00" x1="50.00" id="23934" y2="320.00" /><line x2="50.00" style="fill:blue;stroke:blue;" y1="400.00" x1="50.00" id="23935" y2="480.00" /><line x2="150.00" style="fill:blue;stroke:blue;" y1="400.00" x1="50.00" id="23936" y2="400.00" /><line x2="150.00" style="fill:blue;stroke:blue;" y1="400.00" x1="50.00" id="23937" y2="480.00" /><line x2="80.00" style="fill:blue;stroke:blue;" y1="480.00" x1="50.00" id="23938" y2="600.00" /><line x2="150.00" style="fill:blue;stroke:blue;" y1="480.00" x1="50.00" id="23939" y2="400.00" /><line x2="150.00" style="fill:blue;stroke:blue;" y1="480.00" x1="50.00" id="23940" y2="480.00" /><line x2="50.00" style="fill:blue;stroke:blue;" y1="480.00" x1="50.00" id="23941" y2="400.00" /><line x2="320.00" style="fill:blue;stroke:blue;" y1="50.00" x1="80.00" id="23942" y2="50.00" /><line x2="120.00" style="fill:blue;stroke:blue;" y1="50.00" x1="80.00" id="23943" y2="180.00" /><line x2="50.00" style="fill:blue;stroke:blue;" y1="50.00" x1="80.00" id="23944" y2="220.00" /><line x2="40.00" style="fill:blue;stroke:blue;" y1="600.00" x1="80.00" id="23945" y2="650.00" /><line x2="150.00" style="fill:blue;stroke:blue;" y1="600.00" x1="80.00" id="23946" y2="650.00" /><line x2="50.00" style="fill:blue;stroke:blue;" y1="600.00" x1="80.00" id="23947" y2="480.00" /><line x2="180.00" style="fill:blue;stroke:blue;" y1="180.00" x1="120.00" id="23948" y2="280.00" /><line x2="150.00" style="fill:blue;stroke:blue;" y1="180.00" x1="120.00" id="23949" y2="80.00" /><line x2="80.00" style="fill:blue;stroke:blue;" y1="180.00" x1="120.00" id="23950" y2="50.00" /><line x2="120.00" style="fill:blue;stroke:blue;" y1="80.00" x1="150.00" id="23951" y2="180.00" /><line x2="220.00" style="fill:blue;stroke:blue;" y1="650.00" x1="150.00" id="23952" y2="700.00" /><line x2="80.00" style="fill:blue;stroke:blue;" y1="650.00" x1="150.00" id="23953" y2="600.00" /><line x2="50.00" style="fill:blue;stroke:blue;" y1="400.00" x1="150.00" id="23954" y2="480.00" /><line x2="150.00" style="fill:blue;stroke:blue;" y1="400.00" x1="150.00" id="23955" y2="480.00" /><line x2="50.00" style="fill:blue;stroke:blue;" y1="400.00" x1="150.00" id="23956" y2="400.00" /><line x2="50.00" style="fill:blue;stroke:blue;" y1="480.00" x1="150.00" id="23957" y2="480.00" /><line x2="150.00" style="fill:blue;stroke:blue;" y1="480.00" x1="150.00" id="23958" y2="400.00" /><line x2="50.00" style="fill:blue;stroke:blue;" y1="480.00" x1="150.00" id="23959" y2="400.00" /><line x2="220.00" style="fill:blue;stroke:blue;" y1="720.00" x1="150.00" id="23960" y2="700.00" /><line x2="250.00" style="fill:blue;stroke:blue;" y1="580.00" x1="150.00" id="23961" y2="550.00" /><line x2="280.00" style="fill:blue;stroke:blue;" y1="280.00" x1="180.00" id="23962" y2="380.00" /><line x2="120.00" style="fill:blue;stroke:blue;" y1="280.00" x1="180.00" id="23963" y2="180.00" /><line x2="50.00" style="fill:blue;stroke:blue;" y1="280.00" x1="180.00" id="23964" y2="320.00" /><line x2="50.00" style="fill:blue;stroke:blue;" y1="280.00" x1="180.00" id="23965" y2="220.00" /><line x2="278.09" style="fill:blue;stroke:blue;" y1="100.00" x1="200.00" id="23966" y2="79.04" /><line x2="200.00" style="fill:blue;stroke:blue;" y1="100.00" x1="200.00" id="23967" y2="150.00" /><line x2="278.09" style="fill:blue;stroke:blue;" y1="150.00" x1="200.00" id="23968" y2="179.04" /><line x2="200.00" style="fill:blue;stroke:blue;" y1="150.00" x1="200.00" id="23969" y2="100.00" /><line x2="320.00" style="fill:blue;stroke:blue;" y1="700.00" x1="220.00" id="23970" y2="700.00" /><line x2="150.00" style="fill:blue;stroke:blue;" y1="700.00" x1="220.00" id="23971" y2="650.00" /><line x2="150.00" style="fill:blue;stroke:blue;" y1="700.00" x1="220.00" id="23972" y2="720.00" /><line x2="350.00" style="fill:blue;stroke:blue;" y1="550.00" x1="250.00" id="23973" y2="620.00" /><line x2="350.00" style="fill:blue;stroke:blue;" y1="550.00" x1="250.00" id="23974" y2="550.00" /><line x2="280.00" style="fill:blue;stroke:blue;" y1="550.00" x1="250.00" id="23975" y2="480.00" /><line x2="150.00" style="fill:blue;stroke:blue;" y1="550.00" x1="250.00" id="23976" y2="580.00" /><line x2="250.00" style="fill:blue;stroke:blue;" y1="550.00" x1="250.00" id="23977" y2="620.00" /><line x2="350.00" style="fill:blue;stroke:blue;" y1="620.00" x1="250.00" id="23978" y2="620.00" /><line x2="350.00" style="fill:blue;stroke:blue;" y1="620.00" x1="250.00" id="23979" y2="550.00" /><line x2="250.00" style="fill:blue;stroke:blue;" y1="620.00" x1="250.00" id="23980" y2="550.00" /><line x2="320.00" style="fill:blue;stroke:blue;" y1="79.04" x1="278.09" id="23981" y2="150.00" /><line x2="200.00" style="fill:blue;stroke:blue;" y1="79.04" x1="278.09" id="23982" y2="100.00" /><line x2="321.91" style="fill:blue;stroke:blue;" y1="79.04" x1="278.09" id="23983" y2="100.96" /><line x2="320.00" style="fill:blue;stroke:blue;" y1="179.04" x1="278.09" id="23984" y2="150.00" /><line x2="200.00" style="fill:blue;stroke:blue;" y1="179.04" x1="278.09" id="23985" y2="150.00" /><line x2="380.00" style="fill:blue;stroke:blue;" y1="380.00" x1="280.00" id="23986" y2="450.00" /><line x2="380.00" style="fill:blue;stroke:blue;" y1="380.00" x1="280.00" id="23987" y2="400.00" /><line x2="180.00" style="fill:blue;stroke:blue;" y1="380.00" x1="280.00" id="23988" y2="280.00" /><line x2="350.00" style="fill:blue;stroke:blue;" y1="480.00" x1="280.00" id="23989" y2="550.00" /><line x2="250.00" style="fill:blue;stroke:blue;" y1="480.00" x1="280.00" id="23990" y2="550.00" /><line x2="400.00" style="fill:blue;stroke:blue;" y1="700.00" x1="320.00" id="23991" y2="700.00" /><line x2="220.00" style="fill:blue;stroke:blue;" y1="700.00" x1="320.00" id="23992" y2="700.00" /><line x2="480.00" style="fill:blue;stroke:blue;" y1="50.00" x1="320.00" id="23993" y2="50.00" /><line x2="80.00" style="fill:blue;stroke:blue;" y1="50.00" x1="320.00" id="23994" y2="50.00" /><line x2="321.91" style="fill:blue;stroke:blue;" y1="50.00" x1="320.00" id="23995" y2="100.96" /><line x2="320.00" style="fill:blue;stroke:blue;" y1="100.96" x1="321.91" id="23996" y2="50.00" /><line x2="320.00" style="fill:blue;stroke:blue;" y1="100.96" x1="321.91" id="23997" y2="150.00" /><line x2="278.09" style="fill:blue;stroke:blue;" y1="100.96" x1="321.91" id="23998" y2="79.04" /><line x2="321.91" style="fill:blue;stroke:blue;" y1="150.00" x1="320.00" id="23999" y2="200.96" /><line x2="278.09" style="fill:blue;stroke:blue;" y1="150.00" x1="320.00" id="24000" y2="79.04" /><line x2="278.09" style="fill:blue;stroke:blue;" y1="150.00" x1="320.00" id="24001" y2="179.04" /><line x2="321.91" style="fill:blue;stroke:blue;" y1="150.00" x1="320.00" id="24002" y2="100.96" /><line x2="350.00" style="fill:blue;stroke:blue;" y1="200.96" x1="321.91" id="24003" y2="250.00" /><line x2="400.00" style="fill:blue;stroke:blue;" y1="200.96" x1="321.91" id="24004" y2="200.00" /><line x2="320.00" style="fill:blue;stroke:blue;" y1="200.96" x1="321.91" id="24005" y2="150.00" /><line x2="350.00" style="fill:blue;stroke:blue;" y1="550.00" x1="350.00" id="24006" y2="620.00" /><line x2="250.00" style="fill:blue;stroke:blue;" y1="550.00" x1="350.00" id="24007" y2="550.00" /><line x2="280.00" style="fill:blue;stroke:blue;" y1="550.00" x1="350.00" id="24008" y2="480.00" /><line x2="250.00" style="fill:blue;stroke:blue;" y1="550.00" x1="350.00" id="24009" y2="620.00" /><line x2="400.00" style="fill:blue;stroke:blue;" y1="620.00" x1="350.00" id="24010" y2="650.00" /><line x2="350.00" style="fill:blue;stroke:blue;" y1="620.00" x1="350.00" id="24011" y2="550.00" /><line x2="250.00" style="fill:blue;stroke:blue;" y1="620.00" x1="350.00" id="24012" y2="550.00" /><line x2="250.00" style="fill:blue;stroke:blue;" y1="620.00" x1="350.00" id="24013" y2="620.00" /><line x2="420.00" style="fill:blue;stroke:blue;" y1="250.00" x1="350.00" id="24014" y2="300.00" /><line x2="321.91" style="fill:blue;stroke:blue;" y1="250.00" x1="350.00" id="24015" y2="200.96" /><line x2="300.00" style="fill:blue;stroke:blue;" y1="250.00" x1="350.00" id="24016" y2="300.00" /><line x2="400.00" style="fill:blue;stroke:blue;" y1="400.00" x1="380.00" id="24017" y2="350.00" /><line x2="450.00" style="fill:blue;stroke:blue;" y1="400.00" x1="380.00" id="24018" y2="400.00" /><line x2="280.00" style="fill:blue;stroke:blue;" y1="400.00" x1="380.00" id="24019" y2="380.00" /><line x2="490.00" style="fill:blue;stroke:blue;" y1="450.00" x1="380.00" id="24020" y2="470.00" /><line x2="280.00" style="fill:blue;stroke:blue;" y1="450.00" x1="380.00" id="24021" y2="380.00" /><line x2="400.00" style="fill:blue;stroke:blue;" y1="650.00" x1="400.00" id="24022" y2="700.00" /><line x2="350.00" style="fill:blue;stroke:blue;" y1="650.00" x1="400.00" id="24023" y2="620.00" /><line x2="480.00" style="fill:blue;stroke:blue;" y1="700.00" x1="400.00" id="24024" y2="700.00" /><line x2="320.00" style="fill:blue;stroke:blue;" y1="700.00" x1="400.00" id="24025" y2="700.00" /><line x2="400.00" style="fill:blue;stroke:blue;" y1="700.00" x1="400.00" id="24026" y2="650.00" /><line x2="321.91" style="fill:blue;stroke:blue;" y1="200.00" x1="400.00" id="24027" y2="200.96" /><line x2="482.32" style="fill:blue;stroke:blue;" y1="200.00" x1="400.00" id="24028" y2="182.32" /><line x2="447.68" style="fill:blue;stroke:blue;" y1="200.00" x1="400.00" id="24029" y2="147.68" /><line x2="450.00" style="fill:blue;stroke:blue;" y1="200.00" x1="400.00" id="24030" y2="250.00" /><line x2="400.00" style="fill:blue;stroke:blue;" y1="300.00" x1="420.00" id="24031" y2="350.00" /><line x2="500.00" style="fill:blue;stroke:blue;" y1="300.00" x1="420.00" id="24032" y2="280.00" /><line x2="350.00" style="fill:blue;stroke:blue;" y1="300.00" x1="420.00" id="24033" y2="250.00" /><line x2="550.00" style="fill:blue;stroke:blue;" y1="147.68" x1="447.68" id="24034" y2="180.00" /><line x2="520.00" style="fill:blue;stroke:blue;" y1="147.68" x1="447.68" id="24035" y2="120.00" /><line x2="482.32" style="fill:blue;stroke:blue;" y1="147.68" x1="447.68" id="24036" y2="182.32" /><line x2="400.00" style="fill:blue;stroke:blue;" y1="147.68" x1="447.68" id="24037" y2="200.00" /><line x2="500.00" style="fill:blue;stroke:blue;" y1="250.00" x1="450.00" id="24038" y2="280.00" /><line x2="400.00" style="fill:blue;stroke:blue;" y1="250.00" x1="450.00" id="24039" y2="200.00" /><line x2="520.00" style="fill:blue;stroke:blue;" y1="400.00" x1="450.00" id="24040" y2="360.00" /><line x2="490.00" style="fill:blue;stroke:blue;" y1="400.00" x1="450.00" id="24041" y2="470.00" /><line x2="380.00" style="fill:blue;stroke:blue;" y1="400.00" x1="450.00" id="24042" y2="400.00" /><line x2="580.00" style="fill:blue;stroke:blue;" y1="50.00" x1="480.00" id="24043" y2="50.00" /><line x2="320.00" style="fill:blue;stroke:blue;" y1="50.00" x1="480.00" id="24044" y2="50.00" /><line x2="550.00" style="fill:blue;stroke:blue;" y1="182.32" x1="482.32" id="24045" y2="180.00" /><line x2="520.00" style="fill:blue;stroke:blue;" y1="182.32" x1="482.32" id="24046" y2="120.00" /><line x2="447.68" style="fill:blue;stroke:blue;" y1="182.32" x1="482.32" id="24047" y2="147.68" /><line x2="400.00" style="fill:blue;stroke:blue;" y1="182.32" x1="482.32" id="24048" y2="200.00" /><line x2="550.00" style="fill:blue;stroke:blue;" y1="700.00" x1="480.00" id="24049" y2="700.00" /><line x2="400.00" style="fill:blue;stroke:blue;" y1="700.00" x1="480.00" id="24050" y2="700.00" /><line x2="450.00" style="fill:blue;stroke:blue;" y1="470.00" x1="490.00" id="24051" y2="400.00" /><line x2="380.00" style="fill:blue;stroke:blue;" y1="470.00" x1="490.00" id="24052" y2="450.00" /><line x2="650.00" style="fill:blue;stroke:blue;" y1="470.00" x1="490.00" id="24053" y2="520.00" /><line x2="550.00" style="fill:blue;stroke:blue;" y1="620.00" x1="500.00" id="24054" y2="700.00" /><line x2="600.00" style="fill:blue;stroke:blue;" y1="620.00" x1="500.00" id="24055" y2="620.00" /><line x2="550.00" style="fill:blue;stroke:blue;" y1="620.00" x1="500.00" id="24056" y2="550.00" /><line x2="550.00" style="fill:blue;stroke:blue;" y1="120.00" x1="520.00" id="24057" y2="180.00" /><line x2="482.32" style="fill:blue;stroke:blue;" y1="120.00" x1="520.00" id="24058" y2="182.32" /><line x2="447.68" style="fill:blue;stroke:blue;" y1="120.00" x1="520.00" id="24059" y2="147.68" /><line x2="600.00" style="fill:blue;stroke:blue;" y1="550.00" x1="550.00" id="24060" y2="620.00" /><line x2="500.00" style="fill:blue;stroke:blue;" y1="550.00" x1="550.00" id="24061" y2="620.00" /><line x2="600.00" style="fill:blue;stroke:blue;" y1="280.00" x1="550.00" id="24062" y2="220.00" /><line x2="620.00" style="fill:blue;stroke:blue;" y1="280.00" x1="550.00" id="24063" y2="320.00" /><line x2="500.00" style="fill:blue;stroke:blue;" y1="280.00" x1="550.00" id="24064" y2="280.00" /><line x2="650.00" style="fill:blue;stroke:blue;" y1="180.00" x1="550.00" id="24065" y2="180.00" /><line x2="520.00" style="fill:blue;stroke:blue;" y1="180.00" x1="550.00" id="24066" y2="120.00" /><line x2="482.32" style="fill:blue;stroke:blue;" y1="180.00" x1="550.00" id="24067" y2="182.32" /><line x2="447.68" style="fill:blue;stroke:blue;" y1="180.00" x1="550.00" id="24068" y2="147.68" /><line x2="650.00" style="fill:blue;stroke:blue;" y1="700.00" x1="550.00" id="24069" y2="680.00" /><line x2="480.00" style="fill:blue;stroke:blue;" y1="700.00" x1="550.00" id="24070" y2="700.00" /><line x2="600.00" style="fill:blue;stroke:blue;" y1="700.00" x1="550.00" id="24071" y2="620.00" /><line x2="500.00" style="fill:blue;stroke:blue;" y1="700.00" x1="550.00" id="24072" y2="620.00" /><line x2="620.00" style="fill:blue;stroke:blue;" y1="50.00" x1="580.00" id="24073" y2="100.00" /><line x2="650.00" style="fill:blue;stroke:blue;" y1="50.00" x1="580.00" id="24074" y2="50.00" /><line x2="480.00" style="fill:blue;stroke:blue;" y1="50.00" x1="580.00" id="24075" y2="50.00" /><line x2="550.00" style="fill:blue;stroke:blue;" y1="620.00" x1="600.00" id="24076" y2="700.00" /><line x2="550.00" style="fill:blue;stroke:blue;" y1="620.00" x1="600.00" id="24077" y2="550.00" /><line x2="500.00" style="fill:blue;stroke:blue;" y1="620.00" x1="600.00" id="24078" y2="620.00" /><line x2="650.00" style="fill:blue;stroke:blue;" y1="100.00" x1="620.00" id="24079" y2="180.00" /><line x2="580.00" style="fill:blue;stroke:blue;" y1="100.00" x1="620.00" id="24080" y2="50.00" /><line x2="600.00" style="fill:blue;stroke:blue;" y1="180.00" x1="650.00" id="24081" y2="220.00" /><line x2="700.00" style="fill:blue;stroke:blue;" y1="180.00" x1="650.00" id="24082" y2="220.00" /><line x2="620.00" style="fill:blue;stroke:blue;" y1="180.00" x1="650.00" id="24083" y2="100.00" /><line x2="550.00" style="fill:blue;stroke:blue;" y1="180.00" x1="650.00" id="24084" y2="180.00" /><line x2="720.00" style="fill:blue;stroke:blue;" y1="180.00" x1="650.00" id="24085" y2="120.00" /><line x2="490.00" style="fill:blue;stroke:blue;" y1="520.00" x1="650.00" id="24086" y2="470.00" /><line x2="720.00" style="fill:blue;stroke:blue;" y1="520.00" x1="650.00" id="24087" y2="520.00" /><line x2="650.00" style="fill:blue;stroke:blue;" y1="520.00" x1="650.00" id="24088" y2="680.00" /><line x2="580.00" style="fill:blue;stroke:blue;" y1="50.00" x1="650.00" id="24089" y2="50.00" /><line x2="720.00" style="fill:blue;stroke:blue;" y1="50.00" x1="650.00" id="24090" y2="20.00" /><line x2="650.00" style="fill:blue;stroke:blue;" y1="680.00" x1="650.00" id="24091" y2="520.00" /><line x2="550.00" style="fill:blue;stroke:blue;" y1="680.00" x1="650.00" id="24092" y2="700.00" /><line x2="780.00" style="fill:blue;stroke:blue;" y1="220.00" x1="700.00" id="24093" y2="200.00" /><line x2="780.00" style="fill:blue;stroke:blue;" y1="220.00" x1="700.00" id="24094" y2="250.00" /><line x2="650.00" style="fill:blue;stroke:blue;" y1="220.00" x1="700.00" id="24095" y2="180.00" /><line x2="800.00" style="fill:blue;stroke:blue;" y1="320.00" x1="700.00" id="24096" y2="320.00" /><line x2="700.00" style="fill:blue;stroke:blue;" y1="320.00" x1="700.00" id="24097" y2="380.00" /><line x2="800.00" style="fill:blue;stroke:blue;" y1="380.00" x1="700.00" id="24098" y2="320.00" /><line x2="700.00" style="fill:blue;stroke:blue;" y1="380.00" x1="700.00" id="24099" y2="320.00" /><line x2="700.00" style="fill:blue;stroke:blue;" y1="380.00" x1="700.00" id="24100" y2="450.00" /><line x2="700.00" style="fill:blue;stroke:blue;" y1="450.00" x1="700.00" id="24101" y2="380.00" /><line x2="800.00" style="fill:blue;stroke:blue;" y1="450.00" x1="700.00" id="24102" y2="450.00" /><line x2="650.00" style="fill:blue;stroke:blue;" y1="120.00" x1="720.00" id="24103" y2="180.00" /><line x2="800.94" style="fill:blue;stroke:blue;" y1="120.00" x1="720.00" id="24104" y2="123.77" /><line x2="789.06" style="fill:blue;stroke:blue;" y1="120.00" x1="720.00" id="24105" y2="76.23" /><line x2="650.00" style="fill:blue;stroke:blue;" y1="20.00" x1="720.00" id="24106" y2="50.00" /><line x2="800.00" style="fill:blue;stroke:blue;" y1="20.00" x1="720.00" id="24107" y2="20.00" /><line x2="650.00" style="fill:blue;stroke:blue;" y1="520.00" x1="720.00" id="24108" y2="520.00" /><line x2="800.00" style="fill:blue;stroke:blue;" y1="520.00" x1="720.00" id="24109" y2="580.00" /><line x2="800.00" style="fill:blue;stroke:blue;" y1="650.00" x1="780.00" id="24110" y2="580.00" /><line x2="850.00" style="fill:blue;stroke:blue;" y1="650.00" x1="780.00" id="24111" y2="620.00" /><line x2="850.00" style="fill:blue;stroke:blue;" y1="580.00" x1="900.00" id="24112" y2="620.00" /><line x2="880.00" style="fill:blue;stroke:blue;" y1="200.00" x1="780.00" id="24113" y2="200.00" /><line x2="780.00" style="fill:blue;stroke:blue;" y1="200.00" x1="780.00" id="24114" y2="250.00" /><line x2="700.00" style="fill:blue;stroke:blue;" y1="200.00" x1="780.00" id="24115" y2="220.00" /><line x2="780.00" style="fill:blue;stroke:blue;" y1="250.00" x1="780.00" id="24116" y2="200.00" /><line x2="700.00" style="fill:blue;stroke:blue;" y1="250.00" x1="780.00" id="24117" y2="220.00" /><line x2="850.00" style="fill:blue;stroke:blue;" y1="250.00" x1="780.00" id="24118" y2="250.00" /><line x2="720.00" style="fill:blue;stroke:blue;" y1="76.23" x1="789.06" id="24119" y2="120.00" /><line x2="870.00" style="fill:blue;stroke:blue;" y1="76.23" x1="789.06" id="24120" y2="60.00" /><line x2="720.00" style="fill:blue;stroke:blue;" y1="580.00" x1="800.00" id="24121" y2="520.00" /><line x2="850.00" style="fill:blue;stroke:blue;" y1="580.00" x1="800.00" id="24122" y2="620.00" /><line x2="780.00" style="fill:blue;stroke:blue;" y1="580.00" x1="800.00" id="24123" y2="650.00" /><line x2="800.00" style="fill:blue;stroke:blue;" y1="620.00" x1="850.00" id="24124" y2="580.00" /><line x2="900.00" style="fill:blue;stroke:blue;" y1="620.00" x1="850.00" id="24125" y2="680.00" /><line x2="900.00" style="fill:blue;stroke:blue;" y1="620.00" x1="850.00" id="24126" y2="580.00" /><line x2="780.00" style="fill:blue;stroke:blue;" y1="620.00" x1="850.00" id="24127" y2="650.00" /><line x2="850.00" style="fill:blue;stroke:blue;" y1="680.00" x1="900.00" id="24128" y2="620.00" /><line x2="950.00" style="fill:blue;stroke:blue;" y1="680.00" x1="900.00" id="24129" y2="720.00" /><line x2="900.00" style="fill:blue;stroke:blue;" y1="720.00" x1="950.00" id="24130" y2="680.00" /><line x2="850.00" style="fill:blue;stroke:blue;" y1="320.00" x1="800.00" id="24131" y2="250.00" /><line x2="700.00" style="fill:blue;stroke:blue;" y1="320.00" x1="800.00" id="24132" y2="320.00" /><line x2="800.00" style="fill:blue;stroke:blue;" y1="320.00" x1="800.00" id="24133" y2="380.00" /><line x2="700.00" style="fill:blue;stroke:blue;" y1="320.00" x1="800.00" id="24134" y2="380.00" /><line x2="800.00" style="fill:blue;stroke:blue;" y1="380.00" x1="800.00" id="24135" y2="320.00" /><line x2="800.00" style="fill:blue;stroke:blue;" y1="380.00" x1="800.00" id="24136" y2="450.00" /><line x2="800.00" style="fill:blue;stroke:blue;" y1="450.00" x1="800.00" id="24137" y2="380.00" /><line x2="700.00" style="fill:blue;stroke:blue;" y1="450.00" x1="800.00" id="24138" y2="450.00" /><line x2="720.00" style="fill:blue;stroke:blue;" y1="123.77" x1="800.94" id="24139" y2="120.00" /><line x2="900.00" style="fill:blue;stroke:blue;" y1="123.77" x1="800.94" id="24140" y2="120.00" /><line x2="720.00" style="fill:blue;stroke:blue;" y1="20.00" x1="800.00" id="24141" y2="20.00" /><line x2="780.00" style="fill:blue;stroke:blue;" y1="250.00" x1="850.00" id="24142" y2="250.00" /><line x2="920.00" style="fill:blue;stroke:blue;" y1="250.00" x1="850.00" id="24143" y2="250.00" /><line x2="800.00" style="fill:blue;stroke:blue;" y1="250.00" x1="850.00" id="24144" y2="320.00" /><line x2="789.06" style="fill:blue;stroke:blue;" y1="60.00" x1="870.00" id="24145" y2="76.23" /><line x2="950.00" style="fill:blue;stroke:blue;" y1="60.00" x1="870.00" id="24146" y2="50.00" /><line x2="920.00" style="fill:blue;stroke:blue;" y1="450.00" x1="850.00" id="24147" y2="320.00" /><line x2="920.00" style="fill:blue;stroke:blue;" y1="450.00" x1="850.00" id="24148" y2="400.00" /><line x2="990.00" style="fill:blue;stroke:blue;" y1="450.00" x1="850.00" id="24149" y2="450.00" /><line x2="1000.00" style="fill:blue;stroke:blue;" y1="200.00" x1="880.00" id="24150" y2="200.00" /><line x2="780.00" style="fill:blue;stroke:blue;" y1="200.00" x1="880.00" id="24151" y2="200.00" /><line x2="1000.00" style="fill:blue;stroke:blue;" y1="120.00" x1="900.00" id="24152" y2="120.00" /><line x2="800.94" style="fill:blue;stroke:blue;" y1="120.00" x1="900.00" id="24153" y2="123.77" /><line x2="1000.00" style="fill:blue;stroke:blue;" y1="250.00" x1="920.00" id="24154" y2="250.00" /><line x2="920.00" style="fill:blue;stroke:blue;" y1="250.00" x1="920.00" id="24155" y2="320.00" /><line x2="850.00" style="fill:blue;stroke:blue;" y1="250.00" x1="920.00" id="24156" y2="250.00" /><line x2="920.00" style="fill:blue;stroke:blue;" y1="320.00" x1="920.00" id="24157" y2="250.00" /><line x2="850.00" style="fill:blue;stroke:blue;" y1="320.00" x1="920.00" id="24158" y2="450.00" /><line x2="920.00" style="fill:blue;stroke:blue;" y1="320.00" x1="920.00" id="24159" y2="400.00" /><line x2="990.00" style="fill:blue;stroke:blue;" y1="320.00" x1="920.00" id="24160" y2="450.00" /><line x2="920.00" style="fill:blue;stroke:blue;" y1="400.00" x1="920.00" id="24161" y2="320.00" /><line x2="850.00" style="fill:blue;stroke:blue;" y1="400.00" x1="920.00" id="24162" y2="450.00" /><line x2="990.00" style="fill:blue;stroke:blue;" y1="400.00" x1="920.00" id="24163" y2="450.00" /><line x2="870.00" style="fill:blue;stroke:blue;" y1="50.00" x1="950.00" id="24164" y2="60.00" /><line x2="920.00" style="fill:blue;stroke:blue;" y1="450.00" x1="990.00" id="24165" y2="320.00" /><line x2="850.00" style="fill:blue;stroke:blue;" y1="450.00" x1="990.00" id="24166" y2="450.00" /><line x2="920.00" style="fill:blue;stroke:blue;" y1="450.00" x1="990.00" id="24167" y2="400.00" /><line x2="80.00" style="fill:blue;stroke:blue;" y1="650.00" x1="40.00" id="24168" y2="600.00" /><line x2="350.00" style="fill:blue;stroke:blue;" y1="300.00" x1="300.00" id="24169" y2="250.00" /><line x2="420.00" style="fill:blue;stroke:blue;" y1="350.00" x1="400.00" id="24170" y2="300.00" /><line x2="380.00" style="fill:blue;stroke:blue;" y1="350.00" x1="400.00" id="24171" y2="400.00" /><line x2="550.00" style="fill:blue;stroke:blue;" y1="280.00" x1="500.00" id="24172" y2="280.00" /><line x2="420.00" style="fill:blue;stroke:blue;" y1="280.00" x1="500.00" id="24173" y2="300.00" /><line x2="450.00" style="fill:blue;stroke:blue;" y1="280.00" x1="500.00" id="24174" y2="250.00" /><line x2="450.00" style="fill:blue;stroke:blue;" y1="360.00" x1="520.00" id="24175" y2="400.00" /><line x2="550.00" style="fill:blue;stroke:blue;" y1="220.00" x1="600.00" id="24176" y2="280.00" /><line x2="650.00" style="fill:blue;stroke:blue;" y1="220.00" x1="600.00" id="24177" y2="180.00" /><line x2="550.00" style="fill:blue;stroke:blue;" y1="320.00" x1="620.00" id="24178" y2="280.00" /><line x2="900.00" style="fill:blue;stroke:blue;" y1="120.00" x1="1000.00" id="24179" y2="120.00" /><line x2="880.00" style="fill:blue;stroke:blue;" y1="200.00" x1="1000.00" id="24180" y2="200.00" /><line x2="920.00" style="fill:blue;stroke:blue;" y1="250.00" x1="1000.00" id="24181" y2="250.00" /></svg>
