<?xml version="1.0" standalone="yes"?><!DOCTYPE svg PUBLIC "-//W3C//DTD SVG 1.1//EN" "http://www.w3.org/Graphics/SVG/1.1/DTD/svg11.dtd"[]><svg height="800.00" id="477" width="1050.00" xmlns="http://www.w3.org/2000/svg" xmlns:xlink="http://www.w3.org/1999/xlink"><rect Type="system" Region="暗涌之域" height="5.00" y="550.00" Name="诺托拉斯" width="5.00" x="90.00" id="478" ID="30045348" /><text x="90.00" y="550.00" id="479">诺托拉斯</text><rect Type="system" Region="暗涌之域" height="5.00" y="500.00" Name="尼苏瓦" width="5.00" x="140.00" id="481" ID="30045352" /><text x="140.00" y="500.00" id="482">尼苏瓦</text><rect Type="system" Region="暗涌之域" height="5.00" y="20.00" Name="撒勒尼米" width="5.00" x="120.00" id="484" ID="30045310" /><text x="120.00" y="20.00" id="485">撒勒尼米</text><rect Type="system" Region="暗涌之域" height="5.00" y="330.00" Name="忒蒙" width="5.00" x="190.00" id="487" ID="30045350" /><text x="190.00" y="330.00" id="488">忒蒙</text><rect Type="system" Region="暗涌之域" height="5.00" y="430.00" Name="柯达玛" width="5.00" x="190.00" id="490" ID="30045346" /><text x="190.00" y="430.00" id="491">柯达玛</text><rect Type="system" Region="暗涌之域" height="5.00" y="550.00" Name="欧纳斯肯" width="5.00" x="190.00" id="493" ID="30045347" /><text x="190.00" y="550.00" id="494">欧纳斯肯</text><rect Type="system" Region="暗涌之域" height="5.00" y="20.00" Name="西卡尼亚" width="5.00" x="200.00" id="496" ID="30045306" /><text x="200.00" y="20.00" id="497">西卡尼亚</text><rect Type="system" Region="暗涌之域" height="5.00" y="121.91" Name="埃希策" width="5.00" x="199.04" id="499" ID="30045311" /><text x="199.04" y="121.91" id="500">埃希策</text><rect Type="system" Region="暗涌之域" height="5.00" y="500.00" Name="荷利" width="5.00" x="240.00" id="502" ID="30045345" /><text x="240.00" y="500.00" id="503">荷利</text><rect Type="system" Region="暗涌之域" height="5.00" y="78.09" Name="伊那卡蒙" width="5.00" x="220.96" id="505" ID="30045313" /><text x="220.96" y="78.09" id="506">伊那卡蒙</text><rect Type="system" Region="暗涌之域" height="5.00" y="480.00" Name="拉卡帕斯" width="5.00" x="290.00" id="508" ID="30045349" /><text x="290.00" y="480.00" id="509">拉卡帕斯</text><rect Type="system" Region="暗涌之域" height="5.00" y="400.00" Name="雷苏多" width="5.00" x="310.00" id="511" ID="30045354" /><text x="310.00" y="400.00" id="512">雷苏多</text><rect Type="system" Region="暗涌之域" height="5.00" y="50.00" Name="欧卡伽肯" width="5.00" x="280.00" id="514" ID="30045307" /><text x="280.00" y="50.00" id="515">欧卡伽肯</text><rect Type="system" Region="暗涌之域" height="5.00" y="550.00" Name="派尼佳斯托" width="5.00" x="340.00" id="517" ID="30045353" /><text x="340.00" y="550.00" id="518">派尼佳斯托</text><rect Type="system" Region="暗涌之域" height="5.00" y="250.00" Name="姆什克基" width="5.00" x="300.00" id="520" ID="30045334" /><text x="300.00" y="250.00" id="521">姆什克基</text><rect Type="system" Region="暗涌之域" height="5.00" y="300.00" Name="奥卡蒙" width="5.00" x="350.00" id="523" ID="30045330" /><text x="350.00" y="300.00" id="524">奥卡蒙</text><rect Type="system" Region="暗涌之域" height="5.00" y="480.00" Name="伊维苏达" width="5.00" x="390.00" id="526" ID="30045351" /><text x="390.00" y="480.00" id="527">伊维苏达</text><rect Type="system" Region="暗涌之域" height="5.00" y="20.00" Name="维拉森" width="5.00" x="380.00" id="529" ID="30045309" /><text x="380.00" y="20.00" id="530">维拉森</text><rect Type="system" Region="暗涌之域" height="5.00" y="120.00" Name="克加里" width="5.00" x="380.00" id="532" ID="30045308" /><text x="380.00" y="120.00" id="533">克加里</text><rect Type="system" Region="暗涌之域" height="5.00" y="230.00" Name="瓦拉冷" width="5.00" x="380.00" id="535" ID="30045331" /><text x="380.00" y="230.00" id="536">瓦拉冷</text><rect Type="system" Region="暗涌之域" height="5.00" y="180.00" Name="特斯坎能" width="5.00" x="400.00" id="538" ID="30045335" /><text x="400.00" y="180.00" id="539">特斯坎能</text><rect Type="system" Region="暗涌之域" height="5.00" y="20.00" Name="科拉森" width="5.00" x="450.00" id="541" ID="30045312" /><text x="450.00" y="20.00" id="542">科拉森</text><rect Type="system" Region="暗涌之域" height="5.00" y="250.00" Name="伊伦娜拉" width="5.00" x="450.00" id="544" ID="30045336" /><text x="450.00" y="250.00" id="545">伊伦娜拉</text><rect Type="system" Region="暗涌之域" height="5.00" y="300.00" Name="艾萨凯" width="5.00" x="450.00" id="547" ID="30045332" /><text x="450.00" y="300.00" id="548">艾萨凯</text><rect Type="system" Region="暗涌之域" height="5.00" y="590.00" Name="希克肯" width="5.00" x="460.00" id="550" ID="30045338" /><text x="460.00" y="590.00" id="551">希克肯</text><rect Type="system" Region="暗涌之域" height="5.00" y="250.00" Name="普利斯姆" width="5.00" x="520.00" id="553" ID="30045333" /><text x="520.00" y="250.00" id="554">普利斯姆</text><rect Type="system" Region="暗涌之域" height="5.00" y="300.00" Name="伊克斯加" width="5.00" x="520.00" id="556" ID="30045337" /><text x="520.00" y="300.00" id="557">伊克斯加</text><rect Type="system" Region="暗涌之域" height="5.00" y="660.00" Name="伊姆利" width="5.00" x="530.00" id="559" ID="30045343" /><text x="530.00" y="660.00" id="560">伊姆利</text><rect Type="system" Region="暗涌之域" height="5.00" y="510.00" Name="哈尔那能" width="5.00" x="530.00" id="562" ID="30045341" /><text x="530.00" y="510.00" id="563">哈尔那能</text><rect Type="system" Region="暗涌之域" height="5.00" y="50.00" Name="马尔托" width="5.00" x="580.00" id="565" ID="30045318" /><text x="580.00" y="50.00" id="566">马尔托</text><rect Type="system" Region="暗涌之域" height="5.00" y="120.00" Name="依拉勒贾" width="5.00" x="580.00" id="568" ID="30045317" /><text x="580.00" y="120.00" id="569">依拉勒贾</text><rect Type="system" Region="暗涌之域" height="5.00" y="230.00" Name="阿希多" width="5.00" x="660.00" id="571" ID="30045323" /><text x="660.00" y="230.00" id="572">阿希多</text><rect Type="system" Region="暗涌之域" height="5.00" y="150.00" Name="莱贝卡" width="5.00" x="650.00" id="574" ID="30045315" /><text x="650.00" y="150.00" id="575">莱贝卡</text><rect Type="system" Region="暗涌之域" height="5.00" y="300.00" Name="萨马奴尼" width="5.00" x="650.00" id="577" ID="30045322" /><text x="650.00" y="300.00" id="578">萨马奴尼</text><rect Type="system" Region="宁静之域" height="5.00" y="360.00" Name="埃托伦" width="5.00" x="640.00" id="580" ID="30003856" /><text x="640.00" y="360.00" id="581">埃托伦</text><rect Type="system" Region="暗涌之域" height="5.00" y="610.00" Name="涅娜麦拉" width="5.00" x="630.00" id="583" ID="30045344" /><text x="630.00" y="610.00" id="584">涅娜麦拉</text><rect Type="system" Region="暗涌之域" height="5.00" y="540.00" Name="伊娜鲁瑞" width="5.00" x="630.00" id="586" ID="30045339" /><text x="630.00" y="540.00" id="587">伊娜鲁瑞</text><rect Type="system" Region="暗涌之域" height="5.00" y="50.00" Name="伊哈" width="5.00" x="700.00" id="589" ID="30045319" /><text x="700.00" y="50.00" id="590">伊哈</text><rect Type="system" Region="暗涌之域" height="5.00" y="180.00" Name="斯拉马" width="5.00" x="720.00" id="592" ID="30045327" /><text x="720.00" y="180.00" id="593">斯拉马</text><rect Type="system" Region="暗涌之域" height="5.00" y="260.00" Name="乌呼拉能" width="5.00" x="710.00" id="595" ID="30045326" /><text x="710.00" y="260.00" id="596">乌呼拉能</text><rect Type="system" Region="暗涌之域" height="5.00" y="120.00" Name="吉纳卡" width="5.00" x="720.00" id="598" ID="30045314" /><text x="720.00" y="120.00" id="599">吉纳卡</text><rect Type="system" Region="暗涌之域" height="5.00" y="350.00" Name="乌科米达" width="5.00" x="750.00" id="601" ID="30045321" /><text x="750.00" y="350.00" id="602">乌科米达</text><rect Type="system" Region="暗涌之域" height="5.00" y="550.00" Name="阿基达戈" width="5.00" x="750.00" id="604" ID="30045342" /><text x="750.00" y="550.00" id="605">阿基达戈</text><rect Type="system" Region="暗涌之域" height="5.00" y="300.00" Name="罗哈马" width="5.00" x="780.00" id="607" ID="30045325" /><text x="780.00" y="300.00" id="608">罗哈马</text><rect Type="system" Region="暗涌之域" height="5.00" y="80.00" Name="因尼亚" width="5.00" x="780.00" id="610" ID="30045316" /><text x="780.00" y="80.00" id="611">因尼亚</text><rect Type="system" Region="暗涌之域" height="5.00" y="200.00" Name="欧拿蒙" width="5.00" x="810.00" id="613" ID="30045324" /><text x="810.00" y="200.00" id="614">欧拿蒙</text><rect Type="system" Region="暗涌之域" height="5.00" y="460.00" Name="艾沃能" width="5.00" x="950.00" id="616" ID="30045340" /><text x="950.00" y="460.00" id="617">艾沃能</text><rect Type="system" Region="暗涌之域" height="5.00" y="120.00" Name="帕瓦纳卡" width="5.00" x="950.00" id="619" ID="30045320" /><text x="950.00" y="120.00" id="620">帕瓦纳卡</text><rect Type="system" Region="长征" height="5.00" y="20.00" Name="卡尔加塔伊蒙" width="5.00" x="50.00" id="622" ID="30001440" /><text x="50.00" y="20.00" id="623">卡尔加塔伊蒙</text><rect Type="system" Region="赛塔德洱" height="5.00" y="430.00" Name="塔玛" width="5.00" x="90.00" id="625" ID="30002813" /><text x="90.00" y="430.00" id="626">塔玛</text><rect Type="system" Region="精华之域" height="5.00" y="600.00" Name="埃布尼" width="5.00" x="190.00" id="628" ID="30004984" /><text x="190.00" y="600.00" id="629">埃布尼</text><rect Type="system" Region="赛塔德洱" height="5.00" y="200.00" Name="曼贾纳克" width="5.00" x="250.00" id="631" ID="30002760" /><text x="250.00" y="200.00" id="632">曼贾纳克</text><rect Type="system" Region="云环" height="5.00" y="80.00" Name="W-4NUU" width="5.00" x="320.00" id="634" ID="30004055" /><text x="320.00" y="80.00" id="635">W-4NUU</text><rect Type="system" Region="长征" height="5.00" y="200.00" Name="欧泊切" width="5.00" x="550.00" id="637" ID="30001435" /><text x="550.00" y="200.00" id="638">欧泊切</text><rect Type="system" Region="宁静之域" height="5.00" y="690.00" Name="阿尔达然特" width="5.00" x="780.00" id="640" ID="30003837" /><text x="780.00" y="690.00" id="641">阿尔达然特</text><rect Type="system" Region="长征" height="5.00" y="250.00" Name="皮亚卡" width="5.00" x="890.00" id="643" ID="30001403" /><text x="890.00" y="250.00" id="644">皮亚卡</text><rect Type="system" Region="宁静之域" height="5.00" y="50.00" Name="奥伊瑟克斯" width="5.00" x="950.00" id="646" ID="30003838" /><text x="950.00" y="50.00" id="647">奥伊瑟克斯</text><line x2="140.00" style="fill:blue;stroke:blue;" y1="550.00" x1="90.00" id="649" y2="500.00" /><line x2="240.00" style="fill:blue;stroke:blue;" y1="500.00" x1="140.00" id="650" y2="500.00" /><line x2="190.00" style="fill:blue;stroke:blue;" y1="500.00" x1="140.00" id="651" y2="430.00" /><line x2="190.00" style="fill:blue;stroke:blue;" y1="500.00" x1="140.00" id="652" y2="550.00" /><line x2="90.00" style="fill:blue;stroke:blue;" y1="500.00" x1="140.00" id="653" y2="550.00" /><line x2="50.00" style="fill:blue;stroke:blue;" y1="20.00" x1="120.00" id="654" y2="20.00" /><line x2="200.00" style="fill:blue;stroke:blue;" y1="20.00" x1="120.00" id="655" y2="20.00" /><line x2="190.00" style="fill:blue;stroke:blue;" y1="330.00" x1="190.00" id="656" y2="430.00" /><line x2="90.00" style="fill:blue;stroke:blue;" y1="430.00" x1="190.00" id="657" y2="430.00" /><line x2="240.00" style="fill:blue;stroke:blue;" y1="430.00" x1="190.00" id="658" y2="500.00" /><line x2="190.00" style="fill:blue;stroke:blue;" y1="430.00" x1="190.00" id="659" y2="330.00" /><line x2="140.00" style="fill:blue;stroke:blue;" y1="430.00" x1="190.00" id="660" y2="500.00" /><line x2="310.00" style="fill:blue;stroke:blue;" y1="430.00" x1="190.00" id="661" y2="400.00" /><line x2="190.00" style="fill:blue;stroke:blue;" y1="550.00" x1="190.00" id="662" y2="600.00" /><line x2="140.00" style="fill:blue;stroke:blue;" y1="550.00" x1="190.00" id="663" y2="500.00" /><line x2="340.00" style="fill:blue;stroke:blue;" y1="550.00" x1="190.00" id="664" y2="550.00" /><line x2="380.00" style="fill:blue;stroke:blue;" y1="20.00" x1="200.00" id="665" y2="20.00" /><line x2="120.00" style="fill:blue;stroke:blue;" y1="20.00" x1="200.00" id="666" y2="20.00" /><line x2="199.04" style="fill:blue;stroke:blue;" y1="20.00" x1="200.00" id="667" y2="121.91" /><line x2="200.00" style="fill:blue;stroke:blue;" y1="121.91" x1="199.04" id="668" y2="20.00" /><line x2="380.00" style="fill:blue;stroke:blue;" y1="121.91" x1="199.04" id="669" y2="120.00" /><line x2="220.96" style="fill:blue;stroke:blue;" y1="121.91" x1="199.04" id="670" y2="78.09" /><line x2="190.00" style="fill:blue;stroke:blue;" y1="500.00" x1="240.00" id="671" y2="430.00" /><line x2="140.00" style="fill:blue;stroke:blue;" y1="500.00" x1="240.00" id="672" y2="500.00" /><line x2="340.00" style="fill:blue;stroke:blue;" y1="500.00" x1="240.00" id="673" y2="550.00" /><line x2="280.00" style="fill:blue;stroke:blue;" y1="78.09" x1="220.96" id="674" y2="50.00" /><line x2="199.04" style="fill:blue;stroke:blue;" y1="78.09" x1="220.96" id="675" y2="121.91" /><line x2="390.00" style="fill:blue;stroke:blue;" y1="480.00" x1="290.00" id="676" y2="480.00" /><line x2="340.00" style="fill:blue;stroke:blue;" y1="480.00" x1="290.00" id="677" y2="550.00" /><line x2="310.00" style="fill:blue;stroke:blue;" y1="480.00" x1="290.00" id="678" y2="400.00" /><line x2="350.00" style="fill:blue;stroke:blue;" y1="400.00" x1="310.00" id="679" y2="300.00" /><line x2="190.00" style="fill:blue;stroke:blue;" y1="400.00" x1="310.00" id="680" y2="430.00" /><line x2="290.00" style="fill:blue;stroke:blue;" y1="400.00" x1="310.00" id="681" y2="480.00" /><line x2="320.00" style="fill:blue;stroke:blue;" y1="50.00" x1="280.00" id="682" y2="80.00" /><line x2="380.00" style="fill:blue;stroke:blue;" y1="50.00" x1="280.00" id="683" y2="20.00" /><line x2="220.96" style="fill:blue;stroke:blue;" y1="50.00" x1="280.00" id="684" y2="78.09" /><line x2="460.00" style="fill:blue;stroke:blue;" y1="550.00" x1="340.00" id="685" y2="590.00" /><line x2="240.00" style="fill:blue;stroke:blue;" y1="550.00" x1="340.00" id="686" y2="500.00" /><line x2="190.00" style="fill:blue;stroke:blue;" y1="550.00" x1="340.00" id="687" y2="550.00" /><line x2="290.00" style="fill:blue;stroke:blue;" y1="550.00" x1="340.00" id="688" y2="480.00" /><line x2="250.00" style="fill:blue;stroke:blue;" y1="250.00" x1="300.00" id="689" y2="200.00" /><line x2="350.00" style="fill:blue;stroke:blue;" y1="250.00" x1="300.00" id="690" y2="300.00" /><line x2="380.00" style="fill:blue;stroke:blue;" y1="250.00" x1="300.00" id="691" y2="230.00" /><line x2="450.00" style="fill:blue;stroke:blue;" y1="250.00" x1="300.00" id="692" y2="300.00" /><line x2="450.00" style="fill:blue;stroke:blue;" y1="300.00" x1="350.00" id="693" y2="300.00" /><line x2="300.00" style="fill:blue;stroke:blue;" y1="300.00" x1="350.00" id="694" y2="250.00" /><line x2="310.00" style="fill:blue;stroke:blue;" y1="300.00" x1="350.00" id="695" y2="400.00" /><line x2="290.00" style="fill:blue;stroke:blue;" y1="480.00" x1="390.00" id="696" y2="480.00" /><line x2="200.00" style="fill:blue;stroke:blue;" y1="20.00" x1="380.00" id="697" y2="20.00" /><line x2="280.00" style="fill:blue;stroke:blue;" y1="20.00" x1="380.00" id="698" y2="50.00" /><line x2="380.00" style="fill:blue;stroke:blue;" y1="20.00" x1="380.00" id="699" y2="120.00" /><line x2="450.00" style="fill:blue;stroke:blue;" y1="20.00" x1="380.00" id="700" y2="20.00" /><line x2="380.00" style="fill:blue;stroke:blue;" y1="120.00" x1="380.00" id="701" y2="20.00" /><line x2="199.04" style="fill:blue;stroke:blue;" y1="120.00" x1="380.00" id="702" y2="121.91" /><line x2="580.00" style="fill:blue;stroke:blue;" y1="120.00" x1="380.00" id="703" y2="50.00" /><line x2="450.00" style="fill:blue;stroke:blue;" y1="230.00" x1="380.00" id="704" y2="300.00" /><line x2="300.00" style="fill:blue;stroke:blue;" y1="230.00" x1="380.00" id="705" y2="250.00" /><line x2="400.00" style="fill:blue;stroke:blue;" y1="230.00" x1="380.00" id="706" y2="180.00" /><line x2="380.00" style="fill:blue;stroke:blue;" y1="180.00" x1="400.00" id="707" y2="230.00" /><line x2="380.00" style="fill:blue;stroke:blue;" y1="20.00" x1="450.00" id="708" y2="20.00" /><line x2="450.00" style="fill:blue;stroke:blue;" y1="250.00" x1="450.00" id="709" y2="300.00" /><line x2="520.00" style="fill:blue;stroke:blue;" y1="250.00" x1="450.00" id="710" y2="250.00" /><line x2="350.00" style="fill:blue;stroke:blue;" y1="300.00" x1="450.00" id="711" y2="300.00" /><line x2="380.00" style="fill:blue;stroke:blue;" y1="300.00" x1="450.00" id="712" y2="230.00" /><line x2="520.00" style="fill:blue;stroke:blue;" y1="300.00" x1="450.00" id="713" y2="250.00" /><line x2="300.00" style="fill:blue;stroke:blue;" y1="300.00" x1="450.00" id="714" y2="250.00" /><line x2="450.00" style="fill:blue;stroke:blue;" y1="300.00" x1="450.00" id="715" y2="250.00" /><line x2="520.00" style="fill:blue;stroke:blue;" y1="300.00" x1="450.00" id="716" y2="300.00" /><line x2="530.00" style="fill:blue;stroke:blue;" y1="590.00" x1="460.00" id="717" y2="510.00" /><line x2="530.00" style="fill:blue;stroke:blue;" y1="590.00" x1="460.00" id="718" y2="660.00" /><line x2="630.00" style="fill:blue;stroke:blue;" y1="590.00" x1="460.00" id="719" y2="610.00" /><line x2="340.00" style="fill:blue;stroke:blue;" y1="590.00" x1="460.00" id="720" y2="550.00" /><line x2="450.00" style="fill:blue;stroke:blue;" y1="250.00" x1="520.00" id="721" y2="300.00" /><line x2="450.00" style="fill:blue;stroke:blue;" y1="250.00" x1="520.00" id="722" y2="250.00" /><line x2="520.00" style="fill:blue;stroke:blue;" y1="250.00" x1="520.00" id="723" y2="300.00" /><line x2="650.00" style="fill:blue;stroke:blue;" y1="300.00" x1="520.00" id="724" y2="300.00" /><line x2="450.00" style="fill:blue;stroke:blue;" y1="300.00" x1="520.00" id="725" y2="300.00" /><line x2="520.00" style="fill:blue;stroke:blue;" y1="300.00" x1="520.00" id="726" y2="250.00" /><line x2="460.00" style="fill:blue;stroke:blue;" y1="660.00" x1="530.00" id="727" y2="590.00" /><line x2="630.00" style="fill:blue;stroke:blue;" y1="660.00" x1="530.00" id="728" y2="610.00" /><line x2="460.00" style="fill:blue;stroke:blue;" y1="510.00" x1="530.00" id="729" y2="590.00" /><line x2="630.00" style="fill:blue;stroke:blue;" y1="510.00" x1="530.00" id="730" y2="540.00" /><line x2="380.00" style="fill:blue;stroke:blue;" y1="50.00" x1="580.00" id="731" y2="120.00" /><line x2="720.00" style="fill:blue;stroke:blue;" y1="50.00" x1="580.00" id="732" y2="120.00" /><line x2="780.00" style="fill:blue;stroke:blue;" y1="50.00" x1="580.00" id="733" y2="80.00" /><line x2="580.00" style="fill:blue;stroke:blue;" y1="50.00" x1="580.00" id="734" y2="120.00" /><line x2="700.00" style="fill:blue;stroke:blue;" y1="50.00" x1="580.00" id="735" y2="50.00" /><line x2="650.00" style="fill:blue;stroke:blue;" y1="120.00" x1="580.00" id="736" y2="150.00" /><line x2="580.00" style="fill:blue;stroke:blue;" y1="120.00" x1="580.00" id="737" y2="50.00" /><line x2="710.00" style="fill:blue;stroke:blue;" y1="230.00" x1="660.00" id="738" y2="260.00" /><line x2="720.00" style="fill:blue;stroke:blue;" y1="230.00" x1="660.00" id="739" y2="180.00" /><line x2="550.00" style="fill:blue;stroke:blue;" y1="150.00" x1="650.00" id="740" y2="200.00" /><line x2="720.00" style="fill:blue;stroke:blue;" y1="150.00" x1="650.00" id="741" y2="120.00" /><line x2="580.00" style="fill:blue;stroke:blue;" y1="150.00" x1="650.00" id="742" y2="120.00" /><line x2="750.00" style="fill:blue;stroke:blue;" y1="300.00" x1="650.00" id="743" y2="350.00" /><line x2="710.00" style="fill:blue;stroke:blue;" y1="300.00" x1="650.00" id="744" y2="260.00" /><line x2="520.00" style="fill:blue;stroke:blue;" y1="300.00" x1="650.00" id="745" y2="300.00" /><line x2="640.00" style="fill:blue;stroke:blue;" y1="300.00" x1="650.00" id="746" y2="360.00" /><line x2="650.00" style="fill:blue;stroke:blue;" y1="360.00" x1="640.00" id="747" y2="300.00" /><line x2="780.00" style="fill:blue;stroke:blue;" y1="610.00" x1="630.00" id="748" y2="690.00" /><line x2="460.00" style="fill:blue;stroke:blue;" y1="610.00" x1="630.00" id="749" y2="590.00" /><line x2="630.00" style="fill:blue;stroke:blue;" y1="610.00" x1="630.00" id="750" y2="540.00" /><line x2="750.00" style="fill:blue;stroke:blue;" y1="610.00" x1="630.00" id="751" y2="550.00" /><line x2="530.00" style="fill:blue;stroke:blue;" y1="610.00" x1="630.00" id="752" y2="660.00" /><line x2="530.00" style="fill:blue;stroke:blue;" y1="540.00" x1="630.00" id="753" y2="510.00" /><line x2="750.00" style="fill:blue;stroke:blue;" y1="540.00" x1="630.00" id="754" y2="550.00" /><line x2="630.00" style="fill:blue;stroke:blue;" y1="540.00" x1="630.00" id="755" y2="610.00" /><line x2="950.00" style="fill:blue;stroke:blue;" y1="50.00" x1="700.00" id="756" y2="50.00" /><line x2="780.00" style="fill:blue;stroke:blue;" y1="50.00" x1="700.00" id="757" y2="80.00" /><line x2="580.00" style="fill:blue;stroke:blue;" y1="50.00" x1="700.00" id="758" y2="50.00" /><line x2="660.00" style="fill:blue;stroke:blue;" y1="180.00" x1="720.00" id="759" y2="230.00" /><line x2="810.00" style="fill:blue;stroke:blue;" y1="180.00" x1="720.00" id="760" y2="200.00" /><line x2="650.00" style="fill:blue;stroke:blue;" y1="260.00" x1="710.00" id="761" y2="300.00" /><line x2="660.00" style="fill:blue;stroke:blue;" y1="260.00" x1="710.00" id="762" y2="230.00" /><line x2="810.00" style="fill:blue;stroke:blue;" y1="260.00" x1="710.00" id="763" y2="200.00" /><line x2="650.00" style="fill:blue;stroke:blue;" y1="120.00" x1="720.00" id="764" y2="150.00" /><line x2="780.00" style="fill:blue;stroke:blue;" y1="120.00" x1="720.00" id="765" y2="80.00" /><line x2="580.00" style="fill:blue;stroke:blue;" y1="120.00" x1="720.00" id="766" y2="50.00" /><line x2="810.00" style="fill:blue;stroke:blue;" y1="120.00" x1="720.00" id="767" y2="200.00" /><line x2="650.00" style="fill:blue;stroke:blue;" y1="350.00" x1="750.00" id="768" y2="300.00" /><line x2="780.00" style="fill:blue;stroke:blue;" y1="350.00" x1="750.00" id="769" y2="300.00" /><line x2="630.00" style="fill:blue;stroke:blue;" y1="550.00" x1="750.00" id="770" y2="540.00" /><line x2="950.00" style="fill:blue;stroke:blue;" y1="550.00" x1="750.00" id="771" y2="460.00" /><line x2="630.00" style="fill:blue;stroke:blue;" y1="550.00" x1="750.00" id="772" y2="610.00" /><line x2="750.00" style="fill:blue;stroke:blue;" y1="300.00" x1="780.00" id="773" y2="350.00" /><line x2="810.00" style="fill:blue;stroke:blue;" y1="300.00" x1="780.00" id="774" y2="200.00" /><line x2="720.00" style="fill:blue;stroke:blue;" y1="80.00" x1="780.00" id="775" y2="120.00" /><line x2="580.00" style="fill:blue;stroke:blue;" y1="80.00" x1="780.00" id="776" y2="50.00" /><line x2="700.00" style="fill:blue;stroke:blue;" y1="80.00" x1="780.00" id="777" y2="50.00" /><line x2="950.00" style="fill:blue;stroke:blue;" y1="80.00" x1="780.00" id="778" y2="120.00" /><line x2="890.00" style="fill:blue;stroke:blue;" y1="200.00" x1="810.00" id="779" y2="250.00" /><line x2="720.00" style="fill:blue;stroke:blue;" y1="200.00" x1="810.00" id="780" y2="120.00" /><line x2="780.00" style="fill:blue;stroke:blue;" y1="200.00" x1="810.00" id="781" y2="300.00" /><line x2="710.00" style="fill:blue;stroke:blue;" y1="200.00" x1="810.00" id="782" y2="260.00" /><line x2="720.00" style="fill:blue;stroke:blue;" y1="200.00" x1="810.00" id="783" y2="180.00" /><line x2="950.00" style="fill:blue;stroke:blue;" y1="460.00" x1="950.00" id="784" y2="120.00" /><line x2="750.00" style="fill:blue;stroke:blue;" y1="460.00" x1="950.00" id="785" y2="550.00" /><line x2="780.00" style="fill:blue;stroke:blue;" y1="120.00" x1="950.00" id="786" y2="80.00" /><line x2="950.00" style="fill:blue;stroke:blue;" y1="120.00" x1="950.00" id="787" y2="460.00" /><line x2="120.00" style="fill:blue;stroke:blue;" y1="20.00" x1="50.00" id="788" y2="20.00" /><line x2="190.00" style="fill:blue;stroke:blue;" y1="430.00" x1="90.00" id="789" y2="430.00" /><line x2="190.00" style="fill:blue;stroke:blue;" y1="600.00" x1="190.00" id="790" y2="550.00" /><line x2="300.00" style="fill:blue;stroke:blue;" y1="200.00" x1="250.00" id="791" y2="250.00" /><line x2="280.00" style="fill:blue;stroke:blue;" y1="80.00" x1="320.00" id="792" y2="50.00" /><line x2="650.00" style="fill:blue;stroke:blue;" y1="200.00" x1="550.00" id="793" y2="150.00" /><line x2="630.00" style="fill:blue;stroke:blue;" y1="690.00" x1="780.00" id="794" y2="610.00" /><line x2="810.00" style="fill:blue;stroke:blue;" y1="250.00" x1="890.00" id="795" y2="200.00" /><line x2="700.00" style="fill:blue;stroke:blue;" y1="50.00" x1="950.00" id="796" y2="50.00" /></svg>
