<?xml version="1.0" standalone="yes"?><!DOCTYPE svg PUBLIC "-//W3C//DTD SVG 1.1//EN" "http://www.w3.org/Graphics/SVG/1.1/DTD/svg11.dtd"[]><svg width="1050.00" height="800.00" id="477" xmlns="http://www.w3.org/2000/svg" xmlns:xlink="http://www.w3.org/1999/xlink"><rect Type="system" x="90.00" id="478" height="5.00" width="5.00" Name="诺托拉斯" ID="30045348" Region="暗涌之域" y="550.00" /><text y="550.00" x="90.00" id="479">诺托拉斯</text><rect Type="system" x="140.00" id="481" height="5.00" width="5.00" Name="尼苏瓦" ID="30045352" Region="暗涌之域" y="500.00" /><text y="500.00" x="140.00" id="482">尼苏瓦</text><rect Type="system" x="120.00" id="484" height="5.00" width="5.00" Name="撒勒尼米" ID="30045310" Region="暗涌之域" y="20.00" /><text y="20.00" x="120.00" id="485">撒勒尼米</text><rect Type="system" x="190.00" id="487" height="5.00" width="5.00" Name="忒蒙" ID="30045350" Region="暗涌之域" y="330.00" /><text y="330.00" x="190.00" id="488">忒蒙</text><rect Type="system" x="190.00" id="490" height="5.00" width="5.00" Name="柯达玛" ID="30045346" Region="暗涌之域" y="430.00" /><text y="430.00" x="190.00" id="491">柯达玛</text><rect Type="system" x="190.00" id="493" height="5.00" width="5.00" Name="欧纳斯肯" ID="30045347" Region="暗涌之域" y="550.00" /><text y="550.00" x="190.00" id="494">欧纳斯肯</text><rect Type="system" x="200.00" id="496" height="5.00" width="5.00" Name="西卡尼亚" ID="30045306" Region="暗涌之域" y="20.00" /><text y="20.00" x="200.00" id="497">西卡尼亚</text><rect Type="system" x="199.04" id="499" height="5.00" width="5.00" Name="埃希策" ID="30045311" Region="暗涌之域" y="121.91" /><text y="121.91" x="199.04" id="500">埃希策</text><rect Type="system" x="240.00" id="502" height="5.00" width="5.00" Name="荷利" ID="30045345" Region="暗涌之域" y="500.00" /><text y="500.00" x="240.00" id="503">荷利</text><rect Type="system" x="220.96" id="505" height="5.00" width="5.00" Name="伊那卡蒙" ID="30045313" Region="暗涌之域" y="78.09" /><text y="78.09" x="220.96" id="506">伊那卡蒙</text><rect Type="system" x="290.00" id="508" height="5.00" width="5.00" Name="拉卡帕斯" ID="30045349" Region="暗涌之域" y="480.00" /><text y="480.00" x="290.00" id="509">拉卡帕斯</text><rect Type="system" x="310.00" id="511" height="5.00" width="5.00" Name="雷苏多" ID="30045354" Region="暗涌之域" y="400.00" /><text y="400.00" x="310.00" id="512">雷苏多</text><rect Type="system" x="280.00" id="514" height="5.00" width="5.00" Name="欧卡伽肯" ID="30045307" Region="暗涌之域" y="50.00" /><text y="50.00" x="280.00" id="515">欧卡伽肯</text><rect Type="system" x="340.00" id="517" height="5.00" width="5.00" Name="派尼佳斯托" ID="30045353" Region="暗涌之域" y="550.00" /><text y="550.00" x="340.00" id="518">派尼佳斯托</text><rect Type="system" x="300.00" id="520" height="5.00" width="5.00" Name="姆什克基" ID="30045334" Region="暗涌之域" y="250.00" /><text y="250.00" x="300.00" id="521">姆什克基</text><rect Type="system" x="350.00" id="523" height="5.00" width="5.00" Name="奥卡蒙" ID="30045330" Region="暗涌之域" y="300.00" /><text y="300.00" x="350.00" id="524">奥卡蒙</text><rect Type="system" x="390.00" id="526" height="5.00" width="5.00" Name="伊维苏达" ID="30045351" Region="暗涌之域" y="480.00" /><text y="480.00" x="390.00" id="527">伊维苏达</text><rect Type="system" x="380.00" id="529" height="5.00" width="5.00" Name="维拉森" ID="30045309" Region="暗涌之域" y="20.00" /><text y="20.00" x="380.00" id="530">维拉森</text><rect Type="system" x="380.00" id="532" height="5.00" width="5.00" Name="克加里" ID="30045308" Region="暗涌之域" y="120.00" /><text y="120.00" x="380.00" id="533">克加里</text><rect Type="system" x="380.00" id="535" height="5.00" width="5.00" Name="瓦拉冷" ID="30045331" Region="暗涌之域" y="230.00" /><text y="230.00" x="380.00" id="536">瓦拉冷</text><rect Type="system" x="400.00" id="538" height="5.00" width="5.00" Name="特斯坎能" ID="30045335" Region="暗涌之域" y="180.00" /><text y="180.00" x="400.00" id="539">特斯坎能</text><rect Type="system" x="450.00" id="541" height="5.00" width="5.00" Name="科拉森" ID="30045312" Region="暗涌之域" y="20.00" /><text y="20.00" x="450.00" id="542">科拉森</text><rect Type="system" x="450.00" id="544" height="5.00" width="5.00" Name="伊伦娜拉" ID="30045336" Region="暗涌之域" y="250.00" /><text y="250.00" x="450.00" id="545">伊伦娜拉</text><rect Type="system" x="450.00" id="547" height="5.00" width="5.00" Name="艾萨凯" ID="30045332" Region="暗涌之域" y="300.00" /><text y="300.00" x="450.00" id="548">艾萨凯</text><rect Type="system" x="460.00" id="550" height="5.00" width="5.00" Name="希克肯" ID="30045338" Region="暗涌之域" y="590.00" /><text y="590.00" x="460.00" id="551">希克肯</text><rect Type="system" x="520.00" id="553" height="5.00" width="5.00" Name="普利斯姆" ID="30045333" Region="暗涌之域" y="250.00" /><text y="250.00" x="520.00" id="554">普利斯姆</text><rect Type="system" x="520.00" id="556" height="5.00" width="5.00" Name="伊克斯加" ID="30045337" Region="暗涌之域" y="300.00" /><text y="300.00" x="520.00" id="557">伊克斯加</text><rect Type="system" x="530.00" id="559" height="5.00" width="5.00" Name="伊姆利" ID="30045343" Region="暗涌之域" y="660.00" /><text y="660.00" x="530.00" id="560">伊姆利</text><rect Type="system" x="530.00" id="562" height="5.00" width="5.00" Name="哈尔那能" ID="30045341" Region="暗涌之域" y="510.00" /><text y="510.00" x="530.00" id="563">哈尔那能</text><rect Type="system" x="580.00" id="565" height="5.00" width="5.00" Name="马尔托" ID="30045318" Region="暗涌之域" y="50.00" /><text y="50.00" x="580.00" id="566">马尔托</text><rect Type="system" x="580.00" id="568" height="5.00" width="5.00" Name="依拉勒贾" ID="30045317" Region="暗涌之域" y="120.00" /><text y="120.00" x="580.00" id="569">依拉勒贾</text><rect Type="system" x="660.00" id="571" height="5.00" width="5.00" Name="阿希多" ID="30045323" Region="暗涌之域" y="230.00" /><text y="230.00" x="660.00" id="572">阿希多</text><rect Type="system" x="650.00" id="574" height="5.00" width="5.00" Name="莱贝卡" ID="30045315" Region="暗涌之域" y="150.00" /><text y="150.00" x="650.00" id="575">莱贝卡</text><rect Type="system" x="650.00" id="577" height="5.00" width="5.00" Name="萨马奴尼" ID="30045322" Region="暗涌之域" y="300.00" /><text y="300.00" x="650.00" id="578">萨马奴尼</text><rect Type="system" x="640.00" id="580" height="5.00" width="5.00" Name="埃托伦" ID="30003856" Region="宁静之域" y="360.00" /><text y="360.00" x="640.00" id="581">埃托伦</text><rect Type="system" x="630.00" id="583" height="5.00" width="5.00" Name="涅娜麦拉" ID="30045344" Region="暗涌之域" y="610.00" /><text y="610.00" x="630.00" id="584">涅娜麦拉</text><rect Type="system" x="630.00" id="586" height="5.00" width="5.00" Name="伊娜鲁瑞" ID="30045339" Region="暗涌之域" y="540.00" /><text y="540.00" x="630.00" id="587">伊娜鲁瑞</text><rect Type="system" x="700.00" id="589" height="5.00" width="5.00" Name="伊哈" ID="30045319" Region="暗涌之域" y="50.00" /><text y="50.00" x="700.00" id="590">伊哈</text><rect Type="system" x="720.00" id="592" height="5.00" width="5.00" Name="斯拉马" ID="30045327" Region="暗涌之域" y="180.00" /><text y="180.00" x="720.00" id="593">斯拉马</text><rect Type="system" x="710.00" id="595" height="5.00" width="5.00" Name="乌呼拉能" ID="30045326" Region="暗涌之域" y="260.00" /><text y="260.00" x="710.00" id="596">乌呼拉能</text><rect Type="system" x="720.00" id="598" height="5.00" width="5.00" Name="吉纳卡" ID="30045314" Region="暗涌之域" y="120.00" /><text y="120.00" x="720.00" id="599">吉纳卡</text><rect Type="system" x="750.00" id="601" height="5.00" width="5.00" Name="乌科米达" ID="30045321" Region="暗涌之域" y="350.00" /><text y="350.00" x="750.00" id="602">乌科米达</text><rect Type="system" x="750.00" id="604" height="5.00" width="5.00" Name="阿基达戈" ID="30045342" Region="暗涌之域" y="550.00" /><text y="550.00" x="750.00" id="605">阿基达戈</text><rect Type="system" x="780.00" id="607" height="5.00" width="5.00" Name="罗哈马" ID="30045325" Region="暗涌之域" y="300.00" /><text y="300.00" x="780.00" id="608">罗哈马</text><rect Type="system" x="780.00" id="610" height="5.00" width="5.00" Name="因尼亚" ID="30045316" Region="暗涌之域" y="80.00" /><text y="80.00" x="780.00" id="611">因尼亚</text><rect Type="system" x="810.00" id="613" height="5.00" width="5.00" Name="欧拿蒙" ID="30045324" Region="暗涌之域" y="200.00" /><text y="200.00" x="810.00" id="614">欧拿蒙</text><rect Type="system" x="950.00" id="616" height="5.00" width="5.00" Name="艾沃能" ID="30045340" Region="暗涌之域" y="460.00" /><text y="460.00" x="950.00" id="617">艾沃能</text><rect Type="system" x="950.00" id="619" height="5.00" width="5.00" Name="帕瓦纳卡" ID="30045320" Region="暗涌之域" y="120.00" /><text y="120.00" x="950.00" id="620">帕瓦纳卡</text><rect Type="system" x="50.00" id="622" height="5.00" width="5.00" Name="卡尔加塔伊蒙" ID="30001440" Region="长征" y="20.00" /><text y="20.00" x="50.00" id="623">卡尔加塔伊蒙</text><rect Type="system" x="90.00" id="625" height="5.00" width="5.00" Name="塔玛" ID="30002813" Region="赛塔德洱" y="430.00" /><text y="430.00" x="90.00" id="626">塔玛</text><rect Type="system" x="190.00" id="628" height="5.00" width="5.00" Name="埃布尼" ID="30004984" Region="精华之域" y="600.00" /><text y="600.00" x="190.00" id="629">埃布尼</text><rect Type="system" x="250.00" id="631" height="5.00" width="5.00" Name="曼贾纳克" ID="30002760" Region="赛塔德洱" y="200.00" /><text y="200.00" x="250.00" id="632">曼贾纳克</text><rect Type="system" x="320.00" id="634" height="5.00" width="5.00" Name="W-4NUU" ID="30004055" Region="云环" y="80.00" /><text y="80.00" x="320.00" id="635">W-4NUU</text><rect Type="system" x="550.00" id="637" height="5.00" width="5.00" Name="欧泊切" ID="30001435" Region="长征" y="200.00" /><text y="200.00" x="550.00" id="638">欧泊切</text><rect Type="system" x="780.00" id="640" height="5.00" width="5.00" Name="阿尔达然特" ID="30003837" Region="宁静之域" y="690.00" /><text y="690.00" x="780.00" id="641">阿尔达然特</text><rect Type="system" x="890.00" id="643" height="5.00" width="5.00" Name="皮亚卡" ID="30001403" Region="长征" y="250.00" /><text y="250.00" x="890.00" id="644">皮亚卡</text><rect Type="system" x="950.00" id="646" height="5.00" width="5.00" Name="奥伊瑟克斯" ID="30003838" Region="宁静之域" y="50.00" /><text y="50.00" x="950.00" id="647">奥伊瑟克斯</text><line style="stroke:blue;fill:blue;" id="649" x2="140.00" x1="90.00" y1="550.00" y2="500.00" /><line style="stroke:blue;fill:blue;" id="650" x2="240.00" x1="140.00" y1="500.00" y2="500.00" /><line style="stroke:blue;fill:blue;" id="651" x2="190.00" x1="140.00" y1="500.00" y2="430.00" /><line style="stroke:blue;fill:blue;" id="652" x2="190.00" x1="140.00" y1="500.00" y2="550.00" /><line style="stroke:blue;fill:blue;" id="653" x2="90.00" x1="140.00" y1="500.00" y2="550.00" /><line style="stroke:blue;fill:blue;" id="654" x2="50.00" x1="120.00" y1="20.00" y2="20.00" /><line style="stroke:blue;fill:blue;" id="655" x2="200.00" x1="120.00" y1="20.00" y2="20.00" /><line style="stroke:blue;fill:blue;" id="656" x2="190.00" x1="190.00" y1="330.00" y2="430.00" /><line style="stroke:blue;fill:blue;" id="657" x2="90.00" x1="190.00" y1="430.00" y2="430.00" /><line style="stroke:blue;fill:blue;" id="658" x2="240.00" x1="190.00" y1="430.00" y2="500.00" /><line style="stroke:blue;fill:blue;" id="659" x2="190.00" x1="190.00" y1="430.00" y2="330.00" /><line style="stroke:blue;fill:blue;" id="660" x2="140.00" x1="190.00" y1="430.00" y2="500.00" /><line style="stroke:blue;fill:blue;" id="661" x2="310.00" x1="190.00" y1="430.00" y2="400.00" /><line style="stroke:blue;fill:blue;" id="662" x2="190.00" x1="190.00" y1="550.00" y2="600.00" /><line style="stroke:blue;fill:blue;" id="663" x2="140.00" x1="190.00" y1="550.00" y2="500.00" /><line style="stroke:blue;fill:blue;" id="664" x2="340.00" x1="190.00" y1="550.00" y2="550.00" /><line style="stroke:blue;fill:blue;" id="665" x2="380.00" x1="200.00" y1="20.00" y2="20.00" /><line style="stroke:blue;fill:blue;" id="666" x2="120.00" x1="200.00" y1="20.00" y2="20.00" /><line style="stroke:blue;fill:blue;" id="667" x2="199.04" x1="200.00" y1="20.00" y2="121.91" /><line style="stroke:blue;fill:blue;" id="668" x2="200.00" x1="199.04" y1="121.91" y2="20.00" /><line style="stroke:blue;fill:blue;" id="669" x2="380.00" x1="199.04" y1="121.91" y2="120.00" /><line style="stroke:blue;fill:blue;" id="670" x2="220.96" x1="199.04" y1="121.91" y2="78.09" /><line style="stroke:blue;fill:blue;" id="671" x2="190.00" x1="240.00" y1="500.00" y2="430.00" /><line style="stroke:blue;fill:blue;" id="672" x2="140.00" x1="240.00" y1="500.00" y2="500.00" /><line style="stroke:blue;fill:blue;" id="673" x2="340.00" x1="240.00" y1="500.00" y2="550.00" /><line style="stroke:blue;fill:blue;" id="674" x2="280.00" x1="220.96" y1="78.09" y2="50.00" /><line style="stroke:blue;fill:blue;" id="675" x2="199.04" x1="220.96" y1="78.09" y2="121.91" /><line style="stroke:blue;fill:blue;" id="676" x2="390.00" x1="290.00" y1="480.00" y2="480.00" /><line style="stroke:blue;fill:blue;" id="677" x2="340.00" x1="290.00" y1="480.00" y2="550.00" /><line style="stroke:blue;fill:blue;" id="678" x2="310.00" x1="290.00" y1="480.00" y2="400.00" /><line style="stroke:blue;fill:blue;" id="679" x2="350.00" x1="310.00" y1="400.00" y2="300.00" /><line style="stroke:blue;fill:blue;" id="680" x2="190.00" x1="310.00" y1="400.00" y2="430.00" /><line style="stroke:blue;fill:blue;" id="681" x2="290.00" x1="310.00" y1="400.00" y2="480.00" /><line style="stroke:blue;fill:blue;" id="682" x2="320.00" x1="280.00" y1="50.00" y2="80.00" /><line style="stroke:blue;fill:blue;" id="683" x2="380.00" x1="280.00" y1="50.00" y2="20.00" /><line style="stroke:blue;fill:blue;" id="684" x2="220.96" x1="280.00" y1="50.00" y2="78.09" /><line style="stroke:blue;fill:blue;" id="685" x2="460.00" x1="340.00" y1="550.00" y2="590.00" /><line style="stroke:blue;fill:blue;" id="686" x2="240.00" x1="340.00" y1="550.00" y2="500.00" /><line style="stroke:blue;fill:blue;" id="687" x2="190.00" x1="340.00" y1="550.00" y2="550.00" /><line style="stroke:blue;fill:blue;" id="688" x2="290.00" x1="340.00" y1="550.00" y2="480.00" /><line style="stroke:blue;fill:blue;" id="689" x2="250.00" x1="300.00" y1="250.00" y2="200.00" /><line style="stroke:blue;fill:blue;" id="690" x2="350.00" x1="300.00" y1="250.00" y2="300.00" /><line style="stroke:blue;fill:blue;" id="691" x2="380.00" x1="300.00" y1="250.00" y2="230.00" /><line style="stroke:blue;fill:blue;" id="692" x2="450.00" x1="300.00" y1="250.00" y2="300.00" /><line style="stroke:blue;fill:blue;" id="693" x2="450.00" x1="350.00" y1="300.00" y2="300.00" /><line style="stroke:blue;fill:blue;" id="694" x2="300.00" x1="350.00" y1="300.00" y2="250.00" /><line style="stroke:blue;fill:blue;" id="695" x2="310.00" x1="350.00" y1="300.00" y2="400.00" /><line style="stroke:blue;fill:blue;" id="696" x2="290.00" x1="390.00" y1="480.00" y2="480.00" /><line style="stroke:blue;fill:blue;" id="697" x2="200.00" x1="380.00" y1="20.00" y2="20.00" /><line style="stroke:blue;fill:blue;" id="698" x2="280.00" x1="380.00" y1="20.00" y2="50.00" /><line style="stroke:blue;fill:blue;" id="699" x2="380.00" x1="380.00" y1="20.00" y2="120.00" /><line style="stroke:blue;fill:blue;" id="700" x2="450.00" x1="380.00" y1="20.00" y2="20.00" /><line style="stroke:blue;fill:blue;" id="701" x2="380.00" x1="380.00" y1="120.00" y2="20.00" /><line style="stroke:blue;fill:blue;" id="702" x2="199.04" x1="380.00" y1="120.00" y2="121.91" /><line style="stroke:blue;fill:blue;" id="703" x2="580.00" x1="380.00" y1="120.00" y2="50.00" /><line style="stroke:blue;fill:blue;" id="704" x2="450.00" x1="380.00" y1="230.00" y2="300.00" /><line style="stroke:blue;fill:blue;" id="705" x2="300.00" x1="380.00" y1="230.00" y2="250.00" /><line style="stroke:blue;fill:blue;" id="706" x2="400.00" x1="380.00" y1="230.00" y2="180.00" /><line style="stroke:blue;fill:blue;" id="707" x2="380.00" x1="400.00" y1="180.00" y2="230.00" /><line style="stroke:blue;fill:blue;" id="708" x2="380.00" x1="450.00" y1="20.00" y2="20.00" /><line style="stroke:blue;fill:blue;" id="709" x2="450.00" x1="450.00" y1="250.00" y2="300.00" /><line style="stroke:blue;fill:blue;" id="710" x2="520.00" x1="450.00" y1="250.00" y2="250.00" /><line style="stroke:blue;fill:blue;" id="711" x2="350.00" x1="450.00" y1="300.00" y2="300.00" /><line style="stroke:blue;fill:blue;" id="712" x2="380.00" x1="450.00" y1="300.00" y2="230.00" /><line style="stroke:blue;fill:blue;" id="713" x2="520.00" x1="450.00" y1="300.00" y2="250.00" /><line style="stroke:blue;fill:blue;" id="714" x2="300.00" x1="450.00" y1="300.00" y2="250.00" /><line style="stroke:blue;fill:blue;" id="715" x2="450.00" x1="450.00" y1="300.00" y2="250.00" /><line style="stroke:blue;fill:blue;" id="716" x2="520.00" x1="450.00" y1="300.00" y2="300.00" /><line style="stroke:blue;fill:blue;" id="717" x2="530.00" x1="460.00" y1="590.00" y2="510.00" /><line style="stroke:blue;fill:blue;" id="718" x2="530.00" x1="460.00" y1="590.00" y2="660.00" /><line style="stroke:blue;fill:blue;" id="719" x2="630.00" x1="460.00" y1="590.00" y2="610.00" /><line style="stroke:blue;fill:blue;" id="720" x2="340.00" x1="460.00" y1="590.00" y2="550.00" /><line style="stroke:blue;fill:blue;" id="721" x2="450.00" x1="520.00" y1="250.00" y2="300.00" /><line style="stroke:blue;fill:blue;" id="722" x2="450.00" x1="520.00" y1="250.00" y2="250.00" /><line style="stroke:blue;fill:blue;" id="723" x2="520.00" x1="520.00" y1="250.00" y2="300.00" /><line style="stroke:blue;fill:blue;" id="724" x2="650.00" x1="520.00" y1="300.00" y2="300.00" /><line style="stroke:blue;fill:blue;" id="725" x2="450.00" x1="520.00" y1="300.00" y2="300.00" /><line style="stroke:blue;fill:blue;" id="726" x2="520.00" x1="520.00" y1="300.00" y2="250.00" /><line style="stroke:blue;fill:blue;" id="727" x2="460.00" x1="530.00" y1="660.00" y2="590.00" /><line style="stroke:blue;fill:blue;" id="728" x2="630.00" x1="530.00" y1="660.00" y2="610.00" /><line style="stroke:blue;fill:blue;" id="729" x2="460.00" x1="530.00" y1="510.00" y2="590.00" /><line style="stroke:blue;fill:blue;" id="730" x2="630.00" x1="530.00" y1="510.00" y2="540.00" /><line style="stroke:blue;fill:blue;" id="731" x2="380.00" x1="580.00" y1="50.00" y2="120.00" /><line style="stroke:blue;fill:blue;" id="732" x2="720.00" x1="580.00" y1="50.00" y2="120.00" /><line style="stroke:blue;fill:blue;" id="733" x2="780.00" x1="580.00" y1="50.00" y2="80.00" /><line style="stroke:blue;fill:blue;" id="734" x2="580.00" x1="580.00" y1="50.00" y2="120.00" /><line style="stroke:blue;fill:blue;" id="735" x2="700.00" x1="580.00" y1="50.00" y2="50.00" /><line style="stroke:blue;fill:blue;" id="736" x2="650.00" x1="580.00" y1="120.00" y2="150.00" /><line style="stroke:blue;fill:blue;" id="737" x2="580.00" x1="580.00" y1="120.00" y2="50.00" /><line style="stroke:blue;fill:blue;" id="738" x2="710.00" x1="660.00" y1="230.00" y2="260.00" /><line style="stroke:blue;fill:blue;" id="739" x2="720.00" x1="660.00" y1="230.00" y2="180.00" /><line style="stroke:blue;fill:blue;" id="740" x2="550.00" x1="650.00" y1="150.00" y2="200.00" /><line style="stroke:blue;fill:blue;" id="741" x2="720.00" x1="650.00" y1="150.00" y2="120.00" /><line style="stroke:blue;fill:blue;" id="742" x2="580.00" x1="650.00" y1="150.00" y2="120.00" /><line style="stroke:blue;fill:blue;" id="743" x2="750.00" x1="650.00" y1="300.00" y2="350.00" /><line style="stroke:blue;fill:blue;" id="744" x2="710.00" x1="650.00" y1="300.00" y2="260.00" /><line style="stroke:blue;fill:blue;" id="745" x2="520.00" x1="650.00" y1="300.00" y2="300.00" /><line style="stroke:blue;fill:blue;" id="746" x2="640.00" x1="650.00" y1="300.00" y2="360.00" /><line style="stroke:blue;fill:blue;" id="747" x2="650.00" x1="640.00" y1="360.00" y2="300.00" /><line style="stroke:blue;fill:blue;" id="748" x2="780.00" x1="630.00" y1="610.00" y2="690.00" /><line style="stroke:blue;fill:blue;" id="749" x2="460.00" x1="630.00" y1="610.00" y2="590.00" /><line style="stroke:blue;fill:blue;" id="750" x2="630.00" x1="630.00" y1="610.00" y2="540.00" /><line style="stroke:blue;fill:blue;" id="751" x2="750.00" x1="630.00" y1="610.00" y2="550.00" /><line style="stroke:blue;fill:blue;" id="752" x2="530.00" x1="630.00" y1="610.00" y2="660.00" /><line style="stroke:blue;fill:blue;" id="753" x2="530.00" x1="630.00" y1="540.00" y2="510.00" /><line style="stroke:blue;fill:blue;" id="754" x2="750.00" x1="630.00" y1="540.00" y2="550.00" /><line style="stroke:blue;fill:blue;" id="755" x2="630.00" x1="630.00" y1="540.00" y2="610.00" /><line style="stroke:blue;fill:blue;" id="756" x2="950.00" x1="700.00" y1="50.00" y2="50.00" /><line style="stroke:blue;fill:blue;" id="757" x2="780.00" x1="700.00" y1="50.00" y2="80.00" /><line style="stroke:blue;fill:blue;" id="758" x2="580.00" x1="700.00" y1="50.00" y2="50.00" /><line style="stroke:blue;fill:blue;" id="759" x2="660.00" x1="720.00" y1="180.00" y2="230.00" /><line style="stroke:blue;fill:blue;" id="760" x2="810.00" x1="720.00" y1="180.00" y2="200.00" /><line style="stroke:blue;fill:blue;" id="761" x2="650.00" x1="710.00" y1="260.00" y2="300.00" /><line style="stroke:blue;fill:blue;" id="762" x2="660.00" x1="710.00" y1="260.00" y2="230.00" /><line style="stroke:blue;fill:blue;" id="763" x2="810.00" x1="710.00" y1="260.00" y2="200.00" /><line style="stroke:blue;fill:blue;" id="764" x2="650.00" x1="720.00" y1="120.00" y2="150.00" /><line style="stroke:blue;fill:blue;" id="765" x2="780.00" x1="720.00" y1="120.00" y2="80.00" /><line style="stroke:blue;fill:blue;" id="766" x2="580.00" x1="720.00" y1="120.00" y2="50.00" /><line style="stroke:blue;fill:blue;" id="767" x2="810.00" x1="720.00" y1="120.00" y2="200.00" /><line style="stroke:blue;fill:blue;" id="768" x2="650.00" x1="750.00" y1="350.00" y2="300.00" /><line style="stroke:blue;fill:blue;" id="769" x2="780.00" x1="750.00" y1="350.00" y2="300.00" /><line style="stroke:blue;fill:blue;" id="770" x2="630.00" x1="750.00" y1="550.00" y2="540.00" /><line style="stroke:blue;fill:blue;" id="771" x2="950.00" x1="750.00" y1="550.00" y2="460.00" /><line style="stroke:blue;fill:blue;" id="772" x2="630.00" x1="750.00" y1="550.00" y2="610.00" /><line style="stroke:blue;fill:blue;" id="773" x2="750.00" x1="780.00" y1="300.00" y2="350.00" /><line style="stroke:blue;fill:blue;" id="774" x2="810.00" x1="780.00" y1="300.00" y2="200.00" /><line style="stroke:blue;fill:blue;" id="775" x2="720.00" x1="780.00" y1="80.00" y2="120.00" /><line style="stroke:blue;fill:blue;" id="776" x2="580.00" x1="780.00" y1="80.00" y2="50.00" /><line style="stroke:blue;fill:blue;" id="777" x2="700.00" x1="780.00" y1="80.00" y2="50.00" /><line style="stroke:blue;fill:blue;" id="778" x2="950.00" x1="780.00" y1="80.00" y2="120.00" /><line style="stroke:blue;fill:blue;" id="779" x2="890.00" x1="810.00" y1="200.00" y2="250.00" /><line style="stroke:blue;fill:blue;" id="780" x2="720.00" x1="810.00" y1="200.00" y2="120.00" /><line style="stroke:blue;fill:blue;" id="781" x2="780.00" x1="810.00" y1="200.00" y2="300.00" /><line style="stroke:blue;fill:blue;" id="782" x2="710.00" x1="810.00" y1="200.00" y2="260.00" /><line style="stroke:blue;fill:blue;" id="783" x2="720.00" x1="810.00" y1="200.00" y2="180.00" /><line style="stroke:blue;fill:blue;" id="784" x2="950.00" x1="950.00" y1="460.00" y2="120.00" /><line style="stroke:blue;fill:blue;" id="785" x2="750.00" x1="950.00" y1="460.00" y2="550.00" /><line style="stroke:blue;fill:blue;" id="786" x2="780.00" x1="950.00" y1="120.00" y2="80.00" /><line style="stroke:blue;fill:blue;" id="787" x2="950.00" x1="950.00" y1="120.00" y2="460.00" /><line style="stroke:blue;fill:blue;" id="788" x2="120.00" x1="50.00" y1="20.00" y2="20.00" /><line style="stroke:blue;fill:blue;" id="789" x2="190.00" x1="90.00" y1="430.00" y2="430.00" /><line style="stroke:blue;fill:blue;" id="790" x2="190.00" x1="190.00" y1="600.00" y2="550.00" /><line style="stroke:blue;fill:blue;" id="791" x2="300.00" x1="250.00" y1="200.00" y2="250.00" /><line style="stroke:blue;fill:blue;" id="792" x2="280.00" x1="320.00" y1="80.00" y2="50.00" /><line style="stroke:blue;fill:blue;" id="793" x2="650.00" x1="550.00" y1="200.00" y2="150.00" /><line style="stroke:blue;fill:blue;" id="794" x2="630.00" x1="780.00" y1="690.00" y2="610.00" /><line style="stroke:blue;fill:blue;" id="795" x2="810.00" x1="890.00" y1="250.00" y2="200.00" /><line style="stroke:blue;fill:blue;" id="796" x2="700.00" x1="950.00" y1="50.00" y2="50.00" /></svg>
