<?xml version="1.0" standalone="yes"?><!DOCTYPE svg PUBLIC "-//W3C//DTD SVG 1.1//EN" "http://www.w3.org/Graphics/SVG/1.1/DTD/svg11.dtd"[]><svg width="1050.00" height="800.00" id="17372" xmlns="http://www.w3.org/2000/svg" xmlns:xlink="http://www.w3.org/1999/xlink"><rect Type="system" x="60.00" id="17373" height="5.00" width="5.00" Name="埃巴特" ID="30005062" Region="柯埃佐" y="720.00" /><text y="720.00" x="60.00" id="17374">埃巴特</text><rect Type="system" x="40.00" id="17376" height="5.00" width="5.00" Name="欧尔迪恩" ID="30005060" Region="柯埃佐" y="350.00" /><text y="350.00" x="40.00" id="17377">欧尔迪恩</text><rect Type="system" x="50.00" id="17379" height="5.00" width="5.00" Name="歇玛耶尔" ID="30005063" Region="柯埃佐" y="670.00" /><text y="670.00" x="50.00" id="17380">歇玛耶尔</text><rect Type="system" x="80.00" id="17382" height="5.00" width="5.00" Name="米厦" ID="30005059" Region="柯埃佐" y="380.00" /><text y="380.00" x="80.00" id="17383">米厦</text><rect Type="system" x="80.00" id="17385" height="5.00" width="5.00" Name="金科恩" ID="30005055" Region="柯埃佐" y="200.00" /><text y="200.00" x="80.00" id="17386">金科恩</text><rect Type="system" x="100.00" id="17388" height="5.00" width="5.00" Name="欧古瑟尔" ID="30005068" Region="柯埃佐" y="600.00" /><text y="600.00" x="100.00" id="17389">欧古瑟尔</text><rect Type="system" x="100.00" id="17391" height="5.00" width="5.00" Name="佐仑耶恩" ID="30005067" Region="柯埃佐" y="650.00" /><text y="650.00" x="100.00" id="17392">佐仑耶恩</text><rect Type="system" x="120.00" id="17394" height="5.00" width="5.00" Name="佩布赫" ID="30005061" Region="柯埃佐" y="450.00" /><text y="450.00" x="120.00" id="17395">佩布赫</text><rect Type="system" x="150.00" id="17397" height="5.00" width="5.00" Name="马弗拉" ID="30005064" Region="柯埃佐" y="680.00" /><text y="680.00" x="150.00" id="17398">马弗拉</text><rect Type="system" x="150.00" id="17400" height="5.00" width="5.00" Name="尼什尔" ID="30005058" Region="柯埃佐" y="400.00" /><text y="400.00" x="150.00" id="17401">尼什尔</text><rect Type="system" x="150.00" id="17403" height="5.00" width="5.00" Name="库鲁" ID="30005050" Region="柯埃佐" y="80.00" /><text y="80.00" x="150.00" id="17404">库鲁</text><rect Type="system" x="150.00" id="17406" height="5.00" width="5.00" Name="莎赫" ID="30005057" Region="柯埃佐" y="350.00" /><text y="350.00" x="150.00" id="17407">莎赫</text><rect Type="system" x="150.00" id="17409" height="5.00" width="5.00" Name="基扎马" ID="30005056" Region="柯埃佐" y="300.00" /><text y="300.00" x="150.00" id="17410">基扎马</text><rect Type="system" x="150.00" id="17412" height="5.00" width="5.00" Name="阿尔兹" ID="30005065" Region="柯埃佐" y="620.00" /><text y="620.00" x="150.00" id="17413">阿尔兹</text><rect Type="system" x="180.00" id="17415" height="5.00" width="5.00" Name="索欧米" ID="30005052" Region="柯埃佐" y="150.00" /><text y="150.00" x="180.00" id="17416">索欧米</text><rect Type="system" x="180.00" id="17418" height="5.00" width="5.00" Name="纳勒" ID="30005054" Region="柯埃佐" y="200.00" /><text y="200.00" x="180.00" id="17419">纳勒</text><rect Type="system" x="220.00" id="17421" height="5.00" width="5.00" Name="查欧加" ID="30005051" Region="柯埃佐" y="80.00" /><text y="80.00" x="220.00" id="17422">查欧加</text><rect Type="system" x="190.00" id="17424" height="5.00" width="5.00" Name="克里因" ID="30005066" Region="柯埃佐" y="570.00" /><text y="570.00" x="190.00" id="17425">克里因</text><rect Type="system" x="280.00" id="17427" height="5.00" width="5.00" Name="伊米尔" ID="30005053" Region="柯埃佐" y="120.00" /><text y="120.00" x="280.00" id="17428">伊米尔</text><rect Type="system" x="300.00" id="17430" height="5.00" width="5.00" Name="阿尔察" ID="30005086" Region="柯埃佐" y="20.00" /><text y="20.00" x="300.00" id="17431">阿尔察</text><rect Type="system" x="350.00" id="17433" height="5.00" width="5.00" Name="布里迪" ID="30005034" Region="柯埃佐" y="320.00" /><text y="320.00" x="350.00" id="17434">布里迪</text><rect Type="system" x="350.00" id="17436" height="5.00" width="5.00" Name="杰尼" ID="30005033" Region="柯埃佐" y="180.00" /><text y="180.00" x="350.00" id="17437">杰尼</text><rect Type="system" x="330.00" id="17439" height="5.00" width="5.00" Name="尼沙尔" ID="30005040" Region="柯埃佐" y="450.00" /><text y="450.00" x="330.00" id="17440">尼沙尔</text><rect Type="system" x="380.00" id="17442" height="5.00" width="5.00" Name="利帕尔" ID="30005087" Region="柯埃佐" y="80.00" /><text y="80.00" x="380.00" id="17443">利帕尔</text><rect Type="system" x="400.00" id="17445" height="5.00" width="5.00" Name="阮妮" ID="30005085" Region="柯埃佐" y="20.00" /><text y="20.00" x="400.00" id="17446">阮妮</text><rect Type="system" x="380.00" id="17448" height="5.00" width="5.00" Name="马萨努" ID="30005041" Region="柯埃佐" y="650.00" /><text y="650.00" x="380.00" id="17449">马萨努</text><rect Type="system" x="400.00" id="17451" height="5.00" width="5.00" Name="安姆多尼" ID="30005036" Region="柯埃佐" y="450.00" /><text y="450.00" x="400.00" id="17452">安姆多尼</text><rect Type="system" x="400.00" id="17454" height="5.00" width="5.00" Name="勒瓦" ID="30005039" Region="柯埃佐" y="550.00" /><text y="550.00" x="400.00" id="17455">勒瓦</text><rect Type="system" x="400.00" id="17457" height="5.00" width="5.00" Name="勒比亚" ID="30005031" Region="柯埃佐" y="200.00" /><text y="200.00" x="400.00" id="17458">勒比亚</text><rect Type="system" x="400.00" id="17460" height="5.00" width="5.00" Name="安米" ID="30005035" Region="柯埃佐" y="380.00" /><text y="380.00" x="400.00" id="17461">安米</text><rect Type="system" x="400.00" id="17463" height="5.00" width="5.00" Name="卡巴拉" ID="30005032" Region="柯埃佐" y="150.00" /><text y="150.00" x="400.00" id="17464">卡巴拉</text><rect Type="system" x="420.00" id="17466" height="5.00" width="5.00" Name="芬斯" ID="30005030" Region="柯埃佐" y="300.00" /><text y="300.00" x="420.00" id="17467">芬斯</text><rect Type="system" x="450.00" id="17469" height="5.00" width="5.00" Name="米罗纳" ID="30005084" Region="柯埃佐" y="50.00" /><text y="50.00" x="450.00" id="17470">米罗纳</text><rect Type="system" x="500.00" id="17472" height="5.00" width="5.00" Name="柯埃佐首星" ID="30005038" Region="柯埃佐" y="575.50" /><text y="575.50" x="500.00" id="17473">柯埃佐首星</text><rect Type="system" x="500.00" id="17475" height="5.00" width="5.00" Name="纳奎格德" ID="30005043" Region="柯埃佐" y="624.50" /><text y="624.50" x="500.00" id="17476">纳奎格德</text><rect Type="system" x="520.00" id="17478" height="5.00" width="5.00" Name="康诺班" ID="30045042" Region="柯埃佐" y="520.00" /><text y="520.00" x="520.00" id="17479">康诺班</text><rect Type="system" x="550.00" id="17481" height="5.00" width="5.00" Name="魔纳" ID="30005037" Region="柯埃佐" y="480.00" /><text y="480.00" x="550.00" id="17482">魔纳</text><rect Type="system" x="550.00" id="17484" height="5.00" width="5.00" Name="杰丹达恩" ID="30005083" Region="柯埃佐" y="50.00" /><text y="50.00" x="550.00" id="17485">杰丹达恩</text><rect Type="system" x="580.00" id="17487" height="5.00" width="5.00" Name="兰诺泽" ID="30005080" Region="柯埃佐" y="200.00" /><text y="200.00" x="580.00" id="17488">兰诺泽</text><rect Type="system" x="600.00" id="17490" height="5.00" width="5.00" Name="瑟米" ID="30005042" Region="柯埃佐" y="550.00" /><text y="550.00" x="600.00" id="17491">瑟米</text><rect Type="system" x="620.00" id="17493" height="5.00" width="5.00" Name="恩纳" ID="30005082" Region="柯埃佐" y="50.00" /><text y="50.00" x="620.00" id="17494">恩纳</text><rect Type="system" x="600.00" id="17496" height="5.00" width="5.00" Name="达然" ID="30005074" Region="柯埃佐" y="310.00" /><text y="310.00" x="600.00" id="17497">达然</text><rect Type="system" x="650.00" id="17499" height="5.00" width="5.00" Name="查克塔伦" ID="30035042" Region="柯埃佐" y="375.50" /><text y="375.50" x="650.00" id="17500">查克塔伦</text><rect Type="system" x="650.00" id="17502" height="5.00" width="5.00" Name="包法利" ID="30005048" Region="柯埃佐" y="424.50" /><text y="424.50" x="650.00" id="17503">包法利</text><rect Type="system" x="650.00" id="17505" height="5.00" width="5.00" Name="爱塔利" ID="30005077" Region="柯埃佐" y="150.00" /><text y="150.00" x="650.00" id="17506">爱塔利</text><rect Type="system" x="700.00" id="17508" height="5.00" width="5.00" Name="丹亚娜" ID="30005044" Region="柯埃佐" y="530.00" /><text y="530.00" x="700.00" id="17509">丹亚娜</text><rect Type="system" x="700.00" id="17511" height="5.00" width="5.00" Name="皮惹" ID="30005081" Region="柯埃佐" y="80.00" /><text y="80.00" x="700.00" id="17512">皮惹</text><rect Type="system" x="700.00" id="17514" height="5.00" width="5.00" Name="帕纳南" ID="30005073" Region="柯埃佐" y="280.00" /><text y="280.00" x="700.00" id="17515">帕纳南</text><rect Type="system" x="750.00" id="17517" height="5.00" width="5.00" Name="尼拜恩界" ID="30005047" Region="柯埃佐" y="400.00" /><text y="400.00" x="750.00" id="17518">尼拜恩界</text><rect Type="system" x="740.00" id="17520" height="5.00" width="5.00" Name="科坡罗" ID="30005078" Region="柯埃佐" y="130.00" /><text y="130.00" x="740.00" id="17521">科坡罗</text><rect Type="system" x="800.00" id="17523" height="5.00" width="5.00" Name="扎塔马卡" ID="30005079" Region="柯埃佐" y="80.00" /><text y="80.00" x="800.00" id="17524">扎塔马卡</text><rect Type="system" x="800.00" id="17526" height="5.00" width="5.00" Name="雪喀" ID="30005076" Region="柯埃佐" y="200.00" /><text y="200.00" x="800.00" id="17527">雪喀</text><rect Type="system" x="800.00" id="17529" height="5.00" width="5.00" Name="金喀" ID="30005046" Region="柯埃佐" y="380.00" /><text y="380.00" x="800.00" id="17530">金喀</text><rect Type="system" x="800.00" id="17532" height="5.00" width="5.00" Name="纳伊恩" ID="30005045" Region="柯埃佐" y="490.00" /><text y="490.00" x="800.00" id="17533">纳伊恩</text><rect Type="system" x="820.00" id="17535" height="5.00" width="5.00" Name="安恩那德" ID="30025042" Region="柯埃佐" y="320.00" /><text y="320.00" x="820.00" id="17536">安恩那德</text><rect Type="system" x="850.00" id="17538" height="5.00" width="5.00" Name="加德曼" ID="30005072" Region="柯埃佐" y="250.00" /><text y="250.00" x="850.00" id="17539">加德曼</text><rect Type="system" x="910.00" id="17541" height="5.00" width="5.00" Name="安朱比" ID="30005049" Region="柯埃佐" y="430.00" /><text y="430.00" x="910.00" id="17542">安朱比</text><rect Type="system" x="900.00" id="17544" height="5.00" width="5.00" Name="塔达丹" ID="30005070" Region="柯埃佐" y="300.00" /><text y="300.00" x="900.00" id="17545">塔达丹</text><rect Type="system" x="950.00" id="17547" height="5.00" width="5.00" Name="纳霍尔" ID="30005069" Region="柯埃佐" y="350.00" /><text y="350.00" x="950.00" id="17548">纳霍尔</text><rect Type="system" x="1000.00" id="17550" height="5.00" width="5.00" Name="查拉斯" ID="30005071" Region="柯埃佐" y="300.00" /><text y="300.00" x="1000.00" id="17551">查拉斯</text><rect Type="system" x="1000.00" id="17553" height="5.00" width="5.00" Name="拉达里" ID="30005075" Region="柯埃佐" y="400.00" /><text y="400.00" x="1000.00" id="17554">拉达里</text><rect Type="system" x="20.00" id="17556" height="5.00" width="5.00" Name="维翰" ID="30004246" Region="艾里迪亚" y="150.00" /><text y="150.00" x="20.00" id="17557">维翰</text><rect Type="system" x="20.00" id="17559" height="5.00" width="5.00" Name="纳赫米德尔" ID="30003922" Region="卡尼迪" y="760.00" /><text y="760.00" x="20.00" id="17560">纳赫米德尔</text><rect Type="system" x="50.00" id="17562" height="5.00" width="5.00" Name="蒙尼尤库" ID="30003881" Region="卡尼迪" y="50.00" /><text y="50.00" x="50.00" id="17563">蒙尼尤库</text><rect Type="system" x="350.00" id="17565" height="5.00" width="5.00" Name="纳莱" ID="30002202" Region="多美" y="250.00" /><text y="250.00" x="350.00" id="17566">纳莱</text><rect Type="system" x="320.00" id="17568" height="5.00" width="5.00" Name="伊维卡姆" ID="30003867" Region="卡尼迪" y="700.00" /><text y="700.00" x="320.00" id="17569">伊维卡姆</text><rect Type="system" x="400.00" id="17571" height="5.00" width="5.00" Name="孙尼尔" ID="30004101" Region="卡多尔" y="720.00" /><text y="720.00" x="400.00" id="17572">孙尼尔</text><rect Type="system" x="480.00" id="17574" height="5.00" width="5.00" Name="洛南尼姆" ID="30005236" Region="吉勒西斯" y="180.00" /><text y="180.00" x="480.00" id="17575">洛南尼姆</text><rect Type="system" x="500.00" id="17577" height="5.00" width="5.00" Name="莫利亚" ID="30003876" Region="卡尼迪" y="720.00" /><text y="720.00" x="500.00" id="17578">莫利亚</text><rect Type="system" x="550.00" id="17580" height="5.00" width="5.00" Name="丹塔恩" ID="30004097" Region="卡多尔" y="400.00" /><text y="400.00" x="550.00" id="17581">丹塔恩</text><rect Type="system" x="600.00" id="17583" height="5.00" width="5.00" Name="梅耐" ID="30005238" Region="吉勒西斯" y="150.00" /><text y="150.00" x="600.00" id="17584">梅耐</text><rect Type="system" x="640.00" id="17586" height="5.00" width="5.00" Name="艾玛" ID="30002187" Region="多美" y="650.00" /><text y="650.00" x="640.00" id="17587">艾玛</text><rect Type="system" x="900.00" id="17589" height="5.00" width="5.00" Name="萨科提" ID="30002215" Region="多美" y="200.00" /><text y="200.00" x="900.00" id="17590">萨科提</text><line style="stroke:blue;fill:blue;" id="17592" x2="20.00" x1="60.00" y1="720.00" y2="760.00" /><line style="stroke:blue;fill:blue;" id="17593" x2="50.00" x1="60.00" y1="720.00" y2="670.00" /><line style="stroke:blue;fill:blue;" id="17594" x2="80.00" x1="40.00" y1="350.00" y2="380.00" /><line style="stroke:blue;fill:blue;" id="17595" x2="60.00" x1="50.00" y1="670.00" y2="720.00" /><line style="stroke:blue;fill:blue;" id="17596" x2="150.00" x1="50.00" y1="670.00" y2="680.00" /><line style="stroke:blue;fill:blue;" id="17597" x2="100.00" x1="50.00" y1="670.00" y2="650.00" /><line style="stroke:blue;fill:blue;" id="17598" x2="100.00" x1="50.00" y1="670.00" y2="600.00" /><line style="stroke:blue;fill:blue;" id="17599" x2="150.00" x1="80.00" y1="380.00" y2="350.00" /><line style="stroke:blue;fill:blue;" id="17600" x2="150.00" x1="80.00" y1="380.00" y2="400.00" /><line style="stroke:blue;fill:blue;" id="17601" x2="40.00" x1="80.00" y1="380.00" y2="350.00" /><line style="stroke:blue;fill:blue;" id="17602" x2="20.00" x1="80.00" y1="200.00" y2="150.00" /><line style="stroke:blue;fill:blue;" id="17603" x2="180.00" x1="80.00" y1="200.00" y2="200.00" /><line style="stroke:blue;fill:blue;" id="17604" x2="120.00" x1="100.00" y1="600.00" y2="450.00" /><line style="stroke:blue;fill:blue;" id="17605" x2="50.00" x1="100.00" y1="600.00" y2="670.00" /><line style="stroke:blue;fill:blue;" id="17606" x2="150.00" x1="100.00" y1="600.00" y2="620.00" /><line style="stroke:blue;fill:blue;" id="17607" x2="50.00" x1="100.00" y1="650.00" y2="670.00" /><line style="stroke:blue;fill:blue;" id="17608" x2="150.00" x1="100.00" y1="650.00" y2="620.00" /><line style="stroke:blue;fill:blue;" id="17609" x2="150.00" x1="120.00" y1="450.00" y2="400.00" /><line style="stroke:blue;fill:blue;" id="17610" x2="100.00" x1="120.00" y1="450.00" y2="600.00" /><line style="stroke:blue;fill:blue;" id="17611" x2="50.00" x1="150.00" y1="680.00" y2="670.00" /><line style="stroke:blue;fill:blue;" id="17612" x2="150.00" x1="150.00" y1="680.00" y2="620.00" /><line style="stroke:blue;fill:blue;" id="17613" x2="150.00" x1="150.00" y1="400.00" y2="350.00" /><line style="stroke:blue;fill:blue;" id="17614" x2="80.00" x1="150.00" y1="400.00" y2="380.00" /><line style="stroke:blue;fill:blue;" id="17615" x2="120.00" x1="150.00" y1="400.00" y2="450.00" /><line style="stroke:blue;fill:blue;" id="17616" x2="50.00" x1="150.00" y1="80.00" y2="50.00" /><line style="stroke:blue;fill:blue;" id="17617" x2="220.00" x1="150.00" y1="80.00" y2="80.00" /><line style="stroke:blue;fill:blue;" id="17618" x2="180.00" x1="150.00" y1="80.00" y2="150.00" /><line style="stroke:blue;fill:blue;" id="17619" x2="150.00" x1="150.00" y1="350.00" y2="300.00" /><line style="stroke:blue;fill:blue;" id="17620" x2="150.00" x1="150.00" y1="350.00" y2="400.00" /><line style="stroke:blue;fill:blue;" id="17621" x2="80.00" x1="150.00" y1="350.00" y2="380.00" /><line style="stroke:blue;fill:blue;" id="17622" x2="180.00" x1="150.00" y1="300.00" y2="200.00" /><line style="stroke:blue;fill:blue;" id="17623" x2="150.00" x1="150.00" y1="300.00" y2="350.00" /><line style="stroke:blue;fill:blue;" id="17624" x2="150.00" x1="150.00" y1="620.00" y2="680.00" /><line style="stroke:blue;fill:blue;" id="17625" x2="190.00" x1="150.00" y1="620.00" y2="570.00" /><line style="stroke:blue;fill:blue;" id="17626" x2="100.00" x1="150.00" y1="620.00" y2="650.00" /><line style="stroke:blue;fill:blue;" id="17627" x2="100.00" x1="150.00" y1="620.00" y2="600.00" /><line style="stroke:blue;fill:blue;" id="17628" x2="150.00" x1="180.00" y1="150.00" y2="80.00" /><line style="stroke:blue;fill:blue;" id="17629" x2="220.00" x1="180.00" y1="150.00" y2="80.00" /><line style="stroke:blue;fill:blue;" id="17630" x2="180.00" x1="180.00" y1="150.00" y2="200.00" /><line style="stroke:blue;fill:blue;" id="17631" x2="180.00" x1="180.00" y1="200.00" y2="150.00" /><line style="stroke:blue;fill:blue;" id="17632" x2="280.00" x1="180.00" y1="200.00" y2="120.00" /><line style="stroke:blue;fill:blue;" id="17633" x2="80.00" x1="180.00" y1="200.00" y2="200.00" /><line style="stroke:blue;fill:blue;" id="17634" x2="150.00" x1="180.00" y1="200.00" y2="300.00" /><line style="stroke:blue;fill:blue;" id="17635" x2="150.00" x1="220.00" y1="80.00" y2="80.00" /><line style="stroke:blue;fill:blue;" id="17636" x2="180.00" x1="220.00" y1="80.00" y2="150.00" /><line style="stroke:blue;fill:blue;" id="17637" x2="280.00" x1="220.00" y1="80.00" y2="120.00" /><line style="stroke:blue;fill:blue;" id="17638" x2="150.00" x1="190.00" y1="570.00" y2="620.00" /><line style="stroke:blue;fill:blue;" id="17639" x2="220.00" x1="280.00" y1="120.00" y2="80.00" /><line style="stroke:blue;fill:blue;" id="17640" x2="180.00" x1="280.00" y1="120.00" y2="200.00" /><line style="stroke:blue;fill:blue;" id="17641" x2="380.00" x1="280.00" y1="120.00" y2="80.00" /><line style="stroke:blue;fill:blue;" id="17642" x2="400.00" x1="300.00" y1="20.00" y2="20.00" /><line style="stroke:blue;fill:blue;" id="17643" x2="420.00" x1="350.00" y1="320.00" y2="300.00" /><line style="stroke:blue;fill:blue;" id="17644" x2="400.00" x1="350.00" y1="320.00" y2="380.00" /><line style="stroke:blue;fill:blue;" id="17645" x2="400.00" x1="350.00" y1="180.00" y2="200.00" /><line style="stroke:blue;fill:blue;" id="17646" x2="400.00" x1="350.00" y1="180.00" y2="150.00" /><line style="stroke:blue;fill:blue;" id="17647" x2="400.00" x1="330.00" y1="450.00" y2="450.00" /><line style="stroke:blue;fill:blue;" id="17648" x2="280.00" x1="380.00" y1="80.00" y2="120.00" /><line style="stroke:blue;fill:blue;" id="17649" x2="450.00" x1="380.00" y1="80.00" y2="50.00" /><line style="stroke:blue;fill:blue;" id="17650" x2="450.00" x1="400.00" y1="20.00" y2="50.00" /><line style="stroke:blue;fill:blue;" id="17651" x2="300.00" x1="400.00" y1="20.00" y2="20.00" /><line style="stroke:blue;fill:blue;" id="17652" x2="320.00" x1="380.00" y1="650.00" y2="700.00" /><line style="stroke:blue;fill:blue;" id="17653" x2="400.00" x1="380.00" y1="650.00" y2="720.00" /><line style="stroke:blue;fill:blue;" id="17654" x2="400.00" x1="380.00" y1="650.00" y2="550.00" /><line style="stroke:blue;fill:blue;" id="17655" x2="550.00" x1="400.00" y1="450.00" y2="400.00" /><line style="stroke:blue;fill:blue;" id="17656" x2="400.00" x1="400.00" y1="450.00" y2="380.00" /><line style="stroke:blue;fill:blue;" id="17657" x2="550.00" x1="400.00" y1="450.00" y2="480.00" /><line style="stroke:blue;fill:blue;" id="17658" x2="500.00" x1="400.00" y1="450.00" y2="575.50" /><line style="stroke:blue;fill:blue;" id="17659" x2="400.00" x1="400.00" y1="450.00" y2="550.00" /><line style="stroke:blue;fill:blue;" id="17660" x2="330.00" x1="400.00" y1="450.00" y2="450.00" /><line style="stroke:blue;fill:blue;" id="17661" x2="400.00" x1="400.00" y1="550.00" y2="450.00" /><line style="stroke:blue;fill:blue;" id="17662" x2="500.00" x1="400.00" y1="550.00" y2="575.50" /><line style="stroke:blue;fill:blue;" id="17663" x2="380.00" x1="400.00" y1="550.00" y2="650.00" /><line style="stroke:blue;fill:blue;" id="17664" x2="420.00" x1="400.00" y1="200.00" y2="300.00" /><line style="stroke:blue;fill:blue;" id="17665" x2="400.00" x1="400.00" y1="200.00" y2="150.00" /><line style="stroke:blue;fill:blue;" id="17666" x2="350.00" x1="400.00" y1="200.00" y2="180.00" /><line style="stroke:blue;fill:blue;" id="17667" x2="480.00" x1="400.00" y1="200.00" y2="180.00" /><line style="stroke:blue;fill:blue;" id="17668" x2="420.00" x1="400.00" y1="380.00" y2="300.00" /><line style="stroke:blue;fill:blue;" id="17669" x2="350.00" x1="400.00" y1="380.00" y2="320.00" /><line style="stroke:blue;fill:blue;" id="17670" x2="400.00" x1="400.00" y1="380.00" y2="450.00" /><line style="stroke:blue;fill:blue;" id="17671" x2="600.00" x1="400.00" y1="380.00" y2="310.00" /><line style="stroke:blue;fill:blue;" id="17672" x2="400.00" x1="400.00" y1="150.00" y2="200.00" /><line style="stroke:blue;fill:blue;" id="17673" x2="350.00" x1="400.00" y1="150.00" y2="180.00" /><line style="stroke:blue;fill:blue;" id="17674" x2="350.00" x1="420.00" y1="300.00" y2="250.00" /><line style="stroke:blue;fill:blue;" id="17675" x2="400.00" x1="420.00" y1="300.00" y2="200.00" /><line style="stroke:blue;fill:blue;" id="17676" x2="350.00" x1="420.00" y1="300.00" y2="320.00" /><line style="stroke:blue;fill:blue;" id="17677" x2="400.00" x1="420.00" y1="300.00" y2="380.00" /><line style="stroke:blue;fill:blue;" id="17678" x2="580.00" x1="420.00" y1="300.00" y2="200.00" /><line style="stroke:blue;fill:blue;" id="17679" x2="550.00" x1="450.00" y1="50.00" y2="50.00" /><line style="stroke:blue;fill:blue;" id="17680" x2="400.00" x1="450.00" y1="50.00" y2="20.00" /><line style="stroke:blue;fill:blue;" id="17681" x2="380.00" x1="450.00" y1="50.00" y2="80.00" /><line style="stroke:blue;fill:blue;" id="17682" x2="640.00" x1="500.00" y1="575.50" y2="650.00" /><line style="stroke:blue;fill:blue;" id="17683" x2="400.00" x1="500.00" y1="575.50" y2="450.00" /><line style="stroke:blue;fill:blue;" id="17684" x2="400.00" x1="500.00" y1="575.50" y2="550.00" /><line style="stroke:blue;fill:blue;" id="17685" x2="600.00" x1="500.00" y1="575.50" y2="550.00" /><line style="stroke:blue;fill:blue;" id="17686" x2="500.00" x1="500.00" y1="575.50" y2="624.50" /><line style="stroke:blue;fill:blue;" id="17687" x2="500.00" x1="500.00" y1="624.50" y2="720.00" /><line style="stroke:blue;fill:blue;" id="17688" x2="500.00" x1="500.00" y1="624.50" y2="575.50" /><line style="stroke:blue;fill:blue;" id="17689" x2="550.00" x1="520.00" y1="520.00" y2="480.00" /><line style="stroke:blue;fill:blue;" id="17690" x2="400.00" x1="550.00" y1="480.00" y2="450.00" /><line style="stroke:blue;fill:blue;" id="17691" x2="600.00" x1="550.00" y1="480.00" y2="550.00" /><line style="stroke:blue;fill:blue;" id="17692" x2="650.00" x1="550.00" y1="480.00" y2="424.50" /><line style="stroke:blue;fill:blue;" id="17693" x2="520.00" x1="550.00" y1="480.00" y2="520.00" /><line style="stroke:blue;fill:blue;" id="17694" x2="620.00" x1="550.00" y1="50.00" y2="50.00" /><line style="stroke:blue;fill:blue;" id="17695" x2="450.00" x1="550.00" y1="50.00" y2="50.00" /><line style="stroke:blue;fill:blue;" id="17696" x2="420.00" x1="580.00" y1="200.00" y2="300.00" /><line style="stroke:blue;fill:blue;" id="17697" x2="650.00" x1="580.00" y1="200.00" y2="150.00" /><line style="stroke:blue;fill:blue;" id="17698" x2="550.00" x1="600.00" y1="550.00" y2="480.00" /><line style="stroke:blue;fill:blue;" id="17699" x2="500.00" x1="600.00" y1="550.00" y2="575.50" /><line style="stroke:blue;fill:blue;" id="17700" x2="700.00" x1="600.00" y1="550.00" y2="530.00" /><line style="stroke:blue;fill:blue;" id="17701" x2="700.00" x1="620.00" y1="50.00" y2="80.00" /><line style="stroke:blue;fill:blue;" id="17702" x2="550.00" x1="620.00" y1="50.00" y2="50.00" /><line style="stroke:blue;fill:blue;" id="17703" x2="400.00" x1="600.00" y1="310.00" y2="380.00" /><line style="stroke:blue;fill:blue;" id="17704" x2="700.00" x1="600.00" y1="310.00" y2="280.00" /><line style="stroke:blue;fill:blue;" id="17705" x2="650.00" x1="650.00" y1="375.50" y2="424.50" /><line style="stroke:blue;fill:blue;" id="17706" x2="550.00" x1="650.00" y1="424.50" y2="480.00" /><line style="stroke:blue;fill:blue;" id="17707" x2="700.00" x1="650.00" y1="424.50" y2="530.00" /><line style="stroke:blue;fill:blue;" id="17708" x2="750.00" x1="650.00" y1="424.50" y2="400.00" /><line style="stroke:blue;fill:blue;" id="17709" x2="650.00" x1="650.00" y1="424.50" y2="375.50" /><line style="stroke:blue;fill:blue;" id="17710" x2="800.00" x1="650.00" y1="150.00" y2="200.00" /><line style="stroke:blue;fill:blue;" id="17711" x2="740.00" x1="650.00" y1="150.00" y2="130.00" /><line style="stroke:blue;fill:blue;" id="17712" x2="800.00" x1="650.00" y1="150.00" y2="80.00" /><line style="stroke:blue;fill:blue;" id="17713" x2="580.00" x1="650.00" y1="150.00" y2="200.00" /><line style="stroke:blue;fill:blue;" id="17714" x2="700.00" x1="650.00" y1="150.00" y2="80.00" /><line style="stroke:blue;fill:blue;" id="17715" x2="600.00" x1="650.00" y1="150.00" y2="150.00" /><line style="stroke:blue;fill:blue;" id="17716" x2="550.00" x1="700.00" y1="530.00" y2="400.00" /><line style="stroke:blue;fill:blue;" id="17717" x2="600.00" x1="700.00" y1="530.00" y2="550.00" /><line style="stroke:blue;fill:blue;" id="17718" x2="800.00" x1="700.00" y1="530.00" y2="490.00" /><line style="stroke:blue;fill:blue;" id="17719" x2="750.00" x1="700.00" y1="530.00" y2="400.00" /><line style="stroke:blue;fill:blue;" id="17720" x2="650.00" x1="700.00" y1="530.00" y2="424.50" /><line style="stroke:blue;fill:blue;" id="17721" x2="650.00" x1="700.00" y1="80.00" y2="150.00" /><line style="stroke:blue;fill:blue;" id="17722" x2="800.00" x1="700.00" y1="80.00" y2="80.00" /><line style="stroke:blue;fill:blue;" id="17723" x2="620.00" x1="700.00" y1="80.00" y2="50.00" /><line style="stroke:blue;fill:blue;" id="17724" x2="850.00" x1="700.00" y1="280.00" y2="250.00" /><line style="stroke:blue;fill:blue;" id="17725" x2="600.00" x1="700.00" y1="280.00" y2="310.00" /><line style="stroke:blue;fill:blue;" id="17726" x2="700.00" x1="750.00" y1="400.00" y2="530.00" /><line style="stroke:blue;fill:blue;" id="17727" x2="800.00" x1="750.00" y1="400.00" y2="490.00" /><line style="stroke:blue;fill:blue;" id="17728" x2="800.00" x1="750.00" y1="400.00" y2="380.00" /><line style="stroke:blue;fill:blue;" id="17729" x2="650.00" x1="750.00" y1="400.00" y2="424.50" /><line style="stroke:blue;fill:blue;" id="17730" x2="800.00" x1="750.00" y1="400.00" y2="200.00" /><line style="stroke:blue;fill:blue;" id="17731" x2="800.00" x1="740.00" y1="130.00" y2="200.00" /><line style="stroke:blue;fill:blue;" id="17732" x2="650.00" x1="740.00" y1="130.00" y2="150.00" /><line style="stroke:blue;fill:blue;" id="17733" x2="800.00" x1="740.00" y1="130.00" y2="80.00" /><line style="stroke:blue;fill:blue;" id="17734" x2="800.00" x1="800.00" y1="80.00" y2="200.00" /><line style="stroke:blue;fill:blue;" id="17735" x2="650.00" x1="800.00" y1="80.00" y2="150.00" /><line style="stroke:blue;fill:blue;" id="17736" x2="740.00" x1="800.00" y1="80.00" y2="130.00" /><line style="stroke:blue;fill:blue;" id="17737" x2="700.00" x1="800.00" y1="80.00" y2="80.00" /><line style="stroke:blue;fill:blue;" id="17738" x2="750.00" x1="800.00" y1="200.00" y2="400.00" /><line style="stroke:blue;fill:blue;" id="17739" x2="650.00" x1="800.00" y1="200.00" y2="150.00" /><line style="stroke:blue;fill:blue;" id="17740" x2="740.00" x1="800.00" y1="200.00" y2="130.00" /><line style="stroke:blue;fill:blue;" id="17741" x2="800.00" x1="800.00" y1="200.00" y2="80.00" /><line style="stroke:blue;fill:blue;" id="17742" x2="800.00" x1="800.00" y1="380.00" y2="490.00" /><line style="stroke:blue;fill:blue;" id="17743" x2="750.00" x1="800.00" y1="380.00" y2="400.00" /><line style="stroke:blue;fill:blue;" id="17744" x2="820.00" x1="800.00" y1="380.00" y2="320.00" /><line style="stroke:blue;fill:blue;" id="17745" x2="700.00" x1="800.00" y1="490.00" y2="530.00" /><line style="stroke:blue;fill:blue;" id="17746" x2="800.00" x1="800.00" y1="490.00" y2="380.00" /><line style="stroke:blue;fill:blue;" id="17747" x2="750.00" x1="800.00" y1="490.00" y2="400.00" /><line style="stroke:blue;fill:blue;" id="17748" x2="910.00" x1="800.00" y1="490.00" y2="430.00" /><line style="stroke:blue;fill:blue;" id="17749" x2="800.00" x1="820.00" y1="320.00" y2="380.00" /><line style="stroke:blue;fill:blue;" id="17750" x2="900.00" x1="850.00" y1="250.00" y2="200.00" /><line style="stroke:blue;fill:blue;" id="17751" x2="900.00" x1="850.00" y1="250.00" y2="300.00" /><line style="stroke:blue;fill:blue;" id="17752" x2="700.00" x1="850.00" y1="250.00" y2="280.00" /><line style="stroke:blue;fill:blue;" id="17753" x2="800.00" x1="910.00" y1="430.00" y2="490.00" /><line style="stroke:blue;fill:blue;" id="17754" x2="950.00" x1="910.00" y1="430.00" y2="350.00" /><line style="stroke:blue;fill:blue;" id="17755" x2="950.00" x1="900.00" y1="300.00" y2="350.00" /><line style="stroke:blue;fill:blue;" id="17756" x2="850.00" x1="900.00" y1="300.00" y2="250.00" /><line style="stroke:blue;fill:blue;" id="17757" x2="910.00" x1="950.00" y1="350.00" y2="430.00" /><line style="stroke:blue;fill:blue;" id="17758" x2="900.00" x1="950.00" y1="350.00" y2="300.00" /><line style="stroke:blue;fill:blue;" id="17759" x2="1000.00" x1="950.00" y1="350.00" y2="300.00" /><line style="stroke:blue;fill:blue;" id="17760" x2="1000.00" x1="950.00" y1="350.00" y2="400.00" /><line style="stroke:blue;fill:blue;" id="17761" x2="950.00" x1="1000.00" y1="300.00" y2="350.00" /><line style="stroke:blue;fill:blue;" id="17762" x2="1000.00" x1="1000.00" y1="300.00" y2="400.00" /><line style="stroke:blue;fill:blue;" id="17763" x2="950.00" x1="1000.00" y1="400.00" y2="350.00" /><line style="stroke:blue;fill:blue;" id="17764" x2="1000.00" x1="1000.00" y1="400.00" y2="300.00" /><line style="stroke:blue;fill:blue;" id="17765" x2="80.00" x1="20.00" y1="150.00" y2="200.00" /><line style="stroke:blue;fill:blue;" id="17766" x2="60.00" x1="20.00" y1="760.00" y2="720.00" /><line style="stroke:blue;fill:blue;" id="17767" x2="150.00" x1="50.00" y1="50.00" y2="80.00" /><line style="stroke:blue;fill:blue;" id="17768" x2="420.00" x1="350.00" y1="250.00" y2="300.00" /><line style="stroke:blue;fill:blue;" id="17769" x2="380.00" x1="320.00" y1="700.00" y2="650.00" /><line style="stroke:blue;fill:blue;" id="17770" x2="380.00" x1="400.00" y1="720.00" y2="650.00" /><line style="stroke:blue;fill:blue;" id="17771" x2="400.00" x1="480.00" y1="180.00" y2="200.00" /><line style="stroke:blue;fill:blue;" id="17772" x2="600.00" x1="480.00" y1="180.00" y2="150.00" /><line style="stroke:blue;fill:blue;" id="17773" x2="500.00" x1="500.00" y1="720.00" y2="624.50" /><line style="stroke:blue;fill:blue;" id="17774" x2="400.00" x1="550.00" y1="400.00" y2="450.00" /><line style="stroke:blue;fill:blue;" id="17775" x2="700.00" x1="550.00" y1="400.00" y2="530.00" /><line style="stroke:blue;fill:blue;" id="17776" x2="650.00" x1="600.00" y1="150.00" y2="150.00" /><line style="stroke:blue;fill:blue;" id="17777" x2="480.00" x1="600.00" y1="150.00" y2="180.00" /><line style="stroke:blue;fill:blue;" id="17778" x2="500.00" x1="640.00" y1="650.00" y2="575.50" /><line style="stroke:blue;fill:blue;" id="17779" x2="850.00" x1="900.00" y1="200.00" y2="250.00" /></svg>
