<?xml version="1.0" standalone="yes"?><!DOCTYPE svg PUBLIC "-//W3C//DTD SVG 1.1//EN" "http://www.w3.org/Graphics/SVG/1.1/DTD/svg11.dtd"[]><svg width="1050.00" height="800.00" id="3829" xmlns="http://www.w3.org/2000/svg" xmlns:xlink="http://www.w3.org/1999/xlink"><rect Type="system" x="80.00" id="3830" height="5.00" width="5.00" Name="J4UD-J" ID="30001043" Region="柯尔斯" y="100.00" /><text y="100.00" x="80.00" id="3831">J4UD-J</text><rect Type="system" x="70.00" id="3833" height="5.00" width="5.00" Name="多尼尔" ID="30001047" Region="柯尔斯" y="360.00" /><text y="360.00" x="70.00" id="3834">多尼尔</text><rect Type="system" x="100.00" id="3836" height="5.00" width="5.00" Name="加蒙达" ID="30001050" Region="柯尔斯" y="550.00" /><text y="550.00" x="100.00" id="3837">加蒙达</text><rect Type="system" x="120.00" id="3839" height="5.00" width="5.00" Name="利顿" ID="30001048" Region="柯尔斯" y="480.00" /><text y="480.00" x="120.00" id="3840">利顿</text><rect Type="system" x="120.00" id="3842" height="5.00" width="5.00" Name="法里忒" ID="30001049" Region="柯尔斯" y="250.00" /><text y="250.00" x="120.00" id="3843">法里忒</text><rect Type="system" x="120.00" id="3845" height="5.00" width="5.00" Name="乔伦德" ID="30001046" Region="柯尔斯" y="320.00" /><text y="320.00" x="120.00" id="3846">乔伦德</text><rect Type="system" x="120.00" id="3848" height="5.00" width="5.00" Name="乌托邦" ID="30001045" Region="柯尔斯" y="420.00" /><text y="420.00" x="120.00" id="3849">乌托邦</text><rect Type="system" x="150.00" id="3851" height="5.00" width="5.00" Name="CL-1JE" ID="30001042" Region="柯尔斯" y="100.00" /><text y="100.00" x="150.00" id="3852">CL-1JE</text><rect Type="system" x="170.00" id="3854" height="5.00" width="5.00" Name="赫明" ID="30001044" Region="柯尔斯" y="360.00" /><text y="360.00" x="170.00" id="3855">赫明</text><rect Type="system" x="200.00" id="3857" height="5.00" width="5.00" Name="BPK-XK" ID="30001037" Region="柯尔斯" y="150.00" /><text y="150.00" x="200.00" id="3858">BPK-XK</text><rect Type="system" x="250.00" id="3860" height="5.00" width="5.00" Name="LJ-YSW" ID="30001038" Region="柯尔斯" y="100.00" /><text y="100.00" x="250.00" id="3861">LJ-YSW</text><rect Type="system" x="250.00" id="3863" height="5.00" width="5.00" Name="K88X-J" ID="30001040" Region="柯尔斯" y="200.00" /><text y="200.00" x="250.00" id="3864">K88X-J</text><rect Type="system" x="280.00" id="3866" height="5.00" width="5.00" Name="Y-K50G" ID="30001039" Region="柯尔斯" y="150.00" /><text y="150.00" x="280.00" id="3867">Y-K50G</text><rect Type="system" x="280.00" id="3869" height="5.00" width="5.00" Name="RMOC-W" ID="30001028" Region="柯尔斯" y="320.00" /><text y="320.00" x="280.00" id="3870">RMOC-W</text><rect Type="system" x="280.00" id="3872" height="5.00" width="5.00" Name="YKE4-3" ID="30001024" Region="柯尔斯" y="250.00" /><text y="250.00" x="280.00" id="3873">YKE4-3</text><rect Type="system" x="300.00" id="3875" height="5.00" width="5.00" Name="V-IUEL" ID="30001008" Region="柯尔斯" y="500.00" /><text y="500.00" x="300.00" id="3876">V-IUEL</text><rect Type="system" x="320.00" id="3878" height="5.00" width="5.00" Name="G-R4W1" ID="30001036" Region="柯尔斯" y="50.00" /><text y="50.00" x="320.00" id="3879">G-R4W1</text><rect Type="system" x="320.00" id="3881" height="5.00" width="5.00" Name="G-0Q86" ID="30001041" Region="柯尔斯" y="100.00" /><text y="100.00" x="320.00" id="3882">G-0Q86</text><rect Type="system" x="350.00" id="3884" height="5.00" width="5.00" Name="K-QWHE" ID="30001026" Region="柯尔斯" y="300.00" /><text y="300.00" x="350.00" id="3885">K-QWHE</text><rect Type="system" x="350.00" id="3887" height="5.00" width="5.00" Name="PO4F-3" ID="30001012" Region="柯尔斯" y="450.00" /><text y="450.00" x="350.00" id="3888">PO4F-3</text><rect Type="system" x="350.00" id="3890" height="5.00" width="5.00" Name="0SHT-A" ID="30001009" Region="柯尔斯" y="550.00" /><text y="550.00" x="350.00" id="3891">0SHT-A</text><rect Type="system" x="380.00" id="3893" height="5.00" width="5.00" Name="AAM-1A" ID="30001022" Region="柯尔斯" y="350.00" /><text y="350.00" x="380.00" id="3894">AAM-1A</text><rect Type="system" x="400.00" id="3896" height="5.00" width="5.00" Name="MDD-79" ID="30001027" Region="柯尔斯" y="175.50" /><text y="175.50" x="400.00" id="3897">MDD-79</text><rect Type="system" x="400.00" id="3899" height="5.00" width="5.00" Name="EW-JR5" ID="30001023" Region="柯尔斯" y="224.50" /><text y="224.50" x="400.00" id="3900">EW-JR5</text><rect Type="system" x="400.00" id="3902" height="5.00" width="5.00" Name="CL-85V" ID="30001025" Region="柯尔斯" y="280.00" /><text y="280.00" x="400.00" id="3903">CL-85V</text><rect Type="system" x="400.00" id="3905" height="5.00" width="5.00" Name="D87E-A" ID="30001010" Region="柯尔斯" y="480.00" /><text y="480.00" x="400.00" id="3906">D87E-A</text><rect Type="system" x="400.00" id="3908" height="5.00" width="5.00" Name="JWJ-P1" ID="30001007" Region="柯尔斯" y="580.00" /><text y="580.00" x="400.00" id="3909">JWJ-P1</text><rect Type="system" x="450.00" id="3911" height="5.00" width="5.00" Name="K-B2D3" ID="30001011" Region="柯尔斯" y="420.00" /><text y="420.00" x="450.00" id="3912">K-B2D3</text><rect Type="system" x="480.00" id="3914" height="5.00" width="5.00" Name="V7D-JD" ID="30001015" Region="柯尔斯" y="520.00" /><text y="520.00" x="480.00" id="3915">V7D-JD</text><rect Type="system" x="480.00" id="3917" height="5.00" width="5.00" Name="J7A-UR" ID="30001013" Region="柯尔斯" y="580.00" /><text y="580.00" x="480.00" id="3918">J7A-UR</text><rect Type="system" x="510.00" id="3920" height="5.00" width="5.00" Name="5E-VR8" ID="30001014" Region="柯尔斯" y="450.00" /><text y="450.00" x="510.00" id="3921">5E-VR8</text><rect Type="system" x="550.00" id="3923" height="5.00" width="5.00" Name="KLMT-W" ID="30001020" Region="柯尔斯" y="150.00" /><text y="150.00" x="550.00" id="3924">KLMT-W</text><rect Type="system" x="500.00" id="3926" height="5.00" width="5.00" Name="8G-MQV" ID="30001017" Region="柯尔斯" y="240.00" /><text y="240.00" x="500.00" id="3927">8G-MQV</text><rect Type="system" x="550.00" id="3929" height="5.00" width="5.00" Name="VOL-MI" ID="30001019" Region="柯尔斯" y="280.00" /><text y="280.00" x="550.00" id="3930">VOL-MI</text><rect Type="system" x="650.00" id="3932" height="5.00" width="5.00" Name="HLW-HP" ID="30001016" Region="柯尔斯" y="150.00" /><text y="150.00" x="650.00" id="3933">HLW-HP</text><rect Type="system" x="670.00" id="3935" height="5.00" width="5.00" Name="K7-LDX" ID="30000659" Region="灼热之径" y="430.00" /><text y="430.00" x="670.00" id="3936">K7-LDX</text><rect Type="system" x="720.00" id="3938" height="5.00" width="5.00" Name="RA-NXN" ID="30001018" Region="柯尔斯" y="150.00" /><text y="150.00" x="720.00" id="3939">RA-NXN</text><rect Type="system" x="740.00" id="3941" height="5.00" width="5.00" Name="S-E6ES" ID="30000657" Region="灼热之径" y="400.00" /><text y="400.00" x="740.00" id="3942">S-E6ES</text><rect Type="system" x="770.00" id="3944" height="5.00" width="5.00" Name="K-MGJ7" ID="30001006" Region="柯尔斯" y="580.00" /><text y="580.00" x="770.00" id="3945">K-MGJ7</text><rect Type="system" x="800.00" id="3947" height="5.00" width="5.00" Name="XX9-WV" ID="30001021" Region="柯尔斯" y="200.00" /><text y="200.00" x="800.00" id="3948">XX9-WV</text><rect Type="system" x="820.00" id="3950" height="5.00" width="5.00" Name="ES-UWY" ID="30001029" Region="柯尔斯" y="360.00" /><text y="360.00" x="820.00" id="3951">ES-UWY</text><rect Type="system" x="820.00" id="3953" height="5.00" width="5.00" Name="UW9B-F" ID="30001003" Region="柯尔斯" y="550.00" /><text y="550.00" x="820.00" id="3954">UW9B-F</text><rect Type="system" x="850.00" id="3956" height="5.00" width="5.00" Name="M-N7WD" ID="30001032" Region="柯尔斯" y="270.00" /><text y="270.00" x="850.00" id="3957">M-N7WD</text><rect Type="system" x="860.00" id="3959" height="5.00" width="5.00" Name="Y-DW5K" ID="30001031" Region="柯尔斯" y="320.00" /><text y="320.00" x="860.00" id="3960">Y-DW5K</text><rect Type="system" x="850.00" id="3962" height="5.00" width="5.00" Name="H-ADOC" ID="30001001" Region="柯尔斯" y="450.00" /><text y="450.00" x="850.00" id="3963">H-ADOC</text><rect Type="system" x="850.00" id="3965" height="5.00" width="5.00" Name="G-G78S" ID="30001002" Region="柯尔斯" y="500.00" /><text y="500.00" x="850.00" id="3966">G-G78S</text><rect Type="system" x="900.00" id="3968" height="5.00" width="5.00" Name="ZZ-ZWC" ID="30001004" Region="柯尔斯" y="550.00" /><text y="550.00" x="900.00" id="3969">ZZ-ZWC</text><rect Type="system" x="920.00" id="3971" height="5.00" width="5.00" Name="S1DP-Y" ID="30001030" Region="柯尔斯" y="250.00" /><text y="250.00" x="920.00" id="3972">S1DP-Y</text><rect Type="system" x="940.00" id="3974" height="5.00" width="5.00" Name="QFEW-K" ID="30001033" Region="柯尔斯" y="350.00" /><text y="350.00" x="940.00" id="3975">QFEW-K</text><rect Type="system" x="950.00" id="3977" height="5.00" width="5.00" Name="EQX-AE" ID="30001035" Region="柯尔斯" y="400.00" /><text y="400.00" x="950.00" id="3978">EQX-AE</text><rect Type="system" x="950.00" id="3980" height="5.00" width="5.00" Name="OSY-UD" ID="30001005" Region="柯尔斯" y="500.00" /><text y="500.00" x="950.00" id="3981">OSY-UD</text><rect Type="system" x="980.00" id="3983" height="5.00" width="5.00" Name="CVY-UC" ID="30001034" Region="柯尔斯" y="300.00" /><text y="300.00" x="980.00" id="3984">CVY-UC</text><rect Type="system" x="20.00" id="3986" height="5.00" width="5.00" Name="森达雅" ID="30000015" Region="德里克" y="300.00" /><text y="300.00" x="20.00" id="3987">森达雅</text><rect Type="system" x="50.00" id="3989" height="5.00" width="5.00" Name="1P-WGB" ID="30001170" Region="卡彻" y="580.00" /><text y="580.00" x="50.00" id="3990">1P-WGB</text><rect Type="system" x="300.00" id="3992" height="5.00" width="5.00" Name="U-QVWD" ID="30001155" Region="卡彻" y="620.00" /><text y="620.00" x="300.00" id="3993">U-QVWD</text><rect Type="system" x="550.00" id="3995" height="5.00" width="5.00" Name="UT-UZB" ID="30000921" Region="大荒野" y="100.00" /><text y="100.00" x="550.00" id="3996">UT-UZB</text><rect Type="system" x="600.00" id="3998" height="5.00" width="5.00" Name="ARG-3R" ID="30000656" Region="灼热之径" y="330.00" /><text y="330.00" x="600.00" id="3999">ARG-3R</text><rect Type="system" x="640.00" id="4001" height="5.00" width="5.00" Name="U-IVGH" ID="30000660" Region="灼热之径" y="480.00" /><text y="480.00" x="640.00" id="4002">U-IVGH</text><rect Type="system" x="640.00" id="4004" height="5.00" width="5.00" Name="R-3FBU" ID="30000658" Region="灼热之径" y="380.00" /><text y="380.00" x="640.00" id="4005">R-3FBU</text><rect Type="system" x="710.00" id="4007" height="5.00" width="5.00" Name="AH8-Q7" ID="30000691" Region="灼热之径" y="480.00" /><text y="480.00" x="710.00" id="4008">AH8-Q7</text><rect Type="system" x="720.00" id="4010" height="5.00" width="5.00" Name="EIN-QG" ID="30000655" Region="灼热之径" y="340.00" /><text y="340.00" x="720.00" id="4011">EIN-QG</text><rect Type="system" x="750.00" id="4013" height="5.00" width="5.00" Name="ZFJH-T" ID="30000688" Region="灼热之径" y="220.00" /><text y="220.00" x="750.00" id="4014">ZFJH-T</text><rect Type="system" x="420.00" id="4016" height="5.00" width="5.00" Name="荒渊" ID="30100000" Region="赞颂之域" y="70.00" /><text y="70.00" x="420.00" id="4017">荒渊</text><line style="stroke:blue;fill:blue;" id="4019" x2="150.00" x1="80.00" y1="100.00" y2="100.00" /><line style="stroke:blue;fill:blue;" id="4020" x2="20.00" x1="70.00" y1="360.00" y2="300.00" /><line style="stroke:blue;fill:blue;" id="4021" x2="120.00" x1="70.00" y1="360.00" y2="420.00" /><line style="stroke:blue;fill:blue;" id="4022" x2="120.00" x1="70.00" y1="360.00" y2="320.00" /><line style="stroke:blue;fill:blue;" id="4023" x2="120.00" x1="100.00" y1="550.00" y2="480.00" /><line style="stroke:blue;fill:blue;" id="4024" x2="50.00" x1="100.00" y1="550.00" y2="580.00" /><line style="stroke:blue;fill:blue;" id="4025" x2="120.00" x1="120.00" y1="480.00" y2="420.00" /><line style="stroke:blue;fill:blue;" id="4026" x2="100.00" x1="120.00" y1="480.00" y2="550.00" /><line style="stroke:blue;fill:blue;" id="4027" x2="120.00" x1="120.00" y1="250.00" y2="320.00" /><line style="stroke:blue;fill:blue;" id="4028" x2="170.00" x1="120.00" y1="320.00" y2="360.00" /><line style="stroke:blue;fill:blue;" id="4029" x2="70.00" x1="120.00" y1="320.00" y2="360.00" /><line style="stroke:blue;fill:blue;" id="4030" x2="120.00" x1="120.00" y1="320.00" y2="250.00" /><line style="stroke:blue;fill:blue;" id="4031" x2="170.00" x1="120.00" y1="420.00" y2="360.00" /><line style="stroke:blue;fill:blue;" id="4032" x2="70.00" x1="120.00" y1="420.00" y2="360.00" /><line style="stroke:blue;fill:blue;" id="4033" x2="120.00" x1="120.00" y1="420.00" y2="480.00" /><line style="stroke:blue;fill:blue;" id="4034" x2="200.00" x1="150.00" y1="100.00" y2="150.00" /><line style="stroke:blue;fill:blue;" id="4035" x2="250.00" x1="150.00" y1="100.00" y2="100.00" /><line style="stroke:blue;fill:blue;" id="4036" x2="80.00" x1="150.00" y1="100.00" y2="100.00" /><line style="stroke:blue;fill:blue;" id="4037" x2="280.00" x1="170.00" y1="360.00" y2="320.00" /><line style="stroke:blue;fill:blue;" id="4038" x2="120.00" x1="170.00" y1="360.00" y2="420.00" /><line style="stroke:blue;fill:blue;" id="4039" x2="120.00" x1="170.00" y1="360.00" y2="320.00" /><line style="stroke:blue;fill:blue;" id="4040" x2="280.00" x1="200.00" y1="150.00" y2="150.00" /><line style="stroke:blue;fill:blue;" id="4041" x2="150.00" x1="200.00" y1="150.00" y2="100.00" /><line style="stroke:blue;fill:blue;" id="4042" x2="320.00" x1="250.00" y1="100.00" y2="100.00" /><line style="stroke:blue;fill:blue;" id="4043" x2="150.00" x1="250.00" y1="100.00" y2="100.00" /><line style="stroke:blue;fill:blue;" id="4044" x2="280.00" x1="250.00" y1="200.00" y2="150.00" /><line style="stroke:blue;fill:blue;" id="4045" x2="200.00" x1="280.00" y1="150.00" y2="150.00" /><line style="stroke:blue;fill:blue;" id="4046" x2="250.00" x1="280.00" y1="150.00" y2="200.00" /><line style="stroke:blue;fill:blue;" id="4047" x2="320.00" x1="280.00" y1="150.00" y2="100.00" /><line style="stroke:blue;fill:blue;" id="4048" x2="280.00" x1="280.00" y1="320.00" y2="250.00" /><line style="stroke:blue;fill:blue;" id="4049" x2="350.00" x1="280.00" y1="320.00" y2="300.00" /><line style="stroke:blue;fill:blue;" id="4050" x2="170.00" x1="280.00" y1="320.00" y2="360.00" /><line style="stroke:blue;fill:blue;" id="4051" x2="350.00" x1="280.00" y1="250.00" y2="300.00" /><line style="stroke:blue;fill:blue;" id="4052" x2="280.00" x1="280.00" y1="250.00" y2="320.00" /><line style="stroke:blue;fill:blue;" id="4053" x2="350.00" x1="300.00" y1="500.00" y2="550.00" /><line style="stroke:blue;fill:blue;" id="4054" x2="350.00" x1="300.00" y1="500.00" y2="450.00" /><line style="stroke:blue;fill:blue;" id="4055" x2="320.00" x1="320.00" y1="50.00" y2="100.00" /><line style="stroke:blue;fill:blue;" id="4056" x2="550.00" x1="320.00" y1="100.00" y2="150.00" /><line style="stroke:blue;fill:blue;" id="4057" x2="320.00" x1="320.00" y1="100.00" y2="50.00" /><line style="stroke:blue;fill:blue;" id="4058" x2="250.00" x1="320.00" y1="100.00" y2="100.00" /><line style="stroke:blue;fill:blue;" id="4059" x2="280.00" x1="320.00" y1="100.00" y2="150.00" /><line style="stroke:blue;fill:blue;" id="4060" x2="380.00" x1="350.00" y1="300.00" y2="350.00" /><line style="stroke:blue;fill:blue;" id="4061" x2="280.00" x1="350.00" y1="300.00" y2="250.00" /><line style="stroke:blue;fill:blue;" id="4062" x2="400.00" x1="350.00" y1="300.00" y2="280.00" /><line style="stroke:blue;fill:blue;" id="4063" x2="280.00" x1="350.00" y1="300.00" y2="320.00" /><line style="stroke:blue;fill:blue;" id="4064" x2="300.00" x1="350.00" y1="450.00" y2="500.00" /><line style="stroke:blue;fill:blue;" id="4065" x2="400.00" x1="350.00" y1="450.00" y2="480.00" /><line style="stroke:blue;fill:blue;" id="4066" x2="450.00" x1="350.00" y1="450.00" y2="420.00" /><line style="stroke:blue;fill:blue;" id="4067" x2="400.00" x1="350.00" y1="550.00" y2="580.00" /><line style="stroke:blue;fill:blue;" id="4068" x2="300.00" x1="350.00" y1="550.00" y2="500.00" /><line style="stroke:blue;fill:blue;" id="4069" x2="400.00" x1="350.00" y1="550.00" y2="480.00" /><line style="stroke:blue;fill:blue;" id="4070" x2="300.00" x1="350.00" y1="550.00" y2="620.00" /><line style="stroke:blue;fill:blue;" id="4071" x2="350.00" x1="380.00" y1="350.00" y2="300.00" /><line style="stroke:blue;fill:blue;" id="4072" x2="400.00" x1="400.00" y1="175.50" y2="224.50" /><line style="stroke:blue;fill:blue;" id="4073" x2="400.00" x1="400.00" y1="224.50" y2="280.00" /><line style="stroke:blue;fill:blue;" id="4074" x2="400.00" x1="400.00" y1="224.50" y2="175.50" /><line style="stroke:blue;fill:blue;" id="4075" x2="500.00" x1="400.00" y1="280.00" y2="240.00" /><line style="stroke:blue;fill:blue;" id="4076" x2="400.00" x1="400.00" y1="280.00" y2="224.50" /><line style="stroke:blue;fill:blue;" id="4077" x2="350.00" x1="400.00" y1="280.00" y2="300.00" /><line style="stroke:blue;fill:blue;" id="4078" x2="350.00" x1="400.00" y1="480.00" y2="550.00" /><line style="stroke:blue;fill:blue;" id="4079" x2="450.00" x1="400.00" y1="480.00" y2="420.00" /><line style="stroke:blue;fill:blue;" id="4080" x2="350.00" x1="400.00" y1="480.00" y2="450.00" /><line style="stroke:blue;fill:blue;" id="4081" x2="510.00" x1="400.00" y1="480.00" y2="450.00" /><line style="stroke:blue;fill:blue;" id="4082" x2="480.00" x1="400.00" y1="480.00" y2="520.00" /><line style="stroke:blue;fill:blue;" id="4083" x2="350.00" x1="400.00" y1="580.00" y2="550.00" /><line style="stroke:blue;fill:blue;" id="4084" x2="480.00" x1="400.00" y1="580.00" y2="580.00" /><line style="stroke:blue;fill:blue;" id="4085" x2="400.00" x1="450.00" y1="420.00" y2="480.00" /><line style="stroke:blue;fill:blue;" id="4086" x2="350.00" x1="450.00" y1="420.00" y2="450.00" /><line style="stroke:blue;fill:blue;" id="4087" x2="510.00" x1="450.00" y1="420.00" y2="450.00" /><line style="stroke:blue;fill:blue;" id="4088" x2="550.00" x1="450.00" y1="420.00" y2="280.00" /><line style="stroke:blue;fill:blue;" id="4089" x2="400.00" x1="480.00" y1="520.00" y2="480.00" /><line style="stroke:blue;fill:blue;" id="4090" x2="510.00" x1="480.00" y1="520.00" y2="450.00" /><line style="stroke:blue;fill:blue;" id="4091" x2="400.00" x1="480.00" y1="580.00" y2="580.00" /><line style="stroke:blue;fill:blue;" id="4092" x2="400.00" x1="510.00" y1="450.00" y2="480.00" /><line style="stroke:blue;fill:blue;" id="4093" x2="450.00" x1="510.00" y1="450.00" y2="420.00" /><line style="stroke:blue;fill:blue;" id="4094" x2="480.00" x1="510.00" y1="450.00" y2="520.00" /><line style="stroke:blue;fill:blue;" id="4095" x2="550.00" x1="550.00" y1="150.00" y2="100.00" /><line style="stroke:blue;fill:blue;" id="4096" x2="650.00" x1="550.00" y1="150.00" y2="150.00" /><line style="stroke:blue;fill:blue;" id="4097" x2="320.00" x1="550.00" y1="150.00" y2="100.00" /><line style="stroke:blue;fill:blue;" id="4098" x2="550.00" x1="500.00" y1="240.00" y2="280.00" /><line style="stroke:blue;fill:blue;" id="4099" x2="400.00" x1="500.00" y1="240.00" y2="280.00" /><line style="stroke:blue;fill:blue;" id="4100" x2="600.00" x1="550.00" y1="280.00" y2="330.00" /><line style="stroke:blue;fill:blue;" id="4101" x2="450.00" x1="550.00" y1="280.00" y2="420.00" /><line style="stroke:blue;fill:blue;" id="4102" x2="650.00" x1="550.00" y1="280.00" y2="150.00" /><line style="stroke:blue;fill:blue;" id="4103" x2="500.00" x1="550.00" y1="280.00" y2="240.00" /><line style="stroke:blue;fill:blue;" id="4104" x2="720.00" x1="650.00" y1="150.00" y2="150.00" /><line style="stroke:blue;fill:blue;" id="4105" x2="550.00" x1="650.00" y1="150.00" y2="280.00" /><line style="stroke:blue;fill:blue;" id="4106" x2="550.00" x1="650.00" y1="150.00" y2="150.00" /><line style="stroke:blue;fill:blue;" id="4107" x2="740.00" x1="670.00" y1="430.00" y2="400.00" /><line style="stroke:blue;fill:blue;" id="4108" x2="640.00" x1="670.00" y1="430.00" y2="380.00" /><line style="stroke:blue;fill:blue;" id="4109" x2="640.00" x1="670.00" y1="430.00" y2="480.00" /><line style="stroke:blue;fill:blue;" id="4110" x2="710.00" x1="670.00" y1="430.00" y2="480.00" /><line style="stroke:blue;fill:blue;" id="4111" x2="650.00" x1="720.00" y1="150.00" y2="150.00" /><line style="stroke:blue;fill:blue;" id="4112" x2="800.00" x1="720.00" y1="150.00" y2="200.00" /><line style="stroke:blue;fill:blue;" id="4113" x2="720.00" x1="740.00" y1="400.00" y2="340.00" /><line style="stroke:blue;fill:blue;" id="4114" x2="670.00" x1="740.00" y1="400.00" y2="430.00" /><line style="stroke:blue;fill:blue;" id="4115" x2="850.00" x1="740.00" y1="400.00" y2="450.00" /><line style="stroke:blue;fill:blue;" id="4116" x2="820.00" x1="740.00" y1="400.00" y2="360.00" /><line style="stroke:blue;fill:blue;" id="4117" x2="820.00" x1="770.00" y1="580.00" y2="550.00" /><line style="stroke:blue;fill:blue;" id="4118" x2="750.00" x1="800.00" y1="200.00" y2="220.00" /><line style="stroke:blue;fill:blue;" id="4119" x2="720.00" x1="800.00" y1="200.00" y2="150.00" /><line style="stroke:blue;fill:blue;" id="4120" x2="850.00" x1="800.00" y1="200.00" y2="270.00" /><line style="stroke:blue;fill:blue;" id="4121" x2="740.00" x1="820.00" y1="360.00" y2="400.00" /><line style="stroke:blue;fill:blue;" id="4122" x2="860.00" x1="820.00" y1="360.00" y2="320.00" /><line style="stroke:blue;fill:blue;" id="4123" x2="850.00" x1="820.00" y1="550.00" y2="500.00" /><line style="stroke:blue;fill:blue;" id="4124" x2="770.00" x1="820.00" y1="550.00" y2="580.00" /><line style="stroke:blue;fill:blue;" id="4125" x2="800.00" x1="850.00" y1="270.00" y2="200.00" /><line style="stroke:blue;fill:blue;" id="4126" x2="920.00" x1="850.00" y1="270.00" y2="250.00" /><line style="stroke:blue;fill:blue;" id="4127" x2="860.00" x1="850.00" y1="270.00" y2="320.00" /><line style="stroke:blue;fill:blue;" id="4128" x2="850.00" x1="860.00" y1="320.00" y2="450.00" /><line style="stroke:blue;fill:blue;" id="4129" x2="820.00" x1="860.00" y1="320.00" y2="360.00" /><line style="stroke:blue;fill:blue;" id="4130" x2="850.00" x1="860.00" y1="320.00" y2="270.00" /><line style="stroke:blue;fill:blue;" id="4131" x2="940.00" x1="860.00" y1="320.00" y2="350.00" /><line style="stroke:blue;fill:blue;" id="4132" x2="740.00" x1="850.00" y1="450.00" y2="400.00" /><line style="stroke:blue;fill:blue;" id="4133" x2="850.00" x1="850.00" y1="450.00" y2="500.00" /><line style="stroke:blue;fill:blue;" id="4134" x2="950.00" x1="850.00" y1="450.00" y2="500.00" /><line style="stroke:blue;fill:blue;" id="4135" x2="860.00" x1="850.00" y1="450.00" y2="320.00" /><line style="stroke:blue;fill:blue;" id="4136" x2="950.00" x1="850.00" y1="450.00" y2="400.00" /><line style="stroke:blue;fill:blue;" id="4137" x2="850.00" x1="850.00" y1="500.00" y2="450.00" /><line style="stroke:blue;fill:blue;" id="4138" x2="820.00" x1="850.00" y1="500.00" y2="550.00" /><line style="stroke:blue;fill:blue;" id="4139" x2="900.00" x1="850.00" y1="500.00" y2="550.00" /><line style="stroke:blue;fill:blue;" id="4140" x2="950.00" x1="850.00" y1="500.00" y2="500.00" /><line style="stroke:blue;fill:blue;" id="4141" x2="850.00" x1="900.00" y1="550.00" y2="500.00" /><line style="stroke:blue;fill:blue;" id="4142" x2="850.00" x1="920.00" y1="250.00" y2="270.00" /><line style="stroke:blue;fill:blue;" id="4143" x2="860.00" x1="940.00" y1="350.00" y2="320.00" /><line style="stroke:blue;fill:blue;" id="4144" x2="980.00" x1="940.00" y1="350.00" y2="300.00" /><line style="stroke:blue;fill:blue;" id="4145" x2="950.00" x1="940.00" y1="350.00" y2="400.00" /><line style="stroke:blue;fill:blue;" id="4146" x2="850.00" x1="950.00" y1="400.00" y2="450.00" /><line style="stroke:blue;fill:blue;" id="4147" x2="940.00" x1="950.00" y1="400.00" y2="350.00" /><line style="stroke:blue;fill:blue;" id="4148" x2="850.00" x1="950.00" y1="500.00" y2="450.00" /><line style="stroke:blue;fill:blue;" id="4149" x2="850.00" x1="950.00" y1="500.00" y2="500.00" /><line style="stroke:blue;fill:blue;" id="4150" x2="940.00" x1="980.00" y1="300.00" y2="350.00" /><line style="stroke:blue;fill:blue;" id="4151" x2="70.00" x1="20.00" y1="300.00" y2="360.00" /><line style="stroke:blue;fill:blue;" id="4152" x2="100.00" x1="50.00" y1="580.00" y2="550.00" /><line style="stroke:blue;fill:blue;" id="4153" x2="350.00" x1="300.00" y1="620.00" y2="550.00" /><line style="stroke:blue;fill:blue;" id="4154" x2="550.00" x1="550.00" y1="100.00" y2="150.00" /><line style="stroke:blue;fill:blue;" id="4155" x2="640.00" x1="600.00" y1="330.00" y2="380.00" /><line style="stroke:blue;fill:blue;" id="4156" x2="550.00" x1="600.00" y1="330.00" y2="280.00" /><line style="stroke:blue;fill:blue;" id="4157" x2="670.00" x1="640.00" y1="480.00" y2="430.00" /><line style="stroke:blue;fill:blue;" id="4158" x2="720.00" x1="640.00" y1="380.00" y2="340.00" /><line style="stroke:blue;fill:blue;" id="4159" x2="600.00" x1="640.00" y1="380.00" y2="330.00" /><line style="stroke:blue;fill:blue;" id="4160" x2="670.00" x1="640.00" y1="380.00" y2="430.00" /><line style="stroke:blue;fill:blue;" id="4161" x2="670.00" x1="710.00" y1="480.00" y2="430.00" /><line style="stroke:blue;fill:blue;" id="4162" x2="740.00" x1="720.00" y1="340.00" y2="400.00" /><line style="stroke:blue;fill:blue;" id="4163" x2="640.00" x1="720.00" y1="340.00" y2="380.00" /><line style="stroke:blue;fill:blue;" id="4164" x2="800.00" x1="750.00" y1="220.00" y2="200.00" /></svg>
