<?xml version="1.0" standalone="yes"?><!DOCTYPE svg PUBLIC "-//W3C//DTD SVG 1.1//EN" "http://www.w3.org/Graphics/SVG/1.1/DTD/svg11.dtd"[]><svg height="800.00" id="17372" width="1050.00" xmlns="http://www.w3.org/2000/svg" xmlns:xlink="http://www.w3.org/1999/xlink"><rect Type="system" Region="柯埃佐" height="5.00" y="720.00" Name="埃巴特" width="5.00" x="60.00" id="17373" ID="30005062" /><text x="60.00" y="720.00" id="17374">埃巴特</text><rect Type="system" Region="柯埃佐" height="5.00" y="350.00" Name="欧尔迪恩" width="5.00" x="40.00" id="17376" ID="30005060" /><text x="40.00" y="350.00" id="17377">欧尔迪恩</text><rect Type="system" Region="柯埃佐" height="5.00" y="670.00" Name="歇玛耶尔" width="5.00" x="50.00" id="17379" ID="30005063" /><text x="50.00" y="670.00" id="17380">歇玛耶尔</text><rect Type="system" Region="柯埃佐" height="5.00" y="380.00" Name="米厦" width="5.00" x="80.00" id="17382" ID="30005059" /><text x="80.00" y="380.00" id="17383">米厦</text><rect Type="system" Region="柯埃佐" height="5.00" y="200.00" Name="金科恩" width="5.00" x="80.00" id="17385" ID="30005055" /><text x="80.00" y="200.00" id="17386">金科恩</text><rect Type="system" Region="柯埃佐" height="5.00" y="600.00" Name="欧古瑟尔" width="5.00" x="100.00" id="17388" ID="30005068" /><text x="100.00" y="600.00" id="17389">欧古瑟尔</text><rect Type="system" Region="柯埃佐" height="5.00" y="650.00" Name="佐仑耶恩" width="5.00" x="100.00" id="17391" ID="30005067" /><text x="100.00" y="650.00" id="17392">佐仑耶恩</text><rect Type="system" Region="柯埃佐" height="5.00" y="450.00" Name="佩布赫" width="5.00" x="120.00" id="17394" ID="30005061" /><text x="120.00" y="450.00" id="17395">佩布赫</text><rect Type="system" Region="柯埃佐" height="5.00" y="680.00" Name="马弗拉" width="5.00" x="150.00" id="17397" ID="30005064" /><text x="150.00" y="680.00" id="17398">马弗拉</text><rect Type="system" Region="柯埃佐" height="5.00" y="400.00" Name="尼什尔" width="5.00" x="150.00" id="17400" ID="30005058" /><text x="150.00" y="400.00" id="17401">尼什尔</text><rect Type="system" Region="柯埃佐" height="5.00" y="80.00" Name="库鲁" width="5.00" x="150.00" id="17403" ID="30005050" /><text x="150.00" y="80.00" id="17404">库鲁</text><rect Type="system" Region="柯埃佐" height="5.00" y="350.00" Name="莎赫" width="5.00" x="150.00" id="17406" ID="30005057" /><text x="150.00" y="350.00" id="17407">莎赫</text><rect Type="system" Region="柯埃佐" height="5.00" y="300.00" Name="基扎马" width="5.00" x="150.00" id="17409" ID="30005056" /><text x="150.00" y="300.00" id="17410">基扎马</text><rect Type="system" Region="柯埃佐" height="5.00" y="620.00" Name="阿尔兹" width="5.00" x="150.00" id="17412" ID="30005065" /><text x="150.00" y="620.00" id="17413">阿尔兹</text><rect Type="system" Region="柯埃佐" height="5.00" y="150.00" Name="索欧米" width="5.00" x="180.00" id="17415" ID="30005052" /><text x="180.00" y="150.00" id="17416">索欧米</text><rect Type="system" Region="柯埃佐" height="5.00" y="200.00" Name="纳勒" width="5.00" x="180.00" id="17418" ID="30005054" /><text x="180.00" y="200.00" id="17419">纳勒</text><rect Type="system" Region="柯埃佐" height="5.00" y="80.00" Name="查欧加" width="5.00" x="220.00" id="17421" ID="30005051" /><text x="220.00" y="80.00" id="17422">查欧加</text><rect Type="system" Region="柯埃佐" height="5.00" y="570.00" Name="克里因" width="5.00" x="190.00" id="17424" ID="30005066" /><text x="190.00" y="570.00" id="17425">克里因</text><rect Type="system" Region="柯埃佐" height="5.00" y="120.00" Name="伊米尔" width="5.00" x="280.00" id="17427" ID="30005053" /><text x="280.00" y="120.00" id="17428">伊米尔</text><rect Type="system" Region="柯埃佐" height="5.00" y="20.00" Name="阿尔察" width="5.00" x="300.00" id="17430" ID="30005086" /><text x="300.00" y="20.00" id="17431">阿尔察</text><rect Type="system" Region="柯埃佐" height="5.00" y="320.00" Name="布里迪" width="5.00" x="350.00" id="17433" ID="30005034" /><text x="350.00" y="320.00" id="17434">布里迪</text><rect Type="system" Region="柯埃佐" height="5.00" y="180.00" Name="杰尼" width="5.00" x="350.00" id="17436" ID="30005033" /><text x="350.00" y="180.00" id="17437">杰尼</text><rect Type="system" Region="柯埃佐" height="5.00" y="450.00" Name="尼沙尔" width="5.00" x="330.00" id="17439" ID="30005040" /><text x="330.00" y="450.00" id="17440">尼沙尔</text><rect Type="system" Region="柯埃佐" height="5.00" y="80.00" Name="利帕尔" width="5.00" x="380.00" id="17442" ID="30005087" /><text x="380.00" y="80.00" id="17443">利帕尔</text><rect Type="system" Region="柯埃佐" height="5.00" y="20.00" Name="阮妮" width="5.00" x="400.00" id="17445" ID="30005085" /><text x="400.00" y="20.00" id="17446">阮妮</text><rect Type="system" Region="柯埃佐" height="5.00" y="650.00" Name="马萨努" width="5.00" x="380.00" id="17448" ID="30005041" /><text x="380.00" y="650.00" id="17449">马萨努</text><rect Type="system" Region="柯埃佐" height="5.00" y="450.00" Name="安姆多尼" width="5.00" x="400.00" id="17451" ID="30005036" /><text x="400.00" y="450.00" id="17452">安姆多尼</text><rect Type="system" Region="柯埃佐" height="5.00" y="550.00" Name="勒瓦" width="5.00" x="400.00" id="17454" ID="30005039" /><text x="400.00" y="550.00" id="17455">勒瓦</text><rect Type="system" Region="柯埃佐" height="5.00" y="200.00" Name="勒比亚" width="5.00" x="400.00" id="17457" ID="30005031" /><text x="400.00" y="200.00" id="17458">勒比亚</text><rect Type="system" Region="柯埃佐" height="5.00" y="380.00" Name="安米" width="5.00" x="400.00" id="17460" ID="30005035" /><text x="400.00" y="380.00" id="17461">安米</text><rect Type="system" Region="柯埃佐" height="5.00" y="150.00" Name="卡巴拉" width="5.00" x="400.00" id="17463" ID="30005032" /><text x="400.00" y="150.00" id="17464">卡巴拉</text><rect Type="system" Region="柯埃佐" height="5.00" y="300.00" Name="芬斯" width="5.00" x="420.00" id="17466" ID="30005030" /><text x="420.00" y="300.00" id="17467">芬斯</text><rect Type="system" Region="柯埃佐" height="5.00" y="50.00" Name="米罗纳" width="5.00" x="450.00" id="17469" ID="30005084" /><text x="450.00" y="50.00" id="17470">米罗纳</text><rect Type="system" Region="柯埃佐" height="5.00" y="575.50" Name="柯埃佐首星" width="5.00" x="500.00" id="17472" ID="30005038" /><text x="500.00" y="575.50" id="17473">柯埃佐首星</text><rect Type="system" Region="柯埃佐" height="5.00" y="624.50" Name="纳奎格德" width="5.00" x="500.00" id="17475" ID="30005043" /><text x="500.00" y="624.50" id="17476">纳奎格德</text><rect Type="system" Region="柯埃佐" height="5.00" y="520.00" Name="康诺班" width="5.00" x="520.00" id="17478" ID="30045042" /><text x="520.00" y="520.00" id="17479">康诺班</text><rect Type="system" Region="柯埃佐" height="5.00" y="480.00" Name="魔纳" width="5.00" x="550.00" id="17481" ID="30005037" /><text x="550.00" y="480.00" id="17482">魔纳</text><rect Type="system" Region="柯埃佐" height="5.00" y="50.00" Name="杰丹达恩" width="5.00" x="550.00" id="17484" ID="30005083" /><text x="550.00" y="50.00" id="17485">杰丹达恩</text><rect Type="system" Region="柯埃佐" height="5.00" y="200.00" Name="兰诺泽" width="5.00" x="580.00" id="17487" ID="30005080" /><text x="580.00" y="200.00" id="17488">兰诺泽</text><rect Type="system" Region="柯埃佐" height="5.00" y="550.00" Name="瑟米" width="5.00" x="600.00" id="17490" ID="30005042" /><text x="600.00" y="550.00" id="17491">瑟米</text><rect Type="system" Region="柯埃佐" height="5.00" y="50.00" Name="恩纳" width="5.00" x="620.00" id="17493" ID="30005082" /><text x="620.00" y="50.00" id="17494">恩纳</text><rect Type="system" Region="柯埃佐" height="5.00" y="310.00" Name="达然" width="5.00" x="600.00" id="17496" ID="30005074" /><text x="600.00" y="310.00" id="17497">达然</text><rect Type="system" Region="柯埃佐" height="5.00" y="375.50" Name="查克塔伦" width="5.00" x="650.00" id="17499" ID="30035042" /><text x="650.00" y="375.50" id="17500">查克塔伦</text><rect Type="system" Region="柯埃佐" height="5.00" y="424.50" Name="包法利" width="5.00" x="650.00" id="17502" ID="30005048" /><text x="650.00" y="424.50" id="17503">包法利</text><rect Type="system" Region="柯埃佐" height="5.00" y="150.00" Name="爱塔利" width="5.00" x="650.00" id="17505" ID="30005077" /><text x="650.00" y="150.00" id="17506">爱塔利</text><rect Type="system" Region="柯埃佐" height="5.00" y="530.00" Name="丹亚娜" width="5.00" x="700.00" id="17508" ID="30005044" /><text x="700.00" y="530.00" id="17509">丹亚娜</text><rect Type="system" Region="柯埃佐" height="5.00" y="80.00" Name="皮惹" width="5.00" x="700.00" id="17511" ID="30005081" /><text x="700.00" y="80.00" id="17512">皮惹</text><rect Type="system" Region="柯埃佐" height="5.00" y="280.00" Name="帕纳南" width="5.00" x="700.00" id="17514" ID="30005073" /><text x="700.00" y="280.00" id="17515">帕纳南</text><rect Type="system" Region="柯埃佐" height="5.00" y="400.00" Name="尼拜恩界" width="5.00" x="750.00" id="17517" ID="30005047" /><text x="750.00" y="400.00" id="17518">尼拜恩界</text><rect Type="system" Region="柯埃佐" height="5.00" y="130.00" Name="科坡罗" width="5.00" x="740.00" id="17520" ID="30005078" /><text x="740.00" y="130.00" id="17521">科坡罗</text><rect Type="system" Region="柯埃佐" height="5.00" y="80.00" Name="扎塔马卡" width="5.00" x="800.00" id="17523" ID="30005079" /><text x="800.00" y="80.00" id="17524">扎塔马卡</text><rect Type="system" Region="柯埃佐" height="5.00" y="200.00" Name="雪喀" width="5.00" x="800.00" id="17526" ID="30005076" /><text x="800.00" y="200.00" id="17527">雪喀</text><rect Type="system" Region="柯埃佐" height="5.00" y="380.00" Name="金喀" width="5.00" x="800.00" id="17529" ID="30005046" /><text x="800.00" y="380.00" id="17530">金喀</text><rect Type="system" Region="柯埃佐" height="5.00" y="490.00" Name="纳伊恩" width="5.00" x="800.00" id="17532" ID="30005045" /><text x="800.00" y="490.00" id="17533">纳伊恩</text><rect Type="system" Region="柯埃佐" height="5.00" y="320.00" Name="安恩那德" width="5.00" x="820.00" id="17535" ID="30025042" /><text x="820.00" y="320.00" id="17536">安恩那德</text><rect Type="system" Region="柯埃佐" height="5.00" y="250.00" Name="加德曼" width="5.00" x="850.00" id="17538" ID="30005072" /><text x="850.00" y="250.00" id="17539">加德曼</text><rect Type="system" Region="柯埃佐" height="5.00" y="430.00" Name="安朱比" width="5.00" x="910.00" id="17541" ID="30005049" /><text x="910.00" y="430.00" id="17542">安朱比</text><rect Type="system" Region="柯埃佐" height="5.00" y="300.00" Name="塔达丹" width="5.00" x="900.00" id="17544" ID="30005070" /><text x="900.00" y="300.00" id="17545">塔达丹</text><rect Type="system" Region="柯埃佐" height="5.00" y="350.00" Name="纳霍尔" width="5.00" x="950.00" id="17547" ID="30005069" /><text x="950.00" y="350.00" id="17548">纳霍尔</text><rect Type="system" Region="柯埃佐" height="5.00" y="300.00" Name="查拉斯" width="5.00" x="1000.00" id="17550" ID="30005071" /><text x="1000.00" y="300.00" id="17551">查拉斯</text><rect Type="system" Region="柯埃佐" height="5.00" y="400.00" Name="拉达里" width="5.00" x="1000.00" id="17553" ID="30005075" /><text x="1000.00" y="400.00" id="17554">拉达里</text><rect Type="system" Region="艾里迪亚" height="5.00" y="150.00" Name="维翰" width="5.00" x="20.00" id="17556" ID="30004246" /><text x="20.00" y="150.00" id="17557">维翰</text><rect Type="system" Region="卡尼迪" height="5.00" y="760.00" Name="纳赫米德尔" width="5.00" x="20.00" id="17559" ID="30003922" /><text x="20.00" y="760.00" id="17560">纳赫米德尔</text><rect Type="system" Region="卡尼迪" height="5.00" y="50.00" Name="蒙尼尤库" width="5.00" x="50.00" id="17562" ID="30003881" /><text x="50.00" y="50.00" id="17563">蒙尼尤库</text><rect Type="system" Region="多美" height="5.00" y="250.00" Name="纳莱" width="5.00" x="350.00" id="17565" ID="30002202" /><text x="350.00" y="250.00" id="17566">纳莱</text><rect Type="system" Region="卡尼迪" height="5.00" y="700.00" Name="伊维卡姆" width="5.00" x="320.00" id="17568" ID="30003867" /><text x="320.00" y="700.00" id="17569">伊维卡姆</text><rect Type="system" Region="卡多尔" height="5.00" y="720.00" Name="孙尼尔" width="5.00" x="400.00" id="17571" ID="30004101" /><text x="400.00" y="720.00" id="17572">孙尼尔</text><rect Type="system" Region="吉勒西斯" height="5.00" y="180.00" Name="洛南尼姆" width="5.00" x="480.00" id="17574" ID="30005236" /><text x="480.00" y="180.00" id="17575">洛南尼姆</text><rect Type="system" Region="卡尼迪" height="5.00" y="720.00" Name="莫利亚" width="5.00" x="500.00" id="17577" ID="30003876" /><text x="500.00" y="720.00" id="17578">莫利亚</text><rect Type="system" Region="卡多尔" height="5.00" y="400.00" Name="丹塔恩" width="5.00" x="550.00" id="17580" ID="30004097" /><text x="550.00" y="400.00" id="17581">丹塔恩</text><rect Type="system" Region="吉勒西斯" height="5.00" y="150.00" Name="梅耐" width="5.00" x="600.00" id="17583" ID="30005238" /><text x="600.00" y="150.00" id="17584">梅耐</text><rect Type="system" Region="多美" height="5.00" y="650.00" Name="艾玛" width="5.00" x="640.00" id="17586" ID="30002187" /><text x="640.00" y="650.00" id="17587">艾玛</text><rect Type="system" Region="多美" height="5.00" y="200.00" Name="萨科提" width="5.00" x="900.00" id="17589" ID="30002215" /><text x="900.00" y="200.00" id="17590">萨科提</text><line x2="20.00" style="fill:blue;stroke:blue;" y1="720.00" x1="60.00" id="17592" y2="760.00" /><line x2="50.00" style="fill:blue;stroke:blue;" y1="720.00" x1="60.00" id="17593" y2="670.00" /><line x2="80.00" style="fill:blue;stroke:blue;" y1="350.00" x1="40.00" id="17594" y2="380.00" /><line x2="60.00" style="fill:blue;stroke:blue;" y1="670.00" x1="50.00" id="17595" y2="720.00" /><line x2="150.00" style="fill:blue;stroke:blue;" y1="670.00" x1="50.00" id="17596" y2="680.00" /><line x2="100.00" style="fill:blue;stroke:blue;" y1="670.00" x1="50.00" id="17597" y2="650.00" /><line x2="100.00" style="fill:blue;stroke:blue;" y1="670.00" x1="50.00" id="17598" y2="600.00" /><line x2="150.00" style="fill:blue;stroke:blue;" y1="380.00" x1="80.00" id="17599" y2="350.00" /><line x2="150.00" style="fill:blue;stroke:blue;" y1="380.00" x1="80.00" id="17600" y2="400.00" /><line x2="40.00" style="fill:blue;stroke:blue;" y1="380.00" x1="80.00" id="17601" y2="350.00" /><line x2="20.00" style="fill:blue;stroke:blue;" y1="200.00" x1="80.00" id="17602" y2="150.00" /><line x2="180.00" style="fill:blue;stroke:blue;" y1="200.00" x1="80.00" id="17603" y2="200.00" /><line x2="120.00" style="fill:blue;stroke:blue;" y1="600.00" x1="100.00" id="17604" y2="450.00" /><line x2="50.00" style="fill:blue;stroke:blue;" y1="600.00" x1="100.00" id="17605" y2="670.00" /><line x2="150.00" style="fill:blue;stroke:blue;" y1="600.00" x1="100.00" id="17606" y2="620.00" /><line x2="50.00" style="fill:blue;stroke:blue;" y1="650.00" x1="100.00" id="17607" y2="670.00" /><line x2="150.00" style="fill:blue;stroke:blue;" y1="650.00" x1="100.00" id="17608" y2="620.00" /><line x2="150.00" style="fill:blue;stroke:blue;" y1="450.00" x1="120.00" id="17609" y2="400.00" /><line x2="100.00" style="fill:blue;stroke:blue;" y1="450.00" x1="120.00" id="17610" y2="600.00" /><line x2="50.00" style="fill:blue;stroke:blue;" y1="680.00" x1="150.00" id="17611" y2="670.00" /><line x2="150.00" style="fill:blue;stroke:blue;" y1="680.00" x1="150.00" id="17612" y2="620.00" /><line x2="150.00" style="fill:blue;stroke:blue;" y1="400.00" x1="150.00" id="17613" y2="350.00" /><line x2="80.00" style="fill:blue;stroke:blue;" y1="400.00" x1="150.00" id="17614" y2="380.00" /><line x2="120.00" style="fill:blue;stroke:blue;" y1="400.00" x1="150.00" id="17615" y2="450.00" /><line x2="50.00" style="fill:blue;stroke:blue;" y1="80.00" x1="150.00" id="17616" y2="50.00" /><line x2="220.00" style="fill:blue;stroke:blue;" y1="80.00" x1="150.00" id="17617" y2="80.00" /><line x2="180.00" style="fill:blue;stroke:blue;" y1="80.00" x1="150.00" id="17618" y2="150.00" /><line x2="150.00" style="fill:blue;stroke:blue;" y1="350.00" x1="150.00" id="17619" y2="300.00" /><line x2="150.00" style="fill:blue;stroke:blue;" y1="350.00" x1="150.00" id="17620" y2="400.00" /><line x2="80.00" style="fill:blue;stroke:blue;" y1="350.00" x1="150.00" id="17621" y2="380.00" /><line x2="180.00" style="fill:blue;stroke:blue;" y1="300.00" x1="150.00" id="17622" y2="200.00" /><line x2="150.00" style="fill:blue;stroke:blue;" y1="300.00" x1="150.00" id="17623" y2="350.00" /><line x2="150.00" style="fill:blue;stroke:blue;" y1="620.00" x1="150.00" id="17624" y2="680.00" /><line x2="190.00" style="fill:blue;stroke:blue;" y1="620.00" x1="150.00" id="17625" y2="570.00" /><line x2="100.00" style="fill:blue;stroke:blue;" y1="620.00" x1="150.00" id="17626" y2="650.00" /><line x2="100.00" style="fill:blue;stroke:blue;" y1="620.00" x1="150.00" id="17627" y2="600.00" /><line x2="150.00" style="fill:blue;stroke:blue;" y1="150.00" x1="180.00" id="17628" y2="80.00" /><line x2="220.00" style="fill:blue;stroke:blue;" y1="150.00" x1="180.00" id="17629" y2="80.00" /><line x2="180.00" style="fill:blue;stroke:blue;" y1="150.00" x1="180.00" id="17630" y2="200.00" /><line x2="180.00" style="fill:blue;stroke:blue;" y1="200.00" x1="180.00" id="17631" y2="150.00" /><line x2="280.00" style="fill:blue;stroke:blue;" y1="200.00" x1="180.00" id="17632" y2="120.00" /><line x2="80.00" style="fill:blue;stroke:blue;" y1="200.00" x1="180.00" id="17633" y2="200.00" /><line x2="150.00" style="fill:blue;stroke:blue;" y1="200.00" x1="180.00" id="17634" y2="300.00" /><line x2="150.00" style="fill:blue;stroke:blue;" y1="80.00" x1="220.00" id="17635" y2="80.00" /><line x2="180.00" style="fill:blue;stroke:blue;" y1="80.00" x1="220.00" id="17636" y2="150.00" /><line x2="280.00" style="fill:blue;stroke:blue;" y1="80.00" x1="220.00" id="17637" y2="120.00" /><line x2="150.00" style="fill:blue;stroke:blue;" y1="570.00" x1="190.00" id="17638" y2="620.00" /><line x2="220.00" style="fill:blue;stroke:blue;" y1="120.00" x1="280.00" id="17639" y2="80.00" /><line x2="180.00" style="fill:blue;stroke:blue;" y1="120.00" x1="280.00" id="17640" y2="200.00" /><line x2="380.00" style="fill:blue;stroke:blue;" y1="120.00" x1="280.00" id="17641" y2="80.00" /><line x2="400.00" style="fill:blue;stroke:blue;" y1="20.00" x1="300.00" id="17642" y2="20.00" /><line x2="420.00" style="fill:blue;stroke:blue;" y1="320.00" x1="350.00" id="17643" y2="300.00" /><line x2="400.00" style="fill:blue;stroke:blue;" y1="320.00" x1="350.00" id="17644" y2="380.00" /><line x2="400.00" style="fill:blue;stroke:blue;" y1="180.00" x1="350.00" id="17645" y2="200.00" /><line x2="400.00" style="fill:blue;stroke:blue;" y1="180.00" x1="350.00" id="17646" y2="150.00" /><line x2="400.00" style="fill:blue;stroke:blue;" y1="450.00" x1="330.00" id="17647" y2="450.00" /><line x2="280.00" style="fill:blue;stroke:blue;" y1="80.00" x1="380.00" id="17648" y2="120.00" /><line x2="450.00" style="fill:blue;stroke:blue;" y1="80.00" x1="380.00" id="17649" y2="50.00" /><line x2="450.00" style="fill:blue;stroke:blue;" y1="20.00" x1="400.00" id="17650" y2="50.00" /><line x2="300.00" style="fill:blue;stroke:blue;" y1="20.00" x1="400.00" id="17651" y2="20.00" /><line x2="320.00" style="fill:blue;stroke:blue;" y1="650.00" x1="380.00" id="17652" y2="700.00" /><line x2="400.00" style="fill:blue;stroke:blue;" y1="650.00" x1="380.00" id="17653" y2="720.00" /><line x2="400.00" style="fill:blue;stroke:blue;" y1="650.00" x1="380.00" id="17654" y2="550.00" /><line x2="550.00" style="fill:blue;stroke:blue;" y1="450.00" x1="400.00" id="17655" y2="400.00" /><line x2="400.00" style="fill:blue;stroke:blue;" y1="450.00" x1="400.00" id="17656" y2="380.00" /><line x2="550.00" style="fill:blue;stroke:blue;" y1="450.00" x1="400.00" id="17657" y2="480.00" /><line x2="500.00" style="fill:blue;stroke:blue;" y1="450.00" x1="400.00" id="17658" y2="575.50" /><line x2="400.00" style="fill:blue;stroke:blue;" y1="450.00" x1="400.00" id="17659" y2="550.00" /><line x2="330.00" style="fill:blue;stroke:blue;" y1="450.00" x1="400.00" id="17660" y2="450.00" /><line x2="400.00" style="fill:blue;stroke:blue;" y1="550.00" x1="400.00" id="17661" y2="450.00" /><line x2="500.00" style="fill:blue;stroke:blue;" y1="550.00" x1="400.00" id="17662" y2="575.50" /><line x2="380.00" style="fill:blue;stroke:blue;" y1="550.00" x1="400.00" id="17663" y2="650.00" /><line x2="420.00" style="fill:blue;stroke:blue;" y1="200.00" x1="400.00" id="17664" y2="300.00" /><line x2="400.00" style="fill:blue;stroke:blue;" y1="200.00" x1="400.00" id="17665" y2="150.00" /><line x2="350.00" style="fill:blue;stroke:blue;" y1="200.00" x1="400.00" id="17666" y2="180.00" /><line x2="480.00" style="fill:blue;stroke:blue;" y1="200.00" x1="400.00" id="17667" y2="180.00" /><line x2="420.00" style="fill:blue;stroke:blue;" y1="380.00" x1="400.00" id="17668" y2="300.00" /><line x2="350.00" style="fill:blue;stroke:blue;" y1="380.00" x1="400.00" id="17669" y2="320.00" /><line x2="400.00" style="fill:blue;stroke:blue;" y1="380.00" x1="400.00" id="17670" y2="450.00" /><line x2="600.00" style="fill:blue;stroke:blue;" y1="380.00" x1="400.00" id="17671" y2="310.00" /><line x2="400.00" style="fill:blue;stroke:blue;" y1="150.00" x1="400.00" id="17672" y2="200.00" /><line x2="350.00" style="fill:blue;stroke:blue;" y1="150.00" x1="400.00" id="17673" y2="180.00" /><line x2="350.00" style="fill:blue;stroke:blue;" y1="300.00" x1="420.00" id="17674" y2="250.00" /><line x2="400.00" style="fill:blue;stroke:blue;" y1="300.00" x1="420.00" id="17675" y2="200.00" /><line x2="350.00" style="fill:blue;stroke:blue;" y1="300.00" x1="420.00" id="17676" y2="320.00" /><line x2="400.00" style="fill:blue;stroke:blue;" y1="300.00" x1="420.00" id="17677" y2="380.00" /><line x2="580.00" style="fill:blue;stroke:blue;" y1="300.00" x1="420.00" id="17678" y2="200.00" /><line x2="550.00" style="fill:blue;stroke:blue;" y1="50.00" x1="450.00" id="17679" y2="50.00" /><line x2="400.00" style="fill:blue;stroke:blue;" y1="50.00" x1="450.00" id="17680" y2="20.00" /><line x2="380.00" style="fill:blue;stroke:blue;" y1="50.00" x1="450.00" id="17681" y2="80.00" /><line x2="640.00" style="fill:blue;stroke:blue;" y1="575.50" x1="500.00" id="17682" y2="650.00" /><line x2="400.00" style="fill:blue;stroke:blue;" y1="575.50" x1="500.00" id="17683" y2="450.00" /><line x2="400.00" style="fill:blue;stroke:blue;" y1="575.50" x1="500.00" id="17684" y2="550.00" /><line x2="600.00" style="fill:blue;stroke:blue;" y1="575.50" x1="500.00" id="17685" y2="550.00" /><line x2="500.00" style="fill:blue;stroke:blue;" y1="575.50" x1="500.00" id="17686" y2="624.50" /><line x2="500.00" style="fill:blue;stroke:blue;" y1="624.50" x1="500.00" id="17687" y2="720.00" /><line x2="500.00" style="fill:blue;stroke:blue;" y1="624.50" x1="500.00" id="17688" y2="575.50" /><line x2="550.00" style="fill:blue;stroke:blue;" y1="520.00" x1="520.00" id="17689" y2="480.00" /><line x2="400.00" style="fill:blue;stroke:blue;" y1="480.00" x1="550.00" id="17690" y2="450.00" /><line x2="600.00" style="fill:blue;stroke:blue;" y1="480.00" x1="550.00" id="17691" y2="550.00" /><line x2="650.00" style="fill:blue;stroke:blue;" y1="480.00" x1="550.00" id="17692" y2="424.50" /><line x2="520.00" style="fill:blue;stroke:blue;" y1="480.00" x1="550.00" id="17693" y2="520.00" /><line x2="620.00" style="fill:blue;stroke:blue;" y1="50.00" x1="550.00" id="17694" y2="50.00" /><line x2="450.00" style="fill:blue;stroke:blue;" y1="50.00" x1="550.00" id="17695" y2="50.00" /><line x2="420.00" style="fill:blue;stroke:blue;" y1="200.00" x1="580.00" id="17696" y2="300.00" /><line x2="650.00" style="fill:blue;stroke:blue;" y1="200.00" x1="580.00" id="17697" y2="150.00" /><line x2="550.00" style="fill:blue;stroke:blue;" y1="550.00" x1="600.00" id="17698" y2="480.00" /><line x2="500.00" style="fill:blue;stroke:blue;" y1="550.00" x1="600.00" id="17699" y2="575.50" /><line x2="700.00" style="fill:blue;stroke:blue;" y1="550.00" x1="600.00" id="17700" y2="530.00" /><line x2="700.00" style="fill:blue;stroke:blue;" y1="50.00" x1="620.00" id="17701" y2="80.00" /><line x2="550.00" style="fill:blue;stroke:blue;" y1="50.00" x1="620.00" id="17702" y2="50.00" /><line x2="400.00" style="fill:blue;stroke:blue;" y1="310.00" x1="600.00" id="17703" y2="380.00" /><line x2="700.00" style="fill:blue;stroke:blue;" y1="310.00" x1="600.00" id="17704" y2="280.00" /><line x2="650.00" style="fill:blue;stroke:blue;" y1="375.50" x1="650.00" id="17705" y2="424.50" /><line x2="550.00" style="fill:blue;stroke:blue;" y1="424.50" x1="650.00" id="17706" y2="480.00" /><line x2="700.00" style="fill:blue;stroke:blue;" y1="424.50" x1="650.00" id="17707" y2="530.00" /><line x2="750.00" style="fill:blue;stroke:blue;" y1="424.50" x1="650.00" id="17708" y2="400.00" /><line x2="650.00" style="fill:blue;stroke:blue;" y1="424.50" x1="650.00" id="17709" y2="375.50" /><line x2="800.00" style="fill:blue;stroke:blue;" y1="150.00" x1="650.00" id="17710" y2="200.00" /><line x2="740.00" style="fill:blue;stroke:blue;" y1="150.00" x1="650.00" id="17711" y2="130.00" /><line x2="800.00" style="fill:blue;stroke:blue;" y1="150.00" x1="650.00" id="17712" y2="80.00" /><line x2="580.00" style="fill:blue;stroke:blue;" y1="150.00" x1="650.00" id="17713" y2="200.00" /><line x2="700.00" style="fill:blue;stroke:blue;" y1="150.00" x1="650.00" id="17714" y2="80.00" /><line x2="600.00" style="fill:blue;stroke:blue;" y1="150.00" x1="650.00" id="17715" y2="150.00" /><line x2="550.00" style="fill:blue;stroke:blue;" y1="530.00" x1="700.00" id="17716" y2="400.00" /><line x2="600.00" style="fill:blue;stroke:blue;" y1="530.00" x1="700.00" id="17717" y2="550.00" /><line x2="800.00" style="fill:blue;stroke:blue;" y1="530.00" x1="700.00" id="17718" y2="490.00" /><line x2="750.00" style="fill:blue;stroke:blue;" y1="530.00" x1="700.00" id="17719" y2="400.00" /><line x2="650.00" style="fill:blue;stroke:blue;" y1="530.00" x1="700.00" id="17720" y2="424.50" /><line x2="650.00" style="fill:blue;stroke:blue;" y1="80.00" x1="700.00" id="17721" y2="150.00" /><line x2="800.00" style="fill:blue;stroke:blue;" y1="80.00" x1="700.00" id="17722" y2="80.00" /><line x2="620.00" style="fill:blue;stroke:blue;" y1="80.00" x1="700.00" id="17723" y2="50.00" /><line x2="850.00" style="fill:blue;stroke:blue;" y1="280.00" x1="700.00" id="17724" y2="250.00" /><line x2="600.00" style="fill:blue;stroke:blue;" y1="280.00" x1="700.00" id="17725" y2="310.00" /><line x2="700.00" style="fill:blue;stroke:blue;" y1="400.00" x1="750.00" id="17726" y2="530.00" /><line x2="800.00" style="fill:blue;stroke:blue;" y1="400.00" x1="750.00" id="17727" y2="490.00" /><line x2="800.00" style="fill:blue;stroke:blue;" y1="400.00" x1="750.00" id="17728" y2="380.00" /><line x2="650.00" style="fill:blue;stroke:blue;" y1="400.00" x1="750.00" id="17729" y2="424.50" /><line x2="800.00" style="fill:blue;stroke:blue;" y1="400.00" x1="750.00" id="17730" y2="200.00" /><line x2="800.00" style="fill:blue;stroke:blue;" y1="130.00" x1="740.00" id="17731" y2="200.00" /><line x2="650.00" style="fill:blue;stroke:blue;" y1="130.00" x1="740.00" id="17732" y2="150.00" /><line x2="800.00" style="fill:blue;stroke:blue;" y1="130.00" x1="740.00" id="17733" y2="80.00" /><line x2="800.00" style="fill:blue;stroke:blue;" y1="80.00" x1="800.00" id="17734" y2="200.00" /><line x2="650.00" style="fill:blue;stroke:blue;" y1="80.00" x1="800.00" id="17735" y2="150.00" /><line x2="740.00" style="fill:blue;stroke:blue;" y1="80.00" x1="800.00" id="17736" y2="130.00" /><line x2="700.00" style="fill:blue;stroke:blue;" y1="80.00" x1="800.00" id="17737" y2="80.00" /><line x2="750.00" style="fill:blue;stroke:blue;" y1="200.00" x1="800.00" id="17738" y2="400.00" /><line x2="650.00" style="fill:blue;stroke:blue;" y1="200.00" x1="800.00" id="17739" y2="150.00" /><line x2="740.00" style="fill:blue;stroke:blue;" y1="200.00" x1="800.00" id="17740" y2="130.00" /><line x2="800.00" style="fill:blue;stroke:blue;" y1="200.00" x1="800.00" id="17741" y2="80.00" /><line x2="800.00" style="fill:blue;stroke:blue;" y1="380.00" x1="800.00" id="17742" y2="490.00" /><line x2="750.00" style="fill:blue;stroke:blue;" y1="380.00" x1="800.00" id="17743" y2="400.00" /><line x2="820.00" style="fill:blue;stroke:blue;" y1="380.00" x1="800.00" id="17744" y2="320.00" /><line x2="700.00" style="fill:blue;stroke:blue;" y1="490.00" x1="800.00" id="17745" y2="530.00" /><line x2="800.00" style="fill:blue;stroke:blue;" y1="490.00" x1="800.00" id="17746" y2="380.00" /><line x2="750.00" style="fill:blue;stroke:blue;" y1="490.00" x1="800.00" id="17747" y2="400.00" /><line x2="910.00" style="fill:blue;stroke:blue;" y1="490.00" x1="800.00" id="17748" y2="430.00" /><line x2="800.00" style="fill:blue;stroke:blue;" y1="320.00" x1="820.00" id="17749" y2="380.00" /><line x2="900.00" style="fill:blue;stroke:blue;" y1="250.00" x1="850.00" id="17750" y2="200.00" /><line x2="900.00" style="fill:blue;stroke:blue;" y1="250.00" x1="850.00" id="17751" y2="300.00" /><line x2="700.00" style="fill:blue;stroke:blue;" y1="250.00" x1="850.00" id="17752" y2="280.00" /><line x2="800.00" style="fill:blue;stroke:blue;" y1="430.00" x1="910.00" id="17753" y2="490.00" /><line x2="950.00" style="fill:blue;stroke:blue;" y1="430.00" x1="910.00" id="17754" y2="350.00" /><line x2="950.00" style="fill:blue;stroke:blue;" y1="300.00" x1="900.00" id="17755" y2="350.00" /><line x2="850.00" style="fill:blue;stroke:blue;" y1="300.00" x1="900.00" id="17756" y2="250.00" /><line x2="910.00" style="fill:blue;stroke:blue;" y1="350.00" x1="950.00" id="17757" y2="430.00" /><line x2="900.00" style="fill:blue;stroke:blue;" y1="350.00" x1="950.00" id="17758" y2="300.00" /><line x2="1000.00" style="fill:blue;stroke:blue;" y1="350.00" x1="950.00" id="17759" y2="300.00" /><line x2="1000.00" style="fill:blue;stroke:blue;" y1="350.00" x1="950.00" id="17760" y2="400.00" /><line x2="950.00" style="fill:blue;stroke:blue;" y1="300.00" x1="1000.00" id="17761" y2="350.00" /><line x2="1000.00" style="fill:blue;stroke:blue;" y1="300.00" x1="1000.00" id="17762" y2="400.00" /><line x2="950.00" style="fill:blue;stroke:blue;" y1="400.00" x1="1000.00" id="17763" y2="350.00" /><line x2="1000.00" style="fill:blue;stroke:blue;" y1="400.00" x1="1000.00" id="17764" y2="300.00" /><line x2="80.00" style="fill:blue;stroke:blue;" y1="150.00" x1="20.00" id="17765" y2="200.00" /><line x2="60.00" style="fill:blue;stroke:blue;" y1="760.00" x1="20.00" id="17766" y2="720.00" /><line x2="150.00" style="fill:blue;stroke:blue;" y1="50.00" x1="50.00" id="17767" y2="80.00" /><line x2="420.00" style="fill:blue;stroke:blue;" y1="250.00" x1="350.00" id="17768" y2="300.00" /><line x2="380.00" style="fill:blue;stroke:blue;" y1="700.00" x1="320.00" id="17769" y2="650.00" /><line x2="380.00" style="fill:blue;stroke:blue;" y1="720.00" x1="400.00" id="17770" y2="650.00" /><line x2="400.00" style="fill:blue;stroke:blue;" y1="180.00" x1="480.00" id="17771" y2="200.00" /><line x2="600.00" style="fill:blue;stroke:blue;" y1="180.00" x1="480.00" id="17772" y2="150.00" /><line x2="500.00" style="fill:blue;stroke:blue;" y1="720.00" x1="500.00" id="17773" y2="624.50" /><line x2="400.00" style="fill:blue;stroke:blue;" y1="400.00" x1="550.00" id="17774" y2="450.00" /><line x2="700.00" style="fill:blue;stroke:blue;" y1="400.00" x1="550.00" id="17775" y2="530.00" /><line x2="650.00" style="fill:blue;stroke:blue;" y1="150.00" x1="600.00" id="17776" y2="150.00" /><line x2="480.00" style="fill:blue;stroke:blue;" y1="150.00" x1="600.00" id="17777" y2="180.00" /><line x2="500.00" style="fill:blue;stroke:blue;" y1="650.00" x1="640.00" id="17778" y2="575.50" /><line x2="850.00" style="fill:blue;stroke:blue;" y1="200.00" x1="900.00" id="17779" y2="250.00" /></svg>
