<?xml version="1.0" standalone="yes"?><!DOCTYPE svg PUBLIC "-//W3C//DTD SVG 1.1//EN" "http://www.w3.org/Graphics/SVG/1.1/DTD/svg11.dtd"[]><svg height="800.00" id="3829" width="1050.00" xmlns="http://www.w3.org/2000/svg" xmlns:xlink="http://www.w3.org/1999/xlink"><rect Type="system" Region="柯尔斯" height="5.00" y="100.00" Name="J4UD-J" width="5.00" x="80.00" id="3830" ID="30001043" /><text x="80.00" y="100.00" id="3831">J4UD-J</text><rect Type="system" Region="柯尔斯" height="5.00" y="360.00" Name="多尼尔" width="5.00" x="70.00" id="3833" ID="30001047" /><text x="70.00" y="360.00" id="3834">多尼尔</text><rect Type="system" Region="柯尔斯" height="5.00" y="550.00" Name="加蒙达" width="5.00" x="100.00" id="3836" ID="30001050" /><text x="100.00" y="550.00" id="3837">加蒙达</text><rect Type="system" Region="柯尔斯" height="5.00" y="480.00" Name="利顿" width="5.00" x="120.00" id="3839" ID="30001048" /><text x="120.00" y="480.00" id="3840">利顿</text><rect Type="system" Region="柯尔斯" height="5.00" y="250.00" Name="法里忒" width="5.00" x="120.00" id="3842" ID="30001049" /><text x="120.00" y="250.00" id="3843">法里忒</text><rect Type="system" Region="柯尔斯" height="5.00" y="320.00" Name="乔伦德" width="5.00" x="120.00" id="3845" ID="30001046" /><text x="120.00" y="320.00" id="3846">乔伦德</text><rect Type="system" Region="柯尔斯" height="5.00" y="420.00" Name="乌托邦" width="5.00" x="120.00" id="3848" ID="30001045" /><text x="120.00" y="420.00" id="3849">乌托邦</text><rect Type="system" Region="柯尔斯" height="5.00" y="100.00" Name="CL-1JE" width="5.00" x="150.00" id="3851" ID="30001042" /><text x="150.00" y="100.00" id="3852">CL-1JE</text><rect Type="system" Region="柯尔斯" height="5.00" y="360.00" Name="赫明" width="5.00" x="170.00" id="3854" ID="30001044" /><text x="170.00" y="360.00" id="3855">赫明</text><rect Type="system" Region="柯尔斯" height="5.00" y="150.00" Name="BPK-XK" width="5.00" x="200.00" id="3857" ID="30001037" /><text x="200.00" y="150.00" id="3858">BPK-XK</text><rect Type="system" Region="柯尔斯" height="5.00" y="100.00" Name="LJ-YSW" width="5.00" x="250.00" id="3860" ID="30001038" /><text x="250.00" y="100.00" id="3861">LJ-YSW</text><rect Type="system" Region="柯尔斯" height="5.00" y="200.00" Name="K88X-J" width="5.00" x="250.00" id="3863" ID="30001040" /><text x="250.00" y="200.00" id="3864">K88X-J</text><rect Type="system" Region="柯尔斯" height="5.00" y="150.00" Name="Y-K50G" width="5.00" x="280.00" id="3866" ID="30001039" /><text x="280.00" y="150.00" id="3867">Y-K50G</text><rect Type="system" Region="柯尔斯" height="5.00" y="320.00" Name="RMOC-W" width="5.00" x="280.00" id="3869" ID="30001028" /><text x="280.00" y="320.00" id="3870">RMOC-W</text><rect Type="system" Region="柯尔斯" height="5.00" y="250.00" Name="YKE4-3" width="5.00" x="280.00" id="3872" ID="30001024" /><text x="280.00" y="250.00" id="3873">YKE4-3</text><rect Type="system" Region="柯尔斯" height="5.00" y="500.00" Name="V-IUEL" width="5.00" x="300.00" id="3875" ID="30001008" /><text x="300.00" y="500.00" id="3876">V-IUEL</text><rect Type="system" Region="柯尔斯" height="5.00" y="50.00" Name="G-R4W1" width="5.00" x="320.00" id="3878" ID="30001036" /><text x="320.00" y="50.00" id="3879">G-R4W1</text><rect Type="system" Region="柯尔斯" height="5.00" y="100.00" Name="G-0Q86" width="5.00" x="320.00" id="3881" ID="30001041" /><text x="320.00" y="100.00" id="3882">G-0Q86</text><rect Type="system" Region="柯尔斯" height="5.00" y="300.00" Name="K-QWHE" width="5.00" x="350.00" id="3884" ID="30001026" /><text x="350.00" y="300.00" id="3885">K-QWHE</text><rect Type="system" Region="柯尔斯" height="5.00" y="450.00" Name="PO4F-3" width="5.00" x="350.00" id="3887" ID="30001012" /><text x="350.00" y="450.00" id="3888">PO4F-3</text><rect Type="system" Region="柯尔斯" height="5.00" y="550.00" Name="0SHT-A" width="5.00" x="350.00" id="3890" ID="30001009" /><text x="350.00" y="550.00" id="3891">0SHT-A</text><rect Type="system" Region="柯尔斯" height="5.00" y="350.00" Name="AAM-1A" width="5.00" x="380.00" id="3893" ID="30001022" /><text x="380.00" y="350.00" id="3894">AAM-1A</text><rect Type="system" Region="柯尔斯" height="5.00" y="175.50" Name="MDD-79" width="5.00" x="400.00" id="3896" ID="30001027" /><text x="400.00" y="175.50" id="3897">MDD-79</text><rect Type="system" Region="柯尔斯" height="5.00" y="224.50" Name="EW-JR5" width="5.00" x="400.00" id="3899" ID="30001023" /><text x="400.00" y="224.50" id="3900">EW-JR5</text><rect Type="system" Region="柯尔斯" height="5.00" y="280.00" Name="CL-85V" width="5.00" x="400.00" id="3902" ID="30001025" /><text x="400.00" y="280.00" id="3903">CL-85V</text><rect Type="system" Region="柯尔斯" height="5.00" y="480.00" Name="D87E-A" width="5.00" x="400.00" id="3905" ID="30001010" /><text x="400.00" y="480.00" id="3906">D87E-A</text><rect Type="system" Region="柯尔斯" height="5.00" y="580.00" Name="JWJ-P1" width="5.00" x="400.00" id="3908" ID="30001007" /><text x="400.00" y="580.00" id="3909">JWJ-P1</text><rect Type="system" Region="柯尔斯" height="5.00" y="420.00" Name="K-B2D3" width="5.00" x="450.00" id="3911" ID="30001011" /><text x="450.00" y="420.00" id="3912">K-B2D3</text><rect Type="system" Region="柯尔斯" height="5.00" y="520.00" Name="V7D-JD" width="5.00" x="480.00" id="3914" ID="30001015" /><text x="480.00" y="520.00" id="3915">V7D-JD</text><rect Type="system" Region="柯尔斯" height="5.00" y="580.00" Name="J7A-UR" width="5.00" x="480.00" id="3917" ID="30001013" /><text x="480.00" y="580.00" id="3918">J7A-UR</text><rect Type="system" Region="柯尔斯" height="5.00" y="450.00" Name="5E-VR8" width="5.00" x="510.00" id="3920" ID="30001014" /><text x="510.00" y="450.00" id="3921">5E-VR8</text><rect Type="system" Region="柯尔斯" height="5.00" y="150.00" Name="KLMT-W" width="5.00" x="550.00" id="3923" ID="30001020" /><text x="550.00" y="150.00" id="3924">KLMT-W</text><rect Type="system" Region="柯尔斯" height="5.00" y="240.00" Name="8G-MQV" width="5.00" x="500.00" id="3926" ID="30001017" /><text x="500.00" y="240.00" id="3927">8G-MQV</text><rect Type="system" Region="柯尔斯" height="5.00" y="280.00" Name="VOL-MI" width="5.00" x="550.00" id="3929" ID="30001019" /><text x="550.00" y="280.00" id="3930">VOL-MI</text><rect Type="system" Region="柯尔斯" height="5.00" y="150.00" Name="HLW-HP" width="5.00" x="650.00" id="3932" ID="30001016" /><text x="650.00" y="150.00" id="3933">HLW-HP</text><rect Type="system" Region="灼热之径" height="5.00" y="430.00" Name="K7-LDX" width="5.00" x="670.00" id="3935" ID="30000659" /><text x="670.00" y="430.00" id="3936">K7-LDX</text><rect Type="system" Region="柯尔斯" height="5.00" y="150.00" Name="RA-NXN" width="5.00" x="720.00" id="3938" ID="30001018" /><text x="720.00" y="150.00" id="3939">RA-NXN</text><rect Type="system" Region="灼热之径" height="5.00" y="400.00" Name="S-E6ES" width="5.00" x="740.00" id="3941" ID="30000657" /><text x="740.00" y="400.00" id="3942">S-E6ES</text><rect Type="system" Region="柯尔斯" height="5.00" y="580.00" Name="K-MGJ7" width="5.00" x="770.00" id="3944" ID="30001006" /><text x="770.00" y="580.00" id="3945">K-MGJ7</text><rect Type="system" Region="柯尔斯" height="5.00" y="200.00" Name="XX9-WV" width="5.00" x="800.00" id="3947" ID="30001021" /><text x="800.00" y="200.00" id="3948">XX9-WV</text><rect Type="system" Region="柯尔斯" height="5.00" y="360.00" Name="ES-UWY" width="5.00" x="820.00" id="3950" ID="30001029" /><text x="820.00" y="360.00" id="3951">ES-UWY</text><rect Type="system" Region="柯尔斯" height="5.00" y="550.00" Name="UW9B-F" width="5.00" x="820.00" id="3953" ID="30001003" /><text x="820.00" y="550.00" id="3954">UW9B-F</text><rect Type="system" Region="柯尔斯" height="5.00" y="270.00" Name="M-N7WD" width="5.00" x="850.00" id="3956" ID="30001032" /><text x="850.00" y="270.00" id="3957">M-N7WD</text><rect Type="system" Region="柯尔斯" height="5.00" y="320.00" Name="Y-DW5K" width="5.00" x="860.00" id="3959" ID="30001031" /><text x="860.00" y="320.00" id="3960">Y-DW5K</text><rect Type="system" Region="柯尔斯" height="5.00" y="450.00" Name="H-ADOC" width="5.00" x="850.00" id="3962" ID="30001001" /><text x="850.00" y="450.00" id="3963">H-ADOC</text><rect Type="system" Region="柯尔斯" height="5.00" y="500.00" Name="G-G78S" width="5.00" x="850.00" id="3965" ID="30001002" /><text x="850.00" y="500.00" id="3966">G-G78S</text><rect Type="system" Region="柯尔斯" height="5.00" y="550.00" Name="ZZ-ZWC" width="5.00" x="900.00" id="3968" ID="30001004" /><text x="900.00" y="550.00" id="3969">ZZ-ZWC</text><rect Type="system" Region="柯尔斯" height="5.00" y="250.00" Name="S1DP-Y" width="5.00" x="920.00" id="3971" ID="30001030" /><text x="920.00" y="250.00" id="3972">S1DP-Y</text><rect Type="system" Region="柯尔斯" height="5.00" y="350.00" Name="QFEW-K" width="5.00" x="940.00" id="3974" ID="30001033" /><text x="940.00" y="350.00" id="3975">QFEW-K</text><rect Type="system" Region="柯尔斯" height="5.00" y="400.00" Name="EQX-AE" width="5.00" x="950.00" id="3977" ID="30001035" /><text x="950.00" y="400.00" id="3978">EQX-AE</text><rect Type="system" Region="柯尔斯" height="5.00" y="500.00" Name="OSY-UD" width="5.00" x="950.00" id="3980" ID="30001005" /><text x="950.00" y="500.00" id="3981">OSY-UD</text><rect Type="system" Region="柯尔斯" height="5.00" y="300.00" Name="CVY-UC" width="5.00" x="980.00" id="3983" ID="30001034" /><text x="980.00" y="300.00" id="3984">CVY-UC</text><rect Type="system" Region="德里克" height="5.00" y="300.00" Name="森达雅" width="5.00" x="20.00" id="3986" ID="30000015" /><text x="20.00" y="300.00" id="3987">森达雅</text><rect Type="system" Region="卡彻" height="5.00" y="580.00" Name="1P-WGB" width="5.00" x="50.00" id="3989" ID="30001170" /><text x="50.00" y="580.00" id="3990">1P-WGB</text><rect Type="system" Region="卡彻" height="5.00" y="620.00" Name="U-QVWD" width="5.00" x="300.00" id="3992" ID="30001155" /><text x="300.00" y="620.00" id="3993">U-QVWD</text><rect Type="system" Region="大荒野" height="5.00" y="100.00" Name="UT-UZB" width="5.00" x="550.00" id="3995" ID="30000921" /><text x="550.00" y="100.00" id="3996">UT-UZB</text><rect Type="system" Region="灼热之径" height="5.00" y="330.00" Name="ARG-3R" width="5.00" x="600.00" id="3998" ID="30000656" /><text x="600.00" y="330.00" id="3999">ARG-3R</text><rect Type="system" Region="灼热之径" height="5.00" y="480.00" Name="U-IVGH" width="5.00" x="640.00" id="4001" ID="30000660" /><text x="640.00" y="480.00" id="4002">U-IVGH</text><rect Type="system" Region="灼热之径" height="5.00" y="380.00" Name="R-3FBU" width="5.00" x="640.00" id="4004" ID="30000658" /><text x="640.00" y="380.00" id="4005">R-3FBU</text><rect Type="system" Region="灼热之径" height="5.00" y="480.00" Name="AH8-Q7" width="5.00" x="710.00" id="4007" ID="30000691" /><text x="710.00" y="480.00" id="4008">AH8-Q7</text><rect Type="system" Region="灼热之径" height="5.00" y="340.00" Name="EIN-QG" width="5.00" x="720.00" id="4010" ID="30000655" /><text x="720.00" y="340.00" id="4011">EIN-QG</text><rect Type="system" Region="灼热之径" height="5.00" y="220.00" Name="ZFJH-T" width="5.00" x="750.00" id="4013" ID="30000688" /><text x="750.00" y="220.00" id="4014">ZFJH-T</text><rect Type="system" Region="赞颂之域" height="5.00" y="70.00" Name="荒渊" width="5.00" x="420.00" id="4016" ID="30100000" /><text x="420.00" y="70.00" id="4017">荒渊</text><line x2="150.00" style="fill:blue;stroke:blue;" y1="100.00" x1="80.00" id="4019" y2="100.00" /><line x2="20.00" style="fill:blue;stroke:blue;" y1="360.00" x1="70.00" id="4020" y2="300.00" /><line x2="120.00" style="fill:blue;stroke:blue;" y1="360.00" x1="70.00" id="4021" y2="420.00" /><line x2="120.00" style="fill:blue;stroke:blue;" y1="360.00" x1="70.00" id="4022" y2="320.00" /><line x2="120.00" style="fill:blue;stroke:blue;" y1="550.00" x1="100.00" id="4023" y2="480.00" /><line x2="50.00" style="fill:blue;stroke:blue;" y1="550.00" x1="100.00" id="4024" y2="580.00" /><line x2="120.00" style="fill:blue;stroke:blue;" y1="480.00" x1="120.00" id="4025" y2="420.00" /><line x2="100.00" style="fill:blue;stroke:blue;" y1="480.00" x1="120.00" id="4026" y2="550.00" /><line x2="120.00" style="fill:blue;stroke:blue;" y1="250.00" x1="120.00" id="4027" y2="320.00" /><line x2="170.00" style="fill:blue;stroke:blue;" y1="320.00" x1="120.00" id="4028" y2="360.00" /><line x2="70.00" style="fill:blue;stroke:blue;" y1="320.00" x1="120.00" id="4029" y2="360.00" /><line x2="120.00" style="fill:blue;stroke:blue;" y1="320.00" x1="120.00" id="4030" y2="250.00" /><line x2="170.00" style="fill:blue;stroke:blue;" y1="420.00" x1="120.00" id="4031" y2="360.00" /><line x2="70.00" style="fill:blue;stroke:blue;" y1="420.00" x1="120.00" id="4032" y2="360.00" /><line x2="120.00" style="fill:blue;stroke:blue;" y1="420.00" x1="120.00" id="4033" y2="480.00" /><line x2="200.00" style="fill:blue;stroke:blue;" y1="100.00" x1="150.00" id="4034" y2="150.00" /><line x2="250.00" style="fill:blue;stroke:blue;" y1="100.00" x1="150.00" id="4035" y2="100.00" /><line x2="80.00" style="fill:blue;stroke:blue;" y1="100.00" x1="150.00" id="4036" y2="100.00" /><line x2="280.00" style="fill:blue;stroke:blue;" y1="360.00" x1="170.00" id="4037" y2="320.00" /><line x2="120.00" style="fill:blue;stroke:blue;" y1="360.00" x1="170.00" id="4038" y2="420.00" /><line x2="120.00" style="fill:blue;stroke:blue;" y1="360.00" x1="170.00" id="4039" y2="320.00" /><line x2="280.00" style="fill:blue;stroke:blue;" y1="150.00" x1="200.00" id="4040" y2="150.00" /><line x2="150.00" style="fill:blue;stroke:blue;" y1="150.00" x1="200.00" id="4041" y2="100.00" /><line x2="320.00" style="fill:blue;stroke:blue;" y1="100.00" x1="250.00" id="4042" y2="100.00" /><line x2="150.00" style="fill:blue;stroke:blue;" y1="100.00" x1="250.00" id="4043" y2="100.00" /><line x2="280.00" style="fill:blue;stroke:blue;" y1="200.00" x1="250.00" id="4044" y2="150.00" /><line x2="200.00" style="fill:blue;stroke:blue;" y1="150.00" x1="280.00" id="4045" y2="150.00" /><line x2="250.00" style="fill:blue;stroke:blue;" y1="150.00" x1="280.00" id="4046" y2="200.00" /><line x2="320.00" style="fill:blue;stroke:blue;" y1="150.00" x1="280.00" id="4047" y2="100.00" /><line x2="280.00" style="fill:blue;stroke:blue;" y1="320.00" x1="280.00" id="4048" y2="250.00" /><line x2="350.00" style="fill:blue;stroke:blue;" y1="320.00" x1="280.00" id="4049" y2="300.00" /><line x2="170.00" style="fill:blue;stroke:blue;" y1="320.00" x1="280.00" id="4050" y2="360.00" /><line x2="350.00" style="fill:blue;stroke:blue;" y1="250.00" x1="280.00" id="4051" y2="300.00" /><line x2="280.00" style="fill:blue;stroke:blue;" y1="250.00" x1="280.00" id="4052" y2="320.00" /><line x2="350.00" style="fill:blue;stroke:blue;" y1="500.00" x1="300.00" id="4053" y2="550.00" /><line x2="350.00" style="fill:blue;stroke:blue;" y1="500.00" x1="300.00" id="4054" y2="450.00" /><line x2="320.00" style="fill:blue;stroke:blue;" y1="50.00" x1="320.00" id="4055" y2="100.00" /><line x2="550.00" style="fill:blue;stroke:blue;" y1="100.00" x1="320.00" id="4056" y2="150.00" /><line x2="320.00" style="fill:blue;stroke:blue;" y1="100.00" x1="320.00" id="4057" y2="50.00" /><line x2="250.00" style="fill:blue;stroke:blue;" y1="100.00" x1="320.00" id="4058" y2="100.00" /><line x2="280.00" style="fill:blue;stroke:blue;" y1="100.00" x1="320.00" id="4059" y2="150.00" /><line x2="380.00" style="fill:blue;stroke:blue;" y1="300.00" x1="350.00" id="4060" y2="350.00" /><line x2="280.00" style="fill:blue;stroke:blue;" y1="300.00" x1="350.00" id="4061" y2="250.00" /><line x2="400.00" style="fill:blue;stroke:blue;" y1="300.00" x1="350.00" id="4062" y2="280.00" /><line x2="280.00" style="fill:blue;stroke:blue;" y1="300.00" x1="350.00" id="4063" y2="320.00" /><line x2="300.00" style="fill:blue;stroke:blue;" y1="450.00" x1="350.00" id="4064" y2="500.00" /><line x2="400.00" style="fill:blue;stroke:blue;" y1="450.00" x1="350.00" id="4065" y2="480.00" /><line x2="450.00" style="fill:blue;stroke:blue;" y1="450.00" x1="350.00" id="4066" y2="420.00" /><line x2="400.00" style="fill:blue;stroke:blue;" y1="550.00" x1="350.00" id="4067" y2="580.00" /><line x2="300.00" style="fill:blue;stroke:blue;" y1="550.00" x1="350.00" id="4068" y2="500.00" /><line x2="400.00" style="fill:blue;stroke:blue;" y1="550.00" x1="350.00" id="4069" y2="480.00" /><line x2="300.00" style="fill:blue;stroke:blue;" y1="550.00" x1="350.00" id="4070" y2="620.00" /><line x2="350.00" style="fill:blue;stroke:blue;" y1="350.00" x1="380.00" id="4071" y2="300.00" /><line x2="400.00" style="fill:blue;stroke:blue;" y1="175.50" x1="400.00" id="4072" y2="224.50" /><line x2="400.00" style="fill:blue;stroke:blue;" y1="224.50" x1="400.00" id="4073" y2="280.00" /><line x2="400.00" style="fill:blue;stroke:blue;" y1="224.50" x1="400.00" id="4074" y2="175.50" /><line x2="500.00" style="fill:blue;stroke:blue;" y1="280.00" x1="400.00" id="4075" y2="240.00" /><line x2="400.00" style="fill:blue;stroke:blue;" y1="280.00" x1="400.00" id="4076" y2="224.50" /><line x2="350.00" style="fill:blue;stroke:blue;" y1="280.00" x1="400.00" id="4077" y2="300.00" /><line x2="350.00" style="fill:blue;stroke:blue;" y1="480.00" x1="400.00" id="4078" y2="550.00" /><line x2="450.00" style="fill:blue;stroke:blue;" y1="480.00" x1="400.00" id="4079" y2="420.00" /><line x2="350.00" style="fill:blue;stroke:blue;" y1="480.00" x1="400.00" id="4080" y2="450.00" /><line x2="510.00" style="fill:blue;stroke:blue;" y1="480.00" x1="400.00" id="4081" y2="450.00" /><line x2="480.00" style="fill:blue;stroke:blue;" y1="480.00" x1="400.00" id="4082" y2="520.00" /><line x2="350.00" style="fill:blue;stroke:blue;" y1="580.00" x1="400.00" id="4083" y2="550.00" /><line x2="480.00" style="fill:blue;stroke:blue;" y1="580.00" x1="400.00" id="4084" y2="580.00" /><line x2="400.00" style="fill:blue;stroke:blue;" y1="420.00" x1="450.00" id="4085" y2="480.00" /><line x2="350.00" style="fill:blue;stroke:blue;" y1="420.00" x1="450.00" id="4086" y2="450.00" /><line x2="510.00" style="fill:blue;stroke:blue;" y1="420.00" x1="450.00" id="4087" y2="450.00" /><line x2="550.00" style="fill:blue;stroke:blue;" y1="420.00" x1="450.00" id="4088" y2="280.00" /><line x2="400.00" style="fill:blue;stroke:blue;" y1="520.00" x1="480.00" id="4089" y2="480.00" /><line x2="510.00" style="fill:blue;stroke:blue;" y1="520.00" x1="480.00" id="4090" y2="450.00" /><line x2="400.00" style="fill:blue;stroke:blue;" y1="580.00" x1="480.00" id="4091" y2="580.00" /><line x2="400.00" style="fill:blue;stroke:blue;" y1="450.00" x1="510.00" id="4092" y2="480.00" /><line x2="450.00" style="fill:blue;stroke:blue;" y1="450.00" x1="510.00" id="4093" y2="420.00" /><line x2="480.00" style="fill:blue;stroke:blue;" y1="450.00" x1="510.00" id="4094" y2="520.00" /><line x2="550.00" style="fill:blue;stroke:blue;" y1="150.00" x1="550.00" id="4095" y2="100.00" /><line x2="650.00" style="fill:blue;stroke:blue;" y1="150.00" x1="550.00" id="4096" y2="150.00" /><line x2="320.00" style="fill:blue;stroke:blue;" y1="150.00" x1="550.00" id="4097" y2="100.00" /><line x2="550.00" style="fill:blue;stroke:blue;" y1="240.00" x1="500.00" id="4098" y2="280.00" /><line x2="400.00" style="fill:blue;stroke:blue;" y1="240.00" x1="500.00" id="4099" y2="280.00" /><line x2="600.00" style="fill:blue;stroke:blue;" y1="280.00" x1="550.00" id="4100" y2="330.00" /><line x2="450.00" style="fill:blue;stroke:blue;" y1="280.00" x1="550.00" id="4101" y2="420.00" /><line x2="650.00" style="fill:blue;stroke:blue;" y1="280.00" x1="550.00" id="4102" y2="150.00" /><line x2="500.00" style="fill:blue;stroke:blue;" y1="280.00" x1="550.00" id="4103" y2="240.00" /><line x2="720.00" style="fill:blue;stroke:blue;" y1="150.00" x1="650.00" id="4104" y2="150.00" /><line x2="550.00" style="fill:blue;stroke:blue;" y1="150.00" x1="650.00" id="4105" y2="280.00" /><line x2="550.00" style="fill:blue;stroke:blue;" y1="150.00" x1="650.00" id="4106" y2="150.00" /><line x2="740.00" style="fill:blue;stroke:blue;" y1="430.00" x1="670.00" id="4107" y2="400.00" /><line x2="640.00" style="fill:blue;stroke:blue;" y1="430.00" x1="670.00" id="4108" y2="380.00" /><line x2="640.00" style="fill:blue;stroke:blue;" y1="430.00" x1="670.00" id="4109" y2="480.00" /><line x2="710.00" style="fill:blue;stroke:blue;" y1="430.00" x1="670.00" id="4110" y2="480.00" /><line x2="650.00" style="fill:blue;stroke:blue;" y1="150.00" x1="720.00" id="4111" y2="150.00" /><line x2="800.00" style="fill:blue;stroke:blue;" y1="150.00" x1="720.00" id="4112" y2="200.00" /><line x2="720.00" style="fill:blue;stroke:blue;" y1="400.00" x1="740.00" id="4113" y2="340.00" /><line x2="670.00" style="fill:blue;stroke:blue;" y1="400.00" x1="740.00" id="4114" y2="430.00" /><line x2="850.00" style="fill:blue;stroke:blue;" y1="400.00" x1="740.00" id="4115" y2="450.00" /><line x2="820.00" style="fill:blue;stroke:blue;" y1="400.00" x1="740.00" id="4116" y2="360.00" /><line x2="820.00" style="fill:blue;stroke:blue;" y1="580.00" x1="770.00" id="4117" y2="550.00" /><line x2="750.00" style="fill:blue;stroke:blue;" y1="200.00" x1="800.00" id="4118" y2="220.00" /><line x2="720.00" style="fill:blue;stroke:blue;" y1="200.00" x1="800.00" id="4119" y2="150.00" /><line x2="850.00" style="fill:blue;stroke:blue;" y1="200.00" x1="800.00" id="4120" y2="270.00" /><line x2="740.00" style="fill:blue;stroke:blue;" y1="360.00" x1="820.00" id="4121" y2="400.00" /><line x2="860.00" style="fill:blue;stroke:blue;" y1="360.00" x1="820.00" id="4122" y2="320.00" /><line x2="850.00" style="fill:blue;stroke:blue;" y1="550.00" x1="820.00" id="4123" y2="500.00" /><line x2="770.00" style="fill:blue;stroke:blue;" y1="550.00" x1="820.00" id="4124" y2="580.00" /><line x2="800.00" style="fill:blue;stroke:blue;" y1="270.00" x1="850.00" id="4125" y2="200.00" /><line x2="920.00" style="fill:blue;stroke:blue;" y1="270.00" x1="850.00" id="4126" y2="250.00" /><line x2="860.00" style="fill:blue;stroke:blue;" y1="270.00" x1="850.00" id="4127" y2="320.00" /><line x2="850.00" style="fill:blue;stroke:blue;" y1="320.00" x1="860.00" id="4128" y2="450.00" /><line x2="820.00" style="fill:blue;stroke:blue;" y1="320.00" x1="860.00" id="4129" y2="360.00" /><line x2="850.00" style="fill:blue;stroke:blue;" y1="320.00" x1="860.00" id="4130" y2="270.00" /><line x2="940.00" style="fill:blue;stroke:blue;" y1="320.00" x1="860.00" id="4131" y2="350.00" /><line x2="740.00" style="fill:blue;stroke:blue;" y1="450.00" x1="850.00" id="4132" y2="400.00" /><line x2="850.00" style="fill:blue;stroke:blue;" y1="450.00" x1="850.00" id="4133" y2="500.00" /><line x2="950.00" style="fill:blue;stroke:blue;" y1="450.00" x1="850.00" id="4134" y2="500.00" /><line x2="860.00" style="fill:blue;stroke:blue;" y1="450.00" x1="850.00" id="4135" y2="320.00" /><line x2="950.00" style="fill:blue;stroke:blue;" y1="450.00" x1="850.00" id="4136" y2="400.00" /><line x2="850.00" style="fill:blue;stroke:blue;" y1="500.00" x1="850.00" id="4137" y2="450.00" /><line x2="820.00" style="fill:blue;stroke:blue;" y1="500.00" x1="850.00" id="4138" y2="550.00" /><line x2="900.00" style="fill:blue;stroke:blue;" y1="500.00" x1="850.00" id="4139" y2="550.00" /><line x2="950.00" style="fill:blue;stroke:blue;" y1="500.00" x1="850.00" id="4140" y2="500.00" /><line x2="850.00" style="fill:blue;stroke:blue;" y1="550.00" x1="900.00" id="4141" y2="500.00" /><line x2="850.00" style="fill:blue;stroke:blue;" y1="250.00" x1="920.00" id="4142" y2="270.00" /><line x2="860.00" style="fill:blue;stroke:blue;" y1="350.00" x1="940.00" id="4143" y2="320.00" /><line x2="980.00" style="fill:blue;stroke:blue;" y1="350.00" x1="940.00" id="4144" y2="300.00" /><line x2="950.00" style="fill:blue;stroke:blue;" y1="350.00" x1="940.00" id="4145" y2="400.00" /><line x2="850.00" style="fill:blue;stroke:blue;" y1="400.00" x1="950.00" id="4146" y2="450.00" /><line x2="940.00" style="fill:blue;stroke:blue;" y1="400.00" x1="950.00" id="4147" y2="350.00" /><line x2="850.00" style="fill:blue;stroke:blue;" y1="500.00" x1="950.00" id="4148" y2="450.00" /><line x2="850.00" style="fill:blue;stroke:blue;" y1="500.00" x1="950.00" id="4149" y2="500.00" /><line x2="940.00" style="fill:blue;stroke:blue;" y1="300.00" x1="980.00" id="4150" y2="350.00" /><line x2="70.00" style="fill:blue;stroke:blue;" y1="300.00" x1="20.00" id="4151" y2="360.00" /><line x2="100.00" style="fill:blue;stroke:blue;" y1="580.00" x1="50.00" id="4152" y2="550.00" /><line x2="350.00" style="fill:blue;stroke:blue;" y1="620.00" x1="300.00" id="4153" y2="550.00" /><line x2="550.00" style="fill:blue;stroke:blue;" y1="100.00" x1="550.00" id="4154" y2="150.00" /><line x2="640.00" style="fill:blue;stroke:blue;" y1="330.00" x1="600.00" id="4155" y2="380.00" /><line x2="550.00" style="fill:blue;stroke:blue;" y1="330.00" x1="600.00" id="4156" y2="280.00" /><line x2="670.00" style="fill:blue;stroke:blue;" y1="480.00" x1="640.00" id="4157" y2="430.00" /><line x2="720.00" style="fill:blue;stroke:blue;" y1="380.00" x1="640.00" id="4158" y2="340.00" /><line x2="600.00" style="fill:blue;stroke:blue;" y1="380.00" x1="640.00" id="4159" y2="330.00" /><line x2="670.00" style="fill:blue;stroke:blue;" y1="380.00" x1="640.00" id="4160" y2="430.00" /><line x2="670.00" style="fill:blue;stroke:blue;" y1="480.00" x1="710.00" id="4161" y2="430.00" /><line x2="740.00" style="fill:blue;stroke:blue;" y1="340.00" x1="720.00" id="4162" y2="400.00" /><line x2="640.00" style="fill:blue;stroke:blue;" y1="340.00" x1="720.00" id="4163" y2="380.00" /><line x2="800.00" style="fill:blue;stroke:blue;" y1="220.00" x1="750.00" id="4164" y2="200.00" /></svg>
