<?xml version="1.0" standalone="yes"?><!DOCTYPE svg PUBLIC "-//W3C//DTD SVG 1.1//EN" "http://www.w3.org/Graphics/SVG/1.1/DTD/svg11.dtd"[]><svg width="1050.00" height="800.00" id="20889" xmlns="http://www.w3.org/2000/svg" xmlns:xlink="http://www.w3.org/1999/xlink"><rect Type="system" x="20.00" id="20890" height="5.00" width="5.00" Name="9MWZ-B" ID="30004884" Region="欧米斯特" y="124.50" /><text y="124.50" x="20.00" id="20891">9MWZ-B</text><rect Type="system" x="20.00" id="20893" height="5.00" width="5.00" Name="LS-QLX" ID="30004885" Region="欧米斯特" y="180.00" /><text y="180.00" x="20.00" id="20894">LS-QLX</text><rect Type="system" x="20.00" id="20896" height="5.00" width="5.00" Name="CO-7BI" ID="30004887" Region="欧米斯特" y="250.00" /><text y="250.00" x="20.00" id="20897">CO-7BI</text><rect Type="system" x="50.00" id="20899" height="5.00" width="5.00" Name="ZJG-7D" ID="30004888" Region="欧米斯特" y="300.00" /><text y="300.00" x="50.00" id="20900">ZJG-7D</text><rect Type="system" x="100.00" id="20902" height="5.00" width="5.00" Name="73-JQO" ID="30004893" Region="欧米斯特" y="400.00" /><text y="400.00" x="100.00" id="20903">73-JQO</text><rect Type="system" x="100.00" id="20905" height="5.00" width="5.00" Name="S-XZHU" ID="30004886" Region="欧米斯特" y="120.00" /><text y="120.00" x="100.00" id="20906">S-XZHU</text><rect Type="system" x="100.00" id="20908" height="5.00" width="5.00" Name="C-WPWH" ID="30004889" Region="欧米斯特" y="180.00" /><text y="180.00" x="100.00" id="20909">C-WPWH</text><rect Type="system" x="150.00" id="20911" height="5.00" width="5.00" Name="R2TJ-1" ID="30004891" Region="欧米斯特" y="350.00" /><text y="350.00" x="150.00" id="20912">R2TJ-1</text><rect Type="system" x="180.00" id="20914" height="5.00" width="5.00" Name="G-B3PR" ID="30004892" Region="欧米斯特" y="250.00" /><text y="250.00" x="180.00" id="20915">G-B3PR</text><rect Type="system" x="180.00" id="20917" height="5.00" width="5.00" Name="VULA-I" ID="30004890" Region="欧米斯特" y="300.00" /><text y="300.00" x="180.00" id="20918">VULA-I</text><rect Type="system" x="200.00" id="20920" height="5.00" width="5.00" Name="LQ-AHE" ID="30004896" Region="欧米斯特" y="400.00" /><text y="400.00" x="200.00" id="20921">LQ-AHE</text><rect Type="system" x="250.00" id="20923" height="5.00" width="5.00" Name="DJK-67" ID="30004903" Region="欧米斯特" y="680.00" /><text y="680.00" x="250.00" id="20924">DJK-67</text><rect Type="system" x="300.00" id="20926" height="5.00" width="5.00" Name="3FKU-H" ID="30004900" Region="欧米斯特" y="450.00" /><text y="450.00" x="300.00" id="20927">3FKU-H</text><rect Type="system" x="280.00" id="20929" height="5.00" width="5.00" Name="XPUM-L" ID="30004894" Region="欧米斯特" y="250.00" /><text y="250.00" x="280.00" id="20930">XPUM-L</text><rect Type="system" x="280.00" id="20932" height="5.00" width="5.00" Name="KR8-27" ID="30004895" Region="欧米斯特" y="300.00" /><text y="300.00" x="280.00" id="20933">KR8-27</text><rect Type="system" x="300.00" id="20935" height="5.00" width="5.00" Name="D2EZ-X" ID="30004902" Region="欧米斯特" y="600.00" /><text y="600.00" x="300.00" id="20936">D2EZ-X</text><rect Type="system" x="340.00" id="20938" height="5.00" width="5.00" Name="M9-FIB" ID="30004901" Region="欧米斯特" y="520.00" /><text y="520.00" x="340.00" id="20939">M9-FIB</text><rect Type="system" x="350.00" id="20941" height="5.00" width="5.00" Name="Y-MSJN" ID="30004898" Region="欧米斯特" y="400.00" /><text y="400.00" x="350.00" id="20942">Y-MSJN</text><rect Type="system" x="350.00" id="20944" height="5.00" width="5.00" Name="LOI-L1" ID="30004897" Region="欧米斯特" y="300.00" /><text y="300.00" x="350.00" id="20945">LOI-L1</text><rect Type="system" x="400.00" id="20947" height="5.00" width="5.00" Name="MJ-X5V" ID="30004899" Region="欧米斯特" y="450.00" /><text y="450.00" x="400.00" id="20948">MJ-X5V</text><rect Type="system" x="450.00" id="20950" height="5.00" width="5.00" Name="J-4FNO" ID="30004905" Region="欧米斯特" y="350.00" /><text y="350.00" x="450.00" id="20951">J-4FNO</text><rect Type="system" x="500.00" id="20953" height="5.00" width="5.00" Name="H90-C9" ID="30004916" Region="欧米斯特" y="550.00" /><text y="550.00" x="500.00" id="20954">H90-C9</text><rect Type="system" x="520.00" id="20956" height="5.00" width="5.00" Name="X-EHHD" ID="30004907" Region="欧米斯特" y="250.00" /><text y="250.00" x="520.00" id="20957">X-EHHD</text><rect Type="system" x="520.00" id="20959" height="5.00" width="5.00" Name="AXDX-F" ID="30004904" Region="欧米斯特" y="300.00" /><text y="300.00" x="520.00" id="20960">AXDX-F</text><rect Type="system" x="520.00" id="20962" height="5.00" width="5.00" Name="PEM-LC" ID="30004906" Region="欧米斯特" y="380.00" /><text y="380.00" x="520.00" id="20963">PEM-LC</text><rect Type="system" x="520.00" id="20965" height="5.00" width="5.00" Name="RI-JB1" ID="30004918" Region="欧米斯特" y="700.00" /><text y="700.00" x="520.00" id="20966">RI-JB1</text><rect Type="system" x="550.00" id="20968" height="5.00" width="5.00" Name="NZPK-G" ID="30004911" Region="欧米斯特" y="475.50" /><text y="475.50" x="550.00" id="20969">NZPK-G</text><rect Type="system" x="550.00" id="20971" height="5.00" width="5.00" Name="K-1OY3" ID="30004912" Region="欧米斯特" y="524.50" /><text y="524.50" x="550.00" id="20972">K-1OY3</text><rect Type="system" x="600.00" id="20974" height="5.00" width="5.00" Name="X-3AUU" ID="30004915" Region="欧米斯特" y="680.00" /><text y="680.00" x="600.00" id="20975">X-3AUU</text><rect Type="system" x="600.00" id="20977" height="5.00" width="5.00" Name="L-AS00" ID="30004910" Region="欧米斯特" y="250.00" /><text y="250.00" x="600.00" id="20978">L-AS00</text><rect Type="system" x="600.00" id="20980" height="5.00" width="5.00" Name="QSF-EJ" ID="30004909" Region="欧米斯特" y="300.00" /><text y="300.00" x="600.00" id="20981">QSF-EJ</text><rect Type="system" x="600.00" id="20983" height="5.00" width="5.00" Name="6T3I-L" ID="30004908" Region="欧米斯特" y="380.00" /><text y="380.00" x="600.00" id="20984">6T3I-L</text><rect Type="system" x="650.00" id="20986" height="5.00" width="5.00" Name="MMUF-8" ID="30004913" Region="欧米斯特" y="550.00" /><text y="550.00" x="650.00" id="20987">MMUF-8</text><rect Type="system" x="650.00" id="20989" height="5.00" width="5.00" Name="99-0GS" ID="30004914" Region="欧米斯特" y="650.00" /><text y="650.00" x="650.00" id="20990">99-0GS</text><rect Type="system" x="720.00" id="20992" height="5.00" width="5.00" Name="NQH-MR" ID="30004919" Region="欧米斯特" y="550.00" /><text y="550.00" x="720.00" id="20993">NQH-MR</text><rect Type="system" x="750.00" id="20995" height="5.00" width="5.00" Name="0DD-MH" ID="30004917" Region="欧米斯特" y="650.00" /><text y="650.00" x="750.00" id="20996">0DD-MH</text><rect Type="system" x="800.00" id="20998" height="5.00" width="5.00" Name="7L9-ZC" ID="30004926" Region="欧米斯特" y="170.00" /><text y="170.00" x="800.00" id="20999">7L9-ZC</text><rect Type="system" x="780.00" id="21001" height="5.00" width="5.00" Name="1I6F-9" ID="30004920" Region="欧米斯特" y="300.00" /><text y="300.00" x="780.00" id="21002">1I6F-9</text><rect Type="system" x="850.00" id="21004" height="5.00" width="5.00" Name="Z-7OK1" ID="30004921" Region="欧米斯特" y="300.00" /><text y="300.00" x="850.00" id="21005">Z-7OK1</text><rect Type="system" x="850.00" id="21007" height="5.00" width="5.00" Name="7-8EOE" ID="30004925" Region="欧米斯特" y="200.00" /><text y="200.00" x="850.00" id="21008">7-8EOE</text><rect Type="system" x="920.00" id="21010" height="5.00" width="5.00" Name="UEP0-A" ID="30004922" Region="欧米斯特" y="260.00" /><text y="260.00" x="920.00" id="21011">UEP0-A</text><rect Type="system" x="950.00" id="21013" height="5.00" width="5.00" Name="66-PMM" ID="30004923" Region="欧米斯特" y="220.00" /><text y="220.00" x="950.00" id="21014">66-PMM</text><rect Type="system" x="950.00" id="21016" height="5.00" width="5.00" Name="OKEO-X" ID="30004924" Region="欧米斯特" y="150.00" /><text y="150.00" x="950.00" id="21017">OKEO-X</text><rect Type="system" x="20.00" id="21019" height="5.00" width="5.00" Name="TSG-NO" ID="30004423" Region="非塔波利斯" y="75.50" /><text y="75.50" x="20.00" id="21020">TSG-NO</text><rect Type="system" x="740.00" id="21022" height="5.00" width="5.00" Name="ZO-P5K" ID="30004882" Region="特里菲斯" y="110.00" /><text y="110.00" x="740.00" id="21023">ZO-P5K</text><rect Type="system" x="920.00" id="21025" height="5.00" width="5.00" Name="6-ELQP" ID="30004486" Region="非塔波利斯" y="80.00" /><text y="80.00" x="920.00" id="21026">6-ELQP</text><line style="stroke:blue;fill:blue;" id="21028" x2="20.00" x1="20.00" y1="124.50" y2="75.50" /><line style="stroke:blue;fill:blue;" id="21029" x2="20.00" x1="20.00" y1="124.50" y2="180.00" /><line style="stroke:blue;fill:blue;" id="21030" x2="100.00" x1="20.00" y1="124.50" y2="120.00" /><line style="stroke:blue;fill:blue;" id="21031" x2="20.00" x1="20.00" y1="180.00" y2="124.50" /><line style="stroke:blue;fill:blue;" id="21032" x2="100.00" x1="20.00" y1="180.00" y2="120.00" /><line style="stroke:blue;fill:blue;" id="21033" x2="20.00" x1="20.00" y1="180.00" y2="250.00" /><line style="stroke:blue;fill:blue;" id="21034" x2="100.00" x1="20.00" y1="180.00" y2="180.00" /><line style="stroke:blue;fill:blue;" id="21035" x2="20.00" x1="20.00" y1="250.00" y2="180.00" /><line style="stroke:blue;fill:blue;" id="21036" x2="50.00" x1="20.00" y1="250.00" y2="300.00" /><line style="stroke:blue;fill:blue;" id="21037" x2="20.00" x1="50.00" y1="300.00" y2="250.00" /><line style="stroke:blue;fill:blue;" id="21038" x2="180.00" x1="50.00" y1="300.00" y2="300.00" /><line style="stroke:blue;fill:blue;" id="21039" x2="150.00" x1="100.00" y1="400.00" y2="350.00" /><line style="stroke:blue;fill:blue;" id="21040" x2="20.00" x1="100.00" y1="120.00" y2="124.50" /><line style="stroke:blue;fill:blue;" id="21041" x2="20.00" x1="100.00" y1="120.00" y2="180.00" /><line style="stroke:blue;fill:blue;" id="21042" x2="100.00" x1="100.00" y1="120.00" y2="180.00" /><line style="stroke:blue;fill:blue;" id="21043" x2="20.00" x1="100.00" y1="180.00" y2="180.00" /><line style="stroke:blue;fill:blue;" id="21044" x2="100.00" x1="100.00" y1="180.00" y2="120.00" /><line style="stroke:blue;fill:blue;" id="21045" x2="180.00" x1="150.00" y1="350.00" y2="300.00" /><line style="stroke:blue;fill:blue;" id="21046" x2="100.00" x1="150.00" y1="350.00" y2="400.00" /><line style="stroke:blue;fill:blue;" id="21047" x2="200.00" x1="150.00" y1="350.00" y2="400.00" /><line style="stroke:blue;fill:blue;" id="21048" x2="180.00" x1="180.00" y1="250.00" y2="300.00" /><line style="stroke:blue;fill:blue;" id="21049" x2="280.00" x1="180.00" y1="250.00" y2="250.00" /><line style="stroke:blue;fill:blue;" id="21050" x2="50.00" x1="180.00" y1="300.00" y2="300.00" /><line style="stroke:blue;fill:blue;" id="21051" x2="150.00" x1="180.00" y1="300.00" y2="350.00" /><line style="stroke:blue;fill:blue;" id="21052" x2="180.00" x1="180.00" y1="300.00" y2="250.00" /><line style="stroke:blue;fill:blue;" id="21053" x2="280.00" x1="180.00" y1="300.00" y2="300.00" /><line style="stroke:blue;fill:blue;" id="21054" x2="150.00" x1="200.00" y1="400.00" y2="350.00" /><line style="stroke:blue;fill:blue;" id="21055" x2="300.00" x1="250.00" y1="680.00" y2="600.00" /><line style="stroke:blue;fill:blue;" id="21056" x2="350.00" x1="300.00" y1="450.00" y2="400.00" /><line style="stroke:blue;fill:blue;" id="21057" x2="340.00" x1="300.00" y1="450.00" y2="520.00" /><line style="stroke:blue;fill:blue;" id="21058" x2="180.00" x1="280.00" y1="250.00" y2="250.00" /><line style="stroke:blue;fill:blue;" id="21059" x2="280.00" x1="280.00" y1="250.00" y2="300.00" /><line style="stroke:blue;fill:blue;" id="21060" x2="180.00" x1="280.00" y1="300.00" y2="300.00" /><line style="stroke:blue;fill:blue;" id="21061" x2="280.00" x1="280.00" y1="300.00" y2="250.00" /><line style="stroke:blue;fill:blue;" id="21062" x2="350.00" x1="280.00" y1="300.00" y2="300.00" /><line style="stroke:blue;fill:blue;" id="21063" x2="340.00" x1="300.00" y1="600.00" y2="520.00" /><line style="stroke:blue;fill:blue;" id="21064" x2="250.00" x1="300.00" y1="600.00" y2="680.00" /><line style="stroke:blue;fill:blue;" id="21065" x2="400.00" x1="340.00" y1="520.00" y2="450.00" /><line style="stroke:blue;fill:blue;" id="21066" x2="300.00" x1="340.00" y1="520.00" y2="450.00" /><line style="stroke:blue;fill:blue;" id="21067" x2="300.00" x1="340.00" y1="520.00" y2="600.00" /><line style="stroke:blue;fill:blue;" id="21068" x2="350.00" x1="350.00" y1="400.00" y2="300.00" /><line style="stroke:blue;fill:blue;" id="21069" x2="400.00" x1="350.00" y1="400.00" y2="450.00" /><line style="stroke:blue;fill:blue;" id="21070" x2="300.00" x1="350.00" y1="400.00" y2="450.00" /><line style="stroke:blue;fill:blue;" id="21071" x2="280.00" x1="350.00" y1="300.00" y2="300.00" /><line style="stroke:blue;fill:blue;" id="21072" x2="350.00" x1="350.00" y1="300.00" y2="400.00" /><line style="stroke:blue;fill:blue;" id="21073" x2="520.00" x1="350.00" y1="300.00" y2="300.00" /><line style="stroke:blue;fill:blue;" id="21074" x2="350.00" x1="400.00" y1="450.00" y2="400.00" /><line style="stroke:blue;fill:blue;" id="21075" x2="340.00" x1="400.00" y1="450.00" y2="520.00" /><line style="stroke:blue;fill:blue;" id="21076" x2="520.00" x1="450.00" y1="350.00" y2="300.00" /><line style="stroke:blue;fill:blue;" id="21077" x2="520.00" x1="450.00" y1="350.00" y2="380.00" /><line style="stroke:blue;fill:blue;" id="21078" x2="550.00" x1="500.00" y1="550.00" y2="524.50" /><line style="stroke:blue;fill:blue;" id="21079" x2="520.00" x1="520.00" y1="250.00" y2="300.00" /><line style="stroke:blue;fill:blue;" id="21080" x2="350.00" x1="520.00" y1="300.00" y2="300.00" /><line style="stroke:blue;fill:blue;" id="21081" x2="450.00" x1="520.00" y1="300.00" y2="350.00" /><line style="stroke:blue;fill:blue;" id="21082" x2="520.00" x1="520.00" y1="300.00" y2="380.00" /><line style="stroke:blue;fill:blue;" id="21083" x2="520.00" x1="520.00" y1="300.00" y2="250.00" /><line style="stroke:blue;fill:blue;" id="21084" x2="600.00" x1="520.00" y1="300.00" y2="300.00" /><line style="stroke:blue;fill:blue;" id="21085" x2="520.00" x1="520.00" y1="380.00" y2="300.00" /><line style="stroke:blue;fill:blue;" id="21086" x2="450.00" x1="520.00" y1="380.00" y2="350.00" /><line style="stroke:blue;fill:blue;" id="21087" x2="600.00" x1="520.00" y1="380.00" y2="380.00" /><line style="stroke:blue;fill:blue;" id="21088" x2="600.00" x1="520.00" y1="700.00" y2="680.00" /><line style="stroke:blue;fill:blue;" id="21089" x2="600.00" x1="550.00" y1="475.50" y2="380.00" /><line style="stroke:blue;fill:blue;" id="21090" x2="550.00" x1="550.00" y1="475.50" y2="524.50" /><line style="stroke:blue;fill:blue;" id="21091" x2="550.00" x1="550.00" y1="524.50" y2="475.50" /><line style="stroke:blue;fill:blue;" id="21092" x2="650.00" x1="550.00" y1="524.50" y2="550.00" /><line style="stroke:blue;fill:blue;" id="21093" x2="500.00" x1="550.00" y1="524.50" y2="550.00" /><line style="stroke:blue;fill:blue;" id="21094" x2="650.00" x1="600.00" y1="680.00" y2="650.00" /><line style="stroke:blue;fill:blue;" id="21095" x2="520.00" x1="600.00" y1="680.00" y2="700.00" /><line style="stroke:blue;fill:blue;" id="21096" x2="600.00" x1="600.00" y1="250.00" y2="300.00" /><line style="stroke:blue;fill:blue;" id="21097" x2="520.00" x1="600.00" y1="300.00" y2="300.00" /><line style="stroke:blue;fill:blue;" id="21098" x2="600.00" x1="600.00" y1="300.00" y2="380.00" /><line style="stroke:blue;fill:blue;" id="21099" x2="600.00" x1="600.00" y1="300.00" y2="250.00" /><line style="stroke:blue;fill:blue;" id="21100" x2="780.00" x1="600.00" y1="300.00" y2="300.00" /><line style="stroke:blue;fill:blue;" id="21101" x2="520.00" x1="600.00" y1="380.00" y2="380.00" /><line style="stroke:blue;fill:blue;" id="21102" x2="600.00" x1="600.00" y1="380.00" y2="300.00" /><line style="stroke:blue;fill:blue;" id="21103" x2="550.00" x1="600.00" y1="380.00" y2="475.50" /><line style="stroke:blue;fill:blue;" id="21104" x2="550.00" x1="650.00" y1="550.00" y2="524.50" /><line style="stroke:blue;fill:blue;" id="21105" x2="650.00" x1="650.00" y1="550.00" y2="650.00" /><line style="stroke:blue;fill:blue;" id="21106" x2="720.00" x1="650.00" y1="550.00" y2="550.00" /><line style="stroke:blue;fill:blue;" id="21107" x2="650.00" x1="650.00" y1="650.00" y2="550.00" /><line style="stroke:blue;fill:blue;" id="21108" x2="600.00" x1="650.00" y1="650.00" y2="680.00" /><line style="stroke:blue;fill:blue;" id="21109" x2="750.00" x1="650.00" y1="650.00" y2="650.00" /><line style="stroke:blue;fill:blue;" id="21110" x2="720.00" x1="650.00" y1="650.00" y2="550.00" /><line style="stroke:blue;fill:blue;" id="21111" x2="650.00" x1="720.00" y1="550.00" y2="550.00" /><line style="stroke:blue;fill:blue;" id="21112" x2="650.00" x1="720.00" y1="550.00" y2="650.00" /><line style="stroke:blue;fill:blue;" id="21113" x2="750.00" x1="720.00" y1="550.00" y2="650.00" /><line style="stroke:blue;fill:blue;" id="21114" x2="650.00" x1="750.00" y1="650.00" y2="650.00" /><line style="stroke:blue;fill:blue;" id="21115" x2="720.00" x1="750.00" y1="650.00" y2="550.00" /><line style="stroke:blue;fill:blue;" id="21116" x2="740.00" x1="800.00" y1="170.00" y2="110.00" /><line style="stroke:blue;fill:blue;" id="21117" x2="850.00" x1="800.00" y1="170.00" y2="200.00" /><line style="stroke:blue;fill:blue;" id="21118" x2="600.00" x1="780.00" y1="300.00" y2="300.00" /><line style="stroke:blue;fill:blue;" id="21119" x2="850.00" x1="780.00" y1="300.00" y2="300.00" /><line style="stroke:blue;fill:blue;" id="21120" x2="780.00" x1="850.00" y1="300.00" y2="300.00" /><line style="stroke:blue;fill:blue;" id="21121" x2="920.00" x1="850.00" y1="300.00" y2="260.00" /><line style="stroke:blue;fill:blue;" id="21122" x2="950.00" x1="850.00" y1="200.00" y2="220.00" /><line style="stroke:blue;fill:blue;" id="21123" x2="800.00" x1="850.00" y1="200.00" y2="170.00" /><line style="stroke:blue;fill:blue;" id="21124" x2="850.00" x1="920.00" y1="260.00" y2="300.00" /><line style="stroke:blue;fill:blue;" id="21125" x2="950.00" x1="920.00" y1="260.00" y2="220.00" /><line style="stroke:blue;fill:blue;" id="21126" x2="920.00" x1="950.00" y1="220.00" y2="260.00" /><line style="stroke:blue;fill:blue;" id="21127" x2="950.00" x1="950.00" y1="220.00" y2="150.00" /><line style="stroke:blue;fill:blue;" id="21128" x2="850.00" x1="950.00" y1="220.00" y2="200.00" /><line style="stroke:blue;fill:blue;" id="21129" x2="920.00" x1="950.00" y1="150.00" y2="80.00" /><line style="stroke:blue;fill:blue;" id="21130" x2="950.00" x1="950.00" y1="150.00" y2="220.00" /><line style="stroke:blue;fill:blue;" id="21131" x2="20.00" x1="20.00" y1="75.50" y2="124.50" /><line style="stroke:blue;fill:blue;" id="21132" x2="800.00" x1="740.00" y1="110.00" y2="170.00" /><line style="stroke:blue;fill:blue;" id="21133" x2="950.00" x1="920.00" y1="80.00" y2="150.00" /></svg>
