<?xml version="1.0" standalone="yes"?><!DOCTYPE svg PUBLIC "-//W3C//DTD SVG 1.1//EN" "http://www.w3.org/Graphics/SVG/1.1/DTD/svg11.dtd"[]><svg height="800.00" id="20889" width="1050.00" xmlns="http://www.w3.org/2000/svg" xmlns:xlink="http://www.w3.org/1999/xlink"><rect Type="system" Region="欧米斯特" height="5.00" y="124.50" Name="9MWZ-B" width="5.00" x="20.00" id="20890" ID="30004884" /><text x="20.00" y="124.50" id="20891">9MWZ-B</text><rect Type="system" Region="欧米斯特" height="5.00" y="180.00" Name="LS-QLX" width="5.00" x="20.00" id="20893" ID="30004885" /><text x="20.00" y="180.00" id="20894">LS-QLX</text><rect Type="system" Region="欧米斯特" height="5.00" y="250.00" Name="CO-7BI" width="5.00" x="20.00" id="20896" ID="30004887" /><text x="20.00" y="250.00" id="20897">CO-7BI</text><rect Type="system" Region="欧米斯特" height="5.00" y="300.00" Name="ZJG-7D" width="5.00" x="50.00" id="20899" ID="30004888" /><text x="50.00" y="300.00" id="20900">ZJG-7D</text><rect Type="system" Region="欧米斯特" height="5.00" y="400.00" Name="73-JQO" width="5.00" x="100.00" id="20902" ID="30004893" /><text x="100.00" y="400.00" id="20903">73-JQO</text><rect Type="system" Region="欧米斯特" height="5.00" y="120.00" Name="S-XZHU" width="5.00" x="100.00" id="20905" ID="30004886" /><text x="100.00" y="120.00" id="20906">S-XZHU</text><rect Type="system" Region="欧米斯特" height="5.00" y="180.00" Name="C-WPWH" width="5.00" x="100.00" id="20908" ID="30004889" /><text x="100.00" y="180.00" id="20909">C-WPWH</text><rect Type="system" Region="欧米斯特" height="5.00" y="350.00" Name="R2TJ-1" width="5.00" x="150.00" id="20911" ID="30004891" /><text x="150.00" y="350.00" id="20912">R2TJ-1</text><rect Type="system" Region="欧米斯特" height="5.00" y="250.00" Name="G-B3PR" width="5.00" x="180.00" id="20914" ID="30004892" /><text x="180.00" y="250.00" id="20915">G-B3PR</text><rect Type="system" Region="欧米斯特" height="5.00" y="300.00" Name="VULA-I" width="5.00" x="180.00" id="20917" ID="30004890" /><text x="180.00" y="300.00" id="20918">VULA-I</text><rect Type="system" Region="欧米斯特" height="5.00" y="400.00" Name="LQ-AHE" width="5.00" x="200.00" id="20920" ID="30004896" /><text x="200.00" y="400.00" id="20921">LQ-AHE</text><rect Type="system" Region="欧米斯特" height="5.00" y="680.00" Name="DJK-67" width="5.00" x="250.00" id="20923" ID="30004903" /><text x="250.00" y="680.00" id="20924">DJK-67</text><rect Type="system" Region="欧米斯特" height="5.00" y="450.00" Name="3FKU-H" width="5.00" x="300.00" id="20926" ID="30004900" /><text x="300.00" y="450.00" id="20927">3FKU-H</text><rect Type="system" Region="欧米斯特" height="5.00" y="250.00" Name="XPUM-L" width="5.00" x="280.00" id="20929" ID="30004894" /><text x="280.00" y="250.00" id="20930">XPUM-L</text><rect Type="system" Region="欧米斯特" height="5.00" y="300.00" Name="KR8-27" width="5.00" x="280.00" id="20932" ID="30004895" /><text x="280.00" y="300.00" id="20933">KR8-27</text><rect Type="system" Region="欧米斯特" height="5.00" y="600.00" Name="D2EZ-X" width="5.00" x="300.00" id="20935" ID="30004902" /><text x="300.00" y="600.00" id="20936">D2EZ-X</text><rect Type="system" Region="欧米斯特" height="5.00" y="520.00" Name="M9-FIB" width="5.00" x="340.00" id="20938" ID="30004901" /><text x="340.00" y="520.00" id="20939">M9-FIB</text><rect Type="system" Region="欧米斯特" height="5.00" y="400.00" Name="Y-MSJN" width="5.00" x="350.00" id="20941" ID="30004898" /><text x="350.00" y="400.00" id="20942">Y-MSJN</text><rect Type="system" Region="欧米斯特" height="5.00" y="300.00" Name="LOI-L1" width="5.00" x="350.00" id="20944" ID="30004897" /><text x="350.00" y="300.00" id="20945">LOI-L1</text><rect Type="system" Region="欧米斯特" height="5.00" y="450.00" Name="MJ-X5V" width="5.00" x="400.00" id="20947" ID="30004899" /><text x="400.00" y="450.00" id="20948">MJ-X5V</text><rect Type="system" Region="欧米斯特" height="5.00" y="350.00" Name="J-4FNO" width="5.00" x="450.00" id="20950" ID="30004905" /><text x="450.00" y="350.00" id="20951">J-4FNO</text><rect Type="system" Region="欧米斯特" height="5.00" y="550.00" Name="H90-C9" width="5.00" x="500.00" id="20953" ID="30004916" /><text x="500.00" y="550.00" id="20954">H90-C9</text><rect Type="system" Region="欧米斯特" height="5.00" y="250.00" Name="X-EHHD" width="5.00" x="520.00" id="20956" ID="30004907" /><text x="520.00" y="250.00" id="20957">X-EHHD</text><rect Type="system" Region="欧米斯特" height="5.00" y="300.00" Name="AXDX-F" width="5.00" x="520.00" id="20959" ID="30004904" /><text x="520.00" y="300.00" id="20960">AXDX-F</text><rect Type="system" Region="欧米斯特" height="5.00" y="380.00" Name="PEM-LC" width="5.00" x="520.00" id="20962" ID="30004906" /><text x="520.00" y="380.00" id="20963">PEM-LC</text><rect Type="system" Region="欧米斯特" height="5.00" y="700.00" Name="RI-JB1" width="5.00" x="520.00" id="20965" ID="30004918" /><text x="520.00" y="700.00" id="20966">RI-JB1</text><rect Type="system" Region="欧米斯特" height="5.00" y="475.50" Name="NZPK-G" width="5.00" x="550.00" id="20968" ID="30004911" /><text x="550.00" y="475.50" id="20969">NZPK-G</text><rect Type="system" Region="欧米斯特" height="5.00" y="524.50" Name="K-1OY3" width="5.00" x="550.00" id="20971" ID="30004912" /><text x="550.00" y="524.50" id="20972">K-1OY3</text><rect Type="system" Region="欧米斯特" height="5.00" y="680.00" Name="X-3AUU" width="5.00" x="600.00" id="20974" ID="30004915" /><text x="600.00" y="680.00" id="20975">X-3AUU</text><rect Type="system" Region="欧米斯特" height="5.00" y="250.00" Name="L-AS00" width="5.00" x="600.00" id="20977" ID="30004910" /><text x="600.00" y="250.00" id="20978">L-AS00</text><rect Type="system" Region="欧米斯特" height="5.00" y="300.00" Name="QSF-EJ" width="5.00" x="600.00" id="20980" ID="30004909" /><text x="600.00" y="300.00" id="20981">QSF-EJ</text><rect Type="system" Region="欧米斯特" height="5.00" y="380.00" Name="6T3I-L" width="5.00" x="600.00" id="20983" ID="30004908" /><text x="600.00" y="380.00" id="20984">6T3I-L</text><rect Type="system" Region="欧米斯特" height="5.00" y="550.00" Name="MMUF-8" width="5.00" x="650.00" id="20986" ID="30004913" /><text x="650.00" y="550.00" id="20987">MMUF-8</text><rect Type="system" Region="欧米斯特" height="5.00" y="650.00" Name="99-0GS" width="5.00" x="650.00" id="20989" ID="30004914" /><text x="650.00" y="650.00" id="20990">99-0GS</text><rect Type="system" Region="欧米斯特" height="5.00" y="550.00" Name="NQH-MR" width="5.00" x="720.00" id="20992" ID="30004919" /><text x="720.00" y="550.00" id="20993">NQH-MR</text><rect Type="system" Region="欧米斯特" height="5.00" y="650.00" Name="0DD-MH" width="5.00" x="750.00" id="20995" ID="30004917" /><text x="750.00" y="650.00" id="20996">0DD-MH</text><rect Type="system" Region="欧米斯特" height="5.00" y="170.00" Name="7L9-ZC" width="5.00" x="800.00" id="20998" ID="30004926" /><text x="800.00" y="170.00" id="20999">7L9-ZC</text><rect Type="system" Region="欧米斯特" height="5.00" y="300.00" Name="1I6F-9" width="5.00" x="780.00" id="21001" ID="30004920" /><text x="780.00" y="300.00" id="21002">1I6F-9</text><rect Type="system" Region="欧米斯特" height="5.00" y="300.00" Name="Z-7OK1" width="5.00" x="850.00" id="21004" ID="30004921" /><text x="850.00" y="300.00" id="21005">Z-7OK1</text><rect Type="system" Region="欧米斯特" height="5.00" y="200.00" Name="7-8EOE" width="5.00" x="850.00" id="21007" ID="30004925" /><text x="850.00" y="200.00" id="21008">7-8EOE</text><rect Type="system" Region="欧米斯特" height="5.00" y="260.00" Name="UEP0-A" width="5.00" x="920.00" id="21010" ID="30004922" /><text x="920.00" y="260.00" id="21011">UEP0-A</text><rect Type="system" Region="欧米斯特" height="5.00" y="220.00" Name="66-PMM" width="5.00" x="950.00" id="21013" ID="30004923" /><text x="950.00" y="220.00" id="21014">66-PMM</text><rect Type="system" Region="欧米斯特" height="5.00" y="150.00" Name="OKEO-X" width="5.00" x="950.00" id="21016" ID="30004924" /><text x="950.00" y="150.00" id="21017">OKEO-X</text><rect Type="system" Region="非塔波利斯" height="5.00" y="75.50" Name="TSG-NO" width="5.00" x="20.00" id="21019" ID="30004423" /><text x="20.00" y="75.50" id="21020">TSG-NO</text><rect Type="system" Region="特里菲斯" height="5.00" y="110.00" Name="ZO-P5K" width="5.00" x="740.00" id="21022" ID="30004882" /><text x="740.00" y="110.00" id="21023">ZO-P5K</text><rect Type="system" Region="非塔波利斯" height="5.00" y="80.00" Name="6-ELQP" width="5.00" x="920.00" id="21025" ID="30004486" /><text x="920.00" y="80.00" id="21026">6-ELQP</text><line x2="20.00" style="fill:blue;stroke:blue;" y1="124.50" x1="20.00" id="21028" y2="75.50" /><line x2="20.00" style="fill:blue;stroke:blue;" y1="124.50" x1="20.00" id="21029" y2="180.00" /><line x2="100.00" style="fill:blue;stroke:blue;" y1="124.50" x1="20.00" id="21030" y2="120.00" /><line x2="20.00" style="fill:blue;stroke:blue;" y1="180.00" x1="20.00" id="21031" y2="124.50" /><line x2="100.00" style="fill:blue;stroke:blue;" y1="180.00" x1="20.00" id="21032" y2="120.00" /><line x2="20.00" style="fill:blue;stroke:blue;" y1="180.00" x1="20.00" id="21033" y2="250.00" /><line x2="100.00" style="fill:blue;stroke:blue;" y1="180.00" x1="20.00" id="21034" y2="180.00" /><line x2="20.00" style="fill:blue;stroke:blue;" y1="250.00" x1="20.00" id="21035" y2="180.00" /><line x2="50.00" style="fill:blue;stroke:blue;" y1="250.00" x1="20.00" id="21036" y2="300.00" /><line x2="20.00" style="fill:blue;stroke:blue;" y1="300.00" x1="50.00" id="21037" y2="250.00" /><line x2="180.00" style="fill:blue;stroke:blue;" y1="300.00" x1="50.00" id="21038" y2="300.00" /><line x2="150.00" style="fill:blue;stroke:blue;" y1="400.00" x1="100.00" id="21039" y2="350.00" /><line x2="20.00" style="fill:blue;stroke:blue;" y1="120.00" x1="100.00" id="21040" y2="124.50" /><line x2="20.00" style="fill:blue;stroke:blue;" y1="120.00" x1="100.00" id="21041" y2="180.00" /><line x2="100.00" style="fill:blue;stroke:blue;" y1="120.00" x1="100.00" id="21042" y2="180.00" /><line x2="20.00" style="fill:blue;stroke:blue;" y1="180.00" x1="100.00" id="21043" y2="180.00" /><line x2="100.00" style="fill:blue;stroke:blue;" y1="180.00" x1="100.00" id="21044" y2="120.00" /><line x2="180.00" style="fill:blue;stroke:blue;" y1="350.00" x1="150.00" id="21045" y2="300.00" /><line x2="100.00" style="fill:blue;stroke:blue;" y1="350.00" x1="150.00" id="21046" y2="400.00" /><line x2="200.00" style="fill:blue;stroke:blue;" y1="350.00" x1="150.00" id="21047" y2="400.00" /><line x2="180.00" style="fill:blue;stroke:blue;" y1="250.00" x1="180.00" id="21048" y2="300.00" /><line x2="280.00" style="fill:blue;stroke:blue;" y1="250.00" x1="180.00" id="21049" y2="250.00" /><line x2="50.00" style="fill:blue;stroke:blue;" y1="300.00" x1="180.00" id="21050" y2="300.00" /><line x2="150.00" style="fill:blue;stroke:blue;" y1="300.00" x1="180.00" id="21051" y2="350.00" /><line x2="180.00" style="fill:blue;stroke:blue;" y1="300.00" x1="180.00" id="21052" y2="250.00" /><line x2="280.00" style="fill:blue;stroke:blue;" y1="300.00" x1="180.00" id="21053" y2="300.00" /><line x2="150.00" style="fill:blue;stroke:blue;" y1="400.00" x1="200.00" id="21054" y2="350.00" /><line x2="300.00" style="fill:blue;stroke:blue;" y1="680.00" x1="250.00" id="21055" y2="600.00" /><line x2="350.00" style="fill:blue;stroke:blue;" y1="450.00" x1="300.00" id="21056" y2="400.00" /><line x2="340.00" style="fill:blue;stroke:blue;" y1="450.00" x1="300.00" id="21057" y2="520.00" /><line x2="180.00" style="fill:blue;stroke:blue;" y1="250.00" x1="280.00" id="21058" y2="250.00" /><line x2="280.00" style="fill:blue;stroke:blue;" y1="250.00" x1="280.00" id="21059" y2="300.00" /><line x2="180.00" style="fill:blue;stroke:blue;" y1="300.00" x1="280.00" id="21060" y2="300.00" /><line x2="280.00" style="fill:blue;stroke:blue;" y1="300.00" x1="280.00" id="21061" y2="250.00" /><line x2="350.00" style="fill:blue;stroke:blue;" y1="300.00" x1="280.00" id="21062" y2="300.00" /><line x2="340.00" style="fill:blue;stroke:blue;" y1="600.00" x1="300.00" id="21063" y2="520.00" /><line x2="250.00" style="fill:blue;stroke:blue;" y1="600.00" x1="300.00" id="21064" y2="680.00" /><line x2="400.00" style="fill:blue;stroke:blue;" y1="520.00" x1="340.00" id="21065" y2="450.00" /><line x2="300.00" style="fill:blue;stroke:blue;" y1="520.00" x1="340.00" id="21066" y2="450.00" /><line x2="300.00" style="fill:blue;stroke:blue;" y1="520.00" x1="340.00" id="21067" y2="600.00" /><line x2="350.00" style="fill:blue;stroke:blue;" y1="400.00" x1="350.00" id="21068" y2="300.00" /><line x2="400.00" style="fill:blue;stroke:blue;" y1="400.00" x1="350.00" id="21069" y2="450.00" /><line x2="300.00" style="fill:blue;stroke:blue;" y1="400.00" x1="350.00" id="21070" y2="450.00" /><line x2="280.00" style="fill:blue;stroke:blue;" y1="300.00" x1="350.00" id="21071" y2="300.00" /><line x2="350.00" style="fill:blue;stroke:blue;" y1="300.00" x1="350.00" id="21072" y2="400.00" /><line x2="520.00" style="fill:blue;stroke:blue;" y1="300.00" x1="350.00" id="21073" y2="300.00" /><line x2="350.00" style="fill:blue;stroke:blue;" y1="450.00" x1="400.00" id="21074" y2="400.00" /><line x2="340.00" style="fill:blue;stroke:blue;" y1="450.00" x1="400.00" id="21075" y2="520.00" /><line x2="520.00" style="fill:blue;stroke:blue;" y1="350.00" x1="450.00" id="21076" y2="300.00" /><line x2="520.00" style="fill:blue;stroke:blue;" y1="350.00" x1="450.00" id="21077" y2="380.00" /><line x2="550.00" style="fill:blue;stroke:blue;" y1="550.00" x1="500.00" id="21078" y2="524.50" /><line x2="520.00" style="fill:blue;stroke:blue;" y1="250.00" x1="520.00" id="21079" y2="300.00" /><line x2="350.00" style="fill:blue;stroke:blue;" y1="300.00" x1="520.00" id="21080" y2="300.00" /><line x2="450.00" style="fill:blue;stroke:blue;" y1="300.00" x1="520.00" id="21081" y2="350.00" /><line x2="520.00" style="fill:blue;stroke:blue;" y1="300.00" x1="520.00" id="21082" y2="380.00" /><line x2="520.00" style="fill:blue;stroke:blue;" y1="300.00" x1="520.00" id="21083" y2="250.00" /><line x2="600.00" style="fill:blue;stroke:blue;" y1="300.00" x1="520.00" id="21084" y2="300.00" /><line x2="520.00" style="fill:blue;stroke:blue;" y1="380.00" x1="520.00" id="21085" y2="300.00" /><line x2="450.00" style="fill:blue;stroke:blue;" y1="380.00" x1="520.00" id="21086" y2="350.00" /><line x2="600.00" style="fill:blue;stroke:blue;" y1="380.00" x1="520.00" id="21087" y2="380.00" /><line x2="600.00" style="fill:blue;stroke:blue;" y1="700.00" x1="520.00" id="21088" y2="680.00" /><line x2="600.00" style="fill:blue;stroke:blue;" y1="475.50" x1="550.00" id="21089" y2="380.00" /><line x2="550.00" style="fill:blue;stroke:blue;" y1="475.50" x1="550.00" id="21090" y2="524.50" /><line x2="550.00" style="fill:blue;stroke:blue;" y1="524.50" x1="550.00" id="21091" y2="475.50" /><line x2="650.00" style="fill:blue;stroke:blue;" y1="524.50" x1="550.00" id="21092" y2="550.00" /><line x2="500.00" style="fill:blue;stroke:blue;" y1="524.50" x1="550.00" id="21093" y2="550.00" /><line x2="650.00" style="fill:blue;stroke:blue;" y1="680.00" x1="600.00" id="21094" y2="650.00" /><line x2="520.00" style="fill:blue;stroke:blue;" y1="680.00" x1="600.00" id="21095" y2="700.00" /><line x2="600.00" style="fill:blue;stroke:blue;" y1="250.00" x1="600.00" id="21096" y2="300.00" /><line x2="520.00" style="fill:blue;stroke:blue;" y1="300.00" x1="600.00" id="21097" y2="300.00" /><line x2="600.00" style="fill:blue;stroke:blue;" y1="300.00" x1="600.00" id="21098" y2="380.00" /><line x2="600.00" style="fill:blue;stroke:blue;" y1="300.00" x1="600.00" id="21099" y2="250.00" /><line x2="780.00" style="fill:blue;stroke:blue;" y1="300.00" x1="600.00" id="21100" y2="300.00" /><line x2="520.00" style="fill:blue;stroke:blue;" y1="380.00" x1="600.00" id="21101" y2="380.00" /><line x2="600.00" style="fill:blue;stroke:blue;" y1="380.00" x1="600.00" id="21102" y2="300.00" /><line x2="550.00" style="fill:blue;stroke:blue;" y1="380.00" x1="600.00" id="21103" y2="475.50" /><line x2="550.00" style="fill:blue;stroke:blue;" y1="550.00" x1="650.00" id="21104" y2="524.50" /><line x2="650.00" style="fill:blue;stroke:blue;" y1="550.00" x1="650.00" id="21105" y2="650.00" /><line x2="720.00" style="fill:blue;stroke:blue;" y1="550.00" x1="650.00" id="21106" y2="550.00" /><line x2="650.00" style="fill:blue;stroke:blue;" y1="650.00" x1="650.00" id="21107" y2="550.00" /><line x2="600.00" style="fill:blue;stroke:blue;" y1="650.00" x1="650.00" id="21108" y2="680.00" /><line x2="750.00" style="fill:blue;stroke:blue;" y1="650.00" x1="650.00" id="21109" y2="650.00" /><line x2="720.00" style="fill:blue;stroke:blue;" y1="650.00" x1="650.00" id="21110" y2="550.00" /><line x2="650.00" style="fill:blue;stroke:blue;" y1="550.00" x1="720.00" id="21111" y2="550.00" /><line x2="650.00" style="fill:blue;stroke:blue;" y1="550.00" x1="720.00" id="21112" y2="650.00" /><line x2="750.00" style="fill:blue;stroke:blue;" y1="550.00" x1="720.00" id="21113" y2="650.00" /><line x2="650.00" style="fill:blue;stroke:blue;" y1="650.00" x1="750.00" id="21114" y2="650.00" /><line x2="720.00" style="fill:blue;stroke:blue;" y1="650.00" x1="750.00" id="21115" y2="550.00" /><line x2="740.00" style="fill:blue;stroke:blue;" y1="170.00" x1="800.00" id="21116" y2="110.00" /><line x2="850.00" style="fill:blue;stroke:blue;" y1="170.00" x1="800.00" id="21117" y2="200.00" /><line x2="600.00" style="fill:blue;stroke:blue;" y1="300.00" x1="780.00" id="21118" y2="300.00" /><line x2="850.00" style="fill:blue;stroke:blue;" y1="300.00" x1="780.00" id="21119" y2="300.00" /><line x2="780.00" style="fill:blue;stroke:blue;" y1="300.00" x1="850.00" id="21120" y2="300.00" /><line x2="920.00" style="fill:blue;stroke:blue;" y1="300.00" x1="850.00" id="21121" y2="260.00" /><line x2="950.00" style="fill:blue;stroke:blue;" y1="200.00" x1="850.00" id="21122" y2="220.00" /><line x2="800.00" style="fill:blue;stroke:blue;" y1="200.00" x1="850.00" id="21123" y2="170.00" /><line x2="850.00" style="fill:blue;stroke:blue;" y1="260.00" x1="920.00" id="21124" y2="300.00" /><line x2="950.00" style="fill:blue;stroke:blue;" y1="260.00" x1="920.00" id="21125" y2="220.00" /><line x2="920.00" style="fill:blue;stroke:blue;" y1="220.00" x1="950.00" id="21126" y2="260.00" /><line x2="950.00" style="fill:blue;stroke:blue;" y1="220.00" x1="950.00" id="21127" y2="150.00" /><line x2="850.00" style="fill:blue;stroke:blue;" y1="220.00" x1="950.00" id="21128" y2="200.00" /><line x2="920.00" style="fill:blue;stroke:blue;" y1="150.00" x1="950.00" id="21129" y2="80.00" /><line x2="950.00" style="fill:blue;stroke:blue;" y1="150.00" x1="950.00" id="21130" y2="220.00" /><line x2="20.00" style="fill:blue;stroke:blue;" y1="75.50" x1="20.00" id="21131" y2="124.50" /><line x2="800.00" style="fill:blue;stroke:blue;" y1="110.00" x1="740.00" id="21132" y2="170.00" /><line x2="950.00" style="fill:blue;stroke:blue;" y1="80.00" x1="920.00" id="21133" y2="150.00" /></svg>
