<?xml version="1.0" standalone="yes"?><!DOCTYPE svg PUBLIC "-//W3C//DTD SVG 1.1//EN" "http://www.w3.org/Graphics/SVG/1.1/DTD/svg11.dtd"[]><svg width="1050.00" height="800.00" id="20344" xmlns="http://www.w3.org/2000/svg" xmlns:xlink="http://www.w3.org/1999/xlink"><rect Type="system" x="20.00" id="20345" height="5.00" width="5.00" Name="MZLW-9" ID="30003185" Region="欧莎" y="300.00" /><text y="300.00" x="20.00" id="20346">MZLW-9</text><rect Type="system" x="20.00" id="20348" height="5.00" width="5.00" Name="ND-X7X" ID="30003186" Region="欧莎" y="450.00" /><text y="450.00" x="20.00" id="20349">ND-X7X</text><rect Type="system" x="50.00" id="20351" height="5.00" width="5.00" Name="OZ-DS5" ID="30003254" Region="欧莎" y="700.00" /><text y="700.00" x="50.00" id="20352">OZ-DS5</text><rect Type="system" x="50.00" id="20354" height="5.00" width="5.00" Name="DGDT-3" ID="30003187" Region="欧莎" y="550.00" /><text y="550.00" x="50.00" id="20355">DGDT-3</text><rect Type="system" x="100.00" id="20357" height="5.00" width="5.00" Name="MTGF-2" ID="30003197" Region="欧莎" y="150.00" /><text y="150.00" x="100.00" id="20358">MTGF-2</text><rect Type="system" x="100.00" id="20360" height="5.00" width="5.00" Name="2-WNTD" ID="30003188" Region="欧莎" y="580.00" /><text y="580.00" x="100.00" id="20361">2-WNTD</text><rect Type="system" x="100.00" id="20363" height="5.00" width="5.00" Name="QB-AE6" ID="30003183" Region="欧莎" y="300.00" /><text y="300.00" x="100.00" id="20364">QB-AE6</text><rect Type="system" x="100.00" id="20366" height="5.00" width="5.00" Name="G-W1ND" ID="30003184" Region="欧莎" y="380.00" /><text y="380.00" x="100.00" id="20367">G-W1ND</text><rect Type="system" x="120.00" id="20369" height="5.00" width="5.00" Name="83-YGI" ID="30003189" Region="欧莎" y="520.00" /><text y="520.00" x="120.00" id="20370">83-YGI</text><rect Type="system" x="120.00" id="20372" height="5.00" width="5.00" Name="XM-RMD" ID="30003252" Region="欧莎" y="700.00" /><text y="700.00" x="120.00" id="20373">XM-RMD</text><rect Type="system" x="180.00" id="20375" height="5.00" width="5.00" Name="0-QP56" ID="30003198" Region="欧莎" y="150.00" /><text y="150.00" x="180.00" id="20376">0-QP56</text><rect Type="system" x="180.00" id="20378" height="5.00" width="5.00" Name="KH-EWC" ID="30003190" Region="欧莎" y="580.00" /><text y="580.00" x="180.00" id="20379">KH-EWC</text><rect Type="system" x="200.00" id="20381" height="5.00" width="5.00" Name="KED-2O" ID="30003239" Region="欧莎" y="80.00" /><text y="80.00" x="200.00" id="20382">KED-2O</text><rect Type="system" x="200.00" id="20384" height="5.00" width="5.00" Name="B-ETDW" ID="30003250" Region="欧莎" y="650.00" /><text y="650.00" x="200.00" id="20385">B-ETDW</text><rect Type="system" x="200.00" id="20387" height="5.00" width="5.00" Name="0PU2-R" ID="30003251" Region="欧莎" y="700.00" /><text y="700.00" x="200.00" id="20388">0PU2-R</text><rect Type="system" x="250.00" id="20390" height="5.00" width="5.00" Name="Y-0HVF" ID="30003237" Region="欧莎" y="50.00" /><text y="50.00" x="250.00" id="20391">Y-0HVF</text><rect Type="system" x="250.00" id="20393" height="5.00" width="5.00" Name="GTQ-C9" ID="30003199" Region="欧莎" y="150.00" /><text y="150.00" x="250.00" id="20394">GTQ-C9</text><rect Type="system" x="250.00" id="20396" height="5.00" width="5.00" Name="ORB4-J" ID="30003201" Region="欧莎" y="220.00" /><text y="220.00" x="250.00" id="20397">ORB4-J</text><rect Type="system" x="280.00" id="20399" height="5.00" width="5.00" Name="3VL6-I" ID="30003191" Region="欧莎" y="580.00" /><text y="580.00" x="280.00" id="20400">3VL6-I</text><rect Type="system" x="280.00" id="20402" height="5.00" width="5.00" Name="9G5J-1" ID="30003249" Region="欧莎" y="650.00" /><text y="650.00" x="280.00" id="20403">9G5J-1</text><rect Type="system" x="280.00" id="20405" height="5.00" width="5.00" Name="91-KD8" ID="30003253" Region="欧莎" y="700.00" /><text y="700.00" x="280.00" id="20406">91-KD8</text><rect Type="system" x="320.00" id="20408" height="5.00" width="5.00" Name="M-NWLB" ID="30003200" Region="欧莎" y="150.00" /><text y="150.00" x="320.00" id="20409">M-NWLB</text><rect Type="system" x="320.00" id="20411" height="5.00" width="5.00" Name="5-IH57" ID="30003267" Region="欧莎" y="280.00" /><text y="280.00" x="320.00" id="20412">5-IH57</text><rect Type="system" x="320.00" id="20414" height="5.00" width="5.00" Name="F-816R" ID="30003192" Region="欧莎" y="500.00" /><text y="500.00" x="320.00" id="20415">F-816R</text><rect Type="system" x="320.00" id="20417" height="5.00" width="5.00" Name="UGR-J2" ID="30003235" Region="欧莎" y="80.00" /><text y="80.00" x="320.00" id="20418">UGR-J2</text><rect Type="system" x="320.00" id="20420" height="5.00" width="5.00" Name="GGMF-J" ID="30003202" Region="欧莎" y="200.00" /><text y="200.00" x="320.00" id="20421">GGMF-J</text><rect Type="system" x="350.00" id="20423" height="5.00" width="5.00" Name="V0-H4L" ID="30003194" Region="欧莎" y="400.00" /><text y="400.00" x="350.00" id="20424">V0-H4L</text><rect Type="system" x="350.00" id="20426" height="5.00" width="5.00" Name="DS3-6A" ID="30003193" Region="欧莎" y="450.00" /><text y="450.00" x="350.00" id="20427">DS3-6A</text><rect Type="system" x="350.00" id="20429" height="5.00" width="5.00" Name="QYT-X8" ID="30003266" Region="欧莎" y="320.00" /><text y="320.00" x="350.00" id="20430">QYT-X8</text><rect Type="system" x="380.00" id="20432" height="5.00" width="5.00" Name="WW-OVQ" ID="30003256" Region="欧莎" y="600.00" /><text y="600.00" x="380.00" id="20433">WW-OVQ</text><rect Type="system" x="380.00" id="20435" height="5.00" width="5.00" Name="S7WI-F" ID="30003257" Region="欧莎" y="650.00" /><text y="650.00" x="380.00" id="20436">S7WI-F</text><rect Type="system" x="380.00" id="20438" height="5.00" width="5.00" Name="LA2-KV" ID="30003255" Region="欧莎" y="550.00" /><text y="550.00" x="380.00" id="20439">LA2-KV</text><rect Type="system" x="380.00" id="20441" height="5.00" width="5.00" Name="1-BK1Q" ID="30003258" Region="欧莎" y="700.00" /><text y="700.00" x="380.00" id="20442">1-BK1Q</text><rect Type="system" x="420.00" id="20444" height="5.00" width="5.00" Name="RJBC-I" ID="30003260" Region="欧莎" y="730.00" /><text y="730.00" x="420.00" id="20445">RJBC-I</text><rect Type="system" x="400.00" id="20447" height="5.00" width="5.00" Name="T-HMWP" ID="30003195" Region="欧莎" y="450.00" /><text y="450.00" x="400.00" id="20448">T-HMWP</text><rect Type="system" x="400.00" id="20450" height="5.00" width="5.00" Name="IG-4OF" ID="30003203" Region="欧莎" y="150.00" /><text y="150.00" x="400.00" id="20451">IG-4OF</text><rect Type="system" x="420.00" id="20453" height="5.00" width="5.00" Name="QZ-DIZ" ID="30003236" Region="欧莎" y="50.00" /><text y="50.00" x="420.00" id="20454">QZ-DIZ</text><rect Type="system" x="420.00" id="20456" height="5.00" width="5.00" Name="21M1-B" ID="30003238" Region="欧莎" y="100.00" /><text y="100.00" x="420.00" id="20457">21M1-B</text><rect Type="system" x="450.00" id="20459" height="5.00" width="5.00" Name="JXQJ-B" ID="30003264" Region="欧莎" y="300.00" /><text y="300.00" x="450.00" id="20460">JXQJ-B</text><rect Type="system" x="450.00" id="20462" height="5.00" width="5.00" Name="X-CYNC" ID="30003259" Region="欧莎" y="650.00" /><text y="650.00" x="450.00" id="20463">X-CYNC</text><rect Type="system" x="480.00" id="20465" height="5.00" width="5.00" Name="U-RELP" ID="30003240" Region="欧莎" y="50.00" /><text y="50.00" x="480.00" id="20466">U-RELP</text><rect Type="system" x="500.00" id="20468" height="5.00" width="5.00" Name="DYS-CG" ID="30003196" Region="欧莎" y="475.50" /><text y="475.50" x="500.00" id="20469">DYS-CG</text><rect Type="system" x="500.00" id="20471" height="5.00" width="5.00" Name="PND-SI" ID="30003262" Region="欧莎" y="280.00" /><text y="280.00" x="500.00" id="20472">PND-SI</text><rect Type="system" x="500.00" id="20474" height="5.00" width="5.00" Name="Y-BIPM" ID="30003265" Region="欧莎" y="350.00" /><text y="350.00" x="500.00" id="20475">Y-BIPM</text><rect Type="system" x="520.00" id="20477" height="5.00" width="5.00" Name="LQQH-J" ID="30003204" Region="欧莎" y="120.00" /><text y="120.00" x="520.00" id="20478">LQQH-J</text><rect Type="system" x="550.00" id="20480" height="5.00" width="5.00" Name="P-ZWKH" ID="30003248" Region="欧莎" y="420.00" /><text y="420.00" x="550.00" id="20481">P-ZWKH</text><rect Type="system" x="910.00" id="20483" height="5.00" width="5.00" Name="QE2-FS" ID="30003221" Region="欧莎" y="700.00" /><text y="700.00" x="910.00" id="20484">QE2-FS</text><rect Type="system" x="550.00" id="20486" height="5.00" width="5.00" Name="H-MHWF" ID="30003261" Region="欧莎" y="250.00" /><text y="250.00" x="550.00" id="20487">H-MHWF</text><rect Type="system" x="580.00" id="20489" height="5.00" width="5.00" Name="IAMJ-Q" ID="30003241" Region="欧莎" y="20.00" /><text y="20.00" x="580.00" id="20490">IAMJ-Q</text><rect Type="system" x="580.00" id="20492" height="5.00" width="5.00" Name="J-D5U7" ID="30003206" Region="欧莎" y="200.00" /><text y="200.00" x="580.00" id="20493">J-D5U7</text><rect Type="system" x="580.00" id="20495" height="5.00" width="5.00" Name="XKM-DE" ID="30003263" Region="欧莎" y="300.00" /><text y="300.00" x="580.00" id="20496">XKM-DE</text><rect Type="system" x="580.00" id="20498" height="5.00" width="5.00" Name="W5-VBR" ID="30003205" Region="欧莎" y="150.00" /><text y="150.00" x="580.00" id="20499">W5-VBR</text><rect Type="system" x="600.00" id="20501" height="5.00" width="5.00" Name="FZCR-3" ID="30003213" Region="欧莎" y="570.00" /><text y="570.00" x="600.00" id="20502">FZCR-3</text><rect Type="system" x="600.00" id="20504" height="5.00" width="5.00" Name="VZEG-B" ID="30003247" Region="欧莎" y="400.00" /><text y="400.00" x="600.00" id="20505">VZEG-B</text><rect Type="system" x="600.00" id="20507" height="5.00" width="5.00" Name="X-9ZZR" ID="30003245" Region="欧莎" y="450.00" /><text y="450.00" x="600.00" id="20508">X-9ZZR</text><rect Type="system" x="620.00" id="20510" height="5.00" width="5.00" Name="X-Z4JW" ID="30003208" Region="欧莎" y="120.00" /><text y="120.00" x="620.00" id="20511">X-Z4JW</text><rect Type="system" x="670.00" id="20513" height="5.00" width="5.00" Name="5-9L3H" ID="30003214" Region="欧莎" y="600.00" /><text y="600.00" x="670.00" id="20514">5-9L3H</text><rect Type="system" x="830.00" id="20516" height="5.00" width="5.00" Name="HF-K3O" ID="30003220" Region="欧莎" y="650.00" /><text y="650.00" x="830.00" id="20517">HF-K3O</text><rect Type="system" x="830.00" id="20519" height="5.00" width="5.00" Name="R-ZESX" ID="30003218" Region="欧莎" y="700.00" /><text y="700.00" x="830.00" id="20520">R-ZESX</text><rect Type="system" x="830.00" id="20522" height="5.00" width="5.00" Name="IO-R2S" ID="30003219" Region="欧莎" y="750.00" /><text y="750.00" x="830.00" id="20523">IO-R2S</text><rect Type="system" x="650.00" id="20525" height="5.00" width="5.00" Name="Y-770C" ID="30003207" Region="欧莎" y="180.00" /><text y="180.00" x="650.00" id="20526">Y-770C</text><rect Type="system" x="680.00" id="20528" height="5.00" width="5.00" Name="6U-MFQ" ID="30003210" Region="欧莎" y="520.00" /><text y="520.00" x="680.00" id="20529">6U-MFQ</text><rect Type="system" x="680.00" id="20531" height="5.00" width="5.00" Name="HO4E-Q" ID="30003243" Region="欧莎" y="375.19" /><text y="375.19" x="680.00" id="20532">HO4E-Q</text><rect Type="system" x="679.04" id="20534" height="5.00" width="5.00" Name="QY2Y-N" ID="30003244" Region="欧莎" y="424.18" /><text y="424.18" x="679.04" id="20535">QY2Y-N</text><rect Type="system" x="700.00" id="20537" height="5.00" width="5.00" Name="R8WV-7" ID="30003209" Region="欧莎" y="120.00" /><text y="120.00" x="700.00" id="20538">R8WV-7</text><rect Type="system" x="718.60" id="20540" height="5.00" width="5.00" Name="RO-AIQ" ID="30003246" Region="欧莎" y="453.08" /><text y="453.08" x="718.60" id="20541">RO-AIQ</text><rect Type="system" x="750.00" id="20543" height="5.00" width="5.00" Name="WVMS-X" ID="30003216" Region="欧莎" y="650.00" /><text y="650.00" x="750.00" id="20544">WVMS-X</text><rect Type="system" x="750.00" id="20546" height="5.00" width="5.00" Name="7-UVMT" ID="30003217" Region="欧莎" y="700.00" /><text y="700.00" x="750.00" id="20547">7-UVMT</text><rect Type="system" x="750.00" id="20549" height="5.00" width="5.00" Name="Q-ITV5" ID="30003222" Region="欧莎" y="750.00" /><text y="750.00" x="750.00" id="20550">Q-ITV5</text><rect Type="system" x="750.00" id="20552" height="5.00" width="5.00" Name="1EO-OE" ID="30003211" Region="欧莎" y="550.00" /><text y="550.00" x="750.00" id="20553">1EO-OE</text><rect Type="system" x="750.00" id="20555" height="5.00" width="5.00" Name="1-HDQ4" ID="30003215" Region="欧莎" y="600.00" /><text y="600.00" x="750.00" id="20556">1-HDQ4</text><rect Type="system" x="752.35" id="20558" height="5.00" width="5.00" Name="E6Q-LE" ID="30003242" Region="欧莎" y="417.56" /><text y="417.56" x="752.35" id="20559">E6Q-LE</text><rect Type="system" x="799.04" id="20561" height="5.00" width="5.00" Name="5JEZ-I" ID="30003223" Region="欧莎" y="121.91" /><text y="121.91" x="799.04" id="20562">5JEZ-I</text><rect Type="system" x="850.00" id="20564" height="5.00" width="5.00" Name="GK3-RX" ID="30003232" Region="欧莎" y="320.00" /><text y="320.00" x="850.00" id="20565">GK3-RX</text><rect Type="system" x="850.00" id="20567" height="5.00" width="5.00" Name="1P-QWR" ID="30003233" Region="欧莎" y="380.00" /><text y="380.00" x="850.00" id="20568">1P-QWR</text><rect Type="system" x="820.96" id="20570" height="5.00" width="5.00" Name="V-X0KM" ID="30003226" Region="欧莎" y="78.09" /><text y="78.09" x="820.96" id="20571">V-X0KM</text><rect Type="system" x="850.00" id="20573" height="5.00" width="5.00" Name="YQTK-R" ID="30003212" Region="欧莎" y="500.00" /><text y="500.00" x="850.00" id="20574">YQTK-R</text><rect Type="system" x="880.00" id="20576" height="5.00" width="5.00" Name="XEF6-Z" ID="30003224" Region="欧莎" y="120.00" /><text y="120.00" x="880.00" id="20577">XEF6-Z</text><rect Type="system" x="910.00" id="20579" height="5.00" width="5.00" Name="3-JG3X" ID="30003231" Region="欧莎" y="290.00" /><text y="290.00" x="910.00" id="20580">3-JG3X</text><rect Type="system" x="910.00" id="20582" height="5.00" width="5.00" Name="RF-X7V" ID="30003229" Region="欧莎" y="420.00" /><text y="420.00" x="910.00" id="20583">RF-X7V</text><rect Type="system" x="950.00" id="20585" height="5.00" width="5.00" Name="XXZ-3W" ID="30003228" Region="欧莎" y="75.50" /><text y="75.50" x="950.00" id="20586">XXZ-3W</text><rect Type="system" x="950.00" id="20588" height="5.00" width="5.00" Name="SON-TW" ID="30003225" Region="欧莎" y="124.50" /><text y="124.50" x="950.00" id="20589">SON-TW</text><rect Type="system" x="950.00" id="20591" height="5.00" width="5.00" Name="U9SE-N" ID="30003227" Region="欧莎" y="175.50" /><text y="175.50" x="950.00" id="20592">U9SE-N</text><rect Type="system" x="980.00" id="20594" height="5.00" width="5.00" Name="BQ0-UU" ID="30003230" Region="欧莎" y="380.00" /><text y="380.00" x="980.00" id="20595">BQ0-UU</text><rect Type="system" x="980.00" id="20597" height="5.00" width="5.00" Name="FJ-GUR" ID="30003234" Region="欧莎" y="320.00" /><text y="320.00" x="980.00" id="20598">FJ-GUR</text><rect Type="system" x="20.00" id="20600" height="5.00" width="5.00" Name="5T-A3D" ID="30005115" Region="佩利根弗" y="120.00" /><text y="120.00" x="20.00" id="20601">5T-A3D</text><rect Type="system" x="180.00" id="20603" height="5.00" width="5.00" Name="C3I-D5" ID="30005190" Region="佩利根弗" y="20.00" /><text y="20.00" x="180.00" id="20604">C3I-D5</text><rect Type="system" x="200.00" id="20606" height="5.00" width="5.00" Name="O8W-5O" ID="30001068" Region="糟粕之域" y="300.00" /><text y="300.00" x="200.00" id="20607">O8W-5O</text><rect Type="system" x="200.00" id="20609" height="5.00" width="5.00" Name="863P-X" ID="30001132" Region="糟粕之域" y="400.00" /><text y="400.00" x="200.00" id="20610">863P-X</text><rect Type="system" x="200.00" id="20612" height="5.00" width="5.00" Name="HG-YEQ" ID="30001135" Region="糟粕之域" y="450.00" /><text y="450.00" x="200.00" id="20613">HG-YEQ</text><rect Type="system" x="200.00" id="20615" height="5.00" width="5.00" Name="POQP-K" ID="30001147" Region="糟粕之域" y="500.00" /><text y="500.00" x="200.00" id="20616">POQP-K</text><rect Type="system" x="280.00" id="20618" height="5.00" width="5.00" Name="3ET-G8" ID="30001553" Region="螺旋之域" y="750.00" /><text y="750.00" x="280.00" id="20619">3ET-G8</text><rect Type="system" x="500.00" id="20621" height="5.00" width="5.00" Name="J9A-BH" ID="30005158" Region="佩利根弗" y="524.50" /><text y="524.50" x="500.00" id="20622">J9A-BH</text><rect Type="system" x="970.00" id="20624" height="5.00" width="5.00" Name="XY-ZCI" ID="30005175" Region="佩利根弗" y="700.00" /><text y="700.00" x="970.00" id="20625">XY-ZCI</text><rect Type="system" x="650.00" id="20627" height="5.00" width="5.00" Name="EJ-5X2" ID="30004204" Region="钴蓝边域" y="20.00" /><text y="20.00" x="650.00" id="20628">EJ-5X2</text><rect Type="system" x="750.00" id="20630" height="5.00" width="5.00" Name="FV-YEA" ID="30004161" Region="钴蓝边域" y="200.00" /><text y="200.00" x="750.00" id="20631">FV-YEA</text><rect Type="system" x="920.00" id="20633" height="5.00" width="5.00" Name="Y-RAW3" ID="30004171" Region="钴蓝边域" y="20.00" /><text y="20.00" x="920.00" id="20634">Y-RAW3</text><rect Type="system" x="950.00" id="20636" height="5.00" width="5.00" Name="P-NRD3" ID="30004170" Region="钴蓝边域" y="224.50" /><text y="224.50" x="950.00" id="20637">P-NRD3</text><line style="stroke:blue;fill:blue;" id="20639" x2="100.00" x1="20.00" y1="300.00" y2="300.00" /><line style="stroke:blue;fill:blue;" id="20640" x2="100.00" x1="20.00" y1="300.00" y2="380.00" /><line style="stroke:blue;fill:blue;" id="20641" x2="20.00" x1="20.00" y1="300.00" y2="450.00" /><line style="stroke:blue;fill:blue;" id="20642" x2="200.00" x1="20.00" y1="450.00" y2="400.00" /><line style="stroke:blue;fill:blue;" id="20643" x2="200.00" x1="20.00" y1="450.00" y2="450.00" /><line style="stroke:blue;fill:blue;" id="20644" x2="100.00" x1="20.00" y1="450.00" y2="380.00" /><line style="stroke:blue;fill:blue;" id="20645" x2="20.00" x1="20.00" y1="450.00" y2="300.00" /><line style="stroke:blue;fill:blue;" id="20646" x2="50.00" x1="20.00" y1="450.00" y2="550.00" /><line style="stroke:blue;fill:blue;" id="20647" x2="120.00" x1="50.00" y1="700.00" y2="700.00" /><line style="stroke:blue;fill:blue;" id="20648" x2="20.00" x1="50.00" y1="550.00" y2="450.00" /><line style="stroke:blue;fill:blue;" id="20649" x2="100.00" x1="50.00" y1="550.00" y2="580.00" /><line style="stroke:blue;fill:blue;" id="20650" x2="120.00" x1="50.00" y1="550.00" y2="520.00" /><line style="stroke:blue;fill:blue;" id="20651" x2="180.00" x1="100.00" y1="150.00" y2="150.00" /><line style="stroke:blue;fill:blue;" id="20652" x2="20.00" x1="100.00" y1="150.00" y2="120.00" /><line style="stroke:blue;fill:blue;" id="20653" x2="50.00" x1="100.00" y1="580.00" y2="550.00" /><line style="stroke:blue;fill:blue;" id="20654" x2="180.00" x1="100.00" y1="580.00" y2="580.00" /><line style="stroke:blue;fill:blue;" id="20655" x2="200.00" x1="100.00" y1="300.00" y2="300.00" /><line style="stroke:blue;fill:blue;" id="20656" x2="100.00" x1="100.00" y1="300.00" y2="380.00" /><line style="stroke:blue;fill:blue;" id="20657" x2="20.00" x1="100.00" y1="300.00" y2="300.00" /><line style="stroke:blue;fill:blue;" id="20658" x2="100.00" x1="100.00" y1="380.00" y2="300.00" /><line style="stroke:blue;fill:blue;" id="20659" x2="20.00" x1="100.00" y1="380.00" y2="300.00" /><line style="stroke:blue;fill:blue;" id="20660" x2="20.00" x1="100.00" y1="380.00" y2="450.00" /><line style="stroke:blue;fill:blue;" id="20661" x2="200.00" x1="120.00" y1="520.00" y2="500.00" /><line style="stroke:blue;fill:blue;" id="20662" x2="50.00" x1="120.00" y1="520.00" y2="550.00" /><line style="stroke:blue;fill:blue;" id="20663" x2="200.00" x1="120.00" y1="700.00" y2="700.00" /><line style="stroke:blue;fill:blue;" id="20664" x2="50.00" x1="120.00" y1="700.00" y2="700.00" /><line style="stroke:blue;fill:blue;" id="20665" x2="100.00" x1="180.00" y1="150.00" y2="150.00" /><line style="stroke:blue;fill:blue;" id="20666" x2="250.00" x1="180.00" y1="150.00" y2="150.00" /><line style="stroke:blue;fill:blue;" id="20667" x2="250.00" x1="180.00" y1="150.00" y2="220.00" /><line style="stroke:blue;fill:blue;" id="20668" x2="100.00" x1="180.00" y1="580.00" y2="580.00" /><line style="stroke:blue;fill:blue;" id="20669" x2="280.00" x1="180.00" y1="580.00" y2="580.00" /><line style="stroke:blue;fill:blue;" id="20670" x2="250.00" x1="200.00" y1="80.00" y2="50.00" /><line style="stroke:blue;fill:blue;" id="20671" x2="280.00" x1="200.00" y1="650.00" y2="650.00" /><line style="stroke:blue;fill:blue;" id="20672" x2="200.00" x1="200.00" y1="650.00" y2="700.00" /><line style="stroke:blue;fill:blue;" id="20673" x2="200.00" x1="200.00" y1="700.00" y2="650.00" /><line style="stroke:blue;fill:blue;" id="20674" x2="120.00" x1="200.00" y1="700.00" y2="700.00" /><line style="stroke:blue;fill:blue;" id="20675" x2="280.00" x1="200.00" y1="700.00" y2="700.00" /><line style="stroke:blue;fill:blue;" id="20676" x2="320.00" x1="250.00" y1="50.00" y2="80.00" /><line style="stroke:blue;fill:blue;" id="20677" x2="200.00" x1="250.00" y1="50.00" y2="80.00" /><line style="stroke:blue;fill:blue;" id="20678" x2="180.00" x1="250.00" y1="50.00" y2="20.00" /><line style="stroke:blue;fill:blue;" id="20679" x2="180.00" x1="250.00" y1="150.00" y2="150.00" /><line style="stroke:blue;fill:blue;" id="20680" x2="320.00" x1="250.00" y1="150.00" y2="150.00" /><line style="stroke:blue;fill:blue;" id="20681" x2="250.00" x1="250.00" y1="150.00" y2="220.00" /><line style="stroke:blue;fill:blue;" id="20682" x2="180.00" x1="250.00" y1="220.00" y2="150.00" /><line style="stroke:blue;fill:blue;" id="20683" x2="250.00" x1="250.00" y1="220.00" y2="150.00" /><line style="stroke:blue;fill:blue;" id="20684" x2="180.00" x1="280.00" y1="580.00" y2="580.00" /><line style="stroke:blue;fill:blue;" id="20685" x2="320.00" x1="280.00" y1="580.00" y2="500.00" /><line style="stroke:blue;fill:blue;" id="20686" x2="280.00" x1="280.00" y1="580.00" y2="650.00" /><line style="stroke:blue;fill:blue;" id="20687" x2="280.00" x1="280.00" y1="650.00" y2="580.00" /><line style="stroke:blue;fill:blue;" id="20688" x2="200.00" x1="280.00" y1="650.00" y2="650.00" /><line style="stroke:blue;fill:blue;" id="20689" x2="280.00" x1="280.00" y1="650.00" y2="700.00" /><line style="stroke:blue;fill:blue;" id="20690" x2="280.00" x1="280.00" y1="700.00" y2="750.00" /><line style="stroke:blue;fill:blue;" id="20691" x2="280.00" x1="280.00" y1="700.00" y2="650.00" /><line style="stroke:blue;fill:blue;" id="20692" x2="200.00" x1="280.00" y1="700.00" y2="700.00" /><line style="stroke:blue;fill:blue;" id="20693" x2="250.00" x1="320.00" y1="150.00" y2="150.00" /><line style="stroke:blue;fill:blue;" id="20694" x2="320.00" x1="320.00" y1="150.00" y2="200.00" /><line style="stroke:blue;fill:blue;" id="20695" x2="400.00" x1="320.00" y1="150.00" y2="150.00" /><line style="stroke:blue;fill:blue;" id="20696" x2="320.00" x1="320.00" y1="150.00" y2="80.00" /><line style="stroke:blue;fill:blue;" id="20697" x2="350.00" x1="320.00" y1="280.00" y2="320.00" /><line style="stroke:blue;fill:blue;" id="20698" x2="280.00" x1="320.00" y1="500.00" y2="580.00" /><line style="stroke:blue;fill:blue;" id="20699" x2="350.00" x1="320.00" y1="500.00" y2="450.00" /><line style="stroke:blue;fill:blue;" id="20700" x2="320.00" x1="320.00" y1="80.00" y2="150.00" /><line style="stroke:blue;fill:blue;" id="20701" x2="420.00" x1="320.00" y1="80.00" y2="50.00" /><line style="stroke:blue;fill:blue;" id="20702" x2="250.00" x1="320.00" y1="80.00" y2="50.00" /><line style="stroke:blue;fill:blue;" id="20703" x2="420.00" x1="320.00" y1="80.00" y2="100.00" /><line style="stroke:blue;fill:blue;" id="20704" x2="320.00" x1="320.00" y1="200.00" y2="150.00" /><line style="stroke:blue;fill:blue;" id="20705" x2="400.00" x1="320.00" y1="200.00" y2="150.00" /><line style="stroke:blue;fill:blue;" id="20706" x2="350.00" x1="350.00" y1="400.00" y2="450.00" /><line style="stroke:blue;fill:blue;" id="20707" x2="350.00" x1="350.00" y1="400.00" y2="320.00" /><line style="stroke:blue;fill:blue;" id="20708" x2="320.00" x1="350.00" y1="450.00" y2="500.00" /><line style="stroke:blue;fill:blue;" id="20709" x2="350.00" x1="350.00" y1="450.00" y2="400.00" /><line style="stroke:blue;fill:blue;" id="20710" x2="400.00" x1="350.00" y1="450.00" y2="450.00" /><line style="stroke:blue;fill:blue;" id="20711" x2="350.00" x1="350.00" y1="320.00" y2="400.00" /><line style="stroke:blue;fill:blue;" id="20712" x2="450.00" x1="350.00" y1="320.00" y2="300.00" /><line style="stroke:blue;fill:blue;" id="20713" x2="320.00" x1="350.00" y1="320.00" y2="280.00" /><line style="stroke:blue;fill:blue;" id="20714" x2="380.00" x1="380.00" y1="600.00" y2="550.00" /><line style="stroke:blue;fill:blue;" id="20715" x2="380.00" x1="380.00" y1="600.00" y2="650.00" /><line style="stroke:blue;fill:blue;" id="20716" x2="380.00" x1="380.00" y1="650.00" y2="600.00" /><line style="stroke:blue;fill:blue;" id="20717" x2="380.00" x1="380.00" y1="650.00" y2="700.00" /><line style="stroke:blue;fill:blue;" id="20718" x2="450.00" x1="380.00" y1="650.00" y2="650.00" /><line style="stroke:blue;fill:blue;" id="20719" x2="400.00" x1="380.00" y1="550.00" y2="450.00" /><line style="stroke:blue;fill:blue;" id="20720" x2="380.00" x1="380.00" y1="550.00" y2="600.00" /><line style="stroke:blue;fill:blue;" id="20721" x2="380.00" x1="380.00" y1="700.00" y2="650.00" /><line style="stroke:blue;fill:blue;" id="20722" x2="420.00" x1="380.00" y1="700.00" y2="730.00" /><line style="stroke:blue;fill:blue;" id="20723" x2="380.00" x1="420.00" y1="730.00" y2="700.00" /><line style="stroke:blue;fill:blue;" id="20724" x2="350.00" x1="400.00" y1="450.00" y2="450.00" /><line style="stroke:blue;fill:blue;" id="20725" x2="500.00" x1="400.00" y1="450.00" y2="475.50" /><line style="stroke:blue;fill:blue;" id="20726" x2="380.00" x1="400.00" y1="450.00" y2="550.00" /><line style="stroke:blue;fill:blue;" id="20727" x2="320.00" x1="400.00" y1="150.00" y2="150.00" /><line style="stroke:blue;fill:blue;" id="20728" x2="320.00" x1="400.00" y1="150.00" y2="200.00" /><line style="stroke:blue;fill:blue;" id="20729" x2="520.00" x1="400.00" y1="150.00" y2="120.00" /><line style="stroke:blue;fill:blue;" id="20730" x2="320.00" x1="420.00" y1="50.00" y2="80.00" /><line style="stroke:blue;fill:blue;" id="20731" x2="420.00" x1="420.00" y1="50.00" y2="100.00" /><line style="stroke:blue;fill:blue;" id="20732" x2="480.00" x1="420.00" y1="50.00" y2="50.00" /><line style="stroke:blue;fill:blue;" id="20733" x2="320.00" x1="420.00" y1="100.00" y2="80.00" /><line style="stroke:blue;fill:blue;" id="20734" x2="420.00" x1="420.00" y1="100.00" y2="50.00" /><line style="stroke:blue;fill:blue;" id="20735" x2="500.00" x1="450.00" y1="300.00" y2="280.00" /><line style="stroke:blue;fill:blue;" id="20736" x2="500.00" x1="450.00" y1="300.00" y2="350.00" /><line style="stroke:blue;fill:blue;" id="20737" x2="350.00" x1="450.00" y1="300.00" y2="320.00" /><line style="stroke:blue;fill:blue;" id="20738" x2="380.00" x1="450.00" y1="650.00" y2="650.00" /><line style="stroke:blue;fill:blue;" id="20739" x2="420.00" x1="480.00" y1="50.00" y2="50.00" /><line style="stroke:blue;fill:blue;" id="20740" x2="580.00" x1="480.00" y1="50.00" y2="20.00" /><line style="stroke:blue;fill:blue;" id="20741" x2="400.00" x1="500.00" y1="475.50" y2="450.00" /><line style="stroke:blue;fill:blue;" id="20742" x2="680.00" x1="500.00" y1="475.50" y2="520.00" /><line style="stroke:blue;fill:blue;" id="20743" x2="500.00" x1="500.00" y1="475.50" y2="524.50" /><line style="stroke:blue;fill:blue;" id="20744" x2="550.00" x1="500.00" y1="280.00" y2="250.00" /><line style="stroke:blue;fill:blue;" id="20745" x2="580.00" x1="500.00" y1="280.00" y2="300.00" /><line style="stroke:blue;fill:blue;" id="20746" x2="450.00" x1="500.00" y1="280.00" y2="300.00" /><line style="stroke:blue;fill:blue;" id="20747" x2="680.00" x1="500.00" y1="350.00" y2="375.19" /><line style="stroke:blue;fill:blue;" id="20748" x2="580.00" x1="500.00" y1="350.00" y2="300.00" /><line style="stroke:blue;fill:blue;" id="20749" x2="450.00" x1="500.00" y1="350.00" y2="300.00" /><line style="stroke:blue;fill:blue;" id="20750" x2="400.00" x1="520.00" y1="120.00" y2="150.00" /><line style="stroke:blue;fill:blue;" id="20751" x2="580.00" x1="520.00" y1="120.00" y2="150.00" /><line style="stroke:blue;fill:blue;" id="20752" x2="620.00" x1="520.00" y1="120.00" y2="120.00" /><line style="stroke:blue;fill:blue;" id="20753" x2="600.00" x1="550.00" y1="420.00" y2="450.00" /><line style="stroke:blue;fill:blue;" id="20754" x2="830.00" x1="910.00" y1="700.00" y2="700.00" /><line style="stroke:blue;fill:blue;" id="20755" x2="830.00" x1="910.00" y1="700.00" y2="750.00" /><line style="stroke:blue;fill:blue;" id="20756" x2="830.00" x1="910.00" y1="700.00" y2="650.00" /><line style="stroke:blue;fill:blue;" id="20757" x2="970.00" x1="910.00" y1="700.00" y2="700.00" /><line style="stroke:blue;fill:blue;" id="20758" x2="580.00" x1="550.00" y1="250.00" y2="200.00" /><line style="stroke:blue;fill:blue;" id="20759" x2="500.00" x1="550.00" y1="250.00" y2="280.00" /><line style="stroke:blue;fill:blue;" id="20760" x2="480.00" x1="580.00" y1="20.00" y2="50.00" /><line style="stroke:blue;fill:blue;" id="20761" x2="650.00" x1="580.00" y1="20.00" y2="20.00" /><line style="stroke:blue;fill:blue;" id="20762" x2="580.00" x1="580.00" y1="200.00" y2="150.00" /><line style="stroke:blue;fill:blue;" id="20763" x2="550.00" x1="580.00" y1="200.00" y2="250.00" /><line style="stroke:blue;fill:blue;" id="20764" x2="500.00" x1="580.00" y1="300.00" y2="280.00" /><line style="stroke:blue;fill:blue;" id="20765" x2="500.00" x1="580.00" y1="300.00" y2="350.00" /><line style="stroke:blue;fill:blue;" id="20766" x2="520.00" x1="580.00" y1="150.00" y2="120.00" /><line style="stroke:blue;fill:blue;" id="20767" x2="580.00" x1="580.00" y1="150.00" y2="200.00" /><line style="stroke:blue;fill:blue;" id="20768" x2="650.00" x1="580.00" y1="150.00" y2="180.00" /><line style="stroke:blue;fill:blue;" id="20769" x2="620.00" x1="580.00" y1="150.00" y2="120.00" /><line style="stroke:blue;fill:blue;" id="20770" x2="680.00" x1="600.00" y1="570.00" y2="520.00" /><line style="stroke:blue;fill:blue;" id="20771" x2="670.00" x1="600.00" y1="570.00" y2="600.00" /><line style="stroke:blue;fill:blue;" id="20772" x2="680.00" x1="600.00" y1="400.00" y2="375.19" /><line style="stroke:blue;fill:blue;" id="20773" x2="600.00" x1="600.00" y1="400.00" y2="450.00" /><line style="stroke:blue;fill:blue;" id="20774" x2="679.04" x1="600.00" y1="450.00" y2="424.18" /><line style="stroke:blue;fill:blue;" id="20775" x2="600.00" x1="600.00" y1="450.00" y2="400.00" /><line style="stroke:blue;fill:blue;" id="20776" x2="550.00" x1="600.00" y1="450.00" y2="420.00" /><line style="stroke:blue;fill:blue;" id="20777" x2="520.00" x1="620.00" y1="120.00" y2="120.00" /><line style="stroke:blue;fill:blue;" id="20778" x2="580.00" x1="620.00" y1="120.00" y2="150.00" /><line style="stroke:blue;fill:blue;" id="20779" x2="700.00" x1="620.00" y1="120.00" y2="120.00" /><line style="stroke:blue;fill:blue;" id="20780" x2="680.00" x1="670.00" y1="600.00" y2="520.00" /><line style="stroke:blue;fill:blue;" id="20781" x2="750.00" x1="670.00" y1="600.00" y2="550.00" /><line style="stroke:blue;fill:blue;" id="20782" x2="600.00" x1="670.00" y1="600.00" y2="570.00" /><line style="stroke:blue;fill:blue;" id="20783" x2="750.00" x1="830.00" y1="650.00" y2="650.00" /><line style="stroke:blue;fill:blue;" id="20784" x2="830.00" x1="830.00" y1="650.00" y2="700.00" /><line style="stroke:blue;fill:blue;" id="20785" x2="910.00" x1="830.00" y1="650.00" y2="700.00" /><line style="stroke:blue;fill:blue;" id="20786" x2="750.00" x1="830.00" y1="650.00" y2="750.00" /><line style="stroke:blue;fill:blue;" id="20787" x2="750.00" x1="830.00" y1="700.00" y2="650.00" /><line style="stroke:blue;fill:blue;" id="20788" x2="830.00" x1="830.00" y1="700.00" y2="750.00" /><line style="stroke:blue;fill:blue;" id="20789" x2="830.00" x1="830.00" y1="700.00" y2="650.00" /><line style="stroke:blue;fill:blue;" id="20790" x2="910.00" x1="830.00" y1="700.00" y2="700.00" /><line style="stroke:blue;fill:blue;" id="20791" x2="750.00" x1="830.00" y1="700.00" y2="750.00" /><line style="stroke:blue;fill:blue;" id="20792" x2="830.00" x1="830.00" y1="750.00" y2="700.00" /><line style="stroke:blue;fill:blue;" id="20793" x2="910.00" x1="830.00" y1="750.00" y2="700.00" /><line style="stroke:blue;fill:blue;" id="20794" x2="750.00" x1="830.00" y1="750.00" y2="750.00" /><line style="stroke:blue;fill:blue;" id="20795" x2="580.00" x1="650.00" y1="180.00" y2="150.00" /><line style="stroke:blue;fill:blue;" id="20796" x2="500.00" x1="680.00" y1="520.00" y2="475.50" /><line style="stroke:blue;fill:blue;" id="20797" x2="750.00" x1="680.00" y1="520.00" y2="550.00" /><line style="stroke:blue;fill:blue;" id="20798" x2="850.00" x1="680.00" y1="520.00" y2="500.00" /><line style="stroke:blue;fill:blue;" id="20799" x2="600.00" x1="680.00" y1="520.00" y2="570.00" /><line style="stroke:blue;fill:blue;" id="20800" x2="670.00" x1="680.00" y1="520.00" y2="600.00" /><line style="stroke:blue;fill:blue;" id="20801" x2="752.35" x1="680.00" y1="375.19" y2="417.56" /><line style="stroke:blue;fill:blue;" id="20802" x2="679.04" x1="680.00" y1="375.19" y2="424.18" /><line style="stroke:blue;fill:blue;" id="20803" x2="600.00" x1="680.00" y1="375.19" y2="400.00" /><line style="stroke:blue;fill:blue;" id="20804" x2="500.00" x1="680.00" y1="375.19" y2="350.00" /><line style="stroke:blue;fill:blue;" id="20805" x2="680.00" x1="679.04" y1="424.18" y2="375.19" /><line style="stroke:blue;fill:blue;" id="20806" x2="600.00" x1="679.04" y1="424.18" y2="450.00" /><line style="stroke:blue;fill:blue;" id="20807" x2="718.60" x1="679.04" y1="424.18" y2="453.08" /><line style="stroke:blue;fill:blue;" id="20808" x2="620.00" x1="700.00" y1="120.00" y2="120.00" /><line style="stroke:blue;fill:blue;" id="20809" x2="799.04" x1="700.00" y1="120.00" y2="121.91" /><line style="stroke:blue;fill:blue;" id="20810" x2="750.00" x1="700.00" y1="120.00" y2="200.00" /><line style="stroke:blue;fill:blue;" id="20811" x2="679.04" x1="718.60" y1="453.08" y2="424.18" /><line style="stroke:blue;fill:blue;" id="20812" x2="750.00" x1="750.00" y1="650.00" y2="600.00" /><line style="stroke:blue;fill:blue;" id="20813" x2="750.00" x1="750.00" y1="650.00" y2="700.00" /><line style="stroke:blue;fill:blue;" id="20814" x2="830.00" x1="750.00" y1="650.00" y2="700.00" /><line style="stroke:blue;fill:blue;" id="20815" x2="830.00" x1="750.00" y1="650.00" y2="650.00" /><line style="stroke:blue;fill:blue;" id="20816" x2="750.00" x1="750.00" y1="700.00" y2="650.00" /><line style="stroke:blue;fill:blue;" id="20817" x2="750.00" x1="750.00" y1="700.00" y2="750.00" /><line style="stroke:blue;fill:blue;" id="20818" x2="750.00" x1="750.00" y1="750.00" y2="700.00" /><line style="stroke:blue;fill:blue;" id="20819" x2="830.00" x1="750.00" y1="750.00" y2="700.00" /><line style="stroke:blue;fill:blue;" id="20820" x2="830.00" x1="750.00" y1="750.00" y2="750.00" /><line style="stroke:blue;fill:blue;" id="20821" x2="830.00" x1="750.00" y1="750.00" y2="650.00" /><line style="stroke:blue;fill:blue;" id="20822" x2="680.00" x1="750.00" y1="550.00" y2="520.00" /><line style="stroke:blue;fill:blue;" id="20823" x2="850.00" x1="750.00" y1="550.00" y2="500.00" /><line style="stroke:blue;fill:blue;" id="20824" x2="670.00" x1="750.00" y1="550.00" y2="600.00" /><line style="stroke:blue;fill:blue;" id="20825" x2="750.00" x1="750.00" y1="550.00" y2="600.00" /><line style="stroke:blue;fill:blue;" id="20826" x2="750.00" x1="750.00" y1="600.00" y2="550.00" /><line style="stroke:blue;fill:blue;" id="20827" x2="750.00" x1="750.00" y1="600.00" y2="650.00" /><line style="stroke:blue;fill:blue;" id="20828" x2="850.00" x1="752.35" y1="417.56" y2="500.00" /><line style="stroke:blue;fill:blue;" id="20829" x2="680.00" x1="752.35" y1="417.56" y2="375.19" /><line style="stroke:blue;fill:blue;" id="20830" x2="700.00" x1="799.04" y1="121.91" y2="120.00" /><line style="stroke:blue;fill:blue;" id="20831" x2="880.00" x1="799.04" y1="121.91" y2="120.00" /><line style="stroke:blue;fill:blue;" id="20832" x2="820.96" x1="799.04" y1="121.91" y2="78.09" /><line style="stroke:blue;fill:blue;" id="20833" x2="980.00" x1="850.00" y1="320.00" y2="380.00" /><line style="stroke:blue;fill:blue;" id="20834" x2="910.00" x1="850.00" y1="320.00" y2="290.00" /><line style="stroke:blue;fill:blue;" id="20835" x2="850.00" x1="850.00" y1="320.00" y2="380.00" /><line style="stroke:blue;fill:blue;" id="20836" x2="980.00" x1="850.00" y1="320.00" y2="320.00" /><line style="stroke:blue;fill:blue;" id="20837" x2="910.00" x1="850.00" y1="380.00" y2="420.00" /><line style="stroke:blue;fill:blue;" id="20838" x2="980.00" x1="850.00" y1="380.00" y2="380.00" /><line style="stroke:blue;fill:blue;" id="20839" x2="910.00" x1="850.00" y1="380.00" y2="290.00" /><line style="stroke:blue;fill:blue;" id="20840" x2="850.00" x1="850.00" y1="380.00" y2="320.00" /><line style="stroke:blue;fill:blue;" id="20841" x2="799.04" x1="820.96" y1="78.09" y2="121.91" /><line style="stroke:blue;fill:blue;" id="20842" x2="880.00" x1="820.96" y1="78.09" y2="120.00" /><line style="stroke:blue;fill:blue;" id="20843" x2="680.00" x1="850.00" y1="500.00" y2="520.00" /><line style="stroke:blue;fill:blue;" id="20844" x2="750.00" x1="850.00" y1="500.00" y2="550.00" /><line style="stroke:blue;fill:blue;" id="20845" x2="910.00" x1="850.00" y1="500.00" y2="420.00" /><line style="stroke:blue;fill:blue;" id="20846" x2="752.35" x1="850.00" y1="500.00" y2="417.56" /><line style="stroke:blue;fill:blue;" id="20847" x2="799.04" x1="880.00" y1="120.00" y2="121.91" /><line style="stroke:blue;fill:blue;" id="20848" x2="950.00" x1="880.00" y1="120.00" y2="124.50" /><line style="stroke:blue;fill:blue;" id="20849" x2="820.96" x1="880.00" y1="120.00" y2="78.09" /><line style="stroke:blue;fill:blue;" id="20850" x2="910.00" x1="910.00" y1="290.00" y2="420.00" /><line style="stroke:blue;fill:blue;" id="20851" x2="980.00" x1="910.00" y1="290.00" y2="380.00" /><line style="stroke:blue;fill:blue;" id="20852" x2="850.00" x1="910.00" y1="290.00" y2="320.00" /><line style="stroke:blue;fill:blue;" id="20853" x2="850.00" x1="910.00" y1="290.00" y2="380.00" /><line style="stroke:blue;fill:blue;" id="20854" x2="980.00" x1="910.00" y1="290.00" y2="320.00" /><line style="stroke:blue;fill:blue;" id="20855" x2="850.00" x1="910.00" y1="420.00" y2="500.00" /><line style="stroke:blue;fill:blue;" id="20856" x2="980.00" x1="910.00" y1="420.00" y2="380.00" /><line style="stroke:blue;fill:blue;" id="20857" x2="910.00" x1="910.00" y1="420.00" y2="290.00" /><line style="stroke:blue;fill:blue;" id="20858" x2="850.00" x1="910.00" y1="420.00" y2="380.00" /><line style="stroke:blue;fill:blue;" id="20859" x2="950.00" x1="950.00" y1="75.50" y2="124.50" /><line style="stroke:blue;fill:blue;" id="20860" x2="920.00" x1="950.00" y1="75.50" y2="20.00" /><line style="stroke:blue;fill:blue;" id="20861" x2="880.00" x1="950.00" y1="124.50" y2="120.00" /><line style="stroke:blue;fill:blue;" id="20862" x2="950.00" x1="950.00" y1="124.50" y2="175.50" /><line style="stroke:blue;fill:blue;" id="20863" x2="950.00" x1="950.00" y1="124.50" y2="75.50" /><line style="stroke:blue;fill:blue;" id="20864" x2="950.00" x1="950.00" y1="175.50" y2="124.50" /><line style="stroke:blue;fill:blue;" id="20865" x2="950.00" x1="950.00" y1="175.50" y2="224.50" /><line style="stroke:blue;fill:blue;" id="20866" x2="910.00" x1="980.00" y1="380.00" y2="420.00" /><line style="stroke:blue;fill:blue;" id="20867" x2="910.00" x1="980.00" y1="380.00" y2="290.00" /><line style="stroke:blue;fill:blue;" id="20868" x2="850.00" x1="980.00" y1="380.00" y2="320.00" /><line style="stroke:blue;fill:blue;" id="20869" x2="850.00" x1="980.00" y1="380.00" y2="380.00" /><line style="stroke:blue;fill:blue;" id="20870" x2="980.00" x1="980.00" y1="380.00" y2="320.00" /><line style="stroke:blue;fill:blue;" id="20871" x2="980.00" x1="980.00" y1="320.00" y2="380.00" /><line style="stroke:blue;fill:blue;" id="20872" x2="910.00" x1="980.00" y1="320.00" y2="290.00" /><line style="stroke:blue;fill:blue;" id="20873" x2="850.00" x1="980.00" y1="320.00" y2="320.00" /><line style="stroke:blue;fill:blue;" id="20874" x2="100.00" x1="20.00" y1="120.00" y2="150.00" /><line style="stroke:blue;fill:blue;" id="20875" x2="250.00" x1="180.00" y1="20.00" y2="50.00" /><line style="stroke:blue;fill:blue;" id="20876" x2="100.00" x1="200.00" y1="300.00" y2="300.00" /><line style="stroke:blue;fill:blue;" id="20877" x2="200.00" x1="200.00" y1="400.00" y2="450.00" /><line style="stroke:blue;fill:blue;" id="20878" x2="20.00" x1="200.00" y1="400.00" y2="450.00" /><line style="stroke:blue;fill:blue;" id="20879" x2="200.00" x1="200.00" y1="450.00" y2="400.00" /><line style="stroke:blue;fill:blue;" id="20880" x2="20.00" x1="200.00" y1="450.00" y2="450.00" /><line style="stroke:blue;fill:blue;" id="20881" x2="120.00" x1="200.00" y1="500.00" y2="520.00" /><line style="stroke:blue;fill:blue;" id="20882" x2="280.00" x1="280.00" y1="750.00" y2="700.00" /><line style="stroke:blue;fill:blue;" id="20883" x2="500.00" x1="500.00" y1="524.50" y2="475.50" /><line style="stroke:blue;fill:blue;" id="20884" x2="910.00" x1="970.00" y1="700.00" y2="700.00" /><line style="stroke:blue;fill:blue;" id="20885" x2="580.00" x1="650.00" y1="20.00" y2="20.00" /><line style="stroke:blue;fill:blue;" id="20886" x2="700.00" x1="750.00" y1="200.00" y2="120.00" /><line style="stroke:blue;fill:blue;" id="20887" x2="950.00" x1="920.00" y1="20.00" y2="75.50" /><line style="stroke:blue;fill:blue;" id="20888" x2="950.00" x1="950.00" y1="224.50" y2="175.50" /></svg>
