<?xml version="1.0" standalone="yes"?><!DOCTYPE svg PUBLIC "-//W3C//DTD SVG 1.1//EN" "http://www.w3.org/Graphics/SVG/1.1/DTD/svg11.dtd"[]><svg height="800.00" id="20344" width="1050.00" xmlns="http://www.w3.org/2000/svg" xmlns:xlink="http://www.w3.org/1999/xlink"><rect Type="system" Region="欧莎" height="5.00" y="300.00" Name="MZLW-9" width="5.00" x="20.00" id="20345" ID="30003185" /><text x="20.00" y="300.00" id="20346">MZLW-9</text><rect Type="system" Region="欧莎" height="5.00" y="450.00" Name="ND-X7X" width="5.00" x="20.00" id="20348" ID="30003186" /><text x="20.00" y="450.00" id="20349">ND-X7X</text><rect Type="system" Region="欧莎" height="5.00" y="700.00" Name="OZ-DS5" width="5.00" x="50.00" id="20351" ID="30003254" /><text x="50.00" y="700.00" id="20352">OZ-DS5</text><rect Type="system" Region="欧莎" height="5.00" y="550.00" Name="DGDT-3" width="5.00" x="50.00" id="20354" ID="30003187" /><text x="50.00" y="550.00" id="20355">DGDT-3</text><rect Type="system" Region="欧莎" height="5.00" y="150.00" Name="MTGF-2" width="5.00" x="100.00" id="20357" ID="30003197" /><text x="100.00" y="150.00" id="20358">MTGF-2</text><rect Type="system" Region="欧莎" height="5.00" y="580.00" Name="2-WNTD" width="5.00" x="100.00" id="20360" ID="30003188" /><text x="100.00" y="580.00" id="20361">2-WNTD</text><rect Type="system" Region="欧莎" height="5.00" y="300.00" Name="QB-AE6" width="5.00" x="100.00" id="20363" ID="30003183" /><text x="100.00" y="300.00" id="20364">QB-AE6</text><rect Type="system" Region="欧莎" height="5.00" y="380.00" Name="G-W1ND" width="5.00" x="100.00" id="20366" ID="30003184" /><text x="100.00" y="380.00" id="20367">G-W1ND</text><rect Type="system" Region="欧莎" height="5.00" y="520.00" Name="83-YGI" width="5.00" x="120.00" id="20369" ID="30003189" /><text x="120.00" y="520.00" id="20370">83-YGI</text><rect Type="system" Region="欧莎" height="5.00" y="700.00" Name="XM-RMD" width="5.00" x="120.00" id="20372" ID="30003252" /><text x="120.00" y="700.00" id="20373">XM-RMD</text><rect Type="system" Region="欧莎" height="5.00" y="150.00" Name="0-QP56" width="5.00" x="180.00" id="20375" ID="30003198" /><text x="180.00" y="150.00" id="20376">0-QP56</text><rect Type="system" Region="欧莎" height="5.00" y="580.00" Name="KH-EWC" width="5.00" x="180.00" id="20378" ID="30003190" /><text x="180.00" y="580.00" id="20379">KH-EWC</text><rect Type="system" Region="欧莎" height="5.00" y="80.00" Name="KED-2O" width="5.00" x="200.00" id="20381" ID="30003239" /><text x="200.00" y="80.00" id="20382">KED-2O</text><rect Type="system" Region="欧莎" height="5.00" y="650.00" Name="B-ETDW" width="5.00" x="200.00" id="20384" ID="30003250" /><text x="200.00" y="650.00" id="20385">B-ETDW</text><rect Type="system" Region="欧莎" height="5.00" y="700.00" Name="0PU2-R" width="5.00" x="200.00" id="20387" ID="30003251" /><text x="200.00" y="700.00" id="20388">0PU2-R</text><rect Type="system" Region="欧莎" height="5.00" y="50.00" Name="Y-0HVF" width="5.00" x="250.00" id="20390" ID="30003237" /><text x="250.00" y="50.00" id="20391">Y-0HVF</text><rect Type="system" Region="欧莎" height="5.00" y="150.00" Name="GTQ-C9" width="5.00" x="250.00" id="20393" ID="30003199" /><text x="250.00" y="150.00" id="20394">GTQ-C9</text><rect Type="system" Region="欧莎" height="5.00" y="220.00" Name="ORB4-J" width="5.00" x="250.00" id="20396" ID="30003201" /><text x="250.00" y="220.00" id="20397">ORB4-J</text><rect Type="system" Region="欧莎" height="5.00" y="580.00" Name="3VL6-I" width="5.00" x="280.00" id="20399" ID="30003191" /><text x="280.00" y="580.00" id="20400">3VL6-I</text><rect Type="system" Region="欧莎" height="5.00" y="650.00" Name="9G5J-1" width="5.00" x="280.00" id="20402" ID="30003249" /><text x="280.00" y="650.00" id="20403">9G5J-1</text><rect Type="system" Region="欧莎" height="5.00" y="700.00" Name="91-KD8" width="5.00" x="280.00" id="20405" ID="30003253" /><text x="280.00" y="700.00" id="20406">91-KD8</text><rect Type="system" Region="欧莎" height="5.00" y="150.00" Name="M-NWLB" width="5.00" x="320.00" id="20408" ID="30003200" /><text x="320.00" y="150.00" id="20409">M-NWLB</text><rect Type="system" Region="欧莎" height="5.00" y="280.00" Name="5-IH57" width="5.00" x="320.00" id="20411" ID="30003267" /><text x="320.00" y="280.00" id="20412">5-IH57</text><rect Type="system" Region="欧莎" height="5.00" y="500.00" Name="F-816R" width="5.00" x="320.00" id="20414" ID="30003192" /><text x="320.00" y="500.00" id="20415">F-816R</text><rect Type="system" Region="欧莎" height="5.00" y="80.00" Name="UGR-J2" width="5.00" x="320.00" id="20417" ID="30003235" /><text x="320.00" y="80.00" id="20418">UGR-J2</text><rect Type="system" Region="欧莎" height="5.00" y="200.00" Name="GGMF-J" width="5.00" x="320.00" id="20420" ID="30003202" /><text x="320.00" y="200.00" id="20421">GGMF-J</text><rect Type="system" Region="欧莎" height="5.00" y="400.00" Name="V0-H4L" width="5.00" x="350.00" id="20423" ID="30003194" /><text x="350.00" y="400.00" id="20424">V0-H4L</text><rect Type="system" Region="欧莎" height="5.00" y="450.00" Name="DS3-6A" width="5.00" x="350.00" id="20426" ID="30003193" /><text x="350.00" y="450.00" id="20427">DS3-6A</text><rect Type="system" Region="欧莎" height="5.00" y="320.00" Name="QYT-X8" width="5.00" x="350.00" id="20429" ID="30003266" /><text x="350.00" y="320.00" id="20430">QYT-X8</text><rect Type="system" Region="欧莎" height="5.00" y="600.00" Name="WW-OVQ" width="5.00" x="380.00" id="20432" ID="30003256" /><text x="380.00" y="600.00" id="20433">WW-OVQ</text><rect Type="system" Region="欧莎" height="5.00" y="650.00" Name="S7WI-F" width="5.00" x="380.00" id="20435" ID="30003257" /><text x="380.00" y="650.00" id="20436">S7WI-F</text><rect Type="system" Region="欧莎" height="5.00" y="550.00" Name="LA2-KV" width="5.00" x="380.00" id="20438" ID="30003255" /><text x="380.00" y="550.00" id="20439">LA2-KV</text><rect Type="system" Region="欧莎" height="5.00" y="700.00" Name="1-BK1Q" width="5.00" x="380.00" id="20441" ID="30003258" /><text x="380.00" y="700.00" id="20442">1-BK1Q</text><rect Type="system" Region="欧莎" height="5.00" y="730.00" Name="RJBC-I" width="5.00" x="420.00" id="20444" ID="30003260" /><text x="420.00" y="730.00" id="20445">RJBC-I</text><rect Type="system" Region="欧莎" height="5.00" y="450.00" Name="T-HMWP" width="5.00" x="400.00" id="20447" ID="30003195" /><text x="400.00" y="450.00" id="20448">T-HMWP</text><rect Type="system" Region="欧莎" height="5.00" y="150.00" Name="IG-4OF" width="5.00" x="400.00" id="20450" ID="30003203" /><text x="400.00" y="150.00" id="20451">IG-4OF</text><rect Type="system" Region="欧莎" height="5.00" y="50.00" Name="QZ-DIZ" width="5.00" x="420.00" id="20453" ID="30003236" /><text x="420.00" y="50.00" id="20454">QZ-DIZ</text><rect Type="system" Region="欧莎" height="5.00" y="100.00" Name="21M1-B" width="5.00" x="420.00" id="20456" ID="30003238" /><text x="420.00" y="100.00" id="20457">21M1-B</text><rect Type="system" Region="欧莎" height="5.00" y="300.00" Name="JXQJ-B" width="5.00" x="450.00" id="20459" ID="30003264" /><text x="450.00" y="300.00" id="20460">JXQJ-B</text><rect Type="system" Region="欧莎" height="5.00" y="650.00" Name="X-CYNC" width="5.00" x="450.00" id="20462" ID="30003259" /><text x="450.00" y="650.00" id="20463">X-CYNC</text><rect Type="system" Region="欧莎" height="5.00" y="50.00" Name="U-RELP" width="5.00" x="480.00" id="20465" ID="30003240" /><text x="480.00" y="50.00" id="20466">U-RELP</text><rect Type="system" Region="欧莎" height="5.00" y="475.50" Name="DYS-CG" width="5.00" x="500.00" id="20468" ID="30003196" /><text x="500.00" y="475.50" id="20469">DYS-CG</text><rect Type="system" Region="欧莎" height="5.00" y="280.00" Name="PND-SI" width="5.00" x="500.00" id="20471" ID="30003262" /><text x="500.00" y="280.00" id="20472">PND-SI</text><rect Type="system" Region="欧莎" height="5.00" y="350.00" Name="Y-BIPM" width="5.00" x="500.00" id="20474" ID="30003265" /><text x="500.00" y="350.00" id="20475">Y-BIPM</text><rect Type="system" Region="欧莎" height="5.00" y="120.00" Name="LQQH-J" width="5.00" x="520.00" id="20477" ID="30003204" /><text x="520.00" y="120.00" id="20478">LQQH-J</text><rect Type="system" Region="欧莎" height="5.00" y="420.00" Name="P-ZWKH" width="5.00" x="550.00" id="20480" ID="30003248" /><text x="550.00" y="420.00" id="20481">P-ZWKH</text><rect Type="system" Region="欧莎" height="5.00" y="700.00" Name="QE2-FS" width="5.00" x="910.00" id="20483" ID="30003221" /><text x="910.00" y="700.00" id="20484">QE2-FS</text><rect Type="system" Region="欧莎" height="5.00" y="250.00" Name="H-MHWF" width="5.00" x="550.00" id="20486" ID="30003261" /><text x="550.00" y="250.00" id="20487">H-MHWF</text><rect Type="system" Region="欧莎" height="5.00" y="20.00" Name="IAMJ-Q" width="5.00" x="580.00" id="20489" ID="30003241" /><text x="580.00" y="20.00" id="20490">IAMJ-Q</text><rect Type="system" Region="欧莎" height="5.00" y="200.00" Name="J-D5U7" width="5.00" x="580.00" id="20492" ID="30003206" /><text x="580.00" y="200.00" id="20493">J-D5U7</text><rect Type="system" Region="欧莎" height="5.00" y="300.00" Name="XKM-DE" width="5.00" x="580.00" id="20495" ID="30003263" /><text x="580.00" y="300.00" id="20496">XKM-DE</text><rect Type="system" Region="欧莎" height="5.00" y="150.00" Name="W5-VBR" width="5.00" x="580.00" id="20498" ID="30003205" /><text x="580.00" y="150.00" id="20499">W5-VBR</text><rect Type="system" Region="欧莎" height="5.00" y="570.00" Name="FZCR-3" width="5.00" x="600.00" id="20501" ID="30003213" /><text x="600.00" y="570.00" id="20502">FZCR-3</text><rect Type="system" Region="欧莎" height="5.00" y="400.00" Name="VZEG-B" width="5.00" x="600.00" id="20504" ID="30003247" /><text x="600.00" y="400.00" id="20505">VZEG-B</text><rect Type="system" Region="欧莎" height="5.00" y="450.00" Name="X-9ZZR" width="5.00" x="600.00" id="20507" ID="30003245" /><text x="600.00" y="450.00" id="20508">X-9ZZR</text><rect Type="system" Region="欧莎" height="5.00" y="120.00" Name="X-Z4JW" width="5.00" x="620.00" id="20510" ID="30003208" /><text x="620.00" y="120.00" id="20511">X-Z4JW</text><rect Type="system" Region="欧莎" height="5.00" y="600.00" Name="5-9L3H" width="5.00" x="670.00" id="20513" ID="30003214" /><text x="670.00" y="600.00" id="20514">5-9L3H</text><rect Type="system" Region="欧莎" height="5.00" y="650.00" Name="HF-K3O" width="5.00" x="830.00" id="20516" ID="30003220" /><text x="830.00" y="650.00" id="20517">HF-K3O</text><rect Type="system" Region="欧莎" height="5.00" y="700.00" Name="R-ZESX" width="5.00" x="830.00" id="20519" ID="30003218" /><text x="830.00" y="700.00" id="20520">R-ZESX</text><rect Type="system" Region="欧莎" height="5.00" y="750.00" Name="IO-R2S" width="5.00" x="830.00" id="20522" ID="30003219" /><text x="830.00" y="750.00" id="20523">IO-R2S</text><rect Type="system" Region="欧莎" height="5.00" y="180.00" Name="Y-770C" width="5.00" x="650.00" id="20525" ID="30003207" /><text x="650.00" y="180.00" id="20526">Y-770C</text><rect Type="system" Region="欧莎" height="5.00" y="520.00" Name="6U-MFQ" width="5.00" x="680.00" id="20528" ID="30003210" /><text x="680.00" y="520.00" id="20529">6U-MFQ</text><rect Type="system" Region="欧莎" height="5.00" y="375.19" Name="HO4E-Q" width="5.00" x="680.00" id="20531" ID="30003243" /><text x="680.00" y="375.19" id="20532">HO4E-Q</text><rect Type="system" Region="欧莎" height="5.00" y="424.18" Name="QY2Y-N" width="5.00" x="679.04" id="20534" ID="30003244" /><text x="679.04" y="424.18" id="20535">QY2Y-N</text><rect Type="system" Region="欧莎" height="5.00" y="120.00" Name="R8WV-7" width="5.00" x="700.00" id="20537" ID="30003209" /><text x="700.00" y="120.00" id="20538">R8WV-7</text><rect Type="system" Region="欧莎" height="5.00" y="453.08" Name="RO-AIQ" width="5.00" x="718.60" id="20540" ID="30003246" /><text x="718.60" y="453.08" id="20541">RO-AIQ</text><rect Type="system" Region="欧莎" height="5.00" y="650.00" Name="WVMS-X" width="5.00" x="750.00" id="20543" ID="30003216" /><text x="750.00" y="650.00" id="20544">WVMS-X</text><rect Type="system" Region="欧莎" height="5.00" y="700.00" Name="7-UVMT" width="5.00" x="750.00" id="20546" ID="30003217" /><text x="750.00" y="700.00" id="20547">7-UVMT</text><rect Type="system" Region="欧莎" height="5.00" y="750.00" Name="Q-ITV5" width="5.00" x="750.00" id="20549" ID="30003222" /><text x="750.00" y="750.00" id="20550">Q-ITV5</text><rect Type="system" Region="欧莎" height="5.00" y="550.00" Name="1EO-OE" width="5.00" x="750.00" id="20552" ID="30003211" /><text x="750.00" y="550.00" id="20553">1EO-OE</text><rect Type="system" Region="欧莎" height="5.00" y="600.00" Name="1-HDQ4" width="5.00" x="750.00" id="20555" ID="30003215" /><text x="750.00" y="600.00" id="20556">1-HDQ4</text><rect Type="system" Region="欧莎" height="5.00" y="417.56" Name="E6Q-LE" width="5.00" x="752.35" id="20558" ID="30003242" /><text x="752.35" y="417.56" id="20559">E6Q-LE</text><rect Type="system" Region="欧莎" height="5.00" y="121.91" Name="5JEZ-I" width="5.00" x="799.04" id="20561" ID="30003223" /><text x="799.04" y="121.91" id="20562">5JEZ-I</text><rect Type="system" Region="欧莎" height="5.00" y="320.00" Name="GK3-RX" width="5.00" x="850.00" id="20564" ID="30003232" /><text x="850.00" y="320.00" id="20565">GK3-RX</text><rect Type="system" Region="欧莎" height="5.00" y="380.00" Name="1P-QWR" width="5.00" x="850.00" id="20567" ID="30003233" /><text x="850.00" y="380.00" id="20568">1P-QWR</text><rect Type="system" Region="欧莎" height="5.00" y="78.09" Name="V-X0KM" width="5.00" x="820.96" id="20570" ID="30003226" /><text x="820.96" y="78.09" id="20571">V-X0KM</text><rect Type="system" Region="欧莎" height="5.00" y="500.00" Name="YQTK-R" width="5.00" x="850.00" id="20573" ID="30003212" /><text x="850.00" y="500.00" id="20574">YQTK-R</text><rect Type="system" Region="欧莎" height="5.00" y="120.00" Name="XEF6-Z" width="5.00" x="880.00" id="20576" ID="30003224" /><text x="880.00" y="120.00" id="20577">XEF6-Z</text><rect Type="system" Region="欧莎" height="5.00" y="290.00" Name="3-JG3X" width="5.00" x="910.00" id="20579" ID="30003231" /><text x="910.00" y="290.00" id="20580">3-JG3X</text><rect Type="system" Region="欧莎" height="5.00" y="420.00" Name="RF-X7V" width="5.00" x="910.00" id="20582" ID="30003229" /><text x="910.00" y="420.00" id="20583">RF-X7V</text><rect Type="system" Region="欧莎" height="5.00" y="75.50" Name="XXZ-3W" width="5.00" x="950.00" id="20585" ID="30003228" /><text x="950.00" y="75.50" id="20586">XXZ-3W</text><rect Type="system" Region="欧莎" height="5.00" y="124.50" Name="SON-TW" width="5.00" x="950.00" id="20588" ID="30003225" /><text x="950.00" y="124.50" id="20589">SON-TW</text><rect Type="system" Region="欧莎" height="5.00" y="175.50" Name="U9SE-N" width="5.00" x="950.00" id="20591" ID="30003227" /><text x="950.00" y="175.50" id="20592">U9SE-N</text><rect Type="system" Region="欧莎" height="5.00" y="380.00" Name="BQ0-UU" width="5.00" x="980.00" id="20594" ID="30003230" /><text x="980.00" y="380.00" id="20595">BQ0-UU</text><rect Type="system" Region="欧莎" height="5.00" y="320.00" Name="FJ-GUR" width="5.00" x="980.00" id="20597" ID="30003234" /><text x="980.00" y="320.00" id="20598">FJ-GUR</text><rect Type="system" Region="佩利根弗" height="5.00" y="120.00" Name="5T-A3D" width="5.00" x="20.00" id="20600" ID="30005115" /><text x="20.00" y="120.00" id="20601">5T-A3D</text><rect Type="system" Region="佩利根弗" height="5.00" y="20.00" Name="C3I-D5" width="5.00" x="180.00" id="20603" ID="30005190" /><text x="180.00" y="20.00" id="20604">C3I-D5</text><rect Type="system" Region="糟粕之域" height="5.00" y="300.00" Name="O8W-5O" width="5.00" x="200.00" id="20606" ID="30001068" /><text x="200.00" y="300.00" id="20607">O8W-5O</text><rect Type="system" Region="糟粕之域" height="5.00" y="400.00" Name="863P-X" width="5.00" x="200.00" id="20609" ID="30001132" /><text x="200.00" y="400.00" id="20610">863P-X</text><rect Type="system" Region="糟粕之域" height="5.00" y="450.00" Name="HG-YEQ" width="5.00" x="200.00" id="20612" ID="30001135" /><text x="200.00" y="450.00" id="20613">HG-YEQ</text><rect Type="system" Region="糟粕之域" height="5.00" y="500.00" Name="POQP-K" width="5.00" x="200.00" id="20615" ID="30001147" /><text x="200.00" y="500.00" id="20616">POQP-K</text><rect Type="system" Region="螺旋之域" height="5.00" y="750.00" Name="3ET-G8" width="5.00" x="280.00" id="20618" ID="30001553" /><text x="280.00" y="750.00" id="20619">3ET-G8</text><rect Type="system" Region="佩利根弗" height="5.00" y="524.50" Name="J9A-BH" width="5.00" x="500.00" id="20621" ID="30005158" /><text x="500.00" y="524.50" id="20622">J9A-BH</text><rect Type="system" Region="佩利根弗" height="5.00" y="700.00" Name="XY-ZCI" width="5.00" x="970.00" id="20624" ID="30005175" /><text x="970.00" y="700.00" id="20625">XY-ZCI</text><rect Type="system" Region="钴蓝边域" height="5.00" y="20.00" Name="EJ-5X2" width="5.00" x="650.00" id="20627" ID="30004204" /><text x="650.00" y="20.00" id="20628">EJ-5X2</text><rect Type="system" Region="钴蓝边域" height="5.00" y="200.00" Name="FV-YEA" width="5.00" x="750.00" id="20630" ID="30004161" /><text x="750.00" y="200.00" id="20631">FV-YEA</text><rect Type="system" Region="钴蓝边域" height="5.00" y="20.00" Name="Y-RAW3" width="5.00" x="920.00" id="20633" ID="30004171" /><text x="920.00" y="20.00" id="20634">Y-RAW3</text><rect Type="system" Region="钴蓝边域" height="5.00" y="224.50" Name="P-NRD3" width="5.00" x="950.00" id="20636" ID="30004170" /><text x="950.00" y="224.50" id="20637">P-NRD3</text><line x2="100.00" style="fill:blue;stroke:blue;" y1="300.00" x1="20.00" id="20639" y2="300.00" /><line x2="100.00" style="fill:blue;stroke:blue;" y1="300.00" x1="20.00" id="20640" y2="380.00" /><line x2="20.00" style="fill:blue;stroke:blue;" y1="300.00" x1="20.00" id="20641" y2="450.00" /><line x2="200.00" style="fill:blue;stroke:blue;" y1="450.00" x1="20.00" id="20642" y2="400.00" /><line x2="200.00" style="fill:blue;stroke:blue;" y1="450.00" x1="20.00" id="20643" y2="450.00" /><line x2="100.00" style="fill:blue;stroke:blue;" y1="450.00" x1="20.00" id="20644" y2="380.00" /><line x2="20.00" style="fill:blue;stroke:blue;" y1="450.00" x1="20.00" id="20645" y2="300.00" /><line x2="50.00" style="fill:blue;stroke:blue;" y1="450.00" x1="20.00" id="20646" y2="550.00" /><line x2="120.00" style="fill:blue;stroke:blue;" y1="700.00" x1="50.00" id="20647" y2="700.00" /><line x2="20.00" style="fill:blue;stroke:blue;" y1="550.00" x1="50.00" id="20648" y2="450.00" /><line x2="100.00" style="fill:blue;stroke:blue;" y1="550.00" x1="50.00" id="20649" y2="580.00" /><line x2="120.00" style="fill:blue;stroke:blue;" y1="550.00" x1="50.00" id="20650" y2="520.00" /><line x2="180.00" style="fill:blue;stroke:blue;" y1="150.00" x1="100.00" id="20651" y2="150.00" /><line x2="20.00" style="fill:blue;stroke:blue;" y1="150.00" x1="100.00" id="20652" y2="120.00" /><line x2="50.00" style="fill:blue;stroke:blue;" y1="580.00" x1="100.00" id="20653" y2="550.00" /><line x2="180.00" style="fill:blue;stroke:blue;" y1="580.00" x1="100.00" id="20654" y2="580.00" /><line x2="200.00" style="fill:blue;stroke:blue;" y1="300.00" x1="100.00" id="20655" y2="300.00" /><line x2="100.00" style="fill:blue;stroke:blue;" y1="300.00" x1="100.00" id="20656" y2="380.00" /><line x2="20.00" style="fill:blue;stroke:blue;" y1="300.00" x1="100.00" id="20657" y2="300.00" /><line x2="100.00" style="fill:blue;stroke:blue;" y1="380.00" x1="100.00" id="20658" y2="300.00" /><line x2="20.00" style="fill:blue;stroke:blue;" y1="380.00" x1="100.00" id="20659" y2="300.00" /><line x2="20.00" style="fill:blue;stroke:blue;" y1="380.00" x1="100.00" id="20660" y2="450.00" /><line x2="200.00" style="fill:blue;stroke:blue;" y1="520.00" x1="120.00" id="20661" y2="500.00" /><line x2="50.00" style="fill:blue;stroke:blue;" y1="520.00" x1="120.00" id="20662" y2="550.00" /><line x2="200.00" style="fill:blue;stroke:blue;" y1="700.00" x1="120.00" id="20663" y2="700.00" /><line x2="50.00" style="fill:blue;stroke:blue;" y1="700.00" x1="120.00" id="20664" y2="700.00" /><line x2="100.00" style="fill:blue;stroke:blue;" y1="150.00" x1="180.00" id="20665" y2="150.00" /><line x2="250.00" style="fill:blue;stroke:blue;" y1="150.00" x1="180.00" id="20666" y2="150.00" /><line x2="250.00" style="fill:blue;stroke:blue;" y1="150.00" x1="180.00" id="20667" y2="220.00" /><line x2="100.00" style="fill:blue;stroke:blue;" y1="580.00" x1="180.00" id="20668" y2="580.00" /><line x2="280.00" style="fill:blue;stroke:blue;" y1="580.00" x1="180.00" id="20669" y2="580.00" /><line x2="250.00" style="fill:blue;stroke:blue;" y1="80.00" x1="200.00" id="20670" y2="50.00" /><line x2="280.00" style="fill:blue;stroke:blue;" y1="650.00" x1="200.00" id="20671" y2="650.00" /><line x2="200.00" style="fill:blue;stroke:blue;" y1="650.00" x1="200.00" id="20672" y2="700.00" /><line x2="200.00" style="fill:blue;stroke:blue;" y1="700.00" x1="200.00" id="20673" y2="650.00" /><line x2="120.00" style="fill:blue;stroke:blue;" y1="700.00" x1="200.00" id="20674" y2="700.00" /><line x2="280.00" style="fill:blue;stroke:blue;" y1="700.00" x1="200.00" id="20675" y2="700.00" /><line x2="320.00" style="fill:blue;stroke:blue;" y1="50.00" x1="250.00" id="20676" y2="80.00" /><line x2="200.00" style="fill:blue;stroke:blue;" y1="50.00" x1="250.00" id="20677" y2="80.00" /><line x2="180.00" style="fill:blue;stroke:blue;" y1="50.00" x1="250.00" id="20678" y2="20.00" /><line x2="180.00" style="fill:blue;stroke:blue;" y1="150.00" x1="250.00" id="20679" y2="150.00" /><line x2="320.00" style="fill:blue;stroke:blue;" y1="150.00" x1="250.00" id="20680" y2="150.00" /><line x2="250.00" style="fill:blue;stroke:blue;" y1="150.00" x1="250.00" id="20681" y2="220.00" /><line x2="180.00" style="fill:blue;stroke:blue;" y1="220.00" x1="250.00" id="20682" y2="150.00" /><line x2="250.00" style="fill:blue;stroke:blue;" y1="220.00" x1="250.00" id="20683" y2="150.00" /><line x2="180.00" style="fill:blue;stroke:blue;" y1="580.00" x1="280.00" id="20684" y2="580.00" /><line x2="320.00" style="fill:blue;stroke:blue;" y1="580.00" x1="280.00" id="20685" y2="500.00" /><line x2="280.00" style="fill:blue;stroke:blue;" y1="580.00" x1="280.00" id="20686" y2="650.00" /><line x2="280.00" style="fill:blue;stroke:blue;" y1="650.00" x1="280.00" id="20687" y2="580.00" /><line x2="200.00" style="fill:blue;stroke:blue;" y1="650.00" x1="280.00" id="20688" y2="650.00" /><line x2="280.00" style="fill:blue;stroke:blue;" y1="650.00" x1="280.00" id="20689" y2="700.00" /><line x2="280.00" style="fill:blue;stroke:blue;" y1="700.00" x1="280.00" id="20690" y2="750.00" /><line x2="280.00" style="fill:blue;stroke:blue;" y1="700.00" x1="280.00" id="20691" y2="650.00" /><line x2="200.00" style="fill:blue;stroke:blue;" y1="700.00" x1="280.00" id="20692" y2="700.00" /><line x2="250.00" style="fill:blue;stroke:blue;" y1="150.00" x1="320.00" id="20693" y2="150.00" /><line x2="320.00" style="fill:blue;stroke:blue;" y1="150.00" x1="320.00" id="20694" y2="200.00" /><line x2="400.00" style="fill:blue;stroke:blue;" y1="150.00" x1="320.00" id="20695" y2="150.00" /><line x2="320.00" style="fill:blue;stroke:blue;" y1="150.00" x1="320.00" id="20696" y2="80.00" /><line x2="350.00" style="fill:blue;stroke:blue;" y1="280.00" x1="320.00" id="20697" y2="320.00" /><line x2="280.00" style="fill:blue;stroke:blue;" y1="500.00" x1="320.00" id="20698" y2="580.00" /><line x2="350.00" style="fill:blue;stroke:blue;" y1="500.00" x1="320.00" id="20699" y2="450.00" /><line x2="320.00" style="fill:blue;stroke:blue;" y1="80.00" x1="320.00" id="20700" y2="150.00" /><line x2="420.00" style="fill:blue;stroke:blue;" y1="80.00" x1="320.00" id="20701" y2="50.00" /><line x2="250.00" style="fill:blue;stroke:blue;" y1="80.00" x1="320.00" id="20702" y2="50.00" /><line x2="420.00" style="fill:blue;stroke:blue;" y1="80.00" x1="320.00" id="20703" y2="100.00" /><line x2="320.00" style="fill:blue;stroke:blue;" y1="200.00" x1="320.00" id="20704" y2="150.00" /><line x2="400.00" style="fill:blue;stroke:blue;" y1="200.00" x1="320.00" id="20705" y2="150.00" /><line x2="350.00" style="fill:blue;stroke:blue;" y1="400.00" x1="350.00" id="20706" y2="450.00" /><line x2="350.00" style="fill:blue;stroke:blue;" y1="400.00" x1="350.00" id="20707" y2="320.00" /><line x2="320.00" style="fill:blue;stroke:blue;" y1="450.00" x1="350.00" id="20708" y2="500.00" /><line x2="350.00" style="fill:blue;stroke:blue;" y1="450.00" x1="350.00" id="20709" y2="400.00" /><line x2="400.00" style="fill:blue;stroke:blue;" y1="450.00" x1="350.00" id="20710" y2="450.00" /><line x2="350.00" style="fill:blue;stroke:blue;" y1="320.00" x1="350.00" id="20711" y2="400.00" /><line x2="450.00" style="fill:blue;stroke:blue;" y1="320.00" x1="350.00" id="20712" y2="300.00" /><line x2="320.00" style="fill:blue;stroke:blue;" y1="320.00" x1="350.00" id="20713" y2="280.00" /><line x2="380.00" style="fill:blue;stroke:blue;" y1="600.00" x1="380.00" id="20714" y2="550.00" /><line x2="380.00" style="fill:blue;stroke:blue;" y1="600.00" x1="380.00" id="20715" y2="650.00" /><line x2="380.00" style="fill:blue;stroke:blue;" y1="650.00" x1="380.00" id="20716" y2="600.00" /><line x2="380.00" style="fill:blue;stroke:blue;" y1="650.00" x1="380.00" id="20717" y2="700.00" /><line x2="450.00" style="fill:blue;stroke:blue;" y1="650.00" x1="380.00" id="20718" y2="650.00" /><line x2="400.00" style="fill:blue;stroke:blue;" y1="550.00" x1="380.00" id="20719" y2="450.00" /><line x2="380.00" style="fill:blue;stroke:blue;" y1="550.00" x1="380.00" id="20720" y2="600.00" /><line x2="380.00" style="fill:blue;stroke:blue;" y1="700.00" x1="380.00" id="20721" y2="650.00" /><line x2="420.00" style="fill:blue;stroke:blue;" y1="700.00" x1="380.00" id="20722" y2="730.00" /><line x2="380.00" style="fill:blue;stroke:blue;" y1="730.00" x1="420.00" id="20723" y2="700.00" /><line x2="350.00" style="fill:blue;stroke:blue;" y1="450.00" x1="400.00" id="20724" y2="450.00" /><line x2="500.00" style="fill:blue;stroke:blue;" y1="450.00" x1="400.00" id="20725" y2="475.50" /><line x2="380.00" style="fill:blue;stroke:blue;" y1="450.00" x1="400.00" id="20726" y2="550.00" /><line x2="320.00" style="fill:blue;stroke:blue;" y1="150.00" x1="400.00" id="20727" y2="150.00" /><line x2="320.00" style="fill:blue;stroke:blue;" y1="150.00" x1="400.00" id="20728" y2="200.00" /><line x2="520.00" style="fill:blue;stroke:blue;" y1="150.00" x1="400.00" id="20729" y2="120.00" /><line x2="320.00" style="fill:blue;stroke:blue;" y1="50.00" x1="420.00" id="20730" y2="80.00" /><line x2="420.00" style="fill:blue;stroke:blue;" y1="50.00" x1="420.00" id="20731" y2="100.00" /><line x2="480.00" style="fill:blue;stroke:blue;" y1="50.00" x1="420.00" id="20732" y2="50.00" /><line x2="320.00" style="fill:blue;stroke:blue;" y1="100.00" x1="420.00" id="20733" y2="80.00" /><line x2="420.00" style="fill:blue;stroke:blue;" y1="100.00" x1="420.00" id="20734" y2="50.00" /><line x2="500.00" style="fill:blue;stroke:blue;" y1="300.00" x1="450.00" id="20735" y2="280.00" /><line x2="500.00" style="fill:blue;stroke:blue;" y1="300.00" x1="450.00" id="20736" y2="350.00" /><line x2="350.00" style="fill:blue;stroke:blue;" y1="300.00" x1="450.00" id="20737" y2="320.00" /><line x2="380.00" style="fill:blue;stroke:blue;" y1="650.00" x1="450.00" id="20738" y2="650.00" /><line x2="420.00" style="fill:blue;stroke:blue;" y1="50.00" x1="480.00" id="20739" y2="50.00" /><line x2="580.00" style="fill:blue;stroke:blue;" y1="50.00" x1="480.00" id="20740" y2="20.00" /><line x2="400.00" style="fill:blue;stroke:blue;" y1="475.50" x1="500.00" id="20741" y2="450.00" /><line x2="680.00" style="fill:blue;stroke:blue;" y1="475.50" x1="500.00" id="20742" y2="520.00" /><line x2="500.00" style="fill:blue;stroke:blue;" y1="475.50" x1="500.00" id="20743" y2="524.50" /><line x2="550.00" style="fill:blue;stroke:blue;" y1="280.00" x1="500.00" id="20744" y2="250.00" /><line x2="580.00" style="fill:blue;stroke:blue;" y1="280.00" x1="500.00" id="20745" y2="300.00" /><line x2="450.00" style="fill:blue;stroke:blue;" y1="280.00" x1="500.00" id="20746" y2="300.00" /><line x2="680.00" style="fill:blue;stroke:blue;" y1="350.00" x1="500.00" id="20747" y2="375.19" /><line x2="580.00" style="fill:blue;stroke:blue;" y1="350.00" x1="500.00" id="20748" y2="300.00" /><line x2="450.00" style="fill:blue;stroke:blue;" y1="350.00" x1="500.00" id="20749" y2="300.00" /><line x2="400.00" style="fill:blue;stroke:blue;" y1="120.00" x1="520.00" id="20750" y2="150.00" /><line x2="580.00" style="fill:blue;stroke:blue;" y1="120.00" x1="520.00" id="20751" y2="150.00" /><line x2="620.00" style="fill:blue;stroke:blue;" y1="120.00" x1="520.00" id="20752" y2="120.00" /><line x2="600.00" style="fill:blue;stroke:blue;" y1="420.00" x1="550.00" id="20753" y2="450.00" /><line x2="830.00" style="fill:blue;stroke:blue;" y1="700.00" x1="910.00" id="20754" y2="700.00" /><line x2="830.00" style="fill:blue;stroke:blue;" y1="700.00" x1="910.00" id="20755" y2="750.00" /><line x2="830.00" style="fill:blue;stroke:blue;" y1="700.00" x1="910.00" id="20756" y2="650.00" /><line x2="970.00" style="fill:blue;stroke:blue;" y1="700.00" x1="910.00" id="20757" y2="700.00" /><line x2="580.00" style="fill:blue;stroke:blue;" y1="250.00" x1="550.00" id="20758" y2="200.00" /><line x2="500.00" style="fill:blue;stroke:blue;" y1="250.00" x1="550.00" id="20759" y2="280.00" /><line x2="480.00" style="fill:blue;stroke:blue;" y1="20.00" x1="580.00" id="20760" y2="50.00" /><line x2="650.00" style="fill:blue;stroke:blue;" y1="20.00" x1="580.00" id="20761" y2="20.00" /><line x2="580.00" style="fill:blue;stroke:blue;" y1="200.00" x1="580.00" id="20762" y2="150.00" /><line x2="550.00" style="fill:blue;stroke:blue;" y1="200.00" x1="580.00" id="20763" y2="250.00" /><line x2="500.00" style="fill:blue;stroke:blue;" y1="300.00" x1="580.00" id="20764" y2="280.00" /><line x2="500.00" style="fill:blue;stroke:blue;" y1="300.00" x1="580.00" id="20765" y2="350.00" /><line x2="520.00" style="fill:blue;stroke:blue;" y1="150.00" x1="580.00" id="20766" y2="120.00" /><line x2="580.00" style="fill:blue;stroke:blue;" y1="150.00" x1="580.00" id="20767" y2="200.00" /><line x2="650.00" style="fill:blue;stroke:blue;" y1="150.00" x1="580.00" id="20768" y2="180.00" /><line x2="620.00" style="fill:blue;stroke:blue;" y1="150.00" x1="580.00" id="20769" y2="120.00" /><line x2="680.00" style="fill:blue;stroke:blue;" y1="570.00" x1="600.00" id="20770" y2="520.00" /><line x2="670.00" style="fill:blue;stroke:blue;" y1="570.00" x1="600.00" id="20771" y2="600.00" /><line x2="680.00" style="fill:blue;stroke:blue;" y1="400.00" x1="600.00" id="20772" y2="375.19" /><line x2="600.00" style="fill:blue;stroke:blue;" y1="400.00" x1="600.00" id="20773" y2="450.00" /><line x2="679.04" style="fill:blue;stroke:blue;" y1="450.00" x1="600.00" id="20774" y2="424.18" /><line x2="600.00" style="fill:blue;stroke:blue;" y1="450.00" x1="600.00" id="20775" y2="400.00" /><line x2="550.00" style="fill:blue;stroke:blue;" y1="450.00" x1="600.00" id="20776" y2="420.00" /><line x2="520.00" style="fill:blue;stroke:blue;" y1="120.00" x1="620.00" id="20777" y2="120.00" /><line x2="580.00" style="fill:blue;stroke:blue;" y1="120.00" x1="620.00" id="20778" y2="150.00" /><line x2="700.00" style="fill:blue;stroke:blue;" y1="120.00" x1="620.00" id="20779" y2="120.00" /><line x2="680.00" style="fill:blue;stroke:blue;" y1="600.00" x1="670.00" id="20780" y2="520.00" /><line x2="750.00" style="fill:blue;stroke:blue;" y1="600.00" x1="670.00" id="20781" y2="550.00" /><line x2="600.00" style="fill:blue;stroke:blue;" y1="600.00" x1="670.00" id="20782" y2="570.00" /><line x2="750.00" style="fill:blue;stroke:blue;" y1="650.00" x1="830.00" id="20783" y2="650.00" /><line x2="830.00" style="fill:blue;stroke:blue;" y1="650.00" x1="830.00" id="20784" y2="700.00" /><line x2="910.00" style="fill:blue;stroke:blue;" y1="650.00" x1="830.00" id="20785" y2="700.00" /><line x2="750.00" style="fill:blue;stroke:blue;" y1="650.00" x1="830.00" id="20786" y2="750.00" /><line x2="750.00" style="fill:blue;stroke:blue;" y1="700.00" x1="830.00" id="20787" y2="650.00" /><line x2="830.00" style="fill:blue;stroke:blue;" y1="700.00" x1="830.00" id="20788" y2="750.00" /><line x2="830.00" style="fill:blue;stroke:blue;" y1="700.00" x1="830.00" id="20789" y2="650.00" /><line x2="910.00" style="fill:blue;stroke:blue;" y1="700.00" x1="830.00" id="20790" y2="700.00" /><line x2="750.00" style="fill:blue;stroke:blue;" y1="700.00" x1="830.00" id="20791" y2="750.00" /><line x2="830.00" style="fill:blue;stroke:blue;" y1="750.00" x1="830.00" id="20792" y2="700.00" /><line x2="910.00" style="fill:blue;stroke:blue;" y1="750.00" x1="830.00" id="20793" y2="700.00" /><line x2="750.00" style="fill:blue;stroke:blue;" y1="750.00" x1="830.00" id="20794" y2="750.00" /><line x2="580.00" style="fill:blue;stroke:blue;" y1="180.00" x1="650.00" id="20795" y2="150.00" /><line x2="500.00" style="fill:blue;stroke:blue;" y1="520.00" x1="680.00" id="20796" y2="475.50" /><line x2="750.00" style="fill:blue;stroke:blue;" y1="520.00" x1="680.00" id="20797" y2="550.00" /><line x2="850.00" style="fill:blue;stroke:blue;" y1="520.00" x1="680.00" id="20798" y2="500.00" /><line x2="600.00" style="fill:blue;stroke:blue;" y1="520.00" x1="680.00" id="20799" y2="570.00" /><line x2="670.00" style="fill:blue;stroke:blue;" y1="520.00" x1="680.00" id="20800" y2="600.00" /><line x2="752.35" style="fill:blue;stroke:blue;" y1="375.19" x1="680.00" id="20801" y2="417.56" /><line x2="679.04" style="fill:blue;stroke:blue;" y1="375.19" x1="680.00" id="20802" y2="424.18" /><line x2="600.00" style="fill:blue;stroke:blue;" y1="375.19" x1="680.00" id="20803" y2="400.00" /><line x2="500.00" style="fill:blue;stroke:blue;" y1="375.19" x1="680.00" id="20804" y2="350.00" /><line x2="680.00" style="fill:blue;stroke:blue;" y1="424.18" x1="679.04" id="20805" y2="375.19" /><line x2="600.00" style="fill:blue;stroke:blue;" y1="424.18" x1="679.04" id="20806" y2="450.00" /><line x2="718.60" style="fill:blue;stroke:blue;" y1="424.18" x1="679.04" id="20807" y2="453.08" /><line x2="620.00" style="fill:blue;stroke:blue;" y1="120.00" x1="700.00" id="20808" y2="120.00" /><line x2="799.04" style="fill:blue;stroke:blue;" y1="120.00" x1="700.00" id="20809" y2="121.91" /><line x2="750.00" style="fill:blue;stroke:blue;" y1="120.00" x1="700.00" id="20810" y2="200.00" /><line x2="679.04" style="fill:blue;stroke:blue;" y1="453.08" x1="718.60" id="20811" y2="424.18" /><line x2="750.00" style="fill:blue;stroke:blue;" y1="650.00" x1="750.00" id="20812" y2="600.00" /><line x2="750.00" style="fill:blue;stroke:blue;" y1="650.00" x1="750.00" id="20813" y2="700.00" /><line x2="830.00" style="fill:blue;stroke:blue;" y1="650.00" x1="750.00" id="20814" y2="700.00" /><line x2="830.00" style="fill:blue;stroke:blue;" y1="650.00" x1="750.00" id="20815" y2="650.00" /><line x2="750.00" style="fill:blue;stroke:blue;" y1="700.00" x1="750.00" id="20816" y2="650.00" /><line x2="750.00" style="fill:blue;stroke:blue;" y1="700.00" x1="750.00" id="20817" y2="750.00" /><line x2="750.00" style="fill:blue;stroke:blue;" y1="750.00" x1="750.00" id="20818" y2="700.00" /><line x2="830.00" style="fill:blue;stroke:blue;" y1="750.00" x1="750.00" id="20819" y2="700.00" /><line x2="830.00" style="fill:blue;stroke:blue;" y1="750.00" x1="750.00" id="20820" y2="750.00" /><line x2="830.00" style="fill:blue;stroke:blue;" y1="750.00" x1="750.00" id="20821" y2="650.00" /><line x2="680.00" style="fill:blue;stroke:blue;" y1="550.00" x1="750.00" id="20822" y2="520.00" /><line x2="850.00" style="fill:blue;stroke:blue;" y1="550.00" x1="750.00" id="20823" y2="500.00" /><line x2="670.00" style="fill:blue;stroke:blue;" y1="550.00" x1="750.00" id="20824" y2="600.00" /><line x2="750.00" style="fill:blue;stroke:blue;" y1="550.00" x1="750.00" id="20825" y2="600.00" /><line x2="750.00" style="fill:blue;stroke:blue;" y1="600.00" x1="750.00" id="20826" y2="550.00" /><line x2="750.00" style="fill:blue;stroke:blue;" y1="600.00" x1="750.00" id="20827" y2="650.00" /><line x2="850.00" style="fill:blue;stroke:blue;" y1="417.56" x1="752.35" id="20828" y2="500.00" /><line x2="680.00" style="fill:blue;stroke:blue;" y1="417.56" x1="752.35" id="20829" y2="375.19" /><line x2="700.00" style="fill:blue;stroke:blue;" y1="121.91" x1="799.04" id="20830" y2="120.00" /><line x2="880.00" style="fill:blue;stroke:blue;" y1="121.91" x1="799.04" id="20831" y2="120.00" /><line x2="820.96" style="fill:blue;stroke:blue;" y1="121.91" x1="799.04" id="20832" y2="78.09" /><line x2="980.00" style="fill:blue;stroke:blue;" y1="320.00" x1="850.00" id="20833" y2="380.00" /><line x2="910.00" style="fill:blue;stroke:blue;" y1="320.00" x1="850.00" id="20834" y2="290.00" /><line x2="850.00" style="fill:blue;stroke:blue;" y1="320.00" x1="850.00" id="20835" y2="380.00" /><line x2="980.00" style="fill:blue;stroke:blue;" y1="320.00" x1="850.00" id="20836" y2="320.00" /><line x2="910.00" style="fill:blue;stroke:blue;" y1="380.00" x1="850.00" id="20837" y2="420.00" /><line x2="980.00" style="fill:blue;stroke:blue;" y1="380.00" x1="850.00" id="20838" y2="380.00" /><line x2="910.00" style="fill:blue;stroke:blue;" y1="380.00" x1="850.00" id="20839" y2="290.00" /><line x2="850.00" style="fill:blue;stroke:blue;" y1="380.00" x1="850.00" id="20840" y2="320.00" /><line x2="799.04" style="fill:blue;stroke:blue;" y1="78.09" x1="820.96" id="20841" y2="121.91" /><line x2="880.00" style="fill:blue;stroke:blue;" y1="78.09" x1="820.96" id="20842" y2="120.00" /><line x2="680.00" style="fill:blue;stroke:blue;" y1="500.00" x1="850.00" id="20843" y2="520.00" /><line x2="750.00" style="fill:blue;stroke:blue;" y1="500.00" x1="850.00" id="20844" y2="550.00" /><line x2="910.00" style="fill:blue;stroke:blue;" y1="500.00" x1="850.00" id="20845" y2="420.00" /><line x2="752.35" style="fill:blue;stroke:blue;" y1="500.00" x1="850.00" id="20846" y2="417.56" /><line x2="799.04" style="fill:blue;stroke:blue;" y1="120.00" x1="880.00" id="20847" y2="121.91" /><line x2="950.00" style="fill:blue;stroke:blue;" y1="120.00" x1="880.00" id="20848" y2="124.50" /><line x2="820.96" style="fill:blue;stroke:blue;" y1="120.00" x1="880.00" id="20849" y2="78.09" /><line x2="910.00" style="fill:blue;stroke:blue;" y1="290.00" x1="910.00" id="20850" y2="420.00" /><line x2="980.00" style="fill:blue;stroke:blue;" y1="290.00" x1="910.00" id="20851" y2="380.00" /><line x2="850.00" style="fill:blue;stroke:blue;" y1="290.00" x1="910.00" id="20852" y2="320.00" /><line x2="850.00" style="fill:blue;stroke:blue;" y1="290.00" x1="910.00" id="20853" y2="380.00" /><line x2="980.00" style="fill:blue;stroke:blue;" y1="290.00" x1="910.00" id="20854" y2="320.00" /><line x2="850.00" style="fill:blue;stroke:blue;" y1="420.00" x1="910.00" id="20855" y2="500.00" /><line x2="980.00" style="fill:blue;stroke:blue;" y1="420.00" x1="910.00" id="20856" y2="380.00" /><line x2="910.00" style="fill:blue;stroke:blue;" y1="420.00" x1="910.00" id="20857" y2="290.00" /><line x2="850.00" style="fill:blue;stroke:blue;" y1="420.00" x1="910.00" id="20858" y2="380.00" /><line x2="950.00" style="fill:blue;stroke:blue;" y1="75.50" x1="950.00" id="20859" y2="124.50" /><line x2="920.00" style="fill:blue;stroke:blue;" y1="75.50" x1="950.00" id="20860" y2="20.00" /><line x2="880.00" style="fill:blue;stroke:blue;" y1="124.50" x1="950.00" id="20861" y2="120.00" /><line x2="950.00" style="fill:blue;stroke:blue;" y1="124.50" x1="950.00" id="20862" y2="175.50" /><line x2="950.00" style="fill:blue;stroke:blue;" y1="124.50" x1="950.00" id="20863" y2="75.50" /><line x2="950.00" style="fill:blue;stroke:blue;" y1="175.50" x1="950.00" id="20864" y2="124.50" /><line x2="950.00" style="fill:blue;stroke:blue;" y1="175.50" x1="950.00" id="20865" y2="224.50" /><line x2="910.00" style="fill:blue;stroke:blue;" y1="380.00" x1="980.00" id="20866" y2="420.00" /><line x2="910.00" style="fill:blue;stroke:blue;" y1="380.00" x1="980.00" id="20867" y2="290.00" /><line x2="850.00" style="fill:blue;stroke:blue;" y1="380.00" x1="980.00" id="20868" y2="320.00" /><line x2="850.00" style="fill:blue;stroke:blue;" y1="380.00" x1="980.00" id="20869" y2="380.00" /><line x2="980.00" style="fill:blue;stroke:blue;" y1="380.00" x1="980.00" id="20870" y2="320.00" /><line x2="980.00" style="fill:blue;stroke:blue;" y1="320.00" x1="980.00" id="20871" y2="380.00" /><line x2="910.00" style="fill:blue;stroke:blue;" y1="320.00" x1="980.00" id="20872" y2="290.00" /><line x2="850.00" style="fill:blue;stroke:blue;" y1="320.00" x1="980.00" id="20873" y2="320.00" /><line x2="100.00" style="fill:blue;stroke:blue;" y1="120.00" x1="20.00" id="20874" y2="150.00" /><line x2="250.00" style="fill:blue;stroke:blue;" y1="20.00" x1="180.00" id="20875" y2="50.00" /><line x2="100.00" style="fill:blue;stroke:blue;" y1="300.00" x1="200.00" id="20876" y2="300.00" /><line x2="200.00" style="fill:blue;stroke:blue;" y1="400.00" x1="200.00" id="20877" y2="450.00" /><line x2="20.00" style="fill:blue;stroke:blue;" y1="400.00" x1="200.00" id="20878" y2="450.00" /><line x2="200.00" style="fill:blue;stroke:blue;" y1="450.00" x1="200.00" id="20879" y2="400.00" /><line x2="20.00" style="fill:blue;stroke:blue;" y1="450.00" x1="200.00" id="20880" y2="450.00" /><line x2="120.00" style="fill:blue;stroke:blue;" y1="500.00" x1="200.00" id="20881" y2="520.00" /><line x2="280.00" style="fill:blue;stroke:blue;" y1="750.00" x1="280.00" id="20882" y2="700.00" /><line x2="500.00" style="fill:blue;stroke:blue;" y1="524.50" x1="500.00" id="20883" y2="475.50" /><line x2="910.00" style="fill:blue;stroke:blue;" y1="700.00" x1="970.00" id="20884" y2="700.00" /><line x2="580.00" style="fill:blue;stroke:blue;" y1="20.00" x1="650.00" id="20885" y2="20.00" /><line x2="700.00" style="fill:blue;stroke:blue;" y1="200.00" x1="750.00" id="20886" y2="120.00" /><line x2="950.00" style="fill:blue;stroke:blue;" y1="20.00" x1="920.00" id="20887" y2="75.50" /><line x2="950.00" style="fill:blue;stroke:blue;" y1="224.50" x1="950.00" id="20888" y2="175.50" /></svg>
