<?xml version="1.0" standalone="yes"?><!DOCTYPE svg PUBLIC "-//W3C//DTD SVG 1.1//EN" "http://www.w3.org/Graphics/SVG/1.1/DTD/svg11.dtd"[]><svg height="800.00" id="33139" width="1050.00" xmlns="http://www.w3.org/2000/svg" xmlns:xlink="http://www.w3.org/1999/xlink"><rect Type="system" Region="波赫文" height="5.00" y="350.00" Name="乌特拉" width="5.00" x="920.00" id="33140" ID="30000157" /><text x="920.00" y="350.00" id="33141">乌特拉</text><rect Type="system" Region="波赫文" height="5.00" y="560.00" Name="欧塔诺米" width="5.00" x="610.00" id="33143" ID="30000192" /><text x="610.00" y="560.00" id="33144">欧塔诺米</text><rect Type="system" Region="波赫文" height="5.00" y="400.00" Name="吉诺" width="5.00" x="800.00" id="33146" ID="30001372" /><text x="800.00" y="400.00" id="33147">吉诺</text><rect Type="system" Region="波赫文" height="5.00" y="450.00" Name="纳瓦拉" width="5.00" x="880.00" id="33149" ID="30001445" /><text x="880.00" y="450.00" id="33150">纳瓦拉</text><rect Type="system" Region="波赫文" height="5.00" y="520.00" Name="克里拉德" width="5.00" x="700.00" id="33152" ID="30002079" /><text x="700.00" y="520.00" id="33153">克里拉德</text><rect Type="system" Region="波赫文" height="5.00" y="480.00" Name="卡诺拉" width="5.00" x="790.00" id="33155" ID="30002737" /><text x="790.00" y="480.00" id="33156">卡诺拉</text><rect Type="system" Region="波赫文" height="5.00" y="310.00" Name="伊杰巴尼尔" width="5.00" x="830.00" id="33158" ID="30005005" /><text x="830.00" y="310.00" id="33159">伊杰巴尼尔</text><rect Type="system" Region="波赫文" height="5.00" y="220.00" Name="萨肯达" width="5.00" x="650.00" id="33161" ID="30010141" /><text x="650.00" y="220.00" id="33162">萨肯达</text><rect Type="system" Region="波赫文" height="5.00" y="270.00" Name="克莫" width="5.00" x="750.00" id="33164" ID="30031392" /><text x="750.00" y="270.00" id="33165">克莫</text><rect Type="system" Region="波赫文" height="5.00" y="500.00" Name="库哈拉赫" width="5.00" x="130.00" id="33167" ID="30000021" /><text x="130.00" y="500.00" id="33168">库哈拉赫</text><rect Type="system" Region="波赫文" height="5.00" y="660.00" Name="拿尼" width="5.00" x="370.00" id="33170" ID="30001413" /><text x="370.00" y="660.00" id="33171">拿尼</text><rect Type="system" Region="波赫文" height="5.00" y="680.00" Name="哈洱瓦" width="5.00" x="110.00" id="33173" ID="30002225" /><text x="110.00" y="680.00" id="33174">哈洱瓦</text><rect Type="system" Region="波赫文" height="5.00" y="700.00" Name="斯卡尔克恩" width="5.00" x="260.00" id="33176" ID="30002411" /><text x="260.00" y="700.00" id="33177">斯卡尔克恩</text><rect Type="system" Region="波赫文" height="5.00" y="580.00" Name="图努但" width="5.00" x="120.00" id="33179" ID="30002770" /><text x="120.00" y="580.00" id="33180">图努但</text><rect Type="system" Region="波赫文" height="5.00" y="750.00" Name="拉拉沃斯" width="5.00" x="150.00" id="33182" ID="30003495" /><text x="150.00" y="750.00" id="33183">拉拉沃斯</text><rect Type="system" Region="波赫文" height="5.00" y="650.00" Name="米亚尔加" width="5.00" x="200.00" id="33185" ID="30003504" /><text x="200.00" y="650.00" id="33186">米亚尔加</text><rect Type="system" Region="波赫文" height="5.00" y="620.00" Name="乌西里奇" width="5.00" x="450.00" id="33188" ID="30040141" /><text x="450.00" y="620.00" id="33189">乌西里奇</text><rect Type="system" Region="波赫文" height="5.00" y="410.00" Name="艾特拉" width="5.00" x="140.00" id="33191" ID="30045328" /><text x="140.00" y="410.00" id="33192">艾特拉</text><rect Type="system" Region="波赫文" height="5.00" y="230.00" Name="维拉希达" width="5.00" x="160.00" id="33194" ID="30000206" /><text x="160.00" y="230.00" id="33195">维拉希达</text><rect Type="system" Region="波赫文" height="5.00" y="180.00" Name="埃瓦萨拉斯" width="5.00" x="560.00" id="33197" ID="30001381" /><text x="560.00" y="180.00" id="33198">埃瓦萨拉斯</text><rect Type="system" Region="波赫文" height="5.00" y="150.00" Name="埃拉" width="5.00" x="170.00" id="33200" ID="30002652" /><text x="170.00" y="150.00" id="33201">埃拉</text><rect Type="system" Region="波赫文" height="5.00" y="120.00" Name="阿尔谢" width="5.00" x="250.00" id="33203" ID="30002702" /><text x="250.00" y="120.00" id="33204">阿尔谢</text><rect Type="system" Region="波赫文" height="5.00" y="140.00" Name="库瓦诺加" width="5.00" x="480.00" id="33206" ID="30002797" /><text x="480.00" y="140.00" id="33207">库瓦诺加</text><rect Type="system" Region="波赫文" height="5.00" y="50.00" Name="安吉蒙勒" width="5.00" x="280.00" id="33209" ID="30003046" /><text x="280.00" y="50.00" id="33210">安吉蒙勒</text><rect Type="system" Region="波赫文" height="5.00" y="80.00" Name="瓦勒" width="5.00" x="180.00" id="33212" ID="30005029" /><text x="180.00" y="80.00" id="33213">瓦勒</text><rect Type="system" Region="波赫文" height="5.00" y="300.00" Name="森达" width="5.00" x="150.00" id="33215" ID="30020141" /><text x="150.00" y="300.00" id="33216">森达</text><rect Type="system" Region="波赫文" height="5.00" y="100.00" Name="伊切尼亚" width="5.00" x="380.00" id="33218" ID="30045329" /><text x="380.00" y="100.00" id="33219">伊切尼亚</text><line x2="800.00" style="fill:blue;stroke:blue;" y1="350.00" x1="920.00" id="33221" y2="400.00" /><line x2="880.00" style="fill:blue;stroke:blue;" y1="350.00" x1="920.00" id="33222" y2="450.00" /><line x2="830.00" style="fill:blue;stroke:blue;" y1="350.00" x1="920.00" id="33223" y2="310.00" /><line x2="700.00" style="fill:blue;stroke:blue;" y1="560.00" x1="610.00" id="33224" y2="520.00" /><line x2="450.00" style="fill:blue;stroke:blue;" y1="560.00" x1="610.00" id="33225" y2="620.00" /><line x2="920.00" style="fill:blue;stroke:blue;" y1="400.00" x1="800.00" id="33226" y2="350.00" /><line x2="880.00" style="fill:blue;stroke:blue;" y1="400.00" x1="800.00" id="33227" y2="450.00" /><line x2="920.00" style="fill:blue;stroke:blue;" y1="450.00" x1="880.00" id="33228" y2="350.00" /><line x2="800.00" style="fill:blue;stroke:blue;" y1="450.00" x1="880.00" id="33229" y2="400.00" /><line x2="790.00" style="fill:blue;stroke:blue;" y1="450.00" x1="880.00" id="33230" y2="480.00" /><line x2="610.00" style="fill:blue;stroke:blue;" y1="520.00" x1="700.00" id="33231" y2="560.00" /><line x2="790.00" style="fill:blue;stroke:blue;" y1="520.00" x1="700.00" id="33232" y2="480.00" /><line x2="880.00" style="fill:blue;stroke:blue;" y1="480.00" x1="790.00" id="33233" y2="450.00" /><line x2="700.00" style="fill:blue;stroke:blue;" y1="480.00" x1="790.00" id="33234" y2="520.00" /><line x2="920.00" style="fill:blue;stroke:blue;" y1="310.00" x1="830.00" id="33235" y2="350.00" /><line x2="750.00" style="fill:blue;stroke:blue;" y1="310.00" x1="830.00" id="33236" y2="270.00" /><line x2="560.00" style="fill:blue;stroke:blue;" y1="220.00" x1="650.00" id="33237" y2="180.00" /><line x2="750.00" style="fill:blue;stroke:blue;" y1="220.00" x1="650.00" id="33238" y2="270.00" /><line x2="830.00" style="fill:blue;stroke:blue;" y1="270.00" x1="750.00" id="33239" y2="310.00" /><line x2="650.00" style="fill:blue;stroke:blue;" y1="270.00" x1="750.00" id="33240" y2="220.00" /><line x2="120.00" style="fill:blue;stroke:blue;" y1="500.00" x1="130.00" id="33241" y2="580.00" /><line x2="140.00" style="fill:blue;stroke:blue;" y1="500.00" x1="130.00" id="33242" y2="410.00" /><line x2="260.00" style="fill:blue;stroke:blue;" y1="660.00" x1="370.00" id="33243" y2="700.00" /><line x2="450.00" style="fill:blue;stroke:blue;" y1="660.00" x1="370.00" id="33244" y2="620.00" /><line x2="120.00" style="fill:blue;stroke:blue;" y1="680.00" x1="110.00" id="33245" y2="580.00" /><line x2="150.00" style="fill:blue;stroke:blue;" y1="680.00" x1="110.00" id="33246" y2="750.00" /><line x2="200.00" style="fill:blue;stroke:blue;" y1="680.00" x1="110.00" id="33247" y2="650.00" /><line x2="370.00" style="fill:blue;stroke:blue;" y1="700.00" x1="260.00" id="33248" y2="660.00" /><line x2="150.00" style="fill:blue;stroke:blue;" y1="700.00" x1="260.00" id="33249" y2="750.00" /><line x2="130.00" style="fill:blue;stroke:blue;" y1="580.00" x1="120.00" id="33250" y2="500.00" /><line x2="110.00" style="fill:blue;stroke:blue;" y1="580.00" x1="120.00" id="33251" y2="680.00" /><line x2="110.00" style="fill:blue;stroke:blue;" y1="750.00" x1="150.00" id="33252" y2="680.00" /><line x2="260.00" style="fill:blue;stroke:blue;" y1="750.00" x1="150.00" id="33253" y2="700.00" /><line x2="200.00" style="fill:blue;stroke:blue;" y1="750.00" x1="150.00" id="33254" y2="650.00" /><line x2="110.00" style="fill:blue;stroke:blue;" y1="650.00" x1="200.00" id="33255" y2="680.00" /><line x2="150.00" style="fill:blue;stroke:blue;" y1="650.00" x1="200.00" id="33256" y2="750.00" /><line x2="610.00" style="fill:blue;stroke:blue;" y1="620.00" x1="450.00" id="33257" y2="560.00" /><line x2="370.00" style="fill:blue;stroke:blue;" y1="620.00" x1="450.00" id="33258" y2="660.00" /><line x2="130.00" style="fill:blue;stroke:blue;" y1="410.00" x1="140.00" id="33259" y2="500.00" /><line x2="150.00" style="fill:blue;stroke:blue;" y1="410.00" x1="140.00" id="33260" y2="300.00" /><line x2="170.00" style="fill:blue;stroke:blue;" y1="230.00" x1="160.00" id="33261" y2="150.00" /><line x2="150.00" style="fill:blue;stroke:blue;" y1="230.00" x1="160.00" id="33262" y2="300.00" /><line x2="480.00" style="fill:blue;stroke:blue;" y1="180.00" x1="560.00" id="33263" y2="140.00" /><line x2="650.00" style="fill:blue;stroke:blue;" y1="180.00" x1="560.00" id="33264" y2="220.00" /><line x2="160.00" style="fill:blue;stroke:blue;" y1="150.00" x1="170.00" id="33265" y2="230.00" /><line x2="180.00" style="fill:blue;stroke:blue;" y1="150.00" x1="170.00" id="33266" y2="80.00" /><line x2="280.00" style="fill:blue;stroke:blue;" y1="120.00" x1="250.00" id="33267" y2="50.00" /><line x2="180.00" style="fill:blue;stroke:blue;" y1="120.00" x1="250.00" id="33268" y2="80.00" /><line x2="560.00" style="fill:blue;stroke:blue;" y1="140.00" x1="480.00" id="33269" y2="180.00" /><line x2="380.00" style="fill:blue;stroke:blue;" y1="140.00" x1="480.00" id="33270" y2="100.00" /><line x2="250.00" style="fill:blue;stroke:blue;" y1="50.00" x1="280.00" id="33271" y2="120.00" /><line x2="180.00" style="fill:blue;stroke:blue;" y1="50.00" x1="280.00" id="33272" y2="80.00" /><line x2="380.00" style="fill:blue;stroke:blue;" y1="50.00" x1="280.00" id="33273" y2="100.00" /><line x2="170.00" style="fill:blue;stroke:blue;" y1="80.00" x1="180.00" id="33274" y2="150.00" /><line x2="250.00" style="fill:blue;stroke:blue;" y1="80.00" x1="180.00" id="33275" y2="120.00" /><line x2="280.00" style="fill:blue;stroke:blue;" y1="80.00" x1="180.00" id="33276" y2="50.00" /><line x2="160.00" style="fill:blue;stroke:blue;" y1="300.00" x1="150.00" id="33277" y2="230.00" /><line x2="140.00" style="fill:blue;stroke:blue;" y1="300.00" x1="150.00" id="33278" y2="410.00" /><line x2="480.00" style="fill:blue;stroke:blue;" y1="100.00" x1="380.00" id="33279" y2="140.00" /><line x2="280.00" style="fill:blue;stroke:blue;" y1="100.00" x1="380.00" id="33280" y2="50.00" /></svg>
