<?xml version="1.0" standalone="yes"?><!DOCTYPE svg PUBLIC "-//W3C//DTD SVG 1.1//EN" "http://www.w3.org/Graphics/SVG/1.1/DTD/svg11.dtd"[]><svg width="1050.00" height="800.00" id="33139" xmlns="http://www.w3.org/2000/svg" xmlns:xlink="http://www.w3.org/1999/xlink"><rect Type="system" x="920.00" id="33140" height="5.00" width="5.00" Name="乌特拉" ID="30000157" Region="波赫文" y="350.00" /><text y="350.00" x="920.00" id="33141">乌特拉</text><rect Type="system" x="610.00" id="33143" height="5.00" width="5.00" Name="欧塔诺米" ID="30000192" Region="波赫文" y="560.00" /><text y="560.00" x="610.00" id="33144">欧塔诺米</text><rect Type="system" x="800.00" id="33146" height="5.00" width="5.00" Name="吉诺" ID="30001372" Region="波赫文" y="400.00" /><text y="400.00" x="800.00" id="33147">吉诺</text><rect Type="system" x="880.00" id="33149" height="5.00" width="5.00" Name="纳瓦拉" ID="30001445" Region="波赫文" y="450.00" /><text y="450.00" x="880.00" id="33150">纳瓦拉</text><rect Type="system" x="700.00" id="33152" height="5.00" width="5.00" Name="克里拉德" ID="30002079" Region="波赫文" y="520.00" /><text y="520.00" x="700.00" id="33153">克里拉德</text><rect Type="system" x="790.00" id="33155" height="5.00" width="5.00" Name="卡诺拉" ID="30002737" Region="波赫文" y="480.00" /><text y="480.00" x="790.00" id="33156">卡诺拉</text><rect Type="system" x="830.00" id="33158" height="5.00" width="5.00" Name="伊杰巴尼尔" ID="30005005" Region="波赫文" y="310.00" /><text y="310.00" x="830.00" id="33159">伊杰巴尼尔</text><rect Type="system" x="650.00" id="33161" height="5.00" width="5.00" Name="萨肯达" ID="30010141" Region="波赫文" y="220.00" /><text y="220.00" x="650.00" id="33162">萨肯达</text><rect Type="system" x="750.00" id="33164" height="5.00" width="5.00" Name="克莫" ID="30031392" Region="波赫文" y="270.00" /><text y="270.00" x="750.00" id="33165">克莫</text><rect Type="system" x="130.00" id="33167" height="5.00" width="5.00" Name="库哈拉赫" ID="30000021" Region="波赫文" y="500.00" /><text y="500.00" x="130.00" id="33168">库哈拉赫</text><rect Type="system" x="370.00" id="33170" height="5.00" width="5.00" Name="拿尼" ID="30001413" Region="波赫文" y="660.00" /><text y="660.00" x="370.00" id="33171">拿尼</text><rect Type="system" x="110.00" id="33173" height="5.00" width="5.00" Name="哈洱瓦" ID="30002225" Region="波赫文" y="680.00" /><text y="680.00" x="110.00" id="33174">哈洱瓦</text><rect Type="system" x="260.00" id="33176" height="5.00" width="5.00" Name="斯卡尔克恩" ID="30002411" Region="波赫文" y="700.00" /><text y="700.00" x="260.00" id="33177">斯卡尔克恩</text><rect Type="system" x="120.00" id="33179" height="5.00" width="5.00" Name="图努但" ID="30002770" Region="波赫文" y="580.00" /><text y="580.00" x="120.00" id="33180">图努但</text><rect Type="system" x="150.00" id="33182" height="5.00" width="5.00" Name="拉拉沃斯" ID="30003495" Region="波赫文" y="750.00" /><text y="750.00" x="150.00" id="33183">拉拉沃斯</text><rect Type="system" x="200.00" id="33185" height="5.00" width="5.00" Name="米亚尔加" ID="30003504" Region="波赫文" y="650.00" /><text y="650.00" x="200.00" id="33186">米亚尔加</text><rect Type="system" x="450.00" id="33188" height="5.00" width="5.00" Name="乌西里奇" ID="30040141" Region="波赫文" y="620.00" /><text y="620.00" x="450.00" id="33189">乌西里奇</text><rect Type="system" x="140.00" id="33191" height="5.00" width="5.00" Name="艾特拉" ID="30045328" Region="波赫文" y="410.00" /><text y="410.00" x="140.00" id="33192">艾特拉</text><rect Type="system" x="160.00" id="33194" height="5.00" width="5.00" Name="维拉希达" ID="30000206" Region="波赫文" y="230.00" /><text y="230.00" x="160.00" id="33195">维拉希达</text><rect Type="system" x="560.00" id="33197" height="5.00" width="5.00" Name="埃瓦萨拉斯" ID="30001381" Region="波赫文" y="180.00" /><text y="180.00" x="560.00" id="33198">埃瓦萨拉斯</text><rect Type="system" x="170.00" id="33200" height="5.00" width="5.00" Name="埃拉" ID="30002652" Region="波赫文" y="150.00" /><text y="150.00" x="170.00" id="33201">埃拉</text><rect Type="system" x="250.00" id="33203" height="5.00" width="5.00" Name="阿尔谢" ID="30002702" Region="波赫文" y="120.00" /><text y="120.00" x="250.00" id="33204">阿尔谢</text><rect Type="system" x="480.00" id="33206" height="5.00" width="5.00" Name="库瓦诺加" ID="30002797" Region="波赫文" y="140.00" /><text y="140.00" x="480.00" id="33207">库瓦诺加</text><rect Type="system" x="280.00" id="33209" height="5.00" width="5.00" Name="安吉蒙勒" ID="30003046" Region="波赫文" y="50.00" /><text y="50.00" x="280.00" id="33210">安吉蒙勒</text><rect Type="system" x="180.00" id="33212" height="5.00" width="5.00" Name="瓦勒" ID="30005029" Region="波赫文" y="80.00" /><text y="80.00" x="180.00" id="33213">瓦勒</text><rect Type="system" x="150.00" id="33215" height="5.00" width="5.00" Name="森达" ID="30020141" Region="波赫文" y="300.00" /><text y="300.00" x="150.00" id="33216">森达</text><rect Type="system" x="380.00" id="33218" height="5.00" width="5.00" Name="伊切尼亚" ID="30045329" Region="波赫文" y="100.00" /><text y="100.00" x="380.00" id="33219">伊切尼亚</text><line style="stroke:blue;fill:blue;" id="33221" x2="800.00" x1="920.00" y1="350.00" y2="400.00" /><line style="stroke:blue;fill:blue;" id="33222" x2="880.00" x1="920.00" y1="350.00" y2="450.00" /><line style="stroke:blue;fill:blue;" id="33223" x2="830.00" x1="920.00" y1="350.00" y2="310.00" /><line style="stroke:blue;fill:blue;" id="33224" x2="700.00" x1="610.00" y1="560.00" y2="520.00" /><line style="stroke:blue;fill:blue;" id="33225" x2="450.00" x1="610.00" y1="560.00" y2="620.00" /><line style="stroke:blue;fill:blue;" id="33226" x2="920.00" x1="800.00" y1="400.00" y2="350.00" /><line style="stroke:blue;fill:blue;" id="33227" x2="880.00" x1="800.00" y1="400.00" y2="450.00" /><line style="stroke:blue;fill:blue;" id="33228" x2="920.00" x1="880.00" y1="450.00" y2="350.00" /><line style="stroke:blue;fill:blue;" id="33229" x2="800.00" x1="880.00" y1="450.00" y2="400.00" /><line style="stroke:blue;fill:blue;" id="33230" x2="790.00" x1="880.00" y1="450.00" y2="480.00" /><line style="stroke:blue;fill:blue;" id="33231" x2="610.00" x1="700.00" y1="520.00" y2="560.00" /><line style="stroke:blue;fill:blue;" id="33232" x2="790.00" x1="700.00" y1="520.00" y2="480.00" /><line style="stroke:blue;fill:blue;" id="33233" x2="880.00" x1="790.00" y1="480.00" y2="450.00" /><line style="stroke:blue;fill:blue;" id="33234" x2="700.00" x1="790.00" y1="480.00" y2="520.00" /><line style="stroke:blue;fill:blue;" id="33235" x2="920.00" x1="830.00" y1="310.00" y2="350.00" /><line style="stroke:blue;fill:blue;" id="33236" x2="750.00" x1="830.00" y1="310.00" y2="270.00" /><line style="stroke:blue;fill:blue;" id="33237" x2="560.00" x1="650.00" y1="220.00" y2="180.00" /><line style="stroke:blue;fill:blue;" id="33238" x2="750.00" x1="650.00" y1="220.00" y2="270.00" /><line style="stroke:blue;fill:blue;" id="33239" x2="830.00" x1="750.00" y1="270.00" y2="310.00" /><line style="stroke:blue;fill:blue;" id="33240" x2="650.00" x1="750.00" y1="270.00" y2="220.00" /><line style="stroke:blue;fill:blue;" id="33241" x2="120.00" x1="130.00" y1="500.00" y2="580.00" /><line style="stroke:blue;fill:blue;" id="33242" x2="140.00" x1="130.00" y1="500.00" y2="410.00" /><line style="stroke:blue;fill:blue;" id="33243" x2="260.00" x1="370.00" y1="660.00" y2="700.00" /><line style="stroke:blue;fill:blue;" id="33244" x2="450.00" x1="370.00" y1="660.00" y2="620.00" /><line style="stroke:blue;fill:blue;" id="33245" x2="120.00" x1="110.00" y1="680.00" y2="580.00" /><line style="stroke:blue;fill:blue;" id="33246" x2="150.00" x1="110.00" y1="680.00" y2="750.00" /><line style="stroke:blue;fill:blue;" id="33247" x2="200.00" x1="110.00" y1="680.00" y2="650.00" /><line style="stroke:blue;fill:blue;" id="33248" x2="370.00" x1="260.00" y1="700.00" y2="660.00" /><line style="stroke:blue;fill:blue;" id="33249" x2="150.00" x1="260.00" y1="700.00" y2="750.00" /><line style="stroke:blue;fill:blue;" id="33250" x2="130.00" x1="120.00" y1="580.00" y2="500.00" /><line style="stroke:blue;fill:blue;" id="33251" x2="110.00" x1="120.00" y1="580.00" y2="680.00" /><line style="stroke:blue;fill:blue;" id="33252" x2="110.00" x1="150.00" y1="750.00" y2="680.00" /><line style="stroke:blue;fill:blue;" id="33253" x2="260.00" x1="150.00" y1="750.00" y2="700.00" /><line style="stroke:blue;fill:blue;" id="33254" x2="200.00" x1="150.00" y1="750.00" y2="650.00" /><line style="stroke:blue;fill:blue;" id="33255" x2="110.00" x1="200.00" y1="650.00" y2="680.00" /><line style="stroke:blue;fill:blue;" id="33256" x2="150.00" x1="200.00" y1="650.00" y2="750.00" /><line style="stroke:blue;fill:blue;" id="33257" x2="610.00" x1="450.00" y1="620.00" y2="560.00" /><line style="stroke:blue;fill:blue;" id="33258" x2="370.00" x1="450.00" y1="620.00" y2="660.00" /><line style="stroke:blue;fill:blue;" id="33259" x2="130.00" x1="140.00" y1="410.00" y2="500.00" /><line style="stroke:blue;fill:blue;" id="33260" x2="150.00" x1="140.00" y1="410.00" y2="300.00" /><line style="stroke:blue;fill:blue;" id="33261" x2="170.00" x1="160.00" y1="230.00" y2="150.00" /><line style="stroke:blue;fill:blue;" id="33262" x2="150.00" x1="160.00" y1="230.00" y2="300.00" /><line style="stroke:blue;fill:blue;" id="33263" x2="480.00" x1="560.00" y1="180.00" y2="140.00" /><line style="stroke:blue;fill:blue;" id="33264" x2="650.00" x1="560.00" y1="180.00" y2="220.00" /><line style="stroke:blue;fill:blue;" id="33265" x2="160.00" x1="170.00" y1="150.00" y2="230.00" /><line style="stroke:blue;fill:blue;" id="33266" x2="180.00" x1="170.00" y1="150.00" y2="80.00" /><line style="stroke:blue;fill:blue;" id="33267" x2="280.00" x1="250.00" y1="120.00" y2="50.00" /><line style="stroke:blue;fill:blue;" id="33268" x2="180.00" x1="250.00" y1="120.00" y2="80.00" /><line style="stroke:blue;fill:blue;" id="33269" x2="560.00" x1="480.00" y1="140.00" y2="180.00" /><line style="stroke:blue;fill:blue;" id="33270" x2="380.00" x1="480.00" y1="140.00" y2="100.00" /><line style="stroke:blue;fill:blue;" id="33271" x2="250.00" x1="280.00" y1="50.00" y2="120.00" /><line style="stroke:blue;fill:blue;" id="33272" x2="180.00" x1="280.00" y1="50.00" y2="80.00" /><line style="stroke:blue;fill:blue;" id="33273" x2="380.00" x1="280.00" y1="50.00" y2="100.00" /><line style="stroke:blue;fill:blue;" id="33274" x2="170.00" x1="180.00" y1="80.00" y2="150.00" /><line style="stroke:blue;fill:blue;" id="33275" x2="250.00" x1="180.00" y1="80.00" y2="120.00" /><line style="stroke:blue;fill:blue;" id="33276" x2="280.00" x1="180.00" y1="80.00" y2="50.00" /><line style="stroke:blue;fill:blue;" id="33277" x2="160.00" x1="150.00" y1="300.00" y2="230.00" /><line style="stroke:blue;fill:blue;" id="33278" x2="140.00" x1="150.00" y1="300.00" y2="410.00" /><line style="stroke:blue;fill:blue;" id="33279" x2="480.00" x1="380.00" y1="100.00" y2="140.00" /><line style="stroke:blue;fill:blue;" id="33280" x2="280.00" x1="380.00" y1="100.00" y2="50.00" /></svg>
