<?xml version="1.0" standalone="yes"?><!DOCTYPE svg PUBLIC "-//W3C//DTD SVG 1.1//EN" "http://www.w3.org/Graphics/SVG/1.1/DTD/svg11.dtd"[]><svg height="800.00" id="25332" width="1050.00" xmlns="http://www.w3.org/2000/svg" xmlns:xlink="http://www.w3.org/1999/xlink"><rect Type="system" Region="灼热之径" height="5.00" y="100.00" Name="FYD-TO" width="5.00" x="20.00" id="25333" ID="30000675" /><text x="20.00" y="100.00" id="25334">FYD-TO</text><rect Type="system" Region="灼热之径" height="5.00" y="200.00" Name="6-KPAB" width="5.00" x="20.00" id="25336" ID="30000728" /><text x="20.00" y="200.00" id="25337">6-KPAB</text><rect Type="system" Region="灼热之径" height="5.00" y="280.00" Name="9M-M0P" width="5.00" x="20.00" id="25339" ID="30000723" /><text x="20.00" y="280.00" id="25340">9M-M0P</text><rect Type="system" Region="灼热之径" height="5.00" y="350.00" Name="9BC-EB" width="5.00" x="20.00" id="25342" ID="30000724" /><text x="20.00" y="350.00" id="25343">9BC-EB</text><rect Type="system" Region="灼热之径" height="5.00" y="500.00" Name="WHI-61" width="5.00" x="50.00" id="25345" ID="30000687" /><text x="50.00" y="500.00" id="25346">WHI-61</text><rect Type="system" Region="灼热之径" height="5.00" y="550.00" Name="G15Z-W" width="5.00" x="50.00" id="25348" ID="30000690" /><text x="50.00" y="550.00" id="25349">G15Z-W</text><rect Type="system" Region="灼热之径" height="5.00" y="600.00" Name="ZFJH-T" width="5.00" x="50.00" id="25351" ID="30000688" /><text x="50.00" y="600.00" id="25352">ZFJH-T</text><rect Type="system" Region="灼热之径" height="5.00" y="650.00" Name="HQ-Q1Q" width="5.00" x="50.00" id="25354" ID="30000686" /><text x="50.00" y="650.00" id="25355">HQ-Q1Q</text><rect Type="system" Region="灼热之径" height="5.00" y="700.00" Name="H5N-V7" width="5.00" x="50.00" id="25357" ID="30000685" /><text x="50.00" y="700.00" id="25358">H5N-V7</text><rect Type="system" Region="灼热之径" height="5.00" y="750.00" Name="I-1B7X" width="5.00" x="50.00" id="25360" ID="30000689" /><text x="50.00" y="750.00" id="25361">I-1B7X</text><rect Type="system" Region="灼热之径" height="5.00" y="250.00" Name="PU-UMM" width="5.00" x="80.00" id="25363" ID="30000727" /><text x="80.00" y="250.00" id="25364">PU-UMM</text><rect Type="system" Region="灼热之径" height="5.00" y="320.00" Name="QPTT-F" width="5.00" x="100.00" id="25366" ID="30000722" /><text x="100.00" y="320.00" id="25367">QPTT-F</text><rect Type="system" Region="灼热之径" height="5.00" y="50.00" Name="ER2O-Y" width="5.00" x="100.00" id="25369" ID="30000676" /><text x="100.00" y="50.00" id="25370">ER2O-Y</text><rect Type="system" Region="灼热之径" height="5.00" y="100.00" Name="AZ3F-N" width="5.00" x="100.00" id="25372" ID="30000672" /><text x="100.00" y="100.00" id="25373">AZ3F-N</text><rect Type="system" Region="柯尔斯" height="5.00" y="650.00" Name="XX9-WV" width="5.00" x="150.00" id="25375" ID="30001021" /><text x="150.00" y="650.00" id="25376">XX9-WV</text><rect Type="system" Region="灼热之径" height="5.00" y="190.00" Name="A-80UA" width="5.00" x="130.00" id="25378" ID="30000702" /><text x="130.00" y="190.00" id="25379">A-80UA</text><rect Type="system" Region="灼热之径" height="5.00" y="230.00" Name="C8-7AS" width="5.00" x="160.00" id="25381" ID="30000700" /><text x="160.00" y="230.00" id="25382">C8-7AS</text><rect Type="system" Region="灼热之径" height="5.00" y="50.00" Name="J2-PZ6" width="5.00" x="180.00" id="25384" ID="30000677" /><text x="180.00" y="50.00" id="25385">J2-PZ6</text><rect Type="system" Region="灼热之径" height="5.00" y="100.00" Name="RNM-Y6" width="5.00" x="180.00" id="25387" ID="30000673" /><text x="180.00" y="100.00" id="25388">RNM-Y6</text><rect Type="system" Region="柯尔斯" height="5.00" y="450.00" Name="VOL-MI" width="5.00" x="200.00" id="25390" ID="30001019" /><text x="200.00" y="450.00" id="25391">VOL-MI</text><rect Type="system" Region="灼热之径" height="5.00" y="320.00" Name="HJ-BCH" width="5.00" x="200.00" id="25393" ID="30000721" /><text x="200.00" y="320.00" id="25394">HJ-BCH</text><rect Type="system" Region="灼热之径" height="5.00" y="547.68" Name="U6K-RG" width="5.00" x="197.68" id="25396" ID="30000693" /><text x="197.68" y="547.68" id="25397">U6K-RG</text><rect Type="system" Region="灼热之径" height="5.00" y="500.00" Name="NSBE-L" width="5.00" x="220.00" id="25399" ID="30000696" /><text x="220.00" y="500.00" id="25400">NSBE-L</text><rect Type="system" Region="灼热之径" height="5.00" y="582.32" Name="SD4A-2" width="5.00" x="232.32" id="25402" ID="30000692" /><text x="232.32" y="582.32" id="25403">SD4A-2</text><rect Type="system" Region="灼热之径" height="5.00" y="80.00" Name="V-KDY2" width="5.00" x="250.00" id="25405" ID="30000674" /><text x="250.00" y="80.00" id="25406">V-KDY2</text><rect Type="system" Region="灼热之径" height="5.00" y="175.50" Name="4E-EZS" width="5.00" x="250.00" id="25408" ID="30000701" /><text x="250.00" y="175.50" id="25409">4E-EZS</text><rect Type="system" Region="灼热之径" height="5.00" y="224.50" Name="ZNF-OK" width="5.00" x="250.00" id="25411" ID="30000699" /><text x="250.00" y="224.50" id="25412">ZNF-OK</text><rect Type="system" Region="灼热之径" height="5.00" y="600.00" Name="F2-NXA" width="5.00" x="280.00" id="25414" ID="30000695" /><text x="280.00" y="600.00" id="25415">F2-NXA</text><rect Type="system" Region="灼热之径" height="5.00" y="120.00" Name="S1-XTL" width="5.00" x="280.00" id="25417" ID="30000667" /><text x="280.00" y="120.00" id="25418">S1-XTL</text><rect Type="system" Region="灼热之径" height="5.00" y="480.00" Name="K212-A" width="5.00" x="280.00" id="25420" ID="30000665" /><text x="280.00" y="480.00" id="25421">K212-A</text><rect Type="system" Region="灼热之径" height="5.00" y="300.00" Name="WFFE-4" width="5.00" x="300.00" id="25423" ID="30000725" /><text x="300.00" y="300.00" id="25424">WFFE-4</text><rect Type="system" Region="灼热之径" height="5.00" y="350.00" Name="Y5-E1U" width="5.00" x="300.00" id="25426" ID="30000729" /><text x="300.00" y="350.00" id="25427">Y5-E1U</text><rect Type="system" Region="灼热之径" height="5.00" y="550.00" Name="U-IVGH" width="5.00" x="320.00" id="25429" ID="30000660" /><text x="320.00" y="550.00" id="25430">U-IVGH</text><rect Type="system" Region="灼热之径" height="5.00" y="632.32" Name="V-S9YY" width="5.00" x="317.68" id="25432" ID="30000694" /><text x="317.68" y="632.32" id="25433">V-S9YY</text><rect Type="system" Region="灼热之径" height="5.00" y="250.00" Name="8Q-T7B" width="5.00" x="320.00" id="25435" ID="30000697" /><text x="320.00" y="250.00" id="25436">8Q-T7B</text><rect Type="system" Region="灼热之径" height="5.00" y="200.00" Name="WV0D-1" width="5.00" x="350.00" id="25438" ID="30000698" /><text x="350.00" y="200.00" id="25439">WV0D-1</text><rect Type="system" Region="灼热之径" height="5.00" y="450.00" Name="ARG-3R" width="5.00" x="350.00" id="25441" ID="30000656" /><text x="350.00" y="450.00" id="25442">ARG-3R</text><rect Type="system" Region="灼热之径" height="5.00" y="597.68" Name="AH8-Q7" width="5.00" x="352.32" id="25444" ID="30000691" /><text x="352.32" y="597.68" id="25445">AH8-Q7</text><rect Type="system" Region="灼热之径" height="5.00" y="320.00" Name="71-UTX" width="5.00" x="350.00" id="25447" ID="30000726" /><text x="350.00" y="320.00" id="25448">71-UTX</text><rect Type="system" Region="灼热之径" height="5.00" y="500.00" Name="P-N5N9" width="5.00" x="350.00" id="25450" ID="30000661" /><text x="350.00" y="500.00" id="25451">P-N5N9</text><rect Type="system" Region="灼热之径" height="5.00" y="120.00" Name="F-5FDA" width="5.00" x="380.00" id="25453" ID="30000666" /><text x="380.00" y="120.00" id="25454">F-5FDA</text><rect Type="system" Region="灼热之径" height="5.00" y="550.00" Name="K7-LDX" width="5.00" x="400.00" id="25456" ID="30000659" /><text x="400.00" y="550.00" id="25457">K7-LDX</text><rect Type="system" Region="柯尔斯" height="5.00" y="620.00" Name="ES-UWY" width="5.00" x="420.00" id="25459" ID="30001029" /><text x="420.00" y="620.00" id="25460">ES-UWY</text><rect Type="system" Region="灼热之径" height="5.00" y="150.00" Name="9PX2-F" width="5.00" x="450.00" id="25462" ID="30000668" /><text x="450.00" y="150.00" id="25463">9PX2-F</text><rect Type="system" Region="灼热之径" height="5.00" y="480.00" Name="R-3FBU" width="5.00" x="450.00" id="25465" ID="30000658" /><text x="450.00" y="480.00" id="25466">R-3FBU</text><rect Type="system" Region="柯尔斯" height="5.00" y="680.00" Name="Y-DW5K" width="5.00" x="450.00" id="25468" ID="30001031" /><text x="450.00" y="680.00" id="25469">Y-DW5K</text><rect Type="system" Region="灼热之径" height="5.00" y="580.00" Name="S-E6ES" width="5.00" x="450.00" id="25471" ID="30000657" /><text x="450.00" y="580.00" id="25472">S-E6ES</text><rect Type="system" Region="灼热之径" height="5.00" y="350.00" Name="GN-PDU" width="5.00" x="480.00" id="25474" ID="30000671" /><text x="480.00" y="350.00" id="25475">GN-PDU</text><rect Type="system" Region="灼热之径" height="5.00" y="550.00" Name="EIN-QG" width="5.00" x="500.00" id="25477" ID="30000655" /><text x="500.00" y="550.00" id="25478">EIN-QG</text><rect Type="system" Region="灼热之径" height="5.00" y="180.00" Name="N3-JBX" width="5.00" x="520.00" id="25480" ID="30000669" /><text x="520.00" y="180.00" id="25481">N3-JBX</text><rect Type="system" Region="灼热之径" height="5.00" y="280.00" Name="SG-75T" width="5.00" x="580.00" id="25483" ID="30000670" /><text x="580.00" y="280.00" id="25484">SG-75T</text><rect Type="system" Region="灼热之径" height="5.00" y="130.00" Name="28Y9-P" width="5.00" x="610.00" id="25486" ID="30000714" /><text x="610.00" y="130.00" id="25487">28Y9-P</text><rect Type="system" Region="灼热之径" height="5.00" y="430.00" Name="V-F6DQ" width="5.00" x="640.00" id="25489" ID="30000732" /><text x="640.00" y="430.00" id="25490">V-F6DQ</text><rect Type="system" Region="灼热之径" height="5.00" y="480.00" Name="4-43BW" width="5.00" x="640.00" id="25492" ID="30000730" /><text x="640.00" y="480.00" id="25493">4-43BW</text><rect Type="system" Region="灼热之径" height="5.00" y="180.00" Name="KZFV-4" width="5.00" x="650.00" id="25495" ID="30000710" /><text x="650.00" y="180.00" id="25496">KZFV-4</text><rect Type="system" Region="灼热之径" height="5.00" y="230.00" Name="2-KPW6" width="5.00" x="660.00" id="25498" ID="30000684" /><text x="660.00" y="230.00" id="25499">2-KPW6</text><rect Type="system" Region="灼热之径" height="5.00" y="650.00" Name="JMH-PT" width="5.00" x="660.00" id="25501" ID="30000662" /><text x="660.00" y="650.00" id="25502">JMH-PT</text><rect Type="system" Region="灼热之径" height="5.00" y="280.00" Name="XV-MWG" width="5.00" x="660.00" id="25504" ID="30000678" /><text x="660.00" y="280.00" id="25505">XV-MWG</text><rect Type="system" Region="灼热之径" height="5.00" y="350.00" Name="3S-6VU" width="5.00" x="660.00" id="25507" ID="30000733" /><text x="660.00" y="350.00" id="25508">3S-6VU</text><rect Type="system" Region="灼热之径" height="5.00" y="150.00" Name="IAK-JW" width="5.00" x="690.00" id="25510" ID="30000709" /><text x="690.00" y="150.00" id="25511">IAK-JW</text><rect Type="system" Region="灼热之径" height="5.00" y="97.68" Name="WO-GC0" width="5.00" x="707.68" id="25513" ID="30000711" /><text x="707.68" y="97.68" id="25514">WO-GC0</text><rect Type="system" Region="灼热之径" height="5.00" y="507.68" Name="8CN-CH" width="5.00" x="692.32" id="25516" ID="30000731" /><text x="692.32" y="507.68" id="25517">8CN-CH</text><rect Type="system" Region="灼热之径" height="5.00" y="650.00" Name="X9V-15" width="5.00" x="720.00" id="25519" ID="30000664" /><text x="720.00" y="650.00" id="25520">X9V-15</text><rect Type="system" Region="灼热之径" height="5.00" y="430.00" Name="1-7HVI" width="5.00" x="740.00" id="25522" ID="30000734" /><text x="740.00" y="430.00" id="25523">1-7HVI</text><rect Type="system" Region="灼热之径" height="5.00" y="132.32" Name="RYC-19" width="5.00" x="742.32" id="25525" ID="30000712" /><text x="742.32" y="132.32" id="25526">RYC-19</text><rect Type="system" Region="灼热之径" height="5.00" y="380.00" Name="OX-S7P" width="5.00" x="740.00" id="25528" ID="30000735" /><text x="740.00" y="380.00" id="25529">OX-S7P</text><rect Type="system" Region="灼热之径" height="5.00" y="280.00" Name="Q-K2T7" width="5.00" x="760.00" id="25531" ID="30000682" /><text x="760.00" y="280.00" id="25532">Q-K2T7</text><rect Type="system" Region="灼热之径" height="5.00" y="660.00" Name="DE-A7P" width="5.00" x="780.00" id="25534" ID="30000663" /><text x="780.00" y="660.00" id="25535">DE-A7P</text><rect Type="system" Region="灼热之径" height="5.00" y="180.00" Name="X2-ZA5" width="5.00" x="810.00" id="25537" ID="30000713" /><text x="810.00" y="180.00" id="25538">X2-ZA5</text><rect Type="system" Region="灼热之径" height="5.00" y="350.00" Name="LBC-AW" width="5.00" x="830.00" id="25540" ID="30000683" /><text x="830.00" y="350.00" id="25541">LBC-AW</text><rect Type="system" Region="灼热之径" height="5.00" y="480.00" Name="OAQY-M" width="5.00" x="860.00" id="25543" ID="30000679" /><text x="860.00" y="480.00" id="25544">OAQY-M</text><rect Type="system" Region="灼热之径" height="5.00" y="80.00" Name="JLO-Z3" width="5.00" x="860.00" id="25546" ID="30000708" /><text x="860.00" y="80.00" id="25547">JLO-Z3</text><rect Type="system" Region="灼热之径" height="5.00" y="130.00" Name="03-OR2" width="5.00" x="860.00" id="25549" ID="30000707" /><text x="860.00" y="130.00" id="25550">03-OR2</text><rect Type="system" Region="灼热之径" height="5.00" y="180.00" Name="5-MQQ7" width="5.00" x="860.00" id="25552" ID="30000705" /><text x="860.00" y="180.00" id="25553">5-MQQ7</text><rect Type="system" Region="灼热之径" height="5.00" y="200.00" Name="LQ-OAI" width="5.00" x="910.00" id="25555" ID="30000704" /><text x="910.00" y="200.00" id="25556">LQ-OAI</text><rect Type="system" Region="灼热之径" height="5.00" y="280.00" Name="1V-LI2" width="5.00" x="940.00" id="25558" ID="30000680" /><text x="940.00" y="280.00" id="25559">1V-LI2</text><rect Type="system" Region="灼热之径" height="5.00" y="330.00" Name="M9-MLR" width="5.00" x="940.00" id="25561" ID="30000681" /><text x="940.00" y="330.00" id="25562">M9-MLR</text><rect Type="system" Region="灼热之径" height="5.00" y="400.00" Name="Q-NA5H" width="5.00" x="940.00" id="25564" ID="30000717" /><text x="940.00" y="400.00" id="25565">Q-NA5H</text><rect Type="system" Region="灼热之径" height="5.00" y="450.00" Name="Q4C-S5" width="5.00" x="935.50" id="25567" ID="30000715" /><text x="935.50" y="450.00" id="25568">Q4C-S5</text><rect Type="system" Region="灼热之径" height="5.00" y="500.00" Name="4-CM8I" width="5.00" x="940.00" id="25570" ID="30000718" /><text x="940.00" y="500.00" id="25571">4-CM8I</text><rect Type="system" Region="灼热之径" height="5.00" y="550.96" Name="B-1UJC" width="5.00" x="938.09" id="25573" ID="30000716" /><text x="938.09" y="550.96" id="25574">B-1UJC</text><rect Type="system" Region="灼热之径" height="5.00" y="100.00" Name="6-EQYE" width="5.00" x="960.00" id="25576" ID="30000706" /><text x="960.00" y="100.00" id="25577">6-EQYE</text><rect Type="system" Region="灼热之径" height="5.00" y="150.00" Name="U2-28D" width="5.00" x="960.00" id="25579" ID="30000703" /><text x="960.00" y="150.00" id="25580">U2-28D</text><rect Type="system" Region="灼热之径" height="5.00" y="450.00" Name="ZDB-HT" width="5.00" x="984.50" id="25582" ID="30000719" /><text x="984.50" y="450.00" id="25583">ZDB-HT</text><rect Type="system" Region="灼热之径" height="5.00" y="529.04" Name="1QZ-Y9" width="5.00" x="981.91" id="25585" ID="30000720" /><text x="981.91" y="529.04" id="25586">1QZ-Y9</text><rect Type="system" Region="柯尔斯" height="5.00" y="500.00" Name="HLW-HP" width="5.00" x="120.00" id="25588" ID="30001016" /><text x="120.00" y="500.00" id="25589">HLW-HP</text><rect Type="system" Region="柯尔斯" height="5.00" y="550.00" Name="RA-NXN" width="5.00" x="120.00" id="25591" ID="30001018" /><text x="120.00" y="550.00" id="25592">RA-NXN</text><rect Type="system" Region="柯尔斯" height="5.00" y="400.00" Name="8G-MQV" width="5.00" x="150.00" id="25594" ID="30001017" /><text x="150.00" y="400.00" id="25595">8G-MQV</text><rect Type="system" Region="柯尔斯" height="5.00" y="400.00" Name="K-B2D3" width="5.00" x="200.00" id="25597" ID="30001011" /><text x="200.00" y="400.00" id="25598">K-B2D3</text><rect Type="system" Region="柯尔斯" height="5.00" y="700.00" Name="M-N7WD" width="5.00" x="300.00" id="25600" ID="30001032" /><text x="300.00" y="700.00" id="25601">M-N7WD</text><rect Type="system" Region="大荒野" height="5.00" y="50.00" Name="TET3-B" width="5.00" x="320.00" id="25603" ID="30000926" /><text x="320.00" y="50.00" id="25604">TET3-B</text><rect Type="system" Region="大荒野" height="5.00" y="50.00" Name="9-34L5" width="5.00" x="450.00" id="25606" ID="30000939" /><text x="450.00" y="50.00" id="25607">9-34L5</text><rect Type="system" Region="柯尔斯" height="5.00" y="620.00" Name="H-ADOC" width="5.00" x="500.00" id="25609" ID="30001001" /><text x="500.00" y="620.00" id="25610">H-ADOC</text><rect Type="system" Region="柯尔斯" height="5.00" y="720.00" Name="QFEW-K" width="5.00" x="520.00" id="25612" ID="30001033" /><text x="520.00" y="720.00" id="25613">QFEW-K</text><rect Type="system" Region="邪恶湾流" height="5.00" y="542.32" Name="G9NE-B" width="5.00" x="657.68" id="25615" ID="30000570" /><text x="657.68" y="542.32" id="25616">G9NE-B</text><rect Type="system" Region="邪恶湾流" height="5.00" y="590.00" Name="C0O6-K" width="5.00" x="690.00" id="25618" ID="30000568" /><text x="690.00" y="590.00" id="25619">C0O6-K</text><rect Type="system" Region="因斯姆尔" height="5.00" y="230.00" Name="GK5Z-T" width="5.00" x="810.00" id="25621" ID="30000789" /><text x="810.00" y="230.00" id="25622">GK5Z-T</text><rect Type="system" Region="邪恶湾流" height="5.00" y="590.00" Name="YI-GV6" width="5.00" x="810.00" id="25624" ID="30000583" /><text x="810.00" y="590.00" id="25625">YI-GV6</text><rect Type="system" Region="邪恶湾流" height="5.00" y="530.00" Name="R0-DMM" width="5.00" x="840.00" id="25627" ID="30000563" /><text x="840.00" y="530.00" id="25628">R0-DMM</text><rect Type="system" Region="邪恶湾流" height="5.00" y="600.00" Name="TP7-KE" width="5.00" x="940.00" id="25630" ID="30000588" /><text x="940.00" y="600.00" id="25631">TP7-KE</text><rect Type="system" Region="因斯姆尔" height="5.00" y="230.00" Name="GDHN-K" width="5.00" x="1010.00" id="25633" ID="30000792" /><text x="1010.00" y="230.00" id="25634">GDHN-K</text><rect Type="system" Region="邪恶湾流" height="5.00" y="300.00" Name="5E-CMA" width="5.00" x="1010.00" id="25636" ID="30000554" /><text x="1010.00" y="300.00" id="25637">5E-CMA</text><rect Type="system" Region="因斯姆尔" height="5.00" y="580.00" Name="MSG-BZ" width="5.00" x="1010.00" id="25639" ID="30000774" /><text x="1010.00" y="580.00" id="25640">MSG-BZ</text><rect Type="system" Region="因斯姆尔" height="5.00" y="100.00" Name="74-VZA" width="5.00" x="1010.00" id="25642" ID="30000787" /><text x="1010.00" y="100.00" id="25643">74-VZA</text><rect Type="system" Region="大荒野" height="5.00" y="150.00" Name="PUZ-IO" width="5.00" x="1010.00" id="25645" ID="30000978" /><text x="1010.00" y="150.00" id="25646">PUZ-IO</text><line x2="100.00" style="fill:blue;stroke:blue;" y1="100.00" x1="20.00" id="25648" y2="100.00" /><line x2="80.00" style="fill:blue;stroke:blue;" y1="200.00" x1="20.00" id="25649" y2="250.00" /><line x2="100.00" style="fill:blue;stroke:blue;" y1="280.00" x1="20.00" id="25650" y2="320.00" /><line x2="100.00" style="fill:blue;stroke:blue;" y1="350.00" x1="20.00" id="25651" y2="320.00" /><line x2="50.00" style="fill:blue;stroke:blue;" y1="500.00" x1="50.00" id="25652" y2="550.00" /><line x2="100.00" style="fill:blue;stroke:blue;" y1="500.00" x1="50.00" id="25653" y2="320.00" /><line x2="50.00" style="fill:blue;stroke:blue;" y1="550.00" x1="50.00" id="25654" y2="500.00" /><line x2="50.00" style="fill:blue;stroke:blue;" y1="550.00" x1="50.00" id="25655" y2="600.00" /><line x2="50.00" style="fill:blue;stroke:blue;" y1="600.00" x1="50.00" id="25656" y2="650.00" /><line x2="50.00" style="fill:blue;stroke:blue;" y1="600.00" x1="50.00" id="25657" y2="550.00" /><line x2="150.00" style="fill:blue;stroke:blue;" y1="600.00" x1="50.00" id="25658" y2="650.00" /><line x2="50.00" style="fill:blue;stroke:blue;" y1="650.00" x1="50.00" id="25659" y2="700.00" /><line x2="50.00" style="fill:blue;stroke:blue;" y1="650.00" x1="50.00" id="25660" y2="600.00" /><line x2="50.00" style="fill:blue;stroke:blue;" y1="700.00" x1="50.00" id="25661" y2="650.00" /><line x2="50.00" style="fill:blue;stroke:blue;" y1="700.00" x1="50.00" id="25662" y2="750.00" /><line x2="50.00" style="fill:blue;stroke:blue;" y1="750.00" x1="50.00" id="25663" y2="700.00" /><line x2="100.00" style="fill:blue;stroke:blue;" y1="250.00" x1="80.00" id="25664" y2="320.00" /><line x2="20.00" style="fill:blue;stroke:blue;" y1="250.00" x1="80.00" id="25665" y2="200.00" /><line x2="50.00" style="fill:blue;stroke:blue;" y1="320.00" x1="100.00" id="25666" y2="500.00" /><line x2="160.00" style="fill:blue;stroke:blue;" y1="320.00" x1="100.00" id="25667" y2="230.00" /><line x2="200.00" style="fill:blue;stroke:blue;" y1="320.00" x1="100.00" id="25668" y2="320.00" /><line x2="20.00" style="fill:blue;stroke:blue;" y1="320.00" x1="100.00" id="25669" y2="280.00" /><line x2="20.00" style="fill:blue;stroke:blue;" y1="320.00" x1="100.00" id="25670" y2="350.00" /><line x2="80.00" style="fill:blue;stroke:blue;" y1="320.00" x1="100.00" id="25671" y2="250.00" /><line x2="100.00" style="fill:blue;stroke:blue;" y1="50.00" x1="100.00" id="25672" y2="100.00" /><line x2="180.00" style="fill:blue;stroke:blue;" y1="50.00" x1="100.00" id="25673" y2="50.00" /><line x2="180.00" style="fill:blue;stroke:blue;" y1="100.00" x1="100.00" id="25674" y2="100.00" /><line x2="20.00" style="fill:blue;stroke:blue;" y1="100.00" x1="100.00" id="25675" y2="100.00" /><line x2="100.00" style="fill:blue;stroke:blue;" y1="100.00" x1="100.00" id="25676" y2="50.00" /><line x2="50.00" style="fill:blue;stroke:blue;" y1="650.00" x1="150.00" id="25677" y2="600.00" /><line x2="120.00" style="fill:blue;stroke:blue;" y1="650.00" x1="150.00" id="25678" y2="550.00" /><line x2="300.00" style="fill:blue;stroke:blue;" y1="650.00" x1="150.00" id="25679" y2="700.00" /><line x2="160.00" style="fill:blue;stroke:blue;" y1="190.00" x1="130.00" id="25680" y2="230.00" /><line x2="250.00" style="fill:blue;stroke:blue;" y1="230.00" x1="160.00" id="25681" y2="224.50" /><line x2="250.00" style="fill:blue;stroke:blue;" y1="230.00" x1="160.00" id="25682" y2="175.50" /><line x2="130.00" style="fill:blue;stroke:blue;" y1="230.00" x1="160.00" id="25683" y2="190.00" /><line x2="100.00" style="fill:blue;stroke:blue;" y1="230.00" x1="160.00" id="25684" y2="320.00" /><line x2="180.00" style="fill:blue;stroke:blue;" y1="50.00" x1="180.00" id="25685" y2="100.00" /><line x2="250.00" style="fill:blue;stroke:blue;" y1="50.00" x1="180.00" id="25686" y2="80.00" /><line x2="100.00" style="fill:blue;stroke:blue;" y1="50.00" x1="180.00" id="25687" y2="50.00" /><line x2="280.00" style="fill:blue;stroke:blue;" y1="100.00" x1="180.00" id="25688" y2="120.00" /><line x2="100.00" style="fill:blue;stroke:blue;" y1="100.00" x1="180.00" id="25689" y2="100.00" /><line x2="250.00" style="fill:blue;stroke:blue;" y1="100.00" x1="180.00" id="25690" y2="80.00" /><line x2="180.00" style="fill:blue;stroke:blue;" y1="100.00" x1="180.00" id="25691" y2="50.00" /><line x2="350.00" style="fill:blue;stroke:blue;" y1="450.00" x1="200.00" id="25692" y2="450.00" /><line x2="200.00" style="fill:blue;stroke:blue;" y1="450.00" x1="200.00" id="25693" y2="400.00" /><line x2="120.00" style="fill:blue;stroke:blue;" y1="450.00" x1="200.00" id="25694" y2="500.00" /><line x2="150.00" style="fill:blue;stroke:blue;" y1="450.00" x1="200.00" id="25695" y2="400.00" /><line x2="450.00" style="fill:blue;stroke:blue;" y1="320.00" x1="200.00" id="25696" y2="480.00" /><line x2="320.00" style="fill:blue;stroke:blue;" y1="320.00" x1="200.00" id="25697" y2="250.00" /><line x2="250.00" style="fill:blue;stroke:blue;" y1="320.00" x1="200.00" id="25698" y2="224.50" /><line x2="100.00" style="fill:blue;stroke:blue;" y1="320.00" x1="200.00" id="25699" y2="320.00" /><line x2="300.00" style="fill:blue;stroke:blue;" y1="320.00" x1="200.00" id="25700" y2="300.00" /><line x2="300.00" style="fill:blue;stroke:blue;" y1="320.00" x1="200.00" id="25701" y2="350.00" /><line x2="232.32" style="fill:blue;stroke:blue;" y1="547.68" x1="197.68" id="25702" y2="582.32" /><line x2="220.00" style="fill:blue;stroke:blue;" y1="547.68" x1="197.68" id="25703" y2="500.00" /><line x2="197.68" style="fill:blue;stroke:blue;" y1="500.00" x1="220.00" id="25704" y2="547.68" /><line x2="197.68" style="fill:blue;stroke:blue;" y1="582.32" x1="232.32" id="25705" y2="547.68" /><line x2="280.00" style="fill:blue;stroke:blue;" y1="582.32" x1="232.32" id="25706" y2="600.00" /><line x2="180.00" style="fill:blue;stroke:blue;" y1="80.00" x1="250.00" id="25707" y2="100.00" /><line x2="180.00" style="fill:blue;stroke:blue;" y1="80.00" x1="250.00" id="25708" y2="50.00" /><line x2="320.00" style="fill:blue;stroke:blue;" y1="175.50" x1="250.00" id="25709" y2="250.00" /><line x2="250.00" style="fill:blue;stroke:blue;" y1="175.50" x1="250.00" id="25710" y2="224.50" /><line x2="160.00" style="fill:blue;stroke:blue;" y1="175.50" x1="250.00" id="25711" y2="230.00" /><line x2="320.00" style="fill:blue;stroke:blue;" y1="224.50" x1="250.00" id="25712" y2="250.00" /><line x2="160.00" style="fill:blue;stroke:blue;" y1="224.50" x1="250.00" id="25713" y2="230.00" /><line x2="250.00" style="fill:blue;stroke:blue;" y1="224.50" x1="250.00" id="25714" y2="175.50" /><line x2="200.00" style="fill:blue;stroke:blue;" y1="224.50" x1="250.00" id="25715" y2="320.00" /><line x2="352.32" style="fill:blue;stroke:blue;" y1="600.00" x1="280.00" id="25716" y2="597.68" /><line x2="232.32" style="fill:blue;stroke:blue;" y1="600.00" x1="280.00" id="25717" y2="582.32" /><line x2="317.68" style="fill:blue;stroke:blue;" y1="600.00" x1="280.00" id="25718" y2="632.32" /><line x2="380.00" style="fill:blue;stroke:blue;" y1="120.00" x1="280.00" id="25719" y2="120.00" /><line x2="180.00" style="fill:blue;stroke:blue;" y1="120.00" x1="280.00" id="25720" y2="100.00" /><line x2="350.00" style="fill:blue;stroke:blue;" y1="480.00" x1="280.00" id="25721" y2="450.00" /><line x2="320.00" style="fill:blue;stroke:blue;" y1="480.00" x1="280.00" id="25722" y2="550.00" /><line x2="200.00" style="fill:blue;stroke:blue;" y1="300.00" x1="300.00" id="25723" y2="320.00" /><line x2="350.00" style="fill:blue;stroke:blue;" y1="300.00" x1="300.00" id="25724" y2="320.00" /><line x2="300.00" style="fill:blue;stroke:blue;" y1="300.00" x1="300.00" id="25725" y2="350.00" /><line x2="200.00" style="fill:blue;stroke:blue;" y1="350.00" x1="300.00" id="25726" y2="320.00" /><line x2="300.00" style="fill:blue;stroke:blue;" y1="350.00" x1="300.00" id="25727" y2="300.00" /><line x2="350.00" style="fill:blue;stroke:blue;" y1="350.00" x1="300.00" id="25728" y2="320.00" /><line x2="400.00" style="fill:blue;stroke:blue;" y1="550.00" x1="320.00" id="25729" y2="550.00" /><line x2="280.00" style="fill:blue;stroke:blue;" y1="550.00" x1="320.00" id="25730" y2="480.00" /><line x2="352.32" style="fill:blue;stroke:blue;" y1="632.32" x1="317.68" id="25731" y2="597.68" /><line x2="280.00" style="fill:blue;stroke:blue;" y1="632.32" x1="317.68" id="25732" y2="600.00" /><line x2="480.00" style="fill:blue;stroke:blue;" y1="250.00" x1="320.00" id="25733" y2="350.00" /><line x2="350.00" style="fill:blue;stroke:blue;" y1="250.00" x1="320.00" id="25734" y2="200.00" /><line x2="250.00" style="fill:blue;stroke:blue;" y1="250.00" x1="320.00" id="25735" y2="224.50" /><line x2="250.00" style="fill:blue;stroke:blue;" y1="250.00" x1="320.00" id="25736" y2="175.50" /><line x2="200.00" style="fill:blue;stroke:blue;" y1="250.00" x1="320.00" id="25737" y2="320.00" /><line x2="320.00" style="fill:blue;stroke:blue;" y1="200.00" x1="350.00" id="25738" y2="250.00" /><line x2="450.00" style="fill:blue;stroke:blue;" y1="450.00" x1="350.00" id="25739" y2="480.00" /><line x2="350.00" style="fill:blue;stroke:blue;" y1="450.00" x1="350.00" id="25740" y2="500.00" /><line x2="280.00" style="fill:blue;stroke:blue;" y1="450.00" x1="350.00" id="25741" y2="480.00" /><line x2="450.00" style="fill:blue;stroke:blue;" y1="450.00" x1="350.00" id="25742" y2="150.00" /><line x2="200.00" style="fill:blue;stroke:blue;" y1="450.00" x1="350.00" id="25743" y2="450.00" /><line x2="400.00" style="fill:blue;stroke:blue;" y1="597.68" x1="352.32" id="25744" y2="550.00" /><line x2="317.68" style="fill:blue;stroke:blue;" y1="597.68" x1="352.32" id="25745" y2="632.32" /><line x2="280.00" style="fill:blue;stroke:blue;" y1="597.68" x1="352.32" id="25746" y2="600.00" /><line x2="300.00" style="fill:blue;stroke:blue;" y1="320.00" x1="350.00" id="25747" y2="300.00" /><line x2="300.00" style="fill:blue;stroke:blue;" y1="320.00" x1="350.00" id="25748" y2="350.00" /><line x2="350.00" style="fill:blue;stroke:blue;" y1="500.00" x1="350.00" id="25749" y2="450.00" /><line x2="280.00" style="fill:blue;stroke:blue;" y1="120.00" x1="380.00" id="25750" y2="120.00" /><line x2="450.00" style="fill:blue;stroke:blue;" y1="120.00" x1="380.00" id="25751" y2="150.00" /><line x2="320.00" style="fill:blue;stroke:blue;" y1="120.00" x1="380.00" id="25752" y2="50.00" /><line x2="450.00" style="fill:blue;stroke:blue;" y1="120.00" x1="380.00" id="25753" y2="50.00" /><line x2="450.00" style="fill:blue;stroke:blue;" y1="550.00" x1="400.00" id="25754" y2="580.00" /><line x2="450.00" style="fill:blue;stroke:blue;" y1="550.00" x1="400.00" id="25755" y2="480.00" /><line x2="320.00" style="fill:blue;stroke:blue;" y1="550.00" x1="400.00" id="25756" y2="550.00" /><line x2="352.32" style="fill:blue;stroke:blue;" y1="550.00" x1="400.00" id="25757" y2="597.68" /><line x2="450.00" style="fill:blue;stroke:blue;" y1="620.00" x1="420.00" id="25758" y2="580.00" /><line x2="450.00" style="fill:blue;stroke:blue;" y1="620.00" x1="420.00" id="25759" y2="680.00" /><line x2="350.00" style="fill:blue;stroke:blue;" y1="150.00" x1="450.00" id="25760" y2="450.00" /><line x2="380.00" style="fill:blue;stroke:blue;" y1="150.00" x1="450.00" id="25761" y2="120.00" /><line x2="520.00" style="fill:blue;stroke:blue;" y1="150.00" x1="450.00" id="25762" y2="180.00" /><line x2="500.00" style="fill:blue;stroke:blue;" y1="480.00" x1="450.00" id="25763" y2="550.00" /><line x2="350.00" style="fill:blue;stroke:blue;" y1="480.00" x1="450.00" id="25764" y2="450.00" /><line x2="400.00" style="fill:blue;stroke:blue;" y1="480.00" x1="450.00" id="25765" y2="550.00" /><line x2="480.00" style="fill:blue;stroke:blue;" y1="480.00" x1="450.00" id="25766" y2="350.00" /><line x2="200.00" style="fill:blue;stroke:blue;" y1="480.00" x1="450.00" id="25767" y2="320.00" /><line x2="500.00" style="fill:blue;stroke:blue;" y1="680.00" x1="450.00" id="25768" y2="620.00" /><line x2="420.00" style="fill:blue;stroke:blue;" y1="680.00" x1="450.00" id="25769" y2="620.00" /><line x2="300.00" style="fill:blue;stroke:blue;" y1="680.00" x1="450.00" id="25770" y2="700.00" /><line x2="520.00" style="fill:blue;stroke:blue;" y1="680.00" x1="450.00" id="25771" y2="720.00" /><line x2="500.00" style="fill:blue;stroke:blue;" y1="580.00" x1="450.00" id="25772" y2="550.00" /><line x2="400.00" style="fill:blue;stroke:blue;" y1="580.00" x1="450.00" id="25773" y2="550.00" /><line x2="500.00" style="fill:blue;stroke:blue;" y1="580.00" x1="450.00" id="25774" y2="620.00" /><line x2="420.00" style="fill:blue;stroke:blue;" y1="580.00" x1="450.00" id="25775" y2="620.00" /><line x2="500.00" style="fill:blue;stroke:blue;" y1="350.00" x1="480.00" id="25776" y2="550.00" /><line x2="450.00" style="fill:blue;stroke:blue;" y1="350.00" x1="480.00" id="25777" y2="480.00" /><line x2="520.00" style="fill:blue;stroke:blue;" y1="350.00" x1="480.00" id="25778" y2="180.00" /><line x2="320.00" style="fill:blue;stroke:blue;" y1="350.00" x1="480.00" id="25779" y2="250.00" /><line x2="450.00" style="fill:blue;stroke:blue;" y1="550.00" x1="500.00" id="25780" y2="580.00" /><line x2="450.00" style="fill:blue;stroke:blue;" y1="550.00" x1="500.00" id="25781" y2="480.00" /><line x2="660.00" style="fill:blue;stroke:blue;" y1="550.00" x1="500.00" id="25782" y2="650.00" /><line x2="480.00" style="fill:blue;stroke:blue;" y1="550.00" x1="500.00" id="25783" y2="350.00" /><line x2="450.00" style="fill:blue;stroke:blue;" y1="180.00" x1="520.00" id="25784" y2="150.00" /><line x2="580.00" style="fill:blue;stroke:blue;" y1="180.00" x1="520.00" id="25785" y2="280.00" /><line x2="480.00" style="fill:blue;stroke:blue;" y1="180.00" x1="520.00" id="25786" y2="350.00" /><line x2="520.00" style="fill:blue;stroke:blue;" y1="280.00" x1="580.00" id="25787" y2="180.00" /><line x2="660.00" style="fill:blue;stroke:blue;" y1="280.00" x1="580.00" id="25788" y2="280.00" /><line x2="640.00" style="fill:blue;stroke:blue;" y1="280.00" x1="580.00" id="25789" y2="430.00" /><line x2="650.00" style="fill:blue;stroke:blue;" y1="130.00" x1="610.00" id="25790" y2="180.00" /><line x2="580.00" style="fill:blue;stroke:blue;" y1="430.00" x1="640.00" id="25791" y2="280.00" /><line x2="640.00" style="fill:blue;stroke:blue;" y1="430.00" x1="640.00" id="25792" y2="480.00" /><line x2="660.00" style="fill:blue;stroke:blue;" y1="430.00" x1="640.00" id="25793" y2="350.00" /><line x2="740.00" style="fill:blue;stroke:blue;" y1="430.00" x1="640.00" id="25794" y2="430.00" /><line x2="657.68" style="fill:blue;stroke:blue;" y1="480.00" x1="640.00" id="25795" y2="542.32" /><line x2="860.00" style="fill:blue;stroke:blue;" y1="480.00" x1="640.00" id="25796" y2="480.00" /><line x2="692.32" style="fill:blue;stroke:blue;" y1="480.00" x1="640.00" id="25797" y2="507.68" /><line x2="640.00" style="fill:blue;stroke:blue;" y1="480.00" x1="640.00" id="25798" y2="430.00" /><line x2="740.00" style="fill:blue;stroke:blue;" y1="480.00" x1="640.00" id="25799" y2="430.00" /><line x2="660.00" style="fill:blue;stroke:blue;" y1="180.00" x1="650.00" id="25800" y2="230.00" /><line x2="690.00" style="fill:blue;stroke:blue;" y1="180.00" x1="650.00" id="25801" y2="150.00" /><line x2="610.00" style="fill:blue;stroke:blue;" y1="180.00" x1="650.00" id="25802" y2="130.00" /><line x2="660.00" style="fill:blue;stroke:blue;" y1="230.00" x1="660.00" id="25803" y2="280.00" /><line x2="650.00" style="fill:blue;stroke:blue;" y1="230.00" x1="660.00" id="25804" y2="180.00" /><line x2="500.00" style="fill:blue;stroke:blue;" y1="650.00" x1="660.00" id="25805" y2="550.00" /><line x2="720.00" style="fill:blue;stroke:blue;" y1="650.00" x1="660.00" id="25806" y2="650.00" /><line x2="580.00" style="fill:blue;stroke:blue;" y1="280.00" x1="660.00" id="25807" y2="280.00" /><line x2="760.00" style="fill:blue;stroke:blue;" y1="280.00" x1="660.00" id="25808" y2="280.00" /><line x2="830.00" style="fill:blue;stroke:blue;" y1="280.00" x1="660.00" id="25809" y2="350.00" /><line x2="660.00" style="fill:blue;stroke:blue;" y1="280.00" x1="660.00" id="25810" y2="230.00" /><line x2="640.00" style="fill:blue;stroke:blue;" y1="350.00" x1="660.00" id="25811" y2="430.00" /><line x2="740.00" style="fill:blue;stroke:blue;" y1="350.00" x1="660.00" id="25812" y2="380.00" /><line x2="650.00" style="fill:blue;stroke:blue;" y1="150.00" x1="690.00" id="25813" y2="180.00" /><line x2="707.68" style="fill:blue;stroke:blue;" y1="150.00" x1="690.00" id="25814" y2="97.68" /><line x2="742.32" style="fill:blue;stroke:blue;" y1="150.00" x1="690.00" id="25815" y2="132.32" /><line x2="690.00" style="fill:blue;stroke:blue;" y1="97.68" x1="707.68" id="25816" y2="150.00" /><line x2="742.32" style="fill:blue;stroke:blue;" y1="97.68" x1="707.68" id="25817" y2="132.32" /><line x2="640.00" style="fill:blue;stroke:blue;" y1="507.68" x1="692.32" id="25818" y2="480.00" /><line x2="690.00" style="fill:blue;stroke:blue;" y1="650.00" x1="720.00" id="25819" y2="590.00" /><line x2="660.00" style="fill:blue;stroke:blue;" y1="650.00" x1="720.00" id="25820" y2="650.00" /><line x2="780.00" style="fill:blue;stroke:blue;" y1="650.00" x1="720.00" id="25821" y2="660.00" /><line x2="640.00" style="fill:blue;stroke:blue;" y1="430.00" x1="740.00" id="25822" y2="480.00" /><line x2="640.00" style="fill:blue;stroke:blue;" y1="430.00" x1="740.00" id="25823" y2="430.00" /><line x2="740.00" style="fill:blue;stroke:blue;" y1="430.00" x1="740.00" id="25824" y2="380.00" /><line x2="690.00" style="fill:blue;stroke:blue;" y1="132.32" x1="742.32" id="25825" y2="150.00" /><line x2="707.68" style="fill:blue;stroke:blue;" y1="132.32" x1="742.32" id="25826" y2="97.68" /><line x2="810.00" style="fill:blue;stroke:blue;" y1="132.32" x1="742.32" id="25827" y2="180.00" /><line x2="660.00" style="fill:blue;stroke:blue;" y1="380.00" x1="740.00" id="25828" y2="350.00" /><line x2="740.00" style="fill:blue;stroke:blue;" y1="380.00" x1="740.00" id="25829" y2="430.00" /><line x2="660.00" style="fill:blue;stroke:blue;" y1="280.00" x1="760.00" id="25830" y2="280.00" /><line x2="940.00" style="fill:blue;stroke:blue;" y1="280.00" x1="760.00" id="25831" y2="280.00" /><line x2="810.00" style="fill:blue;stroke:blue;" y1="660.00" x1="780.00" id="25832" y2="590.00" /><line x2="720.00" style="fill:blue;stroke:blue;" y1="660.00" x1="780.00" id="25833" y2="650.00" /><line x2="742.32" style="fill:blue;stroke:blue;" y1="180.00" x1="810.00" id="25834" y2="132.32" /><line x2="810.00" style="fill:blue;stroke:blue;" y1="180.00" x1="810.00" id="25835" y2="230.00" /><line x2="660.00" style="fill:blue;stroke:blue;" y1="350.00" x1="830.00" id="25836" y2="280.00" /><line x2="860.00" style="fill:blue;stroke:blue;" y1="350.00" x1="830.00" id="25837" y2="480.00" /><line x2="840.00" style="fill:blue;stroke:blue;" y1="480.00" x1="860.00" id="25838" y2="530.00" /><line x2="830.00" style="fill:blue;stroke:blue;" y1="480.00" x1="860.00" id="25839" y2="350.00" /><line x2="640.00" style="fill:blue;stroke:blue;" y1="480.00" x1="860.00" id="25840" y2="480.00" /><line x2="960.00" style="fill:blue;stroke:blue;" y1="80.00" x1="860.00" id="25841" y2="100.00" /><line x2="860.00" style="fill:blue;stroke:blue;" y1="80.00" x1="860.00" id="25842" y2="130.00" /><line x2="960.00" style="fill:blue;stroke:blue;" y1="130.00" x1="860.00" id="25843" y2="150.00" /><line x2="860.00" style="fill:blue;stroke:blue;" y1="130.00" x1="860.00" id="25844" y2="180.00" /><line x2="860.00" style="fill:blue;stroke:blue;" y1="130.00" x1="860.00" id="25845" y2="80.00" /><line x2="960.00" style="fill:blue;stroke:blue;" y1="180.00" x1="860.00" id="25846" y2="150.00" /><line x2="910.00" style="fill:blue;stroke:blue;" y1="180.00" x1="860.00" id="25847" y2="200.00" /><line x2="860.00" style="fill:blue;stroke:blue;" y1="180.00" x1="860.00" id="25848" y2="130.00" /><line x2="940.00" style="fill:blue;stroke:blue;" y1="200.00" x1="910.00" id="25849" y2="280.00" /><line x2="960.00" style="fill:blue;stroke:blue;" y1="200.00" x1="910.00" id="25850" y2="150.00" /><line x2="860.00" style="fill:blue;stroke:blue;" y1="200.00" x1="910.00" id="25851" y2="180.00" /><line x2="1010.00" style="fill:blue;stroke:blue;" y1="280.00" x1="940.00" id="25852" y2="300.00" /><line x2="940.00" style="fill:blue;stroke:blue;" y1="280.00" x1="940.00" id="25853" y2="330.00" /><line x2="760.00" style="fill:blue;stroke:blue;" y1="280.00" x1="940.00" id="25854" y2="280.00" /><line x2="910.00" style="fill:blue;stroke:blue;" y1="280.00" x1="940.00" id="25855" y2="200.00" /><line x2="1010.00" style="fill:blue;stroke:blue;" y1="280.00" x1="940.00" id="25856" y2="230.00" /><line x2="1010.00" style="fill:blue;stroke:blue;" y1="330.00" x1="940.00" id="25857" y2="300.00" /><line x2="940.00" style="fill:blue;stroke:blue;" y1="330.00" x1="940.00" id="25858" y2="280.00" /><line x2="940.00" style="fill:blue;stroke:blue;" y1="330.00" x1="940.00" id="25859" y2="400.00" /><line x2="940.00" style="fill:blue;stroke:blue;" y1="400.00" x1="940.00" id="25860" y2="330.00" /><line x2="935.50" style="fill:blue;stroke:blue;" y1="400.00" x1="940.00" id="25861" y2="450.00" /><line x2="940.00" style="fill:blue;stroke:blue;" y1="450.00" x1="935.50" id="25862" y2="400.00" /><line x2="940.00" style="fill:blue;stroke:blue;" y1="450.00" x1="935.50" id="25863" y2="500.00" /><line x2="984.50" style="fill:blue;stroke:blue;" y1="450.00" x1="935.50" id="25864" y2="450.00" /><line x2="935.50" style="fill:blue;stroke:blue;" y1="500.00" x1="940.00" id="25865" y2="450.00" /><line x2="938.09" style="fill:blue;stroke:blue;" y1="500.00" x1="940.00" id="25866" y2="550.96" /><line x2="981.91" style="fill:blue;stroke:blue;" y1="500.00" x1="940.00" id="25867" y2="529.04" /><line x2="940.00" style="fill:blue;stroke:blue;" y1="550.96" x1="938.09" id="25868" y2="600.00" /><line x2="940.00" style="fill:blue;stroke:blue;" y1="550.96" x1="938.09" id="25869" y2="500.00" /><line x2="960.00" style="fill:blue;stroke:blue;" y1="100.00" x1="960.00" id="25870" y2="150.00" /><line x2="860.00" style="fill:blue;stroke:blue;" y1="100.00" x1="960.00" id="25871" y2="80.00" /><line x2="1010.00" style="fill:blue;stroke:blue;" y1="100.00" x1="960.00" id="25872" y2="100.00" /><line x2="910.00" style="fill:blue;stroke:blue;" y1="150.00" x1="960.00" id="25873" y2="200.00" /><line x2="860.00" style="fill:blue;stroke:blue;" y1="150.00" x1="960.00" id="25874" y2="180.00" /><line x2="960.00" style="fill:blue;stroke:blue;" y1="150.00" x1="960.00" id="25875" y2="100.00" /><line x2="860.00" style="fill:blue;stroke:blue;" y1="150.00" x1="960.00" id="25876" y2="130.00" /><line x2="1010.00" style="fill:blue;stroke:blue;" y1="150.00" x1="960.00" id="25877" y2="150.00" /><line x2="935.50" style="fill:blue;stroke:blue;" y1="450.00" x1="984.50" id="25878" y2="450.00" /><line x2="981.91" style="fill:blue;stroke:blue;" y1="450.00" x1="984.50" id="25879" y2="529.04" /><line x2="940.00" style="fill:blue;stroke:blue;" y1="529.04" x1="981.91" id="25880" y2="500.00" /><line x2="984.50" style="fill:blue;stroke:blue;" y1="529.04" x1="981.91" id="25881" y2="450.00" /><line x2="1010.00" style="fill:blue;stroke:blue;" y1="529.04" x1="981.91" id="25882" y2="580.00" /><line x2="120.00" style="fill:blue;stroke:blue;" y1="500.00" x1="120.00" id="25883" y2="550.00" /><line x2="200.00" style="fill:blue;stroke:blue;" y1="500.00" x1="120.00" id="25884" y2="450.00" /><line x2="120.00" style="fill:blue;stroke:blue;" y1="550.00" x1="120.00" id="25885" y2="500.00" /><line x2="150.00" style="fill:blue;stroke:blue;" y1="550.00" x1="120.00" id="25886" y2="650.00" /><line x2="200.00" style="fill:blue;stroke:blue;" y1="400.00" x1="150.00" id="25887" y2="450.00" /><line x2="200.00" style="fill:blue;stroke:blue;" y1="400.00" x1="200.00" id="25888" y2="450.00" /><line x2="150.00" style="fill:blue;stroke:blue;" y1="700.00" x1="300.00" id="25889" y2="650.00" /><line x2="450.00" style="fill:blue;stroke:blue;" y1="700.00" x1="300.00" id="25890" y2="680.00" /><line x2="380.00" style="fill:blue;stroke:blue;" y1="50.00" x1="320.00" id="25891" y2="120.00" /><line x2="380.00" style="fill:blue;stroke:blue;" y1="50.00" x1="450.00" id="25892" y2="120.00" /><line x2="450.00" style="fill:blue;stroke:blue;" y1="620.00" x1="500.00" id="25893" y2="580.00" /><line x2="450.00" style="fill:blue;stroke:blue;" y1="620.00" x1="500.00" id="25894" y2="680.00" /><line x2="450.00" style="fill:blue;stroke:blue;" y1="720.00" x1="520.00" id="25895" y2="680.00" /><line x2="690.00" style="fill:blue;stroke:blue;" y1="542.32" x1="657.68" id="25896" y2="590.00" /><line x2="640.00" style="fill:blue;stroke:blue;" y1="542.32" x1="657.68" id="25897" y2="480.00" /><line x2="657.68" style="fill:blue;stroke:blue;" y1="590.00" x1="690.00" id="25898" y2="542.32" /><line x2="720.00" style="fill:blue;stroke:blue;" y1="590.00" x1="690.00" id="25899" y2="650.00" /><line x2="810.00" style="fill:blue;stroke:blue;" y1="230.00" x1="810.00" id="25900" y2="180.00" /><line x2="780.00" style="fill:blue;stroke:blue;" y1="590.00" x1="810.00" id="25901" y2="660.00" /><line x2="860.00" style="fill:blue;stroke:blue;" y1="530.00" x1="840.00" id="25902" y2="480.00" /><line x2="938.09" style="fill:blue;stroke:blue;" y1="600.00" x1="940.00" id="25903" y2="550.96" /><line x2="940.00" style="fill:blue;stroke:blue;" y1="230.00" x1="1010.00" id="25904" y2="280.00" /><line x2="940.00" style="fill:blue;stroke:blue;" y1="300.00" x1="1010.00" id="25905" y2="280.00" /><line x2="940.00" style="fill:blue;stroke:blue;" y1="300.00" x1="1010.00" id="25906" y2="330.00" /><line x2="981.91" style="fill:blue;stroke:blue;" y1="580.00" x1="1010.00" id="25907" y2="529.04" /><line x2="960.00" style="fill:blue;stroke:blue;" y1="100.00" x1="1010.00" id="25908" y2="100.00" /><line x2="960.00" style="fill:blue;stroke:blue;" y1="150.00" x1="1010.00" id="25909" y2="150.00" /></svg>
