<?xml version="1.0" standalone="yes"?><!DOCTYPE svg PUBLIC "-//W3C//DTD SVG 1.1//EN" "http://www.w3.org/Graphics/SVG/1.1/DTD/svg11.dtd"[]><svg width="1050.00" height="800.00" id="25332" xmlns="http://www.w3.org/2000/svg" xmlns:xlink="http://www.w3.org/1999/xlink"><rect Type="system" x="20.00" id="25333" height="5.00" width="5.00" Name="FYD-TO" ID="30000675" Region="灼热之径" y="100.00" /><text y="100.00" x="20.00" id="25334">FYD-TO</text><rect Type="system" x="20.00" id="25336" height="5.00" width="5.00" Name="6-KPAB" ID="30000728" Region="灼热之径" y="200.00" /><text y="200.00" x="20.00" id="25337">6-KPAB</text><rect Type="system" x="20.00" id="25339" height="5.00" width="5.00" Name="9M-M0P" ID="30000723" Region="灼热之径" y="280.00" /><text y="280.00" x="20.00" id="25340">9M-M0P</text><rect Type="system" x="20.00" id="25342" height="5.00" width="5.00" Name="9BC-EB" ID="30000724" Region="灼热之径" y="350.00" /><text y="350.00" x="20.00" id="25343">9BC-EB</text><rect Type="system" x="50.00" id="25345" height="5.00" width="5.00" Name="WHI-61" ID="30000687" Region="灼热之径" y="500.00" /><text y="500.00" x="50.00" id="25346">WHI-61</text><rect Type="system" x="50.00" id="25348" height="5.00" width="5.00" Name="G15Z-W" ID="30000690" Region="灼热之径" y="550.00" /><text y="550.00" x="50.00" id="25349">G15Z-W</text><rect Type="system" x="50.00" id="25351" height="5.00" width="5.00" Name="ZFJH-T" ID="30000688" Region="灼热之径" y="600.00" /><text y="600.00" x="50.00" id="25352">ZFJH-T</text><rect Type="system" x="50.00" id="25354" height="5.00" width="5.00" Name="HQ-Q1Q" ID="30000686" Region="灼热之径" y="650.00" /><text y="650.00" x="50.00" id="25355">HQ-Q1Q</text><rect Type="system" x="50.00" id="25357" height="5.00" width="5.00" Name="H5N-V7" ID="30000685" Region="灼热之径" y="700.00" /><text y="700.00" x="50.00" id="25358">H5N-V7</text><rect Type="system" x="50.00" id="25360" height="5.00" width="5.00" Name="I-1B7X" ID="30000689" Region="灼热之径" y="750.00" /><text y="750.00" x="50.00" id="25361">I-1B7X</text><rect Type="system" x="80.00" id="25363" height="5.00" width="5.00" Name="PU-UMM" ID="30000727" Region="灼热之径" y="250.00" /><text y="250.00" x="80.00" id="25364">PU-UMM</text><rect Type="system" x="100.00" id="25366" height="5.00" width="5.00" Name="QPTT-F" ID="30000722" Region="灼热之径" y="320.00" /><text y="320.00" x="100.00" id="25367">QPTT-F</text><rect Type="system" x="100.00" id="25369" height="5.00" width="5.00" Name="ER2O-Y" ID="30000676" Region="灼热之径" y="50.00" /><text y="50.00" x="100.00" id="25370">ER2O-Y</text><rect Type="system" x="100.00" id="25372" height="5.00" width="5.00" Name="AZ3F-N" ID="30000672" Region="灼热之径" y="100.00" /><text y="100.00" x="100.00" id="25373">AZ3F-N</text><rect Type="system" x="150.00" id="25375" height="5.00" width="5.00" Name="XX9-WV" ID="30001021" Region="柯尔斯" y="650.00" /><text y="650.00" x="150.00" id="25376">XX9-WV</text><rect Type="system" x="130.00" id="25378" height="5.00" width="5.00" Name="A-80UA" ID="30000702" Region="灼热之径" y="190.00" /><text y="190.00" x="130.00" id="25379">A-80UA</text><rect Type="system" x="160.00" id="25381" height="5.00" width="5.00" Name="C8-7AS" ID="30000700" Region="灼热之径" y="230.00" /><text y="230.00" x="160.00" id="25382">C8-7AS</text><rect Type="system" x="180.00" id="25384" height="5.00" width="5.00" Name="J2-PZ6" ID="30000677" Region="灼热之径" y="50.00" /><text y="50.00" x="180.00" id="25385">J2-PZ6</text><rect Type="system" x="180.00" id="25387" height="5.00" width="5.00" Name="RNM-Y6" ID="30000673" Region="灼热之径" y="100.00" /><text y="100.00" x="180.00" id="25388">RNM-Y6</text><rect Type="system" x="200.00" id="25390" height="5.00" width="5.00" Name="VOL-MI" ID="30001019" Region="柯尔斯" y="450.00" /><text y="450.00" x="200.00" id="25391">VOL-MI</text><rect Type="system" x="200.00" id="25393" height="5.00" width="5.00" Name="HJ-BCH" ID="30000721" Region="灼热之径" y="320.00" /><text y="320.00" x="200.00" id="25394">HJ-BCH</text><rect Type="system" x="197.68" id="25396" height="5.00" width="5.00" Name="U6K-RG" ID="30000693" Region="灼热之径" y="547.68" /><text y="547.68" x="197.68" id="25397">U6K-RG</text><rect Type="system" x="220.00" id="25399" height="5.00" width="5.00" Name="NSBE-L" ID="30000696" Region="灼热之径" y="500.00" /><text y="500.00" x="220.00" id="25400">NSBE-L</text><rect Type="system" x="232.32" id="25402" height="5.00" width="5.00" Name="SD4A-2" ID="30000692" Region="灼热之径" y="582.32" /><text y="582.32" x="232.32" id="25403">SD4A-2</text><rect Type="system" x="250.00" id="25405" height="5.00" width="5.00" Name="V-KDY2" ID="30000674" Region="灼热之径" y="80.00" /><text y="80.00" x="250.00" id="25406">V-KDY2</text><rect Type="system" x="250.00" id="25408" height="5.00" width="5.00" Name="4E-EZS" ID="30000701" Region="灼热之径" y="175.50" /><text y="175.50" x="250.00" id="25409">4E-EZS</text><rect Type="system" x="250.00" id="25411" height="5.00" width="5.00" Name="ZNF-OK" ID="30000699" Region="灼热之径" y="224.50" /><text y="224.50" x="250.00" id="25412">ZNF-OK</text><rect Type="system" x="280.00" id="25414" height="5.00" width="5.00" Name="F2-NXA" ID="30000695" Region="灼热之径" y="600.00" /><text y="600.00" x="280.00" id="25415">F2-NXA</text><rect Type="system" x="280.00" id="25417" height="5.00" width="5.00" Name="S1-XTL" ID="30000667" Region="灼热之径" y="120.00" /><text y="120.00" x="280.00" id="25418">S1-XTL</text><rect Type="system" x="280.00" id="25420" height="5.00" width="5.00" Name="K212-A" ID="30000665" Region="灼热之径" y="480.00" /><text y="480.00" x="280.00" id="25421">K212-A</text><rect Type="system" x="300.00" id="25423" height="5.00" width="5.00" Name="WFFE-4" ID="30000725" Region="灼热之径" y="300.00" /><text y="300.00" x="300.00" id="25424">WFFE-4</text><rect Type="system" x="300.00" id="25426" height="5.00" width="5.00" Name="Y5-E1U" ID="30000729" Region="灼热之径" y="350.00" /><text y="350.00" x="300.00" id="25427">Y5-E1U</text><rect Type="system" x="320.00" id="25429" height="5.00" width="5.00" Name="U-IVGH" ID="30000660" Region="灼热之径" y="550.00" /><text y="550.00" x="320.00" id="25430">U-IVGH</text><rect Type="system" x="317.68" id="25432" height="5.00" width="5.00" Name="V-S9YY" ID="30000694" Region="灼热之径" y="632.32" /><text y="632.32" x="317.68" id="25433">V-S9YY</text><rect Type="system" x="320.00" id="25435" height="5.00" width="5.00" Name="8Q-T7B" ID="30000697" Region="灼热之径" y="250.00" /><text y="250.00" x="320.00" id="25436">8Q-T7B</text><rect Type="system" x="350.00" id="25438" height="5.00" width="5.00" Name="WV0D-1" ID="30000698" Region="灼热之径" y="200.00" /><text y="200.00" x="350.00" id="25439">WV0D-1</text><rect Type="system" x="350.00" id="25441" height="5.00" width="5.00" Name="ARG-3R" ID="30000656" Region="灼热之径" y="450.00" /><text y="450.00" x="350.00" id="25442">ARG-3R</text><rect Type="system" x="352.32" id="25444" height="5.00" width="5.00" Name="AH8-Q7" ID="30000691" Region="灼热之径" y="597.68" /><text y="597.68" x="352.32" id="25445">AH8-Q7</text><rect Type="system" x="350.00" id="25447" height="5.00" width="5.00" Name="71-UTX" ID="30000726" Region="灼热之径" y="320.00" /><text y="320.00" x="350.00" id="25448">71-UTX</text><rect Type="system" x="350.00" id="25450" height="5.00" width="5.00" Name="P-N5N9" ID="30000661" Region="灼热之径" y="500.00" /><text y="500.00" x="350.00" id="25451">P-N5N9</text><rect Type="system" x="380.00" id="25453" height="5.00" width="5.00" Name="F-5FDA" ID="30000666" Region="灼热之径" y="120.00" /><text y="120.00" x="380.00" id="25454">F-5FDA</text><rect Type="system" x="400.00" id="25456" height="5.00" width="5.00" Name="K7-LDX" ID="30000659" Region="灼热之径" y="550.00" /><text y="550.00" x="400.00" id="25457">K7-LDX</text><rect Type="system" x="420.00" id="25459" height="5.00" width="5.00" Name="ES-UWY" ID="30001029" Region="柯尔斯" y="620.00" /><text y="620.00" x="420.00" id="25460">ES-UWY</text><rect Type="system" x="450.00" id="25462" height="5.00" width="5.00" Name="9PX2-F" ID="30000668" Region="灼热之径" y="150.00" /><text y="150.00" x="450.00" id="25463">9PX2-F</text><rect Type="system" x="450.00" id="25465" height="5.00" width="5.00" Name="R-3FBU" ID="30000658" Region="灼热之径" y="480.00" /><text y="480.00" x="450.00" id="25466">R-3FBU</text><rect Type="system" x="450.00" id="25468" height="5.00" width="5.00" Name="Y-DW5K" ID="30001031" Region="柯尔斯" y="680.00" /><text y="680.00" x="450.00" id="25469">Y-DW5K</text><rect Type="system" x="450.00" id="25471" height="5.00" width="5.00" Name="S-E6ES" ID="30000657" Region="灼热之径" y="580.00" /><text y="580.00" x="450.00" id="25472">S-E6ES</text><rect Type="system" x="480.00" id="25474" height="5.00" width="5.00" Name="GN-PDU" ID="30000671" Region="灼热之径" y="350.00" /><text y="350.00" x="480.00" id="25475">GN-PDU</text><rect Type="system" x="500.00" id="25477" height="5.00" width="5.00" Name="EIN-QG" ID="30000655" Region="灼热之径" y="550.00" /><text y="550.00" x="500.00" id="25478">EIN-QG</text><rect Type="system" x="520.00" id="25480" height="5.00" width="5.00" Name="N3-JBX" ID="30000669" Region="灼热之径" y="180.00" /><text y="180.00" x="520.00" id="25481">N3-JBX</text><rect Type="system" x="580.00" id="25483" height="5.00" width="5.00" Name="SG-75T" ID="30000670" Region="灼热之径" y="280.00" /><text y="280.00" x="580.00" id="25484">SG-75T</text><rect Type="system" x="610.00" id="25486" height="5.00" width="5.00" Name="28Y9-P" ID="30000714" Region="灼热之径" y="130.00" /><text y="130.00" x="610.00" id="25487">28Y9-P</text><rect Type="system" x="640.00" id="25489" height="5.00" width="5.00" Name="V-F6DQ" ID="30000732" Region="灼热之径" y="430.00" /><text y="430.00" x="640.00" id="25490">V-F6DQ</text><rect Type="system" x="640.00" id="25492" height="5.00" width="5.00" Name="4-43BW" ID="30000730" Region="灼热之径" y="480.00" /><text y="480.00" x="640.00" id="25493">4-43BW</text><rect Type="system" x="650.00" id="25495" height="5.00" width="5.00" Name="KZFV-4" ID="30000710" Region="灼热之径" y="180.00" /><text y="180.00" x="650.00" id="25496">KZFV-4</text><rect Type="system" x="660.00" id="25498" height="5.00" width="5.00" Name="2-KPW6" ID="30000684" Region="灼热之径" y="230.00" /><text y="230.00" x="660.00" id="25499">2-KPW6</text><rect Type="system" x="660.00" id="25501" height="5.00" width="5.00" Name="JMH-PT" ID="30000662" Region="灼热之径" y="650.00" /><text y="650.00" x="660.00" id="25502">JMH-PT</text><rect Type="system" x="660.00" id="25504" height="5.00" width="5.00" Name="XV-MWG" ID="30000678" Region="灼热之径" y="280.00" /><text y="280.00" x="660.00" id="25505">XV-MWG</text><rect Type="system" x="660.00" id="25507" height="5.00" width="5.00" Name="3S-6VU" ID="30000733" Region="灼热之径" y="350.00" /><text y="350.00" x="660.00" id="25508">3S-6VU</text><rect Type="system" x="690.00" id="25510" height="5.00" width="5.00" Name="IAK-JW" ID="30000709" Region="灼热之径" y="150.00" /><text y="150.00" x="690.00" id="25511">IAK-JW</text><rect Type="system" x="707.68" id="25513" height="5.00" width="5.00" Name="WO-GC0" ID="30000711" Region="灼热之径" y="97.68" /><text y="97.68" x="707.68" id="25514">WO-GC0</text><rect Type="system" x="692.32" id="25516" height="5.00" width="5.00" Name="8CN-CH" ID="30000731" Region="灼热之径" y="507.68" /><text y="507.68" x="692.32" id="25517">8CN-CH</text><rect Type="system" x="720.00" id="25519" height="5.00" width="5.00" Name="X9V-15" ID="30000664" Region="灼热之径" y="650.00" /><text y="650.00" x="720.00" id="25520">X9V-15</text><rect Type="system" x="740.00" id="25522" height="5.00" width="5.00" Name="1-7HVI" ID="30000734" Region="灼热之径" y="430.00" /><text y="430.00" x="740.00" id="25523">1-7HVI</text><rect Type="system" x="742.32" id="25525" height="5.00" width="5.00" Name="RYC-19" ID="30000712" Region="灼热之径" y="132.32" /><text y="132.32" x="742.32" id="25526">RYC-19</text><rect Type="system" x="740.00" id="25528" height="5.00" width="5.00" Name="OX-S7P" ID="30000735" Region="灼热之径" y="380.00" /><text y="380.00" x="740.00" id="25529">OX-S7P</text><rect Type="system" x="760.00" id="25531" height="5.00" width="5.00" Name="Q-K2T7" ID="30000682" Region="灼热之径" y="280.00" /><text y="280.00" x="760.00" id="25532">Q-K2T7</text><rect Type="system" x="780.00" id="25534" height="5.00" width="5.00" Name="DE-A7P" ID="30000663" Region="灼热之径" y="660.00" /><text y="660.00" x="780.00" id="25535">DE-A7P</text><rect Type="system" x="810.00" id="25537" height="5.00" width="5.00" Name="X2-ZA5" ID="30000713" Region="灼热之径" y="180.00" /><text y="180.00" x="810.00" id="25538">X2-ZA5</text><rect Type="system" x="830.00" id="25540" height="5.00" width="5.00" Name="LBC-AW" ID="30000683" Region="灼热之径" y="350.00" /><text y="350.00" x="830.00" id="25541">LBC-AW</text><rect Type="system" x="860.00" id="25543" height="5.00" width="5.00" Name="OAQY-M" ID="30000679" Region="灼热之径" y="480.00" /><text y="480.00" x="860.00" id="25544">OAQY-M</text><rect Type="system" x="860.00" id="25546" height="5.00" width="5.00" Name="JLO-Z3" ID="30000708" Region="灼热之径" y="80.00" /><text y="80.00" x="860.00" id="25547">JLO-Z3</text><rect Type="system" x="860.00" id="25549" height="5.00" width="5.00" Name="03-OR2" ID="30000707" Region="灼热之径" y="130.00" /><text y="130.00" x="860.00" id="25550">03-OR2</text><rect Type="system" x="860.00" id="25552" height="5.00" width="5.00" Name="5-MQQ7" ID="30000705" Region="灼热之径" y="180.00" /><text y="180.00" x="860.00" id="25553">5-MQQ7</text><rect Type="system" x="910.00" id="25555" height="5.00" width="5.00" Name="LQ-OAI" ID="30000704" Region="灼热之径" y="200.00" /><text y="200.00" x="910.00" id="25556">LQ-OAI</text><rect Type="system" x="940.00" id="25558" height="5.00" width="5.00" Name="1V-LI2" ID="30000680" Region="灼热之径" y="280.00" /><text y="280.00" x="940.00" id="25559">1V-LI2</text><rect Type="system" x="940.00" id="25561" height="5.00" width="5.00" Name="M9-MLR" ID="30000681" Region="灼热之径" y="330.00" /><text y="330.00" x="940.00" id="25562">M9-MLR</text><rect Type="system" x="940.00" id="25564" height="5.00" width="5.00" Name="Q-NA5H" ID="30000717" Region="灼热之径" y="400.00" /><text y="400.00" x="940.00" id="25565">Q-NA5H</text><rect Type="system" x="935.50" id="25567" height="5.00" width="5.00" Name="Q4C-S5" ID="30000715" Region="灼热之径" y="450.00" /><text y="450.00" x="935.50" id="25568">Q4C-S5</text><rect Type="system" x="940.00" id="25570" height="5.00" width="5.00" Name="4-CM8I" ID="30000718" Region="灼热之径" y="500.00" /><text y="500.00" x="940.00" id="25571">4-CM8I</text><rect Type="system" x="938.09" id="25573" height="5.00" width="5.00" Name="B-1UJC" ID="30000716" Region="灼热之径" y="550.96" /><text y="550.96" x="938.09" id="25574">B-1UJC</text><rect Type="system" x="960.00" id="25576" height="5.00" width="5.00" Name="6-EQYE" ID="30000706" Region="灼热之径" y="100.00" /><text y="100.00" x="960.00" id="25577">6-EQYE</text><rect Type="system" x="960.00" id="25579" height="5.00" width="5.00" Name="U2-28D" ID="30000703" Region="灼热之径" y="150.00" /><text y="150.00" x="960.00" id="25580">U2-28D</text><rect Type="system" x="984.50" id="25582" height="5.00" width="5.00" Name="ZDB-HT" ID="30000719" Region="灼热之径" y="450.00" /><text y="450.00" x="984.50" id="25583">ZDB-HT</text><rect Type="system" x="981.91" id="25585" height="5.00" width="5.00" Name="1QZ-Y9" ID="30000720" Region="灼热之径" y="529.04" /><text y="529.04" x="981.91" id="25586">1QZ-Y9</text><rect Type="system" x="120.00" id="25588" height="5.00" width="5.00" Name="HLW-HP" ID="30001016" Region="柯尔斯" y="500.00" /><text y="500.00" x="120.00" id="25589">HLW-HP</text><rect Type="system" x="120.00" id="25591" height="5.00" width="5.00" Name="RA-NXN" ID="30001018" Region="柯尔斯" y="550.00" /><text y="550.00" x="120.00" id="25592">RA-NXN</text><rect Type="system" x="150.00" id="25594" height="5.00" width="5.00" Name="8G-MQV" ID="30001017" Region="柯尔斯" y="400.00" /><text y="400.00" x="150.00" id="25595">8G-MQV</text><rect Type="system" x="200.00" id="25597" height="5.00" width="5.00" Name="K-B2D3" ID="30001011" Region="柯尔斯" y="400.00" /><text y="400.00" x="200.00" id="25598">K-B2D3</text><rect Type="system" x="300.00" id="25600" height="5.00" width="5.00" Name="M-N7WD" ID="30001032" Region="柯尔斯" y="700.00" /><text y="700.00" x="300.00" id="25601">M-N7WD</text><rect Type="system" x="320.00" id="25603" height="5.00" width="5.00" Name="TET3-B" ID="30000926" Region="大荒野" y="50.00" /><text y="50.00" x="320.00" id="25604">TET3-B</text><rect Type="system" x="450.00" id="25606" height="5.00" width="5.00" Name="9-34L5" ID="30000939" Region="大荒野" y="50.00" /><text y="50.00" x="450.00" id="25607">9-34L5</text><rect Type="system" x="500.00" id="25609" height="5.00" width="5.00" Name="H-ADOC" ID="30001001" Region="柯尔斯" y="620.00" /><text y="620.00" x="500.00" id="25610">H-ADOC</text><rect Type="system" x="520.00" id="25612" height="5.00" width="5.00" Name="QFEW-K" ID="30001033" Region="柯尔斯" y="720.00" /><text y="720.00" x="520.00" id="25613">QFEW-K</text><rect Type="system" x="657.68" id="25615" height="5.00" width="5.00" Name="G9NE-B" ID="30000570" Region="邪恶湾流" y="542.32" /><text y="542.32" x="657.68" id="25616">G9NE-B</text><rect Type="system" x="690.00" id="25618" height="5.00" width="5.00" Name="C0O6-K" ID="30000568" Region="邪恶湾流" y="590.00" /><text y="590.00" x="690.00" id="25619">C0O6-K</text><rect Type="system" x="810.00" id="25621" height="5.00" width="5.00" Name="GK5Z-T" ID="30000789" Region="因斯姆尔" y="230.00" /><text y="230.00" x="810.00" id="25622">GK5Z-T</text><rect Type="system" x="810.00" id="25624" height="5.00" width="5.00" Name="YI-GV6" ID="30000583" Region="邪恶湾流" y="590.00" /><text y="590.00" x="810.00" id="25625">YI-GV6</text><rect Type="system" x="840.00" id="25627" height="5.00" width="5.00" Name="R0-DMM" ID="30000563" Region="邪恶湾流" y="530.00" /><text y="530.00" x="840.00" id="25628">R0-DMM</text><rect Type="system" x="940.00" id="25630" height="5.00" width="5.00" Name="TP7-KE" ID="30000588" Region="邪恶湾流" y="600.00" /><text y="600.00" x="940.00" id="25631">TP7-KE</text><rect Type="system" x="1010.00" id="25633" height="5.00" width="5.00" Name="GDHN-K" ID="30000792" Region="因斯姆尔" y="230.00" /><text y="230.00" x="1010.00" id="25634">GDHN-K</text><rect Type="system" x="1010.00" id="25636" height="5.00" width="5.00" Name="5E-CMA" ID="30000554" Region="邪恶湾流" y="300.00" /><text y="300.00" x="1010.00" id="25637">5E-CMA</text><rect Type="system" x="1010.00" id="25639" height="5.00" width="5.00" Name="MSG-BZ" ID="30000774" Region="因斯姆尔" y="580.00" /><text y="580.00" x="1010.00" id="25640">MSG-BZ</text><rect Type="system" x="1010.00" id="25642" height="5.00" width="5.00" Name="74-VZA" ID="30000787" Region="因斯姆尔" y="100.00" /><text y="100.00" x="1010.00" id="25643">74-VZA</text><rect Type="system" x="1010.00" id="25645" height="5.00" width="5.00" Name="PUZ-IO" ID="30000978" Region="大荒野" y="150.00" /><text y="150.00" x="1010.00" id="25646">PUZ-IO</text><line style="stroke:blue;fill:blue;" id="25648" x2="100.00" x1="20.00" y1="100.00" y2="100.00" /><line style="stroke:blue;fill:blue;" id="25649" x2="80.00" x1="20.00" y1="200.00" y2="250.00" /><line style="stroke:blue;fill:blue;" id="25650" x2="100.00" x1="20.00" y1="280.00" y2="320.00" /><line style="stroke:blue;fill:blue;" id="25651" x2="100.00" x1="20.00" y1="350.00" y2="320.00" /><line style="stroke:blue;fill:blue;" id="25652" x2="50.00" x1="50.00" y1="500.00" y2="550.00" /><line style="stroke:blue;fill:blue;" id="25653" x2="100.00" x1="50.00" y1="500.00" y2="320.00" /><line style="stroke:blue;fill:blue;" id="25654" x2="50.00" x1="50.00" y1="550.00" y2="500.00" /><line style="stroke:blue;fill:blue;" id="25655" x2="50.00" x1="50.00" y1="550.00" y2="600.00" /><line style="stroke:blue;fill:blue;" id="25656" x2="50.00" x1="50.00" y1="600.00" y2="650.00" /><line style="stroke:blue;fill:blue;" id="25657" x2="50.00" x1="50.00" y1="600.00" y2="550.00" /><line style="stroke:blue;fill:blue;" id="25658" x2="150.00" x1="50.00" y1="600.00" y2="650.00" /><line style="stroke:blue;fill:blue;" id="25659" x2="50.00" x1="50.00" y1="650.00" y2="700.00" /><line style="stroke:blue;fill:blue;" id="25660" x2="50.00" x1="50.00" y1="650.00" y2="600.00" /><line style="stroke:blue;fill:blue;" id="25661" x2="50.00" x1="50.00" y1="700.00" y2="650.00" /><line style="stroke:blue;fill:blue;" id="25662" x2="50.00" x1="50.00" y1="700.00" y2="750.00" /><line style="stroke:blue;fill:blue;" id="25663" x2="50.00" x1="50.00" y1="750.00" y2="700.00" /><line style="stroke:blue;fill:blue;" id="25664" x2="100.00" x1="80.00" y1="250.00" y2="320.00" /><line style="stroke:blue;fill:blue;" id="25665" x2="20.00" x1="80.00" y1="250.00" y2="200.00" /><line style="stroke:blue;fill:blue;" id="25666" x2="50.00" x1="100.00" y1="320.00" y2="500.00" /><line style="stroke:blue;fill:blue;" id="25667" x2="160.00" x1="100.00" y1="320.00" y2="230.00" /><line style="stroke:blue;fill:blue;" id="25668" x2="200.00" x1="100.00" y1="320.00" y2="320.00" /><line style="stroke:blue;fill:blue;" id="25669" x2="20.00" x1="100.00" y1="320.00" y2="280.00" /><line style="stroke:blue;fill:blue;" id="25670" x2="20.00" x1="100.00" y1="320.00" y2="350.00" /><line style="stroke:blue;fill:blue;" id="25671" x2="80.00" x1="100.00" y1="320.00" y2="250.00" /><line style="stroke:blue;fill:blue;" id="25672" x2="100.00" x1="100.00" y1="50.00" y2="100.00" /><line style="stroke:blue;fill:blue;" id="25673" x2="180.00" x1="100.00" y1="50.00" y2="50.00" /><line style="stroke:blue;fill:blue;" id="25674" x2="180.00" x1="100.00" y1="100.00" y2="100.00" /><line style="stroke:blue;fill:blue;" id="25675" x2="20.00" x1="100.00" y1="100.00" y2="100.00" /><line style="stroke:blue;fill:blue;" id="25676" x2="100.00" x1="100.00" y1="100.00" y2="50.00" /><line style="stroke:blue;fill:blue;" id="25677" x2="50.00" x1="150.00" y1="650.00" y2="600.00" /><line style="stroke:blue;fill:blue;" id="25678" x2="120.00" x1="150.00" y1="650.00" y2="550.00" /><line style="stroke:blue;fill:blue;" id="25679" x2="300.00" x1="150.00" y1="650.00" y2="700.00" /><line style="stroke:blue;fill:blue;" id="25680" x2="160.00" x1="130.00" y1="190.00" y2="230.00" /><line style="stroke:blue;fill:blue;" id="25681" x2="250.00" x1="160.00" y1="230.00" y2="224.50" /><line style="stroke:blue;fill:blue;" id="25682" x2="250.00" x1="160.00" y1="230.00" y2="175.50" /><line style="stroke:blue;fill:blue;" id="25683" x2="130.00" x1="160.00" y1="230.00" y2="190.00" /><line style="stroke:blue;fill:blue;" id="25684" x2="100.00" x1="160.00" y1="230.00" y2="320.00" /><line style="stroke:blue;fill:blue;" id="25685" x2="180.00" x1="180.00" y1="50.00" y2="100.00" /><line style="stroke:blue;fill:blue;" id="25686" x2="250.00" x1="180.00" y1="50.00" y2="80.00" /><line style="stroke:blue;fill:blue;" id="25687" x2="100.00" x1="180.00" y1="50.00" y2="50.00" /><line style="stroke:blue;fill:blue;" id="25688" x2="280.00" x1="180.00" y1="100.00" y2="120.00" /><line style="stroke:blue;fill:blue;" id="25689" x2="100.00" x1="180.00" y1="100.00" y2="100.00" /><line style="stroke:blue;fill:blue;" id="25690" x2="250.00" x1="180.00" y1="100.00" y2="80.00" /><line style="stroke:blue;fill:blue;" id="25691" x2="180.00" x1="180.00" y1="100.00" y2="50.00" /><line style="stroke:blue;fill:blue;" id="25692" x2="350.00" x1="200.00" y1="450.00" y2="450.00" /><line style="stroke:blue;fill:blue;" id="25693" x2="200.00" x1="200.00" y1="450.00" y2="400.00" /><line style="stroke:blue;fill:blue;" id="25694" x2="120.00" x1="200.00" y1="450.00" y2="500.00" /><line style="stroke:blue;fill:blue;" id="25695" x2="150.00" x1="200.00" y1="450.00" y2="400.00" /><line style="stroke:blue;fill:blue;" id="25696" x2="450.00" x1="200.00" y1="320.00" y2="480.00" /><line style="stroke:blue;fill:blue;" id="25697" x2="320.00" x1="200.00" y1="320.00" y2="250.00" /><line style="stroke:blue;fill:blue;" id="25698" x2="250.00" x1="200.00" y1="320.00" y2="224.50" /><line style="stroke:blue;fill:blue;" id="25699" x2="100.00" x1="200.00" y1="320.00" y2="320.00" /><line style="stroke:blue;fill:blue;" id="25700" x2="300.00" x1="200.00" y1="320.00" y2="300.00" /><line style="stroke:blue;fill:blue;" id="25701" x2="300.00" x1="200.00" y1="320.00" y2="350.00" /><line style="stroke:blue;fill:blue;" id="25702" x2="232.32" x1="197.68" y1="547.68" y2="582.32" /><line style="stroke:blue;fill:blue;" id="25703" x2="220.00" x1="197.68" y1="547.68" y2="500.00" /><line style="stroke:blue;fill:blue;" id="25704" x2="197.68" x1="220.00" y1="500.00" y2="547.68" /><line style="stroke:blue;fill:blue;" id="25705" x2="197.68" x1="232.32" y1="582.32" y2="547.68" /><line style="stroke:blue;fill:blue;" id="25706" x2="280.00" x1="232.32" y1="582.32" y2="600.00" /><line style="stroke:blue;fill:blue;" id="25707" x2="180.00" x1="250.00" y1="80.00" y2="100.00" /><line style="stroke:blue;fill:blue;" id="25708" x2="180.00" x1="250.00" y1="80.00" y2="50.00" /><line style="stroke:blue;fill:blue;" id="25709" x2="320.00" x1="250.00" y1="175.50" y2="250.00" /><line style="stroke:blue;fill:blue;" id="25710" x2="250.00" x1="250.00" y1="175.50" y2="224.50" /><line style="stroke:blue;fill:blue;" id="25711" x2="160.00" x1="250.00" y1="175.50" y2="230.00" /><line style="stroke:blue;fill:blue;" id="25712" x2="320.00" x1="250.00" y1="224.50" y2="250.00" /><line style="stroke:blue;fill:blue;" id="25713" x2="160.00" x1="250.00" y1="224.50" y2="230.00" /><line style="stroke:blue;fill:blue;" id="25714" x2="250.00" x1="250.00" y1="224.50" y2="175.50" /><line style="stroke:blue;fill:blue;" id="25715" x2="200.00" x1="250.00" y1="224.50" y2="320.00" /><line style="stroke:blue;fill:blue;" id="25716" x2="352.32" x1="280.00" y1="600.00" y2="597.68" /><line style="stroke:blue;fill:blue;" id="25717" x2="232.32" x1="280.00" y1="600.00" y2="582.32" /><line style="stroke:blue;fill:blue;" id="25718" x2="317.68" x1="280.00" y1="600.00" y2="632.32" /><line style="stroke:blue;fill:blue;" id="25719" x2="380.00" x1="280.00" y1="120.00" y2="120.00" /><line style="stroke:blue;fill:blue;" id="25720" x2="180.00" x1="280.00" y1="120.00" y2="100.00" /><line style="stroke:blue;fill:blue;" id="25721" x2="350.00" x1="280.00" y1="480.00" y2="450.00" /><line style="stroke:blue;fill:blue;" id="25722" x2="320.00" x1="280.00" y1="480.00" y2="550.00" /><line style="stroke:blue;fill:blue;" id="25723" x2="200.00" x1="300.00" y1="300.00" y2="320.00" /><line style="stroke:blue;fill:blue;" id="25724" x2="350.00" x1="300.00" y1="300.00" y2="320.00" /><line style="stroke:blue;fill:blue;" id="25725" x2="300.00" x1="300.00" y1="300.00" y2="350.00" /><line style="stroke:blue;fill:blue;" id="25726" x2="200.00" x1="300.00" y1="350.00" y2="320.00" /><line style="stroke:blue;fill:blue;" id="25727" x2="300.00" x1="300.00" y1="350.00" y2="300.00" /><line style="stroke:blue;fill:blue;" id="25728" x2="350.00" x1="300.00" y1="350.00" y2="320.00" /><line style="stroke:blue;fill:blue;" id="25729" x2="400.00" x1="320.00" y1="550.00" y2="550.00" /><line style="stroke:blue;fill:blue;" id="25730" x2="280.00" x1="320.00" y1="550.00" y2="480.00" /><line style="stroke:blue;fill:blue;" id="25731" x2="352.32" x1="317.68" y1="632.32" y2="597.68" /><line style="stroke:blue;fill:blue;" id="25732" x2="280.00" x1="317.68" y1="632.32" y2="600.00" /><line style="stroke:blue;fill:blue;" id="25733" x2="480.00" x1="320.00" y1="250.00" y2="350.00" /><line style="stroke:blue;fill:blue;" id="25734" x2="350.00" x1="320.00" y1="250.00" y2="200.00" /><line style="stroke:blue;fill:blue;" id="25735" x2="250.00" x1="320.00" y1="250.00" y2="224.50" /><line style="stroke:blue;fill:blue;" id="25736" x2="250.00" x1="320.00" y1="250.00" y2="175.50" /><line style="stroke:blue;fill:blue;" id="25737" x2="200.00" x1="320.00" y1="250.00" y2="320.00" /><line style="stroke:blue;fill:blue;" id="25738" x2="320.00" x1="350.00" y1="200.00" y2="250.00" /><line style="stroke:blue;fill:blue;" id="25739" x2="450.00" x1="350.00" y1="450.00" y2="480.00" /><line style="stroke:blue;fill:blue;" id="25740" x2="350.00" x1="350.00" y1="450.00" y2="500.00" /><line style="stroke:blue;fill:blue;" id="25741" x2="280.00" x1="350.00" y1="450.00" y2="480.00" /><line style="stroke:blue;fill:blue;" id="25742" x2="450.00" x1="350.00" y1="450.00" y2="150.00" /><line style="stroke:blue;fill:blue;" id="25743" x2="200.00" x1="350.00" y1="450.00" y2="450.00" /><line style="stroke:blue;fill:blue;" id="25744" x2="400.00" x1="352.32" y1="597.68" y2="550.00" /><line style="stroke:blue;fill:blue;" id="25745" x2="317.68" x1="352.32" y1="597.68" y2="632.32" /><line style="stroke:blue;fill:blue;" id="25746" x2="280.00" x1="352.32" y1="597.68" y2="600.00" /><line style="stroke:blue;fill:blue;" id="25747" x2="300.00" x1="350.00" y1="320.00" y2="300.00" /><line style="stroke:blue;fill:blue;" id="25748" x2="300.00" x1="350.00" y1="320.00" y2="350.00" /><line style="stroke:blue;fill:blue;" id="25749" x2="350.00" x1="350.00" y1="500.00" y2="450.00" /><line style="stroke:blue;fill:blue;" id="25750" x2="280.00" x1="380.00" y1="120.00" y2="120.00" /><line style="stroke:blue;fill:blue;" id="25751" x2="450.00" x1="380.00" y1="120.00" y2="150.00" /><line style="stroke:blue;fill:blue;" id="25752" x2="320.00" x1="380.00" y1="120.00" y2="50.00" /><line style="stroke:blue;fill:blue;" id="25753" x2="450.00" x1="380.00" y1="120.00" y2="50.00" /><line style="stroke:blue;fill:blue;" id="25754" x2="450.00" x1="400.00" y1="550.00" y2="580.00" /><line style="stroke:blue;fill:blue;" id="25755" x2="450.00" x1="400.00" y1="550.00" y2="480.00" /><line style="stroke:blue;fill:blue;" id="25756" x2="320.00" x1="400.00" y1="550.00" y2="550.00" /><line style="stroke:blue;fill:blue;" id="25757" x2="352.32" x1="400.00" y1="550.00" y2="597.68" /><line style="stroke:blue;fill:blue;" id="25758" x2="450.00" x1="420.00" y1="620.00" y2="580.00" /><line style="stroke:blue;fill:blue;" id="25759" x2="450.00" x1="420.00" y1="620.00" y2="680.00" /><line style="stroke:blue;fill:blue;" id="25760" x2="350.00" x1="450.00" y1="150.00" y2="450.00" /><line style="stroke:blue;fill:blue;" id="25761" x2="380.00" x1="450.00" y1="150.00" y2="120.00" /><line style="stroke:blue;fill:blue;" id="25762" x2="520.00" x1="450.00" y1="150.00" y2="180.00" /><line style="stroke:blue;fill:blue;" id="25763" x2="500.00" x1="450.00" y1="480.00" y2="550.00" /><line style="stroke:blue;fill:blue;" id="25764" x2="350.00" x1="450.00" y1="480.00" y2="450.00" /><line style="stroke:blue;fill:blue;" id="25765" x2="400.00" x1="450.00" y1="480.00" y2="550.00" /><line style="stroke:blue;fill:blue;" id="25766" x2="480.00" x1="450.00" y1="480.00" y2="350.00" /><line style="stroke:blue;fill:blue;" id="25767" x2="200.00" x1="450.00" y1="480.00" y2="320.00" /><line style="stroke:blue;fill:blue;" id="25768" x2="500.00" x1="450.00" y1="680.00" y2="620.00" /><line style="stroke:blue;fill:blue;" id="25769" x2="420.00" x1="450.00" y1="680.00" y2="620.00" /><line style="stroke:blue;fill:blue;" id="25770" x2="300.00" x1="450.00" y1="680.00" y2="700.00" /><line style="stroke:blue;fill:blue;" id="25771" x2="520.00" x1="450.00" y1="680.00" y2="720.00" /><line style="stroke:blue;fill:blue;" id="25772" x2="500.00" x1="450.00" y1="580.00" y2="550.00" /><line style="stroke:blue;fill:blue;" id="25773" x2="400.00" x1="450.00" y1="580.00" y2="550.00" /><line style="stroke:blue;fill:blue;" id="25774" x2="500.00" x1="450.00" y1="580.00" y2="620.00" /><line style="stroke:blue;fill:blue;" id="25775" x2="420.00" x1="450.00" y1="580.00" y2="620.00" /><line style="stroke:blue;fill:blue;" id="25776" x2="500.00" x1="480.00" y1="350.00" y2="550.00" /><line style="stroke:blue;fill:blue;" id="25777" x2="450.00" x1="480.00" y1="350.00" y2="480.00" /><line style="stroke:blue;fill:blue;" id="25778" x2="520.00" x1="480.00" y1="350.00" y2="180.00" /><line style="stroke:blue;fill:blue;" id="25779" x2="320.00" x1="480.00" y1="350.00" y2="250.00" /><line style="stroke:blue;fill:blue;" id="25780" x2="450.00" x1="500.00" y1="550.00" y2="580.00" /><line style="stroke:blue;fill:blue;" id="25781" x2="450.00" x1="500.00" y1="550.00" y2="480.00" /><line style="stroke:blue;fill:blue;" id="25782" x2="660.00" x1="500.00" y1="550.00" y2="650.00" /><line style="stroke:blue;fill:blue;" id="25783" x2="480.00" x1="500.00" y1="550.00" y2="350.00" /><line style="stroke:blue;fill:blue;" id="25784" x2="450.00" x1="520.00" y1="180.00" y2="150.00" /><line style="stroke:blue;fill:blue;" id="25785" x2="580.00" x1="520.00" y1="180.00" y2="280.00" /><line style="stroke:blue;fill:blue;" id="25786" x2="480.00" x1="520.00" y1="180.00" y2="350.00" /><line style="stroke:blue;fill:blue;" id="25787" x2="520.00" x1="580.00" y1="280.00" y2="180.00" /><line style="stroke:blue;fill:blue;" id="25788" x2="660.00" x1="580.00" y1="280.00" y2="280.00" /><line style="stroke:blue;fill:blue;" id="25789" x2="640.00" x1="580.00" y1="280.00" y2="430.00" /><line style="stroke:blue;fill:blue;" id="25790" x2="650.00" x1="610.00" y1="130.00" y2="180.00" /><line style="stroke:blue;fill:blue;" id="25791" x2="580.00" x1="640.00" y1="430.00" y2="280.00" /><line style="stroke:blue;fill:blue;" id="25792" x2="640.00" x1="640.00" y1="430.00" y2="480.00" /><line style="stroke:blue;fill:blue;" id="25793" x2="660.00" x1="640.00" y1="430.00" y2="350.00" /><line style="stroke:blue;fill:blue;" id="25794" x2="740.00" x1="640.00" y1="430.00" y2="430.00" /><line style="stroke:blue;fill:blue;" id="25795" x2="657.68" x1="640.00" y1="480.00" y2="542.32" /><line style="stroke:blue;fill:blue;" id="25796" x2="860.00" x1="640.00" y1="480.00" y2="480.00" /><line style="stroke:blue;fill:blue;" id="25797" x2="692.32" x1="640.00" y1="480.00" y2="507.68" /><line style="stroke:blue;fill:blue;" id="25798" x2="640.00" x1="640.00" y1="480.00" y2="430.00" /><line style="stroke:blue;fill:blue;" id="25799" x2="740.00" x1="640.00" y1="480.00" y2="430.00" /><line style="stroke:blue;fill:blue;" id="25800" x2="660.00" x1="650.00" y1="180.00" y2="230.00" /><line style="stroke:blue;fill:blue;" id="25801" x2="690.00" x1="650.00" y1="180.00" y2="150.00" /><line style="stroke:blue;fill:blue;" id="25802" x2="610.00" x1="650.00" y1="180.00" y2="130.00" /><line style="stroke:blue;fill:blue;" id="25803" x2="660.00" x1="660.00" y1="230.00" y2="280.00" /><line style="stroke:blue;fill:blue;" id="25804" x2="650.00" x1="660.00" y1="230.00" y2="180.00" /><line style="stroke:blue;fill:blue;" id="25805" x2="500.00" x1="660.00" y1="650.00" y2="550.00" /><line style="stroke:blue;fill:blue;" id="25806" x2="720.00" x1="660.00" y1="650.00" y2="650.00" /><line style="stroke:blue;fill:blue;" id="25807" x2="580.00" x1="660.00" y1="280.00" y2="280.00" /><line style="stroke:blue;fill:blue;" id="25808" x2="760.00" x1="660.00" y1="280.00" y2="280.00" /><line style="stroke:blue;fill:blue;" id="25809" x2="830.00" x1="660.00" y1="280.00" y2="350.00" /><line style="stroke:blue;fill:blue;" id="25810" x2="660.00" x1="660.00" y1="280.00" y2="230.00" /><line style="stroke:blue;fill:blue;" id="25811" x2="640.00" x1="660.00" y1="350.00" y2="430.00" /><line style="stroke:blue;fill:blue;" id="25812" x2="740.00" x1="660.00" y1="350.00" y2="380.00" /><line style="stroke:blue;fill:blue;" id="25813" x2="650.00" x1="690.00" y1="150.00" y2="180.00" /><line style="stroke:blue;fill:blue;" id="25814" x2="707.68" x1="690.00" y1="150.00" y2="97.68" /><line style="stroke:blue;fill:blue;" id="25815" x2="742.32" x1="690.00" y1="150.00" y2="132.32" /><line style="stroke:blue;fill:blue;" id="25816" x2="690.00" x1="707.68" y1="97.68" y2="150.00" /><line style="stroke:blue;fill:blue;" id="25817" x2="742.32" x1="707.68" y1="97.68" y2="132.32" /><line style="stroke:blue;fill:blue;" id="25818" x2="640.00" x1="692.32" y1="507.68" y2="480.00" /><line style="stroke:blue;fill:blue;" id="25819" x2="690.00" x1="720.00" y1="650.00" y2="590.00" /><line style="stroke:blue;fill:blue;" id="25820" x2="660.00" x1="720.00" y1="650.00" y2="650.00" /><line style="stroke:blue;fill:blue;" id="25821" x2="780.00" x1="720.00" y1="650.00" y2="660.00" /><line style="stroke:blue;fill:blue;" id="25822" x2="640.00" x1="740.00" y1="430.00" y2="480.00" /><line style="stroke:blue;fill:blue;" id="25823" x2="640.00" x1="740.00" y1="430.00" y2="430.00" /><line style="stroke:blue;fill:blue;" id="25824" x2="740.00" x1="740.00" y1="430.00" y2="380.00" /><line style="stroke:blue;fill:blue;" id="25825" x2="690.00" x1="742.32" y1="132.32" y2="150.00" /><line style="stroke:blue;fill:blue;" id="25826" x2="707.68" x1="742.32" y1="132.32" y2="97.68" /><line style="stroke:blue;fill:blue;" id="25827" x2="810.00" x1="742.32" y1="132.32" y2="180.00" /><line style="stroke:blue;fill:blue;" id="25828" x2="660.00" x1="740.00" y1="380.00" y2="350.00" /><line style="stroke:blue;fill:blue;" id="25829" x2="740.00" x1="740.00" y1="380.00" y2="430.00" /><line style="stroke:blue;fill:blue;" id="25830" x2="660.00" x1="760.00" y1="280.00" y2="280.00" /><line style="stroke:blue;fill:blue;" id="25831" x2="940.00" x1="760.00" y1="280.00" y2="280.00" /><line style="stroke:blue;fill:blue;" id="25832" x2="810.00" x1="780.00" y1="660.00" y2="590.00" /><line style="stroke:blue;fill:blue;" id="25833" x2="720.00" x1="780.00" y1="660.00" y2="650.00" /><line style="stroke:blue;fill:blue;" id="25834" x2="742.32" x1="810.00" y1="180.00" y2="132.32" /><line style="stroke:blue;fill:blue;" id="25835" x2="810.00" x1="810.00" y1="180.00" y2="230.00" /><line style="stroke:blue;fill:blue;" id="25836" x2="660.00" x1="830.00" y1="350.00" y2="280.00" /><line style="stroke:blue;fill:blue;" id="25837" x2="860.00" x1="830.00" y1="350.00" y2="480.00" /><line style="stroke:blue;fill:blue;" id="25838" x2="840.00" x1="860.00" y1="480.00" y2="530.00" /><line style="stroke:blue;fill:blue;" id="25839" x2="830.00" x1="860.00" y1="480.00" y2="350.00" /><line style="stroke:blue;fill:blue;" id="25840" x2="640.00" x1="860.00" y1="480.00" y2="480.00" /><line style="stroke:blue;fill:blue;" id="25841" x2="960.00" x1="860.00" y1="80.00" y2="100.00" /><line style="stroke:blue;fill:blue;" id="25842" x2="860.00" x1="860.00" y1="80.00" y2="130.00" /><line style="stroke:blue;fill:blue;" id="25843" x2="960.00" x1="860.00" y1="130.00" y2="150.00" /><line style="stroke:blue;fill:blue;" id="25844" x2="860.00" x1="860.00" y1="130.00" y2="180.00" /><line style="stroke:blue;fill:blue;" id="25845" x2="860.00" x1="860.00" y1="130.00" y2="80.00" /><line style="stroke:blue;fill:blue;" id="25846" x2="960.00" x1="860.00" y1="180.00" y2="150.00" /><line style="stroke:blue;fill:blue;" id="25847" x2="910.00" x1="860.00" y1="180.00" y2="200.00" /><line style="stroke:blue;fill:blue;" id="25848" x2="860.00" x1="860.00" y1="180.00" y2="130.00" /><line style="stroke:blue;fill:blue;" id="25849" x2="940.00" x1="910.00" y1="200.00" y2="280.00" /><line style="stroke:blue;fill:blue;" id="25850" x2="960.00" x1="910.00" y1="200.00" y2="150.00" /><line style="stroke:blue;fill:blue;" id="25851" x2="860.00" x1="910.00" y1="200.00" y2="180.00" /><line style="stroke:blue;fill:blue;" id="25852" x2="1010.00" x1="940.00" y1="280.00" y2="300.00" /><line style="stroke:blue;fill:blue;" id="25853" x2="940.00" x1="940.00" y1="280.00" y2="330.00" /><line style="stroke:blue;fill:blue;" id="25854" x2="760.00" x1="940.00" y1="280.00" y2="280.00" /><line style="stroke:blue;fill:blue;" id="25855" x2="910.00" x1="940.00" y1="280.00" y2="200.00" /><line style="stroke:blue;fill:blue;" id="25856" x2="1010.00" x1="940.00" y1="280.00" y2="230.00" /><line style="stroke:blue;fill:blue;" id="25857" x2="1010.00" x1="940.00" y1="330.00" y2="300.00" /><line style="stroke:blue;fill:blue;" id="25858" x2="940.00" x1="940.00" y1="330.00" y2="280.00" /><line style="stroke:blue;fill:blue;" id="25859" x2="940.00" x1="940.00" y1="330.00" y2="400.00" /><line style="stroke:blue;fill:blue;" id="25860" x2="940.00" x1="940.00" y1="400.00" y2="330.00" /><line style="stroke:blue;fill:blue;" id="25861" x2="935.50" x1="940.00" y1="400.00" y2="450.00" /><line style="stroke:blue;fill:blue;" id="25862" x2="940.00" x1="935.50" y1="450.00" y2="400.00" /><line style="stroke:blue;fill:blue;" id="25863" x2="940.00" x1="935.50" y1="450.00" y2="500.00" /><line style="stroke:blue;fill:blue;" id="25864" x2="984.50" x1="935.50" y1="450.00" y2="450.00" /><line style="stroke:blue;fill:blue;" id="25865" x2="935.50" x1="940.00" y1="500.00" y2="450.00" /><line style="stroke:blue;fill:blue;" id="25866" x2="938.09" x1="940.00" y1="500.00" y2="550.96" /><line style="stroke:blue;fill:blue;" id="25867" x2="981.91" x1="940.00" y1="500.00" y2="529.04" /><line style="stroke:blue;fill:blue;" id="25868" x2="940.00" x1="938.09" y1="550.96" y2="600.00" /><line style="stroke:blue;fill:blue;" id="25869" x2="940.00" x1="938.09" y1="550.96" y2="500.00" /><line style="stroke:blue;fill:blue;" id="25870" x2="960.00" x1="960.00" y1="100.00" y2="150.00" /><line style="stroke:blue;fill:blue;" id="25871" x2="860.00" x1="960.00" y1="100.00" y2="80.00" /><line style="stroke:blue;fill:blue;" id="25872" x2="1010.00" x1="960.00" y1="100.00" y2="100.00" /><line style="stroke:blue;fill:blue;" id="25873" x2="910.00" x1="960.00" y1="150.00" y2="200.00" /><line style="stroke:blue;fill:blue;" id="25874" x2="860.00" x1="960.00" y1="150.00" y2="180.00" /><line style="stroke:blue;fill:blue;" id="25875" x2="960.00" x1="960.00" y1="150.00" y2="100.00" /><line style="stroke:blue;fill:blue;" id="25876" x2="860.00" x1="960.00" y1="150.00" y2="130.00" /><line style="stroke:blue;fill:blue;" id="25877" x2="1010.00" x1="960.00" y1="150.00" y2="150.00" /><line style="stroke:blue;fill:blue;" id="25878" x2="935.50" x1="984.50" y1="450.00" y2="450.00" /><line style="stroke:blue;fill:blue;" id="25879" x2="981.91" x1="984.50" y1="450.00" y2="529.04" /><line style="stroke:blue;fill:blue;" id="25880" x2="940.00" x1="981.91" y1="529.04" y2="500.00" /><line style="stroke:blue;fill:blue;" id="25881" x2="984.50" x1="981.91" y1="529.04" y2="450.00" /><line style="stroke:blue;fill:blue;" id="25882" x2="1010.00" x1="981.91" y1="529.04" y2="580.00" /><line style="stroke:blue;fill:blue;" id="25883" x2="120.00" x1="120.00" y1="500.00" y2="550.00" /><line style="stroke:blue;fill:blue;" id="25884" x2="200.00" x1="120.00" y1="500.00" y2="450.00" /><line style="stroke:blue;fill:blue;" id="25885" x2="120.00" x1="120.00" y1="550.00" y2="500.00" /><line style="stroke:blue;fill:blue;" id="25886" x2="150.00" x1="120.00" y1="550.00" y2="650.00" /><line style="stroke:blue;fill:blue;" id="25887" x2="200.00" x1="150.00" y1="400.00" y2="450.00" /><line style="stroke:blue;fill:blue;" id="25888" x2="200.00" x1="200.00" y1="400.00" y2="450.00" /><line style="stroke:blue;fill:blue;" id="25889" x2="150.00" x1="300.00" y1="700.00" y2="650.00" /><line style="stroke:blue;fill:blue;" id="25890" x2="450.00" x1="300.00" y1="700.00" y2="680.00" /><line style="stroke:blue;fill:blue;" id="25891" x2="380.00" x1="320.00" y1="50.00" y2="120.00" /><line style="stroke:blue;fill:blue;" id="25892" x2="380.00" x1="450.00" y1="50.00" y2="120.00" /><line style="stroke:blue;fill:blue;" id="25893" x2="450.00" x1="500.00" y1="620.00" y2="580.00" /><line style="stroke:blue;fill:blue;" id="25894" x2="450.00" x1="500.00" y1="620.00" y2="680.00" /><line style="stroke:blue;fill:blue;" id="25895" x2="450.00" x1="520.00" y1="720.00" y2="680.00" /><line style="stroke:blue;fill:blue;" id="25896" x2="690.00" x1="657.68" y1="542.32" y2="590.00" /><line style="stroke:blue;fill:blue;" id="25897" x2="640.00" x1="657.68" y1="542.32" y2="480.00" /><line style="stroke:blue;fill:blue;" id="25898" x2="657.68" x1="690.00" y1="590.00" y2="542.32" /><line style="stroke:blue;fill:blue;" id="25899" x2="720.00" x1="690.00" y1="590.00" y2="650.00" /><line style="stroke:blue;fill:blue;" id="25900" x2="810.00" x1="810.00" y1="230.00" y2="180.00" /><line style="stroke:blue;fill:blue;" id="25901" x2="780.00" x1="810.00" y1="590.00" y2="660.00" /><line style="stroke:blue;fill:blue;" id="25902" x2="860.00" x1="840.00" y1="530.00" y2="480.00" /><line style="stroke:blue;fill:blue;" id="25903" x2="938.09" x1="940.00" y1="600.00" y2="550.96" /><line style="stroke:blue;fill:blue;" id="25904" x2="940.00" x1="1010.00" y1="230.00" y2="280.00" /><line style="stroke:blue;fill:blue;" id="25905" x2="940.00" x1="1010.00" y1="300.00" y2="280.00" /><line style="stroke:blue;fill:blue;" id="25906" x2="940.00" x1="1010.00" y1="300.00" y2="330.00" /><line style="stroke:blue;fill:blue;" id="25907" x2="981.91" x1="1010.00" y1="580.00" y2="529.04" /><line style="stroke:blue;fill:blue;" id="25908" x2="960.00" x1="1010.00" y1="100.00" y2="100.00" /><line style="stroke:blue;fill:blue;" id="25909" x2="960.00" x1="1010.00" y1="150.00" y2="150.00" /></svg>
