<?xml version="1.0" standalone="yes"?><!DOCTYPE svg PUBLIC "-//W3C//DTD SVG 1.1//EN" "http://www.w3.org/Graphics/SVG/1.1/DTD/svg11.dtd"[]><svg height="800.00" id="30343" width="1050.00" xmlns="http://www.w3.org/2000/svg" xmlns:xlink="http://www.w3.org/1999/xlink"><rect Type="system" Region="特布特" height="5.00" y="50.00" Name="Y-PZHM" width="5.00" x="20.00" id="30344" ID="30000884" /><text x="20.00" y="50.00" id="30345">Y-PZHM</text><rect Type="system" Region="特布特" height="5.00" y="200.00" Name="OY-UZ1" width="5.00" x="50.00" id="30347" ID="30000885" /><text x="50.00" y="200.00" id="30348">OY-UZ1</text><rect Type="system" Region="特布特" height="5.00" y="100.00" Name="9SL-K9" width="5.00" x="50.00" id="30350" ID="30000883" /><text x="50.00" y="100.00" id="30351">9SL-K9</text><rect Type="system" Region="特布特" height="5.00" y="600.00" Name="C8VC-S" width="5.00" x="50.00" id="30353" ID="30000892" /><text x="50.00" y="600.00" id="30354">C8VC-S</text><rect Type="system" Region="特布特" height="5.00" y="150.00" Name="X-CFN6" width="5.00" x="50.00" id="30356" ID="30000882" /><text x="50.00" y="150.00" id="30357">X-CFN6</text><rect Type="system" Region="特布特" height="5.00" y="320.00" Name="NL6V-7" width="5.00" x="80.00" id="30359" ID="30000855" /><text x="80.00" y="320.00" id="30360">NL6V-7</text><rect Type="system" Region="特布特" height="5.00" y="400.00" Name="GKP-YT" width="5.00" x="80.00" id="30362" ID="30000859" /><text x="80.00" y="400.00" id="30363">GKP-YT</text><rect Type="system" Region="特布特" height="5.00" y="680.00" Name="W-UQA5" width="5.00" x="80.00" id="30365" ID="30000893" /><text x="80.00" y="680.00" id="30366">W-UQA5</text><rect Type="system" Region="特布特" height="5.00" y="167.68" Name="YLS8-J" width="5.00" x="97.68" id="30368" ID="30000880" /><text x="97.68" y="167.68" id="30369">YLS8-J</text><rect Type="system" Region="特布特" height="5.00" y="552.32" Name="L-VXTK" width="5.00" x="97.68" id="30371" ID="30000891" /><text x="97.68" y="552.32" id="30372">L-VXTK</text><rect Type="system" Region="特布特" height="5.00" y="517.68" Name="GIH-ZG" width="5.00" x="132.32" id="30374" ID="30000887" /><text x="132.32" y="517.68" id="30375">GIH-ZG</text><rect Type="system" Region="特布特" height="5.00" y="621.20" Name="K-6SNI" width="5.00" x="119.12" id="30377" ID="30000890" /><text x="119.12" y="621.20" id="30378">K-6SNI</text><rect Type="system" Region="特布特" height="5.00" y="202.32" Name="DL1C-E" width="5.00" x="132.32" id="30380" ID="30000879" /><text x="132.32" y="202.32" id="30381">DL1C-E</text><rect Type="system" Region="特布特" height="5.00" y="450.00" Name="S8-NSQ" width="5.00" x="150.00" id="30383" ID="30000886" /><text x="150.00" y="450.00" id="30384">S8-NSQ</text><rect Type="system" Region="特布特" height="5.00" y="250.00" Name="0-YMBJ" width="5.00" x="150.00" id="30386" ID="30000857" /><text x="150.00" y="250.00" id="30387">0-YMBJ</text><rect Type="system" Region="特布特" height="5.00" y="300.00" Name="A-DDGY" width="5.00" x="150.00" id="30389" ID="30000852" /><text x="150.00" y="300.00" id="30390">A-DDGY</text><rect Type="system" Region="特布特" height="5.00" y="350.00" Name="F-749O" width="5.00" x="150.00" id="30392" ID="30000856" /><text x="150.00" y="350.00" id="30393">F-749O</text><rect Type="system" Region="特布特" height="5.00" y="400.00" Name="B-S42H" width="5.00" x="150.00" id="30395" ID="30000854" /><text x="150.00" y="400.00" id="30396">B-S42H</text><rect Type="system" Region="特布特" height="5.00" y="581.64" Name="XD-TOV" width="5.00" x="148.03" id="30398" ID="30000889" /><text x="148.03" y="581.64" id="30399">XD-TOV</text><rect Type="system" Region="特布特" height="5.00" y="150.00" Name="2ISU-Y" width="5.00" x="150.00" id="30401" ID="30000881" /><text x="150.00" y="150.00" id="30402">2ISU-Y</text><rect Type="system" Region="特布特" height="5.00" y="650.00" Name="PBD-0G" width="5.00" x="180.00" id="30404" ID="30000873" /><text x="180.00" y="650.00" id="30405">PBD-0G</text><rect Type="system" Region="特布特" height="5.00" y="547.16" Name="V7-FB4" width="5.00" x="182.85" id="30407" ID="30000888" /><text x="182.85" y="547.16" id="30408">V7-FB4</text><rect Type="system" Region="特布特" height="5.00" y="620.00" Name="9GI-FB" width="5.00" x="220.00" id="30410" ID="30000875" /><text x="220.00" y="620.00" id="30411">9GI-FB</text><rect Type="system" Region="维纳尔" height="5.00" y="180.00" Name="Y-W1Q3" width="5.00" x="220.00" id="30413" ID="30001261" /><text x="220.00" y="180.00" id="30414">Y-W1Q3</text><rect Type="system" Region="特布特" height="5.00" y="250.00" Name="UMI-KK" width="5.00" x="220.00" id="30416" ID="30000858" /><text x="220.00" y="250.00" id="30417">UMI-KK</text><rect Type="system" Region="特布特" height="5.00" y="320.00" Name="AW1-2I" width="5.00" x="220.00" id="30419" ID="30000860" /><text x="220.00" y="320.00" id="30420">AW1-2I</text><rect Type="system" Region="特布特" height="5.00" y="400.00" Name="F-RT6Q" width="5.00" x="220.00" id="30422" ID="30000853" /><text x="220.00" y="400.00" id="30423">F-RT6Q</text><rect Type="system" Region="维纳尔" height="5.00" y="124.50" Name="Y6-HPG" width="5.00" x="250.00" id="30425" ID="30001262" /><text x="250.00" y="124.50" id="30426">Y6-HPG</text><rect Type="system" Region="特布特" height="5.00" y="680.00" Name="L-1HKR" width="5.00" x="250.00" id="30428" ID="30000874" /><text x="250.00" y="680.00" id="30429">L-1HKR</text><rect Type="system" Region="维纳尔" height="5.00" y="75.50" Name="KK-L97" width="5.00" x="250.00" id="30431" ID="30001264" /><text x="250.00" y="75.50" id="30432">KK-L97</text><rect Type="system" Region="特布特" height="5.00" y="450.00" Name="N-FK87" width="5.00" x="250.00" id="30434" ID="30000862" /><text x="250.00" y="450.00" id="30435">N-FK87</text><rect Type="system" Region="特布特" height="5.00" y="580.00" Name="DBT-GB" width="5.00" x="280.00" id="30437" ID="30000877" /><text x="280.00" y="580.00" id="30438">DBT-GB</text><rect Type="system" Region="维纳尔" height="5.00" y="50.00" Name="N-Q5PW" width="5.00" x="300.00" id="30440" ID="30001267" /><text x="300.00" y="50.00" id="30441">N-Q5PW</text><rect Type="system" Region="特布特" height="5.00" y="650.00" Name="3G-LHB" width="5.00" x="300.00" id="30443" ID="30000876" /><text x="300.00" y="650.00" id="30444">3G-LHB</text><rect Type="system" Region="特布特" height="5.00" y="700.00" Name="U-W3WS" width="5.00" x="300.00" id="30446" ID="30000878" /><text x="300.00" y="700.00" id="30447">U-W3WS</text><rect Type="system" Region="特布特" height="5.00" y="500.00" Name="PNDN-V" width="5.00" x="320.00" id="30449" ID="30000866" /><text x="320.00" y="500.00" id="30450">PNDN-V</text><rect Type="system" Region="维纳尔" height="5.00" y="50.00" Name="P-FSQE" width="5.00" x="350.00" id="30452" ID="30001268" /><text x="350.00" y="50.00" id="30453">P-FSQE</text><rect Type="system" Region="特布特" height="5.00" y="280.00" Name="TRKN-L" width="5.00" x="380.00" id="30455" ID="30000869" /><text x="380.00" y="280.00" id="30456">TRKN-L</text><rect Type="system" Region="特布特" height="5.00" y="640.00" Name="FY0W-N" width="5.00" x="370.00" id="30458" ID="30000850" /><text x="370.00" y="640.00" id="30459">FY0W-N</text><rect Type="system" Region="特布特" height="5.00" y="730.00" Name="MJI3-8" width="5.00" x="400.00" id="30461" ID="30000851" /><text x="400.00" y="730.00" id="30462">MJI3-8</text><rect Type="system" Region="特布特" height="5.00" y="500.00" Name="15W-GC" width="5.00" x="400.00" id="30464" ID="30000861" /><text x="400.00" y="500.00" id="30465">15W-GC</text><rect Type="system" Region="特布特" height="5.00" y="600.00" Name="J-GAMP" width="5.00" x="400.00" id="30467" ID="30000847" /><text x="400.00" y="600.00" id="30468">J-GAMP</text><rect Type="system" Region="特布特" height="5.00" y="680.00" Name="V0DF-2" width="5.00" x="410.00" id="30470" ID="30000849" /><text x="410.00" y="680.00" id="30471">V0DF-2</text><rect Type="system" Region="维纳尔" height="5.00" y="40.00" Name="H-PA29" width="5.00" x="410.00" id="30473" ID="30001269" /><text x="410.00" y="40.00" id="30474">H-PA29</text><rect Type="system" Region="特布特" height="5.00" y="250.00" Name="O-0ERG" width="5.00" x="450.00" id="30476" ID="30000870" /><text x="450.00" y="250.00" id="30477">O-0ERG</text><rect Type="system" Region="特布特" height="5.00" y="300.00" Name="SH1-6P" width="5.00" x="450.00" id="30479" ID="30000868" /><text x="450.00" y="300.00" id="30480">SH1-6P</text><rect Type="system" Region="特布特" height="5.00" y="550.00" Name="E-OGL4" width="5.00" x="450.00" id="30482" ID="30000846" /><text x="450.00" y="550.00" id="30483">E-OGL4</text><rect Type="system" Region="特布特" height="5.00" y="650.00" Name="M-OEE8" width="5.00" x="450.00" id="30485" ID="30000848" /><text x="450.00" y="650.00" id="30486">M-OEE8</text><rect Type="system" Region="特布特" height="5.00" y="480.00" Name="C2X-M5" width="5.00" x="480.00" id="30488" ID="30000863" /><text x="480.00" y="480.00" id="30489">C2X-M5</text><rect Type="system" Region="维纳尔" height="5.00" y="105.22" Name="N6G-H3" width="5.00" x="488.79" id="30491" ID="30001280" /><text x="488.79" y="105.22" id="30492">N6G-H3</text><rect Type="system" Region="维纳尔" height="5.00" y="152.61" Name="3A1P-N" width="5.00" x="501.25" id="30494" ID="30001281" /><text x="501.25" y="152.61" id="30495">3A1P-N</text><rect Type="system" Region="特布特" height="5.00" y="201.59" Name="Q-CAB2" width="5.00" x="499.95" id="30497" ID="30000872" /><text x="499.95" y="201.59" id="30498">Q-CAB2</text><rect Type="system" Region="特布特" height="5.00" y="424.50" Name="MSHD-4" width="5.00" x="500.00" id="30500" ID="30000864" /><text x="500.00" y="424.50" id="30501">MSHD-4</text><rect Type="system" Region="特布特" height="5.00" y="250.59" Name="WH-JCA" width="5.00" x="500.00" id="30503" ID="30000871" /><text x="500.00" y="250.59" id="30504">WH-JCA</text><rect Type="system" Region="特布特" height="5.00" y="300.00" Name="D7-ZAC" width="5.00" x="500.00" id="30506" ID="30000867" /><text x="500.00" y="300.00" id="30507">D7-ZAC</text><rect Type="system" Region="特布特" height="5.00" y="375.50" Name="H-W9TY" width="5.00" x="500.00" id="30509" ID="30000865" /><text x="500.00" y="375.50" id="30510">H-W9TY</text><rect Type="system" Region="静寂谷" height="5.00" y="500.00" Name="9OO-LH" width="5.00" x="550.00" id="30512" ID="30000247" /><text x="550.00" y="500.00" id="30513">9OO-LH</text><rect Type="system" Region="长征" height="5.00" y="730.00" Name="哈克农" width="5.00" x="550.00" id="30515" ID="30001448" /><text x="550.00" y="730.00" id="30516">哈克农</text><rect Type="system" Region="特布特" height="5.00" y="200.00" Name="W6VP-Y" width="5.00" x="550.00" id="30518" ID="30000894" /><text x="550.00" y="200.00" id="30519">W6VP-Y</text><rect Type="system" Region="特布特" height="5.00" y="150.00" Name="IMK-K1" width="5.00" x="600.00" id="30521" ID="30000895" /><text x="600.00" y="150.00" id="30522">IMK-K1</text><rect Type="system" Region="静寂谷" height="5.00" y="250.00" Name="0J3L-V" width="5.00" x="620.00" id="30524" ID="30000267" /><text x="620.00" y="250.00" id="30525">0J3L-V</text><rect Type="system" Region="特布特" height="5.00" y="120.00" Name="NJ4X-S" width="5.00" x="650.00" id="30527" ID="30000896" /><text x="650.00" y="120.00" id="30528">NJ4X-S</text><rect Type="system" Region="特布特" height="5.00" y="100.00" Name="F-G7BO" width="5.00" x="700.00" id="30530" ID="30000897" /><text x="700.00" y="100.00" id="30531">F-G7BO</text><rect Type="system" Region="静寂谷" height="5.00" y="730.00" Name="P3EN-E" width="5.00" x="700.00" id="30533" ID="30000250" /><text x="700.00" y="730.00" id="30534">P3EN-E</text><rect Type="system" Region="静寂谷" height="5.00" y="630.00" Name="EIDI-N" width="5.00" x="700.00" id="30536" ID="30000249" /><text x="700.00" y="630.00" id="30537">EIDI-N</text><rect Type="system" Region="特布特" height="5.00" y="80.00" Name="2CG-5V" width="5.00" x="780.00" id="30539" ID="30000898" /><text x="780.00" y="80.00" id="30540">2CG-5V</text><rect Type="system" Region="静寂谷" height="5.00" y="580.00" Name="DAYP-G" width="5.00" x="800.00" id="30542" ID="30000253" /><text x="800.00" y="580.00" id="30543">DAYP-G</text><rect Type="system" Region="特布特" height="5.00" y="80.00" Name="QFF-O6" width="5.00" x="850.00" id="30545" ID="30000899" /><text x="850.00" y="80.00" id="30546">QFF-O6</text><rect Type="system" Region="静寂谷" height="5.00" y="180.00" Name="T-ZWA1" width="5.00" x="880.00" id="30548" ID="30000303" /><text x="880.00" y="180.00" id="30549">T-ZWA1</text><rect Type="system" Region="静寂谷" height="5.00" y="230.00" Name="1-GBBP" width="5.00" x="880.00" id="30551" ID="30000301" /><text x="880.00" y="230.00" id="30552">1-GBBP</text><rect Type="system" Region="静寂谷" height="5.00" y="280.00" Name="V-NL3K" width="5.00" x="880.00" id="30554" ID="30000264" /><text x="880.00" y="280.00" id="30555">V-NL3K</text><rect Type="system" Region="静寂谷" height="5.00" y="330.00" Name="T-GCGL" width="5.00" x="880.00" id="30557" ID="30000261" /><text x="880.00" y="330.00" id="30558">T-GCGL</text><rect Type="system" Region="静寂谷" height="5.00" y="380.00" Name="TVN-FM" width="5.00" x="880.00" id="30560" ID="30000263" /><text x="880.00" y="380.00" id="30561">TVN-FM</text><rect Type="system" Region="静寂谷" height="5.00" y="530.00" Name="4-HWWF" width="5.00" x="880.00" id="30563" ID="30000240" /><text x="880.00" y="530.00" id="30564">4-HWWF</text><rect Type="system" Region="黑渊" height="5.00" y="250.00" Name="KQK1-2" width="5.00" x="50.00" id="30566" ID="30001963" /><text x="50.00" y="250.00" id="30567">KQK1-2</text><rect Type="system" Region="维纳尔" height="5.00" y="100.00" Name="Z-GY5S" width="5.00" x="180.00" id="30569" ID="30001263" /><text x="180.00" y="100.00" id="30570">Z-GY5S</text><rect Type="system" Region="维纳尔" height="5.00" y="100.00" Name="92K-H2" width="5.00" x="350.00" id="30572" ID="30001284" /><text x="350.00" y="100.00" id="30573">92K-H2</text><rect Type="system" Region="维纳尔" height="5.00" y="180.00" Name="OZ-VAE" width="5.00" x="380.00" id="30575" ID="30001282" /><text x="380.00" y="180.00" id="30576">OZ-VAE</text><rect Type="system" Region="维纳尔" height="5.00" y="120.00" Name="A-AFGR" width="5.00" x="400.00" id="30578" ID="30001283" /><text x="400.00" y="120.00" id="30579">A-AFGR</text><rect Type="system" Region="维纳尔" height="5.00" y="70.00" Name="9-266Q" width="5.00" x="450.00" id="30581" ID="30001273" /><text x="450.00" y="70.00" id="30582">9-266Q</text><rect Type="system" Region="长征" height="5.00" y="700.00" Name="塔伊斯" width="5.00" x="480.00" id="30584" ID="30001447" /><text x="480.00" y="700.00" id="30585">塔伊斯</text><rect Type="system" Region="长征" height="5.00" y="750.00" Name="欧塔萨塞" width="5.00" x="500.00" id="30587" ID="30001446" /><text x="500.00" y="750.00" id="30588">欧塔萨塞</text><rect Type="system" Region="维纳尔" height="5.00" y="20.00" Name="1-Y6KI" width="5.00" x="500.00" id="30590" ID="30001270" /><text x="500.00" y="20.00" id="30591">1-Y6KI</text><rect Type="system" Region="静寂谷" height="5.00" y="550.00" Name="UH-9ZG" width="5.00" x="520.00" id="30593" ID="30000229" /><text x="520.00" y="550.00" id="30594">UH-9ZG</text><rect Type="system" Region="静寂谷" height="5.00" y="580.00" Name="K8X-6B" width="5.00" x="630.00" id="30596" ID="30000244" /><text x="630.00" y="580.00" id="30597">K8X-6B</text><rect Type="system" Region="维纳尔" height="5.00" y="50.00" Name="G9D-XW" width="5.00" x="620.00" id="30599" ID="30001348" /><text x="620.00" y="50.00" id="30600">G9D-XW</text><rect Type="system" Region="伏尔戈" height="5.00" y="730.00" Name="欧贝" width="5.00" x="630.00" id="30602" ID="30000205" /><text x="630.00" y="730.00" id="30603">欧贝</text><rect Type="system" Region="静寂谷" height="5.00" y="480.00" Name="X445-5" width="5.00" x="650.00" id="30605" ID="30000245" /><text x="650.00" y="480.00" id="30606">X445-5</text><rect Type="system" Region="静寂谷" height="5.00" y="580.00" Name="KRUN-N" width="5.00" x="700.00" id="30608" ID="30000246" /><text x="700.00" y="580.00" id="30609">KRUN-N</text><rect Type="system" Region="静寂谷" height="5.00" y="280.00" Name="Z-8Q65" width="5.00" x="700.00" id="30611" ID="30000266" /><text x="700.00" y="280.00" id="30612">Z-8Q65</text><rect Type="system" Region="静寂谷" height="5.00" y="680.00" Name="IPAY-2" width="5.00" x="700.00" id="30614" ID="30000252" /><text x="700.00" y="680.00" id="30615">IPAY-2</text><rect Type="system" Region="静寂谷" height="5.00" y="20.00" Name="Y5J-EU" width="5.00" x="780.00" id="30617" ID="30000308" /><text x="780.00" y="20.00" id="30618">Y5J-EU</text><rect Type="system" Region="静寂谷" height="5.00" y="420.00" Name="8TPX-N" width="5.00" x="800.00" id="30620" ID="30000242" /><text x="800.00" y="420.00" id="30621">8TPX-N</text><rect Type="system" Region="静寂谷" height="5.00" y="310.00" Name="AZBR-2" width="5.00" x="800.00" id="30623" ID="30000265" /><text x="800.00" y="310.00" id="30624">AZBR-2</text><rect Type="system" Region="静寂谷" height="5.00" y="650.00" Name="V-OJEN" width="5.00" x="880.00" id="30626" ID="30000248" /><text x="880.00" y="650.00" id="30627">V-OJEN</text><rect Type="system" Region="静寂谷" height="5.00" y="430.00" Name="WBR5-R" width="5.00" x="880.00" id="30629" ID="30000238" /><text x="880.00" y="430.00" id="30630">WBR5-R</text><rect Type="system" Region="静寂谷" height="5.00" y="480.00" Name="4GYV-Q" width="5.00" x="880.00" id="30632" ID="30000239" /><text x="880.00" y="480.00" id="30633">4GYV-Q</text><rect Type="system" Region="静寂谷" height="5.00" y="580.00" Name="YMJG-4" width="5.00" x="880.00" id="30635" ID="30000241" /><text x="880.00" y="580.00" id="30636">YMJG-4</text><rect Type="system" Region="静寂谷" height="5.00" y="450.00" Name="PM-DWE" width="5.00" x="950.00" id="30638" ID="30000243" /><text x="950.00" y="450.00" id="30639">PM-DWE</text><rect Type="system" Region="静寂谷" height="5.00" y="180.00" Name="C-FP70" width="5.00" x="950.00" id="30641" ID="30000302" /><text x="950.00" y="180.00" id="30642">C-FP70</text><rect Type="system" Region="静寂谷" height="5.00" y="230.00" Name="ZA0L-U" width="5.00" x="950.00" id="30644" ID="30000304" /><text x="950.00" y="230.00" id="30645">ZA0L-U</text><rect Type="system" Region="静寂谷" height="5.00" y="350.00" Name="0MV-4W" width="5.00" x="950.00" id="30647" ID="30000262" /><text x="950.00" y="350.00" id="30648">0MV-4W</text><line x2="50.00" style="fill:blue;stroke:blue;" y1="50.00" x1="20.00" id="30650" y2="100.00" /><line x2="97.68" style="fill:blue;stroke:blue;" y1="200.00" x1="50.00" id="30651" y2="167.68" /><line x2="50.00" style="fill:blue;stroke:blue;" y1="100.00" x1="50.00" id="30652" y2="150.00" /><line x2="20.00" style="fill:blue;stroke:blue;" y1="100.00" x1="50.00" id="30653" y2="50.00" /><line x2="97.68" style="fill:blue;stroke:blue;" y1="600.00" x1="50.00" id="30654" y2="552.32" /><line x2="97.68" style="fill:blue;stroke:blue;" y1="150.00" x1="50.00" id="30655" y2="167.68" /><line x2="50.00" style="fill:blue;stroke:blue;" y1="150.00" x1="50.00" id="30656" y2="100.00" /><line x2="150.00" style="fill:blue;stroke:blue;" y1="320.00" x1="80.00" id="30657" y2="350.00" /><line x2="80.00" style="fill:blue;stroke:blue;" y1="320.00" x1="80.00" id="30658" y2="400.00" /><line x2="150.00" style="fill:blue;stroke:blue;" y1="400.00" x1="80.00" id="30659" y2="400.00" /><line x2="80.00" style="fill:blue;stroke:blue;" y1="400.00" x1="80.00" id="30660" y2="320.00" /><line x2="119.12" style="fill:blue;stroke:blue;" y1="680.00" x1="80.00" id="30661" y2="621.20" /><line x2="132.32" style="fill:blue;stroke:blue;" y1="167.68" x1="97.68" id="30662" y2="202.32" /><line x2="50.00" style="fill:blue;stroke:blue;" y1="167.68" x1="97.68" id="30663" y2="150.00" /><line x2="50.00" style="fill:blue;stroke:blue;" y1="167.68" x1="97.68" id="30664" y2="200.00" /><line x2="132.32" style="fill:blue;stroke:blue;" y1="552.32" x1="97.68" id="30665" y2="517.68" /><line x2="148.03" style="fill:blue;stroke:blue;" y1="552.32" x1="97.68" id="30666" y2="581.64" /><line x2="119.12" style="fill:blue;stroke:blue;" y1="552.32" x1="97.68" id="30667" y2="621.20" /><line x2="50.00" style="fill:blue;stroke:blue;" y1="552.32" x1="97.68" id="30668" y2="600.00" /><line x2="150.00" style="fill:blue;stroke:blue;" y1="517.68" x1="132.32" id="30669" y2="450.00" /><line x2="182.85" style="fill:blue;stroke:blue;" y1="517.68" x1="132.32" id="30670" y2="547.16" /><line x2="148.03" style="fill:blue;stroke:blue;" y1="517.68" x1="132.32" id="30671" y2="581.64" /><line x2="97.68" style="fill:blue;stroke:blue;" y1="517.68" x1="132.32" id="30672" y2="552.32" /><line x2="148.03" style="fill:blue;stroke:blue;" y1="621.20" x1="119.12" id="30673" y2="581.64" /><line x2="97.68" style="fill:blue;stroke:blue;" y1="621.20" x1="119.12" id="30674" y2="552.32" /><line x2="80.00" style="fill:blue;stroke:blue;" y1="621.20" x1="119.12" id="30675" y2="680.00" /><line x2="220.00" style="fill:blue;stroke:blue;" y1="202.32" x1="132.32" id="30676" y2="250.00" /><line x2="97.68" style="fill:blue;stroke:blue;" y1="202.32" x1="132.32" id="30677" y2="167.68" /><line x2="150.00" style="fill:blue;stroke:blue;" y1="202.32" x1="132.32" id="30678" y2="150.00" /><line x2="150.00" style="fill:blue;stroke:blue;" y1="450.00" x1="150.00" id="30679" y2="400.00" /><line x2="132.32" style="fill:blue;stroke:blue;" y1="450.00" x1="150.00" id="30680" y2="517.68" /><line x2="220.00" style="fill:blue;stroke:blue;" y1="250.00" x1="150.00" id="30681" y2="250.00" /><line x2="50.00" style="fill:blue;stroke:blue;" y1="250.00" x1="150.00" id="30682" y2="250.00" /><line x2="150.00" style="fill:blue;stroke:blue;" y1="300.00" x1="150.00" id="30683" y2="350.00" /><line x2="150.00" style="fill:blue;stroke:blue;" y1="350.00" x1="150.00" id="30684" y2="300.00" /><line x2="220.00" style="fill:blue;stroke:blue;" y1="350.00" x1="150.00" id="30685" y2="400.00" /><line x2="150.00" style="fill:blue;stroke:blue;" y1="350.00" x1="150.00" id="30686" y2="400.00" /><line x2="80.00" style="fill:blue;stroke:blue;" y1="350.00" x1="150.00" id="30687" y2="320.00" /><line x2="220.00" style="fill:blue;stroke:blue;" y1="350.00" x1="150.00" id="30688" y2="320.00" /><line x2="220.00" style="fill:blue;stroke:blue;" y1="400.00" x1="150.00" id="30689" y2="400.00" /><line x2="150.00" style="fill:blue;stroke:blue;" y1="400.00" x1="150.00" id="30690" y2="350.00" /><line x2="80.00" style="fill:blue;stroke:blue;" y1="400.00" x1="150.00" id="30691" y2="400.00" /><line x2="220.00" style="fill:blue;stroke:blue;" y1="400.00" x1="150.00" id="30692" y2="320.00" /><line x2="150.00" style="fill:blue;stroke:blue;" y1="400.00" x1="150.00" id="30693" y2="450.00" /><line x2="132.32" style="fill:blue;stroke:blue;" y1="581.64" x1="148.03" id="30694" y2="517.68" /><line x2="182.85" style="fill:blue;stroke:blue;" y1="581.64" x1="148.03" id="30695" y2="547.16" /><line x2="119.12" style="fill:blue;stroke:blue;" y1="581.64" x1="148.03" id="30696" y2="621.20" /><line x2="97.68" style="fill:blue;stroke:blue;" y1="581.64" x1="148.03" id="30697" y2="552.32" /><line x2="132.32" style="fill:blue;stroke:blue;" y1="150.00" x1="150.00" id="30698" y2="202.32" /><line x2="220.00" style="fill:blue;stroke:blue;" y1="650.00" x1="180.00" id="30699" y2="620.00" /><line x2="132.32" style="fill:blue;stroke:blue;" y1="547.16" x1="182.85" id="30700" y2="517.68" /><line x2="148.03" style="fill:blue;stroke:blue;" y1="547.16" x1="182.85" id="30701" y2="581.64" /><line x2="180.00" style="fill:blue;stroke:blue;" y1="620.00" x1="220.00" id="30702" y2="650.00" /><line x2="250.00" style="fill:blue;stroke:blue;" y1="620.00" x1="220.00" id="30703" y2="680.00" /><line x2="280.00" style="fill:blue;stroke:blue;" y1="620.00" x1="220.00" id="30704" y2="580.00" /><line x2="220.00" style="fill:blue;stroke:blue;" y1="180.00" x1="220.00" id="30705" y2="250.00" /><line x2="250.00" style="fill:blue;stroke:blue;" y1="180.00" x1="220.00" id="30706" y2="124.50" /><line x2="150.00" style="fill:blue;stroke:blue;" y1="250.00" x1="220.00" id="30707" y2="250.00" /><line x2="220.00" style="fill:blue;stroke:blue;" y1="250.00" x1="220.00" id="30708" y2="320.00" /><line x2="132.32" style="fill:blue;stroke:blue;" y1="250.00" x1="220.00" id="30709" y2="202.32" /><line x2="220.00" style="fill:blue;stroke:blue;" y1="250.00" x1="220.00" id="30710" y2="180.00" /><line x2="220.00" style="fill:blue;stroke:blue;" y1="320.00" x1="220.00" id="30711" y2="400.00" /><line x2="150.00" style="fill:blue;stroke:blue;" y1="320.00" x1="220.00" id="30712" y2="400.00" /><line x2="150.00" style="fill:blue;stroke:blue;" y1="320.00" x1="220.00" id="30713" y2="350.00" /><line x2="220.00" style="fill:blue;stroke:blue;" y1="320.00" x1="220.00" id="30714" y2="250.00" /><line x2="150.00" style="fill:blue;stroke:blue;" y1="400.00" x1="220.00" id="30715" y2="400.00" /><line x2="150.00" style="fill:blue;stroke:blue;" y1="400.00" x1="220.00" id="30716" y2="350.00" /><line x2="220.00" style="fill:blue;stroke:blue;" y1="400.00" x1="220.00" id="30717" y2="320.00" /><line x2="250.00" style="fill:blue;stroke:blue;" y1="400.00" x1="220.00" id="30718" y2="450.00" /><line x2="220.00" style="fill:blue;stroke:blue;" y1="124.50" x1="250.00" id="30719" y2="180.00" /><line x2="180.00" style="fill:blue;stroke:blue;" y1="124.50" x1="250.00" id="30720" y2="100.00" /><line x2="250.00" style="fill:blue;stroke:blue;" y1="124.50" x1="250.00" id="30721" y2="75.50" /><line x2="220.00" style="fill:blue;stroke:blue;" y1="680.00" x1="250.00" id="30722" y2="620.00" /><line x2="250.00" style="fill:blue;stroke:blue;" y1="75.50" x1="250.00" id="30723" y2="124.50" /><line x2="180.00" style="fill:blue;stroke:blue;" y1="75.50" x1="250.00" id="30724" y2="100.00" /><line x2="300.00" style="fill:blue;stroke:blue;" y1="75.50" x1="250.00" id="30725" y2="50.00" /><line x2="220.00" style="fill:blue;stroke:blue;" y1="450.00" x1="250.00" id="30726" y2="400.00" /><line x2="320.00" style="fill:blue;stroke:blue;" y1="450.00" x1="250.00" id="30727" y2="500.00" /><line x2="320.00" style="fill:blue;stroke:blue;" y1="580.00" x1="280.00" id="30728" y2="500.00" /><line x2="220.00" style="fill:blue;stroke:blue;" y1="580.00" x1="280.00" id="30729" y2="620.00" /><line x2="300.00" style="fill:blue;stroke:blue;" y1="580.00" x1="280.00" id="30730" y2="650.00" /><line x2="250.00" style="fill:blue;stroke:blue;" y1="50.00" x1="300.00" id="30731" y2="75.50" /><line x2="350.00" style="fill:blue;stroke:blue;" y1="50.00" x1="300.00" id="30732" y2="50.00" /><line x2="280.00" style="fill:blue;stroke:blue;" y1="650.00" x1="300.00" id="30733" y2="580.00" /><line x2="300.00" style="fill:blue;stroke:blue;" y1="650.00" x1="300.00" id="30734" y2="700.00" /><line x2="300.00" style="fill:blue;stroke:blue;" y1="700.00" x1="300.00" id="30735" y2="650.00" /><line x2="400.00" style="fill:blue;stroke:blue;" y1="500.00" x1="320.00" id="30736" y2="500.00" /><line x2="250.00" style="fill:blue;stroke:blue;" y1="500.00" x1="320.00" id="30737" y2="450.00" /><line x2="280.00" style="fill:blue;stroke:blue;" y1="500.00" x1="320.00" id="30738" y2="580.00" /><line x2="300.00" style="fill:blue;stroke:blue;" y1="50.00" x1="350.00" id="30739" y2="50.00" /><line x2="410.00" style="fill:blue;stroke:blue;" y1="50.00" x1="350.00" id="30740" y2="40.00" /><line x2="450.00" style="fill:blue;stroke:blue;" y1="280.00" x1="380.00" id="30741" y2="300.00" /><line x2="450.00" style="fill:blue;stroke:blue;" y1="280.00" x1="380.00" id="30742" y2="250.00" /><line x2="400.00" style="fill:blue;stroke:blue;" y1="640.00" x1="370.00" id="30743" y2="600.00" /><line x2="450.00" style="fill:blue;stroke:blue;" y1="640.00" x1="370.00" id="30744" y2="650.00" /><line x2="410.00" style="fill:blue;stroke:blue;" y1="640.00" x1="370.00" id="30745" y2="680.00" /><line x2="410.00" style="fill:blue;stroke:blue;" y1="730.00" x1="400.00" id="30746" y2="680.00" /><line x2="450.00" style="fill:blue;stroke:blue;" y1="500.00" x1="400.00" id="30747" y2="550.00" /><line x2="480.00" style="fill:blue;stroke:blue;" y1="500.00" x1="400.00" id="30748" y2="480.00" /><line x2="320.00" style="fill:blue;stroke:blue;" y1="500.00" x1="400.00" id="30749" y2="500.00" /><line x2="450.00" style="fill:blue;stroke:blue;" y1="600.00" x1="400.00" id="30750" y2="650.00" /><line x2="370.00" style="fill:blue;stroke:blue;" y1="600.00" x1="400.00" id="30751" y2="640.00" /><line x2="450.00" style="fill:blue;stroke:blue;" y1="680.00" x1="410.00" id="30752" y2="650.00" /><line x2="370.00" style="fill:blue;stroke:blue;" y1="680.00" x1="410.00" id="30753" y2="640.00" /><line x2="400.00" style="fill:blue;stroke:blue;" y1="680.00" x1="410.00" id="30754" y2="730.00" /><line x2="350.00" style="fill:blue;stroke:blue;" y1="40.00" x1="410.00" id="30755" y2="50.00" /><line x2="500.00" style="fill:blue;stroke:blue;" y1="40.00" x1="410.00" id="30756" y2="20.00" /><line x2="450.00" style="fill:blue;stroke:blue;" y1="40.00" x1="410.00" id="30757" y2="70.00" /><line x2="450.00" style="fill:blue;stroke:blue;" y1="250.00" x1="450.00" id="30758" y2="300.00" /><line x2="380.00" style="fill:blue;stroke:blue;" y1="250.00" x1="450.00" id="30759" y2="280.00" /><line x2="500.00" style="fill:blue;stroke:blue;" y1="250.00" x1="450.00" id="30760" y2="250.59" /><line x2="500.00" style="fill:blue;stroke:blue;" y1="300.00" x1="450.00" id="30761" y2="300.00" /><line x2="380.00" style="fill:blue;stroke:blue;" y1="300.00" x1="450.00" id="30762" y2="280.00" /><line x2="450.00" style="fill:blue;stroke:blue;" y1="300.00" x1="450.00" id="30763" y2="250.00" /><line x2="450.00" style="fill:blue;stroke:blue;" y1="550.00" x1="450.00" id="30764" y2="650.00" /><line x2="400.00" style="fill:blue;stroke:blue;" y1="550.00" x1="450.00" id="30765" y2="500.00" /><line x2="450.00" style="fill:blue;stroke:blue;" y1="650.00" x1="450.00" id="30766" y2="550.00" /><line x2="400.00" style="fill:blue;stroke:blue;" y1="650.00" x1="450.00" id="30767" y2="600.00" /><line x2="410.00" style="fill:blue;stroke:blue;" y1="650.00" x1="450.00" id="30768" y2="680.00" /><line x2="370.00" style="fill:blue;stroke:blue;" y1="650.00" x1="450.00" id="30769" y2="640.00" /><line x2="480.00" style="fill:blue;stroke:blue;" y1="650.00" x1="450.00" id="30770" y2="700.00" /><line x2="400.00" style="fill:blue;stroke:blue;" y1="480.00" x1="480.00" id="30771" y2="500.00" /><line x2="500.00" style="fill:blue;stroke:blue;" y1="480.00" x1="480.00" id="30772" y2="424.50" /><line x2="450.00" style="fill:blue;stroke:blue;" y1="105.22" x1="488.79" id="30773" y2="70.00" /><line x2="501.25" style="fill:blue;stroke:blue;" y1="105.22" x1="488.79" id="30774" y2="152.61" /><line x2="380.00" style="fill:blue;stroke:blue;" y1="105.22" x1="488.79" id="30775" y2="180.00" /><line x2="400.00" style="fill:blue;stroke:blue;" y1="105.22" x1="488.79" id="30776" y2="120.00" /><line x2="350.00" style="fill:blue;stroke:blue;" y1="105.22" x1="488.79" id="30777" y2="100.00" /><line x2="499.95" style="fill:blue;stroke:blue;" y1="152.61" x1="501.25" id="30778" y2="201.59" /><line x2="488.79" style="fill:blue;stroke:blue;" y1="152.61" x1="501.25" id="30779" y2="105.22" /><line x2="500.00" style="fill:blue;stroke:blue;" y1="201.59" x1="499.95" id="30780" y2="250.59" /><line x2="501.25" style="fill:blue;stroke:blue;" y1="201.59" x1="499.95" id="30781" y2="152.61" /><line x2="550.00" style="fill:blue;stroke:blue;" y1="424.50" x1="500.00" id="30782" y2="500.00" /><line x2="480.00" style="fill:blue;stroke:blue;" y1="424.50" x1="500.00" id="30783" y2="480.00" /><line x2="500.00" style="fill:blue;stroke:blue;" y1="424.50" x1="500.00" id="30784" y2="375.50" /><line x2="620.00" style="fill:blue;stroke:blue;" y1="250.59" x1="500.00" id="30785" y2="250.00" /><line x2="500.00" style="fill:blue;stroke:blue;" y1="250.59" x1="500.00" id="30786" y2="300.00" /><line x2="450.00" style="fill:blue;stroke:blue;" y1="250.59" x1="500.00" id="30787" y2="250.00" /><line x2="499.95" style="fill:blue;stroke:blue;" y1="250.59" x1="500.00" id="30788" y2="201.59" /><line x2="550.00" style="fill:blue;stroke:blue;" y1="250.59" x1="500.00" id="30789" y2="200.00" /><line x2="500.00" style="fill:blue;stroke:blue;" y1="300.00" x1="500.00" id="30790" y2="375.50" /><line x2="450.00" style="fill:blue;stroke:blue;" y1="300.00" x1="500.00" id="30791" y2="300.00" /><line x2="500.00" style="fill:blue;stroke:blue;" y1="300.00" x1="500.00" id="30792" y2="250.59" /><line x2="500.00" style="fill:blue;stroke:blue;" y1="375.50" x1="500.00" id="30793" y2="424.50" /><line x2="500.00" style="fill:blue;stroke:blue;" y1="375.50" x1="500.00" id="30794" y2="300.00" /><line x2="520.00" style="fill:blue;stroke:blue;" y1="500.00" x1="550.00" id="30795" y2="550.00" /><line x2="630.00" style="fill:blue;stroke:blue;" y1="500.00" x1="550.00" id="30796" y2="580.00" /><line x2="650.00" style="fill:blue;stroke:blue;" y1="500.00" x1="550.00" id="30797" y2="480.00" /><line x2="500.00" style="fill:blue;stroke:blue;" y1="500.00" x1="550.00" id="30798" y2="424.50" /><line x2="630.00" style="fill:blue;stroke:blue;" y1="730.00" x1="550.00" id="30799" y2="730.00" /><line x2="500.00" style="fill:blue;stroke:blue;" y1="730.00" x1="550.00" id="30800" y2="750.00" /><line x2="480.00" style="fill:blue;stroke:blue;" y1="730.00" x1="550.00" id="30801" y2="700.00" /><line x2="500.00" style="fill:blue;stroke:blue;" y1="200.00" x1="550.00" id="30802" y2="250.59" /><line x2="600.00" style="fill:blue;stroke:blue;" y1="200.00" x1="550.00" id="30803" y2="150.00" /><line x2="550.00" style="fill:blue;stroke:blue;" y1="150.00" x1="600.00" id="30804" y2="200.00" /><line x2="650.00" style="fill:blue;stroke:blue;" y1="150.00" x1="600.00" id="30805" y2="120.00" /><line x2="700.00" style="fill:blue;stroke:blue;" y1="250.00" x1="620.00" id="30806" y2="280.00" /><line x2="500.00" style="fill:blue;stroke:blue;" y1="250.00" x1="620.00" id="30807" y2="250.59" /><line x2="600.00" style="fill:blue;stroke:blue;" y1="120.00" x1="650.00" id="30808" y2="150.00" /><line x2="700.00" style="fill:blue;stroke:blue;" y1="120.00" x1="650.00" id="30809" y2="100.00" /><line x2="620.00" style="fill:blue;stroke:blue;" y1="120.00" x1="650.00" id="30810" y2="50.00" /><line x2="650.00" style="fill:blue;stroke:blue;" y1="100.00" x1="700.00" id="30811" y2="120.00" /><line x2="780.00" style="fill:blue;stroke:blue;" y1="100.00" x1="700.00" id="30812" y2="80.00" /><line x2="630.00" style="fill:blue;stroke:blue;" y1="730.00" x1="700.00" id="30813" y2="730.00" /><line x2="700.00" style="fill:blue;stroke:blue;" y1="730.00" x1="700.00" id="30814" y2="680.00" /><line x2="630.00" style="fill:blue;stroke:blue;" y1="630.00" x1="700.00" id="30815" y2="580.00" /><line x2="700.00" style="fill:blue;stroke:blue;" y1="630.00" x1="700.00" id="30816" y2="580.00" /><line x2="700.00" style="fill:blue;stroke:blue;" y1="630.00" x1="700.00" id="30817" y2="680.00" /><line x2="800.00" style="fill:blue;stroke:blue;" y1="630.00" x1="700.00" id="30818" y2="580.00" /><line x2="780.00" style="fill:blue;stroke:blue;" y1="80.00" x1="780.00" id="30819" y2="20.00" /><line x2="700.00" style="fill:blue;stroke:blue;" y1="80.00" x1="780.00" id="30820" y2="100.00" /><line x2="850.00" style="fill:blue;stroke:blue;" y1="80.00" x1="780.00" id="30821" y2="80.00" /><line x2="880.00" style="fill:blue;stroke:blue;" y1="580.00" x1="800.00" id="30822" y2="580.00" /><line x2="700.00" style="fill:blue;stroke:blue;" y1="580.00" x1="800.00" id="30823" y2="580.00" /><line x2="880.00" style="fill:blue;stroke:blue;" y1="580.00" x1="800.00" id="30824" y2="650.00" /><line x2="700.00" style="fill:blue;stroke:blue;" y1="580.00" x1="800.00" id="30825" y2="630.00" /><line x2="880.00" style="fill:blue;stroke:blue;" y1="80.00" x1="850.00" id="30826" y2="180.00" /><line x2="780.00" style="fill:blue;stroke:blue;" y1="80.00" x1="850.00" id="30827" y2="80.00" /><line x2="880.00" style="fill:blue;stroke:blue;" y1="180.00" x1="880.00" id="30828" y2="230.00" /><line x2="950.00" style="fill:blue;stroke:blue;" y1="180.00" x1="880.00" id="30829" y2="180.00" /><line x2="850.00" style="fill:blue;stroke:blue;" y1="180.00" x1="880.00" id="30830" y2="80.00" /><line x2="880.00" style="fill:blue;stroke:blue;" y1="230.00" x1="880.00" id="30831" y2="280.00" /><line x2="950.00" style="fill:blue;stroke:blue;" y1="230.00" x1="880.00" id="30832" y2="180.00" /><line x2="880.00" style="fill:blue;stroke:blue;" y1="230.00" x1="880.00" id="30833" y2="180.00" /><line x2="950.00" style="fill:blue;stroke:blue;" y1="230.00" x1="880.00" id="30834" y2="230.00" /><line x2="880.00" style="fill:blue;stroke:blue;" y1="280.00" x1="880.00" id="30835" y2="330.00" /><line x2="880.00" style="fill:blue;stroke:blue;" y1="280.00" x1="880.00" id="30836" y2="230.00" /><line x2="950.00" style="fill:blue;stroke:blue;" y1="330.00" x1="880.00" id="30837" y2="350.00" /><line x2="880.00" style="fill:blue;stroke:blue;" y1="330.00" x1="880.00" id="30838" y2="380.00" /><line x2="880.00" style="fill:blue;stroke:blue;" y1="330.00" x1="880.00" id="30839" y2="280.00" /><line x2="880.00" style="fill:blue;stroke:blue;" y1="380.00" x1="880.00" id="30840" y2="430.00" /><line x2="880.00" style="fill:blue;stroke:blue;" y1="380.00" x1="880.00" id="30841" y2="330.00" /><line x2="950.00" style="fill:blue;stroke:blue;" y1="380.00" x1="880.00" id="30842" y2="350.00" /><line x2="800.00" style="fill:blue;stroke:blue;" y1="380.00" x1="880.00" id="30843" y2="310.00" /><line x2="880.00" style="fill:blue;stroke:blue;" y1="530.00" x1="880.00" id="30844" y2="480.00" /><line x2="880.00" style="fill:blue;stroke:blue;" y1="530.00" x1="880.00" id="30845" y2="580.00" /><line x2="800.00" style="fill:blue;stroke:blue;" y1="530.00" x1="880.00" id="30846" y2="420.00" /><line x2="950.00" style="fill:blue;stroke:blue;" y1="530.00" x1="880.00" id="30847" y2="450.00" /><line x2="150.00" style="fill:blue;stroke:blue;" y1="250.00" x1="50.00" id="30848" y2="250.00" /><line x2="250.00" style="fill:blue;stroke:blue;" y1="100.00" x1="180.00" id="30849" y2="124.50" /><line x2="250.00" style="fill:blue;stroke:blue;" y1="100.00" x1="180.00" id="30850" y2="75.50" /><line x2="488.79" style="fill:blue;stroke:blue;" y1="100.00" x1="350.00" id="30851" y2="105.22" /><line x2="380.00" style="fill:blue;stroke:blue;" y1="100.00" x1="350.00" id="30852" y2="180.00" /><line x2="400.00" style="fill:blue;stroke:blue;" y1="100.00" x1="350.00" id="30853" y2="120.00" /><line x2="488.79" style="fill:blue;stroke:blue;" y1="180.00" x1="380.00" id="30854" y2="105.22" /><line x2="400.00" style="fill:blue;stroke:blue;" y1="180.00" x1="380.00" id="30855" y2="120.00" /><line x2="350.00" style="fill:blue;stroke:blue;" y1="180.00" x1="380.00" id="30856" y2="100.00" /><line x2="488.79" style="fill:blue;stroke:blue;" y1="120.00" x1="400.00" id="30857" y2="105.22" /><line x2="380.00" style="fill:blue;stroke:blue;" y1="120.00" x1="400.00" id="30858" y2="180.00" /><line x2="350.00" style="fill:blue;stroke:blue;" y1="120.00" x1="400.00" id="30859" y2="100.00" /><line x2="410.00" style="fill:blue;stroke:blue;" y1="70.00" x1="450.00" id="30860" y2="40.00" /><line x2="500.00" style="fill:blue;stroke:blue;" y1="70.00" x1="450.00" id="30861" y2="20.00" /><line x2="488.79" style="fill:blue;stroke:blue;" y1="70.00" x1="450.00" id="30862" y2="105.22" /><line x2="450.00" style="fill:blue;stroke:blue;" y1="700.00" x1="480.00" id="30863" y2="650.00" /><line x2="500.00" style="fill:blue;stroke:blue;" y1="700.00" x1="480.00" id="30864" y2="750.00" /><line x2="550.00" style="fill:blue;stroke:blue;" y1="700.00" x1="480.00" id="30865" y2="730.00" /><line x2="480.00" style="fill:blue;stroke:blue;" y1="750.00" x1="500.00" id="30866" y2="700.00" /><line x2="550.00" style="fill:blue;stroke:blue;" y1="750.00" x1="500.00" id="30867" y2="730.00" /><line x2="410.00" style="fill:blue;stroke:blue;" y1="20.00" x1="500.00" id="30868" y2="40.00" /><line x2="450.00" style="fill:blue;stroke:blue;" y1="20.00" x1="500.00" id="30869" y2="70.00" /><line x2="550.00" style="fill:blue;stroke:blue;" y1="550.00" x1="520.00" id="30870" y2="500.00" /><line x2="650.00" style="fill:blue;stroke:blue;" y1="580.00" x1="630.00" id="30871" y2="480.00" /><line x2="700.00" style="fill:blue;stroke:blue;" y1="580.00" x1="630.00" id="30872" y2="580.00" /><line x2="550.00" style="fill:blue;stroke:blue;" y1="580.00" x1="630.00" id="30873" y2="500.00" /><line x2="700.00" style="fill:blue;stroke:blue;" y1="580.00" x1="630.00" id="30874" y2="630.00" /><line x2="650.00" style="fill:blue;stroke:blue;" y1="50.00" x1="620.00" id="30875" y2="120.00" /><line x2="700.00" style="fill:blue;stroke:blue;" y1="730.00" x1="630.00" id="30876" y2="730.00" /><line x2="550.00" style="fill:blue;stroke:blue;" y1="730.00" x1="630.00" id="30877" y2="730.00" /><line x2="630.00" style="fill:blue;stroke:blue;" y1="480.00" x1="650.00" id="30878" y2="580.00" /><line x2="550.00" style="fill:blue;stroke:blue;" y1="480.00" x1="650.00" id="30879" y2="500.00" /><line x2="630.00" style="fill:blue;stroke:blue;" y1="580.00" x1="700.00" id="30880" y2="580.00" /><line x2="700.00" style="fill:blue;stroke:blue;" y1="580.00" x1="700.00" id="30881" y2="630.00" /><line x2="800.00" style="fill:blue;stroke:blue;" y1="580.00" x1="700.00" id="30882" y2="580.00" /><line x2="800.00" style="fill:blue;stroke:blue;" y1="280.00" x1="700.00" id="30883" y2="310.00" /><line x2="620.00" style="fill:blue;stroke:blue;" y1="280.00" x1="700.00" id="30884" y2="250.00" /><line x2="700.00" style="fill:blue;stroke:blue;" y1="680.00" x1="700.00" id="30885" y2="630.00" /><line x2="700.00" style="fill:blue;stroke:blue;" y1="680.00" x1="700.00" id="30886" y2="730.00" /><line x2="780.00" style="fill:blue;stroke:blue;" y1="20.00" x1="780.00" id="30887" y2="80.00" /><line x2="880.00" style="fill:blue;stroke:blue;" y1="420.00" x1="800.00" id="30888" y2="430.00" /><line x2="880.00" style="fill:blue;stroke:blue;" y1="420.00" x1="800.00" id="30889" y2="530.00" /><line x2="880.00" style="fill:blue;stroke:blue;" y1="310.00" x1="800.00" id="30890" y2="380.00" /><line x2="700.00" style="fill:blue;stroke:blue;" y1="310.00" x1="800.00" id="30891" y2="280.00" /><line x2="800.00" style="fill:blue;stroke:blue;" y1="650.00" x1="880.00" id="30892" y2="580.00" /><line x2="880.00" style="fill:blue;stroke:blue;" y1="430.00" x1="880.00" id="30893" y2="480.00" /><line x2="800.00" style="fill:blue;stroke:blue;" y1="430.00" x1="880.00" id="30894" y2="420.00" /><line x2="950.00" style="fill:blue;stroke:blue;" y1="430.00" x1="880.00" id="30895" y2="450.00" /><line x2="880.00" style="fill:blue;stroke:blue;" y1="430.00" x1="880.00" id="30896" y2="380.00" /><line x2="880.00" style="fill:blue;stroke:blue;" y1="480.00" x1="880.00" id="30897" y2="430.00" /><line x2="880.00" style="fill:blue;stroke:blue;" y1="480.00" x1="880.00" id="30898" y2="530.00" /><line x2="880.00" style="fill:blue;stroke:blue;" y1="580.00" x1="880.00" id="30899" y2="530.00" /><line x2="800.00" style="fill:blue;stroke:blue;" y1="580.00" x1="880.00" id="30900" y2="580.00" /><line x2="880.00" style="fill:blue;stroke:blue;" y1="450.00" x1="950.00" id="30901" y2="430.00" /><line x2="880.00" style="fill:blue;stroke:blue;" y1="450.00" x1="950.00" id="30902" y2="530.00" /><line x2="880.00" style="fill:blue;stroke:blue;" y1="180.00" x1="950.00" id="30903" y2="230.00" /><line x2="880.00" style="fill:blue;stroke:blue;" y1="180.00" x1="950.00" id="30904" y2="180.00" /><line x2="950.00" style="fill:blue;stroke:blue;" y1="180.00" x1="950.00" id="30905" y2="230.00" /><line x2="880.00" style="fill:blue;stroke:blue;" y1="230.00" x1="950.00" id="30906" y2="230.00" /><line x2="950.00" style="fill:blue;stroke:blue;" y1="230.00" x1="950.00" id="30907" y2="180.00" /><line x2="880.00" style="fill:blue;stroke:blue;" y1="350.00" x1="950.00" id="30908" y2="330.00" /><line x2="880.00" style="fill:blue;stroke:blue;" y1="350.00" x1="950.00" id="30909" y2="380.00" /></svg>
