<?xml version="1.0" standalone="yes"?><!DOCTYPE svg PUBLIC "-//W3C//DTD SVG 1.1//EN" "http://www.w3.org/Graphics/SVG/1.1/DTD/svg11.dtd"[]><svg width="1050.00" height="800.00" id="30343" xmlns="http://www.w3.org/2000/svg" xmlns:xlink="http://www.w3.org/1999/xlink"><rect Type="system" x="20.00" id="30344" height="5.00" width="5.00" Name="Y-PZHM" ID="30000884" Region="特布特" y="50.00" /><text y="50.00" x="20.00" id="30345">Y-PZHM</text><rect Type="system" x="50.00" id="30347" height="5.00" width="5.00" Name="OY-UZ1" ID="30000885" Region="特布特" y="200.00" /><text y="200.00" x="50.00" id="30348">OY-UZ1</text><rect Type="system" x="50.00" id="30350" height="5.00" width="5.00" Name="9SL-K9" ID="30000883" Region="特布特" y="100.00" /><text y="100.00" x="50.00" id="30351">9SL-K9</text><rect Type="system" x="50.00" id="30353" height="5.00" width="5.00" Name="C8VC-S" ID="30000892" Region="特布特" y="600.00" /><text y="600.00" x="50.00" id="30354">C8VC-S</text><rect Type="system" x="50.00" id="30356" height="5.00" width="5.00" Name="X-CFN6" ID="30000882" Region="特布特" y="150.00" /><text y="150.00" x="50.00" id="30357">X-CFN6</text><rect Type="system" x="80.00" id="30359" height="5.00" width="5.00" Name="NL6V-7" ID="30000855" Region="特布特" y="320.00" /><text y="320.00" x="80.00" id="30360">NL6V-7</text><rect Type="system" x="80.00" id="30362" height="5.00" width="5.00" Name="GKP-YT" ID="30000859" Region="特布特" y="400.00" /><text y="400.00" x="80.00" id="30363">GKP-YT</text><rect Type="system" x="80.00" id="30365" height="5.00" width="5.00" Name="W-UQA5" ID="30000893" Region="特布特" y="680.00" /><text y="680.00" x="80.00" id="30366">W-UQA5</text><rect Type="system" x="97.68" id="30368" height="5.00" width="5.00" Name="YLS8-J" ID="30000880" Region="特布特" y="167.68" /><text y="167.68" x="97.68" id="30369">YLS8-J</text><rect Type="system" x="97.68" id="30371" height="5.00" width="5.00" Name="L-VXTK" ID="30000891" Region="特布特" y="552.32" /><text y="552.32" x="97.68" id="30372">L-VXTK</text><rect Type="system" x="132.32" id="30374" height="5.00" width="5.00" Name="GIH-ZG" ID="30000887" Region="特布特" y="517.68" /><text y="517.68" x="132.32" id="30375">GIH-ZG</text><rect Type="system" x="119.12" id="30377" height="5.00" width="5.00" Name="K-6SNI" ID="30000890" Region="特布特" y="621.20" /><text y="621.20" x="119.12" id="30378">K-6SNI</text><rect Type="system" x="132.32" id="30380" height="5.00" width="5.00" Name="DL1C-E" ID="30000879" Region="特布特" y="202.32" /><text y="202.32" x="132.32" id="30381">DL1C-E</text><rect Type="system" x="150.00" id="30383" height="5.00" width="5.00" Name="S8-NSQ" ID="30000886" Region="特布特" y="450.00" /><text y="450.00" x="150.00" id="30384">S8-NSQ</text><rect Type="system" x="150.00" id="30386" height="5.00" width="5.00" Name="0-YMBJ" ID="30000857" Region="特布特" y="250.00" /><text y="250.00" x="150.00" id="30387">0-YMBJ</text><rect Type="system" x="150.00" id="30389" height="5.00" width="5.00" Name="A-DDGY" ID="30000852" Region="特布特" y="300.00" /><text y="300.00" x="150.00" id="30390">A-DDGY</text><rect Type="system" x="150.00" id="30392" height="5.00" width="5.00" Name="F-749O" ID="30000856" Region="特布特" y="350.00" /><text y="350.00" x="150.00" id="30393">F-749O</text><rect Type="system" x="150.00" id="30395" height="5.00" width="5.00" Name="B-S42H" ID="30000854" Region="特布特" y="400.00" /><text y="400.00" x="150.00" id="30396">B-S42H</text><rect Type="system" x="148.03" id="30398" height="5.00" width="5.00" Name="XD-TOV" ID="30000889" Region="特布特" y="581.64" /><text y="581.64" x="148.03" id="30399">XD-TOV</text><rect Type="system" x="150.00" id="30401" height="5.00" width="5.00" Name="2ISU-Y" ID="30000881" Region="特布特" y="150.00" /><text y="150.00" x="150.00" id="30402">2ISU-Y</text><rect Type="system" x="180.00" id="30404" height="5.00" width="5.00" Name="PBD-0G" ID="30000873" Region="特布特" y="650.00" /><text y="650.00" x="180.00" id="30405">PBD-0G</text><rect Type="system" x="182.85" id="30407" height="5.00" width="5.00" Name="V7-FB4" ID="30000888" Region="特布特" y="547.16" /><text y="547.16" x="182.85" id="30408">V7-FB4</text><rect Type="system" x="220.00" id="30410" height="5.00" width="5.00" Name="9GI-FB" ID="30000875" Region="特布特" y="620.00" /><text y="620.00" x="220.00" id="30411">9GI-FB</text><rect Type="system" x="220.00" id="30413" height="5.00" width="5.00" Name="Y-W1Q3" ID="30001261" Region="维纳尔" y="180.00" /><text y="180.00" x="220.00" id="30414">Y-W1Q3</text><rect Type="system" x="220.00" id="30416" height="5.00" width="5.00" Name="UMI-KK" ID="30000858" Region="特布特" y="250.00" /><text y="250.00" x="220.00" id="30417">UMI-KK</text><rect Type="system" x="220.00" id="30419" height="5.00" width="5.00" Name="AW1-2I" ID="30000860" Region="特布特" y="320.00" /><text y="320.00" x="220.00" id="30420">AW1-2I</text><rect Type="system" x="220.00" id="30422" height="5.00" width="5.00" Name="F-RT6Q" ID="30000853" Region="特布特" y="400.00" /><text y="400.00" x="220.00" id="30423">F-RT6Q</text><rect Type="system" x="250.00" id="30425" height="5.00" width="5.00" Name="Y6-HPG" ID="30001262" Region="维纳尔" y="124.50" /><text y="124.50" x="250.00" id="30426">Y6-HPG</text><rect Type="system" x="250.00" id="30428" height="5.00" width="5.00" Name="L-1HKR" ID="30000874" Region="特布特" y="680.00" /><text y="680.00" x="250.00" id="30429">L-1HKR</text><rect Type="system" x="250.00" id="30431" height="5.00" width="5.00" Name="KK-L97" ID="30001264" Region="维纳尔" y="75.50" /><text y="75.50" x="250.00" id="30432">KK-L97</text><rect Type="system" x="250.00" id="30434" height="5.00" width="5.00" Name="N-FK87" ID="30000862" Region="特布特" y="450.00" /><text y="450.00" x="250.00" id="30435">N-FK87</text><rect Type="system" x="280.00" id="30437" height="5.00" width="5.00" Name="DBT-GB" ID="30000877" Region="特布特" y="580.00" /><text y="580.00" x="280.00" id="30438">DBT-GB</text><rect Type="system" x="300.00" id="30440" height="5.00" width="5.00" Name="N-Q5PW" ID="30001267" Region="维纳尔" y="50.00" /><text y="50.00" x="300.00" id="30441">N-Q5PW</text><rect Type="system" x="300.00" id="30443" height="5.00" width="5.00" Name="3G-LHB" ID="30000876" Region="特布特" y="650.00" /><text y="650.00" x="300.00" id="30444">3G-LHB</text><rect Type="system" x="300.00" id="30446" height="5.00" width="5.00" Name="U-W3WS" ID="30000878" Region="特布特" y="700.00" /><text y="700.00" x="300.00" id="30447">U-W3WS</text><rect Type="system" x="320.00" id="30449" height="5.00" width="5.00" Name="PNDN-V" ID="30000866" Region="特布特" y="500.00" /><text y="500.00" x="320.00" id="30450">PNDN-V</text><rect Type="system" x="350.00" id="30452" height="5.00" width="5.00" Name="P-FSQE" ID="30001268" Region="维纳尔" y="50.00" /><text y="50.00" x="350.00" id="30453">P-FSQE</text><rect Type="system" x="380.00" id="30455" height="5.00" width="5.00" Name="TRKN-L" ID="30000869" Region="特布特" y="280.00" /><text y="280.00" x="380.00" id="30456">TRKN-L</text><rect Type="system" x="370.00" id="30458" height="5.00" width="5.00" Name="FY0W-N" ID="30000850" Region="特布特" y="640.00" /><text y="640.00" x="370.00" id="30459">FY0W-N</text><rect Type="system" x="400.00" id="30461" height="5.00" width="5.00" Name="MJI3-8" ID="30000851" Region="特布特" y="730.00" /><text y="730.00" x="400.00" id="30462">MJI3-8</text><rect Type="system" x="400.00" id="30464" height="5.00" width="5.00" Name="15W-GC" ID="30000861" Region="特布特" y="500.00" /><text y="500.00" x="400.00" id="30465">15W-GC</text><rect Type="system" x="400.00" id="30467" height="5.00" width="5.00" Name="J-GAMP" ID="30000847" Region="特布特" y="600.00" /><text y="600.00" x="400.00" id="30468">J-GAMP</text><rect Type="system" x="410.00" id="30470" height="5.00" width="5.00" Name="V0DF-2" ID="30000849" Region="特布特" y="680.00" /><text y="680.00" x="410.00" id="30471">V0DF-2</text><rect Type="system" x="410.00" id="30473" height="5.00" width="5.00" Name="H-PA29" ID="30001269" Region="维纳尔" y="40.00" /><text y="40.00" x="410.00" id="30474">H-PA29</text><rect Type="system" x="450.00" id="30476" height="5.00" width="5.00" Name="O-0ERG" ID="30000870" Region="特布特" y="250.00" /><text y="250.00" x="450.00" id="30477">O-0ERG</text><rect Type="system" x="450.00" id="30479" height="5.00" width="5.00" Name="SH1-6P" ID="30000868" Region="特布特" y="300.00" /><text y="300.00" x="450.00" id="30480">SH1-6P</text><rect Type="system" x="450.00" id="30482" height="5.00" width="5.00" Name="E-OGL4" ID="30000846" Region="特布特" y="550.00" /><text y="550.00" x="450.00" id="30483">E-OGL4</text><rect Type="system" x="450.00" id="30485" height="5.00" width="5.00" Name="M-OEE8" ID="30000848" Region="特布特" y="650.00" /><text y="650.00" x="450.00" id="30486">M-OEE8</text><rect Type="system" x="480.00" id="30488" height="5.00" width="5.00" Name="C2X-M5" ID="30000863" Region="特布特" y="480.00" /><text y="480.00" x="480.00" id="30489">C2X-M5</text><rect Type="system" x="488.79" id="30491" height="5.00" width="5.00" Name="N6G-H3" ID="30001280" Region="维纳尔" y="105.22" /><text y="105.22" x="488.79" id="30492">N6G-H3</text><rect Type="system" x="501.25" id="30494" height="5.00" width="5.00" Name="3A1P-N" ID="30001281" Region="维纳尔" y="152.61" /><text y="152.61" x="501.25" id="30495">3A1P-N</text><rect Type="system" x="499.95" id="30497" height="5.00" width="5.00" Name="Q-CAB2" ID="30000872" Region="特布特" y="201.59" /><text y="201.59" x="499.95" id="30498">Q-CAB2</text><rect Type="system" x="500.00" id="30500" height="5.00" width="5.00" Name="MSHD-4" ID="30000864" Region="特布特" y="424.50" /><text y="424.50" x="500.00" id="30501">MSHD-4</text><rect Type="system" x="500.00" id="30503" height="5.00" width="5.00" Name="WH-JCA" ID="30000871" Region="特布特" y="250.59" /><text y="250.59" x="500.00" id="30504">WH-JCA</text><rect Type="system" x="500.00" id="30506" height="5.00" width="5.00" Name="D7-ZAC" ID="30000867" Region="特布特" y="300.00" /><text y="300.00" x="500.00" id="30507">D7-ZAC</text><rect Type="system" x="500.00" id="30509" height="5.00" width="5.00" Name="H-W9TY" ID="30000865" Region="特布特" y="375.50" /><text y="375.50" x="500.00" id="30510">H-W9TY</text><rect Type="system" x="550.00" id="30512" height="5.00" width="5.00" Name="9OO-LH" ID="30000247" Region="静寂谷" y="500.00" /><text y="500.00" x="550.00" id="30513">9OO-LH</text><rect Type="system" x="550.00" id="30515" height="5.00" width="5.00" Name="哈克农" ID="30001448" Region="长征" y="730.00" /><text y="730.00" x="550.00" id="30516">哈克农</text><rect Type="system" x="550.00" id="30518" height="5.00" width="5.00" Name="W6VP-Y" ID="30000894" Region="特布特" y="200.00" /><text y="200.00" x="550.00" id="30519">W6VP-Y</text><rect Type="system" x="600.00" id="30521" height="5.00" width="5.00" Name="IMK-K1" ID="30000895" Region="特布特" y="150.00" /><text y="150.00" x="600.00" id="30522">IMK-K1</text><rect Type="system" x="620.00" id="30524" height="5.00" width="5.00" Name="0J3L-V" ID="30000267" Region="静寂谷" y="250.00" /><text y="250.00" x="620.00" id="30525">0J3L-V</text><rect Type="system" x="650.00" id="30527" height="5.00" width="5.00" Name="NJ4X-S" ID="30000896" Region="特布特" y="120.00" /><text y="120.00" x="650.00" id="30528">NJ4X-S</text><rect Type="system" x="700.00" id="30530" height="5.00" width="5.00" Name="F-G7BO" ID="30000897" Region="特布特" y="100.00" /><text y="100.00" x="700.00" id="30531">F-G7BO</text><rect Type="system" x="700.00" id="30533" height="5.00" width="5.00" Name="P3EN-E" ID="30000250" Region="静寂谷" y="730.00" /><text y="730.00" x="700.00" id="30534">P3EN-E</text><rect Type="system" x="700.00" id="30536" height="5.00" width="5.00" Name="EIDI-N" ID="30000249" Region="静寂谷" y="630.00" /><text y="630.00" x="700.00" id="30537">EIDI-N</text><rect Type="system" x="780.00" id="30539" height="5.00" width="5.00" Name="2CG-5V" ID="30000898" Region="特布特" y="80.00" /><text y="80.00" x="780.00" id="30540">2CG-5V</text><rect Type="system" x="800.00" id="30542" height="5.00" width="5.00" Name="DAYP-G" ID="30000253" Region="静寂谷" y="580.00" /><text y="580.00" x="800.00" id="30543">DAYP-G</text><rect Type="system" x="850.00" id="30545" height="5.00" width="5.00" Name="QFF-O6" ID="30000899" Region="特布特" y="80.00" /><text y="80.00" x="850.00" id="30546">QFF-O6</text><rect Type="system" x="880.00" id="30548" height="5.00" width="5.00" Name="T-ZWA1" ID="30000303" Region="静寂谷" y="180.00" /><text y="180.00" x="880.00" id="30549">T-ZWA1</text><rect Type="system" x="880.00" id="30551" height="5.00" width="5.00" Name="1-GBBP" ID="30000301" Region="静寂谷" y="230.00" /><text y="230.00" x="880.00" id="30552">1-GBBP</text><rect Type="system" x="880.00" id="30554" height="5.00" width="5.00" Name="V-NL3K" ID="30000264" Region="静寂谷" y="280.00" /><text y="280.00" x="880.00" id="30555">V-NL3K</text><rect Type="system" x="880.00" id="30557" height="5.00" width="5.00" Name="T-GCGL" ID="30000261" Region="静寂谷" y="330.00" /><text y="330.00" x="880.00" id="30558">T-GCGL</text><rect Type="system" x="880.00" id="30560" height="5.00" width="5.00" Name="TVN-FM" ID="30000263" Region="静寂谷" y="380.00" /><text y="380.00" x="880.00" id="30561">TVN-FM</text><rect Type="system" x="880.00" id="30563" height="5.00" width="5.00" Name="4-HWWF" ID="30000240" Region="静寂谷" y="530.00" /><text y="530.00" x="880.00" id="30564">4-HWWF</text><rect Type="system" x="50.00" id="30566" height="5.00" width="5.00" Name="KQK1-2" ID="30001963" Region="黑渊" y="250.00" /><text y="250.00" x="50.00" id="30567">KQK1-2</text><rect Type="system" x="180.00" id="30569" height="5.00" width="5.00" Name="Z-GY5S" ID="30001263" Region="维纳尔" y="100.00" /><text y="100.00" x="180.00" id="30570">Z-GY5S</text><rect Type="system" x="350.00" id="30572" height="5.00" width="5.00" Name="92K-H2" ID="30001284" Region="维纳尔" y="100.00" /><text y="100.00" x="350.00" id="30573">92K-H2</text><rect Type="system" x="380.00" id="30575" height="5.00" width="5.00" Name="OZ-VAE" ID="30001282" Region="维纳尔" y="180.00" /><text y="180.00" x="380.00" id="30576">OZ-VAE</text><rect Type="system" x="400.00" id="30578" height="5.00" width="5.00" Name="A-AFGR" ID="30001283" Region="维纳尔" y="120.00" /><text y="120.00" x="400.00" id="30579">A-AFGR</text><rect Type="system" x="450.00" id="30581" height="5.00" width="5.00" Name="9-266Q" ID="30001273" Region="维纳尔" y="70.00" /><text y="70.00" x="450.00" id="30582">9-266Q</text><rect Type="system" x="480.00" id="30584" height="5.00" width="5.00" Name="塔伊斯" ID="30001447" Region="长征" y="700.00" /><text y="700.00" x="480.00" id="30585">塔伊斯</text><rect Type="system" x="500.00" id="30587" height="5.00" width="5.00" Name="欧塔萨塞" ID="30001446" Region="长征" y="750.00" /><text y="750.00" x="500.00" id="30588">欧塔萨塞</text><rect Type="system" x="500.00" id="30590" height="5.00" width="5.00" Name="1-Y6KI" ID="30001270" Region="维纳尔" y="20.00" /><text y="20.00" x="500.00" id="30591">1-Y6KI</text><rect Type="system" x="520.00" id="30593" height="5.00" width="5.00" Name="UH-9ZG" ID="30000229" Region="静寂谷" y="550.00" /><text y="550.00" x="520.00" id="30594">UH-9ZG</text><rect Type="system" x="630.00" id="30596" height="5.00" width="5.00" Name="K8X-6B" ID="30000244" Region="静寂谷" y="580.00" /><text y="580.00" x="630.00" id="30597">K8X-6B</text><rect Type="system" x="620.00" id="30599" height="5.00" width="5.00" Name="G9D-XW" ID="30001348" Region="维纳尔" y="50.00" /><text y="50.00" x="620.00" id="30600">G9D-XW</text><rect Type="system" x="630.00" id="30602" height="5.00" width="5.00" Name="欧贝" ID="30000205" Region="伏尔戈" y="730.00" /><text y="730.00" x="630.00" id="30603">欧贝</text><rect Type="system" x="650.00" id="30605" height="5.00" width="5.00" Name="X445-5" ID="30000245" Region="静寂谷" y="480.00" /><text y="480.00" x="650.00" id="30606">X445-5</text><rect Type="system" x="700.00" id="30608" height="5.00" width="5.00" Name="KRUN-N" ID="30000246" Region="静寂谷" y="580.00" /><text y="580.00" x="700.00" id="30609">KRUN-N</text><rect Type="system" x="700.00" id="30611" height="5.00" width="5.00" Name="Z-8Q65" ID="30000266" Region="静寂谷" y="280.00" /><text y="280.00" x="700.00" id="30612">Z-8Q65</text><rect Type="system" x="700.00" id="30614" height="5.00" width="5.00" Name="IPAY-2" ID="30000252" Region="静寂谷" y="680.00" /><text y="680.00" x="700.00" id="30615">IPAY-2</text><rect Type="system" x="780.00" id="30617" height="5.00" width="5.00" Name="Y5J-EU" ID="30000308" Region="静寂谷" y="20.00" /><text y="20.00" x="780.00" id="30618">Y5J-EU</text><rect Type="system" x="800.00" id="30620" height="5.00" width="5.00" Name="8TPX-N" ID="30000242" Region="静寂谷" y="420.00" /><text y="420.00" x="800.00" id="30621">8TPX-N</text><rect Type="system" x="800.00" id="30623" height="5.00" width="5.00" Name="AZBR-2" ID="30000265" Region="静寂谷" y="310.00" /><text y="310.00" x="800.00" id="30624">AZBR-2</text><rect Type="system" x="880.00" id="30626" height="5.00" width="5.00" Name="V-OJEN" ID="30000248" Region="静寂谷" y="650.00" /><text y="650.00" x="880.00" id="30627">V-OJEN</text><rect Type="system" x="880.00" id="30629" height="5.00" width="5.00" Name="WBR5-R" ID="30000238" Region="静寂谷" y="430.00" /><text y="430.00" x="880.00" id="30630">WBR5-R</text><rect Type="system" x="880.00" id="30632" height="5.00" width="5.00" Name="4GYV-Q" ID="30000239" Region="静寂谷" y="480.00" /><text y="480.00" x="880.00" id="30633">4GYV-Q</text><rect Type="system" x="880.00" id="30635" height="5.00" width="5.00" Name="YMJG-4" ID="30000241" Region="静寂谷" y="580.00" /><text y="580.00" x="880.00" id="30636">YMJG-4</text><rect Type="system" x="950.00" id="30638" height="5.00" width="5.00" Name="PM-DWE" ID="30000243" Region="静寂谷" y="450.00" /><text y="450.00" x="950.00" id="30639">PM-DWE</text><rect Type="system" x="950.00" id="30641" height="5.00" width="5.00" Name="C-FP70" ID="30000302" Region="静寂谷" y="180.00" /><text y="180.00" x="950.00" id="30642">C-FP70</text><rect Type="system" x="950.00" id="30644" height="5.00" width="5.00" Name="ZA0L-U" ID="30000304" Region="静寂谷" y="230.00" /><text y="230.00" x="950.00" id="30645">ZA0L-U</text><rect Type="system" x="950.00" id="30647" height="5.00" width="5.00" Name="0MV-4W" ID="30000262" Region="静寂谷" y="350.00" /><text y="350.00" x="950.00" id="30648">0MV-4W</text><line style="stroke:blue;fill:blue;" id="30650" x2="50.00" x1="20.00" y1="50.00" y2="100.00" /><line style="stroke:blue;fill:blue;" id="30651" x2="97.68" x1="50.00" y1="200.00" y2="167.68" /><line style="stroke:blue;fill:blue;" id="30652" x2="50.00" x1="50.00" y1="100.00" y2="150.00" /><line style="stroke:blue;fill:blue;" id="30653" x2="20.00" x1="50.00" y1="100.00" y2="50.00" /><line style="stroke:blue;fill:blue;" id="30654" x2="97.68" x1="50.00" y1="600.00" y2="552.32" /><line style="stroke:blue;fill:blue;" id="30655" x2="97.68" x1="50.00" y1="150.00" y2="167.68" /><line style="stroke:blue;fill:blue;" id="30656" x2="50.00" x1="50.00" y1="150.00" y2="100.00" /><line style="stroke:blue;fill:blue;" id="30657" x2="150.00" x1="80.00" y1="320.00" y2="350.00" /><line style="stroke:blue;fill:blue;" id="30658" x2="80.00" x1="80.00" y1="320.00" y2="400.00" /><line style="stroke:blue;fill:blue;" id="30659" x2="150.00" x1="80.00" y1="400.00" y2="400.00" /><line style="stroke:blue;fill:blue;" id="30660" x2="80.00" x1="80.00" y1="400.00" y2="320.00" /><line style="stroke:blue;fill:blue;" id="30661" x2="119.12" x1="80.00" y1="680.00" y2="621.20" /><line style="stroke:blue;fill:blue;" id="30662" x2="132.32" x1="97.68" y1="167.68" y2="202.32" /><line style="stroke:blue;fill:blue;" id="30663" x2="50.00" x1="97.68" y1="167.68" y2="150.00" /><line style="stroke:blue;fill:blue;" id="30664" x2="50.00" x1="97.68" y1="167.68" y2="200.00" /><line style="stroke:blue;fill:blue;" id="30665" x2="132.32" x1="97.68" y1="552.32" y2="517.68" /><line style="stroke:blue;fill:blue;" id="30666" x2="148.03" x1="97.68" y1="552.32" y2="581.64" /><line style="stroke:blue;fill:blue;" id="30667" x2="119.12" x1="97.68" y1="552.32" y2="621.20" /><line style="stroke:blue;fill:blue;" id="30668" x2="50.00" x1="97.68" y1="552.32" y2="600.00" /><line style="stroke:blue;fill:blue;" id="30669" x2="150.00" x1="132.32" y1="517.68" y2="450.00" /><line style="stroke:blue;fill:blue;" id="30670" x2="182.85" x1="132.32" y1="517.68" y2="547.16" /><line style="stroke:blue;fill:blue;" id="30671" x2="148.03" x1="132.32" y1="517.68" y2="581.64" /><line style="stroke:blue;fill:blue;" id="30672" x2="97.68" x1="132.32" y1="517.68" y2="552.32" /><line style="stroke:blue;fill:blue;" id="30673" x2="148.03" x1="119.12" y1="621.20" y2="581.64" /><line style="stroke:blue;fill:blue;" id="30674" x2="97.68" x1="119.12" y1="621.20" y2="552.32" /><line style="stroke:blue;fill:blue;" id="30675" x2="80.00" x1="119.12" y1="621.20" y2="680.00" /><line style="stroke:blue;fill:blue;" id="30676" x2="220.00" x1="132.32" y1="202.32" y2="250.00" /><line style="stroke:blue;fill:blue;" id="30677" x2="97.68" x1="132.32" y1="202.32" y2="167.68" /><line style="stroke:blue;fill:blue;" id="30678" x2="150.00" x1="132.32" y1="202.32" y2="150.00" /><line style="stroke:blue;fill:blue;" id="30679" x2="150.00" x1="150.00" y1="450.00" y2="400.00" /><line style="stroke:blue;fill:blue;" id="30680" x2="132.32" x1="150.00" y1="450.00" y2="517.68" /><line style="stroke:blue;fill:blue;" id="30681" x2="220.00" x1="150.00" y1="250.00" y2="250.00" /><line style="stroke:blue;fill:blue;" id="30682" x2="50.00" x1="150.00" y1="250.00" y2="250.00" /><line style="stroke:blue;fill:blue;" id="30683" x2="150.00" x1="150.00" y1="300.00" y2="350.00" /><line style="stroke:blue;fill:blue;" id="30684" x2="150.00" x1="150.00" y1="350.00" y2="300.00" /><line style="stroke:blue;fill:blue;" id="30685" x2="220.00" x1="150.00" y1="350.00" y2="400.00" /><line style="stroke:blue;fill:blue;" id="30686" x2="150.00" x1="150.00" y1="350.00" y2="400.00" /><line style="stroke:blue;fill:blue;" id="30687" x2="80.00" x1="150.00" y1="350.00" y2="320.00" /><line style="stroke:blue;fill:blue;" id="30688" x2="220.00" x1="150.00" y1="350.00" y2="320.00" /><line style="stroke:blue;fill:blue;" id="30689" x2="220.00" x1="150.00" y1="400.00" y2="400.00" /><line style="stroke:blue;fill:blue;" id="30690" x2="150.00" x1="150.00" y1="400.00" y2="350.00" /><line style="stroke:blue;fill:blue;" id="30691" x2="80.00" x1="150.00" y1="400.00" y2="400.00" /><line style="stroke:blue;fill:blue;" id="30692" x2="220.00" x1="150.00" y1="400.00" y2="320.00" /><line style="stroke:blue;fill:blue;" id="30693" x2="150.00" x1="150.00" y1="400.00" y2="450.00" /><line style="stroke:blue;fill:blue;" id="30694" x2="132.32" x1="148.03" y1="581.64" y2="517.68" /><line style="stroke:blue;fill:blue;" id="30695" x2="182.85" x1="148.03" y1="581.64" y2="547.16" /><line style="stroke:blue;fill:blue;" id="30696" x2="119.12" x1="148.03" y1="581.64" y2="621.20" /><line style="stroke:blue;fill:blue;" id="30697" x2="97.68" x1="148.03" y1="581.64" y2="552.32" /><line style="stroke:blue;fill:blue;" id="30698" x2="132.32" x1="150.00" y1="150.00" y2="202.32" /><line style="stroke:blue;fill:blue;" id="30699" x2="220.00" x1="180.00" y1="650.00" y2="620.00" /><line style="stroke:blue;fill:blue;" id="30700" x2="132.32" x1="182.85" y1="547.16" y2="517.68" /><line style="stroke:blue;fill:blue;" id="30701" x2="148.03" x1="182.85" y1="547.16" y2="581.64" /><line style="stroke:blue;fill:blue;" id="30702" x2="180.00" x1="220.00" y1="620.00" y2="650.00" /><line style="stroke:blue;fill:blue;" id="30703" x2="250.00" x1="220.00" y1="620.00" y2="680.00" /><line style="stroke:blue;fill:blue;" id="30704" x2="280.00" x1="220.00" y1="620.00" y2="580.00" /><line style="stroke:blue;fill:blue;" id="30705" x2="220.00" x1="220.00" y1="180.00" y2="250.00" /><line style="stroke:blue;fill:blue;" id="30706" x2="250.00" x1="220.00" y1="180.00" y2="124.50" /><line style="stroke:blue;fill:blue;" id="30707" x2="150.00" x1="220.00" y1="250.00" y2="250.00" /><line style="stroke:blue;fill:blue;" id="30708" x2="220.00" x1="220.00" y1="250.00" y2="320.00" /><line style="stroke:blue;fill:blue;" id="30709" x2="132.32" x1="220.00" y1="250.00" y2="202.32" /><line style="stroke:blue;fill:blue;" id="30710" x2="220.00" x1="220.00" y1="250.00" y2="180.00" /><line style="stroke:blue;fill:blue;" id="30711" x2="220.00" x1="220.00" y1="320.00" y2="400.00" /><line style="stroke:blue;fill:blue;" id="30712" x2="150.00" x1="220.00" y1="320.00" y2="400.00" /><line style="stroke:blue;fill:blue;" id="30713" x2="150.00" x1="220.00" y1="320.00" y2="350.00" /><line style="stroke:blue;fill:blue;" id="30714" x2="220.00" x1="220.00" y1="320.00" y2="250.00" /><line style="stroke:blue;fill:blue;" id="30715" x2="150.00" x1="220.00" y1="400.00" y2="400.00" /><line style="stroke:blue;fill:blue;" id="30716" x2="150.00" x1="220.00" y1="400.00" y2="350.00" /><line style="stroke:blue;fill:blue;" id="30717" x2="220.00" x1="220.00" y1="400.00" y2="320.00" /><line style="stroke:blue;fill:blue;" id="30718" x2="250.00" x1="220.00" y1="400.00" y2="450.00" /><line style="stroke:blue;fill:blue;" id="30719" x2="220.00" x1="250.00" y1="124.50" y2="180.00" /><line style="stroke:blue;fill:blue;" id="30720" x2="180.00" x1="250.00" y1="124.50" y2="100.00" /><line style="stroke:blue;fill:blue;" id="30721" x2="250.00" x1="250.00" y1="124.50" y2="75.50" /><line style="stroke:blue;fill:blue;" id="30722" x2="220.00" x1="250.00" y1="680.00" y2="620.00" /><line style="stroke:blue;fill:blue;" id="30723" x2="250.00" x1="250.00" y1="75.50" y2="124.50" /><line style="stroke:blue;fill:blue;" id="30724" x2="180.00" x1="250.00" y1="75.50" y2="100.00" /><line style="stroke:blue;fill:blue;" id="30725" x2="300.00" x1="250.00" y1="75.50" y2="50.00" /><line style="stroke:blue;fill:blue;" id="30726" x2="220.00" x1="250.00" y1="450.00" y2="400.00" /><line style="stroke:blue;fill:blue;" id="30727" x2="320.00" x1="250.00" y1="450.00" y2="500.00" /><line style="stroke:blue;fill:blue;" id="30728" x2="320.00" x1="280.00" y1="580.00" y2="500.00" /><line style="stroke:blue;fill:blue;" id="30729" x2="220.00" x1="280.00" y1="580.00" y2="620.00" /><line style="stroke:blue;fill:blue;" id="30730" x2="300.00" x1="280.00" y1="580.00" y2="650.00" /><line style="stroke:blue;fill:blue;" id="30731" x2="250.00" x1="300.00" y1="50.00" y2="75.50" /><line style="stroke:blue;fill:blue;" id="30732" x2="350.00" x1="300.00" y1="50.00" y2="50.00" /><line style="stroke:blue;fill:blue;" id="30733" x2="280.00" x1="300.00" y1="650.00" y2="580.00" /><line style="stroke:blue;fill:blue;" id="30734" x2="300.00" x1="300.00" y1="650.00" y2="700.00" /><line style="stroke:blue;fill:blue;" id="30735" x2="300.00" x1="300.00" y1="700.00" y2="650.00" /><line style="stroke:blue;fill:blue;" id="30736" x2="400.00" x1="320.00" y1="500.00" y2="500.00" /><line style="stroke:blue;fill:blue;" id="30737" x2="250.00" x1="320.00" y1="500.00" y2="450.00" /><line style="stroke:blue;fill:blue;" id="30738" x2="280.00" x1="320.00" y1="500.00" y2="580.00" /><line style="stroke:blue;fill:blue;" id="30739" x2="300.00" x1="350.00" y1="50.00" y2="50.00" /><line style="stroke:blue;fill:blue;" id="30740" x2="410.00" x1="350.00" y1="50.00" y2="40.00" /><line style="stroke:blue;fill:blue;" id="30741" x2="450.00" x1="380.00" y1="280.00" y2="300.00" /><line style="stroke:blue;fill:blue;" id="30742" x2="450.00" x1="380.00" y1="280.00" y2="250.00" /><line style="stroke:blue;fill:blue;" id="30743" x2="400.00" x1="370.00" y1="640.00" y2="600.00" /><line style="stroke:blue;fill:blue;" id="30744" x2="450.00" x1="370.00" y1="640.00" y2="650.00" /><line style="stroke:blue;fill:blue;" id="30745" x2="410.00" x1="370.00" y1="640.00" y2="680.00" /><line style="stroke:blue;fill:blue;" id="30746" x2="410.00" x1="400.00" y1="730.00" y2="680.00" /><line style="stroke:blue;fill:blue;" id="30747" x2="450.00" x1="400.00" y1="500.00" y2="550.00" /><line style="stroke:blue;fill:blue;" id="30748" x2="480.00" x1="400.00" y1="500.00" y2="480.00" /><line style="stroke:blue;fill:blue;" id="30749" x2="320.00" x1="400.00" y1="500.00" y2="500.00" /><line style="stroke:blue;fill:blue;" id="30750" x2="450.00" x1="400.00" y1="600.00" y2="650.00" /><line style="stroke:blue;fill:blue;" id="30751" x2="370.00" x1="400.00" y1="600.00" y2="640.00" /><line style="stroke:blue;fill:blue;" id="30752" x2="450.00" x1="410.00" y1="680.00" y2="650.00" /><line style="stroke:blue;fill:blue;" id="30753" x2="370.00" x1="410.00" y1="680.00" y2="640.00" /><line style="stroke:blue;fill:blue;" id="30754" x2="400.00" x1="410.00" y1="680.00" y2="730.00" /><line style="stroke:blue;fill:blue;" id="30755" x2="350.00" x1="410.00" y1="40.00" y2="50.00" /><line style="stroke:blue;fill:blue;" id="30756" x2="500.00" x1="410.00" y1="40.00" y2="20.00" /><line style="stroke:blue;fill:blue;" id="30757" x2="450.00" x1="410.00" y1="40.00" y2="70.00" /><line style="stroke:blue;fill:blue;" id="30758" x2="450.00" x1="450.00" y1="250.00" y2="300.00" /><line style="stroke:blue;fill:blue;" id="30759" x2="380.00" x1="450.00" y1="250.00" y2="280.00" /><line style="stroke:blue;fill:blue;" id="30760" x2="500.00" x1="450.00" y1="250.00" y2="250.59" /><line style="stroke:blue;fill:blue;" id="30761" x2="500.00" x1="450.00" y1="300.00" y2="300.00" /><line style="stroke:blue;fill:blue;" id="30762" x2="380.00" x1="450.00" y1="300.00" y2="280.00" /><line style="stroke:blue;fill:blue;" id="30763" x2="450.00" x1="450.00" y1="300.00" y2="250.00" /><line style="stroke:blue;fill:blue;" id="30764" x2="450.00" x1="450.00" y1="550.00" y2="650.00" /><line style="stroke:blue;fill:blue;" id="30765" x2="400.00" x1="450.00" y1="550.00" y2="500.00" /><line style="stroke:blue;fill:blue;" id="30766" x2="450.00" x1="450.00" y1="650.00" y2="550.00" /><line style="stroke:blue;fill:blue;" id="30767" x2="400.00" x1="450.00" y1="650.00" y2="600.00" /><line style="stroke:blue;fill:blue;" id="30768" x2="410.00" x1="450.00" y1="650.00" y2="680.00" /><line style="stroke:blue;fill:blue;" id="30769" x2="370.00" x1="450.00" y1="650.00" y2="640.00" /><line style="stroke:blue;fill:blue;" id="30770" x2="480.00" x1="450.00" y1="650.00" y2="700.00" /><line style="stroke:blue;fill:blue;" id="30771" x2="400.00" x1="480.00" y1="480.00" y2="500.00" /><line style="stroke:blue;fill:blue;" id="30772" x2="500.00" x1="480.00" y1="480.00" y2="424.50" /><line style="stroke:blue;fill:blue;" id="30773" x2="450.00" x1="488.79" y1="105.22" y2="70.00" /><line style="stroke:blue;fill:blue;" id="30774" x2="501.25" x1="488.79" y1="105.22" y2="152.61" /><line style="stroke:blue;fill:blue;" id="30775" x2="380.00" x1="488.79" y1="105.22" y2="180.00" /><line style="stroke:blue;fill:blue;" id="30776" x2="400.00" x1="488.79" y1="105.22" y2="120.00" /><line style="stroke:blue;fill:blue;" id="30777" x2="350.00" x1="488.79" y1="105.22" y2="100.00" /><line style="stroke:blue;fill:blue;" id="30778" x2="499.95" x1="501.25" y1="152.61" y2="201.59" /><line style="stroke:blue;fill:blue;" id="30779" x2="488.79" x1="501.25" y1="152.61" y2="105.22" /><line style="stroke:blue;fill:blue;" id="30780" x2="500.00" x1="499.95" y1="201.59" y2="250.59" /><line style="stroke:blue;fill:blue;" id="30781" x2="501.25" x1="499.95" y1="201.59" y2="152.61" /><line style="stroke:blue;fill:blue;" id="30782" x2="550.00" x1="500.00" y1="424.50" y2="500.00" /><line style="stroke:blue;fill:blue;" id="30783" x2="480.00" x1="500.00" y1="424.50" y2="480.00" /><line style="stroke:blue;fill:blue;" id="30784" x2="500.00" x1="500.00" y1="424.50" y2="375.50" /><line style="stroke:blue;fill:blue;" id="30785" x2="620.00" x1="500.00" y1="250.59" y2="250.00" /><line style="stroke:blue;fill:blue;" id="30786" x2="500.00" x1="500.00" y1="250.59" y2="300.00" /><line style="stroke:blue;fill:blue;" id="30787" x2="450.00" x1="500.00" y1="250.59" y2="250.00" /><line style="stroke:blue;fill:blue;" id="30788" x2="499.95" x1="500.00" y1="250.59" y2="201.59" /><line style="stroke:blue;fill:blue;" id="30789" x2="550.00" x1="500.00" y1="250.59" y2="200.00" /><line style="stroke:blue;fill:blue;" id="30790" x2="500.00" x1="500.00" y1="300.00" y2="375.50" /><line style="stroke:blue;fill:blue;" id="30791" x2="450.00" x1="500.00" y1="300.00" y2="300.00" /><line style="stroke:blue;fill:blue;" id="30792" x2="500.00" x1="500.00" y1="300.00" y2="250.59" /><line style="stroke:blue;fill:blue;" id="30793" x2="500.00" x1="500.00" y1="375.50" y2="424.50" /><line style="stroke:blue;fill:blue;" id="30794" x2="500.00" x1="500.00" y1="375.50" y2="300.00" /><line style="stroke:blue;fill:blue;" id="30795" x2="520.00" x1="550.00" y1="500.00" y2="550.00" /><line style="stroke:blue;fill:blue;" id="30796" x2="630.00" x1="550.00" y1="500.00" y2="580.00" /><line style="stroke:blue;fill:blue;" id="30797" x2="650.00" x1="550.00" y1="500.00" y2="480.00" /><line style="stroke:blue;fill:blue;" id="30798" x2="500.00" x1="550.00" y1="500.00" y2="424.50" /><line style="stroke:blue;fill:blue;" id="30799" x2="630.00" x1="550.00" y1="730.00" y2="730.00" /><line style="stroke:blue;fill:blue;" id="30800" x2="500.00" x1="550.00" y1="730.00" y2="750.00" /><line style="stroke:blue;fill:blue;" id="30801" x2="480.00" x1="550.00" y1="730.00" y2="700.00" /><line style="stroke:blue;fill:blue;" id="30802" x2="500.00" x1="550.00" y1="200.00" y2="250.59" /><line style="stroke:blue;fill:blue;" id="30803" x2="600.00" x1="550.00" y1="200.00" y2="150.00" /><line style="stroke:blue;fill:blue;" id="30804" x2="550.00" x1="600.00" y1="150.00" y2="200.00" /><line style="stroke:blue;fill:blue;" id="30805" x2="650.00" x1="600.00" y1="150.00" y2="120.00" /><line style="stroke:blue;fill:blue;" id="30806" x2="700.00" x1="620.00" y1="250.00" y2="280.00" /><line style="stroke:blue;fill:blue;" id="30807" x2="500.00" x1="620.00" y1="250.00" y2="250.59" /><line style="stroke:blue;fill:blue;" id="30808" x2="600.00" x1="650.00" y1="120.00" y2="150.00" /><line style="stroke:blue;fill:blue;" id="30809" x2="700.00" x1="650.00" y1="120.00" y2="100.00" /><line style="stroke:blue;fill:blue;" id="30810" x2="620.00" x1="650.00" y1="120.00" y2="50.00" /><line style="stroke:blue;fill:blue;" id="30811" x2="650.00" x1="700.00" y1="100.00" y2="120.00" /><line style="stroke:blue;fill:blue;" id="30812" x2="780.00" x1="700.00" y1="100.00" y2="80.00" /><line style="stroke:blue;fill:blue;" id="30813" x2="630.00" x1="700.00" y1="730.00" y2="730.00" /><line style="stroke:blue;fill:blue;" id="30814" x2="700.00" x1="700.00" y1="730.00" y2="680.00" /><line style="stroke:blue;fill:blue;" id="30815" x2="630.00" x1="700.00" y1="630.00" y2="580.00" /><line style="stroke:blue;fill:blue;" id="30816" x2="700.00" x1="700.00" y1="630.00" y2="580.00" /><line style="stroke:blue;fill:blue;" id="30817" x2="700.00" x1="700.00" y1="630.00" y2="680.00" /><line style="stroke:blue;fill:blue;" id="30818" x2="800.00" x1="700.00" y1="630.00" y2="580.00" /><line style="stroke:blue;fill:blue;" id="30819" x2="780.00" x1="780.00" y1="80.00" y2="20.00" /><line style="stroke:blue;fill:blue;" id="30820" x2="700.00" x1="780.00" y1="80.00" y2="100.00" /><line style="stroke:blue;fill:blue;" id="30821" x2="850.00" x1="780.00" y1="80.00" y2="80.00" /><line style="stroke:blue;fill:blue;" id="30822" x2="880.00" x1="800.00" y1="580.00" y2="580.00" /><line style="stroke:blue;fill:blue;" id="30823" x2="700.00" x1="800.00" y1="580.00" y2="580.00" /><line style="stroke:blue;fill:blue;" id="30824" x2="880.00" x1="800.00" y1="580.00" y2="650.00" /><line style="stroke:blue;fill:blue;" id="30825" x2="700.00" x1="800.00" y1="580.00" y2="630.00" /><line style="stroke:blue;fill:blue;" id="30826" x2="880.00" x1="850.00" y1="80.00" y2="180.00" /><line style="stroke:blue;fill:blue;" id="30827" x2="780.00" x1="850.00" y1="80.00" y2="80.00" /><line style="stroke:blue;fill:blue;" id="30828" x2="880.00" x1="880.00" y1="180.00" y2="230.00" /><line style="stroke:blue;fill:blue;" id="30829" x2="950.00" x1="880.00" y1="180.00" y2="180.00" /><line style="stroke:blue;fill:blue;" id="30830" x2="850.00" x1="880.00" y1="180.00" y2="80.00" /><line style="stroke:blue;fill:blue;" id="30831" x2="880.00" x1="880.00" y1="230.00" y2="280.00" /><line style="stroke:blue;fill:blue;" id="30832" x2="950.00" x1="880.00" y1="230.00" y2="180.00" /><line style="stroke:blue;fill:blue;" id="30833" x2="880.00" x1="880.00" y1="230.00" y2="180.00" /><line style="stroke:blue;fill:blue;" id="30834" x2="950.00" x1="880.00" y1="230.00" y2="230.00" /><line style="stroke:blue;fill:blue;" id="30835" x2="880.00" x1="880.00" y1="280.00" y2="330.00" /><line style="stroke:blue;fill:blue;" id="30836" x2="880.00" x1="880.00" y1="280.00" y2="230.00" /><line style="stroke:blue;fill:blue;" id="30837" x2="950.00" x1="880.00" y1="330.00" y2="350.00" /><line style="stroke:blue;fill:blue;" id="30838" x2="880.00" x1="880.00" y1="330.00" y2="380.00" /><line style="stroke:blue;fill:blue;" id="30839" x2="880.00" x1="880.00" y1="330.00" y2="280.00" /><line style="stroke:blue;fill:blue;" id="30840" x2="880.00" x1="880.00" y1="380.00" y2="430.00" /><line style="stroke:blue;fill:blue;" id="30841" x2="880.00" x1="880.00" y1="380.00" y2="330.00" /><line style="stroke:blue;fill:blue;" id="30842" x2="950.00" x1="880.00" y1="380.00" y2="350.00" /><line style="stroke:blue;fill:blue;" id="30843" x2="800.00" x1="880.00" y1="380.00" y2="310.00" /><line style="stroke:blue;fill:blue;" id="30844" x2="880.00" x1="880.00" y1="530.00" y2="480.00" /><line style="stroke:blue;fill:blue;" id="30845" x2="880.00" x1="880.00" y1="530.00" y2="580.00" /><line style="stroke:blue;fill:blue;" id="30846" x2="800.00" x1="880.00" y1="530.00" y2="420.00" /><line style="stroke:blue;fill:blue;" id="30847" x2="950.00" x1="880.00" y1="530.00" y2="450.00" /><line style="stroke:blue;fill:blue;" id="30848" x2="150.00" x1="50.00" y1="250.00" y2="250.00" /><line style="stroke:blue;fill:blue;" id="30849" x2="250.00" x1="180.00" y1="100.00" y2="124.50" /><line style="stroke:blue;fill:blue;" id="30850" x2="250.00" x1="180.00" y1="100.00" y2="75.50" /><line style="stroke:blue;fill:blue;" id="30851" x2="488.79" x1="350.00" y1="100.00" y2="105.22" /><line style="stroke:blue;fill:blue;" id="30852" x2="380.00" x1="350.00" y1="100.00" y2="180.00" /><line style="stroke:blue;fill:blue;" id="30853" x2="400.00" x1="350.00" y1="100.00" y2="120.00" /><line style="stroke:blue;fill:blue;" id="30854" x2="488.79" x1="380.00" y1="180.00" y2="105.22" /><line style="stroke:blue;fill:blue;" id="30855" x2="400.00" x1="380.00" y1="180.00" y2="120.00" /><line style="stroke:blue;fill:blue;" id="30856" x2="350.00" x1="380.00" y1="180.00" y2="100.00" /><line style="stroke:blue;fill:blue;" id="30857" x2="488.79" x1="400.00" y1="120.00" y2="105.22" /><line style="stroke:blue;fill:blue;" id="30858" x2="380.00" x1="400.00" y1="120.00" y2="180.00" /><line style="stroke:blue;fill:blue;" id="30859" x2="350.00" x1="400.00" y1="120.00" y2="100.00" /><line style="stroke:blue;fill:blue;" id="30860" x2="410.00" x1="450.00" y1="70.00" y2="40.00" /><line style="stroke:blue;fill:blue;" id="30861" x2="500.00" x1="450.00" y1="70.00" y2="20.00" /><line style="stroke:blue;fill:blue;" id="30862" x2="488.79" x1="450.00" y1="70.00" y2="105.22" /><line style="stroke:blue;fill:blue;" id="30863" x2="450.00" x1="480.00" y1="700.00" y2="650.00" /><line style="stroke:blue;fill:blue;" id="30864" x2="500.00" x1="480.00" y1="700.00" y2="750.00" /><line style="stroke:blue;fill:blue;" id="30865" x2="550.00" x1="480.00" y1="700.00" y2="730.00" /><line style="stroke:blue;fill:blue;" id="30866" x2="480.00" x1="500.00" y1="750.00" y2="700.00" /><line style="stroke:blue;fill:blue;" id="30867" x2="550.00" x1="500.00" y1="750.00" y2="730.00" /><line style="stroke:blue;fill:blue;" id="30868" x2="410.00" x1="500.00" y1="20.00" y2="40.00" /><line style="stroke:blue;fill:blue;" id="30869" x2="450.00" x1="500.00" y1="20.00" y2="70.00" /><line style="stroke:blue;fill:blue;" id="30870" x2="550.00" x1="520.00" y1="550.00" y2="500.00" /><line style="stroke:blue;fill:blue;" id="30871" x2="650.00" x1="630.00" y1="580.00" y2="480.00" /><line style="stroke:blue;fill:blue;" id="30872" x2="700.00" x1="630.00" y1="580.00" y2="580.00" /><line style="stroke:blue;fill:blue;" id="30873" x2="550.00" x1="630.00" y1="580.00" y2="500.00" /><line style="stroke:blue;fill:blue;" id="30874" x2="700.00" x1="630.00" y1="580.00" y2="630.00" /><line style="stroke:blue;fill:blue;" id="30875" x2="650.00" x1="620.00" y1="50.00" y2="120.00" /><line style="stroke:blue;fill:blue;" id="30876" x2="700.00" x1="630.00" y1="730.00" y2="730.00" /><line style="stroke:blue;fill:blue;" id="30877" x2="550.00" x1="630.00" y1="730.00" y2="730.00" /><line style="stroke:blue;fill:blue;" id="30878" x2="630.00" x1="650.00" y1="480.00" y2="580.00" /><line style="stroke:blue;fill:blue;" id="30879" x2="550.00" x1="650.00" y1="480.00" y2="500.00" /><line style="stroke:blue;fill:blue;" id="30880" x2="630.00" x1="700.00" y1="580.00" y2="580.00" /><line style="stroke:blue;fill:blue;" id="30881" x2="700.00" x1="700.00" y1="580.00" y2="630.00" /><line style="stroke:blue;fill:blue;" id="30882" x2="800.00" x1="700.00" y1="580.00" y2="580.00" /><line style="stroke:blue;fill:blue;" id="30883" x2="800.00" x1="700.00" y1="280.00" y2="310.00" /><line style="stroke:blue;fill:blue;" id="30884" x2="620.00" x1="700.00" y1="280.00" y2="250.00" /><line style="stroke:blue;fill:blue;" id="30885" x2="700.00" x1="700.00" y1="680.00" y2="630.00" /><line style="stroke:blue;fill:blue;" id="30886" x2="700.00" x1="700.00" y1="680.00" y2="730.00" /><line style="stroke:blue;fill:blue;" id="30887" x2="780.00" x1="780.00" y1="20.00" y2="80.00" /><line style="stroke:blue;fill:blue;" id="30888" x2="880.00" x1="800.00" y1="420.00" y2="430.00" /><line style="stroke:blue;fill:blue;" id="30889" x2="880.00" x1="800.00" y1="420.00" y2="530.00" /><line style="stroke:blue;fill:blue;" id="30890" x2="880.00" x1="800.00" y1="310.00" y2="380.00" /><line style="stroke:blue;fill:blue;" id="30891" x2="700.00" x1="800.00" y1="310.00" y2="280.00" /><line style="stroke:blue;fill:blue;" id="30892" x2="800.00" x1="880.00" y1="650.00" y2="580.00" /><line style="stroke:blue;fill:blue;" id="30893" x2="880.00" x1="880.00" y1="430.00" y2="480.00" /><line style="stroke:blue;fill:blue;" id="30894" x2="800.00" x1="880.00" y1="430.00" y2="420.00" /><line style="stroke:blue;fill:blue;" id="30895" x2="950.00" x1="880.00" y1="430.00" y2="450.00" /><line style="stroke:blue;fill:blue;" id="30896" x2="880.00" x1="880.00" y1="430.00" y2="380.00" /><line style="stroke:blue;fill:blue;" id="30897" x2="880.00" x1="880.00" y1="480.00" y2="430.00" /><line style="stroke:blue;fill:blue;" id="30898" x2="880.00" x1="880.00" y1="480.00" y2="530.00" /><line style="stroke:blue;fill:blue;" id="30899" x2="880.00" x1="880.00" y1="580.00" y2="530.00" /><line style="stroke:blue;fill:blue;" id="30900" x2="800.00" x1="880.00" y1="580.00" y2="580.00" /><line style="stroke:blue;fill:blue;" id="30901" x2="880.00" x1="950.00" y1="450.00" y2="430.00" /><line style="stroke:blue;fill:blue;" id="30902" x2="880.00" x1="950.00" y1="450.00" y2="530.00" /><line style="stroke:blue;fill:blue;" id="30903" x2="880.00" x1="950.00" y1="180.00" y2="230.00" /><line style="stroke:blue;fill:blue;" id="30904" x2="880.00" x1="950.00" y1="180.00" y2="180.00" /><line style="stroke:blue;fill:blue;" id="30905" x2="950.00" x1="950.00" y1="180.00" y2="230.00" /><line style="stroke:blue;fill:blue;" id="30906" x2="880.00" x1="950.00" y1="230.00" y2="230.00" /><line style="stroke:blue;fill:blue;" id="30907" x2="950.00" x1="950.00" y1="230.00" y2="180.00" /><line style="stroke:blue;fill:blue;" id="30908" x2="880.00" x1="950.00" y1="350.00" y2="330.00" /><line style="stroke:blue;fill:blue;" id="30909" x2="880.00" x1="950.00" y1="350.00" y2="380.00" /></svg>
