<?xml version="1.0" standalone="yes"?><!DOCTYPE svg PUBLIC "-//W3C//DTD SVG 1.1//EN" "http://www.w3.org/Graphics/SVG/1.1/DTD/svg11.dtd"[]><svg height="800.00" id="29469" width="1050.00" xmlns="http://www.w3.org/2000/svg" xmlns:xlink="http://www.w3.org/1999/xlink"><rect Type="system" Region="特纳" height="5.00" y="300.00" Name="JI-1UQ" width="5.00" x="100.00" id="29470" ID="30003661" /><text x="100.00" y="300.00" id="29471">JI-1UQ</text><rect Type="system" Region="特纳" height="5.00" y="520.00" Name="ZXA-V6" width="5.00" x="100.00" id="29473" ID="30003620" /><text x="100.00" y="520.00" id="29474">ZXA-V6</text><rect Type="system" Region="特纳" height="5.00" y="50.00" Name="2-3Q2G" width="5.00" x="100.00" id="29476" ID="30003668" /><text x="100.00" y="50.00" id="29477">2-3Q2G</text><rect Type="system" Region="特纳" height="5.00" y="250.00" Name="W0X-MG" width="5.00" x="100.00" id="29479" ID="30003660" /><text x="100.00" y="250.00" id="29480">W0X-MG</text><rect Type="system" Region="特纳" height="5.00" y="150.00" Name="Q1U-IU" width="5.00" x="120.00" id="29482" ID="30003669" /><text x="120.00" y="150.00" id="29483">Q1U-IU</text><rect Type="system" Region="特纳" height="5.00" y="720.00" Name="H1-ESN" width="5.00" x="120.00" id="29485" ID="30003608" /><text x="120.00" y="720.00" id="29486">H1-ESN</text><rect Type="system" Region="特纳" height="5.00" y="80.00" Name="V7-MID" width="5.00" x="150.00" id="29488" ID="30003666" /><text x="150.00" y="80.00" id="29489">V7-MID</text><rect Type="system" Region="特纳" height="5.00" y="120.00" Name="M-UC0S" width="5.00" x="180.00" id="29491" ID="30003665" /><text x="180.00" y="120.00" id="29492">M-UC0S</text><rect Type="system" Region="特纳" height="5.00" y="420.00" Name="I1-BE8" width="5.00" x="180.00" id="29494" ID="30003621" /><text x="180.00" y="420.00" id="29495">I1-BE8</text><rect Type="system" Region="特纳" height="5.00" y="475.50" Name="ZJ-QOO" width="5.00" x="180.00" id="29497" ID="30003619" /><text x="180.00" y="475.50" id="29498">ZJ-QOO</text><rect Type="system" Region="特纳" height="5.00" y="710.00" Name="3DR-CR" width="5.00" x="190.00" id="29500" ID="30003609" /><text x="190.00" y="710.00" id="29501">3DR-CR</text><rect Type="system" Region="特纳" height="5.00" y="180.00" Name="JSI-LL" width="5.00" x="180.00" id="29503" ID="30003664" /><text x="180.00" y="180.00" id="29504">JSI-LL</text><rect Type="system" Region="特纳" height="5.00" y="524.50" Name="ZH3-BS" width="5.00" x="180.00" id="29506" ID="30003618" /><text x="180.00" y="524.50" id="29507">ZH3-BS</text><rect Type="system" Region="特纳" height="5.00" y="250.00" Name="U5-XW7" width="5.00" x="200.00" id="29509" ID="30003663" /><text x="200.00" y="250.00" id="29510">U5-XW7</text><rect Type="system" Region="特纳" height="5.00" y="300.00" Name="MZPH-W" width="5.00" x="200.00" id="29512" ID="30003659" /><text x="200.00" y="300.00" id="29513">MZPH-W</text><rect Type="system" Region="特纳" height="5.00" y="350.00" Name="ZK-YQ3" width="5.00" x="200.00" id="29515" ID="30003658" /><text x="200.00" y="350.00" id="29516">ZK-YQ3</text><rect Type="system" Region="特纳" height="5.00" y="624.50" Name="W8O-19" width="5.00" x="200.00" id="29518" ID="30003622" /><text x="200.00" y="624.50" id="29519">W8O-19</text><rect Type="system" Region="特纳" height="5.00" y="575.50" Name="1QH-0K" width="5.00" x="200.00" id="29521" ID="30003617" /><text x="200.00" y="575.50" id="29522">1QH-0K</text><rect Type="system" Region="特纳" height="5.00" y="120.00" Name="SY0W-2" width="5.00" x="250.00" id="29524" ID="30003667" /><text x="250.00" y="120.00" id="29525">SY0W-2</text><rect Type="system" Region="特纳" height="5.00" y="280.00" Name="EN-GTB" width="5.00" x="250.00" id="29527" ID="30003662" /><text x="250.00" y="280.00" id="29528">EN-GTB</text><rect Type="system" Region="特纳" height="5.00" y="700.00" Name="RLTG-3" width="5.00" x="250.00" id="29530" ID="30003610" /><text x="250.00" y="700.00" id="29531">RLTG-3</text><rect Type="system" Region="特纳" height="5.00" y="650.00" Name="PNS7-J" width="5.00" x="280.00" id="29533" ID="30003613" /><text x="280.00" y="650.00" id="29534">PNS7-J</text><rect Type="system" Region="特纳" height="5.00" y="220.00" Name="T-K10W" width="5.00" x="300.00" id="29536" ID="30003673" /><text x="300.00" y="220.00" id="29537">T-K10W</text><rect Type="system" Region="特纳" height="5.00" y="550.00" Name="HB-FSO" width="5.00" x="380.00" id="29539" ID="30003633" /><text x="380.00" y="550.00" id="29540">HB-FSO</text><rect Type="system" Region="特纳" height="5.00" y="680.00" Name="S-EVIQ" width="5.00" x="350.00" id="29542" ID="30003611" /><text x="350.00" y="680.00" id="29543">S-EVIQ</text><rect Type="system" Region="特纳" height="5.00" y="200.00" Name="V-LDEJ" width="5.00" x="380.00" id="29545" ID="30003672" /><text x="380.00" y="200.00" id="29546">V-LDEJ</text><rect Type="system" Region="特纳" height="5.00" y="480.00" Name="30-D5G" width="5.00" x="460.00" id="29548" ID="30003632" /><text x="460.00" y="480.00" id="29549">30-D5G</text><rect Type="system" Region="特纳" height="5.00" y="150.00" Name="P-UCRP" width="5.00" x="380.00" id="29551" ID="30003674" /><text x="380.00" y="150.00" id="29552">P-UCRP</text><rect Type="system" Region="特纳" height="5.00" y="550.00" Name="R-YWID" width="5.00" x="460.00" id="29554" ID="30003631" /><text x="460.00" y="550.00" id="29555">R-YWID</text><rect Type="system" Region="特纳" height="5.00" y="600.00" Name="J1-KJP" width="5.00" x="460.00" id="29557" ID="30003634" /><text x="460.00" y="600.00" id="29558">J1-KJP</text><rect Type="system" Region="特纳" height="5.00" y="90.00" Name="3-QYVE" width="5.00" x="400.00" id="29560" ID="30003675" /><text x="400.00" y="90.00" id="29561">3-QYVE</text><rect Type="system" Region="特纳" height="5.00" y="680.00" Name="EOY-BG" width="5.00" x="420.00" id="29563" ID="30003612" /><text x="420.00" y="680.00" id="29564">EOY-BG</text><rect Type="system" Region="特纳" height="5.00" y="200.00" Name="7D-PAT" width="5.00" x="450.00" id="29566" ID="30003671" /><text x="450.00" y="200.00" id="29567">7D-PAT</text><rect Type="system" Region="特纳" height="5.00" y="300.00" Name="33CE-7" width="5.00" x="450.00" id="29569" ID="30003642" /><text x="450.00" y="300.00" id="29570">33CE-7</text><rect Type="system" Region="特纳" height="5.00" y="350.00" Name="U-O2DA" width="5.00" x="450.00" id="29572" ID="30003637" /><text x="450.00" y="350.00" id="29573">U-O2DA</text><rect Type="system" Region="特纳" height="5.00" y="420.00" Name="SZ6-TA" width="5.00" x="450.00" id="29575" ID="30003639" /><text x="450.00" y="420.00" id="29576">SZ6-TA</text><rect Type="system" Region="特纳" height="5.00" y="250.00" Name="C-XNUA" width="5.00" x="480.00" id="29578" ID="30003670" /><text x="480.00" y="250.00" id="29579">C-XNUA</text><rect Type="system" Region="特纳" height="5.00" y="680.00" Name="IG-ZAM" width="5.00" x="500.00" id="29581" ID="30003614" /><text x="500.00" y="680.00" id="29582">IG-ZAM</text><rect Type="system" Region="特纳" height="5.00" y="300.00" Name="6-AOLS" width="5.00" x="520.00" id="29584" ID="30003640" /><text x="520.00" y="300.00" id="29585">6-AOLS</text><rect Type="system" Region="特纳" height="5.00" y="380.00" Name="G06-8Y" width="5.00" x="520.00" id="29587" ID="30003636" /><text x="520.00" y="380.00" id="29588">G06-8Y</text><rect Type="system" Region="特纳" height="5.00" y="480.00" Name="5-O8B1" width="5.00" x="550.00" id="29590" ID="30003630" /><text x="550.00" y="480.00" id="29591">5-O8B1</text><rect Type="system" Region="特纳" height="5.00" y="550.00" Name="S-KSWL" width="5.00" x="550.00" id="29593" ID="30003629" /><text x="550.00" y="550.00" id="29594">S-KSWL</text><rect Type="system" Region="特纳" height="5.00" y="620.00" Name="NCG-PW" width="5.00" x="550.00" id="29596" ID="30003616" /><text x="550.00" y="620.00" id="29597">NCG-PW</text><rect Type="system" Region="特纳" height="5.00" y="680.00" Name="0-UVHJ" width="5.00" x="580.00" id="29599" ID="30003615" /><text x="580.00" y="680.00" id="29600">0-UVHJ</text><rect Type="system" Region="特纳" height="5.00" y="270.00" Name="L-P3XM" width="5.00" x="580.00" id="29602" ID="30003643" /><text x="580.00" y="270.00" id="29603">L-P3XM</text><rect Type="system" Region="特纳" height="5.00" y="350.00" Name="WV-0R2" width="5.00" x="600.00" id="29605" ID="30003638" /><text x="600.00" y="350.00" id="29606">WV-0R2</text><rect Type="system" Region="特纳" height="5.00" y="400.00" Name="IKTD-P" width="5.00" x="600.00" id="29608" ID="30003641" /><text x="600.00" y="400.00" id="29609">IKTD-P</text><rect Type="system" Region="特纳" height="5.00" y="480.00" Name="KW-1MV" width="5.00" x="600.00" id="29611" ID="30003635" /><text x="600.00" y="480.00" id="29612">KW-1MV</text><rect Type="system" Region="特纳" height="5.00" y="620.00" Name="KMV-CQ" width="5.00" x="650.00" id="29614" ID="30003625" /><text x="650.00" y="620.00" id="29615">KMV-CQ</text><rect Type="system" Region="特纳" height="5.00" y="680.00" Name="U1TX-A" width="5.00" x="650.00" id="29617" ID="30003623" /><text x="650.00" y="680.00" id="29618">U1TX-A</text><rect Type="system" Region="特纳" height="5.00" y="340.00" Name="6OYQ-Z" width="5.00" x="670.00" id="29620" ID="30003648" /><text x="670.00" y="340.00" id="29621">6OYQ-Z</text><rect Type="system" Region="特纳" height="5.00" y="380.00" Name="Z-LO6I" width="5.00" x="710.00" id="29623" ID="30003646" /><text x="710.00" y="380.00" id="29624">Z-LO6I</text><rect Type="system" Region="特纳" height="5.00" y="430.00" Name="O36A-P" width="5.00" x="700.00" id="29626" ID="30003645" /><text x="700.00" y="430.00" id="29627">O36A-P</text><rect Type="system" Region="特纳" height="5.00" y="480.00" Name="DCJ-ZT" width="5.00" x="700.00" id="29629" ID="30003644" /><text x="700.00" y="480.00" id="29630">DCJ-ZT</text><rect Type="system" Region="特纳" height="5.00" y="580.00" Name="NV-3KA" width="5.00" x="720.00" id="29632" ID="30003627" /><text x="720.00" y="580.00" id="29633">NV-3KA</text><rect Type="system" Region="特纳" height="5.00" y="300.00" Name="HE5T-A" width="5.00" x="750.00" id="29635" ID="30003649" /><text x="750.00" y="300.00" id="29636">HE5T-A</text><rect Type="system" Region="特纳" height="5.00" y="350.00" Name="0M-103" width="5.00" x="750.00" id="29638" ID="30003647" /><text x="750.00" y="350.00" id="29639">0M-103</text><rect Type="system" Region="特纳" height="5.00" y="630.00" Name="1BWK-S" width="5.00" x="760.00" id="29641" ID="30003624" /><text x="760.00" y="630.00" id="29642">1BWK-S</text><rect Type="system" Region="特纳" height="5.00" y="250.00" Name="SF-XJS" width="5.00" x="800.00" id="29644" ID="30003654" /><text x="800.00" y="250.00" id="29645">SF-XJS</text><rect Type="system" Region="特纳" height="5.00" y="550.00" Name="RKE-CP" width="5.00" x="800.00" id="29647" ID="30003626" /><text x="800.00" y="550.00" id="29648">RKE-CP</text><rect Type="system" Region="特纳" height="5.00" y="180.00" Name="A1RR-M" width="5.00" x="820.00" id="29650" ID="30003655" /><text x="820.00" y="180.00" id="29651">A1RR-M</text><rect Type="system" Region="特纳" height="5.00" y="300.00" Name="Y-YHZQ" width="5.00" x="850.00" id="29653" ID="30003651" /><text x="850.00" y="300.00" id="29654">Y-YHZQ</text><rect Type="system" Region="特纳" height="5.00" y="350.00" Name="A-1IJ9" width="5.00" x="840.00" id="29656" ID="30003650" /><text x="840.00" y="350.00" id="29657">A-1IJ9</text><rect Type="system" Region="特纳" height="5.00" y="580.00" Name="S-1LIO" width="5.00" x="880.00" id="29659" ID="30003628" /><text x="880.00" y="580.00" id="29660">S-1LIO</text><rect Type="system" Region="特纳" height="5.00" y="200.00" Name="AR-5SY" width="5.00" x="920.00" id="29662" ID="30003656" /><text x="920.00" y="200.00" id="29663">AR-5SY</text><rect Type="system" Region="特纳" height="5.00" y="350.00" Name="Z-SR1I" width="5.00" x="920.00" id="29665" ID="30003652" /><text x="920.00" y="350.00" id="29666">Z-SR1I</text><rect Type="system" Region="特纳" height="5.00" y="280.00" Name="GW7P-8" width="5.00" x="950.00" id="29668" ID="30003653" /><text x="950.00" y="280.00" id="29669">GW7P-8</text><rect Type="system" Region="特纳" height="5.00" y="120.00" Name="OE-4HB" width="5.00" x="950.00" id="29671" ID="30003657" /><text x="950.00" y="120.00" id="29672">OE-4HB</text><rect Type="system" Region="血脉" height="5.00" y="20.00" Name="ZIU-EP" width="5.00" x="20.00" id="29674" ID="30004363" /><text x="20.00" y="20.00" id="29675">ZIU-EP</text><rect Type="system" Region="血脉" height="5.00" y="550.00" Name="T-Q2DD" width="5.00" x="20.00" id="29677" ID="30004352" /><text x="20.00" y="550.00" id="29678">T-Q2DD</text><rect Type="system" Region="血脉" height="5.00" y="150.00" Name="CH9L-K" width="5.00" x="50.00" id="29680" ID="30004401" /><text x="50.00" y="150.00" id="29681">CH9L-K</text><rect Type="system" Region="血脉" height="5.00" y="700.00" Name="OJ-A8M" width="5.00" x="50.00" id="29683" ID="30004334" /><text x="50.00" y="700.00" id="29684">OJ-A8M</text><rect Type="system" Region="维纳尔" height="5.00" y="750.00" Name="B3QP-K" width="5.00" x="420.00" id="29686" ID="30001346" /><text x="420.00" y="750.00" id="29687">B3QP-K</text><rect Type="system" Region="钴蓝边域" height="5.00" y="200.00" Name="HB-5L3" width="5.00" x="720.00" id="29689" ID="30004228" /><text x="720.00" y="200.00" id="29690">HB-5L3</text><rect Type="system" Region="维纳尔" height="5.00" y="50.00" Name="42XJ-N" width="5.00" x="980.00" id="29692" ID="30001349" /><text x="980.00" y="50.00" id="29693">42XJ-N</text><line x2="200.00" style="fill:blue;stroke:blue;" y1="300.00" x1="100.00" id="29695" y2="300.00" /><line x2="100.00" style="fill:blue;stroke:blue;" y1="300.00" x1="100.00" id="29696" y2="250.00" /><line x2="180.00" style="fill:blue;stroke:blue;" y1="520.00" x1="100.00" id="29697" y2="475.50" /><line x2="20.00" style="fill:blue;stroke:blue;" y1="520.00" x1="100.00" id="29698" y2="550.00" /><line x2="150.00" style="fill:blue;stroke:blue;" y1="50.00" x1="100.00" id="29699" y2="80.00" /><line x2="20.00" style="fill:blue;stroke:blue;" y1="50.00" x1="100.00" id="29700" y2="20.00" /><line x2="200.00" style="fill:blue;stroke:blue;" y1="250.00" x1="100.00" id="29701" y2="300.00" /><line x2="100.00" style="fill:blue;stroke:blue;" y1="250.00" x1="100.00" id="29702" y2="300.00" /><line x2="180.00" style="fill:blue;stroke:blue;" y1="150.00" x1="120.00" id="29703" y2="180.00" /><line x2="50.00" style="fill:blue;stroke:blue;" y1="150.00" x1="120.00" id="29704" y2="150.00" /><line x2="190.00" style="fill:blue;stroke:blue;" y1="720.00" x1="120.00" id="29705" y2="710.00" /><line x2="50.00" style="fill:blue;stroke:blue;" y1="720.00" x1="120.00" id="29706" y2="700.00" /><line x2="180.00" style="fill:blue;stroke:blue;" y1="80.00" x1="150.00" id="29707" y2="120.00" /><line x2="100.00" style="fill:blue;stroke:blue;" y1="80.00" x1="150.00" id="29708" y2="50.00" /><line x2="180.00" style="fill:blue;stroke:blue;" y1="120.00" x1="180.00" id="29709" y2="180.00" /><line x2="150.00" style="fill:blue;stroke:blue;" y1="120.00" x1="180.00" id="29710" y2="80.00" /><line x2="250.00" style="fill:blue;stroke:blue;" y1="120.00" x1="180.00" id="29711" y2="120.00" /><line x2="180.00" style="fill:blue;stroke:blue;" y1="420.00" x1="180.00" id="29712" y2="475.50" /><line x2="200.00" style="fill:blue;stroke:blue;" y1="420.00" x1="180.00" id="29713" y2="350.00" /><line x2="180.00" style="fill:blue;stroke:blue;" y1="475.50" x1="180.00" id="29714" y2="524.50" /><line x2="100.00" style="fill:blue;stroke:blue;" y1="475.50" x1="180.00" id="29715" y2="520.00" /><line x2="180.00" style="fill:blue;stroke:blue;" y1="475.50" x1="180.00" id="29716" y2="420.00" /><line x2="120.00" style="fill:blue;stroke:blue;" y1="710.00" x1="190.00" id="29717" y2="720.00" /><line x2="250.00" style="fill:blue;stroke:blue;" y1="710.00" x1="190.00" id="29718" y2="700.00" /><line x2="200.00" style="fill:blue;stroke:blue;" y1="180.00" x1="180.00" id="29719" y2="250.00" /><line x2="180.00" style="fill:blue;stroke:blue;" y1="180.00" x1="180.00" id="29720" y2="120.00" /><line x2="250.00" style="fill:blue;stroke:blue;" y1="180.00" x1="180.00" id="29721" y2="120.00" /><line x2="120.00" style="fill:blue;stroke:blue;" y1="180.00" x1="180.00" id="29722" y2="150.00" /><line x2="200.00" style="fill:blue;stroke:blue;" y1="524.50" x1="180.00" id="29723" y2="575.50" /><line x2="180.00" style="fill:blue;stroke:blue;" y1="524.50" x1="180.00" id="29724" y2="475.50" /><line x2="200.00" style="fill:blue;stroke:blue;" y1="250.00" x1="200.00" id="29725" y2="300.00" /><line x2="180.00" style="fill:blue;stroke:blue;" y1="250.00" x1="200.00" id="29726" y2="180.00" /><line x2="200.00" style="fill:blue;stroke:blue;" y1="300.00" x1="200.00" id="29727" y2="350.00" /><line x2="100.00" style="fill:blue;stroke:blue;" y1="300.00" x1="200.00" id="29728" y2="250.00" /><line x2="100.00" style="fill:blue;stroke:blue;" y1="300.00" x1="200.00" id="29729" y2="300.00" /><line x2="200.00" style="fill:blue;stroke:blue;" y1="300.00" x1="200.00" id="29730" y2="250.00" /><line x2="180.00" style="fill:blue;stroke:blue;" y1="350.00" x1="200.00" id="29731" y2="420.00" /><line x2="200.00" style="fill:blue;stroke:blue;" y1="350.00" x1="200.00" id="29732" y2="300.00" /><line x2="250.00" style="fill:blue;stroke:blue;" y1="350.00" x1="200.00" id="29733" y2="280.00" /><line x2="200.00" style="fill:blue;stroke:blue;" y1="624.50" x1="200.00" id="29734" y2="575.50" /><line x2="280.00" style="fill:blue;stroke:blue;" y1="575.50" x1="200.00" id="29735" y2="650.00" /><line x2="180.00" style="fill:blue;stroke:blue;" y1="575.50" x1="200.00" id="29736" y2="524.50" /><line x2="200.00" style="fill:blue;stroke:blue;" y1="575.50" x1="200.00" id="29737" y2="624.50" /><line x2="180.00" style="fill:blue;stroke:blue;" y1="120.00" x1="250.00" id="29738" y2="180.00" /><line x2="180.00" style="fill:blue;stroke:blue;" y1="120.00" x1="250.00" id="29739" y2="120.00" /><line x2="200.00" style="fill:blue;stroke:blue;" y1="280.00" x1="250.00" id="29740" y2="350.00" /><line x2="300.00" style="fill:blue;stroke:blue;" y1="280.00" x1="250.00" id="29741" y2="220.00" /><line x2="190.00" style="fill:blue;stroke:blue;" y1="700.00" x1="250.00" id="29742" y2="710.00" /><line x2="350.00" style="fill:blue;stroke:blue;" y1="700.00" x1="250.00" id="29743" y2="680.00" /><line x2="350.00" style="fill:blue;stroke:blue;" y1="650.00" x1="280.00" id="29744" y2="680.00" /><line x2="200.00" style="fill:blue;stroke:blue;" y1="650.00" x1="280.00" id="29745" y2="575.50" /><line x2="250.00" style="fill:blue;stroke:blue;" y1="220.00" x1="300.00" id="29746" y2="280.00" /><line x2="380.00" style="fill:blue;stroke:blue;" y1="220.00" x1="300.00" id="29747" y2="200.00" /><line x2="460.00" style="fill:blue;stroke:blue;" y1="550.00" x1="380.00" id="29748" y2="550.00" /><line x2="460.00" style="fill:blue;stroke:blue;" y1="550.00" x1="380.00" id="29749" y2="600.00" /><line x2="250.00" style="fill:blue;stroke:blue;" y1="680.00" x1="350.00" id="29750" y2="700.00" /><line x2="420.00" style="fill:blue;stroke:blue;" y1="680.00" x1="350.00" id="29751" y2="680.00" /><line x2="280.00" style="fill:blue;stroke:blue;" y1="680.00" x1="350.00" id="29752" y2="650.00" /><line x2="450.00" style="fill:blue;stroke:blue;" y1="200.00" x1="380.00" id="29753" y2="200.00" /><line x2="300.00" style="fill:blue;stroke:blue;" y1="200.00" x1="380.00" id="29754" y2="220.00" /><line x2="380.00" style="fill:blue;stroke:blue;" y1="200.00" x1="380.00" id="29755" y2="150.00" /><line x2="460.00" style="fill:blue;stroke:blue;" y1="480.00" x1="460.00" id="29756" y2="550.00" /><line x2="380.00" style="fill:blue;stroke:blue;" y1="150.00" x1="380.00" id="29757" y2="200.00" /><line x2="400.00" style="fill:blue;stroke:blue;" y1="150.00" x1="380.00" id="29758" y2="90.00" /><line x2="550.00" style="fill:blue;stroke:blue;" y1="550.00" x1="460.00" id="29759" y2="550.00" /><line x2="460.00" style="fill:blue;stroke:blue;" y1="550.00" x1="460.00" id="29760" y2="480.00" /><line x2="380.00" style="fill:blue;stroke:blue;" y1="550.00" x1="460.00" id="29761" y2="550.00" /><line x2="460.00" style="fill:blue;stroke:blue;" y1="550.00" x1="460.00" id="29762" y2="600.00" /><line x2="550.00" style="fill:blue;stroke:blue;" y1="600.00" x1="460.00" id="29763" y2="550.00" /><line x2="460.00" style="fill:blue;stroke:blue;" y1="600.00" x1="460.00" id="29764" y2="550.00" /><line x2="380.00" style="fill:blue;stroke:blue;" y1="600.00" x1="460.00" id="29765" y2="550.00" /><line x2="380.00" style="fill:blue;stroke:blue;" y1="90.00" x1="400.00" id="29766" y2="150.00" /><line x2="420.00" style="fill:blue;stroke:blue;" y1="680.00" x1="420.00" id="29767" y2="750.00" /><line x2="350.00" style="fill:blue;stroke:blue;" y1="680.00" x1="420.00" id="29768" y2="680.00" /><line x2="500.00" style="fill:blue;stroke:blue;" y1="680.00" x1="420.00" id="29769" y2="680.00" /><line x2="480.00" style="fill:blue;stroke:blue;" y1="200.00" x1="450.00" id="29770" y2="250.00" /><line x2="380.00" style="fill:blue;stroke:blue;" y1="200.00" x1="450.00" id="29771" y2="200.00" /><line x2="520.00" style="fill:blue;stroke:blue;" y1="300.00" x1="450.00" id="29772" y2="300.00" /><line x2="520.00" style="fill:blue;stroke:blue;" y1="350.00" x1="450.00" id="29773" y2="380.00" /><line x2="450.00" style="fill:blue;stroke:blue;" y1="350.00" x1="450.00" id="29774" y2="420.00" /><line x2="520.00" style="fill:blue;stroke:blue;" y1="420.00" x1="450.00" id="29775" y2="380.00" /><line x2="450.00" style="fill:blue;stroke:blue;" y1="420.00" x1="450.00" id="29776" y2="350.00" /><line x2="520.00" style="fill:blue;stroke:blue;" y1="250.00" x1="480.00" id="29777" y2="300.00" /><line x2="450.00" style="fill:blue;stroke:blue;" y1="250.00" x1="480.00" id="29778" y2="200.00" /><line x2="420.00" style="fill:blue;stroke:blue;" y1="680.00" x1="500.00" id="29779" y2="680.00" /><line x2="580.00" style="fill:blue;stroke:blue;" y1="680.00" x1="500.00" id="29780" y2="680.00" /><line x2="550.00" style="fill:blue;stroke:blue;" y1="680.00" x1="500.00" id="29781" y2="620.00" /><line x2="520.00" style="fill:blue;stroke:blue;" y1="300.00" x1="520.00" id="29782" y2="380.00" /><line x2="450.00" style="fill:blue;stroke:blue;" y1="300.00" x1="520.00" id="29783" y2="300.00" /><line x2="580.00" style="fill:blue;stroke:blue;" y1="300.00" x1="520.00" id="29784" y2="270.00" /><line x2="480.00" style="fill:blue;stroke:blue;" y1="300.00" x1="520.00" id="29785" y2="250.00" /><line x2="550.00" style="fill:blue;stroke:blue;" y1="380.00" x1="520.00" id="29786" y2="480.00" /><line x2="450.00" style="fill:blue;stroke:blue;" y1="380.00" x1="520.00" id="29787" y2="350.00" /><line x2="600.00" style="fill:blue;stroke:blue;" y1="380.00" x1="520.00" id="29788" y2="350.00" /><line x2="450.00" style="fill:blue;stroke:blue;" y1="380.00" x1="520.00" id="29789" y2="420.00" /><line x2="520.00" style="fill:blue;stroke:blue;" y1="380.00" x1="520.00" id="29790" y2="300.00" /><line x2="600.00" style="fill:blue;stroke:blue;" y1="380.00" x1="520.00" id="29791" y2="400.00" /><line x2="550.00" style="fill:blue;stroke:blue;" y1="480.00" x1="550.00" id="29792" y2="550.00" /><line x2="600.00" style="fill:blue;stroke:blue;" y1="480.00" x1="550.00" id="29793" y2="480.00" /><line x2="520.00" style="fill:blue;stroke:blue;" y1="480.00" x1="550.00" id="29794" y2="380.00" /><line x2="550.00" style="fill:blue;stroke:blue;" y1="550.00" x1="550.00" id="29795" y2="620.00" /><line x2="550.00" style="fill:blue;stroke:blue;" y1="550.00" x1="550.00" id="29796" y2="480.00" /><line x2="460.00" style="fill:blue;stroke:blue;" y1="550.00" x1="550.00" id="29797" y2="550.00" /><line x2="460.00" style="fill:blue;stroke:blue;" y1="550.00" x1="550.00" id="29798" y2="600.00" /><line x2="500.00" style="fill:blue;stroke:blue;" y1="620.00" x1="550.00" id="29799" y2="680.00" /><line x2="580.00" style="fill:blue;stroke:blue;" y1="620.00" x1="550.00" id="29800" y2="680.00" /><line x2="550.00" style="fill:blue;stroke:blue;" y1="620.00" x1="550.00" id="29801" y2="550.00" /><line x2="500.00" style="fill:blue;stroke:blue;" y1="680.00" x1="580.00" id="29802" y2="680.00" /><line x2="550.00" style="fill:blue;stroke:blue;" y1="680.00" x1="580.00" id="29803" y2="620.00" /><line x2="650.00" style="fill:blue;stroke:blue;" y1="680.00" x1="580.00" id="29804" y2="680.00" /><line x2="520.00" style="fill:blue;stroke:blue;" y1="270.00" x1="580.00" id="29805" y2="300.00" /><line x2="520.00" style="fill:blue;stroke:blue;" y1="350.00" x1="600.00" id="29806" y2="380.00" /><line x2="520.00" style="fill:blue;stroke:blue;" y1="400.00" x1="600.00" id="29807" y2="380.00" /><line x2="550.00" style="fill:blue;stroke:blue;" y1="480.00" x1="600.00" id="29808" y2="480.00" /><line x2="650.00" style="fill:blue;stroke:blue;" y1="620.00" x1="650.00" id="29809" y2="680.00" /><line x2="720.00" style="fill:blue;stroke:blue;" y1="620.00" x1="650.00" id="29810" y2="580.00" /><line x2="700.00" style="fill:blue;stroke:blue;" y1="620.00" x1="650.00" id="29811" y2="480.00" /><line x2="580.00" style="fill:blue;stroke:blue;" y1="680.00" x1="650.00" id="29812" y2="680.00" /><line x2="760.00" style="fill:blue;stroke:blue;" y1="680.00" x1="650.00" id="29813" y2="630.00" /><line x2="650.00" style="fill:blue;stroke:blue;" y1="680.00" x1="650.00" id="29814" y2="620.00" /><line x2="710.00" style="fill:blue;stroke:blue;" y1="340.00" x1="670.00" id="29815" y2="380.00" /><line x2="700.00" style="fill:blue;stroke:blue;" y1="380.00" x1="710.00" id="29816" y2="430.00" /><line x2="750.00" style="fill:blue;stroke:blue;" y1="380.00" x1="710.00" id="29817" y2="350.00" /><line x2="670.00" style="fill:blue;stroke:blue;" y1="380.00" x1="710.00" id="29818" y2="340.00" /><line x2="700.00" style="fill:blue;stroke:blue;" y1="430.00" x1="700.00" id="29819" y2="480.00" /><line x2="710.00" style="fill:blue;stroke:blue;" y1="430.00" x1="700.00" id="29820" y2="380.00" /><line x2="650.00" style="fill:blue;stroke:blue;" y1="480.00" x1="700.00" id="29821" y2="620.00" /><line x2="700.00" style="fill:blue;stroke:blue;" y1="480.00" x1="700.00" id="29822" y2="430.00" /><line x2="760.00" style="fill:blue;stroke:blue;" y1="580.00" x1="720.00" id="29823" y2="630.00" /><line x2="650.00" style="fill:blue;stroke:blue;" y1="580.00" x1="720.00" id="29824" y2="620.00" /><line x2="800.00" style="fill:blue;stroke:blue;" y1="580.00" x1="720.00" id="29825" y2="550.00" /><line x2="750.00" style="fill:blue;stroke:blue;" y1="300.00" x1="750.00" id="29826" y2="350.00" /><line x2="710.00" style="fill:blue;stroke:blue;" y1="350.00" x1="750.00" id="29827" y2="380.00" /><line x2="750.00" style="fill:blue;stroke:blue;" y1="350.00" x1="750.00" id="29828" y2="300.00" /><line x2="650.00" style="fill:blue;stroke:blue;" y1="630.00" x1="760.00" id="29829" y2="680.00" /><line x2="800.00" style="fill:blue;stroke:blue;" y1="630.00" x1="760.00" id="29830" y2="550.00" /><line x2="720.00" style="fill:blue;stroke:blue;" y1="630.00" x1="760.00" id="29831" y2="580.00" /><line x2="850.00" style="fill:blue;stroke:blue;" y1="250.00" x1="800.00" id="29832" y2="300.00" /><line x2="820.00" style="fill:blue;stroke:blue;" y1="250.00" x1="800.00" id="29833" y2="180.00" /><line x2="720.00" style="fill:blue;stroke:blue;" y1="250.00" x1="800.00" id="29834" y2="200.00" /><line x2="760.00" style="fill:blue;stroke:blue;" y1="550.00" x1="800.00" id="29835" y2="630.00" /><line x2="720.00" style="fill:blue;stroke:blue;" y1="550.00" x1="800.00" id="29836" y2="580.00" /><line x2="880.00" style="fill:blue;stroke:blue;" y1="550.00" x1="800.00" id="29837" y2="580.00" /><line x2="840.00" style="fill:blue;stroke:blue;" y1="550.00" x1="800.00" id="29838" y2="350.00" /><line x2="950.00" style="fill:blue;stroke:blue;" y1="180.00" x1="820.00" id="29839" y2="280.00" /><line x2="800.00" style="fill:blue;stroke:blue;" y1="180.00" x1="820.00" id="29840" y2="250.00" /><line x2="920.00" style="fill:blue;stroke:blue;" y1="180.00" x1="820.00" id="29841" y2="200.00" /><line x2="950.00" style="fill:blue;stroke:blue;" y1="180.00" x1="820.00" id="29842" y2="120.00" /><line x2="840.00" style="fill:blue;stroke:blue;" y1="300.00" x1="850.00" id="29843" y2="350.00" /><line x2="920.00" style="fill:blue;stroke:blue;" y1="300.00" x1="850.00" id="29844" y2="350.00" /><line x2="950.00" style="fill:blue;stroke:blue;" y1="300.00" x1="850.00" id="29845" y2="280.00" /><line x2="800.00" style="fill:blue;stroke:blue;" y1="300.00" x1="850.00" id="29846" y2="250.00" /><line x2="800.00" style="fill:blue;stroke:blue;" y1="350.00" x1="840.00" id="29847" y2="550.00" /><line x2="850.00" style="fill:blue;stroke:blue;" y1="350.00" x1="840.00" id="29848" y2="300.00" /><line x2="800.00" style="fill:blue;stroke:blue;" y1="580.00" x1="880.00" id="29849" y2="550.00" /><line x2="950.00" style="fill:blue;stroke:blue;" y1="200.00" x1="920.00" id="29850" y2="280.00" /><line x2="820.00" style="fill:blue;stroke:blue;" y1="200.00" x1="920.00" id="29851" y2="180.00" /><line x2="950.00" style="fill:blue;stroke:blue;" y1="200.00" x1="920.00" id="29852" y2="120.00" /><line x2="850.00" style="fill:blue;stroke:blue;" y1="350.00" x1="920.00" id="29853" y2="300.00" /><line x2="950.00" style="fill:blue;stroke:blue;" y1="350.00" x1="920.00" id="29854" y2="280.00" /><line x2="850.00" style="fill:blue;stroke:blue;" y1="280.00" x1="950.00" id="29855" y2="300.00" /><line x2="920.00" style="fill:blue;stroke:blue;" y1="280.00" x1="950.00" id="29856" y2="350.00" /><line x2="820.00" style="fill:blue;stroke:blue;" y1="280.00" x1="950.00" id="29857" y2="180.00" /><line x2="920.00" style="fill:blue;stroke:blue;" y1="280.00" x1="950.00" id="29858" y2="200.00" /><line x2="950.00" style="fill:blue;stroke:blue;" y1="280.00" x1="950.00" id="29859" y2="120.00" /><line x2="980.00" style="fill:blue;stroke:blue;" y1="120.00" x1="950.00" id="29860" y2="50.00" /><line x2="950.00" style="fill:blue;stroke:blue;" y1="120.00" x1="950.00" id="29861" y2="280.00" /><line x2="820.00" style="fill:blue;stroke:blue;" y1="120.00" x1="950.00" id="29862" y2="180.00" /><line x2="920.00" style="fill:blue;stroke:blue;" y1="120.00" x1="950.00" id="29863" y2="200.00" /><line x2="100.00" style="fill:blue;stroke:blue;" y1="20.00" x1="20.00" id="29864" y2="50.00" /><line x2="100.00" style="fill:blue;stroke:blue;" y1="550.00" x1="20.00" id="29865" y2="520.00" /><line x2="120.00" style="fill:blue;stroke:blue;" y1="150.00" x1="50.00" id="29866" y2="150.00" /><line x2="120.00" style="fill:blue;stroke:blue;" y1="700.00" x1="50.00" id="29867" y2="720.00" /><line x2="420.00" style="fill:blue;stroke:blue;" y1="750.00" x1="420.00" id="29868" y2="680.00" /><line x2="800.00" style="fill:blue;stroke:blue;" y1="200.00" x1="720.00" id="29869" y2="250.00" /><line x2="950.00" style="fill:blue;stroke:blue;" y1="50.00" x1="980.00" id="29870" y2="120.00" /></svg>
