<?xml version="1.0" standalone="yes"?><!DOCTYPE svg PUBLIC "-//W3C//DTD SVG 1.1//EN" "http://www.w3.org/Graphics/SVG/1.1/DTD/svg11.dtd"[]><svg width="1050.00" height="800.00" id="29469" xmlns="http://www.w3.org/2000/svg" xmlns:xlink="http://www.w3.org/1999/xlink"><rect Type="system" x="100.00" id="29470" height="5.00" width="5.00" Name="JI-1UQ" ID="30003661" Region="特纳" y="300.00" /><text y="300.00" x="100.00" id="29471">JI-1UQ</text><rect Type="system" x="100.00" id="29473" height="5.00" width="5.00" Name="ZXA-V6" ID="30003620" Region="特纳" y="520.00" /><text y="520.00" x="100.00" id="29474">ZXA-V6</text><rect Type="system" x="100.00" id="29476" height="5.00" width="5.00" Name="2-3Q2G" ID="30003668" Region="特纳" y="50.00" /><text y="50.00" x="100.00" id="29477">2-3Q2G</text><rect Type="system" x="100.00" id="29479" height="5.00" width="5.00" Name="W0X-MG" ID="30003660" Region="特纳" y="250.00" /><text y="250.00" x="100.00" id="29480">W0X-MG</text><rect Type="system" x="120.00" id="29482" height="5.00" width="5.00" Name="Q1U-IU" ID="30003669" Region="特纳" y="150.00" /><text y="150.00" x="120.00" id="29483">Q1U-IU</text><rect Type="system" x="120.00" id="29485" height="5.00" width="5.00" Name="H1-ESN" ID="30003608" Region="特纳" y="720.00" /><text y="720.00" x="120.00" id="29486">H1-ESN</text><rect Type="system" x="150.00" id="29488" height="5.00" width="5.00" Name="V7-MID" ID="30003666" Region="特纳" y="80.00" /><text y="80.00" x="150.00" id="29489">V7-MID</text><rect Type="system" x="180.00" id="29491" height="5.00" width="5.00" Name="M-UC0S" ID="30003665" Region="特纳" y="120.00" /><text y="120.00" x="180.00" id="29492">M-UC0S</text><rect Type="system" x="180.00" id="29494" height="5.00" width="5.00" Name="I1-BE8" ID="30003621" Region="特纳" y="420.00" /><text y="420.00" x="180.00" id="29495">I1-BE8</text><rect Type="system" x="180.00" id="29497" height="5.00" width="5.00" Name="ZJ-QOO" ID="30003619" Region="特纳" y="475.50" /><text y="475.50" x="180.00" id="29498">ZJ-QOO</text><rect Type="system" x="190.00" id="29500" height="5.00" width="5.00" Name="3DR-CR" ID="30003609" Region="特纳" y="710.00" /><text y="710.00" x="190.00" id="29501">3DR-CR</text><rect Type="system" x="180.00" id="29503" height="5.00" width="5.00" Name="JSI-LL" ID="30003664" Region="特纳" y="180.00" /><text y="180.00" x="180.00" id="29504">JSI-LL</text><rect Type="system" x="180.00" id="29506" height="5.00" width="5.00" Name="ZH3-BS" ID="30003618" Region="特纳" y="524.50" /><text y="524.50" x="180.00" id="29507">ZH3-BS</text><rect Type="system" x="200.00" id="29509" height="5.00" width="5.00" Name="U5-XW7" ID="30003663" Region="特纳" y="250.00" /><text y="250.00" x="200.00" id="29510">U5-XW7</text><rect Type="system" x="200.00" id="29512" height="5.00" width="5.00" Name="MZPH-W" ID="30003659" Region="特纳" y="300.00" /><text y="300.00" x="200.00" id="29513">MZPH-W</text><rect Type="system" x="200.00" id="29515" height="5.00" width="5.00" Name="ZK-YQ3" ID="30003658" Region="特纳" y="350.00" /><text y="350.00" x="200.00" id="29516">ZK-YQ3</text><rect Type="system" x="200.00" id="29518" height="5.00" width="5.00" Name="W8O-19" ID="30003622" Region="特纳" y="624.50" /><text y="624.50" x="200.00" id="29519">W8O-19</text><rect Type="system" x="200.00" id="29521" height="5.00" width="5.00" Name="1QH-0K" ID="30003617" Region="特纳" y="575.50" /><text y="575.50" x="200.00" id="29522">1QH-0K</text><rect Type="system" x="250.00" id="29524" height="5.00" width="5.00" Name="SY0W-2" ID="30003667" Region="特纳" y="120.00" /><text y="120.00" x="250.00" id="29525">SY0W-2</text><rect Type="system" x="250.00" id="29527" height="5.00" width="5.00" Name="EN-GTB" ID="30003662" Region="特纳" y="280.00" /><text y="280.00" x="250.00" id="29528">EN-GTB</text><rect Type="system" x="250.00" id="29530" height="5.00" width="5.00" Name="RLTG-3" ID="30003610" Region="特纳" y="700.00" /><text y="700.00" x="250.00" id="29531">RLTG-3</text><rect Type="system" x="280.00" id="29533" height="5.00" width="5.00" Name="PNS7-J" ID="30003613" Region="特纳" y="650.00" /><text y="650.00" x="280.00" id="29534">PNS7-J</text><rect Type="system" x="300.00" id="29536" height="5.00" width="5.00" Name="T-K10W" ID="30003673" Region="特纳" y="220.00" /><text y="220.00" x="300.00" id="29537">T-K10W</text><rect Type="system" x="380.00" id="29539" height="5.00" width="5.00" Name="HB-FSO" ID="30003633" Region="特纳" y="550.00" /><text y="550.00" x="380.00" id="29540">HB-FSO</text><rect Type="system" x="350.00" id="29542" height="5.00" width="5.00" Name="S-EVIQ" ID="30003611" Region="特纳" y="680.00" /><text y="680.00" x="350.00" id="29543">S-EVIQ</text><rect Type="system" x="380.00" id="29545" height="5.00" width="5.00" Name="V-LDEJ" ID="30003672" Region="特纳" y="200.00" /><text y="200.00" x="380.00" id="29546">V-LDEJ</text><rect Type="system" x="460.00" id="29548" height="5.00" width="5.00" Name="30-D5G" ID="30003632" Region="特纳" y="480.00" /><text y="480.00" x="460.00" id="29549">30-D5G</text><rect Type="system" x="380.00" id="29551" height="5.00" width="5.00" Name="P-UCRP" ID="30003674" Region="特纳" y="150.00" /><text y="150.00" x="380.00" id="29552">P-UCRP</text><rect Type="system" x="460.00" id="29554" height="5.00" width="5.00" Name="R-YWID" ID="30003631" Region="特纳" y="550.00" /><text y="550.00" x="460.00" id="29555">R-YWID</text><rect Type="system" x="460.00" id="29557" height="5.00" width="5.00" Name="J1-KJP" ID="30003634" Region="特纳" y="600.00" /><text y="600.00" x="460.00" id="29558">J1-KJP</text><rect Type="system" x="400.00" id="29560" height="5.00" width="5.00" Name="3-QYVE" ID="30003675" Region="特纳" y="90.00" /><text y="90.00" x="400.00" id="29561">3-QYVE</text><rect Type="system" x="420.00" id="29563" height="5.00" width="5.00" Name="EOY-BG" ID="30003612" Region="特纳" y="680.00" /><text y="680.00" x="420.00" id="29564">EOY-BG</text><rect Type="system" x="450.00" id="29566" height="5.00" width="5.00" Name="7D-PAT" ID="30003671" Region="特纳" y="200.00" /><text y="200.00" x="450.00" id="29567">7D-PAT</text><rect Type="system" x="450.00" id="29569" height="5.00" width="5.00" Name="33CE-7" ID="30003642" Region="特纳" y="300.00" /><text y="300.00" x="450.00" id="29570">33CE-7</text><rect Type="system" x="450.00" id="29572" height="5.00" width="5.00" Name="U-O2DA" ID="30003637" Region="特纳" y="350.00" /><text y="350.00" x="450.00" id="29573">U-O2DA</text><rect Type="system" x="450.00" id="29575" height="5.00" width="5.00" Name="SZ6-TA" ID="30003639" Region="特纳" y="420.00" /><text y="420.00" x="450.00" id="29576">SZ6-TA</text><rect Type="system" x="480.00" id="29578" height="5.00" width="5.00" Name="C-XNUA" ID="30003670" Region="特纳" y="250.00" /><text y="250.00" x="480.00" id="29579">C-XNUA</text><rect Type="system" x="500.00" id="29581" height="5.00" width="5.00" Name="IG-ZAM" ID="30003614" Region="特纳" y="680.00" /><text y="680.00" x="500.00" id="29582">IG-ZAM</text><rect Type="system" x="520.00" id="29584" height="5.00" width="5.00" Name="6-AOLS" ID="30003640" Region="特纳" y="300.00" /><text y="300.00" x="520.00" id="29585">6-AOLS</text><rect Type="system" x="520.00" id="29587" height="5.00" width="5.00" Name="G06-8Y" ID="30003636" Region="特纳" y="380.00" /><text y="380.00" x="520.00" id="29588">G06-8Y</text><rect Type="system" x="550.00" id="29590" height="5.00" width="5.00" Name="5-O8B1" ID="30003630" Region="特纳" y="480.00" /><text y="480.00" x="550.00" id="29591">5-O8B1</text><rect Type="system" x="550.00" id="29593" height="5.00" width="5.00" Name="S-KSWL" ID="30003629" Region="特纳" y="550.00" /><text y="550.00" x="550.00" id="29594">S-KSWL</text><rect Type="system" x="550.00" id="29596" height="5.00" width="5.00" Name="NCG-PW" ID="30003616" Region="特纳" y="620.00" /><text y="620.00" x="550.00" id="29597">NCG-PW</text><rect Type="system" x="580.00" id="29599" height="5.00" width="5.00" Name="0-UVHJ" ID="30003615" Region="特纳" y="680.00" /><text y="680.00" x="580.00" id="29600">0-UVHJ</text><rect Type="system" x="580.00" id="29602" height="5.00" width="5.00" Name="L-P3XM" ID="30003643" Region="特纳" y="270.00" /><text y="270.00" x="580.00" id="29603">L-P3XM</text><rect Type="system" x="600.00" id="29605" height="5.00" width="5.00" Name="WV-0R2" ID="30003638" Region="特纳" y="350.00" /><text y="350.00" x="600.00" id="29606">WV-0R2</text><rect Type="system" x="600.00" id="29608" height="5.00" width="5.00" Name="IKTD-P" ID="30003641" Region="特纳" y="400.00" /><text y="400.00" x="600.00" id="29609">IKTD-P</text><rect Type="system" x="600.00" id="29611" height="5.00" width="5.00" Name="KW-1MV" ID="30003635" Region="特纳" y="480.00" /><text y="480.00" x="600.00" id="29612">KW-1MV</text><rect Type="system" x="650.00" id="29614" height="5.00" width="5.00" Name="KMV-CQ" ID="30003625" Region="特纳" y="620.00" /><text y="620.00" x="650.00" id="29615">KMV-CQ</text><rect Type="system" x="650.00" id="29617" height="5.00" width="5.00" Name="U1TX-A" ID="30003623" Region="特纳" y="680.00" /><text y="680.00" x="650.00" id="29618">U1TX-A</text><rect Type="system" x="670.00" id="29620" height="5.00" width="5.00" Name="6OYQ-Z" ID="30003648" Region="特纳" y="340.00" /><text y="340.00" x="670.00" id="29621">6OYQ-Z</text><rect Type="system" x="710.00" id="29623" height="5.00" width="5.00" Name="Z-LO6I" ID="30003646" Region="特纳" y="380.00" /><text y="380.00" x="710.00" id="29624">Z-LO6I</text><rect Type="system" x="700.00" id="29626" height="5.00" width="5.00" Name="O36A-P" ID="30003645" Region="特纳" y="430.00" /><text y="430.00" x="700.00" id="29627">O36A-P</text><rect Type="system" x="700.00" id="29629" height="5.00" width="5.00" Name="DCJ-ZT" ID="30003644" Region="特纳" y="480.00" /><text y="480.00" x="700.00" id="29630">DCJ-ZT</text><rect Type="system" x="720.00" id="29632" height="5.00" width="5.00" Name="NV-3KA" ID="30003627" Region="特纳" y="580.00" /><text y="580.00" x="720.00" id="29633">NV-3KA</text><rect Type="system" x="750.00" id="29635" height="5.00" width="5.00" Name="HE5T-A" ID="30003649" Region="特纳" y="300.00" /><text y="300.00" x="750.00" id="29636">HE5T-A</text><rect Type="system" x="750.00" id="29638" height="5.00" width="5.00" Name="0M-103" ID="30003647" Region="特纳" y="350.00" /><text y="350.00" x="750.00" id="29639">0M-103</text><rect Type="system" x="760.00" id="29641" height="5.00" width="5.00" Name="1BWK-S" ID="30003624" Region="特纳" y="630.00" /><text y="630.00" x="760.00" id="29642">1BWK-S</text><rect Type="system" x="800.00" id="29644" height="5.00" width="5.00" Name="SF-XJS" ID="30003654" Region="特纳" y="250.00" /><text y="250.00" x="800.00" id="29645">SF-XJS</text><rect Type="system" x="800.00" id="29647" height="5.00" width="5.00" Name="RKE-CP" ID="30003626" Region="特纳" y="550.00" /><text y="550.00" x="800.00" id="29648">RKE-CP</text><rect Type="system" x="820.00" id="29650" height="5.00" width="5.00" Name="A1RR-M" ID="30003655" Region="特纳" y="180.00" /><text y="180.00" x="820.00" id="29651">A1RR-M</text><rect Type="system" x="850.00" id="29653" height="5.00" width="5.00" Name="Y-YHZQ" ID="30003651" Region="特纳" y="300.00" /><text y="300.00" x="850.00" id="29654">Y-YHZQ</text><rect Type="system" x="840.00" id="29656" height="5.00" width="5.00" Name="A-1IJ9" ID="30003650" Region="特纳" y="350.00" /><text y="350.00" x="840.00" id="29657">A-1IJ9</text><rect Type="system" x="880.00" id="29659" height="5.00" width="5.00" Name="S-1LIO" ID="30003628" Region="特纳" y="580.00" /><text y="580.00" x="880.00" id="29660">S-1LIO</text><rect Type="system" x="920.00" id="29662" height="5.00" width="5.00" Name="AR-5SY" ID="30003656" Region="特纳" y="200.00" /><text y="200.00" x="920.00" id="29663">AR-5SY</text><rect Type="system" x="920.00" id="29665" height="5.00" width="5.00" Name="Z-SR1I" ID="30003652" Region="特纳" y="350.00" /><text y="350.00" x="920.00" id="29666">Z-SR1I</text><rect Type="system" x="950.00" id="29668" height="5.00" width="5.00" Name="GW7P-8" ID="30003653" Region="特纳" y="280.00" /><text y="280.00" x="950.00" id="29669">GW7P-8</text><rect Type="system" x="950.00" id="29671" height="5.00" width="5.00" Name="OE-4HB" ID="30003657" Region="特纳" y="120.00" /><text y="120.00" x="950.00" id="29672">OE-4HB</text><rect Type="system" x="20.00" id="29674" height="5.00" width="5.00" Name="ZIU-EP" ID="30004363" Region="血脉" y="20.00" /><text y="20.00" x="20.00" id="29675">ZIU-EP</text><rect Type="system" x="20.00" id="29677" height="5.00" width="5.00" Name="T-Q2DD" ID="30004352" Region="血脉" y="550.00" /><text y="550.00" x="20.00" id="29678">T-Q2DD</text><rect Type="system" x="50.00" id="29680" height="5.00" width="5.00" Name="CH9L-K" ID="30004401" Region="血脉" y="150.00" /><text y="150.00" x="50.00" id="29681">CH9L-K</text><rect Type="system" x="50.00" id="29683" height="5.00" width="5.00" Name="OJ-A8M" ID="30004334" Region="血脉" y="700.00" /><text y="700.00" x="50.00" id="29684">OJ-A8M</text><rect Type="system" x="420.00" id="29686" height="5.00" width="5.00" Name="B3QP-K" ID="30001346" Region="维纳尔" y="750.00" /><text y="750.00" x="420.00" id="29687">B3QP-K</text><rect Type="system" x="720.00" id="29689" height="5.00" width="5.00" Name="HB-5L3" ID="30004228" Region="钴蓝边域" y="200.00" /><text y="200.00" x="720.00" id="29690">HB-5L3</text><rect Type="system" x="980.00" id="29692" height="5.00" width="5.00" Name="42XJ-N" ID="30001349" Region="维纳尔" y="50.00" /><text y="50.00" x="980.00" id="29693">42XJ-N</text><line style="stroke:blue;fill:blue;" id="29695" x2="200.00" x1="100.00" y1="300.00" y2="300.00" /><line style="stroke:blue;fill:blue;" id="29696" x2="100.00" x1="100.00" y1="300.00" y2="250.00" /><line style="stroke:blue;fill:blue;" id="29697" x2="180.00" x1="100.00" y1="520.00" y2="475.50" /><line style="stroke:blue;fill:blue;" id="29698" x2="20.00" x1="100.00" y1="520.00" y2="550.00" /><line style="stroke:blue;fill:blue;" id="29699" x2="150.00" x1="100.00" y1="50.00" y2="80.00" /><line style="stroke:blue;fill:blue;" id="29700" x2="20.00" x1="100.00" y1="50.00" y2="20.00" /><line style="stroke:blue;fill:blue;" id="29701" x2="200.00" x1="100.00" y1="250.00" y2="300.00" /><line style="stroke:blue;fill:blue;" id="29702" x2="100.00" x1="100.00" y1="250.00" y2="300.00" /><line style="stroke:blue;fill:blue;" id="29703" x2="180.00" x1="120.00" y1="150.00" y2="180.00" /><line style="stroke:blue;fill:blue;" id="29704" x2="50.00" x1="120.00" y1="150.00" y2="150.00" /><line style="stroke:blue;fill:blue;" id="29705" x2="190.00" x1="120.00" y1="720.00" y2="710.00" /><line style="stroke:blue;fill:blue;" id="29706" x2="50.00" x1="120.00" y1="720.00" y2="700.00" /><line style="stroke:blue;fill:blue;" id="29707" x2="180.00" x1="150.00" y1="80.00" y2="120.00" /><line style="stroke:blue;fill:blue;" id="29708" x2="100.00" x1="150.00" y1="80.00" y2="50.00" /><line style="stroke:blue;fill:blue;" id="29709" x2="180.00" x1="180.00" y1="120.00" y2="180.00" /><line style="stroke:blue;fill:blue;" id="29710" x2="150.00" x1="180.00" y1="120.00" y2="80.00" /><line style="stroke:blue;fill:blue;" id="29711" x2="250.00" x1="180.00" y1="120.00" y2="120.00" /><line style="stroke:blue;fill:blue;" id="29712" x2="180.00" x1="180.00" y1="420.00" y2="475.50" /><line style="stroke:blue;fill:blue;" id="29713" x2="200.00" x1="180.00" y1="420.00" y2="350.00" /><line style="stroke:blue;fill:blue;" id="29714" x2="180.00" x1="180.00" y1="475.50" y2="524.50" /><line style="stroke:blue;fill:blue;" id="29715" x2="100.00" x1="180.00" y1="475.50" y2="520.00" /><line style="stroke:blue;fill:blue;" id="29716" x2="180.00" x1="180.00" y1="475.50" y2="420.00" /><line style="stroke:blue;fill:blue;" id="29717" x2="120.00" x1="190.00" y1="710.00" y2="720.00" /><line style="stroke:blue;fill:blue;" id="29718" x2="250.00" x1="190.00" y1="710.00" y2="700.00" /><line style="stroke:blue;fill:blue;" id="29719" x2="200.00" x1="180.00" y1="180.00" y2="250.00" /><line style="stroke:blue;fill:blue;" id="29720" x2="180.00" x1="180.00" y1="180.00" y2="120.00" /><line style="stroke:blue;fill:blue;" id="29721" x2="250.00" x1="180.00" y1="180.00" y2="120.00" /><line style="stroke:blue;fill:blue;" id="29722" x2="120.00" x1="180.00" y1="180.00" y2="150.00" /><line style="stroke:blue;fill:blue;" id="29723" x2="200.00" x1="180.00" y1="524.50" y2="575.50" /><line style="stroke:blue;fill:blue;" id="29724" x2="180.00" x1="180.00" y1="524.50" y2="475.50" /><line style="stroke:blue;fill:blue;" id="29725" x2="200.00" x1="200.00" y1="250.00" y2="300.00" /><line style="stroke:blue;fill:blue;" id="29726" x2="180.00" x1="200.00" y1="250.00" y2="180.00" /><line style="stroke:blue;fill:blue;" id="29727" x2="200.00" x1="200.00" y1="300.00" y2="350.00" /><line style="stroke:blue;fill:blue;" id="29728" x2="100.00" x1="200.00" y1="300.00" y2="250.00" /><line style="stroke:blue;fill:blue;" id="29729" x2="100.00" x1="200.00" y1="300.00" y2="300.00" /><line style="stroke:blue;fill:blue;" id="29730" x2="200.00" x1="200.00" y1="300.00" y2="250.00" /><line style="stroke:blue;fill:blue;" id="29731" x2="180.00" x1="200.00" y1="350.00" y2="420.00" /><line style="stroke:blue;fill:blue;" id="29732" x2="200.00" x1="200.00" y1="350.00" y2="300.00" /><line style="stroke:blue;fill:blue;" id="29733" x2="250.00" x1="200.00" y1="350.00" y2="280.00" /><line style="stroke:blue;fill:blue;" id="29734" x2="200.00" x1="200.00" y1="624.50" y2="575.50" /><line style="stroke:blue;fill:blue;" id="29735" x2="280.00" x1="200.00" y1="575.50" y2="650.00" /><line style="stroke:blue;fill:blue;" id="29736" x2="180.00" x1="200.00" y1="575.50" y2="524.50" /><line style="stroke:blue;fill:blue;" id="29737" x2="200.00" x1="200.00" y1="575.50" y2="624.50" /><line style="stroke:blue;fill:blue;" id="29738" x2="180.00" x1="250.00" y1="120.00" y2="180.00" /><line style="stroke:blue;fill:blue;" id="29739" x2="180.00" x1="250.00" y1="120.00" y2="120.00" /><line style="stroke:blue;fill:blue;" id="29740" x2="200.00" x1="250.00" y1="280.00" y2="350.00" /><line style="stroke:blue;fill:blue;" id="29741" x2="300.00" x1="250.00" y1="280.00" y2="220.00" /><line style="stroke:blue;fill:blue;" id="29742" x2="190.00" x1="250.00" y1="700.00" y2="710.00" /><line style="stroke:blue;fill:blue;" id="29743" x2="350.00" x1="250.00" y1="700.00" y2="680.00" /><line style="stroke:blue;fill:blue;" id="29744" x2="350.00" x1="280.00" y1="650.00" y2="680.00" /><line style="stroke:blue;fill:blue;" id="29745" x2="200.00" x1="280.00" y1="650.00" y2="575.50" /><line style="stroke:blue;fill:blue;" id="29746" x2="250.00" x1="300.00" y1="220.00" y2="280.00" /><line style="stroke:blue;fill:blue;" id="29747" x2="380.00" x1="300.00" y1="220.00" y2="200.00" /><line style="stroke:blue;fill:blue;" id="29748" x2="460.00" x1="380.00" y1="550.00" y2="550.00" /><line style="stroke:blue;fill:blue;" id="29749" x2="460.00" x1="380.00" y1="550.00" y2="600.00" /><line style="stroke:blue;fill:blue;" id="29750" x2="250.00" x1="350.00" y1="680.00" y2="700.00" /><line style="stroke:blue;fill:blue;" id="29751" x2="420.00" x1="350.00" y1="680.00" y2="680.00" /><line style="stroke:blue;fill:blue;" id="29752" x2="280.00" x1="350.00" y1="680.00" y2="650.00" /><line style="stroke:blue;fill:blue;" id="29753" x2="450.00" x1="380.00" y1="200.00" y2="200.00" /><line style="stroke:blue;fill:blue;" id="29754" x2="300.00" x1="380.00" y1="200.00" y2="220.00" /><line style="stroke:blue;fill:blue;" id="29755" x2="380.00" x1="380.00" y1="200.00" y2="150.00" /><line style="stroke:blue;fill:blue;" id="29756" x2="460.00" x1="460.00" y1="480.00" y2="550.00" /><line style="stroke:blue;fill:blue;" id="29757" x2="380.00" x1="380.00" y1="150.00" y2="200.00" /><line style="stroke:blue;fill:blue;" id="29758" x2="400.00" x1="380.00" y1="150.00" y2="90.00" /><line style="stroke:blue;fill:blue;" id="29759" x2="550.00" x1="460.00" y1="550.00" y2="550.00" /><line style="stroke:blue;fill:blue;" id="29760" x2="460.00" x1="460.00" y1="550.00" y2="480.00" /><line style="stroke:blue;fill:blue;" id="29761" x2="380.00" x1="460.00" y1="550.00" y2="550.00" /><line style="stroke:blue;fill:blue;" id="29762" x2="460.00" x1="460.00" y1="550.00" y2="600.00" /><line style="stroke:blue;fill:blue;" id="29763" x2="550.00" x1="460.00" y1="600.00" y2="550.00" /><line style="stroke:blue;fill:blue;" id="29764" x2="460.00" x1="460.00" y1="600.00" y2="550.00" /><line style="stroke:blue;fill:blue;" id="29765" x2="380.00" x1="460.00" y1="600.00" y2="550.00" /><line style="stroke:blue;fill:blue;" id="29766" x2="380.00" x1="400.00" y1="90.00" y2="150.00" /><line style="stroke:blue;fill:blue;" id="29767" x2="420.00" x1="420.00" y1="680.00" y2="750.00" /><line style="stroke:blue;fill:blue;" id="29768" x2="350.00" x1="420.00" y1="680.00" y2="680.00" /><line style="stroke:blue;fill:blue;" id="29769" x2="500.00" x1="420.00" y1="680.00" y2="680.00" /><line style="stroke:blue;fill:blue;" id="29770" x2="480.00" x1="450.00" y1="200.00" y2="250.00" /><line style="stroke:blue;fill:blue;" id="29771" x2="380.00" x1="450.00" y1="200.00" y2="200.00" /><line style="stroke:blue;fill:blue;" id="29772" x2="520.00" x1="450.00" y1="300.00" y2="300.00" /><line style="stroke:blue;fill:blue;" id="29773" x2="520.00" x1="450.00" y1="350.00" y2="380.00" /><line style="stroke:blue;fill:blue;" id="29774" x2="450.00" x1="450.00" y1="350.00" y2="420.00" /><line style="stroke:blue;fill:blue;" id="29775" x2="520.00" x1="450.00" y1="420.00" y2="380.00" /><line style="stroke:blue;fill:blue;" id="29776" x2="450.00" x1="450.00" y1="420.00" y2="350.00" /><line style="stroke:blue;fill:blue;" id="29777" x2="520.00" x1="480.00" y1="250.00" y2="300.00" /><line style="stroke:blue;fill:blue;" id="29778" x2="450.00" x1="480.00" y1="250.00" y2="200.00" /><line style="stroke:blue;fill:blue;" id="29779" x2="420.00" x1="500.00" y1="680.00" y2="680.00" /><line style="stroke:blue;fill:blue;" id="29780" x2="580.00" x1="500.00" y1="680.00" y2="680.00" /><line style="stroke:blue;fill:blue;" id="29781" x2="550.00" x1="500.00" y1="680.00" y2="620.00" /><line style="stroke:blue;fill:blue;" id="29782" x2="520.00" x1="520.00" y1="300.00" y2="380.00" /><line style="stroke:blue;fill:blue;" id="29783" x2="450.00" x1="520.00" y1="300.00" y2="300.00" /><line style="stroke:blue;fill:blue;" id="29784" x2="580.00" x1="520.00" y1="300.00" y2="270.00" /><line style="stroke:blue;fill:blue;" id="29785" x2="480.00" x1="520.00" y1="300.00" y2="250.00" /><line style="stroke:blue;fill:blue;" id="29786" x2="550.00" x1="520.00" y1="380.00" y2="480.00" /><line style="stroke:blue;fill:blue;" id="29787" x2="450.00" x1="520.00" y1="380.00" y2="350.00" /><line style="stroke:blue;fill:blue;" id="29788" x2="600.00" x1="520.00" y1="380.00" y2="350.00" /><line style="stroke:blue;fill:blue;" id="29789" x2="450.00" x1="520.00" y1="380.00" y2="420.00" /><line style="stroke:blue;fill:blue;" id="29790" x2="520.00" x1="520.00" y1="380.00" y2="300.00" /><line style="stroke:blue;fill:blue;" id="29791" x2="600.00" x1="520.00" y1="380.00" y2="400.00" /><line style="stroke:blue;fill:blue;" id="29792" x2="550.00" x1="550.00" y1="480.00" y2="550.00" /><line style="stroke:blue;fill:blue;" id="29793" x2="600.00" x1="550.00" y1="480.00" y2="480.00" /><line style="stroke:blue;fill:blue;" id="29794" x2="520.00" x1="550.00" y1="480.00" y2="380.00" /><line style="stroke:blue;fill:blue;" id="29795" x2="550.00" x1="550.00" y1="550.00" y2="620.00" /><line style="stroke:blue;fill:blue;" id="29796" x2="550.00" x1="550.00" y1="550.00" y2="480.00" /><line style="stroke:blue;fill:blue;" id="29797" x2="460.00" x1="550.00" y1="550.00" y2="550.00" /><line style="stroke:blue;fill:blue;" id="29798" x2="460.00" x1="550.00" y1="550.00" y2="600.00" /><line style="stroke:blue;fill:blue;" id="29799" x2="500.00" x1="550.00" y1="620.00" y2="680.00" /><line style="stroke:blue;fill:blue;" id="29800" x2="580.00" x1="550.00" y1="620.00" y2="680.00" /><line style="stroke:blue;fill:blue;" id="29801" x2="550.00" x1="550.00" y1="620.00" y2="550.00" /><line style="stroke:blue;fill:blue;" id="29802" x2="500.00" x1="580.00" y1="680.00" y2="680.00" /><line style="stroke:blue;fill:blue;" id="29803" x2="550.00" x1="580.00" y1="680.00" y2="620.00" /><line style="stroke:blue;fill:blue;" id="29804" x2="650.00" x1="580.00" y1="680.00" y2="680.00" /><line style="stroke:blue;fill:blue;" id="29805" x2="520.00" x1="580.00" y1="270.00" y2="300.00" /><line style="stroke:blue;fill:blue;" id="29806" x2="520.00" x1="600.00" y1="350.00" y2="380.00" /><line style="stroke:blue;fill:blue;" id="29807" x2="520.00" x1="600.00" y1="400.00" y2="380.00" /><line style="stroke:blue;fill:blue;" id="29808" x2="550.00" x1="600.00" y1="480.00" y2="480.00" /><line style="stroke:blue;fill:blue;" id="29809" x2="650.00" x1="650.00" y1="620.00" y2="680.00" /><line style="stroke:blue;fill:blue;" id="29810" x2="720.00" x1="650.00" y1="620.00" y2="580.00" /><line style="stroke:blue;fill:blue;" id="29811" x2="700.00" x1="650.00" y1="620.00" y2="480.00" /><line style="stroke:blue;fill:blue;" id="29812" x2="580.00" x1="650.00" y1="680.00" y2="680.00" /><line style="stroke:blue;fill:blue;" id="29813" x2="760.00" x1="650.00" y1="680.00" y2="630.00" /><line style="stroke:blue;fill:blue;" id="29814" x2="650.00" x1="650.00" y1="680.00" y2="620.00" /><line style="stroke:blue;fill:blue;" id="29815" x2="710.00" x1="670.00" y1="340.00" y2="380.00" /><line style="stroke:blue;fill:blue;" id="29816" x2="700.00" x1="710.00" y1="380.00" y2="430.00" /><line style="stroke:blue;fill:blue;" id="29817" x2="750.00" x1="710.00" y1="380.00" y2="350.00" /><line style="stroke:blue;fill:blue;" id="29818" x2="670.00" x1="710.00" y1="380.00" y2="340.00" /><line style="stroke:blue;fill:blue;" id="29819" x2="700.00" x1="700.00" y1="430.00" y2="480.00" /><line style="stroke:blue;fill:blue;" id="29820" x2="710.00" x1="700.00" y1="430.00" y2="380.00" /><line style="stroke:blue;fill:blue;" id="29821" x2="650.00" x1="700.00" y1="480.00" y2="620.00" /><line style="stroke:blue;fill:blue;" id="29822" x2="700.00" x1="700.00" y1="480.00" y2="430.00" /><line style="stroke:blue;fill:blue;" id="29823" x2="760.00" x1="720.00" y1="580.00" y2="630.00" /><line style="stroke:blue;fill:blue;" id="29824" x2="650.00" x1="720.00" y1="580.00" y2="620.00" /><line style="stroke:blue;fill:blue;" id="29825" x2="800.00" x1="720.00" y1="580.00" y2="550.00" /><line style="stroke:blue;fill:blue;" id="29826" x2="750.00" x1="750.00" y1="300.00" y2="350.00" /><line style="stroke:blue;fill:blue;" id="29827" x2="710.00" x1="750.00" y1="350.00" y2="380.00" /><line style="stroke:blue;fill:blue;" id="29828" x2="750.00" x1="750.00" y1="350.00" y2="300.00" /><line style="stroke:blue;fill:blue;" id="29829" x2="650.00" x1="760.00" y1="630.00" y2="680.00" /><line style="stroke:blue;fill:blue;" id="29830" x2="800.00" x1="760.00" y1="630.00" y2="550.00" /><line style="stroke:blue;fill:blue;" id="29831" x2="720.00" x1="760.00" y1="630.00" y2="580.00" /><line style="stroke:blue;fill:blue;" id="29832" x2="850.00" x1="800.00" y1="250.00" y2="300.00" /><line style="stroke:blue;fill:blue;" id="29833" x2="820.00" x1="800.00" y1="250.00" y2="180.00" /><line style="stroke:blue;fill:blue;" id="29834" x2="720.00" x1="800.00" y1="250.00" y2="200.00" /><line style="stroke:blue;fill:blue;" id="29835" x2="760.00" x1="800.00" y1="550.00" y2="630.00" /><line style="stroke:blue;fill:blue;" id="29836" x2="720.00" x1="800.00" y1="550.00" y2="580.00" /><line style="stroke:blue;fill:blue;" id="29837" x2="880.00" x1="800.00" y1="550.00" y2="580.00" /><line style="stroke:blue;fill:blue;" id="29838" x2="840.00" x1="800.00" y1="550.00" y2="350.00" /><line style="stroke:blue;fill:blue;" id="29839" x2="950.00" x1="820.00" y1="180.00" y2="280.00" /><line style="stroke:blue;fill:blue;" id="29840" x2="800.00" x1="820.00" y1="180.00" y2="250.00" /><line style="stroke:blue;fill:blue;" id="29841" x2="920.00" x1="820.00" y1="180.00" y2="200.00" /><line style="stroke:blue;fill:blue;" id="29842" x2="950.00" x1="820.00" y1="180.00" y2="120.00" /><line style="stroke:blue;fill:blue;" id="29843" x2="840.00" x1="850.00" y1="300.00" y2="350.00" /><line style="stroke:blue;fill:blue;" id="29844" x2="920.00" x1="850.00" y1="300.00" y2="350.00" /><line style="stroke:blue;fill:blue;" id="29845" x2="950.00" x1="850.00" y1="300.00" y2="280.00" /><line style="stroke:blue;fill:blue;" id="29846" x2="800.00" x1="850.00" y1="300.00" y2="250.00" /><line style="stroke:blue;fill:blue;" id="29847" x2="800.00" x1="840.00" y1="350.00" y2="550.00" /><line style="stroke:blue;fill:blue;" id="29848" x2="850.00" x1="840.00" y1="350.00" y2="300.00" /><line style="stroke:blue;fill:blue;" id="29849" x2="800.00" x1="880.00" y1="580.00" y2="550.00" /><line style="stroke:blue;fill:blue;" id="29850" x2="950.00" x1="920.00" y1="200.00" y2="280.00" /><line style="stroke:blue;fill:blue;" id="29851" x2="820.00" x1="920.00" y1="200.00" y2="180.00" /><line style="stroke:blue;fill:blue;" id="29852" x2="950.00" x1="920.00" y1="200.00" y2="120.00" /><line style="stroke:blue;fill:blue;" id="29853" x2="850.00" x1="920.00" y1="350.00" y2="300.00" /><line style="stroke:blue;fill:blue;" id="29854" x2="950.00" x1="920.00" y1="350.00" y2="280.00" /><line style="stroke:blue;fill:blue;" id="29855" x2="850.00" x1="950.00" y1="280.00" y2="300.00" /><line style="stroke:blue;fill:blue;" id="29856" x2="920.00" x1="950.00" y1="280.00" y2="350.00" /><line style="stroke:blue;fill:blue;" id="29857" x2="820.00" x1="950.00" y1="280.00" y2="180.00" /><line style="stroke:blue;fill:blue;" id="29858" x2="920.00" x1="950.00" y1="280.00" y2="200.00" /><line style="stroke:blue;fill:blue;" id="29859" x2="950.00" x1="950.00" y1="280.00" y2="120.00" /><line style="stroke:blue;fill:blue;" id="29860" x2="980.00" x1="950.00" y1="120.00" y2="50.00" /><line style="stroke:blue;fill:blue;" id="29861" x2="950.00" x1="950.00" y1="120.00" y2="280.00" /><line style="stroke:blue;fill:blue;" id="29862" x2="820.00" x1="950.00" y1="120.00" y2="180.00" /><line style="stroke:blue;fill:blue;" id="29863" x2="920.00" x1="950.00" y1="120.00" y2="200.00" /><line style="stroke:blue;fill:blue;" id="29864" x2="100.00" x1="20.00" y1="20.00" y2="50.00" /><line style="stroke:blue;fill:blue;" id="29865" x2="100.00" x1="20.00" y1="550.00" y2="520.00" /><line style="stroke:blue;fill:blue;" id="29866" x2="120.00" x1="50.00" y1="150.00" y2="150.00" /><line style="stroke:blue;fill:blue;" id="29867" x2="120.00" x1="50.00" y1="700.00" y2="720.00" /><line style="stroke:blue;fill:blue;" id="29868" x2="420.00" x1="420.00" y1="750.00" y2="680.00" /><line style="stroke:blue;fill:blue;" id="29869" x2="800.00" x1="720.00" y1="200.00" y2="250.00" /><line style="stroke:blue;fill:blue;" id="29870" x2="950.00" x1="980.00" y1="50.00" y2="120.00" /></svg>
