<?xml version="1.0" standalone="yes"?><!DOCTYPE svg PUBLIC "-//W3C//DTD SVG 1.1//EN" "http://www.w3.org/Graphics/SVG/1.1/DTD/svg11.dtd"[]><svg height="800.00" id="29871" width="1050.00" xmlns="http://www.w3.org/2000/svg" xmlns:xlink="http://www.w3.org/1999/xlink"><rect Type="system" Region="特里菲斯" height="5.00" y="380.00" Name="D-9UEV" width="5.00" x="50.00" id="29872" ID="30004813" /><text x="50.00" y="380.00" id="29873">D-9UEV</text><rect Type="system" Region="特里菲斯" height="5.00" y="100.00" Name="3L3N-X" width="5.00" x="50.00" id="29875" ID="30004808" /><text x="50.00" y="100.00" id="29876">3L3N-X</text><rect Type="system" Region="特里菲斯" height="5.00" y="300.00" Name="4-P4FE" width="5.00" x="80.00" id="29878" ID="30004811" /><text x="80.00" y="300.00" id="29879">4-P4FE</text><rect Type="system" Region="特里菲斯" height="5.00" y="350.00" Name="RH0-EG" width="5.00" x="100.00" id="29881" ID="30004812" /><text x="100.00" y="350.00" id="29882">RH0-EG</text><rect Type="system" Region="特里菲斯" height="5.00" y="420.00" Name="H-HWQR" width="5.00" x="100.00" id="29884" ID="30004814" /><text x="100.00" y="420.00" id="29885">H-HWQR</text><rect Type="system" Region="特里菲斯" height="5.00" y="67.68" Name="UALX-3" width="5.00" x="117.68" id="29887" ID="30004807" /><text x="117.68" y="67.68" id="29888">UALX-3</text><rect Type="system" Region="特里菲斯" height="5.00" y="280.00" Name="QRBN-M" width="5.00" x="150.00" id="29890" ID="30004815" /><text x="150.00" y="280.00" id="29891">QRBN-M</text><rect Type="system" Region="特里菲斯" height="5.00" y="380.00" Name="78R-PI" width="5.00" x="150.00" id="29893" ID="30004816" /><text x="150.00" y="380.00" id="29894">78R-PI</text><rect Type="system" Region="特里菲斯" height="5.00" y="102.32" Name="Y-ORBJ" width="5.00" x="152.32" id="29896" ID="30004809" /><text x="152.32" y="102.32" id="29897">Y-ORBJ</text><rect Type="system" Region="特里菲斯" height="5.00" y="167.68" Name="L2GN-K" width="5.00" x="167.68" id="29899" ID="30004827" /><text x="167.68" y="167.68" id="29900">L2GN-K</text><rect Type="system" Region="特里菲斯" height="5.00" y="550.00" Name="T2-V8F" width="5.00" x="210.00" id="29902" ID="30004842" /><text x="210.00" y="550.00" id="29903">T2-V8F</text><rect Type="system" Region="特里菲斯" height="5.00" y="50.00" Name="DT-PXH" width="5.00" x="200.00" id="29905" ID="30004806" /><text x="200.00" y="50.00" id="29906">DT-PXH</text><rect Type="system" Region="特里菲斯" height="5.00" y="202.32" Name="9-MJVQ" width="5.00" x="202.32" id="29908" ID="30004826" /><text x="202.32" y="202.32" id="29909">9-MJVQ</text><rect Type="system" Region="特里菲斯" height="5.00" y="650.00" Name="CCE-0J" width="5.00" x="200.00" id="29911" ID="30004841" /><text x="200.00" y="650.00" id="29912">CCE-0J</text><rect Type="system" Region="特里菲斯" height="5.00" y="120.00" Name="6-IAFR" width="5.00" x="220.00" id="29914" ID="30004810" /><text x="220.00" y="120.00" id="29915">6-IAFR</text><rect Type="system" Region="特里菲斯" height="5.00" y="180.00" Name="4-IT9G" width="5.00" x="250.00" id="29917" ID="30004828" /><text x="250.00" y="180.00" id="29918">4-IT9G</text><rect Type="system" Region="特里菲斯" height="5.00" y="250.00" Name="PDF-3Z" width="5.00" x="250.00" id="29920" ID="30004825" /><text x="250.00" y="250.00" id="29921">PDF-3Z</text><rect Type="system" Region="特里菲斯" height="5.00" y="290.00" Name="C3-0YD" width="5.00" x="220.00" id="29923" ID="30004824" /><text x="220.00" y="290.00" id="29924">C3-0YD</text><rect Type="system" Region="特里菲斯" height="5.00" y="40.00" Name="S4-9DN" width="5.00" x="250.00" id="29926" ID="30004805" /><text x="250.00" y="40.00" id="29927">S4-9DN</text><rect Type="system" Region="特里菲斯" height="5.00" y="680.00" Name="0VK-43" width="5.00" x="250.00" id="29929" ID="30004843" /><text x="250.00" y="680.00" id="29930">0VK-43</text><rect Type="system" Region="特里菲斯" height="5.00" y="80.00" Name="WB-AYY" width="5.00" x="280.00" id="29932" ID="30004803" /><text x="280.00" y="80.00" id="29933">WB-AYY</text><rect Type="system" Region="特里菲斯" height="5.00" y="130.00" Name="ZD1-Z2" width="5.00" x="300.00" id="29935" ID="30004817" /><text x="300.00" y="130.00" id="29936">ZD1-Z2</text><rect Type="system" Region="特里菲斯" height="5.00" y="550.00" Name="JI1-SY" width="5.00" x="300.00" id="29938" ID="30004839" /><text x="300.00" y="550.00" id="29939">JI1-SY</text><rect Type="system" Region="特里菲斯" height="5.00" y="600.00" Name="X-1QGA" width="5.00" x="300.00" id="29941" ID="30004840" /><text x="300.00" y="600.00" id="29942">X-1QGA</text><rect Type="system" Region="特里菲斯" height="5.00" y="221.91" Name="PEK-8Z" width="5.00" x="299.04" id="29944" ID="30004829" /><text x="299.04" y="221.91" id="29945">PEK-8Z</text><rect Type="system" Region="特里菲斯" height="5.00" y="20.00" Name="BW-WJ2" width="5.00" x="300.00" id="29947" ID="30004804" /><text x="300.00" y="20.00" id="29948">BW-WJ2</text><rect Type="system" Region="特里菲斯" height="5.00" y="178.09" Name="2PG-KN" width="5.00" x="320.96" id="29950" ID="30004830" /><text x="320.96" y="178.09" id="29951">2PG-KN</text><rect Type="system" Region="特里菲斯" height="5.00" y="320.00" Name="IL-YTR" width="5.00" x="320.00" id="29953" ID="30004832" /><text x="320.00" y="320.00" id="29954">IL-YTR</text><rect Type="system" Region="特里菲斯" height="5.00" y="370.00" Name="KW-OAM" width="5.00" x="330.00" id="29956" ID="30004833" /><text x="330.00" y="370.00" id="29957">KW-OAM</text><rect Type="system" Region="特里菲斯" height="5.00" y="420.00" Name="JK-Q77" width="5.00" x="320.00" id="29959" ID="30004836" /><text x="320.00" y="420.00" id="29960">JK-Q77</text><rect Type="system" Region="特里菲斯" height="5.00" y="650.00" Name="TY2X-C" width="5.00" x="350.00" id="29962" ID="30004844" /><text x="350.00" y="650.00" id="29963">TY2X-C</text><rect Type="system" Region="特里菲斯" height="5.00" y="460.00" Name="YF-P4X" width="5.00" x="360.00" id="29965" ID="30004838" /><text x="360.00" y="460.00" id="29966">YF-P4X</text><rect Type="system" Region="特里菲斯" height="5.00" y="117.68" Name="C-FD0D" width="5.00" x="367.68" id="29968" ID="30004818" /><text x="367.68" y="117.68" id="29969">C-FD0D</text><rect Type="system" Region="特里菲斯" height="5.00" y="278.09" Name="ABE-M2" width="5.00" x="379.04" id="29971" ID="30004831" /><text x="379.04" y="278.09" id="29972">ABE-M2</text><rect Type="system" Region="特里菲斯" height="5.00" y="80.00" Name="S-9RCJ" width="5.00" x="400.00" id="29974" ID="30004819" /><text x="400.00" y="80.00" id="29975">S-9RCJ</text><rect Type="system" Region="特里菲斯" height="5.00" y="152.32" Name="W-16DY" width="5.00" x="402.32" id="29977" ID="30004822" /><text x="402.32" y="152.32" id="29978">W-16DY</text><rect Type="system" Region="特里菲斯" height="5.00" y="321.91" Name="U2U5-A" width="5.00" x="400.96" id="29980" ID="30004834" /><text x="400.96" y="321.91" id="29981">U2U5-A</text><rect Type="system" Region="特里菲斯" height="5.00" y="420.00" Name="QI9-42" width="5.00" x="400.00" id="29983" ID="30004837" /><text x="400.00" y="420.00" id="29984">QI9-42</text><rect Type="system" Region="特里菲斯" height="5.00" y="650.00" Name="Q0G-L8" width="5.00" x="420.00" id="29986" ID="30004845" /><text x="420.00" y="650.00" id="29987">Q0G-L8</text><rect Type="system" Region="特里菲斯" height="5.00" y="700.00" Name="A-REKV" width="5.00" x="450.00" id="29989" ID="30004850" /><text x="450.00" y="700.00" id="29990">A-REKV</text><rect Type="system" Region="特里菲斯" height="5.00" y="380.00" Name="EQWO-Y" width="5.00" x="450.00" id="29992" ID="30004835" /><text x="450.00" y="380.00" id="29993">EQWO-Y</text><rect Type="system" Region="特里菲斯" height="5.00" y="550.00" Name="BB-EKF" width="5.00" x="450.00" id="29995" ID="30004851" /><text x="450.00" y="550.00" id="29996">BB-EKF</text><rect Type="system" Region="特里菲斯" height="5.00" y="75.50" Name="ZMV9-A" width="5.00" x="480.00" id="29998" ID="30004820" /><text x="480.00" y="75.50" id="29999">ZMV9-A</text><rect Type="system" Region="特里菲斯" height="5.00" y="124.50" Name="FE-6YQ" width="5.00" x="480.00" id="30001" ID="30004821" /><text x="480.00" y="124.50" id="30002">FE-6YQ</text><rect Type="system" Region="特里菲斯" height="5.00" y="180.00" Name="M-4KDB" width="5.00" x="480.00" id="30004" ID="30004823" /><text x="480.00" y="180.00" id="30005">M-4KDB</text><rect Type="system" Region="特里菲斯" height="5.00" y="680.00" Name="WE-KK2" width="5.00" x="500.00" id="30007" ID="30004847" /><text x="500.00" y="680.00" id="30008">WE-KK2</text><rect Type="system" Region="特里菲斯" height="5.00" y="621.91" Name="Q5KZ-W" width="5.00" x="499.04" id="30010" ID="30004846" /><text x="499.04" y="621.91" id="30011">Q5KZ-W</text><rect Type="system" Region="特里菲斯" height="5.00" y="578.09" Name="B8HU-Z" width="5.00" x="520.96" id="30013" ID="30004848" /><text x="520.96" y="578.09" id="30014">B8HU-Z</text><rect Type="system" Region="特里菲斯" height="5.00" y="520.00" Name="16AM-3" width="5.00" x="520.00" id="30016" ID="30004849" /><text x="520.00" y="520.00" id="30017">16AM-3</text><rect Type="system" Region="特里菲斯" height="5.00" y="380.00" Name="R-XDKM" width="5.00" x="550.00" id="30019" ID="30004853" /><text x="550.00" y="380.00" id="30020">R-XDKM</text><rect Type="system" Region="特里菲斯" height="5.00" y="121.91" Name="XGH-SH" width="5.00" x="579.04" id="30022" ID="30004875" /><text x="579.04" y="121.91" id="30023">XGH-SH</text><rect Type="system" Region="特里菲斯" height="5.00" y="450.00" Name="DZ6-I5" width="5.00" x="580.00" id="30025" ID="30004852" /><text x="580.00" y="450.00" id="30026">DZ6-I5</text><rect Type="system" Region="特里菲斯" height="5.00" y="175.50" Name="G-D0N3" width="5.00" x="580.00" id="30028" ID="30004876" /><text x="580.00" y="175.50" id="30029">G-D0N3</text><rect Type="system" Region="特里菲斯" height="5.00" y="224.50" Name="T-AKQZ" width="5.00" x="580.00" id="30031" ID="30004877" /><text x="580.00" y="224.50" id="30032">T-AKQZ</text><rect Type="system" Region="特里菲斯" height="5.00" y="320.00" Name="OQTY-Z" width="5.00" x="580.00" id="30034" ID="30004858" /><text x="580.00" y="320.00" id="30035">OQTY-Z</text><rect Type="system" Region="特里菲斯" height="5.00" y="78.09" Name="0P-U0Q" width="5.00" x="600.96" id="30037" ID="30004874" /><text x="600.96" y="78.09" id="30038">0P-U0Q</text><rect Type="system" Region="特里菲斯" height="5.00" y="480.00" Name="QCDG-H" width="5.00" x="650.00" id="30040" ID="30004855" /><text x="650.00" y="480.00" id="30041">QCDG-H</text><rect Type="system" Region="特里菲斯" height="5.00" y="50.00" Name="B-6STA" width="5.00" x="650.00" id="30043" ID="30004873" /><text x="650.00" y="50.00" id="30044">B-6STA</text><rect Type="system" Region="特里菲斯" height="5.00" y="350.00" Name="QLU-P0" width="5.00" x="650.00" id="30046" ID="30004857" /><text x="650.00" y="350.00" id="30047">QLU-P0</text><rect Type="system" Region="特里菲斯" height="5.00" y="400.00" Name="XUDX-A" width="5.00" x="650.00" id="30049" ID="30004856" /><text x="650.00" y="400.00" id="30050">XUDX-A</text><rect Type="system" Region="特里菲斯" height="5.00" y="550.00" Name="Y-EQ0C" width="5.00" x="650.00" id="30052" ID="30004859" /><text x="650.00" y="550.00" id="30053">Y-EQ0C</text><rect Type="system" Region="特里菲斯" height="5.00" y="620.00" Name="8-BEW8" width="5.00" x="650.00" id="30055" ID="30004862" /><text x="650.00" y="620.00" id="30056">8-BEW8</text><rect Type="system" Region="特里菲斯" height="5.00" y="675.50" Name="NZW-ZO" width="5.00" x="650.00" id="30058" ID="30004863" /><text x="650.00" y="675.50" id="30059">NZW-ZO</text><rect Type="system" Region="特里菲斯" height="5.00" y="724.50" Name="WSK-1A" width="5.00" x="650.00" id="30061" ID="30004864" /><text x="650.00" y="724.50" id="30062">WSK-1A</text><rect Type="system" Region="特里菲斯" height="5.00" y="260.00" Name="NR8S-Y" width="5.00" x="690.00" id="30064" ID="30004866" /><text x="690.00" y="260.00" id="30065">NR8S-Y</text><rect Type="system" Region="特里菲斯" height="5.00" y="50.00" Name="7KIK-H" width="5.00" x="720.00" id="30067" ID="30004872" /><text x="720.00" y="50.00" id="30068">7KIK-H</text><rect Type="system" Region="特里菲斯" height="5.00" y="223.77" Name="F-ZBO0" width="5.00" x="729.06" id="30070" ID="30004867" /><text x="729.06" y="223.77" id="30071">F-ZBO0</text><rect Type="system" Region="特里菲斯" height="5.00" y="450.00" Name="G1-0UI" width="5.00" x="750.00" id="30073" ID="30004854" /><text x="750.00" y="450.00" id="30074">G1-0UI</text><rect Type="system" Region="特里菲斯" height="5.00" y="176.23" Name="3Q1T-O" width="5.00" x="740.94" id="30076" ID="30004868" /><text x="740.94" y="176.23" id="30077">3Q1T-O</text><rect Type="system" Region="特里菲斯" height="5.00" y="550.00" Name="7M4C-F" width="5.00" x="750.00" id="30079" ID="30004860" /><text x="750.00" y="550.00" id="30080">7M4C-F</text><rect Type="system" Region="特里菲斯" height="5.00" y="620.00" Name="MS1-KJ" width="5.00" x="750.00" id="30082" ID="30004861" /><text x="750.00" y="620.00" id="30083">MS1-KJ</text><rect Type="system" Region="特里菲斯" height="5.00" y="680.00" Name="5-NZNW" width="5.00" x="750.00" id="30085" ID="30004865" /><text x="750.00" y="680.00" id="30086">5-NZNW</text><rect Type="system" Region="特里菲斯" height="5.00" y="141.91" Name="8-4KME" width="5.00" x="779.04" id="30088" ID="30004869" /><text x="779.04" y="141.91" id="30089">8-4KME</text><rect Type="system" Region="特里菲斯" height="5.00" y="98.09" Name="T6GY-Y" width="5.00" x="800.96" id="30091" ID="30004870" /><text x="800.96" y="98.09" id="30092">T6GY-Y</text><rect Type="system" Region="特里菲斯" height="5.00" y="280.00" Name="M-RPN3" width="5.00" x="800.00" id="30094" ID="30004881" /><text x="800.00" y="280.00" id="30095">M-RPN3</text><rect Type="system" Region="特里菲斯" height="5.00" y="350.00" Name="JV1V-O" width="5.00" x="800.00" id="30097" ID="30004883" /><text x="800.00" y="350.00" id="30098">JV1V-O</text><rect Type="system" Region="特里菲斯" height="5.00" y="220.00" Name="9-980U" width="5.00" x="820.00" id="30100" ID="30004879" /><text x="820.00" y="220.00" id="30101">9-980U</text><rect Type="system" Region="特里菲斯" height="5.00" y="50.00" Name="R1-IMO" width="5.00" x="850.00" id="30103" ID="30004871" /><text x="850.00" y="50.00" id="30104">R1-IMO</text><rect Type="system" Region="特里菲斯" height="5.00" y="180.00" Name="46DP-O" width="5.00" x="880.00" id="30106" ID="30004878" /><text x="880.00" y="180.00" id="30107">46DP-O</text><rect Type="system" Region="特里菲斯" height="5.00" y="280.00" Name="EMIG-F" width="5.00" x="880.00" id="30109" ID="30004880" /><text x="880.00" y="280.00" id="30110">EMIG-F</text><rect Type="system" Region="特里菲斯" height="5.00" y="220.00" Name="ZO-P5K" width="5.00" x="920.00" id="30112" ID="30004882" /><text x="920.00" y="220.00" id="30113">ZO-P5K</text><rect Type="system" Region="卡彻" height="5.00" y="50.00" Name="Q-S7ZD" width="5.00" x="20.00" id="30115" ID="30001196" /><text x="20.00" y="50.00" id="30116">Q-S7ZD</text><rect Type="system" Region="非塔波利斯" height="5.00" y="570.00" Name="JI-LGM" width="5.00" x="130.00" id="30118" ID="30004435" /><text x="130.00" y="570.00" id="30119">JI-LGM</text><rect Type="system" Region="绝径" height="5.00" y="480.00" Name="1-7KWU" width="5.00" x="100.00" id="30121" ID="30002581" /><text x="100.00" y="480.00" id="30122">1-7KWU</text><rect Type="system" Region="伊梅瑟亚" height="5.00" y="20.00" Name="XVV-21" width="5.00" x="380.00" id="30124" ID="30002122" /><text x="380.00" y="20.00" id="30125">XVV-21</text><rect Type="system" Region="伊梅瑟亚" height="5.00" y="20.00" Name="Y-FZ5N" width="5.00" x="480.00" id="30127" ID="30002162" /><text x="480.00" y="20.00" id="30128">Y-FZ5N</text><rect Type="system" Region="伊梅瑟亚" height="5.00" y="20.00" Name="RU-PT9" width="5.00" x="950.00" id="30130" ID="30002183" /><text x="950.00" y="20.00" id="30131">RU-PT9</text><rect Type="system" Region="底特里德" height="5.00" y="120.00" Name="77S8-E" width="5.00" x="980.00" id="30133" ID="30000483" /><text x="980.00" y="120.00" id="30134">77S8-E</text><rect Type="system" Region="欧米斯特" height="5.00" y="180.00" Name="7L9-ZC" width="5.00" x="1000.00" id="30136" ID="30004926" /><text x="1000.00" y="180.00" id="30137">7L9-ZC</text><line x2="100.00" style="fill:blue;stroke:blue;" y1="380.00" x1="50.00" id="30139" y2="350.00" /><line x2="100.00" style="fill:blue;stroke:blue;" y1="380.00" x1="50.00" id="30140" y2="420.00" /><line x2="150.00" style="fill:blue;stroke:blue;" y1="380.00" x1="50.00" id="30141" y2="380.00" /><line x2="20.00" style="fill:blue;stroke:blue;" y1="100.00" x1="50.00" id="30142" y2="50.00" /><line x2="117.68" style="fill:blue;stroke:blue;" y1="100.00" x1="50.00" id="30143" y2="67.68" /><line x2="80.00" style="fill:blue;stroke:blue;" y1="100.00" x1="50.00" id="30144" y2="300.00" /><line x2="50.00" style="fill:blue;stroke:blue;" y1="300.00" x1="80.00" id="30145" y2="100.00" /><line x2="100.00" style="fill:blue;stroke:blue;" y1="300.00" x1="80.00" id="30146" y2="350.00" /><line x2="150.00" style="fill:blue;stroke:blue;" y1="300.00" x1="80.00" id="30147" y2="280.00" /><line x2="80.00" style="fill:blue;stroke:blue;" y1="350.00" x1="100.00" id="30148" y2="300.00" /><line x2="50.00" style="fill:blue;stroke:blue;" y1="350.00" x1="100.00" id="30149" y2="380.00" /><line x2="150.00" style="fill:blue;stroke:blue;" y1="350.00" x1="100.00" id="30150" y2="380.00" /><line x2="100.00" style="fill:blue;stroke:blue;" y1="420.00" x1="100.00" id="30151" y2="480.00" /><line x2="50.00" style="fill:blue;stroke:blue;" y1="420.00" x1="100.00" id="30152" y2="380.00" /><line x2="150.00" style="fill:blue;stroke:blue;" y1="420.00" x1="100.00" id="30153" y2="380.00" /><line x2="200.00" style="fill:blue;stroke:blue;" y1="67.68" x1="117.68" id="30154" y2="50.00" /><line x2="50.00" style="fill:blue;stroke:blue;" y1="67.68" x1="117.68" id="30155" y2="100.00" /><line x2="152.32" style="fill:blue;stroke:blue;" y1="67.68" x1="117.68" id="30156" y2="102.32" /><line x2="80.00" style="fill:blue;stroke:blue;" y1="280.00" x1="150.00" id="30157" y2="300.00" /><line x2="220.00" style="fill:blue;stroke:blue;" y1="280.00" x1="150.00" id="30158" y2="290.00" /><line x2="100.00" style="fill:blue;stroke:blue;" y1="380.00" x1="150.00" id="30159" y2="350.00" /><line x2="50.00" style="fill:blue;stroke:blue;" y1="380.00" x1="150.00" id="30160" y2="380.00" /><line x2="100.00" style="fill:blue;stroke:blue;" y1="380.00" x1="150.00" id="30161" y2="420.00" /><line x2="117.68" style="fill:blue;stroke:blue;" y1="102.32" x1="152.32" id="30162" y2="67.68" /><line x2="220.00" style="fill:blue;stroke:blue;" y1="102.32" x1="152.32" id="30163" y2="120.00" /><line x2="202.32" style="fill:blue;stroke:blue;" y1="167.68" x1="167.68" id="30164" y2="202.32" /><line x2="130.00" style="fill:blue;stroke:blue;" y1="550.00" x1="210.00" id="30165" y2="570.00" /><line x2="300.00" style="fill:blue;stroke:blue;" y1="550.00" x1="210.00" id="30166" y2="550.00" /><line x2="250.00" style="fill:blue;stroke:blue;" y1="50.00" x1="200.00" id="30167" y2="40.00" /><line x2="117.68" style="fill:blue;stroke:blue;" y1="50.00" x1="200.00" id="30168" y2="67.68" /><line x2="250.00" style="fill:blue;stroke:blue;" y1="202.32" x1="202.32" id="30169" y2="250.00" /><line x2="167.68" style="fill:blue;stroke:blue;" y1="202.32" x1="202.32" id="30170" y2="167.68" /><line x2="250.00" style="fill:blue;stroke:blue;" y1="202.32" x1="202.32" id="30171" y2="180.00" /><line x2="300.00" style="fill:blue;stroke:blue;" y1="650.00" x1="200.00" id="30172" y2="600.00" /><line x2="250.00" style="fill:blue;stroke:blue;" y1="650.00" x1="200.00" id="30173" y2="680.00" /><line x2="152.32" style="fill:blue;stroke:blue;" y1="120.00" x1="220.00" id="30174" y2="102.32" /><line x2="300.00" style="fill:blue;stroke:blue;" y1="120.00" x1="220.00" id="30175" y2="130.00" /><line x2="202.32" style="fill:blue;stroke:blue;" y1="180.00" x1="250.00" id="30176" y2="202.32" /><line x2="220.00" style="fill:blue;stroke:blue;" y1="250.00" x1="250.00" id="30177" y2="290.00" /><line x2="202.32" style="fill:blue;stroke:blue;" y1="250.00" x1="250.00" id="30178" y2="202.32" /><line x2="299.04" style="fill:blue;stroke:blue;" y1="250.00" x1="250.00" id="30179" y2="221.91" /><line x2="150.00" style="fill:blue;stroke:blue;" y1="290.00" x1="220.00" id="30180" y2="280.00" /><line x2="250.00" style="fill:blue;stroke:blue;" y1="290.00" x1="220.00" id="30181" y2="250.00" /><line x2="280.00" style="fill:blue;stroke:blue;" y1="40.00" x1="250.00" id="30182" y2="80.00" /><line x2="300.00" style="fill:blue;stroke:blue;" y1="40.00" x1="250.00" id="30183" y2="20.00" /><line x2="200.00" style="fill:blue;stroke:blue;" y1="40.00" x1="250.00" id="30184" y2="50.00" /><line x2="300.00" style="fill:blue;stroke:blue;" y1="680.00" x1="250.00" id="30185" y2="600.00" /><line x2="200.00" style="fill:blue;stroke:blue;" y1="680.00" x1="250.00" id="30186" y2="650.00" /><line x2="350.00" style="fill:blue;stroke:blue;" y1="680.00" x1="250.00" id="30187" y2="650.00" /><line x2="250.00" style="fill:blue;stroke:blue;" y1="80.00" x1="280.00" id="30188" y2="40.00" /><line x2="220.00" style="fill:blue;stroke:blue;" y1="130.00" x1="300.00" id="30189" y2="120.00" /><line x2="367.68" style="fill:blue;stroke:blue;" y1="130.00" x1="300.00" id="30190" y2="117.68" /><line x2="360.00" style="fill:blue;stroke:blue;" y1="550.00" x1="300.00" id="30191" y2="460.00" /><line x2="300.00" style="fill:blue;stroke:blue;" y1="550.00" x1="300.00" id="30192" y2="600.00" /><line x2="210.00" style="fill:blue;stroke:blue;" y1="550.00" x1="300.00" id="30193" y2="550.00" /><line x2="300.00" style="fill:blue;stroke:blue;" y1="600.00" x1="300.00" id="30194" y2="550.00" /><line x2="200.00" style="fill:blue;stroke:blue;" y1="600.00" x1="300.00" id="30195" y2="650.00" /><line x2="250.00" style="fill:blue;stroke:blue;" y1="600.00" x1="300.00" id="30196" y2="680.00" /><line x2="350.00" style="fill:blue;stroke:blue;" y1="600.00" x1="300.00" id="30197" y2="650.00" /><line x2="250.00" style="fill:blue;stroke:blue;" y1="221.91" x1="299.04" id="30198" y2="250.00" /><line x2="320.96" style="fill:blue;stroke:blue;" y1="221.91" x1="299.04" id="30199" y2="178.09" /><line x2="380.00" style="fill:blue;stroke:blue;" y1="20.00" x1="300.00" id="30200" y2="20.00" /><line x2="250.00" style="fill:blue;stroke:blue;" y1="20.00" x1="300.00" id="30201" y2="40.00" /><line x2="299.04" style="fill:blue;stroke:blue;" y1="178.09" x1="320.96" id="30202" y2="221.91" /><line x2="379.04" style="fill:blue;stroke:blue;" y1="320.00" x1="320.00" id="30203" y2="278.09" /><line x2="330.00" style="fill:blue;stroke:blue;" y1="320.00" x1="320.00" id="30204" y2="370.00" /><line x2="320.00" style="fill:blue;stroke:blue;" y1="370.00" x1="330.00" id="30205" y2="320.00" /><line x2="320.00" style="fill:blue;stroke:blue;" y1="370.00" x1="330.00" id="30206" y2="420.00" /><line x2="330.00" style="fill:blue;stroke:blue;" y1="420.00" x1="320.00" id="30207" y2="370.00" /><line x2="360.00" style="fill:blue;stroke:blue;" y1="420.00" x1="320.00" id="30208" y2="460.00" /><line x2="300.00" style="fill:blue;stroke:blue;" y1="650.00" x1="350.00" id="30209" y2="600.00" /><line x2="250.00" style="fill:blue;stroke:blue;" y1="650.00" x1="350.00" id="30210" y2="680.00" /><line x2="420.00" style="fill:blue;stroke:blue;" y1="650.00" x1="350.00" id="30211" y2="650.00" /><line x2="320.00" style="fill:blue;stroke:blue;" y1="460.00" x1="360.00" id="30212" y2="420.00" /><line x2="400.00" style="fill:blue;stroke:blue;" y1="460.00" x1="360.00" id="30213" y2="420.00" /><line x2="300.00" style="fill:blue;stroke:blue;" y1="460.00" x1="360.00" id="30214" y2="550.00" /><line x2="300.00" style="fill:blue;stroke:blue;" y1="117.68" x1="367.68" id="30215" y2="130.00" /><line x2="400.00" style="fill:blue;stroke:blue;" y1="117.68" x1="367.68" id="30216" y2="80.00" /><line x2="402.32" style="fill:blue;stroke:blue;" y1="117.68" x1="367.68" id="30217" y2="152.32" /><line x2="402.32" style="fill:blue;stroke:blue;" y1="278.09" x1="379.04" id="30218" y2="152.32" /><line x2="320.00" style="fill:blue;stroke:blue;" y1="278.09" x1="379.04" id="30219" y2="320.00" /><line x2="400.96" style="fill:blue;stroke:blue;" y1="278.09" x1="379.04" id="30220" y2="321.91" /><line x2="367.68" style="fill:blue;stroke:blue;" y1="80.00" x1="400.00" id="30221" y2="117.68" /><line x2="480.00" style="fill:blue;stroke:blue;" y1="80.00" x1="400.00" id="30222" y2="75.50" /><line x2="402.32" style="fill:blue;stroke:blue;" y1="80.00" x1="400.00" id="30223" y2="152.32" /><line x2="367.68" style="fill:blue;stroke:blue;" y1="152.32" x1="402.32" id="30224" y2="117.68" /><line x2="400.00" style="fill:blue;stroke:blue;" y1="152.32" x1="402.32" id="30225" y2="80.00" /><line x2="480.00" style="fill:blue;stroke:blue;" y1="152.32" x1="402.32" id="30226" y2="180.00" /><line x2="379.04" style="fill:blue;stroke:blue;" y1="152.32" x1="402.32" id="30227" y2="278.09" /><line x2="379.04" style="fill:blue;stroke:blue;" y1="321.91" x1="400.96" id="30228" y2="278.09" /><line x2="450.00" style="fill:blue;stroke:blue;" y1="321.91" x1="400.96" id="30229" y2="380.00" /><line x2="400.00" style="fill:blue;stroke:blue;" y1="321.91" x1="400.96" id="30230" y2="420.00" /><line x2="400.96" style="fill:blue;stroke:blue;" y1="420.00" x1="400.00" id="30231" y2="321.91" /><line x2="450.00" style="fill:blue;stroke:blue;" y1="420.00" x1="400.00" id="30232" y2="380.00" /><line x2="360.00" style="fill:blue;stroke:blue;" y1="420.00" x1="400.00" id="30233" y2="460.00" /><line x2="350.00" style="fill:blue;stroke:blue;" y1="650.00" x1="420.00" id="30234" y2="650.00" /><line x2="499.04" style="fill:blue;stroke:blue;" y1="650.00" x1="420.00" id="30235" y2="621.91" /><line x2="500.00" style="fill:blue;stroke:blue;" y1="700.00" x1="450.00" id="30236" y2="680.00" /><line x2="400.96" style="fill:blue;stroke:blue;" y1="380.00" x1="450.00" id="30237" y2="321.91" /><line x2="400.00" style="fill:blue;stroke:blue;" y1="380.00" x1="450.00" id="30238" y2="420.00" /><line x2="520.00" style="fill:blue;stroke:blue;" y1="550.00" x1="450.00" id="30239" y2="520.00" /><line x2="480.00" style="fill:blue;stroke:blue;" y1="75.50" x1="480.00" id="30240" y2="20.00" /><line x2="400.00" style="fill:blue;stroke:blue;" y1="75.50" x1="480.00" id="30241" y2="80.00" /><line x2="480.00" style="fill:blue;stroke:blue;" y1="75.50" x1="480.00" id="30242" y2="124.50" /><line x2="480.00" style="fill:blue;stroke:blue;" y1="124.50" x1="480.00" id="30243" y2="75.50" /><line x2="480.00" style="fill:blue;stroke:blue;" y1="124.50" x1="480.00" id="30244" y2="180.00" /><line x2="480.00" style="fill:blue;stroke:blue;" y1="180.00" x1="480.00" id="30245" y2="124.50" /><line x2="402.32" style="fill:blue;stroke:blue;" y1="180.00" x1="480.00" id="30246" y2="152.32" /><line x2="499.04" style="fill:blue;stroke:blue;" y1="680.00" x1="500.00" id="30247" y2="621.91" /><line x2="450.00" style="fill:blue;stroke:blue;" y1="680.00" x1="500.00" id="30248" y2="700.00" /><line x2="420.00" style="fill:blue;stroke:blue;" y1="621.91" x1="499.04" id="30249" y2="650.00" /><line x2="500.00" style="fill:blue;stroke:blue;" y1="621.91" x1="499.04" id="30250" y2="680.00" /><line x2="520.96" style="fill:blue;stroke:blue;" y1="621.91" x1="499.04" id="30251" y2="578.09" /><line x2="499.04" style="fill:blue;stroke:blue;" y1="578.09" x1="520.96" id="30252" y2="621.91" /><line x2="520.00" style="fill:blue;stroke:blue;" y1="578.09" x1="520.96" id="30253" y2="520.00" /><line x2="520.96" style="fill:blue;stroke:blue;" y1="520.00" x1="520.00" id="30254" y2="578.09" /><line x2="450.00" style="fill:blue;stroke:blue;" y1="520.00" x1="520.00" id="30255" y2="550.00" /><line x2="580.00" style="fill:blue;stroke:blue;" y1="520.00" x1="520.00" id="30256" y2="450.00" /><line x2="580.00" style="fill:blue;stroke:blue;" y1="380.00" x1="550.00" id="30257" y2="450.00" /><line x2="600.96" style="fill:blue;stroke:blue;" y1="121.91" x1="579.04" id="30258" y2="78.09" /><line x2="580.00" style="fill:blue;stroke:blue;" y1="121.91" x1="579.04" id="30259" y2="175.50" /><line x2="520.00" style="fill:blue;stroke:blue;" y1="450.00" x1="580.00" id="30260" y2="520.00" /><line x2="550.00" style="fill:blue;stroke:blue;" y1="450.00" x1="580.00" id="30261" y2="380.00" /><line x2="750.00" style="fill:blue;stroke:blue;" y1="450.00" x1="580.00" id="30262" y2="450.00" /><line x2="650.00" style="fill:blue;stroke:blue;" y1="450.00" x1="580.00" id="30263" y2="480.00" /><line x2="650.00" style="fill:blue;stroke:blue;" y1="450.00" x1="580.00" id="30264" y2="400.00" /><line x2="650.00" style="fill:blue;stroke:blue;" y1="450.00" x1="580.00" id="30265" y2="350.00" /><line x2="579.04" style="fill:blue;stroke:blue;" y1="175.50" x1="580.00" id="30266" y2="121.91" /><line x2="580.00" style="fill:blue;stroke:blue;" y1="175.50" x1="580.00" id="30267" y2="224.50" /><line x2="580.00" style="fill:blue;stroke:blue;" y1="224.50" x1="580.00" id="30268" y2="175.50" /><line x2="650.00" style="fill:blue;stroke:blue;" y1="320.00" x1="580.00" id="30269" y2="350.00" /><line x2="650.00" style="fill:blue;stroke:blue;" y1="78.09" x1="600.96" id="30270" y2="50.00" /><line x2="579.04" style="fill:blue;stroke:blue;" y1="78.09" x1="600.96" id="30271" y2="121.91" /><line x2="580.00" style="fill:blue;stroke:blue;" y1="480.00" x1="650.00" id="30272" y2="450.00" /><line x2="650.00" style="fill:blue;stroke:blue;" y1="480.00" x1="650.00" id="30273" y2="550.00" /><line x2="720.00" style="fill:blue;stroke:blue;" y1="50.00" x1="650.00" id="30274" y2="50.00" /><line x2="600.96" style="fill:blue;stroke:blue;" y1="50.00" x1="650.00" id="30275" y2="78.09" /><line x2="580.00" style="fill:blue;stroke:blue;" y1="350.00" x1="650.00" id="30276" y2="450.00" /><line x2="750.00" style="fill:blue;stroke:blue;" y1="350.00" x1="650.00" id="30277" y2="450.00" /><line x2="650.00" style="fill:blue;stroke:blue;" y1="350.00" x1="650.00" id="30278" y2="400.00" /><line x2="580.00" style="fill:blue;stroke:blue;" y1="350.00" x1="650.00" id="30279" y2="320.00" /><line x2="690.00" style="fill:blue;stroke:blue;" y1="350.00" x1="650.00" id="30280" y2="260.00" /><line x2="580.00" style="fill:blue;stroke:blue;" y1="400.00" x1="650.00" id="30281" y2="450.00" /><line x2="750.00" style="fill:blue;stroke:blue;" y1="400.00" x1="650.00" id="30282" y2="450.00" /><line x2="650.00" style="fill:blue;stroke:blue;" y1="400.00" x1="650.00" id="30283" y2="350.00" /><line x2="650.00" style="fill:blue;stroke:blue;" y1="550.00" x1="650.00" id="30284" y2="480.00" /><line x2="750.00" style="fill:blue;stroke:blue;" y1="550.00" x1="650.00" id="30285" y2="550.00" /><line x2="650.00" style="fill:blue;stroke:blue;" y1="550.00" x1="650.00" id="30286" y2="620.00" /><line x2="650.00" style="fill:blue;stroke:blue;" y1="620.00" x1="650.00" id="30287" y2="550.00" /><line x2="750.00" style="fill:blue;stroke:blue;" y1="620.00" x1="650.00" id="30288" y2="620.00" /><line x2="650.00" style="fill:blue;stroke:blue;" y1="620.00" x1="650.00" id="30289" y2="675.50" /><line x2="750.00" style="fill:blue;stroke:blue;" y1="620.00" x1="650.00" id="30290" y2="680.00" /><line x2="650.00" style="fill:blue;stroke:blue;" y1="675.50" x1="650.00" id="30291" y2="620.00" /><line x2="650.00" style="fill:blue;stroke:blue;" y1="675.50" x1="650.00" id="30292" y2="724.50" /><line x2="750.00" style="fill:blue;stroke:blue;" y1="675.50" x1="650.00" id="30293" y2="680.00" /><line x2="650.00" style="fill:blue;stroke:blue;" y1="724.50" x1="650.00" id="30294" y2="675.50" /><line x2="650.00" style="fill:blue;stroke:blue;" y1="260.00" x1="690.00" id="30295" y2="350.00" /><line x2="729.06" style="fill:blue;stroke:blue;" y1="260.00" x1="690.00" id="30296" y2="223.77" /><line x2="800.96" style="fill:blue;stroke:blue;" y1="50.00" x1="720.00" id="30297" y2="98.09" /><line x2="650.00" style="fill:blue;stroke:blue;" y1="50.00" x1="720.00" id="30298" y2="50.00" /><line x2="690.00" style="fill:blue;stroke:blue;" y1="223.77" x1="729.06" id="30299" y2="260.00" /><line x2="740.94" style="fill:blue;stroke:blue;" y1="223.77" x1="729.06" id="30300" y2="176.23" /><line x2="580.00" style="fill:blue;stroke:blue;" y1="450.00" x1="750.00" id="30301" y2="450.00" /><line x2="650.00" style="fill:blue;stroke:blue;" y1="450.00" x1="750.00" id="30302" y2="400.00" /><line x2="650.00" style="fill:blue;stroke:blue;" y1="450.00" x1="750.00" id="30303" y2="350.00" /><line x2="729.06" style="fill:blue;stroke:blue;" y1="176.23" x1="740.94" id="30304" y2="223.77" /><line x2="779.04" style="fill:blue;stroke:blue;" y1="176.23" x1="740.94" id="30305" y2="141.91" /><line x2="650.00" style="fill:blue;stroke:blue;" y1="550.00" x1="750.00" id="30306" y2="550.00" /><line x2="750.00" style="fill:blue;stroke:blue;" y1="550.00" x1="750.00" id="30307" y2="620.00" /><line x2="750.00" style="fill:blue;stroke:blue;" y1="620.00" x1="750.00" id="30308" y2="550.00" /><line x2="650.00" style="fill:blue;stroke:blue;" y1="620.00" x1="750.00" id="30309" y2="620.00" /><line x2="650.00" style="fill:blue;stroke:blue;" y1="680.00" x1="750.00" id="30310" y2="620.00" /><line x2="650.00" style="fill:blue;stroke:blue;" y1="680.00" x1="750.00" id="30311" y2="675.50" /><line x2="740.94" style="fill:blue;stroke:blue;" y1="141.91" x1="779.04" id="30312" y2="176.23" /><line x2="800.96" style="fill:blue;stroke:blue;" y1="141.91" x1="779.04" id="30313" y2="98.09" /><line x2="779.04" style="fill:blue;stroke:blue;" y1="98.09" x1="800.96" id="30314" y2="141.91" /><line x2="850.00" style="fill:blue;stroke:blue;" y1="98.09" x1="800.96" id="30315" y2="50.00" /><line x2="720.00" style="fill:blue;stroke:blue;" y1="98.09" x1="800.96" id="30316" y2="50.00" /><line x2="880.00" style="fill:blue;stroke:blue;" y1="98.09" x1="800.96" id="30317" y2="180.00" /><line x2="820.00" style="fill:blue;stroke:blue;" y1="280.00" x1="800.00" id="30318" y2="220.00" /><line x2="800.00" style="fill:blue;stroke:blue;" y1="280.00" x1="800.00" id="30319" y2="350.00" /><line x2="800.00" style="fill:blue;stroke:blue;" y1="350.00" x1="800.00" id="30320" y2="280.00" /><line x2="880.00" style="fill:blue;stroke:blue;" y1="220.00" x1="820.00" id="30321" y2="180.00" /><line x2="880.00" style="fill:blue;stroke:blue;" y1="220.00" x1="820.00" id="30322" y2="280.00" /><line x2="800.00" style="fill:blue;stroke:blue;" y1="220.00" x1="820.00" id="30323" y2="280.00" /><line x2="950.00" style="fill:blue;stroke:blue;" y1="50.00" x1="850.00" id="30324" y2="20.00" /><line x2="800.96" style="fill:blue;stroke:blue;" y1="50.00" x1="850.00" id="30325" y2="98.09" /><line x2="980.00" style="fill:blue;stroke:blue;" y1="180.00" x1="880.00" id="30326" y2="120.00" /><line x2="800.96" style="fill:blue;stroke:blue;" y1="180.00" x1="880.00" id="30327" y2="98.09" /><line x2="820.00" style="fill:blue;stroke:blue;" y1="180.00" x1="880.00" id="30328" y2="220.00" /><line x2="920.00" style="fill:blue;stroke:blue;" y1="180.00" x1="880.00" id="30329" y2="220.00" /><line x2="820.00" style="fill:blue;stroke:blue;" y1="280.00" x1="880.00" id="30330" y2="220.00" /><line x2="920.00" style="fill:blue;stroke:blue;" y1="280.00" x1="880.00" id="30331" y2="220.00" /><line x2="880.00" style="fill:blue;stroke:blue;" y1="220.00" x1="920.00" id="30332" y2="180.00" /><line x2="880.00" style="fill:blue;stroke:blue;" y1="220.00" x1="920.00" id="30333" y2="280.00" /><line x2="1000.00" style="fill:blue;stroke:blue;" y1="220.00" x1="920.00" id="30334" y2="180.00" /><line x2="50.00" style="fill:blue;stroke:blue;" y1="50.00" x1="20.00" id="30335" y2="100.00" /><line x2="210.00" style="fill:blue;stroke:blue;" y1="570.00" x1="130.00" id="30336" y2="550.00" /><line x2="100.00" style="fill:blue;stroke:blue;" y1="480.00" x1="100.00" id="30337" y2="420.00" /><line x2="300.00" style="fill:blue;stroke:blue;" y1="20.00" x1="380.00" id="30338" y2="20.00" /><line x2="480.00" style="fill:blue;stroke:blue;" y1="20.00" x1="480.00" id="30339" y2="75.50" /><line x2="850.00" style="fill:blue;stroke:blue;" y1="20.00" x1="950.00" id="30340" y2="50.00" /><line x2="880.00" style="fill:blue;stroke:blue;" y1="120.00" x1="980.00" id="30341" y2="180.00" /><line x2="920.00" style="fill:blue;stroke:blue;" y1="180.00" x1="1000.00" id="30342" y2="220.00" /></svg>
