<?xml version="1.0" standalone="yes"?><!DOCTYPE svg PUBLIC "-//W3C//DTD SVG 1.1//EN" "http://www.w3.org/Graphics/SVG/1.1/DTD/svg11.dtd"[]><svg width="1050.00" height="800.00" id="29871" xmlns="http://www.w3.org/2000/svg" xmlns:xlink="http://www.w3.org/1999/xlink"><rect Type="system" x="50.00" id="29872" height="5.00" width="5.00" Name="D-9UEV" ID="30004813" Region="特里菲斯" y="380.00" /><text y="380.00" x="50.00" id="29873">D-9UEV</text><rect Type="system" x="50.00" id="29875" height="5.00" width="5.00" Name="3L3N-X" ID="30004808" Region="特里菲斯" y="100.00" /><text y="100.00" x="50.00" id="29876">3L3N-X</text><rect Type="system" x="80.00" id="29878" height="5.00" width="5.00" Name="4-P4FE" ID="30004811" Region="特里菲斯" y="300.00" /><text y="300.00" x="80.00" id="29879">4-P4FE</text><rect Type="system" x="100.00" id="29881" height="5.00" width="5.00" Name="RH0-EG" ID="30004812" Region="特里菲斯" y="350.00" /><text y="350.00" x="100.00" id="29882">RH0-EG</text><rect Type="system" x="100.00" id="29884" height="5.00" width="5.00" Name="H-HWQR" ID="30004814" Region="特里菲斯" y="420.00" /><text y="420.00" x="100.00" id="29885">H-HWQR</text><rect Type="system" x="117.68" id="29887" height="5.00" width="5.00" Name="UALX-3" ID="30004807" Region="特里菲斯" y="67.68" /><text y="67.68" x="117.68" id="29888">UALX-3</text><rect Type="system" x="150.00" id="29890" height="5.00" width="5.00" Name="QRBN-M" ID="30004815" Region="特里菲斯" y="280.00" /><text y="280.00" x="150.00" id="29891">QRBN-M</text><rect Type="system" x="150.00" id="29893" height="5.00" width="5.00" Name="78R-PI" ID="30004816" Region="特里菲斯" y="380.00" /><text y="380.00" x="150.00" id="29894">78R-PI</text><rect Type="system" x="152.32" id="29896" height="5.00" width="5.00" Name="Y-ORBJ" ID="30004809" Region="特里菲斯" y="102.32" /><text y="102.32" x="152.32" id="29897">Y-ORBJ</text><rect Type="system" x="167.68" id="29899" height="5.00" width="5.00" Name="L2GN-K" ID="30004827" Region="特里菲斯" y="167.68" /><text y="167.68" x="167.68" id="29900">L2GN-K</text><rect Type="system" x="210.00" id="29902" height="5.00" width="5.00" Name="T2-V8F" ID="30004842" Region="特里菲斯" y="550.00" /><text y="550.00" x="210.00" id="29903">T2-V8F</text><rect Type="system" x="200.00" id="29905" height="5.00" width="5.00" Name="DT-PXH" ID="30004806" Region="特里菲斯" y="50.00" /><text y="50.00" x="200.00" id="29906">DT-PXH</text><rect Type="system" x="202.32" id="29908" height="5.00" width="5.00" Name="9-MJVQ" ID="30004826" Region="特里菲斯" y="202.32" /><text y="202.32" x="202.32" id="29909">9-MJVQ</text><rect Type="system" x="200.00" id="29911" height="5.00" width="5.00" Name="CCE-0J" ID="30004841" Region="特里菲斯" y="650.00" /><text y="650.00" x="200.00" id="29912">CCE-0J</text><rect Type="system" x="220.00" id="29914" height="5.00" width="5.00" Name="6-IAFR" ID="30004810" Region="特里菲斯" y="120.00" /><text y="120.00" x="220.00" id="29915">6-IAFR</text><rect Type="system" x="250.00" id="29917" height="5.00" width="5.00" Name="4-IT9G" ID="30004828" Region="特里菲斯" y="180.00" /><text y="180.00" x="250.00" id="29918">4-IT9G</text><rect Type="system" x="250.00" id="29920" height="5.00" width="5.00" Name="PDF-3Z" ID="30004825" Region="特里菲斯" y="250.00" /><text y="250.00" x="250.00" id="29921">PDF-3Z</text><rect Type="system" x="220.00" id="29923" height="5.00" width="5.00" Name="C3-0YD" ID="30004824" Region="特里菲斯" y="290.00" /><text y="290.00" x="220.00" id="29924">C3-0YD</text><rect Type="system" x="250.00" id="29926" height="5.00" width="5.00" Name="S4-9DN" ID="30004805" Region="特里菲斯" y="40.00" /><text y="40.00" x="250.00" id="29927">S4-9DN</text><rect Type="system" x="250.00" id="29929" height="5.00" width="5.00" Name="0VK-43" ID="30004843" Region="特里菲斯" y="680.00" /><text y="680.00" x="250.00" id="29930">0VK-43</text><rect Type="system" x="280.00" id="29932" height="5.00" width="5.00" Name="WB-AYY" ID="30004803" Region="特里菲斯" y="80.00" /><text y="80.00" x="280.00" id="29933">WB-AYY</text><rect Type="system" x="300.00" id="29935" height="5.00" width="5.00" Name="ZD1-Z2" ID="30004817" Region="特里菲斯" y="130.00" /><text y="130.00" x="300.00" id="29936">ZD1-Z2</text><rect Type="system" x="300.00" id="29938" height="5.00" width="5.00" Name="JI1-SY" ID="30004839" Region="特里菲斯" y="550.00" /><text y="550.00" x="300.00" id="29939">JI1-SY</text><rect Type="system" x="300.00" id="29941" height="5.00" width="5.00" Name="X-1QGA" ID="30004840" Region="特里菲斯" y="600.00" /><text y="600.00" x="300.00" id="29942">X-1QGA</text><rect Type="system" x="299.04" id="29944" height="5.00" width="5.00" Name="PEK-8Z" ID="30004829" Region="特里菲斯" y="221.91" /><text y="221.91" x="299.04" id="29945">PEK-8Z</text><rect Type="system" x="300.00" id="29947" height="5.00" width="5.00" Name="BW-WJ2" ID="30004804" Region="特里菲斯" y="20.00" /><text y="20.00" x="300.00" id="29948">BW-WJ2</text><rect Type="system" x="320.96" id="29950" height="5.00" width="5.00" Name="2PG-KN" ID="30004830" Region="特里菲斯" y="178.09" /><text y="178.09" x="320.96" id="29951">2PG-KN</text><rect Type="system" x="320.00" id="29953" height="5.00" width="5.00" Name="IL-YTR" ID="30004832" Region="特里菲斯" y="320.00" /><text y="320.00" x="320.00" id="29954">IL-YTR</text><rect Type="system" x="330.00" id="29956" height="5.00" width="5.00" Name="KW-OAM" ID="30004833" Region="特里菲斯" y="370.00" /><text y="370.00" x="330.00" id="29957">KW-OAM</text><rect Type="system" x="320.00" id="29959" height="5.00" width="5.00" Name="JK-Q77" ID="30004836" Region="特里菲斯" y="420.00" /><text y="420.00" x="320.00" id="29960">JK-Q77</text><rect Type="system" x="350.00" id="29962" height="5.00" width="5.00" Name="TY2X-C" ID="30004844" Region="特里菲斯" y="650.00" /><text y="650.00" x="350.00" id="29963">TY2X-C</text><rect Type="system" x="360.00" id="29965" height="5.00" width="5.00" Name="YF-P4X" ID="30004838" Region="特里菲斯" y="460.00" /><text y="460.00" x="360.00" id="29966">YF-P4X</text><rect Type="system" x="367.68" id="29968" height="5.00" width="5.00" Name="C-FD0D" ID="30004818" Region="特里菲斯" y="117.68" /><text y="117.68" x="367.68" id="29969">C-FD0D</text><rect Type="system" x="379.04" id="29971" height="5.00" width="5.00" Name="ABE-M2" ID="30004831" Region="特里菲斯" y="278.09" /><text y="278.09" x="379.04" id="29972">ABE-M2</text><rect Type="system" x="400.00" id="29974" height="5.00" width="5.00" Name="S-9RCJ" ID="30004819" Region="特里菲斯" y="80.00" /><text y="80.00" x="400.00" id="29975">S-9RCJ</text><rect Type="system" x="402.32" id="29977" height="5.00" width="5.00" Name="W-16DY" ID="30004822" Region="特里菲斯" y="152.32" /><text y="152.32" x="402.32" id="29978">W-16DY</text><rect Type="system" x="400.96" id="29980" height="5.00" width="5.00" Name="U2U5-A" ID="30004834" Region="特里菲斯" y="321.91" /><text y="321.91" x="400.96" id="29981">U2U5-A</text><rect Type="system" x="400.00" id="29983" height="5.00" width="5.00" Name="QI9-42" ID="30004837" Region="特里菲斯" y="420.00" /><text y="420.00" x="400.00" id="29984">QI9-42</text><rect Type="system" x="420.00" id="29986" height="5.00" width="5.00" Name="Q0G-L8" ID="30004845" Region="特里菲斯" y="650.00" /><text y="650.00" x="420.00" id="29987">Q0G-L8</text><rect Type="system" x="450.00" id="29989" height="5.00" width="5.00" Name="A-REKV" ID="30004850" Region="特里菲斯" y="700.00" /><text y="700.00" x="450.00" id="29990">A-REKV</text><rect Type="system" x="450.00" id="29992" height="5.00" width="5.00" Name="EQWO-Y" ID="30004835" Region="特里菲斯" y="380.00" /><text y="380.00" x="450.00" id="29993">EQWO-Y</text><rect Type="system" x="450.00" id="29995" height="5.00" width="5.00" Name="BB-EKF" ID="30004851" Region="特里菲斯" y="550.00" /><text y="550.00" x="450.00" id="29996">BB-EKF</text><rect Type="system" x="480.00" id="29998" height="5.00" width="5.00" Name="ZMV9-A" ID="30004820" Region="特里菲斯" y="75.50" /><text y="75.50" x="480.00" id="29999">ZMV9-A</text><rect Type="system" x="480.00" id="30001" height="5.00" width="5.00" Name="FE-6YQ" ID="30004821" Region="特里菲斯" y="124.50" /><text y="124.50" x="480.00" id="30002">FE-6YQ</text><rect Type="system" x="480.00" id="30004" height="5.00" width="5.00" Name="M-4KDB" ID="30004823" Region="特里菲斯" y="180.00" /><text y="180.00" x="480.00" id="30005">M-4KDB</text><rect Type="system" x="500.00" id="30007" height="5.00" width="5.00" Name="WE-KK2" ID="30004847" Region="特里菲斯" y="680.00" /><text y="680.00" x="500.00" id="30008">WE-KK2</text><rect Type="system" x="499.04" id="30010" height="5.00" width="5.00" Name="Q5KZ-W" ID="30004846" Region="特里菲斯" y="621.91" /><text y="621.91" x="499.04" id="30011">Q5KZ-W</text><rect Type="system" x="520.96" id="30013" height="5.00" width="5.00" Name="B8HU-Z" ID="30004848" Region="特里菲斯" y="578.09" /><text y="578.09" x="520.96" id="30014">B8HU-Z</text><rect Type="system" x="520.00" id="30016" height="5.00" width="5.00" Name="16AM-3" ID="30004849" Region="特里菲斯" y="520.00" /><text y="520.00" x="520.00" id="30017">16AM-3</text><rect Type="system" x="550.00" id="30019" height="5.00" width="5.00" Name="R-XDKM" ID="30004853" Region="特里菲斯" y="380.00" /><text y="380.00" x="550.00" id="30020">R-XDKM</text><rect Type="system" x="579.04" id="30022" height="5.00" width="5.00" Name="XGH-SH" ID="30004875" Region="特里菲斯" y="121.91" /><text y="121.91" x="579.04" id="30023">XGH-SH</text><rect Type="system" x="580.00" id="30025" height="5.00" width="5.00" Name="DZ6-I5" ID="30004852" Region="特里菲斯" y="450.00" /><text y="450.00" x="580.00" id="30026">DZ6-I5</text><rect Type="system" x="580.00" id="30028" height="5.00" width="5.00" Name="G-D0N3" ID="30004876" Region="特里菲斯" y="175.50" /><text y="175.50" x="580.00" id="30029">G-D0N3</text><rect Type="system" x="580.00" id="30031" height="5.00" width="5.00" Name="T-AKQZ" ID="30004877" Region="特里菲斯" y="224.50" /><text y="224.50" x="580.00" id="30032">T-AKQZ</text><rect Type="system" x="580.00" id="30034" height="5.00" width="5.00" Name="OQTY-Z" ID="30004858" Region="特里菲斯" y="320.00" /><text y="320.00" x="580.00" id="30035">OQTY-Z</text><rect Type="system" x="600.96" id="30037" height="5.00" width="5.00" Name="0P-U0Q" ID="30004874" Region="特里菲斯" y="78.09" /><text y="78.09" x="600.96" id="30038">0P-U0Q</text><rect Type="system" x="650.00" id="30040" height="5.00" width="5.00" Name="QCDG-H" ID="30004855" Region="特里菲斯" y="480.00" /><text y="480.00" x="650.00" id="30041">QCDG-H</text><rect Type="system" x="650.00" id="30043" height="5.00" width="5.00" Name="B-6STA" ID="30004873" Region="特里菲斯" y="50.00" /><text y="50.00" x="650.00" id="30044">B-6STA</text><rect Type="system" x="650.00" id="30046" height="5.00" width="5.00" Name="QLU-P0" ID="30004857" Region="特里菲斯" y="350.00" /><text y="350.00" x="650.00" id="30047">QLU-P0</text><rect Type="system" x="650.00" id="30049" height="5.00" width="5.00" Name="XUDX-A" ID="30004856" Region="特里菲斯" y="400.00" /><text y="400.00" x="650.00" id="30050">XUDX-A</text><rect Type="system" x="650.00" id="30052" height="5.00" width="5.00" Name="Y-EQ0C" ID="30004859" Region="特里菲斯" y="550.00" /><text y="550.00" x="650.00" id="30053">Y-EQ0C</text><rect Type="system" x="650.00" id="30055" height="5.00" width="5.00" Name="8-BEW8" ID="30004862" Region="特里菲斯" y="620.00" /><text y="620.00" x="650.00" id="30056">8-BEW8</text><rect Type="system" x="650.00" id="30058" height="5.00" width="5.00" Name="NZW-ZO" ID="30004863" Region="特里菲斯" y="675.50" /><text y="675.50" x="650.00" id="30059">NZW-ZO</text><rect Type="system" x="650.00" id="30061" height="5.00" width="5.00" Name="WSK-1A" ID="30004864" Region="特里菲斯" y="724.50" /><text y="724.50" x="650.00" id="30062">WSK-1A</text><rect Type="system" x="690.00" id="30064" height="5.00" width="5.00" Name="NR8S-Y" ID="30004866" Region="特里菲斯" y="260.00" /><text y="260.00" x="690.00" id="30065">NR8S-Y</text><rect Type="system" x="720.00" id="30067" height="5.00" width="5.00" Name="7KIK-H" ID="30004872" Region="特里菲斯" y="50.00" /><text y="50.00" x="720.00" id="30068">7KIK-H</text><rect Type="system" x="729.06" id="30070" height="5.00" width="5.00" Name="F-ZBO0" ID="30004867" Region="特里菲斯" y="223.77" /><text y="223.77" x="729.06" id="30071">F-ZBO0</text><rect Type="system" x="750.00" id="30073" height="5.00" width="5.00" Name="G1-0UI" ID="30004854" Region="特里菲斯" y="450.00" /><text y="450.00" x="750.00" id="30074">G1-0UI</text><rect Type="system" x="740.94" id="30076" height="5.00" width="5.00" Name="3Q1T-O" ID="30004868" Region="特里菲斯" y="176.23" /><text y="176.23" x="740.94" id="30077">3Q1T-O</text><rect Type="system" x="750.00" id="30079" height="5.00" width="5.00" Name="7M4C-F" ID="30004860" Region="特里菲斯" y="550.00" /><text y="550.00" x="750.00" id="30080">7M4C-F</text><rect Type="system" x="750.00" id="30082" height="5.00" width="5.00" Name="MS1-KJ" ID="30004861" Region="特里菲斯" y="620.00" /><text y="620.00" x="750.00" id="30083">MS1-KJ</text><rect Type="system" x="750.00" id="30085" height="5.00" width="5.00" Name="5-NZNW" ID="30004865" Region="特里菲斯" y="680.00" /><text y="680.00" x="750.00" id="30086">5-NZNW</text><rect Type="system" x="779.04" id="30088" height="5.00" width="5.00" Name="8-4KME" ID="30004869" Region="特里菲斯" y="141.91" /><text y="141.91" x="779.04" id="30089">8-4KME</text><rect Type="system" x="800.96" id="30091" height="5.00" width="5.00" Name="T6GY-Y" ID="30004870" Region="特里菲斯" y="98.09" /><text y="98.09" x="800.96" id="30092">T6GY-Y</text><rect Type="system" x="800.00" id="30094" height="5.00" width="5.00" Name="M-RPN3" ID="30004881" Region="特里菲斯" y="280.00" /><text y="280.00" x="800.00" id="30095">M-RPN3</text><rect Type="system" x="800.00" id="30097" height="5.00" width="5.00" Name="JV1V-O" ID="30004883" Region="特里菲斯" y="350.00" /><text y="350.00" x="800.00" id="30098">JV1V-O</text><rect Type="system" x="820.00" id="30100" height="5.00" width="5.00" Name="9-980U" ID="30004879" Region="特里菲斯" y="220.00" /><text y="220.00" x="820.00" id="30101">9-980U</text><rect Type="system" x="850.00" id="30103" height="5.00" width="5.00" Name="R1-IMO" ID="30004871" Region="特里菲斯" y="50.00" /><text y="50.00" x="850.00" id="30104">R1-IMO</text><rect Type="system" x="880.00" id="30106" height="5.00" width="5.00" Name="46DP-O" ID="30004878" Region="特里菲斯" y="180.00" /><text y="180.00" x="880.00" id="30107">46DP-O</text><rect Type="system" x="880.00" id="30109" height="5.00" width="5.00" Name="EMIG-F" ID="30004880" Region="特里菲斯" y="280.00" /><text y="280.00" x="880.00" id="30110">EMIG-F</text><rect Type="system" x="920.00" id="30112" height="5.00" width="5.00" Name="ZO-P5K" ID="30004882" Region="特里菲斯" y="220.00" /><text y="220.00" x="920.00" id="30113">ZO-P5K</text><rect Type="system" x="20.00" id="30115" height="5.00" width="5.00" Name="Q-S7ZD" ID="30001196" Region="卡彻" y="50.00" /><text y="50.00" x="20.00" id="30116">Q-S7ZD</text><rect Type="system" x="130.00" id="30118" height="5.00" width="5.00" Name="JI-LGM" ID="30004435" Region="非塔波利斯" y="570.00" /><text y="570.00" x="130.00" id="30119">JI-LGM</text><rect Type="system" x="100.00" id="30121" height="5.00" width="5.00" Name="1-7KWU" ID="30002581" Region="绝径" y="480.00" /><text y="480.00" x="100.00" id="30122">1-7KWU</text><rect Type="system" x="380.00" id="30124" height="5.00" width="5.00" Name="XVV-21" ID="30002122" Region="伊梅瑟亚" y="20.00" /><text y="20.00" x="380.00" id="30125">XVV-21</text><rect Type="system" x="480.00" id="30127" height="5.00" width="5.00" Name="Y-FZ5N" ID="30002162" Region="伊梅瑟亚" y="20.00" /><text y="20.00" x="480.00" id="30128">Y-FZ5N</text><rect Type="system" x="950.00" id="30130" height="5.00" width="5.00" Name="RU-PT9" ID="30002183" Region="伊梅瑟亚" y="20.00" /><text y="20.00" x="950.00" id="30131">RU-PT9</text><rect Type="system" x="980.00" id="30133" height="5.00" width="5.00" Name="77S8-E" ID="30000483" Region="底特里德" y="120.00" /><text y="120.00" x="980.00" id="30134">77S8-E</text><rect Type="system" x="1000.00" id="30136" height="5.00" width="5.00" Name="7L9-ZC" ID="30004926" Region="欧米斯特" y="180.00" /><text y="180.00" x="1000.00" id="30137">7L9-ZC</text><line style="stroke:blue;fill:blue;" id="30139" x2="100.00" x1="50.00" y1="380.00" y2="350.00" /><line style="stroke:blue;fill:blue;" id="30140" x2="100.00" x1="50.00" y1="380.00" y2="420.00" /><line style="stroke:blue;fill:blue;" id="30141" x2="150.00" x1="50.00" y1="380.00" y2="380.00" /><line style="stroke:blue;fill:blue;" id="30142" x2="20.00" x1="50.00" y1="100.00" y2="50.00" /><line style="stroke:blue;fill:blue;" id="30143" x2="117.68" x1="50.00" y1="100.00" y2="67.68" /><line style="stroke:blue;fill:blue;" id="30144" x2="80.00" x1="50.00" y1="100.00" y2="300.00" /><line style="stroke:blue;fill:blue;" id="30145" x2="50.00" x1="80.00" y1="300.00" y2="100.00" /><line style="stroke:blue;fill:blue;" id="30146" x2="100.00" x1="80.00" y1="300.00" y2="350.00" /><line style="stroke:blue;fill:blue;" id="30147" x2="150.00" x1="80.00" y1="300.00" y2="280.00" /><line style="stroke:blue;fill:blue;" id="30148" x2="80.00" x1="100.00" y1="350.00" y2="300.00" /><line style="stroke:blue;fill:blue;" id="30149" x2="50.00" x1="100.00" y1="350.00" y2="380.00" /><line style="stroke:blue;fill:blue;" id="30150" x2="150.00" x1="100.00" y1="350.00" y2="380.00" /><line style="stroke:blue;fill:blue;" id="30151" x2="100.00" x1="100.00" y1="420.00" y2="480.00" /><line style="stroke:blue;fill:blue;" id="30152" x2="50.00" x1="100.00" y1="420.00" y2="380.00" /><line style="stroke:blue;fill:blue;" id="30153" x2="150.00" x1="100.00" y1="420.00" y2="380.00" /><line style="stroke:blue;fill:blue;" id="30154" x2="200.00" x1="117.68" y1="67.68" y2="50.00" /><line style="stroke:blue;fill:blue;" id="30155" x2="50.00" x1="117.68" y1="67.68" y2="100.00" /><line style="stroke:blue;fill:blue;" id="30156" x2="152.32" x1="117.68" y1="67.68" y2="102.32" /><line style="stroke:blue;fill:blue;" id="30157" x2="80.00" x1="150.00" y1="280.00" y2="300.00" /><line style="stroke:blue;fill:blue;" id="30158" x2="220.00" x1="150.00" y1="280.00" y2="290.00" /><line style="stroke:blue;fill:blue;" id="30159" x2="100.00" x1="150.00" y1="380.00" y2="350.00" /><line style="stroke:blue;fill:blue;" id="30160" x2="50.00" x1="150.00" y1="380.00" y2="380.00" /><line style="stroke:blue;fill:blue;" id="30161" x2="100.00" x1="150.00" y1="380.00" y2="420.00" /><line style="stroke:blue;fill:blue;" id="30162" x2="117.68" x1="152.32" y1="102.32" y2="67.68" /><line style="stroke:blue;fill:blue;" id="30163" x2="220.00" x1="152.32" y1="102.32" y2="120.00" /><line style="stroke:blue;fill:blue;" id="30164" x2="202.32" x1="167.68" y1="167.68" y2="202.32" /><line style="stroke:blue;fill:blue;" id="30165" x2="130.00" x1="210.00" y1="550.00" y2="570.00" /><line style="stroke:blue;fill:blue;" id="30166" x2="300.00" x1="210.00" y1="550.00" y2="550.00" /><line style="stroke:blue;fill:blue;" id="30167" x2="250.00" x1="200.00" y1="50.00" y2="40.00" /><line style="stroke:blue;fill:blue;" id="30168" x2="117.68" x1="200.00" y1="50.00" y2="67.68" /><line style="stroke:blue;fill:blue;" id="30169" x2="250.00" x1="202.32" y1="202.32" y2="250.00" /><line style="stroke:blue;fill:blue;" id="30170" x2="167.68" x1="202.32" y1="202.32" y2="167.68" /><line style="stroke:blue;fill:blue;" id="30171" x2="250.00" x1="202.32" y1="202.32" y2="180.00" /><line style="stroke:blue;fill:blue;" id="30172" x2="300.00" x1="200.00" y1="650.00" y2="600.00" /><line style="stroke:blue;fill:blue;" id="30173" x2="250.00" x1="200.00" y1="650.00" y2="680.00" /><line style="stroke:blue;fill:blue;" id="30174" x2="152.32" x1="220.00" y1="120.00" y2="102.32" /><line style="stroke:blue;fill:blue;" id="30175" x2="300.00" x1="220.00" y1="120.00" y2="130.00" /><line style="stroke:blue;fill:blue;" id="30176" x2="202.32" x1="250.00" y1="180.00" y2="202.32" /><line style="stroke:blue;fill:blue;" id="30177" x2="220.00" x1="250.00" y1="250.00" y2="290.00" /><line style="stroke:blue;fill:blue;" id="30178" x2="202.32" x1="250.00" y1="250.00" y2="202.32" /><line style="stroke:blue;fill:blue;" id="30179" x2="299.04" x1="250.00" y1="250.00" y2="221.91" /><line style="stroke:blue;fill:blue;" id="30180" x2="150.00" x1="220.00" y1="290.00" y2="280.00" /><line style="stroke:blue;fill:blue;" id="30181" x2="250.00" x1="220.00" y1="290.00" y2="250.00" /><line style="stroke:blue;fill:blue;" id="30182" x2="280.00" x1="250.00" y1="40.00" y2="80.00" /><line style="stroke:blue;fill:blue;" id="30183" x2="300.00" x1="250.00" y1="40.00" y2="20.00" /><line style="stroke:blue;fill:blue;" id="30184" x2="200.00" x1="250.00" y1="40.00" y2="50.00" /><line style="stroke:blue;fill:blue;" id="30185" x2="300.00" x1="250.00" y1="680.00" y2="600.00" /><line style="stroke:blue;fill:blue;" id="30186" x2="200.00" x1="250.00" y1="680.00" y2="650.00" /><line style="stroke:blue;fill:blue;" id="30187" x2="350.00" x1="250.00" y1="680.00" y2="650.00" /><line style="stroke:blue;fill:blue;" id="30188" x2="250.00" x1="280.00" y1="80.00" y2="40.00" /><line style="stroke:blue;fill:blue;" id="30189" x2="220.00" x1="300.00" y1="130.00" y2="120.00" /><line style="stroke:blue;fill:blue;" id="30190" x2="367.68" x1="300.00" y1="130.00" y2="117.68" /><line style="stroke:blue;fill:blue;" id="30191" x2="360.00" x1="300.00" y1="550.00" y2="460.00" /><line style="stroke:blue;fill:blue;" id="30192" x2="300.00" x1="300.00" y1="550.00" y2="600.00" /><line style="stroke:blue;fill:blue;" id="30193" x2="210.00" x1="300.00" y1="550.00" y2="550.00" /><line style="stroke:blue;fill:blue;" id="30194" x2="300.00" x1="300.00" y1="600.00" y2="550.00" /><line style="stroke:blue;fill:blue;" id="30195" x2="200.00" x1="300.00" y1="600.00" y2="650.00" /><line style="stroke:blue;fill:blue;" id="30196" x2="250.00" x1="300.00" y1="600.00" y2="680.00" /><line style="stroke:blue;fill:blue;" id="30197" x2="350.00" x1="300.00" y1="600.00" y2="650.00" /><line style="stroke:blue;fill:blue;" id="30198" x2="250.00" x1="299.04" y1="221.91" y2="250.00" /><line style="stroke:blue;fill:blue;" id="30199" x2="320.96" x1="299.04" y1="221.91" y2="178.09" /><line style="stroke:blue;fill:blue;" id="30200" x2="380.00" x1="300.00" y1="20.00" y2="20.00" /><line style="stroke:blue;fill:blue;" id="30201" x2="250.00" x1="300.00" y1="20.00" y2="40.00" /><line style="stroke:blue;fill:blue;" id="30202" x2="299.04" x1="320.96" y1="178.09" y2="221.91" /><line style="stroke:blue;fill:blue;" id="30203" x2="379.04" x1="320.00" y1="320.00" y2="278.09" /><line style="stroke:blue;fill:blue;" id="30204" x2="330.00" x1="320.00" y1="320.00" y2="370.00" /><line style="stroke:blue;fill:blue;" id="30205" x2="320.00" x1="330.00" y1="370.00" y2="320.00" /><line style="stroke:blue;fill:blue;" id="30206" x2="320.00" x1="330.00" y1="370.00" y2="420.00" /><line style="stroke:blue;fill:blue;" id="30207" x2="330.00" x1="320.00" y1="420.00" y2="370.00" /><line style="stroke:blue;fill:blue;" id="30208" x2="360.00" x1="320.00" y1="420.00" y2="460.00" /><line style="stroke:blue;fill:blue;" id="30209" x2="300.00" x1="350.00" y1="650.00" y2="600.00" /><line style="stroke:blue;fill:blue;" id="30210" x2="250.00" x1="350.00" y1="650.00" y2="680.00" /><line style="stroke:blue;fill:blue;" id="30211" x2="420.00" x1="350.00" y1="650.00" y2="650.00" /><line style="stroke:blue;fill:blue;" id="30212" x2="320.00" x1="360.00" y1="460.00" y2="420.00" /><line style="stroke:blue;fill:blue;" id="30213" x2="400.00" x1="360.00" y1="460.00" y2="420.00" /><line style="stroke:blue;fill:blue;" id="30214" x2="300.00" x1="360.00" y1="460.00" y2="550.00" /><line style="stroke:blue;fill:blue;" id="30215" x2="300.00" x1="367.68" y1="117.68" y2="130.00" /><line style="stroke:blue;fill:blue;" id="30216" x2="400.00" x1="367.68" y1="117.68" y2="80.00" /><line style="stroke:blue;fill:blue;" id="30217" x2="402.32" x1="367.68" y1="117.68" y2="152.32" /><line style="stroke:blue;fill:blue;" id="30218" x2="402.32" x1="379.04" y1="278.09" y2="152.32" /><line style="stroke:blue;fill:blue;" id="30219" x2="320.00" x1="379.04" y1="278.09" y2="320.00" /><line style="stroke:blue;fill:blue;" id="30220" x2="400.96" x1="379.04" y1="278.09" y2="321.91" /><line style="stroke:blue;fill:blue;" id="30221" x2="367.68" x1="400.00" y1="80.00" y2="117.68" /><line style="stroke:blue;fill:blue;" id="30222" x2="480.00" x1="400.00" y1="80.00" y2="75.50" /><line style="stroke:blue;fill:blue;" id="30223" x2="402.32" x1="400.00" y1="80.00" y2="152.32" /><line style="stroke:blue;fill:blue;" id="30224" x2="367.68" x1="402.32" y1="152.32" y2="117.68" /><line style="stroke:blue;fill:blue;" id="30225" x2="400.00" x1="402.32" y1="152.32" y2="80.00" /><line style="stroke:blue;fill:blue;" id="30226" x2="480.00" x1="402.32" y1="152.32" y2="180.00" /><line style="stroke:blue;fill:blue;" id="30227" x2="379.04" x1="402.32" y1="152.32" y2="278.09" /><line style="stroke:blue;fill:blue;" id="30228" x2="379.04" x1="400.96" y1="321.91" y2="278.09" /><line style="stroke:blue;fill:blue;" id="30229" x2="450.00" x1="400.96" y1="321.91" y2="380.00" /><line style="stroke:blue;fill:blue;" id="30230" x2="400.00" x1="400.96" y1="321.91" y2="420.00" /><line style="stroke:blue;fill:blue;" id="30231" x2="400.96" x1="400.00" y1="420.00" y2="321.91" /><line style="stroke:blue;fill:blue;" id="30232" x2="450.00" x1="400.00" y1="420.00" y2="380.00" /><line style="stroke:blue;fill:blue;" id="30233" x2="360.00" x1="400.00" y1="420.00" y2="460.00" /><line style="stroke:blue;fill:blue;" id="30234" x2="350.00" x1="420.00" y1="650.00" y2="650.00" /><line style="stroke:blue;fill:blue;" id="30235" x2="499.04" x1="420.00" y1="650.00" y2="621.91" /><line style="stroke:blue;fill:blue;" id="30236" x2="500.00" x1="450.00" y1="700.00" y2="680.00" /><line style="stroke:blue;fill:blue;" id="30237" x2="400.96" x1="450.00" y1="380.00" y2="321.91" /><line style="stroke:blue;fill:blue;" id="30238" x2="400.00" x1="450.00" y1="380.00" y2="420.00" /><line style="stroke:blue;fill:blue;" id="30239" x2="520.00" x1="450.00" y1="550.00" y2="520.00" /><line style="stroke:blue;fill:blue;" id="30240" x2="480.00" x1="480.00" y1="75.50" y2="20.00" /><line style="stroke:blue;fill:blue;" id="30241" x2="400.00" x1="480.00" y1="75.50" y2="80.00" /><line style="stroke:blue;fill:blue;" id="30242" x2="480.00" x1="480.00" y1="75.50" y2="124.50" /><line style="stroke:blue;fill:blue;" id="30243" x2="480.00" x1="480.00" y1="124.50" y2="75.50" /><line style="stroke:blue;fill:blue;" id="30244" x2="480.00" x1="480.00" y1="124.50" y2="180.00" /><line style="stroke:blue;fill:blue;" id="30245" x2="480.00" x1="480.00" y1="180.00" y2="124.50" /><line style="stroke:blue;fill:blue;" id="30246" x2="402.32" x1="480.00" y1="180.00" y2="152.32" /><line style="stroke:blue;fill:blue;" id="30247" x2="499.04" x1="500.00" y1="680.00" y2="621.91" /><line style="stroke:blue;fill:blue;" id="30248" x2="450.00" x1="500.00" y1="680.00" y2="700.00" /><line style="stroke:blue;fill:blue;" id="30249" x2="420.00" x1="499.04" y1="621.91" y2="650.00" /><line style="stroke:blue;fill:blue;" id="30250" x2="500.00" x1="499.04" y1="621.91" y2="680.00" /><line style="stroke:blue;fill:blue;" id="30251" x2="520.96" x1="499.04" y1="621.91" y2="578.09" /><line style="stroke:blue;fill:blue;" id="30252" x2="499.04" x1="520.96" y1="578.09" y2="621.91" /><line style="stroke:blue;fill:blue;" id="30253" x2="520.00" x1="520.96" y1="578.09" y2="520.00" /><line style="stroke:blue;fill:blue;" id="30254" x2="520.96" x1="520.00" y1="520.00" y2="578.09" /><line style="stroke:blue;fill:blue;" id="30255" x2="450.00" x1="520.00" y1="520.00" y2="550.00" /><line style="stroke:blue;fill:blue;" id="30256" x2="580.00" x1="520.00" y1="520.00" y2="450.00" /><line style="stroke:blue;fill:blue;" id="30257" x2="580.00" x1="550.00" y1="380.00" y2="450.00" /><line style="stroke:blue;fill:blue;" id="30258" x2="600.96" x1="579.04" y1="121.91" y2="78.09" /><line style="stroke:blue;fill:blue;" id="30259" x2="580.00" x1="579.04" y1="121.91" y2="175.50" /><line style="stroke:blue;fill:blue;" id="30260" x2="520.00" x1="580.00" y1="450.00" y2="520.00" /><line style="stroke:blue;fill:blue;" id="30261" x2="550.00" x1="580.00" y1="450.00" y2="380.00" /><line style="stroke:blue;fill:blue;" id="30262" x2="750.00" x1="580.00" y1="450.00" y2="450.00" /><line style="stroke:blue;fill:blue;" id="30263" x2="650.00" x1="580.00" y1="450.00" y2="480.00" /><line style="stroke:blue;fill:blue;" id="30264" x2="650.00" x1="580.00" y1="450.00" y2="400.00" /><line style="stroke:blue;fill:blue;" id="30265" x2="650.00" x1="580.00" y1="450.00" y2="350.00" /><line style="stroke:blue;fill:blue;" id="30266" x2="579.04" x1="580.00" y1="175.50" y2="121.91" /><line style="stroke:blue;fill:blue;" id="30267" x2="580.00" x1="580.00" y1="175.50" y2="224.50" /><line style="stroke:blue;fill:blue;" id="30268" x2="580.00" x1="580.00" y1="224.50" y2="175.50" /><line style="stroke:blue;fill:blue;" id="30269" x2="650.00" x1="580.00" y1="320.00" y2="350.00" /><line style="stroke:blue;fill:blue;" id="30270" x2="650.00" x1="600.96" y1="78.09" y2="50.00" /><line style="stroke:blue;fill:blue;" id="30271" x2="579.04" x1="600.96" y1="78.09" y2="121.91" /><line style="stroke:blue;fill:blue;" id="30272" x2="580.00" x1="650.00" y1="480.00" y2="450.00" /><line style="stroke:blue;fill:blue;" id="30273" x2="650.00" x1="650.00" y1="480.00" y2="550.00" /><line style="stroke:blue;fill:blue;" id="30274" x2="720.00" x1="650.00" y1="50.00" y2="50.00" /><line style="stroke:blue;fill:blue;" id="30275" x2="600.96" x1="650.00" y1="50.00" y2="78.09" /><line style="stroke:blue;fill:blue;" id="30276" x2="580.00" x1="650.00" y1="350.00" y2="450.00" /><line style="stroke:blue;fill:blue;" id="30277" x2="750.00" x1="650.00" y1="350.00" y2="450.00" /><line style="stroke:blue;fill:blue;" id="30278" x2="650.00" x1="650.00" y1="350.00" y2="400.00" /><line style="stroke:blue;fill:blue;" id="30279" x2="580.00" x1="650.00" y1="350.00" y2="320.00" /><line style="stroke:blue;fill:blue;" id="30280" x2="690.00" x1="650.00" y1="350.00" y2="260.00" /><line style="stroke:blue;fill:blue;" id="30281" x2="580.00" x1="650.00" y1="400.00" y2="450.00" /><line style="stroke:blue;fill:blue;" id="30282" x2="750.00" x1="650.00" y1="400.00" y2="450.00" /><line style="stroke:blue;fill:blue;" id="30283" x2="650.00" x1="650.00" y1="400.00" y2="350.00" /><line style="stroke:blue;fill:blue;" id="30284" x2="650.00" x1="650.00" y1="550.00" y2="480.00" /><line style="stroke:blue;fill:blue;" id="30285" x2="750.00" x1="650.00" y1="550.00" y2="550.00" /><line style="stroke:blue;fill:blue;" id="30286" x2="650.00" x1="650.00" y1="550.00" y2="620.00" /><line style="stroke:blue;fill:blue;" id="30287" x2="650.00" x1="650.00" y1="620.00" y2="550.00" /><line style="stroke:blue;fill:blue;" id="30288" x2="750.00" x1="650.00" y1="620.00" y2="620.00" /><line style="stroke:blue;fill:blue;" id="30289" x2="650.00" x1="650.00" y1="620.00" y2="675.50" /><line style="stroke:blue;fill:blue;" id="30290" x2="750.00" x1="650.00" y1="620.00" y2="680.00" /><line style="stroke:blue;fill:blue;" id="30291" x2="650.00" x1="650.00" y1="675.50" y2="620.00" /><line style="stroke:blue;fill:blue;" id="30292" x2="650.00" x1="650.00" y1="675.50" y2="724.50" /><line style="stroke:blue;fill:blue;" id="30293" x2="750.00" x1="650.00" y1="675.50" y2="680.00" /><line style="stroke:blue;fill:blue;" id="30294" x2="650.00" x1="650.00" y1="724.50" y2="675.50" /><line style="stroke:blue;fill:blue;" id="30295" x2="650.00" x1="690.00" y1="260.00" y2="350.00" /><line style="stroke:blue;fill:blue;" id="30296" x2="729.06" x1="690.00" y1="260.00" y2="223.77" /><line style="stroke:blue;fill:blue;" id="30297" x2="800.96" x1="720.00" y1="50.00" y2="98.09" /><line style="stroke:blue;fill:blue;" id="30298" x2="650.00" x1="720.00" y1="50.00" y2="50.00" /><line style="stroke:blue;fill:blue;" id="30299" x2="690.00" x1="729.06" y1="223.77" y2="260.00" /><line style="stroke:blue;fill:blue;" id="30300" x2="740.94" x1="729.06" y1="223.77" y2="176.23" /><line style="stroke:blue;fill:blue;" id="30301" x2="580.00" x1="750.00" y1="450.00" y2="450.00" /><line style="stroke:blue;fill:blue;" id="30302" x2="650.00" x1="750.00" y1="450.00" y2="400.00" /><line style="stroke:blue;fill:blue;" id="30303" x2="650.00" x1="750.00" y1="450.00" y2="350.00" /><line style="stroke:blue;fill:blue;" id="30304" x2="729.06" x1="740.94" y1="176.23" y2="223.77" /><line style="stroke:blue;fill:blue;" id="30305" x2="779.04" x1="740.94" y1="176.23" y2="141.91" /><line style="stroke:blue;fill:blue;" id="30306" x2="650.00" x1="750.00" y1="550.00" y2="550.00" /><line style="stroke:blue;fill:blue;" id="30307" x2="750.00" x1="750.00" y1="550.00" y2="620.00" /><line style="stroke:blue;fill:blue;" id="30308" x2="750.00" x1="750.00" y1="620.00" y2="550.00" /><line style="stroke:blue;fill:blue;" id="30309" x2="650.00" x1="750.00" y1="620.00" y2="620.00" /><line style="stroke:blue;fill:blue;" id="30310" x2="650.00" x1="750.00" y1="680.00" y2="620.00" /><line style="stroke:blue;fill:blue;" id="30311" x2="650.00" x1="750.00" y1="680.00" y2="675.50" /><line style="stroke:blue;fill:blue;" id="30312" x2="740.94" x1="779.04" y1="141.91" y2="176.23" /><line style="stroke:blue;fill:blue;" id="30313" x2="800.96" x1="779.04" y1="141.91" y2="98.09" /><line style="stroke:blue;fill:blue;" id="30314" x2="779.04" x1="800.96" y1="98.09" y2="141.91" /><line style="stroke:blue;fill:blue;" id="30315" x2="850.00" x1="800.96" y1="98.09" y2="50.00" /><line style="stroke:blue;fill:blue;" id="30316" x2="720.00" x1="800.96" y1="98.09" y2="50.00" /><line style="stroke:blue;fill:blue;" id="30317" x2="880.00" x1="800.96" y1="98.09" y2="180.00" /><line style="stroke:blue;fill:blue;" id="30318" x2="820.00" x1="800.00" y1="280.00" y2="220.00" /><line style="stroke:blue;fill:blue;" id="30319" x2="800.00" x1="800.00" y1="280.00" y2="350.00" /><line style="stroke:blue;fill:blue;" id="30320" x2="800.00" x1="800.00" y1="350.00" y2="280.00" /><line style="stroke:blue;fill:blue;" id="30321" x2="880.00" x1="820.00" y1="220.00" y2="180.00" /><line style="stroke:blue;fill:blue;" id="30322" x2="880.00" x1="820.00" y1="220.00" y2="280.00" /><line style="stroke:blue;fill:blue;" id="30323" x2="800.00" x1="820.00" y1="220.00" y2="280.00" /><line style="stroke:blue;fill:blue;" id="30324" x2="950.00" x1="850.00" y1="50.00" y2="20.00" /><line style="stroke:blue;fill:blue;" id="30325" x2="800.96" x1="850.00" y1="50.00" y2="98.09" /><line style="stroke:blue;fill:blue;" id="30326" x2="980.00" x1="880.00" y1="180.00" y2="120.00" /><line style="stroke:blue;fill:blue;" id="30327" x2="800.96" x1="880.00" y1="180.00" y2="98.09" /><line style="stroke:blue;fill:blue;" id="30328" x2="820.00" x1="880.00" y1="180.00" y2="220.00" /><line style="stroke:blue;fill:blue;" id="30329" x2="920.00" x1="880.00" y1="180.00" y2="220.00" /><line style="stroke:blue;fill:blue;" id="30330" x2="820.00" x1="880.00" y1="280.00" y2="220.00" /><line style="stroke:blue;fill:blue;" id="30331" x2="920.00" x1="880.00" y1="280.00" y2="220.00" /><line style="stroke:blue;fill:blue;" id="30332" x2="880.00" x1="920.00" y1="220.00" y2="180.00" /><line style="stroke:blue;fill:blue;" id="30333" x2="880.00" x1="920.00" y1="220.00" y2="280.00" /><line style="stroke:blue;fill:blue;" id="30334" x2="1000.00" x1="920.00" y1="220.00" y2="180.00" /><line style="stroke:blue;fill:blue;" id="30335" x2="50.00" x1="20.00" y1="50.00" y2="100.00" /><line style="stroke:blue;fill:blue;" id="30336" x2="210.00" x1="130.00" y1="570.00" y2="550.00" /><line style="stroke:blue;fill:blue;" id="30337" x2="100.00" x1="100.00" y1="480.00" y2="420.00" /><line style="stroke:blue;fill:blue;" id="30338" x2="300.00" x1="380.00" y1="20.00" y2="20.00" /><line style="stroke:blue;fill:blue;" id="30339" x2="480.00" x1="480.00" y1="20.00" y2="75.50" /><line style="stroke:blue;fill:blue;" id="30340" x2="850.00" x1="950.00" y1="20.00" y2="50.00" /><line style="stroke:blue;fill:blue;" id="30341" x2="880.00" x1="980.00" y1="120.00" y2="180.00" /><line style="stroke:blue;fill:blue;" id="30342" x2="920.00" x1="1000.00" y1="180.00" y2="220.00" /></svg>
