<?xml version="1.0" standalone="yes"?><!DOCTYPE svg PUBLIC "-//W3C//DTD SVG 1.1//EN" "http://www.w3.org/Graphics/SVG/1.1/DTD/svg11.dtd"[]><svg width="1050.00" height="800.00" id="9057" xmlns="http://www.w3.org/2000/svg" xmlns:xlink="http://www.w3.org/1999/xlink"><rect Type="system" x="40.00" id="9058" height="5.00" width="5.00" Name="IL-H0A" ID="30002372" Region="琉蓝之穹" y="480.00" /><text y="480.00" x="40.00" id="9059">IL-H0A</text><rect Type="system" x="10.00" id="9061" height="5.00" width="5.00" Name="L4X-1V" ID="30002376" Region="琉蓝之穹" y="250.00" /><text y="250.00" x="10.00" id="9062">L4X-1V</text><rect Type="system" x="50.00" id="9064" height="5.00" width="5.00" Name="CT8K-0" ID="30002373" Region="琉蓝之穹" y="350.00" /><text y="350.00" x="50.00" id="9065">CT8K-0</text><rect Type="system" x="79.04" id="9067" height="5.00" width="5.00" Name="M9-LAN" ID="30002374" Region="琉蓝之穹" y="421.91" /><text y="421.91" x="79.04" id="9068">M9-LAN</text><rect Type="system" x="80.00" id="9070" height="5.00" width="5.00" Name="C-4D0W" ID="30002375" Region="琉蓝之穹" y="300.00" /><text y="300.00" x="80.00" id="9071">C-4D0W</text><rect Type="system" x="100.00" id="9073" height="5.00" width="5.00" Name="WPV-JN" ID="30002371" Region="琉蓝之穹" y="250.00" /><text y="250.00" x="100.00" id="9074">WPV-JN</text><rect Type="system" x="150.00" id="9076" height="5.00" width="5.00" Name="TZ-74M" ID="30002353" Region="琉蓝之穹" y="100.00" /><text y="100.00" x="150.00" id="9077">TZ-74M</text><rect Type="system" x="160.00" id="9079" height="5.00" width="5.00" Name="ZS-PNI" ID="30002352" Region="琉蓝之穹" y="180.00" /><text y="180.00" x="160.00" id="9080">ZS-PNI</text><rect Type="system" x="160.00" id="9082" height="5.00" width="5.00" Name="8KE-YS" ID="30002354" Region="琉蓝之穹" y="250.00" /><text y="250.00" x="160.00" id="9083">8KE-YS</text><rect Type="system" x="160.00" id="9085" height="5.00" width="5.00" Name="LXQ2-T" ID="30002355" Region="琉蓝之穹" y="300.00" /><text y="300.00" x="160.00" id="9086">LXQ2-T</text><rect Type="system" x="160.00" id="9088" height="5.00" width="5.00" Name="PX-IHN" ID="30002370" Region="琉蓝之穹" y="400.00" /><text y="400.00" x="160.00" id="9089">PX-IHN</text><rect Type="system" x="160.00" id="9091" height="5.00" width="5.00" Name="QBZO-R" ID="30002363" Region="琉蓝之穹" y="520.00" /><text y="520.00" x="160.00" id="9092">QBZO-R</text><rect Type="system" x="160.00" id="9094" height="5.00" width="5.00" Name="CL-IRS" ID="30002362" Region="琉蓝之穹" y="580.00" /><text y="580.00" x="160.00" id="9095">CL-IRS</text><rect Type="system" x="220.00" id="9097" height="5.00" width="5.00" Name="O-LJOO" ID="30002351" Region="琉蓝之穹" y="120.00" /><text y="120.00" x="220.00" id="9098">O-LJOO</text><rect Type="system" x="220.00" id="9100" height="5.00" width="5.00" Name="G-QTSD" ID="30002301" Region="琉蓝之穹" y="700.00" /><text y="700.00" x="220.00" id="9101">G-QTSD</text><rect Type="system" x="220.00" id="9103" height="5.00" width="5.00" Name="3IK-7O" ID="30002357" Region="琉蓝之穹" y="480.00" /><text y="480.00" x="220.00" id="9104">3IK-7O</text><rect Type="system" x="220.00" id="9106" height="5.00" width="5.00" Name="ZZ5X-M" ID="30002360" Region="琉蓝之穹" y="600.00" /><text y="600.00" x="220.00" id="9107">ZZ5X-M</text><rect Type="system" x="250.00" id="9109" height="5.00" width="5.00" Name="UAV-1E" ID="30002361" Region="琉蓝之穹" y="420.00" /><text y="420.00" x="250.00" id="9110">UAV-1E</text><rect Type="system" x="280.00" id="9112" height="5.00" width="5.00" Name="43-1TL" ID="30002350" Region="琉蓝之穹" y="120.00" /><text y="120.00" x="280.00" id="9113">43-1TL</text><rect Type="system" x="300.00" id="9115" height="5.00" width="5.00" Name="O-EUHA" ID="30002358" Region="琉蓝之穹" y="520.00" /><text y="520.00" x="300.00" id="9116">O-EUHA</text><rect Type="system" x="300.00" id="9118" height="5.00" width="5.00" Name="MO-I1W" ID="30002359" Region="琉蓝之穹" y="580.00" /><text y="580.00" x="300.00" id="9119">MO-I1W</text><rect Type="system" x="300.00" id="9121" height="5.00" width="5.00" Name="SAH-AD" ID="30002298" Region="琉蓝之穹" y="700.00" /><text y="700.00" x="300.00" id="9122">SAH-AD</text><rect Type="system" x="320.00" id="9124" height="5.00" width="5.00" Name="89JS-J" ID="30002314" Region="琉蓝之穹" y="180.00" /><text y="180.00" x="320.00" id="9125">89JS-J</text><rect Type="system" x="320.00" id="9127" height="5.00" width="5.00" Name="5U-3PW" ID="30002313" Region="琉蓝之穹" y="250.00" /><text y="250.00" x="320.00" id="9128">5U-3PW</text><rect Type="system" x="320.00" id="9130" height="5.00" width="5.00" Name="C9R-NO" ID="30002315" Region="琉蓝之穹" y="320.00" /><text y="320.00" x="320.00" id="9131">C9R-NO</text><rect Type="system" x="320.00" id="9133" height="5.00" width="5.00" Name="FKR-SR" ID="30002316" Region="琉蓝之穹" y="380.00" /><text y="380.00" x="320.00" id="9134">FKR-SR</text><rect Type="system" x="320.00" id="9136" height="5.00" width="5.00" Name="HV-EAP" ID="30002356" Region="琉蓝之穹" y="450.00" /><text y="450.00" x="320.00" id="9137">HV-EAP</text><rect Type="system" x="360.00" id="9139" height="5.00" width="5.00" Name="4LJ6-Q" ID="30002297" Region="琉蓝之穹" y="630.00" /><text y="630.00" x="360.00" id="9140">4LJ6-Q</text><rect Type="system" x="380.00" id="9142" height="5.00" width="5.00" Name="CYB-BZ" ID="30002312" Region="琉蓝之穹" y="200.00" /><text y="200.00" x="380.00" id="9143">CYB-BZ</text><rect Type="system" x="380.00" id="9145" height="5.00" width="5.00" Name="MF-PGF" ID="30002299" Region="琉蓝之穹" y="550.00" /><text y="550.00" x="380.00" id="9146">MF-PGF</text><rect Type="system" x="400.00" id="9148" height="5.00" width="5.00" Name="KMH-J1" ID="30002311" Region="琉蓝之穹" y="300.00" /><text y="300.00" x="400.00" id="9149">KMH-J1</text><rect Type="system" x="400.00" id="9151" height="5.00" width="5.00" Name="KGT3-6" ID="30002296" Region="琉蓝之穹" y="450.00" /><text y="450.00" x="400.00" id="9152">KGT3-6</text><rect Type="system" x="400.00" id="9154" height="5.00" width="5.00" Name="QNXJ-M" ID="30002288" Region="琉蓝之穹" y="400.00" /><text y="400.00" x="400.00" id="9155">QNXJ-M</text><rect Type="system" x="450.00" id="9157" height="5.00" width="5.00" Name="FB-MPY" ID="30002321" Region="琉蓝之穹" y="300.00" /><text y="300.00" x="450.00" id="9158">FB-MPY</text><rect Type="system" x="450.00" id="9160" height="5.00" width="5.00" Name="L-ZJLN" ID="30002300" Region="琉蓝之穹" y="480.00" /><text y="480.00" x="450.00" id="9161">L-ZJLN</text><rect Type="system" x="480.00" id="9163" height="5.00" width="5.00" Name="9F-3CR" ID="30002284" Region="琉蓝之穹" y="400.00" /><text y="400.00" x="480.00" id="9164">9F-3CR</text><rect Type="system" x="480.00" id="9166" height="5.00" width="5.00" Name="GTY-FW" ID="30002328" Region="琉蓝之穹" y="550.00" /><text y="550.00" x="480.00" id="9167">GTY-FW</text><rect Type="system" x="480.00" id="9169" height="5.00" width="5.00" Name="TP-RTO" ID="30002327" Region="琉蓝之穹" y="600.00" /><text y="600.00" x="480.00" id="9170">TP-RTO</text><rect Type="system" x="480.00" id="9172" height="5.00" width="5.00" Name="1H5-3W" ID="30002329" Region="琉蓝之穹" y="650.00" /><text y="650.00" x="480.00" id="9173">1H5-3W</text><rect Type="system" x="480.00" id="9175" height="5.00" width="5.00" Name="IRD-HU" ID="30002333" Region="琉蓝之穹" y="100.00" /><text y="100.00" x="480.00" id="9176">IRD-HU</text><rect Type="system" x="500.00" id="9178" height="5.00" width="5.00" Name="JAWX-R" ID="30002336" Region="琉蓝之穹" y="50.00" /><text y="50.00" x="500.00" id="9179">JAWX-R</text><rect Type="system" x="500.00" id="9181" height="5.00" width="5.00" Name="BNX-AS" ID="30002318" Region="琉蓝之穹" y="350.00" /><text y="350.00" x="500.00" id="9182">BNX-AS</text><rect Type="system" x="500.00" id="9184" height="5.00" width="5.00" Name="EX-GBT" ID="30002369" Region="琉蓝之穹" y="700.00" /><text y="700.00" x="500.00" id="9185">EX-GBT</text><rect Type="system" x="500.00" id="9187" height="5.00" width="5.00" Name="F9-FUV" ID="30002320" Region="琉蓝之穹" y="300.00" /><text y="300.00" x="500.00" id="9188">F9-FUV</text><rect Type="system" x="517.68" id="9190" height="5.00" width="5.00" Name="XB-9U2" ID="30002319" Region="琉蓝之穹" y="217.68" /><text y="217.68" x="517.68" id="9191">XB-9U2</text><rect Type="system" x="550.00" id="9193" height="5.00" width="5.00" Name="1GH-48" ID="30002332" Region="琉蓝之穹" y="124.50" /><text y="124.50" x="550.00" id="9194">1GH-48</text><rect Type="system" x="550.00" id="9196" height="5.00" width="5.00" Name="2G-VDP" ID="30002283" Region="琉蓝之穹" y="420.00" /><text y="420.00" x="550.00" id="9197">2G-VDP</text><rect Type="system" x="550.00" id="9199" height="5.00" width="5.00" Name="R-6KYM" ID="30002324" Region="琉蓝之穹" y="500.00" /><text y="500.00" x="550.00" id="9200">R-6KYM</text><rect Type="system" x="550.00" id="9202" height="5.00" width="5.00" Name="QZV-X3" ID="30002330" Region="琉蓝之穹" y="550.00" /><text y="550.00" x="550.00" id="9203">QZV-X3</text><rect Type="system" x="550.00" id="9205" height="5.00" width="5.00" Name="RV-GA8" ID="30002326" Region="琉蓝之穹" y="600.00" /><text y="600.00" x="550.00" id="9206">RV-GA8</text><rect Type="system" x="550.00" id="9208" height="5.00" width="5.00" Name="B-2VXB" ID="30002334" Region="琉蓝之穹" y="75.50" /><text y="75.50" x="550.00" id="9209">B-2VXB</text><rect Type="system" x="552.32" id="9211" height="5.00" width="5.00" Name="RO-0PZ" ID="30002322" Region="琉蓝之穹" y="252.32" /><text y="252.32" x="552.32" id="9212">RO-0PZ</text><rect Type="system" x="580.00" id="9214" height="5.00" width="5.00" Name="1ACJ-6" ID="30002317" Region="琉蓝之穹" y="300.00" /><text y="300.00" x="580.00" id="9215">1ACJ-6</text><rect Type="system" x="567.68" id="9217" height="5.00" width="5.00" Name="IS-OBW" ID="30002331" Region="琉蓝之穹" y="182.32" /><text y="182.32" x="567.68" id="9218">IS-OBW</text><rect Type="system" x="600.00" id="9220" height="5.00" width="5.00" Name="C-V6DQ" ID="30002367" Region="琉蓝之穹" y="700.00" /><text y="700.00" x="600.00" id="9221">C-V6DQ</text><rect Type="system" x="600.00" id="9223" height="5.00" width="5.00" Name="Z-FET0" ID="30002368" Region="琉蓝之穹" y="650.00" /><text y="650.00" x="600.00" id="9224">Z-FET0</text><rect Type="system" x="600.00" id="9226" height="5.00" width="5.00" Name="1PF-BC" ID="30002365" Region="琉蓝之穹" y="750.00" /><text y="750.00" x="600.00" id="9227">1PF-BC</text><rect Type="system" x="602.32" id="9229" height="5.00" width="5.00" Name="FIZU-X" ID="30002335" Region="琉蓝之穹" y="147.68" /><text y="147.68" x="602.32" id="9230">FIZU-X</text><rect Type="system" x="600.00" id="9232" height="5.00" width="5.00" Name="JTA2-2" ID="30002323" Region="琉蓝之穹" y="550.00" /><text y="550.00" x="600.00" id="9233">JTA2-2</text><rect Type="system" x="600.00" id="9235" height="5.00" width="5.00" Name="3H58-R" ID="30002325" Region="琉蓝之穹" y="600.00" /><text y="600.00" x="600.00" id="9236">3H58-R</text><rect Type="system" x="600.00" id="9238" height="5.00" width="5.00" Name="KRPF-A" ID="30002286" Region="琉蓝之穹" y="450.00" /><text y="450.00" x="600.00" id="9239">KRPF-A</text><rect Type="system" x="650.00" id="9241" height="5.00" width="5.00" Name="4-QDIX" ID="30002344" Region="琉蓝之穹" y="80.00" /><text y="80.00" x="650.00" id="9242">4-QDIX</text><rect Type="system" x="650.00" id="9244" height="5.00" width="5.00" Name="0M-24X" ID="30002308" Region="琉蓝之穹" y="220.00" /><text y="220.00" x="650.00" id="9245">0M-24X</text><rect Type="system" x="650.00" id="9247" height="5.00" width="5.00" Name="J7M-3W" ID="30002285" Region="琉蓝之穹" y="400.00" /><text y="400.00" x="650.00" id="9248">J7M-3W</text><rect Type="system" x="650.00" id="9250" height="5.00" width="5.00" Name="NK-VTL" ID="30002303" Region="琉蓝之穹" y="350.00" /><text y="350.00" x="650.00" id="9251">NK-VTL</text><rect Type="system" x="670.00" id="9253" height="5.00" width="5.00" Name="QHJR-E" ID="30002364" Region="琉蓝之穹" y="700.00" /><text y="700.00" x="670.00" id="9254">QHJR-E</text><rect Type="system" x="680.00" id="9256" height="5.00" width="5.00" Name="D-CR6W" ID="30002304" Region="琉蓝之穹" y="300.00" /><text y="300.00" x="680.00" id="9257">D-CR6W</text><rect Type="system" x="680.00" id="9259" height="5.00" width="5.00" Name="9P-870" ID="30002287" Region="琉蓝之穹" y="450.00" /><text y="450.00" x="680.00" id="9260">9P-870</text><rect Type="system" x="700.00" id="9262" height="5.00" width="5.00" Name="D-OJEZ" ID="30002366" Region="琉蓝之穹" y="750.00" /><text y="750.00" x="700.00" id="9263">D-OJEZ</text><rect Type="system" x="730.00" id="9265" height="5.00" width="5.00" Name="2B-UUQ" ID="30002342" Region="琉蓝之穹" y="640.00" /><text y="640.00" x="730.00" id="9266">2B-UUQ</text><rect Type="system" x="700.00" id="9268" height="5.00" width="5.00" Name="FGJP-J" ID="30002345" Region="琉蓝之穹" y="80.00" /><text y="80.00" x="700.00" id="9269">FGJP-J</text><rect Type="system" x="720.00" id="9271" height="5.00" width="5.00" Name="GN-TNT" ID="30002306" Region="琉蓝之穹" y="250.00" /><text y="250.00" x="720.00" id="9272">GN-TNT</text><rect Type="system" x="720.00" id="9274" height="5.00" width="5.00" Name="3G-LFX" ID="30002302" Region="琉蓝之穹" y="350.00" /><text y="350.00" x="720.00" id="9275">3G-LFX</text><rect Type="system" x="740.00" id="9277" height="5.00" width="5.00" Name="WU9-ZR" ID="30002348" Region="琉蓝之穹" y="20.00" /><text y="20.00" x="740.00" id="9278">WU9-ZR</text><rect Type="system" x="750.00" id="9280" height="5.00" width="5.00" Name="DYPL-6" ID="30002378" Region="琉蓝之穹" y="450.00" /><text y="450.00" x="750.00" id="9281">DYPL-6</text><rect Type="system" x="790.00" id="9283" height="5.00" width="5.00" Name="NWX-LI" ID="30002340" Region="琉蓝之穹" y="600.00" /><text y="600.00" x="790.00" id="9284">NWX-LI</text><rect Type="system" x="750.00" id="9286" height="5.00" width="5.00" Name="I64-XB" ID="30002343" Region="琉蓝之穹" y="550.00" /><text y="550.00" x="750.00" id="9287">I64-XB</text><rect Type="system" x="780.00" id="9289" height="5.00" width="5.00" Name="M-V0PQ" ID="30002377" Region="琉蓝之穹" y="500.00" /><text y="500.00" x="780.00" id="9290">M-V0PQ</text><rect Type="system" x="780.00" id="9292" height="5.00" width="5.00" Name="89-JPE" ID="30002346" Region="琉蓝之穹" y="75.50" /><text y="75.50" x="780.00" id="9293">89-JPE</text><rect Type="system" x="780.00" id="9295" height="5.00" width="5.00" Name="QKCU-4" ID="30002307" Region="琉蓝之穹" y="250.00" /><text y="250.00" x="780.00" id="9296">QKCU-4</text><rect Type="system" x="780.00" id="9298" height="5.00" width="5.00" Name="BY-7PY" ID="30002305" Region="琉蓝之穹" y="350.00" /><text y="350.00" x="780.00" id="9299">BY-7PY</text><rect Type="system" x="780.00" id="9301" height="5.00" width="5.00" Name="RK-Q51" ID="30002380" Region="琉蓝之穹" y="400.00" /><text y="400.00" x="780.00" id="9302">RK-Q51</text><rect Type="system" x="780.00" id="9304" height="5.00" width="5.00" Name="N06Z-Q" ID="30002309" Region="琉蓝之穹" y="300.00" /><text y="300.00" x="780.00" id="9305">N06Z-Q</text><rect Type="system" x="820.00" id="9307" height="5.00" width="5.00" Name="D-IZT9" ID="30002347" Region="琉蓝之穹" y="20.00" /><text y="20.00" x="820.00" id="9308">D-IZT9</text><rect Type="system" x="820.00" id="9310" height="5.00" width="5.00" Name="V-OL61" ID="30002379" Region="琉蓝之穹" y="450.00" /><text y="450.00" x="820.00" id="9311">V-OL61</text><rect Type="system" x="880.00" id="9313" height="5.00" width="5.00" Name="N-SFZK" ID="30002341" Region="琉蓝之穹" y="610.00" /><text y="610.00" x="880.00" id="9314">N-SFZK</text><rect Type="system" x="850.00" id="9316" height="5.00" width="5.00" Name="E8-432" ID="30002349" Region="琉蓝之穹" y="80.00" /><text y="80.00" x="850.00" id="9317">E8-432</text><rect Type="system" x="850.00" id="9319" height="5.00" width="5.00" Name="F69O-M" ID="30002381" Region="琉蓝之穹" y="400.00" /><text y="400.00" x="850.00" id="9320">F69O-M</text><rect Type="system" x="880.00" id="9322" height="5.00" width="5.00" Name="YX-0KH" ID="30002310" Region="琉蓝之穹" y="350.00" /><text y="350.00" x="880.00" id="9323">YX-0KH</text><rect Type="system" x="900.00" id="9325" height="5.00" width="5.00" Name="9QS5-C" ID="30002339" Region="琉蓝之穹" y="550.00" /><text y="550.00" x="900.00" id="9326">9QS5-C</text><rect Type="system" x="950.00" id="9328" height="5.00" width="5.00" Name="D3S-EA" ID="30002295" Region="琉蓝之穹" y="100.00" /><text y="100.00" x="950.00" id="9329">D3S-EA</text><rect Type="system" x="950.00" id="9331" height="5.00" width="5.00" Name="T-IDGH" ID="30002382" Region="琉蓝之穹" y="400.00" /><text y="400.00" x="950.00" id="9332">T-IDGH</text><rect Type="system" x="950.00" id="9334" height="5.00" width="5.00" Name="ALC-JM" ID="30002338" Region="琉蓝之穹" y="500.00" /><text y="500.00" x="950.00" id="9335">ALC-JM</text><rect Type="system" x="980.00" id="9337" height="5.00" width="5.00" Name="Z0G-XG" ID="30002337" Region="琉蓝之穹" y="450.00" /><text y="450.00" x="980.00" id="9338">Z0G-XG</text><rect Type="system" x="1000.00" id="9340" height="5.00" width="5.00" Name="AID-9T" ID="30002289" Region="琉蓝之穹" y="100.00" /><text y="100.00" x="1000.00" id="9341">AID-9T</text><rect Type="system" x="1000.00" id="9343" height="5.00" width="5.00" Name="PXE-RG" ID="30002290" Region="琉蓝之穹" y="150.00" /><text y="150.00" x="1000.00" id="9344">PXE-RG</text><rect Type="system" x="1000.00" id="9346" height="5.00" width="5.00" Name="8-MXHA" ID="30002293" Region="琉蓝之穹" y="200.00" /><text y="200.00" x="1000.00" id="9347">8-MXHA</text><rect Type="system" x="1000.00" id="9349" height="5.00" width="5.00" Name="Z-DRIY" ID="30002292" Region="琉蓝之穹" y="250.00" /><text y="250.00" x="1000.00" id="9350">Z-DRIY</text><rect Type="system" x="1000.00" id="9352" height="5.00" width="5.00" Name="5J-62N" ID="30002291" Region="琉蓝之穹" y="300.00" /><text y="300.00" x="1000.00" id="9353">5J-62N</text><rect Type="system" x="1000.00" id="9355" height="5.00" width="5.00" Name="LPVL-5" ID="30002294" Region="琉蓝之穹" y="350.00" /><text y="350.00" x="1000.00" id="9356">LPVL-5</text><rect Type="system" x="80.00" id="9358" height="5.00" width="5.00" Name="FZX-PU" ID="30002878" Region="卡勒瓦拉阔地" y="50.00" /><text y="50.00" x="80.00" id="9359">FZX-PU</text><rect Type="system" x="100.96" id="9361" height="5.00" width="5.00" Name="BRT-OP" ID="30000986" Region="大荒野" y="378.09" /><text y="378.09" x="100.96" id="9362">BRT-OP</text><rect Type="system" x="120.00" id="9364" height="5.00" width="5.00" Name="EFM-C4" ID="30000783" Region="因斯姆尔" y="700.00" /><text y="700.00" x="120.00" id="9365">EFM-C4</text><rect Type="system" x="220.00" id="9367" height="5.00" width="5.00" Name="帕拉" ID="30000198" Region="伏尔戈" y="300.00" /><text y="300.00" x="220.00" id="9368">帕拉</text><rect Type="system" x="450.00" id="9370" height="5.00" width="5.00" Name="C6C-K9" ID="30001533" Region="螺旋之域" y="20.00" /><text y="20.00" x="450.00" id="9371">C6C-K9</text><rect Type="system" x="450.00" id="9373" height="5.00" width="5.00" Name="A-YB15" ID="30002836" Region="卡勒瓦拉阔地" y="200.00" /><text y="200.00" x="450.00" id="9374">A-YB15</text><rect Type="system" x="580.00" id="9376" height="5.00" width="5.00" Name="SY-0AM" ID="30002835" Region="卡勒瓦拉阔地" y="350.00" /><text y="350.00" x="580.00" id="9377">SY-0AM</text><rect Type="system" x="800.00" id="9379" height="5.00" width="5.00" Name="RXA-W1" ID="30001563" Region="螺旋之域" y="750.00" /><text y="750.00" x="800.00" id="9380">RXA-W1</text><rect Type="system" x="780.00" id="9382" height="5.00" width="5.00" Name="6-WMKE" ID="30001111" Region="糟粕之域" y="124.50" /><text y="124.50" x="780.00" id="9383">6-WMKE</text><rect Type="system" x="847.68" id="9385" height="5.00" width="5.00" Name="63-7Q6" ID="30001092" Region="糟粕之域" y="247.68" /><text y="247.68" x="847.68" id="9386">63-7Q6</text><rect Type="system" x="882.32" id="9388" height="5.00" width="5.00" Name="Z0H2-4" ID="30001091" Region="糟粕之域" y="282.32" /><text y="282.32" x="882.32" id="9389">Z0H2-4</text><rect Type="system" x="920.00" id="9391" height="5.00" width="5.00" Name="BEG-RL" ID="30005129" Region="佩利根弗" y="200.00" /><text y="200.00" x="920.00" id="9392">BEG-RL</text><rect Type="system" x="1000.00" id="9394" height="5.00" width="5.00" Name="L-GY1B" ID="30002847" Region="卡勒瓦拉阔地" y="20.00" /><text y="20.00" x="1000.00" id="9395">L-GY1B</text><line style="stroke:blue;fill:blue;" id="9397" x2="160.00" x1="40.00" y1="480.00" y2="400.00" /><line style="stroke:blue;fill:blue;" id="9398" x2="50.00" x1="40.00" y1="480.00" y2="350.00" /><line style="stroke:blue;fill:blue;" id="9399" x2="79.04" x1="40.00" y1="480.00" y2="421.91" /><line style="stroke:blue;fill:blue;" id="9400" x2="10.00" x1="40.00" y1="480.00" y2="250.00" /><line style="stroke:blue;fill:blue;" id="9401" x2="100.00" x1="10.00" y1="250.00" y2="250.00" /><line style="stroke:blue;fill:blue;" id="9402" x2="40.00" x1="10.00" y1="250.00" y2="480.00" /><line style="stroke:blue;fill:blue;" id="9403" x2="40.00" x1="50.00" y1="350.00" y2="480.00" /><line style="stroke:blue;fill:blue;" id="9404" x2="79.04" x1="50.00" y1="350.00" y2="421.91" /><line style="stroke:blue;fill:blue;" id="9405" x2="80.00" x1="50.00" y1="350.00" y2="300.00" /><line style="stroke:blue;fill:blue;" id="9406" x2="160.00" x1="79.04" y1="421.91" y2="400.00" /><line style="stroke:blue;fill:blue;" id="9407" x2="40.00" x1="79.04" y1="421.91" y2="480.00" /><line style="stroke:blue;fill:blue;" id="9408" x2="50.00" x1="79.04" y1="421.91" y2="350.00" /><line style="stroke:blue;fill:blue;" id="9409" x2="100.96" x1="80.00" y1="300.00" y2="378.09" /><line style="stroke:blue;fill:blue;" id="9410" x2="100.00" x1="80.00" y1="300.00" y2="250.00" /><line style="stroke:blue;fill:blue;" id="9411" x2="50.00" x1="80.00" y1="300.00" y2="350.00" /><line style="stroke:blue;fill:blue;" id="9412" x2="160.00" x1="100.00" y1="250.00" y2="400.00" /><line style="stroke:blue;fill:blue;" id="9413" x2="80.00" x1="100.00" y1="250.00" y2="300.00" /><line style="stroke:blue;fill:blue;" id="9414" x2="10.00" x1="100.00" y1="250.00" y2="250.00" /><line style="stroke:blue;fill:blue;" id="9415" x2="220.00" x1="150.00" y1="100.00" y2="120.00" /><line style="stroke:blue;fill:blue;" id="9416" x2="80.00" x1="150.00" y1="100.00" y2="50.00" /><line style="stroke:blue;fill:blue;" id="9417" x2="220.00" x1="160.00" y1="180.00" y2="120.00" /><line style="stroke:blue;fill:blue;" id="9418" x2="160.00" x1="160.00" y1="180.00" y2="250.00" /><line style="stroke:blue;fill:blue;" id="9419" x2="160.00" x1="160.00" y1="250.00" y2="180.00" /><line style="stroke:blue;fill:blue;" id="9420" x2="160.00" x1="160.00" y1="250.00" y2="300.00" /><line style="stroke:blue;fill:blue;" id="9421" x2="220.00" x1="160.00" y1="300.00" y2="300.00" /><line style="stroke:blue;fill:blue;" id="9422" x2="160.00" x1="160.00" y1="300.00" y2="250.00" /><line style="stroke:blue;fill:blue;" id="9423" x2="160.00" x1="160.00" y1="300.00" y2="400.00" /><line style="stroke:blue;fill:blue;" id="9424" x2="160.00" x1="160.00" y1="400.00" y2="300.00" /><line style="stroke:blue;fill:blue;" id="9425" x2="160.00" x1="160.00" y1="400.00" y2="520.00" /><line style="stroke:blue;fill:blue;" id="9426" x2="100.00" x1="160.00" y1="400.00" y2="250.00" /><line style="stroke:blue;fill:blue;" id="9427" x2="40.00" x1="160.00" y1="400.00" y2="480.00" /><line style="stroke:blue;fill:blue;" id="9428" x2="79.04" x1="160.00" y1="400.00" y2="421.91" /><line style="stroke:blue;fill:blue;" id="9429" x2="300.00" x1="160.00" y1="520.00" y2="520.00" /><line style="stroke:blue;fill:blue;" id="9430" x2="160.00" x1="160.00" y1="520.00" y2="580.00" /><line style="stroke:blue;fill:blue;" id="9431" x2="160.00" x1="160.00" y1="520.00" y2="400.00" /><line style="stroke:blue;fill:blue;" id="9432" x2="220.00" x1="160.00" y1="580.00" y2="600.00" /><line style="stroke:blue;fill:blue;" id="9433" x2="160.00" x1="160.00" y1="580.00" y2="520.00" /><line style="stroke:blue;fill:blue;" id="9434" x2="280.00" x1="220.00" y1="120.00" y2="120.00" /><line style="stroke:blue;fill:blue;" id="9435" x2="160.00" x1="220.00" y1="120.00" y2="180.00" /><line style="stroke:blue;fill:blue;" id="9436" x2="150.00" x1="220.00" y1="120.00" y2="100.00" /><line style="stroke:blue;fill:blue;" id="9437" x2="120.00" x1="220.00" y1="700.00" y2="700.00" /><line style="stroke:blue;fill:blue;" id="9438" x2="300.00" x1="220.00" y1="700.00" y2="700.00" /><line style="stroke:blue;fill:blue;" id="9439" x2="220.00" x1="220.00" y1="700.00" y2="600.00" /><line style="stroke:blue;fill:blue;" id="9440" x2="320.00" x1="220.00" y1="480.00" y2="450.00" /><line style="stroke:blue;fill:blue;" id="9441" x2="300.00" x1="220.00" y1="480.00" y2="520.00" /><line style="stroke:blue;fill:blue;" id="9442" x2="250.00" x1="220.00" y1="480.00" y2="420.00" /><line style="stroke:blue;fill:blue;" id="9443" x2="220.00" x1="220.00" y1="600.00" y2="700.00" /><line style="stroke:blue;fill:blue;" id="9444" x2="300.00" x1="220.00" y1="600.00" y2="580.00" /><line style="stroke:blue;fill:blue;" id="9445" x2="160.00" x1="220.00" y1="600.00" y2="580.00" /><line style="stroke:blue;fill:blue;" id="9446" x2="320.00" x1="250.00" y1="420.00" y2="450.00" /><line style="stroke:blue;fill:blue;" id="9447" x2="220.00" x1="250.00" y1="420.00" y2="480.00" /><line style="stroke:blue;fill:blue;" id="9448" x2="320.00" x1="280.00" y1="120.00" y2="180.00" /><line style="stroke:blue;fill:blue;" id="9449" x2="220.00" x1="280.00" y1="120.00" y2="120.00" /><line style="stroke:blue;fill:blue;" id="9450" x2="320.00" x1="300.00" y1="520.00" y2="450.00" /><line style="stroke:blue;fill:blue;" id="9451" x2="220.00" x1="300.00" y1="520.00" y2="480.00" /><line style="stroke:blue;fill:blue;" id="9452" x2="300.00" x1="300.00" y1="520.00" y2="580.00" /><line style="stroke:blue;fill:blue;" id="9453" x2="160.00" x1="300.00" y1="520.00" y2="520.00" /><line style="stroke:blue;fill:blue;" id="9454" x2="300.00" x1="300.00" y1="580.00" y2="520.00" /><line style="stroke:blue;fill:blue;" id="9455" x2="220.00" x1="300.00" y1="580.00" y2="600.00" /><line style="stroke:blue;fill:blue;" id="9456" x2="360.00" x1="300.00" y1="700.00" y2="630.00" /><line style="stroke:blue;fill:blue;" id="9457" x2="220.00" x1="300.00" y1="700.00" y2="700.00" /><line style="stroke:blue;fill:blue;" id="9458" x2="500.00" x1="300.00" y1="700.00" y2="700.00" /><line style="stroke:blue;fill:blue;" id="9459" x2="380.00" x1="320.00" y1="180.00" y2="200.00" /><line style="stroke:blue;fill:blue;" id="9460" x2="320.00" x1="320.00" y1="180.00" y2="250.00" /><line style="stroke:blue;fill:blue;" id="9461" x2="280.00" x1="320.00" y1="180.00" y2="120.00" /><line style="stroke:blue;fill:blue;" id="9462" x2="380.00" x1="320.00" y1="250.00" y2="200.00" /><line style="stroke:blue;fill:blue;" id="9463" x2="320.00" x1="320.00" y1="250.00" y2="180.00" /><line style="stroke:blue;fill:blue;" id="9464" x2="320.00" x1="320.00" y1="250.00" y2="320.00" /><line style="stroke:blue;fill:blue;" id="9465" x2="320.00" x1="320.00" y1="320.00" y2="250.00" /><line style="stroke:blue;fill:blue;" id="9466" x2="320.00" x1="320.00" y1="320.00" y2="380.00" /><line style="stroke:blue;fill:blue;" id="9467" x2="320.00" x1="320.00" y1="380.00" y2="320.00" /><line style="stroke:blue;fill:blue;" id="9468" x2="320.00" x1="320.00" y1="380.00" y2="450.00" /><line style="stroke:blue;fill:blue;" id="9469" x2="320.00" x1="320.00" y1="450.00" y2="380.00" /><line style="stroke:blue;fill:blue;" id="9470" x2="220.00" x1="320.00" y1="450.00" y2="480.00" /><line style="stroke:blue;fill:blue;" id="9471" x2="300.00" x1="320.00" y1="450.00" y2="520.00" /><line style="stroke:blue;fill:blue;" id="9472" x2="250.00" x1="320.00" y1="450.00" y2="420.00" /><line style="stroke:blue;fill:blue;" id="9473" x2="300.00" x1="360.00" y1="630.00" y2="700.00" /><line style="stroke:blue;fill:blue;" id="9474" x2="380.00" x1="360.00" y1="630.00" y2="550.00" /><line style="stroke:blue;fill:blue;" id="9475" x2="400.00" x1="380.00" y1="200.00" y2="300.00" /><line style="stroke:blue;fill:blue;" id="9476" x2="320.00" x1="380.00" y1="200.00" y2="250.00" /><line style="stroke:blue;fill:blue;" id="9477" x2="320.00" x1="380.00" y1="200.00" y2="180.00" /><line style="stroke:blue;fill:blue;" id="9478" x2="400.00" x1="380.00" y1="550.00" y2="450.00" /><line style="stroke:blue;fill:blue;" id="9479" x2="360.00" x1="380.00" y1="550.00" y2="630.00" /><line style="stroke:blue;fill:blue;" id="9480" x2="400.00" x1="400.00" y1="300.00" y2="400.00" /><line style="stroke:blue;fill:blue;" id="9481" x2="380.00" x1="400.00" y1="300.00" y2="200.00" /><line style="stroke:blue;fill:blue;" id="9482" x2="400.00" x1="400.00" y1="450.00" y2="400.00" /><line style="stroke:blue;fill:blue;" id="9483" x2="380.00" x1="400.00" y1="450.00" y2="550.00" /><line style="stroke:blue;fill:blue;" id="9484" x2="450.00" x1="400.00" y1="450.00" y2="480.00" /><line style="stroke:blue;fill:blue;" id="9485" x2="480.00" x1="400.00" y1="400.00" y2="400.00" /><line style="stroke:blue;fill:blue;" id="9486" x2="400.00" x1="400.00" y1="400.00" y2="450.00" /><line style="stroke:blue;fill:blue;" id="9487" x2="400.00" x1="400.00" y1="400.00" y2="300.00" /><line style="stroke:blue;fill:blue;" id="9488" x2="500.00" x1="450.00" y1="300.00" y2="350.00" /><line style="stroke:blue;fill:blue;" id="9489" x2="450.00" x1="450.00" y1="300.00" y2="200.00" /><line style="stroke:blue;fill:blue;" id="9490" x2="400.00" x1="450.00" y1="480.00" y2="450.00" /><line style="stroke:blue;fill:blue;" id="9491" x2="550.00" x1="480.00" y1="400.00" y2="420.00" /><line style="stroke:blue;fill:blue;" id="9492" x2="400.00" x1="480.00" y1="400.00" y2="400.00" /><line style="stroke:blue;fill:blue;" id="9493" x2="500.00" x1="480.00" y1="400.00" y2="350.00" /><line style="stroke:blue;fill:blue;" id="9494" x2="550.00" x1="480.00" y1="550.00" y2="500.00" /><line style="stroke:blue;fill:blue;" id="9495" x2="480.00" x1="480.00" y1="550.00" y2="600.00" /><line style="stroke:blue;fill:blue;" id="9496" x2="550.00" x1="480.00" y1="600.00" y2="600.00" /><line style="stroke:blue;fill:blue;" id="9497" x2="480.00" x1="480.00" y1="600.00" y2="550.00" /><line style="stroke:blue;fill:blue;" id="9498" x2="480.00" x1="480.00" y1="600.00" y2="650.00" /><line style="stroke:blue;fill:blue;" id="9499" x2="480.00" x1="480.00" y1="650.00" y2="600.00" /><line style="stroke:blue;fill:blue;" id="9500" x2="550.00" x1="480.00" y1="100.00" y2="124.50" /><line style="stroke:blue;fill:blue;" id="9501" x2="550.00" x1="480.00" y1="100.00" y2="75.50" /><line style="stroke:blue;fill:blue;" id="9502" x2="450.00" x1="500.00" y1="50.00" y2="20.00" /><line style="stroke:blue;fill:blue;" id="9503" x2="550.00" x1="500.00" y1="50.00" y2="75.50" /><line style="stroke:blue;fill:blue;" id="9504" x2="480.00" x1="500.00" y1="350.00" y2="400.00" /><line style="stroke:blue;fill:blue;" id="9505" x2="500.00" x1="500.00" y1="350.00" y2="300.00" /><line style="stroke:blue;fill:blue;" id="9506" x2="450.00" x1="500.00" y1="350.00" y2="300.00" /><line style="stroke:blue;fill:blue;" id="9507" x2="300.00" x1="500.00" y1="700.00" y2="700.00" /><line style="stroke:blue;fill:blue;" id="9508" x2="600.00" x1="500.00" y1="700.00" y2="750.00" /><line style="stroke:blue;fill:blue;" id="9509" x2="600.00" x1="500.00" y1="700.00" y2="700.00" /><line style="stroke:blue;fill:blue;" id="9510" x2="600.00" x1="500.00" y1="700.00" y2="650.00" /><line style="stroke:blue;fill:blue;" id="9511" x2="580.00" x1="500.00" y1="300.00" y2="300.00" /><line style="stroke:blue;fill:blue;" id="9512" x2="500.00" x1="500.00" y1="300.00" y2="350.00" /><line style="stroke:blue;fill:blue;" id="9513" x2="517.68" x1="500.00" y1="300.00" y2="217.68" /><line style="stroke:blue;fill:blue;" id="9514" x2="552.32" x1="500.00" y1="300.00" y2="252.32" /><line style="stroke:blue;fill:blue;" id="9515" x2="500.00" x1="517.68" y1="217.68" y2="300.00" /><line style="stroke:blue;fill:blue;" id="9516" x2="567.68" x1="550.00" y1="124.50" y2="182.32" /><line style="stroke:blue;fill:blue;" id="9517" x2="480.00" x1="550.00" y1="124.50" y2="100.00" /><line style="stroke:blue;fill:blue;" id="9518" x2="550.00" x1="550.00" y1="124.50" y2="75.50" /><line style="stroke:blue;fill:blue;" id="9519" x2="602.32" x1="550.00" y1="124.50" y2="147.68" /><line style="stroke:blue;fill:blue;" id="9520" x2="480.00" x1="550.00" y1="420.00" y2="400.00" /><line style="stroke:blue;fill:blue;" id="9521" x2="600.00" x1="550.00" y1="420.00" y2="450.00" /><line style="stroke:blue;fill:blue;" id="9522" x2="550.00" x1="550.00" y1="420.00" y2="500.00" /><line style="stroke:blue;fill:blue;" id="9523" x2="550.00" x1="550.00" y1="500.00" y2="420.00" /><line style="stroke:blue;fill:blue;" id="9524" x2="600.00" x1="550.00" y1="500.00" y2="550.00" /><line style="stroke:blue;fill:blue;" id="9525" x2="480.00" x1="550.00" y1="500.00" y2="550.00" /><line style="stroke:blue;fill:blue;" id="9526" x2="550.00" x1="550.00" y1="500.00" y2="550.00" /><line style="stroke:blue;fill:blue;" id="9527" x2="550.00" x1="550.00" y1="550.00" y2="500.00" /><line style="stroke:blue;fill:blue;" id="9528" x2="550.00" x1="550.00" y1="550.00" y2="600.00" /><line style="stroke:blue;fill:blue;" id="9529" x2="600.00" x1="550.00" y1="600.00" y2="550.00" /><line style="stroke:blue;fill:blue;" id="9530" x2="480.00" x1="550.00" y1="600.00" y2="600.00" /><line style="stroke:blue;fill:blue;" id="9531" x2="550.00" x1="550.00" y1="600.00" y2="550.00" /><line style="stroke:blue;fill:blue;" id="9532" x2="550.00" x1="550.00" y1="75.50" y2="124.50" /><line style="stroke:blue;fill:blue;" id="9533" x2="480.00" x1="550.00" y1="75.50" y2="100.00" /><line style="stroke:blue;fill:blue;" id="9534" x2="500.00" x1="550.00" y1="75.50" y2="50.00" /><line style="stroke:blue;fill:blue;" id="9535" x2="650.00" x1="550.00" y1="75.50" y2="80.00" /><line style="stroke:blue;fill:blue;" id="9536" x2="500.00" x1="552.32" y1="252.32" y2="300.00" /><line style="stroke:blue;fill:blue;" id="9537" x2="500.00" x1="580.00" y1="300.00" y2="300.00" /><line style="stroke:blue;fill:blue;" id="9538" x2="650.00" x1="567.68" y1="182.32" y2="220.00" /><line style="stroke:blue;fill:blue;" id="9539" x2="550.00" x1="567.68" y1="182.32" y2="124.50" /><line style="stroke:blue;fill:blue;" id="9540" x2="602.32" x1="567.68" y1="182.32" y2="147.68" /><line style="stroke:blue;fill:blue;" id="9541" x2="600.00" x1="600.00" y1="700.00" y2="750.00" /><line style="stroke:blue;fill:blue;" id="9542" x2="600.00" x1="600.00" y1="700.00" y2="650.00" /><line style="stroke:blue;fill:blue;" id="9543" x2="500.00" x1="600.00" y1="700.00" y2="700.00" /><line style="stroke:blue;fill:blue;" id="9544" x2="670.00" x1="600.00" y1="650.00" y2="700.00" /><line style="stroke:blue;fill:blue;" id="9545" x2="600.00" x1="600.00" y1="650.00" y2="700.00" /><line style="stroke:blue;fill:blue;" id="9546" x2="500.00" x1="600.00" y1="650.00" y2="700.00" /><line style="stroke:blue;fill:blue;" id="9547" x2="670.00" x1="600.00" y1="750.00" y2="700.00" /><line style="stroke:blue;fill:blue;" id="9548" x2="700.00" x1="600.00" y1="750.00" y2="750.00" /><line style="stroke:blue;fill:blue;" id="9549" x2="600.00" x1="600.00" y1="750.00" y2="700.00" /><line style="stroke:blue;fill:blue;" id="9550" x2="500.00" x1="600.00" y1="750.00" y2="700.00" /><line style="stroke:blue;fill:blue;" id="9551" x2="567.68" x1="602.32" y1="147.68" y2="182.32" /><line style="stroke:blue;fill:blue;" id="9552" x2="550.00" x1="602.32" y1="147.68" y2="124.50" /><line style="stroke:blue;fill:blue;" id="9553" x2="550.00" x1="600.00" y1="550.00" y2="500.00" /><line style="stroke:blue;fill:blue;" id="9554" x2="600.00" x1="600.00" y1="550.00" y2="600.00" /><line style="stroke:blue;fill:blue;" id="9555" x2="550.00" x1="600.00" y1="550.00" y2="600.00" /><line style="stroke:blue;fill:blue;" id="9556" x2="600.00" x1="600.00" y1="600.00" y2="550.00" /><line style="stroke:blue;fill:blue;" id="9557" x2="550.00" x1="600.00" y1="450.00" y2="420.00" /><line style="stroke:blue;fill:blue;" id="9558" x2="680.00" x1="600.00" y1="450.00" y2="450.00" /><line style="stroke:blue;fill:blue;" id="9559" x2="550.00" x1="650.00" y1="80.00" y2="75.50" /><line style="stroke:blue;fill:blue;" id="9560" x2="700.00" x1="650.00" y1="80.00" y2="80.00" /><line style="stroke:blue;fill:blue;" id="9561" x2="680.00" x1="650.00" y1="220.00" y2="300.00" /><line style="stroke:blue;fill:blue;" id="9562" x2="567.68" x1="650.00" y1="220.00" y2="182.32" /><line style="stroke:blue;fill:blue;" id="9563" x2="680.00" x1="650.00" y1="400.00" y2="450.00" /><line style="stroke:blue;fill:blue;" id="9564" x2="650.00" x1="650.00" y1="400.00" y2="350.00" /><line style="stroke:blue;fill:blue;" id="9565" x2="580.00" x1="650.00" y1="400.00" y2="350.00" /><line style="stroke:blue;fill:blue;" id="9566" x2="650.00" x1="650.00" y1="350.00" y2="400.00" /><line style="stroke:blue;fill:blue;" id="9567" x2="720.00" x1="650.00" y1="350.00" y2="350.00" /><line style="stroke:blue;fill:blue;" id="9568" x2="680.00" x1="650.00" y1="350.00" y2="300.00" /><line style="stroke:blue;fill:blue;" id="9569" x2="730.00" x1="670.00" y1="700.00" y2="640.00" /><line style="stroke:blue;fill:blue;" id="9570" x2="600.00" x1="670.00" y1="700.00" y2="750.00" /><line style="stroke:blue;fill:blue;" id="9571" x2="600.00" x1="670.00" y1="700.00" y2="650.00" /><line style="stroke:blue;fill:blue;" id="9572" x2="720.00" x1="680.00" y1="300.00" y2="350.00" /><line style="stroke:blue;fill:blue;" id="9573" x2="650.00" x1="680.00" y1="300.00" y2="350.00" /><line style="stroke:blue;fill:blue;" id="9574" x2="720.00" x1="680.00" y1="300.00" y2="250.00" /><line style="stroke:blue;fill:blue;" id="9575" x2="650.00" x1="680.00" y1="300.00" y2="220.00" /><line style="stroke:blue;fill:blue;" id="9576" x2="650.00" x1="680.00" y1="450.00" y2="400.00" /><line style="stroke:blue;fill:blue;" id="9577" x2="600.00" x1="680.00" y1="450.00" y2="450.00" /><line style="stroke:blue;fill:blue;" id="9578" x2="750.00" x1="680.00" y1="450.00" y2="450.00" /><line style="stroke:blue;fill:blue;" id="9579" x2="800.00" x1="700.00" y1="750.00" y2="750.00" /><line style="stroke:blue;fill:blue;" id="9580" x2="600.00" x1="700.00" y1="750.00" y2="750.00" /><line style="stroke:blue;fill:blue;" id="9581" x2="790.00" x1="730.00" y1="640.00" y2="600.00" /><line style="stroke:blue;fill:blue;" id="9582" x2="670.00" x1="730.00" y1="640.00" y2="700.00" /><line style="stroke:blue;fill:blue;" id="9583" x2="650.00" x1="700.00" y1="80.00" y2="80.00" /><line style="stroke:blue;fill:blue;" id="9584" x2="780.00" x1="700.00" y1="80.00" y2="75.50" /><line style="stroke:blue;fill:blue;" id="9585" x2="740.00" x1="700.00" y1="80.00" y2="20.00" /><line style="stroke:blue;fill:blue;" id="9586" x2="680.00" x1="720.00" y1="250.00" y2="300.00" /><line style="stroke:blue;fill:blue;" id="9587" x2="780.00" x1="720.00" y1="250.00" y2="250.00" /><line style="stroke:blue;fill:blue;" id="9588" x2="650.00" x1="720.00" y1="350.00" y2="350.00" /><line style="stroke:blue;fill:blue;" id="9589" x2="680.00" x1="720.00" y1="350.00" y2="300.00" /><line style="stroke:blue;fill:blue;" id="9590" x2="780.00" x1="720.00" y1="350.00" y2="350.00" /><line style="stroke:blue;fill:blue;" id="9591" x2="780.00" x1="720.00" y1="350.00" y2="300.00" /><line style="stroke:blue;fill:blue;" id="9592" x2="700.00" x1="740.00" y1="20.00" y2="80.00" /><line style="stroke:blue;fill:blue;" id="9593" x2="780.00" x1="740.00" y1="20.00" y2="75.50" /><line style="stroke:blue;fill:blue;" id="9594" x2="680.00" x1="750.00" y1="450.00" y2="450.00" /><line style="stroke:blue;fill:blue;" id="9595" x2="780.00" x1="750.00" y1="450.00" y2="500.00" /><line style="stroke:blue;fill:blue;" id="9596" x2="820.00" x1="750.00" y1="450.00" y2="450.00" /><line style="stroke:blue;fill:blue;" id="9597" x2="780.00" x1="750.00" y1="450.00" y2="400.00" /><line style="stroke:blue;fill:blue;" id="9598" x2="900.00" x1="790.00" y1="600.00" y2="550.00" /><line style="stroke:blue;fill:blue;" id="9599" x2="880.00" x1="790.00" y1="600.00" y2="610.00" /><line style="stroke:blue;fill:blue;" id="9600" x2="730.00" x1="790.00" y1="600.00" y2="640.00" /><line style="stroke:blue;fill:blue;" id="9601" x2="750.00" x1="790.00" y1="600.00" y2="550.00" /><line style="stroke:blue;fill:blue;" id="9602" x2="790.00" x1="750.00" y1="550.00" y2="600.00" /><line style="stroke:blue;fill:blue;" id="9603" x2="780.00" x1="750.00" y1="550.00" y2="500.00" /><line style="stroke:blue;fill:blue;" id="9604" x2="750.00" x1="780.00" y1="500.00" y2="550.00" /><line style="stroke:blue;fill:blue;" id="9605" x2="750.00" x1="780.00" y1="500.00" y2="450.00" /><line style="stroke:blue;fill:blue;" id="9606" x2="820.00" x1="780.00" y1="500.00" y2="450.00" /><line style="stroke:blue;fill:blue;" id="9607" x2="780.00" x1="780.00" y1="75.50" y2="124.50" /><line style="stroke:blue;fill:blue;" id="9608" x2="700.00" x1="780.00" y1="75.50" y2="80.00" /><line style="stroke:blue;fill:blue;" id="9609" x2="820.00" x1="780.00" y1="75.50" y2="20.00" /><line style="stroke:blue;fill:blue;" id="9610" x2="740.00" x1="780.00" y1="75.50" y2="20.00" /><line style="stroke:blue;fill:blue;" id="9611" x2="850.00" x1="780.00" y1="75.50" y2="80.00" /><line style="stroke:blue;fill:blue;" id="9612" x2="720.00" x1="780.00" y1="250.00" y2="250.00" /><line style="stroke:blue;fill:blue;" id="9613" x2="780.00" x1="780.00" y1="250.00" y2="300.00" /><line style="stroke:blue;fill:blue;" id="9614" x2="720.00" x1="780.00" y1="350.00" y2="350.00" /><line style="stroke:blue;fill:blue;" id="9615" x2="780.00" x1="780.00" y1="350.00" y2="400.00" /><line style="stroke:blue;fill:blue;" id="9616" x2="850.00" x1="780.00" y1="350.00" y2="400.00" /><line style="stroke:blue;fill:blue;" id="9617" x2="780.00" x1="780.00" y1="400.00" y2="350.00" /><line style="stroke:blue;fill:blue;" id="9618" x2="750.00" x1="780.00" y1="400.00" y2="450.00" /><line style="stroke:blue;fill:blue;" id="9619" x2="820.00" x1="780.00" y1="400.00" y2="450.00" /><line style="stroke:blue;fill:blue;" id="9620" x2="850.00" x1="780.00" y1="400.00" y2="400.00" /><line style="stroke:blue;fill:blue;" id="9621" x2="882.32" x1="780.00" y1="300.00" y2="282.32" /><line style="stroke:blue;fill:blue;" id="9622" x2="847.68" x1="780.00" y1="300.00" y2="247.68" /><line style="stroke:blue;fill:blue;" id="9623" x2="720.00" x1="780.00" y1="300.00" y2="350.00" /><line style="stroke:blue;fill:blue;" id="9624" x2="780.00" x1="780.00" y1="300.00" y2="250.00" /><line style="stroke:blue;fill:blue;" id="9625" x2="880.00" x1="780.00" y1="300.00" y2="350.00" /><line style="stroke:blue;fill:blue;" id="9626" x2="780.00" x1="820.00" y1="20.00" y2="75.50" /><line style="stroke:blue;fill:blue;" id="9627" x2="850.00" x1="820.00" y1="20.00" y2="80.00" /><line style="stroke:blue;fill:blue;" id="9628" x2="780.00" x1="820.00" y1="450.00" y2="500.00" /><line style="stroke:blue;fill:blue;" id="9629" x2="750.00" x1="820.00" y1="450.00" y2="450.00" /><line style="stroke:blue;fill:blue;" id="9630" x2="780.00" x1="820.00" y1="450.00" y2="400.00" /><line style="stroke:blue;fill:blue;" id="9631" x2="900.00" x1="880.00" y1="610.00" y2="550.00" /><line style="stroke:blue;fill:blue;" id="9632" x2="790.00" x1="880.00" y1="610.00" y2="600.00" /><line style="stroke:blue;fill:blue;" id="9633" x2="780.00" x1="850.00" y1="80.00" y2="75.50" /><line style="stroke:blue;fill:blue;" id="9634" x2="820.00" x1="850.00" y1="80.00" y2="20.00" /><line style="stroke:blue;fill:blue;" id="9635" x2="780.00" x1="850.00" y1="400.00" y2="350.00" /><line style="stroke:blue;fill:blue;" id="9636" x2="780.00" x1="850.00" y1="400.00" y2="400.00" /><line style="stroke:blue;fill:blue;" id="9637" x2="950.00" x1="850.00" y1="400.00" y2="400.00" /><line style="stroke:blue;fill:blue;" id="9638" x2="780.00" x1="880.00" y1="350.00" y2="300.00" /><line style="stroke:blue;fill:blue;" id="9639" x2="950.00" x1="900.00" y1="550.00" y2="500.00" /><line style="stroke:blue;fill:blue;" id="9640" x2="790.00" x1="900.00" y1="550.00" y2="600.00" /><line style="stroke:blue;fill:blue;" id="9641" x2="880.00" x1="900.00" y1="550.00" y2="610.00" /><line style="stroke:blue;fill:blue;" id="9642" x2="1000.00" x1="950.00" y1="100.00" y2="100.00" /><line style="stroke:blue;fill:blue;" id="9643" x2="850.00" x1="950.00" y1="400.00" y2="400.00" /><line style="stroke:blue;fill:blue;" id="9644" x2="980.00" x1="950.00" y1="500.00" y2="450.00" /><line style="stroke:blue;fill:blue;" id="9645" x2="900.00" x1="950.00" y1="500.00" y2="550.00" /><line style="stroke:blue;fill:blue;" id="9646" x2="1000.00" x1="980.00" y1="450.00" y2="350.00" /><line style="stroke:blue;fill:blue;" id="9647" x2="950.00" x1="980.00" y1="450.00" y2="500.00" /><line style="stroke:blue;fill:blue;" id="9648" x2="1000.00" x1="1000.00" y1="100.00" y2="150.00" /><line style="stroke:blue;fill:blue;" id="9649" x2="950.00" x1="1000.00" y1="100.00" y2="100.00" /><line style="stroke:blue;fill:blue;" id="9650" x2="1000.00" x1="1000.00" y1="100.00" y2="20.00" /><line style="stroke:blue;fill:blue;" id="9651" x2="1000.00" x1="1000.00" y1="150.00" y2="100.00" /><line style="stroke:blue;fill:blue;" id="9652" x2="1000.00" x1="1000.00" y1="150.00" y2="200.00" /><line style="stroke:blue;fill:blue;" id="9653" x2="1000.00" x1="1000.00" y1="200.00" y2="150.00" /><line style="stroke:blue;fill:blue;" id="9654" x2="1000.00" x1="1000.00" y1="200.00" y2="250.00" /><line style="stroke:blue;fill:blue;" id="9655" x2="1000.00" x1="1000.00" y1="250.00" y2="300.00" /><line style="stroke:blue;fill:blue;" id="9656" x2="1000.00" x1="1000.00" y1="250.00" y2="200.00" /><line style="stroke:blue;fill:blue;" id="9657" x2="920.00" x1="1000.00" y1="250.00" y2="200.00" /><line style="stroke:blue;fill:blue;" id="9658" x2="1000.00" x1="1000.00" y1="300.00" y2="250.00" /><line style="stroke:blue;fill:blue;" id="9659" x2="1000.00" x1="1000.00" y1="300.00" y2="350.00" /><line style="stroke:blue;fill:blue;" id="9660" x2="1000.00" x1="1000.00" y1="350.00" y2="300.00" /><line style="stroke:blue;fill:blue;" id="9661" x2="980.00" x1="1000.00" y1="350.00" y2="450.00" /><line style="stroke:blue;fill:blue;" id="9662" x2="150.00" x1="80.00" y1="50.00" y2="100.00" /><line style="stroke:blue;fill:blue;" id="9663" x2="80.00" x1="100.96" y1="378.09" y2="300.00" /><line style="stroke:blue;fill:blue;" id="9664" x2="220.00" x1="120.00" y1="700.00" y2="700.00" /><line style="stroke:blue;fill:blue;" id="9665" x2="160.00" x1="220.00" y1="300.00" y2="300.00" /><line style="stroke:blue;fill:blue;" id="9666" x2="500.00" x1="450.00" y1="20.00" y2="50.00" /><line style="stroke:blue;fill:blue;" id="9667" x2="450.00" x1="450.00" y1="200.00" y2="300.00" /><line style="stroke:blue;fill:blue;" id="9668" x2="650.00" x1="580.00" y1="350.00" y2="400.00" /><line style="stroke:blue;fill:blue;" id="9669" x2="700.00" x1="800.00" y1="750.00" y2="750.00" /><line style="stroke:blue;fill:blue;" id="9670" x2="780.00" x1="780.00" y1="124.50" y2="75.50" /><line style="stroke:blue;fill:blue;" id="9671" x2="882.32" x1="847.68" y1="247.68" y2="282.32" /><line style="stroke:blue;fill:blue;" id="9672" x2="780.00" x1="847.68" y1="247.68" y2="300.00" /><line style="stroke:blue;fill:blue;" id="9673" x2="847.68" x1="882.32" y1="282.32" y2="247.68" /><line style="stroke:blue;fill:blue;" id="9674" x2="780.00" x1="882.32" y1="282.32" y2="300.00" /><line style="stroke:blue;fill:blue;" id="9675" x2="1000.00" x1="920.00" y1="200.00" y2="250.00" /><line style="stroke:blue;fill:blue;" id="9676" x2="1000.00" x1="1000.00" y1="20.00" y2="100.00" /></svg>
