<?xml version="1.0" standalone="yes"?><!DOCTYPE svg PUBLIC "-//W3C//DTD SVG 1.1//EN" "http://www.w3.org/Graphics/SVG/1.1/DTD/svg11.dtd"[]><svg height="800.00" id="9057" width="1050.00" xmlns="http://www.w3.org/2000/svg" xmlns:xlink="http://www.w3.org/1999/xlink"><rect Type="system" Region="琉蓝之穹" height="5.00" y="480.00" Name="IL-H0A" width="5.00" x="40.00" id="9058" ID="30002372" /><text x="40.00" y="480.00" id="9059">IL-H0A</text><rect Type="system" Region="琉蓝之穹" height="5.00" y="250.00" Name="L4X-1V" width="5.00" x="10.00" id="9061" ID="30002376" /><text x="10.00" y="250.00" id="9062">L4X-1V</text><rect Type="system" Region="琉蓝之穹" height="5.00" y="350.00" Name="CT8K-0" width="5.00" x="50.00" id="9064" ID="30002373" /><text x="50.00" y="350.00" id="9065">CT8K-0</text><rect Type="system" Region="琉蓝之穹" height="5.00" y="421.91" Name="M9-LAN" width="5.00" x="79.04" id="9067" ID="30002374" /><text x="79.04" y="421.91" id="9068">M9-LAN</text><rect Type="system" Region="琉蓝之穹" height="5.00" y="300.00" Name="C-4D0W" width="5.00" x="80.00" id="9070" ID="30002375" /><text x="80.00" y="300.00" id="9071">C-4D0W</text><rect Type="system" Region="琉蓝之穹" height="5.00" y="250.00" Name="WPV-JN" width="5.00" x="100.00" id="9073" ID="30002371" /><text x="100.00" y="250.00" id="9074">WPV-JN</text><rect Type="system" Region="琉蓝之穹" height="5.00" y="100.00" Name="TZ-74M" width="5.00" x="150.00" id="9076" ID="30002353" /><text x="150.00" y="100.00" id="9077">TZ-74M</text><rect Type="system" Region="琉蓝之穹" height="5.00" y="180.00" Name="ZS-PNI" width="5.00" x="160.00" id="9079" ID="30002352" /><text x="160.00" y="180.00" id="9080">ZS-PNI</text><rect Type="system" Region="琉蓝之穹" height="5.00" y="250.00" Name="8KE-YS" width="5.00" x="160.00" id="9082" ID="30002354" /><text x="160.00" y="250.00" id="9083">8KE-YS</text><rect Type="system" Region="琉蓝之穹" height="5.00" y="300.00" Name="LXQ2-T" width="5.00" x="160.00" id="9085" ID="30002355" /><text x="160.00" y="300.00" id="9086">LXQ2-T</text><rect Type="system" Region="琉蓝之穹" height="5.00" y="400.00" Name="PX-IHN" width="5.00" x="160.00" id="9088" ID="30002370" /><text x="160.00" y="400.00" id="9089">PX-IHN</text><rect Type="system" Region="琉蓝之穹" height="5.00" y="520.00" Name="QBZO-R" width="5.00" x="160.00" id="9091" ID="30002363" /><text x="160.00" y="520.00" id="9092">QBZO-R</text><rect Type="system" Region="琉蓝之穹" height="5.00" y="580.00" Name="CL-IRS" width="5.00" x="160.00" id="9094" ID="30002362" /><text x="160.00" y="580.00" id="9095">CL-IRS</text><rect Type="system" Region="琉蓝之穹" height="5.00" y="120.00" Name="O-LJOO" width="5.00" x="220.00" id="9097" ID="30002351" /><text x="220.00" y="120.00" id="9098">O-LJOO</text><rect Type="system" Region="琉蓝之穹" height="5.00" y="700.00" Name="G-QTSD" width="5.00" x="220.00" id="9100" ID="30002301" /><text x="220.00" y="700.00" id="9101">G-QTSD</text><rect Type="system" Region="琉蓝之穹" height="5.00" y="480.00" Name="3IK-7O" width="5.00" x="220.00" id="9103" ID="30002357" /><text x="220.00" y="480.00" id="9104">3IK-7O</text><rect Type="system" Region="琉蓝之穹" height="5.00" y="600.00" Name="ZZ5X-M" width="5.00" x="220.00" id="9106" ID="30002360" /><text x="220.00" y="600.00" id="9107">ZZ5X-M</text><rect Type="system" Region="琉蓝之穹" height="5.00" y="420.00" Name="UAV-1E" width="5.00" x="250.00" id="9109" ID="30002361" /><text x="250.00" y="420.00" id="9110">UAV-1E</text><rect Type="system" Region="琉蓝之穹" height="5.00" y="120.00" Name="43-1TL" width="5.00" x="280.00" id="9112" ID="30002350" /><text x="280.00" y="120.00" id="9113">43-1TL</text><rect Type="system" Region="琉蓝之穹" height="5.00" y="520.00" Name="O-EUHA" width="5.00" x="300.00" id="9115" ID="30002358" /><text x="300.00" y="520.00" id="9116">O-EUHA</text><rect Type="system" Region="琉蓝之穹" height="5.00" y="580.00" Name="MO-I1W" width="5.00" x="300.00" id="9118" ID="30002359" /><text x="300.00" y="580.00" id="9119">MO-I1W</text><rect Type="system" Region="琉蓝之穹" height="5.00" y="700.00" Name="SAH-AD" width="5.00" x="300.00" id="9121" ID="30002298" /><text x="300.00" y="700.00" id="9122">SAH-AD</text><rect Type="system" Region="琉蓝之穹" height="5.00" y="180.00" Name="89JS-J" width="5.00" x="320.00" id="9124" ID="30002314" /><text x="320.00" y="180.00" id="9125">89JS-J</text><rect Type="system" Region="琉蓝之穹" height="5.00" y="250.00" Name="5U-3PW" width="5.00" x="320.00" id="9127" ID="30002313" /><text x="320.00" y="250.00" id="9128">5U-3PW</text><rect Type="system" Region="琉蓝之穹" height="5.00" y="320.00" Name="C9R-NO" width="5.00" x="320.00" id="9130" ID="30002315" /><text x="320.00" y="320.00" id="9131">C9R-NO</text><rect Type="system" Region="琉蓝之穹" height="5.00" y="380.00" Name="FKR-SR" width="5.00" x="320.00" id="9133" ID="30002316" /><text x="320.00" y="380.00" id="9134">FKR-SR</text><rect Type="system" Region="琉蓝之穹" height="5.00" y="450.00" Name="HV-EAP" width="5.00" x="320.00" id="9136" ID="30002356" /><text x="320.00" y="450.00" id="9137">HV-EAP</text><rect Type="system" Region="琉蓝之穹" height="5.00" y="630.00" Name="4LJ6-Q" width="5.00" x="360.00" id="9139" ID="30002297" /><text x="360.00" y="630.00" id="9140">4LJ6-Q</text><rect Type="system" Region="琉蓝之穹" height="5.00" y="200.00" Name="CYB-BZ" width="5.00" x="380.00" id="9142" ID="30002312" /><text x="380.00" y="200.00" id="9143">CYB-BZ</text><rect Type="system" Region="琉蓝之穹" height="5.00" y="550.00" Name="MF-PGF" width="5.00" x="380.00" id="9145" ID="30002299" /><text x="380.00" y="550.00" id="9146">MF-PGF</text><rect Type="system" Region="琉蓝之穹" height="5.00" y="300.00" Name="KMH-J1" width="5.00" x="400.00" id="9148" ID="30002311" /><text x="400.00" y="300.00" id="9149">KMH-J1</text><rect Type="system" Region="琉蓝之穹" height="5.00" y="450.00" Name="KGT3-6" width="5.00" x="400.00" id="9151" ID="30002296" /><text x="400.00" y="450.00" id="9152">KGT3-6</text><rect Type="system" Region="琉蓝之穹" height="5.00" y="400.00" Name="QNXJ-M" width="5.00" x="400.00" id="9154" ID="30002288" /><text x="400.00" y="400.00" id="9155">QNXJ-M</text><rect Type="system" Region="琉蓝之穹" height="5.00" y="300.00" Name="FB-MPY" width="5.00" x="450.00" id="9157" ID="30002321" /><text x="450.00" y="300.00" id="9158">FB-MPY</text><rect Type="system" Region="琉蓝之穹" height="5.00" y="480.00" Name="L-ZJLN" width="5.00" x="450.00" id="9160" ID="30002300" /><text x="450.00" y="480.00" id="9161">L-ZJLN</text><rect Type="system" Region="琉蓝之穹" height="5.00" y="400.00" Name="9F-3CR" width="5.00" x="480.00" id="9163" ID="30002284" /><text x="480.00" y="400.00" id="9164">9F-3CR</text><rect Type="system" Region="琉蓝之穹" height="5.00" y="550.00" Name="GTY-FW" width="5.00" x="480.00" id="9166" ID="30002328" /><text x="480.00" y="550.00" id="9167">GTY-FW</text><rect Type="system" Region="琉蓝之穹" height="5.00" y="600.00" Name="TP-RTO" width="5.00" x="480.00" id="9169" ID="30002327" /><text x="480.00" y="600.00" id="9170">TP-RTO</text><rect Type="system" Region="琉蓝之穹" height="5.00" y="650.00" Name="1H5-3W" width="5.00" x="480.00" id="9172" ID="30002329" /><text x="480.00" y="650.00" id="9173">1H5-3W</text><rect Type="system" Region="琉蓝之穹" height="5.00" y="100.00" Name="IRD-HU" width="5.00" x="480.00" id="9175" ID="30002333" /><text x="480.00" y="100.00" id="9176">IRD-HU</text><rect Type="system" Region="琉蓝之穹" height="5.00" y="50.00" Name="JAWX-R" width="5.00" x="500.00" id="9178" ID="30002336" /><text x="500.00" y="50.00" id="9179">JAWX-R</text><rect Type="system" Region="琉蓝之穹" height="5.00" y="350.00" Name="BNX-AS" width="5.00" x="500.00" id="9181" ID="30002318" /><text x="500.00" y="350.00" id="9182">BNX-AS</text><rect Type="system" Region="琉蓝之穹" height="5.00" y="700.00" Name="EX-GBT" width="5.00" x="500.00" id="9184" ID="30002369" /><text x="500.00" y="700.00" id="9185">EX-GBT</text><rect Type="system" Region="琉蓝之穹" height="5.00" y="300.00" Name="F9-FUV" width="5.00" x="500.00" id="9187" ID="30002320" /><text x="500.00" y="300.00" id="9188">F9-FUV</text><rect Type="system" Region="琉蓝之穹" height="5.00" y="217.68" Name="XB-9U2" width="5.00" x="517.68" id="9190" ID="30002319" /><text x="517.68" y="217.68" id="9191">XB-9U2</text><rect Type="system" Region="琉蓝之穹" height="5.00" y="124.50" Name="1GH-48" width="5.00" x="550.00" id="9193" ID="30002332" /><text x="550.00" y="124.50" id="9194">1GH-48</text><rect Type="system" Region="琉蓝之穹" height="5.00" y="420.00" Name="2G-VDP" width="5.00" x="550.00" id="9196" ID="30002283" /><text x="550.00" y="420.00" id="9197">2G-VDP</text><rect Type="system" Region="琉蓝之穹" height="5.00" y="500.00" Name="R-6KYM" width="5.00" x="550.00" id="9199" ID="30002324" /><text x="550.00" y="500.00" id="9200">R-6KYM</text><rect Type="system" Region="琉蓝之穹" height="5.00" y="550.00" Name="QZV-X3" width="5.00" x="550.00" id="9202" ID="30002330" /><text x="550.00" y="550.00" id="9203">QZV-X3</text><rect Type="system" Region="琉蓝之穹" height="5.00" y="600.00" Name="RV-GA8" width="5.00" x="550.00" id="9205" ID="30002326" /><text x="550.00" y="600.00" id="9206">RV-GA8</text><rect Type="system" Region="琉蓝之穹" height="5.00" y="75.50" Name="B-2VXB" width="5.00" x="550.00" id="9208" ID="30002334" /><text x="550.00" y="75.50" id="9209">B-2VXB</text><rect Type="system" Region="琉蓝之穹" height="5.00" y="252.32" Name="RO-0PZ" width="5.00" x="552.32" id="9211" ID="30002322" /><text x="552.32" y="252.32" id="9212">RO-0PZ</text><rect Type="system" Region="琉蓝之穹" height="5.00" y="300.00" Name="1ACJ-6" width="5.00" x="580.00" id="9214" ID="30002317" /><text x="580.00" y="300.00" id="9215">1ACJ-6</text><rect Type="system" Region="琉蓝之穹" height="5.00" y="182.32" Name="IS-OBW" width="5.00" x="567.68" id="9217" ID="30002331" /><text x="567.68" y="182.32" id="9218">IS-OBW</text><rect Type="system" Region="琉蓝之穹" height="5.00" y="700.00" Name="C-V6DQ" width="5.00" x="600.00" id="9220" ID="30002367" /><text x="600.00" y="700.00" id="9221">C-V6DQ</text><rect Type="system" Region="琉蓝之穹" height="5.00" y="650.00" Name="Z-FET0" width="5.00" x="600.00" id="9223" ID="30002368" /><text x="600.00" y="650.00" id="9224">Z-FET0</text><rect Type="system" Region="琉蓝之穹" height="5.00" y="750.00" Name="1PF-BC" width="5.00" x="600.00" id="9226" ID="30002365" /><text x="600.00" y="750.00" id="9227">1PF-BC</text><rect Type="system" Region="琉蓝之穹" height="5.00" y="147.68" Name="FIZU-X" width="5.00" x="602.32" id="9229" ID="30002335" /><text x="602.32" y="147.68" id="9230">FIZU-X</text><rect Type="system" Region="琉蓝之穹" height="5.00" y="550.00" Name="JTA2-2" width="5.00" x="600.00" id="9232" ID="30002323" /><text x="600.00" y="550.00" id="9233">JTA2-2</text><rect Type="system" Region="琉蓝之穹" height="5.00" y="600.00" Name="3H58-R" width="5.00" x="600.00" id="9235" ID="30002325" /><text x="600.00" y="600.00" id="9236">3H58-R</text><rect Type="system" Region="琉蓝之穹" height="5.00" y="450.00" Name="KRPF-A" width="5.00" x="600.00" id="9238" ID="30002286" /><text x="600.00" y="450.00" id="9239">KRPF-A</text><rect Type="system" Region="琉蓝之穹" height="5.00" y="80.00" Name="4-QDIX" width="5.00" x="650.00" id="9241" ID="30002344" /><text x="650.00" y="80.00" id="9242">4-QDIX</text><rect Type="system" Region="琉蓝之穹" height="5.00" y="220.00" Name="0M-24X" width="5.00" x="650.00" id="9244" ID="30002308" /><text x="650.00" y="220.00" id="9245">0M-24X</text><rect Type="system" Region="琉蓝之穹" height="5.00" y="400.00" Name="J7M-3W" width="5.00" x="650.00" id="9247" ID="30002285" /><text x="650.00" y="400.00" id="9248">J7M-3W</text><rect Type="system" Region="琉蓝之穹" height="5.00" y="350.00" Name="NK-VTL" width="5.00" x="650.00" id="9250" ID="30002303" /><text x="650.00" y="350.00" id="9251">NK-VTL</text><rect Type="system" Region="琉蓝之穹" height="5.00" y="700.00" Name="QHJR-E" width="5.00" x="670.00" id="9253" ID="30002364" /><text x="670.00" y="700.00" id="9254">QHJR-E</text><rect Type="system" Region="琉蓝之穹" height="5.00" y="300.00" Name="D-CR6W" width="5.00" x="680.00" id="9256" ID="30002304" /><text x="680.00" y="300.00" id="9257">D-CR6W</text><rect Type="system" Region="琉蓝之穹" height="5.00" y="450.00" Name="9P-870" width="5.00" x="680.00" id="9259" ID="30002287" /><text x="680.00" y="450.00" id="9260">9P-870</text><rect Type="system" Region="琉蓝之穹" height="5.00" y="750.00" Name="D-OJEZ" width="5.00" x="700.00" id="9262" ID="30002366" /><text x="700.00" y="750.00" id="9263">D-OJEZ</text><rect Type="system" Region="琉蓝之穹" height="5.00" y="640.00" Name="2B-UUQ" width="5.00" x="730.00" id="9265" ID="30002342" /><text x="730.00" y="640.00" id="9266">2B-UUQ</text><rect Type="system" Region="琉蓝之穹" height="5.00" y="80.00" Name="FGJP-J" width="5.00" x="700.00" id="9268" ID="30002345" /><text x="700.00" y="80.00" id="9269">FGJP-J</text><rect Type="system" Region="琉蓝之穹" height="5.00" y="250.00" Name="GN-TNT" width="5.00" x="720.00" id="9271" ID="30002306" /><text x="720.00" y="250.00" id="9272">GN-TNT</text><rect Type="system" Region="琉蓝之穹" height="5.00" y="350.00" Name="3G-LFX" width="5.00" x="720.00" id="9274" ID="30002302" /><text x="720.00" y="350.00" id="9275">3G-LFX</text><rect Type="system" Region="琉蓝之穹" height="5.00" y="20.00" Name="WU9-ZR" width="5.00" x="740.00" id="9277" ID="30002348" /><text x="740.00" y="20.00" id="9278">WU9-ZR</text><rect Type="system" Region="琉蓝之穹" height="5.00" y="450.00" Name="DYPL-6" width="5.00" x="750.00" id="9280" ID="30002378" /><text x="750.00" y="450.00" id="9281">DYPL-6</text><rect Type="system" Region="琉蓝之穹" height="5.00" y="600.00" Name="NWX-LI" width="5.00" x="790.00" id="9283" ID="30002340" /><text x="790.00" y="600.00" id="9284">NWX-LI</text><rect Type="system" Region="琉蓝之穹" height="5.00" y="550.00" Name="I64-XB" width="5.00" x="750.00" id="9286" ID="30002343" /><text x="750.00" y="550.00" id="9287">I64-XB</text><rect Type="system" Region="琉蓝之穹" height="5.00" y="500.00" Name="M-V0PQ" width="5.00" x="780.00" id="9289" ID="30002377" /><text x="780.00" y="500.00" id="9290">M-V0PQ</text><rect Type="system" Region="琉蓝之穹" height="5.00" y="75.50" Name="89-JPE" width="5.00" x="780.00" id="9292" ID="30002346" /><text x="780.00" y="75.50" id="9293">89-JPE</text><rect Type="system" Region="琉蓝之穹" height="5.00" y="250.00" Name="QKCU-4" width="5.00" x="780.00" id="9295" ID="30002307" /><text x="780.00" y="250.00" id="9296">QKCU-4</text><rect Type="system" Region="琉蓝之穹" height="5.00" y="350.00" Name="BY-7PY" width="5.00" x="780.00" id="9298" ID="30002305" /><text x="780.00" y="350.00" id="9299">BY-7PY</text><rect Type="system" Region="琉蓝之穹" height="5.00" y="400.00" Name="RK-Q51" width="5.00" x="780.00" id="9301" ID="30002380" /><text x="780.00" y="400.00" id="9302">RK-Q51</text><rect Type="system" Region="琉蓝之穹" height="5.00" y="300.00" Name="N06Z-Q" width="5.00" x="780.00" id="9304" ID="30002309" /><text x="780.00" y="300.00" id="9305">N06Z-Q</text><rect Type="system" Region="琉蓝之穹" height="5.00" y="20.00" Name="D-IZT9" width="5.00" x="820.00" id="9307" ID="30002347" /><text x="820.00" y="20.00" id="9308">D-IZT9</text><rect Type="system" Region="琉蓝之穹" height="5.00" y="450.00" Name="V-OL61" width="5.00" x="820.00" id="9310" ID="30002379" /><text x="820.00" y="450.00" id="9311">V-OL61</text><rect Type="system" Region="琉蓝之穹" height="5.00" y="610.00" Name="N-SFZK" width="5.00" x="880.00" id="9313" ID="30002341" /><text x="880.00" y="610.00" id="9314">N-SFZK</text><rect Type="system" Region="琉蓝之穹" height="5.00" y="80.00" Name="E8-432" width="5.00" x="850.00" id="9316" ID="30002349" /><text x="850.00" y="80.00" id="9317">E8-432</text><rect Type="system" Region="琉蓝之穹" height="5.00" y="400.00" Name="F69O-M" width="5.00" x="850.00" id="9319" ID="30002381" /><text x="850.00" y="400.00" id="9320">F69O-M</text><rect Type="system" Region="琉蓝之穹" height="5.00" y="350.00" Name="YX-0KH" width="5.00" x="880.00" id="9322" ID="30002310" /><text x="880.00" y="350.00" id="9323">YX-0KH</text><rect Type="system" Region="琉蓝之穹" height="5.00" y="550.00" Name="9QS5-C" width="5.00" x="900.00" id="9325" ID="30002339" /><text x="900.00" y="550.00" id="9326">9QS5-C</text><rect Type="system" Region="琉蓝之穹" height="5.00" y="100.00" Name="D3S-EA" width="5.00" x="950.00" id="9328" ID="30002295" /><text x="950.00" y="100.00" id="9329">D3S-EA</text><rect Type="system" Region="琉蓝之穹" height="5.00" y="400.00" Name="T-IDGH" width="5.00" x="950.00" id="9331" ID="30002382" /><text x="950.00" y="400.00" id="9332">T-IDGH</text><rect Type="system" Region="琉蓝之穹" height="5.00" y="500.00" Name="ALC-JM" width="5.00" x="950.00" id="9334" ID="30002338" /><text x="950.00" y="500.00" id="9335">ALC-JM</text><rect Type="system" Region="琉蓝之穹" height="5.00" y="450.00" Name="Z0G-XG" width="5.00" x="980.00" id="9337" ID="30002337" /><text x="980.00" y="450.00" id="9338">Z0G-XG</text><rect Type="system" Region="琉蓝之穹" height="5.00" y="100.00" Name="AID-9T" width="5.00" x="1000.00" id="9340" ID="30002289" /><text x="1000.00" y="100.00" id="9341">AID-9T</text><rect Type="system" Region="琉蓝之穹" height="5.00" y="150.00" Name="PXE-RG" width="5.00" x="1000.00" id="9343" ID="30002290" /><text x="1000.00" y="150.00" id="9344">PXE-RG</text><rect Type="system" Region="琉蓝之穹" height="5.00" y="200.00" Name="8-MXHA" width="5.00" x="1000.00" id="9346" ID="30002293" /><text x="1000.00" y="200.00" id="9347">8-MXHA</text><rect Type="system" Region="琉蓝之穹" height="5.00" y="250.00" Name="Z-DRIY" width="5.00" x="1000.00" id="9349" ID="30002292" /><text x="1000.00" y="250.00" id="9350">Z-DRIY</text><rect Type="system" Region="琉蓝之穹" height="5.00" y="300.00" Name="5J-62N" width="5.00" x="1000.00" id="9352" ID="30002291" /><text x="1000.00" y="300.00" id="9353">5J-62N</text><rect Type="system" Region="琉蓝之穹" height="5.00" y="350.00" Name="LPVL-5" width="5.00" x="1000.00" id="9355" ID="30002294" /><text x="1000.00" y="350.00" id="9356">LPVL-5</text><rect Type="system" Region="卡勒瓦拉阔地" height="5.00" y="50.00" Name="FZX-PU" width="5.00" x="80.00" id="9358" ID="30002878" /><text x="80.00" y="50.00" id="9359">FZX-PU</text><rect Type="system" Region="大荒野" height="5.00" y="378.09" Name="BRT-OP" width="5.00" x="100.96" id="9361" ID="30000986" /><text x="100.96" y="378.09" id="9362">BRT-OP</text><rect Type="system" Region="因斯姆尔" height="5.00" y="700.00" Name="EFM-C4" width="5.00" x="120.00" id="9364" ID="30000783" /><text x="120.00" y="700.00" id="9365">EFM-C4</text><rect Type="system" Region="伏尔戈" height="5.00" y="300.00" Name="帕拉" width="5.00" x="220.00" id="9367" ID="30000198" /><text x="220.00" y="300.00" id="9368">帕拉</text><rect Type="system" Region="螺旋之域" height="5.00" y="20.00" Name="C6C-K9" width="5.00" x="450.00" id="9370" ID="30001533" /><text x="450.00" y="20.00" id="9371">C6C-K9</text><rect Type="system" Region="卡勒瓦拉阔地" height="5.00" y="200.00" Name="A-YB15" width="5.00" x="450.00" id="9373" ID="30002836" /><text x="450.00" y="200.00" id="9374">A-YB15</text><rect Type="system" Region="卡勒瓦拉阔地" height="5.00" y="350.00" Name="SY-0AM" width="5.00" x="580.00" id="9376" ID="30002835" /><text x="580.00" y="350.00" id="9377">SY-0AM</text><rect Type="system" Region="螺旋之域" height="5.00" y="750.00" Name="RXA-W1" width="5.00" x="800.00" id="9379" ID="30001563" /><text x="800.00" y="750.00" id="9380">RXA-W1</text><rect Type="system" Region="糟粕之域" height="5.00" y="124.50" Name="6-WMKE" width="5.00" x="780.00" id="9382" ID="30001111" /><text x="780.00" y="124.50" id="9383">6-WMKE</text><rect Type="system" Region="糟粕之域" height="5.00" y="247.68" Name="63-7Q6" width="5.00" x="847.68" id="9385" ID="30001092" /><text x="847.68" y="247.68" id="9386">63-7Q6</text><rect Type="system" Region="糟粕之域" height="5.00" y="282.32" Name="Z0H2-4" width="5.00" x="882.32" id="9388" ID="30001091" /><text x="882.32" y="282.32" id="9389">Z0H2-4</text><rect Type="system" Region="佩利根弗" height="5.00" y="200.00" Name="BEG-RL" width="5.00" x="920.00" id="9391" ID="30005129" /><text x="920.00" y="200.00" id="9392">BEG-RL</text><rect Type="system" Region="卡勒瓦拉阔地" height="5.00" y="20.00" Name="L-GY1B" width="5.00" x="1000.00" id="9394" ID="30002847" /><text x="1000.00" y="20.00" id="9395">L-GY1B</text><line x2="160.00" style="fill:blue;stroke:blue;" y1="480.00" x1="40.00" id="9397" y2="400.00" /><line x2="50.00" style="fill:blue;stroke:blue;" y1="480.00" x1="40.00" id="9398" y2="350.00" /><line x2="79.04" style="fill:blue;stroke:blue;" y1="480.00" x1="40.00" id="9399" y2="421.91" /><line x2="10.00" style="fill:blue;stroke:blue;" y1="480.00" x1="40.00" id="9400" y2="250.00" /><line x2="100.00" style="fill:blue;stroke:blue;" y1="250.00" x1="10.00" id="9401" y2="250.00" /><line x2="40.00" style="fill:blue;stroke:blue;" y1="250.00" x1="10.00" id="9402" y2="480.00" /><line x2="40.00" style="fill:blue;stroke:blue;" y1="350.00" x1="50.00" id="9403" y2="480.00" /><line x2="79.04" style="fill:blue;stroke:blue;" y1="350.00" x1="50.00" id="9404" y2="421.91" /><line x2="80.00" style="fill:blue;stroke:blue;" y1="350.00" x1="50.00" id="9405" y2="300.00" /><line x2="160.00" style="fill:blue;stroke:blue;" y1="421.91" x1="79.04" id="9406" y2="400.00" /><line x2="40.00" style="fill:blue;stroke:blue;" y1="421.91" x1="79.04" id="9407" y2="480.00" /><line x2="50.00" style="fill:blue;stroke:blue;" y1="421.91" x1="79.04" id="9408" y2="350.00" /><line x2="100.96" style="fill:blue;stroke:blue;" y1="300.00" x1="80.00" id="9409" y2="378.09" /><line x2="100.00" style="fill:blue;stroke:blue;" y1="300.00" x1="80.00" id="9410" y2="250.00" /><line x2="50.00" style="fill:blue;stroke:blue;" y1="300.00" x1="80.00" id="9411" y2="350.00" /><line x2="160.00" style="fill:blue;stroke:blue;" y1="250.00" x1="100.00" id="9412" y2="400.00" /><line x2="80.00" style="fill:blue;stroke:blue;" y1="250.00" x1="100.00" id="9413" y2="300.00" /><line x2="10.00" style="fill:blue;stroke:blue;" y1="250.00" x1="100.00" id="9414" y2="250.00" /><line x2="220.00" style="fill:blue;stroke:blue;" y1="100.00" x1="150.00" id="9415" y2="120.00" /><line x2="80.00" style="fill:blue;stroke:blue;" y1="100.00" x1="150.00" id="9416" y2="50.00" /><line x2="220.00" style="fill:blue;stroke:blue;" y1="180.00" x1="160.00" id="9417" y2="120.00" /><line x2="160.00" style="fill:blue;stroke:blue;" y1="180.00" x1="160.00" id="9418" y2="250.00" /><line x2="160.00" style="fill:blue;stroke:blue;" y1="250.00" x1="160.00" id="9419" y2="180.00" /><line x2="160.00" style="fill:blue;stroke:blue;" y1="250.00" x1="160.00" id="9420" y2="300.00" /><line x2="220.00" style="fill:blue;stroke:blue;" y1="300.00" x1="160.00" id="9421" y2="300.00" /><line x2="160.00" style="fill:blue;stroke:blue;" y1="300.00" x1="160.00" id="9422" y2="250.00" /><line x2="160.00" style="fill:blue;stroke:blue;" y1="300.00" x1="160.00" id="9423" y2="400.00" /><line x2="160.00" style="fill:blue;stroke:blue;" y1="400.00" x1="160.00" id="9424" y2="300.00" /><line x2="160.00" style="fill:blue;stroke:blue;" y1="400.00" x1="160.00" id="9425" y2="520.00" /><line x2="100.00" style="fill:blue;stroke:blue;" y1="400.00" x1="160.00" id="9426" y2="250.00" /><line x2="40.00" style="fill:blue;stroke:blue;" y1="400.00" x1="160.00" id="9427" y2="480.00" /><line x2="79.04" style="fill:blue;stroke:blue;" y1="400.00" x1="160.00" id="9428" y2="421.91" /><line x2="300.00" style="fill:blue;stroke:blue;" y1="520.00" x1="160.00" id="9429" y2="520.00" /><line x2="160.00" style="fill:blue;stroke:blue;" y1="520.00" x1="160.00" id="9430" y2="580.00" /><line x2="160.00" style="fill:blue;stroke:blue;" y1="520.00" x1="160.00" id="9431" y2="400.00" /><line x2="220.00" style="fill:blue;stroke:blue;" y1="580.00" x1="160.00" id="9432" y2="600.00" /><line x2="160.00" style="fill:blue;stroke:blue;" y1="580.00" x1="160.00" id="9433" y2="520.00" /><line x2="280.00" style="fill:blue;stroke:blue;" y1="120.00" x1="220.00" id="9434" y2="120.00" /><line x2="160.00" style="fill:blue;stroke:blue;" y1="120.00" x1="220.00" id="9435" y2="180.00" /><line x2="150.00" style="fill:blue;stroke:blue;" y1="120.00" x1="220.00" id="9436" y2="100.00" /><line x2="120.00" style="fill:blue;stroke:blue;" y1="700.00" x1="220.00" id="9437" y2="700.00" /><line x2="300.00" style="fill:blue;stroke:blue;" y1="700.00" x1="220.00" id="9438" y2="700.00" /><line x2="220.00" style="fill:blue;stroke:blue;" y1="700.00" x1="220.00" id="9439" y2="600.00" /><line x2="320.00" style="fill:blue;stroke:blue;" y1="480.00" x1="220.00" id="9440" y2="450.00" /><line x2="300.00" style="fill:blue;stroke:blue;" y1="480.00" x1="220.00" id="9441" y2="520.00" /><line x2="250.00" style="fill:blue;stroke:blue;" y1="480.00" x1="220.00" id="9442" y2="420.00" /><line x2="220.00" style="fill:blue;stroke:blue;" y1="600.00" x1="220.00" id="9443" y2="700.00" /><line x2="300.00" style="fill:blue;stroke:blue;" y1="600.00" x1="220.00" id="9444" y2="580.00" /><line x2="160.00" style="fill:blue;stroke:blue;" y1="600.00" x1="220.00" id="9445" y2="580.00" /><line x2="320.00" style="fill:blue;stroke:blue;" y1="420.00" x1="250.00" id="9446" y2="450.00" /><line x2="220.00" style="fill:blue;stroke:blue;" y1="420.00" x1="250.00" id="9447" y2="480.00" /><line x2="320.00" style="fill:blue;stroke:blue;" y1="120.00" x1="280.00" id="9448" y2="180.00" /><line x2="220.00" style="fill:blue;stroke:blue;" y1="120.00" x1="280.00" id="9449" y2="120.00" /><line x2="320.00" style="fill:blue;stroke:blue;" y1="520.00" x1="300.00" id="9450" y2="450.00" /><line x2="220.00" style="fill:blue;stroke:blue;" y1="520.00" x1="300.00" id="9451" y2="480.00" /><line x2="300.00" style="fill:blue;stroke:blue;" y1="520.00" x1="300.00" id="9452" y2="580.00" /><line x2="160.00" style="fill:blue;stroke:blue;" y1="520.00" x1="300.00" id="9453" y2="520.00" /><line x2="300.00" style="fill:blue;stroke:blue;" y1="580.00" x1="300.00" id="9454" y2="520.00" /><line x2="220.00" style="fill:blue;stroke:blue;" y1="580.00" x1="300.00" id="9455" y2="600.00" /><line x2="360.00" style="fill:blue;stroke:blue;" y1="700.00" x1="300.00" id="9456" y2="630.00" /><line x2="220.00" style="fill:blue;stroke:blue;" y1="700.00" x1="300.00" id="9457" y2="700.00" /><line x2="500.00" style="fill:blue;stroke:blue;" y1="700.00" x1="300.00" id="9458" y2="700.00" /><line x2="380.00" style="fill:blue;stroke:blue;" y1="180.00" x1="320.00" id="9459" y2="200.00" /><line x2="320.00" style="fill:blue;stroke:blue;" y1="180.00" x1="320.00" id="9460" y2="250.00" /><line x2="280.00" style="fill:blue;stroke:blue;" y1="180.00" x1="320.00" id="9461" y2="120.00" /><line x2="380.00" style="fill:blue;stroke:blue;" y1="250.00" x1="320.00" id="9462" y2="200.00" /><line x2="320.00" style="fill:blue;stroke:blue;" y1="250.00" x1="320.00" id="9463" y2="180.00" /><line x2="320.00" style="fill:blue;stroke:blue;" y1="250.00" x1="320.00" id="9464" y2="320.00" /><line x2="320.00" style="fill:blue;stroke:blue;" y1="320.00" x1="320.00" id="9465" y2="250.00" /><line x2="320.00" style="fill:blue;stroke:blue;" y1="320.00" x1="320.00" id="9466" y2="380.00" /><line x2="320.00" style="fill:blue;stroke:blue;" y1="380.00" x1="320.00" id="9467" y2="320.00" /><line x2="320.00" style="fill:blue;stroke:blue;" y1="380.00" x1="320.00" id="9468" y2="450.00" /><line x2="320.00" style="fill:blue;stroke:blue;" y1="450.00" x1="320.00" id="9469" y2="380.00" /><line x2="220.00" style="fill:blue;stroke:blue;" y1="450.00" x1="320.00" id="9470" y2="480.00" /><line x2="300.00" style="fill:blue;stroke:blue;" y1="450.00" x1="320.00" id="9471" y2="520.00" /><line x2="250.00" style="fill:blue;stroke:blue;" y1="450.00" x1="320.00" id="9472" y2="420.00" /><line x2="300.00" style="fill:blue;stroke:blue;" y1="630.00" x1="360.00" id="9473" y2="700.00" /><line x2="380.00" style="fill:blue;stroke:blue;" y1="630.00" x1="360.00" id="9474" y2="550.00" /><line x2="400.00" style="fill:blue;stroke:blue;" y1="200.00" x1="380.00" id="9475" y2="300.00" /><line x2="320.00" style="fill:blue;stroke:blue;" y1="200.00" x1="380.00" id="9476" y2="250.00" /><line x2="320.00" style="fill:blue;stroke:blue;" y1="200.00" x1="380.00" id="9477" y2="180.00" /><line x2="400.00" style="fill:blue;stroke:blue;" y1="550.00" x1="380.00" id="9478" y2="450.00" /><line x2="360.00" style="fill:blue;stroke:blue;" y1="550.00" x1="380.00" id="9479" y2="630.00" /><line x2="400.00" style="fill:blue;stroke:blue;" y1="300.00" x1="400.00" id="9480" y2="400.00" /><line x2="380.00" style="fill:blue;stroke:blue;" y1="300.00" x1="400.00" id="9481" y2="200.00" /><line x2="400.00" style="fill:blue;stroke:blue;" y1="450.00" x1="400.00" id="9482" y2="400.00" /><line x2="380.00" style="fill:blue;stroke:blue;" y1="450.00" x1="400.00" id="9483" y2="550.00" /><line x2="450.00" style="fill:blue;stroke:blue;" y1="450.00" x1="400.00" id="9484" y2="480.00" /><line x2="480.00" style="fill:blue;stroke:blue;" y1="400.00" x1="400.00" id="9485" y2="400.00" /><line x2="400.00" style="fill:blue;stroke:blue;" y1="400.00" x1="400.00" id="9486" y2="450.00" /><line x2="400.00" style="fill:blue;stroke:blue;" y1="400.00" x1="400.00" id="9487" y2="300.00" /><line x2="500.00" style="fill:blue;stroke:blue;" y1="300.00" x1="450.00" id="9488" y2="350.00" /><line x2="450.00" style="fill:blue;stroke:blue;" y1="300.00" x1="450.00" id="9489" y2="200.00" /><line x2="400.00" style="fill:blue;stroke:blue;" y1="480.00" x1="450.00" id="9490" y2="450.00" /><line x2="550.00" style="fill:blue;stroke:blue;" y1="400.00" x1="480.00" id="9491" y2="420.00" /><line x2="400.00" style="fill:blue;stroke:blue;" y1="400.00" x1="480.00" id="9492" y2="400.00" /><line x2="500.00" style="fill:blue;stroke:blue;" y1="400.00" x1="480.00" id="9493" y2="350.00" /><line x2="550.00" style="fill:blue;stroke:blue;" y1="550.00" x1="480.00" id="9494" y2="500.00" /><line x2="480.00" style="fill:blue;stroke:blue;" y1="550.00" x1="480.00" id="9495" y2="600.00" /><line x2="550.00" style="fill:blue;stroke:blue;" y1="600.00" x1="480.00" id="9496" y2="600.00" /><line x2="480.00" style="fill:blue;stroke:blue;" y1="600.00" x1="480.00" id="9497" y2="550.00" /><line x2="480.00" style="fill:blue;stroke:blue;" y1="600.00" x1="480.00" id="9498" y2="650.00" /><line x2="480.00" style="fill:blue;stroke:blue;" y1="650.00" x1="480.00" id="9499" y2="600.00" /><line x2="550.00" style="fill:blue;stroke:blue;" y1="100.00" x1="480.00" id="9500" y2="124.50" /><line x2="550.00" style="fill:blue;stroke:blue;" y1="100.00" x1="480.00" id="9501" y2="75.50" /><line x2="450.00" style="fill:blue;stroke:blue;" y1="50.00" x1="500.00" id="9502" y2="20.00" /><line x2="550.00" style="fill:blue;stroke:blue;" y1="50.00" x1="500.00" id="9503" y2="75.50" /><line x2="480.00" style="fill:blue;stroke:blue;" y1="350.00" x1="500.00" id="9504" y2="400.00" /><line x2="500.00" style="fill:blue;stroke:blue;" y1="350.00" x1="500.00" id="9505" y2="300.00" /><line x2="450.00" style="fill:blue;stroke:blue;" y1="350.00" x1="500.00" id="9506" y2="300.00" /><line x2="300.00" style="fill:blue;stroke:blue;" y1="700.00" x1="500.00" id="9507" y2="700.00" /><line x2="600.00" style="fill:blue;stroke:blue;" y1="700.00" x1="500.00" id="9508" y2="750.00" /><line x2="600.00" style="fill:blue;stroke:blue;" y1="700.00" x1="500.00" id="9509" y2="700.00" /><line x2="600.00" style="fill:blue;stroke:blue;" y1="700.00" x1="500.00" id="9510" y2="650.00" /><line x2="580.00" style="fill:blue;stroke:blue;" y1="300.00" x1="500.00" id="9511" y2="300.00" /><line x2="500.00" style="fill:blue;stroke:blue;" y1="300.00" x1="500.00" id="9512" y2="350.00" /><line x2="517.68" style="fill:blue;stroke:blue;" y1="300.00" x1="500.00" id="9513" y2="217.68" /><line x2="552.32" style="fill:blue;stroke:blue;" y1="300.00" x1="500.00" id="9514" y2="252.32" /><line x2="500.00" style="fill:blue;stroke:blue;" y1="217.68" x1="517.68" id="9515" y2="300.00" /><line x2="567.68" style="fill:blue;stroke:blue;" y1="124.50" x1="550.00" id="9516" y2="182.32" /><line x2="480.00" style="fill:blue;stroke:blue;" y1="124.50" x1="550.00" id="9517" y2="100.00" /><line x2="550.00" style="fill:blue;stroke:blue;" y1="124.50" x1="550.00" id="9518" y2="75.50" /><line x2="602.32" style="fill:blue;stroke:blue;" y1="124.50" x1="550.00" id="9519" y2="147.68" /><line x2="480.00" style="fill:blue;stroke:blue;" y1="420.00" x1="550.00" id="9520" y2="400.00" /><line x2="600.00" style="fill:blue;stroke:blue;" y1="420.00" x1="550.00" id="9521" y2="450.00" /><line x2="550.00" style="fill:blue;stroke:blue;" y1="420.00" x1="550.00" id="9522" y2="500.00" /><line x2="550.00" style="fill:blue;stroke:blue;" y1="500.00" x1="550.00" id="9523" y2="420.00" /><line x2="600.00" style="fill:blue;stroke:blue;" y1="500.00" x1="550.00" id="9524" y2="550.00" /><line x2="480.00" style="fill:blue;stroke:blue;" y1="500.00" x1="550.00" id="9525" y2="550.00" /><line x2="550.00" style="fill:blue;stroke:blue;" y1="500.00" x1="550.00" id="9526" y2="550.00" /><line x2="550.00" style="fill:blue;stroke:blue;" y1="550.00" x1="550.00" id="9527" y2="500.00" /><line x2="550.00" style="fill:blue;stroke:blue;" y1="550.00" x1="550.00" id="9528" y2="600.00" /><line x2="600.00" style="fill:blue;stroke:blue;" y1="600.00" x1="550.00" id="9529" y2="550.00" /><line x2="480.00" style="fill:blue;stroke:blue;" y1="600.00" x1="550.00" id="9530" y2="600.00" /><line x2="550.00" style="fill:blue;stroke:blue;" y1="600.00" x1="550.00" id="9531" y2="550.00" /><line x2="550.00" style="fill:blue;stroke:blue;" y1="75.50" x1="550.00" id="9532" y2="124.50" /><line x2="480.00" style="fill:blue;stroke:blue;" y1="75.50" x1="550.00" id="9533" y2="100.00" /><line x2="500.00" style="fill:blue;stroke:blue;" y1="75.50" x1="550.00" id="9534" y2="50.00" /><line x2="650.00" style="fill:blue;stroke:blue;" y1="75.50" x1="550.00" id="9535" y2="80.00" /><line x2="500.00" style="fill:blue;stroke:blue;" y1="252.32" x1="552.32" id="9536" y2="300.00" /><line x2="500.00" style="fill:blue;stroke:blue;" y1="300.00" x1="580.00" id="9537" y2="300.00" /><line x2="650.00" style="fill:blue;stroke:blue;" y1="182.32" x1="567.68" id="9538" y2="220.00" /><line x2="550.00" style="fill:blue;stroke:blue;" y1="182.32" x1="567.68" id="9539" y2="124.50" /><line x2="602.32" style="fill:blue;stroke:blue;" y1="182.32" x1="567.68" id="9540" y2="147.68" /><line x2="600.00" style="fill:blue;stroke:blue;" y1="700.00" x1="600.00" id="9541" y2="750.00" /><line x2="600.00" style="fill:blue;stroke:blue;" y1="700.00" x1="600.00" id="9542" y2="650.00" /><line x2="500.00" style="fill:blue;stroke:blue;" y1="700.00" x1="600.00" id="9543" y2="700.00" /><line x2="670.00" style="fill:blue;stroke:blue;" y1="650.00" x1="600.00" id="9544" y2="700.00" /><line x2="600.00" style="fill:blue;stroke:blue;" y1="650.00" x1="600.00" id="9545" y2="700.00" /><line x2="500.00" style="fill:blue;stroke:blue;" y1="650.00" x1="600.00" id="9546" y2="700.00" /><line x2="670.00" style="fill:blue;stroke:blue;" y1="750.00" x1="600.00" id="9547" y2="700.00" /><line x2="700.00" style="fill:blue;stroke:blue;" y1="750.00" x1="600.00" id="9548" y2="750.00" /><line x2="600.00" style="fill:blue;stroke:blue;" y1="750.00" x1="600.00" id="9549" y2="700.00" /><line x2="500.00" style="fill:blue;stroke:blue;" y1="750.00" x1="600.00" id="9550" y2="700.00" /><line x2="567.68" style="fill:blue;stroke:blue;" y1="147.68" x1="602.32" id="9551" y2="182.32" /><line x2="550.00" style="fill:blue;stroke:blue;" y1="147.68" x1="602.32" id="9552" y2="124.50" /><line x2="550.00" style="fill:blue;stroke:blue;" y1="550.00" x1="600.00" id="9553" y2="500.00" /><line x2="600.00" style="fill:blue;stroke:blue;" y1="550.00" x1="600.00" id="9554" y2="600.00" /><line x2="550.00" style="fill:blue;stroke:blue;" y1="550.00" x1="600.00" id="9555" y2="600.00" /><line x2="600.00" style="fill:blue;stroke:blue;" y1="600.00" x1="600.00" id="9556" y2="550.00" /><line x2="550.00" style="fill:blue;stroke:blue;" y1="450.00" x1="600.00" id="9557" y2="420.00" /><line x2="680.00" style="fill:blue;stroke:blue;" y1="450.00" x1="600.00" id="9558" y2="450.00" /><line x2="550.00" style="fill:blue;stroke:blue;" y1="80.00" x1="650.00" id="9559" y2="75.50" /><line x2="700.00" style="fill:blue;stroke:blue;" y1="80.00" x1="650.00" id="9560" y2="80.00" /><line x2="680.00" style="fill:blue;stroke:blue;" y1="220.00" x1="650.00" id="9561" y2="300.00" /><line x2="567.68" style="fill:blue;stroke:blue;" y1="220.00" x1="650.00" id="9562" y2="182.32" /><line x2="680.00" style="fill:blue;stroke:blue;" y1="400.00" x1="650.00" id="9563" y2="450.00" /><line x2="650.00" style="fill:blue;stroke:blue;" y1="400.00" x1="650.00" id="9564" y2="350.00" /><line x2="580.00" style="fill:blue;stroke:blue;" y1="400.00" x1="650.00" id="9565" y2="350.00" /><line x2="650.00" style="fill:blue;stroke:blue;" y1="350.00" x1="650.00" id="9566" y2="400.00" /><line x2="720.00" style="fill:blue;stroke:blue;" y1="350.00" x1="650.00" id="9567" y2="350.00" /><line x2="680.00" style="fill:blue;stroke:blue;" y1="350.00" x1="650.00" id="9568" y2="300.00" /><line x2="730.00" style="fill:blue;stroke:blue;" y1="700.00" x1="670.00" id="9569" y2="640.00" /><line x2="600.00" style="fill:blue;stroke:blue;" y1="700.00" x1="670.00" id="9570" y2="750.00" /><line x2="600.00" style="fill:blue;stroke:blue;" y1="700.00" x1="670.00" id="9571" y2="650.00" /><line x2="720.00" style="fill:blue;stroke:blue;" y1="300.00" x1="680.00" id="9572" y2="350.00" /><line x2="650.00" style="fill:blue;stroke:blue;" y1="300.00" x1="680.00" id="9573" y2="350.00" /><line x2="720.00" style="fill:blue;stroke:blue;" y1="300.00" x1="680.00" id="9574" y2="250.00" /><line x2="650.00" style="fill:blue;stroke:blue;" y1="300.00" x1="680.00" id="9575" y2="220.00" /><line x2="650.00" style="fill:blue;stroke:blue;" y1="450.00" x1="680.00" id="9576" y2="400.00" /><line x2="600.00" style="fill:blue;stroke:blue;" y1="450.00" x1="680.00" id="9577" y2="450.00" /><line x2="750.00" style="fill:blue;stroke:blue;" y1="450.00" x1="680.00" id="9578" y2="450.00" /><line x2="800.00" style="fill:blue;stroke:blue;" y1="750.00" x1="700.00" id="9579" y2="750.00" /><line x2="600.00" style="fill:blue;stroke:blue;" y1="750.00" x1="700.00" id="9580" y2="750.00" /><line x2="790.00" style="fill:blue;stroke:blue;" y1="640.00" x1="730.00" id="9581" y2="600.00" /><line x2="670.00" style="fill:blue;stroke:blue;" y1="640.00" x1="730.00" id="9582" y2="700.00" /><line x2="650.00" style="fill:blue;stroke:blue;" y1="80.00" x1="700.00" id="9583" y2="80.00" /><line x2="780.00" style="fill:blue;stroke:blue;" y1="80.00" x1="700.00" id="9584" y2="75.50" /><line x2="740.00" style="fill:blue;stroke:blue;" y1="80.00" x1="700.00" id="9585" y2="20.00" /><line x2="680.00" style="fill:blue;stroke:blue;" y1="250.00" x1="720.00" id="9586" y2="300.00" /><line x2="780.00" style="fill:blue;stroke:blue;" y1="250.00" x1="720.00" id="9587" y2="250.00" /><line x2="650.00" style="fill:blue;stroke:blue;" y1="350.00" x1="720.00" id="9588" y2="350.00" /><line x2="680.00" style="fill:blue;stroke:blue;" y1="350.00" x1="720.00" id="9589" y2="300.00" /><line x2="780.00" style="fill:blue;stroke:blue;" y1="350.00" x1="720.00" id="9590" y2="350.00" /><line x2="780.00" style="fill:blue;stroke:blue;" y1="350.00" x1="720.00" id="9591" y2="300.00" /><line x2="700.00" style="fill:blue;stroke:blue;" y1="20.00" x1="740.00" id="9592" y2="80.00" /><line x2="780.00" style="fill:blue;stroke:blue;" y1="20.00" x1="740.00" id="9593" y2="75.50" /><line x2="680.00" style="fill:blue;stroke:blue;" y1="450.00" x1="750.00" id="9594" y2="450.00" /><line x2="780.00" style="fill:blue;stroke:blue;" y1="450.00" x1="750.00" id="9595" y2="500.00" /><line x2="820.00" style="fill:blue;stroke:blue;" y1="450.00" x1="750.00" id="9596" y2="450.00" /><line x2="780.00" style="fill:blue;stroke:blue;" y1="450.00" x1="750.00" id="9597" y2="400.00" /><line x2="900.00" style="fill:blue;stroke:blue;" y1="600.00" x1="790.00" id="9598" y2="550.00" /><line x2="880.00" style="fill:blue;stroke:blue;" y1="600.00" x1="790.00" id="9599" y2="610.00" /><line x2="730.00" style="fill:blue;stroke:blue;" y1="600.00" x1="790.00" id="9600" y2="640.00" /><line x2="750.00" style="fill:blue;stroke:blue;" y1="600.00" x1="790.00" id="9601" y2="550.00" /><line x2="790.00" style="fill:blue;stroke:blue;" y1="550.00" x1="750.00" id="9602" y2="600.00" /><line x2="780.00" style="fill:blue;stroke:blue;" y1="550.00" x1="750.00" id="9603" y2="500.00" /><line x2="750.00" style="fill:blue;stroke:blue;" y1="500.00" x1="780.00" id="9604" y2="550.00" /><line x2="750.00" style="fill:blue;stroke:blue;" y1="500.00" x1="780.00" id="9605" y2="450.00" /><line x2="820.00" style="fill:blue;stroke:blue;" y1="500.00" x1="780.00" id="9606" y2="450.00" /><line x2="780.00" style="fill:blue;stroke:blue;" y1="75.50" x1="780.00" id="9607" y2="124.50" /><line x2="700.00" style="fill:blue;stroke:blue;" y1="75.50" x1="780.00" id="9608" y2="80.00" /><line x2="820.00" style="fill:blue;stroke:blue;" y1="75.50" x1="780.00" id="9609" y2="20.00" /><line x2="740.00" style="fill:blue;stroke:blue;" y1="75.50" x1="780.00" id="9610" y2="20.00" /><line x2="850.00" style="fill:blue;stroke:blue;" y1="75.50" x1="780.00" id="9611" y2="80.00" /><line x2="720.00" style="fill:blue;stroke:blue;" y1="250.00" x1="780.00" id="9612" y2="250.00" /><line x2="780.00" style="fill:blue;stroke:blue;" y1="250.00" x1="780.00" id="9613" y2="300.00" /><line x2="720.00" style="fill:blue;stroke:blue;" y1="350.00" x1="780.00" id="9614" y2="350.00" /><line x2="780.00" style="fill:blue;stroke:blue;" y1="350.00" x1="780.00" id="9615" y2="400.00" /><line x2="850.00" style="fill:blue;stroke:blue;" y1="350.00" x1="780.00" id="9616" y2="400.00" /><line x2="780.00" style="fill:blue;stroke:blue;" y1="400.00" x1="780.00" id="9617" y2="350.00" /><line x2="750.00" style="fill:blue;stroke:blue;" y1="400.00" x1="780.00" id="9618" y2="450.00" /><line x2="820.00" style="fill:blue;stroke:blue;" y1="400.00" x1="780.00" id="9619" y2="450.00" /><line x2="850.00" style="fill:blue;stroke:blue;" y1="400.00" x1="780.00" id="9620" y2="400.00" /><line x2="882.32" style="fill:blue;stroke:blue;" y1="300.00" x1="780.00" id="9621" y2="282.32" /><line x2="847.68" style="fill:blue;stroke:blue;" y1="300.00" x1="780.00" id="9622" y2="247.68" /><line x2="720.00" style="fill:blue;stroke:blue;" y1="300.00" x1="780.00" id="9623" y2="350.00" /><line x2="780.00" style="fill:blue;stroke:blue;" y1="300.00" x1="780.00" id="9624" y2="250.00" /><line x2="880.00" style="fill:blue;stroke:blue;" y1="300.00" x1="780.00" id="9625" y2="350.00" /><line x2="780.00" style="fill:blue;stroke:blue;" y1="20.00" x1="820.00" id="9626" y2="75.50" /><line x2="850.00" style="fill:blue;stroke:blue;" y1="20.00" x1="820.00" id="9627" y2="80.00" /><line x2="780.00" style="fill:blue;stroke:blue;" y1="450.00" x1="820.00" id="9628" y2="500.00" /><line x2="750.00" style="fill:blue;stroke:blue;" y1="450.00" x1="820.00" id="9629" y2="450.00" /><line x2="780.00" style="fill:blue;stroke:blue;" y1="450.00" x1="820.00" id="9630" y2="400.00" /><line x2="900.00" style="fill:blue;stroke:blue;" y1="610.00" x1="880.00" id="9631" y2="550.00" /><line x2="790.00" style="fill:blue;stroke:blue;" y1="610.00" x1="880.00" id="9632" y2="600.00" /><line x2="780.00" style="fill:blue;stroke:blue;" y1="80.00" x1="850.00" id="9633" y2="75.50" /><line x2="820.00" style="fill:blue;stroke:blue;" y1="80.00" x1="850.00" id="9634" y2="20.00" /><line x2="780.00" style="fill:blue;stroke:blue;" y1="400.00" x1="850.00" id="9635" y2="350.00" /><line x2="780.00" style="fill:blue;stroke:blue;" y1="400.00" x1="850.00" id="9636" y2="400.00" /><line x2="950.00" style="fill:blue;stroke:blue;" y1="400.00" x1="850.00" id="9637" y2="400.00" /><line x2="780.00" style="fill:blue;stroke:blue;" y1="350.00" x1="880.00" id="9638" y2="300.00" /><line x2="950.00" style="fill:blue;stroke:blue;" y1="550.00" x1="900.00" id="9639" y2="500.00" /><line x2="790.00" style="fill:blue;stroke:blue;" y1="550.00" x1="900.00" id="9640" y2="600.00" /><line x2="880.00" style="fill:blue;stroke:blue;" y1="550.00" x1="900.00" id="9641" y2="610.00" /><line x2="1000.00" style="fill:blue;stroke:blue;" y1="100.00" x1="950.00" id="9642" y2="100.00" /><line x2="850.00" style="fill:blue;stroke:blue;" y1="400.00" x1="950.00" id="9643" y2="400.00" /><line x2="980.00" style="fill:blue;stroke:blue;" y1="500.00" x1="950.00" id="9644" y2="450.00" /><line x2="900.00" style="fill:blue;stroke:blue;" y1="500.00" x1="950.00" id="9645" y2="550.00" /><line x2="1000.00" style="fill:blue;stroke:blue;" y1="450.00" x1="980.00" id="9646" y2="350.00" /><line x2="950.00" style="fill:blue;stroke:blue;" y1="450.00" x1="980.00" id="9647" y2="500.00" /><line x2="1000.00" style="fill:blue;stroke:blue;" y1="100.00" x1="1000.00" id="9648" y2="150.00" /><line x2="950.00" style="fill:blue;stroke:blue;" y1="100.00" x1="1000.00" id="9649" y2="100.00" /><line x2="1000.00" style="fill:blue;stroke:blue;" y1="100.00" x1="1000.00" id="9650" y2="20.00" /><line x2="1000.00" style="fill:blue;stroke:blue;" y1="150.00" x1="1000.00" id="9651" y2="100.00" /><line x2="1000.00" style="fill:blue;stroke:blue;" y1="150.00" x1="1000.00" id="9652" y2="200.00" /><line x2="1000.00" style="fill:blue;stroke:blue;" y1="200.00" x1="1000.00" id="9653" y2="150.00" /><line x2="1000.00" style="fill:blue;stroke:blue;" y1="200.00" x1="1000.00" id="9654" y2="250.00" /><line x2="1000.00" style="fill:blue;stroke:blue;" y1="250.00" x1="1000.00" id="9655" y2="300.00" /><line x2="1000.00" style="fill:blue;stroke:blue;" y1="250.00" x1="1000.00" id="9656" y2="200.00" /><line x2="920.00" style="fill:blue;stroke:blue;" y1="250.00" x1="1000.00" id="9657" y2="200.00" /><line x2="1000.00" style="fill:blue;stroke:blue;" y1="300.00" x1="1000.00" id="9658" y2="250.00" /><line x2="1000.00" style="fill:blue;stroke:blue;" y1="300.00" x1="1000.00" id="9659" y2="350.00" /><line x2="1000.00" style="fill:blue;stroke:blue;" y1="350.00" x1="1000.00" id="9660" y2="300.00" /><line x2="980.00" style="fill:blue;stroke:blue;" y1="350.00" x1="1000.00" id="9661" y2="450.00" /><line x2="150.00" style="fill:blue;stroke:blue;" y1="50.00" x1="80.00" id="9662" y2="100.00" /><line x2="80.00" style="fill:blue;stroke:blue;" y1="378.09" x1="100.96" id="9663" y2="300.00" /><line x2="220.00" style="fill:blue;stroke:blue;" y1="700.00" x1="120.00" id="9664" y2="700.00" /><line x2="160.00" style="fill:blue;stroke:blue;" y1="300.00" x1="220.00" id="9665" y2="300.00" /><line x2="500.00" style="fill:blue;stroke:blue;" y1="20.00" x1="450.00" id="9666" y2="50.00" /><line x2="450.00" style="fill:blue;stroke:blue;" y1="200.00" x1="450.00" id="9667" y2="300.00" /><line x2="650.00" style="fill:blue;stroke:blue;" y1="350.00" x1="580.00" id="9668" y2="400.00" /><line x2="700.00" style="fill:blue;stroke:blue;" y1="750.00" x1="800.00" id="9669" y2="750.00" /><line x2="780.00" style="fill:blue;stroke:blue;" y1="124.50" x1="780.00" id="9670" y2="75.50" /><line x2="882.32" style="fill:blue;stroke:blue;" y1="247.68" x1="847.68" id="9671" y2="282.32" /><line x2="780.00" style="fill:blue;stroke:blue;" y1="247.68" x1="847.68" id="9672" y2="300.00" /><line x2="847.68" style="fill:blue;stroke:blue;" y1="282.32" x1="882.32" id="9673" y2="247.68" /><line x2="780.00" style="fill:blue;stroke:blue;" y1="282.32" x1="882.32" id="9674" y2="300.00" /><line x2="1000.00" style="fill:blue;stroke:blue;" y1="200.00" x1="920.00" id="9675" y2="250.00" /><line x2="1000.00" style="fill:blue;stroke:blue;" y1="20.00" x1="1000.00" id="9676" y2="100.00" /></svg>
