<?xml version="1.0" standalone="yes"?><!DOCTYPE svg PUBLIC "-//W3C//DTD SVG 1.1//EN" "http://www.w3.org/Graphics/SVG/1.1/DTD/svg11.dtd"[]><svg width="1050.00" height="800.00" id="6521" xmlns="http://www.w3.org/2000/svg" xmlns:xlink="http://www.w3.org/1999/xlink"><rect Type="system" x="50.00" id="6522" height="5.00" width="5.00" Name="尼德博拉" ID="30003006" Region="破碎" y="370.00" /><text y="370.00" x="50.00" id="6523">尼德博拉</text><rect Type="system" x="50.00" id="6525" height="5.00" width="5.00" Name="乌勒拉" ID="30003004" Region="破碎" y="320.00" /><text y="320.00" x="50.00" id="6526">乌勒拉</text><rect Type="system" x="50.00" id="6528" height="5.00" width="5.00" Name="帕皮斯" ID="30003008" Region="破碎" y="420.00" /><text y="420.00" x="50.00" id="6529">帕皮斯</text><rect Type="system" x="50.00" id="6531" height="5.00" width="5.00" Name="法克顿" ID="30003002" Region="破碎" y="270.00" /><text y="270.00" x="50.00" id="6532">法克顿</text><rect Type="system" x="150.00" id="6534" height="5.00" width="5.00" Name="埃尔维伊" ID="30003007" Region="破碎" y="420.00" /><text y="420.00" x="150.00" id="6535">埃尔维伊</text><rect Type="system" x="150.00" id="6537" height="5.00" width="5.00" Name="米里" ID="30003001" Region="破碎" y="270.00" /><text y="270.00" x="150.00" id="6538">米里</text><rect Type="system" x="150.00" id="6540" height="5.00" width="5.00" Name="赫勒南" ID="30003003" Region="破碎" y="320.00" /><text y="320.00" x="150.00" id="6541">赫勒南</text><rect Type="system" x="150.00" id="6543" height="5.00" width="5.00" Name="乌克提亚德" ID="30003005" Region="破碎" y="370.00" /><text y="370.00" x="150.00" id="6544">乌克提亚德</text><rect Type="system" x="180.00" id="6546" height="5.00" width="5.00" Name="哈马" ID="30002981" Region="破碎" y="100.00" /><text y="100.00" x="180.00" id="6547">哈马</text><rect Type="system" x="160.00" id="6549" height="5.00" width="5.00" Name="乌萨德" ID="30002987" Region="破碎" y="710.00" /><text y="710.00" x="160.00" id="6550">乌萨德</text><rect Type="system" x="210.00" id="6552" height="5.00" width="5.00" Name="埃拉亚尔" ID="30002977" Region="破碎" y="190.00" /><text y="190.00" x="210.00" id="6553">埃拉亚尔</text><rect Type="system" x="270.00" id="6555" height="5.00" width="5.00" Name="阿斯戈德" ID="30002978" Region="破碎" y="130.00" /><text y="130.00" x="270.00" id="6556">阿斯戈德</text><rect Type="system" x="250.00" id="6558" height="5.00" width="5.00" Name="塔拉燃" ID="30002979" Region="破碎" y="80.00" /><text y="80.00" x="250.00" id="6559">塔拉燃</text><rect Type="system" x="250.00" id="6561" height="5.00" width="5.00" Name="坦卡拉" ID="30003000" Region="破碎" y="580.00" /><text y="580.00" x="250.00" id="6562">坦卡拉</text><rect Type="system" x="230.00" id="6564" height="5.00" width="5.00" Name="伊巴什" ID="30002984" Region="破碎" y="710.00" /><text y="710.00" x="230.00" id="6565">伊巴什</text><rect Type="system" x="300.00" id="6567" height="5.00" width="5.00" Name="拉巴比" ID="30002976" Region="破碎" y="210.00" /><text y="210.00" x="300.00" id="6568">拉巴比</text><rect Type="system" x="350.00" id="6570" height="5.00" width="5.00" Name="索姗" ID="30002980" Region="破碎" y="120.00" /><text y="120.00" x="350.00" id="6571">索姗</text><rect Type="system" x="330.00" id="6573" height="5.00" width="5.00" Name="罗什扎尔" ID="30002975" Region="破碎" y="250.00" /><text y="250.00" x="330.00" id="6574">罗什扎尔</text><rect Type="system" x="310.00" id="6576" height="5.00" width="5.00" Name="伊茨亚米" ID="30002985" Region="破碎" y="690.00" /><text y="690.00" x="310.00" id="6577">伊茨亚米</text><rect Type="system" x="310.00" id="6579" height="5.00" width="5.00" Name="苏萨特" ID="30002983" Region="破碎" y="740.00" /><text y="740.00" x="310.00" id="6580">苏萨特</text><rect Type="system" x="380.00" id="6582" height="5.00" width="5.00" Name="莎斯塔尔" ID="30002999" Region="破碎" y="630.00" /><text y="630.00" x="380.00" id="6583">莎斯塔尔</text><rect Type="system" x="380.00" id="6585" height="5.00" width="5.00" Name="娜伊尔" ID="30002995" Region="破碎" y="500.00" /><text y="500.00" x="380.00" id="6586">娜伊尔</text><rect Type="system" x="420.96" id="6588" height="5.00" width="5.00" Name="塔辛纳茨" ID="30002966" Region="破碎" y="321.91" /><text y="321.91" x="420.96" id="6589">塔辛纳茨</text><rect Type="system" x="420.00" id="6591" height="5.00" width="5.00" Name="蒂尔拉" ID="30002967" Region="破碎" y="380.00" /><text y="380.00" x="420.00" id="6592">蒂尔拉</text><rect Type="system" x="440.00" id="6594" height="5.00" width="5.00" Name="下德比" ID="30002996" Region="破碎" y="530.00" /><text y="530.00" x="440.00" id="6595">下德比</text><rect Type="system" x="390.00" id="6597" height="5.00" width="5.00" Name="拉哈达隆" ID="30002982" Region="破碎" y="710.00" /><text y="710.00" x="390.00" id="6598">拉哈达隆</text><rect Type="system" x="450.00" id="6600" height="5.00" width="5.00" Name="俄扎拉" ID="30002962" Region="破碎" y="50.00" /><text y="50.00" x="450.00" id="6601">俄扎拉</text><rect Type="system" x="450.00" id="6603" height="5.00" width="5.00" Name="阿尔扎德" ID="30002960" Region="破碎" y="100.00" /><text y="100.00" x="450.00" id="6604">阿尔扎德</text><rect Type="system" x="450.00" id="6606" height="5.00" width="5.00" Name="蒙多利" ID="30002986" Region="破碎" y="660.00" /><text y="660.00" x="450.00" id="6607">蒙多利</text><rect Type="system" x="460.00" id="6609" height="5.00" width="5.00" Name="恩诺姆" ID="30002997" Region="破碎" y="590.00" /><text y="590.00" x="460.00" id="6610">恩诺姆</text><rect Type="system" x="520.00" id="6612" height="5.00" width="5.00" Name="切文卡" ID="30002965" Region="破碎" y="320.00" /><text y="320.00" x="520.00" id="6613">切文卡</text><rect Type="system" x="520.00" id="6615" height="5.00" width="5.00" Name="迪塔尔" ID="30002968" Region="破碎" y="375.50" /><text y="375.50" x="520.00" id="6616">迪塔尔</text><rect Type="system" x="520.00" id="6618" height="5.00" width="5.00" Name="西非拉尔" ID="30002959" Region="破碎" y="100.00" /><text y="100.00" x="520.00" id="6619">西非拉尔</text><rect Type="system" x="520.00" id="6621" height="5.00" width="5.00" Name="欧耶曼" ID="30002961" Region="破碎" y="150.00" /><text y="150.00" x="520.00" id="6622">欧耶曼</text><rect Type="system" x="520.00" id="6624" height="5.00" width="5.00" Name="上德比" ID="30002998" Region="破碎" y="560.00" /><text y="560.00" x="520.00" id="6625">上德比</text><rect Type="system" x="580.00" id="6627" height="5.00" width="5.00" Name="拉迪亚哈" ID="30002989" Region="破碎" y="500.00" /><text y="500.00" x="580.00" id="6628">拉迪亚哈</text><rect Type="system" x="580.00" id="6630" height="5.00" width="5.00" Name="纳克特勒" ID="30002988" Region="破碎" y="580.00" /><text y="580.00" x="580.00" id="6631">纳克特勒</text><rect Type="system" x="580.00" id="6633" height="5.00" width="5.00" Name="哈克什马" ID="30002990" Region="破碎" y="630.00" /><text y="630.00" x="580.00" id="6634">哈克什马</text><rect Type="system" x="600.00" id="6636" height="5.00" width="5.00" Name="若尔" ID="30002958" Region="破碎" y="100.00" /><text y="100.00" x="600.00" id="6637">若尔</text><rect Type="system" x="600.00" id="6639" height="5.00" width="5.00" Name="茨维" ID="30002957" Region="破碎" y="150.00" /><text y="150.00" x="600.00" id="6640">茨维</text><rect Type="system" x="620.00" id="6642" height="5.00" width="5.00" Name="厄瑟斯坎马" ID="30002964" Region="破碎" y="320.00" /><text y="320.00" x="620.00" id="6643">厄瑟斯坎马</text><rect Type="system" x="650.00" id="6645" height="5.00" width="5.00" Name="尤德拉" ID="30002991" Region="破碎" y="500.00" /><text y="500.00" x="650.00" id="6646">尤德拉</text><rect Type="system" x="700.00" id="6648" height="5.00" width="5.00" Name="瑞瓦耶德" ID="30002993" Region="破碎" y="600.00" /><text y="600.00" x="700.00" id="6649">瑞瓦耶德</text><rect Type="system" x="700.00" id="6651" height="5.00" width="5.00" Name="欧丁" ID="30002963" Region="破碎" y="300.00" /><text y="300.00" x="700.00" id="6652">欧丁</text><rect Type="system" x="750.00" id="6654" height="5.00" width="5.00" Name="阿克苏" ID="30002992" Region="破碎" y="500.00" /><text y="500.00" x="750.00" id="6655">阿克苏</text><rect Type="system" x="750.00" id="6657" height="5.00" width="5.00" Name="哈提" ID="30002994" Region="破碎" y="580.00" /><text y="580.00" x="750.00" id="6658">哈提</text><rect Type="system" x="750.00" id="6660" height="5.00" width="5.00" Name="欧西德" ID="30002970" Region="破碎" y="250.00" /><text y="250.00" x="750.00" id="6661">欧西德</text><rect Type="system" x="800.00" id="6663" height="5.00" width="5.00" Name="萨索逖库" ID="30002971" Region="破碎" y="220.00" /><text y="220.00" x="800.00" id="6664">萨索逖库</text><rect Type="system" x="798.92" id="6666" height="5.00" width="5.00" Name="莫哈托尔" ID="30002974" Region="破碎" y="121.57" /><text y="121.57" x="798.92" id="6667">莫哈托尔</text><rect Type="system" x="800.01" id="6669" height="5.00" width="5.00" Name="戈忒" ID="30002972" Region="破碎" y="170.56" /><text y="170.56" x="800.01" id="6670">戈忒</text><rect Type="system" x="821.07" id="6672" height="5.00" width="5.00" Name="尤洱丹" ID="30002969" Region="破碎" y="77.87" /><text y="77.87" x="821.07" id="6673">尤洱丹</text><rect Type="system" x="880.00" id="6675" height="5.00" width="5.00" Name="里苏德尔" ID="30002973" Region="破碎" y="50.00" /><text y="50.00" x="880.00" id="6676">里苏德尔</text><rect Type="system" x="399.04" id="6678" height="5.00" width="5.00" Name="霍拉" ID="30003067" Region="幽暗之域" y="278.09" /><text y="278.09" x="399.04" id="6679">霍拉</text><rect Type="system" x="420.00" id="6681" height="5.00" width="5.00" Name="欧约纳塔" ID="30003088" Region="幽暗之域" y="180.00" /><text y="180.00" x="420.00" id="6682">欧约纳塔</text><rect Type="system" x="430.00" id="6684" height="5.00" width="5.00" Name="纳卡赫" ID="30000072" Region="德里克" y="760.00" /><text y="760.00" x="430.00" id="6685">纳卡赫</text><rect Type="system" x="500.00" id="6687" height="5.00" width="5.00" Name="瓦尔蒂" ID="30002538" Region="西玛特尔" y="20.00" /><text y="20.00" x="500.00" id="6688">瓦尔蒂</text><rect Type="system" x="520.00" id="6690" height="5.00" width="5.00" Name="KBP7-G" ID="30003729" Region="普罗维登斯" y="424.50" /><text y="424.50" x="520.00" id="6691">KBP7-G</text><rect Type="system" x="600.00" id="6693" height="5.00" width="5.00" Name="拉马亚" ID="30003063" Region="幽暗之域" y="200.00" /><text y="200.00" x="600.00" id="6694">拉马亚</text><rect Type="system" x="600.00" id="6696" height="5.00" width="5.00" Name="卡美拉" ID="30003069" Region="幽暗之域" y="250.00" /><text y="250.00" x="600.00" id="6697">卡美拉</text><rect Type="system" x="820.00" id="6699" height="5.00" width="5.00" Name="加尔克楞" ID="30003080" Region="幽暗之域" y="550.00" /><text y="550.00" x="820.00" id="6700">加尔克楞</text><rect Type="system" x="850.00" id="6702" height="5.00" width="5.00" Name="逾赫利亚" ID="30003545" Region="多美" y="660.00" /><text y="660.00" x="850.00" id="6703">逾赫利亚</text><rect Type="system" x="950.00" id="6705" height="5.00" width="5.00" Name="拉什希亚" ID="30000002" Region="德里克" y="20.00" /><text y="20.00" x="950.00" id="6706">拉什希亚</text><line style="stroke:blue;fill:blue;" id="6708" x2="50.00" x1="50.00" y1="370.00" y2="320.00" /><line style="stroke:blue;fill:blue;" id="6709" x2="50.00" x1="50.00" y1="370.00" y2="420.00" /><line style="stroke:blue;fill:blue;" id="6710" x2="50.00" x1="50.00" y1="320.00" y2="270.00" /><line style="stroke:blue;fill:blue;" id="6711" x2="150.00" x1="50.00" y1="320.00" y2="320.00" /><line style="stroke:blue;fill:blue;" id="6712" x2="50.00" x1="50.00" y1="320.00" y2="370.00" /><line style="stroke:blue;fill:blue;" id="6713" x2="50.00" x1="50.00" y1="420.00" y2="370.00" /><line style="stroke:blue;fill:blue;" id="6714" x2="150.00" x1="50.00" y1="420.00" y2="420.00" /><line style="stroke:blue;fill:blue;" id="6715" x2="150.00" x1="50.00" y1="270.00" y2="270.00" /><line style="stroke:blue;fill:blue;" id="6716" x2="50.00" x1="50.00" y1="270.00" y2="320.00" /><line style="stroke:blue;fill:blue;" id="6717" x2="150.00" x1="150.00" y1="420.00" y2="370.00" /><line style="stroke:blue;fill:blue;" id="6718" x2="50.00" x1="150.00" y1="420.00" y2="420.00" /><line style="stroke:blue;fill:blue;" id="6719" x2="180.00" x1="150.00" y1="270.00" y2="100.00" /><line style="stroke:blue;fill:blue;" id="6720" x2="50.00" x1="150.00" y1="270.00" y2="270.00" /><line style="stroke:blue;fill:blue;" id="6721" x2="150.00" x1="150.00" y1="270.00" y2="320.00" /><line style="stroke:blue;fill:blue;" id="6722" x2="150.00" x1="150.00" y1="320.00" y2="270.00" /><line style="stroke:blue;fill:blue;" id="6723" x2="50.00" x1="150.00" y1="320.00" y2="320.00" /><line style="stroke:blue;fill:blue;" id="6724" x2="150.00" x1="150.00" y1="320.00" y2="370.00" /><line style="stroke:blue;fill:blue;" id="6725" x2="150.00" x1="150.00" y1="370.00" y2="320.00" /><line style="stroke:blue;fill:blue;" id="6726" x2="150.00" x1="150.00" y1="370.00" y2="420.00" /><line style="stroke:blue;fill:blue;" id="6727" x2="210.00" x1="180.00" y1="100.00" y2="190.00" /><line style="stroke:blue;fill:blue;" id="6728" x2="270.00" x1="180.00" y1="100.00" y2="130.00" /><line style="stroke:blue;fill:blue;" id="6729" x2="250.00" x1="180.00" y1="100.00" y2="80.00" /><line style="stroke:blue;fill:blue;" id="6730" x2="150.00" x1="180.00" y1="100.00" y2="270.00" /><line style="stroke:blue;fill:blue;" id="6731" x2="230.00" x1="160.00" y1="710.00" y2="710.00" /><line style="stroke:blue;fill:blue;" id="6732" x2="300.00" x1="210.00" y1="190.00" y2="210.00" /><line style="stroke:blue;fill:blue;" id="6733" x2="270.00" x1="210.00" y1="190.00" y2="130.00" /><line style="stroke:blue;fill:blue;" id="6734" x2="180.00" x1="210.00" y1="190.00" y2="100.00" /><line style="stroke:blue;fill:blue;" id="6735" x2="300.00" x1="270.00" y1="130.00" y2="210.00" /><line style="stroke:blue;fill:blue;" id="6736" x2="210.00" x1="270.00" y1="130.00" y2="190.00" /><line style="stroke:blue;fill:blue;" id="6737" x2="250.00" x1="270.00" y1="130.00" y2="80.00" /><line style="stroke:blue;fill:blue;" id="6738" x2="350.00" x1="270.00" y1="130.00" y2="120.00" /><line style="stroke:blue;fill:blue;" id="6739" x2="180.00" x1="270.00" y1="130.00" y2="100.00" /><line style="stroke:blue;fill:blue;" id="6740" x2="450.00" x1="250.00" y1="80.00" y2="100.00" /><line style="stroke:blue;fill:blue;" id="6741" x2="270.00" x1="250.00" y1="80.00" y2="130.00" /><line style="stroke:blue;fill:blue;" id="6742" x2="350.00" x1="250.00" y1="80.00" y2="120.00" /><line style="stroke:blue;fill:blue;" id="6743" x2="180.00" x1="250.00" y1="80.00" y2="100.00" /><line style="stroke:blue;fill:blue;" id="6744" x2="380.00" x1="250.00" y1="580.00" y2="630.00" /><line style="stroke:blue;fill:blue;" id="6745" x2="310.00" x1="230.00" y1="710.00" y2="740.00" /><line style="stroke:blue;fill:blue;" id="6746" x2="310.00" x1="230.00" y1="710.00" y2="690.00" /><line style="stroke:blue;fill:blue;" id="6747" x2="160.00" x1="230.00" y1="710.00" y2="710.00" /><line style="stroke:blue;fill:blue;" id="6748" x2="330.00" x1="300.00" y1="210.00" y2="250.00" /><line style="stroke:blue;fill:blue;" id="6749" x2="210.00" x1="300.00" y1="210.00" y2="190.00" /><line style="stroke:blue;fill:blue;" id="6750" x2="270.00" x1="300.00" y1="210.00" y2="130.00" /><line style="stroke:blue;fill:blue;" id="6751" x2="270.00" x1="350.00" y1="120.00" y2="130.00" /><line style="stroke:blue;fill:blue;" id="6752" x2="250.00" x1="350.00" y1="120.00" y2="80.00" /><line style="stroke:blue;fill:blue;" id="6753" x2="420.00" x1="350.00" y1="120.00" y2="180.00" /><line style="stroke:blue;fill:blue;" id="6754" x2="300.00" x1="330.00" y1="250.00" y2="210.00" /><line style="stroke:blue;fill:blue;" id="6755" x2="399.04" x1="330.00" y1="250.00" y2="278.09" /><line style="stroke:blue;fill:blue;" id="6756" x2="390.00" x1="310.00" y1="690.00" y2="710.00" /><line style="stroke:blue;fill:blue;" id="6757" x2="230.00" x1="310.00" y1="690.00" y2="710.00" /><line style="stroke:blue;fill:blue;" id="6758" x2="390.00" x1="310.00" y1="740.00" y2="710.00" /><line style="stroke:blue;fill:blue;" id="6759" x2="230.00" x1="310.00" y1="740.00" y2="710.00" /><line style="stroke:blue;fill:blue;" id="6760" x2="580.00" x1="380.00" y1="630.00" y2="630.00" /><line style="stroke:blue;fill:blue;" id="6761" x2="380.00" x1="380.00" y1="630.00" y2="500.00" /><line style="stroke:blue;fill:blue;" id="6762" x2="440.00" x1="380.00" y1="630.00" y2="530.00" /><line style="stroke:blue;fill:blue;" id="6763" x2="460.00" x1="380.00" y1="630.00" y2="590.00" /><line style="stroke:blue;fill:blue;" id="6764" x2="250.00" x1="380.00" y1="630.00" y2="580.00" /><line style="stroke:blue;fill:blue;" id="6765" x2="420.00" x1="380.00" y1="500.00" y2="380.00" /><line style="stroke:blue;fill:blue;" id="6766" x2="580.00" x1="380.00" y1="500.00" y2="500.00" /><line style="stroke:blue;fill:blue;" id="6767" x2="440.00" x1="380.00" y1="500.00" y2="530.00" /><line style="stroke:blue;fill:blue;" id="6768" x2="380.00" x1="380.00" y1="500.00" y2="630.00" /><line style="stroke:blue;fill:blue;" id="6769" x2="520.00" x1="420.96" y1="321.91" y2="320.00" /><line style="stroke:blue;fill:blue;" id="6770" x2="420.00" x1="420.96" y1="321.91" y2="380.00" /><line style="stroke:blue;fill:blue;" id="6771" x2="520.00" x1="420.00" y1="380.00" y2="320.00" /><line style="stroke:blue;fill:blue;" id="6772" x2="420.96" x1="420.00" y1="380.00" y2="321.91" /><line style="stroke:blue;fill:blue;" id="6773" x2="520.00" x1="420.00" y1="380.00" y2="375.50" /><line style="stroke:blue;fill:blue;" id="6774" x2="380.00" x1="420.00" y1="380.00" y2="500.00" /><line style="stroke:blue;fill:blue;" id="6775" x2="580.00" x1="440.00" y1="530.00" y2="500.00" /><line style="stroke:blue;fill:blue;" id="6776" x2="380.00" x1="440.00" y1="530.00" y2="500.00" /><line style="stroke:blue;fill:blue;" id="6777" x2="460.00" x1="440.00" y1="530.00" y2="590.00" /><line style="stroke:blue;fill:blue;" id="6778" x2="520.00" x1="440.00" y1="530.00" y2="560.00" /><line style="stroke:blue;fill:blue;" id="6779" x2="380.00" x1="440.00" y1="530.00" y2="630.00" /><line style="stroke:blue;fill:blue;" id="6780" x2="430.00" x1="390.00" y1="710.00" y2="760.00" /><line style="stroke:blue;fill:blue;" id="6781" x2="310.00" x1="390.00" y1="710.00" y2="740.00" /><line style="stroke:blue;fill:blue;" id="6782" x2="310.00" x1="390.00" y1="710.00" y2="690.00" /><line style="stroke:blue;fill:blue;" id="6783" x2="450.00" x1="390.00" y1="710.00" y2="660.00" /><line style="stroke:blue;fill:blue;" id="6784" x2="500.00" x1="450.00" y1="50.00" y2="20.00" /><line style="stroke:blue;fill:blue;" id="6785" x2="450.00" x1="450.00" y1="50.00" y2="100.00" /><line style="stroke:blue;fill:blue;" id="6786" x2="520.00" x1="450.00" y1="100.00" y2="100.00" /><line style="stroke:blue;fill:blue;" id="6787" x2="450.00" x1="450.00" y1="100.00" y2="50.00" /><line style="stroke:blue;fill:blue;" id="6788" x2="250.00" x1="450.00" y1="100.00" y2="80.00" /><line style="stroke:blue;fill:blue;" id="6789" x2="390.00" x1="450.00" y1="660.00" y2="710.00" /><line style="stroke:blue;fill:blue;" id="6790" x2="580.00" x1="450.00" y1="660.00" y2="580.00" /><line style="stroke:blue;fill:blue;" id="6791" x2="460.00" x1="450.00" y1="660.00" y2="590.00" /><line style="stroke:blue;fill:blue;" id="6792" x2="450.00" x1="460.00" y1="590.00" y2="660.00" /><line style="stroke:blue;fill:blue;" id="6793" x2="440.00" x1="460.00" y1="590.00" y2="530.00" /><line style="stroke:blue;fill:blue;" id="6794" x2="520.00" x1="460.00" y1="590.00" y2="560.00" /><line style="stroke:blue;fill:blue;" id="6795" x2="380.00" x1="460.00" y1="590.00" y2="630.00" /><line style="stroke:blue;fill:blue;" id="6796" x2="620.00" x1="520.00" y1="320.00" y2="320.00" /><line style="stroke:blue;fill:blue;" id="6797" x2="420.96" x1="520.00" y1="320.00" y2="321.91" /><line style="stroke:blue;fill:blue;" id="6798" x2="420.00" x1="520.00" y1="320.00" y2="380.00" /><line style="stroke:blue;fill:blue;" id="6799" x2="520.00" x1="520.00" y1="320.00" y2="375.50" /><line style="stroke:blue;fill:blue;" id="6800" x2="600.00" x1="520.00" y1="320.00" y2="250.00" /><line style="stroke:blue;fill:blue;" id="6801" x2="620.00" x1="520.00" y1="375.50" y2="320.00" /><line style="stroke:blue;fill:blue;" id="6802" x2="520.00" x1="520.00" y1="375.50" y2="320.00" /><line style="stroke:blue;fill:blue;" id="6803" x2="420.00" x1="520.00" y1="375.50" y2="380.00" /><line style="stroke:blue;fill:blue;" id="6804" x2="520.00" x1="520.00" y1="375.50" y2="424.50" /><line style="stroke:blue;fill:blue;" id="6805" x2="600.00" x1="520.00" y1="100.00" y2="150.00" /><line style="stroke:blue;fill:blue;" id="6806" x2="600.00" x1="520.00" y1="100.00" y2="100.00" /><line style="stroke:blue;fill:blue;" id="6807" x2="450.00" x1="520.00" y1="100.00" y2="100.00" /><line style="stroke:blue;fill:blue;" id="6808" x2="520.00" x1="520.00" y1="100.00" y2="150.00" /><line style="stroke:blue;fill:blue;" id="6809" x2="600.00" x1="520.00" y1="150.00" y2="150.00" /><line style="stroke:blue;fill:blue;" id="6810" x2="520.00" x1="520.00" y1="150.00" y2="100.00" /><line style="stroke:blue;fill:blue;" id="6811" x2="580.00" x1="520.00" y1="560.00" y2="500.00" /><line style="stroke:blue;fill:blue;" id="6812" x2="440.00" x1="520.00" y1="560.00" y2="530.00" /><line style="stroke:blue;fill:blue;" id="6813" x2="460.00" x1="520.00" y1="560.00" y2="590.00" /><line style="stroke:blue;fill:blue;" id="6814" x2="580.00" x1="580.00" y1="500.00" y2="580.00" /><line style="stroke:blue;fill:blue;" id="6815" x2="650.00" x1="580.00" y1="500.00" y2="500.00" /><line style="stroke:blue;fill:blue;" id="6816" x2="380.00" x1="580.00" y1="500.00" y2="500.00" /><line style="stroke:blue;fill:blue;" id="6817" x2="440.00" x1="580.00" y1="500.00" y2="530.00" /><line style="stroke:blue;fill:blue;" id="6818" x2="520.00" x1="580.00" y1="500.00" y2="560.00" /><line style="stroke:blue;fill:blue;" id="6819" x2="450.00" x1="580.00" y1="580.00" y2="660.00" /><line style="stroke:blue;fill:blue;" id="6820" x2="580.00" x1="580.00" y1="580.00" y2="500.00" /><line style="stroke:blue;fill:blue;" id="6821" x2="580.00" x1="580.00" y1="580.00" y2="630.00" /><line style="stroke:blue;fill:blue;" id="6822" x2="700.00" x1="580.00" y1="580.00" y2="600.00" /><line style="stroke:blue;fill:blue;" id="6823" x2="580.00" x1="580.00" y1="630.00" y2="580.00" /><line style="stroke:blue;fill:blue;" id="6824" x2="700.00" x1="580.00" y1="630.00" y2="600.00" /><line style="stroke:blue;fill:blue;" id="6825" x2="380.00" x1="580.00" y1="630.00" y2="630.00" /><line style="stroke:blue;fill:blue;" id="6826" x2="600.00" x1="600.00" y1="100.00" y2="150.00" /><line style="stroke:blue;fill:blue;" id="6827" x2="520.00" x1="600.00" y1="100.00" y2="100.00" /><line style="stroke:blue;fill:blue;" id="6828" x2="798.92" x1="600.00" y1="100.00" y2="121.57" /><line style="stroke:blue;fill:blue;" id="6829" x2="600.00" x1="600.00" y1="150.00" y2="100.00" /><line style="stroke:blue;fill:blue;" id="6830" x2="520.00" x1="600.00" y1="150.00" y2="100.00" /><line style="stroke:blue;fill:blue;" id="6831" x2="520.00" x1="600.00" y1="150.00" y2="150.00" /><line style="stroke:blue;fill:blue;" id="6832" x2="600.00" x1="600.00" y1="150.00" y2="200.00" /><line style="stroke:blue;fill:blue;" id="6833" x2="700.00" x1="620.00" y1="320.00" y2="300.00" /><line style="stroke:blue;fill:blue;" id="6834" x2="520.00" x1="620.00" y1="320.00" y2="320.00" /><line style="stroke:blue;fill:blue;" id="6835" x2="520.00" x1="620.00" y1="320.00" y2="375.50" /><line style="stroke:blue;fill:blue;" id="6836" x2="650.00" x1="620.00" y1="320.00" y2="500.00" /><line style="stroke:blue;fill:blue;" id="6837" x2="620.00" x1="650.00" y1="500.00" y2="320.00" /><line style="stroke:blue;fill:blue;" id="6838" x2="580.00" x1="650.00" y1="500.00" y2="500.00" /><line style="stroke:blue;fill:blue;" id="6839" x2="750.00" x1="650.00" y1="500.00" y2="500.00" /><line style="stroke:blue;fill:blue;" id="6840" x2="750.00" x1="650.00" y1="500.00" y2="580.00" /><line style="stroke:blue;fill:blue;" id="6841" x2="580.00" x1="700.00" y1="600.00" y2="580.00" /><line style="stroke:blue;fill:blue;" id="6842" x2="580.00" x1="700.00" y1="600.00" y2="630.00" /><line style="stroke:blue;fill:blue;" id="6843" x2="750.00" x1="700.00" y1="600.00" y2="580.00" /><line style="stroke:blue;fill:blue;" id="6844" x2="620.00" x1="700.00" y1="300.00" y2="320.00" /><line style="stroke:blue;fill:blue;" id="6845" x2="750.00" x1="700.00" y1="300.00" y2="250.00" /><line style="stroke:blue;fill:blue;" id="6846" x2="650.00" x1="750.00" y1="500.00" y2="500.00" /><line style="stroke:blue;fill:blue;" id="6847" x2="750.00" x1="750.00" y1="500.00" y2="580.00" /><line style="stroke:blue;fill:blue;" id="6848" x2="650.00" x1="750.00" y1="580.00" y2="500.00" /><line style="stroke:blue;fill:blue;" id="6849" x2="750.00" x1="750.00" y1="580.00" y2="500.00" /><line style="stroke:blue;fill:blue;" id="6850" x2="700.00" x1="750.00" y1="580.00" y2="600.00" /><line style="stroke:blue;fill:blue;" id="6851" x2="820.00" x1="750.00" y1="580.00" y2="550.00" /><line style="stroke:blue;fill:blue;" id="6852" x2="850.00" x1="750.00" y1="580.00" y2="660.00" /><line style="stroke:blue;fill:blue;" id="6853" x2="700.00" x1="750.00" y1="250.00" y2="300.00" /><line style="stroke:blue;fill:blue;" id="6854" x2="800.00" x1="750.00" y1="250.00" y2="220.00" /><line style="stroke:blue;fill:blue;" id="6855" x2="600.00" x1="750.00" y1="250.00" y2="250.00" /><line style="stroke:blue;fill:blue;" id="6856" x2="750.00" x1="800.00" y1="220.00" y2="250.00" /><line style="stroke:blue;fill:blue;" id="6857" x2="800.01" x1="800.00" y1="220.00" y2="170.56" /><line style="stroke:blue;fill:blue;" id="6858" x2="600.00" x1="798.92" y1="121.57" y2="100.00" /><line style="stroke:blue;fill:blue;" id="6859" x2="821.07" x1="798.92" y1="121.57" y2="77.87" /><line style="stroke:blue;fill:blue;" id="6860" x2="800.01" x1="798.92" y1="121.57" y2="170.56" /><line style="stroke:blue;fill:blue;" id="6861" x2="800.00" x1="800.01" y1="170.56" y2="220.00" /><line style="stroke:blue;fill:blue;" id="6862" x2="798.92" x1="800.01" y1="170.56" y2="121.57" /><line style="stroke:blue;fill:blue;" id="6863" x2="880.00" x1="821.07" y1="77.87" y2="50.00" /><line style="stroke:blue;fill:blue;" id="6864" x2="798.92" x1="821.07" y1="77.87" y2="121.57" /><line style="stroke:blue;fill:blue;" id="6865" x2="950.00" x1="880.00" y1="50.00" y2="20.00" /><line style="stroke:blue;fill:blue;" id="6866" x2="821.07" x1="880.00" y1="50.00" y2="77.87" /><line style="stroke:blue;fill:blue;" id="6867" x2="330.00" x1="399.04" y1="278.09" y2="250.00" /><line style="stroke:blue;fill:blue;" id="6868" x2="350.00" x1="420.00" y1="180.00" y2="120.00" /><line style="stroke:blue;fill:blue;" id="6869" x2="390.00" x1="430.00" y1="760.00" y2="710.00" /><line style="stroke:blue;fill:blue;" id="6870" x2="450.00" x1="500.00" y1="20.00" y2="50.00" /><line style="stroke:blue;fill:blue;" id="6871" x2="520.00" x1="520.00" y1="424.50" y2="375.50" /><line style="stroke:blue;fill:blue;" id="6872" x2="600.00" x1="600.00" y1="200.00" y2="150.00" /><line style="stroke:blue;fill:blue;" id="6873" x2="600.00" x1="600.00" y1="200.00" y2="250.00" /><line style="stroke:blue;fill:blue;" id="6874" x2="520.00" x1="600.00" y1="250.00" y2="320.00" /><line style="stroke:blue;fill:blue;" id="6875" x2="750.00" x1="600.00" y1="250.00" y2="250.00" /><line style="stroke:blue;fill:blue;" id="6876" x2="600.00" x1="600.00" y1="250.00" y2="200.00" /><line style="stroke:blue;fill:blue;" id="6877" x2="750.00" x1="820.00" y1="550.00" y2="580.00" /><line style="stroke:blue;fill:blue;" id="6878" x2="750.00" x1="850.00" y1="660.00" y2="580.00" /><line style="stroke:blue;fill:blue;" id="6879" x2="880.00" x1="950.00" y1="20.00" y2="50.00" /></svg>
