<?xml version="1.0" standalone="yes"?><!DOCTYPE svg PUBLIC "-//W3C//DTD SVG 1.1//EN" "http://www.w3.org/Graphics/SVG/1.1/DTD/svg11.dtd"[]><svg height="800.00" id="6521" width="1050.00" xmlns="http://www.w3.org/2000/svg" xmlns:xlink="http://www.w3.org/1999/xlink"><rect Type="system" Region="破碎" height="5.00" y="370.00" Name="尼德博拉" width="5.00" x="50.00" id="6522" ID="30003006" /><text x="50.00" y="370.00" id="6523">尼德博拉</text><rect Type="system" Region="破碎" height="5.00" y="320.00" Name="乌勒拉" width="5.00" x="50.00" id="6525" ID="30003004" /><text x="50.00" y="320.00" id="6526">乌勒拉</text><rect Type="system" Region="破碎" height="5.00" y="420.00" Name="帕皮斯" width="5.00" x="50.00" id="6528" ID="30003008" /><text x="50.00" y="420.00" id="6529">帕皮斯</text><rect Type="system" Region="破碎" height="5.00" y="270.00" Name="法克顿" width="5.00" x="50.00" id="6531" ID="30003002" /><text x="50.00" y="270.00" id="6532">法克顿</text><rect Type="system" Region="破碎" height="5.00" y="420.00" Name="埃尔维伊" width="5.00" x="150.00" id="6534" ID="30003007" /><text x="150.00" y="420.00" id="6535">埃尔维伊</text><rect Type="system" Region="破碎" height="5.00" y="270.00" Name="米里" width="5.00" x="150.00" id="6537" ID="30003001" /><text x="150.00" y="270.00" id="6538">米里</text><rect Type="system" Region="破碎" height="5.00" y="320.00" Name="赫勒南" width="5.00" x="150.00" id="6540" ID="30003003" /><text x="150.00" y="320.00" id="6541">赫勒南</text><rect Type="system" Region="破碎" height="5.00" y="370.00" Name="乌克提亚德" width="5.00" x="150.00" id="6543" ID="30003005" /><text x="150.00" y="370.00" id="6544">乌克提亚德</text><rect Type="system" Region="破碎" height="5.00" y="100.00" Name="哈马" width="5.00" x="180.00" id="6546" ID="30002981" /><text x="180.00" y="100.00" id="6547">哈马</text><rect Type="system" Region="破碎" height="5.00" y="710.00" Name="乌萨德" width="5.00" x="160.00" id="6549" ID="30002987" /><text x="160.00" y="710.00" id="6550">乌萨德</text><rect Type="system" Region="破碎" height="5.00" y="190.00" Name="埃拉亚尔" width="5.00" x="210.00" id="6552" ID="30002977" /><text x="210.00" y="190.00" id="6553">埃拉亚尔</text><rect Type="system" Region="破碎" height="5.00" y="130.00" Name="阿斯戈德" width="5.00" x="270.00" id="6555" ID="30002978" /><text x="270.00" y="130.00" id="6556">阿斯戈德</text><rect Type="system" Region="破碎" height="5.00" y="80.00" Name="塔拉燃" width="5.00" x="250.00" id="6558" ID="30002979" /><text x="250.00" y="80.00" id="6559">塔拉燃</text><rect Type="system" Region="破碎" height="5.00" y="580.00" Name="坦卡拉" width="5.00" x="250.00" id="6561" ID="30003000" /><text x="250.00" y="580.00" id="6562">坦卡拉</text><rect Type="system" Region="破碎" height="5.00" y="710.00" Name="伊巴什" width="5.00" x="230.00" id="6564" ID="30002984" /><text x="230.00" y="710.00" id="6565">伊巴什</text><rect Type="system" Region="破碎" height="5.00" y="210.00" Name="拉巴比" width="5.00" x="300.00" id="6567" ID="30002976" /><text x="300.00" y="210.00" id="6568">拉巴比</text><rect Type="system" Region="破碎" height="5.00" y="120.00" Name="索姗" width="5.00" x="350.00" id="6570" ID="30002980" /><text x="350.00" y="120.00" id="6571">索姗</text><rect Type="system" Region="破碎" height="5.00" y="250.00" Name="罗什扎尔" width="5.00" x="330.00" id="6573" ID="30002975" /><text x="330.00" y="250.00" id="6574">罗什扎尔</text><rect Type="system" Region="破碎" height="5.00" y="690.00" Name="伊茨亚米" width="5.00" x="310.00" id="6576" ID="30002985" /><text x="310.00" y="690.00" id="6577">伊茨亚米</text><rect Type="system" Region="破碎" height="5.00" y="740.00" Name="苏萨特" width="5.00" x="310.00" id="6579" ID="30002983" /><text x="310.00" y="740.00" id="6580">苏萨特</text><rect Type="system" Region="破碎" height="5.00" y="630.00" Name="莎斯塔尔" width="5.00" x="380.00" id="6582" ID="30002999" /><text x="380.00" y="630.00" id="6583">莎斯塔尔</text><rect Type="system" Region="破碎" height="5.00" y="500.00" Name="娜伊尔" width="5.00" x="380.00" id="6585" ID="30002995" /><text x="380.00" y="500.00" id="6586">娜伊尔</text><rect Type="system" Region="破碎" height="5.00" y="321.91" Name="塔辛纳茨" width="5.00" x="420.96" id="6588" ID="30002966" /><text x="420.96" y="321.91" id="6589">塔辛纳茨</text><rect Type="system" Region="破碎" height="5.00" y="380.00" Name="蒂尔拉" width="5.00" x="420.00" id="6591" ID="30002967" /><text x="420.00" y="380.00" id="6592">蒂尔拉</text><rect Type="system" Region="破碎" height="5.00" y="530.00" Name="下德比" width="5.00" x="440.00" id="6594" ID="30002996" /><text x="440.00" y="530.00" id="6595">下德比</text><rect Type="system" Region="破碎" height="5.00" y="710.00" Name="拉哈达隆" width="5.00" x="390.00" id="6597" ID="30002982" /><text x="390.00" y="710.00" id="6598">拉哈达隆</text><rect Type="system" Region="破碎" height="5.00" y="50.00" Name="俄扎拉" width="5.00" x="450.00" id="6600" ID="30002962" /><text x="450.00" y="50.00" id="6601">俄扎拉</text><rect Type="system" Region="破碎" height="5.00" y="100.00" Name="阿尔扎德" width="5.00" x="450.00" id="6603" ID="30002960" /><text x="450.00" y="100.00" id="6604">阿尔扎德</text><rect Type="system" Region="破碎" height="5.00" y="660.00" Name="蒙多利" width="5.00" x="450.00" id="6606" ID="30002986" /><text x="450.00" y="660.00" id="6607">蒙多利</text><rect Type="system" Region="破碎" height="5.00" y="590.00" Name="恩诺姆" width="5.00" x="460.00" id="6609" ID="30002997" /><text x="460.00" y="590.00" id="6610">恩诺姆</text><rect Type="system" Region="破碎" height="5.00" y="320.00" Name="切文卡" width="5.00" x="520.00" id="6612" ID="30002965" /><text x="520.00" y="320.00" id="6613">切文卡</text><rect Type="system" Region="破碎" height="5.00" y="375.50" Name="迪塔尔" width="5.00" x="520.00" id="6615" ID="30002968" /><text x="520.00" y="375.50" id="6616">迪塔尔</text><rect Type="system" Region="破碎" height="5.00" y="100.00" Name="西非拉尔" width="5.00" x="520.00" id="6618" ID="30002959" /><text x="520.00" y="100.00" id="6619">西非拉尔</text><rect Type="system" Region="破碎" height="5.00" y="150.00" Name="欧耶曼" width="5.00" x="520.00" id="6621" ID="30002961" /><text x="520.00" y="150.00" id="6622">欧耶曼</text><rect Type="system" Region="破碎" height="5.00" y="560.00" Name="上德比" width="5.00" x="520.00" id="6624" ID="30002998" /><text x="520.00" y="560.00" id="6625">上德比</text><rect Type="system" Region="破碎" height="5.00" y="500.00" Name="拉迪亚哈" width="5.00" x="580.00" id="6627" ID="30002989" /><text x="580.00" y="500.00" id="6628">拉迪亚哈</text><rect Type="system" Region="破碎" height="5.00" y="580.00" Name="纳克特勒" width="5.00" x="580.00" id="6630" ID="30002988" /><text x="580.00" y="580.00" id="6631">纳克特勒</text><rect Type="system" Region="破碎" height="5.00" y="630.00" Name="哈克什马" width="5.00" x="580.00" id="6633" ID="30002990" /><text x="580.00" y="630.00" id="6634">哈克什马</text><rect Type="system" Region="破碎" height="5.00" y="100.00" Name="若尔" width="5.00" x="600.00" id="6636" ID="30002958" /><text x="600.00" y="100.00" id="6637">若尔</text><rect Type="system" Region="破碎" height="5.00" y="150.00" Name="茨维" width="5.00" x="600.00" id="6639" ID="30002957" /><text x="600.00" y="150.00" id="6640">茨维</text><rect Type="system" Region="破碎" height="5.00" y="320.00" Name="厄瑟斯坎马" width="5.00" x="620.00" id="6642" ID="30002964" /><text x="620.00" y="320.00" id="6643">厄瑟斯坎马</text><rect Type="system" Region="破碎" height="5.00" y="500.00" Name="尤德拉" width="5.00" x="650.00" id="6645" ID="30002991" /><text x="650.00" y="500.00" id="6646">尤德拉</text><rect Type="system" Region="破碎" height="5.00" y="600.00" Name="瑞瓦耶德" width="5.00" x="700.00" id="6648" ID="30002993" /><text x="700.00" y="600.00" id="6649">瑞瓦耶德</text><rect Type="system" Region="破碎" height="5.00" y="300.00" Name="欧丁" width="5.00" x="700.00" id="6651" ID="30002963" /><text x="700.00" y="300.00" id="6652">欧丁</text><rect Type="system" Region="破碎" height="5.00" y="500.00" Name="阿克苏" width="5.00" x="750.00" id="6654" ID="30002992" /><text x="750.00" y="500.00" id="6655">阿克苏</text><rect Type="system" Region="破碎" height="5.00" y="580.00" Name="哈提" width="5.00" x="750.00" id="6657" ID="30002994" /><text x="750.00" y="580.00" id="6658">哈提</text><rect Type="system" Region="破碎" height="5.00" y="250.00" Name="欧西德" width="5.00" x="750.00" id="6660" ID="30002970" /><text x="750.00" y="250.00" id="6661">欧西德</text><rect Type="system" Region="破碎" height="5.00" y="220.00" Name="萨索逖库" width="5.00" x="800.00" id="6663" ID="30002971" /><text x="800.00" y="220.00" id="6664">萨索逖库</text><rect Type="system" Region="破碎" height="5.00" y="121.57" Name="莫哈托尔" width="5.00" x="798.92" id="6666" ID="30002974" /><text x="798.92" y="121.57" id="6667">莫哈托尔</text><rect Type="system" Region="破碎" height="5.00" y="170.56" Name="戈忒" width="5.00" x="800.01" id="6669" ID="30002972" /><text x="800.01" y="170.56" id="6670">戈忒</text><rect Type="system" Region="破碎" height="5.00" y="77.87" Name="尤洱丹" width="5.00" x="821.07" id="6672" ID="30002969" /><text x="821.07" y="77.87" id="6673">尤洱丹</text><rect Type="system" Region="破碎" height="5.00" y="50.00" Name="里苏德尔" width="5.00" x="880.00" id="6675" ID="30002973" /><text x="880.00" y="50.00" id="6676">里苏德尔</text><rect Type="system" Region="幽暗之域" height="5.00" y="278.09" Name="霍拉" width="5.00" x="399.04" id="6678" ID="30003067" /><text x="399.04" y="278.09" id="6679">霍拉</text><rect Type="system" Region="幽暗之域" height="5.00" y="180.00" Name="欧约纳塔" width="5.00" x="420.00" id="6681" ID="30003088" /><text x="420.00" y="180.00" id="6682">欧约纳塔</text><rect Type="system" Region="德里克" height="5.00" y="760.00" Name="纳卡赫" width="5.00" x="430.00" id="6684" ID="30000072" /><text x="430.00" y="760.00" id="6685">纳卡赫</text><rect Type="system" Region="西玛特尔" height="5.00" y="20.00" Name="瓦尔蒂" width="5.00" x="500.00" id="6687" ID="30002538" /><text x="500.00" y="20.00" id="6688">瓦尔蒂</text><rect Type="system" Region="普罗维登斯" height="5.00" y="424.50" Name="KBP7-G" width="5.00" x="520.00" id="6690" ID="30003729" /><text x="520.00" y="424.50" id="6691">KBP7-G</text><rect Type="system" Region="幽暗之域" height="5.00" y="200.00" Name="拉马亚" width="5.00" x="600.00" id="6693" ID="30003063" /><text x="600.00" y="200.00" id="6694">拉马亚</text><rect Type="system" Region="幽暗之域" height="5.00" y="250.00" Name="卡美拉" width="5.00" x="600.00" id="6696" ID="30003069" /><text x="600.00" y="250.00" id="6697">卡美拉</text><rect Type="system" Region="幽暗之域" height="5.00" y="550.00" Name="加尔克楞" width="5.00" x="820.00" id="6699" ID="30003080" /><text x="820.00" y="550.00" id="6700">加尔克楞</text><rect Type="system" Region="多美" height="5.00" y="660.00" Name="逾赫利亚" width="5.00" x="850.00" id="6702" ID="30003545" /><text x="850.00" y="660.00" id="6703">逾赫利亚</text><rect Type="system" Region="德里克" height="5.00" y="20.00" Name="拉什希亚" width="5.00" x="950.00" id="6705" ID="30000002" /><text x="950.00" y="20.00" id="6706">拉什希亚</text><line x2="50.00" style="fill:blue;stroke:blue;" y1="370.00" x1="50.00" id="6708" y2="320.00" /><line x2="50.00" style="fill:blue;stroke:blue;" y1="370.00" x1="50.00" id="6709" y2="420.00" /><line x2="50.00" style="fill:blue;stroke:blue;" y1="320.00" x1="50.00" id="6710" y2="270.00" /><line x2="150.00" style="fill:blue;stroke:blue;" y1="320.00" x1="50.00" id="6711" y2="320.00" /><line x2="50.00" style="fill:blue;stroke:blue;" y1="320.00" x1="50.00" id="6712" y2="370.00" /><line x2="50.00" style="fill:blue;stroke:blue;" y1="420.00" x1="50.00" id="6713" y2="370.00" /><line x2="150.00" style="fill:blue;stroke:blue;" y1="420.00" x1="50.00" id="6714" y2="420.00" /><line x2="150.00" style="fill:blue;stroke:blue;" y1="270.00" x1="50.00" id="6715" y2="270.00" /><line x2="50.00" style="fill:blue;stroke:blue;" y1="270.00" x1="50.00" id="6716" y2="320.00" /><line x2="150.00" style="fill:blue;stroke:blue;" y1="420.00" x1="150.00" id="6717" y2="370.00" /><line x2="50.00" style="fill:blue;stroke:blue;" y1="420.00" x1="150.00" id="6718" y2="420.00" /><line x2="180.00" style="fill:blue;stroke:blue;" y1="270.00" x1="150.00" id="6719" y2="100.00" /><line x2="50.00" style="fill:blue;stroke:blue;" y1="270.00" x1="150.00" id="6720" y2="270.00" /><line x2="150.00" style="fill:blue;stroke:blue;" y1="270.00" x1="150.00" id="6721" y2="320.00" /><line x2="150.00" style="fill:blue;stroke:blue;" y1="320.00" x1="150.00" id="6722" y2="270.00" /><line x2="50.00" style="fill:blue;stroke:blue;" y1="320.00" x1="150.00" id="6723" y2="320.00" /><line x2="150.00" style="fill:blue;stroke:blue;" y1="320.00" x1="150.00" id="6724" y2="370.00" /><line x2="150.00" style="fill:blue;stroke:blue;" y1="370.00" x1="150.00" id="6725" y2="320.00" /><line x2="150.00" style="fill:blue;stroke:blue;" y1="370.00" x1="150.00" id="6726" y2="420.00" /><line x2="210.00" style="fill:blue;stroke:blue;" y1="100.00" x1="180.00" id="6727" y2="190.00" /><line x2="270.00" style="fill:blue;stroke:blue;" y1="100.00" x1="180.00" id="6728" y2="130.00" /><line x2="250.00" style="fill:blue;stroke:blue;" y1="100.00" x1="180.00" id="6729" y2="80.00" /><line x2="150.00" style="fill:blue;stroke:blue;" y1="100.00" x1="180.00" id="6730" y2="270.00" /><line x2="230.00" style="fill:blue;stroke:blue;" y1="710.00" x1="160.00" id="6731" y2="710.00" /><line x2="300.00" style="fill:blue;stroke:blue;" y1="190.00" x1="210.00" id="6732" y2="210.00" /><line x2="270.00" style="fill:blue;stroke:blue;" y1="190.00" x1="210.00" id="6733" y2="130.00" /><line x2="180.00" style="fill:blue;stroke:blue;" y1="190.00" x1="210.00" id="6734" y2="100.00" /><line x2="300.00" style="fill:blue;stroke:blue;" y1="130.00" x1="270.00" id="6735" y2="210.00" /><line x2="210.00" style="fill:blue;stroke:blue;" y1="130.00" x1="270.00" id="6736" y2="190.00" /><line x2="250.00" style="fill:blue;stroke:blue;" y1="130.00" x1="270.00" id="6737" y2="80.00" /><line x2="350.00" style="fill:blue;stroke:blue;" y1="130.00" x1="270.00" id="6738" y2="120.00" /><line x2="180.00" style="fill:blue;stroke:blue;" y1="130.00" x1="270.00" id="6739" y2="100.00" /><line x2="450.00" style="fill:blue;stroke:blue;" y1="80.00" x1="250.00" id="6740" y2="100.00" /><line x2="270.00" style="fill:blue;stroke:blue;" y1="80.00" x1="250.00" id="6741" y2="130.00" /><line x2="350.00" style="fill:blue;stroke:blue;" y1="80.00" x1="250.00" id="6742" y2="120.00" /><line x2="180.00" style="fill:blue;stroke:blue;" y1="80.00" x1="250.00" id="6743" y2="100.00" /><line x2="380.00" style="fill:blue;stroke:blue;" y1="580.00" x1="250.00" id="6744" y2="630.00" /><line x2="310.00" style="fill:blue;stroke:blue;" y1="710.00" x1="230.00" id="6745" y2="740.00" /><line x2="310.00" style="fill:blue;stroke:blue;" y1="710.00" x1="230.00" id="6746" y2="690.00" /><line x2="160.00" style="fill:blue;stroke:blue;" y1="710.00" x1="230.00" id="6747" y2="710.00" /><line x2="330.00" style="fill:blue;stroke:blue;" y1="210.00" x1="300.00" id="6748" y2="250.00" /><line x2="210.00" style="fill:blue;stroke:blue;" y1="210.00" x1="300.00" id="6749" y2="190.00" /><line x2="270.00" style="fill:blue;stroke:blue;" y1="210.00" x1="300.00" id="6750" y2="130.00" /><line x2="270.00" style="fill:blue;stroke:blue;" y1="120.00" x1="350.00" id="6751" y2="130.00" /><line x2="250.00" style="fill:blue;stroke:blue;" y1="120.00" x1="350.00" id="6752" y2="80.00" /><line x2="420.00" style="fill:blue;stroke:blue;" y1="120.00" x1="350.00" id="6753" y2="180.00" /><line x2="300.00" style="fill:blue;stroke:blue;" y1="250.00" x1="330.00" id="6754" y2="210.00" /><line x2="399.04" style="fill:blue;stroke:blue;" y1="250.00" x1="330.00" id="6755" y2="278.09" /><line x2="390.00" style="fill:blue;stroke:blue;" y1="690.00" x1="310.00" id="6756" y2="710.00" /><line x2="230.00" style="fill:blue;stroke:blue;" y1="690.00" x1="310.00" id="6757" y2="710.00" /><line x2="390.00" style="fill:blue;stroke:blue;" y1="740.00" x1="310.00" id="6758" y2="710.00" /><line x2="230.00" style="fill:blue;stroke:blue;" y1="740.00" x1="310.00" id="6759" y2="710.00" /><line x2="580.00" style="fill:blue;stroke:blue;" y1="630.00" x1="380.00" id="6760" y2="630.00" /><line x2="380.00" style="fill:blue;stroke:blue;" y1="630.00" x1="380.00" id="6761" y2="500.00" /><line x2="440.00" style="fill:blue;stroke:blue;" y1="630.00" x1="380.00" id="6762" y2="530.00" /><line x2="460.00" style="fill:blue;stroke:blue;" y1="630.00" x1="380.00" id="6763" y2="590.00" /><line x2="250.00" style="fill:blue;stroke:blue;" y1="630.00" x1="380.00" id="6764" y2="580.00" /><line x2="420.00" style="fill:blue;stroke:blue;" y1="500.00" x1="380.00" id="6765" y2="380.00" /><line x2="580.00" style="fill:blue;stroke:blue;" y1="500.00" x1="380.00" id="6766" y2="500.00" /><line x2="440.00" style="fill:blue;stroke:blue;" y1="500.00" x1="380.00" id="6767" y2="530.00" /><line x2="380.00" style="fill:blue;stroke:blue;" y1="500.00" x1="380.00" id="6768" y2="630.00" /><line x2="520.00" style="fill:blue;stroke:blue;" y1="321.91" x1="420.96" id="6769" y2="320.00" /><line x2="420.00" style="fill:blue;stroke:blue;" y1="321.91" x1="420.96" id="6770" y2="380.00" /><line x2="520.00" style="fill:blue;stroke:blue;" y1="380.00" x1="420.00" id="6771" y2="320.00" /><line x2="420.96" style="fill:blue;stroke:blue;" y1="380.00" x1="420.00" id="6772" y2="321.91" /><line x2="520.00" style="fill:blue;stroke:blue;" y1="380.00" x1="420.00" id="6773" y2="375.50" /><line x2="380.00" style="fill:blue;stroke:blue;" y1="380.00" x1="420.00" id="6774" y2="500.00" /><line x2="580.00" style="fill:blue;stroke:blue;" y1="530.00" x1="440.00" id="6775" y2="500.00" /><line x2="380.00" style="fill:blue;stroke:blue;" y1="530.00" x1="440.00" id="6776" y2="500.00" /><line x2="460.00" style="fill:blue;stroke:blue;" y1="530.00" x1="440.00" id="6777" y2="590.00" /><line x2="520.00" style="fill:blue;stroke:blue;" y1="530.00" x1="440.00" id="6778" y2="560.00" /><line x2="380.00" style="fill:blue;stroke:blue;" y1="530.00" x1="440.00" id="6779" y2="630.00" /><line x2="430.00" style="fill:blue;stroke:blue;" y1="710.00" x1="390.00" id="6780" y2="760.00" /><line x2="310.00" style="fill:blue;stroke:blue;" y1="710.00" x1="390.00" id="6781" y2="740.00" /><line x2="310.00" style="fill:blue;stroke:blue;" y1="710.00" x1="390.00" id="6782" y2="690.00" /><line x2="450.00" style="fill:blue;stroke:blue;" y1="710.00" x1="390.00" id="6783" y2="660.00" /><line x2="500.00" style="fill:blue;stroke:blue;" y1="50.00" x1="450.00" id="6784" y2="20.00" /><line x2="450.00" style="fill:blue;stroke:blue;" y1="50.00" x1="450.00" id="6785" y2="100.00" /><line x2="520.00" style="fill:blue;stroke:blue;" y1="100.00" x1="450.00" id="6786" y2="100.00" /><line x2="450.00" style="fill:blue;stroke:blue;" y1="100.00" x1="450.00" id="6787" y2="50.00" /><line x2="250.00" style="fill:blue;stroke:blue;" y1="100.00" x1="450.00" id="6788" y2="80.00" /><line x2="390.00" style="fill:blue;stroke:blue;" y1="660.00" x1="450.00" id="6789" y2="710.00" /><line x2="580.00" style="fill:blue;stroke:blue;" y1="660.00" x1="450.00" id="6790" y2="580.00" /><line x2="460.00" style="fill:blue;stroke:blue;" y1="660.00" x1="450.00" id="6791" y2="590.00" /><line x2="450.00" style="fill:blue;stroke:blue;" y1="590.00" x1="460.00" id="6792" y2="660.00" /><line x2="440.00" style="fill:blue;stroke:blue;" y1="590.00" x1="460.00" id="6793" y2="530.00" /><line x2="520.00" style="fill:blue;stroke:blue;" y1="590.00" x1="460.00" id="6794" y2="560.00" /><line x2="380.00" style="fill:blue;stroke:blue;" y1="590.00" x1="460.00" id="6795" y2="630.00" /><line x2="620.00" style="fill:blue;stroke:blue;" y1="320.00" x1="520.00" id="6796" y2="320.00" /><line x2="420.96" style="fill:blue;stroke:blue;" y1="320.00" x1="520.00" id="6797" y2="321.91" /><line x2="420.00" style="fill:blue;stroke:blue;" y1="320.00" x1="520.00" id="6798" y2="380.00" /><line x2="520.00" style="fill:blue;stroke:blue;" y1="320.00" x1="520.00" id="6799" y2="375.50" /><line x2="600.00" style="fill:blue;stroke:blue;" y1="320.00" x1="520.00" id="6800" y2="250.00" /><line x2="620.00" style="fill:blue;stroke:blue;" y1="375.50" x1="520.00" id="6801" y2="320.00" /><line x2="520.00" style="fill:blue;stroke:blue;" y1="375.50" x1="520.00" id="6802" y2="320.00" /><line x2="420.00" style="fill:blue;stroke:blue;" y1="375.50" x1="520.00" id="6803" y2="380.00" /><line x2="520.00" style="fill:blue;stroke:blue;" y1="375.50" x1="520.00" id="6804" y2="424.50" /><line x2="600.00" style="fill:blue;stroke:blue;" y1="100.00" x1="520.00" id="6805" y2="150.00" /><line x2="600.00" style="fill:blue;stroke:blue;" y1="100.00" x1="520.00" id="6806" y2="100.00" /><line x2="450.00" style="fill:blue;stroke:blue;" y1="100.00" x1="520.00" id="6807" y2="100.00" /><line x2="520.00" style="fill:blue;stroke:blue;" y1="100.00" x1="520.00" id="6808" y2="150.00" /><line x2="600.00" style="fill:blue;stroke:blue;" y1="150.00" x1="520.00" id="6809" y2="150.00" /><line x2="520.00" style="fill:blue;stroke:blue;" y1="150.00" x1="520.00" id="6810" y2="100.00" /><line x2="580.00" style="fill:blue;stroke:blue;" y1="560.00" x1="520.00" id="6811" y2="500.00" /><line x2="440.00" style="fill:blue;stroke:blue;" y1="560.00" x1="520.00" id="6812" y2="530.00" /><line x2="460.00" style="fill:blue;stroke:blue;" y1="560.00" x1="520.00" id="6813" y2="590.00" /><line x2="580.00" style="fill:blue;stroke:blue;" y1="500.00" x1="580.00" id="6814" y2="580.00" /><line x2="650.00" style="fill:blue;stroke:blue;" y1="500.00" x1="580.00" id="6815" y2="500.00" /><line x2="380.00" style="fill:blue;stroke:blue;" y1="500.00" x1="580.00" id="6816" y2="500.00" /><line x2="440.00" style="fill:blue;stroke:blue;" y1="500.00" x1="580.00" id="6817" y2="530.00" /><line x2="520.00" style="fill:blue;stroke:blue;" y1="500.00" x1="580.00" id="6818" y2="560.00" /><line x2="450.00" style="fill:blue;stroke:blue;" y1="580.00" x1="580.00" id="6819" y2="660.00" /><line x2="580.00" style="fill:blue;stroke:blue;" y1="580.00" x1="580.00" id="6820" y2="500.00" /><line x2="580.00" style="fill:blue;stroke:blue;" y1="580.00" x1="580.00" id="6821" y2="630.00" /><line x2="700.00" style="fill:blue;stroke:blue;" y1="580.00" x1="580.00" id="6822" y2="600.00" /><line x2="580.00" style="fill:blue;stroke:blue;" y1="630.00" x1="580.00" id="6823" y2="580.00" /><line x2="700.00" style="fill:blue;stroke:blue;" y1="630.00" x1="580.00" id="6824" y2="600.00" /><line x2="380.00" style="fill:blue;stroke:blue;" y1="630.00" x1="580.00" id="6825" y2="630.00" /><line x2="600.00" style="fill:blue;stroke:blue;" y1="100.00" x1="600.00" id="6826" y2="150.00" /><line x2="520.00" style="fill:blue;stroke:blue;" y1="100.00" x1="600.00" id="6827" y2="100.00" /><line x2="798.92" style="fill:blue;stroke:blue;" y1="100.00" x1="600.00" id="6828" y2="121.57" /><line x2="600.00" style="fill:blue;stroke:blue;" y1="150.00" x1="600.00" id="6829" y2="100.00" /><line x2="520.00" style="fill:blue;stroke:blue;" y1="150.00" x1="600.00" id="6830" y2="100.00" /><line x2="520.00" style="fill:blue;stroke:blue;" y1="150.00" x1="600.00" id="6831" y2="150.00" /><line x2="600.00" style="fill:blue;stroke:blue;" y1="150.00" x1="600.00" id="6832" y2="200.00" /><line x2="700.00" style="fill:blue;stroke:blue;" y1="320.00" x1="620.00" id="6833" y2="300.00" /><line x2="520.00" style="fill:blue;stroke:blue;" y1="320.00" x1="620.00" id="6834" y2="320.00" /><line x2="520.00" style="fill:blue;stroke:blue;" y1="320.00" x1="620.00" id="6835" y2="375.50" /><line x2="650.00" style="fill:blue;stroke:blue;" y1="320.00" x1="620.00" id="6836" y2="500.00" /><line x2="620.00" style="fill:blue;stroke:blue;" y1="500.00" x1="650.00" id="6837" y2="320.00" /><line x2="580.00" style="fill:blue;stroke:blue;" y1="500.00" x1="650.00" id="6838" y2="500.00" /><line x2="750.00" style="fill:blue;stroke:blue;" y1="500.00" x1="650.00" id="6839" y2="500.00" /><line x2="750.00" style="fill:blue;stroke:blue;" y1="500.00" x1="650.00" id="6840" y2="580.00" /><line x2="580.00" style="fill:blue;stroke:blue;" y1="600.00" x1="700.00" id="6841" y2="580.00" /><line x2="580.00" style="fill:blue;stroke:blue;" y1="600.00" x1="700.00" id="6842" y2="630.00" /><line x2="750.00" style="fill:blue;stroke:blue;" y1="600.00" x1="700.00" id="6843" y2="580.00" /><line x2="620.00" style="fill:blue;stroke:blue;" y1="300.00" x1="700.00" id="6844" y2="320.00" /><line x2="750.00" style="fill:blue;stroke:blue;" y1="300.00" x1="700.00" id="6845" y2="250.00" /><line x2="650.00" style="fill:blue;stroke:blue;" y1="500.00" x1="750.00" id="6846" y2="500.00" /><line x2="750.00" style="fill:blue;stroke:blue;" y1="500.00" x1="750.00" id="6847" y2="580.00" /><line x2="650.00" style="fill:blue;stroke:blue;" y1="580.00" x1="750.00" id="6848" y2="500.00" /><line x2="750.00" style="fill:blue;stroke:blue;" y1="580.00" x1="750.00" id="6849" y2="500.00" /><line x2="700.00" style="fill:blue;stroke:blue;" y1="580.00" x1="750.00" id="6850" y2="600.00" /><line x2="820.00" style="fill:blue;stroke:blue;" y1="580.00" x1="750.00" id="6851" y2="550.00" /><line x2="850.00" style="fill:blue;stroke:blue;" y1="580.00" x1="750.00" id="6852" y2="660.00" /><line x2="700.00" style="fill:blue;stroke:blue;" y1="250.00" x1="750.00" id="6853" y2="300.00" /><line x2="800.00" style="fill:blue;stroke:blue;" y1="250.00" x1="750.00" id="6854" y2="220.00" /><line x2="600.00" style="fill:blue;stroke:blue;" y1="250.00" x1="750.00" id="6855" y2="250.00" /><line x2="750.00" style="fill:blue;stroke:blue;" y1="220.00" x1="800.00" id="6856" y2="250.00" /><line x2="800.01" style="fill:blue;stroke:blue;" y1="220.00" x1="800.00" id="6857" y2="170.56" /><line x2="600.00" style="fill:blue;stroke:blue;" y1="121.57" x1="798.92" id="6858" y2="100.00" /><line x2="821.07" style="fill:blue;stroke:blue;" y1="121.57" x1="798.92" id="6859" y2="77.87" /><line x2="800.01" style="fill:blue;stroke:blue;" y1="121.57" x1="798.92" id="6860" y2="170.56" /><line x2="800.00" style="fill:blue;stroke:blue;" y1="170.56" x1="800.01" id="6861" y2="220.00" /><line x2="798.92" style="fill:blue;stroke:blue;" y1="170.56" x1="800.01" id="6862" y2="121.57" /><line x2="880.00" style="fill:blue;stroke:blue;" y1="77.87" x1="821.07" id="6863" y2="50.00" /><line x2="798.92" style="fill:blue;stroke:blue;" y1="77.87" x1="821.07" id="6864" y2="121.57" /><line x2="950.00" style="fill:blue;stroke:blue;" y1="50.00" x1="880.00" id="6865" y2="20.00" /><line x2="821.07" style="fill:blue;stroke:blue;" y1="50.00" x1="880.00" id="6866" y2="77.87" /><line x2="330.00" style="fill:blue;stroke:blue;" y1="278.09" x1="399.04" id="6867" y2="250.00" /><line x2="350.00" style="fill:blue;stroke:blue;" y1="180.00" x1="420.00" id="6868" y2="120.00" /><line x2="390.00" style="fill:blue;stroke:blue;" y1="760.00" x1="430.00" id="6869" y2="710.00" /><line x2="450.00" style="fill:blue;stroke:blue;" y1="20.00" x1="500.00" id="6870" y2="50.00" /><line x2="520.00" style="fill:blue;stroke:blue;" y1="424.50" x1="520.00" id="6871" y2="375.50" /><line x2="600.00" style="fill:blue;stroke:blue;" y1="200.00" x1="600.00" id="6872" y2="150.00" /><line x2="600.00" style="fill:blue;stroke:blue;" y1="200.00" x1="600.00" id="6873" y2="250.00" /><line x2="520.00" style="fill:blue;stroke:blue;" y1="250.00" x1="600.00" id="6874" y2="320.00" /><line x2="750.00" style="fill:blue;stroke:blue;" y1="250.00" x1="600.00" id="6875" y2="250.00" /><line x2="600.00" style="fill:blue;stroke:blue;" y1="250.00" x1="600.00" id="6876" y2="200.00" /><line x2="750.00" style="fill:blue;stroke:blue;" y1="550.00" x1="820.00" id="6877" y2="580.00" /><line x2="750.00" style="fill:blue;stroke:blue;" y1="660.00" x1="850.00" id="6878" y2="580.00" /><line x2="880.00" style="fill:blue;stroke:blue;" y1="20.00" x1="950.00" id="6879" y2="50.00" /></svg>
