<?xml version="1.0" standalone="yes"?><!DOCTYPE svg PUBLIC "-//W3C//DTD SVG 1.1//EN" "http://www.w3.org/Graphics/SVG/1.1/DTD/svg11.dtd"[]><svg height="800.00" id="8567" width="1050.00" xmlns="http://www.w3.org/2000/svg" xmlns:xlink="http://www.w3.org/1999/xlink"><rect Type="system" Region="精华之域" height="5.00" y="60.00" Name="拉底赛迪尔" width="5.00" x="50.00" id="8568" ID="30004999" /><text x="50.00" y="60.00" id="8569">拉底赛迪尔</text><rect Type="system" Region="精华之域" height="5.00" y="400.00" Name="耶舒尔" width="5.00" x="50.00" id="8571" ID="30005008" /><text x="50.00" y="400.00" id="8572">耶舒尔</text><rect Type="system" Region="精华之域" height="5.00" y="700.00" Name="欧尼" width="5.00" x="50.00" id="8574" ID="30004990" /><text x="50.00" y="700.00" id="8575">欧尼</text><rect Type="system" Region="精华之域" height="5.00" y="180.00" Name="赫查理林" width="5.00" x="100.00" id="8577" ID="30024971" /><text x="100.00" y="180.00" id="8578">赫查理林</text><rect Type="system" Region="精华之域" height="5.00" y="530.00" Name="里斯巴塔尼" width="5.00" x="100.00" id="8580" ID="30005007" /><text x="100.00" y="530.00" id="8581">里斯巴塔尼</text><rect Type="system" Region="精华之域" height="5.00" y="227.68" Name="亚特兰杰斯" width="5.00" x="132.32" id="8583" ID="30005024" /><text x="132.32" y="227.68" id="8584">亚特兰杰斯</text><rect Type="system" Region="精华之域" height="5.00" y="100.00" Name="维佛瓦特" width="5.00" x="150.00" id="8586" ID="30004997" /><text x="150.00" y="100.00" id="8587">维佛瓦特</text><rect Type="system" Region="精华之域" height="5.00" y="355.50" Name="埃迪瑞恩" width="5.00" x="150.00" id="8589" ID="30005003" /><text x="150.00" y="355.50" id="8590">埃迪瑞恩</text><rect Type="system" Region="精华之域" height="5.00" y="404.50" Name="劳韦尔" width="5.00" x="150.00" id="8592" ID="30005002" /><text x="150.00" y="404.50" id="8593">劳韦尔</text><rect Type="system" Region="精华之域" height="5.00" y="460.00" Name="阿泰恩" width="5.00" x="150.00" id="8595" ID="30005004" /><text x="150.00" y="460.00" id="8596">阿泰恩</text><rect Type="system" Region="精华之域" height="5.00" y="230.00" Name="德瑞林特" width="5.00" x="200.00" id="8598" ID="30005025" /><text x="200.00" y="230.00" id="8599">德瑞林特</text><rect Type="system" Region="精华之域" height="5.00" y="530.00" Name="埃尔勒" width="5.00" x="200.00" id="8601" ID="30005006" /><text x="200.00" y="530.00" id="8602">埃尔勒</text><rect Type="system" Region="精华之域" height="5.00" y="130.00" Name="厄拉莫特" width="5.00" x="220.00" id="8604" ID="30004995" /><text x="220.00" y="130.00" id="8605">厄拉莫特</text><rect Type="system" Region="精华之域" height="5.00" y="300.00" Name="安多勒" width="5.00" x="220.00" id="8607" ID="30005028" /><text x="220.00" y="300.00" id="8608">安多勒</text><rect Type="system" Region="精华之域" height="5.00" y="600.00" Name="胡尔马特" width="5.00" x="130.00" id="8610" ID="30004988" /><text x="130.00" y="600.00" id="8611">胡尔马特</text><rect Type="system" Region="精华之域" height="5.00" y="200.00" Name="卡特" width="5.00" x="250.00" id="8613" ID="30005026" /><text x="250.00" y="200.00" id="8614">卡特</text><rect Type="system" Region="精华之域" height="5.00" y="260.00" Name="欧玛尔" width="5.00" x="250.00" id="8616" ID="30005027" /><text x="250.00" y="260.00" id="8617">欧玛尔</text><rect Type="system" Region="精华之域" height="5.00" y="404.50" Name="阿尔蒙" width="5.00" x="250.00" id="8619" ID="30005001" /><text x="250.00" y="404.50" id="8620">阿尔蒙</text><rect Type="system" Region="精华之域" height="5.00" y="560.00" Name="安纳格斯" width="5.00" x="250.00" id="8622" ID="30004989" /><text x="250.00" y="560.00" id="8623">安纳格斯</text><rect Type="system" Region="精华之域" height="5.00" y="60.00" Name="老人星" width="5.00" x="300.00" id="8625" ID="30005000" /><text x="300.00" y="60.00" id="8626">老人星</text><rect Type="system" Region="精华之域" height="5.00" y="180.00" Name="维洛勒" width="5.00" x="320.00" id="8628" ID="30004993" /><text x="320.00" y="180.00" id="8629">维洛勒</text><rect Type="system" Region="精华之域" height="5.00" y="255.50" Name="佩门勒" width="5.00" x="320.00" id="8631" ID="30004978" /><text x="320.00" y="255.50" id="8632">佩门勒</text><rect Type="system" Region="精华之域" height="5.00" y="600.00" Name="德妮娜的" width="5.00" x="350.00" id="8634" ID="30004987" /><text x="350.00" y="600.00" id="8635">德妮娜的</text><rect Type="system" Region="精华之域" height="5.00" y="380.00" Name="海勒" width="5.00" x="400.00" id="8637" ID="30005012" /><text x="400.00" y="380.00" id="8638">海勒</text><rect Type="system" Region="精华之域" height="5.00" y="460.00" Name="佩尔克希文" width="5.00" x="400.00" id="8640" ID="30005013" /><text x="400.00" y="460.00" id="8641">佩尔克希文</text><rect Type="system" Region="精华之域" height="5.00" y="530.00" Name="伊瑟南" width="5.00" x="400.00" id="8643" ID="30005014" /><text x="400.00" y="530.00" id="8644">伊瑟南</text><rect Type="system" Region="精华之域" height="5.00" y="260.00" Name="阿冉特" width="5.00" x="400.00" id="8646" ID="30004994" /><text x="400.00" y="260.00" id="8647">阿冉特</text><rect Type="system" Region="精华之域" height="5.00" y="660.00" Name="维查乌得" width="5.00" x="350.00" id="8649" ID="30004991" /><text x="350.00" y="660.00" id="8650">维查乌得</text><rect Type="system" Region="精华之域" height="5.00" y="680.00" Name="帕尔蒙" width="5.00" x="430.00" id="8652" ID="30004992" /><text x="430.00" y="680.00" id="8653">帕尔蒙</text><rect Type="system" Region="精华之域" height="5.00" y="300.00" Name="欧宝耶" width="5.00" x="450.00" id="8655" ID="30004996" /><text x="450.00" y="300.00" id="8656">欧宝耶</text><rect Type="system" Region="精华之域" height="5.00" y="580.00" Name="卓瑟罗瑞" width="5.00" x="450.00" id="8658" ID="30005011" /><text x="450.00" y="580.00" id="8659">卓瑟罗瑞</text><rect Type="system" Region="精华之域" height="5.00" y="355.50" Name="帕特斯" width="5.00" x="450.00" id="8661" ID="30004998" /><text x="450.00" y="355.50" id="8662">帕特斯</text><rect Type="system" Region="精华之域" height="5.00" y="404.50" Name="阿勒宾" width="5.00" x="450.00" id="8664" ID="30005009" /><text x="450.00" y="404.50" id="8665">阿勒宾</text><rect Type="system" Region="精华之域" height="5.00" y="480.00" Name="阿特鲁勒" width="5.00" x="450.00" id="8667" ID="30005010" /><text x="450.00" y="480.00" id="8668">阿特鲁勒</text><rect Type="system" Region="精华之域" height="5.00" y="204.50" Name="美希比尔" width="5.00" x="450.00" id="8670" ID="30004975" /><text x="450.00" y="204.50" id="8671">美希比尔</text><rect Type="system" Region="精华之域" height="5.00" y="100.00" Name="印卓古勒" width="5.00" x="520.00" id="8673" ID="30004982" /><text x="520.00" y="100.00" id="8674">印卓古勒</text><rect Type="system" Region="精华之域" height="5.00" y="430.00" Name="伦因" width="5.00" x="550.00" id="8676" ID="30004970" /><text x="550.00" y="430.00" id="8677">伦因</text><rect Type="system" Region="精华之域" height="5.00" y="530.00" Name="杜利潘特" width="5.00" x="550.00" id="8679" ID="30004971" /><text x="550.00" y="530.00" id="8680">杜利潘特</text><rect Type="system" Region="精华之域" height="5.00" y="55.50" Name="希迭勒斯" width="5.00" x="600.00" id="8682" ID="30004979" /><text x="600.00" y="55.50" id="8683">希迭勒斯</text><rect Type="system" Region="精华之域" height="5.00" y="104.50" Name="埃布尼" width="5.00" x="600.00" id="8685" ID="30004984" /><text x="600.00" y="104.50" id="8686">埃布尼</text><rect Type="system" Region="精华之域" height="5.00" y="430.00" Name="奥苏拉尔特" width="5.00" x="650.00" id="8688" ID="30004969" /><text x="650.00" y="430.00" id="8689">奥苏拉尔特</text><rect Type="system" Region="精华之域" height="5.00" y="230.00" Name="安尼" width="5.00" x="680.00" id="8691" ID="30005022" /><text x="680.00" y="230.00" id="8692">安尼</text><rect Type="system" Region="精华之域" height="5.00" y="280.00" Name="瑟伊林" width="5.00" x="680.00" id="8694" ID="30005020" /><text x="680.00" y="280.00" id="8695">瑟伊林</text><rect Type="system" Region="精华之域" height="5.00" y="130.00" Name="耶万基尔" width="5.00" x="700.00" id="8697" ID="30004977" /><text x="700.00" y="130.00" id="8698">耶万基尔</text><rect Type="system" Region="精华之域" height="5.00" y="460.00" Name="米尔斯" width="5.00" x="700.00" id="8700" ID="30004968" /><text x="700.00" y="460.00" id="8701">米尔斯</text><rect Type="system" Region="精华之域" height="5.00" y="700.00" Name="寇斯特" width="5.00" x="760.00" id="8703" ID="30014971" /><text x="760.00" y="700.00" id="8704">寇斯特</text><rect Type="system" Region="精华之域" height="5.00" y="550.00" Name="泛光之源" width="5.00" x="760.00" id="8706" ID="30004967" /><text x="760.00" y="550.00" id="8707">泛光之源</text><rect Type="system" Region="精华之域" height="5.00" y="630.00" Name="埃戈吉勒" width="5.00" x="760.00" id="8709" ID="30004972" /><text x="760.00" y="630.00" id="8710">埃戈吉勒</text><rect Type="system" Region="精华之域" height="5.00" y="30.00" Name="弗列特" width="5.00" x="720.00" id="8712" ID="30004980" /><text x="720.00" y="30.00" id="8713">弗列特</text><rect Type="system" Region="精华之域" height="5.00" y="80.00" Name="埃克提" width="5.00" x="720.00" id="8715" ID="30004981" /><text x="720.00" y="80.00" id="8716">埃克提</text><rect Type="system" Region="精华之域" height="5.00" y="300.00" Name="阿波鲁列" width="5.00" x="750.00" id="8718" ID="30005019" /><text x="750.00" y="300.00" id="8719">阿波鲁列</text><rect Type="system" Region="精华之域" height="5.00" y="200.00" Name="克洛特勒" width="5.00" x="750.00" id="8721" ID="30005023" /><text x="750.00" y="200.00" id="8722">克洛特勒</text><rect Type="system" Region="精华之域" height="5.00" y="260.00" Name="埃卓尔" width="5.00" x="800.00" id="8724" ID="30005021" /><text x="800.00" y="260.00" id="8725">埃卓尔</text><rect Type="system" Region="精华之域" height="5.00" y="30.00" Name="德温" width="5.00" x="820.00" id="8727" ID="30004985" /><text x="820.00" y="30.00" id="8728">德温</text><rect Type="system" Region="精华之域" height="5.00" y="80.00" Name="安玛尼" width="5.00" x="820.00" id="8730" ID="30004983" /><text x="820.00" y="80.00" id="8731">安玛尼</text><rect Type="system" Region="精华之域" height="5.00" y="380.00" Name="维萨兰" width="5.00" x="820.00" id="8733" ID="30005016" /><text x="820.00" y="380.00" id="8734">维萨兰</text><rect Type="system" Region="精华之域" height="5.00" y="430.00" Name="希恩彻尔" width="5.00" x="820.00" id="8736" ID="30005015" /><text x="820.00" y="430.00" id="8737">希恩彻尔</text><rect Type="system" Region="精华之域" height="5.00" y="155.50" Name="查莫罗特" width="5.00" x="850.00" id="8739" ID="30004976" /><text x="850.00" y="155.50" id="8740">查莫罗特</text><rect Type="system" Region="精华之域" height="5.00" y="204.50" Name="卡瑟蒙" width="5.00" x="850.00" id="8742" ID="30004973" /><text x="850.00" y="204.50" id="8743">卡瑟蒙</text><rect Type="system" Region="精华之域" height="5.00" y="326.17" Name="尤纳" width="5.00" x="846.08" id="8745" ID="30005017" /><text x="846.08" y="326.17" id="8746">尤纳</text><rect Type="system" Region="精华之域" height="5.00" y="260.00" Name="诺格希尔" width="5.00" x="880.00" id="8748" ID="30005018" /><text x="880.00" y="260.00" id="8749">诺格希尔</text><rect Type="system" Region="精华之域" height="5.00" y="359.56" Name="美索克尔" width="5.00" x="881.93" id="8751" ID="30044971" /><text x="881.93" y="359.56" id="8752">美索克尔</text><rect Type="system" Region="精华之域" height="5.00" y="404.27" Name="哈勒贝尼" width="5.00" x="901.99" id="8754" ID="30034971" /><text x="901.99" y="404.27" id="8755">哈勒贝尼</text><rect Type="system" Region="精华之域" height="5.00" y="80.00" Name="伊斯塔尼特" width="5.00" x="920.00" id="8757" ID="30004986" /><text x="920.00" y="80.00" id="8758">伊斯塔尼特</text><rect Type="system" Region="精华之域" height="5.00" y="180.00" Name="乔勒韦尔" width="5.00" x="920.00" id="8760" ID="30004974" /><text x="920.00" y="180.00" id="8761">乔勒韦尔</text><rect Type="system" Region="吉勒西斯" height="5.00" y="262.32" Name="奥拉菲特" width="5.00" x="97.68" id="8763" ID="30005203" /><text x="97.68" y="262.32" id="8764">奥拉菲特</text><rect Type="system" Region="维格温铎" height="5.00" y="330.00" Name="乔万农" width="5.00" x="100.00" id="8766" ID="30005321" /><text x="100.00" y="330.00" id="8767">乔万农</text><rect Type="system" Region="维格温铎" height="5.00" y="280.00" Name="铁里耶维" width="5.00" x="150.00" id="8769" ID="30005334" /><text x="150.00" y="280.00" id="8770">铁里耶维</text><rect Type="system" Region="吉勒西斯" height="5.00" y="355.50" Name="厄姆萨" width="5.00" x="250.00" id="8772" ID="30005202" /><text x="250.00" y="355.50" id="8773">厄姆萨</text><rect Type="system" Region="维格温铎" height="5.00" y="304.50" Name="安德瑞亚" width="5.00" x="320.00" id="8775" ID="30005329" /><text x="320.00" y="304.50" id="8776">安德瑞亚</text><rect Type="system" Region="维格温铎" height="5.00" y="460.00" Name="埃拉隆" width="5.00" x="320.00" id="8778" ID="30005330" /><text x="320.00" y="460.00" id="8779">埃拉隆</text><rect Type="system" Region="吉勒西斯" height="5.00" y="360.00" Name="科梅尔克" width="5.00" x="350.00" id="8781" ID="30005206" /><text x="350.00" y="360.00" id="8782">科梅尔克</text><rect Type="system" Region="宁静之域" height="5.00" y="155.50" Name="俄沃勒" width="5.00" x="450.00" id="8784" ID="30003830" /><text x="450.00" y="155.50" id="8785">俄沃勒</text><rect Type="system" Region="金纳泽" height="5.00" y="730.00" Name="里尔米勒维" width="5.00" x="490.00" id="8787" ID="30002728" /><text x="490.00" y="730.00" id="8788">里尔米勒维</text><rect Type="system" Region="维格温铎" height="5.00" y="160.00" Name="缪勒坦" width="5.00" x="520.00" id="8790" ID="30005295" /><text x="520.00" y="160.00" id="8791">缪勒坦</text><rect Type="system" Region="金纳泽" height="5.00" y="580.00" Name="卓瑟昆斯勒" width="5.00" x="520.00" id="8793" ID="30002668" /><text x="520.00" y="580.00" id="8794">卓瑟昆斯勒</text><rect Type="system" Region="金纳泽" height="5.00" y="280.00" Name="厄尔梅" width="5.00" x="550.00" id="8796" ID="30002640" /><text x="550.00" y="280.00" id="8797">厄尔梅</text><rect Type="system" Region="金纳泽" height="5.00" y="330.00" Name="格里安卡尼" width="5.00" x="550.00" id="8799" ID="30002636" /><text x="550.00" y="330.00" id="8800">格里安卡尼</text><rect Type="system" Region="金纳泽" height="5.00" y="280.00" Name="梅茨瑞" width="5.00" x="600.00" id="8802" ID="30002637" /><text x="600.00" y="280.00" id="8803">梅茨瑞</text><rect Type="system" Region="金纳泽" height="5.00" y="330.00" Name="杜安尼斯" width="5.00" x="600.00" id="8805" ID="30002633" /><text x="600.00" y="330.00" id="8806">杜安尼斯</text><rect Type="system" Region="暗涌之域" height="5.00" y="160.00" Name="欧纳斯肯" width="5.00" x="620.00" id="8808" ID="30045347" /><text x="620.00" y="160.00" id="8809">欧纳斯肯</text><rect Type="system" Region="吉勒西斯" height="5.00" y="380.00" Name="帕克什" width="5.00" x="650.00" id="8811" ID="30005198" /><text x="650.00" y="380.00" id="8812">帕克什</text><rect Type="system" Region="埃维希尔" height="5.00" y="480.00" Name="贝勒耶" width="5.00" x="650.00" id="8814" ID="30003014" /><text x="650.00" y="480.00" id="8815">贝勒耶</text><rect Type="system" Region="金纳泽" height="5.00" y="360.00" Name="佩汀克" width="5.00" x="720.00" id="8817" ID="30002632" /><text x="720.00" y="360.00" id="8818">佩汀克</text><rect Type="system" Region="赛塔德洱" height="5.00" y="30.00" Name="那加玛嫩" width="5.00" x="920.00" id="8820" ID="30002807" /><text x="920.00" y="30.00" id="8821">那加玛嫩</text><rect Type="system" Region="赛塔德洱" height="5.00" y="530.00" Name="卡斯简恩" width="5.00" x="920.00" id="8823" ID="30002761" /><text x="920.00" y="530.00" id="8824">卡斯简恩</text><rect Type="system" Region="赛塔德洱" height="5.00" y="280.00" Name="亚述勒恩" width="5.00" x="950.00" id="8826" ID="30002762" /><text x="950.00" y="280.00" id="8827">亚述勒恩</text><line x2="150.00" style="fill:blue;stroke:blue;" y1="60.00" x1="50.00" id="8829" y2="100.00" /><line x2="300.00" style="fill:blue;stroke:blue;" y1="60.00" x1="50.00" id="8830" y2="60.00" /><line x2="50.00" style="fill:blue;stroke:blue;" y1="60.00" x1="50.00" id="8831" y2="400.00" /><line x2="50.00" style="fill:blue;stroke:blue;" y1="400.00" x1="50.00" id="8832" y2="700.00" /><line x2="50.00" style="fill:blue;stroke:blue;" y1="400.00" x1="50.00" id="8833" y2="60.00" /><line x2="150.00" style="fill:blue;stroke:blue;" y1="400.00" x1="50.00" id="8834" y2="355.50" /><line x2="100.00" style="fill:blue;stroke:blue;" y1="400.00" x1="50.00" id="8835" y2="530.00" /><line x2="100.00" style="fill:blue;stroke:blue;" y1="400.00" x1="50.00" id="8836" y2="330.00" /><line x2="350.00" style="fill:blue;stroke:blue;" y1="700.00" x1="50.00" id="8837" y2="600.00" /><line x2="130.00" style="fill:blue;stroke:blue;" y1="700.00" x1="50.00" id="8838" y2="600.00" /><line x2="350.00" style="fill:blue;stroke:blue;" y1="700.00" x1="50.00" id="8839" y2="660.00" /><line x2="50.00" style="fill:blue;stroke:blue;" y1="700.00" x1="50.00" id="8840" y2="400.00" /><line x2="132.32" style="fill:blue;stroke:blue;" y1="180.00" x1="100.00" id="8841" y2="227.68" /><line x2="200.00" style="fill:blue;stroke:blue;" y1="530.00" x1="100.00" id="8842" y2="530.00" /><line x2="50.00" style="fill:blue;stroke:blue;" y1="530.00" x1="100.00" id="8843" y2="400.00" /><line x2="200.00" style="fill:blue;stroke:blue;" y1="227.68" x1="132.32" id="8844" y2="230.00" /><line x2="97.68" style="fill:blue;stroke:blue;" y1="227.68" x1="132.32" id="8845" y2="262.32" /><line x2="100.00" style="fill:blue;stroke:blue;" y1="227.68" x1="132.32" id="8846" y2="180.00" /><line x2="220.00" style="fill:blue;stroke:blue;" y1="100.00" x1="150.00" id="8847" y2="130.00" /><line x2="50.00" style="fill:blue;stroke:blue;" y1="100.00" x1="150.00" id="8848" y2="60.00" /><line x2="250.00" style="fill:blue;stroke:blue;" y1="355.50" x1="150.00" id="8849" y2="404.50" /><line x2="150.00" style="fill:blue;stroke:blue;" y1="355.50" x1="150.00" id="8850" y2="404.50" /><line x2="50.00" style="fill:blue;stroke:blue;" y1="355.50" x1="150.00" id="8851" y2="400.00" /><line x2="250.00" style="fill:blue;stroke:blue;" y1="404.50" x1="150.00" id="8852" y2="404.50" /><line x2="150.00" style="fill:blue;stroke:blue;" y1="404.50" x1="150.00" id="8853" y2="355.50" /><line x2="150.00" style="fill:blue;stroke:blue;" y1="404.50" x1="150.00" id="8854" y2="460.00" /><line x2="150.00" style="fill:blue;stroke:blue;" y1="460.00" x1="150.00" id="8855" y2="404.50" /><line x2="320.00" style="fill:blue;stroke:blue;" y1="460.00" x1="150.00" id="8856" y2="460.00" /><line x2="132.32" style="fill:blue;stroke:blue;" y1="230.00" x1="200.00" id="8857" y2="227.68" /><line x2="250.00" style="fill:blue;stroke:blue;" y1="230.00" x1="200.00" id="8858" y2="200.00" /><line x2="150.00" style="fill:blue;stroke:blue;" y1="230.00" x1="200.00" id="8859" y2="280.00" /><line x2="130.00" style="fill:blue;stroke:blue;" y1="530.00" x1="200.00" id="8860" y2="600.00" /><line x2="250.00" style="fill:blue;stroke:blue;" y1="530.00" x1="200.00" id="8861" y2="404.50" /><line x2="100.00" style="fill:blue;stroke:blue;" y1="530.00" x1="200.00" id="8862" y2="530.00" /><line x2="320.00" style="fill:blue;stroke:blue;" y1="130.00" x1="220.00" id="8863" y2="180.00" /><line x2="150.00" style="fill:blue;stroke:blue;" y1="130.00" x1="220.00" id="8864" y2="100.00" /><line x2="250.00" style="fill:blue;stroke:blue;" y1="300.00" x1="220.00" id="8865" y2="260.00" /><line x2="350.00" style="fill:blue;stroke:blue;" y1="600.00" x1="130.00" id="8866" y2="600.00" /><line x2="250.00" style="fill:blue;stroke:blue;" y1="600.00" x1="130.00" id="8867" y2="560.00" /><line x2="50.00" style="fill:blue;stroke:blue;" y1="600.00" x1="130.00" id="8868" y2="700.00" /><line x2="200.00" style="fill:blue;stroke:blue;" y1="600.00" x1="130.00" id="8869" y2="530.00" /><line x2="320.00" style="fill:blue;stroke:blue;" y1="200.00" x1="250.00" id="8870" y2="180.00" /><line x2="200.00" style="fill:blue;stroke:blue;" y1="200.00" x1="250.00" id="8871" y2="230.00" /><line x2="250.00" style="fill:blue;stroke:blue;" y1="200.00" x1="250.00" id="8872" y2="260.00" /><line x2="250.00" style="fill:blue;stroke:blue;" y1="260.00" x1="250.00" id="8873" y2="200.00" /><line x2="220.00" style="fill:blue;stroke:blue;" y1="260.00" x1="250.00" id="8874" y2="300.00" /><line x2="150.00" style="fill:blue;stroke:blue;" y1="404.50" x1="250.00" id="8875" y2="404.50" /><line x2="150.00" style="fill:blue;stroke:blue;" y1="404.50" x1="250.00" id="8876" y2="355.50" /><line x2="200.00" style="fill:blue;stroke:blue;" y1="404.50" x1="250.00" id="8877" y2="530.00" /><line x2="250.00" style="fill:blue;stroke:blue;" y1="404.50" x1="250.00" id="8878" y2="355.50" /><line x2="350.00" style="fill:blue;stroke:blue;" y1="560.00" x1="250.00" id="8879" y2="600.00" /><line x2="130.00" style="fill:blue;stroke:blue;" y1="560.00" x1="250.00" id="8880" y2="600.00" /><line x2="600.00" style="fill:blue;stroke:blue;" y1="60.00" x1="300.00" id="8881" y2="55.50" /><line x2="320.00" style="fill:blue;stroke:blue;" y1="60.00" x1="300.00" id="8882" y2="180.00" /><line x2="50.00" style="fill:blue;stroke:blue;" y1="60.00" x1="300.00" id="8883" y2="60.00" /><line x2="550.00" style="fill:blue;stroke:blue;" y1="180.00" x1="320.00" id="8884" y2="280.00" /><line x2="320.00" style="fill:blue;stroke:blue;" y1="180.00" x1="320.00" id="8885" y2="255.50" /><line x2="400.00" style="fill:blue;stroke:blue;" y1="180.00" x1="320.00" id="8886" y2="260.00" /><line x2="220.00" style="fill:blue;stroke:blue;" y1="180.00" x1="320.00" id="8887" y2="130.00" /><line x2="300.00" style="fill:blue;stroke:blue;" y1="180.00" x1="320.00" id="8888" y2="60.00" /><line x2="250.00" style="fill:blue;stroke:blue;" y1="180.00" x1="320.00" id="8889" y2="200.00" /><line x2="450.00" style="fill:blue;stroke:blue;" y1="255.50" x1="320.00" id="8890" y2="204.50" /><line x2="320.00" style="fill:blue;stroke:blue;" y1="255.50" x1="320.00" id="8891" y2="180.00" /><line x2="320.00" style="fill:blue;stroke:blue;" y1="255.50" x1="320.00" id="8892" y2="304.50" /><line x2="130.00" style="fill:blue;stroke:blue;" y1="600.00" x1="350.00" id="8893" y2="600.00" /><line x2="250.00" style="fill:blue;stroke:blue;" y1="600.00" x1="350.00" id="8894" y2="560.00" /><line x2="50.00" style="fill:blue;stroke:blue;" y1="600.00" x1="350.00" id="8895" y2="700.00" /><line x2="350.00" style="fill:blue;stroke:blue;" y1="600.00" x1="350.00" id="8896" y2="360.00" /><line x2="450.00" style="fill:blue;stroke:blue;" y1="380.00" x1="400.00" id="8897" y2="404.50" /><line x2="400.00" style="fill:blue;stroke:blue;" y1="380.00" x1="400.00" id="8898" y2="460.00" /><line x2="450.00" style="fill:blue;stroke:blue;" y1="460.00" x1="400.00" id="8899" y2="404.50" /><line x2="400.00" style="fill:blue;stroke:blue;" y1="460.00" x1="400.00" id="8900" y2="380.00" /><line x2="450.00" style="fill:blue;stroke:blue;" y1="530.00" x1="400.00" id="8901" y2="480.00" /><line x2="320.00" style="fill:blue;stroke:blue;" y1="260.00" x1="400.00" id="8902" y2="180.00" /><line x2="450.00" style="fill:blue;stroke:blue;" y1="260.00" x1="400.00" id="8903" y2="300.00" /><line x2="350.00" style="fill:blue;stroke:blue;" y1="260.00" x1="400.00" id="8904" y2="360.00" /><line x2="50.00" style="fill:blue;stroke:blue;" y1="660.00" x1="350.00" id="8905" y2="700.00" /><line x2="430.00" style="fill:blue;stroke:blue;" y1="660.00" x1="350.00" id="8906" y2="680.00" /><line x2="450.00" style="fill:blue;stroke:blue;" y1="660.00" x1="350.00" id="8907" y2="580.00" /><line x2="490.00" style="fill:blue;stroke:blue;" y1="680.00" x1="430.00" id="8908" y2="730.00" /><line x2="350.00" style="fill:blue;stroke:blue;" y1="680.00" x1="430.00" id="8909" y2="660.00" /><line x2="400.00" style="fill:blue;stroke:blue;" y1="300.00" x1="450.00" id="8910" y2="260.00" /><line x2="450.00" style="fill:blue;stroke:blue;" y1="300.00" x1="450.00" id="8911" y2="355.50" /><line x2="350.00" style="fill:blue;stroke:blue;" y1="580.00" x1="450.00" id="8912" y2="660.00" /><line x2="450.00" style="fill:blue;stroke:blue;" y1="580.00" x1="450.00" id="8913" y2="480.00" /><line x2="450.00" style="fill:blue;stroke:blue;" y1="355.50" x1="450.00" id="8914" y2="300.00" /><line x2="450.00" style="fill:blue;stroke:blue;" y1="355.50" x1="450.00" id="8915" y2="404.50" /><line x2="450.00" style="fill:blue;stroke:blue;" y1="404.50" x1="450.00" id="8916" y2="355.50" /><line x2="450.00" style="fill:blue;stroke:blue;" y1="404.50" x1="450.00" id="8917" y2="480.00" /><line x2="400.00" style="fill:blue;stroke:blue;" y1="404.50" x1="450.00" id="8918" y2="380.00" /><line x2="400.00" style="fill:blue;stroke:blue;" y1="404.50" x1="450.00" id="8919" y2="460.00" /><line x2="450.00" style="fill:blue;stroke:blue;" y1="480.00" x1="450.00" id="8920" y2="404.50" /><line x2="450.00" style="fill:blue;stroke:blue;" y1="480.00" x1="450.00" id="8921" y2="580.00" /><line x2="400.00" style="fill:blue;stroke:blue;" y1="480.00" x1="450.00" id="8922" y2="530.00" /><line x2="450.00" style="fill:blue;stroke:blue;" y1="204.50" x1="450.00" id="8923" y2="155.50" /><line x2="850.00" style="fill:blue;stroke:blue;" y1="204.50" x1="450.00" id="8924" y2="204.50" /><line x2="320.00" style="fill:blue;stroke:blue;" y1="204.50" x1="450.00" id="8925" y2="255.50" /><line x2="520.00" style="fill:blue;stroke:blue;" y1="204.50" x1="450.00" id="8926" y2="160.00" /><line x2="600.00" style="fill:blue;stroke:blue;" y1="100.00" x1="520.00" id="8927" y2="55.50" /><line x2="520.00" style="fill:blue;stroke:blue;" y1="100.00" x1="520.00" id="8928" y2="160.00" /><line x2="600.00" style="fill:blue;stroke:blue;" y1="430.00" x1="550.00" id="8929" y2="330.00" /><line x2="550.00" style="fill:blue;stroke:blue;" y1="430.00" x1="550.00" id="8930" y2="330.00" /><line x2="650.00" style="fill:blue;stroke:blue;" y1="430.00" x1="550.00" id="8931" y2="430.00" /><line x2="550.00" style="fill:blue;stroke:blue;" y1="430.00" x1="550.00" id="8932" y2="530.00" /><line x2="760.00" style="fill:blue;stroke:blue;" y1="430.00" x1="550.00" id="8933" y2="630.00" /><line x2="650.00" style="fill:blue;stroke:blue;" y1="430.00" x1="550.00" id="8934" y2="380.00" /><line x2="520.00" style="fill:blue;stroke:blue;" y1="530.00" x1="550.00" id="8935" y2="580.00" /><line x2="550.00" style="fill:blue;stroke:blue;" y1="530.00" x1="550.00" id="8936" y2="430.00" /><line x2="700.00" style="fill:blue;stroke:blue;" y1="55.50" x1="600.00" id="8937" y2="130.00" /><line x2="720.00" style="fill:blue;stroke:blue;" y1="55.50" x1="600.00" id="8938" y2="30.00" /><line x2="720.00" style="fill:blue;stroke:blue;" y1="55.50" x1="600.00" id="8939" y2="80.00" /><line x2="520.00" style="fill:blue;stroke:blue;" y1="55.50" x1="600.00" id="8940" y2="100.00" /><line x2="600.00" style="fill:blue;stroke:blue;" y1="55.50" x1="600.00" id="8941" y2="104.50" /><line x2="300.00" style="fill:blue;stroke:blue;" y1="55.50" x1="600.00" id="8942" y2="60.00" /><line x2="600.00" style="fill:blue;stroke:blue;" y1="104.50" x1="600.00" id="8943" y2="55.50" /><line x2="620.00" style="fill:blue;stroke:blue;" y1="104.50" x1="600.00" id="8944" y2="160.00" /><line x2="700.00" style="fill:blue;stroke:blue;" y1="430.00" x1="650.00" id="8945" y2="460.00" /><line x2="550.00" style="fill:blue;stroke:blue;" y1="430.00" x1="650.00" id="8946" y2="430.00" /><line x2="650.00" style="fill:blue;stroke:blue;" y1="430.00" x1="650.00" id="8947" y2="380.00" /><line x2="680.00" style="fill:blue;stroke:blue;" y1="230.00" x1="680.00" id="8948" y2="280.00" /><line x2="750.00" style="fill:blue;stroke:blue;" y1="230.00" x1="680.00" id="8949" y2="200.00" /><line x2="600.00" style="fill:blue;stroke:blue;" y1="280.00" x1="680.00" id="8950" y2="280.00" /><line x2="750.00" style="fill:blue;stroke:blue;" y1="280.00" x1="680.00" id="8951" y2="300.00" /><line x2="680.00" style="fill:blue;stroke:blue;" y1="280.00" x1="680.00" id="8952" y2="230.00" /><line x2="850.00" style="fill:blue;stroke:blue;" y1="130.00" x1="700.00" id="8953" y2="155.50" /><line x2="600.00" style="fill:blue;stroke:blue;" y1="130.00" x1="700.00" id="8954" y2="55.50" /><line x2="650.00" style="fill:blue;stroke:blue;" y1="460.00" x1="700.00" id="8955" y2="480.00" /><line x2="760.00" style="fill:blue;stroke:blue;" y1="460.00" x1="700.00" id="8956" y2="550.00" /><line x2="650.00" style="fill:blue;stroke:blue;" y1="460.00" x1="700.00" id="8957" y2="430.00" /><line x2="760.00" style="fill:blue;stroke:blue;" y1="700.00" x1="760.00" id="8958" y2="630.00" /><line x2="720.00" style="fill:blue;stroke:blue;" y1="550.00" x1="760.00" id="8959" y2="360.00" /><line x2="700.00" style="fill:blue;stroke:blue;" y1="550.00" x1="760.00" id="8960" y2="460.00" /><line x2="760.00" style="fill:blue;stroke:blue;" y1="550.00" x1="760.00" id="8961" y2="630.00" /><line x2="920.00" style="fill:blue;stroke:blue;" y1="630.00" x1="760.00" id="8962" y2="530.00" /><line x2="760.00" style="fill:blue;stroke:blue;" y1="630.00" x1="760.00" id="8963" y2="550.00" /><line x2="550.00" style="fill:blue;stroke:blue;" y1="630.00" x1="760.00" id="8964" y2="430.00" /><line x2="820.00" style="fill:blue;stroke:blue;" y1="630.00" x1="760.00" id="8965" y2="430.00" /><line x2="760.00" style="fill:blue;stroke:blue;" y1="630.00" x1="760.00" id="8966" y2="700.00" /><line x2="600.00" style="fill:blue;stroke:blue;" y1="30.00" x1="720.00" id="8967" y2="55.50" /><line x2="720.00" style="fill:blue;stroke:blue;" y1="30.00" x1="720.00" id="8968" y2="80.00" /><line x2="820.00" style="fill:blue;stroke:blue;" y1="30.00" x1="720.00" id="8969" y2="30.00" /><line x2="600.00" style="fill:blue;stroke:blue;" y1="80.00" x1="720.00" id="8970" y2="55.50" /><line x2="720.00" style="fill:blue;stroke:blue;" y1="80.00" x1="720.00" id="8971" y2="30.00" /><line x2="820.00" style="fill:blue;stroke:blue;" y1="80.00" x1="720.00" id="8972" y2="80.00" /><line x2="820.00" style="fill:blue;stroke:blue;" y1="300.00" x1="750.00" id="8973" y2="380.00" /><line x2="846.08" style="fill:blue;stroke:blue;" y1="300.00" x1="750.00" id="8974" y2="326.17" /><line x2="680.00" style="fill:blue;stroke:blue;" y1="300.00" x1="750.00" id="8975" y2="280.00" /><line x2="680.00" style="fill:blue;stroke:blue;" y1="200.00" x1="750.00" id="8976" y2="230.00" /><line x2="850.00" style="fill:blue;stroke:blue;" y1="260.00" x1="800.00" id="8977" y2="204.50" /><line x2="846.08" style="fill:blue;stroke:blue;" y1="260.00" x1="800.00" id="8978" y2="326.17" /><line x2="880.00" style="fill:blue;stroke:blue;" y1="260.00" x1="800.00" id="8979" y2="260.00" /><line x2="920.00" style="fill:blue;stroke:blue;" y1="30.00" x1="820.00" id="8980" y2="30.00" /><line x2="720.00" style="fill:blue;stroke:blue;" y1="30.00" x1="820.00" id="8981" y2="30.00" /><line x2="720.00" style="fill:blue;stroke:blue;" y1="80.00" x1="820.00" id="8982" y2="80.00" /><line x2="920.00" style="fill:blue;stroke:blue;" y1="80.00" x1="820.00" id="8983" y2="80.00" /><line x2="820.00" style="fill:blue;stroke:blue;" y1="380.00" x1="820.00" id="8984" y2="430.00" /><line x2="846.08" style="fill:blue;stroke:blue;" y1="380.00" x1="820.00" id="8985" y2="326.17" /><line x2="750.00" style="fill:blue;stroke:blue;" y1="380.00" x1="820.00" id="8986" y2="300.00" /><line x2="881.93" style="fill:blue;stroke:blue;" y1="380.00" x1="820.00" id="8987" y2="359.56" /><line x2="920.00" style="fill:blue;stroke:blue;" y1="430.00" x1="820.00" id="8988" y2="530.00" /><line x2="760.00" style="fill:blue;stroke:blue;" y1="430.00" x1="820.00" id="8989" y2="630.00" /><line x2="820.00" style="fill:blue;stroke:blue;" y1="430.00" x1="820.00" id="8990" y2="380.00" /><line x2="650.00" style="fill:blue;stroke:blue;" y1="430.00" x1="820.00" id="8991" y2="380.00" /><line x2="901.99" style="fill:blue;stroke:blue;" y1="430.00" x1="820.00" id="8992" y2="404.27" /><line x2="850.00" style="fill:blue;stroke:blue;" y1="155.50" x1="850.00" id="8993" y2="204.50" /><line x2="920.00" style="fill:blue;stroke:blue;" y1="155.50" x1="850.00" id="8994" y2="180.00" /><line x2="700.00" style="fill:blue;stroke:blue;" y1="155.50" x1="850.00" id="8995" y2="130.00" /><line x2="920.00" style="fill:blue;stroke:blue;" y1="204.50" x1="850.00" id="8996" y2="180.00" /><line x2="450.00" style="fill:blue;stroke:blue;" y1="204.50" x1="850.00" id="8997" y2="204.50" /><line x2="850.00" style="fill:blue;stroke:blue;" y1="204.50" x1="850.00" id="8998" y2="155.50" /><line x2="880.00" style="fill:blue;stroke:blue;" y1="204.50" x1="850.00" id="8999" y2="260.00" /><line x2="800.00" style="fill:blue;stroke:blue;" y1="204.50" x1="850.00" id="9000" y2="260.00" /><line x2="820.00" style="fill:blue;stroke:blue;" y1="326.17" x1="846.08" id="9001" y2="380.00" /><line x2="880.00" style="fill:blue;stroke:blue;" y1="326.17" x1="846.08" id="9002" y2="260.00" /><line x2="750.00" style="fill:blue;stroke:blue;" y1="326.17" x1="846.08" id="9003" y2="300.00" /><line x2="800.00" style="fill:blue;stroke:blue;" y1="326.17" x1="846.08" id="9004" y2="260.00" /><line x2="850.00" style="fill:blue;stroke:blue;" y1="260.00" x1="880.00" id="9005" y2="204.50" /><line x2="846.08" style="fill:blue;stroke:blue;" y1="260.00" x1="880.00" id="9006" y2="326.17" /><line x2="800.00" style="fill:blue;stroke:blue;" y1="260.00" x1="880.00" id="9007" y2="260.00" /><line x2="820.00" style="fill:blue;stroke:blue;" y1="359.56" x1="881.93" id="9008" y2="380.00" /><line x2="820.00" style="fill:blue;stroke:blue;" y1="404.27" x1="901.99" id="9009" y2="430.00" /><line x2="820.00" style="fill:blue;stroke:blue;" y1="80.00" x1="920.00" id="9010" y2="80.00" /><line x2="950.00" style="fill:blue;stroke:blue;" y1="180.00" x1="920.00" id="9011" y2="280.00" /><line x2="850.00" style="fill:blue;stroke:blue;" y1="180.00" x1="920.00" id="9012" y2="204.50" /><line x2="850.00" style="fill:blue;stroke:blue;" y1="180.00" x1="920.00" id="9013" y2="155.50" /><line x2="132.32" style="fill:blue;stroke:blue;" y1="262.32" x1="97.68" id="9014" y2="227.68" /><line x2="50.00" style="fill:blue;stroke:blue;" y1="330.00" x1="100.00" id="9015" y2="400.00" /><line x2="200.00" style="fill:blue;stroke:blue;" y1="280.00" x1="150.00" id="9016" y2="230.00" /><line x2="250.00" style="fill:blue;stroke:blue;" y1="355.50" x1="250.00" id="9017" y2="404.50" /><line x2="320.00" style="fill:blue;stroke:blue;" y1="304.50" x1="320.00" id="9018" y2="255.50" /><line x2="320.00" style="fill:blue;stroke:blue;" y1="304.50" x1="320.00" id="9019" y2="460.00" /><line x2="150.00" style="fill:blue;stroke:blue;" y1="460.00" x1="320.00" id="9020" y2="460.00" /><line x2="320.00" style="fill:blue;stroke:blue;" y1="460.00" x1="320.00" id="9021" y2="304.50" /><line x2="350.00" style="fill:blue;stroke:blue;" y1="360.00" x1="350.00" id="9022" y2="600.00" /><line x2="400.00" style="fill:blue;stroke:blue;" y1="360.00" x1="350.00" id="9023" y2="260.00" /><line x2="450.00" style="fill:blue;stroke:blue;" y1="155.50" x1="450.00" id="9024" y2="204.50" /><line x2="430.00" style="fill:blue;stroke:blue;" y1="730.00" x1="490.00" id="9025" y2="680.00" /><line x2="450.00" style="fill:blue;stroke:blue;" y1="160.00" x1="520.00" id="9026" y2="204.50" /><line x2="520.00" style="fill:blue;stroke:blue;" y1="160.00" x1="520.00" id="9027" y2="100.00" /><line x2="550.00" style="fill:blue;stroke:blue;" y1="580.00" x1="520.00" id="9028" y2="530.00" /><line x2="600.00" style="fill:blue;stroke:blue;" y1="280.00" x1="550.00" id="9029" y2="330.00" /><line x2="550.00" style="fill:blue;stroke:blue;" y1="280.00" x1="550.00" id="9030" y2="330.00" /><line x2="600.00" style="fill:blue;stroke:blue;" y1="280.00" x1="550.00" id="9031" y2="280.00" /><line x2="320.00" style="fill:blue;stroke:blue;" y1="280.00" x1="550.00" id="9032" y2="180.00" /><line x2="600.00" style="fill:blue;stroke:blue;" y1="330.00" x1="550.00" id="9033" y2="330.00" /><line x2="550.00" style="fill:blue;stroke:blue;" y1="330.00" x1="550.00" id="9034" y2="280.00" /><line x2="550.00" style="fill:blue;stroke:blue;" y1="330.00" x1="550.00" id="9035" y2="430.00" /><line x2="600.00" style="fill:blue;stroke:blue;" y1="280.00" x1="600.00" id="9036" y2="330.00" /><line x2="550.00" style="fill:blue;stroke:blue;" y1="280.00" x1="600.00" id="9037" y2="280.00" /><line x2="680.00" style="fill:blue;stroke:blue;" y1="280.00" x1="600.00" id="9038" y2="280.00" /><line x2="720.00" style="fill:blue;stroke:blue;" y1="330.00" x1="600.00" id="9039" y2="360.00" /><line x2="550.00" style="fill:blue;stroke:blue;" y1="330.00" x1="600.00" id="9040" y2="330.00" /><line x2="600.00" style="fill:blue;stroke:blue;" y1="330.00" x1="600.00" id="9041" y2="280.00" /><line x2="550.00" style="fill:blue;stroke:blue;" y1="330.00" x1="600.00" id="9042" y2="280.00" /><line x2="550.00" style="fill:blue;stroke:blue;" y1="330.00" x1="600.00" id="9043" y2="430.00" /><line x2="600.00" style="fill:blue;stroke:blue;" y1="160.00" x1="620.00" id="9044" y2="104.50" /><line x2="650.00" style="fill:blue;stroke:blue;" y1="380.00" x1="650.00" id="9045" y2="430.00" /><line x2="550.00" style="fill:blue;stroke:blue;" y1="380.00" x1="650.00" id="9046" y2="430.00" /><line x2="820.00" style="fill:blue;stroke:blue;" y1="380.00" x1="650.00" id="9047" y2="430.00" /><line x2="700.00" style="fill:blue;stroke:blue;" y1="480.00" x1="650.00" id="9048" y2="460.00" /><line x2="600.00" style="fill:blue;stroke:blue;" y1="360.00" x1="720.00" id="9049" y2="330.00" /><line x2="760.00" style="fill:blue;stroke:blue;" y1="360.00" x1="720.00" id="9050" y2="550.00" /><line x2="820.00" style="fill:blue;stroke:blue;" y1="30.00" x1="920.00" id="9051" y2="30.00" /><line x2="950.00" style="fill:blue;stroke:blue;" y1="530.00" x1="920.00" id="9052" y2="280.00" /><line x2="760.00" style="fill:blue;stroke:blue;" y1="530.00" x1="920.00" id="9053" y2="630.00" /><line x2="820.00" style="fill:blue;stroke:blue;" y1="530.00" x1="920.00" id="9054" y2="430.00" /><line x2="920.00" style="fill:blue;stroke:blue;" y1="280.00" x1="950.00" id="9055" y2="530.00" /><line x2="920.00" style="fill:blue;stroke:blue;" y1="280.00" x1="950.00" id="9056" y2="180.00" /></svg>
