<?xml version="1.0" standalone="yes"?><!DOCTYPE svg PUBLIC "-//W3C//DTD SVG 1.1//EN" "http://www.w3.org/Graphics/SVG/1.1/DTD/svg11.dtd"[]><svg width="1050.00" height="800.00" id="8567" xmlns="http://www.w3.org/2000/svg" xmlns:xlink="http://www.w3.org/1999/xlink"><rect Type="system" x="50.00" id="8568" height="5.00" width="5.00" Name="拉底赛迪尔" ID="30004999" Region="精华之域" y="60.00" /><text y="60.00" x="50.00" id="8569">拉底赛迪尔</text><rect Type="system" x="50.00" id="8571" height="5.00" width="5.00" Name="耶舒尔" ID="30005008" Region="精华之域" y="400.00" /><text y="400.00" x="50.00" id="8572">耶舒尔</text><rect Type="system" x="50.00" id="8574" height="5.00" width="5.00" Name="欧尼" ID="30004990" Region="精华之域" y="700.00" /><text y="700.00" x="50.00" id="8575">欧尼</text><rect Type="system" x="100.00" id="8577" height="5.00" width="5.00" Name="赫查理林" ID="30024971" Region="精华之域" y="180.00" /><text y="180.00" x="100.00" id="8578">赫查理林</text><rect Type="system" x="100.00" id="8580" height="5.00" width="5.00" Name="里斯巴塔尼" ID="30005007" Region="精华之域" y="530.00" /><text y="530.00" x="100.00" id="8581">里斯巴塔尼</text><rect Type="system" x="132.32" id="8583" height="5.00" width="5.00" Name="亚特兰杰斯" ID="30005024" Region="精华之域" y="227.68" /><text y="227.68" x="132.32" id="8584">亚特兰杰斯</text><rect Type="system" x="150.00" id="8586" height="5.00" width="5.00" Name="维佛瓦特" ID="30004997" Region="精华之域" y="100.00" /><text y="100.00" x="150.00" id="8587">维佛瓦特</text><rect Type="system" x="150.00" id="8589" height="5.00" width="5.00" Name="埃迪瑞恩" ID="30005003" Region="精华之域" y="355.50" /><text y="355.50" x="150.00" id="8590">埃迪瑞恩</text><rect Type="system" x="150.00" id="8592" height="5.00" width="5.00" Name="劳韦尔" ID="30005002" Region="精华之域" y="404.50" /><text y="404.50" x="150.00" id="8593">劳韦尔</text><rect Type="system" x="150.00" id="8595" height="5.00" width="5.00" Name="阿泰恩" ID="30005004" Region="精华之域" y="460.00" /><text y="460.00" x="150.00" id="8596">阿泰恩</text><rect Type="system" x="200.00" id="8598" height="5.00" width="5.00" Name="德瑞林特" ID="30005025" Region="精华之域" y="230.00" /><text y="230.00" x="200.00" id="8599">德瑞林特</text><rect Type="system" x="200.00" id="8601" height="5.00" width="5.00" Name="埃尔勒" ID="30005006" Region="精华之域" y="530.00" /><text y="530.00" x="200.00" id="8602">埃尔勒</text><rect Type="system" x="220.00" id="8604" height="5.00" width="5.00" Name="厄拉莫特" ID="30004995" Region="精华之域" y="130.00" /><text y="130.00" x="220.00" id="8605">厄拉莫特</text><rect Type="system" x="220.00" id="8607" height="5.00" width="5.00" Name="安多勒" ID="30005028" Region="精华之域" y="300.00" /><text y="300.00" x="220.00" id="8608">安多勒</text><rect Type="system" x="130.00" id="8610" height="5.00" width="5.00" Name="胡尔马特" ID="30004988" Region="精华之域" y="600.00" /><text y="600.00" x="130.00" id="8611">胡尔马特</text><rect Type="system" x="250.00" id="8613" height="5.00" width="5.00" Name="卡特" ID="30005026" Region="精华之域" y="200.00" /><text y="200.00" x="250.00" id="8614">卡特</text><rect Type="system" x="250.00" id="8616" height="5.00" width="5.00" Name="欧玛尔" ID="30005027" Region="精华之域" y="260.00" /><text y="260.00" x="250.00" id="8617">欧玛尔</text><rect Type="system" x="250.00" id="8619" height="5.00" width="5.00" Name="阿尔蒙" ID="30005001" Region="精华之域" y="404.50" /><text y="404.50" x="250.00" id="8620">阿尔蒙</text><rect Type="system" x="250.00" id="8622" height="5.00" width="5.00" Name="安纳格斯" ID="30004989" Region="精华之域" y="560.00" /><text y="560.00" x="250.00" id="8623">安纳格斯</text><rect Type="system" x="300.00" id="8625" height="5.00" width="5.00" Name="老人星" ID="30005000" Region="精华之域" y="60.00" /><text y="60.00" x="300.00" id="8626">老人星</text><rect Type="system" x="320.00" id="8628" height="5.00" width="5.00" Name="维洛勒" ID="30004993" Region="精华之域" y="180.00" /><text y="180.00" x="320.00" id="8629">维洛勒</text><rect Type="system" x="320.00" id="8631" height="5.00" width="5.00" Name="佩门勒" ID="30004978" Region="精华之域" y="255.50" /><text y="255.50" x="320.00" id="8632">佩门勒</text><rect Type="system" x="350.00" id="8634" height="5.00" width="5.00" Name="德妮娜的" ID="30004987" Region="精华之域" y="600.00" /><text y="600.00" x="350.00" id="8635">德妮娜的</text><rect Type="system" x="400.00" id="8637" height="5.00" width="5.00" Name="海勒" ID="30005012" Region="精华之域" y="380.00" /><text y="380.00" x="400.00" id="8638">海勒</text><rect Type="system" x="400.00" id="8640" height="5.00" width="5.00" Name="佩尔克希文" ID="30005013" Region="精华之域" y="460.00" /><text y="460.00" x="400.00" id="8641">佩尔克希文</text><rect Type="system" x="400.00" id="8643" height="5.00" width="5.00" Name="伊瑟南" ID="30005014" Region="精华之域" y="530.00" /><text y="530.00" x="400.00" id="8644">伊瑟南</text><rect Type="system" x="400.00" id="8646" height="5.00" width="5.00" Name="阿冉特" ID="30004994" Region="精华之域" y="260.00" /><text y="260.00" x="400.00" id="8647">阿冉特</text><rect Type="system" x="350.00" id="8649" height="5.00" width="5.00" Name="维查乌得" ID="30004991" Region="精华之域" y="660.00" /><text y="660.00" x="350.00" id="8650">维查乌得</text><rect Type="system" x="430.00" id="8652" height="5.00" width="5.00" Name="帕尔蒙" ID="30004992" Region="精华之域" y="680.00" /><text y="680.00" x="430.00" id="8653">帕尔蒙</text><rect Type="system" x="450.00" id="8655" height="5.00" width="5.00" Name="欧宝耶" ID="30004996" Region="精华之域" y="300.00" /><text y="300.00" x="450.00" id="8656">欧宝耶</text><rect Type="system" x="450.00" id="8658" height="5.00" width="5.00" Name="卓瑟罗瑞" ID="30005011" Region="精华之域" y="580.00" /><text y="580.00" x="450.00" id="8659">卓瑟罗瑞</text><rect Type="system" x="450.00" id="8661" height="5.00" width="5.00" Name="帕特斯" ID="30004998" Region="精华之域" y="355.50" /><text y="355.50" x="450.00" id="8662">帕特斯</text><rect Type="system" x="450.00" id="8664" height="5.00" width="5.00" Name="阿勒宾" ID="30005009" Region="精华之域" y="404.50" /><text y="404.50" x="450.00" id="8665">阿勒宾</text><rect Type="system" x="450.00" id="8667" height="5.00" width="5.00" Name="阿特鲁勒" ID="30005010" Region="精华之域" y="480.00" /><text y="480.00" x="450.00" id="8668">阿特鲁勒</text><rect Type="system" x="450.00" id="8670" height="5.00" width="5.00" Name="美希比尔" ID="30004975" Region="精华之域" y="204.50" /><text y="204.50" x="450.00" id="8671">美希比尔</text><rect Type="system" x="520.00" id="8673" height="5.00" width="5.00" Name="印卓古勒" ID="30004982" Region="精华之域" y="100.00" /><text y="100.00" x="520.00" id="8674">印卓古勒</text><rect Type="system" x="550.00" id="8676" height="5.00" width="5.00" Name="伦因" ID="30004970" Region="精华之域" y="430.00" /><text y="430.00" x="550.00" id="8677">伦因</text><rect Type="system" x="550.00" id="8679" height="5.00" width="5.00" Name="杜利潘特" ID="30004971" Region="精华之域" y="530.00" /><text y="530.00" x="550.00" id="8680">杜利潘特</text><rect Type="system" x="600.00" id="8682" height="5.00" width="5.00" Name="希迭勒斯" ID="30004979" Region="精华之域" y="55.50" /><text y="55.50" x="600.00" id="8683">希迭勒斯</text><rect Type="system" x="600.00" id="8685" height="5.00" width="5.00" Name="埃布尼" ID="30004984" Region="精华之域" y="104.50" /><text y="104.50" x="600.00" id="8686">埃布尼</text><rect Type="system" x="650.00" id="8688" height="5.00" width="5.00" Name="奥苏拉尔特" ID="30004969" Region="精华之域" y="430.00" /><text y="430.00" x="650.00" id="8689">奥苏拉尔特</text><rect Type="system" x="680.00" id="8691" height="5.00" width="5.00" Name="安尼" ID="30005022" Region="精华之域" y="230.00" /><text y="230.00" x="680.00" id="8692">安尼</text><rect Type="system" x="680.00" id="8694" height="5.00" width="5.00" Name="瑟伊林" ID="30005020" Region="精华之域" y="280.00" /><text y="280.00" x="680.00" id="8695">瑟伊林</text><rect Type="system" x="700.00" id="8697" height="5.00" width="5.00" Name="耶万基尔" ID="30004977" Region="精华之域" y="130.00" /><text y="130.00" x="700.00" id="8698">耶万基尔</text><rect Type="system" x="700.00" id="8700" height="5.00" width="5.00" Name="米尔斯" ID="30004968" Region="精华之域" y="460.00" /><text y="460.00" x="700.00" id="8701">米尔斯</text><rect Type="system" x="760.00" id="8703" height="5.00" width="5.00" Name="寇斯特" ID="30014971" Region="精华之域" y="700.00" /><text y="700.00" x="760.00" id="8704">寇斯特</text><rect Type="system" x="760.00" id="8706" height="5.00" width="5.00" Name="泛光之源" ID="30004967" Region="精华之域" y="550.00" /><text y="550.00" x="760.00" id="8707">泛光之源</text><rect Type="system" x="760.00" id="8709" height="5.00" width="5.00" Name="埃戈吉勒" ID="30004972" Region="精华之域" y="630.00" /><text y="630.00" x="760.00" id="8710">埃戈吉勒</text><rect Type="system" x="720.00" id="8712" height="5.00" width="5.00" Name="弗列特" ID="30004980" Region="精华之域" y="30.00" /><text y="30.00" x="720.00" id="8713">弗列特</text><rect Type="system" x="720.00" id="8715" height="5.00" width="5.00" Name="埃克提" ID="30004981" Region="精华之域" y="80.00" /><text y="80.00" x="720.00" id="8716">埃克提</text><rect Type="system" x="750.00" id="8718" height="5.00" width="5.00" Name="阿波鲁列" ID="30005019" Region="精华之域" y="300.00" /><text y="300.00" x="750.00" id="8719">阿波鲁列</text><rect Type="system" x="750.00" id="8721" height="5.00" width="5.00" Name="克洛特勒" ID="30005023" Region="精华之域" y="200.00" /><text y="200.00" x="750.00" id="8722">克洛特勒</text><rect Type="system" x="800.00" id="8724" height="5.00" width="5.00" Name="埃卓尔" ID="30005021" Region="精华之域" y="260.00" /><text y="260.00" x="800.00" id="8725">埃卓尔</text><rect Type="system" x="820.00" id="8727" height="5.00" width="5.00" Name="德温" ID="30004985" Region="精华之域" y="30.00" /><text y="30.00" x="820.00" id="8728">德温</text><rect Type="system" x="820.00" id="8730" height="5.00" width="5.00" Name="安玛尼" ID="30004983" Region="精华之域" y="80.00" /><text y="80.00" x="820.00" id="8731">安玛尼</text><rect Type="system" x="820.00" id="8733" height="5.00" width="5.00" Name="维萨兰" ID="30005016" Region="精华之域" y="380.00" /><text y="380.00" x="820.00" id="8734">维萨兰</text><rect Type="system" x="820.00" id="8736" height="5.00" width="5.00" Name="希恩彻尔" ID="30005015" Region="精华之域" y="430.00" /><text y="430.00" x="820.00" id="8737">希恩彻尔</text><rect Type="system" x="850.00" id="8739" height="5.00" width="5.00" Name="查莫罗特" ID="30004976" Region="精华之域" y="155.50" /><text y="155.50" x="850.00" id="8740">查莫罗特</text><rect Type="system" x="850.00" id="8742" height="5.00" width="5.00" Name="卡瑟蒙" ID="30004973" Region="精华之域" y="204.50" /><text y="204.50" x="850.00" id="8743">卡瑟蒙</text><rect Type="system" x="846.08" id="8745" height="5.00" width="5.00" Name="尤纳" ID="30005017" Region="精华之域" y="326.17" /><text y="326.17" x="846.08" id="8746">尤纳</text><rect Type="system" x="880.00" id="8748" height="5.00" width="5.00" Name="诺格希尔" ID="30005018" Region="精华之域" y="260.00" /><text y="260.00" x="880.00" id="8749">诺格希尔</text><rect Type="system" x="881.93" id="8751" height="5.00" width="5.00" Name="美索克尔" ID="30044971" Region="精华之域" y="359.56" /><text y="359.56" x="881.93" id="8752">美索克尔</text><rect Type="system" x="901.99" id="8754" height="5.00" width="5.00" Name="哈勒贝尼" ID="30034971" Region="精华之域" y="404.27" /><text y="404.27" x="901.99" id="8755">哈勒贝尼</text><rect Type="system" x="920.00" id="8757" height="5.00" width="5.00" Name="伊斯塔尼特" ID="30004986" Region="精华之域" y="80.00" /><text y="80.00" x="920.00" id="8758">伊斯塔尼特</text><rect Type="system" x="920.00" id="8760" height="5.00" width="5.00" Name="乔勒韦尔" ID="30004974" Region="精华之域" y="180.00" /><text y="180.00" x="920.00" id="8761">乔勒韦尔</text><rect Type="system" x="97.68" id="8763" height="5.00" width="5.00" Name="奥拉菲特" ID="30005203" Region="吉勒西斯" y="262.32" /><text y="262.32" x="97.68" id="8764">奥拉菲特</text><rect Type="system" x="100.00" id="8766" height="5.00" width="5.00" Name="乔万农" ID="30005321" Region="维格温铎" y="330.00" /><text y="330.00" x="100.00" id="8767">乔万农</text><rect Type="system" x="150.00" id="8769" height="5.00" width="5.00" Name="铁里耶维" ID="30005334" Region="维格温铎" y="280.00" /><text y="280.00" x="150.00" id="8770">铁里耶维</text><rect Type="system" x="250.00" id="8772" height="5.00" width="5.00" Name="厄姆萨" ID="30005202" Region="吉勒西斯" y="355.50" /><text y="355.50" x="250.00" id="8773">厄姆萨</text><rect Type="system" x="320.00" id="8775" height="5.00" width="5.00" Name="安德瑞亚" ID="30005329" Region="维格温铎" y="304.50" /><text y="304.50" x="320.00" id="8776">安德瑞亚</text><rect Type="system" x="320.00" id="8778" height="5.00" width="5.00" Name="埃拉隆" ID="30005330" Region="维格温铎" y="460.00" /><text y="460.00" x="320.00" id="8779">埃拉隆</text><rect Type="system" x="350.00" id="8781" height="5.00" width="5.00" Name="科梅尔克" ID="30005206" Region="吉勒西斯" y="360.00" /><text y="360.00" x="350.00" id="8782">科梅尔克</text><rect Type="system" x="450.00" id="8784" height="5.00" width="5.00" Name="俄沃勒" ID="30003830" Region="宁静之域" y="155.50" /><text y="155.50" x="450.00" id="8785">俄沃勒</text><rect Type="system" x="490.00" id="8787" height="5.00" width="5.00" Name="里尔米勒维" ID="30002728" Region="金纳泽" y="730.00" /><text y="730.00" x="490.00" id="8788">里尔米勒维</text><rect Type="system" x="520.00" id="8790" height="5.00" width="5.00" Name="缪勒坦" ID="30005295" Region="维格温铎" y="160.00" /><text y="160.00" x="520.00" id="8791">缪勒坦</text><rect Type="system" x="520.00" id="8793" height="5.00" width="5.00" Name="卓瑟昆斯勒" ID="30002668" Region="金纳泽" y="580.00" /><text y="580.00" x="520.00" id="8794">卓瑟昆斯勒</text><rect Type="system" x="550.00" id="8796" height="5.00" width="5.00" Name="厄尔梅" ID="30002640" Region="金纳泽" y="280.00" /><text y="280.00" x="550.00" id="8797">厄尔梅</text><rect Type="system" x="550.00" id="8799" height="5.00" width="5.00" Name="格里安卡尼" ID="30002636" Region="金纳泽" y="330.00" /><text y="330.00" x="550.00" id="8800">格里安卡尼</text><rect Type="system" x="600.00" id="8802" height="5.00" width="5.00" Name="梅茨瑞" ID="30002637" Region="金纳泽" y="280.00" /><text y="280.00" x="600.00" id="8803">梅茨瑞</text><rect Type="system" x="600.00" id="8805" height="5.00" width="5.00" Name="杜安尼斯" ID="30002633" Region="金纳泽" y="330.00" /><text y="330.00" x="600.00" id="8806">杜安尼斯</text><rect Type="system" x="620.00" id="8808" height="5.00" width="5.00" Name="欧纳斯肯" ID="30045347" Region="暗涌之域" y="160.00" /><text y="160.00" x="620.00" id="8809">欧纳斯肯</text><rect Type="system" x="650.00" id="8811" height="5.00" width="5.00" Name="帕克什" ID="30005198" Region="吉勒西斯" y="380.00" /><text y="380.00" x="650.00" id="8812">帕克什</text><rect Type="system" x="650.00" id="8814" height="5.00" width="5.00" Name="贝勒耶" ID="30003014" Region="埃维希尔" y="480.00" /><text y="480.00" x="650.00" id="8815">贝勒耶</text><rect Type="system" x="720.00" id="8817" height="5.00" width="5.00" Name="佩汀克" ID="30002632" Region="金纳泽" y="360.00" /><text y="360.00" x="720.00" id="8818">佩汀克</text><rect Type="system" x="920.00" id="8820" height="5.00" width="5.00" Name="那加玛嫩" ID="30002807" Region="赛塔德洱" y="30.00" /><text y="30.00" x="920.00" id="8821">那加玛嫩</text><rect Type="system" x="920.00" id="8823" height="5.00" width="5.00" Name="卡斯简恩" ID="30002761" Region="赛塔德洱" y="530.00" /><text y="530.00" x="920.00" id="8824">卡斯简恩</text><rect Type="system" x="950.00" id="8826" height="5.00" width="5.00" Name="亚述勒恩" ID="30002762" Region="赛塔德洱" y="280.00" /><text y="280.00" x="950.00" id="8827">亚述勒恩</text><line style="stroke:blue;fill:blue;" id="8829" x2="150.00" x1="50.00" y1="60.00" y2="100.00" /><line style="stroke:blue;fill:blue;" id="8830" x2="300.00" x1="50.00" y1="60.00" y2="60.00" /><line style="stroke:blue;fill:blue;" id="8831" x2="50.00" x1="50.00" y1="60.00" y2="400.00" /><line style="stroke:blue;fill:blue;" id="8832" x2="50.00" x1="50.00" y1="400.00" y2="700.00" /><line style="stroke:blue;fill:blue;" id="8833" x2="50.00" x1="50.00" y1="400.00" y2="60.00" /><line style="stroke:blue;fill:blue;" id="8834" x2="150.00" x1="50.00" y1="400.00" y2="355.50" /><line style="stroke:blue;fill:blue;" id="8835" x2="100.00" x1="50.00" y1="400.00" y2="530.00" /><line style="stroke:blue;fill:blue;" id="8836" x2="100.00" x1="50.00" y1="400.00" y2="330.00" /><line style="stroke:blue;fill:blue;" id="8837" x2="350.00" x1="50.00" y1="700.00" y2="600.00" /><line style="stroke:blue;fill:blue;" id="8838" x2="130.00" x1="50.00" y1="700.00" y2="600.00" /><line style="stroke:blue;fill:blue;" id="8839" x2="350.00" x1="50.00" y1="700.00" y2="660.00" /><line style="stroke:blue;fill:blue;" id="8840" x2="50.00" x1="50.00" y1="700.00" y2="400.00" /><line style="stroke:blue;fill:blue;" id="8841" x2="132.32" x1="100.00" y1="180.00" y2="227.68" /><line style="stroke:blue;fill:blue;" id="8842" x2="200.00" x1="100.00" y1="530.00" y2="530.00" /><line style="stroke:blue;fill:blue;" id="8843" x2="50.00" x1="100.00" y1="530.00" y2="400.00" /><line style="stroke:blue;fill:blue;" id="8844" x2="200.00" x1="132.32" y1="227.68" y2="230.00" /><line style="stroke:blue;fill:blue;" id="8845" x2="97.68" x1="132.32" y1="227.68" y2="262.32" /><line style="stroke:blue;fill:blue;" id="8846" x2="100.00" x1="132.32" y1="227.68" y2="180.00" /><line style="stroke:blue;fill:blue;" id="8847" x2="220.00" x1="150.00" y1="100.00" y2="130.00" /><line style="stroke:blue;fill:blue;" id="8848" x2="50.00" x1="150.00" y1="100.00" y2="60.00" /><line style="stroke:blue;fill:blue;" id="8849" x2="250.00" x1="150.00" y1="355.50" y2="404.50" /><line style="stroke:blue;fill:blue;" id="8850" x2="150.00" x1="150.00" y1="355.50" y2="404.50" /><line style="stroke:blue;fill:blue;" id="8851" x2="50.00" x1="150.00" y1="355.50" y2="400.00" /><line style="stroke:blue;fill:blue;" id="8852" x2="250.00" x1="150.00" y1="404.50" y2="404.50" /><line style="stroke:blue;fill:blue;" id="8853" x2="150.00" x1="150.00" y1="404.50" y2="355.50" /><line style="stroke:blue;fill:blue;" id="8854" x2="150.00" x1="150.00" y1="404.50" y2="460.00" /><line style="stroke:blue;fill:blue;" id="8855" x2="150.00" x1="150.00" y1="460.00" y2="404.50" /><line style="stroke:blue;fill:blue;" id="8856" x2="320.00" x1="150.00" y1="460.00" y2="460.00" /><line style="stroke:blue;fill:blue;" id="8857" x2="132.32" x1="200.00" y1="230.00" y2="227.68" /><line style="stroke:blue;fill:blue;" id="8858" x2="250.00" x1="200.00" y1="230.00" y2="200.00" /><line style="stroke:blue;fill:blue;" id="8859" x2="150.00" x1="200.00" y1="230.00" y2="280.00" /><line style="stroke:blue;fill:blue;" id="8860" x2="130.00" x1="200.00" y1="530.00" y2="600.00" /><line style="stroke:blue;fill:blue;" id="8861" x2="250.00" x1="200.00" y1="530.00" y2="404.50" /><line style="stroke:blue;fill:blue;" id="8862" x2="100.00" x1="200.00" y1="530.00" y2="530.00" /><line style="stroke:blue;fill:blue;" id="8863" x2="320.00" x1="220.00" y1="130.00" y2="180.00" /><line style="stroke:blue;fill:blue;" id="8864" x2="150.00" x1="220.00" y1="130.00" y2="100.00" /><line style="stroke:blue;fill:blue;" id="8865" x2="250.00" x1="220.00" y1="300.00" y2="260.00" /><line style="stroke:blue;fill:blue;" id="8866" x2="350.00" x1="130.00" y1="600.00" y2="600.00" /><line style="stroke:blue;fill:blue;" id="8867" x2="250.00" x1="130.00" y1="600.00" y2="560.00" /><line style="stroke:blue;fill:blue;" id="8868" x2="50.00" x1="130.00" y1="600.00" y2="700.00" /><line style="stroke:blue;fill:blue;" id="8869" x2="200.00" x1="130.00" y1="600.00" y2="530.00" /><line style="stroke:blue;fill:blue;" id="8870" x2="320.00" x1="250.00" y1="200.00" y2="180.00" /><line style="stroke:blue;fill:blue;" id="8871" x2="200.00" x1="250.00" y1="200.00" y2="230.00" /><line style="stroke:blue;fill:blue;" id="8872" x2="250.00" x1="250.00" y1="200.00" y2="260.00" /><line style="stroke:blue;fill:blue;" id="8873" x2="250.00" x1="250.00" y1="260.00" y2="200.00" /><line style="stroke:blue;fill:blue;" id="8874" x2="220.00" x1="250.00" y1="260.00" y2="300.00" /><line style="stroke:blue;fill:blue;" id="8875" x2="150.00" x1="250.00" y1="404.50" y2="404.50" /><line style="stroke:blue;fill:blue;" id="8876" x2="150.00" x1="250.00" y1="404.50" y2="355.50" /><line style="stroke:blue;fill:blue;" id="8877" x2="200.00" x1="250.00" y1="404.50" y2="530.00" /><line style="stroke:blue;fill:blue;" id="8878" x2="250.00" x1="250.00" y1="404.50" y2="355.50" /><line style="stroke:blue;fill:blue;" id="8879" x2="350.00" x1="250.00" y1="560.00" y2="600.00" /><line style="stroke:blue;fill:blue;" id="8880" x2="130.00" x1="250.00" y1="560.00" y2="600.00" /><line style="stroke:blue;fill:blue;" id="8881" x2="600.00" x1="300.00" y1="60.00" y2="55.50" /><line style="stroke:blue;fill:blue;" id="8882" x2="320.00" x1="300.00" y1="60.00" y2="180.00" /><line style="stroke:blue;fill:blue;" id="8883" x2="50.00" x1="300.00" y1="60.00" y2="60.00" /><line style="stroke:blue;fill:blue;" id="8884" x2="550.00" x1="320.00" y1="180.00" y2="280.00" /><line style="stroke:blue;fill:blue;" id="8885" x2="320.00" x1="320.00" y1="180.00" y2="255.50" /><line style="stroke:blue;fill:blue;" id="8886" x2="400.00" x1="320.00" y1="180.00" y2="260.00" /><line style="stroke:blue;fill:blue;" id="8887" x2="220.00" x1="320.00" y1="180.00" y2="130.00" /><line style="stroke:blue;fill:blue;" id="8888" x2="300.00" x1="320.00" y1="180.00" y2="60.00" /><line style="stroke:blue;fill:blue;" id="8889" x2="250.00" x1="320.00" y1="180.00" y2="200.00" /><line style="stroke:blue;fill:blue;" id="8890" x2="450.00" x1="320.00" y1="255.50" y2="204.50" /><line style="stroke:blue;fill:blue;" id="8891" x2="320.00" x1="320.00" y1="255.50" y2="180.00" /><line style="stroke:blue;fill:blue;" id="8892" x2="320.00" x1="320.00" y1="255.50" y2="304.50" /><line style="stroke:blue;fill:blue;" id="8893" x2="130.00" x1="350.00" y1="600.00" y2="600.00" /><line style="stroke:blue;fill:blue;" id="8894" x2="250.00" x1="350.00" y1="600.00" y2="560.00" /><line style="stroke:blue;fill:blue;" id="8895" x2="50.00" x1="350.00" y1="600.00" y2="700.00" /><line style="stroke:blue;fill:blue;" id="8896" x2="350.00" x1="350.00" y1="600.00" y2="360.00" /><line style="stroke:blue;fill:blue;" id="8897" x2="450.00" x1="400.00" y1="380.00" y2="404.50" /><line style="stroke:blue;fill:blue;" id="8898" x2="400.00" x1="400.00" y1="380.00" y2="460.00" /><line style="stroke:blue;fill:blue;" id="8899" x2="450.00" x1="400.00" y1="460.00" y2="404.50" /><line style="stroke:blue;fill:blue;" id="8900" x2="400.00" x1="400.00" y1="460.00" y2="380.00" /><line style="stroke:blue;fill:blue;" id="8901" x2="450.00" x1="400.00" y1="530.00" y2="480.00" /><line style="stroke:blue;fill:blue;" id="8902" x2="320.00" x1="400.00" y1="260.00" y2="180.00" /><line style="stroke:blue;fill:blue;" id="8903" x2="450.00" x1="400.00" y1="260.00" y2="300.00" /><line style="stroke:blue;fill:blue;" id="8904" x2="350.00" x1="400.00" y1="260.00" y2="360.00" /><line style="stroke:blue;fill:blue;" id="8905" x2="50.00" x1="350.00" y1="660.00" y2="700.00" /><line style="stroke:blue;fill:blue;" id="8906" x2="430.00" x1="350.00" y1="660.00" y2="680.00" /><line style="stroke:blue;fill:blue;" id="8907" x2="450.00" x1="350.00" y1="660.00" y2="580.00" /><line style="stroke:blue;fill:blue;" id="8908" x2="490.00" x1="430.00" y1="680.00" y2="730.00" /><line style="stroke:blue;fill:blue;" id="8909" x2="350.00" x1="430.00" y1="680.00" y2="660.00" /><line style="stroke:blue;fill:blue;" id="8910" x2="400.00" x1="450.00" y1="300.00" y2="260.00" /><line style="stroke:blue;fill:blue;" id="8911" x2="450.00" x1="450.00" y1="300.00" y2="355.50" /><line style="stroke:blue;fill:blue;" id="8912" x2="350.00" x1="450.00" y1="580.00" y2="660.00" /><line style="stroke:blue;fill:blue;" id="8913" x2="450.00" x1="450.00" y1="580.00" y2="480.00" /><line style="stroke:blue;fill:blue;" id="8914" x2="450.00" x1="450.00" y1="355.50" y2="300.00" /><line style="stroke:blue;fill:blue;" id="8915" x2="450.00" x1="450.00" y1="355.50" y2="404.50" /><line style="stroke:blue;fill:blue;" id="8916" x2="450.00" x1="450.00" y1="404.50" y2="355.50" /><line style="stroke:blue;fill:blue;" id="8917" x2="450.00" x1="450.00" y1="404.50" y2="480.00" /><line style="stroke:blue;fill:blue;" id="8918" x2="400.00" x1="450.00" y1="404.50" y2="380.00" /><line style="stroke:blue;fill:blue;" id="8919" x2="400.00" x1="450.00" y1="404.50" y2="460.00" /><line style="stroke:blue;fill:blue;" id="8920" x2="450.00" x1="450.00" y1="480.00" y2="404.50" /><line style="stroke:blue;fill:blue;" id="8921" x2="450.00" x1="450.00" y1="480.00" y2="580.00" /><line style="stroke:blue;fill:blue;" id="8922" x2="400.00" x1="450.00" y1="480.00" y2="530.00" /><line style="stroke:blue;fill:blue;" id="8923" x2="450.00" x1="450.00" y1="204.50" y2="155.50" /><line style="stroke:blue;fill:blue;" id="8924" x2="850.00" x1="450.00" y1="204.50" y2="204.50" /><line style="stroke:blue;fill:blue;" id="8925" x2="320.00" x1="450.00" y1="204.50" y2="255.50" /><line style="stroke:blue;fill:blue;" id="8926" x2="520.00" x1="450.00" y1="204.50" y2="160.00" /><line style="stroke:blue;fill:blue;" id="8927" x2="600.00" x1="520.00" y1="100.00" y2="55.50" /><line style="stroke:blue;fill:blue;" id="8928" x2="520.00" x1="520.00" y1="100.00" y2="160.00" /><line style="stroke:blue;fill:blue;" id="8929" x2="600.00" x1="550.00" y1="430.00" y2="330.00" /><line style="stroke:blue;fill:blue;" id="8930" x2="550.00" x1="550.00" y1="430.00" y2="330.00" /><line style="stroke:blue;fill:blue;" id="8931" x2="650.00" x1="550.00" y1="430.00" y2="430.00" /><line style="stroke:blue;fill:blue;" id="8932" x2="550.00" x1="550.00" y1="430.00" y2="530.00" /><line style="stroke:blue;fill:blue;" id="8933" x2="760.00" x1="550.00" y1="430.00" y2="630.00" /><line style="stroke:blue;fill:blue;" id="8934" x2="650.00" x1="550.00" y1="430.00" y2="380.00" /><line style="stroke:blue;fill:blue;" id="8935" x2="520.00" x1="550.00" y1="530.00" y2="580.00" /><line style="stroke:blue;fill:blue;" id="8936" x2="550.00" x1="550.00" y1="530.00" y2="430.00" /><line style="stroke:blue;fill:blue;" id="8937" x2="700.00" x1="600.00" y1="55.50" y2="130.00" /><line style="stroke:blue;fill:blue;" id="8938" x2="720.00" x1="600.00" y1="55.50" y2="30.00" /><line style="stroke:blue;fill:blue;" id="8939" x2="720.00" x1="600.00" y1="55.50" y2="80.00" /><line style="stroke:blue;fill:blue;" id="8940" x2="520.00" x1="600.00" y1="55.50" y2="100.00" /><line style="stroke:blue;fill:blue;" id="8941" x2="600.00" x1="600.00" y1="55.50" y2="104.50" /><line style="stroke:blue;fill:blue;" id="8942" x2="300.00" x1="600.00" y1="55.50" y2="60.00" /><line style="stroke:blue;fill:blue;" id="8943" x2="600.00" x1="600.00" y1="104.50" y2="55.50" /><line style="stroke:blue;fill:blue;" id="8944" x2="620.00" x1="600.00" y1="104.50" y2="160.00" /><line style="stroke:blue;fill:blue;" id="8945" x2="700.00" x1="650.00" y1="430.00" y2="460.00" /><line style="stroke:blue;fill:blue;" id="8946" x2="550.00" x1="650.00" y1="430.00" y2="430.00" /><line style="stroke:blue;fill:blue;" id="8947" x2="650.00" x1="650.00" y1="430.00" y2="380.00" /><line style="stroke:blue;fill:blue;" id="8948" x2="680.00" x1="680.00" y1="230.00" y2="280.00" /><line style="stroke:blue;fill:blue;" id="8949" x2="750.00" x1="680.00" y1="230.00" y2="200.00" /><line style="stroke:blue;fill:blue;" id="8950" x2="600.00" x1="680.00" y1="280.00" y2="280.00" /><line style="stroke:blue;fill:blue;" id="8951" x2="750.00" x1="680.00" y1="280.00" y2="300.00" /><line style="stroke:blue;fill:blue;" id="8952" x2="680.00" x1="680.00" y1="280.00" y2="230.00" /><line style="stroke:blue;fill:blue;" id="8953" x2="850.00" x1="700.00" y1="130.00" y2="155.50" /><line style="stroke:blue;fill:blue;" id="8954" x2="600.00" x1="700.00" y1="130.00" y2="55.50" /><line style="stroke:blue;fill:blue;" id="8955" x2="650.00" x1="700.00" y1="460.00" y2="480.00" /><line style="stroke:blue;fill:blue;" id="8956" x2="760.00" x1="700.00" y1="460.00" y2="550.00" /><line style="stroke:blue;fill:blue;" id="8957" x2="650.00" x1="700.00" y1="460.00" y2="430.00" /><line style="stroke:blue;fill:blue;" id="8958" x2="760.00" x1="760.00" y1="700.00" y2="630.00" /><line style="stroke:blue;fill:blue;" id="8959" x2="720.00" x1="760.00" y1="550.00" y2="360.00" /><line style="stroke:blue;fill:blue;" id="8960" x2="700.00" x1="760.00" y1="550.00" y2="460.00" /><line style="stroke:blue;fill:blue;" id="8961" x2="760.00" x1="760.00" y1="550.00" y2="630.00" /><line style="stroke:blue;fill:blue;" id="8962" x2="920.00" x1="760.00" y1="630.00" y2="530.00" /><line style="stroke:blue;fill:blue;" id="8963" x2="760.00" x1="760.00" y1="630.00" y2="550.00" /><line style="stroke:blue;fill:blue;" id="8964" x2="550.00" x1="760.00" y1="630.00" y2="430.00" /><line style="stroke:blue;fill:blue;" id="8965" x2="820.00" x1="760.00" y1="630.00" y2="430.00" /><line style="stroke:blue;fill:blue;" id="8966" x2="760.00" x1="760.00" y1="630.00" y2="700.00" /><line style="stroke:blue;fill:blue;" id="8967" x2="600.00" x1="720.00" y1="30.00" y2="55.50" /><line style="stroke:blue;fill:blue;" id="8968" x2="720.00" x1="720.00" y1="30.00" y2="80.00" /><line style="stroke:blue;fill:blue;" id="8969" x2="820.00" x1="720.00" y1="30.00" y2="30.00" /><line style="stroke:blue;fill:blue;" id="8970" x2="600.00" x1="720.00" y1="80.00" y2="55.50" /><line style="stroke:blue;fill:blue;" id="8971" x2="720.00" x1="720.00" y1="80.00" y2="30.00" /><line style="stroke:blue;fill:blue;" id="8972" x2="820.00" x1="720.00" y1="80.00" y2="80.00" /><line style="stroke:blue;fill:blue;" id="8973" x2="820.00" x1="750.00" y1="300.00" y2="380.00" /><line style="stroke:blue;fill:blue;" id="8974" x2="846.08" x1="750.00" y1="300.00" y2="326.17" /><line style="stroke:blue;fill:blue;" id="8975" x2="680.00" x1="750.00" y1="300.00" y2="280.00" /><line style="stroke:blue;fill:blue;" id="8976" x2="680.00" x1="750.00" y1="200.00" y2="230.00" /><line style="stroke:blue;fill:blue;" id="8977" x2="850.00" x1="800.00" y1="260.00" y2="204.50" /><line style="stroke:blue;fill:blue;" id="8978" x2="846.08" x1="800.00" y1="260.00" y2="326.17" /><line style="stroke:blue;fill:blue;" id="8979" x2="880.00" x1="800.00" y1="260.00" y2="260.00" /><line style="stroke:blue;fill:blue;" id="8980" x2="920.00" x1="820.00" y1="30.00" y2="30.00" /><line style="stroke:blue;fill:blue;" id="8981" x2="720.00" x1="820.00" y1="30.00" y2="30.00" /><line style="stroke:blue;fill:blue;" id="8982" x2="720.00" x1="820.00" y1="80.00" y2="80.00" /><line style="stroke:blue;fill:blue;" id="8983" x2="920.00" x1="820.00" y1="80.00" y2="80.00" /><line style="stroke:blue;fill:blue;" id="8984" x2="820.00" x1="820.00" y1="380.00" y2="430.00" /><line style="stroke:blue;fill:blue;" id="8985" x2="846.08" x1="820.00" y1="380.00" y2="326.17" /><line style="stroke:blue;fill:blue;" id="8986" x2="750.00" x1="820.00" y1="380.00" y2="300.00" /><line style="stroke:blue;fill:blue;" id="8987" x2="881.93" x1="820.00" y1="380.00" y2="359.56" /><line style="stroke:blue;fill:blue;" id="8988" x2="920.00" x1="820.00" y1="430.00" y2="530.00" /><line style="stroke:blue;fill:blue;" id="8989" x2="760.00" x1="820.00" y1="430.00" y2="630.00" /><line style="stroke:blue;fill:blue;" id="8990" x2="820.00" x1="820.00" y1="430.00" y2="380.00" /><line style="stroke:blue;fill:blue;" id="8991" x2="650.00" x1="820.00" y1="430.00" y2="380.00" /><line style="stroke:blue;fill:blue;" id="8992" x2="901.99" x1="820.00" y1="430.00" y2="404.27" /><line style="stroke:blue;fill:blue;" id="8993" x2="850.00" x1="850.00" y1="155.50" y2="204.50" /><line style="stroke:blue;fill:blue;" id="8994" x2="920.00" x1="850.00" y1="155.50" y2="180.00" /><line style="stroke:blue;fill:blue;" id="8995" x2="700.00" x1="850.00" y1="155.50" y2="130.00" /><line style="stroke:blue;fill:blue;" id="8996" x2="920.00" x1="850.00" y1="204.50" y2="180.00" /><line style="stroke:blue;fill:blue;" id="8997" x2="450.00" x1="850.00" y1="204.50" y2="204.50" /><line style="stroke:blue;fill:blue;" id="8998" x2="850.00" x1="850.00" y1="204.50" y2="155.50" /><line style="stroke:blue;fill:blue;" id="8999" x2="880.00" x1="850.00" y1="204.50" y2="260.00" /><line style="stroke:blue;fill:blue;" id="9000" x2="800.00" x1="850.00" y1="204.50" y2="260.00" /><line style="stroke:blue;fill:blue;" id="9001" x2="820.00" x1="846.08" y1="326.17" y2="380.00" /><line style="stroke:blue;fill:blue;" id="9002" x2="880.00" x1="846.08" y1="326.17" y2="260.00" /><line style="stroke:blue;fill:blue;" id="9003" x2="750.00" x1="846.08" y1="326.17" y2="300.00" /><line style="stroke:blue;fill:blue;" id="9004" x2="800.00" x1="846.08" y1="326.17" y2="260.00" /><line style="stroke:blue;fill:blue;" id="9005" x2="850.00" x1="880.00" y1="260.00" y2="204.50" /><line style="stroke:blue;fill:blue;" id="9006" x2="846.08" x1="880.00" y1="260.00" y2="326.17" /><line style="stroke:blue;fill:blue;" id="9007" x2="800.00" x1="880.00" y1="260.00" y2="260.00" /><line style="stroke:blue;fill:blue;" id="9008" x2="820.00" x1="881.93" y1="359.56" y2="380.00" /><line style="stroke:blue;fill:blue;" id="9009" x2="820.00" x1="901.99" y1="404.27" y2="430.00" /><line style="stroke:blue;fill:blue;" id="9010" x2="820.00" x1="920.00" y1="80.00" y2="80.00" /><line style="stroke:blue;fill:blue;" id="9011" x2="950.00" x1="920.00" y1="180.00" y2="280.00" /><line style="stroke:blue;fill:blue;" id="9012" x2="850.00" x1="920.00" y1="180.00" y2="204.50" /><line style="stroke:blue;fill:blue;" id="9013" x2="850.00" x1="920.00" y1="180.00" y2="155.50" /><line style="stroke:blue;fill:blue;" id="9014" x2="132.32" x1="97.68" y1="262.32" y2="227.68" /><line style="stroke:blue;fill:blue;" id="9015" x2="50.00" x1="100.00" y1="330.00" y2="400.00" /><line style="stroke:blue;fill:blue;" id="9016" x2="200.00" x1="150.00" y1="280.00" y2="230.00" /><line style="stroke:blue;fill:blue;" id="9017" x2="250.00" x1="250.00" y1="355.50" y2="404.50" /><line style="stroke:blue;fill:blue;" id="9018" x2="320.00" x1="320.00" y1="304.50" y2="255.50" /><line style="stroke:blue;fill:blue;" id="9019" x2="320.00" x1="320.00" y1="304.50" y2="460.00" /><line style="stroke:blue;fill:blue;" id="9020" x2="150.00" x1="320.00" y1="460.00" y2="460.00" /><line style="stroke:blue;fill:blue;" id="9021" x2="320.00" x1="320.00" y1="460.00" y2="304.50" /><line style="stroke:blue;fill:blue;" id="9022" x2="350.00" x1="350.00" y1="360.00" y2="600.00" /><line style="stroke:blue;fill:blue;" id="9023" x2="400.00" x1="350.00" y1="360.00" y2="260.00" /><line style="stroke:blue;fill:blue;" id="9024" x2="450.00" x1="450.00" y1="155.50" y2="204.50" /><line style="stroke:blue;fill:blue;" id="9025" x2="430.00" x1="490.00" y1="730.00" y2="680.00" /><line style="stroke:blue;fill:blue;" id="9026" x2="450.00" x1="520.00" y1="160.00" y2="204.50" /><line style="stroke:blue;fill:blue;" id="9027" x2="520.00" x1="520.00" y1="160.00" y2="100.00" /><line style="stroke:blue;fill:blue;" id="9028" x2="550.00" x1="520.00" y1="580.00" y2="530.00" /><line style="stroke:blue;fill:blue;" id="9029" x2="600.00" x1="550.00" y1="280.00" y2="330.00" /><line style="stroke:blue;fill:blue;" id="9030" x2="550.00" x1="550.00" y1="280.00" y2="330.00" /><line style="stroke:blue;fill:blue;" id="9031" x2="600.00" x1="550.00" y1="280.00" y2="280.00" /><line style="stroke:blue;fill:blue;" id="9032" x2="320.00" x1="550.00" y1="280.00" y2="180.00" /><line style="stroke:blue;fill:blue;" id="9033" x2="600.00" x1="550.00" y1="330.00" y2="330.00" /><line style="stroke:blue;fill:blue;" id="9034" x2="550.00" x1="550.00" y1="330.00" y2="280.00" /><line style="stroke:blue;fill:blue;" id="9035" x2="550.00" x1="550.00" y1="330.00" y2="430.00" /><line style="stroke:blue;fill:blue;" id="9036" x2="600.00" x1="600.00" y1="280.00" y2="330.00" /><line style="stroke:blue;fill:blue;" id="9037" x2="550.00" x1="600.00" y1="280.00" y2="280.00" /><line style="stroke:blue;fill:blue;" id="9038" x2="680.00" x1="600.00" y1="280.00" y2="280.00" /><line style="stroke:blue;fill:blue;" id="9039" x2="720.00" x1="600.00" y1="330.00" y2="360.00" /><line style="stroke:blue;fill:blue;" id="9040" x2="550.00" x1="600.00" y1="330.00" y2="330.00" /><line style="stroke:blue;fill:blue;" id="9041" x2="600.00" x1="600.00" y1="330.00" y2="280.00" /><line style="stroke:blue;fill:blue;" id="9042" x2="550.00" x1="600.00" y1="330.00" y2="280.00" /><line style="stroke:blue;fill:blue;" id="9043" x2="550.00" x1="600.00" y1="330.00" y2="430.00" /><line style="stroke:blue;fill:blue;" id="9044" x2="600.00" x1="620.00" y1="160.00" y2="104.50" /><line style="stroke:blue;fill:blue;" id="9045" x2="650.00" x1="650.00" y1="380.00" y2="430.00" /><line style="stroke:blue;fill:blue;" id="9046" x2="550.00" x1="650.00" y1="380.00" y2="430.00" /><line style="stroke:blue;fill:blue;" id="9047" x2="820.00" x1="650.00" y1="380.00" y2="430.00" /><line style="stroke:blue;fill:blue;" id="9048" x2="700.00" x1="650.00" y1="480.00" y2="460.00" /><line style="stroke:blue;fill:blue;" id="9049" x2="600.00" x1="720.00" y1="360.00" y2="330.00" /><line style="stroke:blue;fill:blue;" id="9050" x2="760.00" x1="720.00" y1="360.00" y2="550.00" /><line style="stroke:blue;fill:blue;" id="9051" x2="820.00" x1="920.00" y1="30.00" y2="30.00" /><line style="stroke:blue;fill:blue;" id="9052" x2="950.00" x1="920.00" y1="530.00" y2="280.00" /><line style="stroke:blue;fill:blue;" id="9053" x2="760.00" x1="920.00" y1="530.00" y2="630.00" /><line style="stroke:blue;fill:blue;" id="9054" x2="820.00" x1="920.00" y1="530.00" y2="430.00" /><line style="stroke:blue;fill:blue;" id="9055" x2="920.00" x1="950.00" y1="280.00" y2="530.00" /><line style="stroke:blue;fill:blue;" id="9056" x2="920.00" x1="950.00" y1="280.00" y2="180.00" /></svg>
