<?xml version="1.0" standalone="yes"?><!DOCTYPE svg PUBLIC "-//W3C//DTD SVG 1.1//EN" "http://www.w3.org/Graphics/SVG/1.1/DTD/svg11.dtd"[]><svg width="1050.00" height="800.00" id="14873" xmlns="http://www.w3.org/2000/svg" xmlns:xlink="http://www.w3.org/1999/xlink"><rect Type="system" x="150.00" id="14874" height="5.00" width="5.00" Name="1-7KWU" ID="30002581" Region="绝径" y="50.00" /><text y="50.00" x="150.00" id="14875">1-7KWU</text><rect Type="system" x="150.00" id="14877" height="5.00" width="5.00" Name="3-UCBF" ID="30002582" Region="绝径" y="100.00" /><text y="100.00" x="150.00" id="14878">3-UCBF</text><rect Type="system" x="150.00" id="14880" height="5.00" width="5.00" Name="N-CREL" ID="30002583" Region="绝径" y="150.00" /><text y="150.00" x="150.00" id="14881">N-CREL</text><rect Type="system" x="150.00" id="14883" height="5.00" width="5.00" Name="TM-0P2" ID="30002584" Region="绝径" y="200.00" /><text y="200.00" x="150.00" id="14884">TM-0P2</text><rect Type="system" x="150.00" id="14886" height="5.00" width="5.00" Name="4OIV-X" ID="30002585" Region="绝径" y="250.00" /><text y="250.00" x="150.00" id="14887">4OIV-X</text><rect Type="system" x="170.00" id="14889" height="5.00" width="5.00" Name="Y-JKJ8" ID="30002586" Region="绝径" y="300.00" /><text y="300.00" x="170.00" id="14890">Y-JKJ8</text><rect Type="system" x="200.00" id="14892" height="5.00" width="5.00" Name="AFJ-NB" ID="30002587" Region="绝径" y="350.00" /><text y="350.00" x="200.00" id="14893">AFJ-NB</text><rect Type="system" x="200.00" id="14895" height="5.00" width="5.00" Name="IV-UNR" ID="30002594" Region="绝径" y="500.00" /><text y="500.00" x="200.00" id="14896">IV-UNR</text><rect Type="system" x="220.00" id="14898" height="5.00" width="5.00" Name="PZMA-E" ID="30002615" Region="绝径" y="600.00" /><text y="600.00" x="220.00" id="14899">PZMA-E</text><rect Type="system" x="250.00" id="14901" height="5.00" width="5.00" Name="9ZFH-Z" ID="30002618" Region="绝径" y="700.00" /><text y="700.00" x="250.00" id="14902">9ZFH-Z</text><rect Type="system" x="300.00" id="14904" height="5.00" width="5.00" Name="TWJ-AW" ID="30002614" Region="绝径" y="600.00" /><text y="600.00" x="300.00" id="14905">TWJ-AW</text><rect Type="system" x="300.00" id="14907" height="5.00" width="5.00" Name="442-CS" ID="30002616" Region="绝径" y="650.00" /><text y="650.00" x="300.00" id="14908">442-CS</text><rect Type="system" x="300.00" id="14910" height="5.00" width="5.00" Name="H-64KI" ID="30002588" Region="绝径" y="400.00" /><text y="400.00" x="300.00" id="14911">H-64KI</text><rect Type="system" x="300.00" id="14913" height="5.00" width="5.00" Name="YALR-F" ID="30002592" Region="绝径" y="480.00" /><text y="480.00" x="300.00" id="14914">YALR-F</text><rect Type="system" x="350.00" id="14916" height="5.00" width="5.00" Name="Z-N9IP" ID="30002617" Region="绝径" y="700.00" /><text y="700.00" x="350.00" id="14917">Z-N9IP</text><rect Type="system" x="350.00" id="14919" height="5.00" width="5.00" Name="4-MPSJ" ID="30002613" Region="绝径" y="600.00" /><text y="600.00" x="350.00" id="14920">4-MPSJ</text><rect Type="system" x="380.00" id="14922" height="5.00" width="5.00" Name="5GQ-S9" ID="30002591" Region="绝径" y="300.00" /><text y="300.00" x="380.00" id="14923">5GQ-S9</text><rect Type="system" x="380.00" id="14925" height="5.00" width="5.00" Name="9-IIBL" ID="30002590" Region="绝径" y="350.00" /><text y="350.00" x="380.00" id="14926">9-IIBL</text><rect Type="system" x="380.00" id="14928" height="5.00" width="5.00" Name="9I-SRF" ID="30002589" Region="绝径" y="450.00" /><text y="450.00" x="380.00" id="14929">9I-SRF</text><rect Type="system" x="400.00" id="14931" height="5.00" width="5.00" Name="WFYM-0" ID="30002629" Region="绝径" y="100.00" /><text y="100.00" x="400.00" id="14932">WFYM-0</text><rect Type="system" x="400.00" id="14934" height="5.00" width="5.00" Name="D-L4H0" ID="30002626" Region="绝径" y="220.00" /><text y="220.00" x="400.00" id="14935">D-L4H0</text><rect Type="system" x="400.00" id="14937" height="5.00" width="5.00" Name="N-7ECY" ID="30002612" Region="绝径" y="550.00" /><text y="550.00" x="400.00" id="14938">N-7ECY</text><rect Type="system" x="450.00" id="14940" height="5.00" width="5.00" Name="FR-B1H" ID="30002630" Region="绝径" y="50.00" /><text y="50.00" x="450.00" id="14941">FR-B1H</text><rect Type="system" x="450.00" id="14943" height="5.00" width="5.00" Name="FG-1GH" ID="30002628" Region="绝径" y="150.00" /><text y="150.00" x="450.00" id="14944">FG-1GH</text><rect Type="system" x="450.00" id="14946" height="5.00" width="5.00" Name="HOHF-B" ID="30002596" Region="绝径" y="320.00" /><text y="320.00" x="450.00" id="14947">HOHF-B</text><rect Type="system" x="450.00" id="14949" height="5.00" width="5.00" Name="68FT-6" ID="30002593" Region="绝径" y="400.00" /><text y="400.00" x="450.00" id="14950">68FT-6</text><rect Type="system" x="500.00" id="14952" height="5.00" width="5.00" Name="DDI-B7" ID="30002631" Region="绝径" y="100.00" /><text y="100.00" x="500.00" id="14953">DDI-B7</text><rect Type="system" x="500.00" id="14955" height="5.00" width="5.00" Name="GU-9F4" ID="30002627" Region="绝径" y="220.00" /><text y="220.00" x="500.00" id="14956">GU-9F4</text><rect Type="system" x="550.00" id="14958" height="5.00" width="5.00" Name="Y-6B0E" ID="30002597" Region="绝径" y="350.00" /><text y="350.00" x="550.00" id="14959">Y-6B0E</text><rect Type="system" x="550.00" id="14961" height="5.00" width="5.00" Name="IRE-98" ID="30002595" Region="绝径" y="450.00" /><text y="450.00" x="550.00" id="14962">IRE-98</text><rect Type="system" x="600.00" id="14964" height="5.00" width="5.00" Name="DY-40Z" ID="30002599" Region="绝径" y="550.00" /><text y="550.00" x="600.00" id="14965">DY-40Z</text><rect Type="system" x="620.00" id="14967" height="5.00" width="5.00" Name="XWY-YM" ID="30002600" Region="绝径" y="600.00" /><text y="600.00" x="620.00" id="14968">XWY-YM</text><rect Type="system" x="620.00" id="14970" height="5.00" width="5.00" Name="F-3H2P" ID="30002598" Region="绝径" y="400.00" /><text y="400.00" x="620.00" id="14971">F-3H2P</text><rect Type="system" x="680.00" id="14973" height="5.00" width="5.00" Name="E7VE-V" ID="30002605" Region="绝径" y="200.00" /><text y="200.00" x="680.00" id="14974">E7VE-V</text><rect Type="system" x="670.00" id="14976" height="5.00" width="5.00" Name="M-9V5D" ID="30002601" Region="绝径" y="640.00" /><text y="640.00" x="670.00" id="14977">M-9V5D</text><rect Type="system" x="730.00" id="14979" height="5.00" width="5.00" Name="O2-39S" ID="30002602" Region="绝径" y="660.00" /><text y="660.00" x="730.00" id="14980">O2-39S</text><rect Type="system" x="720.00" id="14982" height="5.00" width="5.00" Name="M-VEJZ" ID="30002603" Region="绝径" y="570.00" /><text y="570.00" x="720.00" id="14983">M-VEJZ</text><rect Type="system" x="750.00" id="14985" height="5.00" width="5.00" Name="L6BY-P" ID="30002607" Region="绝径" y="120.00" /><text y="120.00" x="750.00" id="14986">L6BY-P</text><rect Type="system" x="750.00" id="14988" height="5.00" width="5.00" Name="NUG-OF" ID="30002606" Region="绝径" y="180.00" /><text y="180.00" x="750.00" id="14989">NUG-OF</text><rect Type="system" x="750.00" id="14991" height="5.00" width="5.00" Name="6E-MOW" ID="30002619" Region="绝径" y="400.00" /><text y="400.00" x="750.00" id="14992">6E-MOW</text><rect Type="system" x="790.00" id="14994" height="5.00" width="5.00" Name="LJK-T0" ID="30002604" Region="绝径" y="670.00" /><text y="670.00" x="790.00" id="14995">LJK-T0</text><rect Type="system" x="820.00" id="14997" height="5.00" width="5.00" Name="01TG-J" ID="30002609" Region="绝径" y="75.50" /><text y="75.50" x="820.00" id="14998">01TG-J</text><rect Type="system" x="820.00" id="15000" height="5.00" width="5.00" Name="U3SQ-X" ID="30002608" Region="绝径" y="124.50" /><text y="124.50" x="820.00" id="15001">U3SQ-X</text><rect Type="system" x="850.00" id="15003" height="5.00" width="5.00" Name="4RS-L1" ID="30002625" Region="绝径" y="300.00" /><text y="300.00" x="850.00" id="15004">4RS-L1</text><rect Type="system" x="850.00" id="15006" height="5.00" width="5.00" Name="GBT4-J" ID="30002620" Region="绝径" y="350.00" /><text y="350.00" x="850.00" id="15007">GBT4-J</text><rect Type="system" x="850.00" id="15009" height="5.00" width="5.00" Name="GZ1-A1" ID="30002621" Region="绝径" y="420.00" /><text y="420.00" x="850.00" id="15010">GZ1-A1</text><rect Type="system" x="900.00" id="15012" height="5.00" width="5.00" Name="A1BK-A" ID="30002611" Region="绝径" y="124.50" /><text y="124.50" x="900.00" id="15013">A1BK-A</text><rect Type="system" x="900.00" id="15015" height="5.00" width="5.00" Name="UK-SHL" ID="30002610" Region="绝径" y="75.50" /><text y="75.50" x="900.00" id="15016">UK-SHL</text><rect Type="system" x="920.00" id="15018" height="5.00" width="5.00" Name="X-0CKQ" ID="30002622" Region="绝径" y="320.00" /><text y="320.00" x="920.00" id="15019">X-0CKQ</text><rect Type="system" x="950.00" id="15021" height="5.00" width="5.00" Name="LHGA-W" ID="30002624" Region="绝径" y="400.00" /><text y="400.00" x="950.00" id="15022">LHGA-W</text><rect Type="system" x="950.00" id="15024" height="5.00" width="5.00" Name="6B-GKA" ID="30002623" Region="绝径" y="450.00" /><text y="450.00" x="950.00" id="15025">6B-GKA</text><rect Type="system" x="50.00" id="15027" height="5.00" width="5.00" Name="H-HWQR" ID="30004814" Region="特里菲斯" y="50.00" /><text y="50.00" x="50.00" id="15028">H-HWQR</text><rect Type="system" x="80.00" id="15030" height="5.00" width="5.00" Name="E3-SDZ" ID="30001217" Region="卡彻" y="150.00" /><text y="150.00" x="80.00" id="15031">E3-SDZ</text><rect Type="system" x="100.00" id="15033" height="5.00" width="5.00" Name="UD-VZW" ID="30004404" Region="非塔波利斯" y="500.00" /><text y="500.00" x="100.00" id="15034">UD-VZW</text><line style="stroke:blue;fill:blue;" id="15036" x2="150.00" x1="150.00" y1="50.00" y2="100.00" /><line style="stroke:blue;fill:blue;" id="15037" x2="50.00" x1="150.00" y1="50.00" y2="50.00" /><line style="stroke:blue;fill:blue;" id="15038" x2="150.00" x1="150.00" y1="100.00" y2="50.00" /><line style="stroke:blue;fill:blue;" id="15039" x2="150.00" x1="150.00" y1="100.00" y2="150.00" /><line style="stroke:blue;fill:blue;" id="15040" x2="80.00" x1="150.00" y1="150.00" y2="150.00" /><line style="stroke:blue;fill:blue;" id="15041" x2="150.00" x1="150.00" y1="150.00" y2="100.00" /><line style="stroke:blue;fill:blue;" id="15042" x2="150.00" x1="150.00" y1="150.00" y2="200.00" /><line style="stroke:blue;fill:blue;" id="15043" x2="150.00" x1="150.00" y1="200.00" y2="150.00" /><line style="stroke:blue;fill:blue;" id="15044" x2="150.00" x1="150.00" y1="200.00" y2="250.00" /><line style="stroke:blue;fill:blue;" id="15045" x2="150.00" x1="150.00" y1="250.00" y2="200.00" /><line style="stroke:blue;fill:blue;" id="15046" x2="170.00" x1="150.00" y1="250.00" y2="300.00" /><line style="stroke:blue;fill:blue;" id="15047" x2="150.00" x1="170.00" y1="300.00" y2="250.00" /><line style="stroke:blue;fill:blue;" id="15048" x2="200.00" x1="170.00" y1="300.00" y2="350.00" /><line style="stroke:blue;fill:blue;" id="15049" x2="170.00" x1="200.00" y1="350.00" y2="300.00" /><line style="stroke:blue;fill:blue;" id="15050" x2="300.00" x1="200.00" y1="350.00" y2="400.00" /><line style="stroke:blue;fill:blue;" id="15051" x2="300.00" x1="200.00" y1="500.00" y2="480.00" /><line style="stroke:blue;fill:blue;" id="15052" x2="100.00" x1="200.00" y1="500.00" y2="500.00" /><line style="stroke:blue;fill:blue;" id="15053" x2="300.00" x1="220.00" y1="600.00" y2="600.00" /><line style="stroke:blue;fill:blue;" id="15054" x2="300.00" x1="250.00" y1="700.00" y2="650.00" /><line style="stroke:blue;fill:blue;" id="15055" x2="350.00" x1="300.00" y1="600.00" y2="600.00" /><line style="stroke:blue;fill:blue;" id="15056" x2="220.00" x1="300.00" y1="600.00" y2="600.00" /><line style="stroke:blue;fill:blue;" id="15057" x2="300.00" x1="300.00" y1="600.00" y2="650.00" /><line style="stroke:blue;fill:blue;" id="15058" x2="300.00" x1="300.00" y1="650.00" y2="600.00" /><line style="stroke:blue;fill:blue;" id="15059" x2="350.00" x1="300.00" y1="650.00" y2="700.00" /><line style="stroke:blue;fill:blue;" id="15060" x2="250.00" x1="300.00" y1="650.00" y2="700.00" /><line style="stroke:blue;fill:blue;" id="15061" x2="200.00" x1="300.00" y1="400.00" y2="350.00" /><line style="stroke:blue;fill:blue;" id="15062" x2="380.00" x1="300.00" y1="400.00" y2="450.00" /><line style="stroke:blue;fill:blue;" id="15063" x2="380.00" x1="300.00" y1="400.00" y2="350.00" /><line style="stroke:blue;fill:blue;" id="15064" x2="380.00" x1="300.00" y1="480.00" y2="450.00" /><line style="stroke:blue;fill:blue;" id="15065" x2="200.00" x1="300.00" y1="480.00" y2="500.00" /><line style="stroke:blue;fill:blue;" id="15066" x2="300.00" x1="350.00" y1="700.00" y2="650.00" /><line style="stroke:blue;fill:blue;" id="15067" x2="400.00" x1="350.00" y1="600.00" y2="550.00" /><line style="stroke:blue;fill:blue;" id="15068" x2="300.00" x1="350.00" y1="600.00" y2="600.00" /><line style="stroke:blue;fill:blue;" id="15069" x2="380.00" x1="380.00" y1="300.00" y2="350.00" /><line style="stroke:blue;fill:blue;" id="15070" x2="400.00" x1="380.00" y1="300.00" y2="220.00" /><line style="stroke:blue;fill:blue;" id="15071" x2="300.00" x1="380.00" y1="350.00" y2="400.00" /><line style="stroke:blue;fill:blue;" id="15072" x2="380.00" x1="380.00" y1="350.00" y2="300.00" /><line style="stroke:blue;fill:blue;" id="15073" x2="450.00" x1="380.00" y1="350.00" y2="400.00" /><line style="stroke:blue;fill:blue;" id="15074" x2="300.00" x1="380.00" y1="450.00" y2="400.00" /><line style="stroke:blue;fill:blue;" id="15075" x2="300.00" x1="380.00" y1="450.00" y2="480.00" /><line style="stroke:blue;fill:blue;" id="15076" x2="450.00" x1="380.00" y1="450.00" y2="400.00" /><line style="stroke:blue;fill:blue;" id="15077" x2="450.00" x1="400.00" y1="100.00" y2="150.00" /><line style="stroke:blue;fill:blue;" id="15078" x2="450.00" x1="400.00" y1="100.00" y2="50.00" /><line style="stroke:blue;fill:blue;" id="15079" x2="380.00" x1="400.00" y1="220.00" y2="300.00" /><line style="stroke:blue;fill:blue;" id="15080" x2="500.00" x1="400.00" y1="220.00" y2="220.00" /><line style="stroke:blue;fill:blue;" id="15081" x2="450.00" x1="400.00" y1="220.00" y2="150.00" /><line style="stroke:blue;fill:blue;" id="15082" x2="550.00" x1="400.00" y1="550.00" y2="450.00" /><line style="stroke:blue;fill:blue;" id="15083" x2="350.00" x1="400.00" y1="550.00" y2="600.00" /><line style="stroke:blue;fill:blue;" id="15084" x2="400.00" x1="450.00" y1="50.00" y2="100.00" /><line style="stroke:blue;fill:blue;" id="15085" x2="500.00" x1="450.00" y1="50.00" y2="100.00" /><line style="stroke:blue;fill:blue;" id="15086" x2="400.00" x1="450.00" y1="150.00" y2="220.00" /><line style="stroke:blue;fill:blue;" id="15087" x2="500.00" x1="450.00" y1="150.00" y2="220.00" /><line style="stroke:blue;fill:blue;" id="15088" x2="400.00" x1="450.00" y1="150.00" y2="100.00" /><line style="stroke:blue;fill:blue;" id="15089" x2="500.00" x1="450.00" y1="150.00" y2="100.00" /><line style="stroke:blue;fill:blue;" id="15090" x2="450.00" x1="450.00" y1="320.00" y2="400.00" /><line style="stroke:blue;fill:blue;" id="15091" x2="680.00" x1="450.00" y1="320.00" y2="200.00" /><line style="stroke:blue;fill:blue;" id="15092" x2="380.00" x1="450.00" y1="400.00" y2="450.00" /><line style="stroke:blue;fill:blue;" id="15093" x2="380.00" x1="450.00" y1="400.00" y2="350.00" /><line style="stroke:blue;fill:blue;" id="15094" x2="550.00" x1="450.00" y1="400.00" y2="450.00" /><line style="stroke:blue;fill:blue;" id="15095" x2="450.00" x1="450.00" y1="400.00" y2="320.00" /><line style="stroke:blue;fill:blue;" id="15096" x2="550.00" x1="450.00" y1="400.00" y2="350.00" /><line style="stroke:blue;fill:blue;" id="15097" x2="450.00" x1="500.00" y1="100.00" y2="150.00" /><line style="stroke:blue;fill:blue;" id="15098" x2="450.00" x1="500.00" y1="100.00" y2="50.00" /><line style="stroke:blue;fill:blue;" id="15099" x2="400.00" x1="500.00" y1="220.00" y2="220.00" /><line style="stroke:blue;fill:blue;" id="15100" x2="450.00" x1="500.00" y1="220.00" y2="150.00" /><line style="stroke:blue;fill:blue;" id="15101" x2="450.00" x1="550.00" y1="350.00" y2="400.00" /><line style="stroke:blue;fill:blue;" id="15102" x2="620.00" x1="550.00" y1="350.00" y2="400.00" /><line style="stroke:blue;fill:blue;" id="15103" x2="450.00" x1="550.00" y1="450.00" y2="400.00" /><line style="stroke:blue;fill:blue;" id="15104" x2="620.00" x1="550.00" y1="450.00" y2="400.00" /><line style="stroke:blue;fill:blue;" id="15105" x2="600.00" x1="550.00" y1="450.00" y2="550.00" /><line style="stroke:blue;fill:blue;" id="15106" x2="400.00" x1="550.00" y1="450.00" y2="550.00" /><line style="stroke:blue;fill:blue;" id="15107" x2="550.00" x1="600.00" y1="550.00" y2="450.00" /><line style="stroke:blue;fill:blue;" id="15108" x2="620.00" x1="600.00" y1="550.00" y2="600.00" /><line style="stroke:blue;fill:blue;" id="15109" x2="600.00" x1="620.00" y1="600.00" y2="550.00" /><line style="stroke:blue;fill:blue;" id="15110" x2="670.00" x1="620.00" y1="600.00" y2="640.00" /><line style="stroke:blue;fill:blue;" id="15111" x2="550.00" x1="620.00" y1="400.00" y2="450.00" /><line style="stroke:blue;fill:blue;" id="15112" x2="550.00" x1="620.00" y1="400.00" y2="350.00" /><line style="stroke:blue;fill:blue;" id="15113" x2="750.00" x1="620.00" y1="400.00" y2="400.00" /><line style="stroke:blue;fill:blue;" id="15114" x2="450.00" x1="680.00" y1="200.00" y2="320.00" /><line style="stroke:blue;fill:blue;" id="15115" x2="750.00" x1="680.00" y1="200.00" y2="180.00" /><line style="stroke:blue;fill:blue;" id="15116" x2="620.00" x1="670.00" y1="640.00" y2="600.00" /><line style="stroke:blue;fill:blue;" id="15117" x2="730.00" x1="670.00" y1="640.00" y2="660.00" /><line style="stroke:blue;fill:blue;" id="15118" x2="720.00" x1="670.00" y1="640.00" y2="570.00" /><line style="stroke:blue;fill:blue;" id="15119" x2="670.00" x1="730.00" y1="660.00" y2="640.00" /><line style="stroke:blue;fill:blue;" id="15120" x2="790.00" x1="730.00" y1="660.00" y2="670.00" /><line style="stroke:blue;fill:blue;" id="15121" x2="670.00" x1="720.00" y1="570.00" y2="640.00" /><line style="stroke:blue;fill:blue;" id="15122" x2="750.00" x1="750.00" y1="120.00" y2="180.00" /><line style="stroke:blue;fill:blue;" id="15123" x2="820.00" x1="750.00" y1="120.00" y2="124.50" /><line style="stroke:blue;fill:blue;" id="15124" x2="680.00" x1="750.00" y1="180.00" y2="200.00" /><line style="stroke:blue;fill:blue;" id="15125" x2="750.00" x1="750.00" y1="180.00" y2="120.00" /><line style="stroke:blue;fill:blue;" id="15126" x2="820.00" x1="750.00" y1="180.00" y2="124.50" /><line style="stroke:blue;fill:blue;" id="15127" x2="620.00" x1="750.00" y1="400.00" y2="400.00" /><line style="stroke:blue;fill:blue;" id="15128" x2="850.00" x1="750.00" y1="400.00" y2="350.00" /><line style="stroke:blue;fill:blue;" id="15129" x2="850.00" x1="750.00" y1="400.00" y2="420.00" /><line style="stroke:blue;fill:blue;" id="15130" x2="730.00" x1="790.00" y1="670.00" y2="660.00" /><line style="stroke:blue;fill:blue;" id="15131" x2="820.00" x1="820.00" y1="75.50" y2="124.50" /><line style="stroke:blue;fill:blue;" id="15132" x2="900.00" x1="820.00" y1="75.50" y2="75.50" /><line style="stroke:blue;fill:blue;" id="15133" x2="750.00" x1="820.00" y1="124.50" y2="180.00" /><line style="stroke:blue;fill:blue;" id="15134" x2="750.00" x1="820.00" y1="124.50" y2="120.00" /><line style="stroke:blue;fill:blue;" id="15135" x2="820.00" x1="820.00" y1="124.50" y2="75.50" /><line style="stroke:blue;fill:blue;" id="15136" x2="900.00" x1="820.00" y1="124.50" y2="124.50" /><line style="stroke:blue;fill:blue;" id="15137" x2="850.00" x1="850.00" y1="300.00" y2="350.00" /><line style="stroke:blue;fill:blue;" id="15138" x2="750.00" x1="850.00" y1="350.00" y2="400.00" /><line style="stroke:blue;fill:blue;" id="15139" x2="920.00" x1="850.00" y1="350.00" y2="320.00" /><line style="stroke:blue;fill:blue;" id="15140" x2="850.00" x1="850.00" y1="350.00" y2="300.00" /><line style="stroke:blue;fill:blue;" id="15141" x2="750.00" x1="850.00" y1="420.00" y2="400.00" /><line style="stroke:blue;fill:blue;" id="15142" x2="950.00" x1="850.00" y1="420.00" y2="450.00" /><line style="stroke:blue;fill:blue;" id="15143" x2="950.00" x1="850.00" y1="420.00" y2="400.00" /><line style="stroke:blue;fill:blue;" id="15144" x2="820.00" x1="900.00" y1="124.50" y2="124.50" /><line style="stroke:blue;fill:blue;" id="15145" x2="820.00" x1="900.00" y1="75.50" y2="75.50" /><line style="stroke:blue;fill:blue;" id="15146" x2="850.00" x1="920.00" y1="320.00" y2="350.00" /><line style="stroke:blue;fill:blue;" id="15147" x2="850.00" x1="950.00" y1="400.00" y2="420.00" /><line style="stroke:blue;fill:blue;" id="15148" x2="850.00" x1="950.00" y1="450.00" y2="420.00" /><line style="stroke:blue;fill:blue;" id="15149" x2="150.00" x1="50.00" y1="50.00" y2="50.00" /><line style="stroke:blue;fill:blue;" id="15150" x2="150.00" x1="80.00" y1="150.00" y2="150.00" /><line style="stroke:blue;fill:blue;" id="15151" x2="200.00" x1="100.00" y1="500.00" y2="500.00" /></svg>
