<?xml version="1.0" standalone="yes"?><!DOCTYPE svg PUBLIC "-//W3C//DTD SVG 1.1//EN" "http://www.w3.org/Graphics/SVG/1.1/DTD/svg11.dtd"[]><svg height="800.00" id="14873" width="1050.00" xmlns="http://www.w3.org/2000/svg" xmlns:xlink="http://www.w3.org/1999/xlink"><rect Type="system" Region="绝径" height="5.00" y="50.00" Name="1-7KWU" width="5.00" x="150.00" id="14874" ID="30002581" /><text x="150.00" y="50.00" id="14875">1-7KWU</text><rect Type="system" Region="绝径" height="5.00" y="100.00" Name="3-UCBF" width="5.00" x="150.00" id="14877" ID="30002582" /><text x="150.00" y="100.00" id="14878">3-UCBF</text><rect Type="system" Region="绝径" height="5.00" y="150.00" Name="N-CREL" width="5.00" x="150.00" id="14880" ID="30002583" /><text x="150.00" y="150.00" id="14881">N-CREL</text><rect Type="system" Region="绝径" height="5.00" y="200.00" Name="TM-0P2" width="5.00" x="150.00" id="14883" ID="30002584" /><text x="150.00" y="200.00" id="14884">TM-0P2</text><rect Type="system" Region="绝径" height="5.00" y="250.00" Name="4OIV-X" width="5.00" x="150.00" id="14886" ID="30002585" /><text x="150.00" y="250.00" id="14887">4OIV-X</text><rect Type="system" Region="绝径" height="5.00" y="300.00" Name="Y-JKJ8" width="5.00" x="170.00" id="14889" ID="30002586" /><text x="170.00" y="300.00" id="14890">Y-JKJ8</text><rect Type="system" Region="绝径" height="5.00" y="350.00" Name="AFJ-NB" width="5.00" x="200.00" id="14892" ID="30002587" /><text x="200.00" y="350.00" id="14893">AFJ-NB</text><rect Type="system" Region="绝径" height="5.00" y="500.00" Name="IV-UNR" width="5.00" x="200.00" id="14895" ID="30002594" /><text x="200.00" y="500.00" id="14896">IV-UNR</text><rect Type="system" Region="绝径" height="5.00" y="600.00" Name="PZMA-E" width="5.00" x="220.00" id="14898" ID="30002615" /><text x="220.00" y="600.00" id="14899">PZMA-E</text><rect Type="system" Region="绝径" height="5.00" y="700.00" Name="9ZFH-Z" width="5.00" x="250.00" id="14901" ID="30002618" /><text x="250.00" y="700.00" id="14902">9ZFH-Z</text><rect Type="system" Region="绝径" height="5.00" y="600.00" Name="TWJ-AW" width="5.00" x="300.00" id="14904" ID="30002614" /><text x="300.00" y="600.00" id="14905">TWJ-AW</text><rect Type="system" Region="绝径" height="5.00" y="650.00" Name="442-CS" width="5.00" x="300.00" id="14907" ID="30002616" /><text x="300.00" y="650.00" id="14908">442-CS</text><rect Type="system" Region="绝径" height="5.00" y="400.00" Name="H-64KI" width="5.00" x="300.00" id="14910" ID="30002588" /><text x="300.00" y="400.00" id="14911">H-64KI</text><rect Type="system" Region="绝径" height="5.00" y="480.00" Name="YALR-F" width="5.00" x="300.00" id="14913" ID="30002592" /><text x="300.00" y="480.00" id="14914">YALR-F</text><rect Type="system" Region="绝径" height="5.00" y="700.00" Name="Z-N9IP" width="5.00" x="350.00" id="14916" ID="30002617" /><text x="350.00" y="700.00" id="14917">Z-N9IP</text><rect Type="system" Region="绝径" height="5.00" y="600.00" Name="4-MPSJ" width="5.00" x="350.00" id="14919" ID="30002613" /><text x="350.00" y="600.00" id="14920">4-MPSJ</text><rect Type="system" Region="绝径" height="5.00" y="300.00" Name="5GQ-S9" width="5.00" x="380.00" id="14922" ID="30002591" /><text x="380.00" y="300.00" id="14923">5GQ-S9</text><rect Type="system" Region="绝径" height="5.00" y="350.00" Name="9-IIBL" width="5.00" x="380.00" id="14925" ID="30002590" /><text x="380.00" y="350.00" id="14926">9-IIBL</text><rect Type="system" Region="绝径" height="5.00" y="450.00" Name="9I-SRF" width="5.00" x="380.00" id="14928" ID="30002589" /><text x="380.00" y="450.00" id="14929">9I-SRF</text><rect Type="system" Region="绝径" height="5.00" y="100.00" Name="WFYM-0" width="5.00" x="400.00" id="14931" ID="30002629" /><text x="400.00" y="100.00" id="14932">WFYM-0</text><rect Type="system" Region="绝径" height="5.00" y="220.00" Name="D-L4H0" width="5.00" x="400.00" id="14934" ID="30002626" /><text x="400.00" y="220.00" id="14935">D-L4H0</text><rect Type="system" Region="绝径" height="5.00" y="550.00" Name="N-7ECY" width="5.00" x="400.00" id="14937" ID="30002612" /><text x="400.00" y="550.00" id="14938">N-7ECY</text><rect Type="system" Region="绝径" height="5.00" y="50.00" Name="FR-B1H" width="5.00" x="450.00" id="14940" ID="30002630" /><text x="450.00" y="50.00" id="14941">FR-B1H</text><rect Type="system" Region="绝径" height="5.00" y="150.00" Name="FG-1GH" width="5.00" x="450.00" id="14943" ID="30002628" /><text x="450.00" y="150.00" id="14944">FG-1GH</text><rect Type="system" Region="绝径" height="5.00" y="320.00" Name="HOHF-B" width="5.00" x="450.00" id="14946" ID="30002596" /><text x="450.00" y="320.00" id="14947">HOHF-B</text><rect Type="system" Region="绝径" height="5.00" y="400.00" Name="68FT-6" width="5.00" x="450.00" id="14949" ID="30002593" /><text x="450.00" y="400.00" id="14950">68FT-6</text><rect Type="system" Region="绝径" height="5.00" y="100.00" Name="DDI-B7" width="5.00" x="500.00" id="14952" ID="30002631" /><text x="500.00" y="100.00" id="14953">DDI-B7</text><rect Type="system" Region="绝径" height="5.00" y="220.00" Name="GU-9F4" width="5.00" x="500.00" id="14955" ID="30002627" /><text x="500.00" y="220.00" id="14956">GU-9F4</text><rect Type="system" Region="绝径" height="5.00" y="350.00" Name="Y-6B0E" width="5.00" x="550.00" id="14958" ID="30002597" /><text x="550.00" y="350.00" id="14959">Y-6B0E</text><rect Type="system" Region="绝径" height="5.00" y="450.00" Name="IRE-98" width="5.00" x="550.00" id="14961" ID="30002595" /><text x="550.00" y="450.00" id="14962">IRE-98</text><rect Type="system" Region="绝径" height="5.00" y="550.00" Name="DY-40Z" width="5.00" x="600.00" id="14964" ID="30002599" /><text x="600.00" y="550.00" id="14965">DY-40Z</text><rect Type="system" Region="绝径" height="5.00" y="600.00" Name="XWY-YM" width="5.00" x="620.00" id="14967" ID="30002600" /><text x="620.00" y="600.00" id="14968">XWY-YM</text><rect Type="system" Region="绝径" height="5.00" y="400.00" Name="F-3H2P" width="5.00" x="620.00" id="14970" ID="30002598" /><text x="620.00" y="400.00" id="14971">F-3H2P</text><rect Type="system" Region="绝径" height="5.00" y="200.00" Name="E7VE-V" width="5.00" x="680.00" id="14973" ID="30002605" /><text x="680.00" y="200.00" id="14974">E7VE-V</text><rect Type="system" Region="绝径" height="5.00" y="640.00" Name="M-9V5D" width="5.00" x="670.00" id="14976" ID="30002601" /><text x="670.00" y="640.00" id="14977">M-9V5D</text><rect Type="system" Region="绝径" height="5.00" y="660.00" Name="O2-39S" width="5.00" x="730.00" id="14979" ID="30002602" /><text x="730.00" y="660.00" id="14980">O2-39S</text><rect Type="system" Region="绝径" height="5.00" y="570.00" Name="M-VEJZ" width="5.00" x="720.00" id="14982" ID="30002603" /><text x="720.00" y="570.00" id="14983">M-VEJZ</text><rect Type="system" Region="绝径" height="5.00" y="120.00" Name="L6BY-P" width="5.00" x="750.00" id="14985" ID="30002607" /><text x="750.00" y="120.00" id="14986">L6BY-P</text><rect Type="system" Region="绝径" height="5.00" y="180.00" Name="NUG-OF" width="5.00" x="750.00" id="14988" ID="30002606" /><text x="750.00" y="180.00" id="14989">NUG-OF</text><rect Type="system" Region="绝径" height="5.00" y="400.00" Name="6E-MOW" width="5.00" x="750.00" id="14991" ID="30002619" /><text x="750.00" y="400.00" id="14992">6E-MOW</text><rect Type="system" Region="绝径" height="5.00" y="670.00" Name="LJK-T0" width="5.00" x="790.00" id="14994" ID="30002604" /><text x="790.00" y="670.00" id="14995">LJK-T0</text><rect Type="system" Region="绝径" height="5.00" y="75.50" Name="01TG-J" width="5.00" x="820.00" id="14997" ID="30002609" /><text x="820.00" y="75.50" id="14998">01TG-J</text><rect Type="system" Region="绝径" height="5.00" y="124.50" Name="U3SQ-X" width="5.00" x="820.00" id="15000" ID="30002608" /><text x="820.00" y="124.50" id="15001">U3SQ-X</text><rect Type="system" Region="绝径" height="5.00" y="300.00" Name="4RS-L1" width="5.00" x="850.00" id="15003" ID="30002625" /><text x="850.00" y="300.00" id="15004">4RS-L1</text><rect Type="system" Region="绝径" height="5.00" y="350.00" Name="GBT4-J" width="5.00" x="850.00" id="15006" ID="30002620" /><text x="850.00" y="350.00" id="15007">GBT4-J</text><rect Type="system" Region="绝径" height="5.00" y="420.00" Name="GZ1-A1" width="5.00" x="850.00" id="15009" ID="30002621" /><text x="850.00" y="420.00" id="15010">GZ1-A1</text><rect Type="system" Region="绝径" height="5.00" y="124.50" Name="A1BK-A" width="5.00" x="900.00" id="15012" ID="30002611" /><text x="900.00" y="124.50" id="15013">A1BK-A</text><rect Type="system" Region="绝径" height="5.00" y="75.50" Name="UK-SHL" width="5.00" x="900.00" id="15015" ID="30002610" /><text x="900.00" y="75.50" id="15016">UK-SHL</text><rect Type="system" Region="绝径" height="5.00" y="320.00" Name="X-0CKQ" width="5.00" x="920.00" id="15018" ID="30002622" /><text x="920.00" y="320.00" id="15019">X-0CKQ</text><rect Type="system" Region="绝径" height="5.00" y="400.00" Name="LHGA-W" width="5.00" x="950.00" id="15021" ID="30002624" /><text x="950.00" y="400.00" id="15022">LHGA-W</text><rect Type="system" Region="绝径" height="5.00" y="450.00" Name="6B-GKA" width="5.00" x="950.00" id="15024" ID="30002623" /><text x="950.00" y="450.00" id="15025">6B-GKA</text><rect Type="system" Region="特里菲斯" height="5.00" y="50.00" Name="H-HWQR" width="5.00" x="50.00" id="15027" ID="30004814" /><text x="50.00" y="50.00" id="15028">H-HWQR</text><rect Type="system" Region="卡彻" height="5.00" y="150.00" Name="E3-SDZ" width="5.00" x="80.00" id="15030" ID="30001217" /><text x="80.00" y="150.00" id="15031">E3-SDZ</text><rect Type="system" Region="非塔波利斯" height="5.00" y="500.00" Name="UD-VZW" width="5.00" x="100.00" id="15033" ID="30004404" /><text x="100.00" y="500.00" id="15034">UD-VZW</text><line x2="150.00" style="fill:blue;stroke:blue;" y1="50.00" x1="150.00" id="15036" y2="100.00" /><line x2="50.00" style="fill:blue;stroke:blue;" y1="50.00" x1="150.00" id="15037" y2="50.00" /><line x2="150.00" style="fill:blue;stroke:blue;" y1="100.00" x1="150.00" id="15038" y2="50.00" /><line x2="150.00" style="fill:blue;stroke:blue;" y1="100.00" x1="150.00" id="15039" y2="150.00" /><line x2="80.00" style="fill:blue;stroke:blue;" y1="150.00" x1="150.00" id="15040" y2="150.00" /><line x2="150.00" style="fill:blue;stroke:blue;" y1="150.00" x1="150.00" id="15041" y2="100.00" /><line x2="150.00" style="fill:blue;stroke:blue;" y1="150.00" x1="150.00" id="15042" y2="200.00" /><line x2="150.00" style="fill:blue;stroke:blue;" y1="200.00" x1="150.00" id="15043" y2="150.00" /><line x2="150.00" style="fill:blue;stroke:blue;" y1="200.00" x1="150.00" id="15044" y2="250.00" /><line x2="150.00" style="fill:blue;stroke:blue;" y1="250.00" x1="150.00" id="15045" y2="200.00" /><line x2="170.00" style="fill:blue;stroke:blue;" y1="250.00" x1="150.00" id="15046" y2="300.00" /><line x2="150.00" style="fill:blue;stroke:blue;" y1="300.00" x1="170.00" id="15047" y2="250.00" /><line x2="200.00" style="fill:blue;stroke:blue;" y1="300.00" x1="170.00" id="15048" y2="350.00" /><line x2="170.00" style="fill:blue;stroke:blue;" y1="350.00" x1="200.00" id="15049" y2="300.00" /><line x2="300.00" style="fill:blue;stroke:blue;" y1="350.00" x1="200.00" id="15050" y2="400.00" /><line x2="300.00" style="fill:blue;stroke:blue;" y1="500.00" x1="200.00" id="15051" y2="480.00" /><line x2="100.00" style="fill:blue;stroke:blue;" y1="500.00" x1="200.00" id="15052" y2="500.00" /><line x2="300.00" style="fill:blue;stroke:blue;" y1="600.00" x1="220.00" id="15053" y2="600.00" /><line x2="300.00" style="fill:blue;stroke:blue;" y1="700.00" x1="250.00" id="15054" y2="650.00" /><line x2="350.00" style="fill:blue;stroke:blue;" y1="600.00" x1="300.00" id="15055" y2="600.00" /><line x2="220.00" style="fill:blue;stroke:blue;" y1="600.00" x1="300.00" id="15056" y2="600.00" /><line x2="300.00" style="fill:blue;stroke:blue;" y1="600.00" x1="300.00" id="15057" y2="650.00" /><line x2="300.00" style="fill:blue;stroke:blue;" y1="650.00" x1="300.00" id="15058" y2="600.00" /><line x2="350.00" style="fill:blue;stroke:blue;" y1="650.00" x1="300.00" id="15059" y2="700.00" /><line x2="250.00" style="fill:blue;stroke:blue;" y1="650.00" x1="300.00" id="15060" y2="700.00" /><line x2="200.00" style="fill:blue;stroke:blue;" y1="400.00" x1="300.00" id="15061" y2="350.00" /><line x2="380.00" style="fill:blue;stroke:blue;" y1="400.00" x1="300.00" id="15062" y2="450.00" /><line x2="380.00" style="fill:blue;stroke:blue;" y1="400.00" x1="300.00" id="15063" y2="350.00" /><line x2="380.00" style="fill:blue;stroke:blue;" y1="480.00" x1="300.00" id="15064" y2="450.00" /><line x2="200.00" style="fill:blue;stroke:blue;" y1="480.00" x1="300.00" id="15065" y2="500.00" /><line x2="300.00" style="fill:blue;stroke:blue;" y1="700.00" x1="350.00" id="15066" y2="650.00" /><line x2="400.00" style="fill:blue;stroke:blue;" y1="600.00" x1="350.00" id="15067" y2="550.00" /><line x2="300.00" style="fill:blue;stroke:blue;" y1="600.00" x1="350.00" id="15068" y2="600.00" /><line x2="380.00" style="fill:blue;stroke:blue;" y1="300.00" x1="380.00" id="15069" y2="350.00" /><line x2="400.00" style="fill:blue;stroke:blue;" y1="300.00" x1="380.00" id="15070" y2="220.00" /><line x2="300.00" style="fill:blue;stroke:blue;" y1="350.00" x1="380.00" id="15071" y2="400.00" /><line x2="380.00" style="fill:blue;stroke:blue;" y1="350.00" x1="380.00" id="15072" y2="300.00" /><line x2="450.00" style="fill:blue;stroke:blue;" y1="350.00" x1="380.00" id="15073" y2="400.00" /><line x2="300.00" style="fill:blue;stroke:blue;" y1="450.00" x1="380.00" id="15074" y2="400.00" /><line x2="300.00" style="fill:blue;stroke:blue;" y1="450.00" x1="380.00" id="15075" y2="480.00" /><line x2="450.00" style="fill:blue;stroke:blue;" y1="450.00" x1="380.00" id="15076" y2="400.00" /><line x2="450.00" style="fill:blue;stroke:blue;" y1="100.00" x1="400.00" id="15077" y2="150.00" /><line x2="450.00" style="fill:blue;stroke:blue;" y1="100.00" x1="400.00" id="15078" y2="50.00" /><line x2="380.00" style="fill:blue;stroke:blue;" y1="220.00" x1="400.00" id="15079" y2="300.00" /><line x2="500.00" style="fill:blue;stroke:blue;" y1="220.00" x1="400.00" id="15080" y2="220.00" /><line x2="450.00" style="fill:blue;stroke:blue;" y1="220.00" x1="400.00" id="15081" y2="150.00" /><line x2="550.00" style="fill:blue;stroke:blue;" y1="550.00" x1="400.00" id="15082" y2="450.00" /><line x2="350.00" style="fill:blue;stroke:blue;" y1="550.00" x1="400.00" id="15083" y2="600.00" /><line x2="400.00" style="fill:blue;stroke:blue;" y1="50.00" x1="450.00" id="15084" y2="100.00" /><line x2="500.00" style="fill:blue;stroke:blue;" y1="50.00" x1="450.00" id="15085" y2="100.00" /><line x2="400.00" style="fill:blue;stroke:blue;" y1="150.00" x1="450.00" id="15086" y2="220.00" /><line x2="500.00" style="fill:blue;stroke:blue;" y1="150.00" x1="450.00" id="15087" y2="220.00" /><line x2="400.00" style="fill:blue;stroke:blue;" y1="150.00" x1="450.00" id="15088" y2="100.00" /><line x2="500.00" style="fill:blue;stroke:blue;" y1="150.00" x1="450.00" id="15089" y2="100.00" /><line x2="450.00" style="fill:blue;stroke:blue;" y1="320.00" x1="450.00" id="15090" y2="400.00" /><line x2="680.00" style="fill:blue;stroke:blue;" y1="320.00" x1="450.00" id="15091" y2="200.00" /><line x2="380.00" style="fill:blue;stroke:blue;" y1="400.00" x1="450.00" id="15092" y2="450.00" /><line x2="380.00" style="fill:blue;stroke:blue;" y1="400.00" x1="450.00" id="15093" y2="350.00" /><line x2="550.00" style="fill:blue;stroke:blue;" y1="400.00" x1="450.00" id="15094" y2="450.00" /><line x2="450.00" style="fill:blue;stroke:blue;" y1="400.00" x1="450.00" id="15095" y2="320.00" /><line x2="550.00" style="fill:blue;stroke:blue;" y1="400.00" x1="450.00" id="15096" y2="350.00" /><line x2="450.00" style="fill:blue;stroke:blue;" y1="100.00" x1="500.00" id="15097" y2="150.00" /><line x2="450.00" style="fill:blue;stroke:blue;" y1="100.00" x1="500.00" id="15098" y2="50.00" /><line x2="400.00" style="fill:blue;stroke:blue;" y1="220.00" x1="500.00" id="15099" y2="220.00" /><line x2="450.00" style="fill:blue;stroke:blue;" y1="220.00" x1="500.00" id="15100" y2="150.00" /><line x2="450.00" style="fill:blue;stroke:blue;" y1="350.00" x1="550.00" id="15101" y2="400.00" /><line x2="620.00" style="fill:blue;stroke:blue;" y1="350.00" x1="550.00" id="15102" y2="400.00" /><line x2="450.00" style="fill:blue;stroke:blue;" y1="450.00" x1="550.00" id="15103" y2="400.00" /><line x2="620.00" style="fill:blue;stroke:blue;" y1="450.00" x1="550.00" id="15104" y2="400.00" /><line x2="600.00" style="fill:blue;stroke:blue;" y1="450.00" x1="550.00" id="15105" y2="550.00" /><line x2="400.00" style="fill:blue;stroke:blue;" y1="450.00" x1="550.00" id="15106" y2="550.00" /><line x2="550.00" style="fill:blue;stroke:blue;" y1="550.00" x1="600.00" id="15107" y2="450.00" /><line x2="620.00" style="fill:blue;stroke:blue;" y1="550.00" x1="600.00" id="15108" y2="600.00" /><line x2="600.00" style="fill:blue;stroke:blue;" y1="600.00" x1="620.00" id="15109" y2="550.00" /><line x2="670.00" style="fill:blue;stroke:blue;" y1="600.00" x1="620.00" id="15110" y2="640.00" /><line x2="550.00" style="fill:blue;stroke:blue;" y1="400.00" x1="620.00" id="15111" y2="450.00" /><line x2="550.00" style="fill:blue;stroke:blue;" y1="400.00" x1="620.00" id="15112" y2="350.00" /><line x2="750.00" style="fill:blue;stroke:blue;" y1="400.00" x1="620.00" id="15113" y2="400.00" /><line x2="450.00" style="fill:blue;stroke:blue;" y1="200.00" x1="680.00" id="15114" y2="320.00" /><line x2="750.00" style="fill:blue;stroke:blue;" y1="200.00" x1="680.00" id="15115" y2="180.00" /><line x2="620.00" style="fill:blue;stroke:blue;" y1="640.00" x1="670.00" id="15116" y2="600.00" /><line x2="730.00" style="fill:blue;stroke:blue;" y1="640.00" x1="670.00" id="15117" y2="660.00" /><line x2="720.00" style="fill:blue;stroke:blue;" y1="640.00" x1="670.00" id="15118" y2="570.00" /><line x2="670.00" style="fill:blue;stroke:blue;" y1="660.00" x1="730.00" id="15119" y2="640.00" /><line x2="790.00" style="fill:blue;stroke:blue;" y1="660.00" x1="730.00" id="15120" y2="670.00" /><line x2="670.00" style="fill:blue;stroke:blue;" y1="570.00" x1="720.00" id="15121" y2="640.00" /><line x2="750.00" style="fill:blue;stroke:blue;" y1="120.00" x1="750.00" id="15122" y2="180.00" /><line x2="820.00" style="fill:blue;stroke:blue;" y1="120.00" x1="750.00" id="15123" y2="124.50" /><line x2="680.00" style="fill:blue;stroke:blue;" y1="180.00" x1="750.00" id="15124" y2="200.00" /><line x2="750.00" style="fill:blue;stroke:blue;" y1="180.00" x1="750.00" id="15125" y2="120.00" /><line x2="820.00" style="fill:blue;stroke:blue;" y1="180.00" x1="750.00" id="15126" y2="124.50" /><line x2="620.00" style="fill:blue;stroke:blue;" y1="400.00" x1="750.00" id="15127" y2="400.00" /><line x2="850.00" style="fill:blue;stroke:blue;" y1="400.00" x1="750.00" id="15128" y2="350.00" /><line x2="850.00" style="fill:blue;stroke:blue;" y1="400.00" x1="750.00" id="15129" y2="420.00" /><line x2="730.00" style="fill:blue;stroke:blue;" y1="670.00" x1="790.00" id="15130" y2="660.00" /><line x2="820.00" style="fill:blue;stroke:blue;" y1="75.50" x1="820.00" id="15131" y2="124.50" /><line x2="900.00" style="fill:blue;stroke:blue;" y1="75.50" x1="820.00" id="15132" y2="75.50" /><line x2="750.00" style="fill:blue;stroke:blue;" y1="124.50" x1="820.00" id="15133" y2="180.00" /><line x2="750.00" style="fill:blue;stroke:blue;" y1="124.50" x1="820.00" id="15134" y2="120.00" /><line x2="820.00" style="fill:blue;stroke:blue;" y1="124.50" x1="820.00" id="15135" y2="75.50" /><line x2="900.00" style="fill:blue;stroke:blue;" y1="124.50" x1="820.00" id="15136" y2="124.50" /><line x2="850.00" style="fill:blue;stroke:blue;" y1="300.00" x1="850.00" id="15137" y2="350.00" /><line x2="750.00" style="fill:blue;stroke:blue;" y1="350.00" x1="850.00" id="15138" y2="400.00" /><line x2="920.00" style="fill:blue;stroke:blue;" y1="350.00" x1="850.00" id="15139" y2="320.00" /><line x2="850.00" style="fill:blue;stroke:blue;" y1="350.00" x1="850.00" id="15140" y2="300.00" /><line x2="750.00" style="fill:blue;stroke:blue;" y1="420.00" x1="850.00" id="15141" y2="400.00" /><line x2="950.00" style="fill:blue;stroke:blue;" y1="420.00" x1="850.00" id="15142" y2="450.00" /><line x2="950.00" style="fill:blue;stroke:blue;" y1="420.00" x1="850.00" id="15143" y2="400.00" /><line x2="820.00" style="fill:blue;stroke:blue;" y1="124.50" x1="900.00" id="15144" y2="124.50" /><line x2="820.00" style="fill:blue;stroke:blue;" y1="75.50" x1="900.00" id="15145" y2="75.50" /><line x2="850.00" style="fill:blue;stroke:blue;" y1="320.00" x1="920.00" id="15146" y2="350.00" /><line x2="850.00" style="fill:blue;stroke:blue;" y1="400.00" x1="950.00" id="15147" y2="420.00" /><line x2="850.00" style="fill:blue;stroke:blue;" y1="450.00" x1="950.00" id="15148" y2="420.00" /><line x2="150.00" style="fill:blue;stroke:blue;" y1="50.00" x1="50.00" id="15149" y2="50.00" /><line x2="150.00" style="fill:blue;stroke:blue;" y1="150.00" x1="80.00" id="15150" y2="150.00" /><line x2="200.00" style="fill:blue;stroke:blue;" y1="500.00" x1="100.00" id="15151" y2="500.00" /></svg>
