<?xml version="1.0" standalone="yes"?><!DOCTYPE svg PUBLIC "-//W3C//DTD SVG 1.1//EN" "http://www.w3.org/Graphics/SVG/1.1/DTD/svg11.dtd"[]><svg height="800.00" id="32242" width="1050.00" xmlns="http://www.w3.org/2000/svg" xmlns:xlink="http://www.w3.org/1999/xlink"><rect Type="system" Region="宁静之域" height="5.00" y="221.91" Name="斯塔克蒙" width="5.00" x="79.04" id="32243" ID="30003794" /><text x="79.04" y="221.91" id="32244">斯塔克蒙</text><rect Type="system" Region="维格温铎" height="5.00" y="300.00" Name="埃达尔特" width="5.00" x="80.00" id="32246" ID="30005307" /><text x="80.00" y="300.00" id="32247">埃达尔特</text><rect Type="system" Region="维格温铎" height="5.00" y="420.00" Name="茨图瓦尔特" width="5.00" x="120.00" id="32249" ID="30005305" /><text x="120.00" y="420.00" id="32250">茨图瓦尔特</text><rect Type="system" Region="维格温铎" height="5.00" y="600.00" Name="安大略尔" width="5.00" x="120.00" id="32252" ID="30015305" /><text x="120.00" y="600.00" id="32253">安大略尔</text><rect Type="system" Region="维格温铎" height="5.00" y="120.00" Name="克拉西勒" width="5.00" x="150.00" id="32255" ID="30035305" /><text x="150.00" y="120.00" id="32256">克拉西勒</text><rect Type="system" Region="维格温铎" height="5.00" y="580.00" Name="阿伦特尼" width="5.00" x="180.00" id="32258" ID="30005304" /><text x="180.00" y="580.00" id="32259">阿伦特尼</text><rect Type="system" Region="维格温铎" height="5.00" y="480.00" Name="梅尔罗勒斯" width="5.00" x="180.00" id="32261" ID="30005303" /><text x="180.00" y="480.00" id="32262">梅尔罗勒斯</text><rect Type="system" Region="维格温铎" height="5.00" y="80.00" Name="克勒里农" width="5.00" x="200.00" id="32264" ID="30045305" /><text x="200.00" y="80.00" id="32265">克勒里农</text><rect Type="system" Region="维格温铎" height="5.00" y="150.00" Name="伊勒达" width="5.00" x="220.00" id="32267" ID="30005315" /><text x="220.00" y="150.00" id="32268">伊勒达</text><rect Type="system" Region="维格温铎" height="5.00" y="500.00" Name="埃列尼亚" width="5.00" x="250.00" id="32270" ID="30005302" /><text x="250.00" y="500.00" id="32271">埃列尼亚</text><rect Type="system" Region="维格温铎" height="5.00" y="100.00" Name="鲁瑟" width="5.00" x="250.00" id="32273" ID="30005316" /><text x="250.00" y="100.00" id="32274">鲁瑟</text><rect Type="system" Region="维格温铎" height="5.00" y="280.05" Name="埃米格农" width="5.00" x="359.99" id="32276" ID="30005311" /><text x="359.99" y="280.05" id="32277">埃米格农</text><rect Type="system" Region="维格温铎" height="5.00" y="380.00" Name="特鲁尔瑟" width="5.00" x="280.00" id="32279" ID="30005314" /><text x="280.00" y="380.00" id="32280">特鲁尔瑟</text><rect Type="system" Region="维格温铎" height="5.00" y="450.00" Name="托瑞尔" width="5.00" x="280.00" id="32282" ID="30005301" /><text x="280.00" y="450.00" id="32283">托瑞尔</text><rect Type="system" Region="维格温铎" height="5.00" y="550.00" Name="瓦伊尔勒" width="5.00" x="280.00" id="32285" ID="30005306" /><text x="280.00" y="550.00" id="32286">瓦伊尔勒</text><rect Type="system" Region="维格温铎" height="5.00" y="80.00" Name="俄库恩比伦" width="5.00" x="300.00" id="32288" ID="30005317" /><text x="300.00" y="80.00" id="32289">俄库恩比伦</text><rect Type="system" Region="维格温铎" height="5.00" y="180.00" Name="维" width="5.00" x="300.00" id="32291" ID="30005318" /><text x="300.00" y="180.00" id="32292">维</text><rect Type="system" Region="维格温铎" height="5.00" y="250.00" Name="舍尔宁斯" width="5.00" x="300.00" id="32294" ID="30005310" /><text x="300.00" y="250.00" id="32295">舍尔宁斯</text><rect Type="system" Region="维格温铎" height="5.00" y="520.00" Name="加纳森" width="5.00" x="320.00" id="32297" ID="30025305" /><text x="320.00" y="520.00" id="32298">加纳森</text><rect Type="system" Region="维格温铎" height="5.00" y="400.00" Name="厄尔迈" width="5.00" x="350.00" id="32300" ID="30005313" /><text x="350.00" y="400.00" id="32301">厄尔迈</text><rect Type="system" Region="维格温铎" height="5.00" y="310.00" Name="吉夫维特" width="5.00" x="320.00" id="32303" ID="30005308" /><text x="320.00" y="310.00" id="32304">吉夫维特</text><rect Type="system" Region="维格温铎" height="5.00" y="100.00" Name="拉涅列斯" width="5.00" x="350.00" id="32306" ID="30005319" /><text x="350.00" y="100.00" id="32307">拉涅列斯</text><rect Type="system" Region="维格温铎" height="5.00" y="340.00" Name="安萨列" width="5.00" x="360.00" id="32309" ID="30005309" /><text x="360.00" y="340.00" id="32310">安萨列</text><rect Type="system" Region="维格温铎" height="5.00" y="400.00" Name="基斯尔勒斯" width="5.00" x="420.00" id="32312" ID="30005312" /><text x="420.00" y="400.00" id="32313">基斯尔勒斯</text><rect Type="system" Region="维格温铎" height="5.00" y="250.00" Name="罗耶斯" width="5.00" x="450.00" id="32315" ID="30005300" /><text x="450.00" y="250.00" id="32316">罗耶斯</text><rect Type="system" Region="维格温铎" height="5.00" y="80.00" Name="西维斯" width="5.00" x="450.00" id="32318" ID="30005320" /><text x="450.00" y="80.00" id="32319">西维斯</text><rect Type="system" Region="维格温铎" height="5.00" y="576.17" Name="舒鲁茨尔" width="5.00" x="478.09" id="32321" ID="30005322" /><text x="478.09" y="576.17" id="32322">舒鲁茨尔</text><rect Type="system" Region="维格温铎" height="5.00" y="280.00" Name="欧乐达" width="5.00" x="500.00" id="32324" ID="30005297" /><text x="500.00" y="280.00" id="32325">欧乐达</text><rect Type="system" Region="维格温铎" height="5.00" y="620.00" Name="索尔提特" width="5.00" x="500.00" id="32327" ID="30005323" /><text x="500.00" y="620.00" id="32328">索尔提特</text><rect Type="system" Region="维格温铎" height="5.00" y="663.83" Name="克劳勒尼" width="5.00" x="521.91" id="32330" ID="30005324" /><text x="521.91" y="663.83" id="32331">克劳勒尼</text><rect Type="system" Region="维格温铎" height="5.00" y="100.00" Name="缪塔勒尔" width="5.00" x="550.00" id="32333" ID="30005299" /><text x="550.00" y="100.00" id="32334">缪塔勒尔</text><rect Type="system" Region="维格温铎" height="5.00" y="220.00" Name="梅马尼尔" width="5.00" x="550.00" id="32336" ID="30005296" /><text x="550.00" y="220.00" id="32337">梅马尼尔</text><rect Type="system" Region="维格温铎" height="5.00" y="50.00" Name="乔万农" width="5.00" x="550.00" id="32339" ID="30005321" /><text x="550.00" y="50.00" id="32340">乔万农</text><rect Type="system" Region="维格温铎" height="5.00" y="710.00" Name="马萨勒" width="5.00" x="570.00" id="32342" ID="30005325" /><text x="570.00" y="710.00" id="32343">马萨勒</text><rect Type="system" Region="维格温铎" height="5.00" y="150.00" Name="靠斯托勒" width="5.00" x="550.00" id="32345" ID="30005298" /><text x="550.00" y="150.00" id="32346">靠斯托勒</text><rect Type="system" Region="维格温铎" height="5.00" y="730.00" Name="安尼列" width="5.00" x="620.00" id="32348" ID="30005326" /><text x="620.00" y="730.00" id="32349">安尼列</text><rect Type="system" Region="维格温铎" height="5.00" y="217.68" Name="缪勒坦" width="5.00" x="617.68" id="32351" ID="30005295" /><text x="617.68" y="217.68" id="32352">缪勒坦</text><rect Type="system" Region="精华之域" height="5.00" y="50.00" Name="耶舒尔" width="5.00" x="650.00" id="32354" ID="30005008" /><text x="650.00" y="50.00" id="32355">耶舒尔</text><rect Type="system" Region="维格温铎" height="5.00" y="750.00" Name="彻谢特" width="5.00" x="680.00" id="32357" ID="30005327" /><text x="680.00" y="750.00" id="32358">彻谢特</text><rect Type="system" Region="维格温铎" height="5.00" y="480.00" Name="奥斯蒙莫尼" width="5.00" x="750.00" id="32360" ID="30005332" /><text x="750.00" y="480.00" id="32361">奥斯蒙莫尼</text><rect Type="system" Region="维格温铎" height="5.00" y="750.00" Name="瑞比里尔" width="5.00" x="750.00" id="32363" ID="30005328" /><text x="750.00" y="750.00" id="32364">瑞比里尔</text><rect Type="system" Region="维格温铎" height="5.00" y="352.52" Name="斯托欧" width="5.00" x="767.46" id="32366" ID="30005333" /><text x="767.46" y="352.52" id="32367">斯托欧</text><rect Type="system" Region="维格温铎" height="5.00" y="420.00" Name="查卓斯" width="5.00" x="800.00" id="32369" ID="30005331" /><text x="800.00" y="420.00" id="32370">查卓斯</text><rect Type="system" Region="维格温铎" height="5.00" y="319.74" Name="安德瑞亚" width="5.00" x="803.88" id="32372" ID="30005329" /><text x="803.88" y="319.74" id="32373">安德瑞亚</text><rect Type="system" Region="维格温铎" height="5.00" y="480.00" Name="铁里耶维" width="5.00" x="820.00" id="32375" ID="30005334" /><text x="820.00" y="480.00" id="32376">铁里耶维</text><rect Type="system" Region="维格温铎" height="5.00" y="380.00" Name="埃拉隆" width="5.00" x="850.00" id="32378" ID="30005330" /><text x="850.00" y="380.00" id="32379">埃拉隆</text><rect Type="system" Region="精华之域" height="5.00" y="280.00" Name="阿泰恩" width="5.00" x="900.00" id="32381" ID="30005004" /><text x="900.00" y="280.00" id="32382">阿泰恩</text><rect Type="system" Region="宁静之域" height="5.00" y="200.00" Name="卡维因" width="5.00" x="20.00" id="32384" ID="30003795" /><text x="20.00" y="200.00" id="32385">卡维因</text><rect Type="system" Region="宁静之域" height="5.00" y="350.00" Name="埃瓦奥克" width="5.00" x="20.00" id="32387" ID="30003843" /><text x="20.00" y="350.00" id="32388">埃瓦奥克</text><rect Type="system" Region="宁静之域" height="5.00" y="178.09" Name="达斯顿斯" width="5.00" x="100.96" id="32390" ID="30003797" /><text x="100.96" y="178.09" id="32391">达斯顿斯</text><rect Type="system" Region="宁静之域" height="5.00" y="250.00" Name="斯雷斯" width="5.00" x="150.00" id="32393" ID="30003798" /><text x="150.00" y="250.00" id="32394">斯雷斯</text><rect Type="system" Region="宁静之域" height="5.00" y="200.00" Name="奥斯汀格勒" width="5.00" x="150.00" id="32396" ID="30003792" /><text x="150.00" y="200.00" id="32397">奥斯汀格勒</text><rect Type="system" Region="吉勒西斯" height="5.00" y="420.00" Name="塔尔" width="5.00" x="180.00" id="32399" ID="30005199" /><text x="180.00" y="420.00" id="32400">塔尔</text><rect Type="system" Region="吉勒西斯" height="5.00" y="480.00" Name="迪亚德里" width="5.00" x="380.00" id="32402" ID="30005229" /><text x="380.00" y="480.00" id="32403">迪亚德里</text><rect Type="system" Region="宁静之域" height="5.00" y="188.07" Name="埃格则" width="5.00" x="390.97" id="32405" ID="30003787" /><text x="390.97" y="188.07" id="32406">埃格则</text><rect Type="system" Region="吉勒西斯" height="5.00" y="420.00" Name="尤拉" width="5.00" x="520.00" id="32408" ID="30005204" /><text x="520.00" y="420.00" id="32409">尤拉</text><rect Type="system" Region="精华之域" height="5.00" y="20.00" Name="拉底赛迪尔" width="5.00" x="600.00" id="32411" ID="30004999" /><text x="600.00" y="20.00" id="32412">拉底赛迪尔</text><rect Type="system" Region="吉勒西斯" height="5.00" y="420.00" Name="奥拉菲特" width="5.00" x="620.00" id="32414" ID="30005203" /><text x="620.00" y="420.00" id="32415">奥拉菲特</text><rect Type="system" Region="精华之域" height="5.00" y="252.32" Name="印卓古勒" width="5.00" x="652.32" id="32417" ID="30004982" /><text x="652.32" y="252.32" id="32418">印卓古勒</text><rect Type="system" Region="精华之域" height="5.00" y="20.00" Name="欧尼" width="5.00" x="700.00" id="32420" ID="30004990" /><text x="700.00" y="20.00" id="32421">欧尼</text><rect Type="system" Region="精华之域" height="5.00" y="220.00" Name="美希比尔" width="5.00" x="720.00" id="32423" ID="30004975" /><text x="720.00" y="220.00" id="32424">美希比尔</text><rect Type="system" Region="精华之域" height="5.00" y="277.74" Name="佩门勒" width="5.00" x="778.66" id="32426" ID="30004978" /><text x="778.66" y="277.74" id="32427">佩门勒</text><rect Type="system" Region="赛塔德洱" height="5.00" y="550.00" Name="塔诺冷" width="5.00" x="800.00" id="32429" ID="30002812" /><text x="800.00" y="550.00" id="32430">塔诺冷</text><rect Type="system" Region="辛迪加" height="5.00" y="750.00" Name="6-CZ49" width="5.00" x="820.00" id="32432" ID="30003280" /><text x="820.00" y="750.00" id="32433">6-CZ49</text><rect Type="system" Region="精华之域" height="5.00" y="100.00" Name="埃迪瑞恩" width="5.00" x="850.00" id="32435" ID="30005003" /><text x="850.00" y="100.00" id="32436">埃迪瑞恩</text><rect Type="system" Region="精华之域" height="5.00" y="150.00" Name="劳韦尔" width="5.00" x="900.00" id="32438" ID="30005002" /><text x="900.00" y="150.00" id="32439">劳韦尔</text><rect Type="system" Region="精华之域" height="5.00" y="500.00" Name="德瑞林特" width="5.00" x="920.00" id="32441" ID="30005025" /><text x="920.00" y="500.00" id="32442">德瑞林特</text><rect Type="system" Region="宁静之域" height="5.00" y="231.89" Name="印塔基" width="5.00" x="369.04" id="32444" ID="30003788" /><text x="369.04" y="231.89" id="32445">印塔基</text><line x2="150.00" style="fill:blue;stroke:blue;" y1="221.91" x1="79.04" id="32447" y2="200.00" /><line x2="20.00" style="fill:blue;stroke:blue;" y1="221.91" x1="79.04" id="32448" y2="200.00" /><line x2="100.96" style="fill:blue;stroke:blue;" y1="221.91" x1="79.04" id="32449" y2="178.09" /><line x2="150.00" style="fill:blue;stroke:blue;" y1="221.91" x1="79.04" id="32450" y2="250.00" /><line x2="80.00" style="fill:blue;stroke:blue;" y1="221.91" x1="79.04" id="32451" y2="300.00" /><line x2="79.04" style="fill:blue;stroke:blue;" y1="300.00" x1="80.00" id="32452" y2="221.91" /><line x2="20.00" style="fill:blue;stroke:blue;" y1="300.00" x1="80.00" id="32453" y2="350.00" /><line x2="120.00" style="fill:blue;stroke:blue;" y1="300.00" x1="80.00" id="32454" y2="420.00" /><line x2="180.00" style="fill:blue;stroke:blue;" y1="420.00" x1="120.00" id="32455" y2="580.00" /><line x2="80.00" style="fill:blue;stroke:blue;" y1="420.00" x1="120.00" id="32456" y2="300.00" /><line x2="220.00" style="fill:blue;stroke:blue;" y1="420.00" x1="120.00" id="32457" y2="150.00" /><line x2="180.00" style="fill:blue;stroke:blue;" y1="600.00" x1="120.00" id="32458" y2="580.00" /><line x2="220.00" style="fill:blue;stroke:blue;" y1="120.00" x1="150.00" id="32459" y2="150.00" /><line x2="250.00" style="fill:blue;stroke:blue;" y1="580.00" x1="180.00" id="32460" y2="500.00" /><line x2="180.00" style="fill:blue;stroke:blue;" y1="580.00" x1="180.00" id="32461" y2="480.00" /><line x2="120.00" style="fill:blue;stroke:blue;" y1="580.00" x1="180.00" id="32462" y2="420.00" /><line x2="280.00" style="fill:blue;stroke:blue;" y1="580.00" x1="180.00" id="32463" y2="550.00" /><line x2="478.09" style="fill:blue;stroke:blue;" y1="580.00" x1="180.00" id="32464" y2="576.17" /><line x2="120.00" style="fill:blue;stroke:blue;" y1="580.00" x1="180.00" id="32465" y2="600.00" /><line x2="180.00" style="fill:blue;stroke:blue;" y1="480.00" x1="180.00" id="32466" y2="420.00" /><line x2="280.00" style="fill:blue;stroke:blue;" y1="480.00" x1="180.00" id="32467" y2="450.00" /><line x2="180.00" style="fill:blue;stroke:blue;" y1="480.00" x1="180.00" id="32468" y2="580.00" /><line x2="250.00" style="fill:blue;stroke:blue;" y1="80.00" x1="200.00" id="32469" y2="100.00" /><line x2="120.00" style="fill:blue;stroke:blue;" y1="150.00" x1="220.00" id="32470" y2="420.00" /><line x2="250.00" style="fill:blue;stroke:blue;" y1="150.00" x1="220.00" id="32471" y2="100.00" /><line x2="300.00" style="fill:blue;stroke:blue;" y1="150.00" x1="220.00" id="32472" y2="180.00" /><line x2="150.00" style="fill:blue;stroke:blue;" y1="150.00" x1="220.00" id="32473" y2="120.00" /><line x2="280.00" style="fill:blue;stroke:blue;" y1="500.00" x1="250.00" id="32474" y2="450.00" /><line x2="180.00" style="fill:blue;stroke:blue;" y1="500.00" x1="250.00" id="32475" y2="580.00" /><line x2="280.00" style="fill:blue;stroke:blue;" y1="500.00" x1="250.00" id="32476" y2="550.00" /><line x2="220.00" style="fill:blue;stroke:blue;" y1="100.00" x1="250.00" id="32477" y2="150.00" /><line x2="300.00" style="fill:blue;stroke:blue;" y1="100.00" x1="250.00" id="32478" y2="80.00" /><line x2="300.00" style="fill:blue;stroke:blue;" y1="100.00" x1="250.00" id="32479" y2="180.00" /><line x2="200.00" style="fill:blue;stroke:blue;" y1="100.00" x1="250.00" id="32480" y2="80.00" /><line x2="320.00" style="fill:blue;stroke:blue;" y1="280.05" x1="359.99" id="32481" y2="310.00" /><line x2="369.04" style="fill:blue;stroke:blue;" y1="280.05" x1="359.99" id="32482" y2="231.89" /><line x2="350.00" style="fill:blue;stroke:blue;" y1="380.00" x1="280.00" id="32483" y2="400.00" /><line x2="520.00" style="fill:blue;stroke:blue;" y1="450.00" x1="280.00" id="32484" y2="420.00" /><line x2="380.00" style="fill:blue;stroke:blue;" y1="450.00" x1="280.00" id="32485" y2="480.00" /><line x2="250.00" style="fill:blue;stroke:blue;" y1="450.00" x1="280.00" id="32486" y2="500.00" /><line x2="180.00" style="fill:blue;stroke:blue;" y1="450.00" x1="280.00" id="32487" y2="480.00" /><line x2="320.00" style="fill:blue;stroke:blue;" y1="450.00" x1="280.00" id="32488" y2="520.00" /><line x2="250.00" style="fill:blue;stroke:blue;" y1="550.00" x1="280.00" id="32489" y2="500.00" /><line x2="180.00" style="fill:blue;stroke:blue;" y1="550.00" x1="280.00" id="32490" y2="580.00" /><line x2="250.00" style="fill:blue;stroke:blue;" y1="80.00" x1="300.00" id="32491" y2="100.00" /><line x2="350.00" style="fill:blue;stroke:blue;" y1="80.00" x1="300.00" id="32492" y2="100.00" /><line x2="300.00" style="fill:blue;stroke:blue;" y1="180.00" x1="300.00" id="32493" y2="250.00" /><line x2="220.00" style="fill:blue;stroke:blue;" y1="180.00" x1="300.00" id="32494" y2="150.00" /><line x2="250.00" style="fill:blue;stroke:blue;" y1="180.00" x1="300.00" id="32495" y2="100.00" /><line x2="350.00" style="fill:blue;stroke:blue;" y1="180.00" x1="300.00" id="32496" y2="100.00" /><line x2="320.00" style="fill:blue;stroke:blue;" y1="250.00" x1="300.00" id="32497" y2="310.00" /><line x2="300.00" style="fill:blue;stroke:blue;" y1="250.00" x1="300.00" id="32498" y2="180.00" /><line x2="280.00" style="fill:blue;stroke:blue;" y1="520.00" x1="320.00" id="32499" y2="450.00" /><line x2="420.00" style="fill:blue;stroke:blue;" y1="400.00" x1="350.00" id="32500" y2="400.00" /><line x2="280.00" style="fill:blue;stroke:blue;" y1="400.00" x1="350.00" id="32501" y2="380.00" /><line x2="500.00" style="fill:blue;stroke:blue;" y1="310.00" x1="320.00" id="32502" y2="280.00" /><line x2="360.00" style="fill:blue;stroke:blue;" y1="310.00" x1="320.00" id="32503" y2="340.00" /><line x2="300.00" style="fill:blue;stroke:blue;" y1="310.00" x1="320.00" id="32504" y2="250.00" /><line x2="359.99" style="fill:blue;stroke:blue;" y1="310.00" x1="320.00" id="32505" y2="280.05" /><line x2="300.00" style="fill:blue;stroke:blue;" y1="100.00" x1="350.00" id="32506" y2="80.00" /><line x2="300.00" style="fill:blue;stroke:blue;" y1="100.00" x1="350.00" id="32507" y2="180.00" /><line x2="450.00" style="fill:blue;stroke:blue;" y1="100.00" x1="350.00" id="32508" y2="80.00" /><line x2="320.00" style="fill:blue;stroke:blue;" y1="340.00" x1="360.00" id="32509" y2="310.00" /><line x2="420.00" style="fill:blue;stroke:blue;" y1="340.00" x1="360.00" id="32510" y2="400.00" /><line x2="360.00" style="fill:blue;stroke:blue;" y1="400.00" x1="420.00" id="32511" y2="340.00" /><line x2="350.00" style="fill:blue;stroke:blue;" y1="400.00" x1="420.00" id="32512" y2="400.00" /><line x2="478.09" style="fill:blue;stroke:blue;" y1="400.00" x1="420.00" id="32513" y2="576.17" /><line x2="390.97" style="fill:blue;stroke:blue;" y1="250.00" x1="450.00" id="32514" y2="188.07" /><line x2="500.00" style="fill:blue;stroke:blue;" y1="250.00" x1="450.00" id="32515" y2="280.00" /><line x2="550.00" style="fill:blue;stroke:blue;" y1="80.00" x1="450.00" id="32516" y2="100.00" /><line x2="350.00" style="fill:blue;stroke:blue;" y1="80.00" x1="450.00" id="32517" y2="100.00" /><line x2="550.00" style="fill:blue;stroke:blue;" y1="80.00" x1="450.00" id="32518" y2="50.00" /><line x2="180.00" style="fill:blue;stroke:blue;" y1="576.17" x1="478.09" id="32519" y2="580.00" /><line x2="420.00" style="fill:blue;stroke:blue;" y1="576.17" x1="478.09" id="32520" y2="400.00" /><line x2="500.00" style="fill:blue;stroke:blue;" y1="576.17" x1="478.09" id="32521" y2="620.00" /><line x2="750.00" style="fill:blue;stroke:blue;" y1="576.17" x1="478.09" id="32522" y2="480.00" /><line x2="550.00" style="fill:blue;stroke:blue;" y1="280.00" x1="500.00" id="32523" y2="220.00" /><line x2="450.00" style="fill:blue;stroke:blue;" y1="280.00" x1="500.00" id="32524" y2="250.00" /><line x2="320.00" style="fill:blue;stroke:blue;" y1="280.00" x1="500.00" id="32525" y2="310.00" /><line x2="478.09" style="fill:blue;stroke:blue;" y1="620.00" x1="500.00" id="32526" y2="576.17" /><line x2="521.91" style="fill:blue;stroke:blue;" y1="620.00" x1="500.00" id="32527" y2="663.83" /><line x2="500.00" style="fill:blue;stroke:blue;" y1="663.83" x1="521.91" id="32528" y2="620.00" /><line x2="570.00" style="fill:blue;stroke:blue;" y1="663.83" x1="521.91" id="32529" y2="710.00" /><line x2="550.00" style="fill:blue;stroke:blue;" y1="100.00" x1="550.00" id="32530" y2="150.00" /><line x2="450.00" style="fill:blue;stroke:blue;" y1="100.00" x1="550.00" id="32531" y2="80.00" /><line x2="617.68" style="fill:blue;stroke:blue;" y1="220.00" x1="550.00" id="32532" y2="217.68" /><line x2="500.00" style="fill:blue;stroke:blue;" y1="220.00" x1="550.00" id="32533" y2="280.00" /><line x2="550.00" style="fill:blue;stroke:blue;" y1="220.00" x1="550.00" id="32534" y2="150.00" /><line x2="650.00" style="fill:blue;stroke:blue;" y1="50.00" x1="550.00" id="32535" y2="50.00" /><line x2="450.00" style="fill:blue;stroke:blue;" y1="50.00" x1="550.00" id="32536" y2="80.00" /><line x2="521.91" style="fill:blue;stroke:blue;" y1="710.00" x1="570.00" id="32537" y2="663.83" /><line x2="620.00" style="fill:blue;stroke:blue;" y1="710.00" x1="570.00" id="32538" y2="730.00" /><line x2="550.00" style="fill:blue;stroke:blue;" y1="150.00" x1="550.00" id="32539" y2="220.00" /><line x2="550.00" style="fill:blue;stroke:blue;" y1="150.00" x1="550.00" id="32540" y2="100.00" /><line x2="570.00" style="fill:blue;stroke:blue;" y1="730.00" x1="620.00" id="32541" y2="710.00" /><line x2="680.00" style="fill:blue;stroke:blue;" y1="730.00" x1="620.00" id="32542" y2="750.00" /><line x2="720.00" style="fill:blue;stroke:blue;" y1="217.68" x1="617.68" id="32543" y2="220.00" /><line x2="652.32" style="fill:blue;stroke:blue;" y1="217.68" x1="617.68" id="32544" y2="252.32" /><line x2="550.00" style="fill:blue;stroke:blue;" y1="217.68" x1="617.68" id="32545" y2="220.00" /><line x2="700.00" style="fill:blue;stroke:blue;" y1="50.00" x1="650.00" id="32546" y2="20.00" /><line x2="600.00" style="fill:blue;stroke:blue;" y1="50.00" x1="650.00" id="32547" y2="20.00" /><line x2="850.00" style="fill:blue;stroke:blue;" y1="50.00" x1="650.00" id="32548" y2="100.00" /><line x2="550.00" style="fill:blue;stroke:blue;" y1="50.00" x1="650.00" id="32549" y2="50.00" /><line x2="620.00" style="fill:blue;stroke:blue;" y1="750.00" x1="680.00" id="32550" y2="730.00" /><line x2="750.00" style="fill:blue;stroke:blue;" y1="750.00" x1="680.00" id="32551" y2="750.00" /><line x2="478.09" style="fill:blue;stroke:blue;" y1="480.00" x1="750.00" id="32552" y2="576.17" /><line x2="800.00" style="fill:blue;stroke:blue;" y1="480.00" x1="750.00" id="32553" y2="420.00" /><line x2="820.00" style="fill:blue;stroke:blue;" y1="480.00" x1="750.00" id="32554" y2="480.00" /><line x2="820.00" style="fill:blue;stroke:blue;" y1="750.00" x1="750.00" id="32555" y2="750.00" /><line x2="680.00" style="fill:blue;stroke:blue;" y1="750.00" x1="750.00" id="32556" y2="750.00" /><line x2="803.88" style="fill:blue;stroke:blue;" y1="352.52" x1="767.46" id="32557" y2="319.74" /><line x2="850.00" style="fill:blue;stroke:blue;" y1="352.52" x1="767.46" id="32558" y2="380.00" /><line x2="620.00" style="fill:blue;stroke:blue;" y1="420.00" x1="800.00" id="32559" y2="420.00" /><line x2="850.00" style="fill:blue;stroke:blue;" y1="420.00" x1="800.00" id="32560" y2="380.00" /><line x2="750.00" style="fill:blue;stroke:blue;" y1="420.00" x1="800.00" id="32561" y2="480.00" /><line x2="820.00" style="fill:blue;stroke:blue;" y1="420.00" x1="800.00" id="32562" y2="480.00" /><line x2="778.66" style="fill:blue;stroke:blue;" y1="319.74" x1="803.88" id="32563" y2="277.74" /><line x2="850.00" style="fill:blue;stroke:blue;" y1="319.74" x1="803.88" id="32564" y2="380.00" /><line x2="767.46" style="fill:blue;stroke:blue;" y1="319.74" x1="803.88" id="32565" y2="352.52" /><line x2="800.00" style="fill:blue;stroke:blue;" y1="480.00" x1="820.00" id="32566" y2="550.00" /><line x2="920.00" style="fill:blue;stroke:blue;" y1="480.00" x1="820.00" id="32567" y2="500.00" /><line x2="800.00" style="fill:blue;stroke:blue;" y1="480.00" x1="820.00" id="32568" y2="420.00" /><line x2="750.00" style="fill:blue;stroke:blue;" y1="480.00" x1="820.00" id="32569" y2="480.00" /><line x2="900.00" style="fill:blue;stroke:blue;" y1="380.00" x1="850.00" id="32570" y2="280.00" /><line x2="803.88" style="fill:blue;stroke:blue;" y1="380.00" x1="850.00" id="32571" y2="319.74" /><line x2="800.00" style="fill:blue;stroke:blue;" y1="380.00" x1="850.00" id="32572" y2="420.00" /><line x2="767.46" style="fill:blue;stroke:blue;" y1="380.00" x1="850.00" id="32573" y2="352.52" /><line x2="900.00" style="fill:blue;stroke:blue;" y1="280.00" x1="900.00" id="32574" y2="150.00" /><line x2="850.00" style="fill:blue;stroke:blue;" y1="280.00" x1="900.00" id="32575" y2="380.00" /><line x2="79.04" style="fill:blue;stroke:blue;" y1="200.00" x1="20.00" id="32576" y2="221.91" /><line x2="80.00" style="fill:blue;stroke:blue;" y1="350.00" x1="20.00" id="32577" y2="300.00" /><line x2="150.00" style="fill:blue;stroke:blue;" y1="178.09" x1="100.96" id="32578" y2="200.00" /><line x2="79.04" style="fill:blue;stroke:blue;" y1="178.09" x1="100.96" id="32579" y2="221.91" /><line x2="79.04" style="fill:blue;stroke:blue;" y1="250.00" x1="150.00" id="32580" y2="221.91" /><line x2="390.97" style="fill:blue;stroke:blue;" y1="200.00" x1="150.00" id="32581" y2="188.07" /><line x2="79.04" style="fill:blue;stroke:blue;" y1="200.00" x1="150.00" id="32582" y2="221.91" /><line x2="100.96" style="fill:blue;stroke:blue;" y1="200.00" x1="150.00" id="32583" y2="178.09" /><line x2="180.00" style="fill:blue;stroke:blue;" y1="420.00" x1="180.00" id="32584" y2="480.00" /><line x2="280.00" style="fill:blue;stroke:blue;" y1="480.00" x1="380.00" id="32585" y2="450.00" /><line x2="369.04" style="fill:blue;stroke:blue;" y1="188.07" x1="390.97" id="32586" y2="231.89" /><line x2="150.00" style="fill:blue;stroke:blue;" y1="188.07" x1="390.97" id="32587" y2="200.00" /><line x2="450.00" style="fill:blue;stroke:blue;" y1="188.07" x1="390.97" id="32588" y2="250.00" /><line x2="620.00" style="fill:blue;stroke:blue;" y1="420.00" x1="520.00" id="32589" y2="420.00" /><line x2="280.00" style="fill:blue;stroke:blue;" y1="420.00" x1="520.00" id="32590" y2="450.00" /><line x2="650.00" style="fill:blue;stroke:blue;" y1="20.00" x1="600.00" id="32591" y2="50.00" /><line x2="520.00" style="fill:blue;stroke:blue;" y1="420.00" x1="620.00" id="32592" y2="420.00" /><line x2="800.00" style="fill:blue;stroke:blue;" y1="420.00" x1="620.00" id="32593" y2="420.00" /><line x2="617.68" style="fill:blue;stroke:blue;" y1="252.32" x1="652.32" id="32594" y2="217.68" /><line x2="650.00" style="fill:blue;stroke:blue;" y1="20.00" x1="700.00" id="32595" y2="50.00" /><line x2="778.66" style="fill:blue;stroke:blue;" y1="220.00" x1="720.00" id="32596" y2="277.74" /><line x2="617.68" style="fill:blue;stroke:blue;" y1="220.00" x1="720.00" id="32597" y2="217.68" /><line x2="720.00" style="fill:blue;stroke:blue;" y1="277.74" x1="778.66" id="32598" y2="220.00" /><line x2="803.88" style="fill:blue;stroke:blue;" y1="277.74" x1="778.66" id="32599" y2="319.74" /><line x2="820.00" style="fill:blue;stroke:blue;" y1="550.00" x1="800.00" id="32600" y2="480.00" /><line x2="750.00" style="fill:blue;stroke:blue;" y1="750.00" x1="820.00" id="32601" y2="750.00" /><line x2="900.00" style="fill:blue;stroke:blue;" y1="100.00" x1="850.00" id="32602" y2="150.00" /><line x2="650.00" style="fill:blue;stroke:blue;" y1="100.00" x1="850.00" id="32603" y2="50.00" /><line x2="850.00" style="fill:blue;stroke:blue;" y1="150.00" x1="900.00" id="32604" y2="100.00" /><line x2="900.00" style="fill:blue;stroke:blue;" y1="150.00" x1="900.00" id="32605" y2="280.00" /><line x2="820.00" style="fill:blue;stroke:blue;" y1="500.00" x1="920.00" id="32606" y2="480.00" /><line x2="390.97" style="fill:blue;stroke:blue;" y1="231.89" x1="369.04" id="32607" y2="188.07" /><line x2="359.99" style="fill:blue;stroke:blue;" y1="231.89" x1="369.04" id="32608" y2="280.05" /></svg>
