<?xml version="1.0" standalone="yes"?><!DOCTYPE svg PUBLIC "-//W3C//DTD SVG 1.1//EN" "http://www.w3.org/Graphics/SVG/1.1/DTD/svg11.dtd"[]><svg width="1050.00" height="800.00" id="32242" xmlns="http://www.w3.org/2000/svg" xmlns:xlink="http://www.w3.org/1999/xlink"><rect Type="system" x="79.04" id="32243" height="5.00" width="5.00" Name="斯塔克蒙" ID="30003794" Region="宁静之域" y="221.91" /><text y="221.91" x="79.04" id="32244">斯塔克蒙</text><rect Type="system" x="80.00" id="32246" height="5.00" width="5.00" Name="埃达尔特" ID="30005307" Region="维格温铎" y="300.00" /><text y="300.00" x="80.00" id="32247">埃达尔特</text><rect Type="system" x="120.00" id="32249" height="5.00" width="5.00" Name="茨图瓦尔特" ID="30005305" Region="维格温铎" y="420.00" /><text y="420.00" x="120.00" id="32250">茨图瓦尔特</text><rect Type="system" x="120.00" id="32252" height="5.00" width="5.00" Name="安大略尔" ID="30015305" Region="维格温铎" y="600.00" /><text y="600.00" x="120.00" id="32253">安大略尔</text><rect Type="system" x="150.00" id="32255" height="5.00" width="5.00" Name="克拉西勒" ID="30035305" Region="维格温铎" y="120.00" /><text y="120.00" x="150.00" id="32256">克拉西勒</text><rect Type="system" x="180.00" id="32258" height="5.00" width="5.00" Name="阿伦特尼" ID="30005304" Region="维格温铎" y="580.00" /><text y="580.00" x="180.00" id="32259">阿伦特尼</text><rect Type="system" x="180.00" id="32261" height="5.00" width="5.00" Name="梅尔罗勒斯" ID="30005303" Region="维格温铎" y="480.00" /><text y="480.00" x="180.00" id="32262">梅尔罗勒斯</text><rect Type="system" x="200.00" id="32264" height="5.00" width="5.00" Name="克勒里农" ID="30045305" Region="维格温铎" y="80.00" /><text y="80.00" x="200.00" id="32265">克勒里农</text><rect Type="system" x="220.00" id="32267" height="5.00" width="5.00" Name="伊勒达" ID="30005315" Region="维格温铎" y="150.00" /><text y="150.00" x="220.00" id="32268">伊勒达</text><rect Type="system" x="250.00" id="32270" height="5.00" width="5.00" Name="埃列尼亚" ID="30005302" Region="维格温铎" y="500.00" /><text y="500.00" x="250.00" id="32271">埃列尼亚</text><rect Type="system" x="250.00" id="32273" height="5.00" width="5.00" Name="鲁瑟" ID="30005316" Region="维格温铎" y="100.00" /><text y="100.00" x="250.00" id="32274">鲁瑟</text><rect Type="system" x="359.99" id="32276" height="5.00" width="5.00" Name="埃米格农" ID="30005311" Region="维格温铎" y="280.05" /><text y="280.05" x="359.99" id="32277">埃米格农</text><rect Type="system" x="280.00" id="32279" height="5.00" width="5.00" Name="特鲁尔瑟" ID="30005314" Region="维格温铎" y="380.00" /><text y="380.00" x="280.00" id="32280">特鲁尔瑟</text><rect Type="system" x="280.00" id="32282" height="5.00" width="5.00" Name="托瑞尔" ID="30005301" Region="维格温铎" y="450.00" /><text y="450.00" x="280.00" id="32283">托瑞尔</text><rect Type="system" x="280.00" id="32285" height="5.00" width="5.00" Name="瓦伊尔勒" ID="30005306" Region="维格温铎" y="550.00" /><text y="550.00" x="280.00" id="32286">瓦伊尔勒</text><rect Type="system" x="300.00" id="32288" height="5.00" width="5.00" Name="俄库恩比伦" ID="30005317" Region="维格温铎" y="80.00" /><text y="80.00" x="300.00" id="32289">俄库恩比伦</text><rect Type="system" x="300.00" id="32291" height="5.00" width="5.00" Name="维" ID="30005318" Region="维格温铎" y="180.00" /><text y="180.00" x="300.00" id="32292">维</text><rect Type="system" x="300.00" id="32294" height="5.00" width="5.00" Name="舍尔宁斯" ID="30005310" Region="维格温铎" y="250.00" /><text y="250.00" x="300.00" id="32295">舍尔宁斯</text><rect Type="system" x="320.00" id="32297" height="5.00" width="5.00" Name="加纳森" ID="30025305" Region="维格温铎" y="520.00" /><text y="520.00" x="320.00" id="32298">加纳森</text><rect Type="system" x="350.00" id="32300" height="5.00" width="5.00" Name="厄尔迈" ID="30005313" Region="维格温铎" y="400.00" /><text y="400.00" x="350.00" id="32301">厄尔迈</text><rect Type="system" x="320.00" id="32303" height="5.00" width="5.00" Name="吉夫维特" ID="30005308" Region="维格温铎" y="310.00" /><text y="310.00" x="320.00" id="32304">吉夫维特</text><rect Type="system" x="350.00" id="32306" height="5.00" width="5.00" Name="拉涅列斯" ID="30005319" Region="维格温铎" y="100.00" /><text y="100.00" x="350.00" id="32307">拉涅列斯</text><rect Type="system" x="360.00" id="32309" height="5.00" width="5.00" Name="安萨列" ID="30005309" Region="维格温铎" y="340.00" /><text y="340.00" x="360.00" id="32310">安萨列</text><rect Type="system" x="420.00" id="32312" height="5.00" width="5.00" Name="基斯尔勒斯" ID="30005312" Region="维格温铎" y="400.00" /><text y="400.00" x="420.00" id="32313">基斯尔勒斯</text><rect Type="system" x="450.00" id="32315" height="5.00" width="5.00" Name="罗耶斯" ID="30005300" Region="维格温铎" y="250.00" /><text y="250.00" x="450.00" id="32316">罗耶斯</text><rect Type="system" x="450.00" id="32318" height="5.00" width="5.00" Name="西维斯" ID="30005320" Region="维格温铎" y="80.00" /><text y="80.00" x="450.00" id="32319">西维斯</text><rect Type="system" x="478.09" id="32321" height="5.00" width="5.00" Name="舒鲁茨尔" ID="30005322" Region="维格温铎" y="576.17" /><text y="576.17" x="478.09" id="32322">舒鲁茨尔</text><rect Type="system" x="500.00" id="32324" height="5.00" width="5.00" Name="欧乐达" ID="30005297" Region="维格温铎" y="280.00" /><text y="280.00" x="500.00" id="32325">欧乐达</text><rect Type="system" x="500.00" id="32327" height="5.00" width="5.00" Name="索尔提特" ID="30005323" Region="维格温铎" y="620.00" /><text y="620.00" x="500.00" id="32328">索尔提特</text><rect Type="system" x="521.91" id="32330" height="5.00" width="5.00" Name="克劳勒尼" ID="30005324" Region="维格温铎" y="663.83" /><text y="663.83" x="521.91" id="32331">克劳勒尼</text><rect Type="system" x="550.00" id="32333" height="5.00" width="5.00" Name="缪塔勒尔" ID="30005299" Region="维格温铎" y="100.00" /><text y="100.00" x="550.00" id="32334">缪塔勒尔</text><rect Type="system" x="550.00" id="32336" height="5.00" width="5.00" Name="梅马尼尔" ID="30005296" Region="维格温铎" y="220.00" /><text y="220.00" x="550.00" id="32337">梅马尼尔</text><rect Type="system" x="550.00" id="32339" height="5.00" width="5.00" Name="乔万农" ID="30005321" Region="维格温铎" y="50.00" /><text y="50.00" x="550.00" id="32340">乔万农</text><rect Type="system" x="570.00" id="32342" height="5.00" width="5.00" Name="马萨勒" ID="30005325" Region="维格温铎" y="710.00" /><text y="710.00" x="570.00" id="32343">马萨勒</text><rect Type="system" x="550.00" id="32345" height="5.00" width="5.00" Name="靠斯托勒" ID="30005298" Region="维格温铎" y="150.00" /><text y="150.00" x="550.00" id="32346">靠斯托勒</text><rect Type="system" x="620.00" id="32348" height="5.00" width="5.00" Name="安尼列" ID="30005326" Region="维格温铎" y="730.00" /><text y="730.00" x="620.00" id="32349">安尼列</text><rect Type="system" x="617.68" id="32351" height="5.00" width="5.00" Name="缪勒坦" ID="30005295" Region="维格温铎" y="217.68" /><text y="217.68" x="617.68" id="32352">缪勒坦</text><rect Type="system" x="650.00" id="32354" height="5.00" width="5.00" Name="耶舒尔" ID="30005008" Region="精华之域" y="50.00" /><text y="50.00" x="650.00" id="32355">耶舒尔</text><rect Type="system" x="680.00" id="32357" height="5.00" width="5.00" Name="彻谢特" ID="30005327" Region="维格温铎" y="750.00" /><text y="750.00" x="680.00" id="32358">彻谢特</text><rect Type="system" x="750.00" id="32360" height="5.00" width="5.00" Name="奥斯蒙莫尼" ID="30005332" Region="维格温铎" y="480.00" /><text y="480.00" x="750.00" id="32361">奥斯蒙莫尼</text><rect Type="system" x="750.00" id="32363" height="5.00" width="5.00" Name="瑞比里尔" ID="30005328" Region="维格温铎" y="750.00" /><text y="750.00" x="750.00" id="32364">瑞比里尔</text><rect Type="system" x="767.46" id="32366" height="5.00" width="5.00" Name="斯托欧" ID="30005333" Region="维格温铎" y="352.52" /><text y="352.52" x="767.46" id="32367">斯托欧</text><rect Type="system" x="800.00" id="32369" height="5.00" width="5.00" Name="查卓斯" ID="30005331" Region="维格温铎" y="420.00" /><text y="420.00" x="800.00" id="32370">查卓斯</text><rect Type="system" x="803.88" id="32372" height="5.00" width="5.00" Name="安德瑞亚" ID="30005329" Region="维格温铎" y="319.74" /><text y="319.74" x="803.88" id="32373">安德瑞亚</text><rect Type="system" x="820.00" id="32375" height="5.00" width="5.00" Name="铁里耶维" ID="30005334" Region="维格温铎" y="480.00" /><text y="480.00" x="820.00" id="32376">铁里耶维</text><rect Type="system" x="850.00" id="32378" height="5.00" width="5.00" Name="埃拉隆" ID="30005330" Region="维格温铎" y="380.00" /><text y="380.00" x="850.00" id="32379">埃拉隆</text><rect Type="system" x="900.00" id="32381" height="5.00" width="5.00" Name="阿泰恩" ID="30005004" Region="精华之域" y="280.00" /><text y="280.00" x="900.00" id="32382">阿泰恩</text><rect Type="system" x="20.00" id="32384" height="5.00" width="5.00" Name="卡维因" ID="30003795" Region="宁静之域" y="200.00" /><text y="200.00" x="20.00" id="32385">卡维因</text><rect Type="system" x="20.00" id="32387" height="5.00" width="5.00" Name="埃瓦奥克" ID="30003843" Region="宁静之域" y="350.00" /><text y="350.00" x="20.00" id="32388">埃瓦奥克</text><rect Type="system" x="100.96" id="32390" height="5.00" width="5.00" Name="达斯顿斯" ID="30003797" Region="宁静之域" y="178.09" /><text y="178.09" x="100.96" id="32391">达斯顿斯</text><rect Type="system" x="150.00" id="32393" height="5.00" width="5.00" Name="斯雷斯" ID="30003798" Region="宁静之域" y="250.00" /><text y="250.00" x="150.00" id="32394">斯雷斯</text><rect Type="system" x="150.00" id="32396" height="5.00" width="5.00" Name="奥斯汀格勒" ID="30003792" Region="宁静之域" y="200.00" /><text y="200.00" x="150.00" id="32397">奥斯汀格勒</text><rect Type="system" x="180.00" id="32399" height="5.00" width="5.00" Name="塔尔" ID="30005199" Region="吉勒西斯" y="420.00" /><text y="420.00" x="180.00" id="32400">塔尔</text><rect Type="system" x="380.00" id="32402" height="5.00" width="5.00" Name="迪亚德里" ID="30005229" Region="吉勒西斯" y="480.00" /><text y="480.00" x="380.00" id="32403">迪亚德里</text><rect Type="system" x="390.97" id="32405" height="5.00" width="5.00" Name="埃格则" ID="30003787" Region="宁静之域" y="188.07" /><text y="188.07" x="390.97" id="32406">埃格则</text><rect Type="system" x="520.00" id="32408" height="5.00" width="5.00" Name="尤拉" ID="30005204" Region="吉勒西斯" y="420.00" /><text y="420.00" x="520.00" id="32409">尤拉</text><rect Type="system" x="600.00" id="32411" height="5.00" width="5.00" Name="拉底赛迪尔" ID="30004999" Region="精华之域" y="20.00" /><text y="20.00" x="600.00" id="32412">拉底赛迪尔</text><rect Type="system" x="620.00" id="32414" height="5.00" width="5.00" Name="奥拉菲特" ID="30005203" Region="吉勒西斯" y="420.00" /><text y="420.00" x="620.00" id="32415">奥拉菲特</text><rect Type="system" x="652.32" id="32417" height="5.00" width="5.00" Name="印卓古勒" ID="30004982" Region="精华之域" y="252.32" /><text y="252.32" x="652.32" id="32418">印卓古勒</text><rect Type="system" x="700.00" id="32420" height="5.00" width="5.00" Name="欧尼" ID="30004990" Region="精华之域" y="20.00" /><text y="20.00" x="700.00" id="32421">欧尼</text><rect Type="system" x="720.00" id="32423" height="5.00" width="5.00" Name="美希比尔" ID="30004975" Region="精华之域" y="220.00" /><text y="220.00" x="720.00" id="32424">美希比尔</text><rect Type="system" x="778.66" id="32426" height="5.00" width="5.00" Name="佩门勒" ID="30004978" Region="精华之域" y="277.74" /><text y="277.74" x="778.66" id="32427">佩门勒</text><rect Type="system" x="800.00" id="32429" height="5.00" width="5.00" Name="塔诺冷" ID="30002812" Region="赛塔德洱" y="550.00" /><text y="550.00" x="800.00" id="32430">塔诺冷</text><rect Type="system" x="820.00" id="32432" height="5.00" width="5.00" Name="6-CZ49" ID="30003280" Region="辛迪加" y="750.00" /><text y="750.00" x="820.00" id="32433">6-CZ49</text><rect Type="system" x="850.00" id="32435" height="5.00" width="5.00" Name="埃迪瑞恩" ID="30005003" Region="精华之域" y="100.00" /><text y="100.00" x="850.00" id="32436">埃迪瑞恩</text><rect Type="system" x="900.00" id="32438" height="5.00" width="5.00" Name="劳韦尔" ID="30005002" Region="精华之域" y="150.00" /><text y="150.00" x="900.00" id="32439">劳韦尔</text><rect Type="system" x="920.00" id="32441" height="5.00" width="5.00" Name="德瑞林特" ID="30005025" Region="精华之域" y="500.00" /><text y="500.00" x="920.00" id="32442">德瑞林特</text><rect Type="system" x="369.04" id="32444" height="5.00" width="5.00" Name="印塔基" ID="30003788" Region="宁静之域" y="231.89" /><text y="231.89" x="369.04" id="32445">印塔基</text><line style="stroke:blue;fill:blue;" id="32447" x2="150.00" x1="79.04" y1="221.91" y2="200.00" /><line style="stroke:blue;fill:blue;" id="32448" x2="20.00" x1="79.04" y1="221.91" y2="200.00" /><line style="stroke:blue;fill:blue;" id="32449" x2="100.96" x1="79.04" y1="221.91" y2="178.09" /><line style="stroke:blue;fill:blue;" id="32450" x2="150.00" x1="79.04" y1="221.91" y2="250.00" /><line style="stroke:blue;fill:blue;" id="32451" x2="80.00" x1="79.04" y1="221.91" y2="300.00" /><line style="stroke:blue;fill:blue;" id="32452" x2="79.04" x1="80.00" y1="300.00" y2="221.91" /><line style="stroke:blue;fill:blue;" id="32453" x2="20.00" x1="80.00" y1="300.00" y2="350.00" /><line style="stroke:blue;fill:blue;" id="32454" x2="120.00" x1="80.00" y1="300.00" y2="420.00" /><line style="stroke:blue;fill:blue;" id="32455" x2="180.00" x1="120.00" y1="420.00" y2="580.00" /><line style="stroke:blue;fill:blue;" id="32456" x2="80.00" x1="120.00" y1="420.00" y2="300.00" /><line style="stroke:blue;fill:blue;" id="32457" x2="220.00" x1="120.00" y1="420.00" y2="150.00" /><line style="stroke:blue;fill:blue;" id="32458" x2="180.00" x1="120.00" y1="600.00" y2="580.00" /><line style="stroke:blue;fill:blue;" id="32459" x2="220.00" x1="150.00" y1="120.00" y2="150.00" /><line style="stroke:blue;fill:blue;" id="32460" x2="250.00" x1="180.00" y1="580.00" y2="500.00" /><line style="stroke:blue;fill:blue;" id="32461" x2="180.00" x1="180.00" y1="580.00" y2="480.00" /><line style="stroke:blue;fill:blue;" id="32462" x2="120.00" x1="180.00" y1="580.00" y2="420.00" /><line style="stroke:blue;fill:blue;" id="32463" x2="280.00" x1="180.00" y1="580.00" y2="550.00" /><line style="stroke:blue;fill:blue;" id="32464" x2="478.09" x1="180.00" y1="580.00" y2="576.17" /><line style="stroke:blue;fill:blue;" id="32465" x2="120.00" x1="180.00" y1="580.00" y2="600.00" /><line style="stroke:blue;fill:blue;" id="32466" x2="180.00" x1="180.00" y1="480.00" y2="420.00" /><line style="stroke:blue;fill:blue;" id="32467" x2="280.00" x1="180.00" y1="480.00" y2="450.00" /><line style="stroke:blue;fill:blue;" id="32468" x2="180.00" x1="180.00" y1="480.00" y2="580.00" /><line style="stroke:blue;fill:blue;" id="32469" x2="250.00" x1="200.00" y1="80.00" y2="100.00" /><line style="stroke:blue;fill:blue;" id="32470" x2="120.00" x1="220.00" y1="150.00" y2="420.00" /><line style="stroke:blue;fill:blue;" id="32471" x2="250.00" x1="220.00" y1="150.00" y2="100.00" /><line style="stroke:blue;fill:blue;" id="32472" x2="300.00" x1="220.00" y1="150.00" y2="180.00" /><line style="stroke:blue;fill:blue;" id="32473" x2="150.00" x1="220.00" y1="150.00" y2="120.00" /><line style="stroke:blue;fill:blue;" id="32474" x2="280.00" x1="250.00" y1="500.00" y2="450.00" /><line style="stroke:blue;fill:blue;" id="32475" x2="180.00" x1="250.00" y1="500.00" y2="580.00" /><line style="stroke:blue;fill:blue;" id="32476" x2="280.00" x1="250.00" y1="500.00" y2="550.00" /><line style="stroke:blue;fill:blue;" id="32477" x2="220.00" x1="250.00" y1="100.00" y2="150.00" /><line style="stroke:blue;fill:blue;" id="32478" x2="300.00" x1="250.00" y1="100.00" y2="80.00" /><line style="stroke:blue;fill:blue;" id="32479" x2="300.00" x1="250.00" y1="100.00" y2="180.00" /><line style="stroke:blue;fill:blue;" id="32480" x2="200.00" x1="250.00" y1="100.00" y2="80.00" /><line style="stroke:blue;fill:blue;" id="32481" x2="320.00" x1="359.99" y1="280.05" y2="310.00" /><line style="stroke:blue;fill:blue;" id="32482" x2="369.04" x1="359.99" y1="280.05" y2="231.89" /><line style="stroke:blue;fill:blue;" id="32483" x2="350.00" x1="280.00" y1="380.00" y2="400.00" /><line style="stroke:blue;fill:blue;" id="32484" x2="520.00" x1="280.00" y1="450.00" y2="420.00" /><line style="stroke:blue;fill:blue;" id="32485" x2="380.00" x1="280.00" y1="450.00" y2="480.00" /><line style="stroke:blue;fill:blue;" id="32486" x2="250.00" x1="280.00" y1="450.00" y2="500.00" /><line style="stroke:blue;fill:blue;" id="32487" x2="180.00" x1="280.00" y1="450.00" y2="480.00" /><line style="stroke:blue;fill:blue;" id="32488" x2="320.00" x1="280.00" y1="450.00" y2="520.00" /><line style="stroke:blue;fill:blue;" id="32489" x2="250.00" x1="280.00" y1="550.00" y2="500.00" /><line style="stroke:blue;fill:blue;" id="32490" x2="180.00" x1="280.00" y1="550.00" y2="580.00" /><line style="stroke:blue;fill:blue;" id="32491" x2="250.00" x1="300.00" y1="80.00" y2="100.00" /><line style="stroke:blue;fill:blue;" id="32492" x2="350.00" x1="300.00" y1="80.00" y2="100.00" /><line style="stroke:blue;fill:blue;" id="32493" x2="300.00" x1="300.00" y1="180.00" y2="250.00" /><line style="stroke:blue;fill:blue;" id="32494" x2="220.00" x1="300.00" y1="180.00" y2="150.00" /><line style="stroke:blue;fill:blue;" id="32495" x2="250.00" x1="300.00" y1="180.00" y2="100.00" /><line style="stroke:blue;fill:blue;" id="32496" x2="350.00" x1="300.00" y1="180.00" y2="100.00" /><line style="stroke:blue;fill:blue;" id="32497" x2="320.00" x1="300.00" y1="250.00" y2="310.00" /><line style="stroke:blue;fill:blue;" id="32498" x2="300.00" x1="300.00" y1="250.00" y2="180.00" /><line style="stroke:blue;fill:blue;" id="32499" x2="280.00" x1="320.00" y1="520.00" y2="450.00" /><line style="stroke:blue;fill:blue;" id="32500" x2="420.00" x1="350.00" y1="400.00" y2="400.00" /><line style="stroke:blue;fill:blue;" id="32501" x2="280.00" x1="350.00" y1="400.00" y2="380.00" /><line style="stroke:blue;fill:blue;" id="32502" x2="500.00" x1="320.00" y1="310.00" y2="280.00" /><line style="stroke:blue;fill:blue;" id="32503" x2="360.00" x1="320.00" y1="310.00" y2="340.00" /><line style="stroke:blue;fill:blue;" id="32504" x2="300.00" x1="320.00" y1="310.00" y2="250.00" /><line style="stroke:blue;fill:blue;" id="32505" x2="359.99" x1="320.00" y1="310.00" y2="280.05" /><line style="stroke:blue;fill:blue;" id="32506" x2="300.00" x1="350.00" y1="100.00" y2="80.00" /><line style="stroke:blue;fill:blue;" id="32507" x2="300.00" x1="350.00" y1="100.00" y2="180.00" /><line style="stroke:blue;fill:blue;" id="32508" x2="450.00" x1="350.00" y1="100.00" y2="80.00" /><line style="stroke:blue;fill:blue;" id="32509" x2="320.00" x1="360.00" y1="340.00" y2="310.00" /><line style="stroke:blue;fill:blue;" id="32510" x2="420.00" x1="360.00" y1="340.00" y2="400.00" /><line style="stroke:blue;fill:blue;" id="32511" x2="360.00" x1="420.00" y1="400.00" y2="340.00" /><line style="stroke:blue;fill:blue;" id="32512" x2="350.00" x1="420.00" y1="400.00" y2="400.00" /><line style="stroke:blue;fill:blue;" id="32513" x2="478.09" x1="420.00" y1="400.00" y2="576.17" /><line style="stroke:blue;fill:blue;" id="32514" x2="390.97" x1="450.00" y1="250.00" y2="188.07" /><line style="stroke:blue;fill:blue;" id="32515" x2="500.00" x1="450.00" y1="250.00" y2="280.00" /><line style="stroke:blue;fill:blue;" id="32516" x2="550.00" x1="450.00" y1="80.00" y2="100.00" /><line style="stroke:blue;fill:blue;" id="32517" x2="350.00" x1="450.00" y1="80.00" y2="100.00" /><line style="stroke:blue;fill:blue;" id="32518" x2="550.00" x1="450.00" y1="80.00" y2="50.00" /><line style="stroke:blue;fill:blue;" id="32519" x2="180.00" x1="478.09" y1="576.17" y2="580.00" /><line style="stroke:blue;fill:blue;" id="32520" x2="420.00" x1="478.09" y1="576.17" y2="400.00" /><line style="stroke:blue;fill:blue;" id="32521" x2="500.00" x1="478.09" y1="576.17" y2="620.00" /><line style="stroke:blue;fill:blue;" id="32522" x2="750.00" x1="478.09" y1="576.17" y2="480.00" /><line style="stroke:blue;fill:blue;" id="32523" x2="550.00" x1="500.00" y1="280.00" y2="220.00" /><line style="stroke:blue;fill:blue;" id="32524" x2="450.00" x1="500.00" y1="280.00" y2="250.00" /><line style="stroke:blue;fill:blue;" id="32525" x2="320.00" x1="500.00" y1="280.00" y2="310.00" /><line style="stroke:blue;fill:blue;" id="32526" x2="478.09" x1="500.00" y1="620.00" y2="576.17" /><line style="stroke:blue;fill:blue;" id="32527" x2="521.91" x1="500.00" y1="620.00" y2="663.83" /><line style="stroke:blue;fill:blue;" id="32528" x2="500.00" x1="521.91" y1="663.83" y2="620.00" /><line style="stroke:blue;fill:blue;" id="32529" x2="570.00" x1="521.91" y1="663.83" y2="710.00" /><line style="stroke:blue;fill:blue;" id="32530" x2="550.00" x1="550.00" y1="100.00" y2="150.00" /><line style="stroke:blue;fill:blue;" id="32531" x2="450.00" x1="550.00" y1="100.00" y2="80.00" /><line style="stroke:blue;fill:blue;" id="32532" x2="617.68" x1="550.00" y1="220.00" y2="217.68" /><line style="stroke:blue;fill:blue;" id="32533" x2="500.00" x1="550.00" y1="220.00" y2="280.00" /><line style="stroke:blue;fill:blue;" id="32534" x2="550.00" x1="550.00" y1="220.00" y2="150.00" /><line style="stroke:blue;fill:blue;" id="32535" x2="650.00" x1="550.00" y1="50.00" y2="50.00" /><line style="stroke:blue;fill:blue;" id="32536" x2="450.00" x1="550.00" y1="50.00" y2="80.00" /><line style="stroke:blue;fill:blue;" id="32537" x2="521.91" x1="570.00" y1="710.00" y2="663.83" /><line style="stroke:blue;fill:blue;" id="32538" x2="620.00" x1="570.00" y1="710.00" y2="730.00" /><line style="stroke:blue;fill:blue;" id="32539" x2="550.00" x1="550.00" y1="150.00" y2="220.00" /><line style="stroke:blue;fill:blue;" id="32540" x2="550.00" x1="550.00" y1="150.00" y2="100.00" /><line style="stroke:blue;fill:blue;" id="32541" x2="570.00" x1="620.00" y1="730.00" y2="710.00" /><line style="stroke:blue;fill:blue;" id="32542" x2="680.00" x1="620.00" y1="730.00" y2="750.00" /><line style="stroke:blue;fill:blue;" id="32543" x2="720.00" x1="617.68" y1="217.68" y2="220.00" /><line style="stroke:blue;fill:blue;" id="32544" x2="652.32" x1="617.68" y1="217.68" y2="252.32" /><line style="stroke:blue;fill:blue;" id="32545" x2="550.00" x1="617.68" y1="217.68" y2="220.00" /><line style="stroke:blue;fill:blue;" id="32546" x2="700.00" x1="650.00" y1="50.00" y2="20.00" /><line style="stroke:blue;fill:blue;" id="32547" x2="600.00" x1="650.00" y1="50.00" y2="20.00" /><line style="stroke:blue;fill:blue;" id="32548" x2="850.00" x1="650.00" y1="50.00" y2="100.00" /><line style="stroke:blue;fill:blue;" id="32549" x2="550.00" x1="650.00" y1="50.00" y2="50.00" /><line style="stroke:blue;fill:blue;" id="32550" x2="620.00" x1="680.00" y1="750.00" y2="730.00" /><line style="stroke:blue;fill:blue;" id="32551" x2="750.00" x1="680.00" y1="750.00" y2="750.00" /><line style="stroke:blue;fill:blue;" id="32552" x2="478.09" x1="750.00" y1="480.00" y2="576.17" /><line style="stroke:blue;fill:blue;" id="32553" x2="800.00" x1="750.00" y1="480.00" y2="420.00" /><line style="stroke:blue;fill:blue;" id="32554" x2="820.00" x1="750.00" y1="480.00" y2="480.00" /><line style="stroke:blue;fill:blue;" id="32555" x2="820.00" x1="750.00" y1="750.00" y2="750.00" /><line style="stroke:blue;fill:blue;" id="32556" x2="680.00" x1="750.00" y1="750.00" y2="750.00" /><line style="stroke:blue;fill:blue;" id="32557" x2="803.88" x1="767.46" y1="352.52" y2="319.74" /><line style="stroke:blue;fill:blue;" id="32558" x2="850.00" x1="767.46" y1="352.52" y2="380.00" /><line style="stroke:blue;fill:blue;" id="32559" x2="620.00" x1="800.00" y1="420.00" y2="420.00" /><line style="stroke:blue;fill:blue;" id="32560" x2="850.00" x1="800.00" y1="420.00" y2="380.00" /><line style="stroke:blue;fill:blue;" id="32561" x2="750.00" x1="800.00" y1="420.00" y2="480.00" /><line style="stroke:blue;fill:blue;" id="32562" x2="820.00" x1="800.00" y1="420.00" y2="480.00" /><line style="stroke:blue;fill:blue;" id="32563" x2="778.66" x1="803.88" y1="319.74" y2="277.74" /><line style="stroke:blue;fill:blue;" id="32564" x2="850.00" x1="803.88" y1="319.74" y2="380.00" /><line style="stroke:blue;fill:blue;" id="32565" x2="767.46" x1="803.88" y1="319.74" y2="352.52" /><line style="stroke:blue;fill:blue;" id="32566" x2="800.00" x1="820.00" y1="480.00" y2="550.00" /><line style="stroke:blue;fill:blue;" id="32567" x2="920.00" x1="820.00" y1="480.00" y2="500.00" /><line style="stroke:blue;fill:blue;" id="32568" x2="800.00" x1="820.00" y1="480.00" y2="420.00" /><line style="stroke:blue;fill:blue;" id="32569" x2="750.00" x1="820.00" y1="480.00" y2="480.00" /><line style="stroke:blue;fill:blue;" id="32570" x2="900.00" x1="850.00" y1="380.00" y2="280.00" /><line style="stroke:blue;fill:blue;" id="32571" x2="803.88" x1="850.00" y1="380.00" y2="319.74" /><line style="stroke:blue;fill:blue;" id="32572" x2="800.00" x1="850.00" y1="380.00" y2="420.00" /><line style="stroke:blue;fill:blue;" id="32573" x2="767.46" x1="850.00" y1="380.00" y2="352.52" /><line style="stroke:blue;fill:blue;" id="32574" x2="900.00" x1="900.00" y1="280.00" y2="150.00" /><line style="stroke:blue;fill:blue;" id="32575" x2="850.00" x1="900.00" y1="280.00" y2="380.00" /><line style="stroke:blue;fill:blue;" id="32576" x2="79.04" x1="20.00" y1="200.00" y2="221.91" /><line style="stroke:blue;fill:blue;" id="32577" x2="80.00" x1="20.00" y1="350.00" y2="300.00" /><line style="stroke:blue;fill:blue;" id="32578" x2="150.00" x1="100.96" y1="178.09" y2="200.00" /><line style="stroke:blue;fill:blue;" id="32579" x2="79.04" x1="100.96" y1="178.09" y2="221.91" /><line style="stroke:blue;fill:blue;" id="32580" x2="79.04" x1="150.00" y1="250.00" y2="221.91" /><line style="stroke:blue;fill:blue;" id="32581" x2="390.97" x1="150.00" y1="200.00" y2="188.07" /><line style="stroke:blue;fill:blue;" id="32582" x2="79.04" x1="150.00" y1="200.00" y2="221.91" /><line style="stroke:blue;fill:blue;" id="32583" x2="100.96" x1="150.00" y1="200.00" y2="178.09" /><line style="stroke:blue;fill:blue;" id="32584" x2="180.00" x1="180.00" y1="420.00" y2="480.00" /><line style="stroke:blue;fill:blue;" id="32585" x2="280.00" x1="380.00" y1="480.00" y2="450.00" /><line style="stroke:blue;fill:blue;" id="32586" x2="369.04" x1="390.97" y1="188.07" y2="231.89" /><line style="stroke:blue;fill:blue;" id="32587" x2="150.00" x1="390.97" y1="188.07" y2="200.00" /><line style="stroke:blue;fill:blue;" id="32588" x2="450.00" x1="390.97" y1="188.07" y2="250.00" /><line style="stroke:blue;fill:blue;" id="32589" x2="620.00" x1="520.00" y1="420.00" y2="420.00" /><line style="stroke:blue;fill:blue;" id="32590" x2="280.00" x1="520.00" y1="420.00" y2="450.00" /><line style="stroke:blue;fill:blue;" id="32591" x2="650.00" x1="600.00" y1="20.00" y2="50.00" /><line style="stroke:blue;fill:blue;" id="32592" x2="520.00" x1="620.00" y1="420.00" y2="420.00" /><line style="stroke:blue;fill:blue;" id="32593" x2="800.00" x1="620.00" y1="420.00" y2="420.00" /><line style="stroke:blue;fill:blue;" id="32594" x2="617.68" x1="652.32" y1="252.32" y2="217.68" /><line style="stroke:blue;fill:blue;" id="32595" x2="650.00" x1="700.00" y1="20.00" y2="50.00" /><line style="stroke:blue;fill:blue;" id="32596" x2="778.66" x1="720.00" y1="220.00" y2="277.74" /><line style="stroke:blue;fill:blue;" id="32597" x2="617.68" x1="720.00" y1="220.00" y2="217.68" /><line style="stroke:blue;fill:blue;" id="32598" x2="720.00" x1="778.66" y1="277.74" y2="220.00" /><line style="stroke:blue;fill:blue;" id="32599" x2="803.88" x1="778.66" y1="277.74" y2="319.74" /><line style="stroke:blue;fill:blue;" id="32600" x2="820.00" x1="800.00" y1="550.00" y2="480.00" /><line style="stroke:blue;fill:blue;" id="32601" x2="750.00" x1="820.00" y1="750.00" y2="750.00" /><line style="stroke:blue;fill:blue;" id="32602" x2="900.00" x1="850.00" y1="100.00" y2="150.00" /><line style="stroke:blue;fill:blue;" id="32603" x2="650.00" x1="850.00" y1="100.00" y2="50.00" /><line style="stroke:blue;fill:blue;" id="32604" x2="850.00" x1="900.00" y1="150.00" y2="100.00" /><line style="stroke:blue;fill:blue;" id="32605" x2="900.00" x1="900.00" y1="150.00" y2="280.00" /><line style="stroke:blue;fill:blue;" id="32606" x2="820.00" x1="920.00" y1="500.00" y2="480.00" /><line style="stroke:blue;fill:blue;" id="32607" x2="390.97" x1="369.04" y1="231.89" y2="188.07" /><line style="stroke:blue;fill:blue;" id="32608" x2="359.99" x1="369.04" y1="231.89" y2="280.05" /></svg>
