<?xml version="1.0" standalone="yes"?><!DOCTYPE svg PUBLIC "-//W3C//DTD SVG 1.1//EN" "http://www.w3.org/Graphics/SVG/1.1/DTD/svg11.dtd"[]><svg height="800.00" id="31669" width="1050.00" xmlns="http://www.w3.org/2000/svg" xmlns:xlink="http://www.w3.org/1999/xlink"><rect Type="system" Region="维纳尔" height="5.00" y="350.00" Name="8CIX-S" width="5.00" x="20.00" id="31670" ID="30001298" /><text x="20.00" y="350.00" id="31671">8CIX-S</text><rect Type="system" Region="维纳尔" height="5.00" y="400.00" Name="O-TVTD" width="5.00" x="30.00" id="31673" ID="30001297" /><text x="30.00" y="400.00" id="31674">O-TVTD</text><rect Type="system" Region="维纳尔" height="5.00" y="640.00" Name="R-KZK7" width="5.00" x="20.00" id="31676" ID="30001265" /><text x="20.00" y="640.00" id="31677">R-KZK7</text><rect Type="system" Region="维纳尔" height="5.00" y="710.00" Name="9-R6GU" width="5.00" x="20.00" id="31679" ID="30001266" /><text x="20.00" y="710.00" id="31680">9-R6GU</text><rect Type="system" Region="维纳尔" height="5.00" y="450.00" Name="0-XIDJ" width="5.00" x="50.00" id="31682" ID="30001295" /><text x="50.00" y="450.00" id="31683">0-XIDJ</text><rect Type="system" Region="维纳尔" height="5.00" y="220.96" Name="2TH-3F" width="5.00" x="48.09" id="31685" ID="30001333" /><text x="48.09" y="220.96" id="31686">2TH-3F</text><rect Type="system" Region="维纳尔" height="5.00" y="270.00" Name="WLF-D3" width="5.00" x="50.00" id="31688" ID="30001336" /><text x="50.00" y="270.00" id="31689">WLF-D3</text><rect Type="system" Region="维纳尔" height="5.00" y="500.00" Name="SBL5-R" width="5.00" x="80.00" id="31691" ID="30001296" /><text x="80.00" y="500.00" id="31692">SBL5-R</text><rect Type="system" Region="维纳尔" height="5.00" y="600.00" Name="Z-GY5S" width="5.00" x="50.00" id="31694" ID="30001263" /><text x="50.00" y="600.00" id="31695">Z-GY5S</text><rect Type="system" Region="维纳尔" height="5.00" y="82.32" Name="92D-OI" width="5.00" x="67.68" id="31697" ID="30001312" /><text x="67.68" y="82.32" id="31698">92D-OI</text><rect Type="system" Region="维纳尔" height="5.00" y="199.04" Name="H-AJ27" width="5.00" x="91.91" id="31700" ID="30001331" /><text x="91.91" y="199.04" id="31701">H-AJ27</text><rect Type="system" Region="维纳尔" height="5.00" y="660.00" Name="Y6-HPG" width="5.00" x="100.00" id="31703" ID="30001262" /><text x="100.00" y="660.00" id="31704">Y6-HPG</text><rect Type="system" Region="维纳尔" height="5.00" y="710.00" Name="Y-W1Q3" width="5.00" x="100.00" id="31706" ID="30001261" /><text x="100.00" y="710.00" id="31707">Y-W1Q3</text><rect Type="system" Region="维纳尔" height="5.00" y="47.68" Name="W3KK-R" width="5.00" x="102.32" id="31709" ID="30001311" /><text x="102.32" y="47.68" id="31710">W3KK-R</text><rect Type="system" Region="维纳尔" height="5.00" y="150.00" Name="SE-SHZ" width="5.00" x="100.00" id="31712" ID="30001314" /><text x="100.00" y="150.00" id="31713">SE-SHZ</text><rect Type="system" Region="维纳尔" height="5.00" y="450.00" Name="P-GKF5" width="5.00" x="100.00" id="31715" ID="30001293" /><text x="100.00" y="450.00" id="31716">P-GKF5</text><rect Type="system" Region="维纳尔" height="5.00" y="552.84" Name="D-SKWC" width="5.00" x="117.15" id="31718" ID="30001299" /><text x="117.15" y="552.84" id="31719">D-SKWC</text><rect Type="system" Region="维纳尔" height="5.00" y="230.00" Name="M2-2V1" width="5.00" x="130.00" id="31721" ID="30001332" /><text x="130.00" y="230.00" id="31722">M2-2V1</text><rect Type="system" Region="维纳尔" height="5.00" y="280.00" Name="E1F-E5" width="5.00" x="120.00" id="31724" ID="30001334" /><text x="120.00" y="280.00" id="31725">E1F-E5</text><rect Type="system" Region="维纳尔" height="5.00" y="330.00" Name="4S-PVC" width="5.00" x="120.00" id="31727" ID="30001335" /><text x="120.00" y="330.00" id="31728">4S-PVC</text><rect Type="system" Region="维纳尔" height="5.00" y="630.00" Name="KK-L97" width="5.00" x="150.00" id="31730" ID="30001264" /><text x="150.00" y="630.00" id="31731">KK-L97</text><rect Type="system" Region="维纳尔" height="5.00" y="102.32" Name="N-5476" width="5.00" x="147.68" id="31733" ID="30001309" /><text x="147.68" y="102.32" id="31734">N-5476</text><rect Type="system" Region="维纳尔" height="5.00" y="67.68" Name="PZOZ-K" width="5.00" x="182.32" id="31736" ID="30001310" /><text x="182.32" y="67.68" id="31737">PZOZ-K</text><rect Type="system" Region="维纳尔" height="5.00" y="518.36" Name="HBD-CC" width="5.00" x="151.97" id="31739" ID="30001292" /><text x="151.97" y="518.36" id="31740">HBD-CC</text><rect Type="system" Region="维纳尔" height="5.00" y="478.80" Name="E-7U8U" width="5.00" x="180.88" id="31742" ID="30001294" /><text x="180.88" y="478.80" id="31743">E-7U8U</text><rect Type="system" Region="维纳尔" height="5.00" y="20.00" Name="EK2-ET" width="5.00" x="200.00" id="31745" ID="30001313" /><text x="200.00" y="20.00" id="31746">EK2-ET</text><rect Type="system" Region="维纳尔" height="5.00" y="650.00" Name="N-Q5PW" width="5.00" x="200.00" id="31748" ID="30001267" /><text x="200.00" y="650.00" id="31749">N-Q5PW</text><rect Type="system" Region="维纳尔" height="5.00" y="300.00" Name="MQFX-Q" width="5.00" x="220.00" id="31751" ID="30001278" /><text x="220.00" y="300.00" id="31752">MQFX-Q</text><rect Type="system" Region="维纳尔" height="5.00" y="350.00" Name="N5Y-4N" width="5.00" x="200.00" id="31754" ID="30001277" /><text x="200.00" y="350.00" id="31755">N5Y-4N</text><rect Type="system" Region="维纳尔" height="5.00" y="250.00" Name="9-8BL8" width="5.00" x="250.00" id="31757" ID="30001279" /><text x="250.00" y="250.00" id="31758">9-8BL8</text><rect Type="system" Region="维纳尔" height="5.00" y="375.50" Name="6W-HRH" width="5.00" x="250.00" id="31760" ID="30001276" /><text x="250.00" y="375.50" id="31761">6W-HRH</text><rect Type="system" Region="维纳尔" height="5.00" y="424.50" Name="CSOA-B" width="5.00" x="250.00" id="31763" ID="30001275" /><text x="250.00" y="424.50" id="31764">CSOA-B</text><rect Type="system" Region="维纳尔" height="5.00" y="150.00" Name="S-1ZXZ" width="5.00" x="250.00" id="31766" ID="30001308" /><text x="250.00" y="150.00" id="31767">S-1ZXZ</text><rect Type="system" Region="维纳尔" height="5.00" y="480.00" Name="K3JR-J" width="5.00" x="250.00" id="31769" ID="30001274" /><text x="250.00" y="480.00" id="31770">K3JR-J</text><rect Type="system" Region="维纳尔" height="5.00" y="479.44" Name="D-8SI1" width="5.00" x="300.01" id="31772" ID="30001272" /><text x="300.01" y="479.44" id="31773">D-8SI1</text><rect Type="system" Region="维纳尔" height="5.00" y="620.00" Name="P-FSQE" width="5.00" x="300.00" id="31775" ID="30001268" /><text x="300.00" y="620.00" id="31776">P-FSQE</text><rect Type="system" Region="维纳尔" height="5.00" y="20.00" Name="430-BE" width="5.00" x="300.00" id="31778" ID="30001340" /><text x="300.00" y="20.00" id="31779">430-BE</text><rect Type="system" Region="维纳尔" height="5.00" y="528.43" Name="YP-J33" width="5.00" x="298.92" id="31781" ID="30001271" /><text x="298.92" y="528.43" id="31782">YP-J33</text><rect Type="system" Region="维纳尔" height="5.00" y="100.00" Name="6UQ-4U" width="5.00" x="300.00" id="31784" ID="30001339" /><text x="300.00" y="100.00" id="31785">6UQ-4U</text><rect Type="system" Region="维纳尔" height="5.00" y="150.00" Name="EIV-1W" width="5.00" x="320.00" id="31787" ID="30001307" /><text x="320.00" y="150.00" id="31788">EIV-1W</text><rect Type="system" Region="维纳尔" height="5.00" y="572.13" Name="1-Y6KI" width="5.00" x="321.07" id="31790" ID="30001270" /><text x="321.07" y="572.13" id="31791">1-Y6KI</text><rect Type="system" Region="维纳尔" height="5.00" y="50.00" Name="LHJ-2G" width="5.00" x="350.00" id="31793" ID="30001337" /><text x="350.00" y="50.00" id="31794">LHJ-2G</text><rect Type="system" Region="维纳尔" height="5.00" y="200.00" Name="9IPC-E" width="5.00" x="340.00" id="31796" ID="30001306" /><text x="340.00" y="200.00" id="31797">9IPC-E</text><rect Type="system" Region="维纳尔" height="5.00" y="450.00" Name="Y-4CFK" width="5.00" x="350.00" id="31799" ID="30001291" /><text x="350.00" y="450.00" id="31800">Y-4CFK</text><rect Type="system" Region="维纳尔" height="5.00" y="610.00" Name="H-PA29" width="5.00" x="360.00" id="31802" ID="30001269" /><text x="360.00" y="610.00" id="31803">H-PA29</text><rect Type="system" Region="维纳尔" height="5.00" y="170.00" Name="QHJ-FW" width="5.00" x="380.00" id="31805" ID="30001305" /><text x="380.00" y="170.00" id="31806">QHJ-FW</text><rect Type="system" Region="维纳尔" height="5.00" y="420.00" Name="AJCJ-1" width="5.00" x="400.00" id="31808" ID="30001289" /><text x="400.00" y="420.00" id="31809">AJCJ-1</text><rect Type="system" Region="维纳尔" height="5.00" y="50.00" Name="SHJO-J" width="5.00" x="400.00" id="31811" ID="30001338" /><text x="400.00" y="50.00" id="31812">SHJO-J</text><rect Type="system" Region="维纳尔" height="5.00" y="480.00" Name="6NJ8-V" width="5.00" x="400.00" id="31814" ID="30001290" /><text x="400.00" y="480.00" id="31815">6NJ8-V</text><rect Type="system" Region="维纳尔" height="5.00" y="550.00" Name="9-266Q" width="5.00" x="400.00" id="31817" ID="30001273" /><text x="400.00" y="550.00" id="31818">9-266Q</text><rect Type="system" Region="维纳尔" height="5.00" y="200.00" Name="Z0-TJW" width="5.00" x="420.00" id="31820" ID="30001304" /><text x="420.00" y="200.00" id="31821">Z0-TJW</text><rect Type="system" Region="维纳尔" height="5.00" y="230.00" Name="VG-6CH" width="5.00" x="460.00" id="31823" ID="30001303" /><text x="460.00" y="230.00" id="31824">VG-6CH</text><rect Type="system" Region="维纳尔" height="5.00" y="280.00" Name="N0C-UN" width="5.00" x="450.00" id="31826" ID="30001302" /><text x="450.00" y="280.00" id="31827">N0C-UN</text><rect Type="system" Region="维纳尔" height="5.00" y="320.00" Name="V3X-L8" width="5.00" x="480.00" id="31829" ID="30001301" /><text x="480.00" y="320.00" id="31830">V3X-L8</text><rect Type="system" Region="维纳尔" height="5.00" y="375.50" Name="4RX-EE" width="5.00" x="450.00" id="31832" ID="30001300" /><text x="450.00" y="375.50" id="31833">4RX-EE</text><rect Type="system" Region="维纳尔" height="5.00" y="424.50" Name="SS-GED" width="5.00" x="450.00" id="31835" ID="30001288" /><text x="450.00" y="424.50" id="31836">SS-GED</text><rect Type="system" Region="维纳尔" height="5.00" y="500.00" Name="BV-1JG" width="5.00" x="480.00" id="31838" ID="30001286" /><text x="480.00" y="500.00" id="31839">BV-1JG</text><rect Type="system" Region="维纳尔" height="5.00" y="50.00" Name="OJ-CT4" width="5.00" x="480.00" id="31841" ID="30001341" /><text x="480.00" y="50.00" id="31842">OJ-CT4</text><rect Type="system" Region="维纳尔" height="5.00" y="450.00" Name="0-BFTQ" width="5.00" x="500.00" id="31844" ID="30001287" /><text x="500.00" y="450.00" id="31845">0-BFTQ</text><rect Type="system" Region="维纳尔" height="5.00" y="20.00" Name="AZ-UWB" width="5.00" x="520.00" id="31847" ID="30001342" /><text x="520.00" y="20.00" id="31848">AZ-UWB</text><rect Type="system" Region="维纳尔" height="5.00" y="100.00" Name="H-S5BM" width="5.00" x="550.00" id="31850" ID="30001343" /><text x="550.00" y="100.00" id="31851">H-S5BM</text><rect Type="system" Region="维纳尔" height="5.00" y="650.00" Name="N6G-H3" width="5.00" x="550.00" id="31853" ID="30001280" /><text x="550.00" y="650.00" id="31854">N6G-H3</text><rect Type="system" Region="维纳尔" height="5.00" y="700.00" Name="3A1P-N" width="5.00" x="550.00" id="31856" ID="30001281" /><text x="550.00" y="700.00" id="31857">3A1P-N</text><rect Type="system" Region="维纳尔" height="5.00" y="380.00" Name="P-VYVL" width="5.00" x="550.00" id="31859" ID="30001329" /><text x="550.00" y="380.00" id="31860">P-VYVL</text><rect Type="system" Region="维纳尔" height="5.00" y="278.09" Name="PF-QHK" width="5.00" x="579.04" id="31862" ID="30001324" /><text x="579.04" y="278.09" id="31863">PF-QHK</text><rect Type="system" Region="维纳尔" height="5.00" y="150.00" Name="JURU-T" width="5.00" x="600.00" id="31865" ID="30001315" /><text x="600.00" y="150.00" id="31866">JURU-T</text><rect Type="system" Region="维纳尔" height="5.00" y="321.91" Name="XW-6TC" width="5.00" x="600.96" id="31868" ID="30001325" /><text x="600.96" y="321.91" id="31869">XW-6TC</text><rect Type="system" Region="维纳尔" height="5.00" y="550.00" Name="OZ-VAE" width="5.00" x="620.00" id="31871" ID="30001282" /><text x="620.00" y="550.00" id="31872">OZ-VAE</text><rect Type="system" Region="维纳尔" height="5.00" y="620.00" Name="92K-H2" width="5.00" x="620.00" id="31874" ID="30001284" /><text x="620.00" y="620.00" id="31875">92K-H2</text><rect Type="system" Region="维纳尔" height="5.00" y="680.00" Name="AA-YRK" width="5.00" x="620.00" id="31877" ID="30001285" /><text x="620.00" y="680.00" id="31878">AA-YRK</text><rect Type="system" Region="维纳尔" height="5.00" y="80.00" Name="MC6-5J" width="5.00" x="620.00" id="31880" ID="30001316" /><text x="620.00" y="80.00" id="31881">MC6-5J</text><rect Type="system" Region="维纳尔" height="5.00" y="380.00" Name="6ZJ-SC" width="5.00" x="640.00" id="31883" ID="30001328" /><text x="640.00" y="380.00" id="31884">6ZJ-SC</text><rect Type="system" Region="维纳尔" height="5.00" y="280.00" Name="Q-7SUI" width="5.00" x="650.00" id="31886" ID="30001326" /><text x="650.00" y="280.00" id="31887">Q-7SUI</text><rect Type="system" Region="维纳尔" height="5.00" y="430.00" Name="HD-JVQ" width="5.00" x="650.00" id="31889" ID="30001330" /><text x="650.00" y="430.00" id="31890">HD-JVQ</text><rect Type="system" Region="维纳尔" height="5.00" y="47.48" Name="4-7IL9" width="5.00" x="667.46" id="31892" ID="30001318" /><text x="667.46" y="47.48" id="31893">4-7IL9</text><rect Type="system" Region="维纳尔" height="5.00" y="122.26" Name="65V-RH" width="5.00" x="678.66" id="31895" ID="30001317" /><text x="678.66" y="122.26" id="31896">65V-RH</text><rect Type="system" Region="维纳尔" height="5.00" y="180.00" Name="0-O2UT" width="5.00" x="680.00" id="31898" ID="30001322" /><text x="680.00" y="180.00" id="31899">0-O2UT</text><rect Type="system" Region="维纳尔" height="5.00" y="340.00" Name="VVD-O6" width="5.00" x="680.00" id="31901" ID="30001327" /><text x="680.00" y="340.00" id="31902">VVD-O6</text><rect Type="system" Region="维纳尔" height="5.00" y="80.26" Name="RQ9-OZ" width="5.00" x="703.88" id="31904" ID="30001320" /><text x="703.88" y="80.26" id="31905">RQ9-OZ</text><rect Type="system" Region="维纳尔" height="5.00" y="650.00" Name="A-AFGR" width="5.00" x="720.00" id="31907" ID="30001283" /><text x="720.00" y="650.00" id="31908">A-AFGR</text><rect Type="system" Region="维纳尔" height="5.00" y="120.00" Name="B-CZXG" width="5.00" x="750.00" id="31910" ID="30001321" /><text x="750.00" y="120.00" id="31911">B-CZXG</text><rect Type="system" Region="维纳尔" height="5.00" y="50.00" Name="2PLH-3" width="5.00" x="750.00" id="31913" ID="30001319" /><text x="750.00" y="50.00" id="31914">2PLH-3</text><rect Type="system" Region="维纳尔" height="5.00" y="180.00" Name="Q61Y-F" width="5.00" x="750.00" id="31916" ID="30001323" /><text x="750.00" y="180.00" id="31917">Q61Y-F</text><rect Type="system" Region="维纳尔" height="5.00" y="317.68" Name="FHB-QA" width="5.00" x="817.68" id="31919" ID="30001344" /><text x="817.68" y="317.68" id="31920">FHB-QA</text><rect Type="system" Region="维纳尔" height="5.00" y="450.00" Name="G9D-XW" width="5.00" x="820.00" id="31922" ID="30001348" /><text x="820.00" y="450.00" id="31923">G9D-XW</text><rect Type="system" Region="维纳尔" height="5.00" y="352.32" Name="42XJ-N" width="5.00" x="852.32" id="31925" ID="30001349" /><text x="852.32" y="352.32" id="31926">42XJ-N</text><rect Type="system" Region="维纳尔" height="5.00" y="180.00" Name="L-IE41" width="5.00" x="900.00" id="31928" ID="30001350" /><text x="900.00" y="180.00" id="31929">L-IE41</text><rect Type="system" Region="维纳尔" height="5.00" y="20.00" Name="ZD4-G9" width="5.00" x="920.00" id="31931" ID="30001354" /><text x="920.00" y="20.00" id="31932">ZD4-G9</text><rect Type="system" Region="维纳尔" height="5.00" y="150.00" Name="VG-QW1" width="5.00" x="950.00" id="31934" ID="30001351" /><text x="950.00" y="150.00" id="31935">VG-QW1</text><rect Type="system" Region="维纳尔" height="5.00" y="220.00" Name="2IBE-N" width="5.00" x="950.00" id="31937" ID="30001352" /><text x="950.00" y="220.00" id="31938">2IBE-N</text><rect Type="system" Region="维纳尔" height="5.00" y="320.00" Name="Z3U-GI" width="5.00" x="950.00" id="31940" ID="30001345" /><text x="950.00" y="320.00" id="31941">Z3U-GI</text><rect Type="system" Region="维纳尔" height="5.00" y="450.00" Name="B3QP-K" width="5.00" x="950.00" id="31943" ID="30001346" /><text x="950.00" y="450.00" id="31944">B3QP-K</text><rect Type="system" Region="维纳尔" height="5.00" y="82.32" Name="YJ3-UT" width="5.00" x="947.68" id="31946" ID="30001353" /><text x="947.68" y="82.32" id="31947">YJ3-UT</text><rect Type="system" Region="维纳尔" height="5.00" y="47.68" Name="C2-DDA" width="5.00" x="982.32" id="31949" ID="30001355" /><text x="982.32" y="47.68" id="31950">C2-DDA</text><rect Type="system" Region="维纳尔" height="5.00" y="380.00" Name="GVZ-1W" width="5.00" x="1000.00" id="31952" ID="30001347" /><text x="1000.00" y="380.00" id="31953">GVZ-1W</text><rect Type="system" Region="血脉" height="5.00" y="50.00" Name="MA-VDX" width="5.00" x="20.00" id="31955" ID="30004369" /><text x="20.00" y="50.00" id="31956">MA-VDX</text><rect Type="system" Region="德克廉" height="5.00" y="760.00" Name="4U90-Z" width="5.00" x="20.00" id="31958" ID="30002889" /><text x="20.00" y="760.00" id="31959">4U90-Z</text><rect Type="system" Region="德克廉" height="5.00" y="320.00" Name="DKUK-G" width="5.00" x="60.00" id="31961" ID="30002920" /><text x="60.00" y="320.00" id="31962">DKUK-G</text><rect Type="system" Region="特布特" height="5.00" y="760.00" Name="UMI-KK" width="5.00" x="100.00" id="31964" ID="30000858" /><text x="100.00" y="760.00" id="31965">UMI-KK</text><rect Type="system" Region="血脉" height="5.00" y="250.00" Name="UQ9-3C" width="5.00" x="350.00" id="31967" ID="30004310" /><text x="350.00" y="250.00" id="31968">UQ9-3C</text><rect Type="system" Region="特布特" height="5.00" y="750.00" Name="Q-CAB2" width="5.00" x="550.00" id="31970" ID="30000872" /><text x="550.00" y="750.00" id="31971">Q-CAB2</text><rect Type="system" Region="佩利根弗" height="5.00" y="480.00" Name="MTO2-2" width="5.00" x="650.00" id="31973" ID="30005189" /><text x="650.00" y="480.00" id="31974">MTO2-2</text><rect Type="system" Region="特布特" height="5.00" y="530.00" Name="NJ4X-S" width="5.00" x="820.00" id="31976" ID="30000896" /><text x="820.00" y="530.00" id="31977">NJ4X-S</text><rect Type="system" Region="特纳" height="5.00" y="400.00" Name="OE-4HB" width="5.00" x="900.00" id="31979" ID="30003657" /><text x="900.00" y="400.00" id="31980">OE-4HB</text><rect Type="system" Region="特纳" height="5.00" y="530.00" Name="EOY-BG" width="5.00" x="950.00" id="31982" ID="30003612" /><text x="950.00" y="530.00" id="31983">EOY-BG</text><rect Type="system" Region="赞颂之域" height="5.00" y="680.00" Name="荒渊" width="5.00" x="360.00" id="31985" ID="30100000" /><text x="360.00" y="680.00" id="31986">荒渊</text><line x2="30.00" style="fill:blue;stroke:blue;" y1="350.00" x1="20.00" id="31988" y2="400.00" /><line x2="50.00" style="fill:blue;stroke:blue;" y1="400.00" x1="30.00" id="31989" y2="450.00" /><line x2="20.00" style="fill:blue;stroke:blue;" y1="400.00" x1="30.00" id="31990" y2="350.00" /><line x2="50.00" style="fill:blue;stroke:blue;" y1="640.00" x1="20.00" id="31991" y2="600.00" /><line x2="20.00" style="fill:blue;stroke:blue;" y1="640.00" x1="20.00" id="31992" y2="710.00" /><line x2="20.00" style="fill:blue;stroke:blue;" y1="710.00" x1="20.00" id="31993" y2="640.00" /><line x2="20.00" style="fill:blue;stroke:blue;" y1="710.00" x1="20.00" id="31994" y2="760.00" /><line x2="100.00" style="fill:blue;stroke:blue;" y1="450.00" x1="50.00" id="31995" y2="450.00" /><line x2="80.00" style="fill:blue;stroke:blue;" y1="450.00" x1="50.00" id="31996" y2="500.00" /><line x2="30.00" style="fill:blue;stroke:blue;" y1="450.00" x1="50.00" id="31997" y2="400.00" /><line x2="91.91" style="fill:blue;stroke:blue;" y1="220.96" x1="48.09" id="31998" y2="199.04" /><line x2="50.00" style="fill:blue;stroke:blue;" y1="220.96" x1="48.09" id="31999" y2="270.00" /><line x2="48.09" style="fill:blue;stroke:blue;" y1="270.00" x1="50.00" id="32000" y2="220.96" /><line x2="60.00" style="fill:blue;stroke:blue;" y1="270.00" x1="50.00" id="32001" y2="320.00" /><line x2="151.97" style="fill:blue;stroke:blue;" y1="500.00" x1="80.00" id="32002" y2="518.36" /><line x2="50.00" style="fill:blue;stroke:blue;" y1="500.00" x1="80.00" id="32003" y2="450.00" /><line x2="117.15" style="fill:blue;stroke:blue;" y1="500.00" x1="80.00" id="32004" y2="552.84" /><line x2="100.00" style="fill:blue;stroke:blue;" y1="600.00" x1="50.00" id="32005" y2="660.00" /><line x2="150.00" style="fill:blue;stroke:blue;" y1="600.00" x1="50.00" id="32006" y2="630.00" /><line x2="20.00" style="fill:blue;stroke:blue;" y1="600.00" x1="50.00" id="32007" y2="640.00" /><line x2="147.68" style="fill:blue;stroke:blue;" y1="82.32" x1="67.68" id="32008" y2="102.32" /><line x2="20.00" style="fill:blue;stroke:blue;" y1="82.32" x1="67.68" id="32009" y2="50.00" /><line x2="100.00" style="fill:blue;stroke:blue;" y1="199.04" x1="91.91" id="32010" y2="150.00" /><line x2="130.00" style="fill:blue;stroke:blue;" y1="199.04" x1="91.91" id="32011" y2="230.00" /><line x2="48.09" style="fill:blue;stroke:blue;" y1="199.04" x1="91.91" id="32012" y2="220.96" /><line x2="100.00" style="fill:blue;stroke:blue;" y1="660.00" x1="100.00" id="32013" y2="710.00" /><line x2="50.00" style="fill:blue;stroke:blue;" y1="660.00" x1="100.00" id="32014" y2="600.00" /><line x2="150.00" style="fill:blue;stroke:blue;" y1="660.00" x1="100.00" id="32015" y2="630.00" /><line x2="100.00" style="fill:blue;stroke:blue;" y1="710.00" x1="100.00" id="32016" y2="760.00" /><line x2="100.00" style="fill:blue;stroke:blue;" y1="710.00" x1="100.00" id="32017" y2="660.00" /><line x2="182.32" style="fill:blue;stroke:blue;" y1="47.68" x1="102.32" id="32018" y2="67.68" /><line x2="147.68" style="fill:blue;stroke:blue;" y1="150.00" x1="100.00" id="32019" y2="102.32" /><line x2="91.91" style="fill:blue;stroke:blue;" y1="150.00" x1="100.00" id="32020" y2="199.04" /><line x2="151.97" style="fill:blue;stroke:blue;" y1="450.00" x1="100.00" id="32021" y2="518.36" /><line x2="180.88" style="fill:blue;stroke:blue;" y1="450.00" x1="100.00" id="32022" y2="478.80" /><line x2="50.00" style="fill:blue;stroke:blue;" y1="450.00" x1="100.00" id="32023" y2="450.00" /><line x2="151.97" style="fill:blue;stroke:blue;" y1="552.84" x1="117.15" id="32024" y2="518.36" /><line x2="80.00" style="fill:blue;stroke:blue;" y1="552.84" x1="117.15" id="32025" y2="500.00" /><line x2="91.91" style="fill:blue;stroke:blue;" y1="230.00" x1="130.00" id="32026" y2="199.04" /><line x2="120.00" style="fill:blue;stroke:blue;" y1="230.00" x1="130.00" id="32027" y2="280.00" /><line x2="130.00" style="fill:blue;stroke:blue;" y1="280.00" x1="120.00" id="32028" y2="230.00" /><line x2="120.00" style="fill:blue;stroke:blue;" y1="280.00" x1="120.00" id="32029" y2="330.00" /><line x2="120.00" style="fill:blue;stroke:blue;" y1="330.00" x1="120.00" id="32030" y2="280.00" /><line x2="100.00" style="fill:blue;stroke:blue;" y1="630.00" x1="150.00" id="32031" y2="660.00" /><line x2="50.00" style="fill:blue;stroke:blue;" y1="630.00" x1="150.00" id="32032" y2="600.00" /><line x2="200.00" style="fill:blue;stroke:blue;" y1="630.00" x1="150.00" id="32033" y2="650.00" /><line x2="250.00" style="fill:blue;stroke:blue;" y1="102.32" x1="147.68" id="32034" y2="150.00" /><line x2="182.32" style="fill:blue;stroke:blue;" y1="102.32" x1="147.68" id="32035" y2="67.68" /><line x2="67.68" style="fill:blue;stroke:blue;" y1="102.32" x1="147.68" id="32036" y2="82.32" /><line x2="100.00" style="fill:blue;stroke:blue;" y1="102.32" x1="147.68" id="32037" y2="150.00" /><line x2="147.68" style="fill:blue;stroke:blue;" y1="67.68" x1="182.32" id="32038" y2="102.32" /><line x2="102.32" style="fill:blue;stroke:blue;" y1="67.68" x1="182.32" id="32039" y2="47.68" /><line x2="200.00" style="fill:blue;stroke:blue;" y1="67.68" x1="182.32" id="32040" y2="20.00" /><line x2="350.00" style="fill:blue;stroke:blue;" y1="67.68" x1="182.32" id="32041" y2="50.00" /><line x2="300.01" style="fill:blue;stroke:blue;" y1="518.36" x1="151.97" id="32042" y2="479.44" /><line x2="100.00" style="fill:blue;stroke:blue;" y1="518.36" x1="151.97" id="32043" y2="450.00" /><line x2="180.88" style="fill:blue;stroke:blue;" y1="518.36" x1="151.97" id="32044" y2="478.80" /><line x2="80.00" style="fill:blue;stroke:blue;" y1="518.36" x1="151.97" id="32045" y2="500.00" /><line x2="117.15" style="fill:blue;stroke:blue;" y1="518.36" x1="151.97" id="32046" y2="552.84" /><line x2="151.97" style="fill:blue;stroke:blue;" y1="478.80" x1="180.88" id="32047" y2="518.36" /><line x2="100.00" style="fill:blue;stroke:blue;" y1="478.80" x1="180.88" id="32048" y2="450.00" /><line x2="182.32" style="fill:blue;stroke:blue;" y1="20.00" x1="200.00" id="32049" y2="67.68" /><line x2="150.00" style="fill:blue;stroke:blue;" y1="650.00" x1="200.00" id="32050" y2="630.00" /><line x2="300.00" style="fill:blue;stroke:blue;" y1="650.00" x1="200.00" id="32051" y2="620.00" /><line x2="200.00" style="fill:blue;stroke:blue;" y1="300.00" x1="220.00" id="32052" y2="350.00" /><line x2="250.00" style="fill:blue;stroke:blue;" y1="300.00" x1="220.00" id="32053" y2="250.00" /><line x2="250.00" style="fill:blue;stroke:blue;" y1="350.00" x1="200.00" id="32054" y2="375.50" /><line x2="220.00" style="fill:blue;stroke:blue;" y1="350.00" x1="200.00" id="32055" y2="300.00" /><line x2="220.00" style="fill:blue;stroke:blue;" y1="250.00" x1="250.00" id="32056" y2="300.00" /><line x2="250.00" style="fill:blue;stroke:blue;" y1="375.50" x1="250.00" id="32057" y2="424.50" /><line x2="200.00" style="fill:blue;stroke:blue;" y1="375.50" x1="250.00" id="32058" y2="350.00" /><line x2="250.00" style="fill:blue;stroke:blue;" y1="424.50" x1="250.00" id="32059" y2="480.00" /><line x2="250.00" style="fill:blue;stroke:blue;" y1="424.50" x1="250.00" id="32060" y2="375.50" /><line x2="320.00" style="fill:blue;stroke:blue;" y1="150.00" x1="250.00" id="32061" y2="150.00" /><line x2="147.68" style="fill:blue;stroke:blue;" y1="150.00" x1="250.00" id="32062" y2="102.32" /><line x2="300.01" style="fill:blue;stroke:blue;" y1="480.00" x1="250.00" id="32063" y2="479.44" /><line x2="250.00" style="fill:blue;stroke:blue;" y1="480.00" x1="250.00" id="32064" y2="424.50" /><line x2="298.92" style="fill:blue;stroke:blue;" y1="479.44" x1="300.01" id="32065" y2="528.43" /><line x2="400.00" style="fill:blue;stroke:blue;" y1="479.44" x1="300.01" id="32066" y2="550.00" /><line x2="250.00" style="fill:blue;stroke:blue;" y1="479.44" x1="300.01" id="32067" y2="480.00" /><line x2="151.97" style="fill:blue;stroke:blue;" y1="479.44" x1="300.01" id="32068" y2="518.36" /><line x2="200.00" style="fill:blue;stroke:blue;" y1="620.00" x1="300.00" id="32069" y2="650.00" /><line x2="360.00" style="fill:blue;stroke:blue;" y1="620.00" x1="300.00" id="32070" y2="610.00" /><line x2="350.00" style="fill:blue;stroke:blue;" y1="20.00" x1="300.00" id="32071" y2="50.00" /><line x2="321.07" style="fill:blue;stroke:blue;" y1="528.43" x1="298.92" id="32072" y2="572.13" /><line x2="300.01" style="fill:blue;stroke:blue;" y1="528.43" x1="298.92" id="32073" y2="479.44" /><line x2="350.00" style="fill:blue;stroke:blue;" y1="100.00" x1="300.00" id="32074" y2="50.00" /><line x2="380.00" style="fill:blue;stroke:blue;" y1="150.00" x1="320.00" id="32075" y2="170.00" /><line x2="340.00" style="fill:blue;stroke:blue;" y1="150.00" x1="320.00" id="32076" y2="200.00" /><line x2="250.00" style="fill:blue;stroke:blue;" y1="150.00" x1="320.00" id="32077" y2="150.00" /><line x2="360.00" style="fill:blue;stroke:blue;" y1="572.13" x1="321.07" id="32078" y2="610.00" /><line x2="298.92" style="fill:blue;stroke:blue;" y1="572.13" x1="321.07" id="32079" y2="528.43" /><line x2="400.00" style="fill:blue;stroke:blue;" y1="572.13" x1="321.07" id="32080" y2="550.00" /><line x2="182.32" style="fill:blue;stroke:blue;" y1="50.00" x1="350.00" id="32081" y2="67.68" /><line x2="400.00" style="fill:blue;stroke:blue;" y1="50.00" x1="350.00" id="32082" y2="50.00" /><line x2="300.00" style="fill:blue;stroke:blue;" y1="50.00" x1="350.00" id="32083" y2="100.00" /><line x2="300.00" style="fill:blue;stroke:blue;" y1="50.00" x1="350.00" id="32084" y2="20.00" /><line x2="380.00" style="fill:blue;stroke:blue;" y1="200.00" x1="340.00" id="32085" y2="170.00" /><line x2="320.00" style="fill:blue;stroke:blue;" y1="200.00" x1="340.00" id="32086" y2="150.00" /><line x2="350.00" style="fill:blue;stroke:blue;" y1="200.00" x1="340.00" id="32087" y2="250.00" /><line x2="400.00" style="fill:blue;stroke:blue;" y1="450.00" x1="350.00" id="32088" y2="480.00" /><line x2="300.00" style="fill:blue;stroke:blue;" y1="610.00" x1="360.00" id="32089" y2="620.00" /><line x2="321.07" style="fill:blue;stroke:blue;" y1="610.00" x1="360.00" id="32090" y2="572.13" /><line x2="400.00" style="fill:blue;stroke:blue;" y1="610.00" x1="360.00" id="32091" y2="550.00" /><line x2="420.00" style="fill:blue;stroke:blue;" y1="170.00" x1="380.00" id="32092" y2="200.00" /><line x2="340.00" style="fill:blue;stroke:blue;" y1="170.00" x1="380.00" id="32093" y2="200.00" /><line x2="320.00" style="fill:blue;stroke:blue;" y1="170.00" x1="380.00" id="32094" y2="150.00" /><line x2="600.00" style="fill:blue;stroke:blue;" y1="170.00" x1="380.00" id="32095" y2="150.00" /><line x2="450.00" style="fill:blue;stroke:blue;" y1="420.00" x1="400.00" id="32096" y2="424.50" /><line x2="400.00" style="fill:blue;stroke:blue;" y1="420.00" x1="400.00" id="32097" y2="480.00" /><line x2="350.00" style="fill:blue;stroke:blue;" y1="50.00" x1="400.00" id="32098" y2="50.00" /><line x2="480.00" style="fill:blue;stroke:blue;" y1="50.00" x1="400.00" id="32099" y2="50.00" /><line x2="480.00" style="fill:blue;stroke:blue;" y1="480.00" x1="400.00" id="32100" y2="500.00" /><line x2="400.00" style="fill:blue;stroke:blue;" y1="480.00" x1="400.00" id="32101" y2="420.00" /><line x2="350.00" style="fill:blue;stroke:blue;" y1="480.00" x1="400.00" id="32102" y2="450.00" /><line x2="360.00" style="fill:blue;stroke:blue;" y1="550.00" x1="400.00" id="32103" y2="610.00" /><line x2="321.07" style="fill:blue;stroke:blue;" y1="550.00" x1="400.00" id="32104" y2="572.13" /><line x2="300.01" style="fill:blue;stroke:blue;" y1="550.00" x1="400.00" id="32105" y2="479.44" /><line x2="550.00" style="fill:blue;stroke:blue;" y1="550.00" x1="400.00" id="32106" y2="650.00" /><line x2="480.00" style="fill:blue;stroke:blue;" y1="550.00" x1="400.00" id="32107" y2="500.00" /><line x2="460.00" style="fill:blue;stroke:blue;" y1="200.00" x1="420.00" id="32108" y2="230.00" /><line x2="380.00" style="fill:blue;stroke:blue;" y1="200.00" x1="420.00" id="32109" y2="170.00" /><line x2="450.00" style="fill:blue;stroke:blue;" y1="230.00" x1="460.00" id="32110" y2="280.00" /><line x2="420.00" style="fill:blue;stroke:blue;" y1="230.00" x1="460.00" id="32111" y2="200.00" /><line x2="579.04" style="fill:blue;stroke:blue;" y1="230.00" x1="460.00" id="32112" y2="278.09" /><line x2="480.00" style="fill:blue;stroke:blue;" y1="280.00" x1="450.00" id="32113" y2="320.00" /><line x2="460.00" style="fill:blue;stroke:blue;" y1="280.00" x1="450.00" id="32114" y2="230.00" /><line x2="450.00" style="fill:blue;stroke:blue;" y1="320.00" x1="480.00" id="32115" y2="375.50" /><line x2="450.00" style="fill:blue;stroke:blue;" y1="320.00" x1="480.00" id="32116" y2="280.00" /><line x2="450.00" style="fill:blue;stroke:blue;" y1="375.50" x1="450.00" id="32117" y2="424.50" /><line x2="480.00" style="fill:blue;stroke:blue;" y1="375.50" x1="450.00" id="32118" y2="320.00" /><line x2="500.00" style="fill:blue;stroke:blue;" y1="424.50" x1="450.00" id="32119" y2="450.00" /><line x2="400.00" style="fill:blue;stroke:blue;" y1="424.50" x1="450.00" id="32120" y2="420.00" /><line x2="450.00" style="fill:blue;stroke:blue;" y1="424.50" x1="450.00" id="32121" y2="375.50" /><line x2="400.00" style="fill:blue;stroke:blue;" y1="500.00" x1="480.00" id="32122" y2="550.00" /><line x2="500.00" style="fill:blue;stroke:blue;" y1="500.00" x1="480.00" id="32123" y2="450.00" /><line x2="400.00" style="fill:blue;stroke:blue;" y1="500.00" x1="480.00" id="32124" y2="480.00" /><line x2="400.00" style="fill:blue;stroke:blue;" y1="50.00" x1="480.00" id="32125" y2="50.00" /><line x2="520.00" style="fill:blue;stroke:blue;" y1="50.00" x1="480.00" id="32126" y2="20.00" /><line x2="550.00" style="fill:blue;stroke:blue;" y1="50.00" x1="480.00" id="32127" y2="100.00" /><line x2="480.00" style="fill:blue;stroke:blue;" y1="450.00" x1="500.00" id="32128" y2="500.00" /><line x2="450.00" style="fill:blue;stroke:blue;" y1="450.00" x1="500.00" id="32129" y2="424.50" /><line x2="480.00" style="fill:blue;stroke:blue;" y1="20.00" x1="520.00" id="32130" y2="50.00" /><line x2="480.00" style="fill:blue;stroke:blue;" y1="100.00" x1="550.00" id="32131" y2="50.00" /><line x2="400.00" style="fill:blue;stroke:blue;" y1="650.00" x1="550.00" id="32132" y2="550.00" /><line x2="550.00" style="fill:blue;stroke:blue;" y1="650.00" x1="550.00" id="32133" y2="700.00" /><line x2="620.00" style="fill:blue;stroke:blue;" y1="650.00" x1="550.00" id="32134" y2="550.00" /><line x2="720.00" style="fill:blue;stroke:blue;" y1="650.00" x1="550.00" id="32135" y2="650.00" /><line x2="620.00" style="fill:blue;stroke:blue;" y1="650.00" x1="550.00" id="32136" y2="620.00" /><line x2="550.00" style="fill:blue;stroke:blue;" y1="700.00" x1="550.00" id="32137" y2="750.00" /><line x2="550.00" style="fill:blue;stroke:blue;" y1="700.00" x1="550.00" id="32138" y2="650.00" /><line x2="600.96" style="fill:blue;stroke:blue;" y1="380.00" x1="550.00" id="32139" y2="321.91" /><line x2="680.00" style="fill:blue;stroke:blue;" y1="380.00" x1="550.00" id="32140" y2="340.00" /><line x2="640.00" style="fill:blue;stroke:blue;" y1="380.00" x1="550.00" id="32141" y2="380.00" /><line x2="650.00" style="fill:blue;stroke:blue;" y1="380.00" x1="550.00" id="32142" y2="430.00" /><line x2="460.00" style="fill:blue;stroke:blue;" y1="278.09" x1="579.04" id="32143" y2="230.00" /><line x2="600.96" style="fill:blue;stroke:blue;" y1="278.09" x1="579.04" id="32144" y2="321.91" /><line x2="650.00" style="fill:blue;stroke:blue;" y1="278.09" x1="579.04" id="32145" y2="280.00" /><line x2="380.00" style="fill:blue;stroke:blue;" y1="150.00" x1="600.00" id="32146" y2="170.00" /><line x2="620.00" style="fill:blue;stroke:blue;" y1="150.00" x1="600.00" id="32147" y2="80.00" /><line x2="678.66" style="fill:blue;stroke:blue;" y1="150.00" x1="600.00" id="32148" y2="122.26" /><line x2="680.00" style="fill:blue;stroke:blue;" y1="150.00" x1="600.00" id="32149" y2="180.00" /><line x2="579.04" style="fill:blue;stroke:blue;" y1="321.91" x1="600.96" id="32150" y2="278.09" /><line x2="680.00" style="fill:blue;stroke:blue;" y1="321.91" x1="600.96" id="32151" y2="340.00" /><line x2="550.00" style="fill:blue;stroke:blue;" y1="321.91" x1="600.96" id="32152" y2="380.00" /><line x2="550.00" style="fill:blue;stroke:blue;" y1="550.00" x1="620.00" id="32153" y2="650.00" /><line x2="720.00" style="fill:blue;stroke:blue;" y1="550.00" x1="620.00" id="32154" y2="650.00" /><line x2="620.00" style="fill:blue;stroke:blue;" y1="550.00" x1="620.00" id="32155" y2="620.00" /><line x2="550.00" style="fill:blue;stroke:blue;" y1="620.00" x1="620.00" id="32156" y2="650.00" /><line x2="620.00" style="fill:blue;stroke:blue;" y1="620.00" x1="620.00" id="32157" y2="550.00" /><line x2="720.00" style="fill:blue;stroke:blue;" y1="620.00" x1="620.00" id="32158" y2="650.00" /><line x2="620.00" style="fill:blue;stroke:blue;" y1="620.00" x1="620.00" id="32159" y2="680.00" /><line x2="720.00" style="fill:blue;stroke:blue;" y1="680.00" x1="620.00" id="32160" y2="650.00" /><line x2="620.00" style="fill:blue;stroke:blue;" y1="680.00" x1="620.00" id="32161" y2="620.00" /><line x2="600.00" style="fill:blue;stroke:blue;" y1="80.00" x1="620.00" id="32162" y2="150.00" /><line x2="667.46" style="fill:blue;stroke:blue;" y1="80.00" x1="620.00" id="32163" y2="47.48" /><line x2="703.88" style="fill:blue;stroke:blue;" y1="80.00" x1="620.00" id="32164" y2="80.26" /><line x2="750.00" style="fill:blue;stroke:blue;" y1="80.00" x1="620.00" id="32165" y2="120.00" /><line x2="680.00" style="fill:blue;stroke:blue;" y1="380.00" x1="640.00" id="32166" y2="340.00" /><line x2="550.00" style="fill:blue;stroke:blue;" y1="380.00" x1="640.00" id="32167" y2="380.00" /><line x2="579.04" style="fill:blue;stroke:blue;" y1="280.00" x1="650.00" id="32168" y2="278.09" /><line x2="680.00" style="fill:blue;stroke:blue;" y1="430.00" x1="650.00" id="32169" y2="340.00" /><line x2="550.00" style="fill:blue;stroke:blue;" y1="430.00" x1="650.00" id="32170" y2="380.00" /><line x2="650.00" style="fill:blue;stroke:blue;" y1="430.00" x1="650.00" id="32171" y2="480.00" /><line x2="620.00" style="fill:blue;stroke:blue;" y1="47.48" x1="667.46" id="32172" y2="80.00" /><line x2="750.00" style="fill:blue;stroke:blue;" y1="47.48" x1="667.46" id="32173" y2="50.00" /><line x2="600.00" style="fill:blue;stroke:blue;" y1="122.26" x1="678.66" id="32174" y2="150.00" /><line x2="750.00" style="fill:blue;stroke:blue;" y1="122.26" x1="678.66" id="32175" y2="120.00" /><line x2="600.00" style="fill:blue;stroke:blue;" y1="180.00" x1="680.00" id="32176" y2="150.00" /><line x2="750.00" style="fill:blue;stroke:blue;" y1="180.00" x1="680.00" id="32177" y2="120.00" /><line x2="750.00" style="fill:blue;stroke:blue;" y1="180.00" x1="680.00" id="32178" y2="180.00" /><line x2="817.68" style="fill:blue;stroke:blue;" y1="180.00" x1="680.00" id="32179" y2="317.68" /><line x2="600.96" style="fill:blue;stroke:blue;" y1="340.00" x1="680.00" id="32180" y2="321.91" /><line x2="640.00" style="fill:blue;stroke:blue;" y1="340.00" x1="680.00" id="32181" y2="380.00" /><line x2="550.00" style="fill:blue;stroke:blue;" y1="340.00" x1="680.00" id="32182" y2="380.00" /><line x2="650.00" style="fill:blue;stroke:blue;" y1="340.00" x1="680.00" id="32183" y2="430.00" /><line x2="620.00" style="fill:blue;stroke:blue;" y1="80.26" x1="703.88" id="32184" y2="80.00" /><line x2="750.00" style="fill:blue;stroke:blue;" y1="80.26" x1="703.88" id="32185" y2="50.00" /><line x2="750.00" style="fill:blue;stroke:blue;" y1="80.26" x1="703.88" id="32186" y2="120.00" /><line x2="550.00" style="fill:blue;stroke:blue;" y1="650.00" x1="720.00" id="32187" y2="650.00" /><line x2="620.00" style="fill:blue;stroke:blue;" y1="650.00" x1="720.00" id="32188" y2="550.00" /><line x2="620.00" style="fill:blue;stroke:blue;" y1="650.00" x1="720.00" id="32189" y2="620.00" /><line x2="620.00" style="fill:blue;stroke:blue;" y1="650.00" x1="720.00" id="32190" y2="680.00" /><line x2="620.00" style="fill:blue;stroke:blue;" y1="120.00" x1="750.00" id="32191" y2="80.00" /><line x2="678.66" style="fill:blue;stroke:blue;" y1="120.00" x1="750.00" id="32192" y2="122.26" /><line x2="750.00" style="fill:blue;stroke:blue;" y1="120.00" x1="750.00" id="32193" y2="50.00" /><line x2="703.88" style="fill:blue;stroke:blue;" y1="120.00" x1="750.00" id="32194" y2="80.26" /><line x2="680.00" style="fill:blue;stroke:blue;" y1="120.00" x1="750.00" id="32195" y2="180.00" /><line x2="667.46" style="fill:blue;stroke:blue;" y1="50.00" x1="750.00" id="32196" y2="47.48" /><line x2="703.88" style="fill:blue;stroke:blue;" y1="50.00" x1="750.00" id="32197" y2="80.26" /><line x2="750.00" style="fill:blue;stroke:blue;" y1="50.00" x1="750.00" id="32198" y2="120.00" /><line x2="680.00" style="fill:blue;stroke:blue;" y1="180.00" x1="750.00" id="32199" y2="180.00" /><line x2="900.00" style="fill:blue;stroke:blue;" y1="180.00" x1="750.00" id="32200" y2="180.00" /><line x2="680.00" style="fill:blue;stroke:blue;" y1="317.68" x1="817.68" id="32201" y2="180.00" /><line x2="950.00" style="fill:blue;stroke:blue;" y1="317.68" x1="817.68" id="32202" y2="320.00" /><line x2="820.00" style="fill:blue;stroke:blue;" y1="317.68" x1="817.68" id="32203" y2="450.00" /><line x2="820.00" style="fill:blue;stroke:blue;" y1="450.00" x1="820.00" id="32204" y2="530.00" /><line x2="817.68" style="fill:blue;stroke:blue;" y1="450.00" x1="820.00" id="32205" y2="317.68" /><line x2="950.00" style="fill:blue;stroke:blue;" y1="450.00" x1="820.00" id="32206" y2="450.00" /><line x2="852.32" style="fill:blue;stroke:blue;" y1="450.00" x1="820.00" id="32207" y2="352.32" /><line x2="950.00" style="fill:blue;stroke:blue;" y1="352.32" x1="852.32" id="32208" y2="320.00" /><line x2="820.00" style="fill:blue;stroke:blue;" y1="352.32" x1="852.32" id="32209" y2="450.00" /><line x2="900.00" style="fill:blue;stroke:blue;" y1="352.32" x1="852.32" id="32210" y2="400.00" /><line x2="750.00" style="fill:blue;stroke:blue;" y1="180.00" x1="900.00" id="32211" y2="180.00" /><line x2="950.00" style="fill:blue;stroke:blue;" y1="180.00" x1="900.00" id="32212" y2="150.00" /><line x2="950.00" style="fill:blue;stroke:blue;" y1="180.00" x1="900.00" id="32213" y2="220.00" /><line x2="947.68" style="fill:blue;stroke:blue;" y1="20.00" x1="920.00" id="32214" y2="82.32" /><line x2="900.00" style="fill:blue;stroke:blue;" y1="150.00" x1="950.00" id="32215" y2="180.00" /><line x2="947.68" style="fill:blue;stroke:blue;" y1="150.00" x1="950.00" id="32216" y2="82.32" /><line x2="900.00" style="fill:blue;stroke:blue;" y1="220.00" x1="950.00" id="32217" y2="180.00" /><line x2="817.68" style="fill:blue;stroke:blue;" y1="320.00" x1="950.00" id="32218" y2="317.68" /><line x2="950.00" style="fill:blue;stroke:blue;" y1="320.00" x1="950.00" id="32219" y2="450.00" /><line x2="1000.00" style="fill:blue;stroke:blue;" y1="320.00" x1="950.00" id="32220" y2="380.00" /><line x2="852.32" style="fill:blue;stroke:blue;" y1="320.00" x1="950.00" id="32221" y2="352.32" /><line x2="950.00" style="fill:blue;stroke:blue;" y1="450.00" x1="950.00" id="32222" y2="320.00" /><line x2="1000.00" style="fill:blue;stroke:blue;" y1="450.00" x1="950.00" id="32223" y2="380.00" /><line x2="820.00" style="fill:blue;stroke:blue;" y1="450.00" x1="950.00" id="32224" y2="450.00" /><line x2="950.00" style="fill:blue;stroke:blue;" y1="450.00" x1="950.00" id="32225" y2="530.00" /><line x2="950.00" style="fill:blue;stroke:blue;" y1="82.32" x1="947.68" id="32226" y2="150.00" /><line x2="920.00" style="fill:blue;stroke:blue;" y1="82.32" x1="947.68" id="32227" y2="20.00" /><line x2="982.32" style="fill:blue;stroke:blue;" y1="82.32" x1="947.68" id="32228" y2="47.68" /><line x2="947.68" style="fill:blue;stroke:blue;" y1="47.68" x1="982.32" id="32229" y2="82.32" /><line x2="950.00" style="fill:blue;stroke:blue;" y1="380.00" x1="1000.00" id="32230" y2="320.00" /><line x2="950.00" style="fill:blue;stroke:blue;" y1="380.00" x1="1000.00" id="32231" y2="450.00" /><line x2="67.68" style="fill:blue;stroke:blue;" y1="50.00" x1="20.00" id="32232" y2="82.32" /><line x2="20.00" style="fill:blue;stroke:blue;" y1="760.00" x1="20.00" id="32233" y2="710.00" /><line x2="50.00" style="fill:blue;stroke:blue;" y1="320.00" x1="60.00" id="32234" y2="270.00" /><line x2="100.00" style="fill:blue;stroke:blue;" y1="760.00" x1="100.00" id="32235" y2="710.00" /><line x2="340.00" style="fill:blue;stroke:blue;" y1="250.00" x1="350.00" id="32236" y2="200.00" /><line x2="550.00" style="fill:blue;stroke:blue;" y1="750.00" x1="550.00" id="32237" y2="700.00" /><line x2="650.00" style="fill:blue;stroke:blue;" y1="480.00" x1="650.00" id="32238" y2="430.00" /><line x2="820.00" style="fill:blue;stroke:blue;" y1="530.00" x1="820.00" id="32239" y2="450.00" /><line x2="852.32" style="fill:blue;stroke:blue;" y1="400.00" x1="900.00" id="32240" y2="352.32" /><line x2="950.00" style="fill:blue;stroke:blue;" y1="530.00" x1="950.00" id="32241" y2="450.00" /></svg>
