<?xml version="1.0" standalone="yes"?><!DOCTYPE svg PUBLIC "-//W3C//DTD SVG 1.1//EN" "http://www.w3.org/Graphics/SVG/1.1/DTD/svg11.dtd"[]><svg width="1050.00" height="800.00" id="31669" xmlns="http://www.w3.org/2000/svg" xmlns:xlink="http://www.w3.org/1999/xlink"><rect Type="system" x="20.00" id="31670" height="5.00" width="5.00" Name="8CIX-S" ID="30001298" Region="维纳尔" y="350.00" /><text y="350.00" x="20.00" id="31671">8CIX-S</text><rect Type="system" x="30.00" id="31673" height="5.00" width="5.00" Name="O-TVTD" ID="30001297" Region="维纳尔" y="400.00" /><text y="400.00" x="30.00" id="31674">O-TVTD</text><rect Type="system" x="20.00" id="31676" height="5.00" width="5.00" Name="R-KZK7" ID="30001265" Region="维纳尔" y="640.00" /><text y="640.00" x="20.00" id="31677">R-KZK7</text><rect Type="system" x="20.00" id="31679" height="5.00" width="5.00" Name="9-R6GU" ID="30001266" Region="维纳尔" y="710.00" /><text y="710.00" x="20.00" id="31680">9-R6GU</text><rect Type="system" x="50.00" id="31682" height="5.00" width="5.00" Name="0-XIDJ" ID="30001295" Region="维纳尔" y="450.00" /><text y="450.00" x="50.00" id="31683">0-XIDJ</text><rect Type="system" x="48.09" id="31685" height="5.00" width="5.00" Name="2TH-3F" ID="30001333" Region="维纳尔" y="220.96" /><text y="220.96" x="48.09" id="31686">2TH-3F</text><rect Type="system" x="50.00" id="31688" height="5.00" width="5.00" Name="WLF-D3" ID="30001336" Region="维纳尔" y="270.00" /><text y="270.00" x="50.00" id="31689">WLF-D3</text><rect Type="system" x="80.00" id="31691" height="5.00" width="5.00" Name="SBL5-R" ID="30001296" Region="维纳尔" y="500.00" /><text y="500.00" x="80.00" id="31692">SBL5-R</text><rect Type="system" x="50.00" id="31694" height="5.00" width="5.00" Name="Z-GY5S" ID="30001263" Region="维纳尔" y="600.00" /><text y="600.00" x="50.00" id="31695">Z-GY5S</text><rect Type="system" x="67.68" id="31697" height="5.00" width="5.00" Name="92D-OI" ID="30001312" Region="维纳尔" y="82.32" /><text y="82.32" x="67.68" id="31698">92D-OI</text><rect Type="system" x="91.91" id="31700" height="5.00" width="5.00" Name="H-AJ27" ID="30001331" Region="维纳尔" y="199.04" /><text y="199.04" x="91.91" id="31701">H-AJ27</text><rect Type="system" x="100.00" id="31703" height="5.00" width="5.00" Name="Y6-HPG" ID="30001262" Region="维纳尔" y="660.00" /><text y="660.00" x="100.00" id="31704">Y6-HPG</text><rect Type="system" x="100.00" id="31706" height="5.00" width="5.00" Name="Y-W1Q3" ID="30001261" Region="维纳尔" y="710.00" /><text y="710.00" x="100.00" id="31707">Y-W1Q3</text><rect Type="system" x="102.32" id="31709" height="5.00" width="5.00" Name="W3KK-R" ID="30001311" Region="维纳尔" y="47.68" /><text y="47.68" x="102.32" id="31710">W3KK-R</text><rect Type="system" x="100.00" id="31712" height="5.00" width="5.00" Name="SE-SHZ" ID="30001314" Region="维纳尔" y="150.00" /><text y="150.00" x="100.00" id="31713">SE-SHZ</text><rect Type="system" x="100.00" id="31715" height="5.00" width="5.00" Name="P-GKF5" ID="30001293" Region="维纳尔" y="450.00" /><text y="450.00" x="100.00" id="31716">P-GKF5</text><rect Type="system" x="117.15" id="31718" height="5.00" width="5.00" Name="D-SKWC" ID="30001299" Region="维纳尔" y="552.84" /><text y="552.84" x="117.15" id="31719">D-SKWC</text><rect Type="system" x="130.00" id="31721" height="5.00" width="5.00" Name="M2-2V1" ID="30001332" Region="维纳尔" y="230.00" /><text y="230.00" x="130.00" id="31722">M2-2V1</text><rect Type="system" x="120.00" id="31724" height="5.00" width="5.00" Name="E1F-E5" ID="30001334" Region="维纳尔" y="280.00" /><text y="280.00" x="120.00" id="31725">E1F-E5</text><rect Type="system" x="120.00" id="31727" height="5.00" width="5.00" Name="4S-PVC" ID="30001335" Region="维纳尔" y="330.00" /><text y="330.00" x="120.00" id="31728">4S-PVC</text><rect Type="system" x="150.00" id="31730" height="5.00" width="5.00" Name="KK-L97" ID="30001264" Region="维纳尔" y="630.00" /><text y="630.00" x="150.00" id="31731">KK-L97</text><rect Type="system" x="147.68" id="31733" height="5.00" width="5.00" Name="N-5476" ID="30001309" Region="维纳尔" y="102.32" /><text y="102.32" x="147.68" id="31734">N-5476</text><rect Type="system" x="182.32" id="31736" height="5.00" width="5.00" Name="PZOZ-K" ID="30001310" Region="维纳尔" y="67.68" /><text y="67.68" x="182.32" id="31737">PZOZ-K</text><rect Type="system" x="151.97" id="31739" height="5.00" width="5.00" Name="HBD-CC" ID="30001292" Region="维纳尔" y="518.36" /><text y="518.36" x="151.97" id="31740">HBD-CC</text><rect Type="system" x="180.88" id="31742" height="5.00" width="5.00" Name="E-7U8U" ID="30001294" Region="维纳尔" y="478.80" /><text y="478.80" x="180.88" id="31743">E-7U8U</text><rect Type="system" x="200.00" id="31745" height="5.00" width="5.00" Name="EK2-ET" ID="30001313" Region="维纳尔" y="20.00" /><text y="20.00" x="200.00" id="31746">EK2-ET</text><rect Type="system" x="200.00" id="31748" height="5.00" width="5.00" Name="N-Q5PW" ID="30001267" Region="维纳尔" y="650.00" /><text y="650.00" x="200.00" id="31749">N-Q5PW</text><rect Type="system" x="220.00" id="31751" height="5.00" width="5.00" Name="MQFX-Q" ID="30001278" Region="维纳尔" y="300.00" /><text y="300.00" x="220.00" id="31752">MQFX-Q</text><rect Type="system" x="200.00" id="31754" height="5.00" width="5.00" Name="N5Y-4N" ID="30001277" Region="维纳尔" y="350.00" /><text y="350.00" x="200.00" id="31755">N5Y-4N</text><rect Type="system" x="250.00" id="31757" height="5.00" width="5.00" Name="9-8BL8" ID="30001279" Region="维纳尔" y="250.00" /><text y="250.00" x="250.00" id="31758">9-8BL8</text><rect Type="system" x="250.00" id="31760" height="5.00" width="5.00" Name="6W-HRH" ID="30001276" Region="维纳尔" y="375.50" /><text y="375.50" x="250.00" id="31761">6W-HRH</text><rect Type="system" x="250.00" id="31763" height="5.00" width="5.00" Name="CSOA-B" ID="30001275" Region="维纳尔" y="424.50" /><text y="424.50" x="250.00" id="31764">CSOA-B</text><rect Type="system" x="250.00" id="31766" height="5.00" width="5.00" Name="S-1ZXZ" ID="30001308" Region="维纳尔" y="150.00" /><text y="150.00" x="250.00" id="31767">S-1ZXZ</text><rect Type="system" x="250.00" id="31769" height="5.00" width="5.00" Name="K3JR-J" ID="30001274" Region="维纳尔" y="480.00" /><text y="480.00" x="250.00" id="31770">K3JR-J</text><rect Type="system" x="300.01" id="31772" height="5.00" width="5.00" Name="D-8SI1" ID="30001272" Region="维纳尔" y="479.44" /><text y="479.44" x="300.01" id="31773">D-8SI1</text><rect Type="system" x="300.00" id="31775" height="5.00" width="5.00" Name="P-FSQE" ID="30001268" Region="维纳尔" y="620.00" /><text y="620.00" x="300.00" id="31776">P-FSQE</text><rect Type="system" x="300.00" id="31778" height="5.00" width="5.00" Name="430-BE" ID="30001340" Region="维纳尔" y="20.00" /><text y="20.00" x="300.00" id="31779">430-BE</text><rect Type="system" x="298.92" id="31781" height="5.00" width="5.00" Name="YP-J33" ID="30001271" Region="维纳尔" y="528.43" /><text y="528.43" x="298.92" id="31782">YP-J33</text><rect Type="system" x="300.00" id="31784" height="5.00" width="5.00" Name="6UQ-4U" ID="30001339" Region="维纳尔" y="100.00" /><text y="100.00" x="300.00" id="31785">6UQ-4U</text><rect Type="system" x="320.00" id="31787" height="5.00" width="5.00" Name="EIV-1W" ID="30001307" Region="维纳尔" y="150.00" /><text y="150.00" x="320.00" id="31788">EIV-1W</text><rect Type="system" x="321.07" id="31790" height="5.00" width="5.00" Name="1-Y6KI" ID="30001270" Region="维纳尔" y="572.13" /><text y="572.13" x="321.07" id="31791">1-Y6KI</text><rect Type="system" x="350.00" id="31793" height="5.00" width="5.00" Name="LHJ-2G" ID="30001337" Region="维纳尔" y="50.00" /><text y="50.00" x="350.00" id="31794">LHJ-2G</text><rect Type="system" x="340.00" id="31796" height="5.00" width="5.00" Name="9IPC-E" ID="30001306" Region="维纳尔" y="200.00" /><text y="200.00" x="340.00" id="31797">9IPC-E</text><rect Type="system" x="350.00" id="31799" height="5.00" width="5.00" Name="Y-4CFK" ID="30001291" Region="维纳尔" y="450.00" /><text y="450.00" x="350.00" id="31800">Y-4CFK</text><rect Type="system" x="360.00" id="31802" height="5.00" width="5.00" Name="H-PA29" ID="30001269" Region="维纳尔" y="610.00" /><text y="610.00" x="360.00" id="31803">H-PA29</text><rect Type="system" x="380.00" id="31805" height="5.00" width="5.00" Name="QHJ-FW" ID="30001305" Region="维纳尔" y="170.00" /><text y="170.00" x="380.00" id="31806">QHJ-FW</text><rect Type="system" x="400.00" id="31808" height="5.00" width="5.00" Name="AJCJ-1" ID="30001289" Region="维纳尔" y="420.00" /><text y="420.00" x="400.00" id="31809">AJCJ-1</text><rect Type="system" x="400.00" id="31811" height="5.00" width="5.00" Name="SHJO-J" ID="30001338" Region="维纳尔" y="50.00" /><text y="50.00" x="400.00" id="31812">SHJO-J</text><rect Type="system" x="400.00" id="31814" height="5.00" width="5.00" Name="6NJ8-V" ID="30001290" Region="维纳尔" y="480.00" /><text y="480.00" x="400.00" id="31815">6NJ8-V</text><rect Type="system" x="400.00" id="31817" height="5.00" width="5.00" Name="9-266Q" ID="30001273" Region="维纳尔" y="550.00" /><text y="550.00" x="400.00" id="31818">9-266Q</text><rect Type="system" x="420.00" id="31820" height="5.00" width="5.00" Name="Z0-TJW" ID="30001304" Region="维纳尔" y="200.00" /><text y="200.00" x="420.00" id="31821">Z0-TJW</text><rect Type="system" x="460.00" id="31823" height="5.00" width="5.00" Name="VG-6CH" ID="30001303" Region="维纳尔" y="230.00" /><text y="230.00" x="460.00" id="31824">VG-6CH</text><rect Type="system" x="450.00" id="31826" height="5.00" width="5.00" Name="N0C-UN" ID="30001302" Region="维纳尔" y="280.00" /><text y="280.00" x="450.00" id="31827">N0C-UN</text><rect Type="system" x="480.00" id="31829" height="5.00" width="5.00" Name="V3X-L8" ID="30001301" Region="维纳尔" y="320.00" /><text y="320.00" x="480.00" id="31830">V3X-L8</text><rect Type="system" x="450.00" id="31832" height="5.00" width="5.00" Name="4RX-EE" ID="30001300" Region="维纳尔" y="375.50" /><text y="375.50" x="450.00" id="31833">4RX-EE</text><rect Type="system" x="450.00" id="31835" height="5.00" width="5.00" Name="SS-GED" ID="30001288" Region="维纳尔" y="424.50" /><text y="424.50" x="450.00" id="31836">SS-GED</text><rect Type="system" x="480.00" id="31838" height="5.00" width="5.00" Name="BV-1JG" ID="30001286" Region="维纳尔" y="500.00" /><text y="500.00" x="480.00" id="31839">BV-1JG</text><rect Type="system" x="480.00" id="31841" height="5.00" width="5.00" Name="OJ-CT4" ID="30001341" Region="维纳尔" y="50.00" /><text y="50.00" x="480.00" id="31842">OJ-CT4</text><rect Type="system" x="500.00" id="31844" height="5.00" width="5.00" Name="0-BFTQ" ID="30001287" Region="维纳尔" y="450.00" /><text y="450.00" x="500.00" id="31845">0-BFTQ</text><rect Type="system" x="520.00" id="31847" height="5.00" width="5.00" Name="AZ-UWB" ID="30001342" Region="维纳尔" y="20.00" /><text y="20.00" x="520.00" id="31848">AZ-UWB</text><rect Type="system" x="550.00" id="31850" height="5.00" width="5.00" Name="H-S5BM" ID="30001343" Region="维纳尔" y="100.00" /><text y="100.00" x="550.00" id="31851">H-S5BM</text><rect Type="system" x="550.00" id="31853" height="5.00" width="5.00" Name="N6G-H3" ID="30001280" Region="维纳尔" y="650.00" /><text y="650.00" x="550.00" id="31854">N6G-H3</text><rect Type="system" x="550.00" id="31856" height="5.00" width="5.00" Name="3A1P-N" ID="30001281" Region="维纳尔" y="700.00" /><text y="700.00" x="550.00" id="31857">3A1P-N</text><rect Type="system" x="550.00" id="31859" height="5.00" width="5.00" Name="P-VYVL" ID="30001329" Region="维纳尔" y="380.00" /><text y="380.00" x="550.00" id="31860">P-VYVL</text><rect Type="system" x="579.04" id="31862" height="5.00" width="5.00" Name="PF-QHK" ID="30001324" Region="维纳尔" y="278.09" /><text y="278.09" x="579.04" id="31863">PF-QHK</text><rect Type="system" x="600.00" id="31865" height="5.00" width="5.00" Name="JURU-T" ID="30001315" Region="维纳尔" y="150.00" /><text y="150.00" x="600.00" id="31866">JURU-T</text><rect Type="system" x="600.96" id="31868" height="5.00" width="5.00" Name="XW-6TC" ID="30001325" Region="维纳尔" y="321.91" /><text y="321.91" x="600.96" id="31869">XW-6TC</text><rect Type="system" x="620.00" id="31871" height="5.00" width="5.00" Name="OZ-VAE" ID="30001282" Region="维纳尔" y="550.00" /><text y="550.00" x="620.00" id="31872">OZ-VAE</text><rect Type="system" x="620.00" id="31874" height="5.00" width="5.00" Name="92K-H2" ID="30001284" Region="维纳尔" y="620.00" /><text y="620.00" x="620.00" id="31875">92K-H2</text><rect Type="system" x="620.00" id="31877" height="5.00" width="5.00" Name="AA-YRK" ID="30001285" Region="维纳尔" y="680.00" /><text y="680.00" x="620.00" id="31878">AA-YRK</text><rect Type="system" x="620.00" id="31880" height="5.00" width="5.00" Name="MC6-5J" ID="30001316" Region="维纳尔" y="80.00" /><text y="80.00" x="620.00" id="31881">MC6-5J</text><rect Type="system" x="640.00" id="31883" height="5.00" width="5.00" Name="6ZJ-SC" ID="30001328" Region="维纳尔" y="380.00" /><text y="380.00" x="640.00" id="31884">6ZJ-SC</text><rect Type="system" x="650.00" id="31886" height="5.00" width="5.00" Name="Q-7SUI" ID="30001326" Region="维纳尔" y="280.00" /><text y="280.00" x="650.00" id="31887">Q-7SUI</text><rect Type="system" x="650.00" id="31889" height="5.00" width="5.00" Name="HD-JVQ" ID="30001330" Region="维纳尔" y="430.00" /><text y="430.00" x="650.00" id="31890">HD-JVQ</text><rect Type="system" x="667.46" id="31892" height="5.00" width="5.00" Name="4-7IL9" ID="30001318" Region="维纳尔" y="47.48" /><text y="47.48" x="667.46" id="31893">4-7IL9</text><rect Type="system" x="678.66" id="31895" height="5.00" width="5.00" Name="65V-RH" ID="30001317" Region="维纳尔" y="122.26" /><text y="122.26" x="678.66" id="31896">65V-RH</text><rect Type="system" x="680.00" id="31898" height="5.00" width="5.00" Name="0-O2UT" ID="30001322" Region="维纳尔" y="180.00" /><text y="180.00" x="680.00" id="31899">0-O2UT</text><rect Type="system" x="680.00" id="31901" height="5.00" width="5.00" Name="VVD-O6" ID="30001327" Region="维纳尔" y="340.00" /><text y="340.00" x="680.00" id="31902">VVD-O6</text><rect Type="system" x="703.88" id="31904" height="5.00" width="5.00" Name="RQ9-OZ" ID="30001320" Region="维纳尔" y="80.26" /><text y="80.26" x="703.88" id="31905">RQ9-OZ</text><rect Type="system" x="720.00" id="31907" height="5.00" width="5.00" Name="A-AFGR" ID="30001283" Region="维纳尔" y="650.00" /><text y="650.00" x="720.00" id="31908">A-AFGR</text><rect Type="system" x="750.00" id="31910" height="5.00" width="5.00" Name="B-CZXG" ID="30001321" Region="维纳尔" y="120.00" /><text y="120.00" x="750.00" id="31911">B-CZXG</text><rect Type="system" x="750.00" id="31913" height="5.00" width="5.00" Name="2PLH-3" ID="30001319" Region="维纳尔" y="50.00" /><text y="50.00" x="750.00" id="31914">2PLH-3</text><rect Type="system" x="750.00" id="31916" height="5.00" width="5.00" Name="Q61Y-F" ID="30001323" Region="维纳尔" y="180.00" /><text y="180.00" x="750.00" id="31917">Q61Y-F</text><rect Type="system" x="817.68" id="31919" height="5.00" width="5.00" Name="FHB-QA" ID="30001344" Region="维纳尔" y="317.68" /><text y="317.68" x="817.68" id="31920">FHB-QA</text><rect Type="system" x="820.00" id="31922" height="5.00" width="5.00" Name="G9D-XW" ID="30001348" Region="维纳尔" y="450.00" /><text y="450.00" x="820.00" id="31923">G9D-XW</text><rect Type="system" x="852.32" id="31925" height="5.00" width="5.00" Name="42XJ-N" ID="30001349" Region="维纳尔" y="352.32" /><text y="352.32" x="852.32" id="31926">42XJ-N</text><rect Type="system" x="900.00" id="31928" height="5.00" width="5.00" Name="L-IE41" ID="30001350" Region="维纳尔" y="180.00" /><text y="180.00" x="900.00" id="31929">L-IE41</text><rect Type="system" x="920.00" id="31931" height="5.00" width="5.00" Name="ZD4-G9" ID="30001354" Region="维纳尔" y="20.00" /><text y="20.00" x="920.00" id="31932">ZD4-G9</text><rect Type="system" x="950.00" id="31934" height="5.00" width="5.00" Name="VG-QW1" ID="30001351" Region="维纳尔" y="150.00" /><text y="150.00" x="950.00" id="31935">VG-QW1</text><rect Type="system" x="950.00" id="31937" height="5.00" width="5.00" Name="2IBE-N" ID="30001352" Region="维纳尔" y="220.00" /><text y="220.00" x="950.00" id="31938">2IBE-N</text><rect Type="system" x="950.00" id="31940" height="5.00" width="5.00" Name="Z3U-GI" ID="30001345" Region="维纳尔" y="320.00" /><text y="320.00" x="950.00" id="31941">Z3U-GI</text><rect Type="system" x="950.00" id="31943" height="5.00" width="5.00" Name="B3QP-K" ID="30001346" Region="维纳尔" y="450.00" /><text y="450.00" x="950.00" id="31944">B3QP-K</text><rect Type="system" x="947.68" id="31946" height="5.00" width="5.00" Name="YJ3-UT" ID="30001353" Region="维纳尔" y="82.32" /><text y="82.32" x="947.68" id="31947">YJ3-UT</text><rect Type="system" x="982.32" id="31949" height="5.00" width="5.00" Name="C2-DDA" ID="30001355" Region="维纳尔" y="47.68" /><text y="47.68" x="982.32" id="31950">C2-DDA</text><rect Type="system" x="1000.00" id="31952" height="5.00" width="5.00" Name="GVZ-1W" ID="30001347" Region="维纳尔" y="380.00" /><text y="380.00" x="1000.00" id="31953">GVZ-1W</text><rect Type="system" x="20.00" id="31955" height="5.00" width="5.00" Name="MA-VDX" ID="30004369" Region="血脉" y="50.00" /><text y="50.00" x="20.00" id="31956">MA-VDX</text><rect Type="system" x="20.00" id="31958" height="5.00" width="5.00" Name="4U90-Z" ID="30002889" Region="德克廉" y="760.00" /><text y="760.00" x="20.00" id="31959">4U90-Z</text><rect Type="system" x="60.00" id="31961" height="5.00" width="5.00" Name="DKUK-G" ID="30002920" Region="德克廉" y="320.00" /><text y="320.00" x="60.00" id="31962">DKUK-G</text><rect Type="system" x="100.00" id="31964" height="5.00" width="5.00" Name="UMI-KK" ID="30000858" Region="特布特" y="760.00" /><text y="760.00" x="100.00" id="31965">UMI-KK</text><rect Type="system" x="350.00" id="31967" height="5.00" width="5.00" Name="UQ9-3C" ID="30004310" Region="血脉" y="250.00" /><text y="250.00" x="350.00" id="31968">UQ9-3C</text><rect Type="system" x="550.00" id="31970" height="5.00" width="5.00" Name="Q-CAB2" ID="30000872" Region="特布特" y="750.00" /><text y="750.00" x="550.00" id="31971">Q-CAB2</text><rect Type="system" x="650.00" id="31973" height="5.00" width="5.00" Name="MTO2-2" ID="30005189" Region="佩利根弗" y="480.00" /><text y="480.00" x="650.00" id="31974">MTO2-2</text><rect Type="system" x="820.00" id="31976" height="5.00" width="5.00" Name="NJ4X-S" ID="30000896" Region="特布特" y="530.00" /><text y="530.00" x="820.00" id="31977">NJ4X-S</text><rect Type="system" x="900.00" id="31979" height="5.00" width="5.00" Name="OE-4HB" ID="30003657" Region="特纳" y="400.00" /><text y="400.00" x="900.00" id="31980">OE-4HB</text><rect Type="system" x="950.00" id="31982" height="5.00" width="5.00" Name="EOY-BG" ID="30003612" Region="特纳" y="530.00" /><text y="530.00" x="950.00" id="31983">EOY-BG</text><rect Type="system" x="360.00" id="31985" height="5.00" width="5.00" Name="荒渊" ID="30100000" Region="赞颂之域" y="680.00" /><text y="680.00" x="360.00" id="31986">荒渊</text><line style="stroke:blue;fill:blue;" id="31988" x2="30.00" x1="20.00" y1="350.00" y2="400.00" /><line style="stroke:blue;fill:blue;" id="31989" x2="50.00" x1="30.00" y1="400.00" y2="450.00" /><line style="stroke:blue;fill:blue;" id="31990" x2="20.00" x1="30.00" y1="400.00" y2="350.00" /><line style="stroke:blue;fill:blue;" id="31991" x2="50.00" x1="20.00" y1="640.00" y2="600.00" /><line style="stroke:blue;fill:blue;" id="31992" x2="20.00" x1="20.00" y1="640.00" y2="710.00" /><line style="stroke:blue;fill:blue;" id="31993" x2="20.00" x1="20.00" y1="710.00" y2="640.00" /><line style="stroke:blue;fill:blue;" id="31994" x2="20.00" x1="20.00" y1="710.00" y2="760.00" /><line style="stroke:blue;fill:blue;" id="31995" x2="100.00" x1="50.00" y1="450.00" y2="450.00" /><line style="stroke:blue;fill:blue;" id="31996" x2="80.00" x1="50.00" y1="450.00" y2="500.00" /><line style="stroke:blue;fill:blue;" id="31997" x2="30.00" x1="50.00" y1="450.00" y2="400.00" /><line style="stroke:blue;fill:blue;" id="31998" x2="91.91" x1="48.09" y1="220.96" y2="199.04" /><line style="stroke:blue;fill:blue;" id="31999" x2="50.00" x1="48.09" y1="220.96" y2="270.00" /><line style="stroke:blue;fill:blue;" id="32000" x2="48.09" x1="50.00" y1="270.00" y2="220.96" /><line style="stroke:blue;fill:blue;" id="32001" x2="60.00" x1="50.00" y1="270.00" y2="320.00" /><line style="stroke:blue;fill:blue;" id="32002" x2="151.97" x1="80.00" y1="500.00" y2="518.36" /><line style="stroke:blue;fill:blue;" id="32003" x2="50.00" x1="80.00" y1="500.00" y2="450.00" /><line style="stroke:blue;fill:blue;" id="32004" x2="117.15" x1="80.00" y1="500.00" y2="552.84" /><line style="stroke:blue;fill:blue;" id="32005" x2="100.00" x1="50.00" y1="600.00" y2="660.00" /><line style="stroke:blue;fill:blue;" id="32006" x2="150.00" x1="50.00" y1="600.00" y2="630.00" /><line style="stroke:blue;fill:blue;" id="32007" x2="20.00" x1="50.00" y1="600.00" y2="640.00" /><line style="stroke:blue;fill:blue;" id="32008" x2="147.68" x1="67.68" y1="82.32" y2="102.32" /><line style="stroke:blue;fill:blue;" id="32009" x2="20.00" x1="67.68" y1="82.32" y2="50.00" /><line style="stroke:blue;fill:blue;" id="32010" x2="100.00" x1="91.91" y1="199.04" y2="150.00" /><line style="stroke:blue;fill:blue;" id="32011" x2="130.00" x1="91.91" y1="199.04" y2="230.00" /><line style="stroke:blue;fill:blue;" id="32012" x2="48.09" x1="91.91" y1="199.04" y2="220.96" /><line style="stroke:blue;fill:blue;" id="32013" x2="100.00" x1="100.00" y1="660.00" y2="710.00" /><line style="stroke:blue;fill:blue;" id="32014" x2="50.00" x1="100.00" y1="660.00" y2="600.00" /><line style="stroke:blue;fill:blue;" id="32015" x2="150.00" x1="100.00" y1="660.00" y2="630.00" /><line style="stroke:blue;fill:blue;" id="32016" x2="100.00" x1="100.00" y1="710.00" y2="760.00" /><line style="stroke:blue;fill:blue;" id="32017" x2="100.00" x1="100.00" y1="710.00" y2="660.00" /><line style="stroke:blue;fill:blue;" id="32018" x2="182.32" x1="102.32" y1="47.68" y2="67.68" /><line style="stroke:blue;fill:blue;" id="32019" x2="147.68" x1="100.00" y1="150.00" y2="102.32" /><line style="stroke:blue;fill:blue;" id="32020" x2="91.91" x1="100.00" y1="150.00" y2="199.04" /><line style="stroke:blue;fill:blue;" id="32021" x2="151.97" x1="100.00" y1="450.00" y2="518.36" /><line style="stroke:blue;fill:blue;" id="32022" x2="180.88" x1="100.00" y1="450.00" y2="478.80" /><line style="stroke:blue;fill:blue;" id="32023" x2="50.00" x1="100.00" y1="450.00" y2="450.00" /><line style="stroke:blue;fill:blue;" id="32024" x2="151.97" x1="117.15" y1="552.84" y2="518.36" /><line style="stroke:blue;fill:blue;" id="32025" x2="80.00" x1="117.15" y1="552.84" y2="500.00" /><line style="stroke:blue;fill:blue;" id="32026" x2="91.91" x1="130.00" y1="230.00" y2="199.04" /><line style="stroke:blue;fill:blue;" id="32027" x2="120.00" x1="130.00" y1="230.00" y2="280.00" /><line style="stroke:blue;fill:blue;" id="32028" x2="130.00" x1="120.00" y1="280.00" y2="230.00" /><line style="stroke:blue;fill:blue;" id="32029" x2="120.00" x1="120.00" y1="280.00" y2="330.00" /><line style="stroke:blue;fill:blue;" id="32030" x2="120.00" x1="120.00" y1="330.00" y2="280.00" /><line style="stroke:blue;fill:blue;" id="32031" x2="100.00" x1="150.00" y1="630.00" y2="660.00" /><line style="stroke:blue;fill:blue;" id="32032" x2="50.00" x1="150.00" y1="630.00" y2="600.00" /><line style="stroke:blue;fill:blue;" id="32033" x2="200.00" x1="150.00" y1="630.00" y2="650.00" /><line style="stroke:blue;fill:blue;" id="32034" x2="250.00" x1="147.68" y1="102.32" y2="150.00" /><line style="stroke:blue;fill:blue;" id="32035" x2="182.32" x1="147.68" y1="102.32" y2="67.68" /><line style="stroke:blue;fill:blue;" id="32036" x2="67.68" x1="147.68" y1="102.32" y2="82.32" /><line style="stroke:blue;fill:blue;" id="32037" x2="100.00" x1="147.68" y1="102.32" y2="150.00" /><line style="stroke:blue;fill:blue;" id="32038" x2="147.68" x1="182.32" y1="67.68" y2="102.32" /><line style="stroke:blue;fill:blue;" id="32039" x2="102.32" x1="182.32" y1="67.68" y2="47.68" /><line style="stroke:blue;fill:blue;" id="32040" x2="200.00" x1="182.32" y1="67.68" y2="20.00" /><line style="stroke:blue;fill:blue;" id="32041" x2="350.00" x1="182.32" y1="67.68" y2="50.00" /><line style="stroke:blue;fill:blue;" id="32042" x2="300.01" x1="151.97" y1="518.36" y2="479.44" /><line style="stroke:blue;fill:blue;" id="32043" x2="100.00" x1="151.97" y1="518.36" y2="450.00" /><line style="stroke:blue;fill:blue;" id="32044" x2="180.88" x1="151.97" y1="518.36" y2="478.80" /><line style="stroke:blue;fill:blue;" id="32045" x2="80.00" x1="151.97" y1="518.36" y2="500.00" /><line style="stroke:blue;fill:blue;" id="32046" x2="117.15" x1="151.97" y1="518.36" y2="552.84" /><line style="stroke:blue;fill:blue;" id="32047" x2="151.97" x1="180.88" y1="478.80" y2="518.36" /><line style="stroke:blue;fill:blue;" id="32048" x2="100.00" x1="180.88" y1="478.80" y2="450.00" /><line style="stroke:blue;fill:blue;" id="32049" x2="182.32" x1="200.00" y1="20.00" y2="67.68" /><line style="stroke:blue;fill:blue;" id="32050" x2="150.00" x1="200.00" y1="650.00" y2="630.00" /><line style="stroke:blue;fill:blue;" id="32051" x2="300.00" x1="200.00" y1="650.00" y2="620.00" /><line style="stroke:blue;fill:blue;" id="32052" x2="200.00" x1="220.00" y1="300.00" y2="350.00" /><line style="stroke:blue;fill:blue;" id="32053" x2="250.00" x1="220.00" y1="300.00" y2="250.00" /><line style="stroke:blue;fill:blue;" id="32054" x2="250.00" x1="200.00" y1="350.00" y2="375.50" /><line style="stroke:blue;fill:blue;" id="32055" x2="220.00" x1="200.00" y1="350.00" y2="300.00" /><line style="stroke:blue;fill:blue;" id="32056" x2="220.00" x1="250.00" y1="250.00" y2="300.00" /><line style="stroke:blue;fill:blue;" id="32057" x2="250.00" x1="250.00" y1="375.50" y2="424.50" /><line style="stroke:blue;fill:blue;" id="32058" x2="200.00" x1="250.00" y1="375.50" y2="350.00" /><line style="stroke:blue;fill:blue;" id="32059" x2="250.00" x1="250.00" y1="424.50" y2="480.00" /><line style="stroke:blue;fill:blue;" id="32060" x2="250.00" x1="250.00" y1="424.50" y2="375.50" /><line style="stroke:blue;fill:blue;" id="32061" x2="320.00" x1="250.00" y1="150.00" y2="150.00" /><line style="stroke:blue;fill:blue;" id="32062" x2="147.68" x1="250.00" y1="150.00" y2="102.32" /><line style="stroke:blue;fill:blue;" id="32063" x2="300.01" x1="250.00" y1="480.00" y2="479.44" /><line style="stroke:blue;fill:blue;" id="32064" x2="250.00" x1="250.00" y1="480.00" y2="424.50" /><line style="stroke:blue;fill:blue;" id="32065" x2="298.92" x1="300.01" y1="479.44" y2="528.43" /><line style="stroke:blue;fill:blue;" id="32066" x2="400.00" x1="300.01" y1="479.44" y2="550.00" /><line style="stroke:blue;fill:blue;" id="32067" x2="250.00" x1="300.01" y1="479.44" y2="480.00" /><line style="stroke:blue;fill:blue;" id="32068" x2="151.97" x1="300.01" y1="479.44" y2="518.36" /><line style="stroke:blue;fill:blue;" id="32069" x2="200.00" x1="300.00" y1="620.00" y2="650.00" /><line style="stroke:blue;fill:blue;" id="32070" x2="360.00" x1="300.00" y1="620.00" y2="610.00" /><line style="stroke:blue;fill:blue;" id="32071" x2="350.00" x1="300.00" y1="20.00" y2="50.00" /><line style="stroke:blue;fill:blue;" id="32072" x2="321.07" x1="298.92" y1="528.43" y2="572.13" /><line style="stroke:blue;fill:blue;" id="32073" x2="300.01" x1="298.92" y1="528.43" y2="479.44" /><line style="stroke:blue;fill:blue;" id="32074" x2="350.00" x1="300.00" y1="100.00" y2="50.00" /><line style="stroke:blue;fill:blue;" id="32075" x2="380.00" x1="320.00" y1="150.00" y2="170.00" /><line style="stroke:blue;fill:blue;" id="32076" x2="340.00" x1="320.00" y1="150.00" y2="200.00" /><line style="stroke:blue;fill:blue;" id="32077" x2="250.00" x1="320.00" y1="150.00" y2="150.00" /><line style="stroke:blue;fill:blue;" id="32078" x2="360.00" x1="321.07" y1="572.13" y2="610.00" /><line style="stroke:blue;fill:blue;" id="32079" x2="298.92" x1="321.07" y1="572.13" y2="528.43" /><line style="stroke:blue;fill:blue;" id="32080" x2="400.00" x1="321.07" y1="572.13" y2="550.00" /><line style="stroke:blue;fill:blue;" id="32081" x2="182.32" x1="350.00" y1="50.00" y2="67.68" /><line style="stroke:blue;fill:blue;" id="32082" x2="400.00" x1="350.00" y1="50.00" y2="50.00" /><line style="stroke:blue;fill:blue;" id="32083" x2="300.00" x1="350.00" y1="50.00" y2="100.00" /><line style="stroke:blue;fill:blue;" id="32084" x2="300.00" x1="350.00" y1="50.00" y2="20.00" /><line style="stroke:blue;fill:blue;" id="32085" x2="380.00" x1="340.00" y1="200.00" y2="170.00" /><line style="stroke:blue;fill:blue;" id="32086" x2="320.00" x1="340.00" y1="200.00" y2="150.00" /><line style="stroke:blue;fill:blue;" id="32087" x2="350.00" x1="340.00" y1="200.00" y2="250.00" /><line style="stroke:blue;fill:blue;" id="32088" x2="400.00" x1="350.00" y1="450.00" y2="480.00" /><line style="stroke:blue;fill:blue;" id="32089" x2="300.00" x1="360.00" y1="610.00" y2="620.00" /><line style="stroke:blue;fill:blue;" id="32090" x2="321.07" x1="360.00" y1="610.00" y2="572.13" /><line style="stroke:blue;fill:blue;" id="32091" x2="400.00" x1="360.00" y1="610.00" y2="550.00" /><line style="stroke:blue;fill:blue;" id="32092" x2="420.00" x1="380.00" y1="170.00" y2="200.00" /><line style="stroke:blue;fill:blue;" id="32093" x2="340.00" x1="380.00" y1="170.00" y2="200.00" /><line style="stroke:blue;fill:blue;" id="32094" x2="320.00" x1="380.00" y1="170.00" y2="150.00" /><line style="stroke:blue;fill:blue;" id="32095" x2="600.00" x1="380.00" y1="170.00" y2="150.00" /><line style="stroke:blue;fill:blue;" id="32096" x2="450.00" x1="400.00" y1="420.00" y2="424.50" /><line style="stroke:blue;fill:blue;" id="32097" x2="400.00" x1="400.00" y1="420.00" y2="480.00" /><line style="stroke:blue;fill:blue;" id="32098" x2="350.00" x1="400.00" y1="50.00" y2="50.00" /><line style="stroke:blue;fill:blue;" id="32099" x2="480.00" x1="400.00" y1="50.00" y2="50.00" /><line style="stroke:blue;fill:blue;" id="32100" x2="480.00" x1="400.00" y1="480.00" y2="500.00" /><line style="stroke:blue;fill:blue;" id="32101" x2="400.00" x1="400.00" y1="480.00" y2="420.00" /><line style="stroke:blue;fill:blue;" id="32102" x2="350.00" x1="400.00" y1="480.00" y2="450.00" /><line style="stroke:blue;fill:blue;" id="32103" x2="360.00" x1="400.00" y1="550.00" y2="610.00" /><line style="stroke:blue;fill:blue;" id="32104" x2="321.07" x1="400.00" y1="550.00" y2="572.13" /><line style="stroke:blue;fill:blue;" id="32105" x2="300.01" x1="400.00" y1="550.00" y2="479.44" /><line style="stroke:blue;fill:blue;" id="32106" x2="550.00" x1="400.00" y1="550.00" y2="650.00" /><line style="stroke:blue;fill:blue;" id="32107" x2="480.00" x1="400.00" y1="550.00" y2="500.00" /><line style="stroke:blue;fill:blue;" id="32108" x2="460.00" x1="420.00" y1="200.00" y2="230.00" /><line style="stroke:blue;fill:blue;" id="32109" x2="380.00" x1="420.00" y1="200.00" y2="170.00" /><line style="stroke:blue;fill:blue;" id="32110" x2="450.00" x1="460.00" y1="230.00" y2="280.00" /><line style="stroke:blue;fill:blue;" id="32111" x2="420.00" x1="460.00" y1="230.00" y2="200.00" /><line style="stroke:blue;fill:blue;" id="32112" x2="579.04" x1="460.00" y1="230.00" y2="278.09" /><line style="stroke:blue;fill:blue;" id="32113" x2="480.00" x1="450.00" y1="280.00" y2="320.00" /><line style="stroke:blue;fill:blue;" id="32114" x2="460.00" x1="450.00" y1="280.00" y2="230.00" /><line style="stroke:blue;fill:blue;" id="32115" x2="450.00" x1="480.00" y1="320.00" y2="375.50" /><line style="stroke:blue;fill:blue;" id="32116" x2="450.00" x1="480.00" y1="320.00" y2="280.00" /><line style="stroke:blue;fill:blue;" id="32117" x2="450.00" x1="450.00" y1="375.50" y2="424.50" /><line style="stroke:blue;fill:blue;" id="32118" x2="480.00" x1="450.00" y1="375.50" y2="320.00" /><line style="stroke:blue;fill:blue;" id="32119" x2="500.00" x1="450.00" y1="424.50" y2="450.00" /><line style="stroke:blue;fill:blue;" id="32120" x2="400.00" x1="450.00" y1="424.50" y2="420.00" /><line style="stroke:blue;fill:blue;" id="32121" x2="450.00" x1="450.00" y1="424.50" y2="375.50" /><line style="stroke:blue;fill:blue;" id="32122" x2="400.00" x1="480.00" y1="500.00" y2="550.00" /><line style="stroke:blue;fill:blue;" id="32123" x2="500.00" x1="480.00" y1="500.00" y2="450.00" /><line style="stroke:blue;fill:blue;" id="32124" x2="400.00" x1="480.00" y1="500.00" y2="480.00" /><line style="stroke:blue;fill:blue;" id="32125" x2="400.00" x1="480.00" y1="50.00" y2="50.00" /><line style="stroke:blue;fill:blue;" id="32126" x2="520.00" x1="480.00" y1="50.00" y2="20.00" /><line style="stroke:blue;fill:blue;" id="32127" x2="550.00" x1="480.00" y1="50.00" y2="100.00" /><line style="stroke:blue;fill:blue;" id="32128" x2="480.00" x1="500.00" y1="450.00" y2="500.00" /><line style="stroke:blue;fill:blue;" id="32129" x2="450.00" x1="500.00" y1="450.00" y2="424.50" /><line style="stroke:blue;fill:blue;" id="32130" x2="480.00" x1="520.00" y1="20.00" y2="50.00" /><line style="stroke:blue;fill:blue;" id="32131" x2="480.00" x1="550.00" y1="100.00" y2="50.00" /><line style="stroke:blue;fill:blue;" id="32132" x2="400.00" x1="550.00" y1="650.00" y2="550.00" /><line style="stroke:blue;fill:blue;" id="32133" x2="550.00" x1="550.00" y1="650.00" y2="700.00" /><line style="stroke:blue;fill:blue;" id="32134" x2="620.00" x1="550.00" y1="650.00" y2="550.00" /><line style="stroke:blue;fill:blue;" id="32135" x2="720.00" x1="550.00" y1="650.00" y2="650.00" /><line style="stroke:blue;fill:blue;" id="32136" x2="620.00" x1="550.00" y1="650.00" y2="620.00" /><line style="stroke:blue;fill:blue;" id="32137" x2="550.00" x1="550.00" y1="700.00" y2="750.00" /><line style="stroke:blue;fill:blue;" id="32138" x2="550.00" x1="550.00" y1="700.00" y2="650.00" /><line style="stroke:blue;fill:blue;" id="32139" x2="600.96" x1="550.00" y1="380.00" y2="321.91" /><line style="stroke:blue;fill:blue;" id="32140" x2="680.00" x1="550.00" y1="380.00" y2="340.00" /><line style="stroke:blue;fill:blue;" id="32141" x2="640.00" x1="550.00" y1="380.00" y2="380.00" /><line style="stroke:blue;fill:blue;" id="32142" x2="650.00" x1="550.00" y1="380.00" y2="430.00" /><line style="stroke:blue;fill:blue;" id="32143" x2="460.00" x1="579.04" y1="278.09" y2="230.00" /><line style="stroke:blue;fill:blue;" id="32144" x2="600.96" x1="579.04" y1="278.09" y2="321.91" /><line style="stroke:blue;fill:blue;" id="32145" x2="650.00" x1="579.04" y1="278.09" y2="280.00" /><line style="stroke:blue;fill:blue;" id="32146" x2="380.00" x1="600.00" y1="150.00" y2="170.00" /><line style="stroke:blue;fill:blue;" id="32147" x2="620.00" x1="600.00" y1="150.00" y2="80.00" /><line style="stroke:blue;fill:blue;" id="32148" x2="678.66" x1="600.00" y1="150.00" y2="122.26" /><line style="stroke:blue;fill:blue;" id="32149" x2="680.00" x1="600.00" y1="150.00" y2="180.00" /><line style="stroke:blue;fill:blue;" id="32150" x2="579.04" x1="600.96" y1="321.91" y2="278.09" /><line style="stroke:blue;fill:blue;" id="32151" x2="680.00" x1="600.96" y1="321.91" y2="340.00" /><line style="stroke:blue;fill:blue;" id="32152" x2="550.00" x1="600.96" y1="321.91" y2="380.00" /><line style="stroke:blue;fill:blue;" id="32153" x2="550.00" x1="620.00" y1="550.00" y2="650.00" /><line style="stroke:blue;fill:blue;" id="32154" x2="720.00" x1="620.00" y1="550.00" y2="650.00" /><line style="stroke:blue;fill:blue;" id="32155" x2="620.00" x1="620.00" y1="550.00" y2="620.00" /><line style="stroke:blue;fill:blue;" id="32156" x2="550.00" x1="620.00" y1="620.00" y2="650.00" /><line style="stroke:blue;fill:blue;" id="32157" x2="620.00" x1="620.00" y1="620.00" y2="550.00" /><line style="stroke:blue;fill:blue;" id="32158" x2="720.00" x1="620.00" y1="620.00" y2="650.00" /><line style="stroke:blue;fill:blue;" id="32159" x2="620.00" x1="620.00" y1="620.00" y2="680.00" /><line style="stroke:blue;fill:blue;" id="32160" x2="720.00" x1="620.00" y1="680.00" y2="650.00" /><line style="stroke:blue;fill:blue;" id="32161" x2="620.00" x1="620.00" y1="680.00" y2="620.00" /><line style="stroke:blue;fill:blue;" id="32162" x2="600.00" x1="620.00" y1="80.00" y2="150.00" /><line style="stroke:blue;fill:blue;" id="32163" x2="667.46" x1="620.00" y1="80.00" y2="47.48" /><line style="stroke:blue;fill:blue;" id="32164" x2="703.88" x1="620.00" y1="80.00" y2="80.26" /><line style="stroke:blue;fill:blue;" id="32165" x2="750.00" x1="620.00" y1="80.00" y2="120.00" /><line style="stroke:blue;fill:blue;" id="32166" x2="680.00" x1="640.00" y1="380.00" y2="340.00" /><line style="stroke:blue;fill:blue;" id="32167" x2="550.00" x1="640.00" y1="380.00" y2="380.00" /><line style="stroke:blue;fill:blue;" id="32168" x2="579.04" x1="650.00" y1="280.00" y2="278.09" /><line style="stroke:blue;fill:blue;" id="32169" x2="680.00" x1="650.00" y1="430.00" y2="340.00" /><line style="stroke:blue;fill:blue;" id="32170" x2="550.00" x1="650.00" y1="430.00" y2="380.00" /><line style="stroke:blue;fill:blue;" id="32171" x2="650.00" x1="650.00" y1="430.00" y2="480.00" /><line style="stroke:blue;fill:blue;" id="32172" x2="620.00" x1="667.46" y1="47.48" y2="80.00" /><line style="stroke:blue;fill:blue;" id="32173" x2="750.00" x1="667.46" y1="47.48" y2="50.00" /><line style="stroke:blue;fill:blue;" id="32174" x2="600.00" x1="678.66" y1="122.26" y2="150.00" /><line style="stroke:blue;fill:blue;" id="32175" x2="750.00" x1="678.66" y1="122.26" y2="120.00" /><line style="stroke:blue;fill:blue;" id="32176" x2="600.00" x1="680.00" y1="180.00" y2="150.00" /><line style="stroke:blue;fill:blue;" id="32177" x2="750.00" x1="680.00" y1="180.00" y2="120.00" /><line style="stroke:blue;fill:blue;" id="32178" x2="750.00" x1="680.00" y1="180.00" y2="180.00" /><line style="stroke:blue;fill:blue;" id="32179" x2="817.68" x1="680.00" y1="180.00" y2="317.68" /><line style="stroke:blue;fill:blue;" id="32180" x2="600.96" x1="680.00" y1="340.00" y2="321.91" /><line style="stroke:blue;fill:blue;" id="32181" x2="640.00" x1="680.00" y1="340.00" y2="380.00" /><line style="stroke:blue;fill:blue;" id="32182" x2="550.00" x1="680.00" y1="340.00" y2="380.00" /><line style="stroke:blue;fill:blue;" id="32183" x2="650.00" x1="680.00" y1="340.00" y2="430.00" /><line style="stroke:blue;fill:blue;" id="32184" x2="620.00" x1="703.88" y1="80.26" y2="80.00" /><line style="stroke:blue;fill:blue;" id="32185" x2="750.00" x1="703.88" y1="80.26" y2="50.00" /><line style="stroke:blue;fill:blue;" id="32186" x2="750.00" x1="703.88" y1="80.26" y2="120.00" /><line style="stroke:blue;fill:blue;" id="32187" x2="550.00" x1="720.00" y1="650.00" y2="650.00" /><line style="stroke:blue;fill:blue;" id="32188" x2="620.00" x1="720.00" y1="650.00" y2="550.00" /><line style="stroke:blue;fill:blue;" id="32189" x2="620.00" x1="720.00" y1="650.00" y2="620.00" /><line style="stroke:blue;fill:blue;" id="32190" x2="620.00" x1="720.00" y1="650.00" y2="680.00" /><line style="stroke:blue;fill:blue;" id="32191" x2="620.00" x1="750.00" y1="120.00" y2="80.00" /><line style="stroke:blue;fill:blue;" id="32192" x2="678.66" x1="750.00" y1="120.00" y2="122.26" /><line style="stroke:blue;fill:blue;" id="32193" x2="750.00" x1="750.00" y1="120.00" y2="50.00" /><line style="stroke:blue;fill:blue;" id="32194" x2="703.88" x1="750.00" y1="120.00" y2="80.26" /><line style="stroke:blue;fill:blue;" id="32195" x2="680.00" x1="750.00" y1="120.00" y2="180.00" /><line style="stroke:blue;fill:blue;" id="32196" x2="667.46" x1="750.00" y1="50.00" y2="47.48" /><line style="stroke:blue;fill:blue;" id="32197" x2="703.88" x1="750.00" y1="50.00" y2="80.26" /><line style="stroke:blue;fill:blue;" id="32198" x2="750.00" x1="750.00" y1="50.00" y2="120.00" /><line style="stroke:blue;fill:blue;" id="32199" x2="680.00" x1="750.00" y1="180.00" y2="180.00" /><line style="stroke:blue;fill:blue;" id="32200" x2="900.00" x1="750.00" y1="180.00" y2="180.00" /><line style="stroke:blue;fill:blue;" id="32201" x2="680.00" x1="817.68" y1="317.68" y2="180.00" /><line style="stroke:blue;fill:blue;" id="32202" x2="950.00" x1="817.68" y1="317.68" y2="320.00" /><line style="stroke:blue;fill:blue;" id="32203" x2="820.00" x1="817.68" y1="317.68" y2="450.00" /><line style="stroke:blue;fill:blue;" id="32204" x2="820.00" x1="820.00" y1="450.00" y2="530.00" /><line style="stroke:blue;fill:blue;" id="32205" x2="817.68" x1="820.00" y1="450.00" y2="317.68" /><line style="stroke:blue;fill:blue;" id="32206" x2="950.00" x1="820.00" y1="450.00" y2="450.00" /><line style="stroke:blue;fill:blue;" id="32207" x2="852.32" x1="820.00" y1="450.00" y2="352.32" /><line style="stroke:blue;fill:blue;" id="32208" x2="950.00" x1="852.32" y1="352.32" y2="320.00" /><line style="stroke:blue;fill:blue;" id="32209" x2="820.00" x1="852.32" y1="352.32" y2="450.00" /><line style="stroke:blue;fill:blue;" id="32210" x2="900.00" x1="852.32" y1="352.32" y2="400.00" /><line style="stroke:blue;fill:blue;" id="32211" x2="750.00" x1="900.00" y1="180.00" y2="180.00" /><line style="stroke:blue;fill:blue;" id="32212" x2="950.00" x1="900.00" y1="180.00" y2="150.00" /><line style="stroke:blue;fill:blue;" id="32213" x2="950.00" x1="900.00" y1="180.00" y2="220.00" /><line style="stroke:blue;fill:blue;" id="32214" x2="947.68" x1="920.00" y1="20.00" y2="82.32" /><line style="stroke:blue;fill:blue;" id="32215" x2="900.00" x1="950.00" y1="150.00" y2="180.00" /><line style="stroke:blue;fill:blue;" id="32216" x2="947.68" x1="950.00" y1="150.00" y2="82.32" /><line style="stroke:blue;fill:blue;" id="32217" x2="900.00" x1="950.00" y1="220.00" y2="180.00" /><line style="stroke:blue;fill:blue;" id="32218" x2="817.68" x1="950.00" y1="320.00" y2="317.68" /><line style="stroke:blue;fill:blue;" id="32219" x2="950.00" x1="950.00" y1="320.00" y2="450.00" /><line style="stroke:blue;fill:blue;" id="32220" x2="1000.00" x1="950.00" y1="320.00" y2="380.00" /><line style="stroke:blue;fill:blue;" id="32221" x2="852.32" x1="950.00" y1="320.00" y2="352.32" /><line style="stroke:blue;fill:blue;" id="32222" x2="950.00" x1="950.00" y1="450.00" y2="320.00" /><line style="stroke:blue;fill:blue;" id="32223" x2="1000.00" x1="950.00" y1="450.00" y2="380.00" /><line style="stroke:blue;fill:blue;" id="32224" x2="820.00" x1="950.00" y1="450.00" y2="450.00" /><line style="stroke:blue;fill:blue;" id="32225" x2="950.00" x1="950.00" y1="450.00" y2="530.00" /><line style="stroke:blue;fill:blue;" id="32226" x2="950.00" x1="947.68" y1="82.32" y2="150.00" /><line style="stroke:blue;fill:blue;" id="32227" x2="920.00" x1="947.68" y1="82.32" y2="20.00" /><line style="stroke:blue;fill:blue;" id="32228" x2="982.32" x1="947.68" y1="82.32" y2="47.68" /><line style="stroke:blue;fill:blue;" id="32229" x2="947.68" x1="982.32" y1="47.68" y2="82.32" /><line style="stroke:blue;fill:blue;" id="32230" x2="950.00" x1="1000.00" y1="380.00" y2="320.00" /><line style="stroke:blue;fill:blue;" id="32231" x2="950.00" x1="1000.00" y1="380.00" y2="450.00" /><line style="stroke:blue;fill:blue;" id="32232" x2="67.68" x1="20.00" y1="50.00" y2="82.32" /><line style="stroke:blue;fill:blue;" id="32233" x2="20.00" x1="20.00" y1="760.00" y2="710.00" /><line style="stroke:blue;fill:blue;" id="32234" x2="50.00" x1="60.00" y1="320.00" y2="270.00" /><line style="stroke:blue;fill:blue;" id="32235" x2="100.00" x1="100.00" y1="760.00" y2="710.00" /><line style="stroke:blue;fill:blue;" id="32236" x2="340.00" x1="350.00" y1="250.00" y2="200.00" /><line style="stroke:blue;fill:blue;" id="32237" x2="550.00" x1="550.00" y1="750.00" y2="700.00" /><line style="stroke:blue;fill:blue;" id="32238" x2="650.00" x1="650.00" y1="480.00" y2="430.00" /><line style="stroke:blue;fill:blue;" id="32239" x2="820.00" x1="820.00" y1="530.00" y2="450.00" /><line style="stroke:blue;fill:blue;" id="32240" x2="852.32" x1="900.00" y1="400.00" y2="352.32" /><line style="stroke:blue;fill:blue;" id="32241" x2="950.00" x1="950.00" y1="530.00" y2="450.00" /></svg>
