<?xml version="1.0" standalone="yes"?><!DOCTYPE svg PUBLIC "-//W3C//DTD SVG 1.1//EN" "http://www.w3.org/Graphics/SVG/1.1/DTD/svg11.dtd"[]><svg width="1050.00" height="800.00" id="0" xmlns="http://www.w3.org/2000/svg" xmlns:xlink="http://www.w3.org/1999/xlink"><rect Type="system" x="50.00" id="1" height="5.00" width="5.00" Name="霍夫比" ID="30004309" Region="艾里迪亚" y="120.00" /><text y="120.00" x="50.00" id="2">霍夫比</text><rect Type="system" x="50.00" id="4" height="5.00" width="5.00" Name="卡兰" ID="30004306" Region="艾里迪亚" y="175.50" /><text y="175.50" x="50.00" id="5">卡兰</text><rect Type="system" x="50.00" id="7" height="5.00" width="5.00" Name="俄萨尔" ID="30004305" Region="艾里迪亚" y="224.50" /><text y="224.50" x="50.00" id="8">俄萨尔</text><rect Type="system" x="50.00" id="10" height="5.00" width="5.00" Name="诺塔" ID="30004307" Region="艾里迪亚" y="300.00" /><text y="300.00" x="50.00" id="11">诺塔</text><rect Type="system" x="50.00" id="13" height="5.00" width="5.00" Name="讷德" ID="30004308" Region="艾里迪亚" y="350.00" /><text y="350.00" x="50.00" id="14">讷德</text><rect Type="system" x="150.00" id="16" height="5.00" width="5.00" Name="纳伽" ID="30004300" Region="艾里迪亚" y="620.00" /><text y="620.00" x="150.00" id="17">纳伽</text><rect Type="system" x="150.00" id="19" height="5.00" width="5.00" Name="安特" ID="30004301" Region="艾里迪亚" y="675.50" /><text y="675.50" x="150.00" id="20">安特</text><rect Type="system" x="120.00" id="22" height="5.00" width="5.00" Name="湖那" ID="30004304" Region="艾里迪亚" y="175.50" /><text y="175.50" x="120.00" id="23">湖那</text><rect Type="system" x="120.00" id="25" height="5.00" width="5.00" Name="费比尼尔" ID="30004303" Region="艾里迪亚" y="224.50" /><text y="224.50" x="120.00" id="26">费比尼尔</text><rect Type="system" x="120.00" id="28" height="5.00" width="5.00" Name="巴普拉亚" ID="30004296" Region="艾里迪亚" y="300.00" /><text y="300.00" x="120.00" id="29">巴普拉亚</text><rect Type="system" x="120.00" id="31" height="5.00" width="5.00" Name="维尼" ID="30004289" Region="艾里迪亚" y="400.00" /><text y="400.00" x="120.00" id="32">维尼</text><rect Type="system" x="120.00" id="34" height="5.00" width="5.00" Name="安罗赫" ID="30004291" Region="艾里迪亚" y="450.00" /><text y="450.00" x="120.00" id="35">安罗赫</text><rect Type="system" x="180.00" id="37" height="5.00" width="5.00" Name="伊利" ID="30004294" Region="艾里迪亚" y="500.00" /><text y="500.00" x="180.00" id="38">伊利</text><rect Type="system" x="160.00" id="40" height="5.00" width="5.00" Name="瑟茨" ID="30004293" Region="艾里迪亚" y="340.00" /><text y="340.00" x="160.00" id="41">瑟茨</text><rect Type="system" x="200.00" id="43" height="5.00" width="5.00" Name="克巴" ID="30004295" Region="艾里迪亚" y="270.00" /><text y="270.00" x="200.00" id="44">克巴</text><rect Type="system" x="220.00" id="46" height="5.00" width="5.00" Name="欧米加" ID="30004302" Region="艾里迪亚" y="550.00" /><text y="550.00" x="220.00" id="47">欧米加</text><rect Type="system" x="220.00" id="49" height="5.00" width="5.00" Name="扎维拉尔" ID="30004290" Region="艾里迪亚" y="340.00" /><text y="340.00" x="220.00" id="50">扎维拉尔</text><rect Type="system" x="220.00" id="52" height="5.00" width="5.00" Name="戈孔" ID="30004288" Region="艾里迪亚" y="400.00" /><text y="400.00" x="220.00" id="53">戈孔</text><rect Type="system" x="220.00" id="55" height="5.00" width="5.00" Name="索扎" ID="30004292" Region="艾里迪亚" y="450.00" /><text y="450.00" x="220.00" id="56">索扎</text><rect Type="system" x="250.00" id="58" height="5.00" width="5.00" Name="卡纳尔" ID="30004258" Region="艾里迪亚" y="100.00" /><text y="100.00" x="250.00" id="59">卡纳尔</text><rect Type="system" x="250.00" id="61" height="5.00" width="5.00" Name="哈卡提茨" ID="30004257" Region="艾里迪亚" y="200.00" /><text y="200.00" x="250.00" id="62">哈卡提茨</text><rect Type="system" x="280.00" id="64" height="5.00" width="5.00" Name="尤苏巴拉" ID="30004287" Region="艾里迪亚" y="400.00" /><text y="400.00" x="280.00" id="65">尤苏巴拉</text><rect Type="system" x="300.00" id="67" height="5.00" width="5.00" Name="德苏伦" ID="30004284" Region="艾里迪亚" y="500.00" /><text y="500.00" x="300.00" id="68">德苏伦</text><rect Type="system" x="300.00" id="70" height="5.00" width="5.00" Name="厄夫" ID="30004297" Region="艾里迪亚" y="550.00" /><text y="550.00" x="300.00" id="71">厄夫</text><rect Type="system" x="300.00" id="73" height="5.00" width="5.00" Name="迪索特" ID="30004298" Region="艾里迪亚" y="620.00" /><text y="620.00" x="300.00" id="74">迪索特</text><rect Type="system" x="300.00" id="76" height="5.00" width="5.00" Name="萨特" ID="30004299" Region="艾里迪亚" y="675.50" /><text y="675.50" x="300.00" id="77">萨特</text><rect Type="system" x="300.00" id="79" height="5.00" width="5.00" Name="尤洱杜" ID="30004259" Region="艾里迪亚" y="20.00" /><text y="20.00" x="300.00" id="80">尤洱杜</text><rect Type="system" x="350.00" id="82" height="5.00" width="5.00" Name="费舒尔" ID="30004263" Region="艾里迪亚" y="75.50" /><text y="75.50" x="350.00" id="83">费舒尔</text><rect Type="system" x="350.00" id="85" height="5.00" width="5.00" Name="佩姆萨" ID="30004262" Region="艾里迪亚" y="124.50" /><text y="124.50" x="350.00" id="86">佩姆萨</text><rect Type="system" x="350.00" id="88" height="5.00" width="5.00" Name="耶克" ID="30004265" Region="艾里迪亚" y="180.00" /><text y="180.00" x="350.00" id="89">耶克</text><rect Type="system" x="350.00" id="91" height="5.00" width="5.00" Name="亚耶尔" ID="30004286" Region="艾里迪亚" y="400.00" /><text y="400.00" x="350.00" id="92">亚耶尔</text><rect Type="system" x="350.00" id="94" height="5.00" width="5.00" Name="扎赞耶" ID="30004285" Region="艾里迪亚" y="450.00" /><text y="450.00" x="350.00" id="95">扎赞耶</text><rect Type="system" x="350.00" id="97" height="5.00" width="5.00" Name="沙夫拉克" ID="30004283" Region="艾里迪亚" y="500.00" /><text y="500.00" x="350.00" id="98">沙夫拉克</text><rect Type="system" x="350.00" id="100" height="5.00" width="5.00" Name="帕若茨" ID="30004255" Region="艾里迪亚" y="280.00" /><text y="280.00" x="350.00" id="101">帕若茨</text><rect Type="system" x="450.00" id="103" height="5.00" width="5.00" Name="戈顿杰萨" ID="30004282" Region="艾里迪亚" y="450.00" /><text y="450.00" x="450.00" id="104">戈顿杰萨</text><rect Type="system" x="450.00" id="106" height="5.00" width="5.00" Name="费尔勒" ID="30004254" Region="艾里迪亚" y="280.00" /><text y="280.00" x="450.00" id="107">费尔勒</text><rect Type="system" x="450.00" id="109" height="5.00" width="5.00" Name="巴拉斯" ID="30004261" Region="艾里迪亚" y="20.00" /><text y="20.00" x="450.00" id="110">巴拉斯</text><rect Type="system" x="450.00" id="112" height="5.00" width="5.00" Name="伊拉塔" ID="30004260" Region="艾里迪亚" y="100.00" /><text y="100.00" x="450.00" id="113">伊拉塔</text><rect Type="system" x="450.00" id="115" height="5.00" width="5.00" Name="厄迪坎姆" ID="30004256" Region="艾里迪亚" y="180.00" /><text y="180.00" x="450.00" id="116">厄迪坎姆</text><rect Type="system" x="500.00" id="118" height="5.00" width="5.00" Name="杰尔赫什" ID="30004281" Region="艾里迪亚" y="400.00" /><text y="400.00" x="500.00" id="119">杰尔赫什</text><rect Type="system" x="500.00" id="121" height="5.00" width="5.00" Name="纳尼范" ID="30004280" Region="艾里迪亚" y="500.00" /><text y="500.00" x="500.00" id="122">纳尼范</text><rect Type="system" x="550.00" id="124" height="5.00" width="5.00" Name="霍希恩" ID="30004264" Region="艾里迪亚" y="50.00" /><text y="50.00" x="550.00" id="125">霍希恩</text><rect Type="system" x="550.00" id="127" height="5.00" width="5.00" Name="戈西" ID="30004266" Region="艾里迪亚" y="180.00" /><text y="180.00" x="550.00" id="128">戈西</text><rect Type="system" x="550.00" id="130" height="5.00" width="5.00" Name="萨茨里德" ID="30004270" Region="艾里迪亚" y="400.00" /><text y="400.00" x="550.00" id="131">萨茨里德</text><rect Type="system" x="580.00" id="133" height="5.00" width="5.00" Name="赤壁" ID="30004250" Region="艾里迪亚" y="110.00" /><text y="110.00" x="580.00" id="134">赤壁</text><rect Type="system" x="600.00" id="136" height="5.00" width="5.00" Name="帕西呐" ID="30004253" Region="艾里迪亚" y="50.00" /><text y="50.00" x="600.00" id="137">帕西呐</text><rect Type="system" x="600.00" id="139" height="5.00" width="5.00" Name="拉沙葛" ID="30004269" Region="艾里迪亚" y="350.00" /><text y="350.00" x="600.00" id="140">拉沙葛</text><rect Type="system" x="620.00" id="142" height="5.00" width="5.00" Name="海玫" ID="30004248" Region="艾里迪亚" y="150.00" /><text y="150.00" x="620.00" id="143">海玫</text><rect Type="system" x="620.00" id="145" height="5.00" width="5.00" Name="捏勒索" ID="30004274" Region="艾里迪亚" y="550.00" /><text y="550.00" x="620.00" id="146">捏勒索</text><rect Type="system" x="620.00" id="148" height="5.00" width="5.00" Name="图坎纳斯" ID="30004275" Region="艾里迪亚" y="620.00" /><text y="620.00" x="620.00" id="149">图坎纳斯</text><rect Type="system" x="650.00" id="151" height="5.00" width="5.00" Name="埃瓦达" ID="30004249" Region="艾里迪亚" y="100.00" /><text y="100.00" x="650.00" id="152">埃瓦达</text><rect Type="system" x="650.00" id="154" height="5.00" width="5.00" Name="舍恩达" ID="30004268" Region="艾里迪亚" y="400.00" /><text y="400.00" x="650.00" id="155">舍恩达</text><rect Type="system" x="680.00" id="157" height="5.00" width="5.00" Name="贾森" ID="30004241" Region="艾里迪亚" y="200.00" /><text y="200.00" x="680.00" id="158">贾森</text><rect Type="system" x="700.00" id="160" height="5.00" width="5.00" Name="索塔" ID="30004272" Region="艾里迪亚" y="350.00" /><text y="350.00" x="700.00" id="161">索塔</text><rect Type="system" x="700.00" id="163" height="5.00" width="5.00" Name="米什" ID="30004251" Region="艾里迪亚" y="50.00" /><text y="50.00" x="700.00" id="164">米什</text><rect Type="system" x="700.00" id="166" height="5.00" width="5.00" Name="埃夫拉" ID="30004271" Region="艾里迪亚" y="480.00" /><text y="480.00" x="700.00" id="167">埃夫拉</text><rect Type="system" x="700.00" id="169" height="5.00" width="5.00" Name="所里拉" ID="30004273" Region="艾里迪亚" y="550.00" /><text y="550.00" x="700.00" id="170">所里拉</text><rect Type="system" x="700.00" id="172" height="5.00" width="5.00" Name="阿拉恒" ID="30004279" Region="艾里迪亚" y="620.00" /><text y="620.00" x="700.00" id="173">阿拉恒</text><rect Type="system" x="700.00" id="175" height="5.00" width="5.00" Name="希利" ID="30004278" Region="艾里迪亚" y="700.00" /><text y="700.00" x="700.00" id="176">希利</text><rect Type="system" x="710.00" id="178" height="5.00" width="5.00" Name="把杂铎德" ID="30004252" Region="艾里迪亚" y="110.00" /><text y="110.00" x="710.00" id="179">把杂铎德</text><rect Type="system" x="750.00" id="181" height="5.00" width="5.00" Name="克纳赫哈布" ID="30004237" Region="艾里迪亚" y="150.00" /><text y="150.00" x="750.00" id="182">克纳赫哈布</text><rect Type="system" x="750.00" id="184" height="5.00" width="5.00" Name="呐玛" ID="30004267" Region="艾里迪亚" y="400.00" /><text y="400.00" x="750.00" id="185">呐玛</text><rect Type="system" x="780.00" id="187" height="5.00" width="5.00" Name="卡米荷" ID="30004239" Region="艾里迪亚" y="280.00" /><text y="280.00" x="780.00" id="188">卡米荷</text><rect Type="system" x="780.00" id="190" height="5.00" width="5.00" Name="法格拉斯" ID="30004276" Region="艾里迪亚" y="550.00" /><text y="550.00" x="780.00" id="191">法格拉斯</text><rect Type="system" x="780.00" id="193" height="5.00" width="5.00" Name="安吉纳" ID="30004277" Region="艾里迪亚" y="620.00" /><text y="620.00" x="780.00" id="194">安吉纳</text><rect Type="system" x="820.00" id="196" height="5.00" width="5.00" Name="希尔希茨" ID="30004233" Region="艾里迪亚" y="80.00" /><text y="80.00" x="820.00" id="197">希尔希茨</text><rect Type="system" x="820.00" id="199" height="5.00" width="5.00" Name="耶哈巴" ID="30004236" Region="艾里迪亚" y="150.00" /><text y="150.00" x="820.00" id="200">耶哈巴</text><rect Type="system" x="820.00" id="202" height="5.00" width="5.00" Name="基恩斯" ID="30004238" Region="艾里迪亚" y="220.00" /><text y="220.00" x="820.00" id="203">基恩斯</text><rect Type="system" x="820.00" id="205" height="5.00" width="5.00" Name="希尔" ID="30004240" Region="艾里迪亚" y="400.00" /><text y="400.00" x="820.00" id="206">希尔</text><rect Type="system" x="900.00" id="208" height="5.00" width="5.00" Name="扎伊" ID="30004232" Region="艾里迪亚" y="80.00" /><text y="80.00" x="900.00" id="209">扎伊</text><rect Type="system" x="900.00" id="211" height="5.00" width="5.00" Name="马瑟拉" ID="30004235" Region="艾里迪亚" y="150.00" /><text y="150.00" x="900.00" id="212">马瑟拉</text><rect Type="system" x="950.00" id="214" height="5.00" width="5.00" Name="玛尔纳" ID="30004234" Region="艾里迪亚" y="200.00" /><text y="200.00" x="950.00" id="215">玛尔纳</text><rect Type="system" x="950.00" id="217" height="5.00" width="5.00" Name="玛么哈" ID="30004247" Region="艾里迪亚" y="310.00" /><text y="310.00" x="950.00" id="218">玛么哈</text><rect Type="system" x="950.00" id="220" height="5.00" width="5.00" Name="伊斯德" ID="30004243" Region="艾里迪亚" y="360.00" /><text y="360.00" x="950.00" id="221">伊斯德</text><rect Type="system" x="950.00" id="223" height="5.00" width="5.00" Name="萨达纳" ID="30004242" Region="艾里迪亚" y="410.00" /><text y="410.00" x="950.00" id="224">萨达纳</text><rect Type="system" x="950.00" id="226" height="5.00" width="5.00" Name="欧纳南姆" ID="30004244" Region="艾里迪亚" y="470.00" /><text y="470.00" x="950.00" id="227">欧纳南姆</text><rect Type="system" x="950.00" id="229" height="5.00" width="5.00" Name="由迪亚诺" ID="30004245" Region="艾里迪亚" y="530.00" /><text y="530.00" x="950.00" id="230">由迪亚诺</text><rect Type="system" x="950.00" id="232" height="5.00" width="5.00" Name="维翰" ID="30004246" Region="艾里迪亚" y="585.50" /><text y="585.50" x="950.00" id="233">维翰</text><rect Type="system" x="1000.00" id="235" height="5.00" width="5.00" Name="万恩" ID="30004230" Region="艾里迪亚" y="80.00" /><text y="80.00" x="1000.00" id="236">万恩</text><rect Type="system" x="1000.00" id="238" height="5.00" width="5.00" Name="沙卡斯" ID="30004231" Region="艾里迪亚" y="150.00" /><text y="150.00" x="1000.00" id="239">沙卡斯</text><rect Type="system" x="50.00" id="241" height="5.00" width="5.00" Name="D4KU-5" ID="30004626" Region="源泉之域" y="50.00" /><text y="50.00" x="50.00" id="242">D4KU-5</text><rect Type="system" x="150.00" id="244" height="5.00" width="5.00" Name="拉菲姆" ID="30003941" Region="卡尼迪" y="724.50" /><text y="724.50" x="150.00" id="245">拉菲姆</text><rect Type="system" x="300.00" id="247" height="5.00" width="5.00" Name="1-SMEB" ID="30004738" Region="绝地之域" y="724.50" /><text y="724.50" x="300.00" id="248">1-SMEB</text><rect Type="system" x="820.00" id="250" height="5.00" width="5.00" Name="埃加罗尔斯" ID="30003600" Region="孤独之域" y="20.00" /><text y="20.00" x="820.00" id="251">埃加罗尔斯</text><rect Type="system" x="950.00" id="253" height="5.00" width="5.00" Name="金科恩" ID="30005055" Region="柯埃佐" y="634.50" /><text y="634.50" x="950.00" id="254">金科恩</text><rect Type="system" x="1000.00" id="256" height="5.00" width="5.00" Name="欧塔科德" ID="30005274" Region="吉勒西斯" y="20.00" /><text y="20.00" x="1000.00" id="257">欧塔科德</text><line style="stroke:blue;fill:blue;" id="259" x2="50.00" x1="50.00" y1="120.00" y2="175.50" /><line style="stroke:blue;fill:blue;" id="260" x2="50.00" x1="50.00" y1="120.00" y2="50.00" /><line style="stroke:blue;fill:blue;" id="261" x2="120.00" x1="50.00" y1="175.50" y2="224.50" /><line style="stroke:blue;fill:blue;" id="262" x2="120.00" x1="50.00" y1="175.50" y2="175.50" /><line style="stroke:blue;fill:blue;" id="263" x2="50.00" x1="50.00" y1="175.50" y2="120.00" /><line style="stroke:blue;fill:blue;" id="264" x2="120.00" x1="50.00" y1="224.50" y2="224.50" /><line style="stroke:blue;fill:blue;" id="265" x2="120.00" x1="50.00" y1="300.00" y2="224.50" /><line style="stroke:blue;fill:blue;" id="266" x2="50.00" x1="50.00" y1="300.00" y2="350.00" /><line style="stroke:blue;fill:blue;" id="267" x2="50.00" x1="50.00" y1="350.00" y2="300.00" /><line style="stroke:blue;fill:blue;" id="268" x2="300.00" x1="150.00" y1="620.00" y2="620.00" /><line style="stroke:blue;fill:blue;" id="269" x2="300.00" x1="150.00" y1="620.00" y2="675.50" /><line style="stroke:blue;fill:blue;" id="270" x2="150.00" x1="150.00" y1="620.00" y2="675.50" /><line style="stroke:blue;fill:blue;" id="271" x2="220.00" x1="150.00" y1="620.00" y2="550.00" /><line style="stroke:blue;fill:blue;" id="272" x2="150.00" x1="150.00" y1="675.50" y2="724.50" /><line style="stroke:blue;fill:blue;" id="273" x2="300.00" x1="150.00" y1="675.50" y2="675.50" /><line style="stroke:blue;fill:blue;" id="274" x2="150.00" x1="150.00" y1="675.50" y2="620.00" /><line style="stroke:blue;fill:blue;" id="275" x2="120.00" x1="120.00" y1="175.50" y2="224.50" /><line style="stroke:blue;fill:blue;" id="276" x2="50.00" x1="120.00" y1="175.50" y2="175.50" /><line style="stroke:blue;fill:blue;" id="277" x2="120.00" x1="120.00" y1="224.50" y2="300.00" /><line style="stroke:blue;fill:blue;" id="278" x2="120.00" x1="120.00" y1="224.50" y2="175.50" /><line style="stroke:blue;fill:blue;" id="279" x2="50.00" x1="120.00" y1="224.50" y2="224.50" /><line style="stroke:blue;fill:blue;" id="280" x2="50.00" x1="120.00" y1="224.50" y2="175.50" /><line style="stroke:blue;fill:blue;" id="281" x2="50.00" x1="120.00" y1="224.50" y2="300.00" /><line style="stroke:blue;fill:blue;" id="282" x2="160.00" x1="120.00" y1="300.00" y2="340.00" /><line style="stroke:blue;fill:blue;" id="283" x2="200.00" x1="120.00" y1="300.00" y2="270.00" /><line style="stroke:blue;fill:blue;" id="284" x2="120.00" x1="120.00" y1="300.00" y2="224.50" /><line style="stroke:blue;fill:blue;" id="285" x2="220.00" x1="120.00" y1="400.00" y2="400.00" /><line style="stroke:blue;fill:blue;" id="286" x2="120.00" x1="120.00" y1="400.00" y2="450.00" /><line style="stroke:blue;fill:blue;" id="287" x2="160.00" x1="120.00" y1="400.00" y2="340.00" /><line style="stroke:blue;fill:blue;" id="288" x2="120.00" x1="120.00" y1="450.00" y2="400.00" /><line style="stroke:blue;fill:blue;" id="289" x2="180.00" x1="120.00" y1="450.00" y2="500.00" /><line style="stroke:blue;fill:blue;" id="290" x2="120.00" x1="180.00" y1="500.00" y2="450.00" /><line style="stroke:blue;fill:blue;" id="291" x2="220.00" x1="180.00" y1="500.00" y2="450.00" /><line style="stroke:blue;fill:blue;" id="292" x2="220.00" x1="160.00" y1="340.00" y2="400.00" /><line style="stroke:blue;fill:blue;" id="293" x2="120.00" x1="160.00" y1="340.00" y2="400.00" /><line style="stroke:blue;fill:blue;" id="294" x2="200.00" x1="160.00" y1="340.00" y2="270.00" /><line style="stroke:blue;fill:blue;" id="295" x2="120.00" x1="160.00" y1="340.00" y2="300.00" /><line style="stroke:blue;fill:blue;" id="296" x2="220.00" x1="200.00" y1="270.00" y2="340.00" /><line style="stroke:blue;fill:blue;" id="297" x2="160.00" x1="200.00" y1="270.00" y2="340.00" /><line style="stroke:blue;fill:blue;" id="298" x2="120.00" x1="200.00" y1="270.00" y2="300.00" /><line style="stroke:blue;fill:blue;" id="299" x2="300.00" x1="220.00" y1="550.00" y2="620.00" /><line style="stroke:blue;fill:blue;" id="300" x2="150.00" x1="220.00" y1="550.00" y2="620.00" /><line style="stroke:blue;fill:blue;" id="301" x2="220.00" x1="220.00" y1="340.00" y2="400.00" /><line style="stroke:blue;fill:blue;" id="302" x2="200.00" x1="220.00" y1="340.00" y2="270.00" /><line style="stroke:blue;fill:blue;" id="303" x2="280.00" x1="220.00" y1="400.00" y2="400.00" /><line style="stroke:blue;fill:blue;" id="304" x2="120.00" x1="220.00" y1="400.00" y2="400.00" /><line style="stroke:blue;fill:blue;" id="305" x2="220.00" x1="220.00" y1="400.00" y2="340.00" /><line style="stroke:blue;fill:blue;" id="306" x2="220.00" x1="220.00" y1="400.00" y2="450.00" /><line style="stroke:blue;fill:blue;" id="307" x2="160.00" x1="220.00" y1="400.00" y2="340.00" /><line style="stroke:blue;fill:blue;" id="308" x2="220.00" x1="220.00" y1="450.00" y2="400.00" /><line style="stroke:blue;fill:blue;" id="309" x2="180.00" x1="220.00" y1="450.00" y2="500.00" /><line style="stroke:blue;fill:blue;" id="310" x2="250.00" x1="250.00" y1="100.00" y2="200.00" /><line style="stroke:blue;fill:blue;" id="311" x2="300.00" x1="250.00" y1="100.00" y2="20.00" /><line style="stroke:blue;fill:blue;" id="312" x2="450.00" x1="250.00" y1="200.00" y2="280.00" /><line style="stroke:blue;fill:blue;" id="313" x2="250.00" x1="250.00" y1="200.00" y2="100.00" /><line style="stroke:blue;fill:blue;" id="314" x2="350.00" x1="280.00" y1="400.00" y2="400.00" /><line style="stroke:blue;fill:blue;" id="315" x2="220.00" x1="280.00" y1="400.00" y2="400.00" /><line style="stroke:blue;fill:blue;" id="316" x2="350.00" x1="300.00" y1="500.00" y2="500.00" /><line style="stroke:blue;fill:blue;" id="317" x2="300.00" x1="300.00" y1="500.00" y2="550.00" /><line style="stroke:blue;fill:blue;" id="318" x2="300.00" x1="300.00" y1="550.00" y2="500.00" /><line style="stroke:blue;fill:blue;" id="319" x2="300.00" x1="300.00" y1="550.00" y2="620.00" /><line style="stroke:blue;fill:blue;" id="320" x2="300.00" x1="300.00" y1="620.00" y2="550.00" /><line style="stroke:blue;fill:blue;" id="321" x2="300.00" x1="300.00" y1="620.00" y2="675.50" /><line style="stroke:blue;fill:blue;" id="322" x2="150.00" x1="300.00" y1="620.00" y2="620.00" /><line style="stroke:blue;fill:blue;" id="323" x2="220.00" x1="300.00" y1="620.00" y2="550.00" /><line style="stroke:blue;fill:blue;" id="324" x2="300.00" x1="300.00" y1="675.50" y2="620.00" /><line style="stroke:blue;fill:blue;" id="325" x2="150.00" x1="300.00" y1="675.50" y2="620.00" /><line style="stroke:blue;fill:blue;" id="326" x2="150.00" x1="300.00" y1="675.50" y2="675.50" /><line style="stroke:blue;fill:blue;" id="327" x2="300.00" x1="300.00" y1="675.50" y2="724.50" /><line style="stroke:blue;fill:blue;" id="328" x2="250.00" x1="300.00" y1="20.00" y2="100.00" /><line style="stroke:blue;fill:blue;" id="329" x2="450.00" x1="300.00" y1="20.00" y2="20.00" /><line style="stroke:blue;fill:blue;" id="330" x2="450.00" x1="350.00" y1="75.50" y2="100.00" /><line style="stroke:blue;fill:blue;" id="331" x2="350.00" x1="350.00" y1="75.50" y2="124.50" /><line style="stroke:blue;fill:blue;" id="332" x2="450.00" x1="350.00" y1="124.50" y2="100.00" /><line style="stroke:blue;fill:blue;" id="333" x2="350.00" x1="350.00" y1="124.50" y2="75.50" /><line style="stroke:blue;fill:blue;" id="334" x2="350.00" x1="350.00" y1="124.50" y2="180.00" /><line style="stroke:blue;fill:blue;" id="335" x2="350.00" x1="350.00" y1="180.00" y2="124.50" /><line style="stroke:blue;fill:blue;" id="336" x2="350.00" x1="350.00" y1="400.00" y2="450.00" /><line style="stroke:blue;fill:blue;" id="337" x2="280.00" x1="350.00" y1="400.00" y2="400.00" /><line style="stroke:blue;fill:blue;" id="338" x2="450.00" x1="350.00" y1="450.00" y2="450.00" /><line style="stroke:blue;fill:blue;" id="339" x2="350.00" x1="350.00" y1="450.00" y2="500.00" /><line style="stroke:blue;fill:blue;" id="340" x2="350.00" x1="350.00" y1="450.00" y2="400.00" /><line style="stroke:blue;fill:blue;" id="341" x2="500.00" x1="350.00" y1="500.00" y2="500.00" /><line style="stroke:blue;fill:blue;" id="342" x2="300.00" x1="350.00" y1="500.00" y2="500.00" /><line style="stroke:blue;fill:blue;" id="343" x2="350.00" x1="350.00" y1="500.00" y2="450.00" /><line style="stroke:blue;fill:blue;" id="344" x2="450.00" x1="350.00" y1="280.00" y2="280.00" /><line style="stroke:blue;fill:blue;" id="345" x2="500.00" x1="450.00" y1="450.00" y2="500.00" /><line style="stroke:blue;fill:blue;" id="346" x2="500.00" x1="450.00" y1="450.00" y2="400.00" /><line style="stroke:blue;fill:blue;" id="347" x2="350.00" x1="450.00" y1="450.00" y2="450.00" /><line style="stroke:blue;fill:blue;" id="348" x2="780.00" x1="450.00" y1="280.00" y2="280.00" /><line style="stroke:blue;fill:blue;" id="349" x2="350.00" x1="450.00" y1="280.00" y2="280.00" /><line style="stroke:blue;fill:blue;" id="350" x2="450.00" x1="450.00" y1="280.00" y2="180.00" /><line style="stroke:blue;fill:blue;" id="351" x2="250.00" x1="450.00" y1="280.00" y2="200.00" /><line style="stroke:blue;fill:blue;" id="352" x2="550.00" x1="450.00" y1="280.00" y2="180.00" /><line style="stroke:blue;fill:blue;" id="353" x2="300.00" x1="450.00" y1="20.00" y2="20.00" /><line style="stroke:blue;fill:blue;" id="354" x2="450.00" x1="450.00" y1="20.00" y2="100.00" /><line style="stroke:blue;fill:blue;" id="355" x2="550.00" x1="450.00" y1="20.00" y2="50.00" /><line style="stroke:blue;fill:blue;" id="356" x2="450.00" x1="450.00" y1="100.00" y2="180.00" /><line style="stroke:blue;fill:blue;" id="357" x2="450.00" x1="450.00" y1="100.00" y2="20.00" /><line style="stroke:blue;fill:blue;" id="358" x2="350.00" x1="450.00" y1="100.00" y2="124.50" /><line style="stroke:blue;fill:blue;" id="359" x2="350.00" x1="450.00" y1="100.00" y2="75.50" /><line style="stroke:blue;fill:blue;" id="360" x2="450.00" x1="450.00" y1="180.00" y2="280.00" /><line style="stroke:blue;fill:blue;" id="361" x2="450.00" x1="450.00" y1="180.00" y2="100.00" /><line style="stroke:blue;fill:blue;" id="362" x2="500.00" x1="500.00" y1="400.00" y2="500.00" /><line style="stroke:blue;fill:blue;" id="363" x2="450.00" x1="500.00" y1="400.00" y2="450.00" /><line style="stroke:blue;fill:blue;" id="364" x2="550.00" x1="500.00" y1="500.00" y2="400.00" /><line style="stroke:blue;fill:blue;" id="365" x2="500.00" x1="500.00" y1="500.00" y2="400.00" /><line style="stroke:blue;fill:blue;" id="366" x2="450.00" x1="500.00" y1="500.00" y2="450.00" /><line style="stroke:blue;fill:blue;" id="367" x2="350.00" x1="500.00" y1="500.00" y2="500.00" /><line style="stroke:blue;fill:blue;" id="368" x2="450.00" x1="550.00" y1="50.00" y2="20.00" /><line style="stroke:blue;fill:blue;" id="369" x2="550.00" x1="550.00" y1="50.00" y2="180.00" /><line style="stroke:blue;fill:blue;" id="370" x2="450.00" x1="550.00" y1="180.00" y2="280.00" /><line style="stroke:blue;fill:blue;" id="371" x2="550.00" x1="550.00" y1="180.00" y2="50.00" /><line style="stroke:blue;fill:blue;" id="372" x2="650.00" x1="550.00" y1="400.00" y2="400.00" /><line style="stroke:blue;fill:blue;" id="373" x2="600.00" x1="550.00" y1="400.00" y2="350.00" /><line style="stroke:blue;fill:blue;" id="374" x2="500.00" x1="550.00" y1="400.00" y2="500.00" /><line style="stroke:blue;fill:blue;" id="375" x2="620.00" x1="580.00" y1="110.00" y2="150.00" /><line style="stroke:blue;fill:blue;" id="376" x2="650.00" x1="600.00" y1="50.00" y2="100.00" /><line style="stroke:blue;fill:blue;" id="377" x2="700.00" x1="600.00" y1="50.00" y2="50.00" /><line style="stroke:blue;fill:blue;" id="378" x2="650.00" x1="600.00" y1="350.00" y2="400.00" /><line style="stroke:blue;fill:blue;" id="379" x2="550.00" x1="600.00" y1="350.00" y2="400.00" /><line style="stroke:blue;fill:blue;" id="380" x2="700.00" x1="600.00" y1="350.00" y2="350.00" /><line style="stroke:blue;fill:blue;" id="381" x2="680.00" x1="620.00" y1="150.00" y2="200.00" /><line style="stroke:blue;fill:blue;" id="382" x2="650.00" x1="620.00" y1="150.00" y2="100.00" /><line style="stroke:blue;fill:blue;" id="383" x2="580.00" x1="620.00" y1="150.00" y2="110.00" /><line style="stroke:blue;fill:blue;" id="384" x2="710.00" x1="620.00" y1="150.00" y2="110.00" /><line style="stroke:blue;fill:blue;" id="385" x2="700.00" x1="620.00" y1="550.00" y2="550.00" /><line style="stroke:blue;fill:blue;" id="386" x2="620.00" x1="620.00" y1="550.00" y2="620.00" /><line style="stroke:blue;fill:blue;" id="387" x2="700.00" x1="620.00" y1="620.00" y2="550.00" /><line style="stroke:blue;fill:blue;" id="388" x2="620.00" x1="620.00" y1="620.00" y2="550.00" /><line style="stroke:blue;fill:blue;" id="389" x2="700.00" x1="620.00" y1="620.00" y2="700.00" /><line style="stroke:blue;fill:blue;" id="390" x2="700.00" x1="620.00" y1="620.00" y2="620.00" /><line style="stroke:blue;fill:blue;" id="391" x2="620.00" x1="650.00" y1="100.00" y2="150.00" /><line style="stroke:blue;fill:blue;" id="392" x2="700.00" x1="650.00" y1="100.00" y2="50.00" /><line style="stroke:blue;fill:blue;" id="393" x2="600.00" x1="650.00" y1="100.00" y2="50.00" /><line style="stroke:blue;fill:blue;" id="394" x2="750.00" x1="650.00" y1="400.00" y2="400.00" /><line style="stroke:blue;fill:blue;" id="395" x2="600.00" x1="650.00" y1="400.00" y2="350.00" /><line style="stroke:blue;fill:blue;" id="396" x2="550.00" x1="650.00" y1="400.00" y2="400.00" /><line style="stroke:blue;fill:blue;" id="397" x2="750.00" x1="680.00" y1="200.00" y2="150.00" /><line style="stroke:blue;fill:blue;" id="398" x2="780.00" x1="680.00" y1="200.00" y2="280.00" /><line style="stroke:blue;fill:blue;" id="399" x2="620.00" x1="680.00" y1="200.00" y2="150.00" /><line style="stroke:blue;fill:blue;" id="400" x2="750.00" x1="700.00" y1="350.00" y2="400.00" /><line style="stroke:blue;fill:blue;" id="401" x2="600.00" x1="700.00" y1="350.00" y2="350.00" /><line style="stroke:blue;fill:blue;" id="402" x2="650.00" x1="700.00" y1="50.00" y2="100.00" /><line style="stroke:blue;fill:blue;" id="403" x2="600.00" x1="700.00" y1="50.00" y2="50.00" /><line style="stroke:blue;fill:blue;" id="404" x2="750.00" x1="700.00" y1="480.00" y2="400.00" /><line style="stroke:blue;fill:blue;" id="405" x2="700.00" x1="700.00" y1="480.00" y2="550.00" /><line style="stroke:blue;fill:blue;" id="406" x2="700.00" x1="700.00" y1="550.00" y2="480.00" /><line style="stroke:blue;fill:blue;" id="407" x2="620.00" x1="700.00" y1="550.00" y2="550.00" /><line style="stroke:blue;fill:blue;" id="408" x2="620.00" x1="700.00" y1="550.00" y2="620.00" /><line style="stroke:blue;fill:blue;" id="409" x2="780.00" x1="700.00" y1="550.00" y2="550.00" /><line style="stroke:blue;fill:blue;" id="410" x2="780.00" x1="700.00" y1="550.00" y2="620.00" /><line style="stroke:blue;fill:blue;" id="411" x2="700.00" x1="700.00" y1="550.00" y2="620.00" /><line style="stroke:blue;fill:blue;" id="412" x2="700.00" x1="700.00" y1="620.00" y2="550.00" /><line style="stroke:blue;fill:blue;" id="413" x2="620.00" x1="700.00" y1="620.00" y2="620.00" /><line style="stroke:blue;fill:blue;" id="414" x2="780.00" x1="700.00" y1="620.00" y2="620.00" /><line style="stroke:blue;fill:blue;" id="415" x2="620.00" x1="700.00" y1="700.00" y2="620.00" /><line style="stroke:blue;fill:blue;" id="416" x2="780.00" x1="700.00" y1="700.00" y2="620.00" /><line style="stroke:blue;fill:blue;" id="417" x2="620.00" x1="710.00" y1="110.00" y2="150.00" /><line style="stroke:blue;fill:blue;" id="418" x2="820.00" x1="750.00" y1="150.00" y2="150.00" /><line style="stroke:blue;fill:blue;" id="419" x2="820.00" x1="750.00" y1="150.00" y2="220.00" /><line style="stroke:blue;fill:blue;" id="420" x2="680.00" x1="750.00" y1="150.00" y2="200.00" /><line style="stroke:blue;fill:blue;" id="421" x2="820.00" x1="750.00" y1="400.00" y2="400.00" /><line style="stroke:blue;fill:blue;" id="422" x2="650.00" x1="750.00" y1="400.00" y2="400.00" /><line style="stroke:blue;fill:blue;" id="423" x2="700.00" x1="750.00" y1="400.00" y2="480.00" /><line style="stroke:blue;fill:blue;" id="424" x2="700.00" x1="750.00" y1="400.00" y2="350.00" /><line style="stroke:blue;fill:blue;" id="425" x2="820.00" x1="780.00" y1="280.00" y2="220.00" /><line style="stroke:blue;fill:blue;" id="426" x2="820.00" x1="780.00" y1="280.00" y2="400.00" /><line style="stroke:blue;fill:blue;" id="427" x2="680.00" x1="780.00" y1="280.00" y2="200.00" /><line style="stroke:blue;fill:blue;" id="428" x2="450.00" x1="780.00" y1="280.00" y2="280.00" /><line style="stroke:blue;fill:blue;" id="429" x2="700.00" x1="780.00" y1="550.00" y2="550.00" /><line style="stroke:blue;fill:blue;" id="430" x2="700.00" x1="780.00" y1="620.00" y2="550.00" /><line style="stroke:blue;fill:blue;" id="431" x2="700.00" x1="780.00" y1="620.00" y2="700.00" /><line style="stroke:blue;fill:blue;" id="432" x2="700.00" x1="780.00" y1="620.00" y2="620.00" /><line style="stroke:blue;fill:blue;" id="433" x2="820.00" x1="820.00" y1="80.00" y2="20.00" /><line style="stroke:blue;fill:blue;" id="434" x2="900.00" x1="820.00" y1="80.00" y2="80.00" /><line style="stroke:blue;fill:blue;" id="435" x2="820.00" x1="820.00" y1="80.00" y2="150.00" /><line style="stroke:blue;fill:blue;" id="436" x2="820.00" x1="820.00" y1="150.00" y2="80.00" /><line style="stroke:blue;fill:blue;" id="437" x2="750.00" x1="820.00" y1="150.00" y2="150.00" /><line style="stroke:blue;fill:blue;" id="438" x2="820.00" x1="820.00" y1="150.00" y2="220.00" /><line style="stroke:blue;fill:blue;" id="439" x2="820.00" x1="820.00" y1="220.00" y2="150.00" /><line style="stroke:blue;fill:blue;" id="440" x2="750.00" x1="820.00" y1="220.00" y2="150.00" /><line style="stroke:blue;fill:blue;" id="441" x2="780.00" x1="820.00" y1="220.00" y2="280.00" /><line style="stroke:blue;fill:blue;" id="442" x2="780.00" x1="820.00" y1="400.00" y2="280.00" /><line style="stroke:blue;fill:blue;" id="443" x2="950.00" x1="820.00" y1="400.00" y2="410.00" /><line style="stroke:blue;fill:blue;" id="444" x2="750.00" x1="820.00" y1="400.00" y2="400.00" /><line style="stroke:blue;fill:blue;" id="445" x2="1000.00" x1="900.00" y1="80.00" y2="80.00" /><line style="stroke:blue;fill:blue;" id="446" x2="820.00" x1="900.00" y1="80.00" y2="80.00" /><line style="stroke:blue;fill:blue;" id="447" x2="900.00" x1="900.00" y1="80.00" y2="150.00" /><line style="stroke:blue;fill:blue;" id="448" x2="1000.00" x1="900.00" y1="150.00" y2="150.00" /><line style="stroke:blue;fill:blue;" id="449" x2="900.00" x1="900.00" y1="150.00" y2="80.00" /><line style="stroke:blue;fill:blue;" id="450" x2="950.00" x1="900.00" y1="150.00" y2="200.00" /><line style="stroke:blue;fill:blue;" id="451" x2="1000.00" x1="950.00" y1="200.00" y2="150.00" /><line style="stroke:blue;fill:blue;" id="452" x2="900.00" x1="950.00" y1="200.00" y2="150.00" /><line style="stroke:blue;fill:blue;" id="453" x2="950.00" x1="950.00" y1="310.00" y2="360.00" /><line style="stroke:blue;fill:blue;" id="454" x2="950.00" x1="950.00" y1="360.00" y2="410.00" /><line style="stroke:blue;fill:blue;" id="455" x2="950.00" x1="950.00" y1="360.00" y2="310.00" /><line style="stroke:blue;fill:blue;" id="456" x2="820.00" x1="950.00" y1="410.00" y2="400.00" /><line style="stroke:blue;fill:blue;" id="457" x2="950.00" x1="950.00" y1="410.00" y2="360.00" /><line style="stroke:blue;fill:blue;" id="458" x2="950.00" x1="950.00" y1="410.00" y2="470.00" /><line style="stroke:blue;fill:blue;" id="459" x2="950.00" x1="950.00" y1="470.00" y2="410.00" /><line style="stroke:blue;fill:blue;" id="460" x2="950.00" x1="950.00" y1="470.00" y2="530.00" /><line style="stroke:blue;fill:blue;" id="461" x2="950.00" x1="950.00" y1="530.00" y2="470.00" /><line style="stroke:blue;fill:blue;" id="462" x2="950.00" x1="950.00" y1="530.00" y2="585.50" /><line style="stroke:blue;fill:blue;" id="463" x2="950.00" x1="950.00" y1="585.50" y2="530.00" /><line style="stroke:blue;fill:blue;" id="464" x2="950.00" x1="950.00" y1="585.50" y2="634.50" /><line style="stroke:blue;fill:blue;" id="465" x2="1000.00" x1="1000.00" y1="80.00" y2="150.00" /><line style="stroke:blue;fill:blue;" id="466" x2="900.00" x1="1000.00" y1="80.00" y2="80.00" /><line style="stroke:blue;fill:blue;" id="467" x2="1000.00" x1="1000.00" y1="80.00" y2="20.00" /><line style="stroke:blue;fill:blue;" id="468" x2="1000.00" x1="1000.00" y1="150.00" y2="80.00" /><line style="stroke:blue;fill:blue;" id="469" x2="950.00" x1="1000.00" y1="150.00" y2="200.00" /><line style="stroke:blue;fill:blue;" id="470" x2="900.00" x1="1000.00" y1="150.00" y2="150.00" /><line style="stroke:blue;fill:blue;" id="471" x2="50.00" x1="50.00" y1="50.00" y2="120.00" /><line style="stroke:blue;fill:blue;" id="472" x2="150.00" x1="150.00" y1="724.50" y2="675.50" /><line style="stroke:blue;fill:blue;" id="473" x2="300.00" x1="300.00" y1="724.50" y2="675.50" /><line style="stroke:blue;fill:blue;" id="474" x2="820.00" x1="820.00" y1="20.00" y2="80.00" /><line style="stroke:blue;fill:blue;" id="475" x2="950.00" x1="950.00" y1="634.50" y2="585.50" /><line style="stroke:blue;fill:blue;" id="476" x2="1000.00" x1="1000.00" y1="20.00" y2="80.00" /></svg>
