<?xml version="1.0" standalone="yes"?><!DOCTYPE svg PUBLIC "-//W3C//DTD SVG 1.1//EN" "http://www.w3.org/Graphics/SVG/1.1/DTD/svg11.dtd"[]><svg height="800.00" id="0" width="1050.00" xmlns="http://www.w3.org/2000/svg" xmlns:xlink="http://www.w3.org/1999/xlink"><rect Type="system" Region="艾里迪亚" height="5.00" y="120.00" Name="霍夫比" width="5.00" x="50.00" id="1" ID="30004309" /><text x="50.00" y="120.00" id="2">霍夫比</text><rect Type="system" Region="艾里迪亚" height="5.00" y="175.50" Name="卡兰" width="5.00" x="50.00" id="4" ID="30004306" /><text x="50.00" y="175.50" id="5">卡兰</text><rect Type="system" Region="艾里迪亚" height="5.00" y="224.50" Name="俄萨尔" width="5.00" x="50.00" id="7" ID="30004305" /><text x="50.00" y="224.50" id="8">俄萨尔</text><rect Type="system" Region="艾里迪亚" height="5.00" y="300.00" Name="诺塔" width="5.00" x="50.00" id="10" ID="30004307" /><text x="50.00" y="300.00" id="11">诺塔</text><rect Type="system" Region="艾里迪亚" height="5.00" y="350.00" Name="讷德" width="5.00" x="50.00" id="13" ID="30004308" /><text x="50.00" y="350.00" id="14">讷德</text><rect Type="system" Region="艾里迪亚" height="5.00" y="620.00" Name="纳伽" width="5.00" x="150.00" id="16" ID="30004300" /><text x="150.00" y="620.00" id="17">纳伽</text><rect Type="system" Region="艾里迪亚" height="5.00" y="675.50" Name="安特" width="5.00" x="150.00" id="19" ID="30004301" /><text x="150.00" y="675.50" id="20">安特</text><rect Type="system" Region="艾里迪亚" height="5.00" y="175.50" Name="湖那" width="5.00" x="120.00" id="22" ID="30004304" /><text x="120.00" y="175.50" id="23">湖那</text><rect Type="system" Region="艾里迪亚" height="5.00" y="224.50" Name="费比尼尔" width="5.00" x="120.00" id="25" ID="30004303" /><text x="120.00" y="224.50" id="26">费比尼尔</text><rect Type="system" Region="艾里迪亚" height="5.00" y="300.00" Name="巴普拉亚" width="5.00" x="120.00" id="28" ID="30004296" /><text x="120.00" y="300.00" id="29">巴普拉亚</text><rect Type="system" Region="艾里迪亚" height="5.00" y="400.00" Name="维尼" width="5.00" x="120.00" id="31" ID="30004289" /><text x="120.00" y="400.00" id="32">维尼</text><rect Type="system" Region="艾里迪亚" height="5.00" y="450.00" Name="安罗赫" width="5.00" x="120.00" id="34" ID="30004291" /><text x="120.00" y="450.00" id="35">安罗赫</text><rect Type="system" Region="艾里迪亚" height="5.00" y="500.00" Name="伊利" width="5.00" x="180.00" id="37" ID="30004294" /><text x="180.00" y="500.00" id="38">伊利</text><rect Type="system" Region="艾里迪亚" height="5.00" y="340.00" Name="瑟茨" width="5.00" x="160.00" id="40" ID="30004293" /><text x="160.00" y="340.00" id="41">瑟茨</text><rect Type="system" Region="艾里迪亚" height="5.00" y="270.00" Name="克巴" width="5.00" x="200.00" id="43" ID="30004295" /><text x="200.00" y="270.00" id="44">克巴</text><rect Type="system" Region="艾里迪亚" height="5.00" y="550.00" Name="欧米加" width="5.00" x="220.00" id="46" ID="30004302" /><text x="220.00" y="550.00" id="47">欧米加</text><rect Type="system" Region="艾里迪亚" height="5.00" y="340.00" Name="扎维拉尔" width="5.00" x="220.00" id="49" ID="30004290" /><text x="220.00" y="340.00" id="50">扎维拉尔</text><rect Type="system" Region="艾里迪亚" height="5.00" y="400.00" Name="戈孔" width="5.00" x="220.00" id="52" ID="30004288" /><text x="220.00" y="400.00" id="53">戈孔</text><rect Type="system" Region="艾里迪亚" height="5.00" y="450.00" Name="索扎" width="5.00" x="220.00" id="55" ID="30004292" /><text x="220.00" y="450.00" id="56">索扎</text><rect Type="system" Region="艾里迪亚" height="5.00" y="100.00" Name="卡纳尔" width="5.00" x="250.00" id="58" ID="30004258" /><text x="250.00" y="100.00" id="59">卡纳尔</text><rect Type="system" Region="艾里迪亚" height="5.00" y="200.00" Name="哈卡提茨" width="5.00" x="250.00" id="61" ID="30004257" /><text x="250.00" y="200.00" id="62">哈卡提茨</text><rect Type="system" Region="艾里迪亚" height="5.00" y="400.00" Name="尤苏巴拉" width="5.00" x="280.00" id="64" ID="30004287" /><text x="280.00" y="400.00" id="65">尤苏巴拉</text><rect Type="system" Region="艾里迪亚" height="5.00" y="500.00" Name="德苏伦" width="5.00" x="300.00" id="67" ID="30004284" /><text x="300.00" y="500.00" id="68">德苏伦</text><rect Type="system" Region="艾里迪亚" height="5.00" y="550.00" Name="厄夫" width="5.00" x="300.00" id="70" ID="30004297" /><text x="300.00" y="550.00" id="71">厄夫</text><rect Type="system" Region="艾里迪亚" height="5.00" y="620.00" Name="迪索特" width="5.00" x="300.00" id="73" ID="30004298" /><text x="300.00" y="620.00" id="74">迪索特</text><rect Type="system" Region="艾里迪亚" height="5.00" y="675.50" Name="萨特" width="5.00" x="300.00" id="76" ID="30004299" /><text x="300.00" y="675.50" id="77">萨特</text><rect Type="system" Region="艾里迪亚" height="5.00" y="20.00" Name="尤洱杜" width="5.00" x="300.00" id="79" ID="30004259" /><text x="300.00" y="20.00" id="80">尤洱杜</text><rect Type="system" Region="艾里迪亚" height="5.00" y="75.50" Name="费舒尔" width="5.00" x="350.00" id="82" ID="30004263" /><text x="350.00" y="75.50" id="83">费舒尔</text><rect Type="system" Region="艾里迪亚" height="5.00" y="124.50" Name="佩姆萨" width="5.00" x="350.00" id="85" ID="30004262" /><text x="350.00" y="124.50" id="86">佩姆萨</text><rect Type="system" Region="艾里迪亚" height="5.00" y="180.00" Name="耶克" width="5.00" x="350.00" id="88" ID="30004265" /><text x="350.00" y="180.00" id="89">耶克</text><rect Type="system" Region="艾里迪亚" height="5.00" y="400.00" Name="亚耶尔" width="5.00" x="350.00" id="91" ID="30004286" /><text x="350.00" y="400.00" id="92">亚耶尔</text><rect Type="system" Region="艾里迪亚" height="5.00" y="450.00" Name="扎赞耶" width="5.00" x="350.00" id="94" ID="30004285" /><text x="350.00" y="450.00" id="95">扎赞耶</text><rect Type="system" Region="艾里迪亚" height="5.00" y="500.00" Name="沙夫拉克" width="5.00" x="350.00" id="97" ID="30004283" /><text x="350.00" y="500.00" id="98">沙夫拉克</text><rect Type="system" Region="艾里迪亚" height="5.00" y="280.00" Name="帕若茨" width="5.00" x="350.00" id="100" ID="30004255" /><text x="350.00" y="280.00" id="101">帕若茨</text><rect Type="system" Region="艾里迪亚" height="5.00" y="450.00" Name="戈顿杰萨" width="5.00" x="450.00" id="103" ID="30004282" /><text x="450.00" y="450.00" id="104">戈顿杰萨</text><rect Type="system" Region="艾里迪亚" height="5.00" y="280.00" Name="费尔勒" width="5.00" x="450.00" id="106" ID="30004254" /><text x="450.00" y="280.00" id="107">费尔勒</text><rect Type="system" Region="艾里迪亚" height="5.00" y="20.00" Name="巴拉斯" width="5.00" x="450.00" id="109" ID="30004261" /><text x="450.00" y="20.00" id="110">巴拉斯</text><rect Type="system" Region="艾里迪亚" height="5.00" y="100.00" Name="伊拉塔" width="5.00" x="450.00" id="112" ID="30004260" /><text x="450.00" y="100.00" id="113">伊拉塔</text><rect Type="system" Region="艾里迪亚" height="5.00" y="180.00" Name="厄迪坎姆" width="5.00" x="450.00" id="115" ID="30004256" /><text x="450.00" y="180.00" id="116">厄迪坎姆</text><rect Type="system" Region="艾里迪亚" height="5.00" y="400.00" Name="杰尔赫什" width="5.00" x="500.00" id="118" ID="30004281" /><text x="500.00" y="400.00" id="119">杰尔赫什</text><rect Type="system" Region="艾里迪亚" height="5.00" y="500.00" Name="纳尼范" width="5.00" x="500.00" id="121" ID="30004280" /><text x="500.00" y="500.00" id="122">纳尼范</text><rect Type="system" Region="艾里迪亚" height="5.00" y="50.00" Name="霍希恩" width="5.00" x="550.00" id="124" ID="30004264" /><text x="550.00" y="50.00" id="125">霍希恩</text><rect Type="system" Region="艾里迪亚" height="5.00" y="180.00" Name="戈西" width="5.00" x="550.00" id="127" ID="30004266" /><text x="550.00" y="180.00" id="128">戈西</text><rect Type="system" Region="艾里迪亚" height="5.00" y="400.00" Name="萨茨里德" width="5.00" x="550.00" id="130" ID="30004270" /><text x="550.00" y="400.00" id="131">萨茨里德</text><rect Type="system" Region="艾里迪亚" height="5.00" y="110.00" Name="赤壁" width="5.00" x="580.00" id="133" ID="30004250" /><text x="580.00" y="110.00" id="134">赤壁</text><rect Type="system" Region="艾里迪亚" height="5.00" y="50.00" Name="帕西呐" width="5.00" x="600.00" id="136" ID="30004253" /><text x="600.00" y="50.00" id="137">帕西呐</text><rect Type="system" Region="艾里迪亚" height="5.00" y="350.00" Name="拉沙葛" width="5.00" x="600.00" id="139" ID="30004269" /><text x="600.00" y="350.00" id="140">拉沙葛</text><rect Type="system" Region="艾里迪亚" height="5.00" y="150.00" Name="海玫" width="5.00" x="620.00" id="142" ID="30004248" /><text x="620.00" y="150.00" id="143">海玫</text><rect Type="system" Region="艾里迪亚" height="5.00" y="550.00" Name="捏勒索" width="5.00" x="620.00" id="145" ID="30004274" /><text x="620.00" y="550.00" id="146">捏勒索</text><rect Type="system" Region="艾里迪亚" height="5.00" y="620.00" Name="图坎纳斯" width="5.00" x="620.00" id="148" ID="30004275" /><text x="620.00" y="620.00" id="149">图坎纳斯</text><rect Type="system" Region="艾里迪亚" height="5.00" y="100.00" Name="埃瓦达" width="5.00" x="650.00" id="151" ID="30004249" /><text x="650.00" y="100.00" id="152">埃瓦达</text><rect Type="system" Region="艾里迪亚" height="5.00" y="400.00" Name="舍恩达" width="5.00" x="650.00" id="154" ID="30004268" /><text x="650.00" y="400.00" id="155">舍恩达</text><rect Type="system" Region="艾里迪亚" height="5.00" y="200.00" Name="贾森" width="5.00" x="680.00" id="157" ID="30004241" /><text x="680.00" y="200.00" id="158">贾森</text><rect Type="system" Region="艾里迪亚" height="5.00" y="350.00" Name="索塔" width="5.00" x="700.00" id="160" ID="30004272" /><text x="700.00" y="350.00" id="161">索塔</text><rect Type="system" Region="艾里迪亚" height="5.00" y="50.00" Name="米什" width="5.00" x="700.00" id="163" ID="30004251" /><text x="700.00" y="50.00" id="164">米什</text><rect Type="system" Region="艾里迪亚" height="5.00" y="480.00" Name="埃夫拉" width="5.00" x="700.00" id="166" ID="30004271" /><text x="700.00" y="480.00" id="167">埃夫拉</text><rect Type="system" Region="艾里迪亚" height="5.00" y="550.00" Name="所里拉" width="5.00" x="700.00" id="169" ID="30004273" /><text x="700.00" y="550.00" id="170">所里拉</text><rect Type="system" Region="艾里迪亚" height="5.00" y="620.00" Name="阿拉恒" width="5.00" x="700.00" id="172" ID="30004279" /><text x="700.00" y="620.00" id="173">阿拉恒</text><rect Type="system" Region="艾里迪亚" height="5.00" y="700.00" Name="希利" width="5.00" x="700.00" id="175" ID="30004278" /><text x="700.00" y="700.00" id="176">希利</text><rect Type="system" Region="艾里迪亚" height="5.00" y="110.00" Name="把杂铎德" width="5.00" x="710.00" id="178" ID="30004252" /><text x="710.00" y="110.00" id="179">把杂铎德</text><rect Type="system" Region="艾里迪亚" height="5.00" y="150.00" Name="克纳赫哈布" width="5.00" x="750.00" id="181" ID="30004237" /><text x="750.00" y="150.00" id="182">克纳赫哈布</text><rect Type="system" Region="艾里迪亚" height="5.00" y="400.00" Name="呐玛" width="5.00" x="750.00" id="184" ID="30004267" /><text x="750.00" y="400.00" id="185">呐玛</text><rect Type="system" Region="艾里迪亚" height="5.00" y="280.00" Name="卡米荷" width="5.00" x="780.00" id="187" ID="30004239" /><text x="780.00" y="280.00" id="188">卡米荷</text><rect Type="system" Region="艾里迪亚" height="5.00" y="550.00" Name="法格拉斯" width="5.00" x="780.00" id="190" ID="30004276" /><text x="780.00" y="550.00" id="191">法格拉斯</text><rect Type="system" Region="艾里迪亚" height="5.00" y="620.00" Name="安吉纳" width="5.00" x="780.00" id="193" ID="30004277" /><text x="780.00" y="620.00" id="194">安吉纳</text><rect Type="system" Region="艾里迪亚" height="5.00" y="80.00" Name="希尔希茨" width="5.00" x="820.00" id="196" ID="30004233" /><text x="820.00" y="80.00" id="197">希尔希茨</text><rect Type="system" Region="艾里迪亚" height="5.00" y="150.00" Name="耶哈巴" width="5.00" x="820.00" id="199" ID="30004236" /><text x="820.00" y="150.00" id="200">耶哈巴</text><rect Type="system" Region="艾里迪亚" height="5.00" y="220.00" Name="基恩斯" width="5.00" x="820.00" id="202" ID="30004238" /><text x="820.00" y="220.00" id="203">基恩斯</text><rect Type="system" Region="艾里迪亚" height="5.00" y="400.00" Name="希尔" width="5.00" x="820.00" id="205" ID="30004240" /><text x="820.00" y="400.00" id="206">希尔</text><rect Type="system" Region="艾里迪亚" height="5.00" y="80.00" Name="扎伊" width="5.00" x="900.00" id="208" ID="30004232" /><text x="900.00" y="80.00" id="209">扎伊</text><rect Type="system" Region="艾里迪亚" height="5.00" y="150.00" Name="马瑟拉" width="5.00" x="900.00" id="211" ID="30004235" /><text x="900.00" y="150.00" id="212">马瑟拉</text><rect Type="system" Region="艾里迪亚" height="5.00" y="200.00" Name="玛尔纳" width="5.00" x="950.00" id="214" ID="30004234" /><text x="950.00" y="200.00" id="215">玛尔纳</text><rect Type="system" Region="艾里迪亚" height="5.00" y="310.00" Name="玛么哈" width="5.00" x="950.00" id="217" ID="30004247" /><text x="950.00" y="310.00" id="218">玛么哈</text><rect Type="system" Region="艾里迪亚" height="5.00" y="360.00" Name="伊斯德" width="5.00" x="950.00" id="220" ID="30004243" /><text x="950.00" y="360.00" id="221">伊斯德</text><rect Type="system" Region="艾里迪亚" height="5.00" y="410.00" Name="萨达纳" width="5.00" x="950.00" id="223" ID="30004242" /><text x="950.00" y="410.00" id="224">萨达纳</text><rect Type="system" Region="艾里迪亚" height="5.00" y="470.00" Name="欧纳南姆" width="5.00" x="950.00" id="226" ID="30004244" /><text x="950.00" y="470.00" id="227">欧纳南姆</text><rect Type="system" Region="艾里迪亚" height="5.00" y="530.00" Name="由迪亚诺" width="5.00" x="950.00" id="229" ID="30004245" /><text x="950.00" y="530.00" id="230">由迪亚诺</text><rect Type="system" Region="艾里迪亚" height="5.00" y="585.50" Name="维翰" width="5.00" x="950.00" id="232" ID="30004246" /><text x="950.00" y="585.50" id="233">维翰</text><rect Type="system" Region="艾里迪亚" height="5.00" y="80.00" Name="万恩" width="5.00" x="1000.00" id="235" ID="30004230" /><text x="1000.00" y="80.00" id="236">万恩</text><rect Type="system" Region="艾里迪亚" height="5.00" y="150.00" Name="沙卡斯" width="5.00" x="1000.00" id="238" ID="30004231" /><text x="1000.00" y="150.00" id="239">沙卡斯</text><rect Type="system" Region="源泉之域" height="5.00" y="50.00" Name="D4KU-5" width="5.00" x="50.00" id="241" ID="30004626" /><text x="50.00" y="50.00" id="242">D4KU-5</text><rect Type="system" Region="卡尼迪" height="5.00" y="724.50" Name="拉菲姆" width="5.00" x="150.00" id="244" ID="30003941" /><text x="150.00" y="724.50" id="245">拉菲姆</text><rect Type="system" Region="绝地之域" height="5.00" y="724.50" Name="1-SMEB" width="5.00" x="300.00" id="247" ID="30004738" /><text x="300.00" y="724.50" id="248">1-SMEB</text><rect Type="system" Region="孤独之域" height="5.00" y="20.00" Name="埃加罗尔斯" width="5.00" x="820.00" id="250" ID="30003600" /><text x="820.00" y="20.00" id="251">埃加罗尔斯</text><rect Type="system" Region="柯埃佐" height="5.00" y="634.50" Name="金科恩" width="5.00" x="950.00" id="253" ID="30005055" /><text x="950.00" y="634.50" id="254">金科恩</text><rect Type="system" Region="吉勒西斯" height="5.00" y="20.00" Name="欧塔科德" width="5.00" x="1000.00" id="256" ID="30005274" /><text x="1000.00" y="20.00" id="257">欧塔科德</text><line x2="50.00" style="fill:blue;stroke:blue;" y1="120.00" x1="50.00" id="259" y2="175.50" /><line x2="50.00" style="fill:blue;stroke:blue;" y1="120.00" x1="50.00" id="260" y2="50.00" /><line x2="120.00" style="fill:blue;stroke:blue;" y1="175.50" x1="50.00" id="261" y2="224.50" /><line x2="120.00" style="fill:blue;stroke:blue;" y1="175.50" x1="50.00" id="262" y2="175.50" /><line x2="50.00" style="fill:blue;stroke:blue;" y1="175.50" x1="50.00" id="263" y2="120.00" /><line x2="120.00" style="fill:blue;stroke:blue;" y1="224.50" x1="50.00" id="264" y2="224.50" /><line x2="120.00" style="fill:blue;stroke:blue;" y1="300.00" x1="50.00" id="265" y2="224.50" /><line x2="50.00" style="fill:blue;stroke:blue;" y1="300.00" x1="50.00" id="266" y2="350.00" /><line x2="50.00" style="fill:blue;stroke:blue;" y1="350.00" x1="50.00" id="267" y2="300.00" /><line x2="300.00" style="fill:blue;stroke:blue;" y1="620.00" x1="150.00" id="268" y2="620.00" /><line x2="300.00" style="fill:blue;stroke:blue;" y1="620.00" x1="150.00" id="269" y2="675.50" /><line x2="150.00" style="fill:blue;stroke:blue;" y1="620.00" x1="150.00" id="270" y2="675.50" /><line x2="220.00" style="fill:blue;stroke:blue;" y1="620.00" x1="150.00" id="271" y2="550.00" /><line x2="150.00" style="fill:blue;stroke:blue;" y1="675.50" x1="150.00" id="272" y2="724.50" /><line x2="300.00" style="fill:blue;stroke:blue;" y1="675.50" x1="150.00" id="273" y2="675.50" /><line x2="150.00" style="fill:blue;stroke:blue;" y1="675.50" x1="150.00" id="274" y2="620.00" /><line x2="120.00" style="fill:blue;stroke:blue;" y1="175.50" x1="120.00" id="275" y2="224.50" /><line x2="50.00" style="fill:blue;stroke:blue;" y1="175.50" x1="120.00" id="276" y2="175.50" /><line x2="120.00" style="fill:blue;stroke:blue;" y1="224.50" x1="120.00" id="277" y2="300.00" /><line x2="120.00" style="fill:blue;stroke:blue;" y1="224.50" x1="120.00" id="278" y2="175.50" /><line x2="50.00" style="fill:blue;stroke:blue;" y1="224.50" x1="120.00" id="279" y2="224.50" /><line x2="50.00" style="fill:blue;stroke:blue;" y1="224.50" x1="120.00" id="280" y2="175.50" /><line x2="50.00" style="fill:blue;stroke:blue;" y1="224.50" x1="120.00" id="281" y2="300.00" /><line x2="160.00" style="fill:blue;stroke:blue;" y1="300.00" x1="120.00" id="282" y2="340.00" /><line x2="200.00" style="fill:blue;stroke:blue;" y1="300.00" x1="120.00" id="283" y2="270.00" /><line x2="120.00" style="fill:blue;stroke:blue;" y1="300.00" x1="120.00" id="284" y2="224.50" /><line x2="220.00" style="fill:blue;stroke:blue;" y1="400.00" x1="120.00" id="285" y2="400.00" /><line x2="120.00" style="fill:blue;stroke:blue;" y1="400.00" x1="120.00" id="286" y2="450.00" /><line x2="160.00" style="fill:blue;stroke:blue;" y1="400.00" x1="120.00" id="287" y2="340.00" /><line x2="120.00" style="fill:blue;stroke:blue;" y1="450.00" x1="120.00" id="288" y2="400.00" /><line x2="180.00" style="fill:blue;stroke:blue;" y1="450.00" x1="120.00" id="289" y2="500.00" /><line x2="120.00" style="fill:blue;stroke:blue;" y1="500.00" x1="180.00" id="290" y2="450.00" /><line x2="220.00" style="fill:blue;stroke:blue;" y1="500.00" x1="180.00" id="291" y2="450.00" /><line x2="220.00" style="fill:blue;stroke:blue;" y1="340.00" x1="160.00" id="292" y2="400.00" /><line x2="120.00" style="fill:blue;stroke:blue;" y1="340.00" x1="160.00" id="293" y2="400.00" /><line x2="200.00" style="fill:blue;stroke:blue;" y1="340.00" x1="160.00" id="294" y2="270.00" /><line x2="120.00" style="fill:blue;stroke:blue;" y1="340.00" x1="160.00" id="295" y2="300.00" /><line x2="220.00" style="fill:blue;stroke:blue;" y1="270.00" x1="200.00" id="296" y2="340.00" /><line x2="160.00" style="fill:blue;stroke:blue;" y1="270.00" x1="200.00" id="297" y2="340.00" /><line x2="120.00" style="fill:blue;stroke:blue;" y1="270.00" x1="200.00" id="298" y2="300.00" /><line x2="300.00" style="fill:blue;stroke:blue;" y1="550.00" x1="220.00" id="299" y2="620.00" /><line x2="150.00" style="fill:blue;stroke:blue;" y1="550.00" x1="220.00" id="300" y2="620.00" /><line x2="220.00" style="fill:blue;stroke:blue;" y1="340.00" x1="220.00" id="301" y2="400.00" /><line x2="200.00" style="fill:blue;stroke:blue;" y1="340.00" x1="220.00" id="302" y2="270.00" /><line x2="280.00" style="fill:blue;stroke:blue;" y1="400.00" x1="220.00" id="303" y2="400.00" /><line x2="120.00" style="fill:blue;stroke:blue;" y1="400.00" x1="220.00" id="304" y2="400.00" /><line x2="220.00" style="fill:blue;stroke:blue;" y1="400.00" x1="220.00" id="305" y2="340.00" /><line x2="220.00" style="fill:blue;stroke:blue;" y1="400.00" x1="220.00" id="306" y2="450.00" /><line x2="160.00" style="fill:blue;stroke:blue;" y1="400.00" x1="220.00" id="307" y2="340.00" /><line x2="220.00" style="fill:blue;stroke:blue;" y1="450.00" x1="220.00" id="308" y2="400.00" /><line x2="180.00" style="fill:blue;stroke:blue;" y1="450.00" x1="220.00" id="309" y2="500.00" /><line x2="250.00" style="fill:blue;stroke:blue;" y1="100.00" x1="250.00" id="310" y2="200.00" /><line x2="300.00" style="fill:blue;stroke:blue;" y1="100.00" x1="250.00" id="311" y2="20.00" /><line x2="450.00" style="fill:blue;stroke:blue;" y1="200.00" x1="250.00" id="312" y2="280.00" /><line x2="250.00" style="fill:blue;stroke:blue;" y1="200.00" x1="250.00" id="313" y2="100.00" /><line x2="350.00" style="fill:blue;stroke:blue;" y1="400.00" x1="280.00" id="314" y2="400.00" /><line x2="220.00" style="fill:blue;stroke:blue;" y1="400.00" x1="280.00" id="315" y2="400.00" /><line x2="350.00" style="fill:blue;stroke:blue;" y1="500.00" x1="300.00" id="316" y2="500.00" /><line x2="300.00" style="fill:blue;stroke:blue;" y1="500.00" x1="300.00" id="317" y2="550.00" /><line x2="300.00" style="fill:blue;stroke:blue;" y1="550.00" x1="300.00" id="318" y2="500.00" /><line x2="300.00" style="fill:blue;stroke:blue;" y1="550.00" x1="300.00" id="319" y2="620.00" /><line x2="300.00" style="fill:blue;stroke:blue;" y1="620.00" x1="300.00" id="320" y2="550.00" /><line x2="300.00" style="fill:blue;stroke:blue;" y1="620.00" x1="300.00" id="321" y2="675.50" /><line x2="150.00" style="fill:blue;stroke:blue;" y1="620.00" x1="300.00" id="322" y2="620.00" /><line x2="220.00" style="fill:blue;stroke:blue;" y1="620.00" x1="300.00" id="323" y2="550.00" /><line x2="300.00" style="fill:blue;stroke:blue;" y1="675.50" x1="300.00" id="324" y2="620.00" /><line x2="150.00" style="fill:blue;stroke:blue;" y1="675.50" x1="300.00" id="325" y2="620.00" /><line x2="150.00" style="fill:blue;stroke:blue;" y1="675.50" x1="300.00" id="326" y2="675.50" /><line x2="300.00" style="fill:blue;stroke:blue;" y1="675.50" x1="300.00" id="327" y2="724.50" /><line x2="250.00" style="fill:blue;stroke:blue;" y1="20.00" x1="300.00" id="328" y2="100.00" /><line x2="450.00" style="fill:blue;stroke:blue;" y1="20.00" x1="300.00" id="329" y2="20.00" /><line x2="450.00" style="fill:blue;stroke:blue;" y1="75.50" x1="350.00" id="330" y2="100.00" /><line x2="350.00" style="fill:blue;stroke:blue;" y1="75.50" x1="350.00" id="331" y2="124.50" /><line x2="450.00" style="fill:blue;stroke:blue;" y1="124.50" x1="350.00" id="332" y2="100.00" /><line x2="350.00" style="fill:blue;stroke:blue;" y1="124.50" x1="350.00" id="333" y2="75.50" /><line x2="350.00" style="fill:blue;stroke:blue;" y1="124.50" x1="350.00" id="334" y2="180.00" /><line x2="350.00" style="fill:blue;stroke:blue;" y1="180.00" x1="350.00" id="335" y2="124.50" /><line x2="350.00" style="fill:blue;stroke:blue;" y1="400.00" x1="350.00" id="336" y2="450.00" /><line x2="280.00" style="fill:blue;stroke:blue;" y1="400.00" x1="350.00" id="337" y2="400.00" /><line x2="450.00" style="fill:blue;stroke:blue;" y1="450.00" x1="350.00" id="338" y2="450.00" /><line x2="350.00" style="fill:blue;stroke:blue;" y1="450.00" x1="350.00" id="339" y2="500.00" /><line x2="350.00" style="fill:blue;stroke:blue;" y1="450.00" x1="350.00" id="340" y2="400.00" /><line x2="500.00" style="fill:blue;stroke:blue;" y1="500.00" x1="350.00" id="341" y2="500.00" /><line x2="300.00" style="fill:blue;stroke:blue;" y1="500.00" x1="350.00" id="342" y2="500.00" /><line x2="350.00" style="fill:blue;stroke:blue;" y1="500.00" x1="350.00" id="343" y2="450.00" /><line x2="450.00" style="fill:blue;stroke:blue;" y1="280.00" x1="350.00" id="344" y2="280.00" /><line x2="500.00" style="fill:blue;stroke:blue;" y1="450.00" x1="450.00" id="345" y2="500.00" /><line x2="500.00" style="fill:blue;stroke:blue;" y1="450.00" x1="450.00" id="346" y2="400.00" /><line x2="350.00" style="fill:blue;stroke:blue;" y1="450.00" x1="450.00" id="347" y2="450.00" /><line x2="780.00" style="fill:blue;stroke:blue;" y1="280.00" x1="450.00" id="348" y2="280.00" /><line x2="350.00" style="fill:blue;stroke:blue;" y1="280.00" x1="450.00" id="349" y2="280.00" /><line x2="450.00" style="fill:blue;stroke:blue;" y1="280.00" x1="450.00" id="350" y2="180.00" /><line x2="250.00" style="fill:blue;stroke:blue;" y1="280.00" x1="450.00" id="351" y2="200.00" /><line x2="550.00" style="fill:blue;stroke:blue;" y1="280.00" x1="450.00" id="352" y2="180.00" /><line x2="300.00" style="fill:blue;stroke:blue;" y1="20.00" x1="450.00" id="353" y2="20.00" /><line x2="450.00" style="fill:blue;stroke:blue;" y1="20.00" x1="450.00" id="354" y2="100.00" /><line x2="550.00" style="fill:blue;stroke:blue;" y1="20.00" x1="450.00" id="355" y2="50.00" /><line x2="450.00" style="fill:blue;stroke:blue;" y1="100.00" x1="450.00" id="356" y2="180.00" /><line x2="450.00" style="fill:blue;stroke:blue;" y1="100.00" x1="450.00" id="357" y2="20.00" /><line x2="350.00" style="fill:blue;stroke:blue;" y1="100.00" x1="450.00" id="358" y2="124.50" /><line x2="350.00" style="fill:blue;stroke:blue;" y1="100.00" x1="450.00" id="359" y2="75.50" /><line x2="450.00" style="fill:blue;stroke:blue;" y1="180.00" x1="450.00" id="360" y2="280.00" /><line x2="450.00" style="fill:blue;stroke:blue;" y1="180.00" x1="450.00" id="361" y2="100.00" /><line x2="500.00" style="fill:blue;stroke:blue;" y1="400.00" x1="500.00" id="362" y2="500.00" /><line x2="450.00" style="fill:blue;stroke:blue;" y1="400.00" x1="500.00" id="363" y2="450.00" /><line x2="550.00" style="fill:blue;stroke:blue;" y1="500.00" x1="500.00" id="364" y2="400.00" /><line x2="500.00" style="fill:blue;stroke:blue;" y1="500.00" x1="500.00" id="365" y2="400.00" /><line x2="450.00" style="fill:blue;stroke:blue;" y1="500.00" x1="500.00" id="366" y2="450.00" /><line x2="350.00" style="fill:blue;stroke:blue;" y1="500.00" x1="500.00" id="367" y2="500.00" /><line x2="450.00" style="fill:blue;stroke:blue;" y1="50.00" x1="550.00" id="368" y2="20.00" /><line x2="550.00" style="fill:blue;stroke:blue;" y1="50.00" x1="550.00" id="369" y2="180.00" /><line x2="450.00" style="fill:blue;stroke:blue;" y1="180.00" x1="550.00" id="370" y2="280.00" /><line x2="550.00" style="fill:blue;stroke:blue;" y1="180.00" x1="550.00" id="371" y2="50.00" /><line x2="650.00" style="fill:blue;stroke:blue;" y1="400.00" x1="550.00" id="372" y2="400.00" /><line x2="600.00" style="fill:blue;stroke:blue;" y1="400.00" x1="550.00" id="373" y2="350.00" /><line x2="500.00" style="fill:blue;stroke:blue;" y1="400.00" x1="550.00" id="374" y2="500.00" /><line x2="620.00" style="fill:blue;stroke:blue;" y1="110.00" x1="580.00" id="375" y2="150.00" /><line x2="650.00" style="fill:blue;stroke:blue;" y1="50.00" x1="600.00" id="376" y2="100.00" /><line x2="700.00" style="fill:blue;stroke:blue;" y1="50.00" x1="600.00" id="377" y2="50.00" /><line x2="650.00" style="fill:blue;stroke:blue;" y1="350.00" x1="600.00" id="378" y2="400.00" /><line x2="550.00" style="fill:blue;stroke:blue;" y1="350.00" x1="600.00" id="379" y2="400.00" /><line x2="700.00" style="fill:blue;stroke:blue;" y1="350.00" x1="600.00" id="380" y2="350.00" /><line x2="680.00" style="fill:blue;stroke:blue;" y1="150.00" x1="620.00" id="381" y2="200.00" /><line x2="650.00" style="fill:blue;stroke:blue;" y1="150.00" x1="620.00" id="382" y2="100.00" /><line x2="580.00" style="fill:blue;stroke:blue;" y1="150.00" x1="620.00" id="383" y2="110.00" /><line x2="710.00" style="fill:blue;stroke:blue;" y1="150.00" x1="620.00" id="384" y2="110.00" /><line x2="700.00" style="fill:blue;stroke:blue;" y1="550.00" x1="620.00" id="385" y2="550.00" /><line x2="620.00" style="fill:blue;stroke:blue;" y1="550.00" x1="620.00" id="386" y2="620.00" /><line x2="700.00" style="fill:blue;stroke:blue;" y1="620.00" x1="620.00" id="387" y2="550.00" /><line x2="620.00" style="fill:blue;stroke:blue;" y1="620.00" x1="620.00" id="388" y2="550.00" /><line x2="700.00" style="fill:blue;stroke:blue;" y1="620.00" x1="620.00" id="389" y2="700.00" /><line x2="700.00" style="fill:blue;stroke:blue;" y1="620.00" x1="620.00" id="390" y2="620.00" /><line x2="620.00" style="fill:blue;stroke:blue;" y1="100.00" x1="650.00" id="391" y2="150.00" /><line x2="700.00" style="fill:blue;stroke:blue;" y1="100.00" x1="650.00" id="392" y2="50.00" /><line x2="600.00" style="fill:blue;stroke:blue;" y1="100.00" x1="650.00" id="393" y2="50.00" /><line x2="750.00" style="fill:blue;stroke:blue;" y1="400.00" x1="650.00" id="394" y2="400.00" /><line x2="600.00" style="fill:blue;stroke:blue;" y1="400.00" x1="650.00" id="395" y2="350.00" /><line x2="550.00" style="fill:blue;stroke:blue;" y1="400.00" x1="650.00" id="396" y2="400.00" /><line x2="750.00" style="fill:blue;stroke:blue;" y1="200.00" x1="680.00" id="397" y2="150.00" /><line x2="780.00" style="fill:blue;stroke:blue;" y1="200.00" x1="680.00" id="398" y2="280.00" /><line x2="620.00" style="fill:blue;stroke:blue;" y1="200.00" x1="680.00" id="399" y2="150.00" /><line x2="750.00" style="fill:blue;stroke:blue;" y1="350.00" x1="700.00" id="400" y2="400.00" /><line x2="600.00" style="fill:blue;stroke:blue;" y1="350.00" x1="700.00" id="401" y2="350.00" /><line x2="650.00" style="fill:blue;stroke:blue;" y1="50.00" x1="700.00" id="402" y2="100.00" /><line x2="600.00" style="fill:blue;stroke:blue;" y1="50.00" x1="700.00" id="403" y2="50.00" /><line x2="750.00" style="fill:blue;stroke:blue;" y1="480.00" x1="700.00" id="404" y2="400.00" /><line x2="700.00" style="fill:blue;stroke:blue;" y1="480.00" x1="700.00" id="405" y2="550.00" /><line x2="700.00" style="fill:blue;stroke:blue;" y1="550.00" x1="700.00" id="406" y2="480.00" /><line x2="620.00" style="fill:blue;stroke:blue;" y1="550.00" x1="700.00" id="407" y2="550.00" /><line x2="620.00" style="fill:blue;stroke:blue;" y1="550.00" x1="700.00" id="408" y2="620.00" /><line x2="780.00" style="fill:blue;stroke:blue;" y1="550.00" x1="700.00" id="409" y2="550.00" /><line x2="780.00" style="fill:blue;stroke:blue;" y1="550.00" x1="700.00" id="410" y2="620.00" /><line x2="700.00" style="fill:blue;stroke:blue;" y1="550.00" x1="700.00" id="411" y2="620.00" /><line x2="700.00" style="fill:blue;stroke:blue;" y1="620.00" x1="700.00" id="412" y2="550.00" /><line x2="620.00" style="fill:blue;stroke:blue;" y1="620.00" x1="700.00" id="413" y2="620.00" /><line x2="780.00" style="fill:blue;stroke:blue;" y1="620.00" x1="700.00" id="414" y2="620.00" /><line x2="620.00" style="fill:blue;stroke:blue;" y1="700.00" x1="700.00" id="415" y2="620.00" /><line x2="780.00" style="fill:blue;stroke:blue;" y1="700.00" x1="700.00" id="416" y2="620.00" /><line x2="620.00" style="fill:blue;stroke:blue;" y1="110.00" x1="710.00" id="417" y2="150.00" /><line x2="820.00" style="fill:blue;stroke:blue;" y1="150.00" x1="750.00" id="418" y2="150.00" /><line x2="820.00" style="fill:blue;stroke:blue;" y1="150.00" x1="750.00" id="419" y2="220.00" /><line x2="680.00" style="fill:blue;stroke:blue;" y1="150.00" x1="750.00" id="420" y2="200.00" /><line x2="820.00" style="fill:blue;stroke:blue;" y1="400.00" x1="750.00" id="421" y2="400.00" /><line x2="650.00" style="fill:blue;stroke:blue;" y1="400.00" x1="750.00" id="422" y2="400.00" /><line x2="700.00" style="fill:blue;stroke:blue;" y1="400.00" x1="750.00" id="423" y2="480.00" /><line x2="700.00" style="fill:blue;stroke:blue;" y1="400.00" x1="750.00" id="424" y2="350.00" /><line x2="820.00" style="fill:blue;stroke:blue;" y1="280.00" x1="780.00" id="425" y2="220.00" /><line x2="820.00" style="fill:blue;stroke:blue;" y1="280.00" x1="780.00" id="426" y2="400.00" /><line x2="680.00" style="fill:blue;stroke:blue;" y1="280.00" x1="780.00" id="427" y2="200.00" /><line x2="450.00" style="fill:blue;stroke:blue;" y1="280.00" x1="780.00" id="428" y2="280.00" /><line x2="700.00" style="fill:blue;stroke:blue;" y1="550.00" x1="780.00" id="429" y2="550.00" /><line x2="700.00" style="fill:blue;stroke:blue;" y1="620.00" x1="780.00" id="430" y2="550.00" /><line x2="700.00" style="fill:blue;stroke:blue;" y1="620.00" x1="780.00" id="431" y2="700.00" /><line x2="700.00" style="fill:blue;stroke:blue;" y1="620.00" x1="780.00" id="432" y2="620.00" /><line x2="820.00" style="fill:blue;stroke:blue;" y1="80.00" x1="820.00" id="433" y2="20.00" /><line x2="900.00" style="fill:blue;stroke:blue;" y1="80.00" x1="820.00" id="434" y2="80.00" /><line x2="820.00" style="fill:blue;stroke:blue;" y1="80.00" x1="820.00" id="435" y2="150.00" /><line x2="820.00" style="fill:blue;stroke:blue;" y1="150.00" x1="820.00" id="436" y2="80.00" /><line x2="750.00" style="fill:blue;stroke:blue;" y1="150.00" x1="820.00" id="437" y2="150.00" /><line x2="820.00" style="fill:blue;stroke:blue;" y1="150.00" x1="820.00" id="438" y2="220.00" /><line x2="820.00" style="fill:blue;stroke:blue;" y1="220.00" x1="820.00" id="439" y2="150.00" /><line x2="750.00" style="fill:blue;stroke:blue;" y1="220.00" x1="820.00" id="440" y2="150.00" /><line x2="780.00" style="fill:blue;stroke:blue;" y1="220.00" x1="820.00" id="441" y2="280.00" /><line x2="780.00" style="fill:blue;stroke:blue;" y1="400.00" x1="820.00" id="442" y2="280.00" /><line x2="950.00" style="fill:blue;stroke:blue;" y1="400.00" x1="820.00" id="443" y2="410.00" /><line x2="750.00" style="fill:blue;stroke:blue;" y1="400.00" x1="820.00" id="444" y2="400.00" /><line x2="1000.00" style="fill:blue;stroke:blue;" y1="80.00" x1="900.00" id="445" y2="80.00" /><line x2="820.00" style="fill:blue;stroke:blue;" y1="80.00" x1="900.00" id="446" y2="80.00" /><line x2="900.00" style="fill:blue;stroke:blue;" y1="80.00" x1="900.00" id="447" y2="150.00" /><line x2="1000.00" style="fill:blue;stroke:blue;" y1="150.00" x1="900.00" id="448" y2="150.00" /><line x2="900.00" style="fill:blue;stroke:blue;" y1="150.00" x1="900.00" id="449" y2="80.00" /><line x2="950.00" style="fill:blue;stroke:blue;" y1="150.00" x1="900.00" id="450" y2="200.00" /><line x2="1000.00" style="fill:blue;stroke:blue;" y1="200.00" x1="950.00" id="451" y2="150.00" /><line x2="900.00" style="fill:blue;stroke:blue;" y1="200.00" x1="950.00" id="452" y2="150.00" /><line x2="950.00" style="fill:blue;stroke:blue;" y1="310.00" x1="950.00" id="453" y2="360.00" /><line x2="950.00" style="fill:blue;stroke:blue;" y1="360.00" x1="950.00" id="454" y2="410.00" /><line x2="950.00" style="fill:blue;stroke:blue;" y1="360.00" x1="950.00" id="455" y2="310.00" /><line x2="820.00" style="fill:blue;stroke:blue;" y1="410.00" x1="950.00" id="456" y2="400.00" /><line x2="950.00" style="fill:blue;stroke:blue;" y1="410.00" x1="950.00" id="457" y2="360.00" /><line x2="950.00" style="fill:blue;stroke:blue;" y1="410.00" x1="950.00" id="458" y2="470.00" /><line x2="950.00" style="fill:blue;stroke:blue;" y1="470.00" x1="950.00" id="459" y2="410.00" /><line x2="950.00" style="fill:blue;stroke:blue;" y1="470.00" x1="950.00" id="460" y2="530.00" /><line x2="950.00" style="fill:blue;stroke:blue;" y1="530.00" x1="950.00" id="461" y2="470.00" /><line x2="950.00" style="fill:blue;stroke:blue;" y1="530.00" x1="950.00" id="462" y2="585.50" /><line x2="950.00" style="fill:blue;stroke:blue;" y1="585.50" x1="950.00" id="463" y2="530.00" /><line x2="950.00" style="fill:blue;stroke:blue;" y1="585.50" x1="950.00" id="464" y2="634.50" /><line x2="1000.00" style="fill:blue;stroke:blue;" y1="80.00" x1="1000.00" id="465" y2="150.00" /><line x2="900.00" style="fill:blue;stroke:blue;" y1="80.00" x1="1000.00" id="466" y2="80.00" /><line x2="1000.00" style="fill:blue;stroke:blue;" y1="80.00" x1="1000.00" id="467" y2="20.00" /><line x2="1000.00" style="fill:blue;stroke:blue;" y1="150.00" x1="1000.00" id="468" y2="80.00" /><line x2="950.00" style="fill:blue;stroke:blue;" y1="150.00" x1="1000.00" id="469" y2="200.00" /><line x2="900.00" style="fill:blue;stroke:blue;" y1="150.00" x1="1000.00" id="470" y2="150.00" /><line x2="50.00" style="fill:blue;stroke:blue;" y1="50.00" x1="50.00" id="471" y2="120.00" /><line x2="150.00" style="fill:blue;stroke:blue;" y1="724.50" x1="150.00" id="472" y2="675.50" /><line x2="300.00" style="fill:blue;stroke:blue;" y1="724.50" x1="300.00" id="473" y2="675.50" /><line x2="820.00" style="fill:blue;stroke:blue;" y1="20.00" x1="820.00" id="474" y2="80.00" /><line x2="950.00" style="fill:blue;stroke:blue;" y1="634.50" x1="950.00" id="475" y2="585.50" /><line x2="1000.00" style="fill:blue;stroke:blue;" y1="20.00" x1="1000.00" id="476" y2="80.00" /></svg>
