<?xml version="1.0" standalone="yes"?><!DOCTYPE svg PUBLIC "-//W3C//DTD SVG 1.1//EN" "http://www.w3.org/Graphics/SVG/1.1/DTD/svg11.dtd"[]><svg height="800.00" id="26922" width="1050.00" xmlns="http://www.w3.org/2000/svg" xmlns:xlink="http://www.w3.org/1999/xlink"><rect Type="system" Region="螺旋之域" height="5.00" y="150.00" Name="XT-1E0" width="5.00" x="50.00" id="26923" ID="30001552" /><text x="50.00" y="150.00" id="26924">XT-1E0</text><rect Type="system" Region="螺旋之域" height="5.00" y="320.00" Name="A-J6SN" width="5.00" x="50.00" id="26926" ID="30001537" /><text x="50.00" y="320.00" id="26927">A-J6SN</text><rect Type="system" Region="螺旋之域" height="5.00" y="100.00" Name="0J-MQW" width="5.00" x="80.00" id="26929" ID="30001551" /><text x="80.00" y="100.00" id="26930">0J-MQW</text><rect Type="system" Region="螺旋之域" height="5.00" y="150.00" Name="K-BBYU" width="5.00" x="100.00" id="26932" ID="30001550" /><text x="100.00" y="150.00" id="26933">K-BBYU</text><rect Type="system" Region="螺旋之域" height="5.00" y="200.00" Name="N-PS2Y" width="5.00" x="100.00" id="26935" ID="30001549" /><text x="100.00" y="200.00" id="26936">N-PS2Y</text><rect Type="system" Region="螺旋之域" height="5.00" y="250.00" Name="T6T-BQ" width="5.00" x="120.00" id="26938" ID="30001548" /><text x="120.00" y="250.00" id="26939">T6T-BQ</text><rect Type="system" Region="螺旋之域" height="5.00" y="320.00" Name="AG-SYG" width="5.00" x="150.00" id="26941" ID="30001539" /><text x="150.00" y="320.00" id="26942">AG-SYG</text><rect Type="system" Region="螺旋之域" height="5.00" y="400.00" Name="C6C-K9" width="5.00" x="150.00" id="26944" ID="30001533" /><text x="150.00" y="400.00" id="26945">C6C-K9</text><rect Type="system" Region="螺旋之域" height="5.00" y="100.00" Name="3ET-G8" width="5.00" x="150.00" id="26947" ID="30001553" /><text x="150.00" y="100.00" id="26948">3ET-G8</text><rect Type="system" Region="螺旋之域" height="5.00" y="580.00" Name="GZM-KB" width="5.00" x="180.00" id="26950" ID="30001531" /><text x="180.00" y="580.00" id="26951">GZM-KB</text><rect Type="system" Region="螺旋之域" height="5.00" y="500.00" Name="RXA-W1" width="5.00" x="200.00" id="26953" ID="30001563" /><text x="200.00" y="500.00" id="26954">RXA-W1</text><rect Type="system" Region="螺旋之域" height="5.00" y="700.00" Name="E-BFLT" width="5.00" x="200.00" id="26956" ID="30001530" /><text x="200.00" y="700.00" id="26957">E-BFLT</text><rect Type="system" Region="螺旋之域" height="5.00" y="320.00" Name="ETO-OT" width="5.00" x="220.00" id="26959" ID="30001535" /><text x="220.00" y="320.00" id="26960">ETO-OT</text><rect Type="system" Region="螺旋之域" height="5.00" y="400.00" Name="AL-JSG" width="5.00" x="220.00" id="26962" ID="30001534" /><text x="220.00" y="400.00" id="26963">AL-JSG</text><rect Type="system" Region="螺旋之域" height="5.00" y="250.00" Name="MOSA-I" width="5.00" x="220.00" id="26965" ID="30001554" /><text x="220.00" y="250.00" id="26966">MOSA-I</text><rect Type="system" Region="螺旋之域" height="5.00" y="580.00" Name="L-WG68" width="5.00" x="250.00" id="26968" ID="30001526" /><text x="250.00" y="580.00" id="26969">L-WG68</text><rect Type="system" Region="螺旋之域" height="5.00" y="520.00" Name="Q-UVY6" width="5.00" x="250.00" id="26971" ID="30001562" /><text x="250.00" y="520.00" id="26972">Q-UVY6</text><rect Type="system" Region="螺旋之域" height="5.00" y="224.50" Name="B6-XE8" width="5.00" x="280.00" id="26974" ID="30001555" /><text x="280.00" y="224.50" id="26975">B6-XE8</text><rect Type="system" Region="螺旋之域" height="5.00" y="630.00" Name="HIK-MC" width="5.00" x="270.00" id="26977" ID="30001528" /><text x="270.00" y="630.00" id="26978">HIK-MC</text><rect Type="system" Region="螺旋之域" height="5.00" y="175.50" Name="JLH-FN" width="5.00" x="280.00" id="26980" ID="30001556" /><text x="280.00" y="175.50" id="26981">JLH-FN</text><rect Type="system" Region="螺旋之域" height="5.00" y="680.00" Name="E4-E8W" width="5.00" x="280.00" id="26983" ID="30001527" /><text x="280.00" y="680.00" id="26984">E4-E8W</text><rect Type="system" Region="螺旋之域" height="5.00" y="120.00" Name="DFTK-D" width="5.00" x="280.00" id="26986" ID="30001557" /><text x="280.00" y="120.00" id="26987">DFTK-D</text><rect Type="system" Region="螺旋之域" height="5.00" y="421.91" Name="KPI-OW" width="5.00" x="279.04" id="26989" ID="30001536" /><text x="279.04" y="421.91" id="26990">KPI-OW</text><rect Type="system" Region="螺旋之域" height="5.00" y="378.09" Name="OTJ-4W" width="5.00" x="300.96" id="26992" ID="30001538" /><text x="300.96" y="378.09" id="26993">OTJ-4W</text><rect Type="system" Region="螺旋之域" height="5.00" y="50.00" Name="L7-BLT" width="5.00" x="300.00" id="26995" ID="30001560" /><text x="300.00" y="50.00" id="26996">L7-BLT</text><rect Type="system" Region="螺旋之域" height="5.00" y="550.00" Name="VK6-EZ" width="5.00" x="300.00" id="26998" ID="30001566" /><text x="300.00" y="550.00" id="26999">VK6-EZ</text><rect Type="system" Region="螺旋之域" height="5.00" y="500.00" Name="JVA-FE" width="5.00" x="320.00" id="27001" ID="30001567" /><text x="320.00" y="500.00" id="27002">JVA-FE</text><rect Type="system" Region="螺旋之域" height="5.00" y="620.00" Name="Y4OK-W" width="5.00" x="320.00" id="27004" ID="30001546" /><text x="320.00" y="620.00" id="27005">Y4OK-W</text><rect Type="system" Region="螺旋之域" height="5.00" y="200.00" Name="4HF-4R" width="5.00" x="350.00" id="27007" ID="30001558" /><text x="350.00" y="200.00" id="27008">4HF-4R</text><rect Type="system" Region="螺旋之域" height="5.00" y="420.00" Name="1I5-0V" width="5.00" x="350.00" id="27010" ID="30001540" /><text x="350.00" y="420.00" id="27011">1I5-0V</text><rect Type="system" Region="螺旋之域" height="5.00" y="650.00" Name="5LAJ-8" width="5.00" x="360.00" id="27013" ID="30001532" /><text x="360.00" y="650.00" id="27014">5LAJ-8</text><rect Type="system" Region="螺旋之域" height="5.00" y="700.00" Name="B9EA-G" width="5.00" x="350.00" id="27016" ID="30001529" /><text x="350.00" y="700.00" id="27017">B9EA-G</text><rect Type="system" Region="螺旋之域" height="5.00" y="520.96" Name="8P-LKL" width="5.00" x="378.09" id="27019" ID="30001561" /><text x="378.09" y="520.96" id="27020">8P-LKL</text><rect Type="system" Region="螺旋之域" height="5.00" y="620.00" Name="6U-1RX" width="5.00" x="400.00" id="27022" ID="30001545" /><text x="400.00" y="620.00" id="27023">6U-1RX</text><rect Type="system" Region="螺旋之域" height="5.00" y="200.00" Name="Y8K-5B" width="5.00" x="420.00" id="27025" ID="30001559" /><text x="420.00" y="200.00" id="27026">Y8K-5B</text><rect Type="system" Region="螺旋之域" height="5.00" y="499.04" Name="QFU-4S" width="5.00" x="421.91" id="27028" ID="30001564" /><text x="421.91" y="499.04" id="27029">QFU-4S</text><rect Type="system" Region="螺旋之域" height="5.00" y="420.00" Name="P65-TA" width="5.00" x="450.00" id="27031" ID="30001568" /><text x="450.00" y="420.00" id="27032">P65-TA</text><rect Type="system" Region="螺旋之域" height="5.00" y="550.00" Name="QQGH-G" width="5.00" x="450.00" id="27034" ID="30001565" /><text x="450.00" y="550.00" id="27035">QQGH-G</text><rect Type="system" Region="螺旋之域" height="5.00" y="252.32" Name="QRH-BF" width="5.00" x="447.68" id="27037" ID="30001596" /><text x="447.68" y="252.32" id="27038">QRH-BF</text><rect Type="system" Region="螺旋之域" height="5.00" y="350.00" Name="JL-ZUQ" width="5.00" x="450.00" id="27040" ID="30001593" /><text x="450.00" y="350.00" id="27041">JL-ZUQ</text><rect Type="system" Region="螺旋之域" height="5.00" y="600.00" Name="FO1U-K" width="5.00" x="450.00" id="27043" ID="30001544" /><text x="450.00" y="600.00" id="27044">FO1U-K</text><rect Type="system" Region="螺旋之域" height="5.00" y="480.00" Name="G-VFVB" width="5.00" x="480.00" id="27046" ID="30001569" /><text x="480.00" y="480.00" id="27047">G-VFVB</text><rect Type="system" Region="螺旋之域" height="5.00" y="217.68" Name="M-NP5O" width="5.00" x="482.32" id="27049" ID="30001597" /><text x="482.32" y="217.68" id="27050">M-NP5O</text><rect Type="system" Region="螺旋之域" height="5.00" y="580.00" Name="VX1-HV" width="5.00" x="500.00" id="27052" ID="30001541" /><text x="500.00" y="580.00" id="27053">VX1-HV</text><rect Type="system" Region="螺旋之域" height="5.00" y="400.00" Name="Y4B-BQ" width="5.00" x="500.00" id="27055" ID="30001570" /><text x="500.00" y="400.00" id="27056">Y4B-BQ</text><rect Type="system" Region="螺旋之域" height="5.00" y="650.00" Name="JNG7-K" width="5.00" x="500.00" id="27058" ID="30001542" /><text x="500.00" y="650.00" id="27059">JNG7-K</text><rect Type="system" Region="螺旋之域" height="5.00" y="250.00" Name="WIW-X8" width="5.00" x="520.00" id="27061" ID="30001595" /><text x="520.00" y="250.00" id="27062">WIW-X8</text><rect Type="system" Region="螺旋之域" height="5.00" y="300.00" Name="X-KHRZ" width="5.00" x="520.00" id="27064" ID="30001594" /><text x="520.00" y="300.00" id="27065">X-KHRZ</text><rect Type="system" Region="螺旋之域" height="5.00" y="350.00" Name="L-EUY2" width="5.00" x="520.00" id="27067" ID="30001592" /><text x="520.00" y="350.00" id="27068">L-EUY2</text><rect Type="system" Region="螺旋之域" height="5.00" y="500.00" Name="P-NI4K" width="5.00" x="550.00" id="27070" ID="30001547" /><text x="550.00" y="500.00" id="27071">P-NI4K</text><rect Type="system" Region="螺旋之域" height="5.00" y="550.00" Name="K-XJJT" width="5.00" x="550.00" id="27073" ID="30001543" /><text x="550.00" y="550.00" id="27074">K-XJJT</text><rect Type="system" Region="螺旋之域" height="5.00" y="450.00" Name="K-YL9T" width="5.00" x="600.00" id="27076" ID="30001572" /><text x="600.00" y="450.00" id="27077">K-YL9T</text><rect Type="system" Region="螺旋之域" height="5.00" y="400.00" Name="EU-WFW" width="5.00" x="620.00" id="27079" ID="30001571" /><text x="620.00" y="400.00" id="27080">EU-WFW</text><rect Type="system" Region="螺旋之域" height="5.00" y="750.00" Name="U1-VHY" width="5.00" x="650.00" id="27082" ID="30001585" /><text x="650.00" y="750.00" id="27083">U1-VHY</text><rect Type="system" Region="螺旋之域" height="5.00" y="620.00" Name="HPMN-V" width="5.00" x="650.00" id="27085" ID="30001583" /><text x="650.00" y="620.00" id="27086">HPMN-V</text><rect Type="system" Region="螺旋之域" height="5.00" y="180.00" Name="S-CUEA" width="5.00" x="650.00" id="27088" ID="30001591" /><text x="650.00" y="180.00" id="27089">S-CUEA</text><rect Type="system" Region="螺旋之域" height="5.00" y="680.00" Name="GF-GR7" width="5.00" x="680.00" id="27091" ID="30001580" /><text x="680.00" y="680.00" id="27092">GF-GR7</text><rect Type="system" Region="螺旋之域" height="5.00" y="400.00" Name="GTB-O4" width="5.00" x="700.00" id="27094" ID="30001573" /><text x="700.00" y="400.00" id="27095">GTB-O4</text><rect Type="system" Region="螺旋之域" height="5.00" y="450.00" Name="6W-6O9" width="5.00" x="700.00" id="27097" ID="30001574" /><text x="700.00" y="450.00" id="27098">6W-6O9</text><rect Type="system" Region="螺旋之域" height="5.00" y="600.00" Name="XR-ZL7" width="5.00" x="720.00" id="27100" ID="30001584" /><text x="720.00" y="600.00" id="27101">XR-ZL7</text><rect Type="system" Region="螺旋之域" height="5.00" y="220.00" Name="OTJ9-E" width="5.00" x="720.00" id="27103" ID="30001586" /><text x="720.00" y="220.00" id="27104">OTJ9-E</text><rect Type="system" Region="螺旋之域" height="5.00" y="650.00" Name="Z19-B8" width="5.00" x="720.00" id="27106" ID="30001582" /><text x="720.00" y="650.00" id="27107">Z19-B8</text><rect Type="system" Region="螺旋之域" height="5.00" y="720.00" Name="DVN6-0" width="5.00" x="720.00" id="27109" ID="30001581" /><text x="720.00" y="720.00" id="27110">DVN6-0</text><rect Type="system" Region="螺旋之域" height="5.00" y="100.00" Name="ZWM-BB" width="5.00" x="780.00" id="27112" ID="30001590" /><text x="780.00" y="100.00" id="27113">ZWM-BB</text><rect Type="system" Region="螺旋之域" height="5.00" y="150.00" Name="7-QOYS" width="5.00" x="780.00" id="27115" ID="30001588" /><text x="780.00" y="150.00" id="27116">7-QOYS</text><rect Type="system" Region="螺旋之域" height="5.00" y="199.04" Name="LH-LY1" width="5.00" x="778.09" id="27118" ID="30001587" /><text x="778.09" y="199.04" id="27119">LH-LY1</text><rect Type="system" Region="螺旋之域" height="5.00" y="450.00" Name="H4X-0I" width="5.00" x="780.00" id="27121" ID="30001575" /><text x="780.00" y="450.00" id="27122">H4X-0I</text><rect Type="system" Region="螺旋之域" height="5.00" y="220.96" Name="KS8G-M" width="5.00" x="821.91" id="27124" ID="30001589" /><text x="821.91" y="220.96" id="27125">KS8G-M</text><rect Type="system" Region="螺旋之域" height="5.00" y="420.00" Name="C-BHDN" width="5.00" x="850.00" id="27127" ID="30001576" /><text x="850.00" y="420.00" id="27128">C-BHDN</text><rect Type="system" Region="螺旋之域" height="5.00" y="480.00" Name="R-RE2B" width="5.00" x="880.00" id="27130" ID="30001577" /><text x="880.00" y="480.00" id="27131">R-RE2B</text><rect Type="system" Region="螺旋之域" height="5.00" y="400.00" Name="4DH-ST" width="5.00" x="900.00" id="27133" ID="30001578" /><text x="900.00" y="400.00" id="27134">4DH-ST</text><rect Type="system" Region="螺旋之域" height="5.00" y="350.00" Name="OSW-0P" width="5.00" x="920.00" id="27136" ID="30001579" /><text x="920.00" y="350.00" id="27137">OSW-0P</text><rect Type="system" Region="琉蓝之穹" height="5.00" y="400.00" Name="JAWX-R" width="5.00" x="50.00" id="27139" ID="30002336" /><text x="50.00" y="400.00" id="27140">JAWX-R</text><rect Type="system" Region="糟粕之域" height="5.00" y="50.00" Name="APES-G" width="5.00" x="80.00" id="27142" ID="30001114" /><text x="80.00" y="50.00" id="27143">APES-G</text><rect Type="system" Region="琉蓝之穹" height="5.00" y="475.50" Name="D-OJEZ" width="5.00" x="150.00" id="27145" ID="30002366" /><text x="150.00" y="475.50" id="27146">D-OJEZ</text><rect Type="system" Region="因斯姆尔" height="5.00" y="524.50" Name="X1-IZ0" width="5.00" x="150.00" id="27148" ID="30000833" /><text x="150.00" y="524.50" id="27149">X1-IZ0</text><rect Type="system" Region="欧莎" height="5.00" y="50.00" Name="91-KD8" width="5.00" x="150.00" id="27151" ID="30003253" /><text x="150.00" y="50.00" id="27152">91-KD8</text><rect Type="system" Region="地窖" height="5.00" y="620.00" Name="8-SPNN" width="5.00" x="550.00" id="27154" ID="30000628" /><text x="550.00" y="620.00" id="27155">8-SPNN</text><rect Type="system" Region="佩利根弗" height="5.00" y="350.00" Name="PA-ALN" width="5.00" x="600.00" id="27157" ID="30005185" /><text x="600.00" y="350.00" id="27158">PA-ALN</text><rect Type="system" Region="域外走廊" height="5.00" y="500.00" Name="JUE-DX" width="5.00" x="650.00" id="27160" ID="30001743" /><text x="650.00" y="500.00" id="27161">JUE-DX</text><rect Type="system" Region="佩利根弗" height="5.00" y="320.00" Name="E-WMT7" width="5.00" x="680.00" id="27163" ID="30005100" /><text x="680.00" y="320.00" id="27164">E-WMT7</text><rect Type="system" Region="佩利根弗" height="5.00" y="280.00" Name="F-5WYK" width="5.00" x="720.00" id="27166" ID="30005103" /><text x="720.00" y="280.00" id="27167">F-5WYK</text><rect Type="system" Region="域外走廊" height="5.00" y="550.00" Name="XUPK-Z" width="5.00" x="750.00" id="27169" ID="30001753" /><text x="750.00" y="550.00" id="27170">XUPK-Z</text><rect Type="system" Region="域外走廊" height="5.00" y="50.00" Name="L1YK-V" width="5.00" x="780.00" id="27172" ID="30001809" /><text x="780.00" y="50.00" id="27173">L1YK-V</text><rect Type="system" Region="地窖" height="5.00" y="720.00" Name="8OYE-Z" width="5.00" x="800.00" id="27175" ID="30000652" /><text x="800.00" y="720.00" id="27176">8OYE-Z</text><line x2="100.00" style="fill:blue;stroke:blue;" y1="150.00" x1="50.00" id="27178" y2="150.00" /><line x2="150.00" style="fill:blue;stroke:blue;" y1="320.00" x1="50.00" id="27179" y2="320.00" /><line x2="80.00" style="fill:blue;stroke:blue;" y1="100.00" x1="80.00" id="27180" y2="50.00" /><line x2="100.00" style="fill:blue;stroke:blue;" y1="100.00" x1="80.00" id="27181" y2="150.00" /><line x2="100.00" style="fill:blue;stroke:blue;" y1="150.00" x1="100.00" id="27182" y2="200.00" /><line x2="80.00" style="fill:blue;stroke:blue;" y1="150.00" x1="100.00" id="27183" y2="100.00" /><line x2="50.00" style="fill:blue;stroke:blue;" y1="150.00" x1="100.00" id="27184" y2="150.00" /><line x2="150.00" style="fill:blue;stroke:blue;" y1="150.00" x1="100.00" id="27185" y2="100.00" /><line x2="120.00" style="fill:blue;stroke:blue;" y1="200.00" x1="100.00" id="27186" y2="250.00" /><line x2="100.00" style="fill:blue;stroke:blue;" y1="200.00" x1="100.00" id="27187" y2="150.00" /><line x2="220.00" style="fill:blue;stroke:blue;" y1="250.00" x1="120.00" id="27188" y2="320.00" /><line x2="100.00" style="fill:blue;stroke:blue;" y1="250.00" x1="120.00" id="27189" y2="200.00" /><line x2="150.00" style="fill:blue;stroke:blue;" y1="320.00" x1="150.00" id="27190" y2="400.00" /><line x2="220.00" style="fill:blue;stroke:blue;" y1="320.00" x1="150.00" id="27191" y2="320.00" /><line x2="50.00" style="fill:blue;stroke:blue;" y1="320.00" x1="150.00" id="27192" y2="320.00" /><line x2="220.00" style="fill:blue;stroke:blue;" y1="400.00" x1="150.00" id="27193" y2="400.00" /><line x2="150.00" style="fill:blue;stroke:blue;" y1="400.00" x1="150.00" id="27194" y2="320.00" /><line x2="50.00" style="fill:blue;stroke:blue;" y1="400.00" x1="150.00" id="27195" y2="400.00" /><line x2="100.00" style="fill:blue;stroke:blue;" y1="100.00" x1="150.00" id="27196" y2="150.00" /><line x2="150.00" style="fill:blue;stroke:blue;" y1="100.00" x1="150.00" id="27197" y2="50.00" /><line x2="250.00" style="fill:blue;stroke:blue;" y1="580.00" x1="180.00" id="27198" y2="580.00" /><line x2="150.00" style="fill:blue;stroke:blue;" y1="500.00" x1="200.00" id="27199" y2="524.50" /><line x2="320.00" style="fill:blue;stroke:blue;" y1="500.00" x1="200.00" id="27200" y2="500.00" /><line x2="150.00" style="fill:blue;stroke:blue;" y1="500.00" x1="200.00" id="27201" y2="475.50" /><line x2="280.00" style="fill:blue;stroke:blue;" y1="700.00" x1="200.00" id="27202" y2="680.00" /><line x2="220.00" style="fill:blue;stroke:blue;" y1="320.00" x1="220.00" id="27203" y2="400.00" /><line x2="150.00" style="fill:blue;stroke:blue;" y1="320.00" x1="220.00" id="27204" y2="320.00" /><line x2="120.00" style="fill:blue;stroke:blue;" y1="320.00" x1="220.00" id="27205" y2="250.00" /><line x2="220.00" style="fill:blue;stroke:blue;" y1="320.00" x1="220.00" id="27206" y2="250.00" /><line x2="150.00" style="fill:blue;stroke:blue;" y1="400.00" x1="220.00" id="27207" y2="400.00" /><line x2="220.00" style="fill:blue;stroke:blue;" y1="400.00" x1="220.00" id="27208" y2="320.00" /><line x2="279.04" style="fill:blue;stroke:blue;" y1="400.00" x1="220.00" id="27209" y2="421.91" /><line x2="220.00" style="fill:blue;stroke:blue;" y1="250.00" x1="220.00" id="27210" y2="320.00" /><line x2="280.00" style="fill:blue;stroke:blue;" y1="250.00" x1="220.00" id="27211" y2="224.50" /><line x2="270.00" style="fill:blue;stroke:blue;" y1="580.00" x1="250.00" id="27212" y2="630.00" /><line x2="180.00" style="fill:blue;stroke:blue;" y1="580.00" x1="250.00" id="27213" y2="580.00" /><line x2="300.00" style="fill:blue;stroke:blue;" y1="580.00" x1="250.00" id="27214" y2="550.00" /><line x2="279.04" style="fill:blue;stroke:blue;" y1="520.00" x1="250.00" id="27215" y2="421.91" /><line x2="300.00" style="fill:blue;stroke:blue;" y1="520.00" x1="250.00" id="27216" y2="550.00" /><line x2="220.00" style="fill:blue;stroke:blue;" y1="224.50" x1="280.00" id="27217" y2="250.00" /><line x2="280.00" style="fill:blue;stroke:blue;" y1="224.50" x1="280.00" id="27218" y2="175.50" /><line x2="350.00" style="fill:blue;stroke:blue;" y1="224.50" x1="280.00" id="27219" y2="200.00" /><line x2="250.00" style="fill:blue;stroke:blue;" y1="630.00" x1="270.00" id="27220" y2="580.00" /><line x2="280.00" style="fill:blue;stroke:blue;" y1="630.00" x1="270.00" id="27221" y2="680.00" /><line x2="360.00" style="fill:blue;stroke:blue;" y1="630.00" x1="270.00" id="27222" y2="650.00" /><line x2="320.00" style="fill:blue;stroke:blue;" y1="630.00" x1="270.00" id="27223" y2="620.00" /><line x2="280.00" style="fill:blue;stroke:blue;" y1="175.50" x1="280.00" id="27224" y2="224.50" /><line x2="280.00" style="fill:blue;stroke:blue;" y1="175.50" x1="280.00" id="27225" y2="120.00" /><line x2="270.00" style="fill:blue;stroke:blue;" y1="680.00" x1="280.00" id="27226" y2="630.00" /><line x2="350.00" style="fill:blue;stroke:blue;" y1="680.00" x1="280.00" id="27227" y2="700.00" /><line x2="200.00" style="fill:blue;stroke:blue;" y1="680.00" x1="280.00" id="27228" y2="700.00" /><line x2="280.00" style="fill:blue;stroke:blue;" y1="120.00" x1="280.00" id="27229" y2="175.50" /><line x2="300.00" style="fill:blue;stroke:blue;" y1="120.00" x1="280.00" id="27230" y2="50.00" /><line x2="220.00" style="fill:blue;stroke:blue;" y1="421.91" x1="279.04" id="27231" y2="400.00" /><line x2="300.96" style="fill:blue;stroke:blue;" y1="421.91" x1="279.04" id="27232" y2="378.09" /><line x2="350.00" style="fill:blue;stroke:blue;" y1="421.91" x1="279.04" id="27233" y2="420.00" /><line x2="250.00" style="fill:blue;stroke:blue;" y1="421.91" x1="279.04" id="27234" y2="520.00" /><line x2="279.04" style="fill:blue;stroke:blue;" y1="378.09" x1="300.96" id="27235" y2="421.91" /><line x2="280.00" style="fill:blue;stroke:blue;" y1="50.00" x1="300.00" id="27236" y2="120.00" /><line x2="250.00" style="fill:blue;stroke:blue;" y1="550.00" x1="300.00" id="27237" y2="580.00" /><line x2="250.00" style="fill:blue;stroke:blue;" y1="550.00" x1="300.00" id="27238" y2="520.00" /><line x2="450.00" style="fill:blue;stroke:blue;" y1="550.00" x1="300.00" id="27239" y2="550.00" /><line x2="320.00" style="fill:blue;stroke:blue;" y1="550.00" x1="300.00" id="27240" y2="500.00" /><line x2="378.09" style="fill:blue;stroke:blue;" y1="500.00" x1="320.00" id="27241" y2="520.96" /><line x2="200.00" style="fill:blue;stroke:blue;" y1="500.00" x1="320.00" id="27242" y2="500.00" /><line x2="421.91" style="fill:blue;stroke:blue;" y1="500.00" x1="320.00" id="27243" y2="499.04" /><line x2="300.00" style="fill:blue;stroke:blue;" y1="500.00" x1="320.00" id="27244" y2="550.00" /><line x2="270.00" style="fill:blue;stroke:blue;" y1="620.00" x1="320.00" id="27245" y2="630.00" /><line x2="400.00" style="fill:blue;stroke:blue;" y1="620.00" x1="320.00" id="27246" y2="620.00" /><line x2="280.00" style="fill:blue;stroke:blue;" y1="200.00" x1="350.00" id="27247" y2="224.50" /><line x2="420.00" style="fill:blue;stroke:blue;" y1="200.00" x1="350.00" id="27248" y2="200.00" /><line x2="279.04" style="fill:blue;stroke:blue;" y1="420.00" x1="350.00" id="27249" y2="421.91" /><line x2="450.00" style="fill:blue;stroke:blue;" y1="420.00" x1="350.00" id="27250" y2="420.00" /><line x2="270.00" style="fill:blue;stroke:blue;" y1="650.00" x1="360.00" id="27251" y2="630.00" /><line x2="350.00" style="fill:blue;stroke:blue;" y1="650.00" x1="360.00" id="27252" y2="700.00" /><line x2="500.00" style="fill:blue;stroke:blue;" y1="650.00" x1="360.00" id="27253" y2="650.00" /><line x2="280.00" style="fill:blue;stroke:blue;" y1="700.00" x1="350.00" id="27254" y2="680.00" /><line x2="360.00" style="fill:blue;stroke:blue;" y1="700.00" x1="350.00" id="27255" y2="650.00" /><line x2="680.00" style="fill:blue;stroke:blue;" y1="700.00" x1="350.00" id="27256" y2="680.00" /><line x2="421.91" style="fill:blue;stroke:blue;" y1="520.96" x1="378.09" id="27257" y2="499.04" /><line x2="450.00" style="fill:blue;stroke:blue;" y1="520.96" x1="378.09" id="27258" y2="550.00" /><line x2="320.00" style="fill:blue;stroke:blue;" y1="520.96" x1="378.09" id="27259" y2="500.00" /><line x2="450.00" style="fill:blue;stroke:blue;" y1="620.00" x1="400.00" id="27260" y2="600.00" /><line x2="320.00" style="fill:blue;stroke:blue;" y1="620.00" x1="400.00" id="27261" y2="620.00" /><line x2="350.00" style="fill:blue;stroke:blue;" y1="200.00" x1="420.00" id="27262" y2="200.00" /><line x2="482.32" style="fill:blue;stroke:blue;" y1="200.00" x1="420.00" id="27263" y2="217.68" /><line x2="378.09" style="fill:blue;stroke:blue;" y1="499.04" x1="421.91" id="27264" y2="520.96" /><line x2="450.00" style="fill:blue;stroke:blue;" y1="499.04" x1="421.91" id="27265" y2="550.00" /><line x2="320.00" style="fill:blue;stroke:blue;" y1="499.04" x1="421.91" id="27266" y2="500.00" /><line x2="350.00" style="fill:blue;stroke:blue;" y1="420.00" x1="450.00" id="27267" y2="420.00" /><line x2="480.00" style="fill:blue;stroke:blue;" y1="420.00" x1="450.00" id="27268" y2="480.00" /><line x2="500.00" style="fill:blue;stroke:blue;" y1="420.00" x1="450.00" id="27269" y2="400.00" /><line x2="500.00" style="fill:blue;stroke:blue;" y1="550.00" x1="450.00" id="27270" y2="580.00" /><line x2="378.09" style="fill:blue;stroke:blue;" y1="550.00" x1="450.00" id="27271" y2="520.96" /><line x2="421.91" style="fill:blue;stroke:blue;" y1="550.00" x1="450.00" id="27272" y2="499.04" /><line x2="300.00" style="fill:blue;stroke:blue;" y1="550.00" x1="450.00" id="27273" y2="550.00" /><line x2="480.00" style="fill:blue;stroke:blue;" y1="550.00" x1="450.00" id="27274" y2="480.00" /><line x2="520.00" style="fill:blue;stroke:blue;" y1="252.32" x1="447.68" id="27275" y2="250.00" /><line x2="482.32" style="fill:blue;stroke:blue;" y1="252.32" x1="447.68" id="27276" y2="217.68" /><line x2="520.00" style="fill:blue;stroke:blue;" y1="350.00" x1="450.00" id="27277" y2="350.00" /><line x2="500.00" style="fill:blue;stroke:blue;" y1="600.00" x1="450.00" id="27278" y2="580.00" /><line x2="400.00" style="fill:blue;stroke:blue;" y1="600.00" x1="450.00" id="27279" y2="620.00" /><line x2="450.00" style="fill:blue;stroke:blue;" y1="480.00" x1="480.00" id="27280" y2="550.00" /><line x2="450.00" style="fill:blue;stroke:blue;" y1="480.00" x1="480.00" id="27281" y2="420.00" /><line x2="600.00" style="fill:blue;stroke:blue;" y1="480.00" x1="480.00" id="27282" y2="450.00" /><line x2="420.00" style="fill:blue;stroke:blue;" y1="217.68" x1="482.32" id="27283" y2="200.00" /><line x2="520.00" style="fill:blue;stroke:blue;" y1="217.68" x1="482.32" id="27284" y2="250.00" /><line x2="447.68" style="fill:blue;stroke:blue;" y1="217.68" x1="482.32" id="27285" y2="252.32" /><line x2="500.00" style="fill:blue;stroke:blue;" y1="580.00" x1="500.00" id="27286" y2="650.00" /><line x2="550.00" style="fill:blue;stroke:blue;" y1="580.00" x1="500.00" id="27287" y2="550.00" /><line x2="450.00" style="fill:blue;stroke:blue;" y1="580.00" x1="500.00" id="27288" y2="600.00" /><line x2="450.00" style="fill:blue;stroke:blue;" y1="580.00" x1="500.00" id="27289" y2="550.00" /><line x2="450.00" style="fill:blue;stroke:blue;" y1="400.00" x1="500.00" id="27290" y2="420.00" /><line x2="620.00" style="fill:blue;stroke:blue;" y1="400.00" x1="500.00" id="27291" y2="400.00" /><line x2="600.00" style="fill:blue;stroke:blue;" y1="400.00" x1="500.00" id="27292" y2="450.00" /><line x2="520.00" style="fill:blue;stroke:blue;" y1="400.00" x1="500.00" id="27293" y2="350.00" /><line x2="550.00" style="fill:blue;stroke:blue;" y1="650.00" x1="500.00" id="27294" y2="620.00" /><line x2="360.00" style="fill:blue;stroke:blue;" y1="650.00" x1="500.00" id="27295" y2="650.00" /><line x2="500.00" style="fill:blue;stroke:blue;" y1="650.00" x1="500.00" id="27296" y2="580.00" /><line x2="520.00" style="fill:blue;stroke:blue;" y1="250.00" x1="520.00" id="27297" y2="300.00" /><line x2="447.68" style="fill:blue;stroke:blue;" y1="250.00" x1="520.00" id="27298" y2="252.32" /><line x2="482.32" style="fill:blue;stroke:blue;" y1="250.00" x1="520.00" id="27299" y2="217.68" /><line x2="520.00" style="fill:blue;stroke:blue;" y1="300.00" x1="520.00" id="27300" y2="350.00" /><line x2="520.00" style="fill:blue;stroke:blue;" y1="300.00" x1="520.00" id="27301" y2="250.00" /><line x2="500.00" style="fill:blue;stroke:blue;" y1="350.00" x1="520.00" id="27302" y2="400.00" /><line x2="450.00" style="fill:blue;stroke:blue;" y1="350.00" x1="520.00" id="27303" y2="350.00" /><line x2="520.00" style="fill:blue;stroke:blue;" y1="350.00" x1="520.00" id="27304" y2="300.00" /><line x2="600.00" style="fill:blue;stroke:blue;" y1="350.00" x1="520.00" id="27305" y2="350.00" /><line x2="550.00" style="fill:blue;stroke:blue;" y1="500.00" x1="550.00" id="27306" y2="550.00" /><line x2="500.00" style="fill:blue;stroke:blue;" y1="550.00" x1="550.00" id="27307" y2="580.00" /><line x2="550.00" style="fill:blue;stroke:blue;" y1="550.00" x1="550.00" id="27308" y2="500.00" /><line x2="480.00" style="fill:blue;stroke:blue;" y1="450.00" x1="600.00" id="27309" y2="480.00" /><line x2="500.00" style="fill:blue;stroke:blue;" y1="450.00" x1="600.00" id="27310" y2="400.00" /><line x2="620.00" style="fill:blue;stroke:blue;" y1="450.00" x1="600.00" id="27311" y2="400.00" /><line x2="700.00" style="fill:blue;stroke:blue;" y1="450.00" x1="600.00" id="27312" y2="450.00" /><line x2="650.00" style="fill:blue;stroke:blue;" y1="450.00" x1="600.00" id="27313" y2="500.00" /><line x2="500.00" style="fill:blue;stroke:blue;" y1="400.00" x1="620.00" id="27314" y2="400.00" /><line x2="600.00" style="fill:blue;stroke:blue;" y1="400.00" x1="620.00" id="27315" y2="450.00" /><line x2="700.00" style="fill:blue;stroke:blue;" y1="400.00" x1="620.00" id="27316" y2="400.00" /><line x2="680.00" style="fill:blue;stroke:blue;" y1="400.00" x1="620.00" id="27317" y2="320.00" /><line x2="600.00" style="fill:blue;stroke:blue;" y1="400.00" x1="620.00" id="27318" y2="350.00" /><line x2="720.00" style="fill:blue;stroke:blue;" y1="750.00" x1="650.00" id="27319" y2="720.00" /><line x2="680.00" style="fill:blue;stroke:blue;" y1="620.00" x1="650.00" id="27320" y2="680.00" /><line x2="720.00" style="fill:blue;stroke:blue;" y1="620.00" x1="650.00" id="27321" y2="650.00" /><line x2="720.00" style="fill:blue;stroke:blue;" y1="620.00" x1="650.00" id="27322" y2="600.00" /><line x2="720.00" style="fill:blue;stroke:blue;" y1="180.00" x1="650.00" id="27323" y2="220.00" /><line x2="350.00" style="fill:blue;stroke:blue;" y1="680.00" x1="680.00" id="27324" y2="700.00" /><line x2="720.00" style="fill:blue;stroke:blue;" y1="680.00" x1="680.00" id="27325" y2="720.00" /><line x2="720.00" style="fill:blue;stroke:blue;" y1="680.00" x1="680.00" id="27326" y2="650.00" /><line x2="650.00" style="fill:blue;stroke:blue;" y1="680.00" x1="680.00" id="27327" y2="620.00" /><line x2="620.00" style="fill:blue;stroke:blue;" y1="400.00" x1="700.00" id="27328" y2="400.00" /><line x2="600.00" style="fill:blue;stroke:blue;" y1="450.00" x1="700.00" id="27329" y2="450.00" /><line x2="780.00" style="fill:blue;stroke:blue;" y1="450.00" x1="700.00" id="27330" y2="450.00" /><line x2="720.00" style="fill:blue;stroke:blue;" y1="600.00" x1="720.00" id="27331" y2="650.00" /><line x2="650.00" style="fill:blue;stroke:blue;" y1="600.00" x1="720.00" id="27332" y2="620.00" /><line x2="750.00" style="fill:blue;stroke:blue;" y1="600.00" x1="720.00" id="27333" y2="550.00" /><line x2="778.09" style="fill:blue;stroke:blue;" y1="220.00" x1="720.00" id="27334" y2="199.04" /><line x2="780.00" style="fill:blue;stroke:blue;" y1="220.00" x1="720.00" id="27335" y2="150.00" /><line x2="821.91" style="fill:blue;stroke:blue;" y1="220.00" x1="720.00" id="27336" y2="220.96" /><line x2="650.00" style="fill:blue;stroke:blue;" y1="220.00" x1="720.00" id="27337" y2="180.00" /><line x2="720.00" style="fill:blue;stroke:blue;" y1="220.00" x1="720.00" id="27338" y2="280.00" /><line x2="680.00" style="fill:blue;stroke:blue;" y1="650.00" x1="720.00" id="27339" y2="680.00" /><line x2="650.00" style="fill:blue;stroke:blue;" y1="650.00" x1="720.00" id="27340" y2="620.00" /><line x2="720.00" style="fill:blue;stroke:blue;" y1="650.00" x1="720.00" id="27341" y2="600.00" /><line x2="800.00" style="fill:blue;stroke:blue;" y1="720.00" x1="720.00" id="27342" y2="720.00" /><line x2="680.00" style="fill:blue;stroke:blue;" y1="720.00" x1="720.00" id="27343" y2="680.00" /><line x2="650.00" style="fill:blue;stroke:blue;" y1="720.00" x1="720.00" id="27344" y2="750.00" /><line x2="780.00" style="fill:blue;stroke:blue;" y1="100.00" x1="780.00" id="27345" y2="150.00" /><line x2="780.00" style="fill:blue;stroke:blue;" y1="100.00" x1="780.00" id="27346" y2="50.00" /><line x2="720.00" style="fill:blue;stroke:blue;" y1="150.00" x1="780.00" id="27347" y2="220.00" /><line x2="778.09" style="fill:blue;stroke:blue;" y1="150.00" x1="780.00" id="27348" y2="199.04" /><line x2="821.91" style="fill:blue;stroke:blue;" y1="150.00" x1="780.00" id="27349" y2="220.96" /><line x2="780.00" style="fill:blue;stroke:blue;" y1="150.00" x1="780.00" id="27350" y2="100.00" /><line x2="720.00" style="fill:blue;stroke:blue;" y1="199.04" x1="778.09" id="27351" y2="220.00" /><line x2="780.00" style="fill:blue;stroke:blue;" y1="199.04" x1="778.09" id="27352" y2="150.00" /><line x2="821.91" style="fill:blue;stroke:blue;" y1="199.04" x1="778.09" id="27353" y2="220.96" /><line x2="700.00" style="fill:blue;stroke:blue;" y1="450.00" x1="780.00" id="27354" y2="450.00" /><line x2="850.00" style="fill:blue;stroke:blue;" y1="450.00" x1="780.00" id="27355" y2="420.00" /><line x2="880.00" style="fill:blue;stroke:blue;" y1="450.00" x1="780.00" id="27356" y2="480.00" /><line x2="720.00" style="fill:blue;stroke:blue;" y1="220.96" x1="821.91" id="27357" y2="220.00" /><line x2="778.09" style="fill:blue;stroke:blue;" y1="220.96" x1="821.91" id="27358" y2="199.04" /><line x2="780.00" style="fill:blue;stroke:blue;" y1="220.96" x1="821.91" id="27359" y2="150.00" /><line x2="780.00" style="fill:blue;stroke:blue;" y1="420.00" x1="850.00" id="27360" y2="450.00" /><line x2="880.00" style="fill:blue;stroke:blue;" y1="420.00" x1="850.00" id="27361" y2="480.00" /><line x2="900.00" style="fill:blue;stroke:blue;" y1="420.00" x1="850.00" id="27362" y2="400.00" /><line x2="780.00" style="fill:blue;stroke:blue;" y1="480.00" x1="880.00" id="27363" y2="450.00" /><line x2="850.00" style="fill:blue;stroke:blue;" y1="480.00" x1="880.00" id="27364" y2="420.00" /><line x2="850.00" style="fill:blue;stroke:blue;" y1="400.00" x1="900.00" id="27365" y2="420.00" /><line x2="920.00" style="fill:blue;stroke:blue;" y1="400.00" x1="900.00" id="27366" y2="350.00" /><line x2="900.00" style="fill:blue;stroke:blue;" y1="350.00" x1="920.00" id="27367" y2="400.00" /><line x2="150.00" style="fill:blue;stroke:blue;" y1="400.00" x1="50.00" id="27368" y2="400.00" /><line x2="80.00" style="fill:blue;stroke:blue;" y1="50.00" x1="80.00" id="27369" y2="100.00" /><line x2="200.00" style="fill:blue;stroke:blue;" y1="475.50" x1="150.00" id="27370" y2="500.00" /><line x2="200.00" style="fill:blue;stroke:blue;" y1="524.50" x1="150.00" id="27371" y2="500.00" /><line x2="150.00" style="fill:blue;stroke:blue;" y1="50.00" x1="150.00" id="27372" y2="100.00" /><line x2="500.00" style="fill:blue;stroke:blue;" y1="620.00" x1="550.00" id="27373" y2="650.00" /><line x2="620.00" style="fill:blue;stroke:blue;" y1="350.00" x1="600.00" id="27374" y2="400.00" /><line x2="520.00" style="fill:blue;stroke:blue;" y1="350.00" x1="600.00" id="27375" y2="350.00" /><line x2="600.00" style="fill:blue;stroke:blue;" y1="500.00" x1="650.00" id="27376" y2="450.00" /><line x2="620.00" style="fill:blue;stroke:blue;" y1="320.00" x1="680.00" id="27377" y2="400.00" /><line x2="720.00" style="fill:blue;stroke:blue;" y1="320.00" x1="680.00" id="27378" y2="280.00" /><line x2="720.00" style="fill:blue;stroke:blue;" y1="280.00" x1="720.00" id="27379" y2="220.00" /><line x2="680.00" style="fill:blue;stroke:blue;" y1="280.00" x1="720.00" id="27380" y2="320.00" /><line x2="720.00" style="fill:blue;stroke:blue;" y1="550.00" x1="750.00" id="27381" y2="600.00" /><line x2="780.00" style="fill:blue;stroke:blue;" y1="50.00" x1="780.00" id="27382" y2="100.00" /><line x2="720.00" style="fill:blue;stroke:blue;" y1="720.00" x1="800.00" id="27383" y2="720.00" /></svg>
