<?xml version="1.0" standalone="yes"?><!DOCTYPE svg PUBLIC "-//W3C//DTD SVG 1.1//EN" "http://www.w3.org/Graphics/SVG/1.1/DTD/svg11.dtd"[]><svg width="1050.00" height="800.00" id="26922" xmlns="http://www.w3.org/2000/svg" xmlns:xlink="http://www.w3.org/1999/xlink"><rect Type="system" x="50.00" id="26923" height="5.00" width="5.00" Name="XT-1E0" ID="30001552" Region="螺旋之域" y="150.00" /><text y="150.00" x="50.00" id="26924">XT-1E0</text><rect Type="system" x="50.00" id="26926" height="5.00" width="5.00" Name="A-J6SN" ID="30001537" Region="螺旋之域" y="320.00" /><text y="320.00" x="50.00" id="26927">A-J6SN</text><rect Type="system" x="80.00" id="26929" height="5.00" width="5.00" Name="0J-MQW" ID="30001551" Region="螺旋之域" y="100.00" /><text y="100.00" x="80.00" id="26930">0J-MQW</text><rect Type="system" x="100.00" id="26932" height="5.00" width="5.00" Name="K-BBYU" ID="30001550" Region="螺旋之域" y="150.00" /><text y="150.00" x="100.00" id="26933">K-BBYU</text><rect Type="system" x="100.00" id="26935" height="5.00" width="5.00" Name="N-PS2Y" ID="30001549" Region="螺旋之域" y="200.00" /><text y="200.00" x="100.00" id="26936">N-PS2Y</text><rect Type="system" x="120.00" id="26938" height="5.00" width="5.00" Name="T6T-BQ" ID="30001548" Region="螺旋之域" y="250.00" /><text y="250.00" x="120.00" id="26939">T6T-BQ</text><rect Type="system" x="150.00" id="26941" height="5.00" width="5.00" Name="AG-SYG" ID="30001539" Region="螺旋之域" y="320.00" /><text y="320.00" x="150.00" id="26942">AG-SYG</text><rect Type="system" x="150.00" id="26944" height="5.00" width="5.00" Name="C6C-K9" ID="30001533" Region="螺旋之域" y="400.00" /><text y="400.00" x="150.00" id="26945">C6C-K9</text><rect Type="system" x="150.00" id="26947" height="5.00" width="5.00" Name="3ET-G8" ID="30001553" Region="螺旋之域" y="100.00" /><text y="100.00" x="150.00" id="26948">3ET-G8</text><rect Type="system" x="180.00" id="26950" height="5.00" width="5.00" Name="GZM-KB" ID="30001531" Region="螺旋之域" y="580.00" /><text y="580.00" x="180.00" id="26951">GZM-KB</text><rect Type="system" x="200.00" id="26953" height="5.00" width="5.00" Name="RXA-W1" ID="30001563" Region="螺旋之域" y="500.00" /><text y="500.00" x="200.00" id="26954">RXA-W1</text><rect Type="system" x="200.00" id="26956" height="5.00" width="5.00" Name="E-BFLT" ID="30001530" Region="螺旋之域" y="700.00" /><text y="700.00" x="200.00" id="26957">E-BFLT</text><rect Type="system" x="220.00" id="26959" height="5.00" width="5.00" Name="ETO-OT" ID="30001535" Region="螺旋之域" y="320.00" /><text y="320.00" x="220.00" id="26960">ETO-OT</text><rect Type="system" x="220.00" id="26962" height="5.00" width="5.00" Name="AL-JSG" ID="30001534" Region="螺旋之域" y="400.00" /><text y="400.00" x="220.00" id="26963">AL-JSG</text><rect Type="system" x="220.00" id="26965" height="5.00" width="5.00" Name="MOSA-I" ID="30001554" Region="螺旋之域" y="250.00" /><text y="250.00" x="220.00" id="26966">MOSA-I</text><rect Type="system" x="250.00" id="26968" height="5.00" width="5.00" Name="L-WG68" ID="30001526" Region="螺旋之域" y="580.00" /><text y="580.00" x="250.00" id="26969">L-WG68</text><rect Type="system" x="250.00" id="26971" height="5.00" width="5.00" Name="Q-UVY6" ID="30001562" Region="螺旋之域" y="520.00" /><text y="520.00" x="250.00" id="26972">Q-UVY6</text><rect Type="system" x="280.00" id="26974" height="5.00" width="5.00" Name="B6-XE8" ID="30001555" Region="螺旋之域" y="224.50" /><text y="224.50" x="280.00" id="26975">B6-XE8</text><rect Type="system" x="270.00" id="26977" height="5.00" width="5.00" Name="HIK-MC" ID="30001528" Region="螺旋之域" y="630.00" /><text y="630.00" x="270.00" id="26978">HIK-MC</text><rect Type="system" x="280.00" id="26980" height="5.00" width="5.00" Name="JLH-FN" ID="30001556" Region="螺旋之域" y="175.50" /><text y="175.50" x="280.00" id="26981">JLH-FN</text><rect Type="system" x="280.00" id="26983" height="5.00" width="5.00" Name="E4-E8W" ID="30001527" Region="螺旋之域" y="680.00" /><text y="680.00" x="280.00" id="26984">E4-E8W</text><rect Type="system" x="280.00" id="26986" height="5.00" width="5.00" Name="DFTK-D" ID="30001557" Region="螺旋之域" y="120.00" /><text y="120.00" x="280.00" id="26987">DFTK-D</text><rect Type="system" x="279.04" id="26989" height="5.00" width="5.00" Name="KPI-OW" ID="30001536" Region="螺旋之域" y="421.91" /><text y="421.91" x="279.04" id="26990">KPI-OW</text><rect Type="system" x="300.96" id="26992" height="5.00" width="5.00" Name="OTJ-4W" ID="30001538" Region="螺旋之域" y="378.09" /><text y="378.09" x="300.96" id="26993">OTJ-4W</text><rect Type="system" x="300.00" id="26995" height="5.00" width="5.00" Name="L7-BLT" ID="30001560" Region="螺旋之域" y="50.00" /><text y="50.00" x="300.00" id="26996">L7-BLT</text><rect Type="system" x="300.00" id="26998" height="5.00" width="5.00" Name="VK6-EZ" ID="30001566" Region="螺旋之域" y="550.00" /><text y="550.00" x="300.00" id="26999">VK6-EZ</text><rect Type="system" x="320.00" id="27001" height="5.00" width="5.00" Name="JVA-FE" ID="30001567" Region="螺旋之域" y="500.00" /><text y="500.00" x="320.00" id="27002">JVA-FE</text><rect Type="system" x="320.00" id="27004" height="5.00" width="5.00" Name="Y4OK-W" ID="30001546" Region="螺旋之域" y="620.00" /><text y="620.00" x="320.00" id="27005">Y4OK-W</text><rect Type="system" x="350.00" id="27007" height="5.00" width="5.00" Name="4HF-4R" ID="30001558" Region="螺旋之域" y="200.00" /><text y="200.00" x="350.00" id="27008">4HF-4R</text><rect Type="system" x="350.00" id="27010" height="5.00" width="5.00" Name="1I5-0V" ID="30001540" Region="螺旋之域" y="420.00" /><text y="420.00" x="350.00" id="27011">1I5-0V</text><rect Type="system" x="360.00" id="27013" height="5.00" width="5.00" Name="5LAJ-8" ID="30001532" Region="螺旋之域" y="650.00" /><text y="650.00" x="360.00" id="27014">5LAJ-8</text><rect Type="system" x="350.00" id="27016" height="5.00" width="5.00" Name="B9EA-G" ID="30001529" Region="螺旋之域" y="700.00" /><text y="700.00" x="350.00" id="27017">B9EA-G</text><rect Type="system" x="378.09" id="27019" height="5.00" width="5.00" Name="8P-LKL" ID="30001561" Region="螺旋之域" y="520.96" /><text y="520.96" x="378.09" id="27020">8P-LKL</text><rect Type="system" x="400.00" id="27022" height="5.00" width="5.00" Name="6U-1RX" ID="30001545" Region="螺旋之域" y="620.00" /><text y="620.00" x="400.00" id="27023">6U-1RX</text><rect Type="system" x="420.00" id="27025" height="5.00" width="5.00" Name="Y8K-5B" ID="30001559" Region="螺旋之域" y="200.00" /><text y="200.00" x="420.00" id="27026">Y8K-5B</text><rect Type="system" x="421.91" id="27028" height="5.00" width="5.00" Name="QFU-4S" ID="30001564" Region="螺旋之域" y="499.04" /><text y="499.04" x="421.91" id="27029">QFU-4S</text><rect Type="system" x="450.00" id="27031" height="5.00" width="5.00" Name="P65-TA" ID="30001568" Region="螺旋之域" y="420.00" /><text y="420.00" x="450.00" id="27032">P65-TA</text><rect Type="system" x="450.00" id="27034" height="5.00" width="5.00" Name="QQGH-G" ID="30001565" Region="螺旋之域" y="550.00" /><text y="550.00" x="450.00" id="27035">QQGH-G</text><rect Type="system" x="447.68" id="27037" height="5.00" width="5.00" Name="QRH-BF" ID="30001596" Region="螺旋之域" y="252.32" /><text y="252.32" x="447.68" id="27038">QRH-BF</text><rect Type="system" x="450.00" id="27040" height="5.00" width="5.00" Name="JL-ZUQ" ID="30001593" Region="螺旋之域" y="350.00" /><text y="350.00" x="450.00" id="27041">JL-ZUQ</text><rect Type="system" x="450.00" id="27043" height="5.00" width="5.00" Name="FO1U-K" ID="30001544" Region="螺旋之域" y="600.00" /><text y="600.00" x="450.00" id="27044">FO1U-K</text><rect Type="system" x="480.00" id="27046" height="5.00" width="5.00" Name="G-VFVB" ID="30001569" Region="螺旋之域" y="480.00" /><text y="480.00" x="480.00" id="27047">G-VFVB</text><rect Type="system" x="482.32" id="27049" height="5.00" width="5.00" Name="M-NP5O" ID="30001597" Region="螺旋之域" y="217.68" /><text y="217.68" x="482.32" id="27050">M-NP5O</text><rect Type="system" x="500.00" id="27052" height="5.00" width="5.00" Name="VX1-HV" ID="30001541" Region="螺旋之域" y="580.00" /><text y="580.00" x="500.00" id="27053">VX1-HV</text><rect Type="system" x="500.00" id="27055" height="5.00" width="5.00" Name="Y4B-BQ" ID="30001570" Region="螺旋之域" y="400.00" /><text y="400.00" x="500.00" id="27056">Y4B-BQ</text><rect Type="system" x="500.00" id="27058" height="5.00" width="5.00" Name="JNG7-K" ID="30001542" Region="螺旋之域" y="650.00" /><text y="650.00" x="500.00" id="27059">JNG7-K</text><rect Type="system" x="520.00" id="27061" height="5.00" width="5.00" Name="WIW-X8" ID="30001595" Region="螺旋之域" y="250.00" /><text y="250.00" x="520.00" id="27062">WIW-X8</text><rect Type="system" x="520.00" id="27064" height="5.00" width="5.00" Name="X-KHRZ" ID="30001594" Region="螺旋之域" y="300.00" /><text y="300.00" x="520.00" id="27065">X-KHRZ</text><rect Type="system" x="520.00" id="27067" height="5.00" width="5.00" Name="L-EUY2" ID="30001592" Region="螺旋之域" y="350.00" /><text y="350.00" x="520.00" id="27068">L-EUY2</text><rect Type="system" x="550.00" id="27070" height="5.00" width="5.00" Name="P-NI4K" ID="30001547" Region="螺旋之域" y="500.00" /><text y="500.00" x="550.00" id="27071">P-NI4K</text><rect Type="system" x="550.00" id="27073" height="5.00" width="5.00" Name="K-XJJT" ID="30001543" Region="螺旋之域" y="550.00" /><text y="550.00" x="550.00" id="27074">K-XJJT</text><rect Type="system" x="600.00" id="27076" height="5.00" width="5.00" Name="K-YL9T" ID="30001572" Region="螺旋之域" y="450.00" /><text y="450.00" x="600.00" id="27077">K-YL9T</text><rect Type="system" x="620.00" id="27079" height="5.00" width="5.00" Name="EU-WFW" ID="30001571" Region="螺旋之域" y="400.00" /><text y="400.00" x="620.00" id="27080">EU-WFW</text><rect Type="system" x="650.00" id="27082" height="5.00" width="5.00" Name="U1-VHY" ID="30001585" Region="螺旋之域" y="750.00" /><text y="750.00" x="650.00" id="27083">U1-VHY</text><rect Type="system" x="650.00" id="27085" height="5.00" width="5.00" Name="HPMN-V" ID="30001583" Region="螺旋之域" y="620.00" /><text y="620.00" x="650.00" id="27086">HPMN-V</text><rect Type="system" x="650.00" id="27088" height="5.00" width="5.00" Name="S-CUEA" ID="30001591" Region="螺旋之域" y="180.00" /><text y="180.00" x="650.00" id="27089">S-CUEA</text><rect Type="system" x="680.00" id="27091" height="5.00" width="5.00" Name="GF-GR7" ID="30001580" Region="螺旋之域" y="680.00" /><text y="680.00" x="680.00" id="27092">GF-GR7</text><rect Type="system" x="700.00" id="27094" height="5.00" width="5.00" Name="GTB-O4" ID="30001573" Region="螺旋之域" y="400.00" /><text y="400.00" x="700.00" id="27095">GTB-O4</text><rect Type="system" x="700.00" id="27097" height="5.00" width="5.00" Name="6W-6O9" ID="30001574" Region="螺旋之域" y="450.00" /><text y="450.00" x="700.00" id="27098">6W-6O9</text><rect Type="system" x="720.00" id="27100" height="5.00" width="5.00" Name="XR-ZL7" ID="30001584" Region="螺旋之域" y="600.00" /><text y="600.00" x="720.00" id="27101">XR-ZL7</text><rect Type="system" x="720.00" id="27103" height="5.00" width="5.00" Name="OTJ9-E" ID="30001586" Region="螺旋之域" y="220.00" /><text y="220.00" x="720.00" id="27104">OTJ9-E</text><rect Type="system" x="720.00" id="27106" height="5.00" width="5.00" Name="Z19-B8" ID="30001582" Region="螺旋之域" y="650.00" /><text y="650.00" x="720.00" id="27107">Z19-B8</text><rect Type="system" x="720.00" id="27109" height="5.00" width="5.00" Name="DVN6-0" ID="30001581" Region="螺旋之域" y="720.00" /><text y="720.00" x="720.00" id="27110">DVN6-0</text><rect Type="system" x="780.00" id="27112" height="5.00" width="5.00" Name="ZWM-BB" ID="30001590" Region="螺旋之域" y="100.00" /><text y="100.00" x="780.00" id="27113">ZWM-BB</text><rect Type="system" x="780.00" id="27115" height="5.00" width="5.00" Name="7-QOYS" ID="30001588" Region="螺旋之域" y="150.00" /><text y="150.00" x="780.00" id="27116">7-QOYS</text><rect Type="system" x="778.09" id="27118" height="5.00" width="5.00" Name="LH-LY1" ID="30001587" Region="螺旋之域" y="199.04" /><text y="199.04" x="778.09" id="27119">LH-LY1</text><rect Type="system" x="780.00" id="27121" height="5.00" width="5.00" Name="H4X-0I" ID="30001575" Region="螺旋之域" y="450.00" /><text y="450.00" x="780.00" id="27122">H4X-0I</text><rect Type="system" x="821.91" id="27124" height="5.00" width="5.00" Name="KS8G-M" ID="30001589" Region="螺旋之域" y="220.96" /><text y="220.96" x="821.91" id="27125">KS8G-M</text><rect Type="system" x="850.00" id="27127" height="5.00" width="5.00" Name="C-BHDN" ID="30001576" Region="螺旋之域" y="420.00" /><text y="420.00" x="850.00" id="27128">C-BHDN</text><rect Type="system" x="880.00" id="27130" height="5.00" width="5.00" Name="R-RE2B" ID="30001577" Region="螺旋之域" y="480.00" /><text y="480.00" x="880.00" id="27131">R-RE2B</text><rect Type="system" x="900.00" id="27133" height="5.00" width="5.00" Name="4DH-ST" ID="30001578" Region="螺旋之域" y="400.00" /><text y="400.00" x="900.00" id="27134">4DH-ST</text><rect Type="system" x="920.00" id="27136" height="5.00" width="5.00" Name="OSW-0P" ID="30001579" Region="螺旋之域" y="350.00" /><text y="350.00" x="920.00" id="27137">OSW-0P</text><rect Type="system" x="50.00" id="27139" height="5.00" width="5.00" Name="JAWX-R" ID="30002336" Region="琉蓝之穹" y="400.00" /><text y="400.00" x="50.00" id="27140">JAWX-R</text><rect Type="system" x="80.00" id="27142" height="5.00" width="5.00" Name="APES-G" ID="30001114" Region="糟粕之域" y="50.00" /><text y="50.00" x="80.00" id="27143">APES-G</text><rect Type="system" x="150.00" id="27145" height="5.00" width="5.00" Name="D-OJEZ" ID="30002366" Region="琉蓝之穹" y="475.50" /><text y="475.50" x="150.00" id="27146">D-OJEZ</text><rect Type="system" x="150.00" id="27148" height="5.00" width="5.00" Name="X1-IZ0" ID="30000833" Region="因斯姆尔" y="524.50" /><text y="524.50" x="150.00" id="27149">X1-IZ0</text><rect Type="system" x="150.00" id="27151" height="5.00" width="5.00" Name="91-KD8" ID="30003253" Region="欧莎" y="50.00" /><text y="50.00" x="150.00" id="27152">91-KD8</text><rect Type="system" x="550.00" id="27154" height="5.00" width="5.00" Name="8-SPNN" ID="30000628" Region="地窖" y="620.00" /><text y="620.00" x="550.00" id="27155">8-SPNN</text><rect Type="system" x="600.00" id="27157" height="5.00" width="5.00" Name="PA-ALN" ID="30005185" Region="佩利根弗" y="350.00" /><text y="350.00" x="600.00" id="27158">PA-ALN</text><rect Type="system" x="650.00" id="27160" height="5.00" width="5.00" Name="JUE-DX" ID="30001743" Region="域外走廊" y="500.00" /><text y="500.00" x="650.00" id="27161">JUE-DX</text><rect Type="system" x="680.00" id="27163" height="5.00" width="5.00" Name="E-WMT7" ID="30005100" Region="佩利根弗" y="320.00" /><text y="320.00" x="680.00" id="27164">E-WMT7</text><rect Type="system" x="720.00" id="27166" height="5.00" width="5.00" Name="F-5WYK" ID="30005103" Region="佩利根弗" y="280.00" /><text y="280.00" x="720.00" id="27167">F-5WYK</text><rect Type="system" x="750.00" id="27169" height="5.00" width="5.00" Name="XUPK-Z" ID="30001753" Region="域外走廊" y="550.00" /><text y="550.00" x="750.00" id="27170">XUPK-Z</text><rect Type="system" x="780.00" id="27172" height="5.00" width="5.00" Name="L1YK-V" ID="30001809" Region="域外走廊" y="50.00" /><text y="50.00" x="780.00" id="27173">L1YK-V</text><rect Type="system" x="800.00" id="27175" height="5.00" width="5.00" Name="8OYE-Z" ID="30000652" Region="地窖" y="720.00" /><text y="720.00" x="800.00" id="27176">8OYE-Z</text><line style="stroke:blue;fill:blue;" id="27178" x2="100.00" x1="50.00" y1="150.00" y2="150.00" /><line style="stroke:blue;fill:blue;" id="27179" x2="150.00" x1="50.00" y1="320.00" y2="320.00" /><line style="stroke:blue;fill:blue;" id="27180" x2="80.00" x1="80.00" y1="100.00" y2="50.00" /><line style="stroke:blue;fill:blue;" id="27181" x2="100.00" x1="80.00" y1="100.00" y2="150.00" /><line style="stroke:blue;fill:blue;" id="27182" x2="100.00" x1="100.00" y1="150.00" y2="200.00" /><line style="stroke:blue;fill:blue;" id="27183" x2="80.00" x1="100.00" y1="150.00" y2="100.00" /><line style="stroke:blue;fill:blue;" id="27184" x2="50.00" x1="100.00" y1="150.00" y2="150.00" /><line style="stroke:blue;fill:blue;" id="27185" x2="150.00" x1="100.00" y1="150.00" y2="100.00" /><line style="stroke:blue;fill:blue;" id="27186" x2="120.00" x1="100.00" y1="200.00" y2="250.00" /><line style="stroke:blue;fill:blue;" id="27187" x2="100.00" x1="100.00" y1="200.00" y2="150.00" /><line style="stroke:blue;fill:blue;" id="27188" x2="220.00" x1="120.00" y1="250.00" y2="320.00" /><line style="stroke:blue;fill:blue;" id="27189" x2="100.00" x1="120.00" y1="250.00" y2="200.00" /><line style="stroke:blue;fill:blue;" id="27190" x2="150.00" x1="150.00" y1="320.00" y2="400.00" /><line style="stroke:blue;fill:blue;" id="27191" x2="220.00" x1="150.00" y1="320.00" y2="320.00" /><line style="stroke:blue;fill:blue;" id="27192" x2="50.00" x1="150.00" y1="320.00" y2="320.00" /><line style="stroke:blue;fill:blue;" id="27193" x2="220.00" x1="150.00" y1="400.00" y2="400.00" /><line style="stroke:blue;fill:blue;" id="27194" x2="150.00" x1="150.00" y1="400.00" y2="320.00" /><line style="stroke:blue;fill:blue;" id="27195" x2="50.00" x1="150.00" y1="400.00" y2="400.00" /><line style="stroke:blue;fill:blue;" id="27196" x2="100.00" x1="150.00" y1="100.00" y2="150.00" /><line style="stroke:blue;fill:blue;" id="27197" x2="150.00" x1="150.00" y1="100.00" y2="50.00" /><line style="stroke:blue;fill:blue;" id="27198" x2="250.00" x1="180.00" y1="580.00" y2="580.00" /><line style="stroke:blue;fill:blue;" id="27199" x2="150.00" x1="200.00" y1="500.00" y2="524.50" /><line style="stroke:blue;fill:blue;" id="27200" x2="320.00" x1="200.00" y1="500.00" y2="500.00" /><line style="stroke:blue;fill:blue;" id="27201" x2="150.00" x1="200.00" y1="500.00" y2="475.50" /><line style="stroke:blue;fill:blue;" id="27202" x2="280.00" x1="200.00" y1="700.00" y2="680.00" /><line style="stroke:blue;fill:blue;" id="27203" x2="220.00" x1="220.00" y1="320.00" y2="400.00" /><line style="stroke:blue;fill:blue;" id="27204" x2="150.00" x1="220.00" y1="320.00" y2="320.00" /><line style="stroke:blue;fill:blue;" id="27205" x2="120.00" x1="220.00" y1="320.00" y2="250.00" /><line style="stroke:blue;fill:blue;" id="27206" x2="220.00" x1="220.00" y1="320.00" y2="250.00" /><line style="stroke:blue;fill:blue;" id="27207" x2="150.00" x1="220.00" y1="400.00" y2="400.00" /><line style="stroke:blue;fill:blue;" id="27208" x2="220.00" x1="220.00" y1="400.00" y2="320.00" /><line style="stroke:blue;fill:blue;" id="27209" x2="279.04" x1="220.00" y1="400.00" y2="421.91" /><line style="stroke:blue;fill:blue;" id="27210" x2="220.00" x1="220.00" y1="250.00" y2="320.00" /><line style="stroke:blue;fill:blue;" id="27211" x2="280.00" x1="220.00" y1="250.00" y2="224.50" /><line style="stroke:blue;fill:blue;" id="27212" x2="270.00" x1="250.00" y1="580.00" y2="630.00" /><line style="stroke:blue;fill:blue;" id="27213" x2="180.00" x1="250.00" y1="580.00" y2="580.00" /><line style="stroke:blue;fill:blue;" id="27214" x2="300.00" x1="250.00" y1="580.00" y2="550.00" /><line style="stroke:blue;fill:blue;" id="27215" x2="279.04" x1="250.00" y1="520.00" y2="421.91" /><line style="stroke:blue;fill:blue;" id="27216" x2="300.00" x1="250.00" y1="520.00" y2="550.00" /><line style="stroke:blue;fill:blue;" id="27217" x2="220.00" x1="280.00" y1="224.50" y2="250.00" /><line style="stroke:blue;fill:blue;" id="27218" x2="280.00" x1="280.00" y1="224.50" y2="175.50" /><line style="stroke:blue;fill:blue;" id="27219" x2="350.00" x1="280.00" y1="224.50" y2="200.00" /><line style="stroke:blue;fill:blue;" id="27220" x2="250.00" x1="270.00" y1="630.00" y2="580.00" /><line style="stroke:blue;fill:blue;" id="27221" x2="280.00" x1="270.00" y1="630.00" y2="680.00" /><line style="stroke:blue;fill:blue;" id="27222" x2="360.00" x1="270.00" y1="630.00" y2="650.00" /><line style="stroke:blue;fill:blue;" id="27223" x2="320.00" x1="270.00" y1="630.00" y2="620.00" /><line style="stroke:blue;fill:blue;" id="27224" x2="280.00" x1="280.00" y1="175.50" y2="224.50" /><line style="stroke:blue;fill:blue;" id="27225" x2="280.00" x1="280.00" y1="175.50" y2="120.00" /><line style="stroke:blue;fill:blue;" id="27226" x2="270.00" x1="280.00" y1="680.00" y2="630.00" /><line style="stroke:blue;fill:blue;" id="27227" x2="350.00" x1="280.00" y1="680.00" y2="700.00" /><line style="stroke:blue;fill:blue;" id="27228" x2="200.00" x1="280.00" y1="680.00" y2="700.00" /><line style="stroke:blue;fill:blue;" id="27229" x2="280.00" x1="280.00" y1="120.00" y2="175.50" /><line style="stroke:blue;fill:blue;" id="27230" x2="300.00" x1="280.00" y1="120.00" y2="50.00" /><line style="stroke:blue;fill:blue;" id="27231" x2="220.00" x1="279.04" y1="421.91" y2="400.00" /><line style="stroke:blue;fill:blue;" id="27232" x2="300.96" x1="279.04" y1="421.91" y2="378.09" /><line style="stroke:blue;fill:blue;" id="27233" x2="350.00" x1="279.04" y1="421.91" y2="420.00" /><line style="stroke:blue;fill:blue;" id="27234" x2="250.00" x1="279.04" y1="421.91" y2="520.00" /><line style="stroke:blue;fill:blue;" id="27235" x2="279.04" x1="300.96" y1="378.09" y2="421.91" /><line style="stroke:blue;fill:blue;" id="27236" x2="280.00" x1="300.00" y1="50.00" y2="120.00" /><line style="stroke:blue;fill:blue;" id="27237" x2="250.00" x1="300.00" y1="550.00" y2="580.00" /><line style="stroke:blue;fill:blue;" id="27238" x2="250.00" x1="300.00" y1="550.00" y2="520.00" /><line style="stroke:blue;fill:blue;" id="27239" x2="450.00" x1="300.00" y1="550.00" y2="550.00" /><line style="stroke:blue;fill:blue;" id="27240" x2="320.00" x1="300.00" y1="550.00" y2="500.00" /><line style="stroke:blue;fill:blue;" id="27241" x2="378.09" x1="320.00" y1="500.00" y2="520.96" /><line style="stroke:blue;fill:blue;" id="27242" x2="200.00" x1="320.00" y1="500.00" y2="500.00" /><line style="stroke:blue;fill:blue;" id="27243" x2="421.91" x1="320.00" y1="500.00" y2="499.04" /><line style="stroke:blue;fill:blue;" id="27244" x2="300.00" x1="320.00" y1="500.00" y2="550.00" /><line style="stroke:blue;fill:blue;" id="27245" x2="270.00" x1="320.00" y1="620.00" y2="630.00" /><line style="stroke:blue;fill:blue;" id="27246" x2="400.00" x1="320.00" y1="620.00" y2="620.00" /><line style="stroke:blue;fill:blue;" id="27247" x2="280.00" x1="350.00" y1="200.00" y2="224.50" /><line style="stroke:blue;fill:blue;" id="27248" x2="420.00" x1="350.00" y1="200.00" y2="200.00" /><line style="stroke:blue;fill:blue;" id="27249" x2="279.04" x1="350.00" y1="420.00" y2="421.91" /><line style="stroke:blue;fill:blue;" id="27250" x2="450.00" x1="350.00" y1="420.00" y2="420.00" /><line style="stroke:blue;fill:blue;" id="27251" x2="270.00" x1="360.00" y1="650.00" y2="630.00" /><line style="stroke:blue;fill:blue;" id="27252" x2="350.00" x1="360.00" y1="650.00" y2="700.00" /><line style="stroke:blue;fill:blue;" id="27253" x2="500.00" x1="360.00" y1="650.00" y2="650.00" /><line style="stroke:blue;fill:blue;" id="27254" x2="280.00" x1="350.00" y1="700.00" y2="680.00" /><line style="stroke:blue;fill:blue;" id="27255" x2="360.00" x1="350.00" y1="700.00" y2="650.00" /><line style="stroke:blue;fill:blue;" id="27256" x2="680.00" x1="350.00" y1="700.00" y2="680.00" /><line style="stroke:blue;fill:blue;" id="27257" x2="421.91" x1="378.09" y1="520.96" y2="499.04" /><line style="stroke:blue;fill:blue;" id="27258" x2="450.00" x1="378.09" y1="520.96" y2="550.00" /><line style="stroke:blue;fill:blue;" id="27259" x2="320.00" x1="378.09" y1="520.96" y2="500.00" /><line style="stroke:blue;fill:blue;" id="27260" x2="450.00" x1="400.00" y1="620.00" y2="600.00" /><line style="stroke:blue;fill:blue;" id="27261" x2="320.00" x1="400.00" y1="620.00" y2="620.00" /><line style="stroke:blue;fill:blue;" id="27262" x2="350.00" x1="420.00" y1="200.00" y2="200.00" /><line style="stroke:blue;fill:blue;" id="27263" x2="482.32" x1="420.00" y1="200.00" y2="217.68" /><line style="stroke:blue;fill:blue;" id="27264" x2="378.09" x1="421.91" y1="499.04" y2="520.96" /><line style="stroke:blue;fill:blue;" id="27265" x2="450.00" x1="421.91" y1="499.04" y2="550.00" /><line style="stroke:blue;fill:blue;" id="27266" x2="320.00" x1="421.91" y1="499.04" y2="500.00" /><line style="stroke:blue;fill:blue;" id="27267" x2="350.00" x1="450.00" y1="420.00" y2="420.00" /><line style="stroke:blue;fill:blue;" id="27268" x2="480.00" x1="450.00" y1="420.00" y2="480.00" /><line style="stroke:blue;fill:blue;" id="27269" x2="500.00" x1="450.00" y1="420.00" y2="400.00" /><line style="stroke:blue;fill:blue;" id="27270" x2="500.00" x1="450.00" y1="550.00" y2="580.00" /><line style="stroke:blue;fill:blue;" id="27271" x2="378.09" x1="450.00" y1="550.00" y2="520.96" /><line style="stroke:blue;fill:blue;" id="27272" x2="421.91" x1="450.00" y1="550.00" y2="499.04" /><line style="stroke:blue;fill:blue;" id="27273" x2="300.00" x1="450.00" y1="550.00" y2="550.00" /><line style="stroke:blue;fill:blue;" id="27274" x2="480.00" x1="450.00" y1="550.00" y2="480.00" /><line style="stroke:blue;fill:blue;" id="27275" x2="520.00" x1="447.68" y1="252.32" y2="250.00" /><line style="stroke:blue;fill:blue;" id="27276" x2="482.32" x1="447.68" y1="252.32" y2="217.68" /><line style="stroke:blue;fill:blue;" id="27277" x2="520.00" x1="450.00" y1="350.00" y2="350.00" /><line style="stroke:blue;fill:blue;" id="27278" x2="500.00" x1="450.00" y1="600.00" y2="580.00" /><line style="stroke:blue;fill:blue;" id="27279" x2="400.00" x1="450.00" y1="600.00" y2="620.00" /><line style="stroke:blue;fill:blue;" id="27280" x2="450.00" x1="480.00" y1="480.00" y2="550.00" /><line style="stroke:blue;fill:blue;" id="27281" x2="450.00" x1="480.00" y1="480.00" y2="420.00" /><line style="stroke:blue;fill:blue;" id="27282" x2="600.00" x1="480.00" y1="480.00" y2="450.00" /><line style="stroke:blue;fill:blue;" id="27283" x2="420.00" x1="482.32" y1="217.68" y2="200.00" /><line style="stroke:blue;fill:blue;" id="27284" x2="520.00" x1="482.32" y1="217.68" y2="250.00" /><line style="stroke:blue;fill:blue;" id="27285" x2="447.68" x1="482.32" y1="217.68" y2="252.32" /><line style="stroke:blue;fill:blue;" id="27286" x2="500.00" x1="500.00" y1="580.00" y2="650.00" /><line style="stroke:blue;fill:blue;" id="27287" x2="550.00" x1="500.00" y1="580.00" y2="550.00" /><line style="stroke:blue;fill:blue;" id="27288" x2="450.00" x1="500.00" y1="580.00" y2="600.00" /><line style="stroke:blue;fill:blue;" id="27289" x2="450.00" x1="500.00" y1="580.00" y2="550.00" /><line style="stroke:blue;fill:blue;" id="27290" x2="450.00" x1="500.00" y1="400.00" y2="420.00" /><line style="stroke:blue;fill:blue;" id="27291" x2="620.00" x1="500.00" y1="400.00" y2="400.00" /><line style="stroke:blue;fill:blue;" id="27292" x2="600.00" x1="500.00" y1="400.00" y2="450.00" /><line style="stroke:blue;fill:blue;" id="27293" x2="520.00" x1="500.00" y1="400.00" y2="350.00" /><line style="stroke:blue;fill:blue;" id="27294" x2="550.00" x1="500.00" y1="650.00" y2="620.00" /><line style="stroke:blue;fill:blue;" id="27295" x2="360.00" x1="500.00" y1="650.00" y2="650.00" /><line style="stroke:blue;fill:blue;" id="27296" x2="500.00" x1="500.00" y1="650.00" y2="580.00" /><line style="stroke:blue;fill:blue;" id="27297" x2="520.00" x1="520.00" y1="250.00" y2="300.00" /><line style="stroke:blue;fill:blue;" id="27298" x2="447.68" x1="520.00" y1="250.00" y2="252.32" /><line style="stroke:blue;fill:blue;" id="27299" x2="482.32" x1="520.00" y1="250.00" y2="217.68" /><line style="stroke:blue;fill:blue;" id="27300" x2="520.00" x1="520.00" y1="300.00" y2="350.00" /><line style="stroke:blue;fill:blue;" id="27301" x2="520.00" x1="520.00" y1="300.00" y2="250.00" /><line style="stroke:blue;fill:blue;" id="27302" x2="500.00" x1="520.00" y1="350.00" y2="400.00" /><line style="stroke:blue;fill:blue;" id="27303" x2="450.00" x1="520.00" y1="350.00" y2="350.00" /><line style="stroke:blue;fill:blue;" id="27304" x2="520.00" x1="520.00" y1="350.00" y2="300.00" /><line style="stroke:blue;fill:blue;" id="27305" x2="600.00" x1="520.00" y1="350.00" y2="350.00" /><line style="stroke:blue;fill:blue;" id="27306" x2="550.00" x1="550.00" y1="500.00" y2="550.00" /><line style="stroke:blue;fill:blue;" id="27307" x2="500.00" x1="550.00" y1="550.00" y2="580.00" /><line style="stroke:blue;fill:blue;" id="27308" x2="550.00" x1="550.00" y1="550.00" y2="500.00" /><line style="stroke:blue;fill:blue;" id="27309" x2="480.00" x1="600.00" y1="450.00" y2="480.00" /><line style="stroke:blue;fill:blue;" id="27310" x2="500.00" x1="600.00" y1="450.00" y2="400.00" /><line style="stroke:blue;fill:blue;" id="27311" x2="620.00" x1="600.00" y1="450.00" y2="400.00" /><line style="stroke:blue;fill:blue;" id="27312" x2="700.00" x1="600.00" y1="450.00" y2="450.00" /><line style="stroke:blue;fill:blue;" id="27313" x2="650.00" x1="600.00" y1="450.00" y2="500.00" /><line style="stroke:blue;fill:blue;" id="27314" x2="500.00" x1="620.00" y1="400.00" y2="400.00" /><line style="stroke:blue;fill:blue;" id="27315" x2="600.00" x1="620.00" y1="400.00" y2="450.00" /><line style="stroke:blue;fill:blue;" id="27316" x2="700.00" x1="620.00" y1="400.00" y2="400.00" /><line style="stroke:blue;fill:blue;" id="27317" x2="680.00" x1="620.00" y1="400.00" y2="320.00" /><line style="stroke:blue;fill:blue;" id="27318" x2="600.00" x1="620.00" y1="400.00" y2="350.00" /><line style="stroke:blue;fill:blue;" id="27319" x2="720.00" x1="650.00" y1="750.00" y2="720.00" /><line style="stroke:blue;fill:blue;" id="27320" x2="680.00" x1="650.00" y1="620.00" y2="680.00" /><line style="stroke:blue;fill:blue;" id="27321" x2="720.00" x1="650.00" y1="620.00" y2="650.00" /><line style="stroke:blue;fill:blue;" id="27322" x2="720.00" x1="650.00" y1="620.00" y2="600.00" /><line style="stroke:blue;fill:blue;" id="27323" x2="720.00" x1="650.00" y1="180.00" y2="220.00" /><line style="stroke:blue;fill:blue;" id="27324" x2="350.00" x1="680.00" y1="680.00" y2="700.00" /><line style="stroke:blue;fill:blue;" id="27325" x2="720.00" x1="680.00" y1="680.00" y2="720.00" /><line style="stroke:blue;fill:blue;" id="27326" x2="720.00" x1="680.00" y1="680.00" y2="650.00" /><line style="stroke:blue;fill:blue;" id="27327" x2="650.00" x1="680.00" y1="680.00" y2="620.00" /><line style="stroke:blue;fill:blue;" id="27328" x2="620.00" x1="700.00" y1="400.00" y2="400.00" /><line style="stroke:blue;fill:blue;" id="27329" x2="600.00" x1="700.00" y1="450.00" y2="450.00" /><line style="stroke:blue;fill:blue;" id="27330" x2="780.00" x1="700.00" y1="450.00" y2="450.00" /><line style="stroke:blue;fill:blue;" id="27331" x2="720.00" x1="720.00" y1="600.00" y2="650.00" /><line style="stroke:blue;fill:blue;" id="27332" x2="650.00" x1="720.00" y1="600.00" y2="620.00" /><line style="stroke:blue;fill:blue;" id="27333" x2="750.00" x1="720.00" y1="600.00" y2="550.00" /><line style="stroke:blue;fill:blue;" id="27334" x2="778.09" x1="720.00" y1="220.00" y2="199.04" /><line style="stroke:blue;fill:blue;" id="27335" x2="780.00" x1="720.00" y1="220.00" y2="150.00" /><line style="stroke:blue;fill:blue;" id="27336" x2="821.91" x1="720.00" y1="220.00" y2="220.96" /><line style="stroke:blue;fill:blue;" id="27337" x2="650.00" x1="720.00" y1="220.00" y2="180.00" /><line style="stroke:blue;fill:blue;" id="27338" x2="720.00" x1="720.00" y1="220.00" y2="280.00" /><line style="stroke:blue;fill:blue;" id="27339" x2="680.00" x1="720.00" y1="650.00" y2="680.00" /><line style="stroke:blue;fill:blue;" id="27340" x2="650.00" x1="720.00" y1="650.00" y2="620.00" /><line style="stroke:blue;fill:blue;" id="27341" x2="720.00" x1="720.00" y1="650.00" y2="600.00" /><line style="stroke:blue;fill:blue;" id="27342" x2="800.00" x1="720.00" y1="720.00" y2="720.00" /><line style="stroke:blue;fill:blue;" id="27343" x2="680.00" x1="720.00" y1="720.00" y2="680.00" /><line style="stroke:blue;fill:blue;" id="27344" x2="650.00" x1="720.00" y1="720.00" y2="750.00" /><line style="stroke:blue;fill:blue;" id="27345" x2="780.00" x1="780.00" y1="100.00" y2="150.00" /><line style="stroke:blue;fill:blue;" id="27346" x2="780.00" x1="780.00" y1="100.00" y2="50.00" /><line style="stroke:blue;fill:blue;" id="27347" x2="720.00" x1="780.00" y1="150.00" y2="220.00" /><line style="stroke:blue;fill:blue;" id="27348" x2="778.09" x1="780.00" y1="150.00" y2="199.04" /><line style="stroke:blue;fill:blue;" id="27349" x2="821.91" x1="780.00" y1="150.00" y2="220.96" /><line style="stroke:blue;fill:blue;" id="27350" x2="780.00" x1="780.00" y1="150.00" y2="100.00" /><line style="stroke:blue;fill:blue;" id="27351" x2="720.00" x1="778.09" y1="199.04" y2="220.00" /><line style="stroke:blue;fill:blue;" id="27352" x2="780.00" x1="778.09" y1="199.04" y2="150.00" /><line style="stroke:blue;fill:blue;" id="27353" x2="821.91" x1="778.09" y1="199.04" y2="220.96" /><line style="stroke:blue;fill:blue;" id="27354" x2="700.00" x1="780.00" y1="450.00" y2="450.00" /><line style="stroke:blue;fill:blue;" id="27355" x2="850.00" x1="780.00" y1="450.00" y2="420.00" /><line style="stroke:blue;fill:blue;" id="27356" x2="880.00" x1="780.00" y1="450.00" y2="480.00" /><line style="stroke:blue;fill:blue;" id="27357" x2="720.00" x1="821.91" y1="220.96" y2="220.00" /><line style="stroke:blue;fill:blue;" id="27358" x2="778.09" x1="821.91" y1="220.96" y2="199.04" /><line style="stroke:blue;fill:blue;" id="27359" x2="780.00" x1="821.91" y1="220.96" y2="150.00" /><line style="stroke:blue;fill:blue;" id="27360" x2="780.00" x1="850.00" y1="420.00" y2="450.00" /><line style="stroke:blue;fill:blue;" id="27361" x2="880.00" x1="850.00" y1="420.00" y2="480.00" /><line style="stroke:blue;fill:blue;" id="27362" x2="900.00" x1="850.00" y1="420.00" y2="400.00" /><line style="stroke:blue;fill:blue;" id="27363" x2="780.00" x1="880.00" y1="480.00" y2="450.00" /><line style="stroke:blue;fill:blue;" id="27364" x2="850.00" x1="880.00" y1="480.00" y2="420.00" /><line style="stroke:blue;fill:blue;" id="27365" x2="850.00" x1="900.00" y1="400.00" y2="420.00" /><line style="stroke:blue;fill:blue;" id="27366" x2="920.00" x1="900.00" y1="400.00" y2="350.00" /><line style="stroke:blue;fill:blue;" id="27367" x2="900.00" x1="920.00" y1="350.00" y2="400.00" /><line style="stroke:blue;fill:blue;" id="27368" x2="150.00" x1="50.00" y1="400.00" y2="400.00" /><line style="stroke:blue;fill:blue;" id="27369" x2="80.00" x1="80.00" y1="50.00" y2="100.00" /><line style="stroke:blue;fill:blue;" id="27370" x2="200.00" x1="150.00" y1="475.50" y2="500.00" /><line style="stroke:blue;fill:blue;" id="27371" x2="200.00" x1="150.00" y1="524.50" y2="500.00" /><line style="stroke:blue;fill:blue;" id="27372" x2="150.00" x1="150.00" y1="50.00" y2="100.00" /><line style="stroke:blue;fill:blue;" id="27373" x2="500.00" x1="550.00" y1="620.00" y2="650.00" /><line style="stroke:blue;fill:blue;" id="27374" x2="620.00" x1="600.00" y1="350.00" y2="400.00" /><line style="stroke:blue;fill:blue;" id="27375" x2="520.00" x1="600.00" y1="350.00" y2="350.00" /><line style="stroke:blue;fill:blue;" id="27376" x2="600.00" x1="650.00" y1="500.00" y2="450.00" /><line style="stroke:blue;fill:blue;" id="27377" x2="620.00" x1="680.00" y1="320.00" y2="400.00" /><line style="stroke:blue;fill:blue;" id="27378" x2="720.00" x1="680.00" y1="320.00" y2="280.00" /><line style="stroke:blue;fill:blue;" id="27379" x2="720.00" x1="720.00" y1="280.00" y2="220.00" /><line style="stroke:blue;fill:blue;" id="27380" x2="680.00" x1="720.00" y1="280.00" y2="320.00" /><line style="stroke:blue;fill:blue;" id="27381" x2="720.00" x1="750.00" y1="550.00" y2="600.00" /><line style="stroke:blue;fill:blue;" id="27382" x2="780.00" x1="780.00" y1="50.00" y2="100.00" /><line style="stroke:blue;fill:blue;" id="27383" x2="720.00" x1="800.00" y1="720.00" y2="720.00" /></svg>
