<?xml version="1.0" standalone="yes"?><!DOCTYPE svg PUBLIC "-//W3C//DTD SVG 1.1//EN" "http://www.w3.org/Graphics/SVG/1.1/DTD/svg11.dtd"[]><svg width="1050.00" height="800.00" id="1037" xmlns="http://www.w3.org/2000/svg" xmlns:xlink="http://www.w3.org/1999/xlink"><rect Type="system" x="40.00" id="1038" height="5.00" width="5.00" Name="XW-JHT" ID="30004382" Region="血脉" y="320.00" /><text y="320.00" x="40.00" id="1039">XW-JHT</text><rect Type="system" x="50.00" id="1041" height="5.00" width="5.00" Name="313I-B" ID="30004387" Region="血脉" y="50.00" /><text y="50.00" x="50.00" id="1042">313I-B</text><rect Type="system" x="50.00" id="1044" height="5.00" width="5.00" Name="Q-4DEC" ID="30004389" Region="血脉" y="100.00" /><text y="100.00" x="50.00" id="1045">Q-4DEC</text><rect Type="system" x="50.00" id="1047" height="5.00" width="5.00" Name="2B7A-3" ID="30004394" Region="血脉" y="500.00" /><text y="500.00" x="50.00" id="1048">2B7A-3</text><rect Type="system" x="80.00" id="1050" height="5.00" width="5.00" Name="C-VGYO" ID="30004380" Region="血脉" y="360.00" /><text y="360.00" x="80.00" id="1051">C-VGYO</text><rect Type="system" x="70.00" id="1053" height="5.00" width="5.00" Name="K-8SQS" ID="30004379" Region="血脉" y="410.00" /><text y="410.00" x="70.00" id="1054">K-8SQS</text><rect Type="system" x="100.00" id="1056" height="5.00" width="5.00" Name="1IX-C0" ID="30004393" Region="血脉" y="600.00" /><text y="600.00" x="100.00" id="1057">1IX-C0</text><rect Type="system" x="100.00" id="1059" height="5.00" width="5.00" Name="Y-1918" ID="30004396" Region="血脉" y="650.00" /><text y="650.00" x="100.00" id="1060">Y-1918</text><rect Type="system" x="110.00" id="1062" height="5.00" width="5.00" Name="O94U-A" ID="30004381" Region="血脉" y="320.00" /><text y="320.00" x="110.00" id="1063">O94U-A</text><rect Type="system" x="100.00" id="1065" height="5.00" width="5.00" Name="W-4FA9" ID="30004392" Region="血脉" y="550.00" /><text y="550.00" x="100.00" id="1066">W-4FA9</text><rect Type="system" x="100.00" id="1068" height="5.00" width="5.00" Name="6-O5GY" ID="30004347" Region="血脉" y="250.00" /><text y="250.00" x="100.00" id="1069">6-O5GY</text><rect Type="system" x="120.00" id="1071" height="5.00" width="5.00" Name="J9-5MQ" ID="30004385" Region="血脉" y="80.00" /><text y="80.00" x="120.00" id="1072">J9-5MQ</text><rect Type="system" x="150.00" id="1074" height="5.00" width="5.00" Name="NEH-CS" ID="30004383" Region="血脉" y="350.00" /><text y="350.00" x="150.00" id="1075">NEH-CS</text><rect Type="system" x="150.00" id="1077" height="5.00" width="5.00" Name="C-4ZOS" ID="30004378" Region="血脉" y="400.00" /><text y="400.00" x="150.00" id="1078">C-4ZOS</text><rect Type="system" x="150.00" id="1080" height="5.00" width="5.00" Name="3F-JZF" ID="30004390" Region="血脉" y="500.00" /><text y="500.00" x="150.00" id="1081">3F-JZF</text><rect Type="system" x="180.00" id="1083" height="5.00" width="5.00" Name="PUWL-4" ID="30004395" Region="血脉" y="580.00" /><text y="580.00" x="180.00" id="1084">PUWL-4</text><rect Type="system" x="200.00" id="1086" height="5.00" width="5.00" Name="D4R-H7" ID="30004386" Region="血脉" y="50.00" /><text y="50.00" x="200.00" id="1087">D4R-H7</text><rect Type="system" x="200.00" id="1089" height="5.00" width="5.00" Name="4DTQ-K" ID="30004384" Region="血脉" y="100.00" /><text y="100.00" x="200.00" id="1090">4DTQ-K</text><rect Type="system" x="200.00" id="1092" height="5.00" width="5.00" Name="B8O-KJ" ID="30004346" Region="血脉" y="150.00" /><text y="150.00" x="200.00" id="1093">B8O-KJ</text><rect Type="system" x="200.00" id="1095" height="5.00" width="5.00" Name="5LJ-MD" ID="30004345" Region="血脉" y="200.00" /><text y="200.00" x="200.00" id="1096">5LJ-MD</text><rect Type="system" x="200.00" id="1098" height="5.00" width="5.00" Name="52G-NZ" ID="30004344" Region="血脉" y="250.00" /><text y="250.00" x="200.00" id="1099">52G-NZ</text><rect Type="system" x="220.00" id="1101" height="5.00" width="5.00" Name="5-0WB9" ID="30004391" Region="血脉" y="500.00" /><text y="500.00" x="220.00" id="1102">5-0WB9</text><rect Type="system" x="250.00" id="1104" height="5.00" width="5.00" Name="EQI2-2" ID="30004388" Region="血脉" y="50.00" /><text y="50.00" x="250.00" id="1105">EQI2-2</text><rect Type="system" x="280.00" id="1107" height="5.00" width="5.00" Name="UB-UQZ" ID="30004349" Region="血脉" y="100.00" /><text y="100.00" x="280.00" id="1108">UB-UQZ</text><rect Type="system" x="280.00" id="1110" height="5.00" width="5.00" Name="XM-4L0" ID="30004342" Region="血脉" y="150.00" /><text y="150.00" x="280.00" id="1111">XM-4L0</text><rect Type="system" x="280.00" id="1113" height="5.00" width="5.00" Name="QCWA-Z" ID="30004343" Region="血脉" y="200.00" /><text y="200.00" x="280.00" id="1114">QCWA-Z</text><rect Type="system" x="280.00" id="1116" height="5.00" width="5.00" Name="KV-8SN" ID="30004348" Region="血脉" y="250.00" /><text y="250.00" x="280.00" id="1117">KV-8SN</text><rect Type="system" x="270.00" id="1119" height="5.00" width="5.00" Name="M-HU4V" ID="30004356" Region="血脉" y="380.00" /><text y="380.00" x="270.00" id="1120">M-HU4V</text><rect Type="system" x="330.00" id="1122" height="5.00" width="5.00" Name="9F-7PZ" ID="30004366" Region="血脉" y="450.00" /><text y="450.00" x="330.00" id="1123">9F-7PZ</text><rect Type="system" x="330.00" id="1125" height="5.00" width="5.00" Name="C-LP3N" ID="30004365" Region="血脉" y="520.00" /><text y="520.00" x="330.00" id="1126">C-LP3N</text><rect Type="system" x="330.00" id="1128" height="5.00" width="5.00" Name="1G-MJE" ID="30004367" Region="血脉" y="575.50" /><text y="575.50" x="330.00" id="1129">1G-MJE</text><rect Type="system" x="330.00" id="1131" height="5.00" width="5.00" Name="WO-AIJ" ID="30004368" Region="血脉" y="624.50" /><text y="624.50" x="330.00" id="1132">WO-AIJ</text><rect Type="system" x="310.00" id="1134" height="5.00" width="5.00" Name="X7R-JW" ID="30004355" Region="血脉" y="330.00" /><text y="330.00" x="310.00" id="1135">X7R-JW</text><rect Type="system" x="350.00" id="1137" height="5.00" width="5.00" Name="YG-82V" ID="30004350" Region="血脉" y="100.00" /><text y="100.00" x="350.00" id="1138">YG-82V</text><rect Type="system" x="400.00" id="1140" height="5.00" width="5.00" Name="Z-K495" ID="30004341" Region="血脉" y="150.00" /><text y="150.00" x="400.00" id="1141">Z-K495</text><rect Type="system" x="350.00" id="1143" height="5.00" width="5.00" Name="QXQ-BA" ID="30004354" Region="血脉" y="380.00" /><text y="380.00" x="350.00" id="1144">QXQ-BA</text><rect Type="system" x="380.00" id="1146" height="5.00" width="5.00" Name="B-GC1T" ID="30004328" Region="血脉" y="20.00" /><text y="20.00" x="380.00" id="1147">B-GC1T</text><rect Type="system" x="390.00" id="1149" height="5.00" width="5.00" Name="T-Q2DD" ID="30004352" Region="血脉" y="340.00" /><text y="340.00" x="390.00" id="1150">T-Q2DD</text><rect Type="system" x="390.00" id="1152" height="5.00" width="5.00" Name="LRWD-B" ID="30004353" Region="血脉" y="420.00" /><text y="420.00" x="390.00" id="1153">LRWD-B</text><rect Type="system" x="400.00" id="1155" height="5.00" width="5.00" Name="LXWN-W" ID="30004364" Region="血脉" y="520.00" /><text y="520.00" x="400.00" id="1156">LXWN-W</text><rect Type="system" x="400.00" id="1158" height="5.00" width="5.00" Name="RO90-H" ID="30004370" Region="血脉" y="575.50" /><text y="575.50" x="400.00" id="1159">RO90-H</text><rect Type="system" x="400.00" id="1161" height="5.00" width="5.00" Name="MA-VDX" ID="30004369" Region="血脉" y="624.50" /><text y="624.50" x="400.00" id="1162">MA-VDX</text><rect Type="system" x="430.00" id="1164" height="5.00" width="5.00" Name="8-4GQM" ID="30004351" Region="血脉" y="380.00" /><text y="380.00" x="430.00" id="1165">8-4GQM</text><rect Type="system" x="450.00" id="1167" height="5.00" width="5.00" Name="O-JPKH" ID="30004326" Region="血脉" y="20.00" /><text y="20.00" x="450.00" id="1168">O-JPKH</text><rect Type="system" x="450.00" id="1170" height="5.00" width="5.00" Name="F-9F6Q" ID="30004327" Region="血脉" y="80.00" /><text y="80.00" x="450.00" id="1171">F-9F6Q</text><rect Type="system" x="500.00" id="1173" height="5.00" width="5.00" Name="KJ-QWL" ID="30004376" Region="血脉" y="490.00" /><text y="490.00" x="500.00" id="1174">KJ-QWL</text><rect Type="system" x="500.00" id="1176" height="5.00" width="5.00" Name="9-B1DS" ID="30004397" Region="血脉" y="575.50" /><text y="575.50" x="500.00" id="1177">9-B1DS</text><rect Type="system" x="500.00" id="1179" height="5.00" width="5.00" Name="CH9L-K" ID="30004401" Region="血脉" y="624.50" /><text y="624.50" x="500.00" id="1180">CH9L-K</text><rect Type="system" x="520.00" id="1182" height="5.00" width="5.00" Name="HB7R-F" ID="30004325" Region="血脉" y="20.00" /><text y="20.00" x="520.00" id="1183">HB7R-F</text><rect Type="system" x="520.00" id="1185" height="5.00" width="5.00" Name="JTAU-5" ID="30004324" Region="血脉" y="80.00" /><text y="80.00" x="520.00" id="1186">JTAU-5</text><rect Type="system" x="480.00" id="1188" height="5.00" width="5.00" Name="0P9Z-I" ID="30004322" Region="血脉" y="170.00" /><text y="170.00" x="480.00" id="1189">0P9Z-I</text><rect Type="system" x="558.91" id="1191" height="5.00" width="5.00" Name="KMQ4-V" ID="30004375" Region="血脉" y="487.96" /><text y="487.96" x="558.91" id="1192">KMQ4-V</text><rect Type="system" x="549.96" id="1194" height="5.00" width="5.00" Name="SVB-RE" ID="30004377" Region="血脉" y="439.79" /><text y="439.79" x="549.96" id="1195">SVB-RE</text><rect Type="system" x="581.14" id="1197" height="5.00" width="5.00" Name="3KNA-N" ID="30004403" Region="血脉" y="531.63" /><text y="531.63" x="581.14" id="1198">3KNA-N</text><rect Type="system" x="579.99" id="1200" height="5.00" width="5.00" Name="ME-4IU" ID="30004398" Region="血脉" y="580.62" /><text y="580.62" x="579.99" id="1201">ME-4IU</text><rect Type="system" x="580.00" id="1203" height="5.00" width="5.00" Name="I-7JR4" ID="30004400" Region="血脉" y="630.00" /><text y="630.00" x="580.00" id="1204">I-7JR4</text><rect Type="system" x="580.00" id="1206" height="5.00" width="5.00" Name="S-B7IT" ID="30004332" Region="血脉" y="300.00" /><text y="300.00" x="580.00" id="1207">S-B7IT</text><rect Type="system" x="550.00" id="1209" height="5.00" width="5.00" Name="BKG-Q2" ID="30004333" Region="血脉" y="380.00" /><text y="380.00" x="550.00" id="1210">BKG-Q2</text><rect Type="system" x="600.00" id="1212" height="5.00" width="5.00" Name="Q-FEEJ" ID="30004321" Region="血脉" y="180.00" /><text y="180.00" x="600.00" id="1213">Q-FEEJ</text><rect Type="system" x="600.00" id="1215" height="5.00" width="5.00" Name="AH-B84" ID="30004323" Region="血脉" y="50.00" /><text y="50.00" x="600.00" id="1216">AH-B84</text><rect Type="system" x="620.00" id="1218" height="5.00" width="5.00" Name="5-P1Y2" ID="30004374" Region="血脉" y="480.00" /><text y="480.00" x="620.00" id="1219">5-P1Y2</text><rect Type="system" x="650.00" id="1221" height="5.00" width="5.00" Name="BU-IU4" ID="30004399" Region="血脉" y="575.50" /><text y="575.50" x="650.00" id="1222">BU-IU4</text><rect Type="system" x="650.00" id="1224" height="5.00" width="5.00" Name="QYZM-W" ID="30004402" Region="血脉" y="624.50" /><text y="624.50" x="650.00" id="1225">QYZM-W</text><rect Type="system" x="650.00" id="1227" height="5.00" width="5.00" Name="JRZ-B9" ID="30004330" Region="血脉" y="300.00" /><text y="300.00" x="650.00" id="1228">JRZ-B9</text><rect Type="system" x="650.00" id="1230" height="5.00" width="5.00" Name="X4UV-Z" ID="30004331" Region="血脉" y="380.00" /><text y="380.00" x="650.00" id="1231">X4UV-Z</text><rect Type="system" x="680.00" id="1233" height="5.00" width="5.00" Name="4-48K1" ID="30004317" Region="血脉" y="120.00" /><text y="120.00" x="680.00" id="1234">4-48K1</text><rect Type="system" x="680.00" id="1236" height="5.00" width="5.00" Name="NTV0-1" ID="30004318" Region="血脉" y="175.28" /><text y="175.28" x="680.00" id="1237">NTV0-1</text><rect Type="system" x="679.29" id="1239" height="5.00" width="5.00" Name="C-HCGU" ID="30004319" Region="血脉" y="224.27" /><text y="224.27" x="679.29" id="1240">C-HCGU</text><rect Type="system" x="700.00" id="1242" height="5.00" width="5.00" Name="J52-BH" ID="30004373" Region="血脉" y="480.00" /><text y="480.00" x="700.00" id="1243">J52-BH</text><rect Type="system" x="720.71" id="1245" height="5.00" width="5.00" Name="XW-2XP" ID="30004320" Region="血脉" y="250.45" /><text y="250.45" x="720.71" id="1246">XW-2XP</text><rect Type="system" x="720.00" id="1248" height="5.00" width="5.00" Name="V8W-QS" ID="30004329" Region="血脉" y="300.00" /><text y="300.00" x="720.00" id="1249">V8W-QS</text><rect Type="system" x="750.00" id="1251" height="5.00" width="5.00" Name="J7YR-1" ID="30004312" Region="血脉" y="20.00" /><text y="20.00" x="750.00" id="1252">J7YR-1</text><rect Type="system" x="750.00" id="1254" height="5.00" width="5.00" Name="PKG4-7" ID="30004313" Region="血脉" y="75.50" /><text y="75.50" x="750.00" id="1255">PKG4-7</text><rect Type="system" x="750.00" id="1257" height="5.00" width="5.00" Name="EWN-2U" ID="30004314" Region="血脉" y="124.50" /><text y="124.50" x="750.00" id="1258">EWN-2U</text><rect Type="system" x="750.00" id="1260" height="5.00" width="5.00" Name="I-7RIS" ID="30004361" Region="血脉" y="180.00" /><text y="180.00" x="750.00" id="1261">I-7RIS</text><rect Type="system" x="780.00" id="1263" height="5.00" width="5.00" Name="C-LBQS" ID="30004372" Region="血脉" y="480.00" /><text y="480.00" x="780.00" id="1264">C-LBQS</text><rect Type="system" x="820.00" id="1266" height="5.00" width="5.00" Name="DCI7-7" ID="30004311" Region="血脉" y="20.00" /><text y="20.00" x="820.00" id="1267">DCI7-7</text><rect Type="system" x="820.00" id="1269" height="5.00" width="5.00" Name="OJ-A8M" ID="30004334" Region="血脉" y="300.00" /><text y="300.00" x="820.00" id="1270">OJ-A8M</text><rect Type="system" x="820.00" id="1272" height="5.00" width="5.00" Name="P7Z-R3" ID="30004362" Region="血脉" y="120.00" /><text y="120.00" x="820.00" id="1273">P7Z-R3</text><rect Type="system" x="820.00" id="1275" height="5.00" width="5.00" Name="A-G1FM" ID="30004359" Region="血脉" y="180.00" /><text y="180.00" x="820.00" id="1276">A-G1FM</text><rect Type="system" x="820.00" id="1278" height="5.00" width="5.00" Name="CS-ZGD" ID="30004357" Region="血脉" y="250.00" /><text y="250.00" x="820.00" id="1279">CS-ZGD</text><rect Type="system" x="850.00" id="1281" height="5.00" width="5.00" Name="CX-1XF" ID="30004335" Region="血脉" y="380.00" /><text y="380.00" x="850.00" id="1282">CX-1XF</text><rect Type="system" x="900.00" id="1284" height="5.00" width="5.00" Name="KL3O-J" ID="30004340" Region="血脉" y="480.00" /><text y="480.00" x="900.00" id="1285">KL3O-J</text><rect Type="system" x="850.00" id="1287" height="5.00" width="5.00" Name="BWI1-9" ID="30004371" Region="血脉" y="480.00" /><text y="480.00" x="850.00" id="1288">BWI1-9</text><rect Type="system" x="897.68" id="1290" height="5.00" width="5.00" Name="ZIU-EP" ID="30004363" Region="血脉" y="202.32" /><text y="202.32" x="897.68" id="1291">ZIU-EP</text><rect Type="system" x="900.00" id="1293" height="5.00" width="5.00" Name="UQ9-3C" ID="30004310" Region="血脉" y="20.00" /><text y="20.00" x="900.00" id="1294">UQ9-3C</text><rect Type="system" x="900.00" id="1296" height="5.00" width="5.00" Name="VL3I-M" ID="30004315" Region="血脉" y="80.00" /><text y="80.00" x="900.00" id="1297">VL3I-M</text><rect Type="system" x="900.00" id="1299" height="5.00" width="5.00" Name="3-TD6L" ID="30004336" Region="血脉" y="375.50" /><text y="375.50" x="900.00" id="1300">3-TD6L</text><rect Type="system" x="900.00" id="1302" height="5.00" width="5.00" Name="R4O-I6" ID="30004339" Region="血脉" y="424.50" /><text y="424.50" x="900.00" id="1303">R4O-I6</text><rect Type="system" x="950.00" id="1305" height="5.00" width="5.00" Name="4-BE0M" ID="30004360" Region="血脉" y="120.00" /><text y="120.00" x="950.00" id="1306">4-BE0M</text><rect Type="system" x="950.00" id="1308" height="5.00" width="5.00" Name="3-N3OO" ID="30004358" Region="血脉" y="250.00" /><text y="250.00" x="950.00" id="1309">3-N3OO</text><rect Type="system" x="980.00" id="1311" height="5.00" width="5.00" Name="KMC-WI" ID="30004316" Region="血脉" y="80.00" /><text y="80.00" x="980.00" id="1312">KMC-WI</text><rect Type="system" x="980.00" id="1314" height="5.00" width="5.00" Name="NLPB-0" ID="30004338" Region="血脉" y="375.50" /><text y="375.50" x="980.00" id="1315">NLPB-0</text><rect Type="system" x="980.00" id="1317" height="5.00" width="5.00" Name="Q-NJZ4" ID="30004337" Region="血脉" y="424.50" /><text y="424.50" x="980.00" id="1318">Q-NJZ4</text><rect Type="system" x="100.00" id="1320" height="5.00" width="5.00" Name="UJY-HE" ID="30002955" Region="德克廉" y="700.00" /><text y="700.00" x="100.00" id="1321">UJY-HE</text><rect Type="system" x="400.00" id="1323" height="5.00" width="5.00" Name="92D-OI" ID="30001312" Region="维纳尔" y="700.00" /><text y="700.00" x="400.00" id="1324">92D-OI</text><rect Type="system" x="390.00" id="1326" height="5.00" width="5.00" Name="ZXA-V6" ID="30003620" Region="特纳" y="280.00" /><text y="280.00" x="390.00" id="1327">ZXA-V6</text><rect Type="system" x="500.00" id="1329" height="5.00" width="5.00" Name="Q1U-IU" ID="30003669" Region="特纳" y="700.00" /><text y="700.00" x="500.00" id="1330">Q1U-IU</text><rect Type="system" x="932.32" id="1332" height="5.00" width="5.00" Name="2-3Q2G" ID="30003668" Region="特纳" y="167.68" /><text y="167.68" x="932.32" id="1333">2-3Q2G</text><rect Type="system" x="980.00" id="1335" height="5.00" width="5.00" Name="H1-ESN" ID="30003608" Region="特纳" y="300.00" /><text y="300.00" x="980.00" id="1336">H1-ESN</text><rect Type="system" x="1000.00" id="1338" height="5.00" width="5.00" Name="9IPC-E" ID="30001306" Region="维纳尔" y="20.00" /><text y="20.00" x="1000.00" id="1339">9IPC-E</text><line style="stroke:blue;fill:blue;" id="1341" x2="80.00" x1="40.00" y1="320.00" y2="360.00" /><line style="stroke:blue;fill:blue;" id="1342" x2="120.00" x1="50.00" y1="50.00" y2="80.00" /><line style="stroke:blue;fill:blue;" id="1343" x2="120.00" x1="50.00" y1="100.00" y2="80.00" /><line style="stroke:blue;fill:blue;" id="1344" x2="150.00" x1="50.00" y1="500.00" y2="500.00" /><line style="stroke:blue;fill:blue;" id="1345" x2="70.00" x1="80.00" y1="360.00" y2="410.00" /><line style="stroke:blue;fill:blue;" id="1346" x2="110.00" x1="80.00" y1="360.00" y2="320.00" /><line style="stroke:blue;fill:blue;" id="1347" x2="40.00" x1="80.00" y1="360.00" y2="320.00" /><line style="stroke:blue;fill:blue;" id="1348" x2="150.00" x1="70.00" y1="410.00" y2="400.00" /><line style="stroke:blue;fill:blue;" id="1349" x2="80.00" x1="70.00" y1="410.00" y2="360.00" /><line style="stroke:blue;fill:blue;" id="1350" x2="100.00" x1="100.00" y1="600.00" y2="550.00" /><line style="stroke:blue;fill:blue;" id="1351" x2="100.00" x1="100.00" y1="600.00" y2="650.00" /><line style="stroke:blue;fill:blue;" id="1352" x2="100.00" x1="100.00" y1="650.00" y2="700.00" /><line style="stroke:blue;fill:blue;" id="1353" x2="100.00" x1="100.00" y1="650.00" y2="600.00" /><line style="stroke:blue;fill:blue;" id="1354" x2="80.00" x1="110.00" y1="320.00" y2="360.00" /><line style="stroke:blue;fill:blue;" id="1355" x2="150.00" x1="100.00" y1="550.00" y2="500.00" /><line style="stroke:blue;fill:blue;" id="1356" x2="100.00" x1="100.00" y1="550.00" y2="600.00" /><line style="stroke:blue;fill:blue;" id="1357" x2="180.00" x1="100.00" y1="550.00" y2="580.00" /><line style="stroke:blue;fill:blue;" id="1358" x2="200.00" x1="100.00" y1="250.00" y2="250.00" /><line style="stroke:blue;fill:blue;" id="1359" x2="200.00" x1="120.00" y1="80.00" y2="100.00" /><line style="stroke:blue;fill:blue;" id="1360" x2="200.00" x1="120.00" y1="80.00" y2="50.00" /><line style="stroke:blue;fill:blue;" id="1361" x2="50.00" x1="120.00" y1="80.00" y2="50.00" /><line style="stroke:blue;fill:blue;" id="1362" x2="50.00" x1="120.00" y1="80.00" y2="100.00" /><line style="stroke:blue;fill:blue;" id="1363" x2="150.00" x1="150.00" y1="350.00" y2="400.00" /><line style="stroke:blue;fill:blue;" id="1364" x2="270.00" x1="150.00" y1="400.00" y2="380.00" /><line style="stroke:blue;fill:blue;" id="1365" x2="70.00" x1="150.00" y1="400.00" y2="410.00" /><line style="stroke:blue;fill:blue;" id="1366" x2="150.00" x1="150.00" y1="400.00" y2="350.00" /><line style="stroke:blue;fill:blue;" id="1367" x2="150.00" x1="150.00" y1="400.00" y2="500.00" /><line style="stroke:blue;fill:blue;" id="1368" x2="150.00" x1="150.00" y1="500.00" y2="400.00" /><line style="stroke:blue;fill:blue;" id="1369" x2="220.00" x1="150.00" y1="500.00" y2="500.00" /><line style="stroke:blue;fill:blue;" id="1370" x2="100.00" x1="150.00" y1="500.00" y2="550.00" /><line style="stroke:blue;fill:blue;" id="1371" x2="50.00" x1="150.00" y1="500.00" y2="500.00" /><line style="stroke:blue;fill:blue;" id="1372" x2="100.00" x1="180.00" y1="580.00" y2="550.00" /><line style="stroke:blue;fill:blue;" id="1373" x2="120.00" x1="200.00" y1="50.00" y2="80.00" /><line style="stroke:blue;fill:blue;" id="1374" x2="250.00" x1="200.00" y1="50.00" y2="50.00" /><line style="stroke:blue;fill:blue;" id="1375" x2="200.00" x1="200.00" y1="100.00" y2="150.00" /><line style="stroke:blue;fill:blue;" id="1376" x2="120.00" x1="200.00" y1="100.00" y2="80.00" /><line style="stroke:blue;fill:blue;" id="1377" x2="250.00" x1="200.00" y1="100.00" y2="50.00" /><line style="stroke:blue;fill:blue;" id="1378" x2="280.00" x1="200.00" y1="150.00" y2="150.00" /><line style="stroke:blue;fill:blue;" id="1379" x2="200.00" x1="200.00" y1="150.00" y2="200.00" /><line style="stroke:blue;fill:blue;" id="1380" x2="280.00" x1="200.00" y1="150.00" y2="100.00" /><line style="stroke:blue;fill:blue;" id="1381" x2="200.00" x1="200.00" y1="150.00" y2="100.00" /><line style="stroke:blue;fill:blue;" id="1382" x2="280.00" x1="200.00" y1="200.00" y2="200.00" /><line style="stroke:blue;fill:blue;" id="1383" x2="200.00" x1="200.00" y1="200.00" y2="250.00" /><line style="stroke:blue;fill:blue;" id="1384" x2="200.00" x1="200.00" y1="200.00" y2="150.00" /><line style="stroke:blue;fill:blue;" id="1385" x2="280.00" x1="200.00" y1="250.00" y2="200.00" /><line style="stroke:blue;fill:blue;" id="1386" x2="200.00" x1="200.00" y1="250.00" y2="200.00" /><line style="stroke:blue;fill:blue;" id="1387" x2="100.00" x1="200.00" y1="250.00" y2="250.00" /><line style="stroke:blue;fill:blue;" id="1388" x2="280.00" x1="200.00" y1="250.00" y2="250.00" /><line style="stroke:blue;fill:blue;" id="1389" x2="150.00" x1="220.00" y1="500.00" y2="500.00" /><line style="stroke:blue;fill:blue;" id="1390" x2="200.00" x1="250.00" y1="50.00" y2="100.00" /><line style="stroke:blue;fill:blue;" id="1391" x2="200.00" x1="250.00" y1="50.00" y2="50.00" /><line style="stroke:blue;fill:blue;" id="1392" x2="280.00" x1="280.00" y1="100.00" y2="150.00" /><line style="stroke:blue;fill:blue;" id="1393" x2="200.00" x1="280.00" y1="100.00" y2="150.00" /><line style="stroke:blue;fill:blue;" id="1394" x2="350.00" x1="280.00" y1="100.00" y2="100.00" /><line style="stroke:blue;fill:blue;" id="1395" x2="400.00" x1="280.00" y1="150.00" y2="150.00" /><line style="stroke:blue;fill:blue;" id="1396" x2="280.00" x1="280.00" y1="150.00" y2="200.00" /><line style="stroke:blue;fill:blue;" id="1397" x2="200.00" x1="280.00" y1="150.00" y2="150.00" /><line style="stroke:blue;fill:blue;" id="1398" x2="280.00" x1="280.00" y1="150.00" y2="100.00" /><line style="stroke:blue;fill:blue;" id="1399" x2="280.00" x1="280.00" y1="200.00" y2="150.00" /><line style="stroke:blue;fill:blue;" id="1400" x2="200.00" x1="280.00" y1="200.00" y2="250.00" /><line style="stroke:blue;fill:blue;" id="1401" x2="200.00" x1="280.00" y1="200.00" y2="200.00" /><line style="stroke:blue;fill:blue;" id="1402" x2="280.00" x1="280.00" y1="200.00" y2="250.00" /><line style="stroke:blue;fill:blue;" id="1403" x2="280.00" x1="280.00" y1="250.00" y2="200.00" /><line style="stroke:blue;fill:blue;" id="1404" x2="200.00" x1="280.00" y1="250.00" y2="250.00" /><line style="stroke:blue;fill:blue;" id="1405" x2="350.00" x1="270.00" y1="380.00" y2="380.00" /><line style="stroke:blue;fill:blue;" id="1406" x2="310.00" x1="270.00" y1="380.00" y2="330.00" /><line style="stroke:blue;fill:blue;" id="1407" x2="150.00" x1="270.00" y1="380.00" y2="400.00" /><line style="stroke:blue;fill:blue;" id="1408" x2="330.00" x1="330.00" y1="450.00" y2="520.00" /><line style="stroke:blue;fill:blue;" id="1409" x2="400.00" x1="330.00" y1="520.00" y2="520.00" /><line style="stroke:blue;fill:blue;" id="1410" x2="330.00" x1="330.00" y1="520.00" y2="450.00" /><line style="stroke:blue;fill:blue;" id="1411" x2="330.00" x1="330.00" y1="520.00" y2="575.50" /><line style="stroke:blue;fill:blue;" id="1412" x2="330.00" x1="330.00" y1="575.50" y2="520.00" /><line style="stroke:blue;fill:blue;" id="1413" x2="330.00" x1="330.00" y1="575.50" y2="624.50" /><line style="stroke:blue;fill:blue;" id="1414" x2="400.00" x1="330.00" y1="575.50" y2="575.50" /><line style="stroke:blue;fill:blue;" id="1415" x2="330.00" x1="330.00" y1="624.50" y2="575.50" /><line style="stroke:blue;fill:blue;" id="1416" x2="400.00" x1="330.00" y1="624.50" y2="624.50" /><line style="stroke:blue;fill:blue;" id="1417" x2="350.00" x1="310.00" y1="330.00" y2="380.00" /><line style="stroke:blue;fill:blue;" id="1418" x2="270.00" x1="310.00" y1="330.00" y2="380.00" /><line style="stroke:blue;fill:blue;" id="1419" x2="280.00" x1="350.00" y1="100.00" y2="100.00" /><line style="stroke:blue;fill:blue;" id="1420" x2="480.00" x1="400.00" y1="150.00" y2="170.00" /><line style="stroke:blue;fill:blue;" id="1421" x2="550.00" x1="400.00" y1="150.00" y2="380.00" /><line style="stroke:blue;fill:blue;" id="1422" x2="280.00" x1="400.00" y1="150.00" y2="150.00" /><line style="stroke:blue;fill:blue;" id="1423" x2="390.00" x1="350.00" y1="380.00" y2="340.00" /><line style="stroke:blue;fill:blue;" id="1424" x2="390.00" x1="350.00" y1="380.00" y2="420.00" /><line style="stroke:blue;fill:blue;" id="1425" x2="310.00" x1="350.00" y1="380.00" y2="330.00" /><line style="stroke:blue;fill:blue;" id="1426" x2="270.00" x1="350.00" y1="380.00" y2="380.00" /><line style="stroke:blue;fill:blue;" id="1427" x2="450.00" x1="380.00" y1="20.00" y2="20.00" /><line style="stroke:blue;fill:blue;" id="1428" x2="390.00" x1="390.00" y1="340.00" y2="280.00" /><line style="stroke:blue;fill:blue;" id="1429" x2="430.00" x1="390.00" y1="340.00" y2="380.00" /><line style="stroke:blue;fill:blue;" id="1430" x2="350.00" x1="390.00" y1="340.00" y2="380.00" /><line style="stroke:blue;fill:blue;" id="1431" x2="430.00" x1="390.00" y1="420.00" y2="380.00" /><line style="stroke:blue;fill:blue;" id="1432" x2="350.00" x1="390.00" y1="420.00" y2="380.00" /><line style="stroke:blue;fill:blue;" id="1433" x2="550.00" x1="400.00" y1="520.00" y2="380.00" /><line style="stroke:blue;fill:blue;" id="1434" x2="330.00" x1="400.00" y1="520.00" y2="520.00" /><line style="stroke:blue;fill:blue;" id="1435" x2="400.00" x1="400.00" y1="520.00" y2="575.50" /><line style="stroke:blue;fill:blue;" id="1436" x2="400.00" x1="400.00" y1="575.50" y2="520.00" /><line style="stroke:blue;fill:blue;" id="1437" x2="330.00" x1="400.00" y1="575.50" y2="575.50" /><line style="stroke:blue;fill:blue;" id="1438" x2="400.00" x1="400.00" y1="575.50" y2="624.50" /><line style="stroke:blue;fill:blue;" id="1439" x2="400.00" x1="400.00" y1="624.50" y2="700.00" /><line style="stroke:blue;fill:blue;" id="1440" x2="330.00" x1="400.00" y1="624.50" y2="624.50" /><line style="stroke:blue;fill:blue;" id="1441" x2="400.00" x1="400.00" y1="624.50" y2="575.50" /><line style="stroke:blue;fill:blue;" id="1442" x2="550.00" x1="430.00" y1="380.00" y2="380.00" /><line style="stroke:blue;fill:blue;" id="1443" x2="390.00" x1="430.00" y1="380.00" y2="340.00" /><line style="stroke:blue;fill:blue;" id="1444" x2="390.00" x1="430.00" y1="380.00" y2="420.00" /><line style="stroke:blue;fill:blue;" id="1445" x2="520.00" x1="450.00" y1="20.00" y2="20.00" /><line style="stroke:blue;fill:blue;" id="1446" x2="380.00" x1="450.00" y1="20.00" y2="20.00" /><line style="stroke:blue;fill:blue;" id="1447" x2="520.00" x1="450.00" y1="80.00" y2="80.00" /><line style="stroke:blue;fill:blue;" id="1448" x2="558.91" x1="500.00" y1="490.00" y2="487.96" /><line style="stroke:blue;fill:blue;" id="1449" x2="549.96" x1="500.00" y1="490.00" y2="439.79" /><line style="stroke:blue;fill:blue;" id="1450" x2="500.00" x1="500.00" y1="490.00" y2="575.50" /><line style="stroke:blue;fill:blue;" id="1451" x2="500.00" x1="500.00" y1="575.50" y2="490.00" /><line style="stroke:blue;fill:blue;" id="1452" x2="579.99" x1="500.00" y1="575.50" y2="580.62" /><line style="stroke:blue;fill:blue;" id="1453" x2="500.00" x1="500.00" y1="575.50" y2="624.50" /><line style="stroke:blue;fill:blue;" id="1454" x2="500.00" x1="500.00" y1="624.50" y2="700.00" /><line style="stroke:blue;fill:blue;" id="1455" x2="500.00" x1="500.00" y1="624.50" y2="575.50" /><line style="stroke:blue;fill:blue;" id="1456" x2="580.00" x1="500.00" y1="624.50" y2="630.00" /><line style="stroke:blue;fill:blue;" id="1457" x2="600.00" x1="520.00" y1="20.00" y2="50.00" /><line style="stroke:blue;fill:blue;" id="1458" x2="450.00" x1="520.00" y1="20.00" y2="20.00" /><line style="stroke:blue;fill:blue;" id="1459" x2="600.00" x1="520.00" y1="80.00" y2="50.00" /><line style="stroke:blue;fill:blue;" id="1460" x2="450.00" x1="520.00" y1="80.00" y2="80.00" /><line style="stroke:blue;fill:blue;" id="1461" x2="600.00" x1="480.00" y1="170.00" y2="180.00" /><line style="stroke:blue;fill:blue;" id="1462" x2="400.00" x1="480.00" y1="170.00" y2="150.00" /><line style="stroke:blue;fill:blue;" id="1463" x2="620.00" x1="558.91" y1="487.96" y2="480.00" /><line style="stroke:blue;fill:blue;" id="1464" x2="500.00" x1="558.91" y1="487.96" y2="490.00" /><line style="stroke:blue;fill:blue;" id="1465" x2="500.00" x1="549.96" y1="439.79" y2="490.00" /><line style="stroke:blue;fill:blue;" id="1466" x2="579.99" x1="581.14" y1="531.63" y2="580.62" /><line style="stroke:blue;fill:blue;" id="1467" x2="500.00" x1="579.99" y1="580.62" y2="575.50" /><line style="stroke:blue;fill:blue;" id="1468" x2="650.00" x1="579.99" y1="580.62" y2="575.50" /><line style="stroke:blue;fill:blue;" id="1469" x2="580.00" x1="579.99" y1="580.62" y2="630.00" /><line style="stroke:blue;fill:blue;" id="1470" x2="581.14" x1="579.99" y1="580.62" y2="531.63" /><line style="stroke:blue;fill:blue;" id="1471" x2="579.99" x1="580.00" y1="630.00" y2="580.62" /><line style="stroke:blue;fill:blue;" id="1472" x2="500.00" x1="580.00" y1="630.00" y2="624.50" /><line style="stroke:blue;fill:blue;" id="1473" x2="650.00" x1="580.00" y1="630.00" y2="624.50" /><line style="stroke:blue;fill:blue;" id="1474" x2="650.00" x1="580.00" y1="300.00" y2="300.00" /><line style="stroke:blue;fill:blue;" id="1475" x2="550.00" x1="580.00" y1="300.00" y2="380.00" /><line style="stroke:blue;fill:blue;" id="1476" x2="650.00" x1="550.00" y1="380.00" y2="380.00" /><line style="stroke:blue;fill:blue;" id="1477" x2="580.00" x1="550.00" y1="380.00" y2="300.00" /><line style="stroke:blue;fill:blue;" id="1478" x2="400.00" x1="550.00" y1="380.00" y2="150.00" /><line style="stroke:blue;fill:blue;" id="1479" x2="430.00" x1="550.00" y1="380.00" y2="380.00" /><line style="stroke:blue;fill:blue;" id="1480" x2="400.00" x1="550.00" y1="380.00" y2="520.00" /><line style="stroke:blue;fill:blue;" id="1481" x2="679.29" x1="600.00" y1="180.00" y2="224.27" /><line style="stroke:blue;fill:blue;" id="1482" x2="480.00" x1="600.00" y1="180.00" y2="170.00" /><line style="stroke:blue;fill:blue;" id="1483" x2="750.00" x1="600.00" y1="50.00" y2="20.00" /><line style="stroke:blue;fill:blue;" id="1484" x2="520.00" x1="600.00" y1="50.00" y2="80.00" /><line style="stroke:blue;fill:blue;" id="1485" x2="520.00" x1="600.00" y1="50.00" y2="20.00" /><line style="stroke:blue;fill:blue;" id="1486" x2="700.00" x1="620.00" y1="480.00" y2="480.00" /><line style="stroke:blue;fill:blue;" id="1487" x2="558.91" x1="620.00" y1="480.00" y2="487.96" /><line style="stroke:blue;fill:blue;" id="1488" x2="579.99" x1="650.00" y1="575.50" y2="580.62" /><line style="stroke:blue;fill:blue;" id="1489" x2="650.00" x1="650.00" y1="575.50" y2="624.50" /><line style="stroke:blue;fill:blue;" id="1490" x2="650.00" x1="650.00" y1="624.50" y2="575.50" /><line style="stroke:blue;fill:blue;" id="1491" x2="580.00" x1="650.00" y1="624.50" y2="630.00" /><line style="stroke:blue;fill:blue;" id="1492" x2="720.00" x1="650.00" y1="300.00" y2="300.00" /><line style="stroke:blue;fill:blue;" id="1493" x2="650.00" x1="650.00" y1="300.00" y2="380.00" /><line style="stroke:blue;fill:blue;" id="1494" x2="580.00" x1="650.00" y1="300.00" y2="300.00" /><line style="stroke:blue;fill:blue;" id="1495" x2="650.00" x1="650.00" y1="380.00" y2="300.00" /><line style="stroke:blue;fill:blue;" id="1496" x2="550.00" x1="650.00" y1="380.00" y2="380.00" /><line style="stroke:blue;fill:blue;" id="1497" x2="850.00" x1="650.00" y1="380.00" y2="380.00" /><line style="stroke:blue;fill:blue;" id="1498" x2="750.00" x1="680.00" y1="120.00" y2="124.50" /><line style="stroke:blue;fill:blue;" id="1499" x2="680.00" x1="680.00" y1="120.00" y2="175.28" /><line style="stroke:blue;fill:blue;" id="1500" x2="680.00" x1="680.00" y1="175.28" y2="120.00" /><line style="stroke:blue;fill:blue;" id="1501" x2="679.29" x1="680.00" y1="175.28" y2="224.27" /><line style="stroke:blue;fill:blue;" id="1502" x2="680.00" x1="679.29" y1="224.27" y2="175.28" /><line style="stroke:blue;fill:blue;" id="1503" x2="720.71" x1="679.29" y1="224.27" y2="250.45" /><line style="stroke:blue;fill:blue;" id="1504" x2="600.00" x1="679.29" y1="224.27" y2="180.00" /><line style="stroke:blue;fill:blue;" id="1505" x2="780.00" x1="700.00" y1="480.00" y2="480.00" /><line style="stroke:blue;fill:blue;" id="1506" x2="620.00" x1="700.00" y1="480.00" y2="480.00" /><line style="stroke:blue;fill:blue;" id="1507" x2="679.29" x1="720.71" y1="250.45" y2="224.27" /><line style="stroke:blue;fill:blue;" id="1508" x2="720.00" x1="720.71" y1="250.45" y2="300.00" /><line style="stroke:blue;fill:blue;" id="1509" x2="720.71" x1="720.00" y1="300.00" y2="250.45" /><line style="stroke:blue;fill:blue;" id="1510" x2="650.00" x1="720.00" y1="300.00" y2="300.00" /><line style="stroke:blue;fill:blue;" id="1511" x2="820.00" x1="720.00" y1="300.00" y2="300.00" /><line style="stroke:blue;fill:blue;" id="1512" x2="820.00" x1="720.00" y1="300.00" y2="250.00" /><line style="stroke:blue;fill:blue;" id="1513" x2="820.00" x1="750.00" y1="20.00" y2="20.00" /><line style="stroke:blue;fill:blue;" id="1514" x2="750.00" x1="750.00" y1="20.00" y2="75.50" /><line style="stroke:blue;fill:blue;" id="1515" x2="600.00" x1="750.00" y1="20.00" y2="50.00" /><line style="stroke:blue;fill:blue;" id="1516" x2="750.00" x1="750.00" y1="75.50" y2="20.00" /><line style="stroke:blue;fill:blue;" id="1517" x2="750.00" x1="750.00" y1="75.50" y2="124.50" /><line style="stroke:blue;fill:blue;" id="1518" x2="750.00" x1="750.00" y1="124.50" y2="75.50" /><line style="stroke:blue;fill:blue;" id="1519" x2="680.00" x1="750.00" y1="124.50" y2="120.00" /><line style="stroke:blue;fill:blue;" id="1520" x2="820.00" x1="750.00" y1="180.00" y2="180.00" /><line style="stroke:blue;fill:blue;" id="1521" x2="850.00" x1="780.00" y1="480.00" y2="480.00" /><line style="stroke:blue;fill:blue;" id="1522" x2="700.00" x1="780.00" y1="480.00" y2="480.00" /><line style="stroke:blue;fill:blue;" id="1523" x2="900.00" x1="820.00" y1="20.00" y2="20.00" /><line style="stroke:blue;fill:blue;" id="1524" x2="750.00" x1="820.00" y1="20.00" y2="20.00" /><line style="stroke:blue;fill:blue;" id="1525" x2="980.00" x1="820.00" y1="300.00" y2="300.00" /><line style="stroke:blue;fill:blue;" id="1526" x2="720.00" x1="820.00" y1="300.00" y2="300.00" /><line style="stroke:blue;fill:blue;" id="1527" x2="820.00" x1="820.00" y1="120.00" y2="180.00" /><line style="stroke:blue;fill:blue;" id="1528" x2="950.00" x1="820.00" y1="120.00" y2="120.00" /><line style="stroke:blue;fill:blue;" id="1529" x2="820.00" x1="820.00" y1="180.00" y2="250.00" /><line style="stroke:blue;fill:blue;" id="1530" x2="950.00" x1="820.00" y1="180.00" y2="120.00" /><line style="stroke:blue;fill:blue;" id="1531" x2="750.00" x1="820.00" y1="180.00" y2="180.00" /><line style="stroke:blue;fill:blue;" id="1532" x2="820.00" x1="820.00" y1="180.00" y2="120.00" /><line style="stroke:blue;fill:blue;" id="1533" x2="897.68" x1="820.00" y1="180.00" y2="202.32" /><line style="stroke:blue;fill:blue;" id="1534" x2="720.00" x1="820.00" y1="250.00" y2="300.00" /><line style="stroke:blue;fill:blue;" id="1535" x2="950.00" x1="820.00" y1="250.00" y2="250.00" /><line style="stroke:blue;fill:blue;" id="1536" x2="820.00" x1="820.00" y1="250.00" y2="180.00" /><line style="stroke:blue;fill:blue;" id="1537" x2="650.00" x1="850.00" y1="380.00" y2="380.00" /><line style="stroke:blue;fill:blue;" id="1538" x2="900.00" x1="850.00" y1="380.00" y2="375.50" /><line style="stroke:blue;fill:blue;" id="1539" x2="900.00" x1="900.00" y1="480.00" y2="424.50" /><line style="stroke:blue;fill:blue;" id="1540" x2="850.00" x1="900.00" y1="480.00" y2="480.00" /><line style="stroke:blue;fill:blue;" id="1541" x2="900.00" x1="850.00" y1="480.00" y2="480.00" /><line style="stroke:blue;fill:blue;" id="1542" x2="780.00" x1="850.00" y1="480.00" y2="480.00" /><line style="stroke:blue;fill:blue;" id="1543" x2="932.32" x1="897.68" y1="202.32" y2="167.68" /><line style="stroke:blue;fill:blue;" id="1544" x2="950.00" x1="897.68" y1="202.32" y2="250.00" /><line style="stroke:blue;fill:blue;" id="1545" x2="820.00" x1="897.68" y1="202.32" y2="180.00" /><line style="stroke:blue;fill:blue;" id="1546" x2="1000.00" x1="900.00" y1="20.00" y2="20.00" /><line style="stroke:blue;fill:blue;" id="1547" x2="820.00" x1="900.00" y1="20.00" y2="20.00" /><line style="stroke:blue;fill:blue;" id="1548" x2="900.00" x1="900.00" y1="20.00" y2="80.00" /><line style="stroke:blue;fill:blue;" id="1549" x2="900.00" x1="900.00" y1="80.00" y2="20.00" /><line style="stroke:blue;fill:blue;" id="1550" x2="980.00" x1="900.00" y1="80.00" y2="80.00" /><line style="stroke:blue;fill:blue;" id="1551" x2="850.00" x1="900.00" y1="375.50" y2="380.00" /><line style="stroke:blue;fill:blue;" id="1552" x2="980.00" x1="900.00" y1="375.50" y2="424.50" /><line style="stroke:blue;fill:blue;" id="1553" x2="980.00" x1="900.00" y1="375.50" y2="375.50" /><line style="stroke:blue;fill:blue;" id="1554" x2="900.00" x1="900.00" y1="375.50" y2="424.50" /><line style="stroke:blue;fill:blue;" id="1555" x2="900.00" x1="900.00" y1="424.50" y2="375.50" /><line style="stroke:blue;fill:blue;" id="1556" x2="980.00" x1="900.00" y1="424.50" y2="424.50" /><line style="stroke:blue;fill:blue;" id="1557" x2="900.00" x1="900.00" y1="424.50" y2="480.00" /><line style="stroke:blue;fill:blue;" id="1558" x2="950.00" x1="950.00" y1="120.00" y2="250.00" /><line style="stroke:blue;fill:blue;" id="1559" x2="820.00" x1="950.00" y1="120.00" y2="180.00" /><line style="stroke:blue;fill:blue;" id="1560" x2="820.00" x1="950.00" y1="120.00" y2="120.00" /><line style="stroke:blue;fill:blue;" id="1561" x2="820.00" x1="950.00" y1="250.00" y2="250.00" /><line style="stroke:blue;fill:blue;" id="1562" x2="950.00" x1="950.00" y1="250.00" y2="120.00" /><line style="stroke:blue;fill:blue;" id="1563" x2="897.68" x1="950.00" y1="250.00" y2="202.32" /><line style="stroke:blue;fill:blue;" id="1564" x2="900.00" x1="980.00" y1="80.00" y2="80.00" /><line style="stroke:blue;fill:blue;" id="1565" x2="900.00" x1="980.00" y1="375.50" y2="375.50" /><line style="stroke:blue;fill:blue;" id="1566" x2="980.00" x1="980.00" y1="375.50" y2="424.50" /><line style="stroke:blue;fill:blue;" id="1567" x2="900.00" x1="980.00" y1="424.50" y2="375.50" /><line style="stroke:blue;fill:blue;" id="1568" x2="980.00" x1="980.00" y1="424.50" y2="375.50" /><line style="stroke:blue;fill:blue;" id="1569" x2="900.00" x1="980.00" y1="424.50" y2="424.50" /><line style="stroke:blue;fill:blue;" id="1570" x2="100.00" x1="100.00" y1="700.00" y2="650.00" /><line style="stroke:blue;fill:blue;" id="1571" x2="400.00" x1="400.00" y1="700.00" y2="624.50" /><line style="stroke:blue;fill:blue;" id="1572" x2="390.00" x1="390.00" y1="280.00" y2="340.00" /><line style="stroke:blue;fill:blue;" id="1573" x2="500.00" x1="500.00" y1="700.00" y2="624.50" /><line style="stroke:blue;fill:blue;" id="1574" x2="897.68" x1="932.32" y1="167.68" y2="202.32" /><line style="stroke:blue;fill:blue;" id="1575" x2="820.00" x1="980.00" y1="300.00" y2="300.00" /><line style="stroke:blue;fill:blue;" id="1576" x2="900.00" x1="1000.00" y1="20.00" y2="20.00" /></svg>
