<?xml version="1.0" standalone="yes"?><!DOCTYPE svg PUBLIC "-//W3C//DTD SVG 1.1//EN" "http://www.w3.org/Graphics/SVG/1.1/DTD/svg11.dtd"[]><svg height="800.00" id="1037" width="1050.00" xmlns="http://www.w3.org/2000/svg" xmlns:xlink="http://www.w3.org/1999/xlink"><rect Type="system" Region="血脉" height="5.00" y="320.00" Name="XW-JHT" width="5.00" x="40.00" id="1038" ID="30004382" /><text x="40.00" y="320.00" id="1039">XW-JHT</text><rect Type="system" Region="血脉" height="5.00" y="50.00" Name="313I-B" width="5.00" x="50.00" id="1041" ID="30004387" /><text x="50.00" y="50.00" id="1042">313I-B</text><rect Type="system" Region="血脉" height="5.00" y="100.00" Name="Q-4DEC" width="5.00" x="50.00" id="1044" ID="30004389" /><text x="50.00" y="100.00" id="1045">Q-4DEC</text><rect Type="system" Region="血脉" height="5.00" y="500.00" Name="2B7A-3" width="5.00" x="50.00" id="1047" ID="30004394" /><text x="50.00" y="500.00" id="1048">2B7A-3</text><rect Type="system" Region="血脉" height="5.00" y="360.00" Name="C-VGYO" width="5.00" x="80.00" id="1050" ID="30004380" /><text x="80.00" y="360.00" id="1051">C-VGYO</text><rect Type="system" Region="血脉" height="5.00" y="410.00" Name="K-8SQS" width="5.00" x="70.00" id="1053" ID="30004379" /><text x="70.00" y="410.00" id="1054">K-8SQS</text><rect Type="system" Region="血脉" height="5.00" y="600.00" Name="1IX-C0" width="5.00" x="100.00" id="1056" ID="30004393" /><text x="100.00" y="600.00" id="1057">1IX-C0</text><rect Type="system" Region="血脉" height="5.00" y="650.00" Name="Y-1918" width="5.00" x="100.00" id="1059" ID="30004396" /><text x="100.00" y="650.00" id="1060">Y-1918</text><rect Type="system" Region="血脉" height="5.00" y="320.00" Name="O94U-A" width="5.00" x="110.00" id="1062" ID="30004381" /><text x="110.00" y="320.00" id="1063">O94U-A</text><rect Type="system" Region="血脉" height="5.00" y="550.00" Name="W-4FA9" width="5.00" x="100.00" id="1065" ID="30004392" /><text x="100.00" y="550.00" id="1066">W-4FA9</text><rect Type="system" Region="血脉" height="5.00" y="250.00" Name="6-O5GY" width="5.00" x="100.00" id="1068" ID="30004347" /><text x="100.00" y="250.00" id="1069">6-O5GY</text><rect Type="system" Region="血脉" height="5.00" y="80.00" Name="J9-5MQ" width="5.00" x="120.00" id="1071" ID="30004385" /><text x="120.00" y="80.00" id="1072">J9-5MQ</text><rect Type="system" Region="血脉" height="5.00" y="350.00" Name="NEH-CS" width="5.00" x="150.00" id="1074" ID="30004383" /><text x="150.00" y="350.00" id="1075">NEH-CS</text><rect Type="system" Region="血脉" height="5.00" y="400.00" Name="C-4ZOS" width="5.00" x="150.00" id="1077" ID="30004378" /><text x="150.00" y="400.00" id="1078">C-4ZOS</text><rect Type="system" Region="血脉" height="5.00" y="500.00" Name="3F-JZF" width="5.00" x="150.00" id="1080" ID="30004390" /><text x="150.00" y="500.00" id="1081">3F-JZF</text><rect Type="system" Region="血脉" height="5.00" y="580.00" Name="PUWL-4" width="5.00" x="180.00" id="1083" ID="30004395" /><text x="180.00" y="580.00" id="1084">PUWL-4</text><rect Type="system" Region="血脉" height="5.00" y="50.00" Name="D4R-H7" width="5.00" x="200.00" id="1086" ID="30004386" /><text x="200.00" y="50.00" id="1087">D4R-H7</text><rect Type="system" Region="血脉" height="5.00" y="100.00" Name="4DTQ-K" width="5.00" x="200.00" id="1089" ID="30004384" /><text x="200.00" y="100.00" id="1090">4DTQ-K</text><rect Type="system" Region="血脉" height="5.00" y="150.00" Name="B8O-KJ" width="5.00" x="200.00" id="1092" ID="30004346" /><text x="200.00" y="150.00" id="1093">B8O-KJ</text><rect Type="system" Region="血脉" height="5.00" y="200.00" Name="5LJ-MD" width="5.00" x="200.00" id="1095" ID="30004345" /><text x="200.00" y="200.00" id="1096">5LJ-MD</text><rect Type="system" Region="血脉" height="5.00" y="250.00" Name="52G-NZ" width="5.00" x="200.00" id="1098" ID="30004344" /><text x="200.00" y="250.00" id="1099">52G-NZ</text><rect Type="system" Region="血脉" height="5.00" y="500.00" Name="5-0WB9" width="5.00" x="220.00" id="1101" ID="30004391" /><text x="220.00" y="500.00" id="1102">5-0WB9</text><rect Type="system" Region="血脉" height="5.00" y="50.00" Name="EQI2-2" width="5.00" x="250.00" id="1104" ID="30004388" /><text x="250.00" y="50.00" id="1105">EQI2-2</text><rect Type="system" Region="血脉" height="5.00" y="100.00" Name="UB-UQZ" width="5.00" x="280.00" id="1107" ID="30004349" /><text x="280.00" y="100.00" id="1108">UB-UQZ</text><rect Type="system" Region="血脉" height="5.00" y="150.00" Name="XM-4L0" width="5.00" x="280.00" id="1110" ID="30004342" /><text x="280.00" y="150.00" id="1111">XM-4L0</text><rect Type="system" Region="血脉" height="5.00" y="200.00" Name="QCWA-Z" width="5.00" x="280.00" id="1113" ID="30004343" /><text x="280.00" y="200.00" id="1114">QCWA-Z</text><rect Type="system" Region="血脉" height="5.00" y="250.00" Name="KV-8SN" width="5.00" x="280.00" id="1116" ID="30004348" /><text x="280.00" y="250.00" id="1117">KV-8SN</text><rect Type="system" Region="血脉" height="5.00" y="380.00" Name="M-HU4V" width="5.00" x="270.00" id="1119" ID="30004356" /><text x="270.00" y="380.00" id="1120">M-HU4V</text><rect Type="system" Region="血脉" height="5.00" y="450.00" Name="9F-7PZ" width="5.00" x="330.00" id="1122" ID="30004366" /><text x="330.00" y="450.00" id="1123">9F-7PZ</text><rect Type="system" Region="血脉" height="5.00" y="520.00" Name="C-LP3N" width="5.00" x="330.00" id="1125" ID="30004365" /><text x="330.00" y="520.00" id="1126">C-LP3N</text><rect Type="system" Region="血脉" height="5.00" y="575.50" Name="1G-MJE" width="5.00" x="330.00" id="1128" ID="30004367" /><text x="330.00" y="575.50" id="1129">1G-MJE</text><rect Type="system" Region="血脉" height="5.00" y="624.50" Name="WO-AIJ" width="5.00" x="330.00" id="1131" ID="30004368" /><text x="330.00" y="624.50" id="1132">WO-AIJ</text><rect Type="system" Region="血脉" height="5.00" y="330.00" Name="X7R-JW" width="5.00" x="310.00" id="1134" ID="30004355" /><text x="310.00" y="330.00" id="1135">X7R-JW</text><rect Type="system" Region="血脉" height="5.00" y="100.00" Name="YG-82V" width="5.00" x="350.00" id="1137" ID="30004350" /><text x="350.00" y="100.00" id="1138">YG-82V</text><rect Type="system" Region="血脉" height="5.00" y="150.00" Name="Z-K495" width="5.00" x="400.00" id="1140" ID="30004341" /><text x="400.00" y="150.00" id="1141">Z-K495</text><rect Type="system" Region="血脉" height="5.00" y="380.00" Name="QXQ-BA" width="5.00" x="350.00" id="1143" ID="30004354" /><text x="350.00" y="380.00" id="1144">QXQ-BA</text><rect Type="system" Region="血脉" height="5.00" y="20.00" Name="B-GC1T" width="5.00" x="380.00" id="1146" ID="30004328" /><text x="380.00" y="20.00" id="1147">B-GC1T</text><rect Type="system" Region="血脉" height="5.00" y="340.00" Name="T-Q2DD" width="5.00" x="390.00" id="1149" ID="30004352" /><text x="390.00" y="340.00" id="1150">T-Q2DD</text><rect Type="system" Region="血脉" height="5.00" y="420.00" Name="LRWD-B" width="5.00" x="390.00" id="1152" ID="30004353" /><text x="390.00" y="420.00" id="1153">LRWD-B</text><rect Type="system" Region="血脉" height="5.00" y="520.00" Name="LXWN-W" width="5.00" x="400.00" id="1155" ID="30004364" /><text x="400.00" y="520.00" id="1156">LXWN-W</text><rect Type="system" Region="血脉" height="5.00" y="575.50" Name="RO90-H" width="5.00" x="400.00" id="1158" ID="30004370" /><text x="400.00" y="575.50" id="1159">RO90-H</text><rect Type="system" Region="血脉" height="5.00" y="624.50" Name="MA-VDX" width="5.00" x="400.00" id="1161" ID="30004369" /><text x="400.00" y="624.50" id="1162">MA-VDX</text><rect Type="system" Region="血脉" height="5.00" y="380.00" Name="8-4GQM" width="5.00" x="430.00" id="1164" ID="30004351" /><text x="430.00" y="380.00" id="1165">8-4GQM</text><rect Type="system" Region="血脉" height="5.00" y="20.00" Name="O-JPKH" width="5.00" x="450.00" id="1167" ID="30004326" /><text x="450.00" y="20.00" id="1168">O-JPKH</text><rect Type="system" Region="血脉" height="5.00" y="80.00" Name="F-9F6Q" width="5.00" x="450.00" id="1170" ID="30004327" /><text x="450.00" y="80.00" id="1171">F-9F6Q</text><rect Type="system" Region="血脉" height="5.00" y="490.00" Name="KJ-QWL" width="5.00" x="500.00" id="1173" ID="30004376" /><text x="500.00" y="490.00" id="1174">KJ-QWL</text><rect Type="system" Region="血脉" height="5.00" y="575.50" Name="9-B1DS" width="5.00" x="500.00" id="1176" ID="30004397" /><text x="500.00" y="575.50" id="1177">9-B1DS</text><rect Type="system" Region="血脉" height="5.00" y="624.50" Name="CH9L-K" width="5.00" x="500.00" id="1179" ID="30004401" /><text x="500.00" y="624.50" id="1180">CH9L-K</text><rect Type="system" Region="血脉" height="5.00" y="20.00" Name="HB7R-F" width="5.00" x="520.00" id="1182" ID="30004325" /><text x="520.00" y="20.00" id="1183">HB7R-F</text><rect Type="system" Region="血脉" height="5.00" y="80.00" Name="JTAU-5" width="5.00" x="520.00" id="1185" ID="30004324" /><text x="520.00" y="80.00" id="1186">JTAU-5</text><rect Type="system" Region="血脉" height="5.00" y="170.00" Name="0P9Z-I" width="5.00" x="480.00" id="1188" ID="30004322" /><text x="480.00" y="170.00" id="1189">0P9Z-I</text><rect Type="system" Region="血脉" height="5.00" y="487.96" Name="KMQ4-V" width="5.00" x="558.91" id="1191" ID="30004375" /><text x="558.91" y="487.96" id="1192">KMQ4-V</text><rect Type="system" Region="血脉" height="5.00" y="439.79" Name="SVB-RE" width="5.00" x="549.96" id="1194" ID="30004377" /><text x="549.96" y="439.79" id="1195">SVB-RE</text><rect Type="system" Region="血脉" height="5.00" y="531.63" Name="3KNA-N" width="5.00" x="581.14" id="1197" ID="30004403" /><text x="581.14" y="531.63" id="1198">3KNA-N</text><rect Type="system" Region="血脉" height="5.00" y="580.62" Name="ME-4IU" width="5.00" x="579.99" id="1200" ID="30004398" /><text x="579.99" y="580.62" id="1201">ME-4IU</text><rect Type="system" Region="血脉" height="5.00" y="630.00" Name="I-7JR4" width="5.00" x="580.00" id="1203" ID="30004400" /><text x="580.00" y="630.00" id="1204">I-7JR4</text><rect Type="system" Region="血脉" height="5.00" y="300.00" Name="S-B7IT" width="5.00" x="580.00" id="1206" ID="30004332" /><text x="580.00" y="300.00" id="1207">S-B7IT</text><rect Type="system" Region="血脉" height="5.00" y="380.00" Name="BKG-Q2" width="5.00" x="550.00" id="1209" ID="30004333" /><text x="550.00" y="380.00" id="1210">BKG-Q2</text><rect Type="system" Region="血脉" height="5.00" y="180.00" Name="Q-FEEJ" width="5.00" x="600.00" id="1212" ID="30004321" /><text x="600.00" y="180.00" id="1213">Q-FEEJ</text><rect Type="system" Region="血脉" height="5.00" y="50.00" Name="AH-B84" width="5.00" x="600.00" id="1215" ID="30004323" /><text x="600.00" y="50.00" id="1216">AH-B84</text><rect Type="system" Region="血脉" height="5.00" y="480.00" Name="5-P1Y2" width="5.00" x="620.00" id="1218" ID="30004374" /><text x="620.00" y="480.00" id="1219">5-P1Y2</text><rect Type="system" Region="血脉" height="5.00" y="575.50" Name="BU-IU4" width="5.00" x="650.00" id="1221" ID="30004399" /><text x="650.00" y="575.50" id="1222">BU-IU4</text><rect Type="system" Region="血脉" height="5.00" y="624.50" Name="QYZM-W" width="5.00" x="650.00" id="1224" ID="30004402" /><text x="650.00" y="624.50" id="1225">QYZM-W</text><rect Type="system" Region="血脉" height="5.00" y="300.00" Name="JRZ-B9" width="5.00" x="650.00" id="1227" ID="30004330" /><text x="650.00" y="300.00" id="1228">JRZ-B9</text><rect Type="system" Region="血脉" height="5.00" y="380.00" Name="X4UV-Z" width="5.00" x="650.00" id="1230" ID="30004331" /><text x="650.00" y="380.00" id="1231">X4UV-Z</text><rect Type="system" Region="血脉" height="5.00" y="120.00" Name="4-48K1" width="5.00" x="680.00" id="1233" ID="30004317" /><text x="680.00" y="120.00" id="1234">4-48K1</text><rect Type="system" Region="血脉" height="5.00" y="175.28" Name="NTV0-1" width="5.00" x="680.00" id="1236" ID="30004318" /><text x="680.00" y="175.28" id="1237">NTV0-1</text><rect Type="system" Region="血脉" height="5.00" y="224.27" Name="C-HCGU" width="5.00" x="679.29" id="1239" ID="30004319" /><text x="679.29" y="224.27" id="1240">C-HCGU</text><rect Type="system" Region="血脉" height="5.00" y="480.00" Name="J52-BH" width="5.00" x="700.00" id="1242" ID="30004373" /><text x="700.00" y="480.00" id="1243">J52-BH</text><rect Type="system" Region="血脉" height="5.00" y="250.45" Name="XW-2XP" width="5.00" x="720.71" id="1245" ID="30004320" /><text x="720.71" y="250.45" id="1246">XW-2XP</text><rect Type="system" Region="血脉" height="5.00" y="300.00" Name="V8W-QS" width="5.00" x="720.00" id="1248" ID="30004329" /><text x="720.00" y="300.00" id="1249">V8W-QS</text><rect Type="system" Region="血脉" height="5.00" y="20.00" Name="J7YR-1" width="5.00" x="750.00" id="1251" ID="30004312" /><text x="750.00" y="20.00" id="1252">J7YR-1</text><rect Type="system" Region="血脉" height="5.00" y="75.50" Name="PKG4-7" width="5.00" x="750.00" id="1254" ID="30004313" /><text x="750.00" y="75.50" id="1255">PKG4-7</text><rect Type="system" Region="血脉" height="5.00" y="124.50" Name="EWN-2U" width="5.00" x="750.00" id="1257" ID="30004314" /><text x="750.00" y="124.50" id="1258">EWN-2U</text><rect Type="system" Region="血脉" height="5.00" y="180.00" Name="I-7RIS" width="5.00" x="750.00" id="1260" ID="30004361" /><text x="750.00" y="180.00" id="1261">I-7RIS</text><rect Type="system" Region="血脉" height="5.00" y="480.00" Name="C-LBQS" width="5.00" x="780.00" id="1263" ID="30004372" /><text x="780.00" y="480.00" id="1264">C-LBQS</text><rect Type="system" Region="血脉" height="5.00" y="20.00" Name="DCI7-7" width="5.00" x="820.00" id="1266" ID="30004311" /><text x="820.00" y="20.00" id="1267">DCI7-7</text><rect Type="system" Region="血脉" height="5.00" y="300.00" Name="OJ-A8M" width="5.00" x="820.00" id="1269" ID="30004334" /><text x="820.00" y="300.00" id="1270">OJ-A8M</text><rect Type="system" Region="血脉" height="5.00" y="120.00" Name="P7Z-R3" width="5.00" x="820.00" id="1272" ID="30004362" /><text x="820.00" y="120.00" id="1273">P7Z-R3</text><rect Type="system" Region="血脉" height="5.00" y="180.00" Name="A-G1FM" width="5.00" x="820.00" id="1275" ID="30004359" /><text x="820.00" y="180.00" id="1276">A-G1FM</text><rect Type="system" Region="血脉" height="5.00" y="250.00" Name="CS-ZGD" width="5.00" x="820.00" id="1278" ID="30004357" /><text x="820.00" y="250.00" id="1279">CS-ZGD</text><rect Type="system" Region="血脉" height="5.00" y="380.00" Name="CX-1XF" width="5.00" x="850.00" id="1281" ID="30004335" /><text x="850.00" y="380.00" id="1282">CX-1XF</text><rect Type="system" Region="血脉" height="5.00" y="480.00" Name="KL3O-J" width="5.00" x="900.00" id="1284" ID="30004340" /><text x="900.00" y="480.00" id="1285">KL3O-J</text><rect Type="system" Region="血脉" height="5.00" y="480.00" Name="BWI1-9" width="5.00" x="850.00" id="1287" ID="30004371" /><text x="850.00" y="480.00" id="1288">BWI1-9</text><rect Type="system" Region="血脉" height="5.00" y="202.32" Name="ZIU-EP" width="5.00" x="897.68" id="1290" ID="30004363" /><text x="897.68" y="202.32" id="1291">ZIU-EP</text><rect Type="system" Region="血脉" height="5.00" y="20.00" Name="UQ9-3C" width="5.00" x="900.00" id="1293" ID="30004310" /><text x="900.00" y="20.00" id="1294">UQ9-3C</text><rect Type="system" Region="血脉" height="5.00" y="80.00" Name="VL3I-M" width="5.00" x="900.00" id="1296" ID="30004315" /><text x="900.00" y="80.00" id="1297">VL3I-M</text><rect Type="system" Region="血脉" height="5.00" y="375.50" Name="3-TD6L" width="5.00" x="900.00" id="1299" ID="30004336" /><text x="900.00" y="375.50" id="1300">3-TD6L</text><rect Type="system" Region="血脉" height="5.00" y="424.50" Name="R4O-I6" width="5.00" x="900.00" id="1302" ID="30004339" /><text x="900.00" y="424.50" id="1303">R4O-I6</text><rect Type="system" Region="血脉" height="5.00" y="120.00" Name="4-BE0M" width="5.00" x="950.00" id="1305" ID="30004360" /><text x="950.00" y="120.00" id="1306">4-BE0M</text><rect Type="system" Region="血脉" height="5.00" y="250.00" Name="3-N3OO" width="5.00" x="950.00" id="1308" ID="30004358" /><text x="950.00" y="250.00" id="1309">3-N3OO</text><rect Type="system" Region="血脉" height="5.00" y="80.00" Name="KMC-WI" width="5.00" x="980.00" id="1311" ID="30004316" /><text x="980.00" y="80.00" id="1312">KMC-WI</text><rect Type="system" Region="血脉" height="5.00" y="375.50" Name="NLPB-0" width="5.00" x="980.00" id="1314" ID="30004338" /><text x="980.00" y="375.50" id="1315">NLPB-0</text><rect Type="system" Region="血脉" height="5.00" y="424.50" Name="Q-NJZ4" width="5.00" x="980.00" id="1317" ID="30004337" /><text x="980.00" y="424.50" id="1318">Q-NJZ4</text><rect Type="system" Region="德克廉" height="5.00" y="700.00" Name="UJY-HE" width="5.00" x="100.00" id="1320" ID="30002955" /><text x="100.00" y="700.00" id="1321">UJY-HE</text><rect Type="system" Region="维纳尔" height="5.00" y="700.00" Name="92D-OI" width="5.00" x="400.00" id="1323" ID="30001312" /><text x="400.00" y="700.00" id="1324">92D-OI</text><rect Type="system" Region="特纳" height="5.00" y="280.00" Name="ZXA-V6" width="5.00" x="390.00" id="1326" ID="30003620" /><text x="390.00" y="280.00" id="1327">ZXA-V6</text><rect Type="system" Region="特纳" height="5.00" y="700.00" Name="Q1U-IU" width="5.00" x="500.00" id="1329" ID="30003669" /><text x="500.00" y="700.00" id="1330">Q1U-IU</text><rect Type="system" Region="特纳" height="5.00" y="167.68" Name="2-3Q2G" width="5.00" x="932.32" id="1332" ID="30003668" /><text x="932.32" y="167.68" id="1333">2-3Q2G</text><rect Type="system" Region="特纳" height="5.00" y="300.00" Name="H1-ESN" width="5.00" x="980.00" id="1335" ID="30003608" /><text x="980.00" y="300.00" id="1336">H1-ESN</text><rect Type="system" Region="维纳尔" height="5.00" y="20.00" Name="9IPC-E" width="5.00" x="1000.00" id="1338" ID="30001306" /><text x="1000.00" y="20.00" id="1339">9IPC-E</text><line x2="80.00" style="fill:blue;stroke:blue;" y1="320.00" x1="40.00" id="1341" y2="360.00" /><line x2="120.00" style="fill:blue;stroke:blue;" y1="50.00" x1="50.00" id="1342" y2="80.00" /><line x2="120.00" style="fill:blue;stroke:blue;" y1="100.00" x1="50.00" id="1343" y2="80.00" /><line x2="150.00" style="fill:blue;stroke:blue;" y1="500.00" x1="50.00" id="1344" y2="500.00" /><line x2="70.00" style="fill:blue;stroke:blue;" y1="360.00" x1="80.00" id="1345" y2="410.00" /><line x2="110.00" style="fill:blue;stroke:blue;" y1="360.00" x1="80.00" id="1346" y2="320.00" /><line x2="40.00" style="fill:blue;stroke:blue;" y1="360.00" x1="80.00" id="1347" y2="320.00" /><line x2="150.00" style="fill:blue;stroke:blue;" y1="410.00" x1="70.00" id="1348" y2="400.00" /><line x2="80.00" style="fill:blue;stroke:blue;" y1="410.00" x1="70.00" id="1349" y2="360.00" /><line x2="100.00" style="fill:blue;stroke:blue;" y1="600.00" x1="100.00" id="1350" y2="550.00" /><line x2="100.00" style="fill:blue;stroke:blue;" y1="600.00" x1="100.00" id="1351" y2="650.00" /><line x2="100.00" style="fill:blue;stroke:blue;" y1="650.00" x1="100.00" id="1352" y2="700.00" /><line x2="100.00" style="fill:blue;stroke:blue;" y1="650.00" x1="100.00" id="1353" y2="600.00" /><line x2="80.00" style="fill:blue;stroke:blue;" y1="320.00" x1="110.00" id="1354" y2="360.00" /><line x2="150.00" style="fill:blue;stroke:blue;" y1="550.00" x1="100.00" id="1355" y2="500.00" /><line x2="100.00" style="fill:blue;stroke:blue;" y1="550.00" x1="100.00" id="1356" y2="600.00" /><line x2="180.00" style="fill:blue;stroke:blue;" y1="550.00" x1="100.00" id="1357" y2="580.00" /><line x2="200.00" style="fill:blue;stroke:blue;" y1="250.00" x1="100.00" id="1358" y2="250.00" /><line x2="200.00" style="fill:blue;stroke:blue;" y1="80.00" x1="120.00" id="1359" y2="100.00" /><line x2="200.00" style="fill:blue;stroke:blue;" y1="80.00" x1="120.00" id="1360" y2="50.00" /><line x2="50.00" style="fill:blue;stroke:blue;" y1="80.00" x1="120.00" id="1361" y2="50.00" /><line x2="50.00" style="fill:blue;stroke:blue;" y1="80.00" x1="120.00" id="1362" y2="100.00" /><line x2="150.00" style="fill:blue;stroke:blue;" y1="350.00" x1="150.00" id="1363" y2="400.00" /><line x2="270.00" style="fill:blue;stroke:blue;" y1="400.00" x1="150.00" id="1364" y2="380.00" /><line x2="70.00" style="fill:blue;stroke:blue;" y1="400.00" x1="150.00" id="1365" y2="410.00" /><line x2="150.00" style="fill:blue;stroke:blue;" y1="400.00" x1="150.00" id="1366" y2="350.00" /><line x2="150.00" style="fill:blue;stroke:blue;" y1="400.00" x1="150.00" id="1367" y2="500.00" /><line x2="150.00" style="fill:blue;stroke:blue;" y1="500.00" x1="150.00" id="1368" y2="400.00" /><line x2="220.00" style="fill:blue;stroke:blue;" y1="500.00" x1="150.00" id="1369" y2="500.00" /><line x2="100.00" style="fill:blue;stroke:blue;" y1="500.00" x1="150.00" id="1370" y2="550.00" /><line x2="50.00" style="fill:blue;stroke:blue;" y1="500.00" x1="150.00" id="1371" y2="500.00" /><line x2="100.00" style="fill:blue;stroke:blue;" y1="580.00" x1="180.00" id="1372" y2="550.00" /><line x2="120.00" style="fill:blue;stroke:blue;" y1="50.00" x1="200.00" id="1373" y2="80.00" /><line x2="250.00" style="fill:blue;stroke:blue;" y1="50.00" x1="200.00" id="1374" y2="50.00" /><line x2="200.00" style="fill:blue;stroke:blue;" y1="100.00" x1="200.00" id="1375" y2="150.00" /><line x2="120.00" style="fill:blue;stroke:blue;" y1="100.00" x1="200.00" id="1376" y2="80.00" /><line x2="250.00" style="fill:blue;stroke:blue;" y1="100.00" x1="200.00" id="1377" y2="50.00" /><line x2="280.00" style="fill:blue;stroke:blue;" y1="150.00" x1="200.00" id="1378" y2="150.00" /><line x2="200.00" style="fill:blue;stroke:blue;" y1="150.00" x1="200.00" id="1379" y2="200.00" /><line x2="280.00" style="fill:blue;stroke:blue;" y1="150.00" x1="200.00" id="1380" y2="100.00" /><line x2="200.00" style="fill:blue;stroke:blue;" y1="150.00" x1="200.00" id="1381" y2="100.00" /><line x2="280.00" style="fill:blue;stroke:blue;" y1="200.00" x1="200.00" id="1382" y2="200.00" /><line x2="200.00" style="fill:blue;stroke:blue;" y1="200.00" x1="200.00" id="1383" y2="250.00" /><line x2="200.00" style="fill:blue;stroke:blue;" y1="200.00" x1="200.00" id="1384" y2="150.00" /><line x2="280.00" style="fill:blue;stroke:blue;" y1="250.00" x1="200.00" id="1385" y2="200.00" /><line x2="200.00" style="fill:blue;stroke:blue;" y1="250.00" x1="200.00" id="1386" y2="200.00" /><line x2="100.00" style="fill:blue;stroke:blue;" y1="250.00" x1="200.00" id="1387" y2="250.00" /><line x2="280.00" style="fill:blue;stroke:blue;" y1="250.00" x1="200.00" id="1388" y2="250.00" /><line x2="150.00" style="fill:blue;stroke:blue;" y1="500.00" x1="220.00" id="1389" y2="500.00" /><line x2="200.00" style="fill:blue;stroke:blue;" y1="50.00" x1="250.00" id="1390" y2="100.00" /><line x2="200.00" style="fill:blue;stroke:blue;" y1="50.00" x1="250.00" id="1391" y2="50.00" /><line x2="280.00" style="fill:blue;stroke:blue;" y1="100.00" x1="280.00" id="1392" y2="150.00" /><line x2="200.00" style="fill:blue;stroke:blue;" y1="100.00" x1="280.00" id="1393" y2="150.00" /><line x2="350.00" style="fill:blue;stroke:blue;" y1="100.00" x1="280.00" id="1394" y2="100.00" /><line x2="400.00" style="fill:blue;stroke:blue;" y1="150.00" x1="280.00" id="1395" y2="150.00" /><line x2="280.00" style="fill:blue;stroke:blue;" y1="150.00" x1="280.00" id="1396" y2="200.00" /><line x2="200.00" style="fill:blue;stroke:blue;" y1="150.00" x1="280.00" id="1397" y2="150.00" /><line x2="280.00" style="fill:blue;stroke:blue;" y1="150.00" x1="280.00" id="1398" y2="100.00" /><line x2="280.00" style="fill:blue;stroke:blue;" y1="200.00" x1="280.00" id="1399" y2="150.00" /><line x2="200.00" style="fill:blue;stroke:blue;" y1="200.00" x1="280.00" id="1400" y2="250.00" /><line x2="200.00" style="fill:blue;stroke:blue;" y1="200.00" x1="280.00" id="1401" y2="200.00" /><line x2="280.00" style="fill:blue;stroke:blue;" y1="200.00" x1="280.00" id="1402" y2="250.00" /><line x2="280.00" style="fill:blue;stroke:blue;" y1="250.00" x1="280.00" id="1403" y2="200.00" /><line x2="200.00" style="fill:blue;stroke:blue;" y1="250.00" x1="280.00" id="1404" y2="250.00" /><line x2="350.00" style="fill:blue;stroke:blue;" y1="380.00" x1="270.00" id="1405" y2="380.00" /><line x2="310.00" style="fill:blue;stroke:blue;" y1="380.00" x1="270.00" id="1406" y2="330.00" /><line x2="150.00" style="fill:blue;stroke:blue;" y1="380.00" x1="270.00" id="1407" y2="400.00" /><line x2="330.00" style="fill:blue;stroke:blue;" y1="450.00" x1="330.00" id="1408" y2="520.00" /><line x2="400.00" style="fill:blue;stroke:blue;" y1="520.00" x1="330.00" id="1409" y2="520.00" /><line x2="330.00" style="fill:blue;stroke:blue;" y1="520.00" x1="330.00" id="1410" y2="450.00" /><line x2="330.00" style="fill:blue;stroke:blue;" y1="520.00" x1="330.00" id="1411" y2="575.50" /><line x2="330.00" style="fill:blue;stroke:blue;" y1="575.50" x1="330.00" id="1412" y2="520.00" /><line x2="330.00" style="fill:blue;stroke:blue;" y1="575.50" x1="330.00" id="1413" y2="624.50" /><line x2="400.00" style="fill:blue;stroke:blue;" y1="575.50" x1="330.00" id="1414" y2="575.50" /><line x2="330.00" style="fill:blue;stroke:blue;" y1="624.50" x1="330.00" id="1415" y2="575.50" /><line x2="400.00" style="fill:blue;stroke:blue;" y1="624.50" x1="330.00" id="1416" y2="624.50" /><line x2="350.00" style="fill:blue;stroke:blue;" y1="330.00" x1="310.00" id="1417" y2="380.00" /><line x2="270.00" style="fill:blue;stroke:blue;" y1="330.00" x1="310.00" id="1418" y2="380.00" /><line x2="280.00" style="fill:blue;stroke:blue;" y1="100.00" x1="350.00" id="1419" y2="100.00" /><line x2="480.00" style="fill:blue;stroke:blue;" y1="150.00" x1="400.00" id="1420" y2="170.00" /><line x2="550.00" style="fill:blue;stroke:blue;" y1="150.00" x1="400.00" id="1421" y2="380.00" /><line x2="280.00" style="fill:blue;stroke:blue;" y1="150.00" x1="400.00" id="1422" y2="150.00" /><line x2="390.00" style="fill:blue;stroke:blue;" y1="380.00" x1="350.00" id="1423" y2="340.00" /><line x2="390.00" style="fill:blue;stroke:blue;" y1="380.00" x1="350.00" id="1424" y2="420.00" /><line x2="310.00" style="fill:blue;stroke:blue;" y1="380.00" x1="350.00" id="1425" y2="330.00" /><line x2="270.00" style="fill:blue;stroke:blue;" y1="380.00" x1="350.00" id="1426" y2="380.00" /><line x2="450.00" style="fill:blue;stroke:blue;" y1="20.00" x1="380.00" id="1427" y2="20.00" /><line x2="390.00" style="fill:blue;stroke:blue;" y1="340.00" x1="390.00" id="1428" y2="280.00" /><line x2="430.00" style="fill:blue;stroke:blue;" y1="340.00" x1="390.00" id="1429" y2="380.00" /><line x2="350.00" style="fill:blue;stroke:blue;" y1="340.00" x1="390.00" id="1430" y2="380.00" /><line x2="430.00" style="fill:blue;stroke:blue;" y1="420.00" x1="390.00" id="1431" y2="380.00" /><line x2="350.00" style="fill:blue;stroke:blue;" y1="420.00" x1="390.00" id="1432" y2="380.00" /><line x2="550.00" style="fill:blue;stroke:blue;" y1="520.00" x1="400.00" id="1433" y2="380.00" /><line x2="330.00" style="fill:blue;stroke:blue;" y1="520.00" x1="400.00" id="1434" y2="520.00" /><line x2="400.00" style="fill:blue;stroke:blue;" y1="520.00" x1="400.00" id="1435" y2="575.50" /><line x2="400.00" style="fill:blue;stroke:blue;" y1="575.50" x1="400.00" id="1436" y2="520.00" /><line x2="330.00" style="fill:blue;stroke:blue;" y1="575.50" x1="400.00" id="1437" y2="575.50" /><line x2="400.00" style="fill:blue;stroke:blue;" y1="575.50" x1="400.00" id="1438" y2="624.50" /><line x2="400.00" style="fill:blue;stroke:blue;" y1="624.50" x1="400.00" id="1439" y2="700.00" /><line x2="330.00" style="fill:blue;stroke:blue;" y1="624.50" x1="400.00" id="1440" y2="624.50" /><line x2="400.00" style="fill:blue;stroke:blue;" y1="624.50" x1="400.00" id="1441" y2="575.50" /><line x2="550.00" style="fill:blue;stroke:blue;" y1="380.00" x1="430.00" id="1442" y2="380.00" /><line x2="390.00" style="fill:blue;stroke:blue;" y1="380.00" x1="430.00" id="1443" y2="340.00" /><line x2="390.00" style="fill:blue;stroke:blue;" y1="380.00" x1="430.00" id="1444" y2="420.00" /><line x2="520.00" style="fill:blue;stroke:blue;" y1="20.00" x1="450.00" id="1445" y2="20.00" /><line x2="380.00" style="fill:blue;stroke:blue;" y1="20.00" x1="450.00" id="1446" y2="20.00" /><line x2="520.00" style="fill:blue;stroke:blue;" y1="80.00" x1="450.00" id="1447" y2="80.00" /><line x2="558.91" style="fill:blue;stroke:blue;" y1="490.00" x1="500.00" id="1448" y2="487.96" /><line x2="549.96" style="fill:blue;stroke:blue;" y1="490.00" x1="500.00" id="1449" y2="439.79" /><line x2="500.00" style="fill:blue;stroke:blue;" y1="490.00" x1="500.00" id="1450" y2="575.50" /><line x2="500.00" style="fill:blue;stroke:blue;" y1="575.50" x1="500.00" id="1451" y2="490.00" /><line x2="579.99" style="fill:blue;stroke:blue;" y1="575.50" x1="500.00" id="1452" y2="580.62" /><line x2="500.00" style="fill:blue;stroke:blue;" y1="575.50" x1="500.00" id="1453" y2="624.50" /><line x2="500.00" style="fill:blue;stroke:blue;" y1="624.50" x1="500.00" id="1454" y2="700.00" /><line x2="500.00" style="fill:blue;stroke:blue;" y1="624.50" x1="500.00" id="1455" y2="575.50" /><line x2="580.00" style="fill:blue;stroke:blue;" y1="624.50" x1="500.00" id="1456" y2="630.00" /><line x2="600.00" style="fill:blue;stroke:blue;" y1="20.00" x1="520.00" id="1457" y2="50.00" /><line x2="450.00" style="fill:blue;stroke:blue;" y1="20.00" x1="520.00" id="1458" y2="20.00" /><line x2="600.00" style="fill:blue;stroke:blue;" y1="80.00" x1="520.00" id="1459" y2="50.00" /><line x2="450.00" style="fill:blue;stroke:blue;" y1="80.00" x1="520.00" id="1460" y2="80.00" /><line x2="600.00" style="fill:blue;stroke:blue;" y1="170.00" x1="480.00" id="1461" y2="180.00" /><line x2="400.00" style="fill:blue;stroke:blue;" y1="170.00" x1="480.00" id="1462" y2="150.00" /><line x2="620.00" style="fill:blue;stroke:blue;" y1="487.96" x1="558.91" id="1463" y2="480.00" /><line x2="500.00" style="fill:blue;stroke:blue;" y1="487.96" x1="558.91" id="1464" y2="490.00" /><line x2="500.00" style="fill:blue;stroke:blue;" y1="439.79" x1="549.96" id="1465" y2="490.00" /><line x2="579.99" style="fill:blue;stroke:blue;" y1="531.63" x1="581.14" id="1466" y2="580.62" /><line x2="500.00" style="fill:blue;stroke:blue;" y1="580.62" x1="579.99" id="1467" y2="575.50" /><line x2="650.00" style="fill:blue;stroke:blue;" y1="580.62" x1="579.99" id="1468" y2="575.50" /><line x2="580.00" style="fill:blue;stroke:blue;" y1="580.62" x1="579.99" id="1469" y2="630.00" /><line x2="581.14" style="fill:blue;stroke:blue;" y1="580.62" x1="579.99" id="1470" y2="531.63" /><line x2="579.99" style="fill:blue;stroke:blue;" y1="630.00" x1="580.00" id="1471" y2="580.62" /><line x2="500.00" style="fill:blue;stroke:blue;" y1="630.00" x1="580.00" id="1472" y2="624.50" /><line x2="650.00" style="fill:blue;stroke:blue;" y1="630.00" x1="580.00" id="1473" y2="624.50" /><line x2="650.00" style="fill:blue;stroke:blue;" y1="300.00" x1="580.00" id="1474" y2="300.00" /><line x2="550.00" style="fill:blue;stroke:blue;" y1="300.00" x1="580.00" id="1475" y2="380.00" /><line x2="650.00" style="fill:blue;stroke:blue;" y1="380.00" x1="550.00" id="1476" y2="380.00" /><line x2="580.00" style="fill:blue;stroke:blue;" y1="380.00" x1="550.00" id="1477" y2="300.00" /><line x2="400.00" style="fill:blue;stroke:blue;" y1="380.00" x1="550.00" id="1478" y2="150.00" /><line x2="430.00" style="fill:blue;stroke:blue;" y1="380.00" x1="550.00" id="1479" y2="380.00" /><line x2="400.00" style="fill:blue;stroke:blue;" y1="380.00" x1="550.00" id="1480" y2="520.00" /><line x2="679.29" style="fill:blue;stroke:blue;" y1="180.00" x1="600.00" id="1481" y2="224.27" /><line x2="480.00" style="fill:blue;stroke:blue;" y1="180.00" x1="600.00" id="1482" y2="170.00" /><line x2="750.00" style="fill:blue;stroke:blue;" y1="50.00" x1="600.00" id="1483" y2="20.00" /><line x2="520.00" style="fill:blue;stroke:blue;" y1="50.00" x1="600.00" id="1484" y2="80.00" /><line x2="520.00" style="fill:blue;stroke:blue;" y1="50.00" x1="600.00" id="1485" y2="20.00" /><line x2="700.00" style="fill:blue;stroke:blue;" y1="480.00" x1="620.00" id="1486" y2="480.00" /><line x2="558.91" style="fill:blue;stroke:blue;" y1="480.00" x1="620.00" id="1487" y2="487.96" /><line x2="579.99" style="fill:blue;stroke:blue;" y1="575.50" x1="650.00" id="1488" y2="580.62" /><line x2="650.00" style="fill:blue;stroke:blue;" y1="575.50" x1="650.00" id="1489" y2="624.50" /><line x2="650.00" style="fill:blue;stroke:blue;" y1="624.50" x1="650.00" id="1490" y2="575.50" /><line x2="580.00" style="fill:blue;stroke:blue;" y1="624.50" x1="650.00" id="1491" y2="630.00" /><line x2="720.00" style="fill:blue;stroke:blue;" y1="300.00" x1="650.00" id="1492" y2="300.00" /><line x2="650.00" style="fill:blue;stroke:blue;" y1="300.00" x1="650.00" id="1493" y2="380.00" /><line x2="580.00" style="fill:blue;stroke:blue;" y1="300.00" x1="650.00" id="1494" y2="300.00" /><line x2="650.00" style="fill:blue;stroke:blue;" y1="380.00" x1="650.00" id="1495" y2="300.00" /><line x2="550.00" style="fill:blue;stroke:blue;" y1="380.00" x1="650.00" id="1496" y2="380.00" /><line x2="850.00" style="fill:blue;stroke:blue;" y1="380.00" x1="650.00" id="1497" y2="380.00" /><line x2="750.00" style="fill:blue;stroke:blue;" y1="120.00" x1="680.00" id="1498" y2="124.50" /><line x2="680.00" style="fill:blue;stroke:blue;" y1="120.00" x1="680.00" id="1499" y2="175.28" /><line x2="680.00" style="fill:blue;stroke:blue;" y1="175.28" x1="680.00" id="1500" y2="120.00" /><line x2="679.29" style="fill:blue;stroke:blue;" y1="175.28" x1="680.00" id="1501" y2="224.27" /><line x2="680.00" style="fill:blue;stroke:blue;" y1="224.27" x1="679.29" id="1502" y2="175.28" /><line x2="720.71" style="fill:blue;stroke:blue;" y1="224.27" x1="679.29" id="1503" y2="250.45" /><line x2="600.00" style="fill:blue;stroke:blue;" y1="224.27" x1="679.29" id="1504" y2="180.00" /><line x2="780.00" style="fill:blue;stroke:blue;" y1="480.00" x1="700.00" id="1505" y2="480.00" /><line x2="620.00" style="fill:blue;stroke:blue;" y1="480.00" x1="700.00" id="1506" y2="480.00" /><line x2="679.29" style="fill:blue;stroke:blue;" y1="250.45" x1="720.71" id="1507" y2="224.27" /><line x2="720.00" style="fill:blue;stroke:blue;" y1="250.45" x1="720.71" id="1508" y2="300.00" /><line x2="720.71" style="fill:blue;stroke:blue;" y1="300.00" x1="720.00" id="1509" y2="250.45" /><line x2="650.00" style="fill:blue;stroke:blue;" y1="300.00" x1="720.00" id="1510" y2="300.00" /><line x2="820.00" style="fill:blue;stroke:blue;" y1="300.00" x1="720.00" id="1511" y2="300.00" /><line x2="820.00" style="fill:blue;stroke:blue;" y1="300.00" x1="720.00" id="1512" y2="250.00" /><line x2="820.00" style="fill:blue;stroke:blue;" y1="20.00" x1="750.00" id="1513" y2="20.00" /><line x2="750.00" style="fill:blue;stroke:blue;" y1="20.00" x1="750.00" id="1514" y2="75.50" /><line x2="600.00" style="fill:blue;stroke:blue;" y1="20.00" x1="750.00" id="1515" y2="50.00" /><line x2="750.00" style="fill:blue;stroke:blue;" y1="75.50" x1="750.00" id="1516" y2="20.00" /><line x2="750.00" style="fill:blue;stroke:blue;" y1="75.50" x1="750.00" id="1517" y2="124.50" /><line x2="750.00" style="fill:blue;stroke:blue;" y1="124.50" x1="750.00" id="1518" y2="75.50" /><line x2="680.00" style="fill:blue;stroke:blue;" y1="124.50" x1="750.00" id="1519" y2="120.00" /><line x2="820.00" style="fill:blue;stroke:blue;" y1="180.00" x1="750.00" id="1520" y2="180.00" /><line x2="850.00" style="fill:blue;stroke:blue;" y1="480.00" x1="780.00" id="1521" y2="480.00" /><line x2="700.00" style="fill:blue;stroke:blue;" y1="480.00" x1="780.00" id="1522" y2="480.00" /><line x2="900.00" style="fill:blue;stroke:blue;" y1="20.00" x1="820.00" id="1523" y2="20.00" /><line x2="750.00" style="fill:blue;stroke:blue;" y1="20.00" x1="820.00" id="1524" y2="20.00" /><line x2="980.00" style="fill:blue;stroke:blue;" y1="300.00" x1="820.00" id="1525" y2="300.00" /><line x2="720.00" style="fill:blue;stroke:blue;" y1="300.00" x1="820.00" id="1526" y2="300.00" /><line x2="820.00" style="fill:blue;stroke:blue;" y1="120.00" x1="820.00" id="1527" y2="180.00" /><line x2="950.00" style="fill:blue;stroke:blue;" y1="120.00" x1="820.00" id="1528" y2="120.00" /><line x2="820.00" style="fill:blue;stroke:blue;" y1="180.00" x1="820.00" id="1529" y2="250.00" /><line x2="950.00" style="fill:blue;stroke:blue;" y1="180.00" x1="820.00" id="1530" y2="120.00" /><line x2="750.00" style="fill:blue;stroke:blue;" y1="180.00" x1="820.00" id="1531" y2="180.00" /><line x2="820.00" style="fill:blue;stroke:blue;" y1="180.00" x1="820.00" id="1532" y2="120.00" /><line x2="897.68" style="fill:blue;stroke:blue;" y1="180.00" x1="820.00" id="1533" y2="202.32" /><line x2="720.00" style="fill:blue;stroke:blue;" y1="250.00" x1="820.00" id="1534" y2="300.00" /><line x2="950.00" style="fill:blue;stroke:blue;" y1="250.00" x1="820.00" id="1535" y2="250.00" /><line x2="820.00" style="fill:blue;stroke:blue;" y1="250.00" x1="820.00" id="1536" y2="180.00" /><line x2="650.00" style="fill:blue;stroke:blue;" y1="380.00" x1="850.00" id="1537" y2="380.00" /><line x2="900.00" style="fill:blue;stroke:blue;" y1="380.00" x1="850.00" id="1538" y2="375.50" /><line x2="900.00" style="fill:blue;stroke:blue;" y1="480.00" x1="900.00" id="1539" y2="424.50" /><line x2="850.00" style="fill:blue;stroke:blue;" y1="480.00" x1="900.00" id="1540" y2="480.00" /><line x2="900.00" style="fill:blue;stroke:blue;" y1="480.00" x1="850.00" id="1541" y2="480.00" /><line x2="780.00" style="fill:blue;stroke:blue;" y1="480.00" x1="850.00" id="1542" y2="480.00" /><line x2="932.32" style="fill:blue;stroke:blue;" y1="202.32" x1="897.68" id="1543" y2="167.68" /><line x2="950.00" style="fill:blue;stroke:blue;" y1="202.32" x1="897.68" id="1544" y2="250.00" /><line x2="820.00" style="fill:blue;stroke:blue;" y1="202.32" x1="897.68" id="1545" y2="180.00" /><line x2="1000.00" style="fill:blue;stroke:blue;" y1="20.00" x1="900.00" id="1546" y2="20.00" /><line x2="820.00" style="fill:blue;stroke:blue;" y1="20.00" x1="900.00" id="1547" y2="20.00" /><line x2="900.00" style="fill:blue;stroke:blue;" y1="20.00" x1="900.00" id="1548" y2="80.00" /><line x2="900.00" style="fill:blue;stroke:blue;" y1="80.00" x1="900.00" id="1549" y2="20.00" /><line x2="980.00" style="fill:blue;stroke:blue;" y1="80.00" x1="900.00" id="1550" y2="80.00" /><line x2="850.00" style="fill:blue;stroke:blue;" y1="375.50" x1="900.00" id="1551" y2="380.00" /><line x2="980.00" style="fill:blue;stroke:blue;" y1="375.50" x1="900.00" id="1552" y2="424.50" /><line x2="980.00" style="fill:blue;stroke:blue;" y1="375.50" x1="900.00" id="1553" y2="375.50" /><line x2="900.00" style="fill:blue;stroke:blue;" y1="375.50" x1="900.00" id="1554" y2="424.50" /><line x2="900.00" style="fill:blue;stroke:blue;" y1="424.50" x1="900.00" id="1555" y2="375.50" /><line x2="980.00" style="fill:blue;stroke:blue;" y1="424.50" x1="900.00" id="1556" y2="424.50" /><line x2="900.00" style="fill:blue;stroke:blue;" y1="424.50" x1="900.00" id="1557" y2="480.00" /><line x2="950.00" style="fill:blue;stroke:blue;" y1="120.00" x1="950.00" id="1558" y2="250.00" /><line x2="820.00" style="fill:blue;stroke:blue;" y1="120.00" x1="950.00" id="1559" y2="180.00" /><line x2="820.00" style="fill:blue;stroke:blue;" y1="120.00" x1="950.00" id="1560" y2="120.00" /><line x2="820.00" style="fill:blue;stroke:blue;" y1="250.00" x1="950.00" id="1561" y2="250.00" /><line x2="950.00" style="fill:blue;stroke:blue;" y1="250.00" x1="950.00" id="1562" y2="120.00" /><line x2="897.68" style="fill:blue;stroke:blue;" y1="250.00" x1="950.00" id="1563" y2="202.32" /><line x2="900.00" style="fill:blue;stroke:blue;" y1="80.00" x1="980.00" id="1564" y2="80.00" /><line x2="900.00" style="fill:blue;stroke:blue;" y1="375.50" x1="980.00" id="1565" y2="375.50" /><line x2="980.00" style="fill:blue;stroke:blue;" y1="375.50" x1="980.00" id="1566" y2="424.50" /><line x2="900.00" style="fill:blue;stroke:blue;" y1="424.50" x1="980.00" id="1567" y2="375.50" /><line x2="980.00" style="fill:blue;stroke:blue;" y1="424.50" x1="980.00" id="1568" y2="375.50" /><line x2="900.00" style="fill:blue;stroke:blue;" y1="424.50" x1="980.00" id="1569" y2="424.50" /><line x2="100.00" style="fill:blue;stroke:blue;" y1="700.00" x1="100.00" id="1570" y2="650.00" /><line x2="400.00" style="fill:blue;stroke:blue;" y1="700.00" x1="400.00" id="1571" y2="624.50" /><line x2="390.00" style="fill:blue;stroke:blue;" y1="280.00" x1="390.00" id="1572" y2="340.00" /><line x2="500.00" style="fill:blue;stroke:blue;" y1="700.00" x1="500.00" id="1573" y2="624.50" /><line x2="897.68" style="fill:blue;stroke:blue;" y1="167.68" x1="932.32" id="1574" y2="202.32" /><line x2="820.00" style="fill:blue;stroke:blue;" y1="300.00" x1="980.00" id="1575" y2="300.00" /><line x2="900.00" style="fill:blue;stroke:blue;" y1="20.00" x1="1000.00" id="1576" y2="20.00" /></svg>
