<?xml version="1.0" standalone="yes"?><!DOCTYPE svg PUBLIC "-//W3C//DTD SVG 1.1//EN" "http://www.w3.org/Graphics/SVG/1.1/DTD/svg11.dtd"[]><svg width="1050.00" height="800.00" id="13812" xmlns="http://www.w3.org/2000/svg" xmlns:xlink="http://www.w3.org/1999/xlink"><rect Type="system" x="20.00" id="13813" height="5.00" width="5.00" Name="洛古图尔" ID="30042547" Region="西玛特尔" y="150.00" /><text y="150.00" x="20.00" id="13814">洛古图尔</text><rect Type="system" x="20.00" id="13816" height="5.00" width="5.00" Name="鲁尔姆" ID="30002516" Region="西玛特尔" y="500.00" /><text y="500.00" x="20.00" id="13817">鲁尔姆</text><rect Type="system" x="20.00" id="13819" height="5.00" width="5.00" Name="希瑟伊德" ID="30002539" Region="西玛特尔" y="700.00" /><text y="700.00" x="20.00" id="13820">希瑟伊德</text><rect Type="system" x="50.00" id="13822" height="5.00" width="5.00" Name="欧菲姆" ID="30002515" Region="西玛特尔" y="350.00" /><text y="350.00" x="50.00" id="13823">欧菲姆</text><rect Type="system" x="80.00" id="13825" height="5.00" width="5.00" Name="波斯伯格" ID="30002514" Region="西玛特尔" y="450.00" /><text y="450.00" x="80.00" id="13826">波斯伯格</text><rect Type="system" x="80.00" id="13828" height="5.00" width="5.00" Name="达马林" ID="30002513" Region="西玛特尔" y="400.00" /><text y="400.00" x="80.00" id="13829">达马林</text><rect Type="system" x="100.00" id="13831" height="5.00" width="5.00" Name="瓦拉特" ID="30002573" Region="西玛特尔" y="100.00" /><text y="100.00" x="100.00" id="13832">瓦拉特</text><rect Type="system" x="100.00" id="13834" height="5.00" width="5.00" Name="古摩洛歌德" ID="30002517" Region="西玛特尔" y="520.00" /><text y="520.00" x="100.00" id="13835">古摩洛歌德</text><rect Type="system" x="120.00" id="13837" height="5.00" width="5.00" Name="瓦尔蒂" ID="30002538" Region="西玛特尔" y="630.00" /><text y="630.00" x="120.00" id="13838">瓦尔蒂</text><rect Type="system" x="120.00" id="13840" height="5.00" width="5.00" Name="玛吉库" ID="30002570" Region="西玛特尔" y="180.00" /><text y="180.00" x="120.00" id="13841">玛吉库</text><rect Type="system" x="120.00" id="13843" height="5.00" width="5.00" Name="哈德加戈" ID="30012547" Region="西玛特尔" y="20.00" /><text y="20.00" x="120.00" id="13844">哈德加戈</text><rect Type="system" x="150.00" id="13846" height="5.00" width="5.00" Name="尤斯塔" ID="30002543" Region="西玛特尔" y="75.50" /><text y="75.50" x="150.00" id="13847">尤斯塔</text><rect Type="system" x="147.68" id="13849" height="5.00" width="5.00" Name="兰多恩" ID="30002540" Region="西玛特尔" y="682.32" /><text y="682.32" x="147.68" id="13850">兰多恩</text><rect Type="system" x="150.00" id="13852" height="5.00" width="5.00" Name="埃玛马克" ID="30002537" Region="西玛特尔" y="550.00" /><text y="550.00" x="150.00" id="13853">埃玛马克</text><rect Type="system" x="150.00" id="13855" height="5.00" width="5.00" Name="基里莫科努尔" ID="30022547" Region="西玛特尔" y="124.50" /><text y="124.50" x="150.00" id="13856">基里莫科努尔</text><rect Type="system" x="150.00" id="13858" height="5.00" width="5.00" Name="阿拉库古" ID="30002512" Region="西玛特尔" y="400.00" /><text y="400.00" x="150.00" id="13859">阿拉库古</text><rect Type="system" x="180.00" id="13861" height="5.00" width="5.00" Name="吉格" ID="30002529" Region="西玛特尔" y="250.00" /><text y="250.00" x="180.00" id="13862">吉格</text><rect Type="system" x="182.32" id="13864" height="5.00" width="5.00" Name="奥加" ID="30002542" Region="西玛特尔" y="647.68" /><text y="647.68" x="182.32" id="13865">奥加</text><rect Type="system" x="180.00" id="13867" height="5.00" width="5.00" Name="埃维斯贝尔" ID="30002530" Region="西玛特尔" y="320.00" /><text y="320.00" x="180.00" id="13868">埃维斯贝尔</text><rect Type="system" x="220.00" id="13870" height="5.00" width="5.00" Name="奥索古尔" ID="30002506" Region="西玛特尔" y="500.00" /><text y="500.00" x="220.00" id="13871">奥索古尔</text><rect Type="system" x="220.00" id="13873" height="5.00" width="5.00" Name="昂加" ID="30002568" Region="西玛特尔" y="180.00" /><text y="180.00" x="220.00" id="13874">昂加</text><rect Type="system" x="250.00" id="13876" height="5.00" width="5.00" Name="阿布德班" ID="30002507" Region="西玛特尔" y="450.00" /><text y="450.00" x="250.00" id="13877">阿布德班</text><rect Type="system" x="250.00" id="13879" height="5.00" width="5.00" Name="劳斯特威克" ID="30002545" Region="西玛特尔" y="80.00" /><text y="80.00" x="250.00" id="13880">劳斯特威克</text><rect Type="system" x="250.00" id="13882" height="5.00" width="5.00" Name="拉尔库戈伊" ID="30032547" Region="西玛特尔" y="220.00" /><text y="220.00" x="250.00" id="13883">拉尔库戈伊</text><rect Type="system" x="250.00" id="13885" height="5.00" width="5.00" Name="达尔" ID="30002541" Region="西玛特尔" y="700.00" /><text y="700.00" x="250.00" id="13886">达尔</text><rect Type="system" x="250.00" id="13888" height="5.00" width="5.00" Name="法若恩" ID="30002526" Region="西玛特尔" y="300.00" /><text y="300.00" x="250.00" id="13889">法若恩</text><rect Type="system" x="300.00" id="13891" height="5.00" width="5.00" Name="伊森杜迪克" ID="30002546" Region="西玛特尔" y="50.00" /><text y="50.00" x="300.00" id="13892">伊森杜迪克</text><rect Type="system" x="300.00" id="13894" height="5.00" width="5.00" Name="伦斯" ID="30002510" Region="西玛特尔" y="420.00" /><text y="420.00" x="300.00" id="13895">伦斯</text><rect Type="system" x="310.00" id="13897" height="5.00" width="5.00" Name="奥萨姆尼" ID="30002569" Region="西玛特尔" y="200.00" /><text y="200.00" x="310.00" id="13898">奥萨姆尼</text><rect Type="system" x="320.00" id="13900" height="5.00" width="5.00" Name="伊林福理克" ID="30002527" Region="西玛特尔" y="280.00" /><text y="280.00" x="320.00" id="13901">伊林福理克</text><rect Type="system" x="320.00" id="13903" height="5.00" width="5.00" Name="奥达特里克" ID="30002509" Region="西玛特尔" y="480.00" /><text y="480.00" x="320.00" id="13904">奥达特里克</text><rect Type="system" x="310.00" id="13906" height="5.00" width="5.00" Name="帕多尔" ID="30002544" Region="西玛特尔" y="120.00" /><text y="120.00" x="310.00" id="13907">帕多尔</text><rect Type="system" x="380.00" id="13909" height="5.00" width="5.00" Name="埃莫奥德" ID="30002547" Region="西玛特尔" y="50.00" /><text y="50.00" x="380.00" id="13910">埃莫奥德</text><rect Type="system" x="380.00" id="13912" height="5.00" width="5.00" Name="欧勒姆福" ID="30002571" Region="西玛特尔" y="160.00" /><text y="160.00" x="380.00" id="13913">欧勒姆福</text><rect Type="system" x="400.00" id="13915" height="5.00" width="5.00" Name="梅拉库夫" ID="30002525" Region="西玛特尔" y="400.00" /><text y="400.00" x="400.00" id="13916">梅拉库夫</text><rect Type="system" x="400.00" id="13918" height="5.00" width="5.00" Name="宝吉尼亚" ID="30002528" Region="西玛特尔" y="280.00" /><text y="280.00" x="400.00" id="13919">宝吉尼亚</text><rect Type="system" x="400.00" id="13921" height="5.00" width="5.00" Name="泰特达尔德" ID="30002508" Region="西玛特尔" y="480.00" /><text y="480.00" x="400.00" id="13922">泰特达尔德</text><rect Type="system" x="430.00" id="13924" height="5.00" width="5.00" Name="胡尔加芬" ID="30002572" Region="西玛特尔" y="210.00" /><text y="210.00" x="430.00" id="13925">胡尔加芬</text><rect Type="system" x="450.00" id="13927" height="5.00" width="5.00" Name="伊莫戈兰伦" ID="30002548" Region="西玛特尔" y="50.00" /><text y="50.00" x="450.00" id="13928">伊莫戈兰伦</text><rect Type="system" x="480.00" id="13930" height="5.00" width="5.00" Name="伊瓦尔" ID="30002524" Region="西玛特尔" y="500.00" /><text y="500.00" x="480.00" id="13931">伊瓦尔</text><rect Type="system" x="500.00" id="13933" height="5.00" width="5.00" Name="埃特古尔" ID="30002557" Region="西玛特尔" y="100.00" /><text y="100.00" x="500.00" id="13934">埃特古尔</text><rect Type="system" x="500.00" id="13936" height="5.00" width="5.00" Name="埃美纳卡" ID="30002511" Region="西玛特尔" y="550.00" /><text y="550.00" x="500.00" id="13937">埃美纳卡</text><rect Type="system" x="520.00" id="13939" height="5.00" width="5.00" Name="托德克" ID="30032505" Region="西玛特尔" y="680.00" /><text y="680.00" x="520.00" id="13940">托德克</text><rect Type="system" x="520.00" id="13942" height="5.00" width="5.00" Name="休姆" ID="30002505" Region="西玛特尔" y="600.00" /><text y="600.00" x="520.00" id="13943">休姆</text><rect Type="system" x="550.00" id="13945" height="5.00" width="5.00" Name="尤斯特里" ID="30042505" Region="西玛特尔" y="450.00" /><text y="450.00" x="550.00" id="13946">尤斯特里</text><rect Type="system" x="550.00" id="13948" height="5.00" width="5.00" Name="埃伊费尔" ID="30002555" Region="西玛特尔" y="50.00" /><text y="50.00" x="550.00" id="13949">埃伊费尔</text><rect Type="system" x="550.00" id="13951" height="5.00" width="5.00" Name="瓜塔特伦" ID="30002560" Region="西玛特尔" y="320.00" /><text y="320.00" x="550.00" id="13952">瓜塔特伦</text><rect Type="system" x="550.00" id="13954" height="5.00" width="5.00" Name="因加恩" ID="30002559" Region="西玛特尔" y="250.00" /><text y="250.00" x="550.00" id="13955">因加恩</text><rect Type="system" x="580.00" id="13957" height="5.00" width="5.00" Name="伊德马博多斯" ID="30002518" Region="西玛特尔" y="650.00" /><text y="650.00" x="580.00" id="13958">伊德马博多斯</text><rect Type="system" x="600.00" id="13960" height="5.00" width="5.00" Name="恩多拉夫" ID="30002558" Region="西玛特尔" y="100.00" /><text y="100.00" x="600.00" id="13961">恩多拉夫</text><rect Type="system" x="590.00" id="13963" height="5.00" width="5.00" Name="马鲁克克" ID="30012505" Region="西玛特尔" y="520.00" /><text y="520.00" x="590.00" id="13964">马鲁克克</text><rect Type="system" x="650.00" id="13966" height="5.00" width="5.00" Name="卡图古姆" ID="30002580" Region="西玛特尔" y="300.00" /><text y="300.00" x="650.00" id="13967">卡图古姆</text><rect Type="system" x="650.00" id="13969" height="5.00" width="5.00" Name="所特伦卓" ID="30002575" Region="西玛特尔" y="250.00" /><text y="250.00" x="650.00" id="13970">所特伦卓</text><rect Type="system" x="650.00" id="13972" height="5.00" width="5.00" Name="库罗素尔" ID="30002519" Region="西玛特尔" y="650.00" /><text y="650.00" x="650.00" id="13973">库罗素尔</text><rect Type="system" x="680.00" id="13975" height="5.00" width="5.00" Name="伯格勒克" ID="30002553" Region="西玛特尔" y="350.00" /><text y="350.00" x="680.00" id="13976">伯格勒克</text><rect Type="system" x="680.00" id="13978" height="5.00" width="5.00" Name="洛克菲尔" ID="30002534" Region="西玛特尔" y="400.00" /><text y="400.00" x="680.00" id="13979">洛克菲尔</text><rect Type="system" x="700.00" id="13981" height="5.00" width="5.00" Name="古萨恩杜" ID="30002556" Region="西玛特尔" y="50.00" /><text y="50.00" x="700.00" id="13982">古萨恩杜</text><rect Type="system" x="720.00" id="13984" height="5.00" width="5.00" Name="杜吉里努尔" ID="30002520" Region="西玛特尔" y="620.00" /><text y="620.00" x="720.00" id="13985">杜吉里努尔</text><rect Type="system" x="750.00" id="13987" height="5.00" width="5.00" Name="农德迪尔" ID="30002574" Region="西玛特尔" y="250.00" /><text y="250.00" x="750.00" id="13988">农德迪尔</text><rect Type="system" x="750.00" id="13990" height="5.00" width="5.00" Name="希斯特" ID="30002521" Region="西玛特尔" y="680.00" /><text y="680.00" x="750.00" id="13991">希斯特</text><rect Type="system" x="750.00" id="13993" height="5.00" width="5.00" Name="阿拉古鲁迪" ID="30002551" Region="西玛特尔" y="350.00" /><text y="350.00" x="750.00" id="13994">阿拉古鲁迪</text><rect Type="system" x="750.00" id="13996" height="5.00" width="5.00" Name="赫德基维特" ID="30002579" Region="西玛特尔" y="120.00" /><text y="120.00" x="750.00" id="13997">赫德基维特</text><rect Type="system" x="780.00" id="13999" height="5.00" width="5.00" Name="罗尼考" ID="30002550" Region="西玛特尔" y="300.00" /><text y="300.00" x="780.00" id="14000">罗尼考</text><rect Type="system" x="780.00" id="14002" height="5.00" width="5.00" Name="欧布洛贝尔" ID="30002522" Region="西玛特尔" y="580.00" /><text y="580.00" x="780.00" id="14003">欧布洛贝尔</text><rect Type="system" x="800.00" id="14005" height="5.00" width="5.00" Name="尤瑞斯" ID="30002567" Region="西玛特尔" y="20.00" /><text y="20.00" x="800.00" id="14006">尤瑞斯</text><rect Type="system" x="810.00" id="14008" height="5.00" width="5.00" Name="爱巴格杜尔" ID="30002535" Region="西玛特尔" y="460.00" /><text y="460.00" x="810.00" id="14009">爱巴格杜尔</text><rect Type="system" x="800.00" id="14011" height="5.00" width="5.00" Name="奥伦" ID="30002561" Region="西玛特尔" y="80.00" /><text y="80.00" x="800.00" id="14012">奥伦</text><rect Type="system" x="800.00" id="14014" height="5.00" width="5.00" Name="奥特拉伦" ID="30002578" Region="西玛特尔" y="150.00" /><text y="150.00" x="800.00" id="14015">奥特拉伦</text><rect Type="system" x="800.00" id="14017" height="5.00" width="5.00" Name="农德马蒂" ID="30002576" Region="西玛特尔" y="250.00" /><text y="250.00" x="800.00" id="14018">农德马蒂</text><rect Type="system" x="817.68" id="14020" height="5.00" width="5.00" Name="维斯克贝尔" ID="30002554" Region="西玛特尔" y="352.32" /><text y="352.32" x="817.68" id="14021">维斯克贝尔</text><rect Type="system" x="820.00" id="14023" height="5.00" width="5.00" Name="邦丁达斯" ID="30002577" Region="西玛特尔" y="200.00" /><text y="200.00" x="820.00" id="14024">邦丁达斯</text><rect Type="system" x="840.00" id="14026" height="5.00" width="5.00" Name="奥斯塔卡" ID="30002523" Region="西玛特尔" y="530.00" /><text y="530.00" x="840.00" id="14027">奥斯塔卡</text><rect Type="system" x="880.00" id="14029" height="5.00" width="5.00" Name="克里尔" ID="30002566" Region="西玛特尔" y="20.00" /><text y="20.00" x="880.00" id="14030">克里尔</text><rect Type="system" x="900.00" id="14032" height="5.00" width="5.00" Name="埃达尔" ID="30002552" Region="西玛特尔" y="180.00" /><text y="180.00" x="900.00" id="14033">埃达尔</text><rect Type="system" x="900.00" id="14035" height="5.00" width="5.00" Name="吉尔勒克" ID="30002531" Region="西玛特尔" y="450.00" /><text y="450.00" x="900.00" id="14036">吉尔勒克</text><rect Type="system" x="950.00" id="14038" height="5.00" width="5.00" Name="奥弗根" ID="30002549" Region="西玛特尔" y="280.00" /><text y="280.00" x="950.00" id="14039">奥弗根</text><rect Type="system" x="950.00" id="14041" height="5.00" width="5.00" Name="埃皮恩" ID="30002565" Region="西玛特尔" y="60.00" /><text y="60.00" x="950.00" id="14042">埃皮恩</text><rect Type="system" x="950.00" id="14044" height="5.00" width="5.00" Name="唐格夫" ID="30002532" Region="西玛特尔" y="500.00" /><text y="500.00" x="950.00" id="14045">唐格夫</text><rect Type="system" x="950.00" id="14047" height="5.00" width="5.00" Name="吉尔伯德" ID="30002533" Region="西玛特尔" y="380.00" /><text y="380.00" x="950.00" id="14048">吉尔伯德</text><rect Type="system" x="980.00" id="14050" height="5.00" width="5.00" Name="加仑德" ID="30002564" Region="西玛特尔" y="100.00" /><text y="100.00" x="980.00" id="14051">加仑德</text><rect Type="system" x="1000.00" id="14053" height="5.00" width="5.00" Name="埃博多德" ID="30002536" Region="西玛特尔" y="540.00" /><text y="540.00" x="1000.00" id="14054">埃博多德</text><rect Type="system" x="1000.00" id="14056" height="5.00" width="5.00" Name="伊格缪尔" ID="30002563" Region="西玛特尔" y="200.00" /><text y="200.00" x="1000.00" id="14057">伊格缪尔</text><rect Type="system" x="1000.00" id="14059" height="5.00" width="5.00" Name="特瑞尔" ID="30002562" Region="西玛特尔" y="150.00" /><text y="150.00" x="1000.00" id="14060">特瑞尔</text><rect Type="system" x="20.00" id="14062" height="5.00" width="5.00" Name="伊尔拉姆" ID="30003413" Region="美特伯里斯" y="80.00" /><text y="80.00" x="20.00" id="14063">伊尔拉姆</text><rect Type="system" x="20.00" id="14065" height="5.00" width="5.00" Name="伊格赫伦德" ID="30002693" Region="金纳泽" y="750.00" /><text y="750.00" x="20.00" id="14066">伊格赫伦德</text><rect Type="system" x="50.00" id="14068" height="5.00" width="5.00" Name="俄扎拉" ID="30002962" Region="破碎" y="620.00" /><text y="620.00" x="50.00" id="14069">俄扎拉</text><rect Type="system" x="50.00" id="14071" height="5.00" width="5.00" Name="艾格玛尔" ID="30002099" Region="美特伯里斯" y="550.00" /><text y="550.00" x="50.00" id="14072">艾格玛尔</text><rect Type="system" x="80.00" id="14074" height="5.00" width="5.00" Name="赫克" ID="30002053" Region="美特伯里斯" y="50.00" /><text y="50.00" x="80.00" id="14075">赫克</text><rect Type="system" x="150.00" id="14077" height="5.00" width="5.00" Name="伊斯祖尔" ID="30002095" Region="美特伯里斯" y="750.00" /><text y="750.00" x="150.00" id="14078">伊斯祖尔</text><rect Type="system" x="140.00" id="14080" height="5.00" width="5.00" Name="提鲁苏德" ID="30002385" Region="摩登赫斯" y="350.00" /><text y="350.00" x="140.00" id="14081">提鲁苏德</text><rect Type="system" x="200.00" id="14083" height="5.00" width="5.00" Name="奥布拉" ID="30003388" Region="美特伯里斯" y="50.00" /><text y="50.00" x="200.00" id="14084">奥布拉</text><rect Type="system" x="250.00" id="14086" height="5.00" width="5.00" Name="阔尔蒙尼" ID="30003068" Region="幽暗之域" y="610.00" /><text y="610.00" x="250.00" id="14087">阔尔蒙尼</text><rect Type="system" x="250.00" id="14089" height="5.00" width="5.00" Name="赫加格德" ID="30002096" Region="美特伯里斯" y="750.00" /><text y="750.00" x="250.00" id="14090">赫加格德</text><rect Type="system" x="300.00" id="14092" height="5.00" width="5.00" Name="加尔克" ID="30000004" Region="德里克" y="530.00" /><text y="530.00" x="300.00" id="14093">加尔克</text><rect Type="system" x="390.00" id="14095" height="5.00" width="5.00" Name="尤普林古尔" ID="30000037" Region="德里克" y="540.00" /><text y="540.00" x="390.00" id="14096">尤普林古尔</text><rect Type="system" x="440.00" id="14098" height="5.00" width="5.00" Name="阿尔卢浮" ID="30003374" Region="美特伯里斯" y="590.00" /><text y="590.00" x="440.00" id="14099">阿尔卢浮</text><rect Type="system" x="480.00" id="14101" height="5.00" width="5.00" Name="莱丁乔尔" ID="30003410" Region="美特伯里斯" y="420.00" /><text y="420.00" x="480.00" id="14102">莱丁乔尔</text><rect Type="system" x="499.04" id="14104" height="5.00" width="5.00" Name="恩斯图尔" ID="30002064" Region="美特伯里斯" y="318.09" /><text y="318.09" x="499.04" id="14105">恩斯图尔</text><rect Type="system" x="520.96" id="14107" height="5.00" width="5.00" Name="埃伊丁" ID="30002383" Region="摩登赫斯" y="361.91" /><text y="361.91" x="520.96" id="14108">埃伊丁</text><rect Type="system" x="852.32" id="14110" height="5.00" width="5.00" Name="马特贝尔" ID="30003444" Region="美特伯里斯" y="317.68" /><text y="317.68" x="852.32" id="14111">马特贝尔</text><rect Type="system" x="850.00" id="14113" height="5.00" width="5.00" Name="欧菲卡塔林" ID="30003460" Region="美特伯里斯" y="400.00" /><text y="400.00" x="850.00" id="14114">欧菲卡塔林</text><line style="stroke:blue;fill:blue;" id="14116" x2="100.00" x1="20.00" y1="150.00" y2="100.00" /><line style="stroke:blue;fill:blue;" id="14117" x2="80.00" x1="20.00" y1="500.00" y2="450.00" /><line style="stroke:blue;fill:blue;" id="14118" x2="100.00" x1="20.00" y1="500.00" y2="520.00" /><line style="stroke:blue;fill:blue;" id="14119" x2="150.00" x1="20.00" y1="700.00" y2="750.00" /><line style="stroke:blue;fill:blue;" id="14120" x2="150.00" x1="20.00" y1="700.00" y2="550.00" /><line style="stroke:blue;fill:blue;" id="14121" x2="120.00" x1="20.00" y1="700.00" y2="630.00" /><line style="stroke:blue;fill:blue;" id="14122" x2="147.68" x1="20.00" y1="700.00" y2="682.32" /><line style="stroke:blue;fill:blue;" id="14123" x2="250.00" x1="20.00" y1="700.00" y2="700.00" /><line style="stroke:blue;fill:blue;" id="14124" x2="182.32" x1="20.00" y1="700.00" y2="647.68" /><line style="stroke:blue;fill:blue;" id="14125" x2="20.00" x1="20.00" y1="700.00" y2="750.00" /><line style="stroke:blue;fill:blue;" id="14126" x2="80.00" x1="50.00" y1="350.00" y2="400.00" /><line style="stroke:blue;fill:blue;" id="14127" x2="80.00" x1="80.00" y1="450.00" y2="400.00" /><line style="stroke:blue;fill:blue;" id="14128" x2="20.00" x1="80.00" y1="450.00" y2="500.00" /><line style="stroke:blue;fill:blue;" id="14129" x2="100.00" x1="80.00" y1="450.00" y2="520.00" /><line style="stroke:blue;fill:blue;" id="14130" x2="150.00" x1="80.00" y1="400.00" y2="400.00" /><line style="stroke:blue;fill:blue;" id="14131" x2="80.00" x1="80.00" y1="400.00" y2="450.00" /><line style="stroke:blue;fill:blue;" id="14132" x2="50.00" x1="80.00" y1="400.00" y2="350.00" /><line style="stroke:blue;fill:blue;" id="14133" x2="150.00" x1="100.00" y1="100.00" y2="75.50" /><line style="stroke:blue;fill:blue;" id="14134" x2="120.00" x1="100.00" y1="100.00" y2="180.00" /><line style="stroke:blue;fill:blue;" id="14135" x2="20.00" x1="100.00" y1="100.00" y2="80.00" /><line style="stroke:blue;fill:blue;" id="14136" x2="20.00" x1="100.00" y1="100.00" y2="150.00" /><line style="stroke:blue;fill:blue;" id="14137" x2="50.00" x1="100.00" y1="520.00" y2="550.00" /><line style="stroke:blue;fill:blue;" id="14138" x2="80.00" x1="100.00" y1="520.00" y2="450.00" /><line style="stroke:blue;fill:blue;" id="14139" x2="20.00" x1="100.00" y1="520.00" y2="500.00" /><line style="stroke:blue;fill:blue;" id="14140" x2="150.00" x1="100.00" y1="520.00" y2="550.00" /><line style="stroke:blue;fill:blue;" id="14141" x2="150.00" x1="120.00" y1="630.00" y2="550.00" /><line style="stroke:blue;fill:blue;" id="14142" x2="20.00" x1="120.00" y1="630.00" y2="700.00" /><line style="stroke:blue;fill:blue;" id="14143" x2="147.68" x1="120.00" y1="630.00" y2="682.32" /><line style="stroke:blue;fill:blue;" id="14144" x2="250.00" x1="120.00" y1="630.00" y2="700.00" /><line style="stroke:blue;fill:blue;" id="14145" x2="50.00" x1="120.00" y1="630.00" y2="620.00" /><line style="stroke:blue;fill:blue;" id="14146" x2="140.00" x1="120.00" y1="180.00" y2="350.00" /><line style="stroke:blue;fill:blue;" id="14147" x2="220.00" x1="120.00" y1="180.00" y2="180.00" /><line style="stroke:blue;fill:blue;" id="14148" x2="100.00" x1="120.00" y1="180.00" y2="100.00" /><line style="stroke:blue;fill:blue;" id="14149" x2="150.00" x1="120.00" y1="20.00" y2="75.50" /><line style="stroke:blue;fill:blue;" id="14150" x2="80.00" x1="150.00" y1="75.50" y2="50.00" /><line style="stroke:blue;fill:blue;" id="14151" x2="310.00" x1="150.00" y1="75.50" y2="120.00" /><line style="stroke:blue;fill:blue;" id="14152" x2="250.00" x1="150.00" y1="75.50" y2="80.00" /><line style="stroke:blue;fill:blue;" id="14153" x2="100.00" x1="150.00" y1="75.50" y2="100.00" /><line style="stroke:blue;fill:blue;" id="14154" x2="200.00" x1="150.00" y1="75.50" y2="50.00" /><line style="stroke:blue;fill:blue;" id="14155" x2="120.00" x1="150.00" y1="75.50" y2="20.00" /><line style="stroke:blue;fill:blue;" id="14156" x2="120.00" x1="147.68" y1="682.32" y2="630.00" /><line style="stroke:blue;fill:blue;" id="14157" x2="20.00" x1="147.68" y1="682.32" y2="700.00" /><line style="stroke:blue;fill:blue;" id="14158" x2="250.00" x1="147.68" y1="682.32" y2="700.00" /><line style="stroke:blue;fill:blue;" id="14159" x2="220.00" x1="150.00" y1="550.00" y2="500.00" /><line style="stroke:blue;fill:blue;" id="14160" x2="100.00" x1="150.00" y1="550.00" y2="520.00" /><line style="stroke:blue;fill:blue;" id="14161" x2="120.00" x1="150.00" y1="550.00" y2="630.00" /><line style="stroke:blue;fill:blue;" id="14162" x2="20.00" x1="150.00" y1="550.00" y2="700.00" /><line style="stroke:blue;fill:blue;" id="14163" x2="250.00" x1="150.00" y1="550.00" y2="700.00" /><line style="stroke:blue;fill:blue;" id="14164" x2="182.32" x1="150.00" y1="550.00" y2="647.68" /><line style="stroke:blue;fill:blue;" id="14165" x2="220.00" x1="150.00" y1="124.50" y2="180.00" /><line style="stroke:blue;fill:blue;" id="14166" x2="250.00" x1="150.00" y1="400.00" y2="450.00" /><line style="stroke:blue;fill:blue;" id="14167" x2="80.00" x1="150.00" y1="400.00" y2="400.00" /><line style="stroke:blue;fill:blue;" id="14168" x2="250.00" x1="180.00" y1="250.00" y2="300.00" /><line style="stroke:blue;fill:blue;" id="14169" x2="180.00" x1="180.00" y1="250.00" y2="320.00" /><line style="stroke:blue;fill:blue;" id="14170" x2="220.00" x1="180.00" y1="250.00" y2="180.00" /><line style="stroke:blue;fill:blue;" id="14171" x2="150.00" x1="182.32" y1="647.68" y2="550.00" /><line style="stroke:blue;fill:blue;" id="14172" x2="20.00" x1="182.32" y1="647.68" y2="700.00" /><line style="stroke:blue;fill:blue;" id="14173" x2="250.00" x1="182.32" y1="647.68" y2="700.00" /><line style="stroke:blue;fill:blue;" id="14174" x2="250.00" x1="182.32" y1="647.68" y2="610.00" /><line style="stroke:blue;fill:blue;" id="14175" x2="250.00" x1="180.00" y1="320.00" y2="450.00" /><line style="stroke:blue;fill:blue;" id="14176" x2="250.00" x1="180.00" y1="320.00" y2="300.00" /><line style="stroke:blue;fill:blue;" id="14177" x2="180.00" x1="180.00" y1="320.00" y2="250.00" /><line style="stroke:blue;fill:blue;" id="14178" x2="250.00" x1="220.00" y1="500.00" y2="450.00" /><line style="stroke:blue;fill:blue;" id="14179" x2="150.00" x1="220.00" y1="500.00" y2="550.00" /><line style="stroke:blue;fill:blue;" id="14180" x2="180.00" x1="220.00" y1="180.00" y2="250.00" /><line style="stroke:blue;fill:blue;" id="14181" x2="310.00" x1="220.00" y1="180.00" y2="120.00" /><line style="stroke:blue;fill:blue;" id="14182" x2="250.00" x1="220.00" y1="180.00" y2="80.00" /><line style="stroke:blue;fill:blue;" id="14183" x2="310.00" x1="220.00" y1="180.00" y2="200.00" /><line style="stroke:blue;fill:blue;" id="14184" x2="120.00" x1="220.00" y1="180.00" y2="180.00" /><line style="stroke:blue;fill:blue;" id="14185" x2="150.00" x1="220.00" y1="180.00" y2="124.50" /><line style="stroke:blue;fill:blue;" id="14186" x2="220.00" x1="250.00" y1="450.00" y2="500.00" /><line style="stroke:blue;fill:blue;" id="14187" x2="320.00" x1="250.00" y1="450.00" y2="480.00" /><line style="stroke:blue;fill:blue;" id="14188" x2="300.00" x1="250.00" y1="450.00" y2="420.00" /><line style="stroke:blue;fill:blue;" id="14189" x2="150.00" x1="250.00" y1="450.00" y2="400.00" /><line style="stroke:blue;fill:blue;" id="14190" x2="180.00" x1="250.00" y1="450.00" y2="320.00" /><line style="stroke:blue;fill:blue;" id="14191" x2="150.00" x1="250.00" y1="80.00" y2="75.50" /><line style="stroke:blue;fill:blue;" id="14192" x2="310.00" x1="250.00" y1="80.00" y2="120.00" /><line style="stroke:blue;fill:blue;" id="14193" x2="300.00" x1="250.00" y1="80.00" y2="50.00" /><line style="stroke:blue;fill:blue;" id="14194" x2="220.00" x1="250.00" y1="80.00" y2="180.00" /><line style="stroke:blue;fill:blue;" id="14195" x2="310.00" x1="250.00" y1="220.00" y2="200.00" /><line style="stroke:blue;fill:blue;" id="14196" x2="250.00" x1="250.00" y1="700.00" y2="750.00" /><line style="stroke:blue;fill:blue;" id="14197" x2="150.00" x1="250.00" y1="700.00" y2="550.00" /><line style="stroke:blue;fill:blue;" id="14198" x2="120.00" x1="250.00" y1="700.00" y2="630.00" /><line style="stroke:blue;fill:blue;" id="14199" x2="20.00" x1="250.00" y1="700.00" y2="700.00" /><line style="stroke:blue;fill:blue;" id="14200" x2="147.68" x1="250.00" y1="700.00" y2="682.32" /><line style="stroke:blue;fill:blue;" id="14201" x2="182.32" x1="250.00" y1="700.00" y2="647.68" /><line style="stroke:blue;fill:blue;" id="14202" x2="300.00" x1="250.00" y1="300.00" y2="420.00" /><line style="stroke:blue;fill:blue;" id="14203" x2="400.00" x1="250.00" y1="300.00" y2="400.00" /><line style="stroke:blue;fill:blue;" id="14204" x2="320.00" x1="250.00" y1="300.00" y2="280.00" /><line style="stroke:blue;fill:blue;" id="14205" x2="180.00" x1="250.00" y1="300.00" y2="250.00" /><line style="stroke:blue;fill:blue;" id="14206" x2="180.00" x1="250.00" y1="300.00" y2="320.00" /><line style="stroke:blue;fill:blue;" id="14207" x2="250.00" x1="300.00" y1="50.00" y2="80.00" /><line style="stroke:blue;fill:blue;" id="14208" x2="380.00" x1="300.00" y1="50.00" y2="50.00" /><line style="stroke:blue;fill:blue;" id="14209" x2="250.00" x1="300.00" y1="420.00" y2="450.00" /><line style="stroke:blue;fill:blue;" id="14210" x2="320.00" x1="300.00" y1="420.00" y2="480.00" /><line style="stroke:blue;fill:blue;" id="14211" x2="250.00" x1="300.00" y1="420.00" y2="300.00" /><line style="stroke:blue;fill:blue;" id="14212" x2="320.00" x1="310.00" y1="200.00" y2="280.00" /><line style="stroke:blue;fill:blue;" id="14213" x2="220.00" x1="310.00" y1="200.00" y2="180.00" /><line style="stroke:blue;fill:blue;" id="14214" x2="380.00" x1="310.00" y1="200.00" y2="160.00" /><line style="stroke:blue;fill:blue;" id="14215" x2="250.00" x1="310.00" y1="200.00" y2="220.00" /><line style="stroke:blue;fill:blue;" id="14216" x2="250.00" x1="320.00" y1="280.00" y2="300.00" /><line style="stroke:blue;fill:blue;" id="14217" x2="400.00" x1="320.00" y1="280.00" y2="280.00" /><line style="stroke:blue;fill:blue;" id="14218" x2="310.00" x1="320.00" y1="280.00" y2="200.00" /><line style="stroke:blue;fill:blue;" id="14219" x2="300.00" x1="320.00" y1="480.00" y2="530.00" /><line style="stroke:blue;fill:blue;" id="14220" x2="250.00" x1="320.00" y1="480.00" y2="450.00" /><line style="stroke:blue;fill:blue;" id="14221" x2="400.00" x1="320.00" y1="480.00" y2="480.00" /><line style="stroke:blue;fill:blue;" id="14222" x2="300.00" x1="320.00" y1="480.00" y2="420.00" /><line style="stroke:blue;fill:blue;" id="14223" x2="150.00" x1="310.00" y1="120.00" y2="75.50" /><line style="stroke:blue;fill:blue;" id="14224" x2="250.00" x1="310.00" y1="120.00" y2="80.00" /><line style="stroke:blue;fill:blue;" id="14225" x2="380.00" x1="310.00" y1="120.00" y2="50.00" /><line style="stroke:blue;fill:blue;" id="14226" x2="220.00" x1="310.00" y1="120.00" y2="180.00" /><line style="stroke:blue;fill:blue;" id="14227" x2="310.00" x1="380.00" y1="50.00" y2="120.00" /><line style="stroke:blue;fill:blue;" id="14228" x2="300.00" x1="380.00" y1="50.00" y2="50.00" /><line style="stroke:blue;fill:blue;" id="14229" x2="450.00" x1="380.00" y1="50.00" y2="50.00" /><line style="stroke:blue;fill:blue;" id="14230" x2="310.00" x1="380.00" y1="160.00" y2="200.00" /><line style="stroke:blue;fill:blue;" id="14231" x2="430.00" x1="380.00" y1="160.00" y2="210.00" /><line style="stroke:blue;fill:blue;" id="14232" x2="480.00" x1="400.00" y1="400.00" y2="500.00" /><line style="stroke:blue;fill:blue;" id="14233" x2="250.00" x1="400.00" y1="400.00" y2="300.00" /><line style="stroke:blue;fill:blue;" id="14234" x2="480.00" x1="400.00" y1="400.00" y2="420.00" /><line style="stroke:blue;fill:blue;" id="14235" x2="320.00" x1="400.00" y1="280.00" y2="280.00" /><line style="stroke:blue;fill:blue;" id="14236" x2="430.00" x1="400.00" y1="280.00" y2="210.00" /><line style="stroke:blue;fill:blue;" id="14237" x2="390.00" x1="400.00" y1="480.00" y2="540.00" /><line style="stroke:blue;fill:blue;" id="14238" x2="320.00" x1="400.00" y1="480.00" y2="480.00" /><line style="stroke:blue;fill:blue;" id="14239" x2="480.00" x1="400.00" y1="480.00" y2="500.00" /><line style="stroke:blue;fill:blue;" id="14240" x2="400.00" x1="430.00" y1="210.00" y2="280.00" /><line style="stroke:blue;fill:blue;" id="14241" x2="380.00" x1="430.00" y1="210.00" y2="160.00" /><line style="stroke:blue;fill:blue;" id="14242" x2="380.00" x1="450.00" y1="50.00" y2="50.00" /><line style="stroke:blue;fill:blue;" id="14243" x2="550.00" x1="450.00" y1="50.00" y2="50.00" /><line style="stroke:blue;fill:blue;" id="14244" x2="400.00" x1="480.00" y1="500.00" y2="480.00" /><line style="stroke:blue;fill:blue;" id="14245" x2="500.00" x1="480.00" y1="500.00" y2="550.00" /><line style="stroke:blue;fill:blue;" id="14246" x2="400.00" x1="480.00" y1="500.00" y2="400.00" /><line style="stroke:blue;fill:blue;" id="14247" x2="550.00" x1="480.00" y1="500.00" y2="450.00" /><line style="stroke:blue;fill:blue;" id="14248" x2="550.00" x1="500.00" y1="100.00" y2="50.00" /><line style="stroke:blue;fill:blue;" id="14249" x2="600.00" x1="500.00" y1="100.00" y2="100.00" /><line style="stroke:blue;fill:blue;" id="14250" x2="520.00" x1="500.00" y1="550.00" y2="600.00" /><line style="stroke:blue;fill:blue;" id="14251" x2="480.00" x1="500.00" y1="550.00" y2="500.00" /><line style="stroke:blue;fill:blue;" id="14252" x2="440.00" x1="500.00" y1="550.00" y2="590.00" /><line style="stroke:blue;fill:blue;" id="14253" x2="590.00" x1="500.00" y1="550.00" y2="520.00" /><line style="stroke:blue;fill:blue;" id="14254" x2="580.00" x1="520.00" y1="680.00" y2="650.00" /><line style="stroke:blue;fill:blue;" id="14255" x2="500.00" x1="520.00" y1="600.00" y2="550.00" /><line style="stroke:blue;fill:blue;" id="14256" x2="580.00" x1="520.00" y1="600.00" y2="650.00" /><line style="stroke:blue;fill:blue;" id="14257" x2="480.00" x1="550.00" y1="450.00" y2="500.00" /><line style="stroke:blue;fill:blue;" id="14258" x2="450.00" x1="550.00" y1="50.00" y2="50.00" /><line style="stroke:blue;fill:blue;" id="14259" x2="700.00" x1="550.00" y1="50.00" y2="50.00" /><line style="stroke:blue;fill:blue;" id="14260" x2="500.00" x1="550.00" y1="50.00" y2="100.00" /><line style="stroke:blue;fill:blue;" id="14261" x2="600.00" x1="550.00" y1="50.00" y2="100.00" /><line style="stroke:blue;fill:blue;" id="14262" x2="499.04" x1="550.00" y1="320.00" y2="318.09" /><line style="stroke:blue;fill:blue;" id="14263" x2="680.00" x1="550.00" y1="320.00" y2="400.00" /><line style="stroke:blue;fill:blue;" id="14264" x2="550.00" x1="550.00" y1="320.00" y2="250.00" /><line style="stroke:blue;fill:blue;" id="14265" x2="700.00" x1="550.00" y1="250.00" y2="50.00" /><line style="stroke:blue;fill:blue;" id="14266" x2="550.00" x1="550.00" y1="250.00" y2="320.00" /><line style="stroke:blue;fill:blue;" id="14267" x2="650.00" x1="550.00" y1="250.00" y2="250.00" /><line style="stroke:blue;fill:blue;" id="14268" x2="520.00" x1="580.00" y1="650.00" y2="600.00" /><line style="stroke:blue;fill:blue;" id="14269" x2="650.00" x1="580.00" y1="650.00" y2="650.00" /><line style="stroke:blue;fill:blue;" id="14270" x2="520.00" x1="580.00" y1="650.00" y2="680.00" /><line style="stroke:blue;fill:blue;" id="14271" x2="550.00" x1="600.00" y1="100.00" y2="50.00" /><line style="stroke:blue;fill:blue;" id="14272" x2="500.00" x1="600.00" y1="100.00" y2="100.00" /><line style="stroke:blue;fill:blue;" id="14273" x2="500.00" x1="590.00" y1="520.00" y2="550.00" /><line style="stroke:blue;fill:blue;" id="14274" x2="680.00" x1="650.00" y1="300.00" y2="350.00" /><line style="stroke:blue;fill:blue;" id="14275" x2="650.00" x1="650.00" y1="300.00" y2="250.00" /><line style="stroke:blue;fill:blue;" id="14276" x2="700.00" x1="650.00" y1="250.00" y2="50.00" /><line style="stroke:blue;fill:blue;" id="14277" x2="550.00" x1="650.00" y1="250.00" y2="250.00" /><line style="stroke:blue;fill:blue;" id="14278" x2="750.00" x1="650.00" y1="250.00" y2="250.00" /><line style="stroke:blue;fill:blue;" id="14279" x2="650.00" x1="650.00" y1="250.00" y2="300.00" /><line style="stroke:blue;fill:blue;" id="14280" x2="580.00" x1="650.00" y1="650.00" y2="650.00" /><line style="stroke:blue;fill:blue;" id="14281" x2="720.00" x1="650.00" y1="650.00" y2="620.00" /><line style="stroke:blue;fill:blue;" id="14282" x2="750.00" x1="650.00" y1="650.00" y2="680.00" /><line style="stroke:blue;fill:blue;" id="14283" x2="750.00" x1="680.00" y1="350.00" y2="350.00" /><line style="stroke:blue;fill:blue;" id="14284" x2="650.00" x1="680.00" y1="350.00" y2="300.00" /><line style="stroke:blue;fill:blue;" id="14285" x2="900.00" x1="680.00" y1="400.00" y2="450.00" /><line style="stroke:blue;fill:blue;" id="14286" x2="810.00" x1="680.00" y1="400.00" y2="460.00" /><line style="stroke:blue;fill:blue;" id="14287" x2="550.00" x1="680.00" y1="400.00" y2="320.00" /><line style="stroke:blue;fill:blue;" id="14288" x2="550.00" x1="700.00" y1="50.00" y2="50.00" /><line style="stroke:blue;fill:blue;" id="14289" x2="550.00" x1="700.00" y1="50.00" y2="250.00" /><line style="stroke:blue;fill:blue;" id="14290" x2="800.00" x1="700.00" y1="50.00" y2="80.00" /><line style="stroke:blue;fill:blue;" id="14291" x2="750.00" x1="700.00" y1="50.00" y2="250.00" /><line style="stroke:blue;fill:blue;" id="14292" x2="650.00" x1="700.00" y1="50.00" y2="250.00" /><line style="stroke:blue;fill:blue;" id="14293" x2="650.00" x1="720.00" y1="620.00" y2="650.00" /><line style="stroke:blue;fill:blue;" id="14294" x2="750.00" x1="720.00" y1="620.00" y2="680.00" /><line style="stroke:blue;fill:blue;" id="14295" x2="780.00" x1="720.00" y1="620.00" y2="580.00" /><line style="stroke:blue;fill:blue;" id="14296" x2="780.00" x1="750.00" y1="250.00" y2="300.00" /><line style="stroke:blue;fill:blue;" id="14297" x2="700.00" x1="750.00" y1="250.00" y2="50.00" /><line style="stroke:blue;fill:blue;" id="14298" x2="650.00" x1="750.00" y1="250.00" y2="250.00" /><line style="stroke:blue;fill:blue;" id="14299" x2="800.00" x1="750.00" y1="250.00" y2="250.00" /><line style="stroke:blue;fill:blue;" id="14300" x2="650.00" x1="750.00" y1="680.00" y2="650.00" /><line style="stroke:blue;fill:blue;" id="14301" x2="720.00" x1="750.00" y1="680.00" y2="620.00" /><line style="stroke:blue;fill:blue;" id="14302" x2="780.00" x1="750.00" y1="350.00" y2="300.00" /><line style="stroke:blue;fill:blue;" id="14303" x2="680.00" x1="750.00" y1="350.00" y2="350.00" /><line style="stroke:blue;fill:blue;" id="14304" x2="817.68" x1="750.00" y1="350.00" y2="352.32" /><line style="stroke:blue;fill:blue;" id="14305" x2="800.00" x1="750.00" y1="120.00" y2="150.00" /><line style="stroke:blue;fill:blue;" id="14306" x2="950.00" x1="780.00" y1="300.00" y2="280.00" /><line style="stroke:blue;fill:blue;" id="14307" x2="750.00" x1="780.00" y1="300.00" y2="350.00" /><line style="stroke:blue;fill:blue;" id="14308" x2="750.00" x1="780.00" y1="300.00" y2="250.00" /><line style="stroke:blue;fill:blue;" id="14309" x2="720.00" x1="780.00" y1="580.00" y2="620.00" /><line style="stroke:blue;fill:blue;" id="14310" x2="840.00" x1="780.00" y1="580.00" y2="530.00" /><line style="stroke:blue;fill:blue;" id="14311" x2="880.00" x1="800.00" y1="20.00" y2="20.00" /><line style="stroke:blue;fill:blue;" id="14312" x2="900.00" x1="810.00" y1="460.00" y2="450.00" /><line style="stroke:blue;fill:blue;" id="14313" x2="680.00" x1="810.00" y1="460.00" y2="400.00" /><line style="stroke:blue;fill:blue;" id="14314" x2="900.00" x1="800.00" y1="80.00" y2="180.00" /><line style="stroke:blue;fill:blue;" id="14315" x2="700.00" x1="800.00" y1="80.00" y2="50.00" /><line style="stroke:blue;fill:blue;" id="14316" x2="820.00" x1="800.00" y1="150.00" y2="200.00" /><line style="stroke:blue;fill:blue;" id="14317" x2="750.00" x1="800.00" y1="150.00" y2="120.00" /><line style="stroke:blue;fill:blue;" id="14318" x2="750.00" x1="800.00" y1="250.00" y2="250.00" /><line style="stroke:blue;fill:blue;" id="14319" x2="820.00" x1="800.00" y1="250.00" y2="200.00" /><line style="stroke:blue;fill:blue;" id="14320" x2="750.00" x1="817.68" y1="352.32" y2="350.00" /><line style="stroke:blue;fill:blue;" id="14321" x2="852.32" x1="817.68" y1="352.32" y2="317.68" /><line style="stroke:blue;fill:blue;" id="14322" x2="850.00" x1="817.68" y1="352.32" y2="400.00" /><line style="stroke:blue;fill:blue;" id="14323" x2="800.00" x1="820.00" y1="200.00" y2="250.00" /><line style="stroke:blue;fill:blue;" id="14324" x2="800.00" x1="820.00" y1="200.00" y2="150.00" /><line style="stroke:blue;fill:blue;" id="14325" x2="520.96" x1="840.00" y1="530.00" y2="361.91" /><line style="stroke:blue;fill:blue;" id="14326" x2="780.00" x1="840.00" y1="530.00" y2="580.00" /><line style="stroke:blue;fill:blue;" id="14327" x2="900.00" x1="840.00" y1="530.00" y2="450.00" /><line style="stroke:blue;fill:blue;" id="14328" x2="950.00" x1="880.00" y1="20.00" y2="60.00" /><line style="stroke:blue;fill:blue;" id="14329" x2="800.00" x1="880.00" y1="20.00" y2="20.00" /><line style="stroke:blue;fill:blue;" id="14330" x2="950.00" x1="900.00" y1="180.00" y2="280.00" /><line style="stroke:blue;fill:blue;" id="14331" x2="800.00" x1="900.00" y1="180.00" y2="80.00" /><line style="stroke:blue;fill:blue;" id="14332" x2="1000.00" x1="900.00" y1="180.00" y2="150.00" /><line style="stroke:blue;fill:blue;" id="14333" x2="840.00" x1="900.00" y1="450.00" y2="530.00" /><line style="stroke:blue;fill:blue;" id="14334" x2="950.00" x1="900.00" y1="450.00" y2="500.00" /><line style="stroke:blue;fill:blue;" id="14335" x2="950.00" x1="900.00" y1="450.00" y2="380.00" /><line style="stroke:blue;fill:blue;" id="14336" x2="680.00" x1="900.00" y1="450.00" y2="400.00" /><line style="stroke:blue;fill:blue;" id="14337" x2="810.00" x1="900.00" y1="450.00" y2="460.00" /><line style="stroke:blue;fill:blue;" id="14338" x2="950.00" x1="950.00" y1="280.00" y2="380.00" /><line style="stroke:blue;fill:blue;" id="14339" x2="780.00" x1="950.00" y1="280.00" y2="300.00" /><line style="stroke:blue;fill:blue;" id="14340" x2="900.00" x1="950.00" y1="280.00" y2="180.00" /><line style="stroke:blue;fill:blue;" id="14341" x2="980.00" x1="950.00" y1="60.00" y2="100.00" /><line style="stroke:blue;fill:blue;" id="14342" x2="880.00" x1="950.00" y1="60.00" y2="20.00" /><line style="stroke:blue;fill:blue;" id="14343" x2="900.00" x1="950.00" y1="500.00" y2="450.00" /><line style="stroke:blue;fill:blue;" id="14344" x2="1000.00" x1="950.00" y1="500.00" y2="540.00" /><line style="stroke:blue;fill:blue;" id="14345" x2="900.00" x1="950.00" y1="380.00" y2="450.00" /><line style="stroke:blue;fill:blue;" id="14346" x2="950.00" x1="950.00" y1="380.00" y2="280.00" /><line style="stroke:blue;fill:blue;" id="14347" x2="1000.00" x1="980.00" y1="100.00" y2="150.00" /><line style="stroke:blue;fill:blue;" id="14348" x2="950.00" x1="980.00" y1="100.00" y2="60.00" /><line style="stroke:blue;fill:blue;" id="14349" x2="950.00" x1="1000.00" y1="540.00" y2="500.00" /><line style="stroke:blue;fill:blue;" id="14350" x2="1000.00" x1="1000.00" y1="200.00" y2="150.00" /><line style="stroke:blue;fill:blue;" id="14351" x2="900.00" x1="1000.00" y1="150.00" y2="180.00" /><line style="stroke:blue;fill:blue;" id="14352" x2="1000.00" x1="1000.00" y1="150.00" y2="200.00" /><line style="stroke:blue;fill:blue;" id="14353" x2="980.00" x1="1000.00" y1="150.00" y2="100.00" /><line style="stroke:blue;fill:blue;" id="14354" x2="100.00" x1="20.00" y1="80.00" y2="100.00" /><line style="stroke:blue;fill:blue;" id="14355" x2="20.00" x1="20.00" y1="750.00" y2="700.00" /><line style="stroke:blue;fill:blue;" id="14356" x2="120.00" x1="50.00" y1="620.00" y2="630.00" /><line style="stroke:blue;fill:blue;" id="14357" x2="100.00" x1="50.00" y1="550.00" y2="520.00" /><line style="stroke:blue;fill:blue;" id="14358" x2="150.00" x1="80.00" y1="50.00" y2="75.50" /><line style="stroke:blue;fill:blue;" id="14359" x2="250.00" x1="150.00" y1="750.00" y2="750.00" /><line style="stroke:blue;fill:blue;" id="14360" x2="20.00" x1="150.00" y1="750.00" y2="700.00" /><line style="stroke:blue;fill:blue;" id="14361" x2="520.96" x1="140.00" y1="350.00" y2="361.91" /><line style="stroke:blue;fill:blue;" id="14362" x2="120.00" x1="140.00" y1="350.00" y2="180.00" /><line style="stroke:blue;fill:blue;" id="14363" x2="150.00" x1="200.00" y1="50.00" y2="75.50" /><line style="stroke:blue;fill:blue;" id="14364" x2="182.32" x1="250.00" y1="610.00" y2="647.68" /><line style="stroke:blue;fill:blue;" id="14365" x2="150.00" x1="250.00" y1="750.00" y2="750.00" /><line style="stroke:blue;fill:blue;" id="14366" x2="250.00" x1="250.00" y1="750.00" y2="700.00" /><line style="stroke:blue;fill:blue;" id="14367" x2="320.00" x1="300.00" y1="530.00" y2="480.00" /><line style="stroke:blue;fill:blue;" id="14368" x2="400.00" x1="390.00" y1="540.00" y2="480.00" /><line style="stroke:blue;fill:blue;" id="14369" x2="500.00" x1="440.00" y1="590.00" y2="550.00" /><line style="stroke:blue;fill:blue;" id="14370" x2="400.00" x1="480.00" y1="420.00" y2="400.00" /><line style="stroke:blue;fill:blue;" id="14371" x2="550.00" x1="499.04" y1="318.09" y2="320.00" /><line style="stroke:blue;fill:blue;" id="14372" x2="140.00" x1="520.96" y1="361.91" y2="350.00" /><line style="stroke:blue;fill:blue;" id="14373" x2="840.00" x1="520.96" y1="361.91" y2="530.00" /><line style="stroke:blue;fill:blue;" id="14374" x2="817.68" x1="852.32" y1="317.68" y2="352.32" /><line style="stroke:blue;fill:blue;" id="14375" x2="817.68" x1="850.00" y1="400.00" y2="352.32" /></svg>
