<?xml version="1.0" standalone="yes"?><!DOCTYPE svg PUBLIC "-//W3C//DTD SVG 1.1//EN" "http://www.w3.org/Graphics/SVG/1.1/DTD/svg11.dtd"[]><svg height="800.00" id="13812" width="1050.00" xmlns="http://www.w3.org/2000/svg" xmlns:xlink="http://www.w3.org/1999/xlink"><rect Type="system" Region="西玛特尔" height="5.00" y="150.00" Name="洛古图尔" width="5.00" x="20.00" id="13813" ID="30042547" /><text x="20.00" y="150.00" id="13814">洛古图尔</text><rect Type="system" Region="西玛特尔" height="5.00" y="500.00" Name="鲁尔姆" width="5.00" x="20.00" id="13816" ID="30002516" /><text x="20.00" y="500.00" id="13817">鲁尔姆</text><rect Type="system" Region="西玛特尔" height="5.00" y="700.00" Name="希瑟伊德" width="5.00" x="20.00" id="13819" ID="30002539" /><text x="20.00" y="700.00" id="13820">希瑟伊德</text><rect Type="system" Region="西玛特尔" height="5.00" y="350.00" Name="欧菲姆" width="5.00" x="50.00" id="13822" ID="30002515" /><text x="50.00" y="350.00" id="13823">欧菲姆</text><rect Type="system" Region="西玛特尔" height="5.00" y="450.00" Name="波斯伯格" width="5.00" x="80.00" id="13825" ID="30002514" /><text x="80.00" y="450.00" id="13826">波斯伯格</text><rect Type="system" Region="西玛特尔" height="5.00" y="400.00" Name="达马林" width="5.00" x="80.00" id="13828" ID="30002513" /><text x="80.00" y="400.00" id="13829">达马林</text><rect Type="system" Region="西玛特尔" height="5.00" y="100.00" Name="瓦拉特" width="5.00" x="100.00" id="13831" ID="30002573" /><text x="100.00" y="100.00" id="13832">瓦拉特</text><rect Type="system" Region="西玛特尔" height="5.00" y="520.00" Name="古摩洛歌德" width="5.00" x="100.00" id="13834" ID="30002517" /><text x="100.00" y="520.00" id="13835">古摩洛歌德</text><rect Type="system" Region="西玛特尔" height="5.00" y="630.00" Name="瓦尔蒂" width="5.00" x="120.00" id="13837" ID="30002538" /><text x="120.00" y="630.00" id="13838">瓦尔蒂</text><rect Type="system" Region="西玛特尔" height="5.00" y="180.00" Name="玛吉库" width="5.00" x="120.00" id="13840" ID="30002570" /><text x="120.00" y="180.00" id="13841">玛吉库</text><rect Type="system" Region="西玛特尔" height="5.00" y="20.00" Name="哈德加戈" width="5.00" x="120.00" id="13843" ID="30012547" /><text x="120.00" y="20.00" id="13844">哈德加戈</text><rect Type="system" Region="西玛特尔" height="5.00" y="75.50" Name="尤斯塔" width="5.00" x="150.00" id="13846" ID="30002543" /><text x="150.00" y="75.50" id="13847">尤斯塔</text><rect Type="system" Region="西玛特尔" height="5.00" y="682.32" Name="兰多恩" width="5.00" x="147.68" id="13849" ID="30002540" /><text x="147.68" y="682.32" id="13850">兰多恩</text><rect Type="system" Region="西玛特尔" height="5.00" y="550.00" Name="埃玛马克" width="5.00" x="150.00" id="13852" ID="30002537" /><text x="150.00" y="550.00" id="13853">埃玛马克</text><rect Type="system" Region="西玛特尔" height="5.00" y="124.50" Name="基里莫科努尔" width="5.00" x="150.00" id="13855" ID="30022547" /><text x="150.00" y="124.50" id="13856">基里莫科努尔</text><rect Type="system" Region="西玛特尔" height="5.00" y="400.00" Name="阿拉库古" width="5.00" x="150.00" id="13858" ID="30002512" /><text x="150.00" y="400.00" id="13859">阿拉库古</text><rect Type="system" Region="西玛特尔" height="5.00" y="250.00" Name="吉格" width="5.00" x="180.00" id="13861" ID="30002529" /><text x="180.00" y="250.00" id="13862">吉格</text><rect Type="system" Region="西玛特尔" height="5.00" y="647.68" Name="奥加" width="5.00" x="182.32" id="13864" ID="30002542" /><text x="182.32" y="647.68" id="13865">奥加</text><rect Type="system" Region="西玛特尔" height="5.00" y="320.00" Name="埃维斯贝尔" width="5.00" x="180.00" id="13867" ID="30002530" /><text x="180.00" y="320.00" id="13868">埃维斯贝尔</text><rect Type="system" Region="西玛特尔" height="5.00" y="500.00" Name="奥索古尔" width="5.00" x="220.00" id="13870" ID="30002506" /><text x="220.00" y="500.00" id="13871">奥索古尔</text><rect Type="system" Region="西玛特尔" height="5.00" y="180.00" Name="昂加" width="5.00" x="220.00" id="13873" ID="30002568" /><text x="220.00" y="180.00" id="13874">昂加</text><rect Type="system" Region="西玛特尔" height="5.00" y="450.00" Name="阿布德班" width="5.00" x="250.00" id="13876" ID="30002507" /><text x="250.00" y="450.00" id="13877">阿布德班</text><rect Type="system" Region="西玛特尔" height="5.00" y="80.00" Name="劳斯特威克" width="5.00" x="250.00" id="13879" ID="30002545" /><text x="250.00" y="80.00" id="13880">劳斯特威克</text><rect Type="system" Region="西玛特尔" height="5.00" y="220.00" Name="拉尔库戈伊" width="5.00" x="250.00" id="13882" ID="30032547" /><text x="250.00" y="220.00" id="13883">拉尔库戈伊</text><rect Type="system" Region="西玛特尔" height="5.00" y="700.00" Name="达尔" width="5.00" x="250.00" id="13885" ID="30002541" /><text x="250.00" y="700.00" id="13886">达尔</text><rect Type="system" Region="西玛特尔" height="5.00" y="300.00" Name="法若恩" width="5.00" x="250.00" id="13888" ID="30002526" /><text x="250.00" y="300.00" id="13889">法若恩</text><rect Type="system" Region="西玛特尔" height="5.00" y="50.00" Name="伊森杜迪克" width="5.00" x="300.00" id="13891" ID="30002546" /><text x="300.00" y="50.00" id="13892">伊森杜迪克</text><rect Type="system" Region="西玛特尔" height="5.00" y="420.00" Name="伦斯" width="5.00" x="300.00" id="13894" ID="30002510" /><text x="300.00" y="420.00" id="13895">伦斯</text><rect Type="system" Region="西玛特尔" height="5.00" y="200.00" Name="奥萨姆尼" width="5.00" x="310.00" id="13897" ID="30002569" /><text x="310.00" y="200.00" id="13898">奥萨姆尼</text><rect Type="system" Region="西玛特尔" height="5.00" y="280.00" Name="伊林福理克" width="5.00" x="320.00" id="13900" ID="30002527" /><text x="320.00" y="280.00" id="13901">伊林福理克</text><rect Type="system" Region="西玛特尔" height="5.00" y="480.00" Name="奥达特里克" width="5.00" x="320.00" id="13903" ID="30002509" /><text x="320.00" y="480.00" id="13904">奥达特里克</text><rect Type="system" Region="西玛特尔" height="5.00" y="120.00" Name="帕多尔" width="5.00" x="310.00" id="13906" ID="30002544" /><text x="310.00" y="120.00" id="13907">帕多尔</text><rect Type="system" Region="西玛特尔" height="5.00" y="50.00" Name="埃莫奥德" width="5.00" x="380.00" id="13909" ID="30002547" /><text x="380.00" y="50.00" id="13910">埃莫奥德</text><rect Type="system" Region="西玛特尔" height="5.00" y="160.00" Name="欧勒姆福" width="5.00" x="380.00" id="13912" ID="30002571" /><text x="380.00" y="160.00" id="13913">欧勒姆福</text><rect Type="system" Region="西玛特尔" height="5.00" y="400.00" Name="梅拉库夫" width="5.00" x="400.00" id="13915" ID="30002525" /><text x="400.00" y="400.00" id="13916">梅拉库夫</text><rect Type="system" Region="西玛特尔" height="5.00" y="280.00" Name="宝吉尼亚" width="5.00" x="400.00" id="13918" ID="30002528" /><text x="400.00" y="280.00" id="13919">宝吉尼亚</text><rect Type="system" Region="西玛特尔" height="5.00" y="480.00" Name="泰特达尔德" width="5.00" x="400.00" id="13921" ID="30002508" /><text x="400.00" y="480.00" id="13922">泰特达尔德</text><rect Type="system" Region="西玛特尔" height="5.00" y="210.00" Name="胡尔加芬" width="5.00" x="430.00" id="13924" ID="30002572" /><text x="430.00" y="210.00" id="13925">胡尔加芬</text><rect Type="system" Region="西玛特尔" height="5.00" y="50.00" Name="伊莫戈兰伦" width="5.00" x="450.00" id="13927" ID="30002548" /><text x="450.00" y="50.00" id="13928">伊莫戈兰伦</text><rect Type="system" Region="西玛特尔" height="5.00" y="500.00" Name="伊瓦尔" width="5.00" x="480.00" id="13930" ID="30002524" /><text x="480.00" y="500.00" id="13931">伊瓦尔</text><rect Type="system" Region="西玛特尔" height="5.00" y="100.00" Name="埃特古尔" width="5.00" x="500.00" id="13933" ID="30002557" /><text x="500.00" y="100.00" id="13934">埃特古尔</text><rect Type="system" Region="西玛特尔" height="5.00" y="550.00" Name="埃美纳卡" width="5.00" x="500.00" id="13936" ID="30002511" /><text x="500.00" y="550.00" id="13937">埃美纳卡</text><rect Type="system" Region="西玛特尔" height="5.00" y="680.00" Name="托德克" width="5.00" x="520.00" id="13939" ID="30032505" /><text x="520.00" y="680.00" id="13940">托德克</text><rect Type="system" Region="西玛特尔" height="5.00" y="600.00" Name="休姆" width="5.00" x="520.00" id="13942" ID="30002505" /><text x="520.00" y="600.00" id="13943">休姆</text><rect Type="system" Region="西玛特尔" height="5.00" y="450.00" Name="尤斯特里" width="5.00" x="550.00" id="13945" ID="30042505" /><text x="550.00" y="450.00" id="13946">尤斯特里</text><rect Type="system" Region="西玛特尔" height="5.00" y="50.00" Name="埃伊费尔" width="5.00" x="550.00" id="13948" ID="30002555" /><text x="550.00" y="50.00" id="13949">埃伊费尔</text><rect Type="system" Region="西玛特尔" height="5.00" y="320.00" Name="瓜塔特伦" width="5.00" x="550.00" id="13951" ID="30002560" /><text x="550.00" y="320.00" id="13952">瓜塔特伦</text><rect Type="system" Region="西玛特尔" height="5.00" y="250.00" Name="因加恩" width="5.00" x="550.00" id="13954" ID="30002559" /><text x="550.00" y="250.00" id="13955">因加恩</text><rect Type="system" Region="西玛特尔" height="5.00" y="650.00" Name="伊德马博多斯" width="5.00" x="580.00" id="13957" ID="30002518" /><text x="580.00" y="650.00" id="13958">伊德马博多斯</text><rect Type="system" Region="西玛特尔" height="5.00" y="100.00" Name="恩多拉夫" width="5.00" x="600.00" id="13960" ID="30002558" /><text x="600.00" y="100.00" id="13961">恩多拉夫</text><rect Type="system" Region="西玛特尔" height="5.00" y="520.00" Name="马鲁克克" width="5.00" x="590.00" id="13963" ID="30012505" /><text x="590.00" y="520.00" id="13964">马鲁克克</text><rect Type="system" Region="西玛特尔" height="5.00" y="300.00" Name="卡图古姆" width="5.00" x="650.00" id="13966" ID="30002580" /><text x="650.00" y="300.00" id="13967">卡图古姆</text><rect Type="system" Region="西玛特尔" height="5.00" y="250.00" Name="所特伦卓" width="5.00" x="650.00" id="13969" ID="30002575" /><text x="650.00" y="250.00" id="13970">所特伦卓</text><rect Type="system" Region="西玛特尔" height="5.00" y="650.00" Name="库罗素尔" width="5.00" x="650.00" id="13972" ID="30002519" /><text x="650.00" y="650.00" id="13973">库罗素尔</text><rect Type="system" Region="西玛特尔" height="5.00" y="350.00" Name="伯格勒克" width="5.00" x="680.00" id="13975" ID="30002553" /><text x="680.00" y="350.00" id="13976">伯格勒克</text><rect Type="system" Region="西玛特尔" height="5.00" y="400.00" Name="洛克菲尔" width="5.00" x="680.00" id="13978" ID="30002534" /><text x="680.00" y="400.00" id="13979">洛克菲尔</text><rect Type="system" Region="西玛特尔" height="5.00" y="50.00" Name="古萨恩杜" width="5.00" x="700.00" id="13981" ID="30002556" /><text x="700.00" y="50.00" id="13982">古萨恩杜</text><rect Type="system" Region="西玛特尔" height="5.00" y="620.00" Name="杜吉里努尔" width="5.00" x="720.00" id="13984" ID="30002520" /><text x="720.00" y="620.00" id="13985">杜吉里努尔</text><rect Type="system" Region="西玛特尔" height="5.00" y="250.00" Name="农德迪尔" width="5.00" x="750.00" id="13987" ID="30002574" /><text x="750.00" y="250.00" id="13988">农德迪尔</text><rect Type="system" Region="西玛特尔" height="5.00" y="680.00" Name="希斯特" width="5.00" x="750.00" id="13990" ID="30002521" /><text x="750.00" y="680.00" id="13991">希斯特</text><rect Type="system" Region="西玛特尔" height="5.00" y="350.00" Name="阿拉古鲁迪" width="5.00" x="750.00" id="13993" ID="30002551" /><text x="750.00" y="350.00" id="13994">阿拉古鲁迪</text><rect Type="system" Region="西玛特尔" height="5.00" y="120.00" Name="赫德基维特" width="5.00" x="750.00" id="13996" ID="30002579" /><text x="750.00" y="120.00" id="13997">赫德基维特</text><rect Type="system" Region="西玛特尔" height="5.00" y="300.00" Name="罗尼考" width="5.00" x="780.00" id="13999" ID="30002550" /><text x="780.00" y="300.00" id="14000">罗尼考</text><rect Type="system" Region="西玛特尔" height="5.00" y="580.00" Name="欧布洛贝尔" width="5.00" x="780.00" id="14002" ID="30002522" /><text x="780.00" y="580.00" id="14003">欧布洛贝尔</text><rect Type="system" Region="西玛特尔" height="5.00" y="20.00" Name="尤瑞斯" width="5.00" x="800.00" id="14005" ID="30002567" /><text x="800.00" y="20.00" id="14006">尤瑞斯</text><rect Type="system" Region="西玛特尔" height="5.00" y="460.00" Name="爱巴格杜尔" width="5.00" x="810.00" id="14008" ID="30002535" /><text x="810.00" y="460.00" id="14009">爱巴格杜尔</text><rect Type="system" Region="西玛特尔" height="5.00" y="80.00" Name="奥伦" width="5.00" x="800.00" id="14011" ID="30002561" /><text x="800.00" y="80.00" id="14012">奥伦</text><rect Type="system" Region="西玛特尔" height="5.00" y="150.00" Name="奥特拉伦" width="5.00" x="800.00" id="14014" ID="30002578" /><text x="800.00" y="150.00" id="14015">奥特拉伦</text><rect Type="system" Region="西玛特尔" height="5.00" y="250.00" Name="农德马蒂" width="5.00" x="800.00" id="14017" ID="30002576" /><text x="800.00" y="250.00" id="14018">农德马蒂</text><rect Type="system" Region="西玛特尔" height="5.00" y="352.32" Name="维斯克贝尔" width="5.00" x="817.68" id="14020" ID="30002554" /><text x="817.68" y="352.32" id="14021">维斯克贝尔</text><rect Type="system" Region="西玛特尔" height="5.00" y="200.00" Name="邦丁达斯" width="5.00" x="820.00" id="14023" ID="30002577" /><text x="820.00" y="200.00" id="14024">邦丁达斯</text><rect Type="system" Region="西玛特尔" height="5.00" y="530.00" Name="奥斯塔卡" width="5.00" x="840.00" id="14026" ID="30002523" /><text x="840.00" y="530.00" id="14027">奥斯塔卡</text><rect Type="system" Region="西玛特尔" height="5.00" y="20.00" Name="克里尔" width="5.00" x="880.00" id="14029" ID="30002566" /><text x="880.00" y="20.00" id="14030">克里尔</text><rect Type="system" Region="西玛特尔" height="5.00" y="180.00" Name="埃达尔" width="5.00" x="900.00" id="14032" ID="30002552" /><text x="900.00" y="180.00" id="14033">埃达尔</text><rect Type="system" Region="西玛特尔" height="5.00" y="450.00" Name="吉尔勒克" width="5.00" x="900.00" id="14035" ID="30002531" /><text x="900.00" y="450.00" id="14036">吉尔勒克</text><rect Type="system" Region="西玛特尔" height="5.00" y="280.00" Name="奥弗根" width="5.00" x="950.00" id="14038" ID="30002549" /><text x="950.00" y="280.00" id="14039">奥弗根</text><rect Type="system" Region="西玛特尔" height="5.00" y="60.00" Name="埃皮恩" width="5.00" x="950.00" id="14041" ID="30002565" /><text x="950.00" y="60.00" id="14042">埃皮恩</text><rect Type="system" Region="西玛特尔" height="5.00" y="500.00" Name="唐格夫" width="5.00" x="950.00" id="14044" ID="30002532" /><text x="950.00" y="500.00" id="14045">唐格夫</text><rect Type="system" Region="西玛特尔" height="5.00" y="380.00" Name="吉尔伯德" width="5.00" x="950.00" id="14047" ID="30002533" /><text x="950.00" y="380.00" id="14048">吉尔伯德</text><rect Type="system" Region="西玛特尔" height="5.00" y="100.00" Name="加仑德" width="5.00" x="980.00" id="14050" ID="30002564" /><text x="980.00" y="100.00" id="14051">加仑德</text><rect Type="system" Region="西玛特尔" height="5.00" y="540.00" Name="埃博多德" width="5.00" x="1000.00" id="14053" ID="30002536" /><text x="1000.00" y="540.00" id="14054">埃博多德</text><rect Type="system" Region="西玛特尔" height="5.00" y="200.00" Name="伊格缪尔" width="5.00" x="1000.00" id="14056" ID="30002563" /><text x="1000.00" y="200.00" id="14057">伊格缪尔</text><rect Type="system" Region="西玛特尔" height="5.00" y="150.00" Name="特瑞尔" width="5.00" x="1000.00" id="14059" ID="30002562" /><text x="1000.00" y="150.00" id="14060">特瑞尔</text><rect Type="system" Region="美特伯里斯" height="5.00" y="80.00" Name="伊尔拉姆" width="5.00" x="20.00" id="14062" ID="30003413" /><text x="20.00" y="80.00" id="14063">伊尔拉姆</text><rect Type="system" Region="金纳泽" height="5.00" y="750.00" Name="伊格赫伦德" width="5.00" x="20.00" id="14065" ID="30002693" /><text x="20.00" y="750.00" id="14066">伊格赫伦德</text><rect Type="system" Region="破碎" height="5.00" y="620.00" Name="俄扎拉" width="5.00" x="50.00" id="14068" ID="30002962" /><text x="50.00" y="620.00" id="14069">俄扎拉</text><rect Type="system" Region="美特伯里斯" height="5.00" y="550.00" Name="艾格玛尔" width="5.00" x="50.00" id="14071" ID="30002099" /><text x="50.00" y="550.00" id="14072">艾格玛尔</text><rect Type="system" Region="美特伯里斯" height="5.00" y="50.00" Name="赫克" width="5.00" x="80.00" id="14074" ID="30002053" /><text x="80.00" y="50.00" id="14075">赫克</text><rect Type="system" Region="美特伯里斯" height="5.00" y="750.00" Name="伊斯祖尔" width="5.00" x="150.00" id="14077" ID="30002095" /><text x="150.00" y="750.00" id="14078">伊斯祖尔</text><rect Type="system" Region="摩登赫斯" height="5.00" y="350.00" Name="提鲁苏德" width="5.00" x="140.00" id="14080" ID="30002385" /><text x="140.00" y="350.00" id="14081">提鲁苏德</text><rect Type="system" Region="美特伯里斯" height="5.00" y="50.00" Name="奥布拉" width="5.00" x="200.00" id="14083" ID="30003388" /><text x="200.00" y="50.00" id="14084">奥布拉</text><rect Type="system" Region="幽暗之域" height="5.00" y="610.00" Name="阔尔蒙尼" width="5.00" x="250.00" id="14086" ID="30003068" /><text x="250.00" y="610.00" id="14087">阔尔蒙尼</text><rect Type="system" Region="美特伯里斯" height="5.00" y="750.00" Name="赫加格德" width="5.00" x="250.00" id="14089" ID="30002096" /><text x="250.00" y="750.00" id="14090">赫加格德</text><rect Type="system" Region="德里克" height="5.00" y="530.00" Name="加尔克" width="5.00" x="300.00" id="14092" ID="30000004" /><text x="300.00" y="530.00" id="14093">加尔克</text><rect Type="system" Region="德里克" height="5.00" y="540.00" Name="尤普林古尔" width="5.00" x="390.00" id="14095" ID="30000037" /><text x="390.00" y="540.00" id="14096">尤普林古尔</text><rect Type="system" Region="美特伯里斯" height="5.00" y="590.00" Name="阿尔卢浮" width="5.00" x="440.00" id="14098" ID="30003374" /><text x="440.00" y="590.00" id="14099">阿尔卢浮</text><rect Type="system" Region="美特伯里斯" height="5.00" y="420.00" Name="莱丁乔尔" width="5.00" x="480.00" id="14101" ID="30003410" /><text x="480.00" y="420.00" id="14102">莱丁乔尔</text><rect Type="system" Region="美特伯里斯" height="5.00" y="318.09" Name="恩斯图尔" width="5.00" x="499.04" id="14104" ID="30002064" /><text x="499.04" y="318.09" id="14105">恩斯图尔</text><rect Type="system" Region="摩登赫斯" height="5.00" y="361.91" Name="埃伊丁" width="5.00" x="520.96" id="14107" ID="30002383" /><text x="520.96" y="361.91" id="14108">埃伊丁</text><rect Type="system" Region="美特伯里斯" height="5.00" y="317.68" Name="马特贝尔" width="5.00" x="852.32" id="14110" ID="30003444" /><text x="852.32" y="317.68" id="14111">马特贝尔</text><rect Type="system" Region="美特伯里斯" height="5.00" y="400.00" Name="欧菲卡塔林" width="5.00" x="850.00" id="14113" ID="30003460" /><text x="850.00" y="400.00" id="14114">欧菲卡塔林</text><line x2="100.00" style="fill:blue;stroke:blue;" y1="150.00" x1="20.00" id="14116" y2="100.00" /><line x2="80.00" style="fill:blue;stroke:blue;" y1="500.00" x1="20.00" id="14117" y2="450.00" /><line x2="100.00" style="fill:blue;stroke:blue;" y1="500.00" x1="20.00" id="14118" y2="520.00" /><line x2="150.00" style="fill:blue;stroke:blue;" y1="700.00" x1="20.00" id="14119" y2="750.00" /><line x2="150.00" style="fill:blue;stroke:blue;" y1="700.00" x1="20.00" id="14120" y2="550.00" /><line x2="120.00" style="fill:blue;stroke:blue;" y1="700.00" x1="20.00" id="14121" y2="630.00" /><line x2="147.68" style="fill:blue;stroke:blue;" y1="700.00" x1="20.00" id="14122" y2="682.32" /><line x2="250.00" style="fill:blue;stroke:blue;" y1="700.00" x1="20.00" id="14123" y2="700.00" /><line x2="182.32" style="fill:blue;stroke:blue;" y1="700.00" x1="20.00" id="14124" y2="647.68" /><line x2="20.00" style="fill:blue;stroke:blue;" y1="700.00" x1="20.00" id="14125" y2="750.00" /><line x2="80.00" style="fill:blue;stroke:blue;" y1="350.00" x1="50.00" id="14126" y2="400.00" /><line x2="80.00" style="fill:blue;stroke:blue;" y1="450.00" x1="80.00" id="14127" y2="400.00" /><line x2="20.00" style="fill:blue;stroke:blue;" y1="450.00" x1="80.00" id="14128" y2="500.00" /><line x2="100.00" style="fill:blue;stroke:blue;" y1="450.00" x1="80.00" id="14129" y2="520.00" /><line x2="150.00" style="fill:blue;stroke:blue;" y1="400.00" x1="80.00" id="14130" y2="400.00" /><line x2="80.00" style="fill:blue;stroke:blue;" y1="400.00" x1="80.00" id="14131" y2="450.00" /><line x2="50.00" style="fill:blue;stroke:blue;" y1="400.00" x1="80.00" id="14132" y2="350.00" /><line x2="150.00" style="fill:blue;stroke:blue;" y1="100.00" x1="100.00" id="14133" y2="75.50" /><line x2="120.00" style="fill:blue;stroke:blue;" y1="100.00" x1="100.00" id="14134" y2="180.00" /><line x2="20.00" style="fill:blue;stroke:blue;" y1="100.00" x1="100.00" id="14135" y2="80.00" /><line x2="20.00" style="fill:blue;stroke:blue;" y1="100.00" x1="100.00" id="14136" y2="150.00" /><line x2="50.00" style="fill:blue;stroke:blue;" y1="520.00" x1="100.00" id="14137" y2="550.00" /><line x2="80.00" style="fill:blue;stroke:blue;" y1="520.00" x1="100.00" id="14138" y2="450.00" /><line x2="20.00" style="fill:blue;stroke:blue;" y1="520.00" x1="100.00" id="14139" y2="500.00" /><line x2="150.00" style="fill:blue;stroke:blue;" y1="520.00" x1="100.00" id="14140" y2="550.00" /><line x2="150.00" style="fill:blue;stroke:blue;" y1="630.00" x1="120.00" id="14141" y2="550.00" /><line x2="20.00" style="fill:blue;stroke:blue;" y1="630.00" x1="120.00" id="14142" y2="700.00" /><line x2="147.68" style="fill:blue;stroke:blue;" y1="630.00" x1="120.00" id="14143" y2="682.32" /><line x2="250.00" style="fill:blue;stroke:blue;" y1="630.00" x1="120.00" id="14144" y2="700.00" /><line x2="50.00" style="fill:blue;stroke:blue;" y1="630.00" x1="120.00" id="14145" y2="620.00" /><line x2="140.00" style="fill:blue;stroke:blue;" y1="180.00" x1="120.00" id="14146" y2="350.00" /><line x2="220.00" style="fill:blue;stroke:blue;" y1="180.00" x1="120.00" id="14147" y2="180.00" /><line x2="100.00" style="fill:blue;stroke:blue;" y1="180.00" x1="120.00" id="14148" y2="100.00" /><line x2="150.00" style="fill:blue;stroke:blue;" y1="20.00" x1="120.00" id="14149" y2="75.50" /><line x2="80.00" style="fill:blue;stroke:blue;" y1="75.50" x1="150.00" id="14150" y2="50.00" /><line x2="310.00" style="fill:blue;stroke:blue;" y1="75.50" x1="150.00" id="14151" y2="120.00" /><line x2="250.00" style="fill:blue;stroke:blue;" y1="75.50" x1="150.00" id="14152" y2="80.00" /><line x2="100.00" style="fill:blue;stroke:blue;" y1="75.50" x1="150.00" id="14153" y2="100.00" /><line x2="200.00" style="fill:blue;stroke:blue;" y1="75.50" x1="150.00" id="14154" y2="50.00" /><line x2="120.00" style="fill:blue;stroke:blue;" y1="75.50" x1="150.00" id="14155" y2="20.00" /><line x2="120.00" style="fill:blue;stroke:blue;" y1="682.32" x1="147.68" id="14156" y2="630.00" /><line x2="20.00" style="fill:blue;stroke:blue;" y1="682.32" x1="147.68" id="14157" y2="700.00" /><line x2="250.00" style="fill:blue;stroke:blue;" y1="682.32" x1="147.68" id="14158" y2="700.00" /><line x2="220.00" style="fill:blue;stroke:blue;" y1="550.00" x1="150.00" id="14159" y2="500.00" /><line x2="100.00" style="fill:blue;stroke:blue;" y1="550.00" x1="150.00" id="14160" y2="520.00" /><line x2="120.00" style="fill:blue;stroke:blue;" y1="550.00" x1="150.00" id="14161" y2="630.00" /><line x2="20.00" style="fill:blue;stroke:blue;" y1="550.00" x1="150.00" id="14162" y2="700.00" /><line x2="250.00" style="fill:blue;stroke:blue;" y1="550.00" x1="150.00" id="14163" y2="700.00" /><line x2="182.32" style="fill:blue;stroke:blue;" y1="550.00" x1="150.00" id="14164" y2="647.68" /><line x2="220.00" style="fill:blue;stroke:blue;" y1="124.50" x1="150.00" id="14165" y2="180.00" /><line x2="250.00" style="fill:blue;stroke:blue;" y1="400.00" x1="150.00" id="14166" y2="450.00" /><line x2="80.00" style="fill:blue;stroke:blue;" y1="400.00" x1="150.00" id="14167" y2="400.00" /><line x2="250.00" style="fill:blue;stroke:blue;" y1="250.00" x1="180.00" id="14168" y2="300.00" /><line x2="180.00" style="fill:blue;stroke:blue;" y1="250.00" x1="180.00" id="14169" y2="320.00" /><line x2="220.00" style="fill:blue;stroke:blue;" y1="250.00" x1="180.00" id="14170" y2="180.00" /><line x2="150.00" style="fill:blue;stroke:blue;" y1="647.68" x1="182.32" id="14171" y2="550.00" /><line x2="20.00" style="fill:blue;stroke:blue;" y1="647.68" x1="182.32" id="14172" y2="700.00" /><line x2="250.00" style="fill:blue;stroke:blue;" y1="647.68" x1="182.32" id="14173" y2="700.00" /><line x2="250.00" style="fill:blue;stroke:blue;" y1="647.68" x1="182.32" id="14174" y2="610.00" /><line x2="250.00" style="fill:blue;stroke:blue;" y1="320.00" x1="180.00" id="14175" y2="450.00" /><line x2="250.00" style="fill:blue;stroke:blue;" y1="320.00" x1="180.00" id="14176" y2="300.00" /><line x2="180.00" style="fill:blue;stroke:blue;" y1="320.00" x1="180.00" id="14177" y2="250.00" /><line x2="250.00" style="fill:blue;stroke:blue;" y1="500.00" x1="220.00" id="14178" y2="450.00" /><line x2="150.00" style="fill:blue;stroke:blue;" y1="500.00" x1="220.00" id="14179" y2="550.00" /><line x2="180.00" style="fill:blue;stroke:blue;" y1="180.00" x1="220.00" id="14180" y2="250.00" /><line x2="310.00" style="fill:blue;stroke:blue;" y1="180.00" x1="220.00" id="14181" y2="120.00" /><line x2="250.00" style="fill:blue;stroke:blue;" y1="180.00" x1="220.00" id="14182" y2="80.00" /><line x2="310.00" style="fill:blue;stroke:blue;" y1="180.00" x1="220.00" id="14183" y2="200.00" /><line x2="120.00" style="fill:blue;stroke:blue;" y1="180.00" x1="220.00" id="14184" y2="180.00" /><line x2="150.00" style="fill:blue;stroke:blue;" y1="180.00" x1="220.00" id="14185" y2="124.50" /><line x2="220.00" style="fill:blue;stroke:blue;" y1="450.00" x1="250.00" id="14186" y2="500.00" /><line x2="320.00" style="fill:blue;stroke:blue;" y1="450.00" x1="250.00" id="14187" y2="480.00" /><line x2="300.00" style="fill:blue;stroke:blue;" y1="450.00" x1="250.00" id="14188" y2="420.00" /><line x2="150.00" style="fill:blue;stroke:blue;" y1="450.00" x1="250.00" id="14189" y2="400.00" /><line x2="180.00" style="fill:blue;stroke:blue;" y1="450.00" x1="250.00" id="14190" y2="320.00" /><line x2="150.00" style="fill:blue;stroke:blue;" y1="80.00" x1="250.00" id="14191" y2="75.50" /><line x2="310.00" style="fill:blue;stroke:blue;" y1="80.00" x1="250.00" id="14192" y2="120.00" /><line x2="300.00" style="fill:blue;stroke:blue;" y1="80.00" x1="250.00" id="14193" y2="50.00" /><line x2="220.00" style="fill:blue;stroke:blue;" y1="80.00" x1="250.00" id="14194" y2="180.00" /><line x2="310.00" style="fill:blue;stroke:blue;" y1="220.00" x1="250.00" id="14195" y2="200.00" /><line x2="250.00" style="fill:blue;stroke:blue;" y1="700.00" x1="250.00" id="14196" y2="750.00" /><line x2="150.00" style="fill:blue;stroke:blue;" y1="700.00" x1="250.00" id="14197" y2="550.00" /><line x2="120.00" style="fill:blue;stroke:blue;" y1="700.00" x1="250.00" id="14198" y2="630.00" /><line x2="20.00" style="fill:blue;stroke:blue;" y1="700.00" x1="250.00" id="14199" y2="700.00" /><line x2="147.68" style="fill:blue;stroke:blue;" y1="700.00" x1="250.00" id="14200" y2="682.32" /><line x2="182.32" style="fill:blue;stroke:blue;" y1="700.00" x1="250.00" id="14201" y2="647.68" /><line x2="300.00" style="fill:blue;stroke:blue;" y1="300.00" x1="250.00" id="14202" y2="420.00" /><line x2="400.00" style="fill:blue;stroke:blue;" y1="300.00" x1="250.00" id="14203" y2="400.00" /><line x2="320.00" style="fill:blue;stroke:blue;" y1="300.00" x1="250.00" id="14204" y2="280.00" /><line x2="180.00" style="fill:blue;stroke:blue;" y1="300.00" x1="250.00" id="14205" y2="250.00" /><line x2="180.00" style="fill:blue;stroke:blue;" y1="300.00" x1="250.00" id="14206" y2="320.00" /><line x2="250.00" style="fill:blue;stroke:blue;" y1="50.00" x1="300.00" id="14207" y2="80.00" /><line x2="380.00" style="fill:blue;stroke:blue;" y1="50.00" x1="300.00" id="14208" y2="50.00" /><line x2="250.00" style="fill:blue;stroke:blue;" y1="420.00" x1="300.00" id="14209" y2="450.00" /><line x2="320.00" style="fill:blue;stroke:blue;" y1="420.00" x1="300.00" id="14210" y2="480.00" /><line x2="250.00" style="fill:blue;stroke:blue;" y1="420.00" x1="300.00" id="14211" y2="300.00" /><line x2="320.00" style="fill:blue;stroke:blue;" y1="200.00" x1="310.00" id="14212" y2="280.00" /><line x2="220.00" style="fill:blue;stroke:blue;" y1="200.00" x1="310.00" id="14213" y2="180.00" /><line x2="380.00" style="fill:blue;stroke:blue;" y1="200.00" x1="310.00" id="14214" y2="160.00" /><line x2="250.00" style="fill:blue;stroke:blue;" y1="200.00" x1="310.00" id="14215" y2="220.00" /><line x2="250.00" style="fill:blue;stroke:blue;" y1="280.00" x1="320.00" id="14216" y2="300.00" /><line x2="400.00" style="fill:blue;stroke:blue;" y1="280.00" x1="320.00" id="14217" y2="280.00" /><line x2="310.00" style="fill:blue;stroke:blue;" y1="280.00" x1="320.00" id="14218" y2="200.00" /><line x2="300.00" style="fill:blue;stroke:blue;" y1="480.00" x1="320.00" id="14219" y2="530.00" /><line x2="250.00" style="fill:blue;stroke:blue;" y1="480.00" x1="320.00" id="14220" y2="450.00" /><line x2="400.00" style="fill:blue;stroke:blue;" y1="480.00" x1="320.00" id="14221" y2="480.00" /><line x2="300.00" style="fill:blue;stroke:blue;" y1="480.00" x1="320.00" id="14222" y2="420.00" /><line x2="150.00" style="fill:blue;stroke:blue;" y1="120.00" x1="310.00" id="14223" y2="75.50" /><line x2="250.00" style="fill:blue;stroke:blue;" y1="120.00" x1="310.00" id="14224" y2="80.00" /><line x2="380.00" style="fill:blue;stroke:blue;" y1="120.00" x1="310.00" id="14225" y2="50.00" /><line x2="220.00" style="fill:blue;stroke:blue;" y1="120.00" x1="310.00" id="14226" y2="180.00" /><line x2="310.00" style="fill:blue;stroke:blue;" y1="50.00" x1="380.00" id="14227" y2="120.00" /><line x2="300.00" style="fill:blue;stroke:blue;" y1="50.00" x1="380.00" id="14228" y2="50.00" /><line x2="450.00" style="fill:blue;stroke:blue;" y1="50.00" x1="380.00" id="14229" y2="50.00" /><line x2="310.00" style="fill:blue;stroke:blue;" y1="160.00" x1="380.00" id="14230" y2="200.00" /><line x2="430.00" style="fill:blue;stroke:blue;" y1="160.00" x1="380.00" id="14231" y2="210.00" /><line x2="480.00" style="fill:blue;stroke:blue;" y1="400.00" x1="400.00" id="14232" y2="500.00" /><line x2="250.00" style="fill:blue;stroke:blue;" y1="400.00" x1="400.00" id="14233" y2="300.00" /><line x2="480.00" style="fill:blue;stroke:blue;" y1="400.00" x1="400.00" id="14234" y2="420.00" /><line x2="320.00" style="fill:blue;stroke:blue;" y1="280.00" x1="400.00" id="14235" y2="280.00" /><line x2="430.00" style="fill:blue;stroke:blue;" y1="280.00" x1="400.00" id="14236" y2="210.00" /><line x2="390.00" style="fill:blue;stroke:blue;" y1="480.00" x1="400.00" id="14237" y2="540.00" /><line x2="320.00" style="fill:blue;stroke:blue;" y1="480.00" x1="400.00" id="14238" y2="480.00" /><line x2="480.00" style="fill:blue;stroke:blue;" y1="480.00" x1="400.00" id="14239" y2="500.00" /><line x2="400.00" style="fill:blue;stroke:blue;" y1="210.00" x1="430.00" id="14240" y2="280.00" /><line x2="380.00" style="fill:blue;stroke:blue;" y1="210.00" x1="430.00" id="14241" y2="160.00" /><line x2="380.00" style="fill:blue;stroke:blue;" y1="50.00" x1="450.00" id="14242" y2="50.00" /><line x2="550.00" style="fill:blue;stroke:blue;" y1="50.00" x1="450.00" id="14243" y2="50.00" /><line x2="400.00" style="fill:blue;stroke:blue;" y1="500.00" x1="480.00" id="14244" y2="480.00" /><line x2="500.00" style="fill:blue;stroke:blue;" y1="500.00" x1="480.00" id="14245" y2="550.00" /><line x2="400.00" style="fill:blue;stroke:blue;" y1="500.00" x1="480.00" id="14246" y2="400.00" /><line x2="550.00" style="fill:blue;stroke:blue;" y1="500.00" x1="480.00" id="14247" y2="450.00" /><line x2="550.00" style="fill:blue;stroke:blue;" y1="100.00" x1="500.00" id="14248" y2="50.00" /><line x2="600.00" style="fill:blue;stroke:blue;" y1="100.00" x1="500.00" id="14249" y2="100.00" /><line x2="520.00" style="fill:blue;stroke:blue;" y1="550.00" x1="500.00" id="14250" y2="600.00" /><line x2="480.00" style="fill:blue;stroke:blue;" y1="550.00" x1="500.00" id="14251" y2="500.00" /><line x2="440.00" style="fill:blue;stroke:blue;" y1="550.00" x1="500.00" id="14252" y2="590.00" /><line x2="590.00" style="fill:blue;stroke:blue;" y1="550.00" x1="500.00" id="14253" y2="520.00" /><line x2="580.00" style="fill:blue;stroke:blue;" y1="680.00" x1="520.00" id="14254" y2="650.00" /><line x2="500.00" style="fill:blue;stroke:blue;" y1="600.00" x1="520.00" id="14255" y2="550.00" /><line x2="580.00" style="fill:blue;stroke:blue;" y1="600.00" x1="520.00" id="14256" y2="650.00" /><line x2="480.00" style="fill:blue;stroke:blue;" y1="450.00" x1="550.00" id="14257" y2="500.00" /><line x2="450.00" style="fill:blue;stroke:blue;" y1="50.00" x1="550.00" id="14258" y2="50.00" /><line x2="700.00" style="fill:blue;stroke:blue;" y1="50.00" x1="550.00" id="14259" y2="50.00" /><line x2="500.00" style="fill:blue;stroke:blue;" y1="50.00" x1="550.00" id="14260" y2="100.00" /><line x2="600.00" style="fill:blue;stroke:blue;" y1="50.00" x1="550.00" id="14261" y2="100.00" /><line x2="499.04" style="fill:blue;stroke:blue;" y1="320.00" x1="550.00" id="14262" y2="318.09" /><line x2="680.00" style="fill:blue;stroke:blue;" y1="320.00" x1="550.00" id="14263" y2="400.00" /><line x2="550.00" style="fill:blue;stroke:blue;" y1="320.00" x1="550.00" id="14264" y2="250.00" /><line x2="700.00" style="fill:blue;stroke:blue;" y1="250.00" x1="550.00" id="14265" y2="50.00" /><line x2="550.00" style="fill:blue;stroke:blue;" y1="250.00" x1="550.00" id="14266" y2="320.00" /><line x2="650.00" style="fill:blue;stroke:blue;" y1="250.00" x1="550.00" id="14267" y2="250.00" /><line x2="520.00" style="fill:blue;stroke:blue;" y1="650.00" x1="580.00" id="14268" y2="600.00" /><line x2="650.00" style="fill:blue;stroke:blue;" y1="650.00" x1="580.00" id="14269" y2="650.00" /><line x2="520.00" style="fill:blue;stroke:blue;" y1="650.00" x1="580.00" id="14270" y2="680.00" /><line x2="550.00" style="fill:blue;stroke:blue;" y1="100.00" x1="600.00" id="14271" y2="50.00" /><line x2="500.00" style="fill:blue;stroke:blue;" y1="100.00" x1="600.00" id="14272" y2="100.00" /><line x2="500.00" style="fill:blue;stroke:blue;" y1="520.00" x1="590.00" id="14273" y2="550.00" /><line x2="680.00" style="fill:blue;stroke:blue;" y1="300.00" x1="650.00" id="14274" y2="350.00" /><line x2="650.00" style="fill:blue;stroke:blue;" y1="300.00" x1="650.00" id="14275" y2="250.00" /><line x2="700.00" style="fill:blue;stroke:blue;" y1="250.00" x1="650.00" id="14276" y2="50.00" /><line x2="550.00" style="fill:blue;stroke:blue;" y1="250.00" x1="650.00" id="14277" y2="250.00" /><line x2="750.00" style="fill:blue;stroke:blue;" y1="250.00" x1="650.00" id="14278" y2="250.00" /><line x2="650.00" style="fill:blue;stroke:blue;" y1="250.00" x1="650.00" id="14279" y2="300.00" /><line x2="580.00" style="fill:blue;stroke:blue;" y1="650.00" x1="650.00" id="14280" y2="650.00" /><line x2="720.00" style="fill:blue;stroke:blue;" y1="650.00" x1="650.00" id="14281" y2="620.00" /><line x2="750.00" style="fill:blue;stroke:blue;" y1="650.00" x1="650.00" id="14282" y2="680.00" /><line x2="750.00" style="fill:blue;stroke:blue;" y1="350.00" x1="680.00" id="14283" y2="350.00" /><line x2="650.00" style="fill:blue;stroke:blue;" y1="350.00" x1="680.00" id="14284" y2="300.00" /><line x2="900.00" style="fill:blue;stroke:blue;" y1="400.00" x1="680.00" id="14285" y2="450.00" /><line x2="810.00" style="fill:blue;stroke:blue;" y1="400.00" x1="680.00" id="14286" y2="460.00" /><line x2="550.00" style="fill:blue;stroke:blue;" y1="400.00" x1="680.00" id="14287" y2="320.00" /><line x2="550.00" style="fill:blue;stroke:blue;" y1="50.00" x1="700.00" id="14288" y2="50.00" /><line x2="550.00" style="fill:blue;stroke:blue;" y1="50.00" x1="700.00" id="14289" y2="250.00" /><line x2="800.00" style="fill:blue;stroke:blue;" y1="50.00" x1="700.00" id="14290" y2="80.00" /><line x2="750.00" style="fill:blue;stroke:blue;" y1="50.00" x1="700.00" id="14291" y2="250.00" /><line x2="650.00" style="fill:blue;stroke:blue;" y1="50.00" x1="700.00" id="14292" y2="250.00" /><line x2="650.00" style="fill:blue;stroke:blue;" y1="620.00" x1="720.00" id="14293" y2="650.00" /><line x2="750.00" style="fill:blue;stroke:blue;" y1="620.00" x1="720.00" id="14294" y2="680.00" /><line x2="780.00" style="fill:blue;stroke:blue;" y1="620.00" x1="720.00" id="14295" y2="580.00" /><line x2="780.00" style="fill:blue;stroke:blue;" y1="250.00" x1="750.00" id="14296" y2="300.00" /><line x2="700.00" style="fill:blue;stroke:blue;" y1="250.00" x1="750.00" id="14297" y2="50.00" /><line x2="650.00" style="fill:blue;stroke:blue;" y1="250.00" x1="750.00" id="14298" y2="250.00" /><line x2="800.00" style="fill:blue;stroke:blue;" y1="250.00" x1="750.00" id="14299" y2="250.00" /><line x2="650.00" style="fill:blue;stroke:blue;" y1="680.00" x1="750.00" id="14300" y2="650.00" /><line x2="720.00" style="fill:blue;stroke:blue;" y1="680.00" x1="750.00" id="14301" y2="620.00" /><line x2="780.00" style="fill:blue;stroke:blue;" y1="350.00" x1="750.00" id="14302" y2="300.00" /><line x2="680.00" style="fill:blue;stroke:blue;" y1="350.00" x1="750.00" id="14303" y2="350.00" /><line x2="817.68" style="fill:blue;stroke:blue;" y1="350.00" x1="750.00" id="14304" y2="352.32" /><line x2="800.00" style="fill:blue;stroke:blue;" y1="120.00" x1="750.00" id="14305" y2="150.00" /><line x2="950.00" style="fill:blue;stroke:blue;" y1="300.00" x1="780.00" id="14306" y2="280.00" /><line x2="750.00" style="fill:blue;stroke:blue;" y1="300.00" x1="780.00" id="14307" y2="350.00" /><line x2="750.00" style="fill:blue;stroke:blue;" y1="300.00" x1="780.00" id="14308" y2="250.00" /><line x2="720.00" style="fill:blue;stroke:blue;" y1="580.00" x1="780.00" id="14309" y2="620.00" /><line x2="840.00" style="fill:blue;stroke:blue;" y1="580.00" x1="780.00" id="14310" y2="530.00" /><line x2="880.00" style="fill:blue;stroke:blue;" y1="20.00" x1="800.00" id="14311" y2="20.00" /><line x2="900.00" style="fill:blue;stroke:blue;" y1="460.00" x1="810.00" id="14312" y2="450.00" /><line x2="680.00" style="fill:blue;stroke:blue;" y1="460.00" x1="810.00" id="14313" y2="400.00" /><line x2="900.00" style="fill:blue;stroke:blue;" y1="80.00" x1="800.00" id="14314" y2="180.00" /><line x2="700.00" style="fill:blue;stroke:blue;" y1="80.00" x1="800.00" id="14315" y2="50.00" /><line x2="820.00" style="fill:blue;stroke:blue;" y1="150.00" x1="800.00" id="14316" y2="200.00" /><line x2="750.00" style="fill:blue;stroke:blue;" y1="150.00" x1="800.00" id="14317" y2="120.00" /><line x2="750.00" style="fill:blue;stroke:blue;" y1="250.00" x1="800.00" id="14318" y2="250.00" /><line x2="820.00" style="fill:blue;stroke:blue;" y1="250.00" x1="800.00" id="14319" y2="200.00" /><line x2="750.00" style="fill:blue;stroke:blue;" y1="352.32" x1="817.68" id="14320" y2="350.00" /><line x2="852.32" style="fill:blue;stroke:blue;" y1="352.32" x1="817.68" id="14321" y2="317.68" /><line x2="850.00" style="fill:blue;stroke:blue;" y1="352.32" x1="817.68" id="14322" y2="400.00" /><line x2="800.00" style="fill:blue;stroke:blue;" y1="200.00" x1="820.00" id="14323" y2="250.00" /><line x2="800.00" style="fill:blue;stroke:blue;" y1="200.00" x1="820.00" id="14324" y2="150.00" /><line x2="520.96" style="fill:blue;stroke:blue;" y1="530.00" x1="840.00" id="14325" y2="361.91" /><line x2="780.00" style="fill:blue;stroke:blue;" y1="530.00" x1="840.00" id="14326" y2="580.00" /><line x2="900.00" style="fill:blue;stroke:blue;" y1="530.00" x1="840.00" id="14327" y2="450.00" /><line x2="950.00" style="fill:blue;stroke:blue;" y1="20.00" x1="880.00" id="14328" y2="60.00" /><line x2="800.00" style="fill:blue;stroke:blue;" y1="20.00" x1="880.00" id="14329" y2="20.00" /><line x2="950.00" style="fill:blue;stroke:blue;" y1="180.00" x1="900.00" id="14330" y2="280.00" /><line x2="800.00" style="fill:blue;stroke:blue;" y1="180.00" x1="900.00" id="14331" y2="80.00" /><line x2="1000.00" style="fill:blue;stroke:blue;" y1="180.00" x1="900.00" id="14332" y2="150.00" /><line x2="840.00" style="fill:blue;stroke:blue;" y1="450.00" x1="900.00" id="14333" y2="530.00" /><line x2="950.00" style="fill:blue;stroke:blue;" y1="450.00" x1="900.00" id="14334" y2="500.00" /><line x2="950.00" style="fill:blue;stroke:blue;" y1="450.00" x1="900.00" id="14335" y2="380.00" /><line x2="680.00" style="fill:blue;stroke:blue;" y1="450.00" x1="900.00" id="14336" y2="400.00" /><line x2="810.00" style="fill:blue;stroke:blue;" y1="450.00" x1="900.00" id="14337" y2="460.00" /><line x2="950.00" style="fill:blue;stroke:blue;" y1="280.00" x1="950.00" id="14338" y2="380.00" /><line x2="780.00" style="fill:blue;stroke:blue;" y1="280.00" x1="950.00" id="14339" y2="300.00" /><line x2="900.00" style="fill:blue;stroke:blue;" y1="280.00" x1="950.00" id="14340" y2="180.00" /><line x2="980.00" style="fill:blue;stroke:blue;" y1="60.00" x1="950.00" id="14341" y2="100.00" /><line x2="880.00" style="fill:blue;stroke:blue;" y1="60.00" x1="950.00" id="14342" y2="20.00" /><line x2="900.00" style="fill:blue;stroke:blue;" y1="500.00" x1="950.00" id="14343" y2="450.00" /><line x2="1000.00" style="fill:blue;stroke:blue;" y1="500.00" x1="950.00" id="14344" y2="540.00" /><line x2="900.00" style="fill:blue;stroke:blue;" y1="380.00" x1="950.00" id="14345" y2="450.00" /><line x2="950.00" style="fill:blue;stroke:blue;" y1="380.00" x1="950.00" id="14346" y2="280.00" /><line x2="1000.00" style="fill:blue;stroke:blue;" y1="100.00" x1="980.00" id="14347" y2="150.00" /><line x2="950.00" style="fill:blue;stroke:blue;" y1="100.00" x1="980.00" id="14348" y2="60.00" /><line x2="950.00" style="fill:blue;stroke:blue;" y1="540.00" x1="1000.00" id="14349" y2="500.00" /><line x2="1000.00" style="fill:blue;stroke:blue;" y1="200.00" x1="1000.00" id="14350" y2="150.00" /><line x2="900.00" style="fill:blue;stroke:blue;" y1="150.00" x1="1000.00" id="14351" y2="180.00" /><line x2="1000.00" style="fill:blue;stroke:blue;" y1="150.00" x1="1000.00" id="14352" y2="200.00" /><line x2="980.00" style="fill:blue;stroke:blue;" y1="150.00" x1="1000.00" id="14353" y2="100.00" /><line x2="100.00" style="fill:blue;stroke:blue;" y1="80.00" x1="20.00" id="14354" y2="100.00" /><line x2="20.00" style="fill:blue;stroke:blue;" y1="750.00" x1="20.00" id="14355" y2="700.00" /><line x2="120.00" style="fill:blue;stroke:blue;" y1="620.00" x1="50.00" id="14356" y2="630.00" /><line x2="100.00" style="fill:blue;stroke:blue;" y1="550.00" x1="50.00" id="14357" y2="520.00" /><line x2="150.00" style="fill:blue;stroke:blue;" y1="50.00" x1="80.00" id="14358" y2="75.50" /><line x2="250.00" style="fill:blue;stroke:blue;" y1="750.00" x1="150.00" id="14359" y2="750.00" /><line x2="20.00" style="fill:blue;stroke:blue;" y1="750.00" x1="150.00" id="14360" y2="700.00" /><line x2="520.96" style="fill:blue;stroke:blue;" y1="350.00" x1="140.00" id="14361" y2="361.91" /><line x2="120.00" style="fill:blue;stroke:blue;" y1="350.00" x1="140.00" id="14362" y2="180.00" /><line x2="150.00" style="fill:blue;stroke:blue;" y1="50.00" x1="200.00" id="14363" y2="75.50" /><line x2="182.32" style="fill:blue;stroke:blue;" y1="610.00" x1="250.00" id="14364" y2="647.68" /><line x2="150.00" style="fill:blue;stroke:blue;" y1="750.00" x1="250.00" id="14365" y2="750.00" /><line x2="250.00" style="fill:blue;stroke:blue;" y1="750.00" x1="250.00" id="14366" y2="700.00" /><line x2="320.00" style="fill:blue;stroke:blue;" y1="530.00" x1="300.00" id="14367" y2="480.00" /><line x2="400.00" style="fill:blue;stroke:blue;" y1="540.00" x1="390.00" id="14368" y2="480.00" /><line x2="500.00" style="fill:blue;stroke:blue;" y1="590.00" x1="440.00" id="14369" y2="550.00" /><line x2="400.00" style="fill:blue;stroke:blue;" y1="420.00" x1="480.00" id="14370" y2="400.00" /><line x2="550.00" style="fill:blue;stroke:blue;" y1="318.09" x1="499.04" id="14371" y2="320.00" /><line x2="140.00" style="fill:blue;stroke:blue;" y1="361.91" x1="520.96" id="14372" y2="350.00" /><line x2="840.00" style="fill:blue;stroke:blue;" y1="361.91" x1="520.96" id="14373" y2="530.00" /><line x2="817.68" style="fill:blue;stroke:blue;" y1="317.68" x1="852.32" id="14374" y2="352.32" /><line x2="817.68" style="fill:blue;stroke:blue;" y1="400.00" x1="850.00" id="14375" y2="352.32" /></svg>
