<?xml version="1.0" standalone="yes"?><!DOCTYPE svg PUBLIC "-//W3C//DTD SVG 1.1//EN" "http://www.w3.org/Graphics/SVG/1.1/DTD/svg11.dtd"[]><svg width="1050.00" height="800.00" id="22269" xmlns="http://www.w3.org/2000/svg" xmlns:xlink="http://www.w3.org/1999/xlink"><rect Type="system" x="50.00" id="22270" height="5.00" width="5.00" Name="1E-W5I" ID="30004964" Region="贝斯" y="500.00" /><text y="500.00" x="50.00" id="22271">1E-W5I</text><rect Type="system" x="20.00" id="22273" height="5.00" width="5.00" Name="MVUO-F" ID="30004966" Region="贝斯" y="750.00" /><text y="750.00" x="20.00" id="22274">MVUO-F</text><rect Type="system" x="50.00" id="22276" height="5.00" width="5.00" Name="RYQC-I" ID="30004963" Region="贝斯" y="550.00" /><text y="550.00" x="50.00" id="22277">RYQC-I</text><rect Type="system" x="50.00" id="22279" height="5.00" width="5.00" Name="Z-M5A1" ID="30004965" Region="贝斯" y="700.00" /><text y="700.00" x="50.00" id="22280">Z-M5A1</text><rect Type="system" x="50.00" id="22282" height="5.00" width="5.00" Name="G-Q5JU" ID="30004962" Region="贝斯" y="650.00" /><text y="650.00" x="50.00" id="22283">G-Q5JU</text><rect Type="system" x="50.00" id="22285" height="5.00" width="5.00" Name="PA-VE3" ID="30004961" Region="贝斯" y="600.00" /><text y="600.00" x="50.00" id="22286">PA-VE3</text><rect Type="system" x="80.00" id="22288" height="5.00" width="5.00" Name="E2-RDQ" ID="30004959" Region="贝斯" y="100.00" /><text y="100.00" x="80.00" id="22289">E2-RDQ</text><rect Type="system" x="150.00" id="22291" height="5.00" width="5.00" Name="OY0-2T" ID="30004958" Region="贝斯" y="150.00" /><text y="150.00" x="150.00" id="22292">OY0-2T</text><rect Type="system" x="150.00" id="22294" height="5.00" width="5.00" Name="RJ3H-0" ID="30004953" Region="贝斯" y="580.00" /><text y="580.00" x="150.00" id="22295">RJ3H-0</text><rect Type="system" x="200.00" id="22297" height="5.00" width="5.00" Name="TN25-J" ID="30004960" Region="贝斯" y="80.00" /><text y="80.00" x="200.00" id="22298">TN25-J</text><rect Type="system" x="250.00" id="22300" height="5.00" width="5.00" Name="3OP-3E" ID="30004951" Region="贝斯" y="580.00" /><text y="580.00" x="250.00" id="22301">3OP-3E</text><rect Type="system" x="250.00" id="22303" height="5.00" width="5.00" Name="HIX4-H" ID="30004956" Region="贝斯" y="150.00" /><text y="150.00" x="250.00" id="22304">HIX4-H</text><rect Type="system" x="280.00" id="22306" height="5.00" width="5.00" Name="JZL-VB" ID="30004952" Region="贝斯" y="500.00" /><text y="500.00" x="280.00" id="22307">JZL-VB</text><rect Type="system" x="300.00" id="22309" height="5.00" width="5.00" Name="GR-J8B" ID="30004957" Region="贝斯" y="80.00" /><text y="80.00" x="300.00" id="22310">GR-J8B</text><rect Type="system" x="320.00" id="22312" height="5.00" width="5.00" Name="ZU-MS3" ID="30004955" Region="贝斯" y="180.00" /><text y="180.00" x="320.00" id="22313">ZU-MS3</text><rect Type="system" x="350.00" id="22315" height="5.00" width="5.00" Name="0OTX-J" ID="30004950" Region="贝斯" y="580.00" /><text y="580.00" x="350.00" id="22316">0OTX-J</text><rect Type="system" x="380.00" id="22318" height="5.00" width="5.00" Name="48I1-X" ID="30004949" Region="贝斯" y="500.00" /><text y="500.00" x="380.00" id="22319">48I1-X</text><rect Type="system" x="440.00" id="22321" height="5.00" width="5.00" Name="CW9-1Y" ID="30004939" Region="贝斯" y="280.00" /><text y="280.00" x="440.00" id="22322">CW9-1Y</text><rect Type="system" x="460.00" id="22324" height="5.00" width="5.00" Name="08S-39" ID="30004954" Region="贝斯" y="470.00" /><text y="470.00" x="460.00" id="22325">08S-39</text><rect Type="system" x="450.00" id="22327" height="5.00" width="5.00" Name="E-DOF2" ID="30004948" Region="贝斯" y="580.00" /><text y="580.00" x="450.00" id="22328">E-DOF2</text><rect Type="system" x="500.00" id="22330" height="5.00" width="5.00" Name="VYO-68" ID="30004936" Region="贝斯" y="320.00" /><text y="320.00" x="500.00" id="22331">VYO-68</text><rect Type="system" x="520.00" id="22333" height="5.00" width="5.00" Name="0A-KZ0" ID="30004947" Region="贝斯" y="520.00" /><text y="520.00" x="520.00" id="22334">0A-KZ0</text><rect Type="system" x="550.00" id="22336" height="5.00" width="5.00" Name="UR-E46" ID="30004938" Region="贝斯" y="450.00" /><text y="450.00" x="550.00" id="22337">UR-E46</text><rect Type="system" x="550.00" id="22339" height="5.00" width="5.00" Name="TCAG-3" ID="30004937" Region="贝斯" y="400.00" /><text y="400.00" x="550.00" id="22340">TCAG-3</text><rect Type="system" x="580.00" id="22342" height="5.00" width="5.00" Name="MG0-RD" ID="30004934" Region="贝斯" y="320.00" /><text y="320.00" x="580.00" id="22343">MG0-RD</text><rect Type="system" x="620.00" id="22345" height="5.00" width="5.00" Name="TPAR-G" ID="30004935" Region="贝斯" y="370.00" /><text y="370.00" x="620.00" id="22346">TPAR-G</text><rect Type="system" x="650.00" id="22348" height="5.00" width="5.00" Name="XZ-SKZ" ID="30004932" Region="贝斯" y="120.00" /><text y="120.00" x="650.00" id="22349">XZ-SKZ</text><rect Type="system" x="680.00" id="22351" height="5.00" width="5.00" Name="0-NTIS" ID="30004930" Region="贝斯" y="180.00" /><text y="180.00" x="680.00" id="22352">0-NTIS</text><rect Type="system" x="700.00" id="22354" height="5.00" width="5.00" Name="I6M-9U" ID="30004933" Region="贝斯" y="250.00" /><text y="250.00" x="700.00" id="22355">I6M-9U</text><rect Type="system" x="750.00" id="22357" height="5.00" width="5.00" Name="G-C8QO" ID="30004945" Region="贝斯" y="320.00" /><text y="320.00" x="750.00" id="22358">G-C8QO</text><rect Type="system" x="750.00" id="22360" height="5.00" width="5.00" Name="35-JWD" ID="30004928" Region="贝斯" y="150.00" /><text y="150.00" x="750.00" id="22361">35-JWD</text><rect Type="system" x="780.00" id="22363" height="5.00" width="5.00" Name="L-YMYU" ID="30004927" Region="贝斯" y="100.00" /><text y="100.00" x="780.00" id="22364">L-YMYU</text><rect Type="system" x="780.00" id="22366" height="5.00" width="5.00" Name="F-M1FU" ID="30004929" Region="贝斯" y="200.00" /><text y="200.00" x="780.00" id="22367">F-M1FU</text><rect Type="system" x="800.00" id="22369" height="5.00" width="5.00" Name="VR-YIQ" ID="30004931" Region="贝斯" y="250.00" /><text y="250.00" x="800.00" id="22370">VR-YIQ</text><rect Type="system" x="800.00" id="22372" height="5.00" width="5.00" Name="8KR9-5" ID="30004942" Region="贝斯" y="380.00" /><text y="380.00" x="800.00" id="22373">8KR9-5</text><rect Type="system" x="850.00" id="22375" height="5.00" width="5.00" Name="1-NJLK" ID="30004940" Region="贝斯" y="320.00" /><text y="320.00" x="850.00" id="22376">1-NJLK</text><rect Type="system" x="850.00" id="22378" height="5.00" width="5.00" Name="VQE-CN" ID="30004943" Region="贝斯" y="450.00" /><text y="450.00" x="850.00" id="22379">VQE-CN</text><rect Type="system" x="880.00" id="22381" height="5.00" width="5.00" Name="Y-CWQY" ID="30004941" Region="贝斯" y="380.00" /><text y="380.00" x="880.00" id="22382">Y-CWQY</text><rect Type="system" x="920.00" id="22384" height="5.00" width="5.00" Name="L5D-ZL" ID="30004944" Region="贝斯" y="320.00" /><text y="320.00" x="920.00" id="22385">L5D-ZL</text><rect Type="system" x="950.00" id="22387" height="5.00" width="5.00" Name="EIMJ-M" ID="30004946" Region="贝斯" y="380.00" /><text y="380.00" x="950.00" id="22388">EIMJ-M</text><rect Type="system" x="120.00" id="22390" height="5.00" width="5.00" Name="LWX-93" ID="30004800" Region="绝地之域" y="50.00" /><text y="50.00" x="120.00" id="22391">LWX-93</text><rect Type="system" x="650.00" id="22393" height="5.00" width="5.00" Name="CJF-1P" ID="30001926" Region="混浊" y="50.00" /><text y="50.00" x="650.00" id="22394">CJF-1P</text><rect Type="system" x="700.00" id="22396" height="5.00" width="5.00" Name="G-M4GK" ID="30004696" Region="摄魂之域" y="500.00" /><text y="500.00" x="700.00" id="22397">G-M4GK</text><rect Type="system" x="780.00" id="22399" height="5.00" width="5.00" Name="1-2J4P" ID="30004801" Region="绝地之域" y="50.00" /><text y="50.00" x="780.00" id="22400">1-2J4P</text><line style="stroke:blue;fill:blue;" id="22402" x2="50.00" x1="50.00" y1="500.00" y2="550.00" /><line style="stroke:blue;fill:blue;" id="22403" x2="50.00" x1="20.00" y1="750.00" y2="700.00" /><line style="stroke:blue;fill:blue;" id="22404" x2="50.00" x1="50.00" y1="550.00" y2="600.00" /><line style="stroke:blue;fill:blue;" id="22405" x2="50.00" x1="50.00" y1="550.00" y2="500.00" /><line style="stroke:blue;fill:blue;" id="22406" x2="50.00" x1="50.00" y1="700.00" y2="650.00" /><line style="stroke:blue;fill:blue;" id="22407" x2="20.00" x1="50.00" y1="700.00" y2="750.00" /><line style="stroke:blue;fill:blue;" id="22408" x2="50.00" x1="50.00" y1="650.00" y2="600.00" /><line style="stroke:blue;fill:blue;" id="22409" x2="50.00" x1="50.00" y1="650.00" y2="700.00" /><line style="stroke:blue;fill:blue;" id="22410" x2="150.00" x1="50.00" y1="600.00" y2="580.00" /><line style="stroke:blue;fill:blue;" id="22411" x2="50.00" x1="50.00" y1="600.00" y2="650.00" /><line style="stroke:blue;fill:blue;" id="22412" x2="50.00" x1="50.00" y1="600.00" y2="550.00" /><line style="stroke:blue;fill:blue;" id="22413" x2="150.00" x1="80.00" y1="100.00" y2="150.00" /><line style="stroke:blue;fill:blue;" id="22414" x2="250.00" x1="150.00" y1="150.00" y2="150.00" /><line style="stroke:blue;fill:blue;" id="22415" x2="80.00" x1="150.00" y1="150.00" y2="100.00" /><line style="stroke:blue;fill:blue;" id="22416" x2="250.00" x1="150.00" y1="580.00" y2="580.00" /><line style="stroke:blue;fill:blue;" id="22417" x2="50.00" x1="150.00" y1="580.00" y2="600.00" /><line style="stroke:blue;fill:blue;" id="22418" x2="120.00" x1="200.00" y1="80.00" y2="50.00" /><line style="stroke:blue;fill:blue;" id="22419" x2="250.00" x1="200.00" y1="80.00" y2="150.00" /><line style="stroke:blue;fill:blue;" id="22420" x2="350.00" x1="250.00" y1="580.00" y2="580.00" /><line style="stroke:blue;fill:blue;" id="22421" x2="280.00" x1="250.00" y1="580.00" y2="500.00" /><line style="stroke:blue;fill:blue;" id="22422" x2="150.00" x1="250.00" y1="580.00" y2="580.00" /><line style="stroke:blue;fill:blue;" id="22423" x2="320.00" x1="250.00" y1="150.00" y2="180.00" /><line style="stroke:blue;fill:blue;" id="22424" x2="300.00" x1="250.00" y1="150.00" y2="80.00" /><line style="stroke:blue;fill:blue;" id="22425" x2="150.00" x1="250.00" y1="150.00" y2="150.00" /><line style="stroke:blue;fill:blue;" id="22426" x2="200.00" x1="250.00" y1="150.00" y2="80.00" /><line style="stroke:blue;fill:blue;" id="22427" x2="380.00" x1="280.00" y1="500.00" y2="500.00" /><line style="stroke:blue;fill:blue;" id="22428" x2="250.00" x1="280.00" y1="500.00" y2="580.00" /><line style="stroke:blue;fill:blue;" id="22429" x2="250.00" x1="300.00" y1="80.00" y2="150.00" /><line style="stroke:blue;fill:blue;" id="22430" x2="440.00" x1="320.00" y1="180.00" y2="280.00" /><line style="stroke:blue;fill:blue;" id="22431" x2="250.00" x1="320.00" y1="180.00" y2="150.00" /><line style="stroke:blue;fill:blue;" id="22432" x2="450.00" x1="350.00" y1="580.00" y2="580.00" /><line style="stroke:blue;fill:blue;" id="22433" x2="380.00" x1="350.00" y1="580.00" y2="500.00" /><line style="stroke:blue;fill:blue;" id="22434" x2="250.00" x1="350.00" y1="580.00" y2="580.00" /><line style="stroke:blue;fill:blue;" id="22435" x2="450.00" x1="380.00" y1="500.00" y2="580.00" /><line style="stroke:blue;fill:blue;" id="22436" x2="350.00" x1="380.00" y1="500.00" y2="580.00" /><line style="stroke:blue;fill:blue;" id="22437" x2="280.00" x1="380.00" y1="500.00" y2="500.00" /><line style="stroke:blue;fill:blue;" id="22438" x2="500.00" x1="440.00" y1="280.00" y2="320.00" /><line style="stroke:blue;fill:blue;" id="22439" x2="320.00" x1="440.00" y1="280.00" y2="180.00" /><line style="stroke:blue;fill:blue;" id="22440" x2="520.00" x1="460.00" y1="470.00" y2="520.00" /><line style="stroke:blue;fill:blue;" id="22441" x2="520.00" x1="450.00" y1="580.00" y2="520.00" /><line style="stroke:blue;fill:blue;" id="22442" x2="380.00" x1="450.00" y1="580.00" y2="500.00" /><line style="stroke:blue;fill:blue;" id="22443" x2="350.00" x1="450.00" y1="580.00" y2="580.00" /><line style="stroke:blue;fill:blue;" id="22444" x2="580.00" x1="500.00" y1="320.00" y2="320.00" /><line style="stroke:blue;fill:blue;" id="22445" x2="550.00" x1="500.00" y1="320.00" y2="400.00" /><line style="stroke:blue;fill:blue;" id="22446" x2="440.00" x1="500.00" y1="320.00" y2="280.00" /><line style="stroke:blue;fill:blue;" id="22447" x2="550.00" x1="520.00" y1="520.00" y2="450.00" /><line style="stroke:blue;fill:blue;" id="22448" x2="450.00" x1="520.00" y1="520.00" y2="580.00" /><line style="stroke:blue;fill:blue;" id="22449" x2="460.00" x1="520.00" y1="520.00" y2="470.00" /><line style="stroke:blue;fill:blue;" id="22450" x2="550.00" x1="550.00" y1="450.00" y2="400.00" /><line style="stroke:blue;fill:blue;" id="22451" x2="520.00" x1="550.00" y1="450.00" y2="520.00" /><line style="stroke:blue;fill:blue;" id="22452" x2="700.00" x1="550.00" y1="400.00" y2="500.00" /><line style="stroke:blue;fill:blue;" id="22453" x2="620.00" x1="550.00" y1="400.00" y2="370.00" /><line style="stroke:blue;fill:blue;" id="22454" x2="500.00" x1="550.00" y1="400.00" y2="320.00" /><line style="stroke:blue;fill:blue;" id="22455" x2="550.00" x1="550.00" y1="400.00" y2="450.00" /><line style="stroke:blue;fill:blue;" id="22456" x2="700.00" x1="580.00" y1="320.00" y2="250.00" /><line style="stroke:blue;fill:blue;" id="22457" x2="620.00" x1="580.00" y1="320.00" y2="370.00" /><line style="stroke:blue;fill:blue;" id="22458" x2="500.00" x1="580.00" y1="320.00" y2="320.00" /><line style="stroke:blue;fill:blue;" id="22459" x2="580.00" x1="620.00" y1="370.00" y2="320.00" /><line style="stroke:blue;fill:blue;" id="22460" x2="550.00" x1="620.00" y1="370.00" y2="400.00" /><line style="stroke:blue;fill:blue;" id="22461" x2="650.00" x1="650.00" y1="120.00" y2="50.00" /><line style="stroke:blue;fill:blue;" id="22462" x2="750.00" x1="650.00" y1="120.00" y2="150.00" /><line style="stroke:blue;fill:blue;" id="22463" x2="680.00" x1="650.00" y1="120.00" y2="180.00" /><line style="stroke:blue;fill:blue;" id="22464" x2="750.00" x1="680.00" y1="180.00" y2="150.00" /><line style="stroke:blue;fill:blue;" id="22465" x2="650.00" x1="680.00" y1="180.00" y2="120.00" /><line style="stroke:blue;fill:blue;" id="22466" x2="700.00" x1="680.00" y1="180.00" y2="250.00" /><line style="stroke:blue;fill:blue;" id="22467" x2="680.00" x1="700.00" y1="250.00" y2="180.00" /><line style="stroke:blue;fill:blue;" id="22468" x2="800.00" x1="700.00" y1="250.00" y2="250.00" /><line style="stroke:blue;fill:blue;" id="22469" x2="580.00" x1="700.00" y1="250.00" y2="320.00" /><line style="stroke:blue;fill:blue;" id="22470" x2="850.00" x1="750.00" y1="320.00" y2="320.00" /><line style="stroke:blue;fill:blue;" id="22471" x2="780.00" x1="750.00" y1="150.00" y2="100.00" /><line style="stroke:blue;fill:blue;" id="22472" x2="780.00" x1="750.00" y1="150.00" y2="200.00" /><line style="stroke:blue;fill:blue;" id="22473" x2="680.00" x1="750.00" y1="150.00" y2="180.00" /><line style="stroke:blue;fill:blue;" id="22474" x2="650.00" x1="750.00" y1="150.00" y2="120.00" /><line style="stroke:blue;fill:blue;" id="22475" x2="780.00" x1="780.00" y1="100.00" y2="50.00" /><line style="stroke:blue;fill:blue;" id="22476" x2="750.00" x1="780.00" y1="100.00" y2="150.00" /><line style="stroke:blue;fill:blue;" id="22477" x2="750.00" x1="780.00" y1="200.00" y2="150.00" /><line style="stroke:blue;fill:blue;" id="22478" x2="800.00" x1="780.00" y1="200.00" y2="250.00" /><line style="stroke:blue;fill:blue;" id="22479" x2="780.00" x1="800.00" y1="250.00" y2="200.00" /><line style="stroke:blue;fill:blue;" id="22480" x2="700.00" x1="800.00" y1="250.00" y2="250.00" /><line style="stroke:blue;fill:blue;" id="22481" x2="850.00" x1="800.00" y1="250.00" y2="320.00" /><line style="stroke:blue;fill:blue;" id="22482" x2="850.00" x1="800.00" y1="380.00" y2="320.00" /><line style="stroke:blue;fill:blue;" id="22483" x2="880.00" x1="800.00" y1="380.00" y2="380.00" /><line style="stroke:blue;fill:blue;" id="22484" x2="850.00" x1="800.00" y1="380.00" y2="450.00" /><line style="stroke:blue;fill:blue;" id="22485" x2="800.00" x1="850.00" y1="320.00" y2="250.00" /><line style="stroke:blue;fill:blue;" id="22486" x2="880.00" x1="850.00" y1="320.00" y2="380.00" /><line style="stroke:blue;fill:blue;" id="22487" x2="800.00" x1="850.00" y1="320.00" y2="380.00" /><line style="stroke:blue;fill:blue;" id="22488" x2="750.00" x1="850.00" y1="320.00" y2="320.00" /><line style="stroke:blue;fill:blue;" id="22489" x2="880.00" x1="850.00" y1="450.00" y2="380.00" /><line style="stroke:blue;fill:blue;" id="22490" x2="800.00" x1="850.00" y1="450.00" y2="380.00" /><line style="stroke:blue;fill:blue;" id="22491" x2="850.00" x1="880.00" y1="380.00" y2="320.00" /><line style="stroke:blue;fill:blue;" id="22492" x2="800.00" x1="880.00" y1="380.00" y2="380.00" /><line style="stroke:blue;fill:blue;" id="22493" x2="850.00" x1="880.00" y1="380.00" y2="450.00" /><line style="stroke:blue;fill:blue;" id="22494" x2="920.00" x1="880.00" y1="380.00" y2="320.00" /><line style="stroke:blue;fill:blue;" id="22495" x2="950.00" x1="880.00" y1="380.00" y2="380.00" /><line style="stroke:blue;fill:blue;" id="22496" x2="880.00" x1="920.00" y1="320.00" y2="380.00" /><line style="stroke:blue;fill:blue;" id="22497" x2="880.00" x1="950.00" y1="380.00" y2="380.00" /><line style="stroke:blue;fill:blue;" id="22498" x2="200.00" x1="120.00" y1="50.00" y2="80.00" /><line style="stroke:blue;fill:blue;" id="22499" x2="650.00" x1="650.00" y1="50.00" y2="120.00" /><line style="stroke:blue;fill:blue;" id="22500" x2="550.00" x1="700.00" y1="500.00" y2="400.00" /><line style="stroke:blue;fill:blue;" id="22501" x2="780.00" x1="780.00" y1="50.00" y2="100.00" /></svg>
