<?xml version="1.0" standalone="yes"?><!DOCTYPE svg PUBLIC "-//W3C//DTD SVG 1.1//EN" "http://www.w3.org/Graphics/SVG/1.1/DTD/svg11.dtd"[]><svg height="800.00" id="22269" width="1050.00" xmlns="http://www.w3.org/2000/svg" xmlns:xlink="http://www.w3.org/1999/xlink"><rect Type="system" Region="贝斯" height="5.00" y="500.00" Name="1E-W5I" width="5.00" x="50.00" id="22270" ID="30004964" /><text x="50.00" y="500.00" id="22271">1E-W5I</text><rect Type="system" Region="贝斯" height="5.00" y="750.00" Name="MVUO-F" width="5.00" x="20.00" id="22273" ID="30004966" /><text x="20.00" y="750.00" id="22274">MVUO-F</text><rect Type="system" Region="贝斯" height="5.00" y="550.00" Name="RYQC-I" width="5.00" x="50.00" id="22276" ID="30004963" /><text x="50.00" y="550.00" id="22277">RYQC-I</text><rect Type="system" Region="贝斯" height="5.00" y="700.00" Name="Z-M5A1" width="5.00" x="50.00" id="22279" ID="30004965" /><text x="50.00" y="700.00" id="22280">Z-M5A1</text><rect Type="system" Region="贝斯" height="5.00" y="650.00" Name="G-Q5JU" width="5.00" x="50.00" id="22282" ID="30004962" /><text x="50.00" y="650.00" id="22283">G-Q5JU</text><rect Type="system" Region="贝斯" height="5.00" y="600.00" Name="PA-VE3" width="5.00" x="50.00" id="22285" ID="30004961" /><text x="50.00" y="600.00" id="22286">PA-VE3</text><rect Type="system" Region="贝斯" height="5.00" y="100.00" Name="E2-RDQ" width="5.00" x="80.00" id="22288" ID="30004959" /><text x="80.00" y="100.00" id="22289">E2-RDQ</text><rect Type="system" Region="贝斯" height="5.00" y="150.00" Name="OY0-2T" width="5.00" x="150.00" id="22291" ID="30004958" /><text x="150.00" y="150.00" id="22292">OY0-2T</text><rect Type="system" Region="贝斯" height="5.00" y="580.00" Name="RJ3H-0" width="5.00" x="150.00" id="22294" ID="30004953" /><text x="150.00" y="580.00" id="22295">RJ3H-0</text><rect Type="system" Region="贝斯" height="5.00" y="80.00" Name="TN25-J" width="5.00" x="200.00" id="22297" ID="30004960" /><text x="200.00" y="80.00" id="22298">TN25-J</text><rect Type="system" Region="贝斯" height="5.00" y="580.00" Name="3OP-3E" width="5.00" x="250.00" id="22300" ID="30004951" /><text x="250.00" y="580.00" id="22301">3OP-3E</text><rect Type="system" Region="贝斯" height="5.00" y="150.00" Name="HIX4-H" width="5.00" x="250.00" id="22303" ID="30004956" /><text x="250.00" y="150.00" id="22304">HIX4-H</text><rect Type="system" Region="贝斯" height="5.00" y="500.00" Name="JZL-VB" width="5.00" x="280.00" id="22306" ID="30004952" /><text x="280.00" y="500.00" id="22307">JZL-VB</text><rect Type="system" Region="贝斯" height="5.00" y="80.00" Name="GR-J8B" width="5.00" x="300.00" id="22309" ID="30004957" /><text x="300.00" y="80.00" id="22310">GR-J8B</text><rect Type="system" Region="贝斯" height="5.00" y="180.00" Name="ZU-MS3" width="5.00" x="320.00" id="22312" ID="30004955" /><text x="320.00" y="180.00" id="22313">ZU-MS3</text><rect Type="system" Region="贝斯" height="5.00" y="580.00" Name="0OTX-J" width="5.00" x="350.00" id="22315" ID="30004950" /><text x="350.00" y="580.00" id="22316">0OTX-J</text><rect Type="system" Region="贝斯" height="5.00" y="500.00" Name="48I1-X" width="5.00" x="380.00" id="22318" ID="30004949" /><text x="380.00" y="500.00" id="22319">48I1-X</text><rect Type="system" Region="贝斯" height="5.00" y="280.00" Name="CW9-1Y" width="5.00" x="440.00" id="22321" ID="30004939" /><text x="440.00" y="280.00" id="22322">CW9-1Y</text><rect Type="system" Region="贝斯" height="5.00" y="470.00" Name="08S-39" width="5.00" x="460.00" id="22324" ID="30004954" /><text x="460.00" y="470.00" id="22325">08S-39</text><rect Type="system" Region="贝斯" height="5.00" y="580.00" Name="E-DOF2" width="5.00" x="450.00" id="22327" ID="30004948" /><text x="450.00" y="580.00" id="22328">E-DOF2</text><rect Type="system" Region="贝斯" height="5.00" y="320.00" Name="VYO-68" width="5.00" x="500.00" id="22330" ID="30004936" /><text x="500.00" y="320.00" id="22331">VYO-68</text><rect Type="system" Region="贝斯" height="5.00" y="520.00" Name="0A-KZ0" width="5.00" x="520.00" id="22333" ID="30004947" /><text x="520.00" y="520.00" id="22334">0A-KZ0</text><rect Type="system" Region="贝斯" height="5.00" y="450.00" Name="UR-E46" width="5.00" x="550.00" id="22336" ID="30004938" /><text x="550.00" y="450.00" id="22337">UR-E46</text><rect Type="system" Region="贝斯" height="5.00" y="400.00" Name="TCAG-3" width="5.00" x="550.00" id="22339" ID="30004937" /><text x="550.00" y="400.00" id="22340">TCAG-3</text><rect Type="system" Region="贝斯" height="5.00" y="320.00" Name="MG0-RD" width="5.00" x="580.00" id="22342" ID="30004934" /><text x="580.00" y="320.00" id="22343">MG0-RD</text><rect Type="system" Region="贝斯" height="5.00" y="370.00" Name="TPAR-G" width="5.00" x="620.00" id="22345" ID="30004935" /><text x="620.00" y="370.00" id="22346">TPAR-G</text><rect Type="system" Region="贝斯" height="5.00" y="120.00" Name="XZ-SKZ" width="5.00" x="650.00" id="22348" ID="30004932" /><text x="650.00" y="120.00" id="22349">XZ-SKZ</text><rect Type="system" Region="贝斯" height="5.00" y="180.00" Name="0-NTIS" width="5.00" x="680.00" id="22351" ID="30004930" /><text x="680.00" y="180.00" id="22352">0-NTIS</text><rect Type="system" Region="贝斯" height="5.00" y="250.00" Name="I6M-9U" width="5.00" x="700.00" id="22354" ID="30004933" /><text x="700.00" y="250.00" id="22355">I6M-9U</text><rect Type="system" Region="贝斯" height="5.00" y="320.00" Name="G-C8QO" width="5.00" x="750.00" id="22357" ID="30004945" /><text x="750.00" y="320.00" id="22358">G-C8QO</text><rect Type="system" Region="贝斯" height="5.00" y="150.00" Name="35-JWD" width="5.00" x="750.00" id="22360" ID="30004928" /><text x="750.00" y="150.00" id="22361">35-JWD</text><rect Type="system" Region="贝斯" height="5.00" y="100.00" Name="L-YMYU" width="5.00" x="780.00" id="22363" ID="30004927" /><text x="780.00" y="100.00" id="22364">L-YMYU</text><rect Type="system" Region="贝斯" height="5.00" y="200.00" Name="F-M1FU" width="5.00" x="780.00" id="22366" ID="30004929" /><text x="780.00" y="200.00" id="22367">F-M1FU</text><rect Type="system" Region="贝斯" height="5.00" y="250.00" Name="VR-YIQ" width="5.00" x="800.00" id="22369" ID="30004931" /><text x="800.00" y="250.00" id="22370">VR-YIQ</text><rect Type="system" Region="贝斯" height="5.00" y="380.00" Name="8KR9-5" width="5.00" x="800.00" id="22372" ID="30004942" /><text x="800.00" y="380.00" id="22373">8KR9-5</text><rect Type="system" Region="贝斯" height="5.00" y="320.00" Name="1-NJLK" width="5.00" x="850.00" id="22375" ID="30004940" /><text x="850.00" y="320.00" id="22376">1-NJLK</text><rect Type="system" Region="贝斯" height="5.00" y="450.00" Name="VQE-CN" width="5.00" x="850.00" id="22378" ID="30004943" /><text x="850.00" y="450.00" id="22379">VQE-CN</text><rect Type="system" Region="贝斯" height="5.00" y="380.00" Name="Y-CWQY" width="5.00" x="880.00" id="22381" ID="30004941" /><text x="880.00" y="380.00" id="22382">Y-CWQY</text><rect Type="system" Region="贝斯" height="5.00" y="320.00" Name="L5D-ZL" width="5.00" x="920.00" id="22384" ID="30004944" /><text x="920.00" y="320.00" id="22385">L5D-ZL</text><rect Type="system" Region="贝斯" height="5.00" y="380.00" Name="EIMJ-M" width="5.00" x="950.00" id="22387" ID="30004946" /><text x="950.00" y="380.00" id="22388">EIMJ-M</text><rect Type="system" Region="绝地之域" height="5.00" y="50.00" Name="LWX-93" width="5.00" x="120.00" id="22390" ID="30004800" /><text x="120.00" y="50.00" id="22391">LWX-93</text><rect Type="system" Region="混浊" height="5.00" y="50.00" Name="CJF-1P" width="5.00" x="650.00" id="22393" ID="30001926" /><text x="650.00" y="50.00" id="22394">CJF-1P</text><rect Type="system" Region="摄魂之域" height="5.00" y="500.00" Name="G-M4GK" width="5.00" x="700.00" id="22396" ID="30004696" /><text x="700.00" y="500.00" id="22397">G-M4GK</text><rect Type="system" Region="绝地之域" height="5.00" y="50.00" Name="1-2J4P" width="5.00" x="780.00" id="22399" ID="30004801" /><text x="780.00" y="50.00" id="22400">1-2J4P</text><line x2="50.00" style="fill:blue;stroke:blue;" y1="500.00" x1="50.00" id="22402" y2="550.00" /><line x2="50.00" style="fill:blue;stroke:blue;" y1="750.00" x1="20.00" id="22403" y2="700.00" /><line x2="50.00" style="fill:blue;stroke:blue;" y1="550.00" x1="50.00" id="22404" y2="600.00" /><line x2="50.00" style="fill:blue;stroke:blue;" y1="550.00" x1="50.00" id="22405" y2="500.00" /><line x2="50.00" style="fill:blue;stroke:blue;" y1="700.00" x1="50.00" id="22406" y2="650.00" /><line x2="20.00" style="fill:blue;stroke:blue;" y1="700.00" x1="50.00" id="22407" y2="750.00" /><line x2="50.00" style="fill:blue;stroke:blue;" y1="650.00" x1="50.00" id="22408" y2="600.00" /><line x2="50.00" style="fill:blue;stroke:blue;" y1="650.00" x1="50.00" id="22409" y2="700.00" /><line x2="150.00" style="fill:blue;stroke:blue;" y1="600.00" x1="50.00" id="22410" y2="580.00" /><line x2="50.00" style="fill:blue;stroke:blue;" y1="600.00" x1="50.00" id="22411" y2="650.00" /><line x2="50.00" style="fill:blue;stroke:blue;" y1="600.00" x1="50.00" id="22412" y2="550.00" /><line x2="150.00" style="fill:blue;stroke:blue;" y1="100.00" x1="80.00" id="22413" y2="150.00" /><line x2="250.00" style="fill:blue;stroke:blue;" y1="150.00" x1="150.00" id="22414" y2="150.00" /><line x2="80.00" style="fill:blue;stroke:blue;" y1="150.00" x1="150.00" id="22415" y2="100.00" /><line x2="250.00" style="fill:blue;stroke:blue;" y1="580.00" x1="150.00" id="22416" y2="580.00" /><line x2="50.00" style="fill:blue;stroke:blue;" y1="580.00" x1="150.00" id="22417" y2="600.00" /><line x2="120.00" style="fill:blue;stroke:blue;" y1="80.00" x1="200.00" id="22418" y2="50.00" /><line x2="250.00" style="fill:blue;stroke:blue;" y1="80.00" x1="200.00" id="22419" y2="150.00" /><line x2="350.00" style="fill:blue;stroke:blue;" y1="580.00" x1="250.00" id="22420" y2="580.00" /><line x2="280.00" style="fill:blue;stroke:blue;" y1="580.00" x1="250.00" id="22421" y2="500.00" /><line x2="150.00" style="fill:blue;stroke:blue;" y1="580.00" x1="250.00" id="22422" y2="580.00" /><line x2="320.00" style="fill:blue;stroke:blue;" y1="150.00" x1="250.00" id="22423" y2="180.00" /><line x2="300.00" style="fill:blue;stroke:blue;" y1="150.00" x1="250.00" id="22424" y2="80.00" /><line x2="150.00" style="fill:blue;stroke:blue;" y1="150.00" x1="250.00" id="22425" y2="150.00" /><line x2="200.00" style="fill:blue;stroke:blue;" y1="150.00" x1="250.00" id="22426" y2="80.00" /><line x2="380.00" style="fill:blue;stroke:blue;" y1="500.00" x1="280.00" id="22427" y2="500.00" /><line x2="250.00" style="fill:blue;stroke:blue;" y1="500.00" x1="280.00" id="22428" y2="580.00" /><line x2="250.00" style="fill:blue;stroke:blue;" y1="80.00" x1="300.00" id="22429" y2="150.00" /><line x2="440.00" style="fill:blue;stroke:blue;" y1="180.00" x1="320.00" id="22430" y2="280.00" /><line x2="250.00" style="fill:blue;stroke:blue;" y1="180.00" x1="320.00" id="22431" y2="150.00" /><line x2="450.00" style="fill:blue;stroke:blue;" y1="580.00" x1="350.00" id="22432" y2="580.00" /><line x2="380.00" style="fill:blue;stroke:blue;" y1="580.00" x1="350.00" id="22433" y2="500.00" /><line x2="250.00" style="fill:blue;stroke:blue;" y1="580.00" x1="350.00" id="22434" y2="580.00" /><line x2="450.00" style="fill:blue;stroke:blue;" y1="500.00" x1="380.00" id="22435" y2="580.00" /><line x2="350.00" style="fill:blue;stroke:blue;" y1="500.00" x1="380.00" id="22436" y2="580.00" /><line x2="280.00" style="fill:blue;stroke:blue;" y1="500.00" x1="380.00" id="22437" y2="500.00" /><line x2="500.00" style="fill:blue;stroke:blue;" y1="280.00" x1="440.00" id="22438" y2="320.00" /><line x2="320.00" style="fill:blue;stroke:blue;" y1="280.00" x1="440.00" id="22439" y2="180.00" /><line x2="520.00" style="fill:blue;stroke:blue;" y1="470.00" x1="460.00" id="22440" y2="520.00" /><line x2="520.00" style="fill:blue;stroke:blue;" y1="580.00" x1="450.00" id="22441" y2="520.00" /><line x2="380.00" style="fill:blue;stroke:blue;" y1="580.00" x1="450.00" id="22442" y2="500.00" /><line x2="350.00" style="fill:blue;stroke:blue;" y1="580.00" x1="450.00" id="22443" y2="580.00" /><line x2="580.00" style="fill:blue;stroke:blue;" y1="320.00" x1="500.00" id="22444" y2="320.00" /><line x2="550.00" style="fill:blue;stroke:blue;" y1="320.00" x1="500.00" id="22445" y2="400.00" /><line x2="440.00" style="fill:blue;stroke:blue;" y1="320.00" x1="500.00" id="22446" y2="280.00" /><line x2="550.00" style="fill:blue;stroke:blue;" y1="520.00" x1="520.00" id="22447" y2="450.00" /><line x2="450.00" style="fill:blue;stroke:blue;" y1="520.00" x1="520.00" id="22448" y2="580.00" /><line x2="460.00" style="fill:blue;stroke:blue;" y1="520.00" x1="520.00" id="22449" y2="470.00" /><line x2="550.00" style="fill:blue;stroke:blue;" y1="450.00" x1="550.00" id="22450" y2="400.00" /><line x2="520.00" style="fill:blue;stroke:blue;" y1="450.00" x1="550.00" id="22451" y2="520.00" /><line x2="700.00" style="fill:blue;stroke:blue;" y1="400.00" x1="550.00" id="22452" y2="500.00" /><line x2="620.00" style="fill:blue;stroke:blue;" y1="400.00" x1="550.00" id="22453" y2="370.00" /><line x2="500.00" style="fill:blue;stroke:blue;" y1="400.00" x1="550.00" id="22454" y2="320.00" /><line x2="550.00" style="fill:blue;stroke:blue;" y1="400.00" x1="550.00" id="22455" y2="450.00" /><line x2="700.00" style="fill:blue;stroke:blue;" y1="320.00" x1="580.00" id="22456" y2="250.00" /><line x2="620.00" style="fill:blue;stroke:blue;" y1="320.00" x1="580.00" id="22457" y2="370.00" /><line x2="500.00" style="fill:blue;stroke:blue;" y1="320.00" x1="580.00" id="22458" y2="320.00" /><line x2="580.00" style="fill:blue;stroke:blue;" y1="370.00" x1="620.00" id="22459" y2="320.00" /><line x2="550.00" style="fill:blue;stroke:blue;" y1="370.00" x1="620.00" id="22460" y2="400.00" /><line x2="650.00" style="fill:blue;stroke:blue;" y1="120.00" x1="650.00" id="22461" y2="50.00" /><line x2="750.00" style="fill:blue;stroke:blue;" y1="120.00" x1="650.00" id="22462" y2="150.00" /><line x2="680.00" style="fill:blue;stroke:blue;" y1="120.00" x1="650.00" id="22463" y2="180.00" /><line x2="750.00" style="fill:blue;stroke:blue;" y1="180.00" x1="680.00" id="22464" y2="150.00" /><line x2="650.00" style="fill:blue;stroke:blue;" y1="180.00" x1="680.00" id="22465" y2="120.00" /><line x2="700.00" style="fill:blue;stroke:blue;" y1="180.00" x1="680.00" id="22466" y2="250.00" /><line x2="680.00" style="fill:blue;stroke:blue;" y1="250.00" x1="700.00" id="22467" y2="180.00" /><line x2="800.00" style="fill:blue;stroke:blue;" y1="250.00" x1="700.00" id="22468" y2="250.00" /><line x2="580.00" style="fill:blue;stroke:blue;" y1="250.00" x1="700.00" id="22469" y2="320.00" /><line x2="850.00" style="fill:blue;stroke:blue;" y1="320.00" x1="750.00" id="22470" y2="320.00" /><line x2="780.00" style="fill:blue;stroke:blue;" y1="150.00" x1="750.00" id="22471" y2="100.00" /><line x2="780.00" style="fill:blue;stroke:blue;" y1="150.00" x1="750.00" id="22472" y2="200.00" /><line x2="680.00" style="fill:blue;stroke:blue;" y1="150.00" x1="750.00" id="22473" y2="180.00" /><line x2="650.00" style="fill:blue;stroke:blue;" y1="150.00" x1="750.00" id="22474" y2="120.00" /><line x2="780.00" style="fill:blue;stroke:blue;" y1="100.00" x1="780.00" id="22475" y2="50.00" /><line x2="750.00" style="fill:blue;stroke:blue;" y1="100.00" x1="780.00" id="22476" y2="150.00" /><line x2="750.00" style="fill:blue;stroke:blue;" y1="200.00" x1="780.00" id="22477" y2="150.00" /><line x2="800.00" style="fill:blue;stroke:blue;" y1="200.00" x1="780.00" id="22478" y2="250.00" /><line x2="780.00" style="fill:blue;stroke:blue;" y1="250.00" x1="800.00" id="22479" y2="200.00" /><line x2="700.00" style="fill:blue;stroke:blue;" y1="250.00" x1="800.00" id="22480" y2="250.00" /><line x2="850.00" style="fill:blue;stroke:blue;" y1="250.00" x1="800.00" id="22481" y2="320.00" /><line x2="850.00" style="fill:blue;stroke:blue;" y1="380.00" x1="800.00" id="22482" y2="320.00" /><line x2="880.00" style="fill:blue;stroke:blue;" y1="380.00" x1="800.00" id="22483" y2="380.00" /><line x2="850.00" style="fill:blue;stroke:blue;" y1="380.00" x1="800.00" id="22484" y2="450.00" /><line x2="800.00" style="fill:blue;stroke:blue;" y1="320.00" x1="850.00" id="22485" y2="250.00" /><line x2="880.00" style="fill:blue;stroke:blue;" y1="320.00" x1="850.00" id="22486" y2="380.00" /><line x2="800.00" style="fill:blue;stroke:blue;" y1="320.00" x1="850.00" id="22487" y2="380.00" /><line x2="750.00" style="fill:blue;stroke:blue;" y1="320.00" x1="850.00" id="22488" y2="320.00" /><line x2="880.00" style="fill:blue;stroke:blue;" y1="450.00" x1="850.00" id="22489" y2="380.00" /><line x2="800.00" style="fill:blue;stroke:blue;" y1="450.00" x1="850.00" id="22490" y2="380.00" /><line x2="850.00" style="fill:blue;stroke:blue;" y1="380.00" x1="880.00" id="22491" y2="320.00" /><line x2="800.00" style="fill:blue;stroke:blue;" y1="380.00" x1="880.00" id="22492" y2="380.00" /><line x2="850.00" style="fill:blue;stroke:blue;" y1="380.00" x1="880.00" id="22493" y2="450.00" /><line x2="920.00" style="fill:blue;stroke:blue;" y1="380.00" x1="880.00" id="22494" y2="320.00" /><line x2="950.00" style="fill:blue;stroke:blue;" y1="380.00" x1="880.00" id="22495" y2="380.00" /><line x2="880.00" style="fill:blue;stroke:blue;" y1="320.00" x1="920.00" id="22496" y2="380.00" /><line x2="880.00" style="fill:blue;stroke:blue;" y1="380.00" x1="950.00" id="22497" y2="380.00" /><line x2="200.00" style="fill:blue;stroke:blue;" y1="50.00" x1="120.00" id="22498" y2="80.00" /><line x2="650.00" style="fill:blue;stroke:blue;" y1="50.00" x1="650.00" id="22499" y2="120.00" /><line x2="550.00" style="fill:blue;stroke:blue;" y1="500.00" x1="700.00" id="22500" y2="400.00" /><line x2="780.00" style="fill:blue;stroke:blue;" y1="50.00" x1="780.00" id="22501" y2="100.00" /></svg>
