<?xml version="1.0" standalone="yes"?><!DOCTYPE svg PUBLIC "-//W3C//DTD SVG 1.1//EN" "http://www.w3.org/Graphics/SVG/1.1/DTD/svg11.dtd"[]><svg height="800.00" id="2578" width="1050.00" xmlns="http://www.w3.org/2000/svg" xmlns:xlink="http://www.w3.org/1999/xlink"><rect Type="system" Region="赛塔德洱" height="5.00" y="340.00" Name="欧图" width="5.00" x="20.00" id="2579" ID="30002808" /><text x="20.00" y="340.00" id="2580">欧图</text><rect Type="system" Region="赛塔德洱" height="5.00" y="60.00" Name="霍尔吉森" width="5.00" x="50.00" id="2582" ID="30002741" /><text x="50.00" y="60.00" id="2583">霍尔吉森</text><rect Type="system" Region="赛塔德洱" height="5.00" y="110.00" Name="尤图" width="5.00" x="50.00" id="2585" ID="30002740" /><text x="50.00" y="110.00" id="2586">尤图</text><rect Type="system" Region="赛塔德洱" height="5.00" y="660.00" Name="卡斯简恩" width="5.00" x="80.00" id="2588" ID="30002761" /><text x="80.00" y="660.00" id="2589">卡斯简恩</text><rect Type="system" Region="赛塔德洱" height="5.00" y="210.00" Name="塔诺冷" width="5.00" x="100.00" id="2591" ID="30002812" /><text x="100.00" y="210.00" id="2592">塔诺冷</text><rect Type="system" Region="赛塔德洱" height="5.00" y="360.00" Name="哈斯米贾拉" width="5.00" x="100.00" id="2594" ID="30002806" /><text x="100.00" y="360.00" id="2595">哈斯米贾拉</text><rect Type="system" Region="赛塔德洱" height="5.00" y="310.00" Name="那加玛嫩" width="5.00" x="100.00" id="2597" ID="30002807" /><text x="100.00" y="310.00" id="2598">那加玛嫩</text><rect Type="system" Region="赛塔德洱" height="5.00" y="420.00" Name="希瑟拉" width="5.00" x="120.00" id="2600" ID="30002796" /><text x="120.00" y="420.00" id="2601">希瑟拉</text><rect Type="system" Region="赛塔德洱" height="5.00" y="708.09" Name="亚述勒恩" width="5.00" x="120.96" id="2603" ID="30002762" /><text x="120.96" y="708.09" id="2604">亚述勒恩</text><rect Type="system" Region="赛塔德洱" height="5.00" y="110.00" Name="伊瑞纳" width="5.00" x="120.00" id="2606" ID="30002742" /><text x="120.00" y="110.00" id="2607">伊瑞纳</text><rect Type="system" Region="赛塔德洱" height="5.00" y="190.00" Name="伊萨茨瓦" width="5.00" x="150.00" id="2609" ID="30002739" /><text x="150.00" y="190.00" id="2610">伊萨茨瓦</text><rect Type="system" Region="赛塔德洱" height="5.00" y="660.00" Name="哈塔卡尼" width="5.00" x="150.00" id="2612" ID="30002764" /><text x="150.00" y="660.00" id="2613">哈塔卡尼</text><rect Type="system" Region="赛塔德洱" height="5.00" y="240.00" Name="欧纳托" width="5.00" x="150.00" id="2615" ID="30002811" /><text x="150.00" y="240.00" id="2616">欧纳托</text><rect Type="system" Region="赛塔德洱" height="5.00" y="290.00" Name="苏加仁托" width="5.00" x="150.00" id="2618" ID="30002809" /><text x="150.00" y="290.00" id="2619">苏加仁托</text><rect Type="system" Region="赛塔德洱" height="5.00" y="530.00" Name="埃德诺冷" width="5.00" x="220.00" id="2621" ID="30002769" /><text x="220.00" y="530.00" id="2622">埃德诺冷</text><rect Type="system" Region="赛塔德洱" height="5.00" y="140.00" Name="伊诺尤" width="5.00" x="180.00" id="2624" ID="30002738" /><text x="180.00" y="140.00" id="2625">伊诺尤</text><rect Type="system" Region="赛塔德洱" height="5.00" y="390.00" Name="欧希约" width="5.00" x="180.00" id="2627" ID="30002799" /><text x="180.00" y="390.00" id="2628">欧希约</text><rect Type="system" Region="赛塔德洱" height="5.00" y="460.00" Name="奥沙伊马" width="5.00" x="180.00" id="2630" ID="30002795" /><text x="180.00" y="460.00" id="2631">奥沙伊马</text><rect Type="system" Region="赛塔德洱" height="5.00" y="590.00" Name="库比伦" width="5.00" x="220.00" id="2633" ID="30002767" /><text x="220.00" y="590.00" id="2634">库比伦</text><rect Type="system" Region="赛塔德洱" height="5.00" y="705.50" Name="特恩勒恩" width="5.00" x="200.00" id="2636" ID="30002763" /><text x="200.00" y="705.50" id="2637">特恩勒恩</text><rect Type="system" Region="赛塔德洱" height="5.00" y="240.00" Name="依然纳克" width="5.00" x="220.00" id="2639" ID="30002810" /><text x="220.00" y="240.00" id="2640">依然纳克</text><rect Type="system" Region="赛塔德洱" height="5.00" y="660.00" Name="希瓦拉" width="5.00" x="220.00" id="2642" ID="30002765" /><text x="220.00" y="660.00" id="2643">希瓦拉</text><rect Type="system" Region="赛塔德洱" height="5.00" y="418.09" Name="以瑞亚" width="5.00" x="229.04" id="2645" ID="30002794" /><text x="229.04" y="418.09" id="2646">以瑞亚</text><rect Type="system" Region="赛塔德洱" height="5.00" y="190.00" Name="欧伊尼肯" width="5.00" x="250.00" id="2648" ID="30002750" /><text x="250.00" y="190.00" id="2649">欧伊尼肯</text><rect Type="system" Region="赛塔德洱" height="5.00" y="461.91" Name="库勒仑" width="5.00" x="250.96" id="2651" ID="30002771" /><text x="250.96" y="461.91" id="2652">库勒仑</text><rect Type="system" Region="赛塔德洱" height="5.00" y="40.00" Name="凯蒙" width="5.00" x="250.00" id="2654" ID="30002751" /><text x="250.00" y="40.00" id="2655">凯蒙</text><rect Type="system" Region="赛塔德洱" height="5.00" y="260.00" Name="塔玛" width="5.00" x="280.00" id="2657" ID="30002813" /><text x="280.00" y="260.00" id="2658">塔玛</text><rect Type="system" Region="赛塔德洱" height="5.00" y="710.00" Name="利维能" width="5.00" x="280.00" id="2660" ID="30002766" /><text x="280.00" y="710.00" id="2661">利维能</text><rect Type="system" Region="赛塔德洱" height="5.00" y="520.00" Name="劳洛蒙" width="5.00" x="280.00" id="2663" ID="30002772" /><text x="280.00" y="520.00" id="2664">劳洛蒙</text><rect Type="system" Region="赛塔德洱" height="5.00" y="110.00" Name="埃柯罗" width="5.00" x="300.00" id="2666" ID="30002753" /><text x="300.00" y="110.00" id="2667">埃柯罗</text><rect Type="system" Region="赛塔德洱" height="5.00" y="460.00" Name="霍基莫" width="5.00" x="320.00" id="2669" ID="30002773" /><text x="320.00" y="460.00" id="2670">霍基莫</text><rect Type="system" Region="赛塔德洱" height="5.00" y="410.00" Name="维尼纶" width="5.00" x="320.00" id="2672" ID="30002798" /><text x="320.00" y="410.00" id="2673">维尼纶</text><rect Type="system" Region="赛塔德洱" height="5.00" y="690.00" Name="哈托莫" width="5.00" x="380.00" id="2675" ID="30002800" /><text x="380.00" y="690.00" id="2676">哈托莫</text><rect Type="system" Region="赛塔德洱" height="5.00" y="90.00" Name="阿里卡拉" width="5.00" x="380.00" id="2678" ID="30002754" /><text x="380.00" y="90.00" id="2679">阿里卡拉</text><rect Type="system" Region="赛塔德洱" height="5.00" y="490.00" Name="胡塔肯" width="5.00" x="400.00" id="2681" ID="30002774" /><text x="400.00" y="490.00" id="2682">胡塔肯</text><rect Type="system" Region="赛塔德洱" height="5.00" y="600.00" Name="犹达玛" width="5.00" x="380.00" id="2684" ID="30002768" /><text x="380.00" y="600.00" id="2685">犹达玛</text><rect Type="system" Region="赛塔德洱" height="5.00" y="40.00" Name="考萨贾" width="5.00" x="424.50" id="2687" ID="30002749" /><text x="424.50" y="40.00" id="2688">考萨贾</text><rect Type="system" Region="赛塔德洱" height="5.00" y="190.00" Name="阿西纳达" width="5.00" x="420.00" id="2690" ID="30002752" /><text x="420.00" y="190.00" id="2691">阿西纳达</text><rect Type="system" Region="赛塔德洱" height="5.00" y="690.00" Name="苏洛肯" width="5.00" x="500.00" id="2693" ID="30002801" /><text x="500.00" y="690.00" id="2694">苏洛肯</text><rect Type="system" Region="赛塔德洱" height="5.00" y="610.00" Name="郡尼加什" width="5.00" x="500.00" id="2696" ID="30002803" /><text x="500.00" y="610.00" id="2697">郡尼加什</text><rect Type="system" Region="赛塔德洱" height="5.00" y="460.00" Name="哈莱玛" width="5.00" x="530.00" id="2699" ID="30002781" /><text x="530.00" y="460.00" id="2700">哈莱玛</text><rect Type="system" Region="赛塔德洱" height="5.00" y="750.00" Name="库索蒙莫" width="5.00" x="530.00" id="2702" ID="30002802" /><text x="530.00" y="750.00" id="2703">库索蒙莫</text><rect Type="system" Region="赛塔德洱" height="5.00" y="505.50" Name="卡密欧" width="5.00" x="550.00" id="2705" ID="30002782" /><text x="550.00" y="505.50" id="2706">卡密欧</text><rect Type="system" Region="赛塔德洱" height="5.00" y="60.00" Name="奥围肯" width="5.00" x="520.00" id="2708" ID="30002744" /><text x="520.00" y="60.00" id="2709">奥围肯</text><rect Type="system" Region="赛塔德洱" height="5.00" y="110.00" Name="卡基" width="5.00" x="520.00" id="2711" ID="30002747" /><text x="520.00" y="110.00" id="2712">卡基</text><rect Type="system" Region="赛塔德洱" height="5.00" y="554.50" Name="伊考" width="5.00" x="550.00" id="2714" ID="30002786" /><text x="550.00" y="554.50" id="2715">伊考</text><rect Type="system" Region="赛塔德洱" height="5.00" y="270.00" Name="欧伊茨亚" width="5.00" x="560.00" id="2717" ID="30002818" /><text x="560.00" y="270.00" id="2718">欧伊茨亚</text><rect Type="system" Region="赛塔德洱" height="5.00" y="640.00" Name="伊斯克索" width="5.00" x="600.00" id="2720" ID="30002804" /><text x="600.00" y="640.00" id="2721">伊斯克索</text><rect Type="system" Region="赛塔德洱" height="5.00" y="680.00" Name="安提利" width="5.00" x="630.00" id="2723" ID="30002805" /><text x="630.00" y="680.00" id="2724">安提利</text><rect Type="system" Region="赛塔德洱" height="5.00" y="320.00" Name="伊森纳洛斯" width="5.00" x="610.00" id="2726" ID="30002815" /><text x="610.00" y="320.00" id="2727">伊森纳洛斯</text><rect Type="system" Region="赛塔德洱" height="5.00" y="358.09" Name="乌提拉" width="5.00" x="579.04" id="2729" ID="30002814" /><text x="579.04" y="358.09" id="2730">乌提拉</text><rect Type="system" Region="赛塔德洱" height="5.00" y="401.91" Name="瓦伊拉" width="5.00" x="600.96" id="2732" ID="30002787" /><text x="600.96" y="401.91" id="2733">瓦伊拉</text><rect Type="system" Region="赛塔德洱" height="5.00" y="460.00" Name="三卡森" width="5.00" x="600.00" id="2735" ID="30002783" /><text x="600.00" y="460.00" id="2736">三卡森</text><rect Type="system" Region="赛塔德洱" height="5.00" y="10.00" Name="欧沃萨蒙" width="5.00" x="600.00" id="2738" ID="30002743" /><text x="600.00" y="10.00" id="2739">欧沃萨蒙</text><rect Type="system" Region="赛塔德洱" height="5.00" y="60.00" Name="欧贾蒙" width="5.00" x="600.00" id="2741" ID="30002746" /><text x="600.00" y="60.00" id="2742">欧贾蒙</text><rect Type="system" Region="赛塔德洱" height="5.00" y="110.00" Name="塞卡伦" width="5.00" x="600.00" id="2744" ID="30002745" /><text x="600.00" y="110.00" id="2745">塞卡伦</text><rect Type="system" Region="赛塔德洱" height="5.00" y="230.00" Name="莫茨" width="5.00" x="600.00" id="2747" ID="30002819" /><text x="600.00" y="230.00" id="2748">莫茨</text><rect Type="system" Region="赛塔德洱" height="5.00" y="160.00" Name="姆沃莱伦" width="5.00" x="650.00" id="2750" ID="30002780" /><text x="650.00" y="160.00" id="2751">姆沃莱伦</text><rect Type="system" Region="赛塔德洱" height="5.00" y="210.00" Name="帕尔拉" width="5.00" x="650.00" id="2753" ID="30002775" /><text x="650.00" y="210.00" id="2754">帕尔拉</text><rect Type="system" Region="赛塔德洱" height="5.00" y="370.00" Name="塞伊拉" width="5.00" x="660.00" id="2756" ID="30002816" /><text x="660.00" y="370.00" id="2757">塞伊拉</text><rect Type="system" Region="赛塔德洱" height="5.00" y="270.00" Name="腊阿" width="5.00" x="660.00" id="2759" ID="30041392" /><text x="660.00" y="270.00" id="2760">腊阿</text><rect Type="system" Region="赛塔德洱" height="5.00" y="430.00" Name="汀托" width="5.00" x="680.00" id="2762" ID="30002784" /><text x="680.00" y="430.00" id="2763">汀托</text><rect Type="system" Region="赛塔德洱" height="5.00" y="510.00" Name="萨托拉" width="5.00" x="680.00" id="2765" ID="30002785" /><text x="680.00" y="510.00" id="2766">萨托拉</text><rect Type="system" Region="赛塔德洱" height="5.00" y="320.00" Name="阿尔玛至" width="5.00" x="700.00" id="2768" ID="30002817" /><text x="700.00" y="320.00" id="2769">阿尔玛至</text><rect Type="system" Region="赛塔德洱" height="5.00" y="590.00" Name="伊尔君勒" width="5.00" x="700.00" id="2771" ID="30002792" /><text x="700.00" y="590.00" id="2772">伊尔君勒</text><rect Type="system" Region="赛塔德洱" height="5.00" y="640.00" Name="伊纳惹" width="5.00" x="700.00" id="2774" ID="30002793" /><text x="700.00" y="640.00" id="2775">伊纳惹</text><rect Type="system" Region="赛塔德洱" height="5.00" y="60.00" Name="杰拉斯" width="5.00" x="680.00" id="2777" ID="30002748" /><text x="680.00" y="60.00" id="2778">杰拉斯</text><rect Type="system" Region="赛塔德洱" height="5.00" y="540.00" Name="瓦斯基森" width="5.00" x="730.00" id="2780" ID="30002790" /><text x="730.00" y="540.00" id="2781">瓦斯基森</text><rect Type="system" Region="赛塔德洱" height="5.00" y="220.00" Name="安那罗" width="5.00" x="720.00" id="2783" ID="30002776" /><text x="720.00" y="220.00" id="2784">安那罗</text><rect Type="system" Region="赛塔德洱" height="5.00" y="690.00" Name="希尔帕拉" width="5.00" x="750.00" id="2786" ID="30002791" /><text x="750.00" y="690.00" id="2787">希尔帕拉</text><rect Type="system" Region="赛塔德洱" height="5.00" y="60.00" Name="乌赛" width="5.00" x="780.00" id="2789" ID="30002755" /><text x="780.00" y="60.00" id="2790">乌赛</text><rect Type="system" Region="赛塔德洱" height="5.00" y="460.00" Name="卡普特伦" width="5.00" x="800.00" id="2792" ID="30002789" /><text x="800.00" y="460.00" id="2793">卡普特伦</text><rect Type="system" Region="赛塔德洱" height="5.00" y="560.00" Name="伊纳洛" width="5.00" x="800.00" id="2795" ID="30002788" /><text x="800.00" y="560.00" id="2796">伊纳洛</text><rect Type="system" Region="赛塔德洱" height="5.00" y="240.00" Name="伊斯塔卡" width="5.00" x="800.00" id="2798" ID="30002777" /><text x="800.00" y="240.00" id="2799">伊斯塔卡</text><rect Type="system" Region="赛塔德洱" height="5.00" y="60.00" Name="伊索米肯" width="5.00" x="850.00" id="2801" ID="30002756" /><text x="850.00" y="60.00" id="2802">伊索米肯</text><rect Type="system" Region="赛塔德洱" height="5.00" y="110.00" Name="温纳" width="5.00" x="850.00" id="2804" ID="30002759" /><text x="850.00" y="110.00" id="2805">温纳</text><rect Type="system" Region="赛塔德洱" height="5.00" y="270.00" Name="塔萨比什" width="5.00" x="880.00" id="2807" ID="30002778" /><text x="880.00" y="270.00" id="2808">塔萨比什</text><rect Type="system" Region="赛塔德洱" height="5.00" y="60.00" Name="尼基什那" width="5.00" x="920.00" id="2810" ID="30002757" /><text x="920.00" y="60.00" id="2811">尼基什那</text><rect Type="system" Region="赛塔德洱" height="5.00" y="140.00" Name="曼贾纳克" width="5.00" x="910.00" id="2813" ID="30002760" /><text x="910.00" y="140.00" id="2814">曼贾纳克</text><rect Type="system" Region="赛塔德洱" height="5.00" y="320.00" Name="欧诺" width="5.00" x="940.00" id="2816" ID="30002779" /><text x="940.00" y="320.00" id="2817">欧诺</text><rect Type="system" Region="赛塔德洱" height="5.00" y="60.00" Name="哈萨马" width="5.00" x="1000.00" id="2819" ID="30002758" /><text x="1000.00" y="60.00" id="2820">哈萨马</text><rect Type="system" Region="维格温铎" height="5.00" y="210.00" Name="铁里耶维" width="5.00" x="20.00" id="2822" ID="30005334" /><text x="20.00" y="210.00" id="2823">铁里耶维</text><rect Type="system" Region="精华之域" height="5.00" y="640.00" Name="希恩彻尔" width="5.00" x="20.00" id="2825" ID="30005015" /><text x="20.00" y="640.00" id="2826">希恩彻尔</text><rect Type="system" Region="精华之域" height="5.00" y="710.00" Name="埃戈吉勒" width="5.00" x="20.00" id="2828" ID="30004972" /><text x="20.00" y="710.00" id="2829">埃戈吉勒</text><rect Type="system" Region="精华之域" height="5.00" y="260.00" Name="德温" width="5.00" x="50.00" id="2831" ID="30004985" /><text x="50.00" y="260.00" id="2832">德温</text><rect Type="system" Region="精华之域" height="5.00" y="751.91" Name="乔勒韦尔" width="5.00" x="99.04" id="2834" ID="30004974" /><text x="99.04" y="751.91" id="2835">乔勒韦尔</text><rect Type="system" Region="金纳泽" height="5.00" y="754.50" Name="尤尼尔" width="5.00" x="200.00" id="2837" ID="30002707" /><text x="200.00" y="754.50" id="2838">尤尼尔</text><rect Type="system" Region="暗涌之域" height="5.00" y="310.00" Name="柯达玛" width="5.00" x="280.00" id="2840" ID="30045346" /><text x="280.00" y="310.00" id="2841">柯达玛</text><rect Type="system" Region="长征" height="5.00" y="160.00" Name="伊斯科米" width="5.00" x="300.00" id="2843" ID="30001365" /><text x="300.00" y="160.00" id="2844">伊斯科米</text><rect Type="system" Region="长征" height="5.00" y="260.00" Name="努尔瓦凯肯" width="5.00" x="350.00" id="2846" ID="30001376" /><text x="350.00" y="260.00" id="2847">努尔瓦凯肯</text><rect Type="system" Region="长征" height="5.00" y="190.00" Name="法塔尼冷" width="5.00" x="350.00" id="2849" ID="30001364" /><text x="350.00" y="190.00" id="2850">法塔尼冷</text><rect Type="system" Region="长征" height="5.00" y="40.00" Name="维尔埃勒" width="5.00" x="375.50" id="2852" ID="30001380" /><text x="375.50" y="40.00" id="2853">维尔埃勒</text><rect Type="system" Region="长征" height="5.00" y="140.00" Name="伊萨纳莫" width="5.00" x="400.00" id="2855" ID="30001389" /><text x="400.00" y="140.00" id="2856">伊萨纳莫</text><rect Type="system" Region="长征" height="5.00" y="290.00" Name="吞塔拉斯" width="5.00" x="420.00" id="2858" ID="30001379" /><text x="420.00" y="290.00" id="2859">吞塔拉斯</text><rect Type="system" Region="长征" height="5.00" y="360.00" Name="撒了库瓦" width="5.00" x="480.00" id="2861" ID="30001377" /><text x="480.00" y="360.00" id="2862">撒了库瓦</text><rect Type="system" Region="伏尔戈" height="5.00" y="160.00" Name="新加达里" width="5.00" x="500.00" id="2864" ID="30000145" /><text x="500.00" y="160.00" id="2865">新加达里</text><rect Type="system" Region="伏尔戈" height="5.00" y="160.00" Name="吉他" width="5.00" x="580.00" id="2867" ID="30000142" /><text x="580.00" y="160.00" id="2868">吉他</text><rect Type="system" Region="伏尔戈" height="5.00" y="750.00" Name="乌尔仑" width="5.00" x="680.00" id="2870" ID="30000139" /><text x="680.00" y="750.00" id="2871">乌尔仑</text><rect Type="system" Region="伏尔戈" height="5.00" y="120.00" Name="玛乌纳斯" width="5.00" x="700.00" id="2873" ID="30000140" /><text x="700.00" y="120.00" id="2874">玛乌纳斯</text><rect Type="system" Region="伏尔戈" height="5.00" y="560.00" Name="希尔瑟新" width="5.00" x="900.00" id="2876" ID="30000127" /><text x="900.00" y="560.00" id="2877">希尔瑟新</text><rect Type="system" Region="长征" height="5.00" y="10.00" Name="马拉" width="5.00" x="1000.00" id="2879" ID="30001388" /><text x="1000.00" y="10.00" id="2880">马拉</text><rect Type="system" Region="暗涌之域" height="5.00" y="180.00" Name="姆什克基" width="5.00" x="980.00" id="2882" ID="30045334" /><text x="980.00" y="180.00" id="2883">姆什克基</text><line x2="100.00" style="fill:blue;stroke:blue;" y1="340.00" x1="20.00" id="2885" y2="310.00" /><line x2="50.00" style="fill:blue;stroke:blue;" y1="60.00" x1="50.00" id="2886" y2="110.00" /><line x2="50.00" style="fill:blue;stroke:blue;" y1="110.00" x1="50.00" id="2887" y2="60.00" /><line x2="120.00" style="fill:blue;stroke:blue;" y1="110.00" x1="50.00" id="2888" y2="110.00" /><line x2="120.96" style="fill:blue;stroke:blue;" y1="660.00" x1="80.00" id="2889" y2="708.09" /><line x2="150.00" style="fill:blue;stroke:blue;" y1="660.00" x1="80.00" id="2890" y2="660.00" /><line x2="20.00" style="fill:blue;stroke:blue;" y1="660.00" x1="80.00" id="2891" y2="710.00" /><line x2="20.00" style="fill:blue;stroke:blue;" y1="660.00" x1="80.00" id="2892" y2="640.00" /><line x2="150.00" style="fill:blue;stroke:blue;" y1="210.00" x1="100.00" id="2893" y2="240.00" /><line x2="20.00" style="fill:blue;stroke:blue;" y1="210.00" x1="100.00" id="2894" y2="210.00" /><line x2="120.00" style="fill:blue;stroke:blue;" y1="360.00" x1="100.00" id="2895" y2="420.00" /><line x2="100.00" style="fill:blue;stroke:blue;" y1="360.00" x1="100.00" id="2896" y2="310.00" /><line x2="100.00" style="fill:blue;stroke:blue;" y1="310.00" x1="100.00" id="2897" y2="360.00" /><line x2="20.00" style="fill:blue;stroke:blue;" y1="310.00" x1="100.00" id="2898" y2="340.00" /><line x2="150.00" style="fill:blue;stroke:blue;" y1="310.00" x1="100.00" id="2899" y2="290.00" /><line x2="50.00" style="fill:blue;stroke:blue;" y1="310.00" x1="100.00" id="2900" y2="260.00" /><line x2="180.00" style="fill:blue;stroke:blue;" y1="420.00" x1="120.00" id="2901" y2="460.00" /><line x2="180.00" style="fill:blue;stroke:blue;" y1="420.00" x1="120.00" id="2902" y2="390.00" /><line x2="100.00" style="fill:blue;stroke:blue;" y1="420.00" x1="120.00" id="2903" y2="360.00" /><line x2="80.00" style="fill:blue;stroke:blue;" y1="708.09" x1="120.96" id="2904" y2="660.00" /><line x2="200.00" style="fill:blue;stroke:blue;" y1="708.09" x1="120.96" id="2905" y2="705.50" /><line x2="150.00" style="fill:blue;stroke:blue;" y1="708.09" x1="120.96" id="2906" y2="660.00" /><line x2="99.04" style="fill:blue;stroke:blue;" y1="708.09" x1="120.96" id="2907" y2="751.91" /><line x2="180.00" style="fill:blue;stroke:blue;" y1="110.00" x1="120.00" id="2908" y2="140.00" /><line x2="50.00" style="fill:blue;stroke:blue;" y1="110.00" x1="120.00" id="2909" y2="110.00" /><line x2="180.00" style="fill:blue;stroke:blue;" y1="190.00" x1="150.00" id="2910" y2="140.00" /><line x2="250.00" style="fill:blue;stroke:blue;" y1="190.00" x1="150.00" id="2911" y2="190.00" /><line x2="80.00" style="fill:blue;stroke:blue;" y1="660.00" x1="150.00" id="2912" y2="660.00" /><line x2="120.96" style="fill:blue;stroke:blue;" y1="660.00" x1="150.00" id="2913" y2="708.09" /><line x2="200.00" style="fill:blue;stroke:blue;" y1="660.00" x1="150.00" id="2914" y2="705.50" /><line x2="220.00" style="fill:blue;stroke:blue;" y1="660.00" x1="150.00" id="2915" y2="660.00" /><line x2="150.00" style="fill:blue;stroke:blue;" y1="240.00" x1="150.00" id="2916" y2="290.00" /><line x2="220.00" style="fill:blue;stroke:blue;" y1="240.00" x1="150.00" id="2917" y2="240.00" /><line x2="100.00" style="fill:blue;stroke:blue;" y1="240.00" x1="150.00" id="2918" y2="210.00" /><line x2="100.00" style="fill:blue;stroke:blue;" y1="290.00" x1="150.00" id="2919" y2="310.00" /><line x2="220.00" style="fill:blue;stroke:blue;" y1="290.00" x1="150.00" id="2920" y2="240.00" /><line x2="150.00" style="fill:blue;stroke:blue;" y1="290.00" x1="150.00" id="2921" y2="240.00" /><line x2="280.00" style="fill:blue;stroke:blue;" y1="290.00" x1="150.00" id="2922" y2="260.00" /><line x2="220.00" style="fill:blue;stroke:blue;" y1="530.00" x1="220.00" id="2923" y2="590.00" /><line x2="280.00" style="fill:blue;stroke:blue;" y1="530.00" x1="220.00" id="2924" y2="520.00" /><line x2="150.00" style="fill:blue;stroke:blue;" y1="140.00" x1="180.00" id="2925" y2="190.00" /><line x2="120.00" style="fill:blue;stroke:blue;" y1="140.00" x1="180.00" id="2926" y2="110.00" /><line x2="229.04" style="fill:blue;stroke:blue;" y1="390.00" x1="180.00" id="2927" y2="418.09" /><line x2="180.00" style="fill:blue;stroke:blue;" y1="390.00" x1="180.00" id="2928" y2="460.00" /><line x2="120.00" style="fill:blue;stroke:blue;" y1="390.00" x1="180.00" id="2929" y2="420.00" /><line x2="229.04" style="fill:blue;stroke:blue;" y1="460.00" x1="180.00" id="2930" y2="418.09" /><line x2="120.00" style="fill:blue;stroke:blue;" y1="460.00" x1="180.00" id="2931" y2="420.00" /><line x2="180.00" style="fill:blue;stroke:blue;" y1="460.00" x1="180.00" id="2932" y2="390.00" /><line x2="220.00" style="fill:blue;stroke:blue;" y1="590.00" x1="220.00" id="2933" y2="660.00" /><line x2="380.00" style="fill:blue;stroke:blue;" y1="590.00" x1="220.00" id="2934" y2="600.00" /><line x2="220.00" style="fill:blue;stroke:blue;" y1="590.00" x1="220.00" id="2935" y2="530.00" /><line x2="200.00" style="fill:blue;stroke:blue;" y1="705.50" x1="200.00" id="2936" y2="754.50" /><line x2="120.96" style="fill:blue;stroke:blue;" y1="705.50" x1="200.00" id="2937" y2="708.09" /><line x2="150.00" style="fill:blue;stroke:blue;" y1="705.50" x1="200.00" id="2938" y2="660.00" /><line x2="280.00" style="fill:blue;stroke:blue;" y1="705.50" x1="200.00" id="2939" y2="710.00" /><line x2="150.00" style="fill:blue;stroke:blue;" y1="240.00" x1="220.00" id="2940" y2="290.00" /><line x2="150.00" style="fill:blue;stroke:blue;" y1="240.00" x1="220.00" id="2941" y2="240.00" /><line x2="150.00" style="fill:blue;stroke:blue;" y1="660.00" x1="220.00" id="2942" y2="660.00" /><line x2="280.00" style="fill:blue;stroke:blue;" y1="660.00" x1="220.00" id="2943" y2="710.00" /><line x2="220.00" style="fill:blue;stroke:blue;" y1="660.00" x1="220.00" id="2944" y2="590.00" /><line x2="380.00" style="fill:blue;stroke:blue;" y1="660.00" x1="220.00" id="2945" y2="600.00" /><line x2="250.96" style="fill:blue;stroke:blue;" y1="418.09" x1="229.04" id="2946" y2="461.91" /><line x2="180.00" style="fill:blue;stroke:blue;" y1="418.09" x1="229.04" id="2947" y2="460.00" /><line x2="180.00" style="fill:blue;stroke:blue;" y1="418.09" x1="229.04" id="2948" y2="390.00" /><line x2="150.00" style="fill:blue;stroke:blue;" y1="190.00" x1="250.00" id="2949" y2="190.00" /><line x2="250.00" style="fill:blue;stroke:blue;" y1="190.00" x1="250.00" id="2950" y2="40.00" /><line x2="420.00" style="fill:blue;stroke:blue;" y1="190.00" x1="250.00" id="2951" y2="190.00" /><line x2="300.00" style="fill:blue;stroke:blue;" y1="190.00" x1="250.00" id="2952" y2="110.00" /><line x2="320.00" style="fill:blue;stroke:blue;" y1="461.91" x1="250.96" id="2953" y2="460.00" /><line x2="229.04" style="fill:blue;stroke:blue;" y1="461.91" x1="250.96" id="2954" y2="418.09" /><line x2="424.50" style="fill:blue;stroke:blue;" y1="40.00" x1="250.00" id="2955" y2="40.00" /><line x2="250.00" style="fill:blue;stroke:blue;" y1="40.00" x1="250.00" id="2956" y2="190.00" /><line x2="380.00" style="fill:blue;stroke:blue;" y1="40.00" x1="250.00" id="2957" y2="90.00" /><line x2="350.00" style="fill:blue;stroke:blue;" y1="260.00" x1="280.00" id="2958" y2="260.00" /><line x2="150.00" style="fill:blue;stroke:blue;" y1="260.00" x1="280.00" id="2959" y2="290.00" /><line x2="280.00" style="fill:blue;stroke:blue;" y1="260.00" x1="280.00" id="2960" y2="310.00" /><line x2="200.00" style="fill:blue;stroke:blue;" y1="710.00" x1="280.00" id="2961" y2="705.50" /><line x2="220.00" style="fill:blue;stroke:blue;" y1="710.00" x1="280.00" id="2962" y2="660.00" /><line x2="220.00" style="fill:blue;stroke:blue;" y1="520.00" x1="280.00" id="2963" y2="530.00" /><line x2="400.00" style="fill:blue;stroke:blue;" y1="520.00" x1="280.00" id="2964" y2="490.00" /><line x2="350.00" style="fill:blue;stroke:blue;" y1="110.00" x1="300.00" id="2965" y2="190.00" /><line x2="300.00" style="fill:blue;stroke:blue;" y1="110.00" x1="300.00" id="2966" y2="160.00" /><line x2="250.00" style="fill:blue;stroke:blue;" y1="110.00" x1="300.00" id="2967" y2="190.00" /><line x2="380.00" style="fill:blue;stroke:blue;" y1="110.00" x1="300.00" id="2968" y2="90.00" /><line x2="250.96" style="fill:blue;stroke:blue;" y1="460.00" x1="320.00" id="2969" y2="461.91" /><line x2="400.00" style="fill:blue;stroke:blue;" y1="460.00" x1="320.00" id="2970" y2="490.00" /><line x2="320.00" style="fill:blue;stroke:blue;" y1="460.00" x1="320.00" id="2971" y2="410.00" /><line x2="320.00" style="fill:blue;stroke:blue;" y1="410.00" x1="320.00" id="2972" y2="460.00" /><line x2="380.00" style="fill:blue;stroke:blue;" y1="690.00" x1="380.00" id="2973" y2="600.00" /><line x2="500.00" style="fill:blue;stroke:blue;" y1="690.00" x1="380.00" id="2974" y2="690.00" /><line x2="500.00" style="fill:blue;stroke:blue;" y1="90.00" x1="380.00" id="2975" y2="160.00" /><line x2="375.50" style="fill:blue;stroke:blue;" y1="90.00" x1="380.00" id="2976" y2="40.00" /><line x2="400.00" style="fill:blue;stroke:blue;" y1="90.00" x1="380.00" id="2977" y2="140.00" /><line x2="250.00" style="fill:blue;stroke:blue;" y1="90.00" x1="380.00" id="2978" y2="40.00" /><line x2="300.00" style="fill:blue;stroke:blue;" y1="90.00" x1="380.00" id="2979" y2="110.00" /><line x2="280.00" style="fill:blue;stroke:blue;" y1="490.00" x1="400.00" id="2980" y2="520.00" /><line x2="320.00" style="fill:blue;stroke:blue;" y1="490.00" x1="400.00" id="2981" y2="460.00" /><line x2="530.00" style="fill:blue;stroke:blue;" y1="490.00" x1="400.00" id="2982" y2="460.00" /><line x2="220.00" style="fill:blue;stroke:blue;" y1="600.00" x1="380.00" id="2983" y2="660.00" /><line x2="220.00" style="fill:blue;stroke:blue;" y1="600.00" x1="380.00" id="2984" y2="590.00" /><line x2="550.00" style="fill:blue;stroke:blue;" y1="600.00" x1="380.00" id="2985" y2="554.50" /><line x2="380.00" style="fill:blue;stroke:blue;" y1="600.00" x1="380.00" id="2986" y2="690.00" /><line x2="500.00" style="fill:blue;stroke:blue;" y1="600.00" x1="380.00" id="2987" y2="610.00" /><line x2="520.00" style="fill:blue;stroke:blue;" y1="40.00" x1="424.50" id="2988" y2="60.00" /><line x2="250.00" style="fill:blue;stroke:blue;" y1="40.00" x1="424.50" id="2989" y2="40.00" /><line x2="420.00" style="fill:blue;stroke:blue;" y1="40.00" x1="424.50" id="2990" y2="190.00" /><line x2="420.00" style="fill:blue;stroke:blue;" y1="190.00" x1="420.00" id="2991" y2="290.00" /><line x2="424.50" style="fill:blue;stroke:blue;" y1="190.00" x1="420.00" id="2992" y2="40.00" /><line x2="250.00" style="fill:blue;stroke:blue;" y1="190.00" x1="420.00" id="2993" y2="190.00" /><line x2="650.00" style="fill:blue;stroke:blue;" y1="190.00" x1="420.00" id="2994" y2="210.00" /><line x2="380.00" style="fill:blue;stroke:blue;" y1="690.00" x1="500.00" id="2995" y2="690.00" /><line x2="530.00" style="fill:blue;stroke:blue;" y1="690.00" x1="500.00" id="2996" y2="750.00" /><line x2="500.00" style="fill:blue;stroke:blue;" y1="690.00" x1="500.00" id="2997" y2="610.00" /><line x2="630.00" style="fill:blue;stroke:blue;" y1="690.00" x1="500.00" id="2998" y2="680.00" /><line x2="380.00" style="fill:blue;stroke:blue;" y1="610.00" x1="500.00" id="2999" y2="600.00" /><line x2="550.00" style="fill:blue;stroke:blue;" y1="610.00" x1="500.00" id="3000" y2="554.50" /><line x2="500.00" style="fill:blue;stroke:blue;" y1="610.00" x1="500.00" id="3001" y2="690.00" /><line x2="600.00" style="fill:blue;stroke:blue;" y1="610.00" x1="500.00" id="3002" y2="640.00" /><line x2="630.00" style="fill:blue;stroke:blue;" y1="610.00" x1="500.00" id="3003" y2="680.00" /><line x2="480.00" style="fill:blue;stroke:blue;" y1="460.00" x1="530.00" id="3004" y2="360.00" /><line x2="400.00" style="fill:blue;stroke:blue;" y1="460.00" x1="530.00" id="3005" y2="490.00" /><line x2="550.00" style="fill:blue;stroke:blue;" y1="460.00" x1="530.00" id="3006" y2="505.50" /><line x2="600.00" style="fill:blue;stroke:blue;" y1="460.00" x1="530.00" id="3007" y2="460.00" /><line x2="680.00" style="fill:blue;stroke:blue;" y1="750.00" x1="530.00" id="3008" y2="750.00" /><line x2="500.00" style="fill:blue;stroke:blue;" y1="750.00" x1="530.00" id="3009" y2="690.00" /><line x2="530.00" style="fill:blue;stroke:blue;" y1="505.50" x1="550.00" id="3010" y2="460.00" /><line x2="550.00" style="fill:blue;stroke:blue;" y1="505.50" x1="550.00" id="3011" y2="554.50" /><line x2="800.00" style="fill:blue;stroke:blue;" y1="505.50" x1="550.00" id="3012" y2="460.00" /><line x2="600.00" style="fill:blue;stroke:blue;" y1="60.00" x1="520.00" id="3013" y2="10.00" /><line x2="600.00" style="fill:blue;stroke:blue;" y1="60.00" x1="520.00" id="3014" y2="60.00" /><line x2="520.00" style="fill:blue;stroke:blue;" y1="60.00" x1="520.00" id="3015" y2="110.00" /><line x2="424.50" style="fill:blue;stroke:blue;" y1="60.00" x1="520.00" id="3016" y2="40.00" /><line x2="520.00" style="fill:blue;stroke:blue;" y1="110.00" x1="520.00" id="3017" y2="60.00" /><line x2="600.00" style="fill:blue;stroke:blue;" y1="110.00" x1="520.00" id="3018" y2="110.00" /><line x2="380.00" style="fill:blue;stroke:blue;" y1="554.50" x1="550.00" id="3019" y2="600.00" /><line x2="550.00" style="fill:blue;stroke:blue;" y1="554.50" x1="550.00" id="3020" y2="505.50" /><line x2="680.00" style="fill:blue;stroke:blue;" y1="554.50" x1="550.00" id="3021" y2="510.00" /><line x2="730.00" style="fill:blue;stroke:blue;" y1="554.50" x1="550.00" id="3022" y2="540.00" /><line x2="700.00" style="fill:blue;stroke:blue;" y1="554.50" x1="550.00" id="3023" y2="590.00" /><line x2="500.00" style="fill:blue;stroke:blue;" y1="554.50" x1="550.00" id="3024" y2="610.00" /><line x2="610.00" style="fill:blue;stroke:blue;" y1="270.00" x1="560.00" id="3025" y2="320.00" /><line x2="600.00" style="fill:blue;stroke:blue;" y1="270.00" x1="560.00" id="3026" y2="230.00" /><line x2="660.00" style="fill:blue;stroke:blue;" y1="270.00" x1="560.00" id="3027" y2="270.00" /><line x2="500.00" style="fill:blue;stroke:blue;" y1="640.00" x1="600.00" id="3028" y2="610.00" /><line x2="630.00" style="fill:blue;stroke:blue;" y1="640.00" x1="600.00" id="3029" y2="680.00" /><line x2="750.00" style="fill:blue;stroke:blue;" y1="680.00" x1="630.00" id="3030" y2="690.00" /><line x2="500.00" style="fill:blue;stroke:blue;" y1="680.00" x1="630.00" id="3031" y2="690.00" /><line x2="500.00" style="fill:blue;stroke:blue;" y1="680.00" x1="630.00" id="3032" y2="610.00" /><line x2="600.00" style="fill:blue;stroke:blue;" y1="680.00" x1="630.00" id="3033" y2="640.00" /><line x2="579.04" style="fill:blue;stroke:blue;" y1="320.00" x1="610.00" id="3034" y2="358.09" /><line x2="660.00" style="fill:blue;stroke:blue;" y1="320.00" x1="610.00" id="3035" y2="370.00" /><line x2="560.00" style="fill:blue;stroke:blue;" y1="320.00" x1="610.00" id="3036" y2="270.00" /><line x2="600.96" style="fill:blue;stroke:blue;" y1="358.09" x1="579.04" id="3037" y2="401.91" /><line x2="610.00" style="fill:blue;stroke:blue;" y1="358.09" x1="579.04" id="3038" y2="320.00" /><line x2="600.00" style="fill:blue;stroke:blue;" y1="401.91" x1="600.96" id="3039" y2="460.00" /><line x2="579.04" style="fill:blue;stroke:blue;" y1="401.91" x1="600.96" id="3040" y2="358.09" /><line x2="530.00" style="fill:blue;stroke:blue;" y1="460.00" x1="600.00" id="3041" y2="460.00" /><line x2="680.00" style="fill:blue;stroke:blue;" y1="460.00" x1="600.00" id="3042" y2="430.00" /><line x2="600.96" style="fill:blue;stroke:blue;" y1="460.00" x1="600.00" id="3043" y2="401.91" /><line x2="520.00" style="fill:blue;stroke:blue;" y1="10.00" x1="600.00" id="3044" y2="60.00" /><line x2="680.00" style="fill:blue;stroke:blue;" y1="10.00" x1="600.00" id="3045" y2="60.00" /><line x2="520.00" style="fill:blue;stroke:blue;" y1="60.00" x1="600.00" id="3046" y2="60.00" /><line x2="600.00" style="fill:blue;stroke:blue;" y1="60.00" x1="600.00" id="3047" y2="110.00" /><line x2="680.00" style="fill:blue;stroke:blue;" y1="60.00" x1="600.00" id="3048" y2="60.00" /><line x2="600.00" style="fill:blue;stroke:blue;" y1="110.00" x1="600.00" id="3049" y2="60.00" /><line x2="520.00" style="fill:blue;stroke:blue;" y1="110.00" x1="600.00" id="3050" y2="110.00" /><line x2="560.00" style="fill:blue;stroke:blue;" y1="230.00" x1="600.00" id="3051" y2="270.00" /><line x2="660.00" style="fill:blue;stroke:blue;" y1="230.00" x1="600.00" id="3052" y2="270.00" /><line x2="700.00" style="fill:blue;stroke:blue;" y1="160.00" x1="650.00" id="3053" y2="120.00" /><line x2="580.00" style="fill:blue;stroke:blue;" y1="160.00" x1="650.00" id="3054" y2="160.00" /><line x2="650.00" style="fill:blue;stroke:blue;" y1="160.00" x1="650.00" id="3055" y2="210.00" /><line x2="720.00" style="fill:blue;stroke:blue;" y1="160.00" x1="650.00" id="3056" y2="220.00" /><line x2="420.00" style="fill:blue;stroke:blue;" y1="210.00" x1="650.00" id="3057" y2="190.00" /><line x2="720.00" style="fill:blue;stroke:blue;" y1="210.00" x1="650.00" id="3058" y2="220.00" /><line x2="650.00" style="fill:blue;stroke:blue;" y1="210.00" x1="650.00" id="3059" y2="160.00" /><line x2="610.00" style="fill:blue;stroke:blue;" y1="370.00" x1="660.00" id="3060" y2="320.00" /><line x2="700.00" style="fill:blue;stroke:blue;" y1="370.00" x1="660.00" id="3061" y2="320.00" /><line x2="700.00" style="fill:blue;stroke:blue;" y1="270.00" x1="660.00" id="3062" y2="320.00" /><line x2="560.00" style="fill:blue;stroke:blue;" y1="270.00" x1="660.00" id="3063" y2="270.00" /><line x2="600.00" style="fill:blue;stroke:blue;" y1="270.00" x1="660.00" id="3064" y2="230.00" /><line x2="600.00" style="fill:blue;stroke:blue;" y1="430.00" x1="680.00" id="3065" y2="460.00" /><line x2="680.00" style="fill:blue;stroke:blue;" y1="430.00" x1="680.00" id="3066" y2="510.00" /><line x2="680.00" style="fill:blue;stroke:blue;" y1="510.00" x1="680.00" id="3067" y2="430.00" /><line x2="550.00" style="fill:blue;stroke:blue;" y1="510.00" x1="680.00" id="3068" y2="554.50" /><line x2="660.00" style="fill:blue;stroke:blue;" y1="320.00" x1="700.00" id="3069" y2="370.00" /><line x2="660.00" style="fill:blue;stroke:blue;" y1="320.00" x1="700.00" id="3070" y2="270.00" /><line x2="550.00" style="fill:blue;stroke:blue;" y1="590.00" x1="700.00" id="3071" y2="554.50" /><line x2="730.00" style="fill:blue;stroke:blue;" y1="590.00" x1="700.00" id="3072" y2="540.00" /><line x2="700.00" style="fill:blue;stroke:blue;" y1="590.00" x1="700.00" id="3073" y2="640.00" /><line x2="700.00" style="fill:blue;stroke:blue;" y1="640.00" x1="700.00" id="3074" y2="590.00" /><line x2="600.00" style="fill:blue;stroke:blue;" y1="60.00" x1="680.00" id="3075" y2="10.00" /><line x2="600.00" style="fill:blue;stroke:blue;" y1="60.00" x1="680.00" id="3076" y2="60.00" /><line x2="780.00" style="fill:blue;stroke:blue;" y1="60.00" x1="680.00" id="3077" y2="60.00" /><line x2="550.00" style="fill:blue;stroke:blue;" y1="540.00" x1="730.00" id="3078" y2="554.50" /><line x2="800.00" style="fill:blue;stroke:blue;" y1="540.00" x1="730.00" id="3079" y2="560.00" /><line x2="700.00" style="fill:blue;stroke:blue;" y1="540.00" x1="730.00" id="3080" y2="590.00" /><line x2="650.00" style="fill:blue;stroke:blue;" y1="220.00" x1="720.00" id="3081" y2="210.00" /><line x2="800.00" style="fill:blue;stroke:blue;" y1="220.00" x1="720.00" id="3082" y2="240.00" /><line x2="650.00" style="fill:blue;stroke:blue;" y1="220.00" x1="720.00" id="3083" y2="160.00" /><line x2="680.00" style="fill:blue;stroke:blue;" y1="690.00" x1="750.00" id="3084" y2="750.00" /><line x2="800.00" style="fill:blue;stroke:blue;" y1="690.00" x1="750.00" id="3085" y2="560.00" /><line x2="630.00" style="fill:blue;stroke:blue;" y1="690.00" x1="750.00" id="3086" y2="680.00" /><line x2="680.00" style="fill:blue;stroke:blue;" y1="60.00" x1="780.00" id="3087" y2="60.00" /><line x2="850.00" style="fill:blue;stroke:blue;" y1="60.00" x1="780.00" id="3088" y2="60.00" /><line x2="550.00" style="fill:blue;stroke:blue;" y1="460.00" x1="800.00" id="3089" y2="505.50" /><line x2="800.00" style="fill:blue;stroke:blue;" y1="460.00" x1="800.00" id="3090" y2="560.00" /><line x2="900.00" style="fill:blue;stroke:blue;" y1="560.00" x1="800.00" id="3091" y2="560.00" /><line x2="800.00" style="fill:blue;stroke:blue;" y1="560.00" x1="800.00" id="3092" y2="460.00" /><line x2="730.00" style="fill:blue;stroke:blue;" y1="560.00" x1="800.00" id="3093" y2="540.00" /><line x2="750.00" style="fill:blue;stroke:blue;" y1="560.00" x1="800.00" id="3094" y2="690.00" /><line x2="720.00" style="fill:blue;stroke:blue;" y1="240.00" x1="800.00" id="3095" y2="220.00" /><line x2="880.00" style="fill:blue;stroke:blue;" y1="240.00" x1="800.00" id="3096" y2="270.00" /><line x2="780.00" style="fill:blue;stroke:blue;" y1="60.00" x1="850.00" id="3097" y2="60.00" /><line x2="920.00" style="fill:blue;stroke:blue;" y1="60.00" x1="850.00" id="3098" y2="60.00" /><line x2="850.00" style="fill:blue;stroke:blue;" y1="60.00" x1="850.00" id="3099" y2="110.00" /><line x2="850.00" style="fill:blue;stroke:blue;" y1="110.00" x1="850.00" id="3100" y2="60.00" /><line x2="910.00" style="fill:blue;stroke:blue;" y1="110.00" x1="850.00" id="3101" y2="140.00" /><line x2="800.00" style="fill:blue;stroke:blue;" y1="270.00" x1="880.00" id="3102" y2="240.00" /><line x2="940.00" style="fill:blue;stroke:blue;" y1="270.00" x1="880.00" id="3103" y2="320.00" /><line x2="850.00" style="fill:blue;stroke:blue;" y1="60.00" x1="920.00" id="3104" y2="60.00" /><line x2="1000.00" style="fill:blue;stroke:blue;" y1="60.00" x1="920.00" id="3105" y2="60.00" /><line x2="850.00" style="fill:blue;stroke:blue;" y1="140.00" x1="910.00" id="3106" y2="110.00" /><line x2="980.00" style="fill:blue;stroke:blue;" y1="140.00" x1="910.00" id="3107" y2="180.00" /><line x2="880.00" style="fill:blue;stroke:blue;" y1="320.00" x1="940.00" id="3108" y2="270.00" /><line x2="1000.00" style="fill:blue;stroke:blue;" y1="60.00" x1="1000.00" id="3109" y2="10.00" /><line x2="920.00" style="fill:blue;stroke:blue;" y1="60.00" x1="1000.00" id="3110" y2="60.00" /><line x2="100.00" style="fill:blue;stroke:blue;" y1="210.00" x1="20.00" id="3111" y2="210.00" /><line x2="80.00" style="fill:blue;stroke:blue;" y1="640.00" x1="20.00" id="3112" y2="660.00" /><line x2="20.00" style="fill:blue;stroke:blue;" y1="640.00" x1="20.00" id="3113" y2="710.00" /><line x2="80.00" style="fill:blue;stroke:blue;" y1="710.00" x1="20.00" id="3114" y2="660.00" /><line x2="20.00" style="fill:blue;stroke:blue;" y1="710.00" x1="20.00" id="3115" y2="640.00" /><line x2="100.00" style="fill:blue;stroke:blue;" y1="260.00" x1="50.00" id="3116" y2="310.00" /><line x2="120.96" style="fill:blue;stroke:blue;" y1="751.91" x1="99.04" id="3117" y2="708.09" /><line x2="200.00" style="fill:blue;stroke:blue;" y1="754.50" x1="200.00" id="3118" y2="705.50" /><line x2="280.00" style="fill:blue;stroke:blue;" y1="310.00" x1="280.00" id="3119" y2="260.00" /><line x2="350.00" style="fill:blue;stroke:blue;" y1="160.00" x1="300.00" id="3120" y2="190.00" /><line x2="300.00" style="fill:blue;stroke:blue;" y1="160.00" x1="300.00" id="3121" y2="110.00" /><line x2="420.00" style="fill:blue;stroke:blue;" y1="260.00" x1="350.00" id="3122" y2="290.00" /><line x2="280.00" style="fill:blue;stroke:blue;" y1="260.00" x1="350.00" id="3123" y2="260.00" /><line x2="300.00" style="fill:blue;stroke:blue;" y1="190.00" x1="350.00" id="3124" y2="160.00" /><line x2="300.00" style="fill:blue;stroke:blue;" y1="190.00" x1="350.00" id="3125" y2="110.00" /><line x2="380.00" style="fill:blue;stroke:blue;" y1="40.00" x1="375.50" id="3126" y2="90.00" /><line x2="380.00" style="fill:blue;stroke:blue;" y1="140.00" x1="400.00" id="3127" y2="90.00" /><line x2="350.00" style="fill:blue;stroke:blue;" y1="290.00" x1="420.00" id="3128" y2="260.00" /><line x2="480.00" style="fill:blue;stroke:blue;" y1="290.00" x1="420.00" id="3129" y2="360.00" /><line x2="420.00" style="fill:blue;stroke:blue;" y1="290.00" x1="420.00" id="3130" y2="190.00" /><line x2="420.00" style="fill:blue;stroke:blue;" y1="360.00" x1="480.00" id="3131" y2="290.00" /><line x2="530.00" style="fill:blue;stroke:blue;" y1="360.00" x1="480.00" id="3132" y2="460.00" /><line x2="580.00" style="fill:blue;stroke:blue;" y1="160.00" x1="500.00" id="3133" y2="160.00" /><line x2="380.00" style="fill:blue;stroke:blue;" y1="160.00" x1="500.00" id="3134" y2="90.00" /><line x2="700.00" style="fill:blue;stroke:blue;" y1="160.00" x1="580.00" id="3135" y2="120.00" /><line x2="500.00" style="fill:blue;stroke:blue;" y1="160.00" x1="580.00" id="3136" y2="160.00" /><line x2="650.00" style="fill:blue;stroke:blue;" y1="160.00" x1="580.00" id="3137" y2="160.00" /><line x2="750.00" style="fill:blue;stroke:blue;" y1="750.00" x1="680.00" id="3138" y2="690.00" /><line x2="530.00" style="fill:blue;stroke:blue;" y1="750.00" x1="680.00" id="3139" y2="750.00" /><line x2="580.00" style="fill:blue;stroke:blue;" y1="120.00" x1="700.00" id="3140" y2="160.00" /><line x2="650.00" style="fill:blue;stroke:blue;" y1="120.00" x1="700.00" id="3141" y2="160.00" /><line x2="800.00" style="fill:blue;stroke:blue;" y1="560.00" x1="900.00" id="3142" y2="560.00" /><line x2="1000.00" style="fill:blue;stroke:blue;" y1="10.00" x1="1000.00" id="3143" y2="60.00" /><line x2="910.00" style="fill:blue;stroke:blue;" y1="180.00" x1="980.00" id="3144" y2="140.00" /></svg>
