<?xml version="1.0" standalone="yes"?><!DOCTYPE svg PUBLIC "-//W3C//DTD SVG 1.1//EN" "http://www.w3.org/Graphics/SVG/1.1/DTD/svg11.dtd"[]><svg width="1050.00" height="800.00" id="2578" xmlns="http://www.w3.org/2000/svg" xmlns:xlink="http://www.w3.org/1999/xlink"><rect Type="system" x="20.00" id="2579" height="5.00" width="5.00" Name="欧图" ID="30002808" Region="赛塔德洱" y="340.00" /><text y="340.00" x="20.00" id="2580">欧图</text><rect Type="system" x="50.00" id="2582" height="5.00" width="5.00" Name="霍尔吉森" ID="30002741" Region="赛塔德洱" y="60.00" /><text y="60.00" x="50.00" id="2583">霍尔吉森</text><rect Type="system" x="50.00" id="2585" height="5.00" width="5.00" Name="尤图" ID="30002740" Region="赛塔德洱" y="110.00" /><text y="110.00" x="50.00" id="2586">尤图</text><rect Type="system" x="80.00" id="2588" height="5.00" width="5.00" Name="卡斯简恩" ID="30002761" Region="赛塔德洱" y="660.00" /><text y="660.00" x="80.00" id="2589">卡斯简恩</text><rect Type="system" x="100.00" id="2591" height="5.00" width="5.00" Name="塔诺冷" ID="30002812" Region="赛塔德洱" y="210.00" /><text y="210.00" x="100.00" id="2592">塔诺冷</text><rect Type="system" x="100.00" id="2594" height="5.00" width="5.00" Name="哈斯米贾拉" ID="30002806" Region="赛塔德洱" y="360.00" /><text y="360.00" x="100.00" id="2595">哈斯米贾拉</text><rect Type="system" x="100.00" id="2597" height="5.00" width="5.00" Name="那加玛嫩" ID="30002807" Region="赛塔德洱" y="310.00" /><text y="310.00" x="100.00" id="2598">那加玛嫩</text><rect Type="system" x="120.00" id="2600" height="5.00" width="5.00" Name="希瑟拉" ID="30002796" Region="赛塔德洱" y="420.00" /><text y="420.00" x="120.00" id="2601">希瑟拉</text><rect Type="system" x="120.96" id="2603" height="5.00" width="5.00" Name="亚述勒恩" ID="30002762" Region="赛塔德洱" y="708.09" /><text y="708.09" x="120.96" id="2604">亚述勒恩</text><rect Type="system" x="120.00" id="2606" height="5.00" width="5.00" Name="伊瑞纳" ID="30002742" Region="赛塔德洱" y="110.00" /><text y="110.00" x="120.00" id="2607">伊瑞纳</text><rect Type="system" x="150.00" id="2609" height="5.00" width="5.00" Name="伊萨茨瓦" ID="30002739" Region="赛塔德洱" y="190.00" /><text y="190.00" x="150.00" id="2610">伊萨茨瓦</text><rect Type="system" x="150.00" id="2612" height="5.00" width="5.00" Name="哈塔卡尼" ID="30002764" Region="赛塔德洱" y="660.00" /><text y="660.00" x="150.00" id="2613">哈塔卡尼</text><rect Type="system" x="150.00" id="2615" height="5.00" width="5.00" Name="欧纳托" ID="30002811" Region="赛塔德洱" y="240.00" /><text y="240.00" x="150.00" id="2616">欧纳托</text><rect Type="system" x="150.00" id="2618" height="5.00" width="5.00" Name="苏加仁托" ID="30002809" Region="赛塔德洱" y="290.00" /><text y="290.00" x="150.00" id="2619">苏加仁托</text><rect Type="system" x="220.00" id="2621" height="5.00" width="5.00" Name="埃德诺冷" ID="30002769" Region="赛塔德洱" y="530.00" /><text y="530.00" x="220.00" id="2622">埃德诺冷</text><rect Type="system" x="180.00" id="2624" height="5.00" width="5.00" Name="伊诺尤" ID="30002738" Region="赛塔德洱" y="140.00" /><text y="140.00" x="180.00" id="2625">伊诺尤</text><rect Type="system" x="180.00" id="2627" height="5.00" width="5.00" Name="欧希约" ID="30002799" Region="赛塔德洱" y="390.00" /><text y="390.00" x="180.00" id="2628">欧希约</text><rect Type="system" x="180.00" id="2630" height="5.00" width="5.00" Name="奥沙伊马" ID="30002795" Region="赛塔德洱" y="460.00" /><text y="460.00" x="180.00" id="2631">奥沙伊马</text><rect Type="system" x="220.00" id="2633" height="5.00" width="5.00" Name="库比伦" ID="30002767" Region="赛塔德洱" y="590.00" /><text y="590.00" x="220.00" id="2634">库比伦</text><rect Type="system" x="200.00" id="2636" height="5.00" width="5.00" Name="特恩勒恩" ID="30002763" Region="赛塔德洱" y="705.50" /><text y="705.50" x="200.00" id="2637">特恩勒恩</text><rect Type="system" x="220.00" id="2639" height="5.00" width="5.00" Name="依然纳克" ID="30002810" Region="赛塔德洱" y="240.00" /><text y="240.00" x="220.00" id="2640">依然纳克</text><rect Type="system" x="220.00" id="2642" height="5.00" width="5.00" Name="希瓦拉" ID="30002765" Region="赛塔德洱" y="660.00" /><text y="660.00" x="220.00" id="2643">希瓦拉</text><rect Type="system" x="229.04" id="2645" height="5.00" width="5.00" Name="以瑞亚" ID="30002794" Region="赛塔德洱" y="418.09" /><text y="418.09" x="229.04" id="2646">以瑞亚</text><rect Type="system" x="250.00" id="2648" height="5.00" width="5.00" Name="欧伊尼肯" ID="30002750" Region="赛塔德洱" y="190.00" /><text y="190.00" x="250.00" id="2649">欧伊尼肯</text><rect Type="system" x="250.96" id="2651" height="5.00" width="5.00" Name="库勒仑" ID="30002771" Region="赛塔德洱" y="461.91" /><text y="461.91" x="250.96" id="2652">库勒仑</text><rect Type="system" x="250.00" id="2654" height="5.00" width="5.00" Name="凯蒙" ID="30002751" Region="赛塔德洱" y="40.00" /><text y="40.00" x="250.00" id="2655">凯蒙</text><rect Type="system" x="280.00" id="2657" height="5.00" width="5.00" Name="塔玛" ID="30002813" Region="赛塔德洱" y="260.00" /><text y="260.00" x="280.00" id="2658">塔玛</text><rect Type="system" x="280.00" id="2660" height="5.00" width="5.00" Name="利维能" ID="30002766" Region="赛塔德洱" y="710.00" /><text y="710.00" x="280.00" id="2661">利维能</text><rect Type="system" x="280.00" id="2663" height="5.00" width="5.00" Name="劳洛蒙" ID="30002772" Region="赛塔德洱" y="520.00" /><text y="520.00" x="280.00" id="2664">劳洛蒙</text><rect Type="system" x="300.00" id="2666" height="5.00" width="5.00" Name="埃柯罗" ID="30002753" Region="赛塔德洱" y="110.00" /><text y="110.00" x="300.00" id="2667">埃柯罗</text><rect Type="system" x="320.00" id="2669" height="5.00" width="5.00" Name="霍基莫" ID="30002773" Region="赛塔德洱" y="460.00" /><text y="460.00" x="320.00" id="2670">霍基莫</text><rect Type="system" x="320.00" id="2672" height="5.00" width="5.00" Name="维尼纶" ID="30002798" Region="赛塔德洱" y="410.00" /><text y="410.00" x="320.00" id="2673">维尼纶</text><rect Type="system" x="380.00" id="2675" height="5.00" width="5.00" Name="哈托莫" ID="30002800" Region="赛塔德洱" y="690.00" /><text y="690.00" x="380.00" id="2676">哈托莫</text><rect Type="system" x="380.00" id="2678" height="5.00" width="5.00" Name="阿里卡拉" ID="30002754" Region="赛塔德洱" y="90.00" /><text y="90.00" x="380.00" id="2679">阿里卡拉</text><rect Type="system" x="400.00" id="2681" height="5.00" width="5.00" Name="胡塔肯" ID="30002774" Region="赛塔德洱" y="490.00" /><text y="490.00" x="400.00" id="2682">胡塔肯</text><rect Type="system" x="380.00" id="2684" height="5.00" width="5.00" Name="犹达玛" ID="30002768" Region="赛塔德洱" y="600.00" /><text y="600.00" x="380.00" id="2685">犹达玛</text><rect Type="system" x="424.50" id="2687" height="5.00" width="5.00" Name="考萨贾" ID="30002749" Region="赛塔德洱" y="40.00" /><text y="40.00" x="424.50" id="2688">考萨贾</text><rect Type="system" x="420.00" id="2690" height="5.00" width="5.00" Name="阿西纳达" ID="30002752" Region="赛塔德洱" y="190.00" /><text y="190.00" x="420.00" id="2691">阿西纳达</text><rect Type="system" x="500.00" id="2693" height="5.00" width="5.00" Name="苏洛肯" ID="30002801" Region="赛塔德洱" y="690.00" /><text y="690.00" x="500.00" id="2694">苏洛肯</text><rect Type="system" x="500.00" id="2696" height="5.00" width="5.00" Name="郡尼加什" ID="30002803" Region="赛塔德洱" y="610.00" /><text y="610.00" x="500.00" id="2697">郡尼加什</text><rect Type="system" x="530.00" id="2699" height="5.00" width="5.00" Name="哈莱玛" ID="30002781" Region="赛塔德洱" y="460.00" /><text y="460.00" x="530.00" id="2700">哈莱玛</text><rect Type="system" x="530.00" id="2702" height="5.00" width="5.00" Name="库索蒙莫" ID="30002802" Region="赛塔德洱" y="750.00" /><text y="750.00" x="530.00" id="2703">库索蒙莫</text><rect Type="system" x="550.00" id="2705" height="5.00" width="5.00" Name="卡密欧" ID="30002782" Region="赛塔德洱" y="505.50" /><text y="505.50" x="550.00" id="2706">卡密欧</text><rect Type="system" x="520.00" id="2708" height="5.00" width="5.00" Name="奥围肯" ID="30002744" Region="赛塔德洱" y="60.00" /><text y="60.00" x="520.00" id="2709">奥围肯</text><rect Type="system" x="520.00" id="2711" height="5.00" width="5.00" Name="卡基" ID="30002747" Region="赛塔德洱" y="110.00" /><text y="110.00" x="520.00" id="2712">卡基</text><rect Type="system" x="550.00" id="2714" height="5.00" width="5.00" Name="伊考" ID="30002786" Region="赛塔德洱" y="554.50" /><text y="554.50" x="550.00" id="2715">伊考</text><rect Type="system" x="560.00" id="2717" height="5.00" width="5.00" Name="欧伊茨亚" ID="30002818" Region="赛塔德洱" y="270.00" /><text y="270.00" x="560.00" id="2718">欧伊茨亚</text><rect Type="system" x="600.00" id="2720" height="5.00" width="5.00" Name="伊斯克索" ID="30002804" Region="赛塔德洱" y="640.00" /><text y="640.00" x="600.00" id="2721">伊斯克索</text><rect Type="system" x="630.00" id="2723" height="5.00" width="5.00" Name="安提利" ID="30002805" Region="赛塔德洱" y="680.00" /><text y="680.00" x="630.00" id="2724">安提利</text><rect Type="system" x="610.00" id="2726" height="5.00" width="5.00" Name="伊森纳洛斯" ID="30002815" Region="赛塔德洱" y="320.00" /><text y="320.00" x="610.00" id="2727">伊森纳洛斯</text><rect Type="system" x="579.04" id="2729" height="5.00" width="5.00" Name="乌提拉" ID="30002814" Region="赛塔德洱" y="358.09" /><text y="358.09" x="579.04" id="2730">乌提拉</text><rect Type="system" x="600.96" id="2732" height="5.00" width="5.00" Name="瓦伊拉" ID="30002787" Region="赛塔德洱" y="401.91" /><text y="401.91" x="600.96" id="2733">瓦伊拉</text><rect Type="system" x="600.00" id="2735" height="5.00" width="5.00" Name="三卡森" ID="30002783" Region="赛塔德洱" y="460.00" /><text y="460.00" x="600.00" id="2736">三卡森</text><rect Type="system" x="600.00" id="2738" height="5.00" width="5.00" Name="欧沃萨蒙" ID="30002743" Region="赛塔德洱" y="10.00" /><text y="10.00" x="600.00" id="2739">欧沃萨蒙</text><rect Type="system" x="600.00" id="2741" height="5.00" width="5.00" Name="欧贾蒙" ID="30002746" Region="赛塔德洱" y="60.00" /><text y="60.00" x="600.00" id="2742">欧贾蒙</text><rect Type="system" x="600.00" id="2744" height="5.00" width="5.00" Name="塞卡伦" ID="30002745" Region="赛塔德洱" y="110.00" /><text y="110.00" x="600.00" id="2745">塞卡伦</text><rect Type="system" x="600.00" id="2747" height="5.00" width="5.00" Name="莫茨" ID="30002819" Region="赛塔德洱" y="230.00" /><text y="230.00" x="600.00" id="2748">莫茨</text><rect Type="system" x="650.00" id="2750" height="5.00" width="5.00" Name="姆沃莱伦" ID="30002780" Region="赛塔德洱" y="160.00" /><text y="160.00" x="650.00" id="2751">姆沃莱伦</text><rect Type="system" x="650.00" id="2753" height="5.00" width="5.00" Name="帕尔拉" ID="30002775" Region="赛塔德洱" y="210.00" /><text y="210.00" x="650.00" id="2754">帕尔拉</text><rect Type="system" x="660.00" id="2756" height="5.00" width="5.00" Name="塞伊拉" ID="30002816" Region="赛塔德洱" y="370.00" /><text y="370.00" x="660.00" id="2757">塞伊拉</text><rect Type="system" x="660.00" id="2759" height="5.00" width="5.00" Name="腊阿" ID="30041392" Region="赛塔德洱" y="270.00" /><text y="270.00" x="660.00" id="2760">腊阿</text><rect Type="system" x="680.00" id="2762" height="5.00" width="5.00" Name="汀托" ID="30002784" Region="赛塔德洱" y="430.00" /><text y="430.00" x="680.00" id="2763">汀托</text><rect Type="system" x="680.00" id="2765" height="5.00" width="5.00" Name="萨托拉" ID="30002785" Region="赛塔德洱" y="510.00" /><text y="510.00" x="680.00" id="2766">萨托拉</text><rect Type="system" x="700.00" id="2768" height="5.00" width="5.00" Name="阿尔玛至" ID="30002817" Region="赛塔德洱" y="320.00" /><text y="320.00" x="700.00" id="2769">阿尔玛至</text><rect Type="system" x="700.00" id="2771" height="5.00" width="5.00" Name="伊尔君勒" ID="30002792" Region="赛塔德洱" y="590.00" /><text y="590.00" x="700.00" id="2772">伊尔君勒</text><rect Type="system" x="700.00" id="2774" height="5.00" width="5.00" Name="伊纳惹" ID="30002793" Region="赛塔德洱" y="640.00" /><text y="640.00" x="700.00" id="2775">伊纳惹</text><rect Type="system" x="680.00" id="2777" height="5.00" width="5.00" Name="杰拉斯" ID="30002748" Region="赛塔德洱" y="60.00" /><text y="60.00" x="680.00" id="2778">杰拉斯</text><rect Type="system" x="730.00" id="2780" height="5.00" width="5.00" Name="瓦斯基森" ID="30002790" Region="赛塔德洱" y="540.00" /><text y="540.00" x="730.00" id="2781">瓦斯基森</text><rect Type="system" x="720.00" id="2783" height="5.00" width="5.00" Name="安那罗" ID="30002776" Region="赛塔德洱" y="220.00" /><text y="220.00" x="720.00" id="2784">安那罗</text><rect Type="system" x="750.00" id="2786" height="5.00" width="5.00" Name="希尔帕拉" ID="30002791" Region="赛塔德洱" y="690.00" /><text y="690.00" x="750.00" id="2787">希尔帕拉</text><rect Type="system" x="780.00" id="2789" height="5.00" width="5.00" Name="乌赛" ID="30002755" Region="赛塔德洱" y="60.00" /><text y="60.00" x="780.00" id="2790">乌赛</text><rect Type="system" x="800.00" id="2792" height="5.00" width="5.00" Name="卡普特伦" ID="30002789" Region="赛塔德洱" y="460.00" /><text y="460.00" x="800.00" id="2793">卡普特伦</text><rect Type="system" x="800.00" id="2795" height="5.00" width="5.00" Name="伊纳洛" ID="30002788" Region="赛塔德洱" y="560.00" /><text y="560.00" x="800.00" id="2796">伊纳洛</text><rect Type="system" x="800.00" id="2798" height="5.00" width="5.00" Name="伊斯塔卡" ID="30002777" Region="赛塔德洱" y="240.00" /><text y="240.00" x="800.00" id="2799">伊斯塔卡</text><rect Type="system" x="850.00" id="2801" height="5.00" width="5.00" Name="伊索米肯" ID="30002756" Region="赛塔德洱" y="60.00" /><text y="60.00" x="850.00" id="2802">伊索米肯</text><rect Type="system" x="850.00" id="2804" height="5.00" width="5.00" Name="温纳" ID="30002759" Region="赛塔德洱" y="110.00" /><text y="110.00" x="850.00" id="2805">温纳</text><rect Type="system" x="880.00" id="2807" height="5.00" width="5.00" Name="塔萨比什" ID="30002778" Region="赛塔德洱" y="270.00" /><text y="270.00" x="880.00" id="2808">塔萨比什</text><rect Type="system" x="920.00" id="2810" height="5.00" width="5.00" Name="尼基什那" ID="30002757" Region="赛塔德洱" y="60.00" /><text y="60.00" x="920.00" id="2811">尼基什那</text><rect Type="system" x="910.00" id="2813" height="5.00" width="5.00" Name="曼贾纳克" ID="30002760" Region="赛塔德洱" y="140.00" /><text y="140.00" x="910.00" id="2814">曼贾纳克</text><rect Type="system" x="940.00" id="2816" height="5.00" width="5.00" Name="欧诺" ID="30002779" Region="赛塔德洱" y="320.00" /><text y="320.00" x="940.00" id="2817">欧诺</text><rect Type="system" x="1000.00" id="2819" height="5.00" width="5.00" Name="哈萨马" ID="30002758" Region="赛塔德洱" y="60.00" /><text y="60.00" x="1000.00" id="2820">哈萨马</text><rect Type="system" x="20.00" id="2822" height="5.00" width="5.00" Name="铁里耶维" ID="30005334" Region="维格温铎" y="210.00" /><text y="210.00" x="20.00" id="2823">铁里耶维</text><rect Type="system" x="20.00" id="2825" height="5.00" width="5.00" Name="希恩彻尔" ID="30005015" Region="精华之域" y="640.00" /><text y="640.00" x="20.00" id="2826">希恩彻尔</text><rect Type="system" x="20.00" id="2828" height="5.00" width="5.00" Name="埃戈吉勒" ID="30004972" Region="精华之域" y="710.00" /><text y="710.00" x="20.00" id="2829">埃戈吉勒</text><rect Type="system" x="50.00" id="2831" height="5.00" width="5.00" Name="德温" ID="30004985" Region="精华之域" y="260.00" /><text y="260.00" x="50.00" id="2832">德温</text><rect Type="system" x="99.04" id="2834" height="5.00" width="5.00" Name="乔勒韦尔" ID="30004974" Region="精华之域" y="751.91" /><text y="751.91" x="99.04" id="2835">乔勒韦尔</text><rect Type="system" x="200.00" id="2837" height="5.00" width="5.00" Name="尤尼尔" ID="30002707" Region="金纳泽" y="754.50" /><text y="754.50" x="200.00" id="2838">尤尼尔</text><rect Type="system" x="280.00" id="2840" height="5.00" width="5.00" Name="柯达玛" ID="30045346" Region="暗涌之域" y="310.00" /><text y="310.00" x="280.00" id="2841">柯达玛</text><rect Type="system" x="300.00" id="2843" height="5.00" width="5.00" Name="伊斯科米" ID="30001365" Region="长征" y="160.00" /><text y="160.00" x="300.00" id="2844">伊斯科米</text><rect Type="system" x="350.00" id="2846" height="5.00" width="5.00" Name="努尔瓦凯肯" ID="30001376" Region="长征" y="260.00" /><text y="260.00" x="350.00" id="2847">努尔瓦凯肯</text><rect Type="system" x="350.00" id="2849" height="5.00" width="5.00" Name="法塔尼冷" ID="30001364" Region="长征" y="190.00" /><text y="190.00" x="350.00" id="2850">法塔尼冷</text><rect Type="system" x="375.50" id="2852" height="5.00" width="5.00" Name="维尔埃勒" ID="30001380" Region="长征" y="40.00" /><text y="40.00" x="375.50" id="2853">维尔埃勒</text><rect Type="system" x="400.00" id="2855" height="5.00" width="5.00" Name="伊萨纳莫" ID="30001389" Region="长征" y="140.00" /><text y="140.00" x="400.00" id="2856">伊萨纳莫</text><rect Type="system" x="420.00" id="2858" height="5.00" width="5.00" Name="吞塔拉斯" ID="30001379" Region="长征" y="290.00" /><text y="290.00" x="420.00" id="2859">吞塔拉斯</text><rect Type="system" x="480.00" id="2861" height="5.00" width="5.00" Name="撒了库瓦" ID="30001377" Region="长征" y="360.00" /><text y="360.00" x="480.00" id="2862">撒了库瓦</text><rect Type="system" x="500.00" id="2864" height="5.00" width="5.00" Name="新加达里" ID="30000145" Region="伏尔戈" y="160.00" /><text y="160.00" x="500.00" id="2865">新加达里</text><rect Type="system" x="580.00" id="2867" height="5.00" width="5.00" Name="吉他" ID="30000142" Region="伏尔戈" y="160.00" /><text y="160.00" x="580.00" id="2868">吉他</text><rect Type="system" x="680.00" id="2870" height="5.00" width="5.00" Name="乌尔仑" ID="30000139" Region="伏尔戈" y="750.00" /><text y="750.00" x="680.00" id="2871">乌尔仑</text><rect Type="system" x="700.00" id="2873" height="5.00" width="5.00" Name="玛乌纳斯" ID="30000140" Region="伏尔戈" y="120.00" /><text y="120.00" x="700.00" id="2874">玛乌纳斯</text><rect Type="system" x="900.00" id="2876" height="5.00" width="5.00" Name="希尔瑟新" ID="30000127" Region="伏尔戈" y="560.00" /><text y="560.00" x="900.00" id="2877">希尔瑟新</text><rect Type="system" x="1000.00" id="2879" height="5.00" width="5.00" Name="马拉" ID="30001388" Region="长征" y="10.00" /><text y="10.00" x="1000.00" id="2880">马拉</text><rect Type="system" x="980.00" id="2882" height="5.00" width="5.00" Name="姆什克基" ID="30045334" Region="暗涌之域" y="180.00" /><text y="180.00" x="980.00" id="2883">姆什克基</text><line style="stroke:blue;fill:blue;" id="2885" x2="100.00" x1="20.00" y1="340.00" y2="310.00" /><line style="stroke:blue;fill:blue;" id="2886" x2="50.00" x1="50.00" y1="60.00" y2="110.00" /><line style="stroke:blue;fill:blue;" id="2887" x2="50.00" x1="50.00" y1="110.00" y2="60.00" /><line style="stroke:blue;fill:blue;" id="2888" x2="120.00" x1="50.00" y1="110.00" y2="110.00" /><line style="stroke:blue;fill:blue;" id="2889" x2="120.96" x1="80.00" y1="660.00" y2="708.09" /><line style="stroke:blue;fill:blue;" id="2890" x2="150.00" x1="80.00" y1="660.00" y2="660.00" /><line style="stroke:blue;fill:blue;" id="2891" x2="20.00" x1="80.00" y1="660.00" y2="710.00" /><line style="stroke:blue;fill:blue;" id="2892" x2="20.00" x1="80.00" y1="660.00" y2="640.00" /><line style="stroke:blue;fill:blue;" id="2893" x2="150.00" x1="100.00" y1="210.00" y2="240.00" /><line style="stroke:blue;fill:blue;" id="2894" x2="20.00" x1="100.00" y1="210.00" y2="210.00" /><line style="stroke:blue;fill:blue;" id="2895" x2="120.00" x1="100.00" y1="360.00" y2="420.00" /><line style="stroke:blue;fill:blue;" id="2896" x2="100.00" x1="100.00" y1="360.00" y2="310.00" /><line style="stroke:blue;fill:blue;" id="2897" x2="100.00" x1="100.00" y1="310.00" y2="360.00" /><line style="stroke:blue;fill:blue;" id="2898" x2="20.00" x1="100.00" y1="310.00" y2="340.00" /><line style="stroke:blue;fill:blue;" id="2899" x2="150.00" x1="100.00" y1="310.00" y2="290.00" /><line style="stroke:blue;fill:blue;" id="2900" x2="50.00" x1="100.00" y1="310.00" y2="260.00" /><line style="stroke:blue;fill:blue;" id="2901" x2="180.00" x1="120.00" y1="420.00" y2="460.00" /><line style="stroke:blue;fill:blue;" id="2902" x2="180.00" x1="120.00" y1="420.00" y2="390.00" /><line style="stroke:blue;fill:blue;" id="2903" x2="100.00" x1="120.00" y1="420.00" y2="360.00" /><line style="stroke:blue;fill:blue;" id="2904" x2="80.00" x1="120.96" y1="708.09" y2="660.00" /><line style="stroke:blue;fill:blue;" id="2905" x2="200.00" x1="120.96" y1="708.09" y2="705.50" /><line style="stroke:blue;fill:blue;" id="2906" x2="150.00" x1="120.96" y1="708.09" y2="660.00" /><line style="stroke:blue;fill:blue;" id="2907" x2="99.04" x1="120.96" y1="708.09" y2="751.91" /><line style="stroke:blue;fill:blue;" id="2908" x2="180.00" x1="120.00" y1="110.00" y2="140.00" /><line style="stroke:blue;fill:blue;" id="2909" x2="50.00" x1="120.00" y1="110.00" y2="110.00" /><line style="stroke:blue;fill:blue;" id="2910" x2="180.00" x1="150.00" y1="190.00" y2="140.00" /><line style="stroke:blue;fill:blue;" id="2911" x2="250.00" x1="150.00" y1="190.00" y2="190.00" /><line style="stroke:blue;fill:blue;" id="2912" x2="80.00" x1="150.00" y1="660.00" y2="660.00" /><line style="stroke:blue;fill:blue;" id="2913" x2="120.96" x1="150.00" y1="660.00" y2="708.09" /><line style="stroke:blue;fill:blue;" id="2914" x2="200.00" x1="150.00" y1="660.00" y2="705.50" /><line style="stroke:blue;fill:blue;" id="2915" x2="220.00" x1="150.00" y1="660.00" y2="660.00" /><line style="stroke:blue;fill:blue;" id="2916" x2="150.00" x1="150.00" y1="240.00" y2="290.00" /><line style="stroke:blue;fill:blue;" id="2917" x2="220.00" x1="150.00" y1="240.00" y2="240.00" /><line style="stroke:blue;fill:blue;" id="2918" x2="100.00" x1="150.00" y1="240.00" y2="210.00" /><line style="stroke:blue;fill:blue;" id="2919" x2="100.00" x1="150.00" y1="290.00" y2="310.00" /><line style="stroke:blue;fill:blue;" id="2920" x2="220.00" x1="150.00" y1="290.00" y2="240.00" /><line style="stroke:blue;fill:blue;" id="2921" x2="150.00" x1="150.00" y1="290.00" y2="240.00" /><line style="stroke:blue;fill:blue;" id="2922" x2="280.00" x1="150.00" y1="290.00" y2="260.00" /><line style="stroke:blue;fill:blue;" id="2923" x2="220.00" x1="220.00" y1="530.00" y2="590.00" /><line style="stroke:blue;fill:blue;" id="2924" x2="280.00" x1="220.00" y1="530.00" y2="520.00" /><line style="stroke:blue;fill:blue;" id="2925" x2="150.00" x1="180.00" y1="140.00" y2="190.00" /><line style="stroke:blue;fill:blue;" id="2926" x2="120.00" x1="180.00" y1="140.00" y2="110.00" /><line style="stroke:blue;fill:blue;" id="2927" x2="229.04" x1="180.00" y1="390.00" y2="418.09" /><line style="stroke:blue;fill:blue;" id="2928" x2="180.00" x1="180.00" y1="390.00" y2="460.00" /><line style="stroke:blue;fill:blue;" id="2929" x2="120.00" x1="180.00" y1="390.00" y2="420.00" /><line style="stroke:blue;fill:blue;" id="2930" x2="229.04" x1="180.00" y1="460.00" y2="418.09" /><line style="stroke:blue;fill:blue;" id="2931" x2="120.00" x1="180.00" y1="460.00" y2="420.00" /><line style="stroke:blue;fill:blue;" id="2932" x2="180.00" x1="180.00" y1="460.00" y2="390.00" /><line style="stroke:blue;fill:blue;" id="2933" x2="220.00" x1="220.00" y1="590.00" y2="660.00" /><line style="stroke:blue;fill:blue;" id="2934" x2="380.00" x1="220.00" y1="590.00" y2="600.00" /><line style="stroke:blue;fill:blue;" id="2935" x2="220.00" x1="220.00" y1="590.00" y2="530.00" /><line style="stroke:blue;fill:blue;" id="2936" x2="200.00" x1="200.00" y1="705.50" y2="754.50" /><line style="stroke:blue;fill:blue;" id="2937" x2="120.96" x1="200.00" y1="705.50" y2="708.09" /><line style="stroke:blue;fill:blue;" id="2938" x2="150.00" x1="200.00" y1="705.50" y2="660.00" /><line style="stroke:blue;fill:blue;" id="2939" x2="280.00" x1="200.00" y1="705.50" y2="710.00" /><line style="stroke:blue;fill:blue;" id="2940" x2="150.00" x1="220.00" y1="240.00" y2="290.00" /><line style="stroke:blue;fill:blue;" id="2941" x2="150.00" x1="220.00" y1="240.00" y2="240.00" /><line style="stroke:blue;fill:blue;" id="2942" x2="150.00" x1="220.00" y1="660.00" y2="660.00" /><line style="stroke:blue;fill:blue;" id="2943" x2="280.00" x1="220.00" y1="660.00" y2="710.00" /><line style="stroke:blue;fill:blue;" id="2944" x2="220.00" x1="220.00" y1="660.00" y2="590.00" /><line style="stroke:blue;fill:blue;" id="2945" x2="380.00" x1="220.00" y1="660.00" y2="600.00" /><line style="stroke:blue;fill:blue;" id="2946" x2="250.96" x1="229.04" y1="418.09" y2="461.91" /><line style="stroke:blue;fill:blue;" id="2947" x2="180.00" x1="229.04" y1="418.09" y2="460.00" /><line style="stroke:blue;fill:blue;" id="2948" x2="180.00" x1="229.04" y1="418.09" y2="390.00" /><line style="stroke:blue;fill:blue;" id="2949" x2="150.00" x1="250.00" y1="190.00" y2="190.00" /><line style="stroke:blue;fill:blue;" id="2950" x2="250.00" x1="250.00" y1="190.00" y2="40.00" /><line style="stroke:blue;fill:blue;" id="2951" x2="420.00" x1="250.00" y1="190.00" y2="190.00" /><line style="stroke:blue;fill:blue;" id="2952" x2="300.00" x1="250.00" y1="190.00" y2="110.00" /><line style="stroke:blue;fill:blue;" id="2953" x2="320.00" x1="250.96" y1="461.91" y2="460.00" /><line style="stroke:blue;fill:blue;" id="2954" x2="229.04" x1="250.96" y1="461.91" y2="418.09" /><line style="stroke:blue;fill:blue;" id="2955" x2="424.50" x1="250.00" y1="40.00" y2="40.00" /><line style="stroke:blue;fill:blue;" id="2956" x2="250.00" x1="250.00" y1="40.00" y2="190.00" /><line style="stroke:blue;fill:blue;" id="2957" x2="380.00" x1="250.00" y1="40.00" y2="90.00" /><line style="stroke:blue;fill:blue;" id="2958" x2="350.00" x1="280.00" y1="260.00" y2="260.00" /><line style="stroke:blue;fill:blue;" id="2959" x2="150.00" x1="280.00" y1="260.00" y2="290.00" /><line style="stroke:blue;fill:blue;" id="2960" x2="280.00" x1="280.00" y1="260.00" y2="310.00" /><line style="stroke:blue;fill:blue;" id="2961" x2="200.00" x1="280.00" y1="710.00" y2="705.50" /><line style="stroke:blue;fill:blue;" id="2962" x2="220.00" x1="280.00" y1="710.00" y2="660.00" /><line style="stroke:blue;fill:blue;" id="2963" x2="220.00" x1="280.00" y1="520.00" y2="530.00" /><line style="stroke:blue;fill:blue;" id="2964" x2="400.00" x1="280.00" y1="520.00" y2="490.00" /><line style="stroke:blue;fill:blue;" id="2965" x2="350.00" x1="300.00" y1="110.00" y2="190.00" /><line style="stroke:blue;fill:blue;" id="2966" x2="300.00" x1="300.00" y1="110.00" y2="160.00" /><line style="stroke:blue;fill:blue;" id="2967" x2="250.00" x1="300.00" y1="110.00" y2="190.00" /><line style="stroke:blue;fill:blue;" id="2968" x2="380.00" x1="300.00" y1="110.00" y2="90.00" /><line style="stroke:blue;fill:blue;" id="2969" x2="250.96" x1="320.00" y1="460.00" y2="461.91" /><line style="stroke:blue;fill:blue;" id="2970" x2="400.00" x1="320.00" y1="460.00" y2="490.00" /><line style="stroke:blue;fill:blue;" id="2971" x2="320.00" x1="320.00" y1="460.00" y2="410.00" /><line style="stroke:blue;fill:blue;" id="2972" x2="320.00" x1="320.00" y1="410.00" y2="460.00" /><line style="stroke:blue;fill:blue;" id="2973" x2="380.00" x1="380.00" y1="690.00" y2="600.00" /><line style="stroke:blue;fill:blue;" id="2974" x2="500.00" x1="380.00" y1="690.00" y2="690.00" /><line style="stroke:blue;fill:blue;" id="2975" x2="500.00" x1="380.00" y1="90.00" y2="160.00" /><line style="stroke:blue;fill:blue;" id="2976" x2="375.50" x1="380.00" y1="90.00" y2="40.00" /><line style="stroke:blue;fill:blue;" id="2977" x2="400.00" x1="380.00" y1="90.00" y2="140.00" /><line style="stroke:blue;fill:blue;" id="2978" x2="250.00" x1="380.00" y1="90.00" y2="40.00" /><line style="stroke:blue;fill:blue;" id="2979" x2="300.00" x1="380.00" y1="90.00" y2="110.00" /><line style="stroke:blue;fill:blue;" id="2980" x2="280.00" x1="400.00" y1="490.00" y2="520.00" /><line style="stroke:blue;fill:blue;" id="2981" x2="320.00" x1="400.00" y1="490.00" y2="460.00" /><line style="stroke:blue;fill:blue;" id="2982" x2="530.00" x1="400.00" y1="490.00" y2="460.00" /><line style="stroke:blue;fill:blue;" id="2983" x2="220.00" x1="380.00" y1="600.00" y2="660.00" /><line style="stroke:blue;fill:blue;" id="2984" x2="220.00" x1="380.00" y1="600.00" y2="590.00" /><line style="stroke:blue;fill:blue;" id="2985" x2="550.00" x1="380.00" y1="600.00" y2="554.50" /><line style="stroke:blue;fill:blue;" id="2986" x2="380.00" x1="380.00" y1="600.00" y2="690.00" /><line style="stroke:blue;fill:blue;" id="2987" x2="500.00" x1="380.00" y1="600.00" y2="610.00" /><line style="stroke:blue;fill:blue;" id="2988" x2="520.00" x1="424.50" y1="40.00" y2="60.00" /><line style="stroke:blue;fill:blue;" id="2989" x2="250.00" x1="424.50" y1="40.00" y2="40.00" /><line style="stroke:blue;fill:blue;" id="2990" x2="420.00" x1="424.50" y1="40.00" y2="190.00" /><line style="stroke:blue;fill:blue;" id="2991" x2="420.00" x1="420.00" y1="190.00" y2="290.00" /><line style="stroke:blue;fill:blue;" id="2992" x2="424.50" x1="420.00" y1="190.00" y2="40.00" /><line style="stroke:blue;fill:blue;" id="2993" x2="250.00" x1="420.00" y1="190.00" y2="190.00" /><line style="stroke:blue;fill:blue;" id="2994" x2="650.00" x1="420.00" y1="190.00" y2="210.00" /><line style="stroke:blue;fill:blue;" id="2995" x2="380.00" x1="500.00" y1="690.00" y2="690.00" /><line style="stroke:blue;fill:blue;" id="2996" x2="530.00" x1="500.00" y1="690.00" y2="750.00" /><line style="stroke:blue;fill:blue;" id="2997" x2="500.00" x1="500.00" y1="690.00" y2="610.00" /><line style="stroke:blue;fill:blue;" id="2998" x2="630.00" x1="500.00" y1="690.00" y2="680.00" /><line style="stroke:blue;fill:blue;" id="2999" x2="380.00" x1="500.00" y1="610.00" y2="600.00" /><line style="stroke:blue;fill:blue;" id="3000" x2="550.00" x1="500.00" y1="610.00" y2="554.50" /><line style="stroke:blue;fill:blue;" id="3001" x2="500.00" x1="500.00" y1="610.00" y2="690.00" /><line style="stroke:blue;fill:blue;" id="3002" x2="600.00" x1="500.00" y1="610.00" y2="640.00" /><line style="stroke:blue;fill:blue;" id="3003" x2="630.00" x1="500.00" y1="610.00" y2="680.00" /><line style="stroke:blue;fill:blue;" id="3004" x2="480.00" x1="530.00" y1="460.00" y2="360.00" /><line style="stroke:blue;fill:blue;" id="3005" x2="400.00" x1="530.00" y1="460.00" y2="490.00" /><line style="stroke:blue;fill:blue;" id="3006" x2="550.00" x1="530.00" y1="460.00" y2="505.50" /><line style="stroke:blue;fill:blue;" id="3007" x2="600.00" x1="530.00" y1="460.00" y2="460.00" /><line style="stroke:blue;fill:blue;" id="3008" x2="680.00" x1="530.00" y1="750.00" y2="750.00" /><line style="stroke:blue;fill:blue;" id="3009" x2="500.00" x1="530.00" y1="750.00" y2="690.00" /><line style="stroke:blue;fill:blue;" id="3010" x2="530.00" x1="550.00" y1="505.50" y2="460.00" /><line style="stroke:blue;fill:blue;" id="3011" x2="550.00" x1="550.00" y1="505.50" y2="554.50" /><line style="stroke:blue;fill:blue;" id="3012" x2="800.00" x1="550.00" y1="505.50" y2="460.00" /><line style="stroke:blue;fill:blue;" id="3013" x2="600.00" x1="520.00" y1="60.00" y2="10.00" /><line style="stroke:blue;fill:blue;" id="3014" x2="600.00" x1="520.00" y1="60.00" y2="60.00" /><line style="stroke:blue;fill:blue;" id="3015" x2="520.00" x1="520.00" y1="60.00" y2="110.00" /><line style="stroke:blue;fill:blue;" id="3016" x2="424.50" x1="520.00" y1="60.00" y2="40.00" /><line style="stroke:blue;fill:blue;" id="3017" x2="520.00" x1="520.00" y1="110.00" y2="60.00" /><line style="stroke:blue;fill:blue;" id="3018" x2="600.00" x1="520.00" y1="110.00" y2="110.00" /><line style="stroke:blue;fill:blue;" id="3019" x2="380.00" x1="550.00" y1="554.50" y2="600.00" /><line style="stroke:blue;fill:blue;" id="3020" x2="550.00" x1="550.00" y1="554.50" y2="505.50" /><line style="stroke:blue;fill:blue;" id="3021" x2="680.00" x1="550.00" y1="554.50" y2="510.00" /><line style="stroke:blue;fill:blue;" id="3022" x2="730.00" x1="550.00" y1="554.50" y2="540.00" /><line style="stroke:blue;fill:blue;" id="3023" x2="700.00" x1="550.00" y1="554.50" y2="590.00" /><line style="stroke:blue;fill:blue;" id="3024" x2="500.00" x1="550.00" y1="554.50" y2="610.00" /><line style="stroke:blue;fill:blue;" id="3025" x2="610.00" x1="560.00" y1="270.00" y2="320.00" /><line style="stroke:blue;fill:blue;" id="3026" x2="600.00" x1="560.00" y1="270.00" y2="230.00" /><line style="stroke:blue;fill:blue;" id="3027" x2="660.00" x1="560.00" y1="270.00" y2="270.00" /><line style="stroke:blue;fill:blue;" id="3028" x2="500.00" x1="600.00" y1="640.00" y2="610.00" /><line style="stroke:blue;fill:blue;" id="3029" x2="630.00" x1="600.00" y1="640.00" y2="680.00" /><line style="stroke:blue;fill:blue;" id="3030" x2="750.00" x1="630.00" y1="680.00" y2="690.00" /><line style="stroke:blue;fill:blue;" id="3031" x2="500.00" x1="630.00" y1="680.00" y2="690.00" /><line style="stroke:blue;fill:blue;" id="3032" x2="500.00" x1="630.00" y1="680.00" y2="610.00" /><line style="stroke:blue;fill:blue;" id="3033" x2="600.00" x1="630.00" y1="680.00" y2="640.00" /><line style="stroke:blue;fill:blue;" id="3034" x2="579.04" x1="610.00" y1="320.00" y2="358.09" /><line style="stroke:blue;fill:blue;" id="3035" x2="660.00" x1="610.00" y1="320.00" y2="370.00" /><line style="stroke:blue;fill:blue;" id="3036" x2="560.00" x1="610.00" y1="320.00" y2="270.00" /><line style="stroke:blue;fill:blue;" id="3037" x2="600.96" x1="579.04" y1="358.09" y2="401.91" /><line style="stroke:blue;fill:blue;" id="3038" x2="610.00" x1="579.04" y1="358.09" y2="320.00" /><line style="stroke:blue;fill:blue;" id="3039" x2="600.00" x1="600.96" y1="401.91" y2="460.00" /><line style="stroke:blue;fill:blue;" id="3040" x2="579.04" x1="600.96" y1="401.91" y2="358.09" /><line style="stroke:blue;fill:blue;" id="3041" x2="530.00" x1="600.00" y1="460.00" y2="460.00" /><line style="stroke:blue;fill:blue;" id="3042" x2="680.00" x1="600.00" y1="460.00" y2="430.00" /><line style="stroke:blue;fill:blue;" id="3043" x2="600.96" x1="600.00" y1="460.00" y2="401.91" /><line style="stroke:blue;fill:blue;" id="3044" x2="520.00" x1="600.00" y1="10.00" y2="60.00" /><line style="stroke:blue;fill:blue;" id="3045" x2="680.00" x1="600.00" y1="10.00" y2="60.00" /><line style="stroke:blue;fill:blue;" id="3046" x2="520.00" x1="600.00" y1="60.00" y2="60.00" /><line style="stroke:blue;fill:blue;" id="3047" x2="600.00" x1="600.00" y1="60.00" y2="110.00" /><line style="stroke:blue;fill:blue;" id="3048" x2="680.00" x1="600.00" y1="60.00" y2="60.00" /><line style="stroke:blue;fill:blue;" id="3049" x2="600.00" x1="600.00" y1="110.00" y2="60.00" /><line style="stroke:blue;fill:blue;" id="3050" x2="520.00" x1="600.00" y1="110.00" y2="110.00" /><line style="stroke:blue;fill:blue;" id="3051" x2="560.00" x1="600.00" y1="230.00" y2="270.00" /><line style="stroke:blue;fill:blue;" id="3052" x2="660.00" x1="600.00" y1="230.00" y2="270.00" /><line style="stroke:blue;fill:blue;" id="3053" x2="700.00" x1="650.00" y1="160.00" y2="120.00" /><line style="stroke:blue;fill:blue;" id="3054" x2="580.00" x1="650.00" y1="160.00" y2="160.00" /><line style="stroke:blue;fill:blue;" id="3055" x2="650.00" x1="650.00" y1="160.00" y2="210.00" /><line style="stroke:blue;fill:blue;" id="3056" x2="720.00" x1="650.00" y1="160.00" y2="220.00" /><line style="stroke:blue;fill:blue;" id="3057" x2="420.00" x1="650.00" y1="210.00" y2="190.00" /><line style="stroke:blue;fill:blue;" id="3058" x2="720.00" x1="650.00" y1="210.00" y2="220.00" /><line style="stroke:blue;fill:blue;" id="3059" x2="650.00" x1="650.00" y1="210.00" y2="160.00" /><line style="stroke:blue;fill:blue;" id="3060" x2="610.00" x1="660.00" y1="370.00" y2="320.00" /><line style="stroke:blue;fill:blue;" id="3061" x2="700.00" x1="660.00" y1="370.00" y2="320.00" /><line style="stroke:blue;fill:blue;" id="3062" x2="700.00" x1="660.00" y1="270.00" y2="320.00" /><line style="stroke:blue;fill:blue;" id="3063" x2="560.00" x1="660.00" y1="270.00" y2="270.00" /><line style="stroke:blue;fill:blue;" id="3064" x2="600.00" x1="660.00" y1="270.00" y2="230.00" /><line style="stroke:blue;fill:blue;" id="3065" x2="600.00" x1="680.00" y1="430.00" y2="460.00" /><line style="stroke:blue;fill:blue;" id="3066" x2="680.00" x1="680.00" y1="430.00" y2="510.00" /><line style="stroke:blue;fill:blue;" id="3067" x2="680.00" x1="680.00" y1="510.00" y2="430.00" /><line style="stroke:blue;fill:blue;" id="3068" x2="550.00" x1="680.00" y1="510.00" y2="554.50" /><line style="stroke:blue;fill:blue;" id="3069" x2="660.00" x1="700.00" y1="320.00" y2="370.00" /><line style="stroke:blue;fill:blue;" id="3070" x2="660.00" x1="700.00" y1="320.00" y2="270.00" /><line style="stroke:blue;fill:blue;" id="3071" x2="550.00" x1="700.00" y1="590.00" y2="554.50" /><line style="stroke:blue;fill:blue;" id="3072" x2="730.00" x1="700.00" y1="590.00" y2="540.00" /><line style="stroke:blue;fill:blue;" id="3073" x2="700.00" x1="700.00" y1="590.00" y2="640.00" /><line style="stroke:blue;fill:blue;" id="3074" x2="700.00" x1="700.00" y1="640.00" y2="590.00" /><line style="stroke:blue;fill:blue;" id="3075" x2="600.00" x1="680.00" y1="60.00" y2="10.00" /><line style="stroke:blue;fill:blue;" id="3076" x2="600.00" x1="680.00" y1="60.00" y2="60.00" /><line style="stroke:blue;fill:blue;" id="3077" x2="780.00" x1="680.00" y1="60.00" y2="60.00" /><line style="stroke:blue;fill:blue;" id="3078" x2="550.00" x1="730.00" y1="540.00" y2="554.50" /><line style="stroke:blue;fill:blue;" id="3079" x2="800.00" x1="730.00" y1="540.00" y2="560.00" /><line style="stroke:blue;fill:blue;" id="3080" x2="700.00" x1="730.00" y1="540.00" y2="590.00" /><line style="stroke:blue;fill:blue;" id="3081" x2="650.00" x1="720.00" y1="220.00" y2="210.00" /><line style="stroke:blue;fill:blue;" id="3082" x2="800.00" x1="720.00" y1="220.00" y2="240.00" /><line style="stroke:blue;fill:blue;" id="3083" x2="650.00" x1="720.00" y1="220.00" y2="160.00" /><line style="stroke:blue;fill:blue;" id="3084" x2="680.00" x1="750.00" y1="690.00" y2="750.00" /><line style="stroke:blue;fill:blue;" id="3085" x2="800.00" x1="750.00" y1="690.00" y2="560.00" /><line style="stroke:blue;fill:blue;" id="3086" x2="630.00" x1="750.00" y1="690.00" y2="680.00" /><line style="stroke:blue;fill:blue;" id="3087" x2="680.00" x1="780.00" y1="60.00" y2="60.00" /><line style="stroke:blue;fill:blue;" id="3088" x2="850.00" x1="780.00" y1="60.00" y2="60.00" /><line style="stroke:blue;fill:blue;" id="3089" x2="550.00" x1="800.00" y1="460.00" y2="505.50" /><line style="stroke:blue;fill:blue;" id="3090" x2="800.00" x1="800.00" y1="460.00" y2="560.00" /><line style="stroke:blue;fill:blue;" id="3091" x2="900.00" x1="800.00" y1="560.00" y2="560.00" /><line style="stroke:blue;fill:blue;" id="3092" x2="800.00" x1="800.00" y1="560.00" y2="460.00" /><line style="stroke:blue;fill:blue;" id="3093" x2="730.00" x1="800.00" y1="560.00" y2="540.00" /><line style="stroke:blue;fill:blue;" id="3094" x2="750.00" x1="800.00" y1="560.00" y2="690.00" /><line style="stroke:blue;fill:blue;" id="3095" x2="720.00" x1="800.00" y1="240.00" y2="220.00" /><line style="stroke:blue;fill:blue;" id="3096" x2="880.00" x1="800.00" y1="240.00" y2="270.00" /><line style="stroke:blue;fill:blue;" id="3097" x2="780.00" x1="850.00" y1="60.00" y2="60.00" /><line style="stroke:blue;fill:blue;" id="3098" x2="920.00" x1="850.00" y1="60.00" y2="60.00" /><line style="stroke:blue;fill:blue;" id="3099" x2="850.00" x1="850.00" y1="60.00" y2="110.00" /><line style="stroke:blue;fill:blue;" id="3100" x2="850.00" x1="850.00" y1="110.00" y2="60.00" /><line style="stroke:blue;fill:blue;" id="3101" x2="910.00" x1="850.00" y1="110.00" y2="140.00" /><line style="stroke:blue;fill:blue;" id="3102" x2="800.00" x1="880.00" y1="270.00" y2="240.00" /><line style="stroke:blue;fill:blue;" id="3103" x2="940.00" x1="880.00" y1="270.00" y2="320.00" /><line style="stroke:blue;fill:blue;" id="3104" x2="850.00" x1="920.00" y1="60.00" y2="60.00" /><line style="stroke:blue;fill:blue;" id="3105" x2="1000.00" x1="920.00" y1="60.00" y2="60.00" /><line style="stroke:blue;fill:blue;" id="3106" x2="850.00" x1="910.00" y1="140.00" y2="110.00" /><line style="stroke:blue;fill:blue;" id="3107" x2="980.00" x1="910.00" y1="140.00" y2="180.00" /><line style="stroke:blue;fill:blue;" id="3108" x2="880.00" x1="940.00" y1="320.00" y2="270.00" /><line style="stroke:blue;fill:blue;" id="3109" x2="1000.00" x1="1000.00" y1="60.00" y2="10.00" /><line style="stroke:blue;fill:blue;" id="3110" x2="920.00" x1="1000.00" y1="60.00" y2="60.00" /><line style="stroke:blue;fill:blue;" id="3111" x2="100.00" x1="20.00" y1="210.00" y2="210.00" /><line style="stroke:blue;fill:blue;" id="3112" x2="80.00" x1="20.00" y1="640.00" y2="660.00" /><line style="stroke:blue;fill:blue;" id="3113" x2="20.00" x1="20.00" y1="640.00" y2="710.00" /><line style="stroke:blue;fill:blue;" id="3114" x2="80.00" x1="20.00" y1="710.00" y2="660.00" /><line style="stroke:blue;fill:blue;" id="3115" x2="20.00" x1="20.00" y1="710.00" y2="640.00" /><line style="stroke:blue;fill:blue;" id="3116" x2="100.00" x1="50.00" y1="260.00" y2="310.00" /><line style="stroke:blue;fill:blue;" id="3117" x2="120.96" x1="99.04" y1="751.91" y2="708.09" /><line style="stroke:blue;fill:blue;" id="3118" x2="200.00" x1="200.00" y1="754.50" y2="705.50" /><line style="stroke:blue;fill:blue;" id="3119" x2="280.00" x1="280.00" y1="310.00" y2="260.00" /><line style="stroke:blue;fill:blue;" id="3120" x2="350.00" x1="300.00" y1="160.00" y2="190.00" /><line style="stroke:blue;fill:blue;" id="3121" x2="300.00" x1="300.00" y1="160.00" y2="110.00" /><line style="stroke:blue;fill:blue;" id="3122" x2="420.00" x1="350.00" y1="260.00" y2="290.00" /><line style="stroke:blue;fill:blue;" id="3123" x2="280.00" x1="350.00" y1="260.00" y2="260.00" /><line style="stroke:blue;fill:blue;" id="3124" x2="300.00" x1="350.00" y1="190.00" y2="160.00" /><line style="stroke:blue;fill:blue;" id="3125" x2="300.00" x1="350.00" y1="190.00" y2="110.00" /><line style="stroke:blue;fill:blue;" id="3126" x2="380.00" x1="375.50" y1="40.00" y2="90.00" /><line style="stroke:blue;fill:blue;" id="3127" x2="380.00" x1="400.00" y1="140.00" y2="90.00" /><line style="stroke:blue;fill:blue;" id="3128" x2="350.00" x1="420.00" y1="290.00" y2="260.00" /><line style="stroke:blue;fill:blue;" id="3129" x2="480.00" x1="420.00" y1="290.00" y2="360.00" /><line style="stroke:blue;fill:blue;" id="3130" x2="420.00" x1="420.00" y1="290.00" y2="190.00" /><line style="stroke:blue;fill:blue;" id="3131" x2="420.00" x1="480.00" y1="360.00" y2="290.00" /><line style="stroke:blue;fill:blue;" id="3132" x2="530.00" x1="480.00" y1="360.00" y2="460.00" /><line style="stroke:blue;fill:blue;" id="3133" x2="580.00" x1="500.00" y1="160.00" y2="160.00" /><line style="stroke:blue;fill:blue;" id="3134" x2="380.00" x1="500.00" y1="160.00" y2="90.00" /><line style="stroke:blue;fill:blue;" id="3135" x2="700.00" x1="580.00" y1="160.00" y2="120.00" /><line style="stroke:blue;fill:blue;" id="3136" x2="500.00" x1="580.00" y1="160.00" y2="160.00" /><line style="stroke:blue;fill:blue;" id="3137" x2="650.00" x1="580.00" y1="160.00" y2="160.00" /><line style="stroke:blue;fill:blue;" id="3138" x2="750.00" x1="680.00" y1="750.00" y2="690.00" /><line style="stroke:blue;fill:blue;" id="3139" x2="530.00" x1="680.00" y1="750.00" y2="750.00" /><line style="stroke:blue;fill:blue;" id="3140" x2="580.00" x1="700.00" y1="120.00" y2="160.00" /><line style="stroke:blue;fill:blue;" id="3141" x2="650.00" x1="700.00" y1="120.00" y2="160.00" /><line style="stroke:blue;fill:blue;" id="3142" x2="800.00" x1="900.00" y1="560.00" y2="560.00" /><line style="stroke:blue;fill:blue;" id="3143" x2="1000.00" x1="1000.00" y1="10.00" y2="60.00" /><line style="stroke:blue;fill:blue;" id="3144" x2="910.00" x1="980.00" y1="180.00" y2="140.00" /></svg>
