<?xml version="1.0" standalone="yes"?><!DOCTYPE svg PUBLIC "-//W3C//DTD SVG 1.1//EN" "http://www.w3.org/Graphics/SVG/1.1/DTD/svg11.dtd"[]><svg height="800.00" id="24755" width="1050.00" xmlns="http://www.w3.org/2000/svg" xmlns:xlink="http://www.w3.org/1999/xlink"><rect Type="system" Region="逑瑞斯" height="5.00" y="350.00" Name="L-FVHR" width="5.00" x="50.00" id="24756" ID="30004018" /><text x="50.00" y="350.00" id="24757">L-FVHR</text><rect Type="system" Region="逑瑞斯" height="5.00" y="500.00" Name="E-VKJV" width="5.00" x="50.00" id="24759" ID="30004028" /><text x="50.00" y="500.00" id="24760">E-VKJV</text><rect Type="system" Region="逑瑞斯" height="5.00" y="600.00" Name="BX-VEX" width="5.00" x="50.00" id="24762" ID="30004029" /><text x="50.00" y="600.00" id="24763">BX-VEX</text><rect Type="system" Region="逑瑞斯" height="5.00" y="650.00" Name="B-7DFU" width="5.00" x="50.00" id="24765" ID="30004030" /><text x="50.00" y="650.00" id="24766">B-7DFU</text><rect Type="system" Region="逑瑞斯" height="5.00" y="270.00" Name="F2OY-X" width="5.00" x="90.00" id="24768" ID="30004013" /><text x="90.00" y="270.00" id="24769">F2OY-X</text><rect Type="system" Region="逑瑞斯" height="5.00" y="310.00" Name="4-2UXV" width="5.00" x="130.00" id="24771" ID="30004014" /><text x="130.00" y="310.00" id="24772">4-2UXV</text><rect Type="system" Region="逑瑞斯" height="5.00" y="350.00" Name="RKM-GE" width="5.00" x="100.00" id="24774" ID="30004015" /><text x="100.00" y="350.00" id="24775">RKM-GE</text><rect Type="system" Region="逑瑞斯" height="5.00" y="400.00" Name="DG-L7S" width="5.00" x="100.00" id="24777" ID="30004016" /><text x="100.00" y="400.00" id="24778">DG-L7S</text><rect Type="system" Region="逑瑞斯" height="5.00" y="450.00" Name="K4-RFZ" width="5.00" x="100.00" id="24780" ID="30004017" /><text x="100.00" y="450.00" id="24781">K4-RFZ</text><rect Type="system" Region="逑瑞斯" height="5.00" y="500.00" Name="8-YNBE" width="5.00" x="100.00" id="24783" ID="30004025" /><text x="100.00" y="500.00" id="24784">8-YNBE</text><rect Type="system" Region="逑瑞斯" height="5.00" y="550.00" Name="YQX-7U" width="5.00" x="100.00" id="24786" ID="30004026" /><text x="100.00" y="550.00" id="24787">YQX-7U</text><rect Type="system" Region="绝地之域" height="5.00" y="220.00" Name="1DH-SX" width="5.00" x="100.00" id="24789" ID="30004710" /><text x="100.00" y="220.00" id="24790">1DH-SX</text><rect Type="system" Region="逑瑞斯" height="5.00" y="600.00" Name="QY1E-N" width="5.00" x="120.00" id="24792" ID="30004027" /><text x="120.00" y="600.00" id="24793">QY1E-N</text><rect Type="system" Region="绝地之域" height="5.00" y="125.39" Name="UHKL-N" width="5.00" x="138.84" id="24795" ID="30004706" /><text x="138.84" y="125.39" id="24796">UHKL-N</text><rect Type="system" Region="逑瑞斯" height="5.00" y="90.94" Name="A-BO4V" width="5.00" x="176.23" id="24798" ID="30003967" /><text x="176.23" y="90.94" id="24799">A-BO4V</text><rect Type="system" Region="逑瑞斯" height="5.00" y="79.06" Name="T8T-RA" width="5.00" x="223.77" id="24801" ID="30003966" /><text x="223.77" y="79.06" id="24802">T8T-RA</text><rect Type="system" Region="逑瑞斯" height="5.00" y="250.00" Name="3BK-O7" width="5.00" x="250.00" id="24804" ID="30004000" /><text x="250.00" y="250.00" id="24805">3BK-O7</text><rect Type="system" Region="逑瑞斯" height="5.00" y="300.00" Name="KEJY-U" width="5.00" x="250.00" id="24807" ID="30003999" /><text x="250.00" y="300.00" id="24808">KEJY-U</text><rect Type="system" Region="逑瑞斯" height="5.00" y="500.00" Name="W-IIYI" width="5.00" x="250.00" id="24810" ID="30004005" /><text x="250.00" y="500.00" id="24811">W-IIYI</text><rect Type="system" Region="逑瑞斯" height="5.00" y="620.00" Name="8QT-H4" width="5.00" x="250.00" id="24813" ID="30004012" /><text x="250.00" y="620.00" id="24814">8QT-H4</text><rect Type="system" Region="逑瑞斯" height="5.00" y="450.00" Name="AO-N1P" width="5.00" x="250.00" id="24816" ID="30004006" /><text x="250.00" y="450.00" id="24817">AO-N1P</text><rect Type="system" Region="逑瑞斯" height="5.00" y="550.00" Name="M1BZ-2" width="5.00" x="250.00" id="24819" ID="30004010" /><text x="250.00" y="550.00" id="24820">M1BZ-2</text><rect Type="system" Region="逑瑞斯" height="5.00" y="40.00" Name="V-3U8T" width="5.00" x="260.00" id="24822" ID="30003965" /><text x="260.00" y="40.00" id="24823">V-3U8T</text><rect Type="system" Region="逑瑞斯" height="5.00" y="390.00" Name="QXQ-I6" width="5.00" x="320.00" id="24825" ID="30004002" /><text x="320.00" y="390.00" id="24826">QXQ-I6</text><rect Type="system" Region="逑瑞斯" height="5.00" y="200.00" Name="A-5F4A" width="5.00" x="300.00" id="24828" ID="30003977" /><text x="300.00" y="200.00" id="24829">A-5F4A</text><rect Type="system" Region="逑瑞斯" height="5.00" y="320.00" Name="K-YI1L" width="5.00" x="300.00" id="24831" ID="30003998" /><text x="300.00" y="320.00" id="24832">K-YI1L</text><rect Type="system" Region="逑瑞斯" height="5.00" y="521.91" Name="3-JCJT" width="5.00" x="299.04" id="24834" ID="30004004" /><text x="299.04" y="521.91" id="24835">3-JCJT</text><rect Type="system" Region="逑瑞斯" height="5.00" y="150.00" Name="K-Z0V4" width="5.00" x="300.00" id="24837" ID="30003972" /><text x="300.00" y="150.00" id="24838">K-Z0V4</text><rect Type="system" Region="逑瑞斯" height="5.00" y="478.09" Name="L3-I3K" width="5.00" x="320.96" id="24840" ID="30004003" /><text x="320.96" y="478.09" id="24841">L3-I3K</text><rect Type="system" Region="逑瑞斯" height="5.00" y="100.00" Name="C-9RRR" width="5.00" x="320.00" id="24843" ID="30003976" /><text x="320.00" y="100.00" id="24844">C-9RRR</text><rect Type="system" Region="逑瑞斯" height="5.00" y="620.00" Name="49-U6U" width="5.00" x="320.00" id="24846" ID="30004009" /><text x="320.00" y="620.00" id="24847">49-U6U</text><rect Type="system" Region="逑瑞斯" height="5.00" y="550.00" Name="5V-BJI" width="5.00" x="350.00" id="24849" ID="30004008" /><text x="350.00" y="550.00" id="24850">5V-BJI</text><rect Type="system" Region="逑瑞斯" height="5.00" y="50.00" Name="SKR-SP" width="5.00" x="350.00" id="24852" ID="30003964" /><text x="350.00" y="50.00" id="24853">SKR-SP</text><rect Type="system" Region="逑瑞斯" height="5.00" y="350.10" Name="YF-6L1" width="5.00" x="349.84" id="24855" ID="30003997" /><text x="349.84" y="350.10" id="24856">YF-6L1</text><rect Type="system" Region="逑瑞斯" height="5.00" y="200.00" Name="Q2-N6W" width="5.00" x="380.00" id="24858" ID="30003975" /><text x="380.00" y="200.00" id="24859">Q2-N6W</text><rect Type="system" Region="逑瑞斯" height="5.00" y="276.20" Name="8-GE2P" width="5.00" x="379.05" id="24861" ID="30004001" /><text x="379.05" y="276.20" id="24862">8-GE2P</text><rect Type="system" Region="逑瑞斯" height="5.00" y="323.69" Name="ZAU-JW" width="5.00" x="391.11" id="24864" ID="30003996" /><text x="391.11" y="323.69" id="24865">ZAU-JW</text><rect Type="system" Region="逑瑞斯" height="5.00" y="500.00" Name="4-GJT1" width="5.00" x="380.00" id="24867" ID="30004007" /><text x="380.00" y="500.00" id="24868">4-GJT1</text><rect Type="system" Region="逑瑞斯" height="5.00" y="100.00" Name="L-6W1J" width="5.00" x="400.00" id="24870" ID="30003970" /><text x="400.00" y="100.00" id="24871">L-6W1J</text><rect Type="system" Region="逑瑞斯" height="5.00" y="150.00" Name="P4-3TJ" width="5.00" x="400.00" id="24873" ID="30003971" /><text x="400.00" y="150.00" id="24874">P4-3TJ</text><rect Type="system" Region="逑瑞斯" height="5.00" y="620.00" Name="N-M1A3" width="5.00" x="400.00" id="24876" ID="30004011" /><text x="400.00" y="620.00" id="24877">N-M1A3</text><rect Type="system" Region="逑瑞斯" height="5.00" y="50.00" Name="GOP-GE" width="5.00" x="420.00" id="24879" ID="30003963" /><text x="420.00" y="50.00" id="24880">GOP-GE</text><rect Type="system" Region="逑瑞斯" height="5.00" y="200.00" Name="LNVW-K" width="5.00" x="450.00" id="24882" ID="30003973" /><text x="450.00" y="200.00" id="24883">LNVW-K</text><rect Type="system" Region="逑瑞斯" height="5.00" y="120.00" Name="K-B8DK" width="5.00" x="480.00" id="24885" ID="30003969" /><text x="480.00" y="120.00" id="24886">K-B8DK</text><rect Type="system" Region="逑瑞斯" height="5.00" y="50.00" Name="MKD-O8" width="5.00" x="500.00" id="24888" ID="30003962" /><text x="500.00" y="50.00" id="24889">MKD-O8</text><rect Type="system" Region="逑瑞斯" height="5.00" y="200.00" Name="8B-SAJ" width="5.00" x="500.00" id="24891" ID="30003974" /><text x="500.00" y="200.00" id="24892">8B-SAJ</text><rect Type="system" Region="逑瑞斯" height="5.00" y="350.00" Name="K-L690" width="5.00" x="500.00" id="24894" ID="30003982" /><text x="500.00" y="350.00" id="24895">K-L690</text><rect Type="system" Region="逑瑞斯" height="5.00" y="450.00" Name="YW-SYT" width="5.00" x="520.00" id="24897" ID="30003990" /><text x="520.00" y="450.00" id="24898">YW-SYT</text><rect Type="system" Region="逑瑞斯" height="5.00" y="500.00" Name="Z-UZZN" width="5.00" x="520.00" id="24900" ID="30003991" /><text x="520.00" y="500.00" id="24901">Z-UZZN</text><rect Type="system" Region="逑瑞斯" height="5.00" y="550.00" Name="BX2-ZX" width="5.00" x="520.00" id="24903" ID="30003993" /><text x="520.00" y="550.00" id="24904">BX2-ZX</text><rect Type="system" Region="逑瑞斯" height="5.00" y="150.00" Name="W-IX39" width="5.00" x="550.00" id="24906" ID="30003968" /><text x="550.00" y="150.00" id="24907">W-IX39</text><rect Type="system" Region="逑瑞斯" height="5.00" y="300.00" Name="NDII-Q" width="5.00" x="550.00" id="24909" ID="30003980" /><text x="550.00" y="300.00" id="24910">NDII-Q</text><rect Type="system" Region="逑瑞斯" height="5.00" y="675.50" Name="ZXJ-71" width="5.00" x="550.00" id="24912" ID="30004031" /><text x="550.00" y="675.50" id="24913">ZXJ-71</text><rect Type="system" Region="逑瑞斯" height="5.00" y="724.50" Name="NU4-2G" width="5.00" x="550.00" id="24915" ID="30004035" /><text x="550.00" y="724.50" id="24916">NU4-2G</text><rect Type="system" Region="逑瑞斯" height="5.00" y="50.00" Name="L-6BE1" width="5.00" x="550.00" id="24918" ID="30003951" /><text x="550.00" y="50.00" id="24919">L-6BE1</text><rect Type="system" Region="逑瑞斯" height="5.00" y="100.00" Name="1M4-FK" width="5.00" x="550.00" id="24921" ID="30003952" /><text x="550.00" y="100.00" id="24922">1M4-FK</text><rect Type="system" Region="逑瑞斯" height="5.00" y="450.00" Name="C-7SBM" width="5.00" x="600.00" id="24924" ID="30003995" /><text x="600.00" y="450.00" id="24925">C-7SBM</text><rect Type="system" Region="逑瑞斯" height="5.00" y="520.00" Name="DS-LO3" width="5.00" x="600.00" id="24927" ID="30003992" /><text x="600.00" y="520.00" id="24928">DS-LO3</text><rect Type="system" Region="逑瑞斯" height="5.00" y="580.00" Name="RF-CN3" width="5.00" x="600.00" id="24930" ID="30003994" /><text x="600.00" y="580.00" id="24931">RF-CN3</text><rect Type="system" Region="逑瑞斯" height="5.00" y="250.00" Name="W6V-VM" width="5.00" x="620.00" id="24933" ID="30003983" /><text x="620.00" y="250.00" id="24934">W6V-VM</text><rect Type="system" Region="逑瑞斯" height="5.00" y="300.00" Name="9CG6-H" width="5.00" x="620.00" id="24936" ID="30003979" /><text x="620.00" y="300.00" id="24937">9CG6-H</text><rect Type="system" Region="逑瑞斯" height="5.00" y="350.00" Name="UYU-VV" width="5.00" x="620.00" id="24939" ID="30003981" /><text x="620.00" y="350.00" id="24940">UYU-VV</text><rect Type="system" Region="逑瑞斯" height="5.00" y="650.00" Name="ES-Q0W" width="5.00" x="620.00" id="24942" ID="30004033" /><text x="620.00" y="650.00" id="24943">ES-Q0W</text><rect Type="system" Region="逑瑞斯" height="5.00" y="700.00" Name="F-NXLQ" width="5.00" x="620.00" id="24945" ID="30004032" /><text x="620.00" y="700.00" id="24946">F-NXLQ</text><rect Type="system" Region="逑瑞斯" height="5.00" y="50.00" Name="7GCD-P" width="5.00" x="650.00" id="24948" ID="30003948" /><text x="650.00" y="50.00" id="24949">7GCD-P</text><rect Type="system" Region="逑瑞斯" height="5.00" y="100.00" Name="G-3BOG" width="5.00" x="650.00" id="24951" ID="30003949" /><text x="650.00" y="100.00" id="24952">G-3BOG</text><rect Type="system" Region="逑瑞斯" height="5.00" y="180.00" Name="K7D-II" width="5.00" x="650.00" id="24954" ID="30003950" /><text x="650.00" y="180.00" id="24955">K7D-II</text><rect Type="system" Region="逑瑞斯" height="5.00" y="300.00" Name="P-ZMZV" width="5.00" x="700.00" id="24957" ID="30003978" /><text x="700.00" y="300.00" id="24958">P-ZMZV</text><rect Type="system" Region="逑瑞斯" height="5.00" y="650.00" Name="3D5K-R" width="5.00" x="720.00" id="24960" ID="30004036" /><text x="720.00" y="650.00" id="24961">3D5K-R</text><rect Type="system" Region="逑瑞斯" height="5.00" y="700.00" Name="H74-B0" width="5.00" x="720.00" id="24963" ID="30004034" /><text x="720.00" y="700.00" id="24964">H74-B0</text><rect Type="system" Region="逑瑞斯" height="5.00" y="250.00" Name="V-LEKM" width="5.00" x="720.00" id="24966" ID="30003953" /><text x="720.00" y="250.00" id="24967">V-LEKM</text><rect Type="system" Region="逑瑞斯" height="5.00" y="50.00" Name="0-WT2D" width="5.00" x="720.00" id="24969" ID="30003947" /><text x="720.00" y="50.00" id="24970">0-WT2D</text><rect Type="system" Region="逑瑞斯" height="5.00" y="450.00" Name="I1Y-IU" width="5.00" x="730.00" id="24972" ID="30004023" /><text x="730.00" y="450.00" id="24973">I1Y-IU</text><rect Type="system" Region="逑瑞斯" height="5.00" y="550.00" Name="LS-V29" width="5.00" x="730.00" id="24975" ID="30004021" /><text x="730.00" y="550.00" id="24976">LS-V29</text><rect Type="system" Region="逑瑞斯" height="5.00" y="400.00" Name="U-HYZN" width="5.00" x="730.00" id="24978" ID="30004024" /><text x="730.00" y="400.00" id="24979">U-HYZN</text><rect Type="system" Region="逑瑞斯" height="5.00" y="180.00" Name="OGY-6D" width="5.00" x="780.00" id="24981" ID="30003984" /><text x="780.00" y="180.00" id="24982">OGY-6D</text><rect Type="system" Region="逑瑞斯" height="5.00" y="500.00" Name="ED-L9T" width="5.00" x="780.00" id="24984" ID="30004020" /><text x="780.00" y="500.00" id="24985">ED-L9T</text><rect Type="system" Region="逑瑞斯" height="5.00" y="320.00" Name="TV8-HS" width="5.00" x="800.00" id="24987" ID="30003958" /><text x="800.00" y="320.00" id="24988">TV8-HS</text><rect Type="system" Region="逑瑞斯" height="5.00" y="20.00" Name="7V-KHW" width="5.00" x="800.00" id="24990" ID="30003945" /><text x="800.00" y="20.00" id="24991">7V-KHW</text><rect Type="system" Region="逑瑞斯" height="5.00" y="450.00" Name="3-FKCZ" width="5.00" x="820.00" id="24993" ID="30004019" /><text x="820.00" y="450.00" id="24994">3-FKCZ</text><rect Type="system" Region="逑瑞斯" height="5.00" y="550.00" Name="9SBB-9" width="5.00" x="820.00" id="24996" ID="30004022" /><text x="820.00" y="550.00" id="24997">9SBB-9</text><rect Type="system" Region="逑瑞斯" height="5.00" y="150.00" Name="Z-XX2J" width="5.00" x="850.00" id="24999" ID="30003989" /><text x="850.00" y="150.00" id="25000">Z-XX2J</text><rect Type="system" Region="逑瑞斯" height="5.00" y="200.00" Name="8-SNUD" width="5.00" x="850.00" id="25002" ID="30003985" /><text x="850.00" y="200.00" id="25003">8-SNUD</text><rect Type="system" Region="逑瑞斯" height="5.00" y="280.00" Name="9ES-SI" width="5.00" x="850.00" id="25005" ID="30003954" /><text x="850.00" y="280.00" id="25006">9ES-SI</text><rect Type="system" Region="逑瑞斯" height="5.00" y="350.00" Name="YOP-0T" width="5.00" x="850.00" id="25008" ID="30003960" /><text x="850.00" y="350.00" id="25009">YOP-0T</text><rect Type="system" Region="逑瑞斯" height="5.00" y="20.00" Name="T8H-66" width="5.00" x="880.00" id="25011" ID="30003943" /><text x="880.00" y="20.00" id="25012">T8H-66</text><rect Type="system" Region="逑瑞斯" height="5.00" y="80.00" Name="A3-LOG" width="5.00" x="880.00" id="25014" ID="30003944" /><text x="880.00" y="80.00" id="25015">A3-LOG</text><rect Type="system" Region="逑瑞斯" height="5.00" y="320.00" Name="60M-TG" width="5.00" x="900.00" id="25017" ID="30003956" /><text x="900.00" y="320.00" id="25018">60M-TG</text><rect Type="system" Region="逑瑞斯" height="5.00" y="400.00" Name="0TKF-6" width="5.00" x="900.00" id="25020" ID="30003957" /><text x="900.00" y="400.00" id="25021">0TKF-6</text><rect Type="system" Region="逑瑞斯" height="5.00" y="150.00" Name="IGE-NE" width="5.00" x="920.00" id="25023" ID="30003987" /><text x="920.00" y="150.00" id="25024">IGE-NE</text><rect Type="system" Region="逑瑞斯" height="5.00" y="200.00" Name="H-4R6Z" width="5.00" x="920.00" id="25026" ID="30003986" /><text x="920.00" y="200.00" id="25027">H-4R6Z</text><rect Type="system" Region="逑瑞斯" height="5.00" y="280.00" Name="UQY-IK" width="5.00" x="930.00" id="25029" ID="30003955" /><text x="930.00" y="280.00" id="25030">UQY-IK</text><rect Type="system" Region="逑瑞斯" height="5.00" y="370.00" Name="VT-G2P" width="5.00" x="950.00" id="25032" ID="30003959" /><text x="950.00" y="370.00" id="25033">VT-G2P</text><rect Type="system" Region="逑瑞斯" height="5.00" y="20.00" Name="O3L-95" width="5.00" x="950.00" id="25035" ID="30003946" /><text x="950.00" y="20.00" id="25036">O3L-95</text><rect Type="system" Region="逑瑞斯" height="5.00" y="80.00" Name="A2-V27" width="5.00" x="950.00" id="25038" ID="30003942" /><text x="950.00" y="80.00" id="25039">A2-V27</text><rect Type="system" Region="逑瑞斯" height="5.00" y="180.00" Name="UVHO-F" width="5.00" x="980.00" id="25041" ID="30003988" /><text x="980.00" y="180.00" id="25042">UVHO-F</text><rect Type="system" Region="逑瑞斯" height="5.00" y="320.00" Name="9-HM04" width="5.00" x="960.00" id="25044" ID="30003961" /><text x="960.00" y="320.00" id="25045">9-HM04</text><rect Type="system" Region="绝地之域" height="5.00" y="450.00" Name="3-DMQT" width="5.00" x="20.00" id="25047" ID="30004764" /><text x="20.00" y="450.00" id="25048">3-DMQT</text><rect Type="system" Region="绝地之域" height="5.00" y="170.00" Name="A-ELE2" width="5.00" x="100.00" id="25050" ID="30004708" /><text x="100.00" y="170.00" id="25051">A-ELE2</text><rect Type="system" Region="绝地之域" height="5.00" y="700.00" Name="C3N-3S" width="5.00" x="120.00" id="25053" ID="30004798" /><text x="120.00" y="700.00" id="25054">C3N-3S</text><rect Type="system" Region="绝地之域" height="5.00" y="172.81" Name="Z3V-1W" width="5.00" x="151.20" id="25056" ID="30004707" /><text x="151.20" y="172.81" id="25057">Z3V-1W</text><rect Type="system" Region="绝地之域" height="5.00" y="221.80" Name="PR-8CA" width="5.00" x="149.96" id="25059" ID="30004711" /><text x="149.96" y="221.80" id="25060">PR-8CA</text><rect Type="system" Region="绝地之域" height="5.00" y="700.00" Name="SVM-3K" width="5.00" x="200.00" id="25062" ID="30004758" /><text x="200.00" y="700.00" id="25063">SVM-3K</text><rect Type="system" Region="卡彻" height="5.00" y="700.00" Name="4-07MU" width="5.00" x="380.00" id="25065" ID="30001260" /><text x="380.00" y="700.00" id="25066">4-07MU</text><rect Type="system" Region="卡尼迪" height="5.00" y="490.00" Name="埃尔法" width="5.00" x="900.00" id="25068" ID="30003892" /><text x="900.00" y="490.00" id="25069">埃尔法</text><rect Type="system" Region="卡尼迪" height="5.00" y="120.00" Name="凯拉" width="5.00" x="980.00" id="25071" ID="30003887" /><text x="980.00" y="120.00" id="25072">凯拉</text><line x2="130.00" style="fill:blue;stroke:blue;" y1="350.00" x1="50.00" id="25074" y2="310.00" /><line x2="100.00" style="fill:blue;stroke:blue;" y1="350.00" x1="50.00" id="25075" y2="350.00" /><line x2="100.00" style="fill:blue;stroke:blue;" y1="500.00" x1="50.00" id="25076" y2="500.00" /><line x2="20.00" style="fill:blue;stroke:blue;" y1="500.00" x1="50.00" id="25077" y2="450.00" /><line x2="100.00" style="fill:blue;stroke:blue;" y1="600.00" x1="50.00" id="25078" y2="550.00" /><line x2="50.00" style="fill:blue;stroke:blue;" y1="600.00" x1="50.00" id="25079" y2="650.00" /><line x2="50.00" style="fill:blue;stroke:blue;" y1="650.00" x1="50.00" id="25080" y2="600.00" /><line x2="130.00" style="fill:blue;stroke:blue;" y1="270.00" x1="90.00" id="25081" y2="310.00" /><line x2="100.00" style="fill:blue;stroke:blue;" y1="270.00" x1="90.00" id="25082" y2="220.00" /><line x2="90.00" style="fill:blue;stroke:blue;" y1="310.00" x1="130.00" id="25083" y2="270.00" /><line x2="100.00" style="fill:blue;stroke:blue;" y1="310.00" x1="130.00" id="25084" y2="350.00" /><line x2="50.00" style="fill:blue;stroke:blue;" y1="310.00" x1="130.00" id="25085" y2="350.00" /><line x2="130.00" style="fill:blue;stroke:blue;" y1="350.00" x1="100.00" id="25086" y2="310.00" /><line x2="100.00" style="fill:blue;stroke:blue;" y1="350.00" x1="100.00" id="25087" y2="400.00" /><line x2="50.00" style="fill:blue;stroke:blue;" y1="350.00" x1="100.00" id="25088" y2="350.00" /><line x2="100.00" style="fill:blue;stroke:blue;" y1="400.00" x1="100.00" id="25089" y2="350.00" /><line x2="100.00" style="fill:blue;stroke:blue;" y1="400.00" x1="100.00" id="25090" y2="450.00" /><line x2="100.00" style="fill:blue;stroke:blue;" y1="450.00" x1="100.00" id="25091" y2="400.00" /><line x2="100.00" style="fill:blue;stroke:blue;" y1="450.00" x1="100.00" id="25092" y2="500.00" /><line x2="100.00" style="fill:blue;stroke:blue;" y1="500.00" x1="100.00" id="25093" y2="450.00" /><line x2="100.00" style="fill:blue;stroke:blue;" y1="500.00" x1="100.00" id="25094" y2="550.00" /><line x2="50.00" style="fill:blue;stroke:blue;" y1="500.00" x1="100.00" id="25095" y2="500.00" /><line x2="100.00" style="fill:blue;stroke:blue;" y1="550.00" x1="100.00" id="25096" y2="500.00" /><line x2="120.00" style="fill:blue;stroke:blue;" y1="550.00" x1="100.00" id="25097" y2="600.00" /><line x2="50.00" style="fill:blue;stroke:blue;" y1="550.00" x1="100.00" id="25098" y2="600.00" /><line x2="90.00" style="fill:blue;stroke:blue;" y1="220.00" x1="100.00" id="25099" y2="270.00" /><line x2="151.20" style="fill:blue;stroke:blue;" y1="220.00" x1="100.00" id="25100" y2="172.81" /><line x2="100.00" style="fill:blue;stroke:blue;" y1="220.00" x1="100.00" id="25101" y2="170.00" /><line x2="149.96" style="fill:blue;stroke:blue;" y1="220.00" x1="100.00" id="25102" y2="221.80" /><line x2="100.00" style="fill:blue;stroke:blue;" y1="600.00" x1="120.00" id="25103" y2="550.00" /><line x2="120.00" style="fill:blue;stroke:blue;" y1="600.00" x1="120.00" id="25104" y2="700.00" /><line x2="176.23" style="fill:blue;stroke:blue;" y1="125.39" x1="138.84" id="25105" y2="90.94" /><line x2="151.20" style="fill:blue;stroke:blue;" y1="125.39" x1="138.84" id="25106" y2="172.81" /><line x2="223.77" style="fill:blue;stroke:blue;" y1="90.94" x1="176.23" id="25107" y2="79.06" /><line x2="138.84" style="fill:blue;stroke:blue;" y1="90.94" x1="176.23" id="25108" y2="125.39" /><line x2="260.00" style="fill:blue;stroke:blue;" y1="79.06" x1="223.77" id="25109" y2="40.00" /><line x2="176.23" style="fill:blue;stroke:blue;" y1="79.06" x1="223.77" id="25110" y2="90.94" /><line x2="250.00" style="fill:blue;stroke:blue;" y1="250.00" x1="250.00" id="25111" y2="300.00" /><line x2="300.00" style="fill:blue;stroke:blue;" y1="300.00" x1="250.00" id="25112" y2="320.00" /><line x2="250.00" style="fill:blue;stroke:blue;" y1="300.00" x1="250.00" id="25113" y2="250.00" /><line x2="299.04" style="fill:blue;stroke:blue;" y1="500.00" x1="250.00" id="25114" y2="521.91" /><line x2="320.00" style="fill:blue;stroke:blue;" y1="620.00" x1="250.00" id="25115" y2="620.00" /><line x2="250.00" style="fill:blue;stroke:blue;" y1="620.00" x1="250.00" id="25116" y2="550.00" /><line x2="200.00" style="fill:blue;stroke:blue;" y1="620.00" x1="250.00" id="25117" y2="700.00" /><line x2="320.96" style="fill:blue;stroke:blue;" y1="450.00" x1="250.00" id="25118" y2="478.09" /><line x2="299.04" style="fill:blue;stroke:blue;" y1="550.00" x1="250.00" id="25119" y2="521.91" /><line x2="250.00" style="fill:blue;stroke:blue;" y1="550.00" x1="250.00" id="25120" y2="620.00" /><line x2="350.00" style="fill:blue;stroke:blue;" y1="40.00" x1="260.00" id="25121" y2="50.00" /><line x2="223.77" style="fill:blue;stroke:blue;" y1="40.00" x1="260.00" id="25122" y2="79.06" /><line x2="349.84" style="fill:blue;stroke:blue;" y1="390.00" x1="320.00" id="25123" y2="350.10" /><line x2="380.00" style="fill:blue;stroke:blue;" y1="200.00" x1="300.00" id="25124" y2="200.00" /><line x2="391.11" style="fill:blue;stroke:blue;" y1="320.00" x1="300.00" id="25125" y2="323.69" /><line x2="349.84" style="fill:blue;stroke:blue;" y1="320.00" x1="300.00" id="25126" y2="350.10" /><line x2="250.00" style="fill:blue;stroke:blue;" y1="320.00" x1="300.00" id="25127" y2="300.00" /><line x2="320.96" style="fill:blue;stroke:blue;" y1="521.91" x1="299.04" id="25128" y2="478.09" /><line x2="250.00" style="fill:blue;stroke:blue;" y1="521.91" x1="299.04" id="25129" y2="500.00" /><line x2="380.00" style="fill:blue;stroke:blue;" y1="521.91" x1="299.04" id="25130" y2="500.00" /><line x2="350.00" style="fill:blue;stroke:blue;" y1="521.91" x1="299.04" id="25131" y2="550.00" /><line x2="250.00" style="fill:blue;stroke:blue;" y1="521.91" x1="299.04" id="25132" y2="550.00" /><line x2="400.00" style="fill:blue;stroke:blue;" y1="150.00" x1="300.00" id="25133" y2="150.00" /><line x2="500.00" style="fill:blue;stroke:blue;" y1="478.09" x1="320.96" id="25134" y2="350.00" /><line x2="299.04" style="fill:blue;stroke:blue;" y1="478.09" x1="320.96" id="25135" y2="521.91" /><line x2="250.00" style="fill:blue;stroke:blue;" y1="478.09" x1="320.96" id="25136" y2="450.00" /><line x2="380.00" style="fill:blue;stroke:blue;" y1="478.09" x1="320.96" id="25137" y2="500.00" /><line x2="400.00" style="fill:blue;stroke:blue;" y1="100.00" x1="320.00" id="25138" y2="100.00" /><line x2="380.00" style="fill:blue;stroke:blue;" y1="620.00" x1="320.00" id="25139" y2="700.00" /><line x2="350.00" style="fill:blue;stroke:blue;" y1="620.00" x1="320.00" id="25140" y2="550.00" /><line x2="400.00" style="fill:blue;stroke:blue;" y1="620.00" x1="320.00" id="25141" y2="620.00" /><line x2="250.00" style="fill:blue;stroke:blue;" y1="620.00" x1="320.00" id="25142" y2="620.00" /><line x2="299.04" style="fill:blue;stroke:blue;" y1="550.00" x1="350.00" id="25143" y2="521.91" /><line x2="320.00" style="fill:blue;stroke:blue;" y1="550.00" x1="350.00" id="25144" y2="620.00" /><line x2="420.00" style="fill:blue;stroke:blue;" y1="50.00" x1="350.00" id="25145" y2="50.00" /><line x2="260.00" style="fill:blue;stroke:blue;" y1="50.00" x1="350.00" id="25146" y2="40.00" /><line x2="391.11" style="fill:blue;stroke:blue;" y1="350.10" x1="349.84" id="25147" y2="323.69" /><line x2="300.00" style="fill:blue;stroke:blue;" y1="350.10" x1="349.84" id="25148" y2="320.00" /><line x2="320.00" style="fill:blue;stroke:blue;" y1="350.10" x1="349.84" id="25149" y2="390.00" /><line x2="450.00" style="fill:blue;stroke:blue;" y1="200.00" x1="380.00" id="25150" y2="200.00" /><line x2="300.00" style="fill:blue;stroke:blue;" y1="200.00" x1="380.00" id="25151" y2="200.00" /><line x2="391.11" style="fill:blue;stroke:blue;" y1="276.20" x1="379.05" id="25152" y2="323.69" /><line x2="500.00" style="fill:blue;stroke:blue;" y1="323.69" x1="391.11" id="25153" y2="350.00" /><line x2="349.84" style="fill:blue;stroke:blue;" y1="323.69" x1="391.11" id="25154" y2="350.10" /><line x2="300.00" style="fill:blue;stroke:blue;" y1="323.69" x1="391.11" id="25155" y2="320.00" /><line x2="379.05" style="fill:blue;stroke:blue;" y1="323.69" x1="391.11" id="25156" y2="276.20" /><line x2="320.96" style="fill:blue;stroke:blue;" y1="500.00" x1="380.00" id="25157" y2="478.09" /><line x2="299.04" style="fill:blue;stroke:blue;" y1="500.00" x1="380.00" id="25158" y2="521.91" /><line x2="480.00" style="fill:blue;stroke:blue;" y1="100.00" x1="400.00" id="25159" y2="120.00" /><line x2="320.00" style="fill:blue;stroke:blue;" y1="100.00" x1="400.00" id="25160" y2="100.00" /><line x2="550.00" style="fill:blue;stroke:blue;" y1="150.00" x1="400.00" id="25161" y2="150.00" /><line x2="480.00" style="fill:blue;stroke:blue;" y1="150.00" x1="400.00" id="25162" y2="120.00" /><line x2="300.00" style="fill:blue;stroke:blue;" y1="150.00" x1="400.00" id="25163" y2="150.00" /><line x2="450.00" style="fill:blue;stroke:blue;" y1="150.00" x1="400.00" id="25164" y2="200.00" /><line x2="320.00" style="fill:blue;stroke:blue;" y1="620.00" x1="400.00" id="25165" y2="620.00" /><line x2="550.00" style="fill:blue;stroke:blue;" y1="620.00" x1="400.00" id="25166" y2="675.50" /><line x2="500.00" style="fill:blue;stroke:blue;" y1="50.00" x1="420.00" id="25167" y2="50.00" /><line x2="350.00" style="fill:blue;stroke:blue;" y1="50.00" x1="420.00" id="25168" y2="50.00" /><line x2="400.00" style="fill:blue;stroke:blue;" y1="200.00" x1="450.00" id="25169" y2="150.00" /><line x2="500.00" style="fill:blue;stroke:blue;" y1="200.00" x1="450.00" id="25170" y2="200.00" /><line x2="380.00" style="fill:blue;stroke:blue;" y1="200.00" x1="450.00" id="25171" y2="200.00" /><line x2="550.00" style="fill:blue;stroke:blue;" y1="120.00" x1="480.00" id="25172" y2="150.00" /><line x2="400.00" style="fill:blue;stroke:blue;" y1="120.00" x1="480.00" id="25173" y2="100.00" /><line x2="400.00" style="fill:blue;stroke:blue;" y1="120.00" x1="480.00" id="25174" y2="150.00" /><line x2="550.00" style="fill:blue;stroke:blue;" y1="50.00" x1="500.00" id="25175" y2="50.00" /><line x2="420.00" style="fill:blue;stroke:blue;" y1="50.00" x1="500.00" id="25176" y2="50.00" /><line x2="550.00" style="fill:blue;stroke:blue;" y1="200.00" x1="500.00" id="25177" y2="150.00" /><line x2="450.00" style="fill:blue;stroke:blue;" y1="200.00" x1="500.00" id="25178" y2="200.00" /><line x2="550.00" style="fill:blue;stroke:blue;" y1="350.00" x1="500.00" id="25179" y2="300.00" /><line x2="391.11" style="fill:blue;stroke:blue;" y1="350.00" x1="500.00" id="25180" y2="323.69" /><line x2="320.96" style="fill:blue;stroke:blue;" y1="350.00" x1="500.00" id="25181" y2="478.09" /><line x2="620.00" style="fill:blue;stroke:blue;" y1="450.00" x1="520.00" id="25182" y2="350.00" /><line x2="520.00" style="fill:blue;stroke:blue;" y1="450.00" x1="520.00" id="25183" y2="500.00" /><line x2="520.00" style="fill:blue;stroke:blue;" y1="500.00" x1="520.00" id="25184" y2="450.00" /><line x2="600.00" style="fill:blue;stroke:blue;" y1="500.00" x1="520.00" id="25185" y2="520.00" /><line x2="520.00" style="fill:blue;stroke:blue;" y1="500.00" x1="520.00" id="25186" y2="550.00" /><line x2="600.00" style="fill:blue;stroke:blue;" y1="500.00" x1="520.00" id="25187" y2="450.00" /><line x2="520.00" style="fill:blue;stroke:blue;" y1="550.00" x1="520.00" id="25188" y2="500.00" /><line x2="650.00" style="fill:blue;stroke:blue;" y1="150.00" x1="550.00" id="25189" y2="180.00" /><line x2="480.00" style="fill:blue;stroke:blue;" y1="150.00" x1="550.00" id="25190" y2="120.00" /><line x2="400.00" style="fill:blue;stroke:blue;" y1="150.00" x1="550.00" id="25191" y2="150.00" /><line x2="500.00" style="fill:blue;stroke:blue;" y1="150.00" x1="550.00" id="25192" y2="200.00" /><line x2="620.00" style="fill:blue;stroke:blue;" y1="300.00" x1="550.00" id="25193" y2="300.00" /><line x2="500.00" style="fill:blue;stroke:blue;" y1="300.00" x1="550.00" id="25194" y2="350.00" /><line x2="400.00" style="fill:blue;stroke:blue;" y1="675.50" x1="550.00" id="25195" y2="620.00" /><line x2="620.00" style="fill:blue;stroke:blue;" y1="675.50" x1="550.00" id="25196" y2="700.00" /><line x2="620.00" style="fill:blue;stroke:blue;" y1="675.50" x1="550.00" id="25197" y2="650.00" /><line x2="620.00" style="fill:blue;stroke:blue;" y1="724.50" x1="550.00" id="25198" y2="700.00" /><line x2="650.00" style="fill:blue;stroke:blue;" y1="50.00" x1="550.00" id="25199" y2="50.00" /><line x2="650.00" style="fill:blue;stroke:blue;" y1="50.00" x1="550.00" id="25200" y2="100.00" /><line x2="550.00" style="fill:blue;stroke:blue;" y1="50.00" x1="550.00" id="25201" y2="100.00" /><line x2="500.00" style="fill:blue;stroke:blue;" y1="50.00" x1="550.00" id="25202" y2="50.00" /><line x2="550.00" style="fill:blue;stroke:blue;" y1="100.00" x1="550.00" id="25203" y2="50.00" /><line x2="520.00" style="fill:blue;stroke:blue;" y1="450.00" x1="600.00" id="25204" y2="500.00" /><line x2="600.00" style="fill:blue;stroke:blue;" y1="450.00" x1="600.00" id="25205" y2="520.00" /><line x2="730.00" style="fill:blue;stroke:blue;" y1="450.00" x1="600.00" id="25206" y2="450.00" /><line x2="520.00" style="fill:blue;stroke:blue;" y1="520.00" x1="600.00" id="25207" y2="500.00" /><line x2="600.00" style="fill:blue;stroke:blue;" y1="520.00" x1="600.00" id="25208" y2="580.00" /><line x2="600.00" style="fill:blue;stroke:blue;" y1="520.00" x1="600.00" id="25209" y2="450.00" /><line x2="600.00" style="fill:blue;stroke:blue;" y1="580.00" x1="600.00" id="25210" y2="520.00" /><line x2="620.00" style="fill:blue;stroke:blue;" y1="250.00" x1="620.00" id="25211" y2="300.00" /><line x2="700.00" style="fill:blue;stroke:blue;" y1="300.00" x1="620.00" id="25212" y2="300.00" /><line x2="550.00" style="fill:blue;stroke:blue;" y1="300.00" x1="620.00" id="25213" y2="300.00" /><line x2="620.00" style="fill:blue;stroke:blue;" y1="300.00" x1="620.00" id="25214" y2="350.00" /><line x2="620.00" style="fill:blue;stroke:blue;" y1="300.00" x1="620.00" id="25215" y2="250.00" /><line x2="700.00" style="fill:blue;stroke:blue;" y1="350.00" x1="620.00" id="25216" y2="300.00" /><line x2="620.00" style="fill:blue;stroke:blue;" y1="350.00" x1="620.00" id="25217" y2="300.00" /><line x2="520.00" style="fill:blue;stroke:blue;" y1="350.00" x1="620.00" id="25218" y2="450.00" /><line x2="550.00" style="fill:blue;stroke:blue;" y1="650.00" x1="620.00" id="25219" y2="675.50" /><line x2="620.00" style="fill:blue;stroke:blue;" y1="650.00" x1="620.00" id="25220" y2="700.00" /><line x2="720.00" style="fill:blue;stroke:blue;" y1="650.00" x1="620.00" id="25221" y2="650.00" /><line x2="550.00" style="fill:blue;stroke:blue;" y1="700.00" x1="620.00" id="25222" y2="675.50" /><line x2="620.00" style="fill:blue;stroke:blue;" y1="700.00" x1="620.00" id="25223" y2="650.00" /><line x2="720.00" style="fill:blue;stroke:blue;" y1="700.00" x1="620.00" id="25224" y2="700.00" /><line x2="550.00" style="fill:blue;stroke:blue;" y1="700.00" x1="620.00" id="25225" y2="724.50" /><line x2="720.00" style="fill:blue;stroke:blue;" y1="700.00" x1="620.00" id="25226" y2="650.00" /><line x2="720.00" style="fill:blue;stroke:blue;" y1="50.00" x1="650.00" id="25227" y2="50.00" /><line x2="650.00" style="fill:blue;stroke:blue;" y1="50.00" x1="650.00" id="25228" y2="100.00" /><line x2="550.00" style="fill:blue;stroke:blue;" y1="50.00" x1="650.00" id="25229" y2="50.00" /><line x2="650.00" style="fill:blue;stroke:blue;" y1="100.00" x1="650.00" id="25230" y2="50.00" /><line x2="650.00" style="fill:blue;stroke:blue;" y1="100.00" x1="650.00" id="25231" y2="180.00" /><line x2="550.00" style="fill:blue;stroke:blue;" y1="100.00" x1="650.00" id="25232" y2="50.00" /><line x2="650.00" style="fill:blue;stroke:blue;" y1="180.00" x1="650.00" id="25233" y2="100.00" /><line x2="720.00" style="fill:blue;stroke:blue;" y1="180.00" x1="650.00" id="25234" y2="250.00" /><line x2="550.00" style="fill:blue;stroke:blue;" y1="180.00" x1="650.00" id="25235" y2="150.00" /><line x2="780.00" style="fill:blue;stroke:blue;" y1="180.00" x1="650.00" id="25236" y2="180.00" /><line x2="720.00" style="fill:blue;stroke:blue;" y1="300.00" x1="700.00" id="25237" y2="250.00" /><line x2="620.00" style="fill:blue;stroke:blue;" y1="300.00" x1="700.00" id="25238" y2="300.00" /><line x2="620.00" style="fill:blue;stroke:blue;" y1="300.00" x1="700.00" id="25239" y2="350.00" /><line x2="620.00" style="fill:blue;stroke:blue;" y1="650.00" x1="720.00" id="25240" y2="700.00" /><line x2="620.00" style="fill:blue;stroke:blue;" y1="650.00" x1="720.00" id="25241" y2="650.00" /><line x2="720.00" style="fill:blue;stroke:blue;" y1="650.00" x1="720.00" id="25242" y2="700.00" /><line x2="620.00" style="fill:blue;stroke:blue;" y1="700.00" x1="720.00" id="25243" y2="700.00" /><line x2="720.00" style="fill:blue;stroke:blue;" y1="700.00" x1="720.00" id="25244" y2="650.00" /><line x2="650.00" style="fill:blue;stroke:blue;" y1="250.00" x1="720.00" id="25245" y2="180.00" /><line x2="850.00" style="fill:blue;stroke:blue;" y1="250.00" x1="720.00" id="25246" y2="280.00" /><line x2="700.00" style="fill:blue;stroke:blue;" y1="250.00" x1="720.00" id="25247" y2="300.00" /><line x2="800.00" style="fill:blue;stroke:blue;" y1="50.00" x1="720.00" id="25248" y2="20.00" /><line x2="650.00" style="fill:blue;stroke:blue;" y1="50.00" x1="720.00" id="25249" y2="50.00" /><line x2="600.00" style="fill:blue;stroke:blue;" y1="450.00" x1="730.00" id="25250" y2="450.00" /><line x2="820.00" style="fill:blue;stroke:blue;" y1="450.00" x1="730.00" id="25251" y2="450.00" /><line x2="730.00" style="fill:blue;stroke:blue;" y1="450.00" x1="730.00" id="25252" y2="550.00" /><line x2="730.00" style="fill:blue;stroke:blue;" y1="450.00" x1="730.00" id="25253" y2="400.00" /><line x2="780.00" style="fill:blue;stroke:blue;" y1="550.00" x1="730.00" id="25254" y2="500.00" /><line x2="730.00" style="fill:blue;stroke:blue;" y1="550.00" x1="730.00" id="25255" y2="450.00" /><line x2="730.00" style="fill:blue;stroke:blue;" y1="400.00" x1="730.00" id="25256" y2="450.00" /><line x2="650.00" style="fill:blue;stroke:blue;" y1="180.00" x1="780.00" id="25257" y2="180.00" /><line x2="850.00" style="fill:blue;stroke:blue;" y1="180.00" x1="780.00" id="25258" y2="200.00" /><line x2="850.00" style="fill:blue;stroke:blue;" y1="180.00" x1="780.00" id="25259" y2="150.00" /><line x2="820.00" style="fill:blue;stroke:blue;" y1="500.00" x1="780.00" id="25260" y2="450.00" /><line x2="730.00" style="fill:blue;stroke:blue;" y1="500.00" x1="780.00" id="25261" y2="550.00" /><line x2="820.00" style="fill:blue;stroke:blue;" y1="500.00" x1="780.00" id="25262" y2="550.00" /><line x2="850.00" style="fill:blue;stroke:blue;" y1="320.00" x1="800.00" id="25263" y2="280.00" /><line x2="850.00" style="fill:blue;stroke:blue;" y1="320.00" x1="800.00" id="25264" y2="350.00" /><line x2="880.00" style="fill:blue;stroke:blue;" y1="20.00" x1="800.00" id="25265" y2="20.00" /><line x2="720.00" style="fill:blue;stroke:blue;" y1="20.00" x1="800.00" id="25266" y2="50.00" /><line x2="900.00" style="fill:blue;stroke:blue;" y1="450.00" x1="820.00" id="25267" y2="490.00" /><line x2="900.00" style="fill:blue;stroke:blue;" y1="450.00" x1="820.00" id="25268" y2="400.00" /><line x2="780.00" style="fill:blue;stroke:blue;" y1="450.00" x1="820.00" id="25269" y2="500.00" /><line x2="820.00" style="fill:blue;stroke:blue;" y1="450.00" x1="820.00" id="25270" y2="550.00" /><line x2="730.00" style="fill:blue;stroke:blue;" y1="450.00" x1="820.00" id="25271" y2="450.00" /><line x2="820.00" style="fill:blue;stroke:blue;" y1="550.00" x1="820.00" id="25272" y2="450.00" /><line x2="780.00" style="fill:blue;stroke:blue;" y1="550.00" x1="820.00" id="25273" y2="500.00" /><line x2="780.00" style="fill:blue;stroke:blue;" y1="150.00" x1="850.00" id="25274" y2="180.00" /><line x2="850.00" style="fill:blue;stroke:blue;" y1="150.00" x1="850.00" id="25275" y2="200.00" /><line x2="920.00" style="fill:blue;stroke:blue;" y1="150.00" x1="850.00" id="25276" y2="150.00" /><line x2="780.00" style="fill:blue;stroke:blue;" y1="200.00" x1="850.00" id="25277" y2="180.00" /><line x2="920.00" style="fill:blue;stroke:blue;" y1="200.00" x1="850.00" id="25278" y2="200.00" /><line x2="850.00" style="fill:blue;stroke:blue;" y1="200.00" x1="850.00" id="25279" y2="150.00" /><line x2="720.00" style="fill:blue;stroke:blue;" y1="280.00" x1="850.00" id="25280" y2="250.00" /><line x2="930.00" style="fill:blue;stroke:blue;" y1="280.00" x1="850.00" id="25281" y2="280.00" /><line x2="900.00" style="fill:blue;stroke:blue;" y1="280.00" x1="850.00" id="25282" y2="320.00" /><line x2="800.00" style="fill:blue;stroke:blue;" y1="280.00" x1="850.00" id="25283" y2="320.00" /><line x2="850.00" style="fill:blue;stroke:blue;" y1="280.00" x1="850.00" id="25284" y2="350.00" /><line x2="850.00" style="fill:blue;stroke:blue;" y1="350.00" x1="850.00" id="25285" y2="280.00" /><line x2="900.00" style="fill:blue;stroke:blue;" y1="350.00" x1="850.00" id="25286" y2="320.00" /><line x2="900.00" style="fill:blue;stroke:blue;" y1="350.00" x1="850.00" id="25287" y2="400.00" /><line x2="800.00" style="fill:blue;stroke:blue;" y1="350.00" x1="850.00" id="25288" y2="320.00" /><line x2="950.00" style="fill:blue;stroke:blue;" y1="20.00" x1="880.00" id="25289" y2="80.00" /><line x2="880.00" style="fill:blue;stroke:blue;" y1="20.00" x1="880.00" id="25290" y2="80.00" /><line x2="800.00" style="fill:blue;stroke:blue;" y1="20.00" x1="880.00" id="25291" y2="20.00" /><line x2="950.00" style="fill:blue;stroke:blue;" y1="20.00" x1="880.00" id="25292" y2="20.00" /><line x2="950.00" style="fill:blue;stroke:blue;" y1="80.00" x1="880.00" id="25293" y2="80.00" /><line x2="880.00" style="fill:blue;stroke:blue;" y1="80.00" x1="880.00" id="25294" y2="20.00" /><line x2="850.00" style="fill:blue;stroke:blue;" y1="320.00" x1="900.00" id="25295" y2="280.00" /><line x2="900.00" style="fill:blue;stroke:blue;" y1="320.00" x1="900.00" id="25296" y2="400.00" /><line x2="850.00" style="fill:blue;stroke:blue;" y1="320.00" x1="900.00" id="25297" y2="350.00" /><line x2="960.00" style="fill:blue;stroke:blue;" y1="320.00" x1="900.00" id="25298" y2="320.00" /><line x2="900.00" style="fill:blue;stroke:blue;" y1="400.00" x1="900.00" id="25299" y2="320.00" /><line x2="950.00" style="fill:blue;stroke:blue;" y1="400.00" x1="900.00" id="25300" y2="370.00" /><line x2="850.00" style="fill:blue;stroke:blue;" y1="400.00" x1="900.00" id="25301" y2="350.00" /><line x2="820.00" style="fill:blue;stroke:blue;" y1="400.00" x1="900.00" id="25302" y2="450.00" /><line x2="920.00" style="fill:blue;stroke:blue;" y1="150.00" x1="920.00" id="25303" y2="200.00" /><line x2="980.00" style="fill:blue;stroke:blue;" y1="150.00" x1="920.00" id="25304" y2="180.00" /><line x2="850.00" style="fill:blue;stroke:blue;" y1="150.00" x1="920.00" id="25305" y2="150.00" /><line x2="850.00" style="fill:blue;stroke:blue;" y1="200.00" x1="920.00" id="25306" y2="200.00" /><line x2="920.00" style="fill:blue;stroke:blue;" y1="200.00" x1="920.00" id="25307" y2="150.00" /><line x2="850.00" style="fill:blue;stroke:blue;" y1="280.00" x1="930.00" id="25308" y2="280.00" /><line x2="960.00" style="fill:blue;stroke:blue;" y1="280.00" x1="930.00" id="25309" y2="320.00" /><line x2="900.00" style="fill:blue;stroke:blue;" y1="370.00" x1="950.00" id="25310" y2="400.00" /><line x2="950.00" style="fill:blue;stroke:blue;" y1="20.00" x1="950.00" id="25311" y2="80.00" /><line x2="880.00" style="fill:blue;stroke:blue;" y1="20.00" x1="950.00" id="25312" y2="20.00" /><line x2="980.00" style="fill:blue;stroke:blue;" y1="80.00" x1="950.00" id="25313" y2="120.00" /><line x2="880.00" style="fill:blue;stroke:blue;" y1="80.00" x1="950.00" id="25314" y2="20.00" /><line x2="880.00" style="fill:blue;stroke:blue;" y1="80.00" x1="950.00" id="25315" y2="80.00" /><line x2="950.00" style="fill:blue;stroke:blue;" y1="80.00" x1="950.00" id="25316" y2="20.00" /><line x2="920.00" style="fill:blue;stroke:blue;" y1="180.00" x1="980.00" id="25317" y2="150.00" /><line x2="930.00" style="fill:blue;stroke:blue;" y1="320.00" x1="960.00" id="25318" y2="280.00" /><line x2="900.00" style="fill:blue;stroke:blue;" y1="320.00" x1="960.00" id="25319" y2="320.00" /><line x2="50.00" style="fill:blue;stroke:blue;" y1="450.00" x1="20.00" id="25320" y2="500.00" /><line x2="151.20" style="fill:blue;stroke:blue;" y1="170.00" x1="100.00" id="25321" y2="172.81" /><line x2="100.00" style="fill:blue;stroke:blue;" y1="170.00" x1="100.00" id="25322" y2="220.00" /><line x2="120.00" style="fill:blue;stroke:blue;" y1="700.00" x1="120.00" id="25323" y2="600.00" /><line x2="138.84" style="fill:blue;stroke:blue;" y1="172.81" x1="151.20" id="25324" y2="125.39" /><line x2="100.00" style="fill:blue;stroke:blue;" y1="172.81" x1="151.20" id="25325" y2="170.00" /><line x2="100.00" style="fill:blue;stroke:blue;" y1="172.81" x1="151.20" id="25326" y2="220.00" /><line x2="100.00" style="fill:blue;stroke:blue;" y1="221.80" x1="149.96" id="25327" y2="220.00" /><line x2="250.00" style="fill:blue;stroke:blue;" y1="700.00" x1="200.00" id="25328" y2="620.00" /><line x2="320.00" style="fill:blue;stroke:blue;" y1="700.00" x1="380.00" id="25329" y2="620.00" /><line x2="820.00" style="fill:blue;stroke:blue;" y1="490.00" x1="900.00" id="25330" y2="450.00" /><line x2="950.00" style="fill:blue;stroke:blue;" y1="120.00" x1="980.00" id="25331" y2="80.00" /></svg>
