<?xml version="1.0" standalone="yes"?><!DOCTYPE svg PUBLIC "-//W3C//DTD SVG 1.1//EN" "http://www.w3.org/Graphics/SVG/1.1/DTD/svg11.dtd"[]><svg width="1050.00" height="800.00" id="24755" xmlns="http://www.w3.org/2000/svg" xmlns:xlink="http://www.w3.org/1999/xlink"><rect Type="system" x="50.00" id="24756" height="5.00" width="5.00" Name="L-FVHR" ID="30004018" Region="逑瑞斯" y="350.00" /><text y="350.00" x="50.00" id="24757">L-FVHR</text><rect Type="system" x="50.00" id="24759" height="5.00" width="5.00" Name="E-VKJV" ID="30004028" Region="逑瑞斯" y="500.00" /><text y="500.00" x="50.00" id="24760">E-VKJV</text><rect Type="system" x="50.00" id="24762" height="5.00" width="5.00" Name="BX-VEX" ID="30004029" Region="逑瑞斯" y="600.00" /><text y="600.00" x="50.00" id="24763">BX-VEX</text><rect Type="system" x="50.00" id="24765" height="5.00" width="5.00" Name="B-7DFU" ID="30004030" Region="逑瑞斯" y="650.00" /><text y="650.00" x="50.00" id="24766">B-7DFU</text><rect Type="system" x="90.00" id="24768" height="5.00" width="5.00" Name="F2OY-X" ID="30004013" Region="逑瑞斯" y="270.00" /><text y="270.00" x="90.00" id="24769">F2OY-X</text><rect Type="system" x="130.00" id="24771" height="5.00" width="5.00" Name="4-2UXV" ID="30004014" Region="逑瑞斯" y="310.00" /><text y="310.00" x="130.00" id="24772">4-2UXV</text><rect Type="system" x="100.00" id="24774" height="5.00" width="5.00" Name="RKM-GE" ID="30004015" Region="逑瑞斯" y="350.00" /><text y="350.00" x="100.00" id="24775">RKM-GE</text><rect Type="system" x="100.00" id="24777" height="5.00" width="5.00" Name="DG-L7S" ID="30004016" Region="逑瑞斯" y="400.00" /><text y="400.00" x="100.00" id="24778">DG-L7S</text><rect Type="system" x="100.00" id="24780" height="5.00" width="5.00" Name="K4-RFZ" ID="30004017" Region="逑瑞斯" y="450.00" /><text y="450.00" x="100.00" id="24781">K4-RFZ</text><rect Type="system" x="100.00" id="24783" height="5.00" width="5.00" Name="8-YNBE" ID="30004025" Region="逑瑞斯" y="500.00" /><text y="500.00" x="100.00" id="24784">8-YNBE</text><rect Type="system" x="100.00" id="24786" height="5.00" width="5.00" Name="YQX-7U" ID="30004026" Region="逑瑞斯" y="550.00" /><text y="550.00" x="100.00" id="24787">YQX-7U</text><rect Type="system" x="100.00" id="24789" height="5.00" width="5.00" Name="1DH-SX" ID="30004710" Region="绝地之域" y="220.00" /><text y="220.00" x="100.00" id="24790">1DH-SX</text><rect Type="system" x="120.00" id="24792" height="5.00" width="5.00" Name="QY1E-N" ID="30004027" Region="逑瑞斯" y="600.00" /><text y="600.00" x="120.00" id="24793">QY1E-N</text><rect Type="system" x="138.84" id="24795" height="5.00" width="5.00" Name="UHKL-N" ID="30004706" Region="绝地之域" y="125.39" /><text y="125.39" x="138.84" id="24796">UHKL-N</text><rect Type="system" x="176.23" id="24798" height="5.00" width="5.00" Name="A-BO4V" ID="30003967" Region="逑瑞斯" y="90.94" /><text y="90.94" x="176.23" id="24799">A-BO4V</text><rect Type="system" x="223.77" id="24801" height="5.00" width="5.00" Name="T8T-RA" ID="30003966" Region="逑瑞斯" y="79.06" /><text y="79.06" x="223.77" id="24802">T8T-RA</text><rect Type="system" x="250.00" id="24804" height="5.00" width="5.00" Name="3BK-O7" ID="30004000" Region="逑瑞斯" y="250.00" /><text y="250.00" x="250.00" id="24805">3BK-O7</text><rect Type="system" x="250.00" id="24807" height="5.00" width="5.00" Name="KEJY-U" ID="30003999" Region="逑瑞斯" y="300.00" /><text y="300.00" x="250.00" id="24808">KEJY-U</text><rect Type="system" x="250.00" id="24810" height="5.00" width="5.00" Name="W-IIYI" ID="30004005" Region="逑瑞斯" y="500.00" /><text y="500.00" x="250.00" id="24811">W-IIYI</text><rect Type="system" x="250.00" id="24813" height="5.00" width="5.00" Name="8QT-H4" ID="30004012" Region="逑瑞斯" y="620.00" /><text y="620.00" x="250.00" id="24814">8QT-H4</text><rect Type="system" x="250.00" id="24816" height="5.00" width="5.00" Name="AO-N1P" ID="30004006" Region="逑瑞斯" y="450.00" /><text y="450.00" x="250.00" id="24817">AO-N1P</text><rect Type="system" x="250.00" id="24819" height="5.00" width="5.00" Name="M1BZ-2" ID="30004010" Region="逑瑞斯" y="550.00" /><text y="550.00" x="250.00" id="24820">M1BZ-2</text><rect Type="system" x="260.00" id="24822" height="5.00" width="5.00" Name="V-3U8T" ID="30003965" Region="逑瑞斯" y="40.00" /><text y="40.00" x="260.00" id="24823">V-3U8T</text><rect Type="system" x="320.00" id="24825" height="5.00" width="5.00" Name="QXQ-I6" ID="30004002" Region="逑瑞斯" y="390.00" /><text y="390.00" x="320.00" id="24826">QXQ-I6</text><rect Type="system" x="300.00" id="24828" height="5.00" width="5.00" Name="A-5F4A" ID="30003977" Region="逑瑞斯" y="200.00" /><text y="200.00" x="300.00" id="24829">A-5F4A</text><rect Type="system" x="300.00" id="24831" height="5.00" width="5.00" Name="K-YI1L" ID="30003998" Region="逑瑞斯" y="320.00" /><text y="320.00" x="300.00" id="24832">K-YI1L</text><rect Type="system" x="299.04" id="24834" height="5.00" width="5.00" Name="3-JCJT" ID="30004004" Region="逑瑞斯" y="521.91" /><text y="521.91" x="299.04" id="24835">3-JCJT</text><rect Type="system" x="300.00" id="24837" height="5.00" width="5.00" Name="K-Z0V4" ID="30003972" Region="逑瑞斯" y="150.00" /><text y="150.00" x="300.00" id="24838">K-Z0V4</text><rect Type="system" x="320.96" id="24840" height="5.00" width="5.00" Name="L3-I3K" ID="30004003" Region="逑瑞斯" y="478.09" /><text y="478.09" x="320.96" id="24841">L3-I3K</text><rect Type="system" x="320.00" id="24843" height="5.00" width="5.00" Name="C-9RRR" ID="30003976" Region="逑瑞斯" y="100.00" /><text y="100.00" x="320.00" id="24844">C-9RRR</text><rect Type="system" x="320.00" id="24846" height="5.00" width="5.00" Name="49-U6U" ID="30004009" Region="逑瑞斯" y="620.00" /><text y="620.00" x="320.00" id="24847">49-U6U</text><rect Type="system" x="350.00" id="24849" height="5.00" width="5.00" Name="5V-BJI" ID="30004008" Region="逑瑞斯" y="550.00" /><text y="550.00" x="350.00" id="24850">5V-BJI</text><rect Type="system" x="350.00" id="24852" height="5.00" width="5.00" Name="SKR-SP" ID="30003964" Region="逑瑞斯" y="50.00" /><text y="50.00" x="350.00" id="24853">SKR-SP</text><rect Type="system" x="349.84" id="24855" height="5.00" width="5.00" Name="YF-6L1" ID="30003997" Region="逑瑞斯" y="350.10" /><text y="350.10" x="349.84" id="24856">YF-6L1</text><rect Type="system" x="380.00" id="24858" height="5.00" width="5.00" Name="Q2-N6W" ID="30003975" Region="逑瑞斯" y="200.00" /><text y="200.00" x="380.00" id="24859">Q2-N6W</text><rect Type="system" x="379.05" id="24861" height="5.00" width="5.00" Name="8-GE2P" ID="30004001" Region="逑瑞斯" y="276.20" /><text y="276.20" x="379.05" id="24862">8-GE2P</text><rect Type="system" x="391.11" id="24864" height="5.00" width="5.00" Name="ZAU-JW" ID="30003996" Region="逑瑞斯" y="323.69" /><text y="323.69" x="391.11" id="24865">ZAU-JW</text><rect Type="system" x="380.00" id="24867" height="5.00" width="5.00" Name="4-GJT1" ID="30004007" Region="逑瑞斯" y="500.00" /><text y="500.00" x="380.00" id="24868">4-GJT1</text><rect Type="system" x="400.00" id="24870" height="5.00" width="5.00" Name="L-6W1J" ID="30003970" Region="逑瑞斯" y="100.00" /><text y="100.00" x="400.00" id="24871">L-6W1J</text><rect Type="system" x="400.00" id="24873" height="5.00" width="5.00" Name="P4-3TJ" ID="30003971" Region="逑瑞斯" y="150.00" /><text y="150.00" x="400.00" id="24874">P4-3TJ</text><rect Type="system" x="400.00" id="24876" height="5.00" width="5.00" Name="N-M1A3" ID="30004011" Region="逑瑞斯" y="620.00" /><text y="620.00" x="400.00" id="24877">N-M1A3</text><rect Type="system" x="420.00" id="24879" height="5.00" width="5.00" Name="GOP-GE" ID="30003963" Region="逑瑞斯" y="50.00" /><text y="50.00" x="420.00" id="24880">GOP-GE</text><rect Type="system" x="450.00" id="24882" height="5.00" width="5.00" Name="LNVW-K" ID="30003973" Region="逑瑞斯" y="200.00" /><text y="200.00" x="450.00" id="24883">LNVW-K</text><rect Type="system" x="480.00" id="24885" height="5.00" width="5.00" Name="K-B8DK" ID="30003969" Region="逑瑞斯" y="120.00" /><text y="120.00" x="480.00" id="24886">K-B8DK</text><rect Type="system" x="500.00" id="24888" height="5.00" width="5.00" Name="MKD-O8" ID="30003962" Region="逑瑞斯" y="50.00" /><text y="50.00" x="500.00" id="24889">MKD-O8</text><rect Type="system" x="500.00" id="24891" height="5.00" width="5.00" Name="8B-SAJ" ID="30003974" Region="逑瑞斯" y="200.00" /><text y="200.00" x="500.00" id="24892">8B-SAJ</text><rect Type="system" x="500.00" id="24894" height="5.00" width="5.00" Name="K-L690" ID="30003982" Region="逑瑞斯" y="350.00" /><text y="350.00" x="500.00" id="24895">K-L690</text><rect Type="system" x="520.00" id="24897" height="5.00" width="5.00" Name="YW-SYT" ID="30003990" Region="逑瑞斯" y="450.00" /><text y="450.00" x="520.00" id="24898">YW-SYT</text><rect Type="system" x="520.00" id="24900" height="5.00" width="5.00" Name="Z-UZZN" ID="30003991" Region="逑瑞斯" y="500.00" /><text y="500.00" x="520.00" id="24901">Z-UZZN</text><rect Type="system" x="520.00" id="24903" height="5.00" width="5.00" Name="BX2-ZX" ID="30003993" Region="逑瑞斯" y="550.00" /><text y="550.00" x="520.00" id="24904">BX2-ZX</text><rect Type="system" x="550.00" id="24906" height="5.00" width="5.00" Name="W-IX39" ID="30003968" Region="逑瑞斯" y="150.00" /><text y="150.00" x="550.00" id="24907">W-IX39</text><rect Type="system" x="550.00" id="24909" height="5.00" width="5.00" Name="NDII-Q" ID="30003980" Region="逑瑞斯" y="300.00" /><text y="300.00" x="550.00" id="24910">NDII-Q</text><rect Type="system" x="550.00" id="24912" height="5.00" width="5.00" Name="ZXJ-71" ID="30004031" Region="逑瑞斯" y="675.50" /><text y="675.50" x="550.00" id="24913">ZXJ-71</text><rect Type="system" x="550.00" id="24915" height="5.00" width="5.00" Name="NU4-2G" ID="30004035" Region="逑瑞斯" y="724.50" /><text y="724.50" x="550.00" id="24916">NU4-2G</text><rect Type="system" x="550.00" id="24918" height="5.00" width="5.00" Name="L-6BE1" ID="30003951" Region="逑瑞斯" y="50.00" /><text y="50.00" x="550.00" id="24919">L-6BE1</text><rect Type="system" x="550.00" id="24921" height="5.00" width="5.00" Name="1M4-FK" ID="30003952" Region="逑瑞斯" y="100.00" /><text y="100.00" x="550.00" id="24922">1M4-FK</text><rect Type="system" x="600.00" id="24924" height="5.00" width="5.00" Name="C-7SBM" ID="30003995" Region="逑瑞斯" y="450.00" /><text y="450.00" x="600.00" id="24925">C-7SBM</text><rect Type="system" x="600.00" id="24927" height="5.00" width="5.00" Name="DS-LO3" ID="30003992" Region="逑瑞斯" y="520.00" /><text y="520.00" x="600.00" id="24928">DS-LO3</text><rect Type="system" x="600.00" id="24930" height="5.00" width="5.00" Name="RF-CN3" ID="30003994" Region="逑瑞斯" y="580.00" /><text y="580.00" x="600.00" id="24931">RF-CN3</text><rect Type="system" x="620.00" id="24933" height="5.00" width="5.00" Name="W6V-VM" ID="30003983" Region="逑瑞斯" y="250.00" /><text y="250.00" x="620.00" id="24934">W6V-VM</text><rect Type="system" x="620.00" id="24936" height="5.00" width="5.00" Name="9CG6-H" ID="30003979" Region="逑瑞斯" y="300.00" /><text y="300.00" x="620.00" id="24937">9CG6-H</text><rect Type="system" x="620.00" id="24939" height="5.00" width="5.00" Name="UYU-VV" ID="30003981" Region="逑瑞斯" y="350.00" /><text y="350.00" x="620.00" id="24940">UYU-VV</text><rect Type="system" x="620.00" id="24942" height="5.00" width="5.00" Name="ES-Q0W" ID="30004033" Region="逑瑞斯" y="650.00" /><text y="650.00" x="620.00" id="24943">ES-Q0W</text><rect Type="system" x="620.00" id="24945" height="5.00" width="5.00" Name="F-NXLQ" ID="30004032" Region="逑瑞斯" y="700.00" /><text y="700.00" x="620.00" id="24946">F-NXLQ</text><rect Type="system" x="650.00" id="24948" height="5.00" width="5.00" Name="7GCD-P" ID="30003948" Region="逑瑞斯" y="50.00" /><text y="50.00" x="650.00" id="24949">7GCD-P</text><rect Type="system" x="650.00" id="24951" height="5.00" width="5.00" Name="G-3BOG" ID="30003949" Region="逑瑞斯" y="100.00" /><text y="100.00" x="650.00" id="24952">G-3BOG</text><rect Type="system" x="650.00" id="24954" height="5.00" width="5.00" Name="K7D-II" ID="30003950" Region="逑瑞斯" y="180.00" /><text y="180.00" x="650.00" id="24955">K7D-II</text><rect Type="system" x="700.00" id="24957" height="5.00" width="5.00" Name="P-ZMZV" ID="30003978" Region="逑瑞斯" y="300.00" /><text y="300.00" x="700.00" id="24958">P-ZMZV</text><rect Type="system" x="720.00" id="24960" height="5.00" width="5.00" Name="3D5K-R" ID="30004036" Region="逑瑞斯" y="650.00" /><text y="650.00" x="720.00" id="24961">3D5K-R</text><rect Type="system" x="720.00" id="24963" height="5.00" width="5.00" Name="H74-B0" ID="30004034" Region="逑瑞斯" y="700.00" /><text y="700.00" x="720.00" id="24964">H74-B0</text><rect Type="system" x="720.00" id="24966" height="5.00" width="5.00" Name="V-LEKM" ID="30003953" Region="逑瑞斯" y="250.00" /><text y="250.00" x="720.00" id="24967">V-LEKM</text><rect Type="system" x="720.00" id="24969" height="5.00" width="5.00" Name="0-WT2D" ID="30003947" Region="逑瑞斯" y="50.00" /><text y="50.00" x="720.00" id="24970">0-WT2D</text><rect Type="system" x="730.00" id="24972" height="5.00" width="5.00" Name="I1Y-IU" ID="30004023" Region="逑瑞斯" y="450.00" /><text y="450.00" x="730.00" id="24973">I1Y-IU</text><rect Type="system" x="730.00" id="24975" height="5.00" width="5.00" Name="LS-V29" ID="30004021" Region="逑瑞斯" y="550.00" /><text y="550.00" x="730.00" id="24976">LS-V29</text><rect Type="system" x="730.00" id="24978" height="5.00" width="5.00" Name="U-HYZN" ID="30004024" Region="逑瑞斯" y="400.00" /><text y="400.00" x="730.00" id="24979">U-HYZN</text><rect Type="system" x="780.00" id="24981" height="5.00" width="5.00" Name="OGY-6D" ID="30003984" Region="逑瑞斯" y="180.00" /><text y="180.00" x="780.00" id="24982">OGY-6D</text><rect Type="system" x="780.00" id="24984" height="5.00" width="5.00" Name="ED-L9T" ID="30004020" Region="逑瑞斯" y="500.00" /><text y="500.00" x="780.00" id="24985">ED-L9T</text><rect Type="system" x="800.00" id="24987" height="5.00" width="5.00" Name="TV8-HS" ID="30003958" Region="逑瑞斯" y="320.00" /><text y="320.00" x="800.00" id="24988">TV8-HS</text><rect Type="system" x="800.00" id="24990" height="5.00" width="5.00" Name="7V-KHW" ID="30003945" Region="逑瑞斯" y="20.00" /><text y="20.00" x="800.00" id="24991">7V-KHW</text><rect Type="system" x="820.00" id="24993" height="5.00" width="5.00" Name="3-FKCZ" ID="30004019" Region="逑瑞斯" y="450.00" /><text y="450.00" x="820.00" id="24994">3-FKCZ</text><rect Type="system" x="820.00" id="24996" height="5.00" width="5.00" Name="9SBB-9" ID="30004022" Region="逑瑞斯" y="550.00" /><text y="550.00" x="820.00" id="24997">9SBB-9</text><rect Type="system" x="850.00" id="24999" height="5.00" width="5.00" Name="Z-XX2J" ID="30003989" Region="逑瑞斯" y="150.00" /><text y="150.00" x="850.00" id="25000">Z-XX2J</text><rect Type="system" x="850.00" id="25002" height="5.00" width="5.00" Name="8-SNUD" ID="30003985" Region="逑瑞斯" y="200.00" /><text y="200.00" x="850.00" id="25003">8-SNUD</text><rect Type="system" x="850.00" id="25005" height="5.00" width="5.00" Name="9ES-SI" ID="30003954" Region="逑瑞斯" y="280.00" /><text y="280.00" x="850.00" id="25006">9ES-SI</text><rect Type="system" x="850.00" id="25008" height="5.00" width="5.00" Name="YOP-0T" ID="30003960" Region="逑瑞斯" y="350.00" /><text y="350.00" x="850.00" id="25009">YOP-0T</text><rect Type="system" x="880.00" id="25011" height="5.00" width="5.00" Name="T8H-66" ID="30003943" Region="逑瑞斯" y="20.00" /><text y="20.00" x="880.00" id="25012">T8H-66</text><rect Type="system" x="880.00" id="25014" height="5.00" width="5.00" Name="A3-LOG" ID="30003944" Region="逑瑞斯" y="80.00" /><text y="80.00" x="880.00" id="25015">A3-LOG</text><rect Type="system" x="900.00" id="25017" height="5.00" width="5.00" Name="60M-TG" ID="30003956" Region="逑瑞斯" y="320.00" /><text y="320.00" x="900.00" id="25018">60M-TG</text><rect Type="system" x="900.00" id="25020" height="5.00" width="5.00" Name="0TKF-6" ID="30003957" Region="逑瑞斯" y="400.00" /><text y="400.00" x="900.00" id="25021">0TKF-6</text><rect Type="system" x="920.00" id="25023" height="5.00" width="5.00" Name="IGE-NE" ID="30003987" Region="逑瑞斯" y="150.00" /><text y="150.00" x="920.00" id="25024">IGE-NE</text><rect Type="system" x="920.00" id="25026" height="5.00" width="5.00" Name="H-4R6Z" ID="30003986" Region="逑瑞斯" y="200.00" /><text y="200.00" x="920.00" id="25027">H-4R6Z</text><rect Type="system" x="930.00" id="25029" height="5.00" width="5.00" Name="UQY-IK" ID="30003955" Region="逑瑞斯" y="280.00" /><text y="280.00" x="930.00" id="25030">UQY-IK</text><rect Type="system" x="950.00" id="25032" height="5.00" width="5.00" Name="VT-G2P" ID="30003959" Region="逑瑞斯" y="370.00" /><text y="370.00" x="950.00" id="25033">VT-G2P</text><rect Type="system" x="950.00" id="25035" height="5.00" width="5.00" Name="O3L-95" ID="30003946" Region="逑瑞斯" y="20.00" /><text y="20.00" x="950.00" id="25036">O3L-95</text><rect Type="system" x="950.00" id="25038" height="5.00" width="5.00" Name="A2-V27" ID="30003942" Region="逑瑞斯" y="80.00" /><text y="80.00" x="950.00" id="25039">A2-V27</text><rect Type="system" x="980.00" id="25041" height="5.00" width="5.00" Name="UVHO-F" ID="30003988" Region="逑瑞斯" y="180.00" /><text y="180.00" x="980.00" id="25042">UVHO-F</text><rect Type="system" x="960.00" id="25044" height="5.00" width="5.00" Name="9-HM04" ID="30003961" Region="逑瑞斯" y="320.00" /><text y="320.00" x="960.00" id="25045">9-HM04</text><rect Type="system" x="20.00" id="25047" height="5.00" width="5.00" Name="3-DMQT" ID="30004764" Region="绝地之域" y="450.00" /><text y="450.00" x="20.00" id="25048">3-DMQT</text><rect Type="system" x="100.00" id="25050" height="5.00" width="5.00" Name="A-ELE2" ID="30004708" Region="绝地之域" y="170.00" /><text y="170.00" x="100.00" id="25051">A-ELE2</text><rect Type="system" x="120.00" id="25053" height="5.00" width="5.00" Name="C3N-3S" ID="30004798" Region="绝地之域" y="700.00" /><text y="700.00" x="120.00" id="25054">C3N-3S</text><rect Type="system" x="151.20" id="25056" height="5.00" width="5.00" Name="Z3V-1W" ID="30004707" Region="绝地之域" y="172.81" /><text y="172.81" x="151.20" id="25057">Z3V-1W</text><rect Type="system" x="149.96" id="25059" height="5.00" width="5.00" Name="PR-8CA" ID="30004711" Region="绝地之域" y="221.80" /><text y="221.80" x="149.96" id="25060">PR-8CA</text><rect Type="system" x="200.00" id="25062" height="5.00" width="5.00" Name="SVM-3K" ID="30004758" Region="绝地之域" y="700.00" /><text y="700.00" x="200.00" id="25063">SVM-3K</text><rect Type="system" x="380.00" id="25065" height="5.00" width="5.00" Name="4-07MU" ID="30001260" Region="卡彻" y="700.00" /><text y="700.00" x="380.00" id="25066">4-07MU</text><rect Type="system" x="900.00" id="25068" height="5.00" width="5.00" Name="埃尔法" ID="30003892" Region="卡尼迪" y="490.00" /><text y="490.00" x="900.00" id="25069">埃尔法</text><rect Type="system" x="980.00" id="25071" height="5.00" width="5.00" Name="凯拉" ID="30003887" Region="卡尼迪" y="120.00" /><text y="120.00" x="980.00" id="25072">凯拉</text><line style="stroke:blue;fill:blue;" id="25074" x2="130.00" x1="50.00" y1="350.00" y2="310.00" /><line style="stroke:blue;fill:blue;" id="25075" x2="100.00" x1="50.00" y1="350.00" y2="350.00" /><line style="stroke:blue;fill:blue;" id="25076" x2="100.00" x1="50.00" y1="500.00" y2="500.00" /><line style="stroke:blue;fill:blue;" id="25077" x2="20.00" x1="50.00" y1="500.00" y2="450.00" /><line style="stroke:blue;fill:blue;" id="25078" x2="100.00" x1="50.00" y1="600.00" y2="550.00" /><line style="stroke:blue;fill:blue;" id="25079" x2="50.00" x1="50.00" y1="600.00" y2="650.00" /><line style="stroke:blue;fill:blue;" id="25080" x2="50.00" x1="50.00" y1="650.00" y2="600.00" /><line style="stroke:blue;fill:blue;" id="25081" x2="130.00" x1="90.00" y1="270.00" y2="310.00" /><line style="stroke:blue;fill:blue;" id="25082" x2="100.00" x1="90.00" y1="270.00" y2="220.00" /><line style="stroke:blue;fill:blue;" id="25083" x2="90.00" x1="130.00" y1="310.00" y2="270.00" /><line style="stroke:blue;fill:blue;" id="25084" x2="100.00" x1="130.00" y1="310.00" y2="350.00" /><line style="stroke:blue;fill:blue;" id="25085" x2="50.00" x1="130.00" y1="310.00" y2="350.00" /><line style="stroke:blue;fill:blue;" id="25086" x2="130.00" x1="100.00" y1="350.00" y2="310.00" /><line style="stroke:blue;fill:blue;" id="25087" x2="100.00" x1="100.00" y1="350.00" y2="400.00" /><line style="stroke:blue;fill:blue;" id="25088" x2="50.00" x1="100.00" y1="350.00" y2="350.00" /><line style="stroke:blue;fill:blue;" id="25089" x2="100.00" x1="100.00" y1="400.00" y2="350.00" /><line style="stroke:blue;fill:blue;" id="25090" x2="100.00" x1="100.00" y1="400.00" y2="450.00" /><line style="stroke:blue;fill:blue;" id="25091" x2="100.00" x1="100.00" y1="450.00" y2="400.00" /><line style="stroke:blue;fill:blue;" id="25092" x2="100.00" x1="100.00" y1="450.00" y2="500.00" /><line style="stroke:blue;fill:blue;" id="25093" x2="100.00" x1="100.00" y1="500.00" y2="450.00" /><line style="stroke:blue;fill:blue;" id="25094" x2="100.00" x1="100.00" y1="500.00" y2="550.00" /><line style="stroke:blue;fill:blue;" id="25095" x2="50.00" x1="100.00" y1="500.00" y2="500.00" /><line style="stroke:blue;fill:blue;" id="25096" x2="100.00" x1="100.00" y1="550.00" y2="500.00" /><line style="stroke:blue;fill:blue;" id="25097" x2="120.00" x1="100.00" y1="550.00" y2="600.00" /><line style="stroke:blue;fill:blue;" id="25098" x2="50.00" x1="100.00" y1="550.00" y2="600.00" /><line style="stroke:blue;fill:blue;" id="25099" x2="90.00" x1="100.00" y1="220.00" y2="270.00" /><line style="stroke:blue;fill:blue;" id="25100" x2="151.20" x1="100.00" y1="220.00" y2="172.81" /><line style="stroke:blue;fill:blue;" id="25101" x2="100.00" x1="100.00" y1="220.00" y2="170.00" /><line style="stroke:blue;fill:blue;" id="25102" x2="149.96" x1="100.00" y1="220.00" y2="221.80" /><line style="stroke:blue;fill:blue;" id="25103" x2="100.00" x1="120.00" y1="600.00" y2="550.00" /><line style="stroke:blue;fill:blue;" id="25104" x2="120.00" x1="120.00" y1="600.00" y2="700.00" /><line style="stroke:blue;fill:blue;" id="25105" x2="176.23" x1="138.84" y1="125.39" y2="90.94" /><line style="stroke:blue;fill:blue;" id="25106" x2="151.20" x1="138.84" y1="125.39" y2="172.81" /><line style="stroke:blue;fill:blue;" id="25107" x2="223.77" x1="176.23" y1="90.94" y2="79.06" /><line style="stroke:blue;fill:blue;" id="25108" x2="138.84" x1="176.23" y1="90.94" y2="125.39" /><line style="stroke:blue;fill:blue;" id="25109" x2="260.00" x1="223.77" y1="79.06" y2="40.00" /><line style="stroke:blue;fill:blue;" id="25110" x2="176.23" x1="223.77" y1="79.06" y2="90.94" /><line style="stroke:blue;fill:blue;" id="25111" x2="250.00" x1="250.00" y1="250.00" y2="300.00" /><line style="stroke:blue;fill:blue;" id="25112" x2="300.00" x1="250.00" y1="300.00" y2="320.00" /><line style="stroke:blue;fill:blue;" id="25113" x2="250.00" x1="250.00" y1="300.00" y2="250.00" /><line style="stroke:blue;fill:blue;" id="25114" x2="299.04" x1="250.00" y1="500.00" y2="521.91" /><line style="stroke:blue;fill:blue;" id="25115" x2="320.00" x1="250.00" y1="620.00" y2="620.00" /><line style="stroke:blue;fill:blue;" id="25116" x2="250.00" x1="250.00" y1="620.00" y2="550.00" /><line style="stroke:blue;fill:blue;" id="25117" x2="200.00" x1="250.00" y1="620.00" y2="700.00" /><line style="stroke:blue;fill:blue;" id="25118" x2="320.96" x1="250.00" y1="450.00" y2="478.09" /><line style="stroke:blue;fill:blue;" id="25119" x2="299.04" x1="250.00" y1="550.00" y2="521.91" /><line style="stroke:blue;fill:blue;" id="25120" x2="250.00" x1="250.00" y1="550.00" y2="620.00" /><line style="stroke:blue;fill:blue;" id="25121" x2="350.00" x1="260.00" y1="40.00" y2="50.00" /><line style="stroke:blue;fill:blue;" id="25122" x2="223.77" x1="260.00" y1="40.00" y2="79.06" /><line style="stroke:blue;fill:blue;" id="25123" x2="349.84" x1="320.00" y1="390.00" y2="350.10" /><line style="stroke:blue;fill:blue;" id="25124" x2="380.00" x1="300.00" y1="200.00" y2="200.00" /><line style="stroke:blue;fill:blue;" id="25125" x2="391.11" x1="300.00" y1="320.00" y2="323.69" /><line style="stroke:blue;fill:blue;" id="25126" x2="349.84" x1="300.00" y1="320.00" y2="350.10" /><line style="stroke:blue;fill:blue;" id="25127" x2="250.00" x1="300.00" y1="320.00" y2="300.00" /><line style="stroke:blue;fill:blue;" id="25128" x2="320.96" x1="299.04" y1="521.91" y2="478.09" /><line style="stroke:blue;fill:blue;" id="25129" x2="250.00" x1="299.04" y1="521.91" y2="500.00" /><line style="stroke:blue;fill:blue;" id="25130" x2="380.00" x1="299.04" y1="521.91" y2="500.00" /><line style="stroke:blue;fill:blue;" id="25131" x2="350.00" x1="299.04" y1="521.91" y2="550.00" /><line style="stroke:blue;fill:blue;" id="25132" x2="250.00" x1="299.04" y1="521.91" y2="550.00" /><line style="stroke:blue;fill:blue;" id="25133" x2="400.00" x1="300.00" y1="150.00" y2="150.00" /><line style="stroke:blue;fill:blue;" id="25134" x2="500.00" x1="320.96" y1="478.09" y2="350.00" /><line style="stroke:blue;fill:blue;" id="25135" x2="299.04" x1="320.96" y1="478.09" y2="521.91" /><line style="stroke:blue;fill:blue;" id="25136" x2="250.00" x1="320.96" y1="478.09" y2="450.00" /><line style="stroke:blue;fill:blue;" id="25137" x2="380.00" x1="320.96" y1="478.09" y2="500.00" /><line style="stroke:blue;fill:blue;" id="25138" x2="400.00" x1="320.00" y1="100.00" y2="100.00" /><line style="stroke:blue;fill:blue;" id="25139" x2="380.00" x1="320.00" y1="620.00" y2="700.00" /><line style="stroke:blue;fill:blue;" id="25140" x2="350.00" x1="320.00" y1="620.00" y2="550.00" /><line style="stroke:blue;fill:blue;" id="25141" x2="400.00" x1="320.00" y1="620.00" y2="620.00" /><line style="stroke:blue;fill:blue;" id="25142" x2="250.00" x1="320.00" y1="620.00" y2="620.00" /><line style="stroke:blue;fill:blue;" id="25143" x2="299.04" x1="350.00" y1="550.00" y2="521.91" /><line style="stroke:blue;fill:blue;" id="25144" x2="320.00" x1="350.00" y1="550.00" y2="620.00" /><line style="stroke:blue;fill:blue;" id="25145" x2="420.00" x1="350.00" y1="50.00" y2="50.00" /><line style="stroke:blue;fill:blue;" id="25146" x2="260.00" x1="350.00" y1="50.00" y2="40.00" /><line style="stroke:blue;fill:blue;" id="25147" x2="391.11" x1="349.84" y1="350.10" y2="323.69" /><line style="stroke:blue;fill:blue;" id="25148" x2="300.00" x1="349.84" y1="350.10" y2="320.00" /><line style="stroke:blue;fill:blue;" id="25149" x2="320.00" x1="349.84" y1="350.10" y2="390.00" /><line style="stroke:blue;fill:blue;" id="25150" x2="450.00" x1="380.00" y1="200.00" y2="200.00" /><line style="stroke:blue;fill:blue;" id="25151" x2="300.00" x1="380.00" y1="200.00" y2="200.00" /><line style="stroke:blue;fill:blue;" id="25152" x2="391.11" x1="379.05" y1="276.20" y2="323.69" /><line style="stroke:blue;fill:blue;" id="25153" x2="500.00" x1="391.11" y1="323.69" y2="350.00" /><line style="stroke:blue;fill:blue;" id="25154" x2="349.84" x1="391.11" y1="323.69" y2="350.10" /><line style="stroke:blue;fill:blue;" id="25155" x2="300.00" x1="391.11" y1="323.69" y2="320.00" /><line style="stroke:blue;fill:blue;" id="25156" x2="379.05" x1="391.11" y1="323.69" y2="276.20" /><line style="stroke:blue;fill:blue;" id="25157" x2="320.96" x1="380.00" y1="500.00" y2="478.09" /><line style="stroke:blue;fill:blue;" id="25158" x2="299.04" x1="380.00" y1="500.00" y2="521.91" /><line style="stroke:blue;fill:blue;" id="25159" x2="480.00" x1="400.00" y1="100.00" y2="120.00" /><line style="stroke:blue;fill:blue;" id="25160" x2="320.00" x1="400.00" y1="100.00" y2="100.00" /><line style="stroke:blue;fill:blue;" id="25161" x2="550.00" x1="400.00" y1="150.00" y2="150.00" /><line style="stroke:blue;fill:blue;" id="25162" x2="480.00" x1="400.00" y1="150.00" y2="120.00" /><line style="stroke:blue;fill:blue;" id="25163" x2="300.00" x1="400.00" y1="150.00" y2="150.00" /><line style="stroke:blue;fill:blue;" id="25164" x2="450.00" x1="400.00" y1="150.00" y2="200.00" /><line style="stroke:blue;fill:blue;" id="25165" x2="320.00" x1="400.00" y1="620.00" y2="620.00" /><line style="stroke:blue;fill:blue;" id="25166" x2="550.00" x1="400.00" y1="620.00" y2="675.50" /><line style="stroke:blue;fill:blue;" id="25167" x2="500.00" x1="420.00" y1="50.00" y2="50.00" /><line style="stroke:blue;fill:blue;" id="25168" x2="350.00" x1="420.00" y1="50.00" y2="50.00" /><line style="stroke:blue;fill:blue;" id="25169" x2="400.00" x1="450.00" y1="200.00" y2="150.00" /><line style="stroke:blue;fill:blue;" id="25170" x2="500.00" x1="450.00" y1="200.00" y2="200.00" /><line style="stroke:blue;fill:blue;" id="25171" x2="380.00" x1="450.00" y1="200.00" y2="200.00" /><line style="stroke:blue;fill:blue;" id="25172" x2="550.00" x1="480.00" y1="120.00" y2="150.00" /><line style="stroke:blue;fill:blue;" id="25173" x2="400.00" x1="480.00" y1="120.00" y2="100.00" /><line style="stroke:blue;fill:blue;" id="25174" x2="400.00" x1="480.00" y1="120.00" y2="150.00" /><line style="stroke:blue;fill:blue;" id="25175" x2="550.00" x1="500.00" y1="50.00" y2="50.00" /><line style="stroke:blue;fill:blue;" id="25176" x2="420.00" x1="500.00" y1="50.00" y2="50.00" /><line style="stroke:blue;fill:blue;" id="25177" x2="550.00" x1="500.00" y1="200.00" y2="150.00" /><line style="stroke:blue;fill:blue;" id="25178" x2="450.00" x1="500.00" y1="200.00" y2="200.00" /><line style="stroke:blue;fill:blue;" id="25179" x2="550.00" x1="500.00" y1="350.00" y2="300.00" /><line style="stroke:blue;fill:blue;" id="25180" x2="391.11" x1="500.00" y1="350.00" y2="323.69" /><line style="stroke:blue;fill:blue;" id="25181" x2="320.96" x1="500.00" y1="350.00" y2="478.09" /><line style="stroke:blue;fill:blue;" id="25182" x2="620.00" x1="520.00" y1="450.00" y2="350.00" /><line style="stroke:blue;fill:blue;" id="25183" x2="520.00" x1="520.00" y1="450.00" y2="500.00" /><line style="stroke:blue;fill:blue;" id="25184" x2="520.00" x1="520.00" y1="500.00" y2="450.00" /><line style="stroke:blue;fill:blue;" id="25185" x2="600.00" x1="520.00" y1="500.00" y2="520.00" /><line style="stroke:blue;fill:blue;" id="25186" x2="520.00" x1="520.00" y1="500.00" y2="550.00" /><line style="stroke:blue;fill:blue;" id="25187" x2="600.00" x1="520.00" y1="500.00" y2="450.00" /><line style="stroke:blue;fill:blue;" id="25188" x2="520.00" x1="520.00" y1="550.00" y2="500.00" /><line style="stroke:blue;fill:blue;" id="25189" x2="650.00" x1="550.00" y1="150.00" y2="180.00" /><line style="stroke:blue;fill:blue;" id="25190" x2="480.00" x1="550.00" y1="150.00" y2="120.00" /><line style="stroke:blue;fill:blue;" id="25191" x2="400.00" x1="550.00" y1="150.00" y2="150.00" /><line style="stroke:blue;fill:blue;" id="25192" x2="500.00" x1="550.00" y1="150.00" y2="200.00" /><line style="stroke:blue;fill:blue;" id="25193" x2="620.00" x1="550.00" y1="300.00" y2="300.00" /><line style="stroke:blue;fill:blue;" id="25194" x2="500.00" x1="550.00" y1="300.00" y2="350.00" /><line style="stroke:blue;fill:blue;" id="25195" x2="400.00" x1="550.00" y1="675.50" y2="620.00" /><line style="stroke:blue;fill:blue;" id="25196" x2="620.00" x1="550.00" y1="675.50" y2="700.00" /><line style="stroke:blue;fill:blue;" id="25197" x2="620.00" x1="550.00" y1="675.50" y2="650.00" /><line style="stroke:blue;fill:blue;" id="25198" x2="620.00" x1="550.00" y1="724.50" y2="700.00" /><line style="stroke:blue;fill:blue;" id="25199" x2="650.00" x1="550.00" y1="50.00" y2="50.00" /><line style="stroke:blue;fill:blue;" id="25200" x2="650.00" x1="550.00" y1="50.00" y2="100.00" /><line style="stroke:blue;fill:blue;" id="25201" x2="550.00" x1="550.00" y1="50.00" y2="100.00" /><line style="stroke:blue;fill:blue;" id="25202" x2="500.00" x1="550.00" y1="50.00" y2="50.00" /><line style="stroke:blue;fill:blue;" id="25203" x2="550.00" x1="550.00" y1="100.00" y2="50.00" /><line style="stroke:blue;fill:blue;" id="25204" x2="520.00" x1="600.00" y1="450.00" y2="500.00" /><line style="stroke:blue;fill:blue;" id="25205" x2="600.00" x1="600.00" y1="450.00" y2="520.00" /><line style="stroke:blue;fill:blue;" id="25206" x2="730.00" x1="600.00" y1="450.00" y2="450.00" /><line style="stroke:blue;fill:blue;" id="25207" x2="520.00" x1="600.00" y1="520.00" y2="500.00" /><line style="stroke:blue;fill:blue;" id="25208" x2="600.00" x1="600.00" y1="520.00" y2="580.00" /><line style="stroke:blue;fill:blue;" id="25209" x2="600.00" x1="600.00" y1="520.00" y2="450.00" /><line style="stroke:blue;fill:blue;" id="25210" x2="600.00" x1="600.00" y1="580.00" y2="520.00" /><line style="stroke:blue;fill:blue;" id="25211" x2="620.00" x1="620.00" y1="250.00" y2="300.00" /><line style="stroke:blue;fill:blue;" id="25212" x2="700.00" x1="620.00" y1="300.00" y2="300.00" /><line style="stroke:blue;fill:blue;" id="25213" x2="550.00" x1="620.00" y1="300.00" y2="300.00" /><line style="stroke:blue;fill:blue;" id="25214" x2="620.00" x1="620.00" y1="300.00" y2="350.00" /><line style="stroke:blue;fill:blue;" id="25215" x2="620.00" x1="620.00" y1="300.00" y2="250.00" /><line style="stroke:blue;fill:blue;" id="25216" x2="700.00" x1="620.00" y1="350.00" y2="300.00" /><line style="stroke:blue;fill:blue;" id="25217" x2="620.00" x1="620.00" y1="350.00" y2="300.00" /><line style="stroke:blue;fill:blue;" id="25218" x2="520.00" x1="620.00" y1="350.00" y2="450.00" /><line style="stroke:blue;fill:blue;" id="25219" x2="550.00" x1="620.00" y1="650.00" y2="675.50" /><line style="stroke:blue;fill:blue;" id="25220" x2="620.00" x1="620.00" y1="650.00" y2="700.00" /><line style="stroke:blue;fill:blue;" id="25221" x2="720.00" x1="620.00" y1="650.00" y2="650.00" /><line style="stroke:blue;fill:blue;" id="25222" x2="550.00" x1="620.00" y1="700.00" y2="675.50" /><line style="stroke:blue;fill:blue;" id="25223" x2="620.00" x1="620.00" y1="700.00" y2="650.00" /><line style="stroke:blue;fill:blue;" id="25224" x2="720.00" x1="620.00" y1="700.00" y2="700.00" /><line style="stroke:blue;fill:blue;" id="25225" x2="550.00" x1="620.00" y1="700.00" y2="724.50" /><line style="stroke:blue;fill:blue;" id="25226" x2="720.00" x1="620.00" y1="700.00" y2="650.00" /><line style="stroke:blue;fill:blue;" id="25227" x2="720.00" x1="650.00" y1="50.00" y2="50.00" /><line style="stroke:blue;fill:blue;" id="25228" x2="650.00" x1="650.00" y1="50.00" y2="100.00" /><line style="stroke:blue;fill:blue;" id="25229" x2="550.00" x1="650.00" y1="50.00" y2="50.00" /><line style="stroke:blue;fill:blue;" id="25230" x2="650.00" x1="650.00" y1="100.00" y2="50.00" /><line style="stroke:blue;fill:blue;" id="25231" x2="650.00" x1="650.00" y1="100.00" y2="180.00" /><line style="stroke:blue;fill:blue;" id="25232" x2="550.00" x1="650.00" y1="100.00" y2="50.00" /><line style="stroke:blue;fill:blue;" id="25233" x2="650.00" x1="650.00" y1="180.00" y2="100.00" /><line style="stroke:blue;fill:blue;" id="25234" x2="720.00" x1="650.00" y1="180.00" y2="250.00" /><line style="stroke:blue;fill:blue;" id="25235" x2="550.00" x1="650.00" y1="180.00" y2="150.00" /><line style="stroke:blue;fill:blue;" id="25236" x2="780.00" x1="650.00" y1="180.00" y2="180.00" /><line style="stroke:blue;fill:blue;" id="25237" x2="720.00" x1="700.00" y1="300.00" y2="250.00" /><line style="stroke:blue;fill:blue;" id="25238" x2="620.00" x1="700.00" y1="300.00" y2="300.00" /><line style="stroke:blue;fill:blue;" id="25239" x2="620.00" x1="700.00" y1="300.00" y2="350.00" /><line style="stroke:blue;fill:blue;" id="25240" x2="620.00" x1="720.00" y1="650.00" y2="700.00" /><line style="stroke:blue;fill:blue;" id="25241" x2="620.00" x1="720.00" y1="650.00" y2="650.00" /><line style="stroke:blue;fill:blue;" id="25242" x2="720.00" x1="720.00" y1="650.00" y2="700.00" /><line style="stroke:blue;fill:blue;" id="25243" x2="620.00" x1="720.00" y1="700.00" y2="700.00" /><line style="stroke:blue;fill:blue;" id="25244" x2="720.00" x1="720.00" y1="700.00" y2="650.00" /><line style="stroke:blue;fill:blue;" id="25245" x2="650.00" x1="720.00" y1="250.00" y2="180.00" /><line style="stroke:blue;fill:blue;" id="25246" x2="850.00" x1="720.00" y1="250.00" y2="280.00" /><line style="stroke:blue;fill:blue;" id="25247" x2="700.00" x1="720.00" y1="250.00" y2="300.00" /><line style="stroke:blue;fill:blue;" id="25248" x2="800.00" x1="720.00" y1="50.00" y2="20.00" /><line style="stroke:blue;fill:blue;" id="25249" x2="650.00" x1="720.00" y1="50.00" y2="50.00" /><line style="stroke:blue;fill:blue;" id="25250" x2="600.00" x1="730.00" y1="450.00" y2="450.00" /><line style="stroke:blue;fill:blue;" id="25251" x2="820.00" x1="730.00" y1="450.00" y2="450.00" /><line style="stroke:blue;fill:blue;" id="25252" x2="730.00" x1="730.00" y1="450.00" y2="550.00" /><line style="stroke:blue;fill:blue;" id="25253" x2="730.00" x1="730.00" y1="450.00" y2="400.00" /><line style="stroke:blue;fill:blue;" id="25254" x2="780.00" x1="730.00" y1="550.00" y2="500.00" /><line style="stroke:blue;fill:blue;" id="25255" x2="730.00" x1="730.00" y1="550.00" y2="450.00" /><line style="stroke:blue;fill:blue;" id="25256" x2="730.00" x1="730.00" y1="400.00" y2="450.00" /><line style="stroke:blue;fill:blue;" id="25257" x2="650.00" x1="780.00" y1="180.00" y2="180.00" /><line style="stroke:blue;fill:blue;" id="25258" x2="850.00" x1="780.00" y1="180.00" y2="200.00" /><line style="stroke:blue;fill:blue;" id="25259" x2="850.00" x1="780.00" y1="180.00" y2="150.00" /><line style="stroke:blue;fill:blue;" id="25260" x2="820.00" x1="780.00" y1="500.00" y2="450.00" /><line style="stroke:blue;fill:blue;" id="25261" x2="730.00" x1="780.00" y1="500.00" y2="550.00" /><line style="stroke:blue;fill:blue;" id="25262" x2="820.00" x1="780.00" y1="500.00" y2="550.00" /><line style="stroke:blue;fill:blue;" id="25263" x2="850.00" x1="800.00" y1="320.00" y2="280.00" /><line style="stroke:blue;fill:blue;" id="25264" x2="850.00" x1="800.00" y1="320.00" y2="350.00" /><line style="stroke:blue;fill:blue;" id="25265" x2="880.00" x1="800.00" y1="20.00" y2="20.00" /><line style="stroke:blue;fill:blue;" id="25266" x2="720.00" x1="800.00" y1="20.00" y2="50.00" /><line style="stroke:blue;fill:blue;" id="25267" x2="900.00" x1="820.00" y1="450.00" y2="490.00" /><line style="stroke:blue;fill:blue;" id="25268" x2="900.00" x1="820.00" y1="450.00" y2="400.00" /><line style="stroke:blue;fill:blue;" id="25269" x2="780.00" x1="820.00" y1="450.00" y2="500.00" /><line style="stroke:blue;fill:blue;" id="25270" x2="820.00" x1="820.00" y1="450.00" y2="550.00" /><line style="stroke:blue;fill:blue;" id="25271" x2="730.00" x1="820.00" y1="450.00" y2="450.00" /><line style="stroke:blue;fill:blue;" id="25272" x2="820.00" x1="820.00" y1="550.00" y2="450.00" /><line style="stroke:blue;fill:blue;" id="25273" x2="780.00" x1="820.00" y1="550.00" y2="500.00" /><line style="stroke:blue;fill:blue;" id="25274" x2="780.00" x1="850.00" y1="150.00" y2="180.00" /><line style="stroke:blue;fill:blue;" id="25275" x2="850.00" x1="850.00" y1="150.00" y2="200.00" /><line style="stroke:blue;fill:blue;" id="25276" x2="920.00" x1="850.00" y1="150.00" y2="150.00" /><line style="stroke:blue;fill:blue;" id="25277" x2="780.00" x1="850.00" y1="200.00" y2="180.00" /><line style="stroke:blue;fill:blue;" id="25278" x2="920.00" x1="850.00" y1="200.00" y2="200.00" /><line style="stroke:blue;fill:blue;" id="25279" x2="850.00" x1="850.00" y1="200.00" y2="150.00" /><line style="stroke:blue;fill:blue;" id="25280" x2="720.00" x1="850.00" y1="280.00" y2="250.00" /><line style="stroke:blue;fill:blue;" id="25281" x2="930.00" x1="850.00" y1="280.00" y2="280.00" /><line style="stroke:blue;fill:blue;" id="25282" x2="900.00" x1="850.00" y1="280.00" y2="320.00" /><line style="stroke:blue;fill:blue;" id="25283" x2="800.00" x1="850.00" y1="280.00" y2="320.00" /><line style="stroke:blue;fill:blue;" id="25284" x2="850.00" x1="850.00" y1="280.00" y2="350.00" /><line style="stroke:blue;fill:blue;" id="25285" x2="850.00" x1="850.00" y1="350.00" y2="280.00" /><line style="stroke:blue;fill:blue;" id="25286" x2="900.00" x1="850.00" y1="350.00" y2="320.00" /><line style="stroke:blue;fill:blue;" id="25287" x2="900.00" x1="850.00" y1="350.00" y2="400.00" /><line style="stroke:blue;fill:blue;" id="25288" x2="800.00" x1="850.00" y1="350.00" y2="320.00" /><line style="stroke:blue;fill:blue;" id="25289" x2="950.00" x1="880.00" y1="20.00" y2="80.00" /><line style="stroke:blue;fill:blue;" id="25290" x2="880.00" x1="880.00" y1="20.00" y2="80.00" /><line style="stroke:blue;fill:blue;" id="25291" x2="800.00" x1="880.00" y1="20.00" y2="20.00" /><line style="stroke:blue;fill:blue;" id="25292" x2="950.00" x1="880.00" y1="20.00" y2="20.00" /><line style="stroke:blue;fill:blue;" id="25293" x2="950.00" x1="880.00" y1="80.00" y2="80.00" /><line style="stroke:blue;fill:blue;" id="25294" x2="880.00" x1="880.00" y1="80.00" y2="20.00" /><line style="stroke:blue;fill:blue;" id="25295" x2="850.00" x1="900.00" y1="320.00" y2="280.00" /><line style="stroke:blue;fill:blue;" id="25296" x2="900.00" x1="900.00" y1="320.00" y2="400.00" /><line style="stroke:blue;fill:blue;" id="25297" x2="850.00" x1="900.00" y1="320.00" y2="350.00" /><line style="stroke:blue;fill:blue;" id="25298" x2="960.00" x1="900.00" y1="320.00" y2="320.00" /><line style="stroke:blue;fill:blue;" id="25299" x2="900.00" x1="900.00" y1="400.00" y2="320.00" /><line style="stroke:blue;fill:blue;" id="25300" x2="950.00" x1="900.00" y1="400.00" y2="370.00" /><line style="stroke:blue;fill:blue;" id="25301" x2="850.00" x1="900.00" y1="400.00" y2="350.00" /><line style="stroke:blue;fill:blue;" id="25302" x2="820.00" x1="900.00" y1="400.00" y2="450.00" /><line style="stroke:blue;fill:blue;" id="25303" x2="920.00" x1="920.00" y1="150.00" y2="200.00" /><line style="stroke:blue;fill:blue;" id="25304" x2="980.00" x1="920.00" y1="150.00" y2="180.00" /><line style="stroke:blue;fill:blue;" id="25305" x2="850.00" x1="920.00" y1="150.00" y2="150.00" /><line style="stroke:blue;fill:blue;" id="25306" x2="850.00" x1="920.00" y1="200.00" y2="200.00" /><line style="stroke:blue;fill:blue;" id="25307" x2="920.00" x1="920.00" y1="200.00" y2="150.00" /><line style="stroke:blue;fill:blue;" id="25308" x2="850.00" x1="930.00" y1="280.00" y2="280.00" /><line style="stroke:blue;fill:blue;" id="25309" x2="960.00" x1="930.00" y1="280.00" y2="320.00" /><line style="stroke:blue;fill:blue;" id="25310" x2="900.00" x1="950.00" y1="370.00" y2="400.00" /><line style="stroke:blue;fill:blue;" id="25311" x2="950.00" x1="950.00" y1="20.00" y2="80.00" /><line style="stroke:blue;fill:blue;" id="25312" x2="880.00" x1="950.00" y1="20.00" y2="20.00" /><line style="stroke:blue;fill:blue;" id="25313" x2="980.00" x1="950.00" y1="80.00" y2="120.00" /><line style="stroke:blue;fill:blue;" id="25314" x2="880.00" x1="950.00" y1="80.00" y2="20.00" /><line style="stroke:blue;fill:blue;" id="25315" x2="880.00" x1="950.00" y1="80.00" y2="80.00" /><line style="stroke:blue;fill:blue;" id="25316" x2="950.00" x1="950.00" y1="80.00" y2="20.00" /><line style="stroke:blue;fill:blue;" id="25317" x2="920.00" x1="980.00" y1="180.00" y2="150.00" /><line style="stroke:blue;fill:blue;" id="25318" x2="930.00" x1="960.00" y1="320.00" y2="280.00" /><line style="stroke:blue;fill:blue;" id="25319" x2="900.00" x1="960.00" y1="320.00" y2="320.00" /><line style="stroke:blue;fill:blue;" id="25320" x2="50.00" x1="20.00" y1="450.00" y2="500.00" /><line style="stroke:blue;fill:blue;" id="25321" x2="151.20" x1="100.00" y1="170.00" y2="172.81" /><line style="stroke:blue;fill:blue;" id="25322" x2="100.00" x1="100.00" y1="170.00" y2="220.00" /><line style="stroke:blue;fill:blue;" id="25323" x2="120.00" x1="120.00" y1="700.00" y2="600.00" /><line style="stroke:blue;fill:blue;" id="25324" x2="138.84" x1="151.20" y1="172.81" y2="125.39" /><line style="stroke:blue;fill:blue;" id="25325" x2="100.00" x1="151.20" y1="172.81" y2="170.00" /><line style="stroke:blue;fill:blue;" id="25326" x2="100.00" x1="151.20" y1="172.81" y2="220.00" /><line style="stroke:blue;fill:blue;" id="25327" x2="100.00" x1="149.96" y1="221.80" y2="220.00" /><line style="stroke:blue;fill:blue;" id="25328" x2="250.00" x1="200.00" y1="700.00" y2="620.00" /><line style="stroke:blue;fill:blue;" id="25329" x2="320.00" x1="380.00" y1="700.00" y2="620.00" /><line style="stroke:blue;fill:blue;" id="25330" x2="820.00" x1="900.00" y1="490.00" y2="450.00" /><line style="stroke:blue;fill:blue;" id="25331" x2="950.00" x1="980.00" y1="120.00" y2="80.00" /></svg>
