<?xml version="1.0" standalone="yes"?><!DOCTYPE svg PUBLIC "-//W3C//DTD SVG 1.1//EN" "http://www.w3.org/Graphics/SVG/1.1/DTD/svg11.dtd"[]><svg height="800.00" id="32609" width="1050.00" xmlns="http://www.w3.org/2000/svg" xmlns:xlink="http://www.w3.org/1999/xlink"><rect Type="system" Region="邪恶湾流" height="5.00" y="80.00" Name="SJJ-4F" width="5.00" x="20.00" id="32610" ID="30000571" /><text x="20.00" y="80.00" id="32611">SJJ-4F</text><rect Type="system" Region="邪恶湾流" height="5.00" y="130.00" Name="C-LTXS" width="5.00" x="20.00" id="32613" ID="30000567" /><text x="20.00" y="130.00" id="32614">C-LTXS</text><rect Type="system" Region="邪恶湾流" height="5.00" y="547.68" Name="H6-EYX" width="5.00" x="17.68" id="32616" ID="30000574" /><text x="17.68" y="547.68" id="32617">H6-EYX</text><rect Type="system" Region="邪恶湾流" height="5.00" y="620.00" Name="4-EFLU" width="5.00" x="20.00" id="32619" ID="30000576" /><text x="20.00" y="620.00" id="32620">4-EFLU</text><rect Type="system" Region="邪恶湾流" height="5.00" y="700.00" Name="EIH-IU" width="5.00" x="20.00" id="32622" ID="30000577" /><text x="20.00" y="700.00" id="32623">EIH-IU</text><rect Type="system" Region="邪恶湾流" height="5.00" y="180.00" Name="C0O6-K" width="5.00" x="50.00" id="32625" ID="30000568" /><text x="50.00" y="180.00" id="32626">C0O6-K</text><rect Type="system" Region="邪恶湾流" height="5.00" y="582.32" Name="1-7B6D" width="5.00" x="52.32" id="32628" ID="30000573" /><text x="52.32" y="582.32" id="32629">1-7B6D</text><rect Type="system" Region="邪恶湾流" height="5.00" y="660.00" Name="U-HVIX" width="5.00" x="50.00" id="32631" ID="30000575" /><text x="50.00" y="660.00" id="32632">U-HVIX</text><rect Type="system" Region="邪恶湾流" height="5.00" y="500.00" Name="YI-GV6" width="5.00" x="80.00" id="32634" ID="30000583" /><text x="80.00" y="500.00" id="32635">YI-GV6</text><rect Type="system" Region="邪恶湾流" height="5.00" y="60.00" Name="HD-AJ7" width="5.00" x="90.00" id="32637" ID="30000569" /><text x="90.00" y="60.00" id="32638">HD-AJ7</text><rect Type="system" Region="邪恶湾流" height="5.00" y="130.00" Name="SR-4EK" width="5.00" x="100.00" id="32640" ID="30000565" /><text x="100.00" y="130.00" id="32641">SR-4EK</text><rect Type="system" Region="邪恶湾流" height="5.00" y="200.00" Name="G9NE-B" width="5.00" x="100.00" id="32643" ID="30000570" /><text x="100.00" y="200.00" id="32644">G9NE-B</text><rect Type="system" Region="邪恶湾流" height="5.00" y="630.00" Name="F-QQ5N" width="5.00" x="100.00" id="32646" ID="30000572" /><text x="100.00" y="630.00" id="32647">F-QQ5N</text><rect Type="system" Region="邪恶湾流" height="5.00" y="180.00" Name="0RI-OV" width="5.00" x="150.00" id="32649" ID="30000566" /><text x="150.00" y="180.00" id="32650">0RI-OV</text><rect Type="system" Region="邪恶湾流" height="5.00" y="130.00" Name="L-Z9KJ" width="5.00" x="180.00" id="32652" ID="30000605" /><text x="180.00" y="130.00" id="32653">L-Z9KJ</text><rect Type="system" Region="邪恶湾流" height="5.00" y="380.00" Name="R0-DMM" width="5.00" x="180.00" id="32655" ID="30000563" /><text x="180.00" y="380.00" id="32656">R0-DMM</text><rect Type="system" Region="邪恶湾流" height="5.00" y="550.00" Name="SO-X5L" width="5.00" x="180.00" id="32658" ID="30000584" /><text x="180.00" y="550.00" id="32659">SO-X5L</text><rect Type="system" Region="邪恶湾流" height="5.00" y="630.00" Name="1L-OEK" width="5.00" x="200.00" id="32661" ID="30000579" /><text x="200.00" y="630.00" id="32662">1L-OEK</text><rect Type="system" Region="邪恶湾流" height="5.00" y="680.00" Name="5H-SM2" width="5.00" x="200.00" id="32664" ID="30000581" /><text x="200.00" y="680.00" id="32665">5H-SM2</text><rect Type="system" Region="邪恶湾流" height="5.00" y="330.00" Name="5Q65-4" width="5.00" x="200.00" id="32667" ID="30000564" /><text x="200.00" y="330.00" id="32668">5Q65-4</text><rect Type="system" Region="邪恶湾流" height="5.00" y="80.00" Name="7K-NSE" width="5.00" x="220.00" id="32670" ID="30000606" /><text x="220.00" y="80.00" id="32671">7K-NSE</text><rect Type="system" Region="邪恶湾流" height="5.00" y="380.00" Name="UZ-QXW" width="5.00" x="250.00" id="32673" ID="30000561" /><text x="250.00" y="380.00" id="32674">UZ-QXW</text><rect Type="system" Region="邪恶湾流" height="5.00" y="80.00" Name="OR-7N5" width="5.00" x="280.00" id="32676" ID="30000607" /><text x="280.00" y="80.00" id="32677">OR-7N5</text><rect Type="system" Region="邪恶湾流" height="5.00" y="630.00" Name="Q-GQHN" width="5.00" x="280.00" id="32679" ID="30000586" /><text x="280.00" y="630.00" id="32680">Q-GQHN</text><rect Type="system" Region="邪恶湾流" height="5.00" y="580.00" Name="4-OS2A" width="5.00" x="300.00" id="32682" ID="30000582" /><text x="300.00" y="580.00" id="32683">4-OS2A</text><rect Type="system" Region="邪恶湾流" height="5.00" y="50.00" Name="5NQI-E" width="5.00" x="320.00" id="32685" ID="30000609" /><text x="320.00" y="50.00" id="32686">5NQI-E</text><rect Type="system" Region="邪恶湾流" height="5.00" y="130.00" Name="JEQG-7" width="5.00" x="320.00" id="32688" ID="30000608" /><text x="320.00" y="130.00" id="32689">JEQG-7</text><rect Type="system" Region="邪恶湾流" height="5.00" y="380.00" Name="5DE-QS" width="5.00" x="320.00" id="32691" ID="30000562" /><text x="320.00" y="380.00" id="32692">5DE-QS</text><rect Type="system" Region="邪恶湾流" height="5.00" y="280.00" Name="GGE-5Q" width="5.00" x="350.00" id="32694" ID="30000553" /><text x="350.00" y="280.00" id="32695">GGE-5Q</text><rect Type="system" Region="邪恶湾流" height="5.00" y="180.00" Name="B-WQDP" width="5.00" x="350.00" id="32697" ID="30000610" /><text x="350.00" y="180.00" id="32698">B-WQDP</text><rect Type="system" Region="邪恶湾流" height="5.00" y="230.00" Name="5E-CMA" width="5.00" x="350.00" id="32700" ID="30000554" /><text x="350.00" y="230.00" id="32701">5E-CMA</text><rect Type="system" Region="邪恶湾流" height="5.00" y="630.00" Name="XQS-GZ" width="5.00" x="350.00" id="32703" ID="30000585" /><text x="350.00" y="630.00" id="32704">XQS-GZ</text><rect Type="system" Region="邪恶湾流" height="5.00" y="380.00" Name="F-3FOY" width="5.00" x="380.00" id="32706" ID="30000559" /><text x="380.00" y="380.00" id="32707">F-3FOY</text><rect Type="system" Region="邪恶湾流" height="5.00" y="580.00" Name="MN-Q26" width="5.00" x="400.00" id="32709" ID="30000580" /><text x="400.00" y="580.00" id="32710">MN-Q26</text><rect Type="system" Region="邪恶湾流" height="5.00" y="530.00" Name="F-EM4Q" width="5.00" x="400.00" id="32712" ID="30000578" /><text x="400.00" y="530.00" id="32713">F-EM4Q</text><rect Type="system" Region="邪恶湾流" height="5.00" y="720.00" Name="V7G-RL" width="5.00" x="400.00" id="32715" ID="30000603" /><text x="400.00" y="720.00" id="32716">V7G-RL</text><rect Type="system" Region="邪恶湾流" height="5.00" y="450.00" Name="OAIG-0" width="5.00" x="400.00" id="32718" ID="30000560" /><text x="400.00" y="450.00" id="32719">OAIG-0</text><rect Type="system" Region="邪恶湾流" height="5.00" y="670.00" Name="WRL4-2" width="5.00" x="400.00" id="32721" ID="30000602" /><text x="400.00" y="670.00" id="32722">WRL4-2</text><rect Type="system" Region="邪恶湾流" height="5.00" y="630.00" Name="LKZ-CY" width="5.00" x="450.00" id="32724" ID="30000599" /><text x="450.00" y="630.00" id="32725">LKZ-CY</text><rect Type="system" Region="邪恶湾流" height="5.00" y="380.00" Name="GRHS-B" width="5.00" x="450.00" id="32727" ID="30000593" /><text x="450.00" y="380.00" id="32728">GRHS-B</text><rect Type="system" Region="邪恶湾流" height="5.00" y="180.00" Name="GPLB-C" width="5.00" x="480.00" id="32730" ID="30000552" /><text x="480.00" y="180.00" id="32731">GPLB-C</text><rect Type="system" Region="邪恶湾流" height="5.00" y="80.00" Name="MLQ-O9" width="5.00" x="480.00" id="32733" ID="30000539" /><text x="480.00" y="80.00" id="32734">MLQ-O9</text><rect Type="system" Region="邪恶湾流" height="5.00" y="230.00" Name="U104-3" width="5.00" x="500.00" id="32736" ID="30000555" /><text x="500.00" y="230.00" id="32737">U104-3</text><rect Type="system" Region="邪恶湾流" height="5.00" y="630.00" Name="F5M-CC" width="5.00" x="500.00" id="32739" ID="30000600" /><text x="500.00" y="630.00" id="32740">F5M-CC</text><rect Type="system" Region="邪恶湾流" height="5.00" y="280.00" Name="M3-KAQ" width="5.00" x="500.00" id="32742" ID="30000556" /><text x="500.00" y="280.00" id="32743">M3-KAQ</text><rect Type="system" Region="邪恶湾流" height="5.00" y="330.00" Name="J-RXYN" width="5.00" x="520.00" id="32745" ID="30000594" /><text x="520.00" y="330.00" id="32746">J-RXYN</text><rect Type="system" Region="邪恶湾流" height="5.00" y="410.00" Name="DUO-51" width="5.00" x="520.00" id="32748" ID="30000595" /><text x="520.00" y="410.00" id="32749">DUO-51</text><rect Type="system" Region="邪恶湾流" height="5.00" y="680.00" Name="TZE-UB" width="5.00" x="520.00" id="32751" ID="30000601" /><text x="520.00" y="680.00" id="32752">TZE-UB</text><rect Type="system" Region="邪恶湾流" height="5.00" y="760.00" Name="XEN7-0" width="5.00" x="550.00" id="32754" ID="30000604" /><text x="550.00" y="760.00" id="32755">XEN7-0</text><rect Type="system" Region="邪恶湾流" height="5.00" y="30.00" Name="8-OZU1" width="5.00" x="550.00" id="32757" ID="30000542" /><text x="550.00" y="30.00" id="32758">8-OZU1</text><rect Type="system" Region="邪恶湾流" height="5.00" y="370.00" Name="Z-A8FS" width="5.00" x="550.00" id="32760" ID="30000597" /><text x="550.00" y="370.00" id="32761">Z-A8FS</text><rect Type="system" Region="邪恶湾流" height="5.00" y="630.00" Name="H-HHTH" width="5.00" x="580.00" id="32763" ID="30000547" /><text x="580.00" y="630.00" id="32764">H-HHTH</text><rect Type="system" Region="邪恶湾流" height="5.00" y="480.00" Name="UM-SCG" width="5.00" x="580.00" id="32766" ID="30000558" /><text x="580.00" y="480.00" id="32767">UM-SCG</text><rect Type="system" Region="邪恶湾流" height="5.00" y="150.00" Name="6-L4YC" width="5.00" x="600.00" id="32769" ID="30000557" /><text x="600.00" y="150.00" id="32770">6-L4YC</text><rect Type="system" Region="邪恶湾流" height="5.00" y="47.68" Name="0TYR-T" width="5.00" x="617.68" id="32772" ID="30000543" /><text x="617.68" y="47.68" id="32773">0TYR-T</text><rect Type="system" Region="邪恶湾流" height="5.00" y="82.32" Name="L-FM3P" width="5.00" x="652.32" id="32775" ID="30000540" /><text x="652.32" y="82.32" id="32776">L-FM3P</text><rect Type="system" Region="邪恶湾流" height="5.00" y="530.00" Name="MWA-5Q" width="5.00" x="650.00" id="32778" ID="30000546" /><text x="650.00" y="530.00" id="32779">MWA-5Q</text><rect Type="system" Region="邪恶湾流" height="5.00" y="630.00" Name="UY5A-D" width="5.00" x="650.00" id="32781" ID="30000549" /><text x="650.00" y="630.00" id="32782">UY5A-D</text><rect Type="system" Region="邪恶湾流" height="5.00" y="350.00" Name="G063-U" width="5.00" x="650.00" id="32784" ID="30000537" /><text x="650.00" y="350.00" id="32785">G063-U</text><rect Type="system" Region="邪恶湾流" height="5.00" y="400.96" Name="07-SLO" width="5.00" x="678.09" id="32787" ID="30000596" /><text x="678.09" y="400.96" id="32788">07-SLO</text><rect Type="system" Region="邪恶湾流" height="5.00" y="230.00" Name="4F89-U" width="5.00" x="680.00" id="32790" ID="30000536" /><text x="680.00" y="230.00" id="32791">4F89-U</text><rect Type="system" Region="邪恶湾流" height="5.00" y="180.00" Name="J7-BDX" width="5.00" x="700.00" id="32793" ID="30000538" /><text x="700.00" y="180.00" id="32794">J7-BDX</text><rect Type="system" Region="邪恶湾流" height="5.00" y="300.00" Name="W-QN5X" width="5.00" x="700.00" id="32796" ID="30000532" /><text x="700.00" y="300.00" id="32797">W-QN5X</text><rect Type="system" Region="邪恶湾流" height="5.00" y="530.00" Name="JQU-KY" width="5.00" x="720.00" id="32799" ID="30000548" /><text x="720.00" y="530.00" id="32800">JQU-KY</text><rect Type="system" Region="邪恶湾流" height="5.00" y="630.00" Name="ZH-GKG" width="5.00" x="720.00" id="32802" ID="30000551" /><text x="720.00" y="630.00" id="32803">ZH-GKG</text><rect Type="system" Region="邪恶湾流" height="5.00" y="379.04" Name="GPD5-0" width="5.00" x="721.91" id="32805" ID="30000598" /><text x="721.91" y="379.04" id="32806">GPD5-0</text><rect Type="system" Region="邪恶湾流" height="5.00" y="100.00" Name="GM-50Y" width="5.00" x="750.00" id="32808" ID="30000544" /><text x="750.00" y="100.00" id="32809">GM-50Y</text><rect Type="system" Region="邪恶湾流" height="5.00" y="200.00" Name="30-YOU" width="5.00" x="750.00" id="32811" ID="30000534" /><text x="750.00" y="200.00" id="32812">30-YOU</text><rect Type="system" Region="邪恶湾流" height="5.00" y="280.00" Name="E-JCUS" width="5.00" x="750.00" id="32814" ID="30000531" /><text x="750.00" y="280.00" id="32815">E-JCUS</text><rect Type="system" Region="邪恶湾流" height="5.00" y="330.00" Name="LP1M-Q" width="5.00" x="750.00" id="32817" ID="30000533" /><text x="750.00" y="330.00" id="32818">LP1M-Q</text><rect Type="system" Region="邪恶湾流" height="5.00" y="580.00" Name="C-62I5" width="5.00" x="800.00" id="32820" ID="30000550" /><text x="800.00" y="580.00" id="32821">C-62I5</text><rect Type="system" Region="邪恶湾流" height="5.00" y="140.00" Name="MKIG-5" width="5.00" x="820.00" id="32823" ID="30000529" /><text x="820.00" y="140.00" id="32824">MKIG-5</text><rect Type="system" Region="邪恶湾流" height="5.00" y="200.00" Name="384-IN" width="5.00" x="800.00" id="32826" ID="30000535" /><text x="800.00" y="200.00" id="32827">384-IN</text><rect Type="system" Region="邪恶湾流" height="5.00" y="480.00" Name="TP7-KE" width="5.00" x="820.00" id="32829" ID="30000588" /><text x="820.00" y="480.00" id="32830">TP7-KE</text><rect Type="system" Region="邪恶湾流" height="5.00" y="250.00" Name="YHEN-G" width="5.00" x="850.00" id="32832" ID="30000530" /><text x="850.00" y="250.00" id="32833">YHEN-G</text><rect Type="system" Region="邪恶湾流" height="5.00" y="80.00" Name="G9L-LP" width="5.00" x="850.00" id="32835" ID="30000545" /><text x="850.00" y="80.00" id="32836">G9L-LP</text><rect Type="system" Region="邪恶湾流" height="5.00" y="430.00" Name="R4N-LD" width="5.00" x="900.00" id="32838" ID="30000589" /><text x="900.00" y="430.00" id="32839">R4N-LD</text><rect Type="system" Region="邪恶湾流" height="5.00" y="500.00" Name="A-4JOO" width="5.00" x="880.00" id="32841" ID="30000587" /><text x="880.00" y="500.00" id="32842">A-4JOO</text><rect Type="system" Region="邪恶湾流" height="5.00" y="380.00" Name="HPBE-D" width="5.00" x="950.00" id="32844" ID="30000592" /><text x="950.00" y="380.00" id="32845">HPBE-D</text><rect Type="system" Region="邪恶湾流" height="5.00" y="80.00" Name="X-ARMF" width="5.00" x="950.00" id="32847" ID="30000541" /><text x="950.00" y="80.00" id="32848">X-ARMF</text><rect Type="system" Region="邪恶湾流" height="5.00" y="430.00" Name="M-MBRT" width="5.00" x="950.00" id="32850" ID="30000591" /><text x="950.00" y="430.00" id="32851">M-MBRT</text><rect Type="system" Region="邪恶湾流" height="5.00" y="550.00" Name="3Q-VZA" width="5.00" x="950.00" id="32853" ID="30000590" /><text x="950.00" y="550.00" id="32854">3Q-VZA</text><rect Type="system" Region="灼热之径" height="5.00" y="300.00" Name="X9V-15" width="5.00" x="20.00" id="32856" ID="30000664" /><text x="20.00" y="300.00" id="32857">X9V-15</text><rect Type="system" Region="灼热之径" height="5.00" y="400.00" Name="DE-A7P" width="5.00" x="20.00" id="32859" ID="30000663" /><text x="20.00" y="400.00" id="32860">DE-A7P</text><rect Type="system" Region="灼热之径" height="5.00" y="280.00" Name="4-43BW" width="5.00" x="100.00" id="32862" ID="30000730" /><text x="100.00" y="280.00" id="32863">4-43BW</text><rect Type="system" Region="灼热之径" height="5.00" y="330.00" Name="OAQY-M" width="5.00" x="120.00" id="32865" ID="30000679" /><text x="120.00" y="330.00" id="32866">OAQY-M</text><rect Type="system" Region="底特里德" height="5.00" y="740.00" Name="3-LJW3" width="5.00" x="200.00" id="32868" ID="30000448" /><text x="200.00" y="740.00" id="32869">3-LJW3</text><rect Type="system" Region="灼热之径" height="5.00" y="190.00" Name="1V-LI2" width="5.00" x="250.00" id="32871" ID="30000680" /><text x="250.00" y="190.00" id="32872">1V-LI2</text><rect Type="system" Region="灼热之径" height="5.00" y="270.00" Name="M9-MLR" width="5.00" x="250.00" id="32874" ID="30000681" /><text x="250.00" y="270.00" id="32875">M9-MLR</text><rect Type="system" Region="底特里德" height="5.00" y="770.00" Name="OEG-K9" width="5.00" x="400.00" id="32877" ID="30000439" /><text x="400.00" y="770.00" id="32878">OEG-K9</text><rect Type="system" Region="因斯姆尔" height="5.00" y="130.00" Name="MSG-BZ" width="5.00" x="480.00" id="32880" ID="30000774" /><text x="480.00" y="130.00" id="32881">MSG-BZ</text><rect Type="system" Region="因斯姆尔" height="5.00" y="80.00" Name="78-0R6" width="5.00" x="550.00" id="32883" ID="30000773" /><text x="550.00" y="80.00" id="32884">78-0R6</text><rect Type="system" Region="因斯姆尔" height="5.00" y="50.00" Name="SN9-3Z" width="5.00" x="700.00" id="32886" ID="30000763" /><text x="700.00" y="50.00" id="32887">SN9-3Z</text><rect Type="system" Region="底特里德" height="5.00" y="50.00" Name="4NDT-W" width="5.00" x="780.00" id="32889" ID="30000455" /><text x="780.00" y="50.00" id="32890">4NDT-W</text><rect Type="system" Region="灼热之径" height="5.00" y="430.00" Name="B-1UJC" width="5.00" x="800.00" id="32892" ID="30000716" /><text x="800.00" y="430.00" id="32893">B-1UJC</text><line x2="20.00" style="fill:blue;stroke:blue;" y1="80.00" x1="20.00" id="32895" y2="130.00" /><line x2="90.00" style="fill:blue;stroke:blue;" y1="80.00" x1="20.00" id="32896" y2="60.00" /><line x2="50.00" style="fill:blue;stroke:blue;" y1="130.00" x1="20.00" id="32897" y2="180.00" /><line x2="90.00" style="fill:blue;stroke:blue;" y1="130.00" x1="20.00" id="32898" y2="60.00" /><line x2="20.00" style="fill:blue;stroke:blue;" y1="130.00" x1="20.00" id="32899" y2="80.00" /><line x2="52.32" style="fill:blue;stroke:blue;" y1="547.68" x1="17.68" id="32900" y2="582.32" /><line x2="100.00" style="fill:blue;stroke:blue;" y1="620.00" x1="20.00" id="32901" y2="630.00" /><line x2="52.32" style="fill:blue;stroke:blue;" y1="620.00" x1="20.00" id="32902" y2="582.32" /><line x2="50.00" style="fill:blue;stroke:blue;" y1="620.00" x1="20.00" id="32903" y2="660.00" /><line x2="50.00" style="fill:blue;stroke:blue;" y1="700.00" x1="20.00" id="32904" y2="660.00" /><line x2="100.00" style="fill:blue;stroke:blue;" y1="180.00" x1="50.00" id="32905" y2="130.00" /><line x2="150.00" style="fill:blue;stroke:blue;" y1="180.00" x1="50.00" id="32906" y2="180.00" /><line x2="20.00" style="fill:blue;stroke:blue;" y1="180.00" x1="50.00" id="32907" y2="130.00" /><line x2="90.00" style="fill:blue;stroke:blue;" y1="180.00" x1="50.00" id="32908" y2="60.00" /><line x2="100.00" style="fill:blue;stroke:blue;" y1="180.00" x1="50.00" id="32909" y2="200.00" /><line x2="20.00" style="fill:blue;stroke:blue;" y1="180.00" x1="50.00" id="32910" y2="300.00" /><line x2="100.00" style="fill:blue;stroke:blue;" y1="582.32" x1="52.32" id="32911" y2="630.00" /><line x2="17.68" style="fill:blue;stroke:blue;" y1="582.32" x1="52.32" id="32912" y2="547.68" /><line x2="20.00" style="fill:blue;stroke:blue;" y1="582.32" x1="52.32" id="32913" y2="620.00" /><line x2="100.00" style="fill:blue;stroke:blue;" y1="660.00" x1="50.00" id="32914" y2="630.00" /><line x2="20.00" style="fill:blue;stroke:blue;" y1="660.00" x1="50.00" id="32915" y2="620.00" /><line x2="20.00" style="fill:blue;stroke:blue;" y1="660.00" x1="50.00" id="32916" y2="700.00" /><line x2="200.00" style="fill:blue;stroke:blue;" y1="500.00" x1="80.00" id="32917" y2="630.00" /><line x2="180.00" style="fill:blue;stroke:blue;" y1="500.00" x1="80.00" id="32918" y2="550.00" /><line x2="20.00" style="fill:blue;stroke:blue;" y1="500.00" x1="80.00" id="32919" y2="400.00" /><line x2="100.00" style="fill:blue;stroke:blue;" y1="60.00" x1="90.00" id="32920" y2="130.00" /><line x2="20.00" style="fill:blue;stroke:blue;" y1="60.00" x1="90.00" id="32921" y2="130.00" /><line x2="50.00" style="fill:blue;stroke:blue;" y1="60.00" x1="90.00" id="32922" y2="180.00" /><line x2="20.00" style="fill:blue;stroke:blue;" y1="60.00" x1="90.00" id="32923" y2="80.00" /><line x2="150.00" style="fill:blue;stroke:blue;" y1="130.00" x1="100.00" id="32924" y2="180.00" /><line x2="50.00" style="fill:blue;stroke:blue;" y1="130.00" x1="100.00" id="32925" y2="180.00" /><line x2="90.00" style="fill:blue;stroke:blue;" y1="130.00" x1="100.00" id="32926" y2="60.00" /><line x2="100.00" style="fill:blue;stroke:blue;" y1="130.00" x1="100.00" id="32927" y2="200.00" /><line x2="100.00" style="fill:blue;stroke:blue;" y1="200.00" x1="100.00" id="32928" y2="130.00" /><line x2="150.00" style="fill:blue;stroke:blue;" y1="200.00" x1="100.00" id="32929" y2="180.00" /><line x2="50.00" style="fill:blue;stroke:blue;" y1="200.00" x1="100.00" id="32930" y2="180.00" /><line x2="100.00" style="fill:blue;stroke:blue;" y1="200.00" x1="100.00" id="32931" y2="280.00" /><line x2="52.32" style="fill:blue;stroke:blue;" y1="630.00" x1="100.00" id="32932" y2="582.32" /><line x2="50.00" style="fill:blue;stroke:blue;" y1="630.00" x1="100.00" id="32933" y2="660.00" /><line x2="20.00" style="fill:blue;stroke:blue;" y1="630.00" x1="100.00" id="32934" y2="620.00" /><line x2="200.00" style="fill:blue;stroke:blue;" y1="630.00" x1="100.00" id="32935" y2="630.00" /><line x2="100.00" style="fill:blue;stroke:blue;" y1="180.00" x1="150.00" id="32936" y2="130.00" /><line x2="50.00" style="fill:blue;stroke:blue;" y1="180.00" x1="150.00" id="32937" y2="180.00" /><line x2="100.00" style="fill:blue;stroke:blue;" y1="180.00" x1="150.00" id="32938" y2="200.00" /><line x2="180.00" style="fill:blue;stroke:blue;" y1="180.00" x1="150.00" id="32939" y2="130.00" /><line x2="150.00" style="fill:blue;stroke:blue;" y1="130.00" x1="180.00" id="32940" y2="180.00" /><line x2="220.00" style="fill:blue;stroke:blue;" y1="130.00" x1="180.00" id="32941" y2="80.00" /><line x2="250.00" style="fill:blue;stroke:blue;" y1="380.00" x1="180.00" id="32942" y2="380.00" /><line x2="200.00" style="fill:blue;stroke:blue;" y1="380.00" x1="180.00" id="32943" y2="330.00" /><line x2="120.00" style="fill:blue;stroke:blue;" y1="380.00" x1="180.00" id="32944" y2="330.00" /><line x2="200.00" style="fill:blue;stroke:blue;" y1="550.00" x1="180.00" id="32945" y2="630.00" /><line x2="80.00" style="fill:blue;stroke:blue;" y1="550.00" x1="180.00" id="32946" y2="500.00" /><line x2="100.00" style="fill:blue;stroke:blue;" y1="630.00" x1="200.00" id="32947" y2="630.00" /><line x2="200.00" style="fill:blue;stroke:blue;" y1="630.00" x1="200.00" id="32948" y2="680.00" /><line x2="80.00" style="fill:blue;stroke:blue;" y1="630.00" x1="200.00" id="32949" y2="500.00" /><line x2="180.00" style="fill:blue;stroke:blue;" y1="630.00" x1="200.00" id="32950" y2="550.00" /><line x2="280.00" style="fill:blue;stroke:blue;" y1="630.00" x1="200.00" id="32951" y2="630.00" /><line x2="200.00" style="fill:blue;stroke:blue;" y1="680.00" x1="200.00" id="32952" y2="740.00" /><line x2="200.00" style="fill:blue;stroke:blue;" y1="680.00" x1="200.00" id="32953" y2="630.00" /><line x2="180.00" style="fill:blue;stroke:blue;" y1="330.00" x1="200.00" id="32954" y2="380.00" /><line x2="180.00" style="fill:blue;stroke:blue;" y1="80.00" x1="220.00" id="32955" y2="130.00" /><line x2="280.00" style="fill:blue;stroke:blue;" y1="80.00" x1="220.00" id="32956" y2="80.00" /><line x2="320.00" style="fill:blue;stroke:blue;" y1="380.00" x1="250.00" id="32957" y2="380.00" /><line x2="180.00" style="fill:blue;stroke:blue;" y1="380.00" x1="250.00" id="32958" y2="380.00" /><line x2="220.00" style="fill:blue;stroke:blue;" y1="80.00" x1="280.00" id="32959" y2="80.00" /><line x2="320.00" style="fill:blue;stroke:blue;" y1="80.00" x1="280.00" id="32960" y2="130.00" /><line x2="320.00" style="fill:blue;stroke:blue;" y1="80.00" x1="280.00" id="32961" y2="50.00" /><line x2="200.00" style="fill:blue;stroke:blue;" y1="630.00" x1="280.00" id="32962" y2="630.00" /><line x2="400.00" style="fill:blue;stroke:blue;" y1="630.00" x1="280.00" id="32963" y2="580.00" /><line x2="300.00" style="fill:blue;stroke:blue;" y1="630.00" x1="280.00" id="32964" y2="580.00" /><line x2="350.00" style="fill:blue;stroke:blue;" y1="630.00" x1="280.00" id="32965" y2="630.00" /><line x2="400.00" style="fill:blue;stroke:blue;" y1="580.00" x1="300.00" id="32966" y2="580.00" /><line x2="280.00" style="fill:blue;stroke:blue;" y1="580.00" x1="300.00" id="32967" y2="630.00" /><line x2="280.00" style="fill:blue;stroke:blue;" y1="50.00" x1="320.00" id="32968" y2="80.00" /><line x2="280.00" style="fill:blue;stroke:blue;" y1="130.00" x1="320.00" id="32969" y2="80.00" /><line x2="350.00" style="fill:blue;stroke:blue;" y1="130.00" x1="320.00" id="32970" y2="180.00" /><line x2="350.00" style="fill:blue;stroke:blue;" y1="380.00" x1="320.00" id="32971" y2="280.00" /><line x2="380.00" style="fill:blue;stroke:blue;" y1="380.00" x1="320.00" id="32972" y2="380.00" /><line x2="400.00" style="fill:blue;stroke:blue;" y1="380.00" x1="320.00" id="32973" y2="450.00" /><line x2="250.00" style="fill:blue;stroke:blue;" y1="380.00" x1="320.00" id="32974" y2="380.00" /><line x2="350.00" style="fill:blue;stroke:blue;" y1="280.00" x1="350.00" id="32975" y2="230.00" /><line x2="320.00" style="fill:blue;stroke:blue;" y1="280.00" x1="350.00" id="32976" y2="380.00" /><line x2="350.00" style="fill:blue;stroke:blue;" y1="180.00" x1="350.00" id="32977" y2="230.00" /><line x2="320.00" style="fill:blue;stroke:blue;" y1="180.00" x1="350.00" id="32978" y2="130.00" /><line x2="480.00" style="fill:blue;stroke:blue;" y1="230.00" x1="350.00" id="32979" y2="180.00" /><line x2="350.00" style="fill:blue;stroke:blue;" y1="230.00" x1="350.00" id="32980" y2="280.00" /><line x2="350.00" style="fill:blue;stroke:blue;" y1="230.00" x1="350.00" id="32981" y2="180.00" /><line x2="250.00" style="fill:blue;stroke:blue;" y1="230.00" x1="350.00" id="32982" y2="190.00" /><line x2="250.00" style="fill:blue;stroke:blue;" y1="230.00" x1="350.00" id="32983" y2="270.00" /><line x2="400.00" style="fill:blue;stroke:blue;" y1="630.00" x1="350.00" id="32984" y2="580.00" /><line x2="280.00" style="fill:blue;stroke:blue;" y1="630.00" x1="350.00" id="32985" y2="630.00" /><line x2="450.00" style="fill:blue;stroke:blue;" y1="630.00" x1="350.00" id="32986" y2="630.00" /><line x2="320.00" style="fill:blue;stroke:blue;" y1="380.00" x1="380.00" id="32987" y2="380.00" /><line x2="450.00" style="fill:blue;stroke:blue;" y1="380.00" x1="380.00" id="32988" y2="380.00" /><line x2="400.00" style="fill:blue;stroke:blue;" y1="580.00" x1="400.00" id="32989" y2="530.00" /><line x2="300.00" style="fill:blue;stroke:blue;" y1="580.00" x1="400.00" id="32990" y2="580.00" /><line x2="350.00" style="fill:blue;stroke:blue;" y1="580.00" x1="400.00" id="32991" y2="630.00" /><line x2="280.00" style="fill:blue;stroke:blue;" y1="580.00" x1="400.00" id="32992" y2="630.00" /><line x2="400.00" style="fill:blue;stroke:blue;" y1="530.00" x1="400.00" id="32993" y2="580.00" /><line x2="400.00" style="fill:blue;stroke:blue;" y1="720.00" x1="400.00" id="32994" y2="770.00" /><line x2="400.00" style="fill:blue;stroke:blue;" y1="720.00" x1="400.00" id="32995" y2="670.00" /><line x2="580.00" style="fill:blue;stroke:blue;" y1="450.00" x1="400.00" id="32996" y2="480.00" /><line x2="320.00" style="fill:blue;stroke:blue;" y1="450.00" x1="400.00" id="32997" y2="380.00" /><line x2="450.00" style="fill:blue;stroke:blue;" y1="670.00" x1="400.00" id="32998" y2="630.00" /><line x2="400.00" style="fill:blue;stroke:blue;" y1="670.00" x1="400.00" id="32999" y2="720.00" /><line x2="350.00" style="fill:blue;stroke:blue;" y1="630.00" x1="450.00" id="33000" y2="630.00" /><line x2="500.00" style="fill:blue;stroke:blue;" y1="630.00" x1="450.00" id="33001" y2="630.00" /><line x2="400.00" style="fill:blue;stroke:blue;" y1="630.00" x1="450.00" id="33002" y2="670.00" /><line x2="380.00" style="fill:blue;stroke:blue;" y1="380.00" x1="450.00" id="33003" y2="380.00" /><line x2="520.00" style="fill:blue;stroke:blue;" y1="380.00" x1="450.00" id="33004" y2="330.00" /><line x2="520.00" style="fill:blue;stroke:blue;" y1="380.00" x1="450.00" id="33005" y2="410.00" /><line x2="350.00" style="fill:blue;stroke:blue;" y1="180.00" x1="480.00" id="33006" y2="230.00" /><line x2="500.00" style="fill:blue;stroke:blue;" y1="180.00" x1="480.00" id="33007" y2="230.00" /><line x2="600.00" style="fill:blue;stroke:blue;" y1="180.00" x1="480.00" id="33008" y2="150.00" /><line x2="480.00" style="fill:blue;stroke:blue;" y1="180.00" x1="480.00" id="33009" y2="130.00" /><line x2="550.00" style="fill:blue;stroke:blue;" y1="80.00" x1="480.00" id="33010" y2="30.00" /><line x2="480.00" style="fill:blue;stroke:blue;" y1="230.00" x1="500.00" id="33011" y2="180.00" /><line x2="500.00" style="fill:blue;stroke:blue;" y1="230.00" x1="500.00" id="33012" y2="280.00" /><line x2="580.00" style="fill:blue;stroke:blue;" y1="630.00" x1="500.00" id="33013" y2="630.00" /><line x2="450.00" style="fill:blue;stroke:blue;" y1="630.00" x1="500.00" id="33014" y2="630.00" /><line x2="520.00" style="fill:blue;stroke:blue;" y1="630.00" x1="500.00" id="33015" y2="680.00" /><line x2="500.00" style="fill:blue;stroke:blue;" y1="280.00" x1="500.00" id="33016" y2="230.00" /><line x2="520.00" style="fill:blue;stroke:blue;" y1="280.00" x1="500.00" id="33017" y2="330.00" /><line x2="500.00" style="fill:blue;stroke:blue;" y1="330.00" x1="520.00" id="33018" y2="280.00" /><line x2="450.00" style="fill:blue;stroke:blue;" y1="330.00" x1="520.00" id="33019" y2="380.00" /><line x2="520.00" style="fill:blue;stroke:blue;" y1="330.00" x1="520.00" id="33020" y2="410.00" /><line x2="550.00" style="fill:blue;stroke:blue;" y1="330.00" x1="520.00" id="33021" y2="370.00" /><line x2="450.00" style="fill:blue;stroke:blue;" y1="410.00" x1="520.00" id="33022" y2="380.00" /><line x2="520.00" style="fill:blue;stroke:blue;" y1="410.00" x1="520.00" id="33023" y2="330.00" /><line x2="678.09" style="fill:blue;stroke:blue;" y1="410.00" x1="520.00" id="33024" y2="400.96" /><line x2="550.00" style="fill:blue;stroke:blue;" y1="410.00" x1="520.00" id="33025" y2="370.00" /><line x2="500.00" style="fill:blue;stroke:blue;" y1="680.00" x1="520.00" id="33026" y2="630.00" /><line x2="550.00" style="fill:blue;stroke:blue;" y1="680.00" x1="520.00" id="33027" y2="760.00" /><line x2="520.00" style="fill:blue;stroke:blue;" y1="760.00" x1="550.00" id="33028" y2="680.00" /><line x2="480.00" style="fill:blue;stroke:blue;" y1="30.00" x1="550.00" id="33029" y2="80.00" /><line x2="617.68" style="fill:blue;stroke:blue;" y1="30.00" x1="550.00" id="33030" y2="47.68" /><line x2="550.00" style="fill:blue;stroke:blue;" y1="30.00" x1="550.00" id="33031" y2="80.00" /><line x2="520.00" style="fill:blue;stroke:blue;" y1="370.00" x1="550.00" id="33032" y2="330.00" /><line x2="520.00" style="fill:blue;stroke:blue;" y1="370.00" x1="550.00" id="33033" y2="410.00" /><line x2="678.09" style="fill:blue;stroke:blue;" y1="370.00" x1="550.00" id="33034" y2="400.96" /><line x2="650.00" style="fill:blue;stroke:blue;" y1="630.00" x1="580.00" id="33035" y2="530.00" /><line x2="650.00" style="fill:blue;stroke:blue;" y1="630.00" x1="580.00" id="33036" y2="630.00" /><line x2="500.00" style="fill:blue;stroke:blue;" y1="630.00" x1="580.00" id="33037" y2="630.00" /><line x2="650.00" style="fill:blue;stroke:blue;" y1="480.00" x1="580.00" id="33038" y2="530.00" /><line x2="400.00" style="fill:blue;stroke:blue;" y1="480.00" x1="580.00" id="33039" y2="450.00" /><line x2="820.00" style="fill:blue;stroke:blue;" y1="480.00" x1="580.00" id="33040" y2="480.00" /><line x2="820.00" style="fill:blue;stroke:blue;" y1="150.00" x1="600.00" id="33041" y2="140.00" /><line x2="800.00" style="fill:blue;stroke:blue;" y1="150.00" x1="600.00" id="33042" y2="200.00" /><line x2="680.00" style="fill:blue;stroke:blue;" y1="150.00" x1="600.00" id="33043" y2="230.00" /><line x2="480.00" style="fill:blue;stroke:blue;" y1="150.00" x1="600.00" id="33044" y2="180.00" /><line x2="652.32" style="fill:blue;stroke:blue;" y1="47.68" x1="617.68" id="33045" y2="82.32" /><line x2="550.00" style="fill:blue;stroke:blue;" y1="47.68" x1="617.68" id="33046" y2="30.00" /><line x2="700.00" style="fill:blue;stroke:blue;" y1="47.68" x1="617.68" id="33047" y2="50.00" /><line x2="617.68" style="fill:blue;stroke:blue;" y1="82.32" x1="652.32" id="33048" y2="47.68" /><line x2="750.00" style="fill:blue;stroke:blue;" y1="82.32" x1="652.32" id="33049" y2="100.00" /><line x2="550.00" style="fill:blue;stroke:blue;" y1="82.32" x1="652.32" id="33050" y2="80.00" /><line x2="580.00" style="fill:blue;stroke:blue;" y1="530.00" x1="650.00" id="33051" y2="630.00" /><line x2="720.00" style="fill:blue;stroke:blue;" y1="530.00" x1="650.00" id="33052" y2="530.00" /><line x2="650.00" style="fill:blue;stroke:blue;" y1="530.00" x1="650.00" id="33053" y2="630.00" /><line x2="580.00" style="fill:blue;stroke:blue;" y1="530.00" x1="650.00" id="33054" y2="480.00" /><line x2="650.00" style="fill:blue;stroke:blue;" y1="630.00" x1="650.00" id="33055" y2="530.00" /><line x2="580.00" style="fill:blue;stroke:blue;" y1="630.00" x1="650.00" id="33056" y2="630.00" /><line x2="720.00" style="fill:blue;stroke:blue;" y1="630.00" x1="650.00" id="33057" y2="630.00" /><line x2="700.00" style="fill:blue;stroke:blue;" y1="350.00" x1="650.00" id="33058" y2="300.00" /><line x2="678.09" style="fill:blue;stroke:blue;" y1="350.00" x1="650.00" id="33059" y2="400.96" /><line x2="650.00" style="fill:blue;stroke:blue;" y1="400.96" x1="678.09" id="33060" y2="350.00" /><line x2="520.00" style="fill:blue;stroke:blue;" y1="400.96" x1="678.09" id="33061" y2="410.00" /><line x2="550.00" style="fill:blue;stroke:blue;" y1="400.96" x1="678.09" id="33062" y2="370.00" /><line x2="721.91" style="fill:blue;stroke:blue;" y1="400.96" x1="678.09" id="33063" y2="379.04" /><line x2="750.00" style="fill:blue;stroke:blue;" y1="230.00" x1="680.00" id="33064" y2="280.00" /><line x2="750.00" style="fill:blue;stroke:blue;" y1="230.00" x1="680.00" id="33065" y2="200.00" /><line x2="600.00" style="fill:blue;stroke:blue;" y1="230.00" x1="680.00" id="33066" y2="150.00" /><line x2="750.00" style="fill:blue;stroke:blue;" y1="180.00" x1="700.00" id="33067" y2="200.00" /><line x2="750.00" style="fill:blue;stroke:blue;" y1="300.00" x1="700.00" id="33068" y2="280.00" /><line x2="650.00" style="fill:blue;stroke:blue;" y1="300.00" x1="700.00" id="33069" y2="350.00" /><line x2="650.00" style="fill:blue;stroke:blue;" y1="530.00" x1="720.00" id="33070" y2="530.00" /><line x2="800.00" style="fill:blue;stroke:blue;" y1="530.00" x1="720.00" id="33071" y2="580.00" /><line x2="650.00" style="fill:blue;stroke:blue;" y1="630.00" x1="720.00" id="33072" y2="630.00" /><line x2="800.00" style="fill:blue;stroke:blue;" y1="630.00" x1="720.00" id="33073" y2="580.00" /><line x2="750.00" style="fill:blue;stroke:blue;" y1="379.04" x1="721.91" id="33074" y2="330.00" /><line x2="678.09" style="fill:blue;stroke:blue;" y1="379.04" x1="721.91" id="33075" y2="400.96" /><line x2="780.00" style="fill:blue;stroke:blue;" y1="100.00" x1="750.00" id="33076" y2="50.00" /><line x2="820.00" style="fill:blue;stroke:blue;" y1="100.00" x1="750.00" id="33077" y2="140.00" /><line x2="652.32" style="fill:blue;stroke:blue;" y1="100.00" x1="750.00" id="33078" y2="82.32" /><line x2="850.00" style="fill:blue;stroke:blue;" y1="100.00" x1="750.00" id="33079" y2="80.00" /><line x2="820.00" style="fill:blue;stroke:blue;" y1="200.00" x1="750.00" id="33080" y2="140.00" /><line x2="850.00" style="fill:blue;stroke:blue;" y1="200.00" x1="750.00" id="33081" y2="250.00" /><line x2="680.00" style="fill:blue;stroke:blue;" y1="200.00" x1="750.00" id="33082" y2="230.00" /><line x2="700.00" style="fill:blue;stroke:blue;" y1="200.00" x1="750.00" id="33083" y2="180.00" /><line x2="850.00" style="fill:blue;stroke:blue;" y1="280.00" x1="750.00" id="33084" y2="250.00" /><line x2="700.00" style="fill:blue;stroke:blue;" y1="280.00" x1="750.00" id="33085" y2="300.00" /><line x2="750.00" style="fill:blue;stroke:blue;" y1="280.00" x1="750.00" id="33086" y2="330.00" /><line x2="680.00" style="fill:blue;stroke:blue;" y1="280.00" x1="750.00" id="33087" y2="230.00" /><line x2="750.00" style="fill:blue;stroke:blue;" y1="330.00" x1="750.00" id="33088" y2="280.00" /><line x2="721.91" style="fill:blue;stroke:blue;" y1="330.00" x1="750.00" id="33089" y2="379.04" /><line x2="720.00" style="fill:blue;stroke:blue;" y1="580.00" x1="800.00" id="33090" y2="530.00" /><line x2="720.00" style="fill:blue;stroke:blue;" y1="580.00" x1="800.00" id="33091" y2="630.00" /><line x2="850.00" style="fill:blue;stroke:blue;" y1="140.00" x1="820.00" id="33092" y2="250.00" /><line x2="750.00" style="fill:blue;stroke:blue;" y1="140.00" x1="820.00" id="33093" y2="200.00" /><line x2="750.00" style="fill:blue;stroke:blue;" y1="140.00" x1="820.00" id="33094" y2="100.00" /><line x2="600.00" style="fill:blue;stroke:blue;" y1="140.00" x1="820.00" id="33095" y2="150.00" /><line x2="850.00" style="fill:blue;stroke:blue;" y1="200.00" x1="800.00" id="33096" y2="250.00" /><line x2="600.00" style="fill:blue;stroke:blue;" y1="200.00" x1="800.00" id="33097" y2="150.00" /><line x2="580.00" style="fill:blue;stroke:blue;" y1="480.00" x1="820.00" id="33098" y2="480.00" /><line x2="880.00" style="fill:blue;stroke:blue;" y1="480.00" x1="820.00" id="33099" y2="500.00" /><line x2="900.00" style="fill:blue;stroke:blue;" y1="480.00" x1="820.00" id="33100" y2="430.00" /><line x2="800.00" style="fill:blue;stroke:blue;" y1="480.00" x1="820.00" id="33101" y2="430.00" /><line x2="820.00" style="fill:blue;stroke:blue;" y1="250.00" x1="850.00" id="33102" y2="140.00" /><line x2="750.00" style="fill:blue;stroke:blue;" y1="250.00" x1="850.00" id="33103" y2="280.00" /><line x2="750.00" style="fill:blue;stroke:blue;" y1="250.00" x1="850.00" id="33104" y2="200.00" /><line x2="800.00" style="fill:blue;stroke:blue;" y1="250.00" x1="850.00" id="33105" y2="200.00" /><line x2="950.00" style="fill:blue;stroke:blue;" y1="80.00" x1="850.00" id="33106" y2="80.00" /><line x2="750.00" style="fill:blue;stroke:blue;" y1="80.00" x1="850.00" id="33107" y2="100.00" /><line x2="820.00" style="fill:blue;stroke:blue;" y1="430.00" x1="900.00" id="33108" y2="480.00" /><line x2="950.00" style="fill:blue;stroke:blue;" y1="430.00" x1="900.00" id="33109" y2="430.00" /><line x2="950.00" style="fill:blue;stroke:blue;" y1="430.00" x1="900.00" id="33110" y2="380.00" /><line x2="820.00" style="fill:blue;stroke:blue;" y1="500.00" x1="880.00" id="33111" y2="480.00" /><line x2="950.00" style="fill:blue;stroke:blue;" y1="500.00" x1="880.00" id="33112" y2="550.00" /><line x2="900.00" style="fill:blue;stroke:blue;" y1="380.00" x1="950.00" id="33113" y2="430.00" /><line x2="850.00" style="fill:blue;stroke:blue;" y1="80.00" x1="950.00" id="33114" y2="80.00" /><line x2="900.00" style="fill:blue;stroke:blue;" y1="430.00" x1="950.00" id="33115" y2="430.00" /><line x2="880.00" style="fill:blue;stroke:blue;" y1="550.00" x1="950.00" id="33116" y2="500.00" /><line x2="50.00" style="fill:blue;stroke:blue;" y1="300.00" x1="20.00" id="33117" y2="180.00" /><line x2="20.00" style="fill:blue;stroke:blue;" y1="300.00" x1="20.00" id="33118" y2="400.00" /><line x2="80.00" style="fill:blue;stroke:blue;" y1="400.00" x1="20.00" id="33119" y2="500.00" /><line x2="20.00" style="fill:blue;stroke:blue;" y1="400.00" x1="20.00" id="33120" y2="300.00" /><line x2="100.00" style="fill:blue;stroke:blue;" y1="280.00" x1="100.00" id="33121" y2="200.00" /><line x2="120.00" style="fill:blue;stroke:blue;" y1="280.00" x1="100.00" id="33122" y2="330.00" /><line x2="180.00" style="fill:blue;stroke:blue;" y1="330.00" x1="120.00" id="33123" y2="380.00" /><line x2="100.00" style="fill:blue;stroke:blue;" y1="330.00" x1="120.00" id="33124" y2="280.00" /><line x2="200.00" style="fill:blue;stroke:blue;" y1="740.00" x1="200.00" id="33125" y2="680.00" /><line x2="350.00" style="fill:blue;stroke:blue;" y1="190.00" x1="250.00" id="33126" y2="230.00" /><line x2="250.00" style="fill:blue;stroke:blue;" y1="190.00" x1="250.00" id="33127" y2="270.00" /><line x2="350.00" style="fill:blue;stroke:blue;" y1="270.00" x1="250.00" id="33128" y2="230.00" /><line x2="250.00" style="fill:blue;stroke:blue;" y1="270.00" x1="250.00" id="33129" y2="190.00" /><line x2="400.00" style="fill:blue;stroke:blue;" y1="770.00" x1="400.00" id="33130" y2="720.00" /><line x2="480.00" style="fill:blue;stroke:blue;" y1="130.00" x1="480.00" id="33131" y2="180.00" /><line x2="550.00" style="fill:blue;stroke:blue;" y1="130.00" x1="480.00" id="33132" y2="80.00" /><line x2="652.32" style="fill:blue;stroke:blue;" y1="80.00" x1="550.00" id="33133" y2="82.32" /><line x2="550.00" style="fill:blue;stroke:blue;" y1="80.00" x1="550.00" id="33134" y2="30.00" /><line x2="480.00" style="fill:blue;stroke:blue;" y1="80.00" x1="550.00" id="33135" y2="130.00" /><line x2="617.68" style="fill:blue;stroke:blue;" y1="50.00" x1="700.00" id="33136" y2="47.68" /><line x2="750.00" style="fill:blue;stroke:blue;" y1="50.00" x1="780.00" id="33137" y2="100.00" /><line x2="820.00" style="fill:blue;stroke:blue;" y1="430.00" x1="800.00" id="33138" y2="480.00" /></svg>
