<?xml version="1.0" standalone="yes"?><!DOCTYPE svg PUBLIC "-//W3C//DTD SVG 1.1//EN" "http://www.w3.org/Graphics/SVG/1.1/DTD/svg11.dtd"[]><svg width="1050.00" height="800.00" id="32609" xmlns="http://www.w3.org/2000/svg" xmlns:xlink="http://www.w3.org/1999/xlink"><rect Type="system" x="20.00" id="32610" height="5.00" width="5.00" Name="SJJ-4F" ID="30000571" Region="邪恶湾流" y="80.00" /><text y="80.00" x="20.00" id="32611">SJJ-4F</text><rect Type="system" x="20.00" id="32613" height="5.00" width="5.00" Name="C-LTXS" ID="30000567" Region="邪恶湾流" y="130.00" /><text y="130.00" x="20.00" id="32614">C-LTXS</text><rect Type="system" x="17.68" id="32616" height="5.00" width="5.00" Name="H6-EYX" ID="30000574" Region="邪恶湾流" y="547.68" /><text y="547.68" x="17.68" id="32617">H6-EYX</text><rect Type="system" x="20.00" id="32619" height="5.00" width="5.00" Name="4-EFLU" ID="30000576" Region="邪恶湾流" y="620.00" /><text y="620.00" x="20.00" id="32620">4-EFLU</text><rect Type="system" x="20.00" id="32622" height="5.00" width="5.00" Name="EIH-IU" ID="30000577" Region="邪恶湾流" y="700.00" /><text y="700.00" x="20.00" id="32623">EIH-IU</text><rect Type="system" x="50.00" id="32625" height="5.00" width="5.00" Name="C0O6-K" ID="30000568" Region="邪恶湾流" y="180.00" /><text y="180.00" x="50.00" id="32626">C0O6-K</text><rect Type="system" x="52.32" id="32628" height="5.00" width="5.00" Name="1-7B6D" ID="30000573" Region="邪恶湾流" y="582.32" /><text y="582.32" x="52.32" id="32629">1-7B6D</text><rect Type="system" x="50.00" id="32631" height="5.00" width="5.00" Name="U-HVIX" ID="30000575" Region="邪恶湾流" y="660.00" /><text y="660.00" x="50.00" id="32632">U-HVIX</text><rect Type="system" x="80.00" id="32634" height="5.00" width="5.00" Name="YI-GV6" ID="30000583" Region="邪恶湾流" y="500.00" /><text y="500.00" x="80.00" id="32635">YI-GV6</text><rect Type="system" x="90.00" id="32637" height="5.00" width="5.00" Name="HD-AJ7" ID="30000569" Region="邪恶湾流" y="60.00" /><text y="60.00" x="90.00" id="32638">HD-AJ7</text><rect Type="system" x="100.00" id="32640" height="5.00" width="5.00" Name="SR-4EK" ID="30000565" Region="邪恶湾流" y="130.00" /><text y="130.00" x="100.00" id="32641">SR-4EK</text><rect Type="system" x="100.00" id="32643" height="5.00" width="5.00" Name="G9NE-B" ID="30000570" Region="邪恶湾流" y="200.00" /><text y="200.00" x="100.00" id="32644">G9NE-B</text><rect Type="system" x="100.00" id="32646" height="5.00" width="5.00" Name="F-QQ5N" ID="30000572" Region="邪恶湾流" y="630.00" /><text y="630.00" x="100.00" id="32647">F-QQ5N</text><rect Type="system" x="150.00" id="32649" height="5.00" width="5.00" Name="0RI-OV" ID="30000566" Region="邪恶湾流" y="180.00" /><text y="180.00" x="150.00" id="32650">0RI-OV</text><rect Type="system" x="180.00" id="32652" height="5.00" width="5.00" Name="L-Z9KJ" ID="30000605" Region="邪恶湾流" y="130.00" /><text y="130.00" x="180.00" id="32653">L-Z9KJ</text><rect Type="system" x="180.00" id="32655" height="5.00" width="5.00" Name="R0-DMM" ID="30000563" Region="邪恶湾流" y="380.00" /><text y="380.00" x="180.00" id="32656">R0-DMM</text><rect Type="system" x="180.00" id="32658" height="5.00" width="5.00" Name="SO-X5L" ID="30000584" Region="邪恶湾流" y="550.00" /><text y="550.00" x="180.00" id="32659">SO-X5L</text><rect Type="system" x="200.00" id="32661" height="5.00" width="5.00" Name="1L-OEK" ID="30000579" Region="邪恶湾流" y="630.00" /><text y="630.00" x="200.00" id="32662">1L-OEK</text><rect Type="system" x="200.00" id="32664" height="5.00" width="5.00" Name="5H-SM2" ID="30000581" Region="邪恶湾流" y="680.00" /><text y="680.00" x="200.00" id="32665">5H-SM2</text><rect Type="system" x="200.00" id="32667" height="5.00" width="5.00" Name="5Q65-4" ID="30000564" Region="邪恶湾流" y="330.00" /><text y="330.00" x="200.00" id="32668">5Q65-4</text><rect Type="system" x="220.00" id="32670" height="5.00" width="5.00" Name="7K-NSE" ID="30000606" Region="邪恶湾流" y="80.00" /><text y="80.00" x="220.00" id="32671">7K-NSE</text><rect Type="system" x="250.00" id="32673" height="5.00" width="5.00" Name="UZ-QXW" ID="30000561" Region="邪恶湾流" y="380.00" /><text y="380.00" x="250.00" id="32674">UZ-QXW</text><rect Type="system" x="280.00" id="32676" height="5.00" width="5.00" Name="OR-7N5" ID="30000607" Region="邪恶湾流" y="80.00" /><text y="80.00" x="280.00" id="32677">OR-7N5</text><rect Type="system" x="280.00" id="32679" height="5.00" width="5.00" Name="Q-GQHN" ID="30000586" Region="邪恶湾流" y="630.00" /><text y="630.00" x="280.00" id="32680">Q-GQHN</text><rect Type="system" x="300.00" id="32682" height="5.00" width="5.00" Name="4-OS2A" ID="30000582" Region="邪恶湾流" y="580.00" /><text y="580.00" x="300.00" id="32683">4-OS2A</text><rect Type="system" x="320.00" id="32685" height="5.00" width="5.00" Name="5NQI-E" ID="30000609" Region="邪恶湾流" y="50.00" /><text y="50.00" x="320.00" id="32686">5NQI-E</text><rect Type="system" x="320.00" id="32688" height="5.00" width="5.00" Name="JEQG-7" ID="30000608" Region="邪恶湾流" y="130.00" /><text y="130.00" x="320.00" id="32689">JEQG-7</text><rect Type="system" x="320.00" id="32691" height="5.00" width="5.00" Name="5DE-QS" ID="30000562" Region="邪恶湾流" y="380.00" /><text y="380.00" x="320.00" id="32692">5DE-QS</text><rect Type="system" x="350.00" id="32694" height="5.00" width="5.00" Name="GGE-5Q" ID="30000553" Region="邪恶湾流" y="280.00" /><text y="280.00" x="350.00" id="32695">GGE-5Q</text><rect Type="system" x="350.00" id="32697" height="5.00" width="5.00" Name="B-WQDP" ID="30000610" Region="邪恶湾流" y="180.00" /><text y="180.00" x="350.00" id="32698">B-WQDP</text><rect Type="system" x="350.00" id="32700" height="5.00" width="5.00" Name="5E-CMA" ID="30000554" Region="邪恶湾流" y="230.00" /><text y="230.00" x="350.00" id="32701">5E-CMA</text><rect Type="system" x="350.00" id="32703" height="5.00" width="5.00" Name="XQS-GZ" ID="30000585" Region="邪恶湾流" y="630.00" /><text y="630.00" x="350.00" id="32704">XQS-GZ</text><rect Type="system" x="380.00" id="32706" height="5.00" width="5.00" Name="F-3FOY" ID="30000559" Region="邪恶湾流" y="380.00" /><text y="380.00" x="380.00" id="32707">F-3FOY</text><rect Type="system" x="400.00" id="32709" height="5.00" width="5.00" Name="MN-Q26" ID="30000580" Region="邪恶湾流" y="580.00" /><text y="580.00" x="400.00" id="32710">MN-Q26</text><rect Type="system" x="400.00" id="32712" height="5.00" width="5.00" Name="F-EM4Q" ID="30000578" Region="邪恶湾流" y="530.00" /><text y="530.00" x="400.00" id="32713">F-EM4Q</text><rect Type="system" x="400.00" id="32715" height="5.00" width="5.00" Name="V7G-RL" ID="30000603" Region="邪恶湾流" y="720.00" /><text y="720.00" x="400.00" id="32716">V7G-RL</text><rect Type="system" x="400.00" id="32718" height="5.00" width="5.00" Name="OAIG-0" ID="30000560" Region="邪恶湾流" y="450.00" /><text y="450.00" x="400.00" id="32719">OAIG-0</text><rect Type="system" x="400.00" id="32721" height="5.00" width="5.00" Name="WRL4-2" ID="30000602" Region="邪恶湾流" y="670.00" /><text y="670.00" x="400.00" id="32722">WRL4-2</text><rect Type="system" x="450.00" id="32724" height="5.00" width="5.00" Name="LKZ-CY" ID="30000599" Region="邪恶湾流" y="630.00" /><text y="630.00" x="450.00" id="32725">LKZ-CY</text><rect Type="system" x="450.00" id="32727" height="5.00" width="5.00" Name="GRHS-B" ID="30000593" Region="邪恶湾流" y="380.00" /><text y="380.00" x="450.00" id="32728">GRHS-B</text><rect Type="system" x="480.00" id="32730" height="5.00" width="5.00" Name="GPLB-C" ID="30000552" Region="邪恶湾流" y="180.00" /><text y="180.00" x="480.00" id="32731">GPLB-C</text><rect Type="system" x="480.00" id="32733" height="5.00" width="5.00" Name="MLQ-O9" ID="30000539" Region="邪恶湾流" y="80.00" /><text y="80.00" x="480.00" id="32734">MLQ-O9</text><rect Type="system" x="500.00" id="32736" height="5.00" width="5.00" Name="U104-3" ID="30000555" Region="邪恶湾流" y="230.00" /><text y="230.00" x="500.00" id="32737">U104-3</text><rect Type="system" x="500.00" id="32739" height="5.00" width="5.00" Name="F5M-CC" ID="30000600" Region="邪恶湾流" y="630.00" /><text y="630.00" x="500.00" id="32740">F5M-CC</text><rect Type="system" x="500.00" id="32742" height="5.00" width="5.00" Name="M3-KAQ" ID="30000556" Region="邪恶湾流" y="280.00" /><text y="280.00" x="500.00" id="32743">M3-KAQ</text><rect Type="system" x="520.00" id="32745" height="5.00" width="5.00" Name="J-RXYN" ID="30000594" Region="邪恶湾流" y="330.00" /><text y="330.00" x="520.00" id="32746">J-RXYN</text><rect Type="system" x="520.00" id="32748" height="5.00" width="5.00" Name="DUO-51" ID="30000595" Region="邪恶湾流" y="410.00" /><text y="410.00" x="520.00" id="32749">DUO-51</text><rect Type="system" x="520.00" id="32751" height="5.00" width="5.00" Name="TZE-UB" ID="30000601" Region="邪恶湾流" y="680.00" /><text y="680.00" x="520.00" id="32752">TZE-UB</text><rect Type="system" x="550.00" id="32754" height="5.00" width="5.00" Name="XEN7-0" ID="30000604" Region="邪恶湾流" y="760.00" /><text y="760.00" x="550.00" id="32755">XEN7-0</text><rect Type="system" x="550.00" id="32757" height="5.00" width="5.00" Name="8-OZU1" ID="30000542" Region="邪恶湾流" y="30.00" /><text y="30.00" x="550.00" id="32758">8-OZU1</text><rect Type="system" x="550.00" id="32760" height="5.00" width="5.00" Name="Z-A8FS" ID="30000597" Region="邪恶湾流" y="370.00" /><text y="370.00" x="550.00" id="32761">Z-A8FS</text><rect Type="system" x="580.00" id="32763" height="5.00" width="5.00" Name="H-HHTH" ID="30000547" Region="邪恶湾流" y="630.00" /><text y="630.00" x="580.00" id="32764">H-HHTH</text><rect Type="system" x="580.00" id="32766" height="5.00" width="5.00" Name="UM-SCG" ID="30000558" Region="邪恶湾流" y="480.00" /><text y="480.00" x="580.00" id="32767">UM-SCG</text><rect Type="system" x="600.00" id="32769" height="5.00" width="5.00" Name="6-L4YC" ID="30000557" Region="邪恶湾流" y="150.00" /><text y="150.00" x="600.00" id="32770">6-L4YC</text><rect Type="system" x="617.68" id="32772" height="5.00" width="5.00" Name="0TYR-T" ID="30000543" Region="邪恶湾流" y="47.68" /><text y="47.68" x="617.68" id="32773">0TYR-T</text><rect Type="system" x="652.32" id="32775" height="5.00" width="5.00" Name="L-FM3P" ID="30000540" Region="邪恶湾流" y="82.32" /><text y="82.32" x="652.32" id="32776">L-FM3P</text><rect Type="system" x="650.00" id="32778" height="5.00" width="5.00" Name="MWA-5Q" ID="30000546" Region="邪恶湾流" y="530.00" /><text y="530.00" x="650.00" id="32779">MWA-5Q</text><rect Type="system" x="650.00" id="32781" height="5.00" width="5.00" Name="UY5A-D" ID="30000549" Region="邪恶湾流" y="630.00" /><text y="630.00" x="650.00" id="32782">UY5A-D</text><rect Type="system" x="650.00" id="32784" height="5.00" width="5.00" Name="G063-U" ID="30000537" Region="邪恶湾流" y="350.00" /><text y="350.00" x="650.00" id="32785">G063-U</text><rect Type="system" x="678.09" id="32787" height="5.00" width="5.00" Name="07-SLO" ID="30000596" Region="邪恶湾流" y="400.96" /><text y="400.96" x="678.09" id="32788">07-SLO</text><rect Type="system" x="680.00" id="32790" height="5.00" width="5.00" Name="4F89-U" ID="30000536" Region="邪恶湾流" y="230.00" /><text y="230.00" x="680.00" id="32791">4F89-U</text><rect Type="system" x="700.00" id="32793" height="5.00" width="5.00" Name="J7-BDX" ID="30000538" Region="邪恶湾流" y="180.00" /><text y="180.00" x="700.00" id="32794">J7-BDX</text><rect Type="system" x="700.00" id="32796" height="5.00" width="5.00" Name="W-QN5X" ID="30000532" Region="邪恶湾流" y="300.00" /><text y="300.00" x="700.00" id="32797">W-QN5X</text><rect Type="system" x="720.00" id="32799" height="5.00" width="5.00" Name="JQU-KY" ID="30000548" Region="邪恶湾流" y="530.00" /><text y="530.00" x="720.00" id="32800">JQU-KY</text><rect Type="system" x="720.00" id="32802" height="5.00" width="5.00" Name="ZH-GKG" ID="30000551" Region="邪恶湾流" y="630.00" /><text y="630.00" x="720.00" id="32803">ZH-GKG</text><rect Type="system" x="721.91" id="32805" height="5.00" width="5.00" Name="GPD5-0" ID="30000598" Region="邪恶湾流" y="379.04" /><text y="379.04" x="721.91" id="32806">GPD5-0</text><rect Type="system" x="750.00" id="32808" height="5.00" width="5.00" Name="GM-50Y" ID="30000544" Region="邪恶湾流" y="100.00" /><text y="100.00" x="750.00" id="32809">GM-50Y</text><rect Type="system" x="750.00" id="32811" height="5.00" width="5.00" Name="30-YOU" ID="30000534" Region="邪恶湾流" y="200.00" /><text y="200.00" x="750.00" id="32812">30-YOU</text><rect Type="system" x="750.00" id="32814" height="5.00" width="5.00" Name="E-JCUS" ID="30000531" Region="邪恶湾流" y="280.00" /><text y="280.00" x="750.00" id="32815">E-JCUS</text><rect Type="system" x="750.00" id="32817" height="5.00" width="5.00" Name="LP1M-Q" ID="30000533" Region="邪恶湾流" y="330.00" /><text y="330.00" x="750.00" id="32818">LP1M-Q</text><rect Type="system" x="800.00" id="32820" height="5.00" width="5.00" Name="C-62I5" ID="30000550" Region="邪恶湾流" y="580.00" /><text y="580.00" x="800.00" id="32821">C-62I5</text><rect Type="system" x="820.00" id="32823" height="5.00" width="5.00" Name="MKIG-5" ID="30000529" Region="邪恶湾流" y="140.00" /><text y="140.00" x="820.00" id="32824">MKIG-5</text><rect Type="system" x="800.00" id="32826" height="5.00" width="5.00" Name="384-IN" ID="30000535" Region="邪恶湾流" y="200.00" /><text y="200.00" x="800.00" id="32827">384-IN</text><rect Type="system" x="820.00" id="32829" height="5.00" width="5.00" Name="TP7-KE" ID="30000588" Region="邪恶湾流" y="480.00" /><text y="480.00" x="820.00" id="32830">TP7-KE</text><rect Type="system" x="850.00" id="32832" height="5.00" width="5.00" Name="YHEN-G" ID="30000530" Region="邪恶湾流" y="250.00" /><text y="250.00" x="850.00" id="32833">YHEN-G</text><rect Type="system" x="850.00" id="32835" height="5.00" width="5.00" Name="G9L-LP" ID="30000545" Region="邪恶湾流" y="80.00" /><text y="80.00" x="850.00" id="32836">G9L-LP</text><rect Type="system" x="900.00" id="32838" height="5.00" width="5.00" Name="R4N-LD" ID="30000589" Region="邪恶湾流" y="430.00" /><text y="430.00" x="900.00" id="32839">R4N-LD</text><rect Type="system" x="880.00" id="32841" height="5.00" width="5.00" Name="A-4JOO" ID="30000587" Region="邪恶湾流" y="500.00" /><text y="500.00" x="880.00" id="32842">A-4JOO</text><rect Type="system" x="950.00" id="32844" height="5.00" width="5.00" Name="HPBE-D" ID="30000592" Region="邪恶湾流" y="380.00" /><text y="380.00" x="950.00" id="32845">HPBE-D</text><rect Type="system" x="950.00" id="32847" height="5.00" width="5.00" Name="X-ARMF" ID="30000541" Region="邪恶湾流" y="80.00" /><text y="80.00" x="950.00" id="32848">X-ARMF</text><rect Type="system" x="950.00" id="32850" height="5.00" width="5.00" Name="M-MBRT" ID="30000591" Region="邪恶湾流" y="430.00" /><text y="430.00" x="950.00" id="32851">M-MBRT</text><rect Type="system" x="950.00" id="32853" height="5.00" width="5.00" Name="3Q-VZA" ID="30000590" Region="邪恶湾流" y="550.00" /><text y="550.00" x="950.00" id="32854">3Q-VZA</text><rect Type="system" x="20.00" id="32856" height="5.00" width="5.00" Name="X9V-15" ID="30000664" Region="灼热之径" y="300.00" /><text y="300.00" x="20.00" id="32857">X9V-15</text><rect Type="system" x="20.00" id="32859" height="5.00" width="5.00" Name="DE-A7P" ID="30000663" Region="灼热之径" y="400.00" /><text y="400.00" x="20.00" id="32860">DE-A7P</text><rect Type="system" x="100.00" id="32862" height="5.00" width="5.00" Name="4-43BW" ID="30000730" Region="灼热之径" y="280.00" /><text y="280.00" x="100.00" id="32863">4-43BW</text><rect Type="system" x="120.00" id="32865" height="5.00" width="5.00" Name="OAQY-M" ID="30000679" Region="灼热之径" y="330.00" /><text y="330.00" x="120.00" id="32866">OAQY-M</text><rect Type="system" x="200.00" id="32868" height="5.00" width="5.00" Name="3-LJW3" ID="30000448" Region="底特里德" y="740.00" /><text y="740.00" x="200.00" id="32869">3-LJW3</text><rect Type="system" x="250.00" id="32871" height="5.00" width="5.00" Name="1V-LI2" ID="30000680" Region="灼热之径" y="190.00" /><text y="190.00" x="250.00" id="32872">1V-LI2</text><rect Type="system" x="250.00" id="32874" height="5.00" width="5.00" Name="M9-MLR" ID="30000681" Region="灼热之径" y="270.00" /><text y="270.00" x="250.00" id="32875">M9-MLR</text><rect Type="system" x="400.00" id="32877" height="5.00" width="5.00" Name="OEG-K9" ID="30000439" Region="底特里德" y="770.00" /><text y="770.00" x="400.00" id="32878">OEG-K9</text><rect Type="system" x="480.00" id="32880" height="5.00" width="5.00" Name="MSG-BZ" ID="30000774" Region="因斯姆尔" y="130.00" /><text y="130.00" x="480.00" id="32881">MSG-BZ</text><rect Type="system" x="550.00" id="32883" height="5.00" width="5.00" Name="78-0R6" ID="30000773" Region="因斯姆尔" y="80.00" /><text y="80.00" x="550.00" id="32884">78-0R6</text><rect Type="system" x="700.00" id="32886" height="5.00" width="5.00" Name="SN9-3Z" ID="30000763" Region="因斯姆尔" y="50.00" /><text y="50.00" x="700.00" id="32887">SN9-3Z</text><rect Type="system" x="780.00" id="32889" height="5.00" width="5.00" Name="4NDT-W" ID="30000455" Region="底特里德" y="50.00" /><text y="50.00" x="780.00" id="32890">4NDT-W</text><rect Type="system" x="800.00" id="32892" height="5.00" width="5.00" Name="B-1UJC" ID="30000716" Region="灼热之径" y="430.00" /><text y="430.00" x="800.00" id="32893">B-1UJC</text><line style="stroke:blue;fill:blue;" id="32895" x2="20.00" x1="20.00" y1="80.00" y2="130.00" /><line style="stroke:blue;fill:blue;" id="32896" x2="90.00" x1="20.00" y1="80.00" y2="60.00" /><line style="stroke:blue;fill:blue;" id="32897" x2="50.00" x1="20.00" y1="130.00" y2="180.00" /><line style="stroke:blue;fill:blue;" id="32898" x2="90.00" x1="20.00" y1="130.00" y2="60.00" /><line style="stroke:blue;fill:blue;" id="32899" x2="20.00" x1="20.00" y1="130.00" y2="80.00" /><line style="stroke:blue;fill:blue;" id="32900" x2="52.32" x1="17.68" y1="547.68" y2="582.32" /><line style="stroke:blue;fill:blue;" id="32901" x2="100.00" x1="20.00" y1="620.00" y2="630.00" /><line style="stroke:blue;fill:blue;" id="32902" x2="52.32" x1="20.00" y1="620.00" y2="582.32" /><line style="stroke:blue;fill:blue;" id="32903" x2="50.00" x1="20.00" y1="620.00" y2="660.00" /><line style="stroke:blue;fill:blue;" id="32904" x2="50.00" x1="20.00" y1="700.00" y2="660.00" /><line style="stroke:blue;fill:blue;" id="32905" x2="100.00" x1="50.00" y1="180.00" y2="130.00" /><line style="stroke:blue;fill:blue;" id="32906" x2="150.00" x1="50.00" y1="180.00" y2="180.00" /><line style="stroke:blue;fill:blue;" id="32907" x2="20.00" x1="50.00" y1="180.00" y2="130.00" /><line style="stroke:blue;fill:blue;" id="32908" x2="90.00" x1="50.00" y1="180.00" y2="60.00" /><line style="stroke:blue;fill:blue;" id="32909" x2="100.00" x1="50.00" y1="180.00" y2="200.00" /><line style="stroke:blue;fill:blue;" id="32910" x2="20.00" x1="50.00" y1="180.00" y2="300.00" /><line style="stroke:blue;fill:blue;" id="32911" x2="100.00" x1="52.32" y1="582.32" y2="630.00" /><line style="stroke:blue;fill:blue;" id="32912" x2="17.68" x1="52.32" y1="582.32" y2="547.68" /><line style="stroke:blue;fill:blue;" id="32913" x2="20.00" x1="52.32" y1="582.32" y2="620.00" /><line style="stroke:blue;fill:blue;" id="32914" x2="100.00" x1="50.00" y1="660.00" y2="630.00" /><line style="stroke:blue;fill:blue;" id="32915" x2="20.00" x1="50.00" y1="660.00" y2="620.00" /><line style="stroke:blue;fill:blue;" id="32916" x2="20.00" x1="50.00" y1="660.00" y2="700.00" /><line style="stroke:blue;fill:blue;" id="32917" x2="200.00" x1="80.00" y1="500.00" y2="630.00" /><line style="stroke:blue;fill:blue;" id="32918" x2="180.00" x1="80.00" y1="500.00" y2="550.00" /><line style="stroke:blue;fill:blue;" id="32919" x2="20.00" x1="80.00" y1="500.00" y2="400.00" /><line style="stroke:blue;fill:blue;" id="32920" x2="100.00" x1="90.00" y1="60.00" y2="130.00" /><line style="stroke:blue;fill:blue;" id="32921" x2="20.00" x1="90.00" y1="60.00" y2="130.00" /><line style="stroke:blue;fill:blue;" id="32922" x2="50.00" x1="90.00" y1="60.00" y2="180.00" /><line style="stroke:blue;fill:blue;" id="32923" x2="20.00" x1="90.00" y1="60.00" y2="80.00" /><line style="stroke:blue;fill:blue;" id="32924" x2="150.00" x1="100.00" y1="130.00" y2="180.00" /><line style="stroke:blue;fill:blue;" id="32925" x2="50.00" x1="100.00" y1="130.00" y2="180.00" /><line style="stroke:blue;fill:blue;" id="32926" x2="90.00" x1="100.00" y1="130.00" y2="60.00" /><line style="stroke:blue;fill:blue;" id="32927" x2="100.00" x1="100.00" y1="130.00" y2="200.00" /><line style="stroke:blue;fill:blue;" id="32928" x2="100.00" x1="100.00" y1="200.00" y2="130.00" /><line style="stroke:blue;fill:blue;" id="32929" x2="150.00" x1="100.00" y1="200.00" y2="180.00" /><line style="stroke:blue;fill:blue;" id="32930" x2="50.00" x1="100.00" y1="200.00" y2="180.00" /><line style="stroke:blue;fill:blue;" id="32931" x2="100.00" x1="100.00" y1="200.00" y2="280.00" /><line style="stroke:blue;fill:blue;" id="32932" x2="52.32" x1="100.00" y1="630.00" y2="582.32" /><line style="stroke:blue;fill:blue;" id="32933" x2="50.00" x1="100.00" y1="630.00" y2="660.00" /><line style="stroke:blue;fill:blue;" id="32934" x2="20.00" x1="100.00" y1="630.00" y2="620.00" /><line style="stroke:blue;fill:blue;" id="32935" x2="200.00" x1="100.00" y1="630.00" y2="630.00" /><line style="stroke:blue;fill:blue;" id="32936" x2="100.00" x1="150.00" y1="180.00" y2="130.00" /><line style="stroke:blue;fill:blue;" id="32937" x2="50.00" x1="150.00" y1="180.00" y2="180.00" /><line style="stroke:blue;fill:blue;" id="32938" x2="100.00" x1="150.00" y1="180.00" y2="200.00" /><line style="stroke:blue;fill:blue;" id="32939" x2="180.00" x1="150.00" y1="180.00" y2="130.00" /><line style="stroke:blue;fill:blue;" id="32940" x2="150.00" x1="180.00" y1="130.00" y2="180.00" /><line style="stroke:blue;fill:blue;" id="32941" x2="220.00" x1="180.00" y1="130.00" y2="80.00" /><line style="stroke:blue;fill:blue;" id="32942" x2="250.00" x1="180.00" y1="380.00" y2="380.00" /><line style="stroke:blue;fill:blue;" id="32943" x2="200.00" x1="180.00" y1="380.00" y2="330.00" /><line style="stroke:blue;fill:blue;" id="32944" x2="120.00" x1="180.00" y1="380.00" y2="330.00" /><line style="stroke:blue;fill:blue;" id="32945" x2="200.00" x1="180.00" y1="550.00" y2="630.00" /><line style="stroke:blue;fill:blue;" id="32946" x2="80.00" x1="180.00" y1="550.00" y2="500.00" /><line style="stroke:blue;fill:blue;" id="32947" x2="100.00" x1="200.00" y1="630.00" y2="630.00" /><line style="stroke:blue;fill:blue;" id="32948" x2="200.00" x1="200.00" y1="630.00" y2="680.00" /><line style="stroke:blue;fill:blue;" id="32949" x2="80.00" x1="200.00" y1="630.00" y2="500.00" /><line style="stroke:blue;fill:blue;" id="32950" x2="180.00" x1="200.00" y1="630.00" y2="550.00" /><line style="stroke:blue;fill:blue;" id="32951" x2="280.00" x1="200.00" y1="630.00" y2="630.00" /><line style="stroke:blue;fill:blue;" id="32952" x2="200.00" x1="200.00" y1="680.00" y2="740.00" /><line style="stroke:blue;fill:blue;" id="32953" x2="200.00" x1="200.00" y1="680.00" y2="630.00" /><line style="stroke:blue;fill:blue;" id="32954" x2="180.00" x1="200.00" y1="330.00" y2="380.00" /><line style="stroke:blue;fill:blue;" id="32955" x2="180.00" x1="220.00" y1="80.00" y2="130.00" /><line style="stroke:blue;fill:blue;" id="32956" x2="280.00" x1="220.00" y1="80.00" y2="80.00" /><line style="stroke:blue;fill:blue;" id="32957" x2="320.00" x1="250.00" y1="380.00" y2="380.00" /><line style="stroke:blue;fill:blue;" id="32958" x2="180.00" x1="250.00" y1="380.00" y2="380.00" /><line style="stroke:blue;fill:blue;" id="32959" x2="220.00" x1="280.00" y1="80.00" y2="80.00" /><line style="stroke:blue;fill:blue;" id="32960" x2="320.00" x1="280.00" y1="80.00" y2="130.00" /><line style="stroke:blue;fill:blue;" id="32961" x2="320.00" x1="280.00" y1="80.00" y2="50.00" /><line style="stroke:blue;fill:blue;" id="32962" x2="200.00" x1="280.00" y1="630.00" y2="630.00" /><line style="stroke:blue;fill:blue;" id="32963" x2="400.00" x1="280.00" y1="630.00" y2="580.00" /><line style="stroke:blue;fill:blue;" id="32964" x2="300.00" x1="280.00" y1="630.00" y2="580.00" /><line style="stroke:blue;fill:blue;" id="32965" x2="350.00" x1="280.00" y1="630.00" y2="630.00" /><line style="stroke:blue;fill:blue;" id="32966" x2="400.00" x1="300.00" y1="580.00" y2="580.00" /><line style="stroke:blue;fill:blue;" id="32967" x2="280.00" x1="300.00" y1="580.00" y2="630.00" /><line style="stroke:blue;fill:blue;" id="32968" x2="280.00" x1="320.00" y1="50.00" y2="80.00" /><line style="stroke:blue;fill:blue;" id="32969" x2="280.00" x1="320.00" y1="130.00" y2="80.00" /><line style="stroke:blue;fill:blue;" id="32970" x2="350.00" x1="320.00" y1="130.00" y2="180.00" /><line style="stroke:blue;fill:blue;" id="32971" x2="350.00" x1="320.00" y1="380.00" y2="280.00" /><line style="stroke:blue;fill:blue;" id="32972" x2="380.00" x1="320.00" y1="380.00" y2="380.00" /><line style="stroke:blue;fill:blue;" id="32973" x2="400.00" x1="320.00" y1="380.00" y2="450.00" /><line style="stroke:blue;fill:blue;" id="32974" x2="250.00" x1="320.00" y1="380.00" y2="380.00" /><line style="stroke:blue;fill:blue;" id="32975" x2="350.00" x1="350.00" y1="280.00" y2="230.00" /><line style="stroke:blue;fill:blue;" id="32976" x2="320.00" x1="350.00" y1="280.00" y2="380.00" /><line style="stroke:blue;fill:blue;" id="32977" x2="350.00" x1="350.00" y1="180.00" y2="230.00" /><line style="stroke:blue;fill:blue;" id="32978" x2="320.00" x1="350.00" y1="180.00" y2="130.00" /><line style="stroke:blue;fill:blue;" id="32979" x2="480.00" x1="350.00" y1="230.00" y2="180.00" /><line style="stroke:blue;fill:blue;" id="32980" x2="350.00" x1="350.00" y1="230.00" y2="280.00" /><line style="stroke:blue;fill:blue;" id="32981" x2="350.00" x1="350.00" y1="230.00" y2="180.00" /><line style="stroke:blue;fill:blue;" id="32982" x2="250.00" x1="350.00" y1="230.00" y2="190.00" /><line style="stroke:blue;fill:blue;" id="32983" x2="250.00" x1="350.00" y1="230.00" y2="270.00" /><line style="stroke:blue;fill:blue;" id="32984" x2="400.00" x1="350.00" y1="630.00" y2="580.00" /><line style="stroke:blue;fill:blue;" id="32985" x2="280.00" x1="350.00" y1="630.00" y2="630.00" /><line style="stroke:blue;fill:blue;" id="32986" x2="450.00" x1="350.00" y1="630.00" y2="630.00" /><line style="stroke:blue;fill:blue;" id="32987" x2="320.00" x1="380.00" y1="380.00" y2="380.00" /><line style="stroke:blue;fill:blue;" id="32988" x2="450.00" x1="380.00" y1="380.00" y2="380.00" /><line style="stroke:blue;fill:blue;" id="32989" x2="400.00" x1="400.00" y1="580.00" y2="530.00" /><line style="stroke:blue;fill:blue;" id="32990" x2="300.00" x1="400.00" y1="580.00" y2="580.00" /><line style="stroke:blue;fill:blue;" id="32991" x2="350.00" x1="400.00" y1="580.00" y2="630.00" /><line style="stroke:blue;fill:blue;" id="32992" x2="280.00" x1="400.00" y1="580.00" y2="630.00" /><line style="stroke:blue;fill:blue;" id="32993" x2="400.00" x1="400.00" y1="530.00" y2="580.00" /><line style="stroke:blue;fill:blue;" id="32994" x2="400.00" x1="400.00" y1="720.00" y2="770.00" /><line style="stroke:blue;fill:blue;" id="32995" x2="400.00" x1="400.00" y1="720.00" y2="670.00" /><line style="stroke:blue;fill:blue;" id="32996" x2="580.00" x1="400.00" y1="450.00" y2="480.00" /><line style="stroke:blue;fill:blue;" id="32997" x2="320.00" x1="400.00" y1="450.00" y2="380.00" /><line style="stroke:blue;fill:blue;" id="32998" x2="450.00" x1="400.00" y1="670.00" y2="630.00" /><line style="stroke:blue;fill:blue;" id="32999" x2="400.00" x1="400.00" y1="670.00" y2="720.00" /><line style="stroke:blue;fill:blue;" id="33000" x2="350.00" x1="450.00" y1="630.00" y2="630.00" /><line style="stroke:blue;fill:blue;" id="33001" x2="500.00" x1="450.00" y1="630.00" y2="630.00" /><line style="stroke:blue;fill:blue;" id="33002" x2="400.00" x1="450.00" y1="630.00" y2="670.00" /><line style="stroke:blue;fill:blue;" id="33003" x2="380.00" x1="450.00" y1="380.00" y2="380.00" /><line style="stroke:blue;fill:blue;" id="33004" x2="520.00" x1="450.00" y1="380.00" y2="330.00" /><line style="stroke:blue;fill:blue;" id="33005" x2="520.00" x1="450.00" y1="380.00" y2="410.00" /><line style="stroke:blue;fill:blue;" id="33006" x2="350.00" x1="480.00" y1="180.00" y2="230.00" /><line style="stroke:blue;fill:blue;" id="33007" x2="500.00" x1="480.00" y1="180.00" y2="230.00" /><line style="stroke:blue;fill:blue;" id="33008" x2="600.00" x1="480.00" y1="180.00" y2="150.00" /><line style="stroke:blue;fill:blue;" id="33009" x2="480.00" x1="480.00" y1="180.00" y2="130.00" /><line style="stroke:blue;fill:blue;" id="33010" x2="550.00" x1="480.00" y1="80.00" y2="30.00" /><line style="stroke:blue;fill:blue;" id="33011" x2="480.00" x1="500.00" y1="230.00" y2="180.00" /><line style="stroke:blue;fill:blue;" id="33012" x2="500.00" x1="500.00" y1="230.00" y2="280.00" /><line style="stroke:blue;fill:blue;" id="33013" x2="580.00" x1="500.00" y1="630.00" y2="630.00" /><line style="stroke:blue;fill:blue;" id="33014" x2="450.00" x1="500.00" y1="630.00" y2="630.00" /><line style="stroke:blue;fill:blue;" id="33015" x2="520.00" x1="500.00" y1="630.00" y2="680.00" /><line style="stroke:blue;fill:blue;" id="33016" x2="500.00" x1="500.00" y1="280.00" y2="230.00" /><line style="stroke:blue;fill:blue;" id="33017" x2="520.00" x1="500.00" y1="280.00" y2="330.00" /><line style="stroke:blue;fill:blue;" id="33018" x2="500.00" x1="520.00" y1="330.00" y2="280.00" /><line style="stroke:blue;fill:blue;" id="33019" x2="450.00" x1="520.00" y1="330.00" y2="380.00" /><line style="stroke:blue;fill:blue;" id="33020" x2="520.00" x1="520.00" y1="330.00" y2="410.00" /><line style="stroke:blue;fill:blue;" id="33021" x2="550.00" x1="520.00" y1="330.00" y2="370.00" /><line style="stroke:blue;fill:blue;" id="33022" x2="450.00" x1="520.00" y1="410.00" y2="380.00" /><line style="stroke:blue;fill:blue;" id="33023" x2="520.00" x1="520.00" y1="410.00" y2="330.00" /><line style="stroke:blue;fill:blue;" id="33024" x2="678.09" x1="520.00" y1="410.00" y2="400.96" /><line style="stroke:blue;fill:blue;" id="33025" x2="550.00" x1="520.00" y1="410.00" y2="370.00" /><line style="stroke:blue;fill:blue;" id="33026" x2="500.00" x1="520.00" y1="680.00" y2="630.00" /><line style="stroke:blue;fill:blue;" id="33027" x2="550.00" x1="520.00" y1="680.00" y2="760.00" /><line style="stroke:blue;fill:blue;" id="33028" x2="520.00" x1="550.00" y1="760.00" y2="680.00" /><line style="stroke:blue;fill:blue;" id="33029" x2="480.00" x1="550.00" y1="30.00" y2="80.00" /><line style="stroke:blue;fill:blue;" id="33030" x2="617.68" x1="550.00" y1="30.00" y2="47.68" /><line style="stroke:blue;fill:blue;" id="33031" x2="550.00" x1="550.00" y1="30.00" y2="80.00" /><line style="stroke:blue;fill:blue;" id="33032" x2="520.00" x1="550.00" y1="370.00" y2="330.00" /><line style="stroke:blue;fill:blue;" id="33033" x2="520.00" x1="550.00" y1="370.00" y2="410.00" /><line style="stroke:blue;fill:blue;" id="33034" x2="678.09" x1="550.00" y1="370.00" y2="400.96" /><line style="stroke:blue;fill:blue;" id="33035" x2="650.00" x1="580.00" y1="630.00" y2="530.00" /><line style="stroke:blue;fill:blue;" id="33036" x2="650.00" x1="580.00" y1="630.00" y2="630.00" /><line style="stroke:blue;fill:blue;" id="33037" x2="500.00" x1="580.00" y1="630.00" y2="630.00" /><line style="stroke:blue;fill:blue;" id="33038" x2="650.00" x1="580.00" y1="480.00" y2="530.00" /><line style="stroke:blue;fill:blue;" id="33039" x2="400.00" x1="580.00" y1="480.00" y2="450.00" /><line style="stroke:blue;fill:blue;" id="33040" x2="820.00" x1="580.00" y1="480.00" y2="480.00" /><line style="stroke:blue;fill:blue;" id="33041" x2="820.00" x1="600.00" y1="150.00" y2="140.00" /><line style="stroke:blue;fill:blue;" id="33042" x2="800.00" x1="600.00" y1="150.00" y2="200.00" /><line style="stroke:blue;fill:blue;" id="33043" x2="680.00" x1="600.00" y1="150.00" y2="230.00" /><line style="stroke:blue;fill:blue;" id="33044" x2="480.00" x1="600.00" y1="150.00" y2="180.00" /><line style="stroke:blue;fill:blue;" id="33045" x2="652.32" x1="617.68" y1="47.68" y2="82.32" /><line style="stroke:blue;fill:blue;" id="33046" x2="550.00" x1="617.68" y1="47.68" y2="30.00" /><line style="stroke:blue;fill:blue;" id="33047" x2="700.00" x1="617.68" y1="47.68" y2="50.00" /><line style="stroke:blue;fill:blue;" id="33048" x2="617.68" x1="652.32" y1="82.32" y2="47.68" /><line style="stroke:blue;fill:blue;" id="33049" x2="750.00" x1="652.32" y1="82.32" y2="100.00" /><line style="stroke:blue;fill:blue;" id="33050" x2="550.00" x1="652.32" y1="82.32" y2="80.00" /><line style="stroke:blue;fill:blue;" id="33051" x2="580.00" x1="650.00" y1="530.00" y2="630.00" /><line style="stroke:blue;fill:blue;" id="33052" x2="720.00" x1="650.00" y1="530.00" y2="530.00" /><line style="stroke:blue;fill:blue;" id="33053" x2="650.00" x1="650.00" y1="530.00" y2="630.00" /><line style="stroke:blue;fill:blue;" id="33054" x2="580.00" x1="650.00" y1="530.00" y2="480.00" /><line style="stroke:blue;fill:blue;" id="33055" x2="650.00" x1="650.00" y1="630.00" y2="530.00" /><line style="stroke:blue;fill:blue;" id="33056" x2="580.00" x1="650.00" y1="630.00" y2="630.00" /><line style="stroke:blue;fill:blue;" id="33057" x2="720.00" x1="650.00" y1="630.00" y2="630.00" /><line style="stroke:blue;fill:blue;" id="33058" x2="700.00" x1="650.00" y1="350.00" y2="300.00" /><line style="stroke:blue;fill:blue;" id="33059" x2="678.09" x1="650.00" y1="350.00" y2="400.96" /><line style="stroke:blue;fill:blue;" id="33060" x2="650.00" x1="678.09" y1="400.96" y2="350.00" /><line style="stroke:blue;fill:blue;" id="33061" x2="520.00" x1="678.09" y1="400.96" y2="410.00" /><line style="stroke:blue;fill:blue;" id="33062" x2="550.00" x1="678.09" y1="400.96" y2="370.00" /><line style="stroke:blue;fill:blue;" id="33063" x2="721.91" x1="678.09" y1="400.96" y2="379.04" /><line style="stroke:blue;fill:blue;" id="33064" x2="750.00" x1="680.00" y1="230.00" y2="280.00" /><line style="stroke:blue;fill:blue;" id="33065" x2="750.00" x1="680.00" y1="230.00" y2="200.00" /><line style="stroke:blue;fill:blue;" id="33066" x2="600.00" x1="680.00" y1="230.00" y2="150.00" /><line style="stroke:blue;fill:blue;" id="33067" x2="750.00" x1="700.00" y1="180.00" y2="200.00" /><line style="stroke:blue;fill:blue;" id="33068" x2="750.00" x1="700.00" y1="300.00" y2="280.00" /><line style="stroke:blue;fill:blue;" id="33069" x2="650.00" x1="700.00" y1="300.00" y2="350.00" /><line style="stroke:blue;fill:blue;" id="33070" x2="650.00" x1="720.00" y1="530.00" y2="530.00" /><line style="stroke:blue;fill:blue;" id="33071" x2="800.00" x1="720.00" y1="530.00" y2="580.00" /><line style="stroke:blue;fill:blue;" id="33072" x2="650.00" x1="720.00" y1="630.00" y2="630.00" /><line style="stroke:blue;fill:blue;" id="33073" x2="800.00" x1="720.00" y1="630.00" y2="580.00" /><line style="stroke:blue;fill:blue;" id="33074" x2="750.00" x1="721.91" y1="379.04" y2="330.00" /><line style="stroke:blue;fill:blue;" id="33075" x2="678.09" x1="721.91" y1="379.04" y2="400.96" /><line style="stroke:blue;fill:blue;" id="33076" x2="780.00" x1="750.00" y1="100.00" y2="50.00" /><line style="stroke:blue;fill:blue;" id="33077" x2="820.00" x1="750.00" y1="100.00" y2="140.00" /><line style="stroke:blue;fill:blue;" id="33078" x2="652.32" x1="750.00" y1="100.00" y2="82.32" /><line style="stroke:blue;fill:blue;" id="33079" x2="850.00" x1="750.00" y1="100.00" y2="80.00" /><line style="stroke:blue;fill:blue;" id="33080" x2="820.00" x1="750.00" y1="200.00" y2="140.00" /><line style="stroke:blue;fill:blue;" id="33081" x2="850.00" x1="750.00" y1="200.00" y2="250.00" /><line style="stroke:blue;fill:blue;" id="33082" x2="680.00" x1="750.00" y1="200.00" y2="230.00" /><line style="stroke:blue;fill:blue;" id="33083" x2="700.00" x1="750.00" y1="200.00" y2="180.00" /><line style="stroke:blue;fill:blue;" id="33084" x2="850.00" x1="750.00" y1="280.00" y2="250.00" /><line style="stroke:blue;fill:blue;" id="33085" x2="700.00" x1="750.00" y1="280.00" y2="300.00" /><line style="stroke:blue;fill:blue;" id="33086" x2="750.00" x1="750.00" y1="280.00" y2="330.00" /><line style="stroke:blue;fill:blue;" id="33087" x2="680.00" x1="750.00" y1="280.00" y2="230.00" /><line style="stroke:blue;fill:blue;" id="33088" x2="750.00" x1="750.00" y1="330.00" y2="280.00" /><line style="stroke:blue;fill:blue;" id="33089" x2="721.91" x1="750.00" y1="330.00" y2="379.04" /><line style="stroke:blue;fill:blue;" id="33090" x2="720.00" x1="800.00" y1="580.00" y2="530.00" /><line style="stroke:blue;fill:blue;" id="33091" x2="720.00" x1="800.00" y1="580.00" y2="630.00" /><line style="stroke:blue;fill:blue;" id="33092" x2="850.00" x1="820.00" y1="140.00" y2="250.00" /><line style="stroke:blue;fill:blue;" id="33093" x2="750.00" x1="820.00" y1="140.00" y2="200.00" /><line style="stroke:blue;fill:blue;" id="33094" x2="750.00" x1="820.00" y1="140.00" y2="100.00" /><line style="stroke:blue;fill:blue;" id="33095" x2="600.00" x1="820.00" y1="140.00" y2="150.00" /><line style="stroke:blue;fill:blue;" id="33096" x2="850.00" x1="800.00" y1="200.00" y2="250.00" /><line style="stroke:blue;fill:blue;" id="33097" x2="600.00" x1="800.00" y1="200.00" y2="150.00" /><line style="stroke:blue;fill:blue;" id="33098" x2="580.00" x1="820.00" y1="480.00" y2="480.00" /><line style="stroke:blue;fill:blue;" id="33099" x2="880.00" x1="820.00" y1="480.00" y2="500.00" /><line style="stroke:blue;fill:blue;" id="33100" x2="900.00" x1="820.00" y1="480.00" y2="430.00" /><line style="stroke:blue;fill:blue;" id="33101" x2="800.00" x1="820.00" y1="480.00" y2="430.00" /><line style="stroke:blue;fill:blue;" id="33102" x2="820.00" x1="850.00" y1="250.00" y2="140.00" /><line style="stroke:blue;fill:blue;" id="33103" x2="750.00" x1="850.00" y1="250.00" y2="280.00" /><line style="stroke:blue;fill:blue;" id="33104" x2="750.00" x1="850.00" y1="250.00" y2="200.00" /><line style="stroke:blue;fill:blue;" id="33105" x2="800.00" x1="850.00" y1="250.00" y2="200.00" /><line style="stroke:blue;fill:blue;" id="33106" x2="950.00" x1="850.00" y1="80.00" y2="80.00" /><line style="stroke:blue;fill:blue;" id="33107" x2="750.00" x1="850.00" y1="80.00" y2="100.00" /><line style="stroke:blue;fill:blue;" id="33108" x2="820.00" x1="900.00" y1="430.00" y2="480.00" /><line style="stroke:blue;fill:blue;" id="33109" x2="950.00" x1="900.00" y1="430.00" y2="430.00" /><line style="stroke:blue;fill:blue;" id="33110" x2="950.00" x1="900.00" y1="430.00" y2="380.00" /><line style="stroke:blue;fill:blue;" id="33111" x2="820.00" x1="880.00" y1="500.00" y2="480.00" /><line style="stroke:blue;fill:blue;" id="33112" x2="950.00" x1="880.00" y1="500.00" y2="550.00" /><line style="stroke:blue;fill:blue;" id="33113" x2="900.00" x1="950.00" y1="380.00" y2="430.00" /><line style="stroke:blue;fill:blue;" id="33114" x2="850.00" x1="950.00" y1="80.00" y2="80.00" /><line style="stroke:blue;fill:blue;" id="33115" x2="900.00" x1="950.00" y1="430.00" y2="430.00" /><line style="stroke:blue;fill:blue;" id="33116" x2="880.00" x1="950.00" y1="550.00" y2="500.00" /><line style="stroke:blue;fill:blue;" id="33117" x2="50.00" x1="20.00" y1="300.00" y2="180.00" /><line style="stroke:blue;fill:blue;" id="33118" x2="20.00" x1="20.00" y1="300.00" y2="400.00" /><line style="stroke:blue;fill:blue;" id="33119" x2="80.00" x1="20.00" y1="400.00" y2="500.00" /><line style="stroke:blue;fill:blue;" id="33120" x2="20.00" x1="20.00" y1="400.00" y2="300.00" /><line style="stroke:blue;fill:blue;" id="33121" x2="100.00" x1="100.00" y1="280.00" y2="200.00" /><line style="stroke:blue;fill:blue;" id="33122" x2="120.00" x1="100.00" y1="280.00" y2="330.00" /><line style="stroke:blue;fill:blue;" id="33123" x2="180.00" x1="120.00" y1="330.00" y2="380.00" /><line style="stroke:blue;fill:blue;" id="33124" x2="100.00" x1="120.00" y1="330.00" y2="280.00" /><line style="stroke:blue;fill:blue;" id="33125" x2="200.00" x1="200.00" y1="740.00" y2="680.00" /><line style="stroke:blue;fill:blue;" id="33126" x2="350.00" x1="250.00" y1="190.00" y2="230.00" /><line style="stroke:blue;fill:blue;" id="33127" x2="250.00" x1="250.00" y1="190.00" y2="270.00" /><line style="stroke:blue;fill:blue;" id="33128" x2="350.00" x1="250.00" y1="270.00" y2="230.00" /><line style="stroke:blue;fill:blue;" id="33129" x2="250.00" x1="250.00" y1="270.00" y2="190.00" /><line style="stroke:blue;fill:blue;" id="33130" x2="400.00" x1="400.00" y1="770.00" y2="720.00" /><line style="stroke:blue;fill:blue;" id="33131" x2="480.00" x1="480.00" y1="130.00" y2="180.00" /><line style="stroke:blue;fill:blue;" id="33132" x2="550.00" x1="480.00" y1="130.00" y2="80.00" /><line style="stroke:blue;fill:blue;" id="33133" x2="652.32" x1="550.00" y1="80.00" y2="82.32" /><line style="stroke:blue;fill:blue;" id="33134" x2="550.00" x1="550.00" y1="80.00" y2="30.00" /><line style="stroke:blue;fill:blue;" id="33135" x2="480.00" x1="550.00" y1="80.00" y2="130.00" /><line style="stroke:blue;fill:blue;" id="33136" x2="617.68" x1="700.00" y1="50.00" y2="47.68" /><line style="stroke:blue;fill:blue;" id="33137" x2="750.00" x1="780.00" y1="50.00" y2="100.00" /><line style="stroke:blue;fill:blue;" id="33138" x2="820.00" x1="800.00" y1="430.00" y2="480.00" /></svg>
