<?xml version="1.0" standalone="yes"?><!DOCTYPE svg PUBLIC "-//W3C//DTD SVG 1.1//EN" "http://www.w3.org/Graphics/SVG/1.1/DTD/svg11.dtd"[]><svg width="1050.00" height="800.00" id="3401" xmlns="http://www.w3.org/2000/svg" xmlns:xlink="http://www.w3.org/1999/xlink"><rect Type="system" x="40.00" id="3402" height="5.00" width="5.00" Name="42SU-L" ID="30004224" Region="钴蓝边域" y="170.00" /><text y="170.00" x="40.00" id="3403">42SU-L</text><rect Type="system" x="80.00" id="3405" height="5.00" width="5.00" Name="Q-VTWJ" ID="30004229" Region="钴蓝边域" y="120.00" /><text y="120.00" x="80.00" id="3406">Q-VTWJ</text><rect Type="system" x="100.00" id="3408" height="5.00" width="5.00" Name="MO-YDG" ID="30004223" Region="钴蓝边域" y="180.00" /><text y="180.00" x="100.00" id="3409">MO-YDG</text><rect Type="system" x="150.00" id="3411" height="5.00" width="5.00" Name="J-A5QD" ID="30004162" Region="钴蓝边域" y="570.00" /><text y="570.00" x="150.00" id="3412">J-A5QD</text><rect Type="system" x="150.00" id="3414" height="5.00" width="5.00" Name="FV-YEA" ID="30004161" Region="钴蓝边域" y="620.00" /><text y="620.00" x="150.00" id="3415">FV-YEA</text><rect Type="system" x="120.00" id="3417" height="5.00" width="5.00" Name="HB-5L3" ID="30004228" Region="钴蓝边域" y="50.00" /><text y="50.00" x="120.00" id="3418">HB-5L3</text><rect Type="system" x="150.00" id="3420" height="5.00" width="5.00" Name="EJ-5X2" ID="30004204" Region="钴蓝边域" y="380.00" /><text y="380.00" x="150.00" id="3421">EJ-5X2</text><rect Type="system" x="190.00" id="3423" height="5.00" width="5.00" Name="5-3722" ID="30004166" Region="钴蓝边域" y="520.00" /><text y="520.00" x="190.00" id="3424">5-3722</text><rect Type="system" x="150.00" id="3426" height="5.00" width="5.00" Name="VY-866" ID="30004227" Region="钴蓝边域" y="100.00" /><text y="100.00" x="150.00" id="3427">VY-866</text><rect Type="system" x="150.00" id="3429" height="5.00" width="5.00" Name="D9Z-VY" ID="30004222" Region="钴蓝边域" y="220.00" /><text y="220.00" x="150.00" id="3430">D9Z-VY</text><rect Type="system" x="180.00" id="3432" height="5.00" width="5.00" Name="RGU1-T" ID="30004225" Region="钴蓝边域" y="150.00" /><text y="150.00" x="180.00" id="3433">RGU1-T</text><rect Type="system" x="220.00" id="3435" height="5.00" width="5.00" Name="SK7-G6" ID="30004164" Region="钴蓝边域" y="620.00" /><text y="620.00" x="220.00" id="3436">SK7-G6</text><rect Type="system" x="220.00" id="3438" height="5.00" width="5.00" Name="L-Z9NB" ID="30004203" Region="钴蓝边域" y="380.00" /><text y="380.00" x="220.00" id="3439">L-Z9NB</text><rect Type="system" x="220.00" id="3441" height="5.00" width="5.00" Name="4LNE-M" ID="30004206" Region="钴蓝边域" y="320.00" /><text y="320.00" x="220.00" id="3442">4LNE-M</text><rect Type="system" x="250.00" id="3444" height="5.00" width="5.00" Name="1GT-MA" ID="30004226" Region="钴蓝边域" y="110.00" /><text y="110.00" x="250.00" id="3445">1GT-MA</text><rect Type="system" x="220.00" id="3447" height="5.00" width="5.00" Name="BI0Y-X" ID="30004163" Region="钴蓝边域" y="570.00" /><text y="570.00" x="220.00" id="3448">BI0Y-X</text><rect Type="system" x="250.00" id="3450" height="5.00" width="5.00" Name="DK0-N8" ID="30004207" Region="钴蓝边域" y="280.00" /><text y="280.00" x="250.00" id="3451">DK0-N8</text><rect Type="system" x="280.00" id="3453" height="5.00" width="5.00" Name="4T-VDE" ID="30004221" Region="钴蓝边域" y="180.00" /><text y="180.00" x="280.00" id="3454">4T-VDE</text><rect Type="system" x="300.00" id="3456" height="5.00" width="5.00" Name="HXK-J6" ID="30004205" Region="钴蓝边域" y="320.00" /><text y="320.00" x="300.00" id="3457">HXK-J6</text><rect Type="system" x="300.00" id="3459" height="5.00" width="5.00" Name="U6R-F9" ID="30004202" Region="钴蓝边域" y="380.00" /><text y="380.00" x="300.00" id="3460">U6R-F9</text><rect Type="system" x="300.00" id="3462" height="5.00" width="5.00" Name="4-PCHD" ID="30004165" Region="钴蓝边域" y="620.00" /><text y="620.00" x="300.00" id="3463">4-PCHD</text><rect Type="system" x="350.00" id="3465" height="5.00" width="5.00" Name="VEQ-3V" ID="30004220" Region="钴蓝边域" y="50.00" /><text y="50.00" x="350.00" id="3466">VEQ-3V</text><rect Type="system" x="380.00" id="3468" height="5.00" width="5.00" Name="GQLB-V" ID="30004167" Region="钴蓝边域" y="620.00" /><text y="620.00" x="380.00" id="3469">GQLB-V</text><rect Type="system" x="380.00" id="3471" height="5.00" width="5.00" Name="J-QOKQ" ID="30004215" Region="钴蓝边域" y="200.00" /><text y="200.00" x="380.00" id="3472">J-QOKQ</text><rect Type="system" x="380.00" id="3474" height="5.00" width="5.00" Name="YVSL-2" ID="30004174" Region="钴蓝边域" y="550.00" /><text y="550.00" x="380.00" id="3475">YVSL-2</text><rect Type="system" x="380.00" id="3477" height="5.00" width="5.00" Name="E-EFAM" ID="30004217" Region="钴蓝边域" y="100.00" /><text y="100.00" x="380.00" id="3478">E-EFAM</text><rect Type="system" x="380.00" id="3480" height="5.00" width="5.00" Name="4GSZ-1" ID="30004216" Region="钴蓝边域" y="150.00" /><text y="150.00" x="380.00" id="3481">4GSZ-1</text><rect Type="system" x="410.00" id="3483" height="5.00" width="5.00" Name="ETXT-F" ID="30004182" Region="钴蓝边域" y="430.00" /><text y="430.00" x="410.00" id="3484">ETXT-F</text><rect Type="system" x="420.00" id="3486" height="5.00" width="5.00" Name="SBEN-Q" ID="30004218" Region="钴蓝边域" y="50.00" /><text y="50.00" x="420.00" id="3487">SBEN-Q</text><rect Type="system" x="450.00" id="3489" height="5.00" width="5.00" Name="X-41DA" ID="30004173" Region="钴蓝边域" y="700.00" /><text y="700.00" x="450.00" id="3490">X-41DA</text><rect Type="system" x="470.00" id="3492" height="5.00" width="5.00" Name="A-0IIQ" ID="30004179" Region="钴蓝边域" y="510.00" /><text y="510.00" x="470.00" id="3493">A-0IIQ</text><rect Type="system" x="447.97" id="3495" height="5.00" width="5.00" Name="9KE-IT" ID="30004169" Region="钴蓝边域" y="575.75" /><text y="575.75" x="447.97" id="3496">9KE-IT</text><rect Type="system" x="468.07" id="3498" height="5.00" width="5.00" Name="5E-EZC" ID="30004168" Region="钴蓝边域" y="620.44" /><text y="620.44" x="468.07" id="3499">5E-EZC</text><rect Type="system" x="469.06" id="3501" height="5.00" width="5.00" Name="H23-B5" ID="30004178" Region="钴蓝边域" y="363.77" /><text y="363.77" x="469.06" id="3502">H23-B5</text><rect Type="system" x="480.00" id="3504" height="5.00" width="5.00" Name="9-7SRQ" ID="30004219" Region="钴蓝边域" y="150.00" /><text y="150.00" x="480.00" id="3505">9-7SRQ</text><rect Type="system" x="480.94" id="3507" height="5.00" width="5.00" Name="O-F4SN" ID="30004199" Region="钴蓝边域" y="316.23" /><text y="316.23" x="480.94" id="3508">O-F4SN</text><rect Type="system" x="503.96" id="3510" height="5.00" width="5.00" Name="P-NRD3" ID="30004170" Region="钴蓝边域" y="653.80" /><text y="653.80" x="503.96" id="3511">P-NRD3</text><rect Type="system" x="490.00" id="3513" height="5.00" width="5.00" Name="E-BYOS" ID="30004181" Region="钴蓝边域" y="420.00" /><text y="420.00" x="490.00" id="3514">E-BYOS</text><rect Type="system" x="550.00" id="3516" height="5.00" width="5.00" Name="9-WEMC" ID="30004201" Region="钴蓝边域" y="200.00" /><text y="200.00" x="550.00" id="3517">9-WEMC</text><rect Type="system" x="520.00" id="3519" height="5.00" width="5.00" Name="CUT-0V" ID="30004200" Region="钴蓝边域" y="250.00" /><text y="250.00" x="520.00" id="3520">CUT-0V</text><rect Type="system" x="550.00" id="3522" height="5.00" width="5.00" Name="S-W8CF" ID="30004172" Region="钴蓝边域" y="600.00" /><text y="600.00" x="550.00" id="3523">S-W8CF</text><rect Type="system" x="550.00" id="3525" height="5.00" width="5.00" Name="U9SE-N" ID="30003227" Region="欧莎" y="700.00" /><text y="700.00" x="550.00" id="3526">U9SE-N</text><rect Type="system" x="550.00" id="3528" height="5.00" width="5.00" Name="QT-EBC" ID="30004198" Region="钴蓝边域" y="300.00" /><text y="300.00" x="550.00" id="3529">QT-EBC</text><rect Type="system" x="550.00" id="3531" height="5.00" width="5.00" Name="VAF1-P" ID="30004196" Region="钴蓝边域" y="350.00" /><text y="350.00" x="550.00" id="3532">VAF1-P</text><rect Type="system" x="580.00" id="3534" height="5.00" width="5.00" Name="CBY8-J" ID="30004180" Region="钴蓝边域" y="460.00" /><text y="460.00" x="580.00" id="3535">CBY8-J</text><rect Type="system" x="600.00" id="3537" height="5.00" width="5.00" Name="Y-RAW3" ID="30004171" Region="钴蓝边域" y="550.00" /><text y="550.00" x="600.00" id="3538">Y-RAW3</text><rect Type="system" x="570.00" id="3540" height="5.00" width="5.00" Name="I-CMZA" ID="30004177" Region="钴蓝边域" y="400.00" /><text y="400.00" x="570.00" id="3541">I-CMZA</text><rect Type="system" x="620.00" id="3543" height="5.00" width="5.00" Name="FV1-RQ" ID="30004197" Region="钴蓝边域" y="320.00" /><text y="320.00" x="620.00" id="3544">FV1-RQ</text><rect Type="system" x="620.00" id="3546" height="5.00" width="5.00" Name="XXZ-3W" ID="30003228" Region="欧莎" y="600.00" /><text y="600.00" x="620.00" id="3547">XXZ-3W</text><rect Type="system" x="620.00" id="3549" height="5.00" width="5.00" Name="SON-TW" ID="30003225" Region="欧莎" y="700.00" /><text y="700.00" x="620.00" id="3550">SON-TW</text><rect Type="system" x="700.00" id="3552" height="5.00" width="5.00" Name="0B-VOJ" ID="30004214" Region="钴蓝边域" y="50.00" /><text y="50.00" x="700.00" id="3553">0B-VOJ</text><rect Type="system" x="700.00" id="3555" height="5.00" width="5.00" Name="E0DR-G" ID="30004208" Region="钴蓝边域" y="100.00" /><text y="100.00" x="700.00" id="3556">E0DR-G</text><rect Type="system" x="760.00" id="3558" height="5.00" width="5.00" Name="4A-6NI" ID="30004188" Region="钴蓝边域" y="660.00" /><text y="660.00" x="760.00" id="3559">4A-6NI</text><rect Type="system" x="720.00" id="3561" height="5.00" width="5.00" Name="5E6I-W" ID="30004175" Region="钴蓝边域" y="450.00" /><text y="450.00" x="720.00" id="3562">5E6I-W</text><rect Type="system" x="720.00" id="3564" height="5.00" width="5.00" Name="KIG9-K" ID="30004176" Region="钴蓝边域" y="580.00" /><text y="580.00" x="720.00" id="3565">KIG9-K</text><rect Type="system" x="810.00" id="3567" height="5.00" width="5.00" Name="E-B957" ID="30004186" Region="钴蓝边域" y="710.00" /><text y="710.00" x="810.00" id="3568">E-B957</text><rect Type="system" x="750.00" id="3570" height="5.00" width="5.00" Name="B-U299" ID="30004194" Region="钴蓝边域" y="250.00" /><text y="250.00" x="750.00" id="3571">B-U299</text><rect Type="system" x="810.00" id="3573" height="5.00" width="5.00" Name="MK-YNM" ID="30004183" Region="钴蓝边域" y="600.00" /><text y="600.00" x="810.00" id="3574">MK-YNM</text><rect Type="system" x="798.09" id="3576" height="5.00" width="5.00" Name="CHP-76" ID="30004210" Region="钴蓝边域" y="49.04" /><text y="49.04" x="798.09" id="3577">CHP-76</text><rect Type="system" x="800.00" id="3579" height="5.00" width="5.00" Name="KI2-S3" ID="30004209" Region="钴蓝边域" y="100.00" /><text y="100.00" x="800.00" id="3580">KI2-S3</text><rect Type="system" x="820.00" id="3582" height="5.00" width="5.00" Name="C2-1B5" ID="30004191" Region="钴蓝边域" y="340.00" /><text y="340.00" x="820.00" id="3583">C2-1B5</text><rect Type="system" x="870.00" id="3585" height="5.00" width="5.00" Name="2-9Z6V" ID="30004184" Region="钴蓝边域" y="650.00" /><text y="650.00" x="870.00" id="3586">2-9Z6V</text><rect Type="system" x="840.00" id="3588" height="5.00" width="5.00" Name="5HN-D6" ID="30004185" Region="钴蓝边域" y="550.00" /><text y="550.00" x="840.00" id="3589">5HN-D6</text><rect Type="system" x="840.00" id="3591" height="5.00" width="5.00" Name="5ED-4E" ID="30004193" Region="钴蓝边域" y="260.00" /><text y="260.00" x="840.00" id="3592">5ED-4E</text><rect Type="system" x="900.00" id="3594" height="5.00" width="5.00" Name="P-H5IY" ID="30004187" Region="钴蓝边域" y="530.00" /><text y="530.00" x="900.00" id="3595">P-H5IY</text><rect Type="system" x="880.00" id="3597" height="5.00" width="5.00" Name="JE-VLG" ID="30004192" Region="钴蓝边域" y="320.00" /><text y="320.00" x="880.00" id="3598">JE-VLG</text><rect Type="system" x="841.91" id="3600" height="5.00" width="5.00" Name="T-67F8" ID="30004211" Region="钴蓝边域" y="70.96" /><text y="70.96" x="841.91" id="3601">T-67F8</text><rect Type="system" x="910.00" id="3603" height="5.00" width="5.00" Name="87-1PM" ID="30004190" Region="钴蓝边域" y="370.00" /><text y="370.00" x="910.00" id="3604">87-1PM</text><rect Type="system" x="970.00" id="3606" height="5.00" width="5.00" Name="1M7-RK" ID="30004189" Region="钴蓝边域" y="530.00" /><text y="530.00" x="970.00" id="3607">1M7-RK</text><rect Type="system" x="960.00" id="3609" height="5.00" width="5.00" Name="DN58-U" ID="30004195" Region="钴蓝边域" y="270.00" /><text y="270.00" x="960.00" id="3610">DN58-U</text><rect Type="system" x="890.00" id="3612" height="5.00" width="5.00" Name="M-VACR" ID="30004213" Region="钴蓝边域" y="50.00" /><text y="50.00" x="890.00" id="3613">M-VACR</text><rect Type="system" x="890.00" id="3615" height="5.00" width="5.00" Name="58Z-IH" ID="30004212" Region="钴蓝边域" y="100.00" /><text y="100.00" x="890.00" id="3616">58Z-IH</text><rect Type="system" x="50.00" id="3618" height="5.00" width="5.00" Name="R8WV-7" ID="30003209" Region="欧莎" y="620.00" /><text y="620.00" x="50.00" id="3619">R8WV-7</text><rect Type="system" x="50.00" id="3621" height="5.00" width="5.00" Name="SF-XJS" ID="30003654" Region="特纳" y="50.00" /><text y="50.00" x="50.00" id="3622">SF-XJS</text><rect Type="system" x="50.00" id="3624" height="5.00" width="5.00" Name="IAMJ-Q" ID="30003241" Region="欧莎" y="350.00" /><text y="350.00" x="50.00" id="3625">IAMJ-Q</text><rect Type="system" x="220.00" id="3627" height="5.00" width="5.00" Name="2ID-87" ID="30001774" Region="域外走廊" y="680.00" /><text y="680.00" x="220.00" id="3628">2ID-87</text><rect Type="system" x="680.00" id="3630" height="5.00" width="5.00" Name="XEF6-Z" ID="30003224" Region="欧莎" y="750.00" /><text y="750.00" x="680.00" id="3631">XEF6-Z</text><line style="stroke:blue;fill:blue;" id="3633" x2="100.00" x1="40.00" y1="170.00" y2="180.00" /><line style="stroke:blue;fill:blue;" id="3634" x2="100.00" x1="80.00" y1="120.00" y2="180.00" /><line style="stroke:blue;fill:blue;" id="3635" x2="150.00" x1="100.00" y1="180.00" y2="220.00" /><line style="stroke:blue;fill:blue;" id="3636" x2="40.00" x1="100.00" y1="180.00" y2="170.00" /><line style="stroke:blue;fill:blue;" id="3637" x2="80.00" x1="100.00" y1="180.00" y2="120.00" /><line style="stroke:blue;fill:blue;" id="3638" x2="150.00" x1="150.00" y1="570.00" y2="620.00" /><line style="stroke:blue;fill:blue;" id="3639" x2="220.00" x1="150.00" y1="570.00" y2="570.00" /><line style="stroke:blue;fill:blue;" id="3640" x2="190.00" x1="150.00" y1="570.00" y2="520.00" /><line style="stroke:blue;fill:blue;" id="3641" x2="50.00" x1="150.00" y1="620.00" y2="620.00" /><line style="stroke:blue;fill:blue;" id="3642" x2="150.00" x1="150.00" y1="620.00" y2="570.00" /><line style="stroke:blue;fill:blue;" id="3643" x2="220.00" x1="150.00" y1="620.00" y2="620.00" /><line style="stroke:blue;fill:blue;" id="3644" x2="50.00" x1="120.00" y1="50.00" y2="50.00" /><line style="stroke:blue;fill:blue;" id="3645" x2="150.00" x1="120.00" y1="50.00" y2="100.00" /><line style="stroke:blue;fill:blue;" id="3646" x2="50.00" x1="150.00" y1="380.00" y2="350.00" /><line style="stroke:blue;fill:blue;" id="3647" x2="220.00" x1="150.00" y1="380.00" y2="380.00" /><line style="stroke:blue;fill:blue;" id="3648" x2="150.00" x1="190.00" y1="520.00" y2="570.00" /><line style="stroke:blue;fill:blue;" id="3649" x2="220.00" x1="190.00" y1="520.00" y2="570.00" /><line style="stroke:blue;fill:blue;" id="3650" x2="180.00" x1="150.00" y1="100.00" y2="150.00" /><line style="stroke:blue;fill:blue;" id="3651" x2="120.00" x1="150.00" y1="100.00" y2="50.00" /><line style="stroke:blue;fill:blue;" id="3652" x2="220.00" x1="150.00" y1="220.00" y2="320.00" /><line style="stroke:blue;fill:blue;" id="3653" x2="100.00" x1="150.00" y1="220.00" y2="180.00" /><line style="stroke:blue;fill:blue;" id="3654" x2="180.00" x1="150.00" y1="220.00" y2="150.00" /><line style="stroke:blue;fill:blue;" id="3655" x2="150.00" x1="180.00" y1="150.00" y2="220.00" /><line style="stroke:blue;fill:blue;" id="3656" x2="250.00" x1="180.00" y1="150.00" y2="110.00" /><line style="stroke:blue;fill:blue;" id="3657" x2="150.00" x1="180.00" y1="150.00" y2="100.00" /><line style="stroke:blue;fill:blue;" id="3658" x2="220.00" x1="220.00" y1="620.00" y2="680.00" /><line style="stroke:blue;fill:blue;" id="3659" x2="150.00" x1="220.00" y1="620.00" y2="620.00" /><line style="stroke:blue;fill:blue;" id="3660" x2="220.00" x1="220.00" y1="620.00" y2="570.00" /><line style="stroke:blue;fill:blue;" id="3661" x2="300.00" x1="220.00" y1="620.00" y2="620.00" /><line style="stroke:blue;fill:blue;" id="3662" x2="300.00" x1="220.00" y1="380.00" y2="380.00" /><line style="stroke:blue;fill:blue;" id="3663" x2="150.00" x1="220.00" y1="380.00" y2="380.00" /><line style="stroke:blue;fill:blue;" id="3664" x2="220.00" x1="220.00" y1="380.00" y2="320.00" /><line style="stroke:blue;fill:blue;" id="3665" x2="220.00" x1="220.00" y1="320.00" y2="380.00" /><line style="stroke:blue;fill:blue;" id="3666" x2="300.00" x1="220.00" y1="320.00" y2="320.00" /><line style="stroke:blue;fill:blue;" id="3667" x2="250.00" x1="220.00" y1="320.00" y2="280.00" /><line style="stroke:blue;fill:blue;" id="3668" x2="150.00" x1="220.00" y1="320.00" y2="220.00" /><line style="stroke:blue;fill:blue;" id="3669" x2="180.00" x1="250.00" y1="110.00" y2="150.00" /><line style="stroke:blue;fill:blue;" id="3670" x2="150.00" x1="220.00" y1="570.00" y2="570.00" /><line style="stroke:blue;fill:blue;" id="3671" x2="220.00" x1="220.00" y1="570.00" y2="620.00" /><line style="stroke:blue;fill:blue;" id="3672" x2="190.00" x1="220.00" y1="570.00" y2="520.00" /><line style="stroke:blue;fill:blue;" id="3673" x2="220.00" x1="250.00" y1="280.00" y2="320.00" /><line style="stroke:blue;fill:blue;" id="3674" x2="380.00" x1="250.00" y1="280.00" y2="200.00" /><line style="stroke:blue;fill:blue;" id="3675" x2="380.00" x1="280.00" y1="180.00" y2="200.00" /><line style="stroke:blue;fill:blue;" id="3676" x2="300.00" x1="300.00" y1="320.00" y2="380.00" /><line style="stroke:blue;fill:blue;" id="3677" x2="220.00" x1="300.00" y1="320.00" y2="320.00" /><line style="stroke:blue;fill:blue;" id="3678" x2="520.00" x1="300.00" y1="380.00" y2="250.00" /><line style="stroke:blue;fill:blue;" id="3679" x2="220.00" x1="300.00" y1="380.00" y2="380.00" /><line style="stroke:blue;fill:blue;" id="3680" x2="300.00" x1="300.00" y1="380.00" y2="320.00" /><line style="stroke:blue;fill:blue;" id="3681" x2="220.00" x1="300.00" y1="620.00" y2="620.00" /><line style="stroke:blue;fill:blue;" id="3682" x2="380.00" x1="300.00" y1="620.00" y2="620.00" /><line style="stroke:blue;fill:blue;" id="3683" x2="380.00" x1="350.00" y1="50.00" y2="100.00" /><line style="stroke:blue;fill:blue;" id="3684" x2="300.00" x1="380.00" y1="620.00" y2="620.00" /><line style="stroke:blue;fill:blue;" id="3685" x2="468.07" x1="380.00" y1="620.00" y2="620.44" /><line style="stroke:blue;fill:blue;" id="3686" x2="447.97" x1="380.00" y1="620.00" y2="575.75" /><line style="stroke:blue;fill:blue;" id="3687" x2="250.00" x1="380.00" y1="200.00" y2="280.00" /><line style="stroke:blue;fill:blue;" id="3688" x2="380.00" x1="380.00" y1="200.00" y2="150.00" /><line style="stroke:blue;fill:blue;" id="3689" x2="480.00" x1="380.00" y1="200.00" y2="150.00" /><line style="stroke:blue;fill:blue;" id="3690" x2="280.00" x1="380.00" y1="200.00" y2="180.00" /><line style="stroke:blue;fill:blue;" id="3691" x2="447.97" x1="380.00" y1="550.00" y2="575.75" /><line style="stroke:blue;fill:blue;" id="3692" x2="380.00" x1="380.00" y1="100.00" y2="150.00" /><line style="stroke:blue;fill:blue;" id="3693" x2="420.00" x1="380.00" y1="100.00" y2="50.00" /><line style="stroke:blue;fill:blue;" id="3694" x2="350.00" x1="380.00" y1="100.00" y2="50.00" /><line style="stroke:blue;fill:blue;" id="3695" x2="380.00" x1="380.00" y1="150.00" y2="200.00" /><line style="stroke:blue;fill:blue;" id="3696" x2="380.00" x1="380.00" y1="150.00" y2="100.00" /><line style="stroke:blue;fill:blue;" id="3697" x2="469.06" x1="410.00" y1="430.00" y2="363.77" /><line style="stroke:blue;fill:blue;" id="3698" x2="470.00" x1="410.00" y1="430.00" y2="510.00" /><line style="stroke:blue;fill:blue;" id="3699" x2="490.00" x1="410.00" y1="430.00" y2="420.00" /><line style="stroke:blue;fill:blue;" id="3700" x2="380.00" x1="420.00" y1="50.00" y2="100.00" /><line style="stroke:blue;fill:blue;" id="3701" x2="503.96" x1="450.00" y1="700.00" y2="653.80" /><line style="stroke:blue;fill:blue;" id="3702" x2="600.00" x1="470.00" y1="510.00" y2="550.00" /><line style="stroke:blue;fill:blue;" id="3703" x2="570.00" x1="470.00" y1="510.00" y2="400.00" /><line style="stroke:blue;fill:blue;" id="3704" x2="469.06" x1="470.00" y1="510.00" y2="363.77" /><line style="stroke:blue;fill:blue;" id="3705" x2="580.00" x1="470.00" y1="510.00" y2="460.00" /><line style="stroke:blue;fill:blue;" id="3706" x2="490.00" x1="470.00" y1="510.00" y2="420.00" /><line style="stroke:blue;fill:blue;" id="3707" x2="410.00" x1="470.00" y1="510.00" y2="430.00" /><line style="stroke:blue;fill:blue;" id="3708" x2="380.00" x1="447.97" y1="575.75" y2="620.00" /><line style="stroke:blue;fill:blue;" id="3709" x2="468.07" x1="447.97" y1="575.75" y2="620.44" /><line style="stroke:blue;fill:blue;" id="3710" x2="600.00" x1="447.97" y1="575.75" y2="550.00" /><line style="stroke:blue;fill:blue;" id="3711" x2="380.00" x1="447.97" y1="575.75" y2="550.00" /><line style="stroke:blue;fill:blue;" id="3712" x2="380.00" x1="468.07" y1="620.44" y2="620.00" /><line style="stroke:blue;fill:blue;" id="3713" x2="447.97" x1="468.07" y1="620.44" y2="575.75" /><line style="stroke:blue;fill:blue;" id="3714" x2="503.96" x1="468.07" y1="620.44" y2="653.80" /><line style="stroke:blue;fill:blue;" id="3715" x2="550.00" x1="468.07" y1="620.44" y2="600.00" /><line style="stroke:blue;fill:blue;" id="3716" x2="570.00" x1="469.06" y1="363.77" y2="400.00" /><line style="stroke:blue;fill:blue;" id="3717" x2="470.00" x1="469.06" y1="363.77" y2="510.00" /><line style="stroke:blue;fill:blue;" id="3718" x2="490.00" x1="469.06" y1="363.77" y2="420.00" /><line style="stroke:blue;fill:blue;" id="3719" x2="410.00" x1="469.06" y1="363.77" y2="430.00" /><line style="stroke:blue;fill:blue;" id="3720" x2="550.00" x1="469.06" y1="363.77" y2="350.00" /><line style="stroke:blue;fill:blue;" id="3721" x2="380.00" x1="480.00" y1="150.00" y2="200.00" /><line style="stroke:blue;fill:blue;" id="3722" x2="550.00" x1="480.94" y1="316.23" y2="300.00" /><line style="stroke:blue;fill:blue;" id="3723" x2="550.00" x1="503.96" y1="653.80" y2="700.00" /><line style="stroke:blue;fill:blue;" id="3724" x2="468.07" x1="503.96" y1="653.80" y2="620.44" /><line style="stroke:blue;fill:blue;" id="3725" x2="450.00" x1="503.96" y1="653.80" y2="700.00" /><line style="stroke:blue;fill:blue;" id="3726" x2="570.00" x1="490.00" y1="420.00" y2="400.00" /><line style="stroke:blue;fill:blue;" id="3727" x2="469.06" x1="490.00" y1="420.00" y2="363.77" /><line style="stroke:blue;fill:blue;" id="3728" x2="470.00" x1="490.00" y1="420.00" y2="510.00" /><line style="stroke:blue;fill:blue;" id="3729" x2="580.00" x1="490.00" y1="420.00" y2="460.00" /><line style="stroke:blue;fill:blue;" id="3730" x2="410.00" x1="490.00" y1="420.00" y2="430.00" /><line style="stroke:blue;fill:blue;" id="3731" x2="520.00" x1="550.00" y1="200.00" y2="250.00" /><line style="stroke:blue;fill:blue;" id="3732" x2="700.00" x1="550.00" y1="200.00" y2="100.00" /><line style="stroke:blue;fill:blue;" id="3733" x2="750.00" x1="520.00" y1="250.00" y2="250.00" /><line style="stroke:blue;fill:blue;" id="3734" x2="550.00" x1="520.00" y1="250.00" y2="300.00" /><line style="stroke:blue;fill:blue;" id="3735" x2="550.00" x1="520.00" y1="250.00" y2="200.00" /><line style="stroke:blue;fill:blue;" id="3736" x2="300.00" x1="520.00" y1="250.00" y2="380.00" /><line style="stroke:blue;fill:blue;" id="3737" x2="468.07" x1="550.00" y1="600.00" y2="620.44" /><line style="stroke:blue;fill:blue;" id="3738" x2="600.00" x1="550.00" y1="600.00" y2="550.00" /><line style="stroke:blue;fill:blue;" id="3739" x2="620.00" x1="550.00" y1="700.00" y2="700.00" /><line style="stroke:blue;fill:blue;" id="3740" x2="503.96" x1="550.00" y1="700.00" y2="653.80" /><line style="stroke:blue;fill:blue;" id="3741" x2="550.00" x1="550.00" y1="300.00" y2="350.00" /><line style="stroke:blue;fill:blue;" id="3742" x2="620.00" x1="550.00" y1="300.00" y2="320.00" /><line style="stroke:blue;fill:blue;" id="3743" x2="480.94" x1="550.00" y1="300.00" y2="316.23" /><line style="stroke:blue;fill:blue;" id="3744" x2="520.00" x1="550.00" y1="300.00" y2="250.00" /><line style="stroke:blue;fill:blue;" id="3745" x2="469.06" x1="550.00" y1="350.00" y2="363.77" /><line style="stroke:blue;fill:blue;" id="3746" x2="620.00" x1="550.00" y1="350.00" y2="320.00" /><line style="stroke:blue;fill:blue;" id="3747" x2="550.00" x1="550.00" y1="350.00" y2="300.00" /><line style="stroke:blue;fill:blue;" id="3748" x2="570.00" x1="580.00" y1="460.00" y2="400.00" /><line style="stroke:blue;fill:blue;" id="3749" x2="470.00" x1="580.00" y1="460.00" y2="510.00" /><line style="stroke:blue;fill:blue;" id="3750" x2="490.00" x1="580.00" y1="460.00" y2="420.00" /><line style="stroke:blue;fill:blue;" id="3751" x2="620.00" x1="600.00" y1="550.00" y2="600.00" /><line style="stroke:blue;fill:blue;" id="3752" x2="447.97" x1="600.00" y1="550.00" y2="575.75" /><line style="stroke:blue;fill:blue;" id="3753" x2="550.00" x1="600.00" y1="550.00" y2="600.00" /><line style="stroke:blue;fill:blue;" id="3754" x2="720.00" x1="600.00" y1="550.00" y2="450.00" /><line style="stroke:blue;fill:blue;" id="3755" x2="720.00" x1="600.00" y1="550.00" y2="580.00" /><line style="stroke:blue;fill:blue;" id="3756" x2="470.00" x1="600.00" y1="550.00" y2="510.00" /><line style="stroke:blue;fill:blue;" id="3757" x2="720.00" x1="570.00" y1="400.00" y2="450.00" /><line style="stroke:blue;fill:blue;" id="3758" x2="469.06" x1="570.00" y1="400.00" y2="363.77" /><line style="stroke:blue;fill:blue;" id="3759" x2="470.00" x1="570.00" y1="400.00" y2="510.00" /><line style="stroke:blue;fill:blue;" id="3760" x2="580.00" x1="570.00" y1="400.00" y2="460.00" /><line style="stroke:blue;fill:blue;" id="3761" x2="490.00" x1="570.00" y1="400.00" y2="420.00" /><line style="stroke:blue;fill:blue;" id="3762" x2="550.00" x1="620.00" y1="320.00" y2="350.00" /><line style="stroke:blue;fill:blue;" id="3763" x2="550.00" x1="620.00" y1="320.00" y2="300.00" /><line style="stroke:blue;fill:blue;" id="3764" x2="620.00" x1="620.00" y1="600.00" y2="700.00" /><line style="stroke:blue;fill:blue;" id="3765" x2="600.00" x1="620.00" y1="600.00" y2="550.00" /><line style="stroke:blue;fill:blue;" id="3766" x2="680.00" x1="620.00" y1="700.00" y2="750.00" /><line style="stroke:blue;fill:blue;" id="3767" x2="550.00" x1="620.00" y1="700.00" y2="700.00" /><line style="stroke:blue;fill:blue;" id="3768" x2="620.00" x1="620.00" y1="700.00" y2="600.00" /><line style="stroke:blue;fill:blue;" id="3769" x2="700.00" x1="700.00" y1="50.00" y2="100.00" /><line style="stroke:blue;fill:blue;" id="3770" x2="550.00" x1="700.00" y1="100.00" y2="200.00" /><line style="stroke:blue;fill:blue;" id="3771" x2="800.00" x1="700.00" y1="100.00" y2="100.00" /><line style="stroke:blue;fill:blue;" id="3772" x2="700.00" x1="700.00" y1="100.00" y2="50.00" /><line style="stroke:blue;fill:blue;" id="3773" x2="810.00" x1="760.00" y1="660.00" y2="600.00" /><line style="stroke:blue;fill:blue;" id="3774" x2="810.00" x1="760.00" y1="660.00" y2="710.00" /><line style="stroke:blue;fill:blue;" id="3775" x2="600.00" x1="720.00" y1="450.00" y2="550.00" /><line style="stroke:blue;fill:blue;" id="3776" x2="570.00" x1="720.00" y1="450.00" y2="400.00" /><line style="stroke:blue;fill:blue;" id="3777" x2="910.00" x1="720.00" y1="450.00" y2="370.00" /><line style="stroke:blue;fill:blue;" id="3778" x2="600.00" x1="720.00" y1="580.00" y2="550.00" /><line style="stroke:blue;fill:blue;" id="3779" x2="810.00" x1="720.00" y1="580.00" y2="600.00" /><line style="stroke:blue;fill:blue;" id="3780" x2="870.00" x1="810.00" y1="710.00" y2="650.00" /><line style="stroke:blue;fill:blue;" id="3781" x2="760.00" x1="810.00" y1="710.00" y2="660.00" /><line style="stroke:blue;fill:blue;" id="3782" x2="840.00" x1="750.00" y1="250.00" y2="260.00" /><line style="stroke:blue;fill:blue;" id="3783" x2="520.00" x1="750.00" y1="250.00" y2="250.00" /><line style="stroke:blue;fill:blue;" id="3784" x2="720.00" x1="810.00" y1="600.00" y2="580.00" /><line style="stroke:blue;fill:blue;" id="3785" x2="870.00" x1="810.00" y1="600.00" y2="650.00" /><line style="stroke:blue;fill:blue;" id="3786" x2="840.00" x1="810.00" y1="600.00" y2="550.00" /><line style="stroke:blue;fill:blue;" id="3787" x2="760.00" x1="810.00" y1="600.00" y2="660.00" /><line style="stroke:blue;fill:blue;" id="3788" x2="800.00" x1="798.09" y1="49.04" y2="100.00" /><line style="stroke:blue;fill:blue;" id="3789" x2="841.91" x1="798.09" y1="49.04" y2="70.96" /><line style="stroke:blue;fill:blue;" id="3790" x2="890.00" x1="798.09" y1="49.04" y2="50.00" /><line style="stroke:blue;fill:blue;" id="3791" x2="700.00" x1="800.00" y1="100.00" y2="100.00" /><line style="stroke:blue;fill:blue;" id="3792" x2="798.09" x1="800.00" y1="100.00" y2="49.04" /><line style="stroke:blue;fill:blue;" id="3793" x2="890.00" x1="800.00" y1="100.00" y2="100.00" /><line style="stroke:blue;fill:blue;" id="3794" x2="910.00" x1="820.00" y1="340.00" y2="370.00" /><line style="stroke:blue;fill:blue;" id="3795" x2="880.00" x1="820.00" y1="340.00" y2="320.00" /><line style="stroke:blue;fill:blue;" id="3796" x2="840.00" x1="820.00" y1="340.00" y2="260.00" /><line style="stroke:blue;fill:blue;" id="3797" x2="810.00" x1="870.00" y1="650.00" y2="600.00" /><line style="stroke:blue;fill:blue;" id="3798" x2="810.00" x1="870.00" y1="650.00" y2="710.00" /><line style="stroke:blue;fill:blue;" id="3799" x2="810.00" x1="840.00" y1="550.00" y2="600.00" /><line style="stroke:blue;fill:blue;" id="3800" x2="900.00" x1="840.00" y1="550.00" y2="530.00" /><line style="stroke:blue;fill:blue;" id="3801" x2="820.00" x1="840.00" y1="260.00" y2="340.00" /><line style="stroke:blue;fill:blue;" id="3802" x2="880.00" x1="840.00" y1="260.00" y2="320.00" /><line style="stroke:blue;fill:blue;" id="3803" x2="750.00" x1="840.00" y1="260.00" y2="250.00" /><line style="stroke:blue;fill:blue;" id="3804" x2="960.00" x1="840.00" y1="260.00" y2="270.00" /><line style="stroke:blue;fill:blue;" id="3805" x2="840.00" x1="900.00" y1="530.00" y2="550.00" /><line style="stroke:blue;fill:blue;" id="3806" x2="970.00" x1="900.00" y1="530.00" y2="530.00" /><line style="stroke:blue;fill:blue;" id="3807" x2="820.00" x1="880.00" y1="320.00" y2="340.00" /><line style="stroke:blue;fill:blue;" id="3808" x2="840.00" x1="880.00" y1="320.00" y2="260.00" /><line style="stroke:blue;fill:blue;" id="3809" x2="960.00" x1="880.00" y1="320.00" y2="270.00" /><line style="stroke:blue;fill:blue;" id="3810" x2="798.09" x1="841.91" y1="70.96" y2="49.04" /><line style="stroke:blue;fill:blue;" id="3811" x2="890.00" x1="841.91" y1="70.96" y2="100.00" /><line style="stroke:blue;fill:blue;" id="3812" x2="720.00" x1="910.00" y1="370.00" y2="450.00" /><line style="stroke:blue;fill:blue;" id="3813" x2="820.00" x1="910.00" y1="370.00" y2="340.00" /><line style="stroke:blue;fill:blue;" id="3814" x2="960.00" x1="910.00" y1="370.00" y2="270.00" /><line style="stroke:blue;fill:blue;" id="3815" x2="900.00" x1="970.00" y1="530.00" y2="530.00" /><line style="stroke:blue;fill:blue;" id="3816" x2="910.00" x1="960.00" y1="270.00" y2="370.00" /><line style="stroke:blue;fill:blue;" id="3817" x2="880.00" x1="960.00" y1="270.00" y2="320.00" /><line style="stroke:blue;fill:blue;" id="3818" x2="840.00" x1="960.00" y1="270.00" y2="260.00" /><line style="stroke:blue;fill:blue;" id="3819" x2="798.09" x1="890.00" y1="50.00" y2="49.04" /><line style="stroke:blue;fill:blue;" id="3820" x2="890.00" x1="890.00" y1="50.00" y2="100.00" /><line style="stroke:blue;fill:blue;" id="3821" x2="800.00" x1="890.00" y1="100.00" y2="100.00" /><line style="stroke:blue;fill:blue;" id="3822" x2="841.91" x1="890.00" y1="100.00" y2="70.96" /><line style="stroke:blue;fill:blue;" id="3823" x2="890.00" x1="890.00" y1="100.00" y2="50.00" /><line style="stroke:blue;fill:blue;" id="3824" x2="150.00" x1="50.00" y1="620.00" y2="620.00" /><line style="stroke:blue;fill:blue;" id="3825" x2="120.00" x1="50.00" y1="50.00" y2="50.00" /><line style="stroke:blue;fill:blue;" id="3826" x2="150.00" x1="50.00" y1="350.00" y2="380.00" /><line style="stroke:blue;fill:blue;" id="3827" x2="220.00" x1="220.00" y1="680.00" y2="620.00" /><line style="stroke:blue;fill:blue;" id="3828" x2="620.00" x1="680.00" y1="750.00" y2="700.00" /></svg>
