<?xml version="1.0" standalone="yes"?><!DOCTYPE svg PUBLIC "-//W3C//DTD SVG 1.1//EN" "http://www.w3.org/Graphics/SVG/1.1/DTD/svg11.dtd"[]><svg height="800.00" id="3401" width="1050.00" xmlns="http://www.w3.org/2000/svg" xmlns:xlink="http://www.w3.org/1999/xlink"><rect Type="system" Region="钴蓝边域" height="5.00" y="170.00" Name="42SU-L" width="5.00" x="40.00" id="3402" ID="30004224" /><text x="40.00" y="170.00" id="3403">42SU-L</text><rect Type="system" Region="钴蓝边域" height="5.00" y="120.00" Name="Q-VTWJ" width="5.00" x="80.00" id="3405" ID="30004229" /><text x="80.00" y="120.00" id="3406">Q-VTWJ</text><rect Type="system" Region="钴蓝边域" height="5.00" y="180.00" Name="MO-YDG" width="5.00" x="100.00" id="3408" ID="30004223" /><text x="100.00" y="180.00" id="3409">MO-YDG</text><rect Type="system" Region="钴蓝边域" height="5.00" y="570.00" Name="J-A5QD" width="5.00" x="150.00" id="3411" ID="30004162" /><text x="150.00" y="570.00" id="3412">J-A5QD</text><rect Type="system" Region="钴蓝边域" height="5.00" y="620.00" Name="FV-YEA" width="5.00" x="150.00" id="3414" ID="30004161" /><text x="150.00" y="620.00" id="3415">FV-YEA</text><rect Type="system" Region="钴蓝边域" height="5.00" y="50.00" Name="HB-5L3" width="5.00" x="120.00" id="3417" ID="30004228" /><text x="120.00" y="50.00" id="3418">HB-5L3</text><rect Type="system" Region="钴蓝边域" height="5.00" y="380.00" Name="EJ-5X2" width="5.00" x="150.00" id="3420" ID="30004204" /><text x="150.00" y="380.00" id="3421">EJ-5X2</text><rect Type="system" Region="钴蓝边域" height="5.00" y="520.00" Name="5-3722" width="5.00" x="190.00" id="3423" ID="30004166" /><text x="190.00" y="520.00" id="3424">5-3722</text><rect Type="system" Region="钴蓝边域" height="5.00" y="100.00" Name="VY-866" width="5.00" x="150.00" id="3426" ID="30004227" /><text x="150.00" y="100.00" id="3427">VY-866</text><rect Type="system" Region="钴蓝边域" height="5.00" y="220.00" Name="D9Z-VY" width="5.00" x="150.00" id="3429" ID="30004222" /><text x="150.00" y="220.00" id="3430">D9Z-VY</text><rect Type="system" Region="钴蓝边域" height="5.00" y="150.00" Name="RGU1-T" width="5.00" x="180.00" id="3432" ID="30004225" /><text x="180.00" y="150.00" id="3433">RGU1-T</text><rect Type="system" Region="钴蓝边域" height="5.00" y="620.00" Name="SK7-G6" width="5.00" x="220.00" id="3435" ID="30004164" /><text x="220.00" y="620.00" id="3436">SK7-G6</text><rect Type="system" Region="钴蓝边域" height="5.00" y="380.00" Name="L-Z9NB" width="5.00" x="220.00" id="3438" ID="30004203" /><text x="220.00" y="380.00" id="3439">L-Z9NB</text><rect Type="system" Region="钴蓝边域" height="5.00" y="320.00" Name="4LNE-M" width="5.00" x="220.00" id="3441" ID="30004206" /><text x="220.00" y="320.00" id="3442">4LNE-M</text><rect Type="system" Region="钴蓝边域" height="5.00" y="110.00" Name="1GT-MA" width="5.00" x="250.00" id="3444" ID="30004226" /><text x="250.00" y="110.00" id="3445">1GT-MA</text><rect Type="system" Region="钴蓝边域" height="5.00" y="570.00" Name="BI0Y-X" width="5.00" x="220.00" id="3447" ID="30004163" /><text x="220.00" y="570.00" id="3448">BI0Y-X</text><rect Type="system" Region="钴蓝边域" height="5.00" y="280.00" Name="DK0-N8" width="5.00" x="250.00" id="3450" ID="30004207" /><text x="250.00" y="280.00" id="3451">DK0-N8</text><rect Type="system" Region="钴蓝边域" height="5.00" y="180.00" Name="4T-VDE" width="5.00" x="280.00" id="3453" ID="30004221" /><text x="280.00" y="180.00" id="3454">4T-VDE</text><rect Type="system" Region="钴蓝边域" height="5.00" y="320.00" Name="HXK-J6" width="5.00" x="300.00" id="3456" ID="30004205" /><text x="300.00" y="320.00" id="3457">HXK-J6</text><rect Type="system" Region="钴蓝边域" height="5.00" y="380.00" Name="U6R-F9" width="5.00" x="300.00" id="3459" ID="30004202" /><text x="300.00" y="380.00" id="3460">U6R-F9</text><rect Type="system" Region="钴蓝边域" height="5.00" y="620.00" Name="4-PCHD" width="5.00" x="300.00" id="3462" ID="30004165" /><text x="300.00" y="620.00" id="3463">4-PCHD</text><rect Type="system" Region="钴蓝边域" height="5.00" y="50.00" Name="VEQ-3V" width="5.00" x="350.00" id="3465" ID="30004220" /><text x="350.00" y="50.00" id="3466">VEQ-3V</text><rect Type="system" Region="钴蓝边域" height="5.00" y="620.00" Name="GQLB-V" width="5.00" x="380.00" id="3468" ID="30004167" /><text x="380.00" y="620.00" id="3469">GQLB-V</text><rect Type="system" Region="钴蓝边域" height="5.00" y="200.00" Name="J-QOKQ" width="5.00" x="380.00" id="3471" ID="30004215" /><text x="380.00" y="200.00" id="3472">J-QOKQ</text><rect Type="system" Region="钴蓝边域" height="5.00" y="550.00" Name="YVSL-2" width="5.00" x="380.00" id="3474" ID="30004174" /><text x="380.00" y="550.00" id="3475">YVSL-2</text><rect Type="system" Region="钴蓝边域" height="5.00" y="100.00" Name="E-EFAM" width="5.00" x="380.00" id="3477" ID="30004217" /><text x="380.00" y="100.00" id="3478">E-EFAM</text><rect Type="system" Region="钴蓝边域" height="5.00" y="150.00" Name="4GSZ-1" width="5.00" x="380.00" id="3480" ID="30004216" /><text x="380.00" y="150.00" id="3481">4GSZ-1</text><rect Type="system" Region="钴蓝边域" height="5.00" y="430.00" Name="ETXT-F" width="5.00" x="410.00" id="3483" ID="30004182" /><text x="410.00" y="430.00" id="3484">ETXT-F</text><rect Type="system" Region="钴蓝边域" height="5.00" y="50.00" Name="SBEN-Q" width="5.00" x="420.00" id="3486" ID="30004218" /><text x="420.00" y="50.00" id="3487">SBEN-Q</text><rect Type="system" Region="钴蓝边域" height="5.00" y="700.00" Name="X-41DA" width="5.00" x="450.00" id="3489" ID="30004173" /><text x="450.00" y="700.00" id="3490">X-41DA</text><rect Type="system" Region="钴蓝边域" height="5.00" y="510.00" Name="A-0IIQ" width="5.00" x="470.00" id="3492" ID="30004179" /><text x="470.00" y="510.00" id="3493">A-0IIQ</text><rect Type="system" Region="钴蓝边域" height="5.00" y="575.75" Name="9KE-IT" width="5.00" x="447.97" id="3495" ID="30004169" /><text x="447.97" y="575.75" id="3496">9KE-IT</text><rect Type="system" Region="钴蓝边域" height="5.00" y="620.44" Name="5E-EZC" width="5.00" x="468.07" id="3498" ID="30004168" /><text x="468.07" y="620.44" id="3499">5E-EZC</text><rect Type="system" Region="钴蓝边域" height="5.00" y="363.77" Name="H23-B5" width="5.00" x="469.06" id="3501" ID="30004178" /><text x="469.06" y="363.77" id="3502">H23-B5</text><rect Type="system" Region="钴蓝边域" height="5.00" y="150.00" Name="9-7SRQ" width="5.00" x="480.00" id="3504" ID="30004219" /><text x="480.00" y="150.00" id="3505">9-7SRQ</text><rect Type="system" Region="钴蓝边域" height="5.00" y="316.23" Name="O-F4SN" width="5.00" x="480.94" id="3507" ID="30004199" /><text x="480.94" y="316.23" id="3508">O-F4SN</text><rect Type="system" Region="钴蓝边域" height="5.00" y="653.80" Name="P-NRD3" width="5.00" x="503.96" id="3510" ID="30004170" /><text x="503.96" y="653.80" id="3511">P-NRD3</text><rect Type="system" Region="钴蓝边域" height="5.00" y="420.00" Name="E-BYOS" width="5.00" x="490.00" id="3513" ID="30004181" /><text x="490.00" y="420.00" id="3514">E-BYOS</text><rect Type="system" Region="钴蓝边域" height="5.00" y="200.00" Name="9-WEMC" width="5.00" x="550.00" id="3516" ID="30004201" /><text x="550.00" y="200.00" id="3517">9-WEMC</text><rect Type="system" Region="钴蓝边域" height="5.00" y="250.00" Name="CUT-0V" width="5.00" x="520.00" id="3519" ID="30004200" /><text x="520.00" y="250.00" id="3520">CUT-0V</text><rect Type="system" Region="钴蓝边域" height="5.00" y="600.00" Name="S-W8CF" width="5.00" x="550.00" id="3522" ID="30004172" /><text x="550.00" y="600.00" id="3523">S-W8CF</text><rect Type="system" Region="欧莎" height="5.00" y="700.00" Name="U9SE-N" width="5.00" x="550.00" id="3525" ID="30003227" /><text x="550.00" y="700.00" id="3526">U9SE-N</text><rect Type="system" Region="钴蓝边域" height="5.00" y="300.00" Name="QT-EBC" width="5.00" x="550.00" id="3528" ID="30004198" /><text x="550.00" y="300.00" id="3529">QT-EBC</text><rect Type="system" Region="钴蓝边域" height="5.00" y="350.00" Name="VAF1-P" width="5.00" x="550.00" id="3531" ID="30004196" /><text x="550.00" y="350.00" id="3532">VAF1-P</text><rect Type="system" Region="钴蓝边域" height="5.00" y="460.00" Name="CBY8-J" width="5.00" x="580.00" id="3534" ID="30004180" /><text x="580.00" y="460.00" id="3535">CBY8-J</text><rect Type="system" Region="钴蓝边域" height="5.00" y="550.00" Name="Y-RAW3" width="5.00" x="600.00" id="3537" ID="30004171" /><text x="600.00" y="550.00" id="3538">Y-RAW3</text><rect Type="system" Region="钴蓝边域" height="5.00" y="400.00" Name="I-CMZA" width="5.00" x="570.00" id="3540" ID="30004177" /><text x="570.00" y="400.00" id="3541">I-CMZA</text><rect Type="system" Region="钴蓝边域" height="5.00" y="320.00" Name="FV1-RQ" width="5.00" x="620.00" id="3543" ID="30004197" /><text x="620.00" y="320.00" id="3544">FV1-RQ</text><rect Type="system" Region="欧莎" height="5.00" y="600.00" Name="XXZ-3W" width="5.00" x="620.00" id="3546" ID="30003228" /><text x="620.00" y="600.00" id="3547">XXZ-3W</text><rect Type="system" Region="欧莎" height="5.00" y="700.00" Name="SON-TW" width="5.00" x="620.00" id="3549" ID="30003225" /><text x="620.00" y="700.00" id="3550">SON-TW</text><rect Type="system" Region="钴蓝边域" height="5.00" y="50.00" Name="0B-VOJ" width="5.00" x="700.00" id="3552" ID="30004214" /><text x="700.00" y="50.00" id="3553">0B-VOJ</text><rect Type="system" Region="钴蓝边域" height="5.00" y="100.00" Name="E0DR-G" width="5.00" x="700.00" id="3555" ID="30004208" /><text x="700.00" y="100.00" id="3556">E0DR-G</text><rect Type="system" Region="钴蓝边域" height="5.00" y="660.00" Name="4A-6NI" width="5.00" x="760.00" id="3558" ID="30004188" /><text x="760.00" y="660.00" id="3559">4A-6NI</text><rect Type="system" Region="钴蓝边域" height="5.00" y="450.00" Name="5E6I-W" width="5.00" x="720.00" id="3561" ID="30004175" /><text x="720.00" y="450.00" id="3562">5E6I-W</text><rect Type="system" Region="钴蓝边域" height="5.00" y="580.00" Name="KIG9-K" width="5.00" x="720.00" id="3564" ID="30004176" /><text x="720.00" y="580.00" id="3565">KIG9-K</text><rect Type="system" Region="钴蓝边域" height="5.00" y="710.00" Name="E-B957" width="5.00" x="810.00" id="3567" ID="30004186" /><text x="810.00" y="710.00" id="3568">E-B957</text><rect Type="system" Region="钴蓝边域" height="5.00" y="250.00" Name="B-U299" width="5.00" x="750.00" id="3570" ID="30004194" /><text x="750.00" y="250.00" id="3571">B-U299</text><rect Type="system" Region="钴蓝边域" height="5.00" y="600.00" Name="MK-YNM" width="5.00" x="810.00" id="3573" ID="30004183" /><text x="810.00" y="600.00" id="3574">MK-YNM</text><rect Type="system" Region="钴蓝边域" height="5.00" y="49.04" Name="CHP-76" width="5.00" x="798.09" id="3576" ID="30004210" /><text x="798.09" y="49.04" id="3577">CHP-76</text><rect Type="system" Region="钴蓝边域" height="5.00" y="100.00" Name="KI2-S3" width="5.00" x="800.00" id="3579" ID="30004209" /><text x="800.00" y="100.00" id="3580">KI2-S3</text><rect Type="system" Region="钴蓝边域" height="5.00" y="340.00" Name="C2-1B5" width="5.00" x="820.00" id="3582" ID="30004191" /><text x="820.00" y="340.00" id="3583">C2-1B5</text><rect Type="system" Region="钴蓝边域" height="5.00" y="650.00" Name="2-9Z6V" width="5.00" x="870.00" id="3585" ID="30004184" /><text x="870.00" y="650.00" id="3586">2-9Z6V</text><rect Type="system" Region="钴蓝边域" height="5.00" y="550.00" Name="5HN-D6" width="5.00" x="840.00" id="3588" ID="30004185" /><text x="840.00" y="550.00" id="3589">5HN-D6</text><rect Type="system" Region="钴蓝边域" height="5.00" y="260.00" Name="5ED-4E" width="5.00" x="840.00" id="3591" ID="30004193" /><text x="840.00" y="260.00" id="3592">5ED-4E</text><rect Type="system" Region="钴蓝边域" height="5.00" y="530.00" Name="P-H5IY" width="5.00" x="900.00" id="3594" ID="30004187" /><text x="900.00" y="530.00" id="3595">P-H5IY</text><rect Type="system" Region="钴蓝边域" height="5.00" y="320.00" Name="JE-VLG" width="5.00" x="880.00" id="3597" ID="30004192" /><text x="880.00" y="320.00" id="3598">JE-VLG</text><rect Type="system" Region="钴蓝边域" height="5.00" y="70.96" Name="T-67F8" width="5.00" x="841.91" id="3600" ID="30004211" /><text x="841.91" y="70.96" id="3601">T-67F8</text><rect Type="system" Region="钴蓝边域" height="5.00" y="370.00" Name="87-1PM" width="5.00" x="910.00" id="3603" ID="30004190" /><text x="910.00" y="370.00" id="3604">87-1PM</text><rect Type="system" Region="钴蓝边域" height="5.00" y="530.00" Name="1M7-RK" width="5.00" x="970.00" id="3606" ID="30004189" /><text x="970.00" y="530.00" id="3607">1M7-RK</text><rect Type="system" Region="钴蓝边域" height="5.00" y="270.00" Name="DN58-U" width="5.00" x="960.00" id="3609" ID="30004195" /><text x="960.00" y="270.00" id="3610">DN58-U</text><rect Type="system" Region="钴蓝边域" height="5.00" y="50.00" Name="M-VACR" width="5.00" x="890.00" id="3612" ID="30004213" /><text x="890.00" y="50.00" id="3613">M-VACR</text><rect Type="system" Region="钴蓝边域" height="5.00" y="100.00" Name="58Z-IH" width="5.00" x="890.00" id="3615" ID="30004212" /><text x="890.00" y="100.00" id="3616">58Z-IH</text><rect Type="system" Region="欧莎" height="5.00" y="620.00" Name="R8WV-7" width="5.00" x="50.00" id="3618" ID="30003209" /><text x="50.00" y="620.00" id="3619">R8WV-7</text><rect Type="system" Region="特纳" height="5.00" y="50.00" Name="SF-XJS" width="5.00" x="50.00" id="3621" ID="30003654" /><text x="50.00" y="50.00" id="3622">SF-XJS</text><rect Type="system" Region="欧莎" height="5.00" y="350.00" Name="IAMJ-Q" width="5.00" x="50.00" id="3624" ID="30003241" /><text x="50.00" y="350.00" id="3625">IAMJ-Q</text><rect Type="system" Region="域外走廊" height="5.00" y="680.00" Name="2ID-87" width="5.00" x="220.00" id="3627" ID="30001774" /><text x="220.00" y="680.00" id="3628">2ID-87</text><rect Type="system" Region="欧莎" height="5.00" y="750.00" Name="XEF6-Z" width="5.00" x="680.00" id="3630" ID="30003224" /><text x="680.00" y="750.00" id="3631">XEF6-Z</text><line x2="100.00" style="fill:blue;stroke:blue;" y1="170.00" x1="40.00" id="3633" y2="180.00" /><line x2="100.00" style="fill:blue;stroke:blue;" y1="120.00" x1="80.00" id="3634" y2="180.00" /><line x2="150.00" style="fill:blue;stroke:blue;" y1="180.00" x1="100.00" id="3635" y2="220.00" /><line x2="40.00" style="fill:blue;stroke:blue;" y1="180.00" x1="100.00" id="3636" y2="170.00" /><line x2="80.00" style="fill:blue;stroke:blue;" y1="180.00" x1="100.00" id="3637" y2="120.00" /><line x2="150.00" style="fill:blue;stroke:blue;" y1="570.00" x1="150.00" id="3638" y2="620.00" /><line x2="220.00" style="fill:blue;stroke:blue;" y1="570.00" x1="150.00" id="3639" y2="570.00" /><line x2="190.00" style="fill:blue;stroke:blue;" y1="570.00" x1="150.00" id="3640" y2="520.00" /><line x2="50.00" style="fill:blue;stroke:blue;" y1="620.00" x1="150.00" id="3641" y2="620.00" /><line x2="150.00" style="fill:blue;stroke:blue;" y1="620.00" x1="150.00" id="3642" y2="570.00" /><line x2="220.00" style="fill:blue;stroke:blue;" y1="620.00" x1="150.00" id="3643" y2="620.00" /><line x2="50.00" style="fill:blue;stroke:blue;" y1="50.00" x1="120.00" id="3644" y2="50.00" /><line x2="150.00" style="fill:blue;stroke:blue;" y1="50.00" x1="120.00" id="3645" y2="100.00" /><line x2="50.00" style="fill:blue;stroke:blue;" y1="380.00" x1="150.00" id="3646" y2="350.00" /><line x2="220.00" style="fill:blue;stroke:blue;" y1="380.00" x1="150.00" id="3647" y2="380.00" /><line x2="150.00" style="fill:blue;stroke:blue;" y1="520.00" x1="190.00" id="3648" y2="570.00" /><line x2="220.00" style="fill:blue;stroke:blue;" y1="520.00" x1="190.00" id="3649" y2="570.00" /><line x2="180.00" style="fill:blue;stroke:blue;" y1="100.00" x1="150.00" id="3650" y2="150.00" /><line x2="120.00" style="fill:blue;stroke:blue;" y1="100.00" x1="150.00" id="3651" y2="50.00" /><line x2="220.00" style="fill:blue;stroke:blue;" y1="220.00" x1="150.00" id="3652" y2="320.00" /><line x2="100.00" style="fill:blue;stroke:blue;" y1="220.00" x1="150.00" id="3653" y2="180.00" /><line x2="180.00" style="fill:blue;stroke:blue;" y1="220.00" x1="150.00" id="3654" y2="150.00" /><line x2="150.00" style="fill:blue;stroke:blue;" y1="150.00" x1="180.00" id="3655" y2="220.00" /><line x2="250.00" style="fill:blue;stroke:blue;" y1="150.00" x1="180.00" id="3656" y2="110.00" /><line x2="150.00" style="fill:blue;stroke:blue;" y1="150.00" x1="180.00" id="3657" y2="100.00" /><line x2="220.00" style="fill:blue;stroke:blue;" y1="620.00" x1="220.00" id="3658" y2="680.00" /><line x2="150.00" style="fill:blue;stroke:blue;" y1="620.00" x1="220.00" id="3659" y2="620.00" /><line x2="220.00" style="fill:blue;stroke:blue;" y1="620.00" x1="220.00" id="3660" y2="570.00" /><line x2="300.00" style="fill:blue;stroke:blue;" y1="620.00" x1="220.00" id="3661" y2="620.00" /><line x2="300.00" style="fill:blue;stroke:blue;" y1="380.00" x1="220.00" id="3662" y2="380.00" /><line x2="150.00" style="fill:blue;stroke:blue;" y1="380.00" x1="220.00" id="3663" y2="380.00" /><line x2="220.00" style="fill:blue;stroke:blue;" y1="380.00" x1="220.00" id="3664" y2="320.00" /><line x2="220.00" style="fill:blue;stroke:blue;" y1="320.00" x1="220.00" id="3665" y2="380.00" /><line x2="300.00" style="fill:blue;stroke:blue;" y1="320.00" x1="220.00" id="3666" y2="320.00" /><line x2="250.00" style="fill:blue;stroke:blue;" y1="320.00" x1="220.00" id="3667" y2="280.00" /><line x2="150.00" style="fill:blue;stroke:blue;" y1="320.00" x1="220.00" id="3668" y2="220.00" /><line x2="180.00" style="fill:blue;stroke:blue;" y1="110.00" x1="250.00" id="3669" y2="150.00" /><line x2="150.00" style="fill:blue;stroke:blue;" y1="570.00" x1="220.00" id="3670" y2="570.00" /><line x2="220.00" style="fill:blue;stroke:blue;" y1="570.00" x1="220.00" id="3671" y2="620.00" /><line x2="190.00" style="fill:blue;stroke:blue;" y1="570.00" x1="220.00" id="3672" y2="520.00" /><line x2="220.00" style="fill:blue;stroke:blue;" y1="280.00" x1="250.00" id="3673" y2="320.00" /><line x2="380.00" style="fill:blue;stroke:blue;" y1="280.00" x1="250.00" id="3674" y2="200.00" /><line x2="380.00" style="fill:blue;stroke:blue;" y1="180.00" x1="280.00" id="3675" y2="200.00" /><line x2="300.00" style="fill:blue;stroke:blue;" y1="320.00" x1="300.00" id="3676" y2="380.00" /><line x2="220.00" style="fill:blue;stroke:blue;" y1="320.00" x1="300.00" id="3677" y2="320.00" /><line x2="520.00" style="fill:blue;stroke:blue;" y1="380.00" x1="300.00" id="3678" y2="250.00" /><line x2="220.00" style="fill:blue;stroke:blue;" y1="380.00" x1="300.00" id="3679" y2="380.00" /><line x2="300.00" style="fill:blue;stroke:blue;" y1="380.00" x1="300.00" id="3680" y2="320.00" /><line x2="220.00" style="fill:blue;stroke:blue;" y1="620.00" x1="300.00" id="3681" y2="620.00" /><line x2="380.00" style="fill:blue;stroke:blue;" y1="620.00" x1="300.00" id="3682" y2="620.00" /><line x2="380.00" style="fill:blue;stroke:blue;" y1="50.00" x1="350.00" id="3683" y2="100.00" /><line x2="300.00" style="fill:blue;stroke:blue;" y1="620.00" x1="380.00" id="3684" y2="620.00" /><line x2="468.07" style="fill:blue;stroke:blue;" y1="620.00" x1="380.00" id="3685" y2="620.44" /><line x2="447.97" style="fill:blue;stroke:blue;" y1="620.00" x1="380.00" id="3686" y2="575.75" /><line x2="250.00" style="fill:blue;stroke:blue;" y1="200.00" x1="380.00" id="3687" y2="280.00" /><line x2="380.00" style="fill:blue;stroke:blue;" y1="200.00" x1="380.00" id="3688" y2="150.00" /><line x2="480.00" style="fill:blue;stroke:blue;" y1="200.00" x1="380.00" id="3689" y2="150.00" /><line x2="280.00" style="fill:blue;stroke:blue;" y1="200.00" x1="380.00" id="3690" y2="180.00" /><line x2="447.97" style="fill:blue;stroke:blue;" y1="550.00" x1="380.00" id="3691" y2="575.75" /><line x2="380.00" style="fill:blue;stroke:blue;" y1="100.00" x1="380.00" id="3692" y2="150.00" /><line x2="420.00" style="fill:blue;stroke:blue;" y1="100.00" x1="380.00" id="3693" y2="50.00" /><line x2="350.00" style="fill:blue;stroke:blue;" y1="100.00" x1="380.00" id="3694" y2="50.00" /><line x2="380.00" style="fill:blue;stroke:blue;" y1="150.00" x1="380.00" id="3695" y2="200.00" /><line x2="380.00" style="fill:blue;stroke:blue;" y1="150.00" x1="380.00" id="3696" y2="100.00" /><line x2="469.06" style="fill:blue;stroke:blue;" y1="430.00" x1="410.00" id="3697" y2="363.77" /><line x2="470.00" style="fill:blue;stroke:blue;" y1="430.00" x1="410.00" id="3698" y2="510.00" /><line x2="490.00" style="fill:blue;stroke:blue;" y1="430.00" x1="410.00" id="3699" y2="420.00" /><line x2="380.00" style="fill:blue;stroke:blue;" y1="50.00" x1="420.00" id="3700" y2="100.00" /><line x2="503.96" style="fill:blue;stroke:blue;" y1="700.00" x1="450.00" id="3701" y2="653.80" /><line x2="600.00" style="fill:blue;stroke:blue;" y1="510.00" x1="470.00" id="3702" y2="550.00" /><line x2="570.00" style="fill:blue;stroke:blue;" y1="510.00" x1="470.00" id="3703" y2="400.00" /><line x2="469.06" style="fill:blue;stroke:blue;" y1="510.00" x1="470.00" id="3704" y2="363.77" /><line x2="580.00" style="fill:blue;stroke:blue;" y1="510.00" x1="470.00" id="3705" y2="460.00" /><line x2="490.00" style="fill:blue;stroke:blue;" y1="510.00" x1="470.00" id="3706" y2="420.00" /><line x2="410.00" style="fill:blue;stroke:blue;" y1="510.00" x1="470.00" id="3707" y2="430.00" /><line x2="380.00" style="fill:blue;stroke:blue;" y1="575.75" x1="447.97" id="3708" y2="620.00" /><line x2="468.07" style="fill:blue;stroke:blue;" y1="575.75" x1="447.97" id="3709" y2="620.44" /><line x2="600.00" style="fill:blue;stroke:blue;" y1="575.75" x1="447.97" id="3710" y2="550.00" /><line x2="380.00" style="fill:blue;stroke:blue;" y1="575.75" x1="447.97" id="3711" y2="550.00" /><line x2="380.00" style="fill:blue;stroke:blue;" y1="620.44" x1="468.07" id="3712" y2="620.00" /><line x2="447.97" style="fill:blue;stroke:blue;" y1="620.44" x1="468.07" id="3713" y2="575.75" /><line x2="503.96" style="fill:blue;stroke:blue;" y1="620.44" x1="468.07" id="3714" y2="653.80" /><line x2="550.00" style="fill:blue;stroke:blue;" y1="620.44" x1="468.07" id="3715" y2="600.00" /><line x2="570.00" style="fill:blue;stroke:blue;" y1="363.77" x1="469.06" id="3716" y2="400.00" /><line x2="470.00" style="fill:blue;stroke:blue;" y1="363.77" x1="469.06" id="3717" y2="510.00" /><line x2="490.00" style="fill:blue;stroke:blue;" y1="363.77" x1="469.06" id="3718" y2="420.00" /><line x2="410.00" style="fill:blue;stroke:blue;" y1="363.77" x1="469.06" id="3719" y2="430.00" /><line x2="550.00" style="fill:blue;stroke:blue;" y1="363.77" x1="469.06" id="3720" y2="350.00" /><line x2="380.00" style="fill:blue;stroke:blue;" y1="150.00" x1="480.00" id="3721" y2="200.00" /><line x2="550.00" style="fill:blue;stroke:blue;" y1="316.23" x1="480.94" id="3722" y2="300.00" /><line x2="550.00" style="fill:blue;stroke:blue;" y1="653.80" x1="503.96" id="3723" y2="700.00" /><line x2="468.07" style="fill:blue;stroke:blue;" y1="653.80" x1="503.96" id="3724" y2="620.44" /><line x2="450.00" style="fill:blue;stroke:blue;" y1="653.80" x1="503.96" id="3725" y2="700.00" /><line x2="570.00" style="fill:blue;stroke:blue;" y1="420.00" x1="490.00" id="3726" y2="400.00" /><line x2="469.06" style="fill:blue;stroke:blue;" y1="420.00" x1="490.00" id="3727" y2="363.77" /><line x2="470.00" style="fill:blue;stroke:blue;" y1="420.00" x1="490.00" id="3728" y2="510.00" /><line x2="580.00" style="fill:blue;stroke:blue;" y1="420.00" x1="490.00" id="3729" y2="460.00" /><line x2="410.00" style="fill:blue;stroke:blue;" y1="420.00" x1="490.00" id="3730" y2="430.00" /><line x2="520.00" style="fill:blue;stroke:blue;" y1="200.00" x1="550.00" id="3731" y2="250.00" /><line x2="700.00" style="fill:blue;stroke:blue;" y1="200.00" x1="550.00" id="3732" y2="100.00" /><line x2="750.00" style="fill:blue;stroke:blue;" y1="250.00" x1="520.00" id="3733" y2="250.00" /><line x2="550.00" style="fill:blue;stroke:blue;" y1="250.00" x1="520.00" id="3734" y2="300.00" /><line x2="550.00" style="fill:blue;stroke:blue;" y1="250.00" x1="520.00" id="3735" y2="200.00" /><line x2="300.00" style="fill:blue;stroke:blue;" y1="250.00" x1="520.00" id="3736" y2="380.00" /><line x2="468.07" style="fill:blue;stroke:blue;" y1="600.00" x1="550.00" id="3737" y2="620.44" /><line x2="600.00" style="fill:blue;stroke:blue;" y1="600.00" x1="550.00" id="3738" y2="550.00" /><line x2="620.00" style="fill:blue;stroke:blue;" y1="700.00" x1="550.00" id="3739" y2="700.00" /><line x2="503.96" style="fill:blue;stroke:blue;" y1="700.00" x1="550.00" id="3740" y2="653.80" /><line x2="550.00" style="fill:blue;stroke:blue;" y1="300.00" x1="550.00" id="3741" y2="350.00" /><line x2="620.00" style="fill:blue;stroke:blue;" y1="300.00" x1="550.00" id="3742" y2="320.00" /><line x2="480.94" style="fill:blue;stroke:blue;" y1="300.00" x1="550.00" id="3743" y2="316.23" /><line x2="520.00" style="fill:blue;stroke:blue;" y1="300.00" x1="550.00" id="3744" y2="250.00" /><line x2="469.06" style="fill:blue;stroke:blue;" y1="350.00" x1="550.00" id="3745" y2="363.77" /><line x2="620.00" style="fill:blue;stroke:blue;" y1="350.00" x1="550.00" id="3746" y2="320.00" /><line x2="550.00" style="fill:blue;stroke:blue;" y1="350.00" x1="550.00" id="3747" y2="300.00" /><line x2="570.00" style="fill:blue;stroke:blue;" y1="460.00" x1="580.00" id="3748" y2="400.00" /><line x2="470.00" style="fill:blue;stroke:blue;" y1="460.00" x1="580.00" id="3749" y2="510.00" /><line x2="490.00" style="fill:blue;stroke:blue;" y1="460.00" x1="580.00" id="3750" y2="420.00" /><line x2="620.00" style="fill:blue;stroke:blue;" y1="550.00" x1="600.00" id="3751" y2="600.00" /><line x2="447.97" style="fill:blue;stroke:blue;" y1="550.00" x1="600.00" id="3752" y2="575.75" /><line x2="550.00" style="fill:blue;stroke:blue;" y1="550.00" x1="600.00" id="3753" y2="600.00" /><line x2="720.00" style="fill:blue;stroke:blue;" y1="550.00" x1="600.00" id="3754" y2="450.00" /><line x2="720.00" style="fill:blue;stroke:blue;" y1="550.00" x1="600.00" id="3755" y2="580.00" /><line x2="470.00" style="fill:blue;stroke:blue;" y1="550.00" x1="600.00" id="3756" y2="510.00" /><line x2="720.00" style="fill:blue;stroke:blue;" y1="400.00" x1="570.00" id="3757" y2="450.00" /><line x2="469.06" style="fill:blue;stroke:blue;" y1="400.00" x1="570.00" id="3758" y2="363.77" /><line x2="470.00" style="fill:blue;stroke:blue;" y1="400.00" x1="570.00" id="3759" y2="510.00" /><line x2="580.00" style="fill:blue;stroke:blue;" y1="400.00" x1="570.00" id="3760" y2="460.00" /><line x2="490.00" style="fill:blue;stroke:blue;" y1="400.00" x1="570.00" id="3761" y2="420.00" /><line x2="550.00" style="fill:blue;stroke:blue;" y1="320.00" x1="620.00" id="3762" y2="350.00" /><line x2="550.00" style="fill:blue;stroke:blue;" y1="320.00" x1="620.00" id="3763" y2="300.00" /><line x2="620.00" style="fill:blue;stroke:blue;" y1="600.00" x1="620.00" id="3764" y2="700.00" /><line x2="600.00" style="fill:blue;stroke:blue;" y1="600.00" x1="620.00" id="3765" y2="550.00" /><line x2="680.00" style="fill:blue;stroke:blue;" y1="700.00" x1="620.00" id="3766" y2="750.00" /><line x2="550.00" style="fill:blue;stroke:blue;" y1="700.00" x1="620.00" id="3767" y2="700.00" /><line x2="620.00" style="fill:blue;stroke:blue;" y1="700.00" x1="620.00" id="3768" y2="600.00" /><line x2="700.00" style="fill:blue;stroke:blue;" y1="50.00" x1="700.00" id="3769" y2="100.00" /><line x2="550.00" style="fill:blue;stroke:blue;" y1="100.00" x1="700.00" id="3770" y2="200.00" /><line x2="800.00" style="fill:blue;stroke:blue;" y1="100.00" x1="700.00" id="3771" y2="100.00" /><line x2="700.00" style="fill:blue;stroke:blue;" y1="100.00" x1="700.00" id="3772" y2="50.00" /><line x2="810.00" style="fill:blue;stroke:blue;" y1="660.00" x1="760.00" id="3773" y2="600.00" /><line x2="810.00" style="fill:blue;stroke:blue;" y1="660.00" x1="760.00" id="3774" y2="710.00" /><line x2="600.00" style="fill:blue;stroke:blue;" y1="450.00" x1="720.00" id="3775" y2="550.00" /><line x2="570.00" style="fill:blue;stroke:blue;" y1="450.00" x1="720.00" id="3776" y2="400.00" /><line x2="910.00" style="fill:blue;stroke:blue;" y1="450.00" x1="720.00" id="3777" y2="370.00" /><line x2="600.00" style="fill:blue;stroke:blue;" y1="580.00" x1="720.00" id="3778" y2="550.00" /><line x2="810.00" style="fill:blue;stroke:blue;" y1="580.00" x1="720.00" id="3779" y2="600.00" /><line x2="870.00" style="fill:blue;stroke:blue;" y1="710.00" x1="810.00" id="3780" y2="650.00" /><line x2="760.00" style="fill:blue;stroke:blue;" y1="710.00" x1="810.00" id="3781" y2="660.00" /><line x2="840.00" style="fill:blue;stroke:blue;" y1="250.00" x1="750.00" id="3782" y2="260.00" /><line x2="520.00" style="fill:blue;stroke:blue;" y1="250.00" x1="750.00" id="3783" y2="250.00" /><line x2="720.00" style="fill:blue;stroke:blue;" y1="600.00" x1="810.00" id="3784" y2="580.00" /><line x2="870.00" style="fill:blue;stroke:blue;" y1="600.00" x1="810.00" id="3785" y2="650.00" /><line x2="840.00" style="fill:blue;stroke:blue;" y1="600.00" x1="810.00" id="3786" y2="550.00" /><line x2="760.00" style="fill:blue;stroke:blue;" y1="600.00" x1="810.00" id="3787" y2="660.00" /><line x2="800.00" style="fill:blue;stroke:blue;" y1="49.04" x1="798.09" id="3788" y2="100.00" /><line x2="841.91" style="fill:blue;stroke:blue;" y1="49.04" x1="798.09" id="3789" y2="70.96" /><line x2="890.00" style="fill:blue;stroke:blue;" y1="49.04" x1="798.09" id="3790" y2="50.00" /><line x2="700.00" style="fill:blue;stroke:blue;" y1="100.00" x1="800.00" id="3791" y2="100.00" /><line x2="798.09" style="fill:blue;stroke:blue;" y1="100.00" x1="800.00" id="3792" y2="49.04" /><line x2="890.00" style="fill:blue;stroke:blue;" y1="100.00" x1="800.00" id="3793" y2="100.00" /><line x2="910.00" style="fill:blue;stroke:blue;" y1="340.00" x1="820.00" id="3794" y2="370.00" /><line x2="880.00" style="fill:blue;stroke:blue;" y1="340.00" x1="820.00" id="3795" y2="320.00" /><line x2="840.00" style="fill:blue;stroke:blue;" y1="340.00" x1="820.00" id="3796" y2="260.00" /><line x2="810.00" style="fill:blue;stroke:blue;" y1="650.00" x1="870.00" id="3797" y2="600.00" /><line x2="810.00" style="fill:blue;stroke:blue;" y1="650.00" x1="870.00" id="3798" y2="710.00" /><line x2="810.00" style="fill:blue;stroke:blue;" y1="550.00" x1="840.00" id="3799" y2="600.00" /><line x2="900.00" style="fill:blue;stroke:blue;" y1="550.00" x1="840.00" id="3800" y2="530.00" /><line x2="820.00" style="fill:blue;stroke:blue;" y1="260.00" x1="840.00" id="3801" y2="340.00" /><line x2="880.00" style="fill:blue;stroke:blue;" y1="260.00" x1="840.00" id="3802" y2="320.00" /><line x2="750.00" style="fill:blue;stroke:blue;" y1="260.00" x1="840.00" id="3803" y2="250.00" /><line x2="960.00" style="fill:blue;stroke:blue;" y1="260.00" x1="840.00" id="3804" y2="270.00" /><line x2="840.00" style="fill:blue;stroke:blue;" y1="530.00" x1="900.00" id="3805" y2="550.00" /><line x2="970.00" style="fill:blue;stroke:blue;" y1="530.00" x1="900.00" id="3806" y2="530.00" /><line x2="820.00" style="fill:blue;stroke:blue;" y1="320.00" x1="880.00" id="3807" y2="340.00" /><line x2="840.00" style="fill:blue;stroke:blue;" y1="320.00" x1="880.00" id="3808" y2="260.00" /><line x2="960.00" style="fill:blue;stroke:blue;" y1="320.00" x1="880.00" id="3809" y2="270.00" /><line x2="798.09" style="fill:blue;stroke:blue;" y1="70.96" x1="841.91" id="3810" y2="49.04" /><line x2="890.00" style="fill:blue;stroke:blue;" y1="70.96" x1="841.91" id="3811" y2="100.00" /><line x2="720.00" style="fill:blue;stroke:blue;" y1="370.00" x1="910.00" id="3812" y2="450.00" /><line x2="820.00" style="fill:blue;stroke:blue;" y1="370.00" x1="910.00" id="3813" y2="340.00" /><line x2="960.00" style="fill:blue;stroke:blue;" y1="370.00" x1="910.00" id="3814" y2="270.00" /><line x2="900.00" style="fill:blue;stroke:blue;" y1="530.00" x1="970.00" id="3815" y2="530.00" /><line x2="910.00" style="fill:blue;stroke:blue;" y1="270.00" x1="960.00" id="3816" y2="370.00" /><line x2="880.00" style="fill:blue;stroke:blue;" y1="270.00" x1="960.00" id="3817" y2="320.00" /><line x2="840.00" style="fill:blue;stroke:blue;" y1="270.00" x1="960.00" id="3818" y2="260.00" /><line x2="798.09" style="fill:blue;stroke:blue;" y1="50.00" x1="890.00" id="3819" y2="49.04" /><line x2="890.00" style="fill:blue;stroke:blue;" y1="50.00" x1="890.00" id="3820" y2="100.00" /><line x2="800.00" style="fill:blue;stroke:blue;" y1="100.00" x1="890.00" id="3821" y2="100.00" /><line x2="841.91" style="fill:blue;stroke:blue;" y1="100.00" x1="890.00" id="3822" y2="70.96" /><line x2="890.00" style="fill:blue;stroke:blue;" y1="100.00" x1="890.00" id="3823" y2="50.00" /><line x2="150.00" style="fill:blue;stroke:blue;" y1="620.00" x1="50.00" id="3824" y2="620.00" /><line x2="120.00" style="fill:blue;stroke:blue;" y1="50.00" x1="50.00" id="3825" y2="50.00" /><line x2="150.00" style="fill:blue;stroke:blue;" y1="350.00" x1="50.00" id="3826" y2="380.00" /><line x2="220.00" style="fill:blue;stroke:blue;" y1="680.00" x1="220.00" id="3827" y2="620.00" /><line x2="620.00" style="fill:blue;stroke:blue;" y1="750.00" x1="680.00" id="3828" y2="700.00" /></svg>
