<?xml version="1.0" standalone="yes"?><!DOCTYPE svg PUBLIC "-//W3C//DTD SVG 1.1//EN" "http://www.w3.org/Graphics/SVG/1.1/DTD/svg11.dtd"[]><svg width="1050.00" height="800.00" id="10258" xmlns="http://www.w3.org/2000/svg" xmlns:xlink="http://www.w3.org/1999/xlink"><rect Type="system" x="50.00" id="10259" height="5.00" width="5.00" Name="QBH5-F" ID="30004408" Region="非塔波利斯" y="200.00" /><text y="200.00" x="50.00" id="10260">QBH5-F</text><rect Type="system" x="50.00" id="10262" height="5.00" width="5.00" Name="AZN-D2" ID="30004450" Region="非塔波利斯" y="300.00" /><text y="300.00" x="50.00" id="10263">AZN-D2</text><rect Type="system" x="20.00" id="10265" height="5.00" width="5.00" Name="E-PR0S" ID="30004451" Region="非塔波利斯" y="350.00" /><text y="350.00" x="20.00" id="10266">E-PR0S</text><rect Type="system" x="50.00" id="10268" height="5.00" width="5.00" Name="VNGJ-U" ID="30004453" Region="非塔波利斯" y="400.00" /><text y="400.00" x="50.00" id="10269">VNGJ-U</text><rect Type="system" x="40.00" id="10271" height="5.00" width="5.00" Name="5-LCI7" ID="30004455" Region="非塔波利斯" y="450.00" /><text y="450.00" x="40.00" id="10272">5-LCI7</text><rect Type="system" x="50.00" id="10274" height="5.00" width="5.00" Name="UD-VZW" ID="30004404" Region="非塔波利斯" y="120.00" /><text y="120.00" x="50.00" id="10275">UD-VZW</text><rect Type="system" x="78.09" id="10277" height="5.00" width="5.00" Name="V-TN6Q" ID="30004406" Region="非塔波利斯" y="79.04" /><text y="79.04" x="78.09" id="10278">V-TN6Q</text><rect Type="system" x="80.00" id="10280" height="5.00" width="5.00" Name="VVO-R6" ID="30004457" Region="非塔波利斯" y="490.00" /><text y="490.00" x="80.00" id="10281">VVO-R6</text><rect Type="system" x="100.00" id="10283" height="5.00" width="5.00" Name="TR07-S" ID="30004452" Region="非塔波利斯" y="300.00" /><text y="300.00" x="100.00" id="10284">TR07-S</text><rect Type="system" x="100.00" id="10286" height="5.00" width="5.00" Name="2-F3OE" ID="30004454" Region="非塔波利斯" y="350.00" /><text y="350.00" x="100.00" id="10287">2-F3OE</text><rect Type="system" x="100.00" id="10289" height="5.00" width="5.00" Name="Y2-I3W" ID="30004456" Region="非塔波利斯" y="440.00" /><text y="440.00" x="100.00" id="10290">Y2-I3W</text><rect Type="system" x="121.91" id="10292" height="5.00" width="5.00" Name="3-YX2D" ID="30004405" Region="非塔波利斯" y="100.96" /><text y="100.96" x="121.91" id="10293">3-YX2D</text><rect Type="system" x="120.00" id="10295" height="5.00" width="5.00" Name="D4-2XN" ID="30004491" Region="非塔波利斯" y="750.00" /><text y="750.00" x="120.00" id="10296">D4-2XN</text><rect Type="system" x="120.00" id="10298" height="5.00" width="5.00" Name="YHP2-D" ID="30004459" Region="非塔波利斯" y="540.00" /><text y="540.00" x="120.00" id="10299">YHP2-D</text><rect Type="system" x="180.00" id="10301" height="5.00" width="5.00" Name="CL-J9W" ID="30004458" Region="非塔波利斯" y="450.00" /><text y="450.00" x="180.00" id="10302">CL-J9W</text><rect Type="system" x="180.00" id="10304" height="5.00" width="5.00" Name="PMV-G6" ID="30004411" Region="非塔波利斯" y="200.00" /><text y="200.00" x="180.00" id="10305">PMV-G6</text><rect Type="system" x="200.00" id="10307" height="5.00" width="5.00" Name="CFLF-P" ID="30004407" Region="非塔波利斯" y="100.00" /><text y="100.00" x="200.00" id="10308">CFLF-P</text><rect Type="system" x="190.00" id="10310" height="5.00" width="5.00" Name="J94-MU" ID="30004460" Region="非塔波利斯" y="570.00" /><text y="570.00" x="190.00" id="10311">J94-MU</text><rect Type="system" x="200.00" id="10313" height="5.00" width="5.00" Name="K-9UG4" ID="30004490" Region="非塔波利斯" y="750.00" /><text y="750.00" x="200.00" id="10314">K-9UG4</text><rect Type="system" x="220.00" id="10316" height="5.00" width="5.00" Name="BGN1-O" ID="30004417" Region="非塔波利斯" y="380.00" /><text y="380.00" x="220.00" id="10317">BGN1-O</text><rect Type="system" x="220.00" id="10319" height="5.00" width="5.00" Name="X6-J6R" ID="30004416" Region="非塔波利斯" y="320.00" /><text y="320.00" x="220.00" id="10320">X6-J6R</text><rect Type="system" x="250.00" id="10322" height="5.00" width="5.00" Name="J-TPTA" ID="30004410" Region="非塔波利斯" y="200.00" /><text y="200.00" x="250.00" id="10323">J-TPTA</text><rect Type="system" x="250.00" id="10325" height="5.00" width="5.00" Name="5-IZGE" ID="30004412" Region="非塔波利斯" y="250.00" /><text y="250.00" x="250.00" id="10326">5-IZGE</text><rect Type="system" x="250.00" id="10328" height="5.00" width="5.00" Name="M2GJ-X" ID="30004461" Region="非塔波利斯" y="580.00" /><text y="580.00" x="250.00" id="10329">M2GJ-X</text><rect Type="system" x="280.00" id="10331" height="5.00" width="5.00" Name="9-ZFCG" ID="30004409" Region="非塔波利斯" y="120.00" /><text y="120.00" x="280.00" id="10332">9-ZFCG</text><rect Type="system" x="280.00" id="10334" height="5.00" width="5.00" Name="2-RSC7" ID="30004492" Region="非塔波利斯" y="700.00" /><text y="700.00" x="280.00" id="10335">2-RSC7</text><rect Type="system" x="280.00" id="10337" height="5.00" width="5.00" Name="ZID-LE" ID="30004489" Region="非塔波利斯" y="750.00" /><text y="750.00" x="280.00" id="10338">ZID-LE</text><rect Type="system" x="300.00" id="10340" height="5.00" width="5.00" Name="4AZ-J8" ID="30004415" Region="非塔波利斯" y="320.00" /><text y="320.00" x="300.00" id="10341">4AZ-J8</text><rect Type="system" x="340.00" id="10343" height="5.00" width="5.00" Name="H-P4LB" ID="30004446" Region="非塔波利斯" y="520.00" /><text y="520.00" x="340.00" id="10344">H-P4LB</text><rect Type="system" x="320.00" id="10346" height="5.00" width="5.00" Name="OXC-UL" ID="30004413" Region="非塔波利斯" y="200.00" /><text y="200.00" x="320.00" id="10347">OXC-UL</text><rect Type="system" x="320.00" id="10349" height="5.00" width="5.00" Name="UB5Z-3" ID="30004463" Region="非塔波利斯" y="650.00" /><text y="650.00" x="320.00" id="10350">UB5Z-3</text><rect Type="system" x="320.00" id="10352" height="5.00" width="5.00" Name="F-8Y13" ID="30004414" Region="非塔波利斯" y="250.00" /><text y="250.00" x="320.00" id="10353">F-8Y13</text><rect Type="system" x="320.00" id="10355" height="5.00" width="5.00" Name="JO-32L" ID="30004462" Region="非塔波利斯" y="600.00" /><text y="600.00" x="320.00" id="10356">JO-32L</text><rect Type="system" x="340.00" id="10358" height="5.00" width="5.00" Name="QK-CDG" ID="30004448" Region="非塔波利斯" y="420.00" /><text y="420.00" x="340.00" id="10359">QK-CDG</text><rect Type="system" x="350.00" id="10361" height="5.00" width="5.00" Name="BG-W90" ID="30004427" Region="非塔波利斯" y="50.00" /><text y="50.00" x="350.00" id="10362">BG-W90</text><rect Type="system" x="350.00" id="10364" height="5.00" width="5.00" Name="KJ-V0P" ID="30004488" Region="非塔波利斯" y="750.00" /><text y="750.00" x="350.00" id="10365">KJ-V0P</text><rect Type="system" x="380.00" id="10367" height="5.00" width="5.00" Name="DUU1-K" ID="30004418" Region="非塔波利斯" y="150.00" /><text y="150.00" x="380.00" id="10368">DUU1-K</text><rect Type="system" x="400.00" id="10370" height="5.00" width="5.00" Name="5ELE-A" ID="30004445" Region="非塔波利斯" y="500.00" /><text y="500.00" x="400.00" id="10371">5ELE-A</text><rect Type="system" x="400.00" id="10373" height="5.00" width="5.00" Name="BJ-ZFD" ID="30004444" Region="非塔波利斯" y="450.00" /><text y="450.00" x="400.00" id="10374">BJ-ZFD</text><rect Type="system" x="400.00" id="10376" height="5.00" width="5.00" Name="MSKR-1" ID="30004464" Region="非塔波利斯" y="600.00" /><text y="600.00" x="400.00" id="10377">MSKR-1</text><rect Type="system" x="400.00" id="10379" height="5.00" width="5.00" Name="O9V-R7" ID="30004424" Region="非塔波利斯" y="300.00" /><text y="300.00" x="400.00" id="10380">O9V-R7</text><rect Type="system" x="400.00" id="10382" height="5.00" width="5.00" Name="H65-HE" ID="30004443" Region="非塔波利斯" y="400.00" /><text y="400.00" x="400.00" id="10383">H65-HE</text><rect Type="system" x="420.00" id="10385" height="5.00" width="5.00" Name="OCU4-R" ID="30004426" Region="非塔波利斯" y="50.00" /><text y="50.00" x="420.00" id="10386">OCU4-R</text><rect Type="system" x="420.00" id="10388" height="5.00" width="5.00" Name="Z-PNIA" ID="30004425" Region="非塔波利斯" y="100.00" /><text y="100.00" x="420.00" id="10389">Z-PNIA</text><rect Type="system" x="420.00" id="10391" height="5.00" width="5.00" Name="BLC-X0" ID="30004420" Region="非塔波利斯" y="250.00" /><text y="250.00" x="420.00" id="10392">BLC-X0</text><rect Type="system" x="420.00" id="10394" height="5.00" width="5.00" Name="OBK-K8" ID="30004487" Region="非塔波利斯" y="750.00" /><text y="750.00" x="420.00" id="10395">OBK-K8</text><rect Type="system" x="450.00" id="10397" height="5.00" width="5.00" Name="3L-Y9M" ID="30004419" Region="非塔波利斯" y="200.00" /><text y="200.00" x="450.00" id="10398">3L-Y9M</text><rect Type="system" x="430.00" id="10400" height="5.00" width="5.00" Name="2UK4-N" ID="30004447" Region="非塔波利斯" y="540.00" /><text y="540.00" x="430.00" id="10401">2UK4-N</text><rect Type="system" x="480.00" id="10403" height="5.00" width="5.00" Name="M-CMLV" ID="30004449" Region="非塔波利斯" y="420.00" /><text y="420.00" x="480.00" id="10404">M-CMLV</text><rect Type="system" x="479.04" id="10406" height="5.00" width="5.00" Name="K-X5AX" ID="30004421" Region="非塔波利斯" y="278.09" /><text y="278.09" x="479.04" id="10407">K-X5AX</text><rect Type="system" x="500.00" id="10409" height="5.00" width="5.00" Name="Y-YGMW" ID="30004428" Region="非塔波利斯" y="50.00" /><text y="50.00" x="500.00" id="10410">Y-YGMW</text><rect Type="system" x="500.00" id="10412" height="5.00" width="5.00" Name="75C-WN" ID="30004429" Region="非塔波利斯" y="100.00" /><text y="100.00" x="500.00" id="10413">75C-WN</text><rect Type="system" x="500.00" id="10415" height="5.00" width="5.00" Name="I5Q2-S" ID="30004430" Region="非塔波利斯" y="150.00" /><text y="150.00" x="500.00" id="10416">I5Q2-S</text><rect Type="system" x="500.96" id="10418" height="5.00" width="5.00" Name="TSG-NO" ID="30004423" Region="非塔波利斯" y="321.91" /><text y="321.91" x="500.96" id="10419">TSG-NO</text><rect Type="system" x="500.00" id="10421" height="5.00" width="5.00" Name="BJD4-E" ID="30004422" Region="非塔波利斯" y="220.00" /><text y="220.00" x="500.00" id="10422">BJD4-E</text><rect Type="system" x="520.00" id="10424" height="5.00" width="5.00" Name="M-PGT0" ID="30004478" Region="非塔波利斯" y="620.00" /><text y="620.00" x="520.00" id="10425">M-PGT0</text><rect Type="system" x="550.00" id="10427" height="5.00" width="5.00" Name="SWBV-2" ID="30004484" Region="非塔波利斯" y="750.00" /><text y="750.00" x="550.00" id="10428">SWBV-2</text><rect Type="system" x="550.00" id="10430" height="5.00" width="5.00" Name="JI-LGM" ID="30004435" Region="非塔波利斯" y="50.00" /><text y="50.00" x="550.00" id="10431">JI-LGM</text><rect Type="system" x="580.00" id="10433" height="5.00" width="5.00" Name="NPD9-A" ID="30004479" Region="非塔波利斯" y="650.00" /><text y="650.00" x="580.00" id="10434">NPD9-A</text><rect Type="system" x="580.00" id="10436" height="5.00" width="5.00" Name="PO-3QW" ID="30004431" Region="非塔波利斯" y="100.00" /><text y="100.00" x="580.00" id="10437">PO-3QW</text><rect Type="system" x="580.00" id="10439" height="5.00" width="5.00" Name="VF-FN6" ID="30004433" Region="非塔波利斯" y="150.00" /><text y="150.00" x="580.00" id="10440">VF-FN6</text><rect Type="system" x="580.00" id="10442" height="5.00" width="5.00" Name="HYPL-V" ID="30004481" Region="非塔波利斯" y="590.00" /><text y="590.00" x="580.00" id="10443">HYPL-V</text><rect Type="system" x="600.00" id="10445" height="5.00" width="5.00" Name="D6SK-L" ID="30004480" Region="非塔波利斯" y="700.00" /><text y="700.00" x="600.00" id="10446">D6SK-L</text><rect Type="system" x="600.00" id="10448" height="5.00" width="5.00" Name="0OYZ-G" ID="30004483" Region="非塔波利斯" y="750.00" /><text y="750.00" x="600.00" id="10449">0OYZ-G</text><rect Type="system" x="620.00" id="10451" height="5.00" width="5.00" Name="NW2S-A" ID="30004438" Region="非塔波利斯" y="200.00" /><text y="200.00" x="620.00" id="10452">NW2S-A</text><rect Type="system" x="650.00" id="10454" height="5.00" width="5.00" Name="5XR-KZ" ID="30004432" Region="非塔波利斯" y="100.00" /><text y="100.00" x="650.00" id="10455">5XR-KZ</text><rect Type="system" x="640.00" id="10457" height="5.00" width="5.00" Name="UTDH-N" ID="30004468" Region="非塔波利斯" y="480.00" /><text y="480.00" x="640.00" id="10458">UTDH-N</text><rect Type="system" x="650.00" id="10460" height="5.00" width="5.00" Name="U-BXU9" ID="30004436" Region="非塔波利斯" y="250.00" /><text y="250.00" x="650.00" id="10461">U-BXU9</text><rect Type="system" x="650.00" id="10463" height="5.00" width="5.00" Name="ZS-2LT" ID="30004469" Region="非塔波利斯" y="530.00" /><text y="530.00" x="650.00" id="10464">ZS-2LT</text><rect Type="system" x="650.00" id="10466" height="5.00" width="5.00" Name="6O-XIO" ID="30004442" Region="非塔波利斯" y="350.00" /><text y="350.00" x="650.00" id="10467">6O-XIO</text><rect Type="system" x="680.00" id="10469" height="5.00" width="5.00" Name="I9-ZQZ" ID="30004482" Region="非塔波利斯" y="680.00" /><text y="680.00" x="680.00" id="10470">I9-ZQZ</text><rect Type="system" x="680.00" id="10472" height="5.00" width="5.00" Name="R97-CI" ID="30004485" Region="非塔波利斯" y="750.00" /><text y="750.00" x="680.00" id="10473">R97-CI</text><rect Type="system" x="680.00" id="10475" height="5.00" width="5.00" Name="23M-PX" ID="30004467" Region="非塔波利斯" y="440.00" /><text y="440.00" x="680.00" id="10476">23M-PX</text><rect Type="system" x="700.00" id="10478" height="5.00" width="5.00" Name="DB1R-4" ID="30004470" Region="非塔波利斯" y="580.00" /><text y="580.00" x="700.00" id="10479">DB1R-4</text><rect Type="system" x="700.00" id="10481" height="5.00" width="5.00" Name="C-0ND2" ID="30004434" Region="非塔波利斯" y="120.00" /><text y="120.00" x="700.00" id="10482">C-0ND2</text><rect Type="system" x="720.00" id="10484" height="5.00" width="5.00" Name="ZXOG-O" ID="30004437" Region="非塔波利斯" y="220.00" /><text y="220.00" x="720.00" id="10485">ZXOG-O</text><rect Type="system" x="720.00" id="10487" height="5.00" width="5.00" Name="NX5W-U" ID="30004440" Region="非塔波利斯" y="280.00" /><text y="280.00" x="720.00" id="10488">NX5W-U</text><rect Type="system" x="750.00" id="10490" height="5.00" width="5.00" Name="GPUS-A" ID="30004465" Region="非塔波利斯" y="420.00" /><text y="420.00" x="750.00" id="10491">GPUS-A</text><rect Type="system" x="750.00" id="10493" height="5.00" width="5.00" Name="6-ELQP" ID="30004486" Region="非塔波利斯" y="750.00" /><text y="750.00" x="750.00" id="10494">6-ELQP</text><rect Type="system" x="750.00" id="10496" height="5.00" width="5.00" Name="U1-C18" ID="30004441" Region="非塔波利斯" y="350.00" /><text y="350.00" x="750.00" id="10497">U1-C18</text><rect Type="system" x="810.00" id="10499" height="5.00" width="5.00" Name="U-JJEW" ID="30004439" Region="非塔波利斯" y="250.00" /><text y="250.00" x="810.00" id="10500">U-JJEW</text><rect Type="system" x="820.00" id="10502" height="5.00" width="5.00" Name="3-BADZ" ID="30004466" Region="非塔波利斯" y="460.00" /><text y="460.00" x="820.00" id="10503">3-BADZ</text><rect Type="system" x="820.00" id="10505" height="5.00" width="5.00" Name="P8-BKO" ID="30004471" Region="非塔波利斯" y="120.00" /><text y="120.00" x="820.00" id="10506">P8-BKO</text><rect Type="system" x="880.00" id="10508" height="5.00" width="5.00" Name="GHZ-SJ" ID="30004474" Region="非塔波利斯" y="20.00" /><text y="20.00" x="880.00" id="10509">GHZ-SJ</text><rect Type="system" x="880.00" id="10511" height="5.00" width="5.00" Name="RIT-A7" ID="30004472" Region="非塔波利斯" y="100.00" /><text y="100.00" x="880.00" id="10512">RIT-A7</text><rect Type="system" x="920.00" id="10514" height="5.00" width="5.00" Name="5P-AIP" ID="30004477" Region="非塔波利斯" y="60.00" /><text y="60.00" x="920.00" id="10515">5P-AIP</text><rect Type="system" x="950.00" id="10517" height="5.00" width="5.00" Name="R4K-8L" ID="30004473" Region="非塔波利斯" y="150.00" /><text y="150.00" x="950.00" id="10518">R4K-8L</text><rect Type="system" x="980.00" id="10520" height="5.00" width="5.00" Name="NLO-3Z" ID="30004476" Region="非塔波利斯" y="20.00" /><text y="20.00" x="980.00" id="10521">NLO-3Z</text><rect Type="system" x="980.00" id="10523" height="5.00" width="5.00" Name="K-J50B" ID="30004475" Region="非塔波利斯" y="100.00" /><text y="100.00" x="980.00" id="10524">K-J50B</text><rect Type="system" x="50.00" id="10526" height="5.00" width="5.00" Name="C-PEWN" ID="30003169" Region="埃索特亚" y="750.00" /><text y="750.00" x="50.00" id="10527">C-PEWN</text><rect Type="system" x="100.00" id="10529" height="5.00" width="5.00" Name="IV-UNR" ID="30002594" Region="绝径" y="180.00" /><text y="180.00" x="100.00" id="10530">IV-UNR</text><rect Type="system" x="100.00" id="10532" height="5.00" width="5.00" Name="X-7BIX" ID="30003110" Region="埃索特亚" y="250.00" /><text y="250.00" x="100.00" id="10533">X-7BIX</text><rect Type="system" x="550.00" id="10535" height="5.00" width="5.00" Name="9MWZ-B" ID="30004884" Region="欧米斯特" y="380.00" /><text y="380.00" x="550.00" id="10536">9MWZ-B</text><rect Type="system" x="680.00" id="10538" height="5.00" width="5.00" Name="T2-V8F" ID="30004842" Region="特里菲斯" y="50.00" /><text y="50.00" x="680.00" id="10539">T2-V8F</text><rect Type="system" x="820.00" id="10541" height="5.00" width="5.00" Name="OKEO-X" ID="30004924" Region="欧米斯特" y="750.00" /><text y="750.00" x="820.00" id="10542">OKEO-X</text><line style="stroke:blue;fill:blue;" id="10544" x2="50.00" x1="50.00" y1="200.00" y2="120.00" /><line style="stroke:blue;fill:blue;" id="10545" x2="50.00" x1="50.00" y1="200.00" y2="300.00" /><line style="stroke:blue;fill:blue;" id="10546" x2="50.00" x1="50.00" y1="300.00" y2="200.00" /><line style="stroke:blue;fill:blue;" id="10547" x2="20.00" x1="50.00" y1="300.00" y2="350.00" /><line style="stroke:blue;fill:blue;" id="10548" x2="100.00" x1="50.00" y1="300.00" y2="300.00" /><line style="stroke:blue;fill:blue;" id="10549" x2="50.00" x1="20.00" y1="350.00" y2="300.00" /><line style="stroke:blue;fill:blue;" id="10550" x2="50.00" x1="20.00" y1="350.00" y2="400.00" /><line style="stroke:blue;fill:blue;" id="10551" x2="20.00" x1="50.00" y1="400.00" y2="350.00" /><line style="stroke:blue;fill:blue;" id="10552" x2="40.00" x1="50.00" y1="400.00" y2="450.00" /><line style="stroke:blue;fill:blue;" id="10553" x2="50.00" x1="40.00" y1="450.00" y2="400.00" /><line style="stroke:blue;fill:blue;" id="10554" x2="100.00" x1="40.00" y1="450.00" y2="440.00" /><line style="stroke:blue;fill:blue;" id="10555" x2="80.00" x1="40.00" y1="450.00" y2="490.00" /><line style="stroke:blue;fill:blue;" id="10556" x2="100.00" x1="50.00" y1="120.00" y2="180.00" /><line style="stroke:blue;fill:blue;" id="10557" x2="121.91" x1="50.00" y1="120.00" y2="100.96" /><line style="stroke:blue;fill:blue;" id="10558" x2="78.09" x1="50.00" y1="120.00" y2="79.04" /><line style="stroke:blue;fill:blue;" id="10559" x2="50.00" x1="50.00" y1="120.00" y2="200.00" /><line style="stroke:blue;fill:blue;" id="10560" x2="50.00" x1="78.09" y1="79.04" y2="120.00" /><line style="stroke:blue;fill:blue;" id="10561" x2="121.91" x1="78.09" y1="79.04" y2="100.96" /><line style="stroke:blue;fill:blue;" id="10562" x2="40.00" x1="80.00" y1="490.00" y2="450.00" /><line style="stroke:blue;fill:blue;" id="10563" x2="120.00" x1="80.00" y1="490.00" y2="540.00" /><line style="stroke:blue;fill:blue;" id="10564" x2="100.00" x1="100.00" y1="300.00" y2="250.00" /><line style="stroke:blue;fill:blue;" id="10565" x2="50.00" x1="100.00" y1="300.00" y2="300.00" /><line style="stroke:blue;fill:blue;" id="10566" x2="100.00" x1="100.00" y1="300.00" y2="350.00" /><line style="stroke:blue;fill:blue;" id="10567" x2="100.00" x1="100.00" y1="350.00" y2="300.00" /><line style="stroke:blue;fill:blue;" id="10568" x2="40.00" x1="100.00" y1="440.00" y2="450.00" /><line style="stroke:blue;fill:blue;" id="10569" x2="180.00" x1="100.00" y1="440.00" y2="450.00" /><line style="stroke:blue;fill:blue;" id="10570" x2="50.00" x1="121.91" y1="100.96" y2="120.00" /><line style="stroke:blue;fill:blue;" id="10571" x2="78.09" x1="121.91" y1="100.96" y2="79.04" /><line style="stroke:blue;fill:blue;" id="10572" x2="200.00" x1="121.91" y1="100.96" y2="100.00" /><line style="stroke:blue;fill:blue;" id="10573" x2="50.00" x1="120.00" y1="750.00" y2="750.00" /><line style="stroke:blue;fill:blue;" id="10574" x2="200.00" x1="120.00" y1="750.00" y2="750.00" /><line style="stroke:blue;fill:blue;" id="10575" x2="80.00" x1="120.00" y1="540.00" y2="490.00" /><line style="stroke:blue;fill:blue;" id="10576" x2="190.00" x1="120.00" y1="540.00" y2="570.00" /><line style="stroke:blue;fill:blue;" id="10577" x2="100.00" x1="180.00" y1="450.00" y2="440.00" /><line style="stroke:blue;fill:blue;" id="10578" x2="250.00" x1="180.00" y1="200.00" y2="200.00" /><line style="stroke:blue;fill:blue;" id="10579" x2="121.91" x1="200.00" y1="100.00" y2="100.96" /><line style="stroke:blue;fill:blue;" id="10580" x2="280.00" x1="200.00" y1="100.00" y2="120.00" /><line style="stroke:blue;fill:blue;" id="10581" x2="250.00" x1="200.00" y1="100.00" y2="200.00" /><line style="stroke:blue;fill:blue;" id="10582" x2="120.00" x1="190.00" y1="570.00" y2="540.00" /><line style="stroke:blue;fill:blue;" id="10583" x2="250.00" x1="190.00" y1="570.00" y2="580.00" /><line style="stroke:blue;fill:blue;" id="10584" x2="280.00" x1="200.00" y1="750.00" y2="750.00" /><line style="stroke:blue;fill:blue;" id="10585" x2="120.00" x1="200.00" y1="750.00" y2="750.00" /><line style="stroke:blue;fill:blue;" id="10586" x2="220.00" x1="220.00" y1="380.00" y2="320.00" /><line style="stroke:blue;fill:blue;" id="10587" x2="250.00" x1="220.00" y1="320.00" y2="250.00" /><line style="stroke:blue;fill:blue;" id="10588" x2="220.00" x1="220.00" y1="320.00" y2="380.00" /><line style="stroke:blue;fill:blue;" id="10589" x2="200.00" x1="250.00" y1="200.00" y2="100.00" /><line style="stroke:blue;fill:blue;" id="10590" x2="180.00" x1="250.00" y1="200.00" y2="200.00" /><line style="stroke:blue;fill:blue;" id="10591" x2="250.00" x1="250.00" y1="200.00" y2="250.00" /><line style="stroke:blue;fill:blue;" id="10592" x2="320.00" x1="250.00" y1="200.00" y2="200.00" /><line style="stroke:blue;fill:blue;" id="10593" x2="320.00" x1="250.00" y1="200.00" y2="250.00" /><line style="stroke:blue;fill:blue;" id="10594" x2="250.00" x1="250.00" y1="250.00" y2="200.00" /><line style="stroke:blue;fill:blue;" id="10595" x2="300.00" x1="250.00" y1="250.00" y2="320.00" /><line style="stroke:blue;fill:blue;" id="10596" x2="220.00" x1="250.00" y1="250.00" y2="320.00" /><line style="stroke:blue;fill:blue;" id="10597" x2="190.00" x1="250.00" y1="580.00" y2="570.00" /><line style="stroke:blue;fill:blue;" id="10598" x2="320.00" x1="250.00" y1="580.00" y2="600.00" /><line style="stroke:blue;fill:blue;" id="10599" x2="200.00" x1="280.00" y1="120.00" y2="100.00" /><line style="stroke:blue;fill:blue;" id="10600" x2="380.00" x1="280.00" y1="120.00" y2="150.00" /><line style="stroke:blue;fill:blue;" id="10601" x2="280.00" x1="280.00" y1="700.00" y2="750.00" /><line style="stroke:blue;fill:blue;" id="10602" x2="350.00" x1="280.00" y1="750.00" y2="750.00" /><line style="stroke:blue;fill:blue;" id="10603" x2="200.00" x1="280.00" y1="750.00" y2="750.00" /><line style="stroke:blue;fill:blue;" id="10604" x2="280.00" x1="280.00" y1="750.00" y2="700.00" /><line style="stroke:blue;fill:blue;" id="10605" x2="250.00" x1="300.00" y1="320.00" y2="250.00" /><line style="stroke:blue;fill:blue;" id="10606" x2="400.00" x1="340.00" y1="520.00" y2="500.00" /><line style="stroke:blue;fill:blue;" id="10607" x2="430.00" x1="340.00" y1="520.00" y2="540.00" /><line style="stroke:blue;fill:blue;" id="10608" x2="250.00" x1="320.00" y1="200.00" y2="200.00" /><line style="stroke:blue;fill:blue;" id="10609" x2="320.00" x1="320.00" y1="650.00" y2="600.00" /><line style="stroke:blue;fill:blue;" id="10610" x2="250.00" x1="320.00" y1="250.00" y2="200.00" /><line style="stroke:blue;fill:blue;" id="10611" x2="250.00" x1="320.00" y1="600.00" y2="580.00" /><line style="stroke:blue;fill:blue;" id="10612" x2="320.00" x1="320.00" y1="600.00" y2="650.00" /><line style="stroke:blue;fill:blue;" id="10613" x2="400.00" x1="320.00" y1="600.00" y2="600.00" /><line style="stroke:blue;fill:blue;" id="10614" x2="400.00" x1="340.00" y1="420.00" y2="400.00" /><line style="stroke:blue;fill:blue;" id="10615" x2="420.00" x1="350.00" y1="50.00" y2="50.00" /><line style="stroke:blue;fill:blue;" id="10616" x2="420.00" x1="350.00" y1="750.00" y2="750.00" /><line style="stroke:blue;fill:blue;" id="10617" x2="280.00" x1="350.00" y1="750.00" y2="750.00" /><line style="stroke:blue;fill:blue;" id="10618" x2="280.00" x1="380.00" y1="150.00" y2="120.00" /><line style="stroke:blue;fill:blue;" id="10619" x2="450.00" x1="380.00" y1="150.00" y2="200.00" /><line style="stroke:blue;fill:blue;" id="10620" x2="400.00" x1="400.00" y1="500.00" y2="450.00" /><line style="stroke:blue;fill:blue;" id="10621" x2="340.00" x1="400.00" y1="500.00" y2="520.00" /><line style="stroke:blue;fill:blue;" id="10622" x2="430.00" x1="400.00" y1="500.00" y2="540.00" /><line style="stroke:blue;fill:blue;" id="10623" x2="400.00" x1="400.00" y1="450.00" y2="400.00" /><line style="stroke:blue;fill:blue;" id="10624" x2="400.00" x1="400.00" y1="450.00" y2="500.00" /><line style="stroke:blue;fill:blue;" id="10625" x2="480.00" x1="400.00" y1="450.00" y2="420.00" /><line style="stroke:blue;fill:blue;" id="10626" x2="320.00" x1="400.00" y1="600.00" y2="600.00" /><line style="stroke:blue;fill:blue;" id="10627" x2="520.00" x1="400.00" y1="600.00" y2="620.00" /><line style="stroke:blue;fill:blue;" id="10628" x2="420.00" x1="400.00" y1="300.00" y2="250.00" /><line style="stroke:blue;fill:blue;" id="10629" x2="400.00" x1="400.00" y1="300.00" y2="400.00" /><line style="stroke:blue;fill:blue;" id="10630" x2="400.00" x1="400.00" y1="400.00" y2="300.00" /><line style="stroke:blue;fill:blue;" id="10631" x2="400.00" x1="400.00" y1="400.00" y2="450.00" /><line style="stroke:blue;fill:blue;" id="10632" x2="340.00" x1="400.00" y1="400.00" y2="420.00" /><line style="stroke:blue;fill:blue;" id="10633" x2="480.00" x1="400.00" y1="400.00" y2="420.00" /><line style="stroke:blue;fill:blue;" id="10634" x2="420.00" x1="420.00" y1="50.00" y2="100.00" /><line style="stroke:blue;fill:blue;" id="10635" x2="350.00" x1="420.00" y1="50.00" y2="50.00" /><line style="stroke:blue;fill:blue;" id="10636" x2="500.00" x1="420.00" y1="50.00" y2="50.00" /><line style="stroke:blue;fill:blue;" id="10637" x2="450.00" x1="420.00" y1="100.00" y2="200.00" /><line style="stroke:blue;fill:blue;" id="10638" x2="420.00" x1="420.00" y1="100.00" y2="50.00" /><line style="stroke:blue;fill:blue;" id="10639" x2="500.00" x1="420.00" y1="100.00" y2="100.00" /><line style="stroke:blue;fill:blue;" id="10640" x2="450.00" x1="420.00" y1="250.00" y2="200.00" /><line style="stroke:blue;fill:blue;" id="10641" x2="479.04" x1="420.00" y1="250.00" y2="278.09" /><line style="stroke:blue;fill:blue;" id="10642" x2="400.00" x1="420.00" y1="250.00" y2="300.00" /><line style="stroke:blue;fill:blue;" id="10643" x2="550.00" x1="420.00" y1="750.00" y2="750.00" /><line style="stroke:blue;fill:blue;" id="10644" x2="350.00" x1="420.00" y1="750.00" y2="750.00" /><line style="stroke:blue;fill:blue;" id="10645" x2="380.00" x1="450.00" y1="200.00" y2="150.00" /><line style="stroke:blue;fill:blue;" id="10646" x2="420.00" x1="450.00" y1="200.00" y2="250.00" /><line style="stroke:blue;fill:blue;" id="10647" x2="500.00" x1="450.00" y1="200.00" y2="220.00" /><line style="stroke:blue;fill:blue;" id="10648" x2="420.00" x1="450.00" y1="200.00" y2="100.00" /><line style="stroke:blue;fill:blue;" id="10649" x2="400.00" x1="430.00" y1="540.00" y2="500.00" /><line style="stroke:blue;fill:blue;" id="10650" x2="340.00" x1="430.00" y1="540.00" y2="520.00" /><line style="stroke:blue;fill:blue;" id="10651" x2="400.00" x1="480.00" y1="420.00" y2="400.00" /><line style="stroke:blue;fill:blue;" id="10652" x2="400.00" x1="480.00" y1="420.00" y2="450.00" /><line style="stroke:blue;fill:blue;" id="10653" x2="420.00" x1="479.04" y1="278.09" y2="250.00" /><line style="stroke:blue;fill:blue;" id="10654" x2="500.00" x1="479.04" y1="278.09" y2="220.00" /><line style="stroke:blue;fill:blue;" id="10655" x2="500.96" x1="479.04" y1="278.09" y2="321.91" /><line style="stroke:blue;fill:blue;" id="10656" x2="420.00" x1="500.00" y1="50.00" y2="50.00" /><line style="stroke:blue;fill:blue;" id="10657" x2="500.00" x1="500.00" y1="50.00" y2="100.00" /><line style="stroke:blue;fill:blue;" id="10658" x2="580.00" x1="500.00" y1="50.00" y2="100.00" /><line style="stroke:blue;fill:blue;" id="10659" x2="550.00" x1="500.00" y1="50.00" y2="50.00" /><line style="stroke:blue;fill:blue;" id="10660" x2="420.00" x1="500.00" y1="100.00" y2="100.00" /><line style="stroke:blue;fill:blue;" id="10661" x2="500.00" x1="500.00" y1="100.00" y2="50.00" /><line style="stroke:blue;fill:blue;" id="10662" x2="500.00" x1="500.00" y1="100.00" y2="150.00" /><line style="stroke:blue;fill:blue;" id="10663" x2="500.00" x1="500.00" y1="150.00" y2="100.00" /><line style="stroke:blue;fill:blue;" id="10664" x2="479.04" x1="500.96" y1="321.91" y2="278.09" /><line style="stroke:blue;fill:blue;" id="10665" x2="550.00" x1="500.96" y1="321.91" y2="380.00" /><line style="stroke:blue;fill:blue;" id="10666" x2="450.00" x1="500.00" y1="220.00" y2="200.00" /><line style="stroke:blue;fill:blue;" id="10667" x2="479.04" x1="500.00" y1="220.00" y2="278.09" /><line style="stroke:blue;fill:blue;" id="10668" x2="650.00" x1="500.00" y1="220.00" y2="250.00" /><line style="stroke:blue;fill:blue;" id="10669" x2="400.00" x1="520.00" y1="620.00" y2="600.00" /><line style="stroke:blue;fill:blue;" id="10670" x2="580.00" x1="520.00" y1="620.00" y2="650.00" /><line style="stroke:blue;fill:blue;" id="10671" x2="580.00" x1="520.00" y1="620.00" y2="590.00" /><line style="stroke:blue;fill:blue;" id="10672" x2="600.00" x1="550.00" y1="750.00" y2="750.00" /><line style="stroke:blue;fill:blue;" id="10673" x2="420.00" x1="550.00" y1="750.00" y2="750.00" /><line style="stroke:blue;fill:blue;" id="10674" x2="500.00" x1="550.00" y1="50.00" y2="50.00" /><line style="stroke:blue;fill:blue;" id="10675" x2="680.00" x1="550.00" y1="50.00" y2="50.00" /><line style="stroke:blue;fill:blue;" id="10676" x2="520.00" x1="580.00" y1="650.00" y2="620.00" /><line style="stroke:blue;fill:blue;" id="10677" x2="600.00" x1="580.00" y1="650.00" y2="700.00" /><line style="stroke:blue;fill:blue;" id="10678" x2="580.00" x1="580.00" y1="650.00" y2="590.00" /><line style="stroke:blue;fill:blue;" id="10679" x2="500.00" x1="580.00" y1="100.00" y2="50.00" /><line style="stroke:blue;fill:blue;" id="10680" x2="650.00" x1="580.00" y1="100.00" y2="100.00" /><line style="stroke:blue;fill:blue;" id="10681" x2="580.00" x1="580.00" y1="100.00" y2="150.00" /><line style="stroke:blue;fill:blue;" id="10682" x2="580.00" x1="580.00" y1="150.00" y2="100.00" /><line style="stroke:blue;fill:blue;" id="10683" x2="650.00" x1="580.00" y1="150.00" y2="100.00" /><line style="stroke:blue;fill:blue;" id="10684" x2="520.00" x1="580.00" y1="590.00" y2="620.00" /><line style="stroke:blue;fill:blue;" id="10685" x2="580.00" x1="580.00" y1="590.00" y2="650.00" /><line style="stroke:blue;fill:blue;" id="10686" x2="580.00" x1="600.00" y1="700.00" y2="650.00" /><line style="stroke:blue;fill:blue;" id="10687" x2="680.00" x1="600.00" y1="700.00" y2="680.00" /><line style="stroke:blue;fill:blue;" id="10688" x2="600.00" x1="600.00" y1="700.00" y2="750.00" /><line style="stroke:blue;fill:blue;" id="10689" x2="600.00" x1="600.00" y1="750.00" y2="700.00" /><line style="stroke:blue;fill:blue;" id="10690" x2="550.00" x1="600.00" y1="750.00" y2="750.00" /><line style="stroke:blue;fill:blue;" id="10691" x2="680.00" x1="600.00" y1="750.00" y2="750.00" /><line style="stroke:blue;fill:blue;" id="10692" x2="650.00" x1="620.00" y1="200.00" y2="250.00" /><line style="stroke:blue;fill:blue;" id="10693" x2="720.00" x1="620.00" y1="200.00" y2="220.00" /><line style="stroke:blue;fill:blue;" id="10694" x2="580.00" x1="650.00" y1="100.00" y2="100.00" /><line style="stroke:blue;fill:blue;" id="10695" x2="580.00" x1="650.00" y1="100.00" y2="150.00" /><line style="stroke:blue;fill:blue;" id="10696" x2="700.00" x1="650.00" y1="100.00" y2="120.00" /><line style="stroke:blue;fill:blue;" id="10697" x2="680.00" x1="640.00" y1="480.00" y2="440.00" /><line style="stroke:blue;fill:blue;" id="10698" x2="650.00" x1="640.00" y1="480.00" y2="530.00" /><line style="stroke:blue;fill:blue;" id="10699" x2="500.00" x1="650.00" y1="250.00" y2="220.00" /><line style="stroke:blue;fill:blue;" id="10700" x2="720.00" x1="650.00" y1="250.00" y2="220.00" /><line style="stroke:blue;fill:blue;" id="10701" x2="620.00" x1="650.00" y1="250.00" y2="200.00" /><line style="stroke:blue;fill:blue;" id="10702" x2="720.00" x1="650.00" y1="250.00" y2="280.00" /><line style="stroke:blue;fill:blue;" id="10703" x2="640.00" x1="650.00" y1="530.00" y2="480.00" /><line style="stroke:blue;fill:blue;" id="10704" x2="700.00" x1="650.00" y1="530.00" y2="580.00" /><line style="stroke:blue;fill:blue;" id="10705" x2="720.00" x1="650.00" y1="350.00" y2="280.00" /><line style="stroke:blue;fill:blue;" id="10706" x2="750.00" x1="650.00" y1="350.00" y2="350.00" /><line style="stroke:blue;fill:blue;" id="10707" x2="600.00" x1="680.00" y1="680.00" y2="700.00" /><line style="stroke:blue;fill:blue;" id="10708" x2="600.00" x1="680.00" y1="750.00" y2="750.00" /><line style="stroke:blue;fill:blue;" id="10709" x2="750.00" x1="680.00" y1="750.00" y2="750.00" /><line style="stroke:blue;fill:blue;" id="10710" x2="750.00" x1="680.00" y1="440.00" y2="420.00" /><line style="stroke:blue;fill:blue;" id="10711" x2="640.00" x1="680.00" y1="440.00" y2="480.00" /><line style="stroke:blue;fill:blue;" id="10712" x2="650.00" x1="700.00" y1="580.00" y2="530.00" /><line style="stroke:blue;fill:blue;" id="10713" x2="650.00" x1="700.00" y1="120.00" y2="100.00" /><line style="stroke:blue;fill:blue;" id="10714" x2="820.00" x1="700.00" y1="120.00" y2="120.00" /><line style="stroke:blue;fill:blue;" id="10715" x2="650.00" x1="720.00" y1="220.00" y2="250.00" /><line style="stroke:blue;fill:blue;" id="10716" x2="620.00" x1="720.00" y1="220.00" y2="200.00" /><line style="stroke:blue;fill:blue;" id="10717" x2="810.00" x1="720.00" y1="220.00" y2="250.00" /><line style="stroke:blue;fill:blue;" id="10718" x2="650.00" x1="720.00" y1="280.00" y2="250.00" /><line style="stroke:blue;fill:blue;" id="10719" x2="810.00" x1="720.00" y1="280.00" y2="250.00" /><line style="stroke:blue;fill:blue;" id="10720" x2="750.00" x1="720.00" y1="280.00" y2="350.00" /><line style="stroke:blue;fill:blue;" id="10721" x2="650.00" x1="720.00" y1="280.00" y2="350.00" /><line style="stroke:blue;fill:blue;" id="10722" x2="750.00" x1="750.00" y1="420.00" y2="350.00" /><line style="stroke:blue;fill:blue;" id="10723" x2="820.00" x1="750.00" y1="420.00" y2="460.00" /><line style="stroke:blue;fill:blue;" id="10724" x2="680.00" x1="750.00" y1="420.00" y2="440.00" /><line style="stroke:blue;fill:blue;" id="10725" x2="680.00" x1="750.00" y1="750.00" y2="750.00" /><line style="stroke:blue;fill:blue;" id="10726" x2="820.00" x1="750.00" y1="750.00" y2="750.00" /><line style="stroke:blue;fill:blue;" id="10727" x2="720.00" x1="750.00" y1="350.00" y2="280.00" /><line style="stroke:blue;fill:blue;" id="10728" x2="650.00" x1="750.00" y1="350.00" y2="350.00" /><line style="stroke:blue;fill:blue;" id="10729" x2="750.00" x1="750.00" y1="350.00" y2="420.00" /><line style="stroke:blue;fill:blue;" id="10730" x2="720.00" x1="810.00" y1="250.00" y2="220.00" /><line style="stroke:blue;fill:blue;" id="10731" x2="720.00" x1="810.00" y1="250.00" y2="280.00" /><line style="stroke:blue;fill:blue;" id="10732" x2="750.00" x1="820.00" y1="460.00" y2="420.00" /><line style="stroke:blue;fill:blue;" id="10733" x2="700.00" x1="820.00" y1="120.00" y2="120.00" /><line style="stroke:blue;fill:blue;" id="10734" x2="880.00" x1="820.00" y1="120.00" y2="100.00" /><line style="stroke:blue;fill:blue;" id="10735" x2="880.00" x1="880.00" y1="20.00" y2="100.00" /><line style="stroke:blue;fill:blue;" id="10736" x2="980.00" x1="880.00" y1="20.00" y2="20.00" /><line style="stroke:blue;fill:blue;" id="10737" x2="920.00" x1="880.00" y1="20.00" y2="60.00" /><line style="stroke:blue;fill:blue;" id="10738" x2="820.00" x1="880.00" y1="100.00" y2="120.00" /><line style="stroke:blue;fill:blue;" id="10739" x2="950.00" x1="880.00" y1="100.00" y2="150.00" /><line style="stroke:blue;fill:blue;" id="10740" x2="880.00" x1="880.00" y1="100.00" y2="20.00" /><line style="stroke:blue;fill:blue;" id="10741" x2="980.00" x1="880.00" y1="100.00" y2="100.00" /><line style="stroke:blue;fill:blue;" id="10742" x2="920.00" x1="880.00" y1="100.00" y2="60.00" /><line style="stroke:blue;fill:blue;" id="10743" x2="880.00" x1="920.00" y1="60.00" y2="100.00" /><line style="stroke:blue;fill:blue;" id="10744" x2="880.00" x1="920.00" y1="60.00" y2="20.00" /><line style="stroke:blue;fill:blue;" id="10745" x2="980.00" x1="920.00" y1="60.00" y2="20.00" /><line style="stroke:blue;fill:blue;" id="10746" x2="880.00" x1="950.00" y1="150.00" y2="100.00" /><line style="stroke:blue;fill:blue;" id="10747" x2="880.00" x1="980.00" y1="20.00" y2="20.00" /><line style="stroke:blue;fill:blue;" id="10748" x2="980.00" x1="980.00" y1="20.00" y2="100.00" /><line style="stroke:blue;fill:blue;" id="10749" x2="920.00" x1="980.00" y1="20.00" y2="60.00" /><line style="stroke:blue;fill:blue;" id="10750" x2="880.00" x1="980.00" y1="100.00" y2="100.00" /><line style="stroke:blue;fill:blue;" id="10751" x2="980.00" x1="980.00" y1="100.00" y2="20.00" /><line style="stroke:blue;fill:blue;" id="10752" x2="120.00" x1="50.00" y1="750.00" y2="750.00" /><line style="stroke:blue;fill:blue;" id="10753" x2="50.00" x1="100.00" y1="180.00" y2="120.00" /><line style="stroke:blue;fill:blue;" id="10754" x2="100.00" x1="100.00" y1="250.00" y2="300.00" /><line style="stroke:blue;fill:blue;" id="10755" x2="500.96" x1="550.00" y1="380.00" y2="321.91" /><line style="stroke:blue;fill:blue;" id="10756" x2="550.00" x1="680.00" y1="50.00" y2="50.00" /><line style="stroke:blue;fill:blue;" id="10757" x2="750.00" x1="820.00" y1="750.00" y2="750.00" /></svg>
