<?xml version="1.0" standalone="yes"?><!DOCTYPE svg PUBLIC "-//W3C//DTD SVG 1.1//EN" "http://www.w3.org/Graphics/SVG/1.1/DTD/svg11.dtd"[]><svg height="800.00" id="10258" width="1050.00" xmlns="http://www.w3.org/2000/svg" xmlns:xlink="http://www.w3.org/1999/xlink"><rect Type="system" Region="非塔波利斯" height="5.00" y="200.00" Name="QBH5-F" width="5.00" x="50.00" id="10259" ID="30004408" /><text x="50.00" y="200.00" id="10260">QBH5-F</text><rect Type="system" Region="非塔波利斯" height="5.00" y="300.00" Name="AZN-D2" width="5.00" x="50.00" id="10262" ID="30004450" /><text x="50.00" y="300.00" id="10263">AZN-D2</text><rect Type="system" Region="非塔波利斯" height="5.00" y="350.00" Name="E-PR0S" width="5.00" x="20.00" id="10265" ID="30004451" /><text x="20.00" y="350.00" id="10266">E-PR0S</text><rect Type="system" Region="非塔波利斯" height="5.00" y="400.00" Name="VNGJ-U" width="5.00" x="50.00" id="10268" ID="30004453" /><text x="50.00" y="400.00" id="10269">VNGJ-U</text><rect Type="system" Region="非塔波利斯" height="5.00" y="450.00" Name="5-LCI7" width="5.00" x="40.00" id="10271" ID="30004455" /><text x="40.00" y="450.00" id="10272">5-LCI7</text><rect Type="system" Region="非塔波利斯" height="5.00" y="120.00" Name="UD-VZW" width="5.00" x="50.00" id="10274" ID="30004404" /><text x="50.00" y="120.00" id="10275">UD-VZW</text><rect Type="system" Region="非塔波利斯" height="5.00" y="79.04" Name="V-TN6Q" width="5.00" x="78.09" id="10277" ID="30004406" /><text x="78.09" y="79.04" id="10278">V-TN6Q</text><rect Type="system" Region="非塔波利斯" height="5.00" y="490.00" Name="VVO-R6" width="5.00" x="80.00" id="10280" ID="30004457" /><text x="80.00" y="490.00" id="10281">VVO-R6</text><rect Type="system" Region="非塔波利斯" height="5.00" y="300.00" Name="TR07-S" width="5.00" x="100.00" id="10283" ID="30004452" /><text x="100.00" y="300.00" id="10284">TR07-S</text><rect Type="system" Region="非塔波利斯" height="5.00" y="350.00" Name="2-F3OE" width="5.00" x="100.00" id="10286" ID="30004454" /><text x="100.00" y="350.00" id="10287">2-F3OE</text><rect Type="system" Region="非塔波利斯" height="5.00" y="440.00" Name="Y2-I3W" width="5.00" x="100.00" id="10289" ID="30004456" /><text x="100.00" y="440.00" id="10290">Y2-I3W</text><rect Type="system" Region="非塔波利斯" height="5.00" y="100.96" Name="3-YX2D" width="5.00" x="121.91" id="10292" ID="30004405" /><text x="121.91" y="100.96" id="10293">3-YX2D</text><rect Type="system" Region="非塔波利斯" height="5.00" y="750.00" Name="D4-2XN" width="5.00" x="120.00" id="10295" ID="30004491" /><text x="120.00" y="750.00" id="10296">D4-2XN</text><rect Type="system" Region="非塔波利斯" height="5.00" y="540.00" Name="YHP2-D" width="5.00" x="120.00" id="10298" ID="30004459" /><text x="120.00" y="540.00" id="10299">YHP2-D</text><rect Type="system" Region="非塔波利斯" height="5.00" y="450.00" Name="CL-J9W" width="5.00" x="180.00" id="10301" ID="30004458" /><text x="180.00" y="450.00" id="10302">CL-J9W</text><rect Type="system" Region="非塔波利斯" height="5.00" y="200.00" Name="PMV-G6" width="5.00" x="180.00" id="10304" ID="30004411" /><text x="180.00" y="200.00" id="10305">PMV-G6</text><rect Type="system" Region="非塔波利斯" height="5.00" y="100.00" Name="CFLF-P" width="5.00" x="200.00" id="10307" ID="30004407" /><text x="200.00" y="100.00" id="10308">CFLF-P</text><rect Type="system" Region="非塔波利斯" height="5.00" y="570.00" Name="J94-MU" width="5.00" x="190.00" id="10310" ID="30004460" /><text x="190.00" y="570.00" id="10311">J94-MU</text><rect Type="system" Region="非塔波利斯" height="5.00" y="750.00" Name="K-9UG4" width="5.00" x="200.00" id="10313" ID="30004490" /><text x="200.00" y="750.00" id="10314">K-9UG4</text><rect Type="system" Region="非塔波利斯" height="5.00" y="380.00" Name="BGN1-O" width="5.00" x="220.00" id="10316" ID="30004417" /><text x="220.00" y="380.00" id="10317">BGN1-O</text><rect Type="system" Region="非塔波利斯" height="5.00" y="320.00" Name="X6-J6R" width="5.00" x="220.00" id="10319" ID="30004416" /><text x="220.00" y="320.00" id="10320">X6-J6R</text><rect Type="system" Region="非塔波利斯" height="5.00" y="200.00" Name="J-TPTA" width="5.00" x="250.00" id="10322" ID="30004410" /><text x="250.00" y="200.00" id="10323">J-TPTA</text><rect Type="system" Region="非塔波利斯" height="5.00" y="250.00" Name="5-IZGE" width="5.00" x="250.00" id="10325" ID="30004412" /><text x="250.00" y="250.00" id="10326">5-IZGE</text><rect Type="system" Region="非塔波利斯" height="5.00" y="580.00" Name="M2GJ-X" width="5.00" x="250.00" id="10328" ID="30004461" /><text x="250.00" y="580.00" id="10329">M2GJ-X</text><rect Type="system" Region="非塔波利斯" height="5.00" y="120.00" Name="9-ZFCG" width="5.00" x="280.00" id="10331" ID="30004409" /><text x="280.00" y="120.00" id="10332">9-ZFCG</text><rect Type="system" Region="非塔波利斯" height="5.00" y="700.00" Name="2-RSC7" width="5.00" x="280.00" id="10334" ID="30004492" /><text x="280.00" y="700.00" id="10335">2-RSC7</text><rect Type="system" Region="非塔波利斯" height="5.00" y="750.00" Name="ZID-LE" width="5.00" x="280.00" id="10337" ID="30004489" /><text x="280.00" y="750.00" id="10338">ZID-LE</text><rect Type="system" Region="非塔波利斯" height="5.00" y="320.00" Name="4AZ-J8" width="5.00" x="300.00" id="10340" ID="30004415" /><text x="300.00" y="320.00" id="10341">4AZ-J8</text><rect Type="system" Region="非塔波利斯" height="5.00" y="520.00" Name="H-P4LB" width="5.00" x="340.00" id="10343" ID="30004446" /><text x="340.00" y="520.00" id="10344">H-P4LB</text><rect Type="system" Region="非塔波利斯" height="5.00" y="200.00" Name="OXC-UL" width="5.00" x="320.00" id="10346" ID="30004413" /><text x="320.00" y="200.00" id="10347">OXC-UL</text><rect Type="system" Region="非塔波利斯" height="5.00" y="650.00" Name="UB5Z-3" width="5.00" x="320.00" id="10349" ID="30004463" /><text x="320.00" y="650.00" id="10350">UB5Z-3</text><rect Type="system" Region="非塔波利斯" height="5.00" y="250.00" Name="F-8Y13" width="5.00" x="320.00" id="10352" ID="30004414" /><text x="320.00" y="250.00" id="10353">F-8Y13</text><rect Type="system" Region="非塔波利斯" height="5.00" y="600.00" Name="JO-32L" width="5.00" x="320.00" id="10355" ID="30004462" /><text x="320.00" y="600.00" id="10356">JO-32L</text><rect Type="system" Region="非塔波利斯" height="5.00" y="420.00" Name="QK-CDG" width="5.00" x="340.00" id="10358" ID="30004448" /><text x="340.00" y="420.00" id="10359">QK-CDG</text><rect Type="system" Region="非塔波利斯" height="5.00" y="50.00" Name="BG-W90" width="5.00" x="350.00" id="10361" ID="30004427" /><text x="350.00" y="50.00" id="10362">BG-W90</text><rect Type="system" Region="非塔波利斯" height="5.00" y="750.00" Name="KJ-V0P" width="5.00" x="350.00" id="10364" ID="30004488" /><text x="350.00" y="750.00" id="10365">KJ-V0P</text><rect Type="system" Region="非塔波利斯" height="5.00" y="150.00" Name="DUU1-K" width="5.00" x="380.00" id="10367" ID="30004418" /><text x="380.00" y="150.00" id="10368">DUU1-K</text><rect Type="system" Region="非塔波利斯" height="5.00" y="500.00" Name="5ELE-A" width="5.00" x="400.00" id="10370" ID="30004445" /><text x="400.00" y="500.00" id="10371">5ELE-A</text><rect Type="system" Region="非塔波利斯" height="5.00" y="450.00" Name="BJ-ZFD" width="5.00" x="400.00" id="10373" ID="30004444" /><text x="400.00" y="450.00" id="10374">BJ-ZFD</text><rect Type="system" Region="非塔波利斯" height="5.00" y="600.00" Name="MSKR-1" width="5.00" x="400.00" id="10376" ID="30004464" /><text x="400.00" y="600.00" id="10377">MSKR-1</text><rect Type="system" Region="非塔波利斯" height="5.00" y="300.00" Name="O9V-R7" width="5.00" x="400.00" id="10379" ID="30004424" /><text x="400.00" y="300.00" id="10380">O9V-R7</text><rect Type="system" Region="非塔波利斯" height="5.00" y="400.00" Name="H65-HE" width="5.00" x="400.00" id="10382" ID="30004443" /><text x="400.00" y="400.00" id="10383">H65-HE</text><rect Type="system" Region="非塔波利斯" height="5.00" y="50.00" Name="OCU4-R" width="5.00" x="420.00" id="10385" ID="30004426" /><text x="420.00" y="50.00" id="10386">OCU4-R</text><rect Type="system" Region="非塔波利斯" height="5.00" y="100.00" Name="Z-PNIA" width="5.00" x="420.00" id="10388" ID="30004425" /><text x="420.00" y="100.00" id="10389">Z-PNIA</text><rect Type="system" Region="非塔波利斯" height="5.00" y="250.00" Name="BLC-X0" width="5.00" x="420.00" id="10391" ID="30004420" /><text x="420.00" y="250.00" id="10392">BLC-X0</text><rect Type="system" Region="非塔波利斯" height="5.00" y="750.00" Name="OBK-K8" width="5.00" x="420.00" id="10394" ID="30004487" /><text x="420.00" y="750.00" id="10395">OBK-K8</text><rect Type="system" Region="非塔波利斯" height="5.00" y="200.00" Name="3L-Y9M" width="5.00" x="450.00" id="10397" ID="30004419" /><text x="450.00" y="200.00" id="10398">3L-Y9M</text><rect Type="system" Region="非塔波利斯" height="5.00" y="540.00" Name="2UK4-N" width="5.00" x="430.00" id="10400" ID="30004447" /><text x="430.00" y="540.00" id="10401">2UK4-N</text><rect Type="system" Region="非塔波利斯" height="5.00" y="420.00" Name="M-CMLV" width="5.00" x="480.00" id="10403" ID="30004449" /><text x="480.00" y="420.00" id="10404">M-CMLV</text><rect Type="system" Region="非塔波利斯" height="5.00" y="278.09" Name="K-X5AX" width="5.00" x="479.04" id="10406" ID="30004421" /><text x="479.04" y="278.09" id="10407">K-X5AX</text><rect Type="system" Region="非塔波利斯" height="5.00" y="50.00" Name="Y-YGMW" width="5.00" x="500.00" id="10409" ID="30004428" /><text x="500.00" y="50.00" id="10410">Y-YGMW</text><rect Type="system" Region="非塔波利斯" height="5.00" y="100.00" Name="75C-WN" width="5.00" x="500.00" id="10412" ID="30004429" /><text x="500.00" y="100.00" id="10413">75C-WN</text><rect Type="system" Region="非塔波利斯" height="5.00" y="150.00" Name="I5Q2-S" width="5.00" x="500.00" id="10415" ID="30004430" /><text x="500.00" y="150.00" id="10416">I5Q2-S</text><rect Type="system" Region="非塔波利斯" height="5.00" y="321.91" Name="TSG-NO" width="5.00" x="500.96" id="10418" ID="30004423" /><text x="500.96" y="321.91" id="10419">TSG-NO</text><rect Type="system" Region="非塔波利斯" height="5.00" y="220.00" Name="BJD4-E" width="5.00" x="500.00" id="10421" ID="30004422" /><text x="500.00" y="220.00" id="10422">BJD4-E</text><rect Type="system" Region="非塔波利斯" height="5.00" y="620.00" Name="M-PGT0" width="5.00" x="520.00" id="10424" ID="30004478" /><text x="520.00" y="620.00" id="10425">M-PGT0</text><rect Type="system" Region="非塔波利斯" height="5.00" y="750.00" Name="SWBV-2" width="5.00" x="550.00" id="10427" ID="30004484" /><text x="550.00" y="750.00" id="10428">SWBV-2</text><rect Type="system" Region="非塔波利斯" height="5.00" y="50.00" Name="JI-LGM" width="5.00" x="550.00" id="10430" ID="30004435" /><text x="550.00" y="50.00" id="10431">JI-LGM</text><rect Type="system" Region="非塔波利斯" height="5.00" y="650.00" Name="NPD9-A" width="5.00" x="580.00" id="10433" ID="30004479" /><text x="580.00" y="650.00" id="10434">NPD9-A</text><rect Type="system" Region="非塔波利斯" height="5.00" y="100.00" Name="PO-3QW" width="5.00" x="580.00" id="10436" ID="30004431" /><text x="580.00" y="100.00" id="10437">PO-3QW</text><rect Type="system" Region="非塔波利斯" height="5.00" y="150.00" Name="VF-FN6" width="5.00" x="580.00" id="10439" ID="30004433" /><text x="580.00" y="150.00" id="10440">VF-FN6</text><rect Type="system" Region="非塔波利斯" height="5.00" y="590.00" Name="HYPL-V" width="5.00" x="580.00" id="10442" ID="30004481" /><text x="580.00" y="590.00" id="10443">HYPL-V</text><rect Type="system" Region="非塔波利斯" height="5.00" y="700.00" Name="D6SK-L" width="5.00" x="600.00" id="10445" ID="30004480" /><text x="600.00" y="700.00" id="10446">D6SK-L</text><rect Type="system" Region="非塔波利斯" height="5.00" y="750.00" Name="0OYZ-G" width="5.00" x="600.00" id="10448" ID="30004483" /><text x="600.00" y="750.00" id="10449">0OYZ-G</text><rect Type="system" Region="非塔波利斯" height="5.00" y="200.00" Name="NW2S-A" width="5.00" x="620.00" id="10451" ID="30004438" /><text x="620.00" y="200.00" id="10452">NW2S-A</text><rect Type="system" Region="非塔波利斯" height="5.00" y="100.00" Name="5XR-KZ" width="5.00" x="650.00" id="10454" ID="30004432" /><text x="650.00" y="100.00" id="10455">5XR-KZ</text><rect Type="system" Region="非塔波利斯" height="5.00" y="480.00" Name="UTDH-N" width="5.00" x="640.00" id="10457" ID="30004468" /><text x="640.00" y="480.00" id="10458">UTDH-N</text><rect Type="system" Region="非塔波利斯" height="5.00" y="250.00" Name="U-BXU9" width="5.00" x="650.00" id="10460" ID="30004436" /><text x="650.00" y="250.00" id="10461">U-BXU9</text><rect Type="system" Region="非塔波利斯" height="5.00" y="530.00" Name="ZS-2LT" width="5.00" x="650.00" id="10463" ID="30004469" /><text x="650.00" y="530.00" id="10464">ZS-2LT</text><rect Type="system" Region="非塔波利斯" height="5.00" y="350.00" Name="6O-XIO" width="5.00" x="650.00" id="10466" ID="30004442" /><text x="650.00" y="350.00" id="10467">6O-XIO</text><rect Type="system" Region="非塔波利斯" height="5.00" y="680.00" Name="I9-ZQZ" width="5.00" x="680.00" id="10469" ID="30004482" /><text x="680.00" y="680.00" id="10470">I9-ZQZ</text><rect Type="system" Region="非塔波利斯" height="5.00" y="750.00" Name="R97-CI" width="5.00" x="680.00" id="10472" ID="30004485" /><text x="680.00" y="750.00" id="10473">R97-CI</text><rect Type="system" Region="非塔波利斯" height="5.00" y="440.00" Name="23M-PX" width="5.00" x="680.00" id="10475" ID="30004467" /><text x="680.00" y="440.00" id="10476">23M-PX</text><rect Type="system" Region="非塔波利斯" height="5.00" y="580.00" Name="DB1R-4" width="5.00" x="700.00" id="10478" ID="30004470" /><text x="700.00" y="580.00" id="10479">DB1R-4</text><rect Type="system" Region="非塔波利斯" height="5.00" y="120.00" Name="C-0ND2" width="5.00" x="700.00" id="10481" ID="30004434" /><text x="700.00" y="120.00" id="10482">C-0ND2</text><rect Type="system" Region="非塔波利斯" height="5.00" y="220.00" Name="ZXOG-O" width="5.00" x="720.00" id="10484" ID="30004437" /><text x="720.00" y="220.00" id="10485">ZXOG-O</text><rect Type="system" Region="非塔波利斯" height="5.00" y="280.00" Name="NX5W-U" width="5.00" x="720.00" id="10487" ID="30004440" /><text x="720.00" y="280.00" id="10488">NX5W-U</text><rect Type="system" Region="非塔波利斯" height="5.00" y="420.00" Name="GPUS-A" width="5.00" x="750.00" id="10490" ID="30004465" /><text x="750.00" y="420.00" id="10491">GPUS-A</text><rect Type="system" Region="非塔波利斯" height="5.00" y="750.00" Name="6-ELQP" width="5.00" x="750.00" id="10493" ID="30004486" /><text x="750.00" y="750.00" id="10494">6-ELQP</text><rect Type="system" Region="非塔波利斯" height="5.00" y="350.00" Name="U1-C18" width="5.00" x="750.00" id="10496" ID="30004441" /><text x="750.00" y="350.00" id="10497">U1-C18</text><rect Type="system" Region="非塔波利斯" height="5.00" y="250.00" Name="U-JJEW" width="5.00" x="810.00" id="10499" ID="30004439" /><text x="810.00" y="250.00" id="10500">U-JJEW</text><rect Type="system" Region="非塔波利斯" height="5.00" y="460.00" Name="3-BADZ" width="5.00" x="820.00" id="10502" ID="30004466" /><text x="820.00" y="460.00" id="10503">3-BADZ</text><rect Type="system" Region="非塔波利斯" height="5.00" y="120.00" Name="P8-BKO" width="5.00" x="820.00" id="10505" ID="30004471" /><text x="820.00" y="120.00" id="10506">P8-BKO</text><rect Type="system" Region="非塔波利斯" height="5.00" y="20.00" Name="GHZ-SJ" width="5.00" x="880.00" id="10508" ID="30004474" /><text x="880.00" y="20.00" id="10509">GHZ-SJ</text><rect Type="system" Region="非塔波利斯" height="5.00" y="100.00" Name="RIT-A7" width="5.00" x="880.00" id="10511" ID="30004472" /><text x="880.00" y="100.00" id="10512">RIT-A7</text><rect Type="system" Region="非塔波利斯" height="5.00" y="60.00" Name="5P-AIP" width="5.00" x="920.00" id="10514" ID="30004477" /><text x="920.00" y="60.00" id="10515">5P-AIP</text><rect Type="system" Region="非塔波利斯" height="5.00" y="150.00" Name="R4K-8L" width="5.00" x="950.00" id="10517" ID="30004473" /><text x="950.00" y="150.00" id="10518">R4K-8L</text><rect Type="system" Region="非塔波利斯" height="5.00" y="20.00" Name="NLO-3Z" width="5.00" x="980.00" id="10520" ID="30004476" /><text x="980.00" y="20.00" id="10521">NLO-3Z</text><rect Type="system" Region="非塔波利斯" height="5.00" y="100.00" Name="K-J50B" width="5.00" x="980.00" id="10523" ID="30004475" /><text x="980.00" y="100.00" id="10524">K-J50B</text><rect Type="system" Region="埃索特亚" height="5.00" y="750.00" Name="C-PEWN" width="5.00" x="50.00" id="10526" ID="30003169" /><text x="50.00" y="750.00" id="10527">C-PEWN</text><rect Type="system" Region="绝径" height="5.00" y="180.00" Name="IV-UNR" width="5.00" x="100.00" id="10529" ID="30002594" /><text x="100.00" y="180.00" id="10530">IV-UNR</text><rect Type="system" Region="埃索特亚" height="5.00" y="250.00" Name="X-7BIX" width="5.00" x="100.00" id="10532" ID="30003110" /><text x="100.00" y="250.00" id="10533">X-7BIX</text><rect Type="system" Region="欧米斯特" height="5.00" y="380.00" Name="9MWZ-B" width="5.00" x="550.00" id="10535" ID="30004884" /><text x="550.00" y="380.00" id="10536">9MWZ-B</text><rect Type="system" Region="特里菲斯" height="5.00" y="50.00" Name="T2-V8F" width="5.00" x="680.00" id="10538" ID="30004842" /><text x="680.00" y="50.00" id="10539">T2-V8F</text><rect Type="system" Region="欧米斯特" height="5.00" y="750.00" Name="OKEO-X" width="5.00" x="820.00" id="10541" ID="30004924" /><text x="820.00" y="750.00" id="10542">OKEO-X</text><line x2="50.00" style="fill:blue;stroke:blue;" y1="200.00" x1="50.00" id="10544" y2="120.00" /><line x2="50.00" style="fill:blue;stroke:blue;" y1="200.00" x1="50.00" id="10545" y2="300.00" /><line x2="50.00" style="fill:blue;stroke:blue;" y1="300.00" x1="50.00" id="10546" y2="200.00" /><line x2="20.00" style="fill:blue;stroke:blue;" y1="300.00" x1="50.00" id="10547" y2="350.00" /><line x2="100.00" style="fill:blue;stroke:blue;" y1="300.00" x1="50.00" id="10548" y2="300.00" /><line x2="50.00" style="fill:blue;stroke:blue;" y1="350.00" x1="20.00" id="10549" y2="300.00" /><line x2="50.00" style="fill:blue;stroke:blue;" y1="350.00" x1="20.00" id="10550" y2="400.00" /><line x2="20.00" style="fill:blue;stroke:blue;" y1="400.00" x1="50.00" id="10551" y2="350.00" /><line x2="40.00" style="fill:blue;stroke:blue;" y1="400.00" x1="50.00" id="10552" y2="450.00" /><line x2="50.00" style="fill:blue;stroke:blue;" y1="450.00" x1="40.00" id="10553" y2="400.00" /><line x2="100.00" style="fill:blue;stroke:blue;" y1="450.00" x1="40.00" id="10554" y2="440.00" /><line x2="80.00" style="fill:blue;stroke:blue;" y1="450.00" x1="40.00" id="10555" y2="490.00" /><line x2="100.00" style="fill:blue;stroke:blue;" y1="120.00" x1="50.00" id="10556" y2="180.00" /><line x2="121.91" style="fill:blue;stroke:blue;" y1="120.00" x1="50.00" id="10557" y2="100.96" /><line x2="78.09" style="fill:blue;stroke:blue;" y1="120.00" x1="50.00" id="10558" y2="79.04" /><line x2="50.00" style="fill:blue;stroke:blue;" y1="120.00" x1="50.00" id="10559" y2="200.00" /><line x2="50.00" style="fill:blue;stroke:blue;" y1="79.04" x1="78.09" id="10560" y2="120.00" /><line x2="121.91" style="fill:blue;stroke:blue;" y1="79.04" x1="78.09" id="10561" y2="100.96" /><line x2="40.00" style="fill:blue;stroke:blue;" y1="490.00" x1="80.00" id="10562" y2="450.00" /><line x2="120.00" style="fill:blue;stroke:blue;" y1="490.00" x1="80.00" id="10563" y2="540.00" /><line x2="100.00" style="fill:blue;stroke:blue;" y1="300.00" x1="100.00" id="10564" y2="250.00" /><line x2="50.00" style="fill:blue;stroke:blue;" y1="300.00" x1="100.00" id="10565" y2="300.00" /><line x2="100.00" style="fill:blue;stroke:blue;" y1="300.00" x1="100.00" id="10566" y2="350.00" /><line x2="100.00" style="fill:blue;stroke:blue;" y1="350.00" x1="100.00" id="10567" y2="300.00" /><line x2="40.00" style="fill:blue;stroke:blue;" y1="440.00" x1="100.00" id="10568" y2="450.00" /><line x2="180.00" style="fill:blue;stroke:blue;" y1="440.00" x1="100.00" id="10569" y2="450.00" /><line x2="50.00" style="fill:blue;stroke:blue;" y1="100.96" x1="121.91" id="10570" y2="120.00" /><line x2="78.09" style="fill:blue;stroke:blue;" y1="100.96" x1="121.91" id="10571" y2="79.04" /><line x2="200.00" style="fill:blue;stroke:blue;" y1="100.96" x1="121.91" id="10572" y2="100.00" /><line x2="50.00" style="fill:blue;stroke:blue;" y1="750.00" x1="120.00" id="10573" y2="750.00" /><line x2="200.00" style="fill:blue;stroke:blue;" y1="750.00" x1="120.00" id="10574" y2="750.00" /><line x2="80.00" style="fill:blue;stroke:blue;" y1="540.00" x1="120.00" id="10575" y2="490.00" /><line x2="190.00" style="fill:blue;stroke:blue;" y1="540.00" x1="120.00" id="10576" y2="570.00" /><line x2="100.00" style="fill:blue;stroke:blue;" y1="450.00" x1="180.00" id="10577" y2="440.00" /><line x2="250.00" style="fill:blue;stroke:blue;" y1="200.00" x1="180.00" id="10578" y2="200.00" /><line x2="121.91" style="fill:blue;stroke:blue;" y1="100.00" x1="200.00" id="10579" y2="100.96" /><line x2="280.00" style="fill:blue;stroke:blue;" y1="100.00" x1="200.00" id="10580" y2="120.00" /><line x2="250.00" style="fill:blue;stroke:blue;" y1="100.00" x1="200.00" id="10581" y2="200.00" /><line x2="120.00" style="fill:blue;stroke:blue;" y1="570.00" x1="190.00" id="10582" y2="540.00" /><line x2="250.00" style="fill:blue;stroke:blue;" y1="570.00" x1="190.00" id="10583" y2="580.00" /><line x2="280.00" style="fill:blue;stroke:blue;" y1="750.00" x1="200.00" id="10584" y2="750.00" /><line x2="120.00" style="fill:blue;stroke:blue;" y1="750.00" x1="200.00" id="10585" y2="750.00" /><line x2="220.00" style="fill:blue;stroke:blue;" y1="380.00" x1="220.00" id="10586" y2="320.00" /><line x2="250.00" style="fill:blue;stroke:blue;" y1="320.00" x1="220.00" id="10587" y2="250.00" /><line x2="220.00" style="fill:blue;stroke:blue;" y1="320.00" x1="220.00" id="10588" y2="380.00" /><line x2="200.00" style="fill:blue;stroke:blue;" y1="200.00" x1="250.00" id="10589" y2="100.00" /><line x2="180.00" style="fill:blue;stroke:blue;" y1="200.00" x1="250.00" id="10590" y2="200.00" /><line x2="250.00" style="fill:blue;stroke:blue;" y1="200.00" x1="250.00" id="10591" y2="250.00" /><line x2="320.00" style="fill:blue;stroke:blue;" y1="200.00" x1="250.00" id="10592" y2="200.00" /><line x2="320.00" style="fill:blue;stroke:blue;" y1="200.00" x1="250.00" id="10593" y2="250.00" /><line x2="250.00" style="fill:blue;stroke:blue;" y1="250.00" x1="250.00" id="10594" y2="200.00" /><line x2="300.00" style="fill:blue;stroke:blue;" y1="250.00" x1="250.00" id="10595" y2="320.00" /><line x2="220.00" style="fill:blue;stroke:blue;" y1="250.00" x1="250.00" id="10596" y2="320.00" /><line x2="190.00" style="fill:blue;stroke:blue;" y1="580.00" x1="250.00" id="10597" y2="570.00" /><line x2="320.00" style="fill:blue;stroke:blue;" y1="580.00" x1="250.00" id="10598" y2="600.00" /><line x2="200.00" style="fill:blue;stroke:blue;" y1="120.00" x1="280.00" id="10599" y2="100.00" /><line x2="380.00" style="fill:blue;stroke:blue;" y1="120.00" x1="280.00" id="10600" y2="150.00" /><line x2="280.00" style="fill:blue;stroke:blue;" y1="700.00" x1="280.00" id="10601" y2="750.00" /><line x2="350.00" style="fill:blue;stroke:blue;" y1="750.00" x1="280.00" id="10602" y2="750.00" /><line x2="200.00" style="fill:blue;stroke:blue;" y1="750.00" x1="280.00" id="10603" y2="750.00" /><line x2="280.00" style="fill:blue;stroke:blue;" y1="750.00" x1="280.00" id="10604" y2="700.00" /><line x2="250.00" style="fill:blue;stroke:blue;" y1="320.00" x1="300.00" id="10605" y2="250.00" /><line x2="400.00" style="fill:blue;stroke:blue;" y1="520.00" x1="340.00" id="10606" y2="500.00" /><line x2="430.00" style="fill:blue;stroke:blue;" y1="520.00" x1="340.00" id="10607" y2="540.00" /><line x2="250.00" style="fill:blue;stroke:blue;" y1="200.00" x1="320.00" id="10608" y2="200.00" /><line x2="320.00" style="fill:blue;stroke:blue;" y1="650.00" x1="320.00" id="10609" y2="600.00" /><line x2="250.00" style="fill:blue;stroke:blue;" y1="250.00" x1="320.00" id="10610" y2="200.00" /><line x2="250.00" style="fill:blue;stroke:blue;" y1="600.00" x1="320.00" id="10611" y2="580.00" /><line x2="320.00" style="fill:blue;stroke:blue;" y1="600.00" x1="320.00" id="10612" y2="650.00" /><line x2="400.00" style="fill:blue;stroke:blue;" y1="600.00" x1="320.00" id="10613" y2="600.00" /><line x2="400.00" style="fill:blue;stroke:blue;" y1="420.00" x1="340.00" id="10614" y2="400.00" /><line x2="420.00" style="fill:blue;stroke:blue;" y1="50.00" x1="350.00" id="10615" y2="50.00" /><line x2="420.00" style="fill:blue;stroke:blue;" y1="750.00" x1="350.00" id="10616" y2="750.00" /><line x2="280.00" style="fill:blue;stroke:blue;" y1="750.00" x1="350.00" id="10617" y2="750.00" /><line x2="280.00" style="fill:blue;stroke:blue;" y1="150.00" x1="380.00" id="10618" y2="120.00" /><line x2="450.00" style="fill:blue;stroke:blue;" y1="150.00" x1="380.00" id="10619" y2="200.00" /><line x2="400.00" style="fill:blue;stroke:blue;" y1="500.00" x1="400.00" id="10620" y2="450.00" /><line x2="340.00" style="fill:blue;stroke:blue;" y1="500.00" x1="400.00" id="10621" y2="520.00" /><line x2="430.00" style="fill:blue;stroke:blue;" y1="500.00" x1="400.00" id="10622" y2="540.00" /><line x2="400.00" style="fill:blue;stroke:blue;" y1="450.00" x1="400.00" id="10623" y2="400.00" /><line x2="400.00" style="fill:blue;stroke:blue;" y1="450.00" x1="400.00" id="10624" y2="500.00" /><line x2="480.00" style="fill:blue;stroke:blue;" y1="450.00" x1="400.00" id="10625" y2="420.00" /><line x2="320.00" style="fill:blue;stroke:blue;" y1="600.00" x1="400.00" id="10626" y2="600.00" /><line x2="520.00" style="fill:blue;stroke:blue;" y1="600.00" x1="400.00" id="10627" y2="620.00" /><line x2="420.00" style="fill:blue;stroke:blue;" y1="300.00" x1="400.00" id="10628" y2="250.00" /><line x2="400.00" style="fill:blue;stroke:blue;" y1="300.00" x1="400.00" id="10629" y2="400.00" /><line x2="400.00" style="fill:blue;stroke:blue;" y1="400.00" x1="400.00" id="10630" y2="300.00" /><line x2="400.00" style="fill:blue;stroke:blue;" y1="400.00" x1="400.00" id="10631" y2="450.00" /><line x2="340.00" style="fill:blue;stroke:blue;" y1="400.00" x1="400.00" id="10632" y2="420.00" /><line x2="480.00" style="fill:blue;stroke:blue;" y1="400.00" x1="400.00" id="10633" y2="420.00" /><line x2="420.00" style="fill:blue;stroke:blue;" y1="50.00" x1="420.00" id="10634" y2="100.00" /><line x2="350.00" style="fill:blue;stroke:blue;" y1="50.00" x1="420.00" id="10635" y2="50.00" /><line x2="500.00" style="fill:blue;stroke:blue;" y1="50.00" x1="420.00" id="10636" y2="50.00" /><line x2="450.00" style="fill:blue;stroke:blue;" y1="100.00" x1="420.00" id="10637" y2="200.00" /><line x2="420.00" style="fill:blue;stroke:blue;" y1="100.00" x1="420.00" id="10638" y2="50.00" /><line x2="500.00" style="fill:blue;stroke:blue;" y1="100.00" x1="420.00" id="10639" y2="100.00" /><line x2="450.00" style="fill:blue;stroke:blue;" y1="250.00" x1="420.00" id="10640" y2="200.00" /><line x2="479.04" style="fill:blue;stroke:blue;" y1="250.00" x1="420.00" id="10641" y2="278.09" /><line x2="400.00" style="fill:blue;stroke:blue;" y1="250.00" x1="420.00" id="10642" y2="300.00" /><line x2="550.00" style="fill:blue;stroke:blue;" y1="750.00" x1="420.00" id="10643" y2="750.00" /><line x2="350.00" style="fill:blue;stroke:blue;" y1="750.00" x1="420.00" id="10644" y2="750.00" /><line x2="380.00" style="fill:blue;stroke:blue;" y1="200.00" x1="450.00" id="10645" y2="150.00" /><line x2="420.00" style="fill:blue;stroke:blue;" y1="200.00" x1="450.00" id="10646" y2="250.00" /><line x2="500.00" style="fill:blue;stroke:blue;" y1="200.00" x1="450.00" id="10647" y2="220.00" /><line x2="420.00" style="fill:blue;stroke:blue;" y1="200.00" x1="450.00" id="10648" y2="100.00" /><line x2="400.00" style="fill:blue;stroke:blue;" y1="540.00" x1="430.00" id="10649" y2="500.00" /><line x2="340.00" style="fill:blue;stroke:blue;" y1="540.00" x1="430.00" id="10650" y2="520.00" /><line x2="400.00" style="fill:blue;stroke:blue;" y1="420.00" x1="480.00" id="10651" y2="400.00" /><line x2="400.00" style="fill:blue;stroke:blue;" y1="420.00" x1="480.00" id="10652" y2="450.00" /><line x2="420.00" style="fill:blue;stroke:blue;" y1="278.09" x1="479.04" id="10653" y2="250.00" /><line x2="500.00" style="fill:blue;stroke:blue;" y1="278.09" x1="479.04" id="10654" y2="220.00" /><line x2="500.96" style="fill:blue;stroke:blue;" y1="278.09" x1="479.04" id="10655" y2="321.91" /><line x2="420.00" style="fill:blue;stroke:blue;" y1="50.00" x1="500.00" id="10656" y2="50.00" /><line x2="500.00" style="fill:blue;stroke:blue;" y1="50.00" x1="500.00" id="10657" y2="100.00" /><line x2="580.00" style="fill:blue;stroke:blue;" y1="50.00" x1="500.00" id="10658" y2="100.00" /><line x2="550.00" style="fill:blue;stroke:blue;" y1="50.00" x1="500.00" id="10659" y2="50.00" /><line x2="420.00" style="fill:blue;stroke:blue;" y1="100.00" x1="500.00" id="10660" y2="100.00" /><line x2="500.00" style="fill:blue;stroke:blue;" y1="100.00" x1="500.00" id="10661" y2="50.00" /><line x2="500.00" style="fill:blue;stroke:blue;" y1="100.00" x1="500.00" id="10662" y2="150.00" /><line x2="500.00" style="fill:blue;stroke:blue;" y1="150.00" x1="500.00" id="10663" y2="100.00" /><line x2="479.04" style="fill:blue;stroke:blue;" y1="321.91" x1="500.96" id="10664" y2="278.09" /><line x2="550.00" style="fill:blue;stroke:blue;" y1="321.91" x1="500.96" id="10665" y2="380.00" /><line x2="450.00" style="fill:blue;stroke:blue;" y1="220.00" x1="500.00" id="10666" y2="200.00" /><line x2="479.04" style="fill:blue;stroke:blue;" y1="220.00" x1="500.00" id="10667" y2="278.09" /><line x2="650.00" style="fill:blue;stroke:blue;" y1="220.00" x1="500.00" id="10668" y2="250.00" /><line x2="400.00" style="fill:blue;stroke:blue;" y1="620.00" x1="520.00" id="10669" y2="600.00" /><line x2="580.00" style="fill:blue;stroke:blue;" y1="620.00" x1="520.00" id="10670" y2="650.00" /><line x2="580.00" style="fill:blue;stroke:blue;" y1="620.00" x1="520.00" id="10671" y2="590.00" /><line x2="600.00" style="fill:blue;stroke:blue;" y1="750.00" x1="550.00" id="10672" y2="750.00" /><line x2="420.00" style="fill:blue;stroke:blue;" y1="750.00" x1="550.00" id="10673" y2="750.00" /><line x2="500.00" style="fill:blue;stroke:blue;" y1="50.00" x1="550.00" id="10674" y2="50.00" /><line x2="680.00" style="fill:blue;stroke:blue;" y1="50.00" x1="550.00" id="10675" y2="50.00" /><line x2="520.00" style="fill:blue;stroke:blue;" y1="650.00" x1="580.00" id="10676" y2="620.00" /><line x2="600.00" style="fill:blue;stroke:blue;" y1="650.00" x1="580.00" id="10677" y2="700.00" /><line x2="580.00" style="fill:blue;stroke:blue;" y1="650.00" x1="580.00" id="10678" y2="590.00" /><line x2="500.00" style="fill:blue;stroke:blue;" y1="100.00" x1="580.00" id="10679" y2="50.00" /><line x2="650.00" style="fill:blue;stroke:blue;" y1="100.00" x1="580.00" id="10680" y2="100.00" /><line x2="580.00" style="fill:blue;stroke:blue;" y1="100.00" x1="580.00" id="10681" y2="150.00" /><line x2="580.00" style="fill:blue;stroke:blue;" y1="150.00" x1="580.00" id="10682" y2="100.00" /><line x2="650.00" style="fill:blue;stroke:blue;" y1="150.00" x1="580.00" id="10683" y2="100.00" /><line x2="520.00" style="fill:blue;stroke:blue;" y1="590.00" x1="580.00" id="10684" y2="620.00" /><line x2="580.00" style="fill:blue;stroke:blue;" y1="590.00" x1="580.00" id="10685" y2="650.00" /><line x2="580.00" style="fill:blue;stroke:blue;" y1="700.00" x1="600.00" id="10686" y2="650.00" /><line x2="680.00" style="fill:blue;stroke:blue;" y1="700.00" x1="600.00" id="10687" y2="680.00" /><line x2="600.00" style="fill:blue;stroke:blue;" y1="700.00" x1="600.00" id="10688" y2="750.00" /><line x2="600.00" style="fill:blue;stroke:blue;" y1="750.00" x1="600.00" id="10689" y2="700.00" /><line x2="550.00" style="fill:blue;stroke:blue;" y1="750.00" x1="600.00" id="10690" y2="750.00" /><line x2="680.00" style="fill:blue;stroke:blue;" y1="750.00" x1="600.00" id="10691" y2="750.00" /><line x2="650.00" style="fill:blue;stroke:blue;" y1="200.00" x1="620.00" id="10692" y2="250.00" /><line x2="720.00" style="fill:blue;stroke:blue;" y1="200.00" x1="620.00" id="10693" y2="220.00" /><line x2="580.00" style="fill:blue;stroke:blue;" y1="100.00" x1="650.00" id="10694" y2="100.00" /><line x2="580.00" style="fill:blue;stroke:blue;" y1="100.00" x1="650.00" id="10695" y2="150.00" /><line x2="700.00" style="fill:blue;stroke:blue;" y1="100.00" x1="650.00" id="10696" y2="120.00" /><line x2="680.00" style="fill:blue;stroke:blue;" y1="480.00" x1="640.00" id="10697" y2="440.00" /><line x2="650.00" style="fill:blue;stroke:blue;" y1="480.00" x1="640.00" id="10698" y2="530.00" /><line x2="500.00" style="fill:blue;stroke:blue;" y1="250.00" x1="650.00" id="10699" y2="220.00" /><line x2="720.00" style="fill:blue;stroke:blue;" y1="250.00" x1="650.00" id="10700" y2="220.00" /><line x2="620.00" style="fill:blue;stroke:blue;" y1="250.00" x1="650.00" id="10701" y2="200.00" /><line x2="720.00" style="fill:blue;stroke:blue;" y1="250.00" x1="650.00" id="10702" y2="280.00" /><line x2="640.00" style="fill:blue;stroke:blue;" y1="530.00" x1="650.00" id="10703" y2="480.00" /><line x2="700.00" style="fill:blue;stroke:blue;" y1="530.00" x1="650.00" id="10704" y2="580.00" /><line x2="720.00" style="fill:blue;stroke:blue;" y1="350.00" x1="650.00" id="10705" y2="280.00" /><line x2="750.00" style="fill:blue;stroke:blue;" y1="350.00" x1="650.00" id="10706" y2="350.00" /><line x2="600.00" style="fill:blue;stroke:blue;" y1="680.00" x1="680.00" id="10707" y2="700.00" /><line x2="600.00" style="fill:blue;stroke:blue;" y1="750.00" x1="680.00" id="10708" y2="750.00" /><line x2="750.00" style="fill:blue;stroke:blue;" y1="750.00" x1="680.00" id="10709" y2="750.00" /><line x2="750.00" style="fill:blue;stroke:blue;" y1="440.00" x1="680.00" id="10710" y2="420.00" /><line x2="640.00" style="fill:blue;stroke:blue;" y1="440.00" x1="680.00" id="10711" y2="480.00" /><line x2="650.00" style="fill:blue;stroke:blue;" y1="580.00" x1="700.00" id="10712" y2="530.00" /><line x2="650.00" style="fill:blue;stroke:blue;" y1="120.00" x1="700.00" id="10713" y2="100.00" /><line x2="820.00" style="fill:blue;stroke:blue;" y1="120.00" x1="700.00" id="10714" y2="120.00" /><line x2="650.00" style="fill:blue;stroke:blue;" y1="220.00" x1="720.00" id="10715" y2="250.00" /><line x2="620.00" style="fill:blue;stroke:blue;" y1="220.00" x1="720.00" id="10716" y2="200.00" /><line x2="810.00" style="fill:blue;stroke:blue;" y1="220.00" x1="720.00" id="10717" y2="250.00" /><line x2="650.00" style="fill:blue;stroke:blue;" y1="280.00" x1="720.00" id="10718" y2="250.00" /><line x2="810.00" style="fill:blue;stroke:blue;" y1="280.00" x1="720.00" id="10719" y2="250.00" /><line x2="750.00" style="fill:blue;stroke:blue;" y1="280.00" x1="720.00" id="10720" y2="350.00" /><line x2="650.00" style="fill:blue;stroke:blue;" y1="280.00" x1="720.00" id="10721" y2="350.00" /><line x2="750.00" style="fill:blue;stroke:blue;" y1="420.00" x1="750.00" id="10722" y2="350.00" /><line x2="820.00" style="fill:blue;stroke:blue;" y1="420.00" x1="750.00" id="10723" y2="460.00" /><line x2="680.00" style="fill:blue;stroke:blue;" y1="420.00" x1="750.00" id="10724" y2="440.00" /><line x2="680.00" style="fill:blue;stroke:blue;" y1="750.00" x1="750.00" id="10725" y2="750.00" /><line x2="820.00" style="fill:blue;stroke:blue;" y1="750.00" x1="750.00" id="10726" y2="750.00" /><line x2="720.00" style="fill:blue;stroke:blue;" y1="350.00" x1="750.00" id="10727" y2="280.00" /><line x2="650.00" style="fill:blue;stroke:blue;" y1="350.00" x1="750.00" id="10728" y2="350.00" /><line x2="750.00" style="fill:blue;stroke:blue;" y1="350.00" x1="750.00" id="10729" y2="420.00" /><line x2="720.00" style="fill:blue;stroke:blue;" y1="250.00" x1="810.00" id="10730" y2="220.00" /><line x2="720.00" style="fill:blue;stroke:blue;" y1="250.00" x1="810.00" id="10731" y2="280.00" /><line x2="750.00" style="fill:blue;stroke:blue;" y1="460.00" x1="820.00" id="10732" y2="420.00" /><line x2="700.00" style="fill:blue;stroke:blue;" y1="120.00" x1="820.00" id="10733" y2="120.00" /><line x2="880.00" style="fill:blue;stroke:blue;" y1="120.00" x1="820.00" id="10734" y2="100.00" /><line x2="880.00" style="fill:blue;stroke:blue;" y1="20.00" x1="880.00" id="10735" y2="100.00" /><line x2="980.00" style="fill:blue;stroke:blue;" y1="20.00" x1="880.00" id="10736" y2="20.00" /><line x2="920.00" style="fill:blue;stroke:blue;" y1="20.00" x1="880.00" id="10737" y2="60.00" /><line x2="820.00" style="fill:blue;stroke:blue;" y1="100.00" x1="880.00" id="10738" y2="120.00" /><line x2="950.00" style="fill:blue;stroke:blue;" y1="100.00" x1="880.00" id="10739" y2="150.00" /><line x2="880.00" style="fill:blue;stroke:blue;" y1="100.00" x1="880.00" id="10740" y2="20.00" /><line x2="980.00" style="fill:blue;stroke:blue;" y1="100.00" x1="880.00" id="10741" y2="100.00" /><line x2="920.00" style="fill:blue;stroke:blue;" y1="100.00" x1="880.00" id="10742" y2="60.00" /><line x2="880.00" style="fill:blue;stroke:blue;" y1="60.00" x1="920.00" id="10743" y2="100.00" /><line x2="880.00" style="fill:blue;stroke:blue;" y1="60.00" x1="920.00" id="10744" y2="20.00" /><line x2="980.00" style="fill:blue;stroke:blue;" y1="60.00" x1="920.00" id="10745" y2="20.00" /><line x2="880.00" style="fill:blue;stroke:blue;" y1="150.00" x1="950.00" id="10746" y2="100.00" /><line x2="880.00" style="fill:blue;stroke:blue;" y1="20.00" x1="980.00" id="10747" y2="20.00" /><line x2="980.00" style="fill:blue;stroke:blue;" y1="20.00" x1="980.00" id="10748" y2="100.00" /><line x2="920.00" style="fill:blue;stroke:blue;" y1="20.00" x1="980.00" id="10749" y2="60.00" /><line x2="880.00" style="fill:blue;stroke:blue;" y1="100.00" x1="980.00" id="10750" y2="100.00" /><line x2="980.00" style="fill:blue;stroke:blue;" y1="100.00" x1="980.00" id="10751" y2="20.00" /><line x2="120.00" style="fill:blue;stroke:blue;" y1="750.00" x1="50.00" id="10752" y2="750.00" /><line x2="50.00" style="fill:blue;stroke:blue;" y1="180.00" x1="100.00" id="10753" y2="120.00" /><line x2="100.00" style="fill:blue;stroke:blue;" y1="250.00" x1="100.00" id="10754" y2="300.00" /><line x2="500.96" style="fill:blue;stroke:blue;" y1="380.00" x1="550.00" id="10755" y2="321.91" /><line x2="550.00" style="fill:blue;stroke:blue;" y1="50.00" x1="680.00" id="10756" y2="50.00" /><line x2="750.00" style="fill:blue;stroke:blue;" y1="750.00" x1="820.00" id="10757" y2="750.00" /></svg>
