<?xml version="1.0" standalone="yes"?><!DOCTYPE svg PUBLIC "-//W3C//DTD SVG 1.1//EN" "http://www.w3.org/Graphics/SVG/1.1/DTD/svg11.dtd"[]><svg width="1050.00" height="800.00" id="24182" xmlns="http://www.w3.org/2000/svg" xmlns:xlink="http://www.w3.org/1999/xlink"><rect Type="system" x="17.68" id="24183" height="5.00" width="5.00" Name="E-Z2ZX" ID="30002032" Region="黑渊" y="317.68" /><text y="317.68" x="17.68" id="24184">E-Z2ZX</text><rect Type="system" x="30.00" id="24186" height="5.00" width="5.00" Name="7D-0SQ" ID="30002046" Region="黑渊" y="650.00" /><text y="650.00" x="30.00" id="24187">7D-0SQ</text><rect Type="system" x="52.32" id="24189" height="5.00" width="5.00" Name="RORZ-H" ID="30002033" Region="黑渊" y="352.32" /><text y="352.32" x="52.32" id="24190">RORZ-H</text><rect Type="system" x="50.00" id="24192" height="5.00" width="5.00" Name="KU5R-W" ID="30002042" Region="黑渊" y="500.00" /><text y="500.00" x="50.00" id="24193">KU5R-W</text><rect Type="system" x="50.00" id="24195" height="5.00" width="5.00" Name="H1-J33" ID="30002043" Region="黑渊" y="550.00" /><text y="550.00" x="50.00" id="24196">H1-J33</text><rect Type="system" x="50.00" id="24198" height="5.00" width="5.00" Name="Y-C3EQ" ID="30002044" Region="黑渊" y="600.00" /><text y="600.00" x="50.00" id="24199">Y-C3EQ</text><rect Type="system" x="80.00" id="24201" height="5.00" width="5.00" Name="VRH-H7" ID="30003685" Region="斐德" y="180.00" /><text y="180.00" x="80.00" id="24202">VRH-H7</text><rect Type="system" x="97.68" id="24204" height="5.00" width="5.00" Name="P-2TTL" ID="30002030" Region="黑渊" y="317.68" /><text y="317.68" x="97.68" id="24205">P-2TTL</text><rect Type="system" x="100.00" id="24207" height="5.00" width="5.00" Name="OGV-AS" ID="30002045" Region="黑渊" y="650.00" /><text y="650.00" x="100.00" id="24208">OGV-AS</text><rect Type="system" x="100.00" id="24210" height="5.00" width="5.00" Name="UI-8ZE" ID="30002047" Region="黑渊" y="700.00" /><text y="700.00" x="100.00" id="24211">UI-8ZE</text><rect Type="system" x="132.32" id="24213" height="5.00" width="5.00" Name="O-A6YN" ID="30002034" Region="黑渊" y="352.32" /><text y="352.32" x="132.32" id="24214">O-A6YN</text><rect Type="system" x="150.00" id="24216" height="5.00" width="5.00" Name="7X-VKB" ID="30002031" Region="黑渊" y="280.00" /><text y="280.00" x="150.00" id="24217">7X-VKB</text><rect Type="system" x="150.00" id="24219" height="5.00" width="5.00" Name="O-CNPR" ID="30003683" Region="斐德" y="100.00" /><text y="100.00" x="150.00" id="24220">O-CNPR</text><rect Type="system" x="180.00" id="24222" height="5.00" width="5.00" Name="B-9C24" ID="30002029" Region="黑渊" y="320.00" /><text y="320.00" x="180.00" id="24223">B-9C24</text><rect Type="system" x="170.00" id="24225" height="5.00" width="5.00" Name="Y2-6EA" ID="30002037" Region="黑渊" y="680.00" /><text y="680.00" x="170.00" id="24226">Y2-6EA</text><rect Type="system" x="170.00" id="24228" height="5.00" width="5.00" Name="DT-TCD" ID="30002041" Region="黑渊" y="730.00" /><text y="730.00" x="170.00" id="24229">DT-TCD</text><rect Type="system" x="210.00" id="24231" height="5.00" width="5.00" Name="TFA0-U" ID="30002038" Region="黑渊" y="640.00" /><text y="640.00" x="210.00" id="24232">TFA0-U</text><rect Type="system" x="250.00" id="24234" height="5.00" width="5.00" Name="F-NMX6" ID="30002019" Region="黑渊" y="320.00" /><text y="320.00" x="250.00" id="24235">F-NMX6</text><rect Type="system" x="250.00" id="24237" height="5.00" width="5.00" Name="ZKYV-W" ID="30002018" Region="黑渊" y="375.50" /><text y="375.50" x="250.00" id="24238">ZKYV-W</text><rect Type="system" x="250.00" id="24240" height="5.00" width="5.00" Name="FWA-4V" ID="30002021" Region="黑渊" y="424.50" /><text y="424.50" x="250.00" id="24241">FWA-4V</text><rect Type="system" x="250.00" id="24243" height="5.00" width="5.00" Name="DW-T2I" ID="30003682" Region="斐德" y="50.00" /><text y="50.00" x="250.00" id="24244">DW-T2I</text><rect Type="system" x="250.00" id="24246" height="5.00" width="5.00" Name="RZC-16" ID="30002022" Region="黑渊" y="480.00" /><text y="480.00" x="250.00" id="24247">RZC-16</text><rect Type="system" x="240.00" id="24249" height="5.00" width="5.00" Name="D2-HOS" ID="30002036" Region="黑渊" y="680.00" /><text y="680.00" x="240.00" id="24250">D2-HOS</text><rect Type="system" x="240.00" id="24252" height="5.00" width="5.00" Name="HPS5-C" ID="30002040" Region="黑渊" y="730.00" /><text y="730.00" x="240.00" id="24253">HPS5-C</text><rect Type="system" x="280.00" id="24255" height="5.00" width="5.00" Name="MQ-NPY" ID="30002035" Region="黑渊" y="640.00" /><text y="640.00" x="280.00" id="24256">MQ-NPY</text><rect Type="system" x="280.00" id="24258" height="5.00" width="5.00" Name="GA-P6C" ID="30002020" Region="黑渊" y="250.00" /><text y="250.00" x="280.00" id="24259">GA-P6C</text><rect Type="system" x="300.00" id="24261" height="5.00" width="5.00" Name="7RM-N0" ID="30002016" Region="黑渊" y="320.00" /><text y="320.00" x="300.00" id="24262">7RM-N0</text><rect Type="system" x="300.00" id="24264" height="5.00" width="5.00" Name="S-MDYI" ID="30002017" Region="黑渊" y="380.00" /><text y="380.00" x="300.00" id="24265">S-MDYI</text><rect Type="system" x="320.00" id="24267" height="5.00" width="5.00" Name="RQH-MY" ID="30002039" Region="黑渊" y="680.00" /><text y="680.00" x="320.00" id="24268">RQH-MY</text><rect Type="system" x="350.00" id="24270" height="5.00" width="5.00" Name="MT9Q-S" ID="30002028" Region="黑渊" y="600.00" /><text y="600.00" x="350.00" id="24271">MT9Q-S</text><rect Type="system" x="380.00" id="24273" height="5.00" width="5.00" Name="E-9ORY" ID="30003677" Region="斐德" y="120.00" /><text y="120.00" x="380.00" id="24274">E-9ORY</text><rect Type="system" x="380.00" id="24276" height="5.00" width="5.00" Name="C8-CHY" ID="30003676" Region="斐德" y="175.50" /><text y="175.50" x="380.00" id="24277">C8-CHY</text><rect Type="system" x="380.00" id="24279" height="5.00" width="5.00" Name="ROIR-Y" ID="30001983" Region="黑渊" y="224.50" /><text y="224.50" x="380.00" id="24280">ROIR-Y</text><rect Type="system" x="380.00" id="24282" height="5.00" width="5.00" Name="G95-VZ" ID="30001982" Region="黑渊" y="275.50" /><text y="275.50" x="380.00" id="24283">G95-VZ</text><rect Type="system" x="380.00" id="24285" height="5.00" width="5.00" Name="KLY-C0" ID="30001980" Region="黑渊" y="324.50" /><text y="324.50" x="380.00" id="24286">KLY-C0</text><rect Type="system" x="380.00" id="24288" height="5.00" width="5.00" Name="CL6-ZG" ID="30001981" Region="黑渊" y="380.00" /><text y="380.00" x="380.00" id="24289">CL6-ZG</text><rect Type="system" x="380.00" id="24291" height="5.00" width="5.00" Name="RD-G2R" ID="30002023" Region="黑渊" y="450.00" /><text y="450.00" x="380.00" id="24292">RD-G2R</text><rect Type="system" x="420.00" id="24294" height="5.00" width="5.00" Name="UC3H-Y" ID="30002024" Region="黑渊" y="520.00" /><text y="520.00" x="420.00" id="24295">UC3H-Y</text><rect Type="system" x="420.00" id="24297" height="5.00" width="5.00" Name="KDV-DE" ID="30002027" Region="黑渊" y="580.00" /><text y="580.00" x="420.00" id="24298">KDV-DE</text><rect Type="system" x="450.00" id="24300" height="5.00" width="5.00" Name="J-CIJV" ID="30001977" Region="黑渊" y="275.50" /><text y="275.50" x="450.00" id="24301">J-CIJV</text><rect Type="system" x="450.00" id="24303" height="5.00" width="5.00" Name="X-7OMU" ID="30001978" Region="黑渊" y="324.50" /><text y="324.50" x="450.00" id="24304">X-7OMU</text><rect Type="system" x="450.00" id="24306" height="5.00" width="5.00" Name="CXN1-Z" ID="30001979" Region="黑渊" y="380.00" /><text y="380.00" x="450.00" id="24307">CXN1-Z</text><rect Type="system" x="450.00" id="24309" height="5.00" width="5.00" Name="X47L-Q" ID="30001967" Region="黑渊" y="150.00" /><text y="150.00" x="450.00" id="24310">X47L-Q</text><rect Type="system" x="480.00" id="24312" height="5.00" width="5.00" Name="6GWE-A" ID="30002025" Region="黑渊" y="600.00" /><text y="600.00" x="480.00" id="24313">6GWE-A</text><rect Type="system" x="500.00" id="24315" height="5.00" width="5.00" Name="4-ABS8" ID="30002015" Region="黑渊" y="220.00" /><text y="220.00" x="500.00" id="24316">4-ABS8</text><rect Type="system" x="510.00" id="24318" height="5.00" width="5.00" Name="J-OK0C" ID="30002026" Region="黑渊" y="650.00" /><text y="650.00" x="510.00" id="24319">J-OK0C</text><rect Type="system" x="500.00" id="24321" height="5.00" width="5.00" Name="KQK1-2" ID="30001963" Region="黑渊" y="100.00" /><text y="100.00" x="500.00" id="24322">KQK1-2</text><rect Type="system" x="520.00" id="24324" height="5.00" width="5.00" Name="R-LW2I" ID="30002013" Region="黑渊" y="275.50" /><text y="275.50" x="520.00" id="24325">R-LW2I</text><rect Type="system" x="520.00" id="24327" height="5.00" width="5.00" Name="B8EN-S" ID="30002012" Region="黑渊" y="324.50" /><text y="324.50" x="520.00" id="24328">B8EN-S</text><rect Type="system" x="550.00" id="24330" height="5.00" width="5.00" Name="DP-1YE" ID="30002014" Region="黑渊" y="200.00" /><text y="200.00" x="550.00" id="24331">DP-1YE</text><rect Type="system" x="550.00" id="24333" height="5.00" width="5.00" Name="MI6O-6" ID="30001988" Region="黑渊" y="450.00" /><text y="450.00" x="550.00" id="24334">MI6O-6</text><rect Type="system" x="550.00" id="24336" height="5.00" width="5.00" Name="UR-E6D" ID="30001966" Region="黑渊" y="120.00" /><text y="120.00" x="550.00" id="24337">UR-E6D</text><rect Type="system" x="580.00" id="24339" height="5.00" width="5.00" Name="3V8-LJ" ID="30002011" Region="黑渊" y="320.00" /><text y="320.00" x="580.00" id="24340">3V8-LJ</text><rect Type="system" x="600.00" id="24342" height="5.00" width="5.00" Name="R6XN-9" ID="30002010" Region="黑渊" y="380.00" /><text y="380.00" x="600.00" id="24343">R6XN-9</text><rect Type="system" x="600.00" id="24345" height="5.00" width="5.00" Name="L-TS8S" ID="30001989" Region="黑渊" y="450.00" /><text y="450.00" x="600.00" id="24346">L-TS8S</text><rect Type="system" x="600.00" id="24348" height="5.00" width="5.00" Name="O-BY0Y" ID="30001964" Region="黑渊" y="100.00" /><text y="100.00" x="600.00" id="24349">O-BY0Y</text><rect Type="system" x="600.00" id="24351" height="5.00" width="5.00" Name="O-N8XZ" ID="30001986" Region="黑渊" y="500.00" /><text y="500.00" x="600.00" id="24352">O-N8XZ</text><rect Type="system" x="617.68" id="24354" height="5.00" width="5.00" Name="2-6TGQ" ID="30002007" Region="黑渊" y="197.68" /><text y="197.68" x="617.68" id="24355">2-6TGQ</text><rect Type="system" x="620.00" id="24357" height="5.00" width="5.00" Name="JE-D5U" ID="30002006" Region="黑渊" y="280.00" /><text y="280.00" x="620.00" id="24358">JE-D5U</text><rect Type="system" x="650.00" id="24360" height="5.00" width="5.00" Name="EWOK-K" ID="30001985" Region="黑渊" y="575.50" /><text y="575.50" x="650.00" id="24361">EWOK-K</text><rect Type="system" x="650.00" id="24363" height="5.00" width="5.00" Name="EC-P8R" ID="30001984" Region="黑渊" y="624.50" /><text y="624.50" x="650.00" id="24364">EC-P8R</text><rect Type="system" x="652.32" id="24366" height="5.00" width="5.00" Name="5ZXX-K" ID="30002005" Region="黑渊" y="232.32" /><text y="232.32" x="652.32" id="24367">5ZXX-K</text><rect Type="system" x="680.00" id="24369" height="5.00" width="5.00" Name="2D-0SO" ID="30001965" Region="黑渊" y="120.00" /><text y="120.00" x="680.00" id="24370">2D-0SO</text><rect Type="system" x="679.04" id="24372" height="5.00" width="5.00" Name="PFU-LH" ID="30002009" Region="黑渊" y="321.91" /><text y="321.91" x="679.04" id="24373">PFU-LH</text><rect Type="system" x="700.00" id="24375" height="5.00" width="5.00" Name="8S-0E1" ID="30002004" Region="黑渊" y="180.00" /><text y="180.00" x="700.00" id="24376">8S-0E1</text><rect Type="system" x="700.96" id="24378" height="5.00" width="5.00" Name="OE-9UF" ID="30002008" Region="黑渊" y="278.09" /><text y="278.09" x="700.96" id="24379">OE-9UF</text><rect Type="system" x="720.00" id="24381" height="5.00" width="5.00" Name="G-M4I8" ID="30001987" Region="黑渊" y="600.00" /><text y="600.00" x="720.00" id="24382">G-M4I8</text><rect Type="system" x="750.00" id="24384" height="5.00" width="5.00" Name="U-INPD" ID="30001997" Region="黑渊" y="20.00" /><text y="20.00" x="750.00" id="24385">U-INPD</text><rect Type="system" x="750.00" id="24387" height="5.00" width="5.00" Name="D7T-C0" ID="30001968" Region="黑渊" y="150.00" /><text y="150.00" x="750.00" id="24388">D7T-C0</text><rect Type="system" x="780.00" id="24390" height="5.00" width="5.00" Name="93PI-4" ID="30001990" Region="黑渊" y="650.00" /><text y="650.00" x="780.00" id="24391">93PI-4</text><rect Type="system" x="836.23" id="24393" height="5.00" width="5.00" Name="XI-VUF" ID="30001973" Region="黑渊" y="120.94" /><text y="120.94" x="836.23" id="24394">XI-VUF</text><rect Type="system" x="800.00" id="24396" height="5.00" width="5.00" Name="R-2R0G" ID="30002002" Region="黑渊" y="580.00" /><text y="580.00" x="800.00" id="24397">R-2R0G</text><rect Type="system" x="820.00" id="24399" height="5.00" width="5.00" Name="KI-TL0" ID="30001969" Region="黑渊" y="180.00" /><text y="180.00" x="820.00" id="24400">KI-TL0</text><rect Type="system" x="870.00" id="24402" height="5.00" width="5.00" Name="DK-FXK" ID="30001994" Region="黑渊" y="50.00" /><text y="50.00" x="870.00" id="24403">DK-FXK</text><rect Type="system" x="850.00" id="24405" height="5.00" width="5.00" Name="JC-YX8" ID="30001971" Region="黑渊" y="280.00" /><text y="280.00" x="850.00" id="24406">JC-YX8</text><rect Type="system" x="850.00" id="24408" height="5.00" width="5.00" Name="M-YCD4" ID="30002000" Region="黑渊" y="480.00" /><text y="480.00" x="850.00" id="24409">M-YCD4</text><rect Type="system" x="883.77" id="24411" height="5.00" width="5.00" Name="A8I-C5" ID="30001993" Region="黑渊" y="109.06" /><text y="109.06" x="883.77" id="24412">A8I-C5</text><rect Type="system" x="880.00" id="24414" height="5.00" width="5.00" Name="EL8-4Q" ID="30001970" Region="黑渊" y="230.00" /><text y="230.00" x="880.00" id="24415">EL8-4Q</text><rect Type="system" x="900.00" id="24417" height="5.00" width="5.00" Name="Q-5211" ID="30002001" Region="黑渊" y="530.00" /><text y="530.00" x="900.00" id="24418">Q-5211</text><rect Type="system" x="900.00" id="24420" height="5.00" width="5.00" Name="N-H32Y" ID="30001974" Region="黑渊" y="180.00" /><text y="180.00" x="900.00" id="24421">N-H32Y</text><rect Type="system" x="920.00" id="24423" height="5.00" width="5.00" Name="5-9WNU" ID="30001972" Region="黑渊" y="280.00" /><text y="280.00" x="920.00" id="24424">5-9WNU</text><rect Type="system" x="920.00" id="24426" height="5.00" width="5.00" Name="ZJET-E" ID="30001996" Region="黑渊" y="30.00" /><text y="30.00" x="920.00" id="24427">ZJET-E</text><rect Type="system" x="920.00" id="24429" height="5.00" width="5.00" Name="XQ-PXU" ID="30001999" Region="黑渊" y="480.00" /><text y="480.00" x="920.00" id="24430">XQ-PXU</text><rect Type="system" x="950.00" id="24432" height="5.00" width="5.00" Name="C-H9X7" ID="30001992" Region="黑渊" y="130.00" /><text y="130.00" x="950.00" id="24433">C-H9X7</text><rect Type="system" x="950.00" id="24435" height="5.00" width="5.00" Name="WW-KGD" ID="30001998" Region="黑渊" y="430.00" /><text y="430.00" x="950.00" id="24436">WW-KGD</text><rect Type="system" x="950.00" id="24438" height="5.00" width="5.00" Name="CR-AQH" ID="30002003" Region="黑渊" y="580.00" /><text y="580.00" x="950.00" id="24439">CR-AQH</text><rect Type="system" x="950.00" id="24441" height="5.00" width="5.00" Name="M-76XI" ID="30001995" Region="黑渊" y="80.00" /><text y="80.00" x="950.00" id="24442">M-76XI</text><rect Type="system" x="950.00" id="24444" height="5.00" width="5.00" Name="12YA-2" ID="30001975" Region="黑渊" y="330.00" /><text y="330.00" x="950.00" id="24445">12YA-2</text><rect Type="system" x="980.00" id="24447" height="5.00" width="5.00" Name="BDV3-T" ID="30001976" Region="黑渊" y="380.00" /><text y="380.00" x="980.00" id="24448">BDV3-T</text><rect Type="system" x="980.00" id="24450" height="5.00" width="5.00" Name="ION-FG" ID="30001991" Region="黑渊" y="210.00" /><text y="210.00" x="980.00" id="24451">ION-FG</text><rect Type="system" x="20.00" id="24453" height="5.00" width="5.00" Name="X36Y-G" ID="30003688" Region="斐德" y="120.00" /><text y="120.00" x="20.00" id="24454">X36Y-G</text><rect Type="system" x="20.00" id="24456" height="5.00" width="5.00" Name="Z-Y7R7" ID="30004063" Region="云环" y="700.00" /><text y="700.00" x="20.00" id="24457">Z-Y7R7</text><rect Type="system" x="80.00" id="24459" height="5.00" width="5.00" Name="O1Y-ED" ID="30003686" Region="斐德" y="100.00" /><text y="100.00" x="80.00" id="24460">O1Y-ED</text><rect Type="system" x="150.00" id="24462" height="5.00" width="5.00" Name="L-SCBU" ID="30003684" Region="斐德" y="50.00" /><text y="50.00" x="150.00" id="24463">L-SCBU</text><rect Type="system" x="320.00" id="24465" height="5.00" width="5.00" Name="曼特劳提" ID="30003855" Region="宁静之域" y="730.00" /><text y="730.00" x="320.00" id="24466">曼特劳提</text><rect Type="system" x="350.00" id="24468" height="5.00" width="5.00" Name="P-33KR" ID="30003680" Region="斐德" y="20.00" /><text y="20.00" x="350.00" id="24469">P-33KR</text><rect Type="system" x="350.00" id="24471" height="5.00" width="5.00" Name="CR-IFM" ID="30003678" Region="斐德" y="80.00" /><text y="80.00" x="350.00" id="24472">CR-IFM</text><rect Type="system" x="420.00" id="24474" height="5.00" width="5.00" Name="DO6H-Q" ID="30003681" Region="斐德" y="20.00" /><text y="20.00" x="420.00" id="24475">DO6H-Q</text><rect Type="system" x="420.00" id="24477" height="5.00" width="5.00" Name="HHK-VL" ID="30003679" Region="斐德" y="80.00" /><text y="80.00" x="420.00" id="24478">HHK-VL</text><rect Type="system" x="550.00" id="24480" height="5.00" width="5.00" Name="0-YMBJ" ID="30000857" Region="特布特" y="50.00" /><text y="50.00" x="550.00" id="24481">0-YMBJ</text><rect Type="system" x="650.00" id="24483" height="5.00" width="5.00" Name="托里诺斯" ID="30001429" Region="长征" y="680.00" /><text y="680.00" x="650.00" id="24484">托里诺斯</text><rect Type="system" x="830.00" id="24486" height="5.00" width="5.00" Name="萨然恩" ID="30001442" Region="长征" y="690.00" /><text y="690.00" x="830.00" id="24487">萨然恩</text><line style="stroke:blue;fill:blue;" id="24489" x2="97.68" x1="17.68" y1="317.68" y2="317.68" /><line style="stroke:blue;fill:blue;" id="24490" x2="52.32" x1="17.68" y1="317.68" y2="352.32" /><line style="stroke:blue;fill:blue;" id="24491" x2="80.00" x1="17.68" y1="317.68" y2="180.00" /><line style="stroke:blue;fill:blue;" id="24492" x2="50.00" x1="30.00" y1="650.00" y2="600.00" /><line style="stroke:blue;fill:blue;" id="24493" x2="20.00" x1="30.00" y1="650.00" y2="700.00" /><line style="stroke:blue;fill:blue;" id="24494" x2="97.68" x1="52.32" y1="352.32" y2="317.68" /><line style="stroke:blue;fill:blue;" id="24495" x2="17.68" x1="52.32" y1="352.32" y2="317.68" /><line style="stroke:blue;fill:blue;" id="24496" x2="132.32" x1="52.32" y1="352.32" y2="352.32" /><line style="stroke:blue;fill:blue;" id="24497" x2="50.00" x1="52.32" y1="352.32" y2="500.00" /><line style="stroke:blue;fill:blue;" id="24498" x2="52.32" x1="50.00" y1="500.00" y2="352.32" /><line style="stroke:blue;fill:blue;" id="24499" x2="50.00" x1="50.00" y1="500.00" y2="550.00" /><line style="stroke:blue;fill:blue;" id="24500" x2="50.00" x1="50.00" y1="550.00" y2="500.00" /><line style="stroke:blue;fill:blue;" id="24501" x2="50.00" x1="50.00" y1="550.00" y2="600.00" /><line style="stroke:blue;fill:blue;" id="24502" x2="50.00" x1="50.00" y1="600.00" y2="550.00" /><line style="stroke:blue;fill:blue;" id="24503" x2="100.00" x1="50.00" y1="600.00" y2="650.00" /><line style="stroke:blue;fill:blue;" id="24504" x2="30.00" x1="50.00" y1="600.00" y2="650.00" /><line style="stroke:blue;fill:blue;" id="24505" x2="17.68" x1="80.00" y1="180.00" y2="317.68" /><line style="stroke:blue;fill:blue;" id="24506" x2="150.00" x1="80.00" y1="180.00" y2="100.00" /><line style="stroke:blue;fill:blue;" id="24507" x2="20.00" x1="80.00" y1="180.00" y2="120.00" /><line style="stroke:blue;fill:blue;" id="24508" x2="180.00" x1="97.68" y1="317.68" y2="320.00" /><line style="stroke:blue;fill:blue;" id="24509" x2="150.00" x1="97.68" y1="317.68" y2="280.00" /><line style="stroke:blue;fill:blue;" id="24510" x2="17.68" x1="97.68" y1="317.68" y2="317.68" /><line style="stroke:blue;fill:blue;" id="24511" x2="52.32" x1="97.68" y1="317.68" y2="352.32" /><line style="stroke:blue;fill:blue;" id="24512" x2="132.32" x1="97.68" y1="317.68" y2="352.32" /><line style="stroke:blue;fill:blue;" id="24513" x2="50.00" x1="100.00" y1="650.00" y2="600.00" /><line style="stroke:blue;fill:blue;" id="24514" x2="100.00" x1="100.00" y1="650.00" y2="700.00" /><line style="stroke:blue;fill:blue;" id="24515" x2="100.00" x1="100.00" y1="700.00" y2="650.00" /><line style="stroke:blue;fill:blue;" id="24516" x2="97.68" x1="132.32" y1="352.32" y2="317.68" /><line style="stroke:blue;fill:blue;" id="24517" x2="52.32" x1="132.32" y1="352.32" y2="352.32" /><line style="stroke:blue;fill:blue;" id="24518" x2="180.00" x1="150.00" y1="280.00" y2="320.00" /><line style="stroke:blue;fill:blue;" id="24519" x2="97.68" x1="150.00" y1="280.00" y2="317.68" /><line style="stroke:blue;fill:blue;" id="24520" x2="250.00" x1="150.00" y1="100.00" y2="50.00" /><line style="stroke:blue;fill:blue;" id="24521" x2="150.00" x1="150.00" y1="100.00" y2="50.00" /><line style="stroke:blue;fill:blue;" id="24522" x2="80.00" x1="150.00" y1="100.00" y2="180.00" /><line style="stroke:blue;fill:blue;" id="24523" x2="80.00" x1="150.00" y1="100.00" y2="100.00" /><line style="stroke:blue;fill:blue;" id="24524" x2="250.00" x1="180.00" y1="320.00" y2="320.00" /><line style="stroke:blue;fill:blue;" id="24525" x2="97.68" x1="180.00" y1="320.00" y2="317.68" /><line style="stroke:blue;fill:blue;" id="24526" x2="150.00" x1="180.00" y1="320.00" y2="280.00" /><line style="stroke:blue;fill:blue;" id="24527" x2="240.00" x1="170.00" y1="680.00" y2="680.00" /><line style="stroke:blue;fill:blue;" id="24528" x2="210.00" x1="170.00" y1="680.00" y2="640.00" /><line style="stroke:blue;fill:blue;" id="24529" x2="170.00" x1="170.00" y1="680.00" y2="730.00" /><line style="stroke:blue;fill:blue;" id="24530" x2="170.00" x1="170.00" y1="730.00" y2="680.00" /><line style="stroke:blue;fill:blue;" id="24531" x2="280.00" x1="210.00" y1="640.00" y2="640.00" /><line style="stroke:blue;fill:blue;" id="24532" x2="170.00" x1="210.00" y1="640.00" y2="680.00" /><line style="stroke:blue;fill:blue;" id="24533" x2="300.00" x1="250.00" y1="320.00" y2="320.00" /><line style="stroke:blue;fill:blue;" id="24534" x2="250.00" x1="250.00" y1="320.00" y2="375.50" /><line style="stroke:blue;fill:blue;" id="24535" x2="180.00" x1="250.00" y1="320.00" y2="320.00" /><line style="stroke:blue;fill:blue;" id="24536" x2="300.00" x1="250.00" y1="375.50" y2="380.00" /><line style="stroke:blue;fill:blue;" id="24537" x2="250.00" x1="250.00" y1="375.50" y2="320.00" /><line style="stroke:blue;fill:blue;" id="24538" x2="250.00" x1="250.00" y1="375.50" y2="424.50" /><line style="stroke:blue;fill:blue;" id="24539" x2="250.00" x1="250.00" y1="424.50" y2="375.50" /><line style="stroke:blue;fill:blue;" id="24540" x2="250.00" x1="250.00" y1="424.50" y2="480.00" /><line style="stroke:blue;fill:blue;" id="24541" x2="350.00" x1="250.00" y1="50.00" y2="20.00" /><line style="stroke:blue;fill:blue;" id="24542" x2="150.00" x1="250.00" y1="50.00" y2="100.00" /><line style="stroke:blue;fill:blue;" id="24543" x2="250.00" x1="250.00" y1="480.00" y2="424.50" /><line style="stroke:blue;fill:blue;" id="24544" x2="280.00" x1="250.00" y1="480.00" y2="640.00" /><line style="stroke:blue;fill:blue;" id="24545" x2="280.00" x1="240.00" y1="680.00" y2="640.00" /><line style="stroke:blue;fill:blue;" id="24546" x2="170.00" x1="240.00" y1="680.00" y2="680.00" /><line style="stroke:blue;fill:blue;" id="24547" x2="320.00" x1="240.00" y1="680.00" y2="680.00" /><line style="stroke:blue;fill:blue;" id="24548" x2="240.00" x1="240.00" y1="680.00" y2="730.00" /><line style="stroke:blue;fill:blue;" id="24549" x2="240.00" x1="240.00" y1="730.00" y2="680.00" /><line style="stroke:blue;fill:blue;" id="24550" x2="250.00" x1="280.00" y1="640.00" y2="480.00" /><line style="stroke:blue;fill:blue;" id="24551" x2="240.00" x1="280.00" y1="640.00" y2="680.00" /><line style="stroke:blue;fill:blue;" id="24552" x2="210.00" x1="280.00" y1="640.00" y2="640.00" /><line style="stroke:blue;fill:blue;" id="24553" x2="320.00" x1="280.00" y1="640.00" y2="680.00" /><line style="stroke:blue;fill:blue;" id="24554" x2="300.00" x1="280.00" y1="250.00" y2="320.00" /><line style="stroke:blue;fill:blue;" id="24555" x2="380.00" x1="300.00" y1="320.00" y2="324.50" /><line style="stroke:blue;fill:blue;" id="24556" x2="300.00" x1="300.00" y1="320.00" y2="380.00" /><line style="stroke:blue;fill:blue;" id="24557" x2="250.00" x1="300.00" y1="320.00" y2="320.00" /><line style="stroke:blue;fill:blue;" id="24558" x2="280.00" x1="300.00" y1="320.00" y2="250.00" /><line style="stroke:blue;fill:blue;" id="24559" x2="300.00" x1="300.00" y1="380.00" y2="320.00" /><line style="stroke:blue;fill:blue;" id="24560" x2="250.00" x1="300.00" y1="380.00" y2="375.50" /><line style="stroke:blue;fill:blue;" id="24561" x2="280.00" x1="320.00" y1="680.00" y2="640.00" /><line style="stroke:blue;fill:blue;" id="24562" x2="240.00" x1="320.00" y1="680.00" y2="680.00" /><line style="stroke:blue;fill:blue;" id="24563" x2="320.00" x1="320.00" y1="680.00" y2="730.00" /><line style="stroke:blue;fill:blue;" id="24564" x2="420.00" x1="350.00" y1="600.00" y2="520.00" /><line style="stroke:blue;fill:blue;" id="24565" x2="480.00" x1="350.00" y1="600.00" y2="600.00" /><line style="stroke:blue;fill:blue;" id="24566" x2="420.00" x1="350.00" y1="600.00" y2="580.00" /><line style="stroke:blue;fill:blue;" id="24567" x2="380.00" x1="380.00" y1="120.00" y2="175.50" /><line style="stroke:blue;fill:blue;" id="24568" x2="350.00" x1="380.00" y1="120.00" y2="80.00" /><line style="stroke:blue;fill:blue;" id="24569" x2="420.00" x1="380.00" y1="120.00" y2="80.00" /><line style="stroke:blue;fill:blue;" id="24570" x2="380.00" x1="380.00" y1="175.50" y2="224.50" /><line style="stroke:blue;fill:blue;" id="24571" x2="380.00" x1="380.00" y1="175.50" y2="120.00" /><line style="stroke:blue;fill:blue;" id="24572" x2="380.00" x1="380.00" y1="224.50" y2="275.50" /><line style="stroke:blue;fill:blue;" id="24573" x2="380.00" x1="380.00" y1="224.50" y2="175.50" /><line style="stroke:blue;fill:blue;" id="24574" x2="450.00" x1="380.00" y1="275.50" y2="275.50" /><line style="stroke:blue;fill:blue;" id="24575" x2="380.00" x1="380.00" y1="275.50" y2="324.50" /><line style="stroke:blue;fill:blue;" id="24576" x2="380.00" x1="380.00" y1="275.50" y2="224.50" /><line style="stroke:blue;fill:blue;" id="24577" x2="450.00" x1="380.00" y1="324.50" y2="324.50" /><line style="stroke:blue;fill:blue;" id="24578" x2="450.00" x1="380.00" y1="324.50" y2="380.00" /><line style="stroke:blue;fill:blue;" id="24579" x2="380.00" x1="380.00" y1="324.50" y2="380.00" /><line style="stroke:blue;fill:blue;" id="24580" x2="380.00" x1="380.00" y1="324.50" y2="275.50" /><line style="stroke:blue;fill:blue;" id="24581" x2="300.00" x1="380.00" y1="324.50" y2="320.00" /><line style="stroke:blue;fill:blue;" id="24582" x2="450.00" x1="380.00" y1="380.00" y2="380.00" /><line style="stroke:blue;fill:blue;" id="24583" x2="380.00" x1="380.00" y1="380.00" y2="324.50" /><line style="stroke:blue;fill:blue;" id="24584" x2="380.00" x1="380.00" y1="380.00" y2="450.00" /><line style="stroke:blue;fill:blue;" id="24585" x2="380.00" x1="380.00" y1="450.00" y2="380.00" /><line style="stroke:blue;fill:blue;" id="24586" x2="420.00" x1="380.00" y1="450.00" y2="520.00" /><line style="stroke:blue;fill:blue;" id="24587" x2="380.00" x1="420.00" y1="520.00" y2="450.00" /><line style="stroke:blue;fill:blue;" id="24588" x2="480.00" x1="420.00" y1="520.00" y2="600.00" /><line style="stroke:blue;fill:blue;" id="24589" x2="420.00" x1="420.00" y1="520.00" y2="580.00" /><line style="stroke:blue;fill:blue;" id="24590" x2="350.00" x1="420.00" y1="520.00" y2="600.00" /><line style="stroke:blue;fill:blue;" id="24591" x2="420.00" x1="420.00" y1="580.00" y2="520.00" /><line style="stroke:blue;fill:blue;" id="24592" x2="480.00" x1="420.00" y1="580.00" y2="600.00" /><line style="stroke:blue;fill:blue;" id="24593" x2="350.00" x1="420.00" y1="580.00" y2="600.00" /><line style="stroke:blue;fill:blue;" id="24594" x2="450.00" x1="450.00" y1="275.50" y2="150.00" /><line style="stroke:blue;fill:blue;" id="24595" x2="450.00" x1="450.00" y1="275.50" y2="324.50" /><line style="stroke:blue;fill:blue;" id="24596" x2="380.00" x1="450.00" y1="275.50" y2="275.50" /><line style="stroke:blue;fill:blue;" id="24597" x2="500.00" x1="450.00" y1="275.50" y2="220.00" /><line style="stroke:blue;fill:blue;" id="24598" x2="450.00" x1="450.00" y1="324.50" y2="275.50" /><line style="stroke:blue;fill:blue;" id="24599" x2="450.00" x1="450.00" y1="324.50" y2="380.00" /><line style="stroke:blue;fill:blue;" id="24600" x2="380.00" x1="450.00" y1="324.50" y2="324.50" /><line style="stroke:blue;fill:blue;" id="24601" x2="600.00" x1="450.00" y1="324.50" y2="450.00" /><line style="stroke:blue;fill:blue;" id="24602" x2="600.00" x1="450.00" y1="324.50" y2="380.00" /><line style="stroke:blue;fill:blue;" id="24603" x2="520.00" x1="450.00" y1="324.50" y2="324.50" /><line style="stroke:blue;fill:blue;" id="24604" x2="450.00" x1="450.00" y1="380.00" y2="324.50" /><line style="stroke:blue;fill:blue;" id="24605" x2="380.00" x1="450.00" y1="380.00" y2="324.50" /><line style="stroke:blue;fill:blue;" id="24606" x2="380.00" x1="450.00" y1="380.00" y2="380.00" /><line style="stroke:blue;fill:blue;" id="24607" x2="500.00" x1="450.00" y1="150.00" y2="100.00" /><line style="stroke:blue;fill:blue;" id="24608" x2="550.00" x1="450.00" y1="150.00" y2="120.00" /><line style="stroke:blue;fill:blue;" id="24609" x2="450.00" x1="450.00" y1="150.00" y2="275.50" /><line style="stroke:blue;fill:blue;" id="24610" x2="420.00" x1="480.00" y1="600.00" y2="520.00" /><line style="stroke:blue;fill:blue;" id="24611" x2="510.00" x1="480.00" y1="600.00" y2="650.00" /><line style="stroke:blue;fill:blue;" id="24612" x2="420.00" x1="480.00" y1="600.00" y2="580.00" /><line style="stroke:blue;fill:blue;" id="24613" x2="350.00" x1="480.00" y1="600.00" y2="600.00" /><line style="stroke:blue;fill:blue;" id="24614" x2="450.00" x1="500.00" y1="220.00" y2="275.50" /><line style="stroke:blue;fill:blue;" id="24615" x2="520.00" x1="500.00" y1="220.00" y2="275.50" /><line style="stroke:blue;fill:blue;" id="24616" x2="550.00" x1="500.00" y1="220.00" y2="200.00" /><line style="stroke:blue;fill:blue;" id="24617" x2="480.00" x1="510.00" y1="650.00" y2="600.00" /><line style="stroke:blue;fill:blue;" id="24618" x2="550.00" x1="500.00" y1="100.00" y2="50.00" /><line style="stroke:blue;fill:blue;" id="24619" x2="600.00" x1="500.00" y1="100.00" y2="100.00" /><line style="stroke:blue;fill:blue;" id="24620" x2="450.00" x1="500.00" y1="100.00" y2="150.00" /><line style="stroke:blue;fill:blue;" id="24621" x2="580.00" x1="520.00" y1="275.50" y2="320.00" /><line style="stroke:blue;fill:blue;" id="24622" x2="500.00" x1="520.00" y1="275.50" y2="220.00" /><line style="stroke:blue;fill:blue;" id="24623" x2="450.00" x1="520.00" y1="324.50" y2="324.50" /><line style="stroke:blue;fill:blue;" id="24624" x2="580.00" x1="520.00" y1="324.50" y2="320.00" /><line style="stroke:blue;fill:blue;" id="24625" x2="617.68" x1="550.00" y1="200.00" y2="197.68" /><line style="stroke:blue;fill:blue;" id="24626" x2="580.00" x1="550.00" y1="200.00" y2="320.00" /><line style="stroke:blue;fill:blue;" id="24627" x2="500.00" x1="550.00" y1="200.00" y2="220.00" /><line style="stroke:blue;fill:blue;" id="24628" x2="600.00" x1="550.00" y1="450.00" y2="500.00" /><line style="stroke:blue;fill:blue;" id="24629" x2="680.00" x1="550.00" y1="120.00" y2="120.00" /><line style="stroke:blue;fill:blue;" id="24630" x2="450.00" x1="550.00" y1="120.00" y2="150.00" /><line style="stroke:blue;fill:blue;" id="24631" x2="600.00" x1="580.00" y1="320.00" y2="380.00" /><line style="stroke:blue;fill:blue;" id="24632" x2="520.00" x1="580.00" y1="320.00" y2="324.50" /><line style="stroke:blue;fill:blue;" id="24633" x2="520.00" x1="580.00" y1="320.00" y2="275.50" /><line style="stroke:blue;fill:blue;" id="24634" x2="550.00" x1="580.00" y1="320.00" y2="200.00" /><line style="stroke:blue;fill:blue;" id="24635" x2="450.00" x1="600.00" y1="380.00" y2="324.50" /><line style="stroke:blue;fill:blue;" id="24636" x2="600.00" x1="600.00" y1="380.00" y2="450.00" /><line style="stroke:blue;fill:blue;" id="24637" x2="620.00" x1="600.00" y1="380.00" y2="280.00" /><line style="stroke:blue;fill:blue;" id="24638" x2="580.00" x1="600.00" y1="380.00" y2="320.00" /><line style="stroke:blue;fill:blue;" id="24639" x2="450.00" x1="600.00" y1="450.00" y2="324.50" /><line style="stroke:blue;fill:blue;" id="24640" x2="600.00" x1="600.00" y1="450.00" y2="500.00" /><line style="stroke:blue;fill:blue;" id="24641" x2="600.00" x1="600.00" y1="450.00" y2="380.00" /><line style="stroke:blue;fill:blue;" id="24642" x2="500.00" x1="600.00" y1="100.00" y2="100.00" /><line style="stroke:blue;fill:blue;" id="24643" x2="680.00" x1="600.00" y1="100.00" y2="120.00" /><line style="stroke:blue;fill:blue;" id="24644" x2="650.00" x1="600.00" y1="500.00" y2="575.50" /><line style="stroke:blue;fill:blue;" id="24645" x2="550.00" x1="600.00" y1="500.00" y2="450.00" /><line style="stroke:blue;fill:blue;" id="24646" x2="600.00" x1="600.00" y1="500.00" y2="450.00" /><line style="stroke:blue;fill:blue;" id="24647" x2="652.32" x1="617.68" y1="197.68" y2="232.32" /><line style="stroke:blue;fill:blue;" id="24648" x2="550.00" x1="617.68" y1="197.68" y2="200.00" /><line style="stroke:blue;fill:blue;" id="24649" x2="652.32" x1="620.00" y1="280.00" y2="232.32" /><line style="stroke:blue;fill:blue;" id="24650" x2="700.96" x1="620.00" y1="280.00" y2="278.09" /><line style="stroke:blue;fill:blue;" id="24651" x2="679.04" x1="620.00" y1="280.00" y2="321.91" /><line style="stroke:blue;fill:blue;" id="24652" x2="600.00" x1="620.00" y1="280.00" y2="380.00" /><line style="stroke:blue;fill:blue;" id="24653" x2="650.00" x1="650.00" y1="575.50" y2="624.50" /><line style="stroke:blue;fill:blue;" id="24654" x2="600.00" x1="650.00" y1="575.50" y2="500.00" /><line style="stroke:blue;fill:blue;" id="24655" x2="720.00" x1="650.00" y1="575.50" y2="600.00" /><line style="stroke:blue;fill:blue;" id="24656" x2="650.00" x1="650.00" y1="624.50" y2="680.00" /><line style="stroke:blue;fill:blue;" id="24657" x2="650.00" x1="650.00" y1="624.50" y2="575.50" /><line style="stroke:blue;fill:blue;" id="24658" x2="720.00" x1="650.00" y1="624.50" y2="600.00" /><line style="stroke:blue;fill:blue;" id="24659" x2="700.00" x1="652.32" y1="232.32" y2="180.00" /><line style="stroke:blue;fill:blue;" id="24660" x2="620.00" x1="652.32" y1="232.32" y2="280.00" /><line style="stroke:blue;fill:blue;" id="24661" x2="617.68" x1="652.32" y1="232.32" y2="197.68" /><line style="stroke:blue;fill:blue;" id="24662" x2="600.00" x1="680.00" y1="120.00" y2="100.00" /><line style="stroke:blue;fill:blue;" id="24663" x2="550.00" x1="680.00" y1="120.00" y2="120.00" /><line style="stroke:blue;fill:blue;" id="24664" x2="750.00" x1="680.00" y1="120.00" y2="150.00" /><line style="stroke:blue;fill:blue;" id="24665" x2="620.00" x1="679.04" y1="321.91" y2="280.00" /><line style="stroke:blue;fill:blue;" id="24666" x2="700.96" x1="679.04" y1="321.91" y2="278.09" /><line style="stroke:blue;fill:blue;" id="24667" x2="750.00" x1="700.00" y1="180.00" y2="150.00" /><line style="stroke:blue;fill:blue;" id="24668" x2="652.32" x1="700.00" y1="180.00" y2="232.32" /><line style="stroke:blue;fill:blue;" id="24669" x2="620.00" x1="700.96" y1="278.09" y2="280.00" /><line style="stroke:blue;fill:blue;" id="24670" x2="679.04" x1="700.96" y1="278.09" y2="321.91" /><line style="stroke:blue;fill:blue;" id="24671" x2="650.00" x1="720.00" y1="600.00" y2="624.50" /><line style="stroke:blue;fill:blue;" id="24672" x2="650.00" x1="720.00" y1="600.00" y2="575.50" /><line style="stroke:blue;fill:blue;" id="24673" x2="780.00" x1="720.00" y1="600.00" y2="650.00" /><line style="stroke:blue;fill:blue;" id="24674" x2="800.00" x1="720.00" y1="600.00" y2="580.00" /><line style="stroke:blue;fill:blue;" id="24675" x2="883.77" x1="750.00" y1="20.00" y2="109.06" /><line style="stroke:blue;fill:blue;" id="24676" x2="870.00" x1="750.00" y1="20.00" y2="50.00" /><line style="stroke:blue;fill:blue;" id="24677" x2="420.00" x1="750.00" y1="20.00" y2="20.00" /><line style="stroke:blue;fill:blue;" id="24678" x2="680.00" x1="750.00" y1="150.00" y2="120.00" /><line style="stroke:blue;fill:blue;" id="24679" x2="820.00" x1="750.00" y1="150.00" y2="180.00" /><line style="stroke:blue;fill:blue;" id="24680" x2="700.00" x1="750.00" y1="150.00" y2="180.00" /><line style="stroke:blue;fill:blue;" id="24681" x2="830.00" x1="780.00" y1="650.00" y2="690.00" /><line style="stroke:blue;fill:blue;" id="24682" x2="720.00" x1="780.00" y1="650.00" y2="600.00" /><line style="stroke:blue;fill:blue;" id="24683" x2="820.00" x1="836.23" y1="120.94" y2="180.00" /><line style="stroke:blue;fill:blue;" id="24684" x2="720.00" x1="800.00" y1="580.00" y2="600.00" /><line style="stroke:blue;fill:blue;" id="24685" x2="850.00" x1="800.00" y1="580.00" y2="480.00" /><line style="stroke:blue;fill:blue;" id="24686" x2="900.00" x1="800.00" y1="580.00" y2="530.00" /><line style="stroke:blue;fill:blue;" id="24687" x2="950.00" x1="800.00" y1="580.00" y2="580.00" /><line style="stroke:blue;fill:blue;" id="24688" x2="750.00" x1="820.00" y1="180.00" y2="150.00" /><line style="stroke:blue;fill:blue;" id="24689" x2="880.00" x1="820.00" y1="180.00" y2="230.00" /><line style="stroke:blue;fill:blue;" id="24690" x2="836.23" x1="820.00" y1="180.00" y2="120.94" /><line style="stroke:blue;fill:blue;" id="24691" x2="883.77" x1="870.00" y1="50.00" y2="109.06" /><line style="stroke:blue;fill:blue;" id="24692" x2="950.00" x1="870.00" y1="50.00" y2="80.00" /><line style="stroke:blue;fill:blue;" id="24693" x2="920.00" x1="870.00" y1="50.00" y2="30.00" /><line style="stroke:blue;fill:blue;" id="24694" x2="750.00" x1="870.00" y1="50.00" y2="20.00" /><line style="stroke:blue;fill:blue;" id="24695" x2="880.00" x1="850.00" y1="280.00" y2="230.00" /><line style="stroke:blue;fill:blue;" id="24696" x2="920.00" x1="850.00" y1="480.00" y2="480.00" /><line style="stroke:blue;fill:blue;" id="24697" x2="900.00" x1="850.00" y1="480.00" y2="530.00" /><line style="stroke:blue;fill:blue;" id="24698" x2="800.00" x1="850.00" y1="480.00" y2="580.00" /><line style="stroke:blue;fill:blue;" id="24699" x2="950.00" x1="883.77" y1="109.06" y2="130.00" /><line style="stroke:blue;fill:blue;" id="24700" x2="870.00" x1="883.77" y1="109.06" y2="50.00" /><line style="stroke:blue;fill:blue;" id="24701" x2="750.00" x1="883.77" y1="109.06" y2="20.00" /><line style="stroke:blue;fill:blue;" id="24702" x2="820.00" x1="880.00" y1="230.00" y2="180.00" /><line style="stroke:blue;fill:blue;" id="24703" x2="850.00" x1="880.00" y1="230.00" y2="280.00" /><line style="stroke:blue;fill:blue;" id="24704" x2="920.00" x1="880.00" y1="230.00" y2="280.00" /><line style="stroke:blue;fill:blue;" id="24705" x2="900.00" x1="880.00" y1="230.00" y2="180.00" /><line style="stroke:blue;fill:blue;" id="24706" x2="850.00" x1="900.00" y1="530.00" y2="480.00" /><line style="stroke:blue;fill:blue;" id="24707" x2="800.00" x1="900.00" y1="530.00" y2="580.00" /><line style="stroke:blue;fill:blue;" id="24708" x2="950.00" x1="900.00" y1="530.00" y2="580.00" /><line style="stroke:blue;fill:blue;" id="24709" x2="880.00" x1="900.00" y1="180.00" y2="230.00" /><line style="stroke:blue;fill:blue;" id="24710" x2="880.00" x1="920.00" y1="280.00" y2="230.00" /><line style="stroke:blue;fill:blue;" id="24711" x2="950.00" x1="920.00" y1="280.00" y2="330.00" /><line style="stroke:blue;fill:blue;" id="24712" x2="870.00" x1="920.00" y1="30.00" y2="50.00" /><line style="stroke:blue;fill:blue;" id="24713" x2="950.00" x1="920.00" y1="30.00" y2="80.00" /><line style="stroke:blue;fill:blue;" id="24714" x2="950.00" x1="920.00" y1="480.00" y2="430.00" /><line style="stroke:blue;fill:blue;" id="24715" x2="850.00" x1="920.00" y1="480.00" y2="480.00" /><line style="stroke:blue;fill:blue;" id="24716" x2="950.00" x1="920.00" y1="480.00" y2="580.00" /><line style="stroke:blue;fill:blue;" id="24717" x2="980.00" x1="950.00" y1="130.00" y2="210.00" /><line style="stroke:blue;fill:blue;" id="24718" x2="883.77" x1="950.00" y1="130.00" y2="109.06" /><line style="stroke:blue;fill:blue;" id="24719" x2="980.00" x1="950.00" y1="430.00" y2="380.00" /><line style="stroke:blue;fill:blue;" id="24720" x2="920.00" x1="950.00" y1="430.00" y2="480.00" /><line style="stroke:blue;fill:blue;" id="24721" x2="920.00" x1="950.00" y1="580.00" y2="480.00" /><line style="stroke:blue;fill:blue;" id="24722" x2="900.00" x1="950.00" y1="580.00" y2="530.00" /><line style="stroke:blue;fill:blue;" id="24723" x2="800.00" x1="950.00" y1="580.00" y2="580.00" /><line style="stroke:blue;fill:blue;" id="24724" x2="870.00" x1="950.00" y1="80.00" y2="50.00" /><line style="stroke:blue;fill:blue;" id="24725" x2="920.00" x1="950.00" y1="80.00" y2="30.00" /><line style="stroke:blue;fill:blue;" id="24726" x2="920.00" x1="950.00" y1="330.00" y2="280.00" /><line style="stroke:blue;fill:blue;" id="24727" x2="980.00" x1="950.00" y1="330.00" y2="380.00" /><line style="stroke:blue;fill:blue;" id="24728" x2="950.00" x1="980.00" y1="380.00" y2="330.00" /><line style="stroke:blue;fill:blue;" id="24729" x2="980.00" x1="980.00" y1="380.00" y2="210.00" /><line style="stroke:blue;fill:blue;" id="24730" x2="950.00" x1="980.00" y1="380.00" y2="430.00" /><line style="stroke:blue;fill:blue;" id="24731" x2="980.00" x1="980.00" y1="210.00" y2="380.00" /><line style="stroke:blue;fill:blue;" id="24732" x2="950.00" x1="980.00" y1="210.00" y2="130.00" /><line style="stroke:blue;fill:blue;" id="24733" x2="80.00" x1="20.00" y1="120.00" y2="180.00" /><line style="stroke:blue;fill:blue;" id="24734" x2="30.00" x1="20.00" y1="700.00" y2="650.00" /><line style="stroke:blue;fill:blue;" id="24735" x2="150.00" x1="80.00" y1="100.00" y2="100.00" /><line style="stroke:blue;fill:blue;" id="24736" x2="150.00" x1="80.00" y1="100.00" y2="50.00" /><line style="stroke:blue;fill:blue;" id="24737" x2="150.00" x1="150.00" y1="50.00" y2="100.00" /><line style="stroke:blue;fill:blue;" id="24738" x2="80.00" x1="150.00" y1="50.00" y2="100.00" /><line style="stroke:blue;fill:blue;" id="24739" x2="320.00" x1="320.00" y1="730.00" y2="680.00" /><line style="stroke:blue;fill:blue;" id="24740" x2="350.00" x1="350.00" y1="20.00" y2="80.00" /><line style="stroke:blue;fill:blue;" id="24741" x2="420.00" x1="350.00" y1="20.00" y2="20.00" /><line style="stroke:blue;fill:blue;" id="24742" x2="250.00" x1="350.00" y1="20.00" y2="50.00" /><line style="stroke:blue;fill:blue;" id="24743" x2="380.00" x1="350.00" y1="80.00" y2="120.00" /><line style="stroke:blue;fill:blue;" id="24744" x2="420.00" x1="350.00" y1="80.00" y2="80.00" /><line style="stroke:blue;fill:blue;" id="24745" x2="350.00" x1="350.00" y1="80.00" y2="20.00" /><line style="stroke:blue;fill:blue;" id="24746" x2="750.00" x1="420.00" y1="20.00" y2="20.00" /><line style="stroke:blue;fill:blue;" id="24747" x2="420.00" x1="420.00" y1="20.00" y2="80.00" /><line style="stroke:blue;fill:blue;" id="24748" x2="350.00" x1="420.00" y1="20.00" y2="20.00" /><line style="stroke:blue;fill:blue;" id="24749" x2="380.00" x1="420.00" y1="80.00" y2="120.00" /><line style="stroke:blue;fill:blue;" id="24750" x2="350.00" x1="420.00" y1="80.00" y2="80.00" /><line style="stroke:blue;fill:blue;" id="24751" x2="420.00" x1="420.00" y1="80.00" y2="20.00" /><line style="stroke:blue;fill:blue;" id="24752" x2="500.00" x1="550.00" y1="50.00" y2="100.00" /><line style="stroke:blue;fill:blue;" id="24753" x2="650.00" x1="650.00" y1="680.00" y2="624.50" /><line style="stroke:blue;fill:blue;" id="24754" x2="780.00" x1="830.00" y1="690.00" y2="650.00" /></svg>
