<?xml version="1.0" standalone="yes"?><!DOCTYPE svg PUBLIC "-//W3C//DTD SVG 1.1//EN" "http://www.w3.org/Graphics/SVG/1.1/DTD/svg11.dtd"[]><svg height="800.00" id="24182" width="1050.00" xmlns="http://www.w3.org/2000/svg" xmlns:xlink="http://www.w3.org/1999/xlink"><rect Type="system" Region="黑渊" height="5.00" y="317.68" Name="E-Z2ZX" width="5.00" x="17.68" id="24183" ID="30002032" /><text x="17.68" y="317.68" id="24184">E-Z2ZX</text><rect Type="system" Region="黑渊" height="5.00" y="650.00" Name="7D-0SQ" width="5.00" x="30.00" id="24186" ID="30002046" /><text x="30.00" y="650.00" id="24187">7D-0SQ</text><rect Type="system" Region="黑渊" height="5.00" y="352.32" Name="RORZ-H" width="5.00" x="52.32" id="24189" ID="30002033" /><text x="52.32" y="352.32" id="24190">RORZ-H</text><rect Type="system" Region="黑渊" height="5.00" y="500.00" Name="KU5R-W" width="5.00" x="50.00" id="24192" ID="30002042" /><text x="50.00" y="500.00" id="24193">KU5R-W</text><rect Type="system" Region="黑渊" height="5.00" y="550.00" Name="H1-J33" width="5.00" x="50.00" id="24195" ID="30002043" /><text x="50.00" y="550.00" id="24196">H1-J33</text><rect Type="system" Region="黑渊" height="5.00" y="600.00" Name="Y-C3EQ" width="5.00" x="50.00" id="24198" ID="30002044" /><text x="50.00" y="600.00" id="24199">Y-C3EQ</text><rect Type="system" Region="斐德" height="5.00" y="180.00" Name="VRH-H7" width="5.00" x="80.00" id="24201" ID="30003685" /><text x="80.00" y="180.00" id="24202">VRH-H7</text><rect Type="system" Region="黑渊" height="5.00" y="317.68" Name="P-2TTL" width="5.00" x="97.68" id="24204" ID="30002030" /><text x="97.68" y="317.68" id="24205">P-2TTL</text><rect Type="system" Region="黑渊" height="5.00" y="650.00" Name="OGV-AS" width="5.00" x="100.00" id="24207" ID="30002045" /><text x="100.00" y="650.00" id="24208">OGV-AS</text><rect Type="system" Region="黑渊" height="5.00" y="700.00" Name="UI-8ZE" width="5.00" x="100.00" id="24210" ID="30002047" /><text x="100.00" y="700.00" id="24211">UI-8ZE</text><rect Type="system" Region="黑渊" height="5.00" y="352.32" Name="O-A6YN" width="5.00" x="132.32" id="24213" ID="30002034" /><text x="132.32" y="352.32" id="24214">O-A6YN</text><rect Type="system" Region="黑渊" height="5.00" y="280.00" Name="7X-VKB" width="5.00" x="150.00" id="24216" ID="30002031" /><text x="150.00" y="280.00" id="24217">7X-VKB</text><rect Type="system" Region="斐德" height="5.00" y="100.00" Name="O-CNPR" width="5.00" x="150.00" id="24219" ID="30003683" /><text x="150.00" y="100.00" id="24220">O-CNPR</text><rect Type="system" Region="黑渊" height="5.00" y="320.00" Name="B-9C24" width="5.00" x="180.00" id="24222" ID="30002029" /><text x="180.00" y="320.00" id="24223">B-9C24</text><rect Type="system" Region="黑渊" height="5.00" y="680.00" Name="Y2-6EA" width="5.00" x="170.00" id="24225" ID="30002037" /><text x="170.00" y="680.00" id="24226">Y2-6EA</text><rect Type="system" Region="黑渊" height="5.00" y="730.00" Name="DT-TCD" width="5.00" x="170.00" id="24228" ID="30002041" /><text x="170.00" y="730.00" id="24229">DT-TCD</text><rect Type="system" Region="黑渊" height="5.00" y="640.00" Name="TFA0-U" width="5.00" x="210.00" id="24231" ID="30002038" /><text x="210.00" y="640.00" id="24232">TFA0-U</text><rect Type="system" Region="黑渊" height="5.00" y="320.00" Name="F-NMX6" width="5.00" x="250.00" id="24234" ID="30002019" /><text x="250.00" y="320.00" id="24235">F-NMX6</text><rect Type="system" Region="黑渊" height="5.00" y="375.50" Name="ZKYV-W" width="5.00" x="250.00" id="24237" ID="30002018" /><text x="250.00" y="375.50" id="24238">ZKYV-W</text><rect Type="system" Region="黑渊" height="5.00" y="424.50" Name="FWA-4V" width="5.00" x="250.00" id="24240" ID="30002021" /><text x="250.00" y="424.50" id="24241">FWA-4V</text><rect Type="system" Region="斐德" height="5.00" y="50.00" Name="DW-T2I" width="5.00" x="250.00" id="24243" ID="30003682" /><text x="250.00" y="50.00" id="24244">DW-T2I</text><rect Type="system" Region="黑渊" height="5.00" y="480.00" Name="RZC-16" width="5.00" x="250.00" id="24246" ID="30002022" /><text x="250.00" y="480.00" id="24247">RZC-16</text><rect Type="system" Region="黑渊" height="5.00" y="680.00" Name="D2-HOS" width="5.00" x="240.00" id="24249" ID="30002036" /><text x="240.00" y="680.00" id="24250">D2-HOS</text><rect Type="system" Region="黑渊" height="5.00" y="730.00" Name="HPS5-C" width="5.00" x="240.00" id="24252" ID="30002040" /><text x="240.00" y="730.00" id="24253">HPS5-C</text><rect Type="system" Region="黑渊" height="5.00" y="640.00" Name="MQ-NPY" width="5.00" x="280.00" id="24255" ID="30002035" /><text x="280.00" y="640.00" id="24256">MQ-NPY</text><rect Type="system" Region="黑渊" height="5.00" y="250.00" Name="GA-P6C" width="5.00" x="280.00" id="24258" ID="30002020" /><text x="280.00" y="250.00" id="24259">GA-P6C</text><rect Type="system" Region="黑渊" height="5.00" y="320.00" Name="7RM-N0" width="5.00" x="300.00" id="24261" ID="30002016" /><text x="300.00" y="320.00" id="24262">7RM-N0</text><rect Type="system" Region="黑渊" height="5.00" y="380.00" Name="S-MDYI" width="5.00" x="300.00" id="24264" ID="30002017" /><text x="300.00" y="380.00" id="24265">S-MDYI</text><rect Type="system" Region="黑渊" height="5.00" y="680.00" Name="RQH-MY" width="5.00" x="320.00" id="24267" ID="30002039" /><text x="320.00" y="680.00" id="24268">RQH-MY</text><rect Type="system" Region="黑渊" height="5.00" y="600.00" Name="MT9Q-S" width="5.00" x="350.00" id="24270" ID="30002028" /><text x="350.00" y="600.00" id="24271">MT9Q-S</text><rect Type="system" Region="斐德" height="5.00" y="120.00" Name="E-9ORY" width="5.00" x="380.00" id="24273" ID="30003677" /><text x="380.00" y="120.00" id="24274">E-9ORY</text><rect Type="system" Region="斐德" height="5.00" y="175.50" Name="C8-CHY" width="5.00" x="380.00" id="24276" ID="30003676" /><text x="380.00" y="175.50" id="24277">C8-CHY</text><rect Type="system" Region="黑渊" height="5.00" y="224.50" Name="ROIR-Y" width="5.00" x="380.00" id="24279" ID="30001983" /><text x="380.00" y="224.50" id="24280">ROIR-Y</text><rect Type="system" Region="黑渊" height="5.00" y="275.50" Name="G95-VZ" width="5.00" x="380.00" id="24282" ID="30001982" /><text x="380.00" y="275.50" id="24283">G95-VZ</text><rect Type="system" Region="黑渊" height="5.00" y="324.50" Name="KLY-C0" width="5.00" x="380.00" id="24285" ID="30001980" /><text x="380.00" y="324.50" id="24286">KLY-C0</text><rect Type="system" Region="黑渊" height="5.00" y="380.00" Name="CL6-ZG" width="5.00" x="380.00" id="24288" ID="30001981" /><text x="380.00" y="380.00" id="24289">CL6-ZG</text><rect Type="system" Region="黑渊" height="5.00" y="450.00" Name="RD-G2R" width="5.00" x="380.00" id="24291" ID="30002023" /><text x="380.00" y="450.00" id="24292">RD-G2R</text><rect Type="system" Region="黑渊" height="5.00" y="520.00" Name="UC3H-Y" width="5.00" x="420.00" id="24294" ID="30002024" /><text x="420.00" y="520.00" id="24295">UC3H-Y</text><rect Type="system" Region="黑渊" height="5.00" y="580.00" Name="KDV-DE" width="5.00" x="420.00" id="24297" ID="30002027" /><text x="420.00" y="580.00" id="24298">KDV-DE</text><rect Type="system" Region="黑渊" height="5.00" y="275.50" Name="J-CIJV" width="5.00" x="450.00" id="24300" ID="30001977" /><text x="450.00" y="275.50" id="24301">J-CIJV</text><rect Type="system" Region="黑渊" height="5.00" y="324.50" Name="X-7OMU" width="5.00" x="450.00" id="24303" ID="30001978" /><text x="450.00" y="324.50" id="24304">X-7OMU</text><rect Type="system" Region="黑渊" height="5.00" y="380.00" Name="CXN1-Z" width="5.00" x="450.00" id="24306" ID="30001979" /><text x="450.00" y="380.00" id="24307">CXN1-Z</text><rect Type="system" Region="黑渊" height="5.00" y="150.00" Name="X47L-Q" width="5.00" x="450.00" id="24309" ID="30001967" /><text x="450.00" y="150.00" id="24310">X47L-Q</text><rect Type="system" Region="黑渊" height="5.00" y="600.00" Name="6GWE-A" width="5.00" x="480.00" id="24312" ID="30002025" /><text x="480.00" y="600.00" id="24313">6GWE-A</text><rect Type="system" Region="黑渊" height="5.00" y="220.00" Name="4-ABS8" width="5.00" x="500.00" id="24315" ID="30002015" /><text x="500.00" y="220.00" id="24316">4-ABS8</text><rect Type="system" Region="黑渊" height="5.00" y="650.00" Name="J-OK0C" width="5.00" x="510.00" id="24318" ID="30002026" /><text x="510.00" y="650.00" id="24319">J-OK0C</text><rect Type="system" Region="黑渊" height="5.00" y="100.00" Name="KQK1-2" width="5.00" x="500.00" id="24321" ID="30001963" /><text x="500.00" y="100.00" id="24322">KQK1-2</text><rect Type="system" Region="黑渊" height="5.00" y="275.50" Name="R-LW2I" width="5.00" x="520.00" id="24324" ID="30002013" /><text x="520.00" y="275.50" id="24325">R-LW2I</text><rect Type="system" Region="黑渊" height="5.00" y="324.50" Name="B8EN-S" width="5.00" x="520.00" id="24327" ID="30002012" /><text x="520.00" y="324.50" id="24328">B8EN-S</text><rect Type="system" Region="黑渊" height="5.00" y="200.00" Name="DP-1YE" width="5.00" x="550.00" id="24330" ID="30002014" /><text x="550.00" y="200.00" id="24331">DP-1YE</text><rect Type="system" Region="黑渊" height="5.00" y="450.00" Name="MI6O-6" width="5.00" x="550.00" id="24333" ID="30001988" /><text x="550.00" y="450.00" id="24334">MI6O-6</text><rect Type="system" Region="黑渊" height="5.00" y="120.00" Name="UR-E6D" width="5.00" x="550.00" id="24336" ID="30001966" /><text x="550.00" y="120.00" id="24337">UR-E6D</text><rect Type="system" Region="黑渊" height="5.00" y="320.00" Name="3V8-LJ" width="5.00" x="580.00" id="24339" ID="30002011" /><text x="580.00" y="320.00" id="24340">3V8-LJ</text><rect Type="system" Region="黑渊" height="5.00" y="380.00" Name="R6XN-9" width="5.00" x="600.00" id="24342" ID="30002010" /><text x="600.00" y="380.00" id="24343">R6XN-9</text><rect Type="system" Region="黑渊" height="5.00" y="450.00" Name="L-TS8S" width="5.00" x="600.00" id="24345" ID="30001989" /><text x="600.00" y="450.00" id="24346">L-TS8S</text><rect Type="system" Region="黑渊" height="5.00" y="100.00" Name="O-BY0Y" width="5.00" x="600.00" id="24348" ID="30001964" /><text x="600.00" y="100.00" id="24349">O-BY0Y</text><rect Type="system" Region="黑渊" height="5.00" y="500.00" Name="O-N8XZ" width="5.00" x="600.00" id="24351" ID="30001986" /><text x="600.00" y="500.00" id="24352">O-N8XZ</text><rect Type="system" Region="黑渊" height="5.00" y="197.68" Name="2-6TGQ" width="5.00" x="617.68" id="24354" ID="30002007" /><text x="617.68" y="197.68" id="24355">2-6TGQ</text><rect Type="system" Region="黑渊" height="5.00" y="280.00" Name="JE-D5U" width="5.00" x="620.00" id="24357" ID="30002006" /><text x="620.00" y="280.00" id="24358">JE-D5U</text><rect Type="system" Region="黑渊" height="5.00" y="575.50" Name="EWOK-K" width="5.00" x="650.00" id="24360" ID="30001985" /><text x="650.00" y="575.50" id="24361">EWOK-K</text><rect Type="system" Region="黑渊" height="5.00" y="624.50" Name="EC-P8R" width="5.00" x="650.00" id="24363" ID="30001984" /><text x="650.00" y="624.50" id="24364">EC-P8R</text><rect Type="system" Region="黑渊" height="5.00" y="232.32" Name="5ZXX-K" width="5.00" x="652.32" id="24366" ID="30002005" /><text x="652.32" y="232.32" id="24367">5ZXX-K</text><rect Type="system" Region="黑渊" height="5.00" y="120.00" Name="2D-0SO" width="5.00" x="680.00" id="24369" ID="30001965" /><text x="680.00" y="120.00" id="24370">2D-0SO</text><rect Type="system" Region="黑渊" height="5.00" y="321.91" Name="PFU-LH" width="5.00" x="679.04" id="24372" ID="30002009" /><text x="679.04" y="321.91" id="24373">PFU-LH</text><rect Type="system" Region="黑渊" height="5.00" y="180.00" Name="8S-0E1" width="5.00" x="700.00" id="24375" ID="30002004" /><text x="700.00" y="180.00" id="24376">8S-0E1</text><rect Type="system" Region="黑渊" height="5.00" y="278.09" Name="OE-9UF" width="5.00" x="700.96" id="24378" ID="30002008" /><text x="700.96" y="278.09" id="24379">OE-9UF</text><rect Type="system" Region="黑渊" height="5.00" y="600.00" Name="G-M4I8" width="5.00" x="720.00" id="24381" ID="30001987" /><text x="720.00" y="600.00" id="24382">G-M4I8</text><rect Type="system" Region="黑渊" height="5.00" y="20.00" Name="U-INPD" width="5.00" x="750.00" id="24384" ID="30001997" /><text x="750.00" y="20.00" id="24385">U-INPD</text><rect Type="system" Region="黑渊" height="5.00" y="150.00" Name="D7T-C0" width="5.00" x="750.00" id="24387" ID="30001968" /><text x="750.00" y="150.00" id="24388">D7T-C0</text><rect Type="system" Region="黑渊" height="5.00" y="650.00" Name="93PI-4" width="5.00" x="780.00" id="24390" ID="30001990" /><text x="780.00" y="650.00" id="24391">93PI-4</text><rect Type="system" Region="黑渊" height="5.00" y="120.94" Name="XI-VUF" width="5.00" x="836.23" id="24393" ID="30001973" /><text x="836.23" y="120.94" id="24394">XI-VUF</text><rect Type="system" Region="黑渊" height="5.00" y="580.00" Name="R-2R0G" width="5.00" x="800.00" id="24396" ID="30002002" /><text x="800.00" y="580.00" id="24397">R-2R0G</text><rect Type="system" Region="黑渊" height="5.00" y="180.00" Name="KI-TL0" width="5.00" x="820.00" id="24399" ID="30001969" /><text x="820.00" y="180.00" id="24400">KI-TL0</text><rect Type="system" Region="黑渊" height="5.00" y="50.00" Name="DK-FXK" width="5.00" x="870.00" id="24402" ID="30001994" /><text x="870.00" y="50.00" id="24403">DK-FXK</text><rect Type="system" Region="黑渊" height="5.00" y="280.00" Name="JC-YX8" width="5.00" x="850.00" id="24405" ID="30001971" /><text x="850.00" y="280.00" id="24406">JC-YX8</text><rect Type="system" Region="黑渊" height="5.00" y="480.00" Name="M-YCD4" width="5.00" x="850.00" id="24408" ID="30002000" /><text x="850.00" y="480.00" id="24409">M-YCD4</text><rect Type="system" Region="黑渊" height="5.00" y="109.06" Name="A8I-C5" width="5.00" x="883.77" id="24411" ID="30001993" /><text x="883.77" y="109.06" id="24412">A8I-C5</text><rect Type="system" Region="黑渊" height="5.00" y="230.00" Name="EL8-4Q" width="5.00" x="880.00" id="24414" ID="30001970" /><text x="880.00" y="230.00" id="24415">EL8-4Q</text><rect Type="system" Region="黑渊" height="5.00" y="530.00" Name="Q-5211" width="5.00" x="900.00" id="24417" ID="30002001" /><text x="900.00" y="530.00" id="24418">Q-5211</text><rect Type="system" Region="黑渊" height="5.00" y="180.00" Name="N-H32Y" width="5.00" x="900.00" id="24420" ID="30001974" /><text x="900.00" y="180.00" id="24421">N-H32Y</text><rect Type="system" Region="黑渊" height="5.00" y="280.00" Name="5-9WNU" width="5.00" x="920.00" id="24423" ID="30001972" /><text x="920.00" y="280.00" id="24424">5-9WNU</text><rect Type="system" Region="黑渊" height="5.00" y="30.00" Name="ZJET-E" width="5.00" x="920.00" id="24426" ID="30001996" /><text x="920.00" y="30.00" id="24427">ZJET-E</text><rect Type="system" Region="黑渊" height="5.00" y="480.00" Name="XQ-PXU" width="5.00" x="920.00" id="24429" ID="30001999" /><text x="920.00" y="480.00" id="24430">XQ-PXU</text><rect Type="system" Region="黑渊" height="5.00" y="130.00" Name="C-H9X7" width="5.00" x="950.00" id="24432" ID="30001992" /><text x="950.00" y="130.00" id="24433">C-H9X7</text><rect Type="system" Region="黑渊" height="5.00" y="430.00" Name="WW-KGD" width="5.00" x="950.00" id="24435" ID="30001998" /><text x="950.00" y="430.00" id="24436">WW-KGD</text><rect Type="system" Region="黑渊" height="5.00" y="580.00" Name="CR-AQH" width="5.00" x="950.00" id="24438" ID="30002003" /><text x="950.00" y="580.00" id="24439">CR-AQH</text><rect Type="system" Region="黑渊" height="5.00" y="80.00" Name="M-76XI" width="5.00" x="950.00" id="24441" ID="30001995" /><text x="950.00" y="80.00" id="24442">M-76XI</text><rect Type="system" Region="黑渊" height="5.00" y="330.00" Name="12YA-2" width="5.00" x="950.00" id="24444" ID="30001975" /><text x="950.00" y="330.00" id="24445">12YA-2</text><rect Type="system" Region="黑渊" height="5.00" y="380.00" Name="BDV3-T" width="5.00" x="980.00" id="24447" ID="30001976" /><text x="980.00" y="380.00" id="24448">BDV3-T</text><rect Type="system" Region="黑渊" height="5.00" y="210.00" Name="ION-FG" width="5.00" x="980.00" id="24450" ID="30001991" /><text x="980.00" y="210.00" id="24451">ION-FG</text><rect Type="system" Region="斐德" height="5.00" y="120.00" Name="X36Y-G" width="5.00" x="20.00" id="24453" ID="30003688" /><text x="20.00" y="120.00" id="24454">X36Y-G</text><rect Type="system" Region="云环" height="5.00" y="700.00" Name="Z-Y7R7" width="5.00" x="20.00" id="24456" ID="30004063" /><text x="20.00" y="700.00" id="24457">Z-Y7R7</text><rect Type="system" Region="斐德" height="5.00" y="100.00" Name="O1Y-ED" width="5.00" x="80.00" id="24459" ID="30003686" /><text x="80.00" y="100.00" id="24460">O1Y-ED</text><rect Type="system" Region="斐德" height="5.00" y="50.00" Name="L-SCBU" width="5.00" x="150.00" id="24462" ID="30003684" /><text x="150.00" y="50.00" id="24463">L-SCBU</text><rect Type="system" Region="宁静之域" height="5.00" y="730.00" Name="曼特劳提" width="5.00" x="320.00" id="24465" ID="30003855" /><text x="320.00" y="730.00" id="24466">曼特劳提</text><rect Type="system" Region="斐德" height="5.00" y="20.00" Name="P-33KR" width="5.00" x="350.00" id="24468" ID="30003680" /><text x="350.00" y="20.00" id="24469">P-33KR</text><rect Type="system" Region="斐德" height="5.00" y="80.00" Name="CR-IFM" width="5.00" x="350.00" id="24471" ID="30003678" /><text x="350.00" y="80.00" id="24472">CR-IFM</text><rect Type="system" Region="斐德" height="5.00" y="20.00" Name="DO6H-Q" width="5.00" x="420.00" id="24474" ID="30003681" /><text x="420.00" y="20.00" id="24475">DO6H-Q</text><rect Type="system" Region="斐德" height="5.00" y="80.00" Name="HHK-VL" width="5.00" x="420.00" id="24477" ID="30003679" /><text x="420.00" y="80.00" id="24478">HHK-VL</text><rect Type="system" Region="特布特" height="5.00" y="50.00" Name="0-YMBJ" width="5.00" x="550.00" id="24480" ID="30000857" /><text x="550.00" y="50.00" id="24481">0-YMBJ</text><rect Type="system" Region="长征" height="5.00" y="680.00" Name="托里诺斯" width="5.00" x="650.00" id="24483" ID="30001429" /><text x="650.00" y="680.00" id="24484">托里诺斯</text><rect Type="system" Region="长征" height="5.00" y="690.00" Name="萨然恩" width="5.00" x="830.00" id="24486" ID="30001442" /><text x="830.00" y="690.00" id="24487">萨然恩</text><line x2="97.68" style="fill:blue;stroke:blue;" y1="317.68" x1="17.68" id="24489" y2="317.68" /><line x2="52.32" style="fill:blue;stroke:blue;" y1="317.68" x1="17.68" id="24490" y2="352.32" /><line x2="80.00" style="fill:blue;stroke:blue;" y1="317.68" x1="17.68" id="24491" y2="180.00" /><line x2="50.00" style="fill:blue;stroke:blue;" y1="650.00" x1="30.00" id="24492" y2="600.00" /><line x2="20.00" style="fill:blue;stroke:blue;" y1="650.00" x1="30.00" id="24493" y2="700.00" /><line x2="97.68" style="fill:blue;stroke:blue;" y1="352.32" x1="52.32" id="24494" y2="317.68" /><line x2="17.68" style="fill:blue;stroke:blue;" y1="352.32" x1="52.32" id="24495" y2="317.68" /><line x2="132.32" style="fill:blue;stroke:blue;" y1="352.32" x1="52.32" id="24496" y2="352.32" /><line x2="50.00" style="fill:blue;stroke:blue;" y1="352.32" x1="52.32" id="24497" y2="500.00" /><line x2="52.32" style="fill:blue;stroke:blue;" y1="500.00" x1="50.00" id="24498" y2="352.32" /><line x2="50.00" style="fill:blue;stroke:blue;" y1="500.00" x1="50.00" id="24499" y2="550.00" /><line x2="50.00" style="fill:blue;stroke:blue;" y1="550.00" x1="50.00" id="24500" y2="500.00" /><line x2="50.00" style="fill:blue;stroke:blue;" y1="550.00" x1="50.00" id="24501" y2="600.00" /><line x2="50.00" style="fill:blue;stroke:blue;" y1="600.00" x1="50.00" id="24502" y2="550.00" /><line x2="100.00" style="fill:blue;stroke:blue;" y1="600.00" x1="50.00" id="24503" y2="650.00" /><line x2="30.00" style="fill:blue;stroke:blue;" y1="600.00" x1="50.00" id="24504" y2="650.00" /><line x2="17.68" style="fill:blue;stroke:blue;" y1="180.00" x1="80.00" id="24505" y2="317.68" /><line x2="150.00" style="fill:blue;stroke:blue;" y1="180.00" x1="80.00" id="24506" y2="100.00" /><line x2="20.00" style="fill:blue;stroke:blue;" y1="180.00" x1="80.00" id="24507" y2="120.00" /><line x2="180.00" style="fill:blue;stroke:blue;" y1="317.68" x1="97.68" id="24508" y2="320.00" /><line x2="150.00" style="fill:blue;stroke:blue;" y1="317.68" x1="97.68" id="24509" y2="280.00" /><line x2="17.68" style="fill:blue;stroke:blue;" y1="317.68" x1="97.68" id="24510" y2="317.68" /><line x2="52.32" style="fill:blue;stroke:blue;" y1="317.68" x1="97.68" id="24511" y2="352.32" /><line x2="132.32" style="fill:blue;stroke:blue;" y1="317.68" x1="97.68" id="24512" y2="352.32" /><line x2="50.00" style="fill:blue;stroke:blue;" y1="650.00" x1="100.00" id="24513" y2="600.00" /><line x2="100.00" style="fill:blue;stroke:blue;" y1="650.00" x1="100.00" id="24514" y2="700.00" /><line x2="100.00" style="fill:blue;stroke:blue;" y1="700.00" x1="100.00" id="24515" y2="650.00" /><line x2="97.68" style="fill:blue;stroke:blue;" y1="352.32" x1="132.32" id="24516" y2="317.68" /><line x2="52.32" style="fill:blue;stroke:blue;" y1="352.32" x1="132.32" id="24517" y2="352.32" /><line x2="180.00" style="fill:blue;stroke:blue;" y1="280.00" x1="150.00" id="24518" y2="320.00" /><line x2="97.68" style="fill:blue;stroke:blue;" y1="280.00" x1="150.00" id="24519" y2="317.68" /><line x2="250.00" style="fill:blue;stroke:blue;" y1="100.00" x1="150.00" id="24520" y2="50.00" /><line x2="150.00" style="fill:blue;stroke:blue;" y1="100.00" x1="150.00" id="24521" y2="50.00" /><line x2="80.00" style="fill:blue;stroke:blue;" y1="100.00" x1="150.00" id="24522" y2="180.00" /><line x2="80.00" style="fill:blue;stroke:blue;" y1="100.00" x1="150.00" id="24523" y2="100.00" /><line x2="250.00" style="fill:blue;stroke:blue;" y1="320.00" x1="180.00" id="24524" y2="320.00" /><line x2="97.68" style="fill:blue;stroke:blue;" y1="320.00" x1="180.00" id="24525" y2="317.68" /><line x2="150.00" style="fill:blue;stroke:blue;" y1="320.00" x1="180.00" id="24526" y2="280.00" /><line x2="240.00" style="fill:blue;stroke:blue;" y1="680.00" x1="170.00" id="24527" y2="680.00" /><line x2="210.00" style="fill:blue;stroke:blue;" y1="680.00" x1="170.00" id="24528" y2="640.00" /><line x2="170.00" style="fill:blue;stroke:blue;" y1="680.00" x1="170.00" id="24529" y2="730.00" /><line x2="170.00" style="fill:blue;stroke:blue;" y1="730.00" x1="170.00" id="24530" y2="680.00" /><line x2="280.00" style="fill:blue;stroke:blue;" y1="640.00" x1="210.00" id="24531" y2="640.00" /><line x2="170.00" style="fill:blue;stroke:blue;" y1="640.00" x1="210.00" id="24532" y2="680.00" /><line x2="300.00" style="fill:blue;stroke:blue;" y1="320.00" x1="250.00" id="24533" y2="320.00" /><line x2="250.00" style="fill:blue;stroke:blue;" y1="320.00" x1="250.00" id="24534" y2="375.50" /><line x2="180.00" style="fill:blue;stroke:blue;" y1="320.00" x1="250.00" id="24535" y2="320.00" /><line x2="300.00" style="fill:blue;stroke:blue;" y1="375.50" x1="250.00" id="24536" y2="380.00" /><line x2="250.00" style="fill:blue;stroke:blue;" y1="375.50" x1="250.00" id="24537" y2="320.00" /><line x2="250.00" style="fill:blue;stroke:blue;" y1="375.50" x1="250.00" id="24538" y2="424.50" /><line x2="250.00" style="fill:blue;stroke:blue;" y1="424.50" x1="250.00" id="24539" y2="375.50" /><line x2="250.00" style="fill:blue;stroke:blue;" y1="424.50" x1="250.00" id="24540" y2="480.00" /><line x2="350.00" style="fill:blue;stroke:blue;" y1="50.00" x1="250.00" id="24541" y2="20.00" /><line x2="150.00" style="fill:blue;stroke:blue;" y1="50.00" x1="250.00" id="24542" y2="100.00" /><line x2="250.00" style="fill:blue;stroke:blue;" y1="480.00" x1="250.00" id="24543" y2="424.50" /><line x2="280.00" style="fill:blue;stroke:blue;" y1="480.00" x1="250.00" id="24544" y2="640.00" /><line x2="280.00" style="fill:blue;stroke:blue;" y1="680.00" x1="240.00" id="24545" y2="640.00" /><line x2="170.00" style="fill:blue;stroke:blue;" y1="680.00" x1="240.00" id="24546" y2="680.00" /><line x2="320.00" style="fill:blue;stroke:blue;" y1="680.00" x1="240.00" id="24547" y2="680.00" /><line x2="240.00" style="fill:blue;stroke:blue;" y1="680.00" x1="240.00" id="24548" y2="730.00" /><line x2="240.00" style="fill:blue;stroke:blue;" y1="730.00" x1="240.00" id="24549" y2="680.00" /><line x2="250.00" style="fill:blue;stroke:blue;" y1="640.00" x1="280.00" id="24550" y2="480.00" /><line x2="240.00" style="fill:blue;stroke:blue;" y1="640.00" x1="280.00" id="24551" y2="680.00" /><line x2="210.00" style="fill:blue;stroke:blue;" y1="640.00" x1="280.00" id="24552" y2="640.00" /><line x2="320.00" style="fill:blue;stroke:blue;" y1="640.00" x1="280.00" id="24553" y2="680.00" /><line x2="300.00" style="fill:blue;stroke:blue;" y1="250.00" x1="280.00" id="24554" y2="320.00" /><line x2="380.00" style="fill:blue;stroke:blue;" y1="320.00" x1="300.00" id="24555" y2="324.50" /><line x2="300.00" style="fill:blue;stroke:blue;" y1="320.00" x1="300.00" id="24556" y2="380.00" /><line x2="250.00" style="fill:blue;stroke:blue;" y1="320.00" x1="300.00" id="24557" y2="320.00" /><line x2="280.00" style="fill:blue;stroke:blue;" y1="320.00" x1="300.00" id="24558" y2="250.00" /><line x2="300.00" style="fill:blue;stroke:blue;" y1="380.00" x1="300.00" id="24559" y2="320.00" /><line x2="250.00" style="fill:blue;stroke:blue;" y1="380.00" x1="300.00" id="24560" y2="375.50" /><line x2="280.00" style="fill:blue;stroke:blue;" y1="680.00" x1="320.00" id="24561" y2="640.00" /><line x2="240.00" style="fill:blue;stroke:blue;" y1="680.00" x1="320.00" id="24562" y2="680.00" /><line x2="320.00" style="fill:blue;stroke:blue;" y1="680.00" x1="320.00" id="24563" y2="730.00" /><line x2="420.00" style="fill:blue;stroke:blue;" y1="600.00" x1="350.00" id="24564" y2="520.00" /><line x2="480.00" style="fill:blue;stroke:blue;" y1="600.00" x1="350.00" id="24565" y2="600.00" /><line x2="420.00" style="fill:blue;stroke:blue;" y1="600.00" x1="350.00" id="24566" y2="580.00" /><line x2="380.00" style="fill:blue;stroke:blue;" y1="120.00" x1="380.00" id="24567" y2="175.50" /><line x2="350.00" style="fill:blue;stroke:blue;" y1="120.00" x1="380.00" id="24568" y2="80.00" /><line x2="420.00" style="fill:blue;stroke:blue;" y1="120.00" x1="380.00" id="24569" y2="80.00" /><line x2="380.00" style="fill:blue;stroke:blue;" y1="175.50" x1="380.00" id="24570" y2="224.50" /><line x2="380.00" style="fill:blue;stroke:blue;" y1="175.50" x1="380.00" id="24571" y2="120.00" /><line x2="380.00" style="fill:blue;stroke:blue;" y1="224.50" x1="380.00" id="24572" y2="275.50" /><line x2="380.00" style="fill:blue;stroke:blue;" y1="224.50" x1="380.00" id="24573" y2="175.50" /><line x2="450.00" style="fill:blue;stroke:blue;" y1="275.50" x1="380.00" id="24574" y2="275.50" /><line x2="380.00" style="fill:blue;stroke:blue;" y1="275.50" x1="380.00" id="24575" y2="324.50" /><line x2="380.00" style="fill:blue;stroke:blue;" y1="275.50" x1="380.00" id="24576" y2="224.50" /><line x2="450.00" style="fill:blue;stroke:blue;" y1="324.50" x1="380.00" id="24577" y2="324.50" /><line x2="450.00" style="fill:blue;stroke:blue;" y1="324.50" x1="380.00" id="24578" y2="380.00" /><line x2="380.00" style="fill:blue;stroke:blue;" y1="324.50" x1="380.00" id="24579" y2="380.00" /><line x2="380.00" style="fill:blue;stroke:blue;" y1="324.50" x1="380.00" id="24580" y2="275.50" /><line x2="300.00" style="fill:blue;stroke:blue;" y1="324.50" x1="380.00" id="24581" y2="320.00" /><line x2="450.00" style="fill:blue;stroke:blue;" y1="380.00" x1="380.00" id="24582" y2="380.00" /><line x2="380.00" style="fill:blue;stroke:blue;" y1="380.00" x1="380.00" id="24583" y2="324.50" /><line x2="380.00" style="fill:blue;stroke:blue;" y1="380.00" x1="380.00" id="24584" y2="450.00" /><line x2="380.00" style="fill:blue;stroke:blue;" y1="450.00" x1="380.00" id="24585" y2="380.00" /><line x2="420.00" style="fill:blue;stroke:blue;" y1="450.00" x1="380.00" id="24586" y2="520.00" /><line x2="380.00" style="fill:blue;stroke:blue;" y1="520.00" x1="420.00" id="24587" y2="450.00" /><line x2="480.00" style="fill:blue;stroke:blue;" y1="520.00" x1="420.00" id="24588" y2="600.00" /><line x2="420.00" style="fill:blue;stroke:blue;" y1="520.00" x1="420.00" id="24589" y2="580.00" /><line x2="350.00" style="fill:blue;stroke:blue;" y1="520.00" x1="420.00" id="24590" y2="600.00" /><line x2="420.00" style="fill:blue;stroke:blue;" y1="580.00" x1="420.00" id="24591" y2="520.00" /><line x2="480.00" style="fill:blue;stroke:blue;" y1="580.00" x1="420.00" id="24592" y2="600.00" /><line x2="350.00" style="fill:blue;stroke:blue;" y1="580.00" x1="420.00" id="24593" y2="600.00" /><line x2="450.00" style="fill:blue;stroke:blue;" y1="275.50" x1="450.00" id="24594" y2="150.00" /><line x2="450.00" style="fill:blue;stroke:blue;" y1="275.50" x1="450.00" id="24595" y2="324.50" /><line x2="380.00" style="fill:blue;stroke:blue;" y1="275.50" x1="450.00" id="24596" y2="275.50" /><line x2="500.00" style="fill:blue;stroke:blue;" y1="275.50" x1="450.00" id="24597" y2="220.00" /><line x2="450.00" style="fill:blue;stroke:blue;" y1="324.50" x1="450.00" id="24598" y2="275.50" /><line x2="450.00" style="fill:blue;stroke:blue;" y1="324.50" x1="450.00" id="24599" y2="380.00" /><line x2="380.00" style="fill:blue;stroke:blue;" y1="324.50" x1="450.00" id="24600" y2="324.50" /><line x2="600.00" style="fill:blue;stroke:blue;" y1="324.50" x1="450.00" id="24601" y2="450.00" /><line x2="600.00" style="fill:blue;stroke:blue;" y1="324.50" x1="450.00" id="24602" y2="380.00" /><line x2="520.00" style="fill:blue;stroke:blue;" y1="324.50" x1="450.00" id="24603" y2="324.50" /><line x2="450.00" style="fill:blue;stroke:blue;" y1="380.00" x1="450.00" id="24604" y2="324.50" /><line x2="380.00" style="fill:blue;stroke:blue;" y1="380.00" x1="450.00" id="24605" y2="324.50" /><line x2="380.00" style="fill:blue;stroke:blue;" y1="380.00" x1="450.00" id="24606" y2="380.00" /><line x2="500.00" style="fill:blue;stroke:blue;" y1="150.00" x1="450.00" id="24607" y2="100.00" /><line x2="550.00" style="fill:blue;stroke:blue;" y1="150.00" x1="450.00" id="24608" y2="120.00" /><line x2="450.00" style="fill:blue;stroke:blue;" y1="150.00" x1="450.00" id="24609" y2="275.50" /><line x2="420.00" style="fill:blue;stroke:blue;" y1="600.00" x1="480.00" id="24610" y2="520.00" /><line x2="510.00" style="fill:blue;stroke:blue;" y1="600.00" x1="480.00" id="24611" y2="650.00" /><line x2="420.00" style="fill:blue;stroke:blue;" y1="600.00" x1="480.00" id="24612" y2="580.00" /><line x2="350.00" style="fill:blue;stroke:blue;" y1="600.00" x1="480.00" id="24613" y2="600.00" /><line x2="450.00" style="fill:blue;stroke:blue;" y1="220.00" x1="500.00" id="24614" y2="275.50" /><line x2="520.00" style="fill:blue;stroke:blue;" y1="220.00" x1="500.00" id="24615" y2="275.50" /><line x2="550.00" style="fill:blue;stroke:blue;" y1="220.00" x1="500.00" id="24616" y2="200.00" /><line x2="480.00" style="fill:blue;stroke:blue;" y1="650.00" x1="510.00" id="24617" y2="600.00" /><line x2="550.00" style="fill:blue;stroke:blue;" y1="100.00" x1="500.00" id="24618" y2="50.00" /><line x2="600.00" style="fill:blue;stroke:blue;" y1="100.00" x1="500.00" id="24619" y2="100.00" /><line x2="450.00" style="fill:blue;stroke:blue;" y1="100.00" x1="500.00" id="24620" y2="150.00" /><line x2="580.00" style="fill:blue;stroke:blue;" y1="275.50" x1="520.00" id="24621" y2="320.00" /><line x2="500.00" style="fill:blue;stroke:blue;" y1="275.50" x1="520.00" id="24622" y2="220.00" /><line x2="450.00" style="fill:blue;stroke:blue;" y1="324.50" x1="520.00" id="24623" y2="324.50" /><line x2="580.00" style="fill:blue;stroke:blue;" y1="324.50" x1="520.00" id="24624" y2="320.00" /><line x2="617.68" style="fill:blue;stroke:blue;" y1="200.00" x1="550.00" id="24625" y2="197.68" /><line x2="580.00" style="fill:blue;stroke:blue;" y1="200.00" x1="550.00" id="24626" y2="320.00" /><line x2="500.00" style="fill:blue;stroke:blue;" y1="200.00" x1="550.00" id="24627" y2="220.00" /><line x2="600.00" style="fill:blue;stroke:blue;" y1="450.00" x1="550.00" id="24628" y2="500.00" /><line x2="680.00" style="fill:blue;stroke:blue;" y1="120.00" x1="550.00" id="24629" y2="120.00" /><line x2="450.00" style="fill:blue;stroke:blue;" y1="120.00" x1="550.00" id="24630" y2="150.00" /><line x2="600.00" style="fill:blue;stroke:blue;" y1="320.00" x1="580.00" id="24631" y2="380.00" /><line x2="520.00" style="fill:blue;stroke:blue;" y1="320.00" x1="580.00" id="24632" y2="324.50" /><line x2="520.00" style="fill:blue;stroke:blue;" y1="320.00" x1="580.00" id="24633" y2="275.50" /><line x2="550.00" style="fill:blue;stroke:blue;" y1="320.00" x1="580.00" id="24634" y2="200.00" /><line x2="450.00" style="fill:blue;stroke:blue;" y1="380.00" x1="600.00" id="24635" y2="324.50" /><line x2="600.00" style="fill:blue;stroke:blue;" y1="380.00" x1="600.00" id="24636" y2="450.00" /><line x2="620.00" style="fill:blue;stroke:blue;" y1="380.00" x1="600.00" id="24637" y2="280.00" /><line x2="580.00" style="fill:blue;stroke:blue;" y1="380.00" x1="600.00" id="24638" y2="320.00" /><line x2="450.00" style="fill:blue;stroke:blue;" y1="450.00" x1="600.00" id="24639" y2="324.50" /><line x2="600.00" style="fill:blue;stroke:blue;" y1="450.00" x1="600.00" id="24640" y2="500.00" /><line x2="600.00" style="fill:blue;stroke:blue;" y1="450.00" x1="600.00" id="24641" y2="380.00" /><line x2="500.00" style="fill:blue;stroke:blue;" y1="100.00" x1="600.00" id="24642" y2="100.00" /><line x2="680.00" style="fill:blue;stroke:blue;" y1="100.00" x1="600.00" id="24643" y2="120.00" /><line x2="650.00" style="fill:blue;stroke:blue;" y1="500.00" x1="600.00" id="24644" y2="575.50" /><line x2="550.00" style="fill:blue;stroke:blue;" y1="500.00" x1="600.00" id="24645" y2="450.00" /><line x2="600.00" style="fill:blue;stroke:blue;" y1="500.00" x1="600.00" id="24646" y2="450.00" /><line x2="652.32" style="fill:blue;stroke:blue;" y1="197.68" x1="617.68" id="24647" y2="232.32" /><line x2="550.00" style="fill:blue;stroke:blue;" y1="197.68" x1="617.68" id="24648" y2="200.00" /><line x2="652.32" style="fill:blue;stroke:blue;" y1="280.00" x1="620.00" id="24649" y2="232.32" /><line x2="700.96" style="fill:blue;stroke:blue;" y1="280.00" x1="620.00" id="24650" y2="278.09" /><line x2="679.04" style="fill:blue;stroke:blue;" y1="280.00" x1="620.00" id="24651" y2="321.91" /><line x2="600.00" style="fill:blue;stroke:blue;" y1="280.00" x1="620.00" id="24652" y2="380.00" /><line x2="650.00" style="fill:blue;stroke:blue;" y1="575.50" x1="650.00" id="24653" y2="624.50" /><line x2="600.00" style="fill:blue;stroke:blue;" y1="575.50" x1="650.00" id="24654" y2="500.00" /><line x2="720.00" style="fill:blue;stroke:blue;" y1="575.50" x1="650.00" id="24655" y2="600.00" /><line x2="650.00" style="fill:blue;stroke:blue;" y1="624.50" x1="650.00" id="24656" y2="680.00" /><line x2="650.00" style="fill:blue;stroke:blue;" y1="624.50" x1="650.00" id="24657" y2="575.50" /><line x2="720.00" style="fill:blue;stroke:blue;" y1="624.50" x1="650.00" id="24658" y2="600.00" /><line x2="700.00" style="fill:blue;stroke:blue;" y1="232.32" x1="652.32" id="24659" y2="180.00" /><line x2="620.00" style="fill:blue;stroke:blue;" y1="232.32" x1="652.32" id="24660" y2="280.00" /><line x2="617.68" style="fill:blue;stroke:blue;" y1="232.32" x1="652.32" id="24661" y2="197.68" /><line x2="600.00" style="fill:blue;stroke:blue;" y1="120.00" x1="680.00" id="24662" y2="100.00" /><line x2="550.00" style="fill:blue;stroke:blue;" y1="120.00" x1="680.00" id="24663" y2="120.00" /><line x2="750.00" style="fill:blue;stroke:blue;" y1="120.00" x1="680.00" id="24664" y2="150.00" /><line x2="620.00" style="fill:blue;stroke:blue;" y1="321.91" x1="679.04" id="24665" y2="280.00" /><line x2="700.96" style="fill:blue;stroke:blue;" y1="321.91" x1="679.04" id="24666" y2="278.09" /><line x2="750.00" style="fill:blue;stroke:blue;" y1="180.00" x1="700.00" id="24667" y2="150.00" /><line x2="652.32" style="fill:blue;stroke:blue;" y1="180.00" x1="700.00" id="24668" y2="232.32" /><line x2="620.00" style="fill:blue;stroke:blue;" y1="278.09" x1="700.96" id="24669" y2="280.00" /><line x2="679.04" style="fill:blue;stroke:blue;" y1="278.09" x1="700.96" id="24670" y2="321.91" /><line x2="650.00" style="fill:blue;stroke:blue;" y1="600.00" x1="720.00" id="24671" y2="624.50" /><line x2="650.00" style="fill:blue;stroke:blue;" y1="600.00" x1="720.00" id="24672" y2="575.50" /><line x2="780.00" style="fill:blue;stroke:blue;" y1="600.00" x1="720.00" id="24673" y2="650.00" /><line x2="800.00" style="fill:blue;stroke:blue;" y1="600.00" x1="720.00" id="24674" y2="580.00" /><line x2="883.77" style="fill:blue;stroke:blue;" y1="20.00" x1="750.00" id="24675" y2="109.06" /><line x2="870.00" style="fill:blue;stroke:blue;" y1="20.00" x1="750.00" id="24676" y2="50.00" /><line x2="420.00" style="fill:blue;stroke:blue;" y1="20.00" x1="750.00" id="24677" y2="20.00" /><line x2="680.00" style="fill:blue;stroke:blue;" y1="150.00" x1="750.00" id="24678" y2="120.00" /><line x2="820.00" style="fill:blue;stroke:blue;" y1="150.00" x1="750.00" id="24679" y2="180.00" /><line x2="700.00" style="fill:blue;stroke:blue;" y1="150.00" x1="750.00" id="24680" y2="180.00" /><line x2="830.00" style="fill:blue;stroke:blue;" y1="650.00" x1="780.00" id="24681" y2="690.00" /><line x2="720.00" style="fill:blue;stroke:blue;" y1="650.00" x1="780.00" id="24682" y2="600.00" /><line x2="820.00" style="fill:blue;stroke:blue;" y1="120.94" x1="836.23" id="24683" y2="180.00" /><line x2="720.00" style="fill:blue;stroke:blue;" y1="580.00" x1="800.00" id="24684" y2="600.00" /><line x2="850.00" style="fill:blue;stroke:blue;" y1="580.00" x1="800.00" id="24685" y2="480.00" /><line x2="900.00" style="fill:blue;stroke:blue;" y1="580.00" x1="800.00" id="24686" y2="530.00" /><line x2="950.00" style="fill:blue;stroke:blue;" y1="580.00" x1="800.00" id="24687" y2="580.00" /><line x2="750.00" style="fill:blue;stroke:blue;" y1="180.00" x1="820.00" id="24688" y2="150.00" /><line x2="880.00" style="fill:blue;stroke:blue;" y1="180.00" x1="820.00" id="24689" y2="230.00" /><line x2="836.23" style="fill:blue;stroke:blue;" y1="180.00" x1="820.00" id="24690" y2="120.94" /><line x2="883.77" style="fill:blue;stroke:blue;" y1="50.00" x1="870.00" id="24691" y2="109.06" /><line x2="950.00" style="fill:blue;stroke:blue;" y1="50.00" x1="870.00" id="24692" y2="80.00" /><line x2="920.00" style="fill:blue;stroke:blue;" y1="50.00" x1="870.00" id="24693" y2="30.00" /><line x2="750.00" style="fill:blue;stroke:blue;" y1="50.00" x1="870.00" id="24694" y2="20.00" /><line x2="880.00" style="fill:blue;stroke:blue;" y1="280.00" x1="850.00" id="24695" y2="230.00" /><line x2="920.00" style="fill:blue;stroke:blue;" y1="480.00" x1="850.00" id="24696" y2="480.00" /><line x2="900.00" style="fill:blue;stroke:blue;" y1="480.00" x1="850.00" id="24697" y2="530.00" /><line x2="800.00" style="fill:blue;stroke:blue;" y1="480.00" x1="850.00" id="24698" y2="580.00" /><line x2="950.00" style="fill:blue;stroke:blue;" y1="109.06" x1="883.77" id="24699" y2="130.00" /><line x2="870.00" style="fill:blue;stroke:blue;" y1="109.06" x1="883.77" id="24700" y2="50.00" /><line x2="750.00" style="fill:blue;stroke:blue;" y1="109.06" x1="883.77" id="24701" y2="20.00" /><line x2="820.00" style="fill:blue;stroke:blue;" y1="230.00" x1="880.00" id="24702" y2="180.00" /><line x2="850.00" style="fill:blue;stroke:blue;" y1="230.00" x1="880.00" id="24703" y2="280.00" /><line x2="920.00" style="fill:blue;stroke:blue;" y1="230.00" x1="880.00" id="24704" y2="280.00" /><line x2="900.00" style="fill:blue;stroke:blue;" y1="230.00" x1="880.00" id="24705" y2="180.00" /><line x2="850.00" style="fill:blue;stroke:blue;" y1="530.00" x1="900.00" id="24706" y2="480.00" /><line x2="800.00" style="fill:blue;stroke:blue;" y1="530.00" x1="900.00" id="24707" y2="580.00" /><line x2="950.00" style="fill:blue;stroke:blue;" y1="530.00" x1="900.00" id="24708" y2="580.00" /><line x2="880.00" style="fill:blue;stroke:blue;" y1="180.00" x1="900.00" id="24709" y2="230.00" /><line x2="880.00" style="fill:blue;stroke:blue;" y1="280.00" x1="920.00" id="24710" y2="230.00" /><line x2="950.00" style="fill:blue;stroke:blue;" y1="280.00" x1="920.00" id="24711" y2="330.00" /><line x2="870.00" style="fill:blue;stroke:blue;" y1="30.00" x1="920.00" id="24712" y2="50.00" /><line x2="950.00" style="fill:blue;stroke:blue;" y1="30.00" x1="920.00" id="24713" y2="80.00" /><line x2="950.00" style="fill:blue;stroke:blue;" y1="480.00" x1="920.00" id="24714" y2="430.00" /><line x2="850.00" style="fill:blue;stroke:blue;" y1="480.00" x1="920.00" id="24715" y2="480.00" /><line x2="950.00" style="fill:blue;stroke:blue;" y1="480.00" x1="920.00" id="24716" y2="580.00" /><line x2="980.00" style="fill:blue;stroke:blue;" y1="130.00" x1="950.00" id="24717" y2="210.00" /><line x2="883.77" style="fill:blue;stroke:blue;" y1="130.00" x1="950.00" id="24718" y2="109.06" /><line x2="980.00" style="fill:blue;stroke:blue;" y1="430.00" x1="950.00" id="24719" y2="380.00" /><line x2="920.00" style="fill:blue;stroke:blue;" y1="430.00" x1="950.00" id="24720" y2="480.00" /><line x2="920.00" style="fill:blue;stroke:blue;" y1="580.00" x1="950.00" id="24721" y2="480.00" /><line x2="900.00" style="fill:blue;stroke:blue;" y1="580.00" x1="950.00" id="24722" y2="530.00" /><line x2="800.00" style="fill:blue;stroke:blue;" y1="580.00" x1="950.00" id="24723" y2="580.00" /><line x2="870.00" style="fill:blue;stroke:blue;" y1="80.00" x1="950.00" id="24724" y2="50.00" /><line x2="920.00" style="fill:blue;stroke:blue;" y1="80.00" x1="950.00" id="24725" y2="30.00" /><line x2="920.00" style="fill:blue;stroke:blue;" y1="330.00" x1="950.00" id="24726" y2="280.00" /><line x2="980.00" style="fill:blue;stroke:blue;" y1="330.00" x1="950.00" id="24727" y2="380.00" /><line x2="950.00" style="fill:blue;stroke:blue;" y1="380.00" x1="980.00" id="24728" y2="330.00" /><line x2="980.00" style="fill:blue;stroke:blue;" y1="380.00" x1="980.00" id="24729" y2="210.00" /><line x2="950.00" style="fill:blue;stroke:blue;" y1="380.00" x1="980.00" id="24730" y2="430.00" /><line x2="980.00" style="fill:blue;stroke:blue;" y1="210.00" x1="980.00" id="24731" y2="380.00" /><line x2="950.00" style="fill:blue;stroke:blue;" y1="210.00" x1="980.00" id="24732" y2="130.00" /><line x2="80.00" style="fill:blue;stroke:blue;" y1="120.00" x1="20.00" id="24733" y2="180.00" /><line x2="30.00" style="fill:blue;stroke:blue;" y1="700.00" x1="20.00" id="24734" y2="650.00" /><line x2="150.00" style="fill:blue;stroke:blue;" y1="100.00" x1="80.00" id="24735" y2="100.00" /><line x2="150.00" style="fill:blue;stroke:blue;" y1="100.00" x1="80.00" id="24736" y2="50.00" /><line x2="150.00" style="fill:blue;stroke:blue;" y1="50.00" x1="150.00" id="24737" y2="100.00" /><line x2="80.00" style="fill:blue;stroke:blue;" y1="50.00" x1="150.00" id="24738" y2="100.00" /><line x2="320.00" style="fill:blue;stroke:blue;" y1="730.00" x1="320.00" id="24739" y2="680.00" /><line x2="350.00" style="fill:blue;stroke:blue;" y1="20.00" x1="350.00" id="24740" y2="80.00" /><line x2="420.00" style="fill:blue;stroke:blue;" y1="20.00" x1="350.00" id="24741" y2="20.00" /><line x2="250.00" style="fill:blue;stroke:blue;" y1="20.00" x1="350.00" id="24742" y2="50.00" /><line x2="380.00" style="fill:blue;stroke:blue;" y1="80.00" x1="350.00" id="24743" y2="120.00" /><line x2="420.00" style="fill:blue;stroke:blue;" y1="80.00" x1="350.00" id="24744" y2="80.00" /><line x2="350.00" style="fill:blue;stroke:blue;" y1="80.00" x1="350.00" id="24745" y2="20.00" /><line x2="750.00" style="fill:blue;stroke:blue;" y1="20.00" x1="420.00" id="24746" y2="20.00" /><line x2="420.00" style="fill:blue;stroke:blue;" y1="20.00" x1="420.00" id="24747" y2="80.00" /><line x2="350.00" style="fill:blue;stroke:blue;" y1="20.00" x1="420.00" id="24748" y2="20.00" /><line x2="380.00" style="fill:blue;stroke:blue;" y1="80.00" x1="420.00" id="24749" y2="120.00" /><line x2="350.00" style="fill:blue;stroke:blue;" y1="80.00" x1="420.00" id="24750" y2="80.00" /><line x2="420.00" style="fill:blue;stroke:blue;" y1="80.00" x1="420.00" id="24751" y2="20.00" /><line x2="500.00" style="fill:blue;stroke:blue;" y1="50.00" x1="550.00" id="24752" y2="100.00" /><line x2="650.00" style="fill:blue;stroke:blue;" y1="680.00" x1="650.00" id="24753" y2="624.50" /><line x2="780.00" style="fill:blue;stroke:blue;" y1="690.00" x1="830.00" id="24754" y2="650.00" /></svg>
