<?xml version="1.0" standalone="yes"?>
<!DOCTYPE svg PUBLIC "-//W3C//DTD SVG 1.1//EN" "http://www.w3.org/Graphics/SVG/1.1/DTD/svg11.dtd" []><svg
    width="2100.00" id="34702" height="1600.00" xmlns="http://www.w3.org/2000/svg"
    xmlns:xlink="http://www.w3.org/1999/xlink">
    <rect height="5.00" width="5.00" Name="艾里迪亚" y="810.00" id="34703" Type="region" x="280.00" /><text id="34704"
        x="280.00" y="810.00">艾里迪亚</text>
    <rect height="5.00" width="5.00" Name="暗涌之域" y="500.00" id="34706" Type="region" x="900.00" /><text id="34707"
        x="900.00" y="500.00">暗涌之域</text>
    <rect height="5.00" width="5.00" Name="幽暗之域" y="920.00" id="34709" Type="region" x="1000.00" /><text
        id="34710" x="1000.00" y="920.00">幽暗之域</text>
    <rect height="5.00" width="5.00" Name="血脉" y="100.00" id="34712" Type="region" x="1040.00" /><text id="34713"
        x="1040.00" y="100.00">血脉</text>
    <rect height="5.00" width="5.00" Name="地窖" y="800.00" id="34715" Type="region" x="1930.00" /><text id="34716"
        x="1930.00" y="800.00">地窖</text>
    <rect height="5.00" width="5.00" Name="卡特ch" y="1280.00" id="34718" Type="region" x="1110.00" /><text id="34719"
        x="1110.00" y="1280.00">卡特ch</text>
    <rect height="5.00" width="5.00" Name="赛塔德洱" y="620.00" id="34721" Type="region" x="1010.00" /><text
        id="34722" x="1010.00" y="620.00">赛塔德洱</text>
    <rect height="5.00" width="5.00" Name="云环" y="240.00" id="34724" Type="region" x="500.00" /><text id="34725"
        x="500.00" y="240.00">云环</text>
    <rect height="5.00" width="5.00" Name="钴蓝边域" y="130.00" id="34727" Type="region" x="1900.00" /><text
        id="34728" x="1900.00" y="130.00">钴蓝边域</text>
    <rect height="5.00" width="5.00" Name="柯尔斯" y="1120.00" id="34730" Type="region" x="1350.00" /><text id="34731"
        x="1350.00" y="1120.00">柯尔斯</text>
    <rect height="5.00" width="5.00" Name="德克廉" y="150.00" id="34733" Type="region" x="820.00" /><text id="34734"
        x="820.00" y="150.00">德克廉</text>
    <rect height="5.00" width="5.00" Name="绝地之域" y="1210.00" id="34736" Type="region" x="230.00" /><text id="34737"
        x="230.00" y="1210.00">绝地之域</text>
    <rect height="5.00" width="5.00" Name="德里克" y="970.00" id="34739" Type="region" x="1300.00" /><text id="34740"
        x="1300.00" y="970.00">德里克</text>
    <rect height="5.00" width="5.00" Name="底特里德" y="1400.00" id="34742" Type="region" x="1760.00" /><text id="34743"
        x="1760.00" y="1400.00">底特里德</text>
    <rect height="5.00" width="5.00" Name="破碎" y="1060.00" id="34745" Type="region" x="990.00" /><text id="34746"
        x="990.00" y="1060.00">破碎</text>
    <rect height="5.00" width="5.00" Name="多美" y="960.00" id="34748" Type="region" x="810.00" /><text id="34749"
        x="810.00" y="960.00">多美</text>
    <rect height="5.00" width="5.00" Name="埃索特亚" y="1450.00" id="34751" Type="region" x="880.00" /><text id="34752"
        x="880.00" y="1450.00">埃索特亚</text>
    <rect height="5.00" width="5.00" Name="精华之域" y="580.00" id="34754" Type="region" x="740.00" /><text id="34755"
        x="740.00" y="580.00">精华之域</text>
    <rect height="5.00" width="5.00" Name="琉蓝之穹" y="620.00" id="34757" Type="region" x="1570.00" /><text
        id="34758" x="1570.00" y="620.00">琉蓝之穹</text>
    <rect height="5.00" width="5.00" Name="埃维希尔" y="730.00" id="34760" Type="region" x="660.00" /><text id="34761"
        x="660.00" y="730.00">埃维希尔</text>
    <rect height="5.00" width="5.00" Name="斐德" y="260.00" id="34763" Type="region" x="720.00" /><text id="34764"
        x="720.00" y="260.00">斐德</text>
    <rect height="5.00" width="5.00" Name="非塔波利斯" y="1510.00" id="34766" Type="region" x="1070.00" /><text
        id="34767" x="1070.00" y="1510.00">非塔波利斯</text>
    <rect height="5.00" width="5.00" Name="伏尔戈" y="620.00" id="34769" Type="region" x="1200.00" /><text id="34770"
        x="1200.00" y="620.00">伏尔戈</text>
    <rect height="5.00" width="5.00" Name="源泉之域" y="500.00" id="34772" Type="region" x="120.00" /><text id="34773"
        x="120.00" y="500.00">源泉之域</text>
    <rect height="5.00" width="5.00" Name="对舞之域" y="490.00" id="34775" Type="region" x="1330.00" /><text id="34776"
        x="1330.00" y="490.00">对舞之域</text>
    <rect height="5.00" width="5.00" Name="吉勒西斯" y="860.00" id="34778" Type="region" x="480.00" /><text id="34779"
        x="480.00" y="860.00">吉勒西斯</text>
    <rect height="5.00" width="5.00" Name="大荒野" y="920.00" id="34781" Type="region" x="1630.00" /><text
        id="34782" x="1630.00" y="920.00">大荒野</text>
    <rect height="5.00" width="5.00" Name="西玛特尔" y="860.00" id="34784" Type="region" x="1220.00" /><text id="34785"
        x="1220.00" y="860.00">西玛特尔</text>
    <rect height="5.00" width="5.00" Name="伊梅瑟亚" y="1230.00" id="34787" Type="region" x="1350.00" /><text id="34788"
        x="1350.00" y="1230.00">伊梅瑟亚</text>
    <rect height="5.00" width="5.00" Name="绝径" y="1390.00" id="34790" Type="region" x="1200.00" /><text id="34791"
        x="1200.00" y="1390.00">绝径</text>
    <rect height="5.00" width="5.00" Name="因斯姆尔" y="1160.00" id="34793" Type="region" x="1880.00" /><text
        id="34794" x="1880.00" y="1160.00">因斯姆尔</text>
    <rect height="5.00" width="5.00" Name="卡多尔" y="880.00" id="34796" Type="region" x="660.00" /><text id="34797"
        x="660.00" y="880.00">卡多尔</text>
    <rect height="5.00" width="5.00" Name="卡勒瓦拉阔地" y="370.00" id="34799" Type="region" x="1490.00" /><text
        id="34800" x="1490.00" y="370.00">卡勒瓦拉阔地</text>
    <rect height="5.00" width="5.00" Name="卡尼迪" y="1140.00" id="34802" Type="region" x="470.00" /><text id="34803"
        x="470.00" y="1140.00">卡尼迪</text>
    <rect height="5.00" width="5.00" Name="柯埃佐" y="1010.00" id="34805" Type="region" x="500.00" /><text id="34806"
        x="500.00" y="1010.00">柯埃佐</text>
    <rect height="5.00" width="5.00" Name="长征" y="460.00" id="34808" Type="region" x="1100.00" /><text id="34809"
        x="1100.00" y="460.00">长征</text>
    <rect height="5.00" width="5.00" Name="玛尔pais" y="520.00" id="34811" Type="region" x="1770.00" /><text id="34812"
        x="1770.00" y="520.00">玛尔pais</text>
    <rect height="5.00" width="5.00" Name="美特伯里斯" y="730.00" id="34814" Type="region" x="1330.00" /><text
        id="34815" x="1330.00" y="730.00">美特伯里斯</text>
    <rect height="5.00" width="5.00" Name="摩登赫斯" y="860.00" id="34817" Type="region" x="1460.00" /><text
        id="34818" x="1460.00" y="860.00">摩登赫斯</text>
    <rect height="5.00" width="5.00" Name="欧莎" y="320.00" id="34820" Type="region" x="1890.00" /><text id="34821"
        x="1890.00" y="320.00">欧莎</text>
    <rect height="5.00" width="5.00" Name="欧米斯特" y="1480.00" id="34823" Type="region" x="1440.00" /><text id="34824"
        x="1440.00" y="1480.00">欧米斯特</text>
    <rect height="5.00" width="5.00" Name="域外走廊" y="460.00" id="34826" Type="region" x="1930.00" /><text
        id="34827" x="1930.00" y="460.00">域外走廊</text>
    <rect height="5.00" width="5.00" Name="外环" y="280.00" id="34829" Type="region" x="240.00" /><text id="34830"
        x="240.00" y="280.00">外环</text>
    <rect height="5.00" width="5.00" Name="摄魂之域" y="1480.00" id="34832" Type="region" x="640.00" /><text
        id="34833" x="640.00" y="1480.00">摄魂之域</text>
    <rect height="5.00" width="5.00" Name="贝斯" y="1400.00" id="34835" Type="region" x="440.00" /><text
        id="34836" x="440.00" y="1400.00">贝斯</text>
    <rect height="5.00" width="5.00" Name="佩利根弗" y="260.00" id="34838" Type="region" x="1600.00" /><text
        id="34839" x="1600.00" y="260.00">佩利根弗</text>
    <rect height="5.00" width="5.00" Name="宁静之域" y="440.00" id="34841" Type="region" x="600.00" /><text id="34842"
        x="600.00" y="440.00">宁静之域</text>
    <rect height="5.00" width="5.00" Name="普罗维登斯" y="1130.00" id="34844" Type="region" x="1010.00" /><text
        id="34845" x="1010.00" y="1130.00">普罗维登斯</text>
    <rect height="5.00" width="5.00" Name="黑渊" y="380.00" id="34847" Type="region" x="870.00" /><text id="34848"
        x="870.00" y="380.00">黑渊</text>
    <rect height="5.00" width="5.00" Name="逑瑞斯" y="1280.00" id="34850" Type="region" x="680.00" /><text id="34851"
        x="680.00" y="1280.00">逑瑞斯</text>
    <rect height="5.00" width="5.00" Name="灼热之径" y="1080.00" id="34853" Type="region" x="1600.00" /><text
        id="34854" x="1600.00" y="1080.00">灼热之径</text>
    <rect height="5.00" width="5.00" Name="金纳泽" y="770.00" id="34856" Type="region" x="950.00" /><text
        id="34857" x="950.00" y="770.00">金纳泽</text>
    <rect height="5.00" width="5.00" Name="孤独之域" y="670.00" id="34859" Type="region" x="310.00" /><text id="34860"
        x="310.00" y="670.00">孤独之域</text>
    <rect height="5.00" width="5.00" Name="螺旋之域" y="700.00" id="34862" Type="region" x="1720.00" /><text id="34863"
        x="1720.00" y="700.00">螺旋之域</text>
    <rect height="5.00" width="5.00" Name="混浊" y="1350.00" id="34865" Type="region" x="900.00" /><text id="34866"
        x="900.00" y="1350.00">混浊</text>
    <rect height="5.00" width="5.00" Name="辛迪加" y="500.00" id="34868" Type="region" x="360.00" /><text id="34869"
        x="360.00" y="500.00">辛迪加</text>
    <rect height="5.00" width="5.00" Name="塔什蒙贡" y="1090.00" id="34871" Type="region" x="730.00" /><text
        id="34872" x="730.00" y="1090.00">塔什蒙贡</text>
    <rect height="5.00" width="5.00" Name="特纳" y="140.00" id="34874" Type="region" x="1400.00" /><text id="34875"
        x="1400.00" y="140.00">特纳</text>
    <rect height="5.00" width="5.00" Name="特里菲斯" y="1350.00" id="34877" Type="region" x="1430.00" /><text
        id="34878" x="1430.00" y="1350.00">特里菲斯</text>
    <rect height="5.00" width="5.00" Name="特布特" y="290.00" id="34880" Type="region" x="1070.00" /><text id="34881"
        x="1070.00" y="290.00">特布特</text>
    <rect height="5.00" width="5.00" Name="静寂谷" y="380.00" id="34883" Type="region" x="1230.00" /><text
        id="34884" x="1230.00" y="380.00">静寂谷</text>
    <rect height="5.00" width="5.00" Name="维纳尔" y="210.00" id="34886" Type="region" x="1140.00" /><text id="34887"
        x="1140.00" y="210.00">维纳尔</text>
    <rect height="5.00" width="5.00" Name="维格温铎" y="660.00" id="34889" Type="region" x="490.00" /><text
        id="34890" x="490.00" y="660.00">维格温铎</text>
    <rect height="5.00" width="5.00" Name="邪恶湾流" y="1230.00" id="34892" Type="region" x="1580.00" /><text
        id="34893" x="1580.00" y="1230.00">邪恶湾流</text>
    <rect height="5.00" width="5.00" Name="Pochven" y="50.00" id="34895" Type="region" x="50.00" /><text id="34896"
        x="50.00" y="50.00">Pochven</text>
    <rect height="5.00" width="5.00" Name="势力战争 - 艾玛 vs 米玛塔尔" y="120.00" id="34898" Type="region" x="50.00" />
    <text id="34899" x="50.00" y="120.00"> - 艾玛 vs 米玛塔尔</text>
    <rect height="5.00" width="5.00" Name="势力战争 - 加达里 vs 盖伦特" y="190.00" id="34901" Type="region"
        x="50.00" /><text id="34902" x="50.00" y="190.00">势力战争 - 加达里 vs 盖伦特</text>
    <rect height="5.00" width="5.00" Name="Yasna Zakh" y="260.00" id="34904" Type="region" x="50.00" /><text id="34905"
        x="50.00" y="260.00">Yasna Zakh</text>
</svg>
