<?xml version="1.0" standalone="yes"?><!DOCTYPE svg PUBLIC "-//W3C//DTD SVG 1.1//EN" "http://www.w3.org/Graphics/SVG/1.1/DTD/svg11.dtd"[]><svg width="1050.00" id="15836" height="800.00" xmlns="http://www.w3.org/2000/svg" xmlns:xlink="http://www.w3.org/1999/xlink"><rect height="5.00" width="5.00" Name="希米尔" ID="30004141" y="270.00" id="15837" Region="卡多尔" Type="system" x="30.00" /><text id="15838" x="30.00" y="270.00">希米尔</text><rect height="5.00" width="5.00" Name="埃克哈瓦" ID="30015042" y="640.00" id="15840" Region="卡多尔" Type="system" x="30.00" /><text id="15841" x="30.00" y="640.00">埃克哈瓦</text><rect height="5.00" width="5.00" Name="莱耶勒特" ID="30004116" y="70.00" id="15843" Region="卡多尔" Type="system" x="50.00" /><text id="15844" x="50.00" y="70.00">莱耶勒特</text><rect height="5.00" width="5.00" Name="马萨努" ID="30005041" y="520.00" id="15846" Region="柯埃佐" Type="system" x="50.00" /><text id="15847" x="50.00" y="520.00">马萨努</text><rect height="5.00" width="5.00" Name="孙尼尔" ID="30004101" y="570.00" id="15849" Region="卡多尔" Type="system" x="80.00" /><text id="15850" x="80.00" y="570.00">孙尼尔</text><rect height="5.00" width="5.00" Name="埃斯-伊利斯" ID="30004102" y="620.00" id="15852" Region="卡多尔" Type="system" x="80.00" /><text id="15853" x="80.00" y="620.00">埃斯-伊利斯</text><rect height="5.00" width="5.00" Name="加萨瓦基" ID="30004119" y="100.00" id="15855" Region="卡多尔" Type="system" x="100.00" /><text id="15856" x="100.00" y="100.00">加萨瓦基</text><rect height="5.00" width="5.00" Name="门利" ID="30004121" y="149.06" id="15858" Region="卡多尔" Type="system" x="79.37" /><text id="15859" x="79.37" y="149.06">门利</text><rect height="5.00" width="5.00" Name="莫德" ID="30004136" y="189.90" id="15861" Region="卡多尔" Type="system" x="106.46" /><text id="15862" x="106.46" y="189.90">莫德</text><rect height="5.00" width="5.00" Name="欧漫" ID="30004137" y="230.00" id="15864" Region="卡多尔" Type="system" x="70.00" /><text id="15865" x="70.00" y="230.00">欧漫</text><rect height="5.00" width="5.00" Name="瑟西玛伦" ID="30004139" y="270.00" id="15867" Region="卡多尔" Type="system" x="100.00" /><text id="15868" x="100.00" y="270.00">瑟西玛伦</text><rect height="5.00" width="5.00" Name="左拉贝的" ID="30004160" y="650.00" id="15870" Region="卡多尔" Type="system" x="160.00" /><text id="15871" x="160.00" y="650.00">左拉贝的</text><rect height="5.00" width="5.00" Name="特朗" ID="30004158" y="720.00" id="15873" Region="卡多尔" Type="system" x="130.00" /><text id="15874" x="130.00" y="720.00">特朗</text><rect height="5.00" width="5.00" Name="布舍马尔" ID="30004117" y="50.00" id="15876" Region="卡多尔" Type="system" x="130.00" /><text id="15877" x="130.00" y="50.00">布舍马尔</text><rect height="5.00" width="5.00" Name="拉扎纳" ID="30004159" y="770.00" id="15879" Region="卡多尔" Type="system" x="130.00" /><text id="15880" x="130.00" y="770.00">拉扎纳</text><rect height="5.00" width="5.00" Name="哈利拜" ID="30004100" y="550.00" id="15882" Region="卡多尔" Type="system" x="150.00" /><text id="15883" x="150.00" y="550.00">哈利拜</text><rect height="5.00" width="5.00" Name="索娜玛" ID="30004099" y="600.00" id="15885" Region="卡多尔" Type="system" x="150.00" /><text id="15886" x="150.00" y="600.00">索娜玛</text><rect height="5.00" width="5.00" Name="息诺" ID="30004140" y="300.00" id="15888" Region="卡多尔" Type="system" x="150.00" /><text id="15889" x="150.00" y="300.00">息诺</text><rect height="5.00" width="5.00" Name="贝尔希里姆" ID="30004138" y="201.04" id="15891" Region="卡多尔" Type="system" x="154.17" /><text id="15892" x="154.17" y="201.04">贝尔希里姆</text><rect height="5.00" width="5.00" Name="阿尔迪斯" ID="30004118" y="50.00" id="15894" Region="卡多尔" Type="system" x="190.00" /><text id="15895" x="190.00" y="50.00">阿尔迪斯</text><rect height="5.00" width="5.00" Name="丹塔恩" ID="30004097" y="420.00" id="15897" Region="卡多尔" Type="system" x="200.00" /><text id="15898" x="200.00" y="420.00">丹塔恩</text><rect height="5.00" width="5.00" Name="阿斯里欧斯" ID="30004156" y="700.00" id="15900" Region="卡多尔" Type="system" x="200.00" /><text id="15901" x="200.00" y="700.00">阿斯里欧斯</text><rect height="5.00" width="5.00" Name="伊塔尔" ID="30004157" y="750.00" id="15903" Region="卡多尔" Type="system" x="200.00" /><text id="15904" x="200.00" y="750.00">伊塔尔</text><rect height="5.00" width="5.00" Name="科特" ID="30004103" y="550.00" id="15906" Region="卡多尔" Type="system" x="230.00" /><text id="15907" x="230.00" y="550.00">科特</text><rect height="5.00" width="5.00" Name="图尔巴" ID="30004098" y="600.00" id="15909" Region="卡多尔" Type="system" x="230.00" /><text id="15910" x="230.00" y="600.00">图尔巴</text><rect height="5.00" width="5.00" Name="艾奥基特" ID="30004120" y="50.00" id="15912" Region="卡多尔" Type="system" x="250.00" /><text id="15913" x="250.00" y="50.00">艾奥基特</text><rect height="5.00" width="5.00" Name="勒布拉比" ID="30004089" y="320.00" id="15915" Region="卡多尔" Type="system" x="250.00" /><text id="15916" x="250.00" y="320.00">勒布拉比</text><rect height="5.00" width="5.00" Name="舍马尔" ID="30004155" y="720.00" id="15918" Region="卡多尔" Type="system" x="250.00" /><text id="15919" x="250.00" y="720.00">舍马尔</text><rect height="5.00" width="5.00" Name="卡多尔首星" ID="30004095" y="450.00" id="15921" Region="卡多尔" Type="system" x="280.00" /><text id="15922" x="280.00" y="450.00">卡多尔首星</text><rect height="5.00" width="5.00" Name="卡菲斯" ID="30004096" y="400.00" id="15924" Region="卡多尔" Type="system" x="300.00" /><text id="15925" x="300.00" y="400.00">卡菲斯</text><rect height="5.00" width="5.00" Name="诺尔达" ID="30004094" y="500.00" id="15927" Region="卡多尔" Type="system" x="300.00" /><text id="15928" x="300.00" y="500.00">诺尔达</text><rect height="5.00" width="5.00" Name="库纳" ID="30004128" y="220.00" id="15930" Region="卡多尔" Type="system" x="300.00" /><text id="15931" x="300.00" y="220.00">库纳</text><rect height="5.00" width="5.00" Name="霍斯塔阔" ID="30004130" y="550.00" id="15933" Region="卡多尔" Type="system" x="330.00" /><text id="15934" x="330.00" y="550.00">霍斯塔阔</text><rect height="5.00" width="5.00" Name="果南" ID="30004087" y="350.00" id="15936" Region="卡多尔" Type="system" x="330.00" /><text id="15937" x="330.00" y="350.00">果南</text><rect height="5.00" width="5.00" Name="尤奥" ID="30004131" y="600.00" id="15939" Region="卡多尔" Type="system" x="330.00" /><text id="15940" x="330.00" y="600.00">尤奥</text><rect height="5.00" width="5.00" Name="西玛尔" ID="30004133" y="649.29" id="15942" Region="卡多尔" Type="system" x="350.03" /><text id="15943" x="350.03" y="649.29">西玛尔</text><rect height="5.00" width="5.00" Name="贾吉利" ID="30004125" y="70.00" id="15945" Region="卡多尔" Type="system" x="350.00" /><text id="15946" x="350.00" y="70.00">贾吉利</text><rect height="5.00" width="5.00" Name="卡茨" ID="30004134" y="698.22" id="15948" Region="卡多尔" Type="system" x="347.47" /><text id="15949" x="347.47" y="698.22">卡茨</text><rect height="5.00" width="5.00" Name="兹姆瑟" ID="30004127" y="199.18" id="15951" Region="卡多尔" Type="system" x="380.02" /><text id="15952" x="380.02" y="199.18">兹姆瑟</text><rect height="5.00" width="5.00" Name="蒙诺瑞" ID="30004129" y="248.16" id="15954" Region="卡多尔" Type="system" x="378.65" /><text id="15955" x="378.65" y="248.16">蒙诺瑞</text><rect height="5.00" width="5.00" Name="尼杜帕德" ID="30004126" y="150.00" id="15957" Region="卡多尔" Type="system" x="380.00" /><text id="15958" x="380.00" y="150.00">尼杜帕德</text><rect height="5.00" width="5.00" Name="西卡恩索" ID="30004142" y="732.49" id="15960" Region="卡多尔" Type="system" x="382.49" /><text id="15961" x="382.49" y="732.49">西卡恩索</text><rect height="5.00" width="5.00" Name="杰士德" ID="30004132" y="600.00" id="15963" Region="卡多尔" Type="system" x="400.00" /><text id="15964" x="400.00" y="600.00">杰士德</text><rect height="5.00" width="5.00" Name="阿班德" ID="30004090" y="291.89" id="15966" Region="卡多尔" Type="system" x="400.75" /><text id="15967" x="400.75" y="291.89">阿班德</text><rect height="5.00" width="5.00" Name="舒尔拉" ID="30004135" y="670.00" id="15969" Region="卡多尔" Type="system" x="400.00" /><text id="15970" x="400.00" y="670.00">舒尔拉</text><rect height="5.00" width="5.00" Name="咖利萨斯" ID="30004123" y="30.00" id="15972" Region="卡多尔" Type="system" x="430.00" /><text id="15973" x="430.00" y="30.00">咖利萨斯</text><rect height="5.00" width="5.00" Name="戈西斯" ID="30004084" y="330.76" id="15975" Region="卡多尔" Type="system" x="430.58" /><text id="15976" x="430.58" y="330.76">戈西斯</text><rect height="5.00" width="5.00" Name="穆利尼" ID="30004092" y="490.00" id="15978" Region="卡多尔" Type="system" x="450.00" /><text id="15979" x="450.00" y="490.00">穆利尼</text><rect height="5.00" width="5.00" Name="希尔库索" ID="30004143" y="770.00" id="15981" Region="卡多尔" Type="system" x="450.00" /><text id="15982" x="450.00" y="770.00">希尔库索</text><rect height="5.00" width="5.00" Name="乌亚尼姆" ID="30004091" y="570.00" id="15984" Region="卡多尔" Type="system" x="450.00" /><text id="15985" x="450.00" y="570.00">乌亚尼姆</text><rect height="5.00" width="5.00" Name="乔亚马" ID="30004086" y="370.00" id="15987" Region="卡多尔" Type="system" x="480.00" /><text id="15988" x="480.00" y="370.00">乔亚马</text><rect height="5.00" width="5.00" Name="埃费" ID="30004124" y="150.00" id="15990" Region="卡多尔" Type="system" x="480.00" /><text id="15991" x="480.00" y="150.00">埃费</text><rect height="5.00" width="5.00" Name="耶尼费" ID="30004154" y="540.00" id="15993" Region="卡多尔" Type="system" x="490.00" /><text id="15994" x="490.00" y="540.00">耶尼费</text><rect height="5.00" width="5.00" Name="阿斯科纳克" ID="30004093" y="450.00" id="15996" Region="卡多尔" Type="system" x="500.00" /><text id="15997" x="500.00" y="450.00">阿斯科纳克</text><rect height="5.00" width="5.00" Name="查浓" ID="30004122" y="70.00" id="15999" Region="卡多尔" Type="system" x="500.00" /><text id="16000" x="500.00" y="70.00">查浓</text><rect height="5.00" width="5.00" Name="耶博茨" ID="30004144" y="770.00" id="16002" Region="卡多尔" Type="system" x="510.00" /><text id="16003" x="510.00" y="770.00">耶博茨</text><rect height="5.00" width="5.00" Name="贾姆迪斯" ID="30004085" y="320.00" id="16005" Region="卡多尔" Type="system" x="550.00" /><text id="16006" x="550.00" y="320.00">贾姆迪斯</text><rect height="5.00" width="5.00" Name="尤拉默克" ID="30004088" y="370.00" id="16008" Region="卡多尔" Type="system" x="550.00" /><text id="16009" x="550.00" y="370.00">尤拉默克</text><rect height="5.00" width="5.00" Name="酷热恩" ID="30004152" y="520.00" id="16011" Region="卡多尔" Type="system" x="550.00" /><text id="16012" x="550.00" y="520.00">酷热恩</text><rect height="5.00" width="5.00" Name="哈巴拉" ID="30004145" y="770.00" id="16014" Region="卡多尔" Type="system" x="580.00" /><text id="16015" x="580.00" y="770.00">哈巴拉</text><rect height="5.00" width="5.00" Name="沙格特" ID="30004150" y="500.00" id="16017" Region="卡多尔" Type="system" x="600.00" /><text id="16018" x="600.00" y="500.00">沙格特</text><rect height="5.00" width="5.00" Name="米宁" ID="30004153" y="450.00" id="16020" Region="卡多尔" Type="system" x="600.00" /><text id="16021" x="600.00" y="450.00">米宁</text><rect height="5.00" width="5.00" Name="萨拉赫" ID="30004146" y="770.00" id="16023" Region="卡多尔" Type="system" x="640.00" /><text id="16024" x="640.00" y="770.00">萨拉赫</text><rect height="5.00" width="5.00" Name="德洛克" ID="30004105" y="50.00" id="16026" Region="卡多尔" Type="system" x="650.00" /><text id="16027" x="650.00" y="50.00">德洛克</text><rect height="5.00" width="5.00" Name="安萨索斯" ID="30004104" y="100.00" id="16029" Region="卡多尔" Type="system" x="650.00" /><text id="16030" x="650.00" y="100.00">安萨索斯</text><rect height="5.00" width="5.00" Name="厄尔梅德" ID="30004149" y="520.00" id="16032" Region="卡多尔" Type="system" x="650.00" /><text id="16033" x="650.00" y="520.00">厄尔梅德</text><rect height="5.00" width="5.00" Name="乌特尼亚" ID="30004151" y="470.00" id="16035" Region="卡多尔" Type="system" x="650.00" /><text id="16036" x="650.00" y="470.00">乌特尼亚</text><rect height="5.00" width="5.00" Name="查尼亚" ID="30004108" y="120.00" id="16038" Region="卡多尔" Type="system" x="700.00" /><text id="16039" x="700.00" y="120.00">查尼亚</text><rect height="5.00" width="5.00" Name="阿克蒙" ID="30004147" y="770.00" id="16041" Region="卡多尔" Type="system" x="700.00" /><text id="16042" x="700.00" y="770.00">阿克蒙</text><rect height="5.00" width="5.00" Name="简尼姆" ID="30004148" y="570.00" id="16044" Region="卡多尔" Type="system" x="700.00" /><text id="16045" x="700.00" y="570.00">简尼姆</text><rect height="5.00" width="5.00" Name="佐尔茨" ID="30004081" y="320.00" id="16047" Region="卡多尔" Type="system" x="730.00" /><text id="16048" x="730.00" y="320.00">佐尔茨</text><rect height="5.00" width="5.00" Name="波尔丹" ID="30004106" y="70.00" id="16050" Region="卡多尔" Type="system" x="730.00" /><text id="16051" x="730.00" y="70.00">波尔丹</text><rect height="5.00" width="5.00" Name="欧贝伦" ID="30004109" y="120.00" id="16053" Region="卡多尔" Type="system" x="780.00" /><text id="16054" x="780.00" y="120.00">欧贝伦</text><rect height="5.00" width="5.00" Name="基恩瑟拉" ID="30004083" y="270.00" id="16056" Region="卡多尔" Type="system" x="800.00" /><text id="16057" x="800.00" y="270.00">基恩瑟拉</text><rect height="5.00" width="5.00" Name="德勒斯" ID="30004078" y="320.00" id="16059" Region="卡多尔" Type="system" x="800.00" /><text id="16060" x="800.00" y="320.00">德勒斯</text><rect height="5.00" width="5.00" Name="茨梅姆" ID="30004107" y="70.00" id="16062" Region="卡多尔" Type="system" x="800.00" /><text id="16063" x="800.00" y="70.00">茨梅姆</text><rect height="5.00" width="5.00" Name="埃费恩的" ID="30004079" y="400.00" id="16065" Region="卡多尔" Type="system" x="850.00" /><text id="16066" x="850.00" y="400.00">埃费恩的</text><rect height="5.00" width="5.00" Name="曼铎" ID="30004112" y="120.00" id="16068" Region="卡多尔" Type="system" x="850.00" /><text id="16069" x="850.00" y="120.00">曼铎</text><rect height="5.00" width="5.00" Name="佩伊利" ID="30004114" y="170.00" id="16071" Region="卡多尔" Type="system" x="850.00" /><text id="16072" x="850.00" y="170.00">佩伊利</text><rect height="5.00" width="5.00" Name="卡姆达" ID="30004115" y="220.00" id="16074" Region="卡多尔" Type="system" x="850.00" /><text id="16075" x="850.00" y="220.00">卡姆达</text><rect height="5.00" width="5.00" Name="米娅" ID="30004113" y="270.00" id="16077" Region="卡多尔" Type="system" x="850.00" /><text id="16078" x="850.00" y="270.00">米娅</text><rect height="5.00" width="5.00" Name="罗密" ID="30004080" y="450.00" id="16080" Region="卡多尔" Type="system" x="880.00" /><text id="16081" x="880.00" y="450.00">罗密</text><rect height="5.00" width="5.00" Name="艾哈拉勒" ID="30004082" y="320.00" id="16083" Region="卡多尔" Type="system" x="880.00" /><text id="16084" x="880.00" y="320.00">艾哈拉勒</text><rect height="5.00" width="5.00" Name="芬尼迪" ID="30004110" y="220.00" id="16086" Region="卡多尔" Type="system" x="950.00" /><text id="16087" x="950.00" y="220.00">芬尼迪</text><rect height="5.00" width="5.00" Name="亚勒巴浦" ID="30004111" y="270.00" id="16089" Region="卡多尔" Type="system" x="950.00" /><text id="16090" x="950.00" y="270.00">亚勒巴浦</text><rect height="5.00" width="5.00" Name="希罗德" ID="30004077" y="350.00" id="16092" Region="卡多尔" Type="system" x="950.00" /><text id="16093" x="950.00" y="350.00">希罗德</text><rect height="5.00" width="5.00" Name="阿莫德" ID="30003480" y="170.00" id="16095" Region="多美" Type="system" x="30.00" /><text id="16096" x="30.00" y="170.00">阿莫德</text><rect height="5.00" width="5.00" Name="希礼赞" ID="30005248" y="20.00" id="16098" Region="吉勒西斯" Type="system" x="50.00" /><text id="16099" x="50.00" y="20.00">希礼赞</text><rect height="5.00" width="5.00" Name="勒瓦" ID="30005039" y="470.00" id="16101" Region="柯埃佐" Type="system" x="50.00" /><text id="16102" x="50.00" y="470.00">勒瓦</text><rect height="5.00" width="5.00" Name="安姆多尼" ID="30005036" y="420.00" id="16104" Region="柯埃佐" Type="system" x="130.00" /><text id="16105" x="130.00" y="420.00">安姆多尼</text><rect height="5.00" width="5.00" Name="伊维卡姆" ID="30003867" y="490.00" id="16107" Region="卡尼迪" Type="system" x="120.00" /><text id="16108" x="120.00" y="490.00">伊维卡姆</text><rect height="5.00" width="5.00" Name="丹亚娜" ID="30005044" y="370.00" id="16110" Region="柯埃佐" Type="system" x="180.00" /><text id="16111" x="180.00" y="370.00">丹亚娜</text><rect height="5.00" width="5.00" Name="欧纳泽尔" ID="30001688" y="650.00" id="16113" Region="塔什蒙贡" Type="system" x="230.00" /><text id="16114" x="230.00" y="650.00">欧纳泽尔</text><rect height="5.00" width="5.00" Name="佩蒂杜" ID="30005241" y="50.00" id="16116" Region="吉勒西斯" Type="system" x="300.00" /><text id="16117" x="300.00" y="50.00">佩蒂杜</text><rect height="5.00" width="5.00" Name="博拉那伊" ID="30002188" y="450.00" id="16119" Region="多美" Type="system" x="350.00" /><text id="16120" x="350.00" y="450.00">博拉那伊</text><rect height="5.00" width="5.00" Name="马耳他" ID="30002194" y="580.00" id="16122" Region="多美" Type="system" x="560.00" /><text id="16123" x="560.00" y="580.00">马耳他</text><rect height="5.00" width="5.00" Name="普姆索" ID="30001652" y="630.00" id="16125" Region="塔什蒙贡" Type="system" x="580.00" /><text id="16126" x="580.00" y="630.00">普姆索</text><rect height="5.00" width="5.00" Name="伊德里庸" ID="30005227" y="70.00" id="16128" Region="吉勒西斯" Type="system" x="580.00" /><text id="16129" x="580.00" y="70.00">伊德里庸</text><rect height="5.00" width="5.00" Name="埃克拉甘" ID="30002197" y="400.00" id="16131" Region="多美" Type="system" x="700.00" /><text id="16132" x="700.00" y="400.00">埃克拉甘</text><rect height="5.00" width="5.00" Name="萨费安" ID="30002279" y="610.00" id="16134" Region="多美" Type="system" x="780.00" /><text id="16135" x="780.00" y="610.00">萨费安</text><rect height="5.00" width="5.00" Name="马蒂米里若" ID="30003503" y="500.00" id="16137" Region="多美" Type="system" x="780.00" /><text id="16138" x="780.00" y="500.00">马蒂米里若</text><rect height="5.00" width="5.00" Name="舍拉" ID="30005192" y="220.00" id="16140" Region="吉勒西斯" Type="system" x="800.00" /><text id="16141" x="800.00" y="220.00">舍拉</text><rect height="5.00" width="5.00" Name="必泽巴" ID="30002282" y="550.00" id="16143" Region="多美" Type="system" x="860.00" /><text id="16144" x="860.00" y="550.00">必泽巴</text><rect height="5.00" width="5.00" Name="萨亚尔臣" ID="30003508" y="480.00" id="16146" Region="多美" Type="system" x="990.00" /><text id="16147" x="990.00" y="480.00">萨亚尔臣</text><rect height="5.00" width="5.00" Name="法胡尔" ID="30003473" y="400.00" id="16149" Region="多美" Type="system" x="980.00" /><text id="16150" x="980.00" y="400.00">法胡尔</text><line y2="270.00" id="16152" y1="270.00" style="stroke:blue;fill:blue;" x1="30.00" x2="100.00" /><line y2="620.00" id="16153" y1="640.00" style="stroke:blue;fill:blue;" x1="30.00" x2="80.00" /><line y2="50.00" id="16154" y1="70.00" style="stroke:blue;fill:blue;" x1="50.00" x2="130.00" /><line y2="100.00" id="16155" y1="70.00" style="stroke:blue;fill:blue;" x1="50.00" x2="100.00" /><line y2="20.00" id="16156" y1="70.00" style="stroke:blue;fill:blue;" x1="50.00" x2="50.00" /><line y2="490.00" id="16157" y1="520.00" style="stroke:blue;fill:blue;" x1="50.00" x2="120.00" /><line y2="570.00" id="16158" y1="520.00" style="stroke:blue;fill:blue;" x1="50.00" x2="80.00" /><line y2="470.00" id="16159" y1="520.00" style="stroke:blue;fill:blue;" x1="50.00" x2="50.00" /><line y2="600.00" id="16160" y1="570.00" style="stroke:blue;fill:blue;" x1="80.00" x2="150.00" /><line y2="620.00" id="16161" y1="570.00" style="stroke:blue;fill:blue;" x1="80.00" x2="80.00" /><line y2="520.00" id="16162" y1="570.00" style="stroke:blue;fill:blue;" x1="80.00" x2="50.00" /><line y2="600.00" id="16163" y1="620.00" style="stroke:blue;fill:blue;" x1="80.00" x2="150.00" /><line y2="570.00" id="16164" y1="620.00" style="stroke:blue;fill:blue;" x1="80.00" x2="80.00" /><line y2="640.00" id="16165" y1="620.00" style="stroke:blue;fill:blue;" x1="80.00" x2="30.00" /><line y2="70.00" id="16166" y1="100.00" style="stroke:blue;fill:blue;" x1="100.00" x2="50.00" /><line y2="50.00" id="16167" y1="100.00" style="stroke:blue;fill:blue;" x1="100.00" x2="130.00" /><line y2="149.06" id="16168" y1="100.00" style="stroke:blue;fill:blue;" x1="100.00" x2="79.37" /><line y2="100.00" id="16169" y1="149.06" style="stroke:blue;fill:blue;" x1="79.37" x2="100.00" /><line y2="189.90" id="16170" y1="149.06" style="stroke:blue;fill:blue;" x1="79.37" x2="106.46" /><line y2="170.00" id="16171" y1="189.90" style="stroke:blue;fill:blue;" x1="106.46" x2="30.00" /><line y2="149.06" id="16172" y1="189.90" style="stroke:blue;fill:blue;" x1="106.46" x2="79.37" /><line y2="230.00" id="16173" y1="189.90" style="stroke:blue;fill:blue;" x1="106.46" x2="70.00" /><line y2="201.04" id="16174" y1="189.90" style="stroke:blue;fill:blue;" x1="106.46" x2="154.17" /><line y2="189.90" id="16175" y1="230.00" style="stroke:blue;fill:blue;" x1="70.00" x2="106.46" /><line y2="201.04" id="16176" y1="230.00" style="stroke:blue;fill:blue;" x1="70.00" x2="154.17" /><line y2="270.00" id="16177" y1="230.00" style="stroke:blue;fill:blue;" x1="70.00" x2="100.00" /><line y2="230.00" id="16178" y1="270.00" style="stroke:blue;fill:blue;" x1="100.00" x2="70.00" /><line y2="300.00" id="16179" y1="270.00" style="stroke:blue;fill:blue;" x1="100.00" x2="150.00" /><line y2="270.00" id="16180" y1="270.00" style="stroke:blue;fill:blue;" x1="100.00" x2="30.00" /><line y2="700.00" id="16181" y1="650.00" style="stroke:blue;fill:blue;" x1="160.00" x2="200.00" /><line y2="700.00" id="16182" y1="720.00" style="stroke:blue;fill:blue;" x1="130.00" x2="200.00" /><line y2="70.00" id="16183" y1="50.00" style="stroke:blue;fill:blue;" x1="130.00" x2="50.00" /><line y2="50.00" id="16184" y1="50.00" style="stroke:blue;fill:blue;" x1="130.00" x2="190.00" /><line y2="100.00" id="16185" y1="50.00" style="stroke:blue;fill:blue;" x1="130.00" x2="100.00" /><line y2="750.00" id="16186" y1="770.00" style="stroke:blue;fill:blue;" x1="130.00" x2="200.00" /><line y2="600.00" id="16187" y1="550.00" style="stroke:blue;fill:blue;" x1="150.00" x2="150.00" /><line y2="600.00" id="16188" y1="600.00" style="stroke:blue;fill:blue;" x1="150.00" x2="230.00" /><line y2="550.00" id="16189" y1="600.00" style="stroke:blue;fill:blue;" x1="150.00" x2="150.00" /><line y2="570.00" id="16190" y1="600.00" style="stroke:blue;fill:blue;" x1="150.00" x2="80.00" /><line y2="620.00" id="16191" y1="600.00" style="stroke:blue;fill:blue;" x1="150.00" x2="80.00" /><line y2="320.00" id="16192" y1="300.00" style="stroke:blue;fill:blue;" x1="150.00" x2="250.00" /><line y2="270.00" id="16193" y1="300.00" style="stroke:blue;fill:blue;" x1="150.00" x2="100.00" /><line y2="189.90" id="16194" y1="201.04" style="stroke:blue;fill:blue;" x1="154.17" x2="106.46" /><line y2="230.00" id="16195" y1="201.04" style="stroke:blue;fill:blue;" x1="154.17" x2="70.00" /><line y2="50.00" id="16196" y1="50.00" style="stroke:blue;fill:blue;" x1="190.00" x2="130.00" /><line y2="50.00" id="16197" y1="50.00" style="stroke:blue;fill:blue;" x1="190.00" x2="250.00" /><line y2="450.00" id="16198" y1="420.00" style="stroke:blue;fill:blue;" x1="200.00" x2="280.00" /><line y2="420.00" id="16199" y1="420.00" style="stroke:blue;fill:blue;" x1="200.00" x2="130.00" /><line y2="370.00" id="16200" y1="420.00" style="stroke:blue;fill:blue;" x1="200.00" x2="180.00" /><line y2="720.00" id="16201" y1="700.00" style="stroke:blue;fill:blue;" x1="200.00" x2="250.00" /><line y2="720.00" id="16202" y1="700.00" style="stroke:blue;fill:blue;" x1="200.00" x2="130.00" /><line y2="650.00" id="16203" y1="700.00" style="stroke:blue;fill:blue;" x1="200.00" x2="160.00" /><line y2="720.00" id="16204" y1="750.00" style="stroke:blue;fill:blue;" x1="200.00" x2="250.00" /><line y2="770.00" id="16205" y1="750.00" style="stroke:blue;fill:blue;" x1="200.00" x2="130.00" /><line y2="600.00" id="16206" y1="550.00" style="stroke:blue;fill:blue;" x1="230.00" x2="230.00" /><line y2="650.00" id="16207" y1="600.00" style="stroke:blue;fill:blue;" x1="230.00" x2="230.00" /><line y2="600.00" id="16208" y1="600.00" style="stroke:blue;fill:blue;" x1="230.00" x2="150.00" /><line y2="550.00" id="16209" y1="600.00" style="stroke:blue;fill:blue;" x1="230.00" x2="230.00" /><line y2="600.00" id="16210" y1="600.00" style="stroke:blue;fill:blue;" x1="230.00" x2="330.00" /><line y2="50.00" id="16211" y1="50.00" style="stroke:blue;fill:blue;" x1="250.00" x2="190.00" /><line y2="50.00" id="16212" y1="50.00" style="stroke:blue;fill:blue;" x1="250.00" x2="300.00" /><line y2="350.00" id="16213" y1="320.00" style="stroke:blue;fill:blue;" x1="250.00" x2="330.00" /><line y2="300.00" id="16214" y1="320.00" style="stroke:blue;fill:blue;" x1="250.00" x2="150.00" /><line y2="698.22" id="16215" y1="720.00" style="stroke:blue;fill:blue;" x1="250.00" x2="347.47" /><line y2="700.00" id="16216" y1="720.00" style="stroke:blue;fill:blue;" x1="250.00" x2="200.00" /><line y2="750.00" id="16217" y1="720.00" style="stroke:blue;fill:blue;" x1="250.00" x2="200.00" /><line y2="450.00" id="16218" y1="450.00" style="stroke:blue;fill:blue;" x1="280.00" x2="350.00" /><line y2="500.00" id="16219" y1="450.00" style="stroke:blue;fill:blue;" x1="280.00" x2="300.00" /><line y2="400.00" id="16220" y1="450.00" style="stroke:blue;fill:blue;" x1="280.00" x2="300.00" /><line y2="420.00" id="16221" y1="450.00" style="stroke:blue;fill:blue;" x1="280.00" x2="200.00" /><line y2="350.00" id="16222" y1="400.00" style="stroke:blue;fill:blue;" x1="300.00" x2="330.00" /><line y2="450.00" id="16223" y1="400.00" style="stroke:blue;fill:blue;" x1="300.00" x2="280.00" /><line y2="490.00" id="16224" y1="500.00" style="stroke:blue;fill:blue;" x1="300.00" x2="450.00" /><line y2="450.00" id="16225" y1="500.00" style="stroke:blue;fill:blue;" x1="300.00" x2="280.00" /><line y2="550.00" id="16226" y1="500.00" style="stroke:blue;fill:blue;" x1="300.00" x2="330.00" /><line y2="199.18" id="16227" y1="220.00" style="stroke:blue;fill:blue;" x1="300.00" x2="380.02" /><line y2="248.16" id="16228" y1="220.00" style="stroke:blue;fill:blue;" x1="300.00" x2="378.65" /><line y2="500.00" id="16229" y1="550.00" style="stroke:blue;fill:blue;" x1="330.00" x2="300.00" /><line y2="600.00" id="16230" y1="550.00" style="stroke:blue;fill:blue;" x1="330.00" x2="330.00" /><line y2="330.76" id="16231" y1="350.00" style="stroke:blue;fill:blue;" x1="330.00" x2="430.58" /><line y2="320.00" id="16232" y1="350.00" style="stroke:blue;fill:blue;" x1="330.00" x2="250.00" /><line y2="400.00" id="16233" y1="350.00" style="stroke:blue;fill:blue;" x1="330.00" x2="300.00" /><line y2="600.00" id="16234" y1="600.00" style="stroke:blue;fill:blue;" x1="330.00" x2="230.00" /><line y2="550.00" id="16235" y1="600.00" style="stroke:blue;fill:blue;" x1="330.00" x2="330.00" /><line y2="600.00" id="16236" y1="600.00" style="stroke:blue;fill:blue;" x1="330.00" x2="400.00" /><line y2="649.29" id="16237" y1="600.00" style="stroke:blue;fill:blue;" x1="330.00" x2="350.03" /><line y2="600.00" id="16238" y1="649.29" style="stroke:blue;fill:blue;" x1="350.03" x2="330.00" /><line y2="600.00" id="16239" y1="649.29" style="stroke:blue;fill:blue;" x1="350.03" x2="400.00" /><line y2="698.22" id="16240" y1="649.29" style="stroke:blue;fill:blue;" x1="350.03" x2="347.47" /><line y2="670.00" id="16241" y1="649.29" style="stroke:blue;fill:blue;" x1="350.03" x2="400.00" /><line y2="70.00" id="16242" y1="70.00" style="stroke:blue;fill:blue;" x1="350.00" x2="500.00" /><line y2="30.00" id="16243" y1="70.00" style="stroke:blue;fill:blue;" x1="350.00" x2="430.00" /><line y2="150.00" id="16244" y1="70.00" style="stroke:blue;fill:blue;" x1="350.00" x2="480.00" /><line y2="150.00" id="16245" y1="70.00" style="stroke:blue;fill:blue;" x1="350.00" x2="380.00" /><line y2="649.29" id="16246" y1="698.22" style="stroke:blue;fill:blue;" x1="347.47" x2="350.03" /><line y2="670.00" id="16247" y1="698.22" style="stroke:blue;fill:blue;" x1="347.47" x2="400.00" /><line y2="732.49" id="16248" y1="698.22" style="stroke:blue;fill:blue;" x1="347.47" x2="382.49" /><line y2="720.00" id="16249" y1="698.22" style="stroke:blue;fill:blue;" x1="347.47" x2="250.00" /><line y2="150.00" id="16250" y1="199.18" style="stroke:blue;fill:blue;" x1="380.02" x2="380.00" /><line y2="220.00" id="16251" y1="199.18" style="stroke:blue;fill:blue;" x1="380.02" x2="300.00" /><line y2="248.16" id="16252" y1="199.18" style="stroke:blue;fill:blue;" x1="380.02" x2="378.65" /><line y2="291.89" id="16253" y1="248.16" style="stroke:blue;fill:blue;" x1="378.65" x2="400.75" /><line y2="199.18" id="16254" y1="248.16" style="stroke:blue;fill:blue;" x1="378.65" x2="380.02" /><line y2="220.00" id="16255" y1="248.16" style="stroke:blue;fill:blue;" x1="378.65" x2="300.00" /><line y2="70.00" id="16256" y1="150.00" style="stroke:blue;fill:blue;" x1="380.00" x2="500.00" /><line y2="30.00" id="16257" y1="150.00" style="stroke:blue;fill:blue;" x1="380.00" x2="430.00" /><line y2="150.00" id="16258" y1="150.00" style="stroke:blue;fill:blue;" x1="380.00" x2="480.00" /><line y2="70.00" id="16259" y1="150.00" style="stroke:blue;fill:blue;" x1="380.00" x2="350.00" /><line y2="199.18" id="16260" y1="150.00" style="stroke:blue;fill:blue;" x1="380.00" x2="380.02" /><line y2="698.22" id="16261" y1="732.49" style="stroke:blue;fill:blue;" x1="382.49" x2="347.47" /><line y2="770.00" id="16262" y1="732.49" style="stroke:blue;fill:blue;" x1="382.49" x2="450.00" /><line y2="600.00" id="16263" y1="600.00" style="stroke:blue;fill:blue;" x1="400.00" x2="330.00" /><line y2="649.29" id="16264" y1="600.00" style="stroke:blue;fill:blue;" x1="400.00" x2="350.03" /><line y2="330.76" id="16265" y1="291.89" style="stroke:blue;fill:blue;" x1="400.75" x2="430.58" /><line y2="248.16" id="16266" y1="291.89" style="stroke:blue;fill:blue;" x1="400.75" x2="378.65" /><line y2="649.29" id="16267" y1="670.00" style="stroke:blue;fill:blue;" x1="400.00" x2="350.03" /><line y2="698.22" id="16268" y1="670.00" style="stroke:blue;fill:blue;" x1="400.00" x2="347.47" /><line y2="70.00" id="16269" y1="30.00" style="stroke:blue;fill:blue;" x1="430.00" x2="500.00" /><line y2="150.00" id="16270" y1="30.00" style="stroke:blue;fill:blue;" x1="430.00" x2="480.00" /><line y2="70.00" id="16271" y1="30.00" style="stroke:blue;fill:blue;" x1="430.00" x2="350.00" /><line y2="150.00" id="16272" y1="30.00" style="stroke:blue;fill:blue;" x1="430.00" x2="380.00" /><line y2="320.00" id="16273" y1="330.76" style="stroke:blue;fill:blue;" x1="430.58" x2="550.00" /><line y2="370.00" id="16274" y1="330.76" style="stroke:blue;fill:blue;" x1="430.58" x2="480.00" /><line y2="350.00" id="16275" y1="330.76" style="stroke:blue;fill:blue;" x1="430.58" x2="330.00" /><line y2="291.89" id="16276" y1="330.76" style="stroke:blue;fill:blue;" x1="430.58" x2="400.75" /><line y2="570.00" id="16277" y1="490.00" style="stroke:blue;fill:blue;" x1="450.00" x2="450.00" /><line y2="450.00" id="16278" y1="490.00" style="stroke:blue;fill:blue;" x1="450.00" x2="500.00" /><line y2="500.00" id="16279" y1="490.00" style="stroke:blue;fill:blue;" x1="450.00" x2="300.00" /><line y2="500.00" id="16280" y1="490.00" style="stroke:blue;fill:blue;" x1="450.00" x2="600.00" /><line y2="732.49" id="16281" y1="770.00" style="stroke:blue;fill:blue;" x1="450.00" x2="382.49" /><line y2="770.00" id="16282" y1="770.00" style="stroke:blue;fill:blue;" x1="450.00" x2="510.00" /><line y2="630.00" id="16283" y1="570.00" style="stroke:blue;fill:blue;" x1="450.00" x2="580.00" /><line y2="490.00" id="16284" y1="570.00" style="stroke:blue;fill:blue;" x1="450.00" x2="450.00" /><line y2="330.76" id="16285" y1="370.00" style="stroke:blue;fill:blue;" x1="480.00" x2="430.58" /><line y2="70.00" id="16286" y1="150.00" style="stroke:blue;fill:blue;" x1="480.00" x2="500.00" /><line y2="30.00" id="16287" y1="150.00" style="stroke:blue;fill:blue;" x1="480.00" x2="430.00" /><line y2="70.00" id="16288" y1="150.00" style="stroke:blue;fill:blue;" x1="480.00" x2="350.00" /><line y2="150.00" id="16289" y1="150.00" style="stroke:blue;fill:blue;" x1="480.00" x2="380.00" /><line y2="520.00" id="16290" y1="540.00" style="stroke:blue;fill:blue;" x1="490.00" x2="550.00" /><line y2="490.00" id="16291" y1="450.00" style="stroke:blue;fill:blue;" x1="500.00" x2="450.00" /><line y2="450.00" id="16292" y1="450.00" style="stroke:blue;fill:blue;" x1="500.00" x2="600.00" /><line y2="30.00" id="16293" y1="70.00" style="stroke:blue;fill:blue;" x1="500.00" x2="430.00" /><line y2="150.00" id="16294" y1="70.00" style="stroke:blue;fill:blue;" x1="500.00" x2="480.00" /><line y2="70.00" id="16295" y1="70.00" style="stroke:blue;fill:blue;" x1="500.00" x2="350.00" /><line y2="150.00" id="16296" y1="70.00" style="stroke:blue;fill:blue;" x1="500.00" x2="380.00" /><line y2="70.00" id="16297" y1="70.00" style="stroke:blue;fill:blue;" x1="500.00" x2="580.00" /><line y2="770.00" id="16298" y1="770.00" style="stroke:blue;fill:blue;" x1="510.00" x2="450.00" /><line y2="770.00" id="16299" y1="770.00" style="stroke:blue;fill:blue;" x1="510.00" x2="580.00" /><line y2="320.00" id="16300" y1="320.00" style="stroke:blue;fill:blue;" x1="550.00" x2="730.00" /><line y2="330.76" id="16301" y1="320.00" style="stroke:blue;fill:blue;" x1="550.00" x2="430.58" /><line y2="370.00" id="16302" y1="320.00" style="stroke:blue;fill:blue;" x1="550.00" x2="550.00" /><line y2="320.00" id="16303" y1="370.00" style="stroke:blue;fill:blue;" x1="550.00" x2="550.00" /><line y2="580.00" id="16304" y1="520.00" style="stroke:blue;fill:blue;" x1="550.00" x2="560.00" /><line y2="500.00" id="16305" y1="520.00" style="stroke:blue;fill:blue;" x1="550.00" x2="600.00" /><line y2="540.00" id="16306" y1="520.00" style="stroke:blue;fill:blue;" x1="550.00" x2="490.00" /><line y2="770.00" id="16307" y1="770.00" style="stroke:blue;fill:blue;" x1="580.00" x2="510.00" /><line y2="770.00" id="16308" y1="770.00" style="stroke:blue;fill:blue;" x1="580.00" x2="640.00" /><line y2="490.00" id="16309" y1="500.00" style="stroke:blue;fill:blue;" x1="600.00" x2="450.00" /><line y2="520.00" id="16310" y1="500.00" style="stroke:blue;fill:blue;" x1="600.00" x2="650.00" /><line y2="470.00" id="16311" y1="500.00" style="stroke:blue;fill:blue;" x1="600.00" x2="650.00" /><line y2="520.00" id="16312" y1="500.00" style="stroke:blue;fill:blue;" x1="600.00" x2="550.00" /><line y2="450.00" id="16313" y1="450.00" style="stroke:blue;fill:blue;" x1="600.00" x2="500.00" /><line y2="470.00" id="16314" y1="450.00" style="stroke:blue;fill:blue;" x1="600.00" x2="650.00" /><line y2="770.00" id="16315" y1="770.00" style="stroke:blue;fill:blue;" x1="640.00" x2="580.00" /><line y2="770.00" id="16316" y1="770.00" style="stroke:blue;fill:blue;" x1="640.00" x2="700.00" /><line y2="100.00" id="16317" y1="50.00" style="stroke:blue;fill:blue;" x1="650.00" x2="650.00" /><line y2="50.00" id="16318" y1="100.00" style="stroke:blue;fill:blue;" x1="650.00" x2="650.00" /><line y2="70.00" id="16319" y1="100.00" style="stroke:blue;fill:blue;" x1="650.00" x2="730.00" /><line y2="70.00" id="16320" y1="100.00" style="stroke:blue;fill:blue;" x1="650.00" x2="580.00" /><line y2="630.00" id="16321" y1="520.00" style="stroke:blue;fill:blue;" x1="650.00" x2="580.00" /><line y2="570.00" id="16322" y1="520.00" style="stroke:blue;fill:blue;" x1="650.00" x2="700.00" /><line y2="500.00" id="16323" y1="520.00" style="stroke:blue;fill:blue;" x1="650.00" x2="600.00" /><line y2="470.00" id="16324" y1="520.00" style="stroke:blue;fill:blue;" x1="650.00" x2="650.00" /><line y2="520.00" id="16325" y1="470.00" style="stroke:blue;fill:blue;" x1="650.00" x2="650.00" /><line y2="500.00" id="16326" y1="470.00" style="stroke:blue;fill:blue;" x1="650.00" x2="600.00" /><line y2="450.00" id="16327" y1="470.00" style="stroke:blue;fill:blue;" x1="650.00" x2="600.00" /><line y2="70.00" id="16328" y1="120.00" style="stroke:blue;fill:blue;" x1="700.00" x2="730.00" /><line y2="120.00" id="16329" y1="120.00" style="stroke:blue;fill:blue;" x1="700.00" x2="780.00" /><line y2="770.00" id="16330" y1="770.00" style="stroke:blue;fill:blue;" x1="700.00" x2="640.00" /><line y2="610.00" id="16331" y1="570.00" style="stroke:blue;fill:blue;" x1="700.00" x2="780.00" /><line y2="520.00" id="16332" y1="570.00" style="stroke:blue;fill:blue;" x1="700.00" x2="650.00" /><line y2="400.00" id="16333" y1="320.00" style="stroke:blue;fill:blue;" x1="730.00" x2="700.00" /><line y2="320.00" id="16334" y1="320.00" style="stroke:blue;fill:blue;" x1="730.00" x2="800.00" /><line y2="270.00" id="16335" y1="320.00" style="stroke:blue;fill:blue;" x1="730.00" x2="800.00" /><line y2="320.00" id="16336" y1="320.00" style="stroke:blue;fill:blue;" x1="730.00" x2="550.00" /><line y2="100.00" id="16337" y1="70.00" style="stroke:blue;fill:blue;" x1="730.00" x2="650.00" /><line y2="70.00" id="16338" y1="70.00" style="stroke:blue;fill:blue;" x1="730.00" x2="800.00" /><line y2="120.00" id="16339" y1="70.00" style="stroke:blue;fill:blue;" x1="730.00" x2="700.00" /><line y2="120.00" id="16340" y1="70.00" style="stroke:blue;fill:blue;" x1="730.00" x2="780.00" /><line y2="70.00" id="16341" y1="120.00" style="stroke:blue;fill:blue;" x1="780.00" x2="730.00" /><line y2="120.00" id="16342" y1="120.00" style="stroke:blue;fill:blue;" x1="780.00" x2="700.00" /><line y2="320.00" id="16343" y1="270.00" style="stroke:blue;fill:blue;" x1="800.00" x2="800.00" /><line y2="320.00" id="16344" y1="270.00" style="stroke:blue;fill:blue;" x1="800.00" x2="730.00" /><line y2="270.00" id="16345" y1="270.00" style="stroke:blue;fill:blue;" x1="800.00" x2="850.00" /><line y2="220.00" id="16346" y1="270.00" style="stroke:blue;fill:blue;" x1="800.00" x2="800.00" /><line y2="400.00" id="16347" y1="320.00" style="stroke:blue;fill:blue;" x1="800.00" x2="850.00" /><line y2="320.00" id="16348" y1="320.00" style="stroke:blue;fill:blue;" x1="800.00" x2="730.00" /><line y2="320.00" id="16349" y1="320.00" style="stroke:blue;fill:blue;" x1="800.00" x2="880.00" /><line y2="270.00" id="16350" y1="320.00" style="stroke:blue;fill:blue;" x1="800.00" x2="800.00" /><line y2="70.00" id="16351" y1="70.00" style="stroke:blue;fill:blue;" x1="800.00" x2="730.00" /><line y2="120.00" id="16352" y1="70.00" style="stroke:blue;fill:blue;" x1="800.00" x2="850.00" /><line y2="320.00" id="16353" y1="400.00" style="stroke:blue;fill:blue;" x1="850.00" x2="800.00" /><line y2="450.00" id="16354" y1="400.00" style="stroke:blue;fill:blue;" x1="850.00" x2="880.00" /><line y2="70.00" id="16355" y1="120.00" style="stroke:blue;fill:blue;" x1="850.00" x2="800.00" /><line y2="170.00" id="16356" y1="120.00" style="stroke:blue;fill:blue;" x1="850.00" x2="850.00" /><line y2="120.00" id="16357" y1="170.00" style="stroke:blue;fill:blue;" x1="850.00" x2="850.00" /><line y2="220.00" id="16358" y1="170.00" style="stroke:blue;fill:blue;" x1="850.00" x2="850.00" /><line y2="270.00" id="16359" y1="220.00" style="stroke:blue;fill:blue;" x1="850.00" x2="850.00" /><line y2="170.00" id="16360" y1="220.00" style="stroke:blue;fill:blue;" x1="850.00" x2="850.00" /><line y2="220.00" id="16361" y1="220.00" style="stroke:blue;fill:blue;" x1="850.00" x2="800.00" /><line y2="270.00" id="16362" y1="270.00" style="stroke:blue;fill:blue;" x1="850.00" x2="800.00" /><line y2="270.00" id="16363" y1="270.00" style="stroke:blue;fill:blue;" x1="850.00" x2="950.00" /><line y2="220.00" id="16364" y1="270.00" style="stroke:blue;fill:blue;" x1="850.00" x2="850.00" /><line y2="550.00" id="16365" y1="450.00" style="stroke:blue;fill:blue;" x1="880.00" x2="860.00" /><line y2="500.00" id="16366" y1="450.00" style="stroke:blue;fill:blue;" x1="880.00" x2="780.00" /><line y2="480.00" id="16367" y1="450.00" style="stroke:blue;fill:blue;" x1="880.00" x2="990.00" /><line y2="400.00" id="16368" y1="450.00" style="stroke:blue;fill:blue;" x1="880.00" x2="850.00" /><line y2="350.00" id="16369" y1="320.00" style="stroke:blue;fill:blue;" x1="880.00" x2="950.00" /><line y2="320.00" id="16370" y1="320.00" style="stroke:blue;fill:blue;" x1="880.00" x2="800.00" /><line y2="270.00" id="16371" y1="220.00" style="stroke:blue;fill:blue;" x1="950.00" x2="950.00" /><line y2="220.00" id="16372" y1="270.00" style="stroke:blue;fill:blue;" x1="950.00" x2="950.00" /><line y2="270.00" id="16373" y1="270.00" style="stroke:blue;fill:blue;" x1="950.00" x2="850.00" /><line y2="400.00" id="16374" y1="350.00" style="stroke:blue;fill:blue;" x1="950.00" x2="980.00" /><line y2="320.00" id="16375" y1="350.00" style="stroke:blue;fill:blue;" x1="950.00" x2="880.00" /><line y2="189.90" id="16376" y1="170.00" style="stroke:blue;fill:blue;" x1="30.00" x2="106.46" /><line y2="70.00" id="16377" y1="20.00" style="stroke:blue;fill:blue;" x1="50.00" x2="50.00" /><line y2="420.00" id="16378" y1="470.00" style="stroke:blue;fill:blue;" x1="50.00" x2="130.00" /><line y2="520.00" id="16379" y1="470.00" style="stroke:blue;fill:blue;" x1="50.00" x2="50.00" /><line y2="420.00" id="16380" y1="420.00" style="stroke:blue;fill:blue;" x1="130.00" x2="200.00" /><line y2="470.00" id="16381" y1="420.00" style="stroke:blue;fill:blue;" x1="130.00" x2="50.00" /><line y2="520.00" id="16382" y1="490.00" style="stroke:blue;fill:blue;" x1="120.00" x2="50.00" /><line y2="420.00" id="16383" y1="370.00" style="stroke:blue;fill:blue;" x1="180.00" x2="200.00" /><line y2="600.00" id="16384" y1="650.00" style="stroke:blue;fill:blue;" x1="230.00" x2="230.00" /><line y2="50.00" id="16385" y1="50.00" style="stroke:blue;fill:blue;" x1="300.00" x2="250.00" /><line y2="450.00" id="16386" y1="450.00" style="stroke:blue;fill:blue;" x1="350.00" x2="280.00" /><line y2="520.00" id="16387" y1="580.00" style="stroke:blue;fill:blue;" x1="560.00" x2="550.00" /><line y2="570.00" id="16388" y1="630.00" style="stroke:blue;fill:blue;" x1="580.00" x2="450.00" /><line y2="520.00" id="16389" y1="630.00" style="stroke:blue;fill:blue;" x1="580.00" x2="650.00" /><line y2="100.00" id="16390" y1="70.00" style="stroke:blue;fill:blue;" x1="580.00" x2="650.00" /><line y2="70.00" id="16391" y1="70.00" style="stroke:blue;fill:blue;" x1="580.00" x2="500.00" /><line y2="320.00" id="16392" y1="400.00" style="stroke:blue;fill:blue;" x1="700.00" x2="730.00" /><line y2="570.00" id="16393" y1="610.00" style="stroke:blue;fill:blue;" x1="780.00" x2="700.00" /><line y2="450.00" id="16394" y1="500.00" style="stroke:blue;fill:blue;" x1="780.00" x2="880.00" /><line y2="270.00" id="16395" y1="220.00" style="stroke:blue;fill:blue;" x1="800.00" x2="800.00" /><line y2="220.00" id="16396" y1="220.00" style="stroke:blue;fill:blue;" x1="800.00" x2="850.00" /><line y2="450.00" id="16397" y1="550.00" style="stroke:blue;fill:blue;" x1="860.00" x2="880.00" /><line y2="450.00" id="16398" y1="480.00" style="stroke:blue;fill:blue;" x1="990.00" x2="880.00" /><line y2="350.00" id="16399" y1="400.00" style="stroke:blue;fill:blue;" x1="980.00" x2="950.00" /></svg>
