<?xml version="1.0" standalone="yes"?><!DOCTYPE svg PUBLIC "-//W3C//DTD SVG 1.1//EN" "http://www.w3.org/Graphics/SVG/1.1/DTD/svg11.dtd"[]><svg width="1050.00" id="16882" height="800.00" xmlns="http://www.w3.org/2000/svg" xmlns:xlink="http://www.w3.org/1999/xlink"><rect height="5.00" width="5.00" Name="勒达" ID="30003929" y="280.00" id="16883" Region="卡尼迪" Type="system" x="20.00" /><text id="16884" x="20.00" y="280.00">勒达</text><rect height="5.00" width="5.00" Name="库里" ID="30003926" y="350.00" id="16886" Region="卡尼迪" Type="system" x="50.00" /><text id="16887" x="50.00" y="350.00">库里</text><rect height="5.00" width="5.00" Name="代莫罕" ID="30003924" y="400.00" id="16889" Region="卡尼迪" Type="system" x="50.00" /><text id="16890" x="50.00" y="400.00">代莫罕</text><rect height="5.00" width="5.00" Name="卡贝基" ID="30003934" y="497.68" id="16892" Region="卡尼迪" Type="system" x="47.68" /><text id="16893" x="47.68" y="497.68">卡贝基</text><rect height="5.00" width="5.00" Name="拉菲姆" ID="30003941" y="78.09" id="16895" Region="卡尼迪" Type="system" x="79.04" /><text id="16896" x="79.04" y="78.09">拉菲姆</text><rect height="5.00" width="5.00" Name="迪姆但" ID="30003932" y="532.32" id="16898" Region="卡尼迪" Type="system" x="82.32" /><text id="16899" x="82.32" y="532.32">迪姆但</text><rect height="5.00" width="5.00" Name="伊巴尼" ID="30003933" y="600.00" id="16901" Region="卡尼迪" Type="system" x="80.00" /><text id="16902" x="80.00" y="600.00">伊巴尼</text><rect height="5.00" width="5.00" Name="博特" ID="30003940" y="121.91" id="16904" Region="卡尼迪" Type="system" x="100.96" /><text id="16905" x="100.96" y="121.91">博特</text><rect height="5.00" width="5.00" Name="那吉斯" ID="30003936" y="180.00" id="16907" Region="卡尼迪" Type="system" x="100.00" /><text id="16908" x="100.00" y="180.00">那吉斯</text><rect height="5.00" width="5.00" Name="泽法恩" ID="30003928" y="250.00" id="16910" Region="卡尼迪" Type="system" x="100.00" /><text id="16911" x="100.00" y="250.00">泽法恩</text><rect height="5.00" width="5.00" Name="扎赫费尤斯" ID="30003927" y="300.00" id="16913" Region="卡尼迪" Type="system" x="100.00" /><text id="16914" x="100.00" y="300.00">扎赫费尤斯</text><rect height="5.00" width="5.00" Name="齐提雅蒙" ID="30003925" y="350.00" id="16916" Region="卡尼迪" Type="system" x="100.00" /><text id="16917" x="100.00" y="350.00">齐提雅蒙</text><rect height="5.00" width="5.00" Name="南德扎" ID="30003923" y="400.00" id="16919" Region="卡尼迪" Type="system" x="150.00" /><text id="16920" x="150.00" y="400.00">南德扎</text><rect height="5.00" width="5.00" Name="各乌迪亚" ID="30003930" y="497.68" id="16922" Region="卡尼迪" Type="system" x="147.68" /><text id="16923" x="147.68" y="497.68">各乌迪亚</text><rect height="5.00" width="5.00" Name="法纳托尔" ID="30003938" y="100.00" id="16925" Region="卡尼迪" Type="system" x="150.00" /><text id="16926" x="150.00" y="100.00">法纳托尔</text><rect height="5.00" width="5.00" Name="赫泽勒" ID="30003937" y="150.00" id="16928" Region="卡尼迪" Type="system" x="180.00" /><text id="16929" x="180.00" y="150.00">赫泽勒</text><rect height="5.00" width="5.00" Name="基尔瑟姆" ID="30003939" y="200.00" id="16931" Region="卡尼迪" Type="system" x="180.00" /><text id="16932" x="180.00" y="200.00">基尔瑟姆</text><rect height="5.00" width="5.00" Name="萨瑟克" ID="30003931" y="532.32" id="16934" Region="卡尼迪" Type="system" x="182.32" /><text id="16935" x="182.32" y="532.32">萨瑟克</text><rect height="5.00" width="5.00" Name="依尔玛琳" ID="30003935" y="600.00" id="16937" Region="卡尼迪" Type="system" x="180.00" /><text id="16938" x="180.00" y="600.00">依尔玛琳</text><rect height="5.00" width="5.00" Name="巴拉塔尔" ID="30003920" y="450.00" id="16940" Region="卡尼迪" Type="system" x="220.00" /><text id="16941" x="220.00" y="450.00">巴拉塔尔</text><rect height="5.00" width="5.00" Name="西莫尼尔" ID="30003902" y="650.00" id="16943" Region="卡尼迪" Type="system" x="250.00" /><text id="16944" x="250.00" y="650.00">西莫尼尔</text><rect height="5.00" width="5.00" Name="阿茨厄" ID="30003921" y="350.00" id="16946" Region="卡尼迪" Type="system" x="250.00" /><text id="16947" x="250.00" y="350.00">阿茨厄</text><rect height="5.00" width="5.00" Name="埃什库" ID="30003919" y="450.00" id="16949" Region="卡尼迪" Type="system" x="280.00" /><text id="16950" x="280.00" y="450.00">埃什库</text><rect height="5.00" width="5.00" Name="尤普特" ID="30003901" y="520.00" id="16952" Region="卡尼迪" Type="system" x="300.00" /><text id="16953" x="300.00" y="520.00">尤普特</text><rect height="5.00" width="5.00" Name="哈卡纳" ID="30003918" y="400.00" id="16955" Region="卡尼迪" Type="system" x="300.00" /><text id="16956" x="300.00" y="400.00">哈卡纳</text><rect height="5.00" width="5.00" Name="瑟什拉" ID="30003898" y="620.00" id="16958" Region="卡尼迪" Type="system" x="320.00" /><text id="16959" x="320.00" y="620.00">瑟什拉</text><rect height="5.00" width="5.00" Name="阿玛菲" ID="30003917" y="450.00" id="16961" Region="卡尼迪" Type="system" x="350.00" /><text id="16962" x="350.00" y="450.00">阿玛菲</text><rect height="5.00" width="5.00" Name="纳赫米德尔" ID="30003922" y="380.00" id="16964" Region="卡尼迪" Type="system" x="350.00" /><text id="16965" x="350.00" y="380.00">纳赫米德尔</text><rect height="5.00" width="5.00" Name="哈姆" ID="30003900" y="500.00" id="16967" Region="卡尼迪" Type="system" x="350.00" /><text id="16968" x="350.00" y="500.00">哈姆</text><rect height="5.00" width="5.00" Name="维兹拉" ID="30003899" y="550.00" id="16970" Region="卡尼迪" Type="system" x="350.00" /><text id="16971" x="350.00" y="550.00">维兹拉</text><rect height="5.00" width="5.00" Name="盖溪" ID="30003897" y="600.00" id="16973" Region="卡尼迪" Type="system" x="380.00" /><text id="16974" x="380.00" y="600.00">盖溪</text><rect height="5.00" width="5.00" Name="克莱尼" ID="30003896" y="640.00" id="16976" Region="卡尼迪" Type="system" x="410.00" /><text id="16977" x="410.00" y="640.00">克莱尼</text><rect height="5.00" width="5.00" Name="波玛纳" ID="30003913" y="200.00" id="16979" Region="卡尼迪" Type="system" x="450.00" /><text id="16980" x="450.00" y="200.00">波玛纳</text><rect height="5.00" width="5.00" Name="巴什雅姆" ID="30003908" y="420.00" id="16982" Region="卡尼迪" Type="system" x="470.00" /><text id="16983" x="470.00" y="420.00">巴什雅姆</text><rect height="5.00" width="5.00" Name="达尼拉" ID="30003912" y="178.09" id="16985" Region="卡尼迪" Type="system" x="499.04" /><text id="16986" x="499.04" y="178.09">达尼拉</text><rect height="5.00" width="5.00" Name="查尔梅米" ID="30003905" y="400.00" id="16988" Region="卡尼迪" Type="system" x="520.00" /><text id="16989" x="520.00" y="400.00">查尔梅米</text><rect height="5.00" width="5.00" Name="帕尔瑟斯" ID="30003909" y="450.00" id="16991" Region="卡尼迪" Type="system" x="520.00" /><text id="16992" x="520.00" y="450.00">帕尔瑟斯</text><rect height="5.00" width="5.00" Name="巴拉那茨" ID="30003910" y="500.00" id="16994" Region="卡尼迪" Type="system" x="520.00" /><text id="16995" x="520.00" y="500.00">巴拉那茨</text><rect height="5.00" width="5.00" Name="奥勒杰特" ID="30003915" y="221.91" id="16997" Region="卡尼迪" Type="system" x="520.96" /><text id="16998" x="520.96" y="221.91">奥勒杰特</text><rect height="5.00" width="5.00" Name="埃什马瑞尔" ID="30003886" y="600.00" id="17000" Region="卡尼迪" Type="system" x="490.00" /><text id="17001" x="490.00" y="600.00">埃什马瑞尔</text><rect height="5.00" width="5.00" Name="凯拉" ID="30003887" y="650.00" id="17003" Region="卡尼迪" Type="system" x="520.00" /><text id="17004" x="520.00" y="650.00">凯拉</text><rect height="5.00" width="5.00" Name="拉哈贝达" ID="30003914" y="150.00" id="17006" Region="卡尼迪" Type="system" x="580.00" /><text id="17007" x="580.00" y="150.00">拉哈贝达</text><rect height="5.00" width="5.00" Name="特格隆" ID="30003907" y="340.00" id="17009" Region="卡尼迪" Type="system" x="580.00" /><text id="17010" x="580.00" y="340.00">特格隆</text><rect height="5.00" width="5.00" Name="科尔" ID="30003904" y="400.00" id="17012" Region="卡尼迪" Type="system" x="580.00" /><text id="17013" x="580.00" y="400.00">科尔</text><rect height="5.00" width="5.00" Name="埃纳卡特" ID="30003903" y="450.00" id="17015" Region="卡尼迪" Type="system" x="580.00" /><text id="17016" x="580.00" y="450.00">埃纳卡特</text><rect height="5.00" width="5.00" Name="阿尔扎尼" ID="30003885" y="550.00" id="17018" Region="卡尼迪" Type="system" x="580.00" /><text id="17019" x="580.00" y="550.00">阿尔扎尼</text><rect height="5.00" width="5.00" Name="利勒拉" ID="30003916" y="250.00" id="17021" Region="卡尼迪" Type="system" x="580.00" /><text id="17022" x="580.00" y="250.00">利勒拉</text><rect height="5.00" width="5.00" Name="俄达尼" ID="30003911" y="200.00" id="17024" Region="卡尼迪" Type="system" x="600.00" /><text id="17025" x="600.00" y="200.00">俄达尼</text><rect height="5.00" width="5.00" Name="埃尔法" ID="30003892" y="680.00" id="17027" Region="卡尼迪" Type="system" x="680.00" /><text id="17028" x="680.00" y="680.00">埃尔法</text><rect height="5.00" width="5.00" Name="诺尔巴" ID="30003884" y="580.00" id="17030" Region="卡尼迪" Type="system" x="620.00" /><text id="17031" x="620.00" y="580.00">诺尔巴</text><rect height="5.00" width="5.00" Name="克博兹" ID="30003883" y="520.00" id="17033" Region="卡尼迪" Type="system" x="650.00" /><text id="17034" x="650.00" y="520.00">克博兹</text><rect height="5.00" width="5.00" Name="费尔巴" ID="30003906" y="450.00" id="17036" Region="卡尼迪" Type="system" x="650.00" /><text id="17037" x="650.00" y="450.00">费尔巴</text><rect height="5.00" width="5.00" Name="蒙尼尤库" ID="30003881" y="120.00" id="17039" Region="卡尼迪" Type="system" x="640.00" /><text id="17040" x="640.00" y="120.00">蒙尼尤库</text><rect height="5.00" width="5.00" Name="撒布斯" ID="30003894" y="660.00" id="17042" Region="卡尼迪" Type="system" x="770.00" /><text id="17043" x="770.00" y="660.00">撒布斯</text><rect height="5.00" width="5.00" Name="摩洛" ID="30003893" y="720.00" id="17045" Region="卡尼迪" Type="system" x="730.00" /><text id="17046" x="730.00" y="720.00">摩洛</text><rect height="5.00" width="5.00" Name="兰瑟茨" ID="30003882" y="500.00" id="17048" Region="卡尼迪" Type="system" x="700.00" /><text id="17049" x="700.00" y="500.00">兰瑟茨</text><rect height="5.00" width="5.00" Name="勒特卡" ID="30003880" y="80.00" id="17051" Region="卡尼迪" Type="system" x="700.00" /><text id="17052" x="700.00" y="80.00">勒特卡</text><rect height="5.00" width="5.00" Name="查什拉" ID="30003891" y="600.00" id="17054" Region="卡尼迪" Type="system" x="760.00" /><text id="17055" x="760.00" y="600.00">查什拉</text><rect height="5.00" width="5.00" Name="阿什伊" ID="30003890" y="660.00" id="17057" Region="卡尼迪" Type="system" x="920.00" /><text id="17058" x="920.00" y="660.00">阿什伊</text><rect height="5.00" width="5.00" Name="艾恩山" ID="30003895" y="720.00" id="17060" Region="卡尼迪" Type="system" x="800.00" /><text id="17061" x="800.00" y="720.00">艾恩山</text><rect height="5.00" width="5.00" Name="各茨提克" ID="30003871" y="200.00" id="17063" Region="卡尼迪" Type="system" x="750.00" /><text id="17064" x="750.00" y="200.00">各茨提克</text><rect height="5.00" width="5.00" Name="奥塞斯" ID="30003870" y="150.00" id="17066" Region="卡尼迪" Type="system" x="750.00" /><text id="17067" x="750.00" y="150.00">奥塞斯</text><rect height="5.00" width="5.00" Name="细莎伊" ID="30003875" y="250.00" id="17069" Region="卡尼迪" Type="system" x="780.00" /><text id="17070" x="780.00" y="250.00">细莎伊</text><rect height="5.00" width="5.00" Name="帕拉斯" ID="30003878" y="50.00" id="17072" Region="卡尼迪" Type="system" x="780.00" /><text id="17073" x="780.00" y="50.00">帕拉斯</text><rect height="5.00" width="5.00" Name="波卡" ID="30003866" y="450.00" id="17075" Region="卡尼迪" Type="system" x="780.00" /><text id="17076" x="780.00" y="450.00">波卡</text><rect height="5.00" width="5.00" Name="塔里达尔" ID="30003889" y="700.00" id="17078" Region="卡尼迪" Type="system" x="850.00" /><text id="17079" x="850.00" y="700.00">塔里达尔</text><rect height="5.00" width="5.00" Name="巴蒂维夫" ID="30003888" y="650.00" id="17081" Region="卡尼迪" Type="system" x="850.00" /><text id="17082" x="850.00" y="650.00">巴蒂维夫</text><rect height="5.00" width="5.00" Name="萨泽勒" ID="30003865" y="560.00" id="17084" Region="卡尼迪" Type="system" x="860.00" /><text id="17085" x="860.00" y="560.00">萨泽勒</text><rect height="5.00" width="5.00" Name="萨夫舍拉" ID="30003879" y="100.00" id="17087" Region="卡尼迪" Type="system" x="790.00" /><text id="17088" x="790.00" y="100.00">萨夫舍拉</text><rect height="5.00" width="5.00" Name="埃基尔" ID="30003862" y="400.00" id="17090" Region="卡尼迪" Type="system" x="820.00" /><text id="17091" x="820.00" y="400.00">埃基尔</text><rect height="5.00" width="5.00" Name="吉达利" ID="30003877" y="30.00" id="17093" Region="卡尼迪" Type="system" x="850.00" /><text id="17094" x="850.00" y="30.00">吉达利</text><rect height="5.00" width="5.00" Name="贾查努" ID="30003864" y="500.00" id="17096" Region="卡尼迪" Type="system" x="870.00" /><text id="17097" x="870.00" y="500.00">贾查努</text><rect height="5.00" width="5.00" Name="耶扎尔" ID="30003872" y="250.00" id="17099" Region="卡尼迪" Type="system" x="880.00" /><text id="17100" x="880.00" y="250.00">耶扎尔</text><rect height="5.00" width="5.00" Name="伊佩佛" ID="30003861" y="378.09" id="17102" Region="卡尼迪" Type="system" x="879.04" /><text id="17103" x="879.04" y="378.09">伊佩佛</text><rect height="5.00" width="5.00" Name="瑟尔萨瑟" ID="30003869" y="120.00" id="17105" Region="卡尼迪" Type="system" x="900.00" /><text id="17106" x="900.00" y="120.00">瑟尔萨瑟</text><rect height="5.00" width="5.00" Name="基塔里德" ID="30003860" y="421.91" id="17108" Region="卡尼迪" Type="system" x="900.96" /><text id="17109" x="900.96" y="421.91">基塔里德</text><rect height="5.00" width="5.00" Name="莫利亚" ID="30003876" y="20.00" id="17111" Region="卡尼迪" Type="system" x="900.00" /><text id="17112" x="900.00" y="20.00">莫利亚</text><rect height="5.00" width="5.00" Name="伊维卡姆" ID="30003867" y="180.00" id="17114" Region="卡尼迪" Type="system" x="890.00" /><text id="17115" x="890.00" y="180.00">伊维卡姆</text><rect height="5.00" width="5.00" Name="卡尼迪首星" ID="30003863" y="480.00" id="17117" Region="卡尼迪" Type="system" x="920.00" /><text id="17118" x="920.00" y="480.00">卡尼迪首星</text><rect height="5.00" width="5.00" Name="卡尔哈" ID="30003873" y="100.00" id="17120" Region="卡尼迪" Type="system" x="950.00" /><text id="17121" x="950.00" y="100.00">卡尔哈</text><rect height="5.00" width="5.00" Name="古索维巴" ID="30003858" y="399.04" id="17123" Region="卡尼迪" Type="system" x="948.09" /><text id="17124" x="948.09" y="399.04">古索维巴</text><rect height="5.00" width="5.00" Name="玛什塔蒙" ID="30003868" y="200.00" id="17126" Region="卡尼迪" Type="system" x="980.00" /><text id="17127" x="980.00" y="200.00">玛什塔蒙</text><rect height="5.00" width="5.00" Name="尼伊" ID="30003859" y="420.96" id="17129" Region="卡尼迪" Type="system" x="991.91" /><text id="17130" x="991.91" y="420.96">尼伊</text><rect height="5.00" width="5.00" Name="赛罗提" ID="30003874" y="150.00" id="17132" Region="卡尼迪" Type="system" x="1000.00" /><text id="17133" x="1000.00" y="150.00">赛罗提</text><rect height="5.00" width="5.00" Name="安特" ID="30004301" y="50.00" id="17135" Region="艾里迪亚" Type="system" x="20.00" /><text id="17136" x="20.00" y="50.00">安特</text><rect height="5.00" width="5.00" Name="埃巴特" ID="30005062" y="300.00" id="17138" Region="柯埃佐" Type="system" x="350.00" /><text id="17139" x="350.00" y="300.00">埃巴特</text><rect height="5.00" width="5.00" Name="A2-V27" ID="30003942" y="730.00" id="17141" Region="逑瑞斯" Type="system" x="440.00" /><text id="17142" x="440.00" y="730.00">A2-V27</text><rect height="5.00" width="5.00" Name="3-FKCZ" ID="30004019" y="690.00" id="17144" Region="逑瑞斯" Type="system" x="610.00" /><text id="17145" x="610.00" y="690.00">3-FKCZ</text><rect height="5.00" width="5.00" Name="库鲁" ID="30005050" y="60.00" id="17147" Region="柯埃佐" Type="system" x="600.00" /><text id="17148" x="600.00" y="60.00">库鲁</text><rect height="5.00" width="5.00" Name="HED-GP" ID="30001161" y="550.00" id="17150" Region="卡彻" Type="system" x="750.00" /><text id="17151" x="750.00" y="550.00">HED-GP</text><rect height="5.00" width="5.00" Name="马萨努" ID="30005041" y="160.00" id="17153" Region="柯埃佐" Type="system" x="840.00" /><text id="17154" x="840.00" y="160.00">马萨努</text><rect height="5.00" width="5.00" Name="纳奎格德" ID="30005043" y="20.00" id="17156" Region="柯埃佐" Type="system" x="980.00" /><text id="17157" x="980.00" y="20.00">纳奎格德</text><rect height="5.00" width="5.00" Name="米迷梅" ID="30001691" y="320.00" id="17159" Region="塔什蒙贡" Type="system" x="1000.00" /><text id="17160" x="1000.00" y="320.00">米迷梅</text><line y2="250.00" id="17162" y1="280.00" style="stroke:blue;fill:blue;" x1="20.00" x2="100.00" /><line y2="350.00" id="17163" y1="350.00" style="stroke:blue;fill:blue;" x1="50.00" x2="100.00" /><line y2="400.00" id="17164" y1="400.00" style="stroke:blue;fill:blue;" x1="50.00" x2="150.00" /><line y2="532.32" id="17165" y1="497.68" style="stroke:blue;fill:blue;" x1="47.68" x2="82.32" /><line y2="121.91" id="17166" y1="78.09" style="stroke:blue;fill:blue;" x1="79.04" x2="100.96" /><line y2="50.00" id="17167" y1="78.09" style="stroke:blue;fill:blue;" x1="79.04" x2="20.00" /><line y2="497.68" id="17168" y1="532.32" style="stroke:blue;fill:blue;" x1="82.32" x2="147.68" /><line y2="532.32" id="17169" y1="532.32" style="stroke:blue;fill:blue;" x1="82.32" x2="182.32" /><line y2="600.00" id="17170" y1="532.32" style="stroke:blue;fill:blue;" x1="82.32" x2="80.00" /><line y2="497.68" id="17171" y1="532.32" style="stroke:blue;fill:blue;" x1="82.32" x2="47.68" /><line y2="532.32" id="17172" y1="600.00" style="stroke:blue;fill:blue;" x1="80.00" x2="82.32" /><line y2="600.00" id="17173" y1="600.00" style="stroke:blue;fill:blue;" x1="80.00" x2="180.00" /><line y2="180.00" id="17174" y1="121.91" style="stroke:blue;fill:blue;" x1="100.96" x2="100.00" /><line y2="100.00" id="17175" y1="121.91" style="stroke:blue;fill:blue;" x1="100.96" x2="150.00" /><line y2="78.09" id="17176" y1="121.91" style="stroke:blue;fill:blue;" x1="100.96" x2="79.04" /><line y2="250.00" id="17177" y1="180.00" style="stroke:blue;fill:blue;" x1="100.00" x2="100.00" /><line y2="150.00" id="17178" y1="180.00" style="stroke:blue;fill:blue;" x1="100.00" x2="180.00" /><line y2="200.00" id="17179" y1="180.00" style="stroke:blue;fill:blue;" x1="100.00" x2="180.00" /><line y2="121.91" id="17180" y1="180.00" style="stroke:blue;fill:blue;" x1="100.00" x2="100.96" /><line y2="300.00" id="17181" y1="250.00" style="stroke:blue;fill:blue;" x1="100.00" x2="100.00" /><line y2="280.00" id="17182" y1="250.00" style="stroke:blue;fill:blue;" x1="100.00" x2="20.00" /><line y2="180.00" id="17183" y1="250.00" style="stroke:blue;fill:blue;" x1="100.00" x2="100.00" /><line y2="350.00" id="17184" y1="300.00" style="stroke:blue;fill:blue;" x1="100.00" x2="100.00" /><line y2="250.00" id="17185" y1="300.00" style="stroke:blue;fill:blue;" x1="100.00" x2="100.00" /><line y2="400.00" id="17186" y1="350.00" style="stroke:blue;fill:blue;" x1="100.00" x2="150.00" /><line y2="350.00" id="17187" y1="350.00" style="stroke:blue;fill:blue;" x1="100.00" x2="50.00" /><line y2="300.00" id="17188" y1="350.00" style="stroke:blue;fill:blue;" x1="100.00" x2="100.00" /><line y2="450.00" id="17189" y1="400.00" style="stroke:blue;fill:blue;" x1="150.00" x2="220.00" /><line y2="400.00" id="17190" y1="400.00" style="stroke:blue;fill:blue;" x1="150.00" x2="50.00" /><line y2="350.00" id="17191" y1="400.00" style="stroke:blue;fill:blue;" x1="150.00" x2="100.00" /><line y2="450.00" id="17192" y1="497.68" style="stroke:blue;fill:blue;" x1="147.68" x2="220.00" /><line y2="532.32" id="17193" y1="497.68" style="stroke:blue;fill:blue;" x1="147.68" x2="182.32" /><line y2="532.32" id="17194" y1="497.68" style="stroke:blue;fill:blue;" x1="147.68" x2="82.32" /><line y2="150.00" id="17195" y1="100.00" style="stroke:blue;fill:blue;" x1="150.00" x2="180.00" /><line y2="121.91" id="17196" y1="100.00" style="stroke:blue;fill:blue;" x1="150.00" x2="100.96" /><line y2="180.00" id="17197" y1="150.00" style="stroke:blue;fill:blue;" x1="180.00" x2="100.00" /><line y2="100.00" id="17198" y1="150.00" style="stroke:blue;fill:blue;" x1="180.00" x2="150.00" /><line y2="180.00" id="17199" y1="200.00" style="stroke:blue;fill:blue;" x1="180.00" x2="100.00" /><line y2="497.68" id="17200" y1="532.32" style="stroke:blue;fill:blue;" x1="182.32" x2="147.68" /><line y2="532.32" id="17201" y1="532.32" style="stroke:blue;fill:blue;" x1="182.32" x2="82.32" /><line y2="600.00" id="17202" y1="532.32" style="stroke:blue;fill:blue;" x1="182.32" x2="180.00" /><line y2="532.32" id="17203" y1="600.00" style="stroke:blue;fill:blue;" x1="180.00" x2="182.32" /><line y2="600.00" id="17204" y1="600.00" style="stroke:blue;fill:blue;" x1="180.00" x2="80.00" /><line y2="450.00" id="17205" y1="450.00" style="stroke:blue;fill:blue;" x1="220.00" x2="280.00" /><line y2="400.00" id="17206" y1="450.00" style="stroke:blue;fill:blue;" x1="220.00" x2="150.00" /><line y2="497.68" id="17207" y1="450.00" style="stroke:blue;fill:blue;" x1="220.00" x2="147.68" /><line y2="620.00" id="17208" y1="650.00" style="stroke:blue;fill:blue;" x1="250.00" x2="320.00" /><line y2="400.00" id="17209" y1="350.00" style="stroke:blue;fill:blue;" x1="250.00" x2="300.00" /><line y2="450.00" id="17210" y1="450.00" style="stroke:blue;fill:blue;" x1="280.00" x2="350.00" /><line y2="450.00" id="17211" y1="450.00" style="stroke:blue;fill:blue;" x1="280.00" x2="220.00" /><line y2="500.00" id="17212" y1="520.00" style="stroke:blue;fill:blue;" x1="300.00" x2="350.00" /><line y2="450.00" id="17213" y1="400.00" style="stroke:blue;fill:blue;" x1="300.00" x2="350.00" /><line y2="350.00" id="17214" y1="400.00" style="stroke:blue;fill:blue;" x1="300.00" x2="250.00" /><line y2="600.00" id="17215" y1="620.00" style="stroke:blue;fill:blue;" x1="320.00" x2="380.00" /><line y2="650.00" id="17216" y1="620.00" style="stroke:blue;fill:blue;" x1="320.00" x2="250.00" /><line y2="500.00" id="17217" y1="450.00" style="stroke:blue;fill:blue;" x1="350.00" x2="350.00" /><line y2="400.00" id="17218" y1="450.00" style="stroke:blue;fill:blue;" x1="350.00" x2="300.00" /><line y2="450.00" id="17219" y1="450.00" style="stroke:blue;fill:blue;" x1="350.00" x2="280.00" /><line y2="380.00" id="17220" y1="450.00" style="stroke:blue;fill:blue;" x1="350.00" x2="350.00" /><line y2="450.00" id="17221" y1="380.00" style="stroke:blue;fill:blue;" x1="350.00" x2="350.00" /><line y2="300.00" id="17222" y1="380.00" style="stroke:blue;fill:blue;" x1="350.00" x2="350.00" /><line y2="550.00" id="17223" y1="500.00" style="stroke:blue;fill:blue;" x1="350.00" x2="350.00" /><line y2="520.00" id="17224" y1="500.00" style="stroke:blue;fill:blue;" x1="350.00" x2="300.00" /><line y2="450.00" id="17225" y1="500.00" style="stroke:blue;fill:blue;" x1="350.00" x2="350.00" /><line y2="600.00" id="17226" y1="550.00" style="stroke:blue;fill:blue;" x1="350.00" x2="380.00" /><line y2="500.00" id="17227" y1="550.00" style="stroke:blue;fill:blue;" x1="350.00" x2="350.00" /><line y2="640.00" id="17228" y1="600.00" style="stroke:blue;fill:blue;" x1="380.00" x2="410.00" /><line y2="620.00" id="17229" y1="600.00" style="stroke:blue;fill:blue;" x1="380.00" x2="320.00" /><line y2="550.00" id="17230" y1="600.00" style="stroke:blue;fill:blue;" x1="380.00" x2="350.00" /><line y2="600.00" id="17231" y1="640.00" style="stroke:blue;fill:blue;" x1="410.00" x2="490.00" /><line y2="600.00" id="17232" y1="640.00" style="stroke:blue;fill:blue;" x1="410.00" x2="380.00" /><line y2="178.09" id="17233" y1="200.00" style="stroke:blue;fill:blue;" x1="450.00" x2="499.04" /><line y2="221.91" id="17234" y1="200.00" style="stroke:blue;fill:blue;" x1="450.00" x2="520.96" /><line y2="400.00" id="17235" y1="420.00" style="stroke:blue;fill:blue;" x1="470.00" x2="520.00" /><line y2="450.00" id="17236" y1="420.00" style="stroke:blue;fill:blue;" x1="470.00" x2="520.00" /><line y2="200.00" id="17237" y1="178.09" style="stroke:blue;fill:blue;" x1="499.04" x2="600.00" /><line y2="200.00" id="17238" y1="178.09" style="stroke:blue;fill:blue;" x1="499.04" x2="450.00" /><line y2="150.00" id="17239" y1="178.09" style="stroke:blue;fill:blue;" x1="499.04" x2="580.00" /><line y2="400.00" id="17240" y1="400.00" style="stroke:blue;fill:blue;" x1="520.00" x2="580.00" /><line y2="420.00" id="17241" y1="400.00" style="stroke:blue;fill:blue;" x1="520.00" x2="470.00" /><line y2="450.00" id="17242" y1="400.00" style="stroke:blue;fill:blue;" x1="520.00" x2="520.00" /><line y2="450.00" id="17243" y1="450.00" style="stroke:blue;fill:blue;" x1="520.00" x2="580.00" /><line y2="400.00" id="17244" y1="450.00" style="stroke:blue;fill:blue;" x1="520.00" x2="520.00" /><line y2="420.00" id="17245" y1="450.00" style="stroke:blue;fill:blue;" x1="520.00" x2="470.00" /><line y2="500.00" id="17246" y1="450.00" style="stroke:blue;fill:blue;" x1="520.00" x2="520.00" /><line y2="450.00" id="17247" y1="500.00" style="stroke:blue;fill:blue;" x1="520.00" x2="520.00" /><line y2="200.00" id="17248" y1="221.91" style="stroke:blue;fill:blue;" x1="520.96" x2="450.00" /><line y2="250.00" id="17249" y1="221.91" style="stroke:blue;fill:blue;" x1="520.96" x2="580.00" /><line y2="550.00" id="17250" y1="600.00" style="stroke:blue;fill:blue;" x1="490.00" x2="580.00" /><line y2="650.00" id="17251" y1="600.00" style="stroke:blue;fill:blue;" x1="490.00" x2="520.00" /><line y2="640.00" id="17252" y1="600.00" style="stroke:blue;fill:blue;" x1="490.00" x2="410.00" /><line y2="600.00" id="17253" y1="650.00" style="stroke:blue;fill:blue;" x1="520.00" x2="490.00" /><line y2="730.00" id="17254" y1="650.00" style="stroke:blue;fill:blue;" x1="520.00" x2="440.00" /><line y2="200.00" id="17255" y1="150.00" style="stroke:blue;fill:blue;" x1="580.00" x2="600.00" /><line y2="178.09" id="17256" y1="150.00" style="stroke:blue;fill:blue;" x1="580.00" x2="499.04" /><line y2="400.00" id="17257" y1="340.00" style="stroke:blue;fill:blue;" x1="580.00" x2="580.00" /><line y2="250.00" id="17258" y1="340.00" style="stroke:blue;fill:blue;" x1="580.00" x2="580.00" /><line y2="450.00" id="17259" y1="400.00" style="stroke:blue;fill:blue;" x1="580.00" x2="580.00" /><line y2="400.00" id="17260" y1="400.00" style="stroke:blue;fill:blue;" x1="580.00" x2="520.00" /><line y2="340.00" id="17261" y1="400.00" style="stroke:blue;fill:blue;" x1="580.00" x2="580.00" /><line y2="550.00" id="17262" y1="450.00" style="stroke:blue;fill:blue;" x1="580.00" x2="580.00" /><line y2="400.00" id="17263" y1="450.00" style="stroke:blue;fill:blue;" x1="580.00" x2="580.00" /><line y2="450.00" id="17264" y1="450.00" style="stroke:blue;fill:blue;" x1="580.00" x2="650.00" /><line y2="450.00" id="17265" y1="450.00" style="stroke:blue;fill:blue;" x1="580.00" x2="520.00" /><line y2="520.00" id="17266" y1="550.00" style="stroke:blue;fill:blue;" x1="580.00" x2="650.00" /><line y2="600.00" id="17267" y1="550.00" style="stroke:blue;fill:blue;" x1="580.00" x2="490.00" /><line y2="450.00" id="17268" y1="550.00" style="stroke:blue;fill:blue;" x1="580.00" x2="580.00" /><line y2="340.00" id="17269" y1="250.00" style="stroke:blue;fill:blue;" x1="580.00" x2="580.00" /><line y2="200.00" id="17270" y1="250.00" style="stroke:blue;fill:blue;" x1="580.00" x2="600.00" /><line y2="221.91" id="17271" y1="250.00" style="stroke:blue;fill:blue;" x1="580.00" x2="520.96" /><line y2="120.00" id="17272" y1="200.00" style="stroke:blue;fill:blue;" x1="600.00" x2="640.00" /><line y2="178.09" id="17273" y1="200.00" style="stroke:blue;fill:blue;" x1="600.00" x2="499.04" /><line y2="150.00" id="17274" y1="200.00" style="stroke:blue;fill:blue;" x1="600.00" x2="580.00" /><line y2="250.00" id="17275" y1="200.00" style="stroke:blue;fill:blue;" x1="600.00" x2="580.00" /><line y2="600.00" id="17276" y1="680.00" style="stroke:blue;fill:blue;" x1="680.00" x2="760.00" /><line y2="720.00" id="17277" y1="680.00" style="stroke:blue;fill:blue;" x1="680.00" x2="730.00" /><line y2="660.00" id="17278" y1="680.00" style="stroke:blue;fill:blue;" x1="680.00" x2="770.00" /><line y2="690.00" id="17279" y1="680.00" style="stroke:blue;fill:blue;" x1="680.00" x2="610.00" /><line y2="520.00" id="17280" y1="580.00" style="stroke:blue;fill:blue;" x1="620.00" x2="650.00" /><line y2="550.00" id="17281" y1="520.00" style="stroke:blue;fill:blue;" x1="650.00" x2="750.00" /><line y2="500.00" id="17282" y1="520.00" style="stroke:blue;fill:blue;" x1="650.00" x2="700.00" /><line y2="580.00" id="17283" y1="520.00" style="stroke:blue;fill:blue;" x1="650.00" x2="620.00" /><line y2="550.00" id="17284" y1="520.00" style="stroke:blue;fill:blue;" x1="650.00" x2="580.00" /><line y2="450.00" id="17285" y1="450.00" style="stroke:blue;fill:blue;" x1="650.00" x2="580.00" /><line y2="80.00" id="17286" y1="120.00" style="stroke:blue;fill:blue;" x1="640.00" x2="700.00" /><line y2="200.00" id="17287" y1="120.00" style="stroke:blue;fill:blue;" x1="640.00" x2="600.00" /><line y2="60.00" id="17288" y1="120.00" style="stroke:blue;fill:blue;" x1="640.00" x2="600.00" /><line y2="600.00" id="17289" y1="660.00" style="stroke:blue;fill:blue;" x1="770.00" x2="760.00" /><line y2="680.00" id="17290" y1="660.00" style="stroke:blue;fill:blue;" x1="770.00" x2="680.00" /><line y2="680.00" id="17291" y1="720.00" style="stroke:blue;fill:blue;" x1="730.00" x2="680.00" /><line y2="720.00" id="17292" y1="720.00" style="stroke:blue;fill:blue;" x1="730.00" x2="800.00" /><line y2="450.00" id="17293" y1="500.00" style="stroke:blue;fill:blue;" x1="700.00" x2="780.00" /><line y2="520.00" id="17294" y1="500.00" style="stroke:blue;fill:blue;" x1="700.00" x2="650.00" /><line y2="50.00" id="17295" y1="80.00" style="stroke:blue;fill:blue;" x1="700.00" x2="780.00" /><line y2="120.00" id="17296" y1="80.00" style="stroke:blue;fill:blue;" x1="700.00" x2="640.00" /><line y2="650.00" id="17297" y1="600.00" style="stroke:blue;fill:blue;" x1="760.00" x2="850.00" /><line y2="680.00" id="17298" y1="600.00" style="stroke:blue;fill:blue;" x1="760.00" x2="680.00" /><line y2="660.00" id="17299" y1="600.00" style="stroke:blue;fill:blue;" x1="760.00" x2="770.00" /><line y2="650.00" id="17300" y1="660.00" style="stroke:blue;fill:blue;" x1="920.00" x2="850.00" /><line y2="700.00" id="17301" y1="720.00" style="stroke:blue;fill:blue;" x1="800.00" x2="850.00" /><line y2="720.00" id="17302" y1="720.00" style="stroke:blue;fill:blue;" x1="800.00" x2="730.00" /><line y2="150.00" id="17303" y1="200.00" style="stroke:blue;fill:blue;" x1="750.00" x2="750.00" /><line y2="250.00" id="17304" y1="200.00" style="stroke:blue;fill:blue;" x1="750.00" x2="780.00" /><line y2="120.00" id="17305" y1="150.00" style="stroke:blue;fill:blue;" x1="750.00" x2="900.00" /><line y2="200.00" id="17306" y1="150.00" style="stroke:blue;fill:blue;" x1="750.00" x2="750.00" /><line y2="250.00" id="17307" y1="150.00" style="stroke:blue;fill:blue;" x1="750.00" x2="880.00" /><line y2="400.00" id="17308" y1="250.00" style="stroke:blue;fill:blue;" x1="780.00" x2="820.00" /><line y2="200.00" id="17309" y1="250.00" style="stroke:blue;fill:blue;" x1="780.00" x2="750.00" /><line y2="30.00" id="17310" y1="50.00" style="stroke:blue;fill:blue;" x1="780.00" x2="850.00" /><line y2="100.00" id="17311" y1="50.00" style="stroke:blue;fill:blue;" x1="780.00" x2="790.00" /><line y2="80.00" id="17312" y1="50.00" style="stroke:blue;fill:blue;" x1="780.00" x2="700.00" /><line y2="400.00" id="17313" y1="450.00" style="stroke:blue;fill:blue;" x1="780.00" x2="820.00" /><line y2="500.00" id="17314" y1="450.00" style="stroke:blue;fill:blue;" x1="780.00" x2="700.00" /><line y2="650.00" id="17315" y1="700.00" style="stroke:blue;fill:blue;" x1="850.00" x2="850.00" /><line y2="720.00" id="17316" y1="700.00" style="stroke:blue;fill:blue;" x1="850.00" x2="800.00" /><line y2="560.00" id="17317" y1="650.00" style="stroke:blue;fill:blue;" x1="850.00" x2="860.00" /><line y2="700.00" id="17318" y1="650.00" style="stroke:blue;fill:blue;" x1="850.00" x2="850.00" /><line y2="660.00" id="17319" y1="650.00" style="stroke:blue;fill:blue;" x1="850.00" x2="920.00" /><line y2="600.00" id="17320" y1="650.00" style="stroke:blue;fill:blue;" x1="850.00" x2="760.00" /><line y2="500.00" id="17321" y1="560.00" style="stroke:blue;fill:blue;" x1="860.00" x2="870.00" /><line y2="650.00" id="17322" y1="560.00" style="stroke:blue;fill:blue;" x1="860.00" x2="850.00" /><line y2="50.00" id="17323" y1="100.00" style="stroke:blue;fill:blue;" x1="790.00" x2="780.00" /><line y2="378.09" id="17324" y1="400.00" style="stroke:blue;fill:blue;" x1="820.00" x2="879.04" /><line y2="450.00" id="17325" y1="400.00" style="stroke:blue;fill:blue;" x1="820.00" x2="780.00" /><line y2="250.00" id="17326" y1="400.00" style="stroke:blue;fill:blue;" x1="820.00" x2="780.00" /><line y2="20.00" id="17327" y1="30.00" style="stroke:blue;fill:blue;" x1="850.00" x2="900.00" /><line y2="50.00" id="17328" y1="30.00" style="stroke:blue;fill:blue;" x1="850.00" x2="780.00" /><line y2="421.91" id="17329" y1="500.00" style="stroke:blue;fill:blue;" x1="870.00" x2="900.96" /><line y2="560.00" id="17330" y1="500.00" style="stroke:blue;fill:blue;" x1="870.00" x2="860.00" /><line y2="180.00" id="17331" y1="250.00" style="stroke:blue;fill:blue;" x1="880.00" x2="890.00" /><line y2="200.00" id="17332" y1="250.00" style="stroke:blue;fill:blue;" x1="880.00" x2="980.00" /><line y2="150.00" id="17333" y1="250.00" style="stroke:blue;fill:blue;" x1="880.00" x2="750.00" /><line y2="421.91" id="17334" y1="378.09" style="stroke:blue;fill:blue;" x1="879.04" x2="900.96" /><line y2="400.00" id="17335" y1="378.09" style="stroke:blue;fill:blue;" x1="879.04" x2="820.00" /><line y2="180.00" id="17336" y1="120.00" style="stroke:blue;fill:blue;" x1="900.00" x2="890.00" /><line y2="200.00" id="17337" y1="120.00" style="stroke:blue;fill:blue;" x1="900.00" x2="980.00" /><line y2="150.00" id="17338" y1="120.00" style="stroke:blue;fill:blue;" x1="900.00" x2="750.00" /><line y2="100.00" id="17339" y1="120.00" style="stroke:blue;fill:blue;" x1="900.00" x2="950.00" /><line y2="399.04" id="17340" y1="421.91" style="stroke:blue;fill:blue;" x1="900.96" x2="948.09" /><line y2="378.09" id="17341" y1="421.91" style="stroke:blue;fill:blue;" x1="900.96" x2="879.04" /><line y2="480.00" id="17342" y1="421.91" style="stroke:blue;fill:blue;" x1="900.96" x2="920.00" /><line y2="500.00" id="17343" y1="421.91" style="stroke:blue;fill:blue;" x1="900.96" x2="870.00" /><line y2="30.00" id="17344" y1="20.00" style="stroke:blue;fill:blue;" x1="900.00" x2="850.00" /><line y2="20.00" id="17345" y1="20.00" style="stroke:blue;fill:blue;" x1="900.00" x2="980.00" /><line y2="200.00" id="17346" y1="180.00" style="stroke:blue;fill:blue;" x1="890.00" x2="980.00" /><line y2="120.00" id="17347" y1="180.00" style="stroke:blue;fill:blue;" x1="890.00" x2="900.00" /><line y2="250.00" id="17348" y1="180.00" style="stroke:blue;fill:blue;" x1="890.00" x2="880.00" /><line y2="160.00" id="17349" y1="180.00" style="stroke:blue;fill:blue;" x1="890.00" x2="840.00" /><line y2="421.91" id="17350" y1="480.00" style="stroke:blue;fill:blue;" x1="920.00" x2="900.96" /><line y2="120.00" id="17351" y1="100.00" style="stroke:blue;fill:blue;" x1="950.00" x2="900.00" /><line y2="150.00" id="17352" y1="100.00" style="stroke:blue;fill:blue;" x1="950.00" x2="1000.00" /><line y2="320.00" id="17353" y1="399.04" style="stroke:blue;fill:blue;" x1="948.09" x2="1000.00" /><line y2="420.96" id="17354" y1="399.04" style="stroke:blue;fill:blue;" x1="948.09" x2="991.91" /><line y2="421.91" id="17355" y1="399.04" style="stroke:blue;fill:blue;" x1="948.09" x2="900.96" /><line y2="180.00" id="17356" y1="200.00" style="stroke:blue;fill:blue;" x1="980.00" x2="890.00" /><line y2="120.00" id="17357" y1="200.00" style="stroke:blue;fill:blue;" x1="980.00" x2="900.00" /><line y2="250.00" id="17358" y1="200.00" style="stroke:blue;fill:blue;" x1="980.00" x2="880.00" /><line y2="150.00" id="17359" y1="200.00" style="stroke:blue;fill:blue;" x1="980.00" x2="1000.00" /><line y2="399.04" id="17360" y1="420.96" style="stroke:blue;fill:blue;" x1="991.91" x2="948.09" /><line y2="200.00" id="17361" y1="150.00" style="stroke:blue;fill:blue;" x1="1000.00" x2="980.00" /><line y2="100.00" id="17362" y1="150.00" style="stroke:blue;fill:blue;" x1="1000.00" x2="950.00" /><line y2="78.09" id="17363" y1="50.00" style="stroke:blue;fill:blue;" x1="20.00" x2="79.04" /><line y2="380.00" id="17364" y1="300.00" style="stroke:blue;fill:blue;" x1="350.00" x2="350.00" /><line y2="650.00" id="17365" y1="730.00" style="stroke:blue;fill:blue;" x1="440.00" x2="520.00" /><line y2="680.00" id="17366" y1="690.00" style="stroke:blue;fill:blue;" x1="610.00" x2="680.00" /><line y2="120.00" id="17367" y1="60.00" style="stroke:blue;fill:blue;" x1="600.00" x2="640.00" /><line y2="520.00" id="17368" y1="550.00" style="stroke:blue;fill:blue;" x1="750.00" x2="650.00" /><line y2="180.00" id="17369" y1="160.00" style="stroke:blue;fill:blue;" x1="840.00" x2="890.00" /><line y2="20.00" id="17370" y1="20.00" style="stroke:blue;fill:blue;" x1="980.00" x2="900.00" /><line y2="399.04" id="17371" y1="320.00" style="stroke:blue;fill:blue;" x1="1000.00" x2="948.09" /></svg>
