<?xml version="1.0" standalone="yes"?><!DOCTYPE svg PUBLIC "-//W3C//DTD SVG 1.1//EN" "http://www.w3.org/Graphics/SVG/1.1/DTD/svg11.dtd"[]><svg width="1050.00" id="9677" height="800.00" xmlns="http://www.w3.org/2000/svg" xmlns:xlink="http://www.w3.org/1999/xlink"><rect height="5.00" width="5.00" Name="安加塔列" ID="30003062" y="550.00" id="9678" Region="埃维希尔" Type="system" x="50.00" /><text id="9679" x="50.00" y="550.00">安加塔列</text><rect height="5.00" width="5.00" Name="爱多陶克斯" ID="30003055" y="100.00" id="9681" Region="埃维希尔" Type="system" x="50.00" /><text id="9682" x="50.00" y="100.00">爱多陶克斯</text><rect height="5.00" width="5.00" Name="马纳尔" ID="30003060" y="600.00" id="9684" Region="埃维希尔" Type="system" x="100.00" /><text id="9685" x="100.00" y="600.00">马纳尔</text><rect height="5.00" width="5.00" Name="毛尔梅罗特" ID="30003061" y="550.00" id="9687" Region="埃维希尔" Type="system" x="100.00" /><text id="9688" x="100.00" y="550.00">毛尔梅罗特</text><rect height="5.00" width="5.00" Name="埃德尔" ID="30003059" y="650.00" id="9690" Region="埃维希尔" Type="system" x="100.00" /><text id="9691" x="100.00" y="650.00">埃德尔</text><rect height="5.00" width="5.00" Name="爵尔勒瑟" ID="30003013" y="350.00" id="9693" Region="埃维希尔" Type="system" x="120.00" /><text id="9694" x="120.00" y="350.00">爵尔勒瑟</text><rect height="5.00" width="5.00" Name="托尔勒" ID="30003052" y="100.00" id="9696" Region="埃维希尔" Type="system" x="120.00" /><text id="9697" x="120.00" y="100.00">托尔勒</text><rect height="5.00" width="5.00" Name="欧里德" ID="30003058" y="620.00" id="9699" Region="埃维希尔" Type="system" x="150.00" /><text id="9700" x="150.00" y="620.00">欧里德</text><rect height="5.00" width="5.00" Name="艾瑟" ID="30003015" y="300.00" id="9702" Region="埃维希尔" Type="system" x="180.00" /><text id="9703" x="180.00" y="300.00">艾瑟</text><rect height="5.00" width="5.00" Name="爱马特恩" ID="30003012" y="420.00" id="9705" Region="埃维希尔" Type="system" x="200.00" /><text id="9706" x="200.00" y="420.00">爱马特恩</text><rect height="5.00" width="5.00" Name="卡利庸汀" ID="30003048" y="100.00" id="9708" Region="埃维希尔" Type="system" x="200.00" /><text id="9709" x="200.00" y="100.00">卡利庸汀</text><rect height="5.00" width="5.00" Name="彻拉金斯" ID="30003054" y="180.00" id="9711" Region="埃维希尔" Type="system" x="200.00" /><text id="9712" x="200.00" y="180.00">彻拉金斯</text><rect height="5.00" width="5.00" Name="格鲁提西斯" ID="30003057" y="650.00" id="9714" Region="埃维希尔" Type="system" x="220.00" /><text id="9715" x="220.00" y="650.00">格鲁提西斯</text><rect height="5.00" width="5.00" Name="郡索尔特" ID="30003016" y="350.00" id="9717" Region="埃维希尔" Type="system" x="220.00" /><text id="9718" x="220.00" y="350.00">郡索尔特</text><rect height="5.00" width="5.00" Name="姆尔" ID="30003056" y="50.00" id="9720" Region="埃维希尔" Type="system" x="280.00" /><text id="9721" x="280.00" y="50.00">姆尔</text><rect height="5.00" width="5.00" Name="奥迪科希尔" ID="30003050" y="100.00" id="9723" Region="埃维希尔" Type="system" x="300.00" /><text id="9724" x="300.00" y="100.00">奥迪科希尔</text><rect height="5.00" width="5.00" Name="亚维伦" ID="30003047" y="175.50" id="9726" Region="埃维希尔" Type="system" x="300.00" /><text id="9727" x="300.00" y="175.50">亚维伦</text><rect height="5.00" width="5.00" Name="爱马特利" ID="30003009" y="300.00" id="9729" Region="埃维希尔" Type="system" x="300.00" /><text id="9730" x="300.00" y="300.00">爱马特利</text><rect height="5.00" width="5.00" Name="尤费勒" ID="30003043" y="520.00" id="9732" Region="埃维希尔" Type="system" x="300.00" /><text id="9733" x="300.00" y="520.00">尤费勒</text><rect height="5.00" width="5.00" Name="贝勒耶" ID="30003014" y="400.00" id="9735" Region="埃维希尔" Type="system" x="300.00" /><text id="9736" x="300.00" y="400.00">贝勒耶</text><rect height="5.00" width="5.00" Name="厄勒多尔" ID="30003045" y="224.50" id="9738" Region="埃维希尔" Type="system" x="300.00" /><text id="9739" x="300.00" y="224.50">厄勒多尔</text><rect height="5.00" width="5.00" Name="厄尔瑞" ID="30003044" y="621.91" id="9741" Region="埃维希尔" Type="system" x="299.04" /><text id="9742" x="299.04" y="621.91">厄尔瑞</text><rect height="5.00" width="5.00" Name="拜勒" ID="30003040" y="578.09" id="9744" Region="埃维希尔" Type="system" x="320.96" /><text id="9745" x="320.96" y="578.09">拜勒</text><rect height="5.00" width="5.00" Name="莫尔蒙" ID="30003011" y="280.00" id="9747" Region="埃维希尔" Type="system" x="350.00" /><text id="9748" x="350.00" y="280.00">莫尔蒙</text><rect height="5.00" width="5.00" Name="哈尔勒" ID="30003010" y="350.00" id="9750" Region="埃维希尔" Type="system" x="350.00" /><text id="9751" x="350.00" y="350.00">哈尔勒</text><rect height="5.00" width="5.00" Name="莱茨" ID="30003049" y="221.91" id="9753" Region="埃维希尔" Type="system" x="379.04" /><text id="9754" x="379.04" y="221.91">莱茨</text><rect height="5.00" width="5.00" Name="安托拉热" ID="30003051" y="178.09" id="9756" Region="埃维希尔" Type="system" x="400.96" /><text id="9757" x="400.96" y="178.09">安托拉热</text><rect height="5.00" width="5.00" Name="里瑞布洛佩斯" ID="30003039" y="500.00" id="9759" Region="埃维希尔" Type="system" x="420.00" /><text id="9760" x="420.00" y="500.00">里瑞布洛佩斯</text><rect height="5.00" width="5.00" Name="爱拉彻里" ID="30003042" y="550.00" id="9762" Region="埃维希尔" Type="system" x="420.00" /><text id="9763" x="420.00" y="550.00">爱拉彻里</text><rect height="5.00" width="5.00" Name="亚维尔" ID="30003053" y="220.00" id="9765" Region="埃维希尔" Type="system" x="450.00" /><text id="9766" x="450.00" y="220.00">亚维尔</text><rect height="5.00" width="5.00" Name="考茨尔" ID="30003041" y="450.00" id="9768" Region="埃维希尔" Type="system" x="500.00" /><text id="9769" x="500.00" y="450.00">考茨尔</text><rect height="5.00" width="5.00" Name="艾塔尼丝" ID="30003038" y="620.00" id="9771" Region="埃维希尔" Type="system" x="500.00" /><text id="9772" x="500.00" y="620.00">艾塔尼丝</text><rect height="5.00" width="5.00" Name="麦亚" ID="30003022" y="320.00" id="9774" Region="埃维希尔" Type="system" x="550.00" /><text id="9775" x="550.00" y="320.00">麦亚</text><rect height="5.00" width="5.00" Name="基尔佩尔" ID="30003023" y="250.00" id="9777" Region="埃维希尔" Type="system" x="550.00" /><text id="9778" x="550.00" y="250.00">基尔佩尔</text><rect height="5.00" width="5.00" Name="托维" ID="30003020" y="378.09" id="9780" Region="埃维希尔" Type="system" x="579.04" /><text id="9781" x="579.04" y="378.09">托维</text><rect height="5.00" width="5.00" Name="埃泽尔" ID="30003018" y="421.91" id="9783" Region="埃维希尔" Type="system" x="600.96" /><text id="9784" x="600.96" y="421.91">埃泽尔</text><rect height="5.00" width="5.00" Name="漠森" ID="30003021" y="480.00" id="9786" Region="埃维希尔" Type="system" x="620.00" /><text id="9787" x="620.00" y="480.00">漠森</text><rect height="5.00" width="5.00" Name="瓦乌尔特" ID="30003027" y="600.00" id="9789" Region="埃维希尔" Type="system" x="650.00" /><text id="9790" x="650.00" y="600.00">瓦乌尔特</text><rect height="5.00" width="5.00" Name="库伊尔" ID="30003037" y="80.00" id="9792" Region="埃维希尔" Type="system" x="650.00" /><text id="9793" x="650.00" y="80.00">库伊尔</text><rect height="5.00" width="5.00" Name="哈瑞格特" ID="30003017" y="350.00" id="9795" Region="埃维希尔" Type="system" x="650.00" /><text id="9796" x="650.00" y="350.00">哈瑞格特</text><rect height="5.00" width="5.00" Name="彻尔勒" ID="30003019" y="450.00" id="9798" Region="埃维希尔" Type="system" x="680.00" /><text id="9799" x="680.00" y="450.00">彻尔勒</text><rect height="5.00" width="5.00" Name="加舒尔茨" ID="30003029" y="550.00" id="9801" Region="埃维希尔" Type="system" x="700.00" /><text id="9802" x="700.00" y="550.00">加舒尔茨</text><rect height="5.00" width="5.00" Name="马洛希尔" ID="30003024" y="630.00" id="9804" Region="埃维希尔" Type="system" x="730.00" /><text id="9805" x="730.00" y="630.00">马洛希尔</text><rect height="5.00" width="5.00" Name="阿克兰" ID="30003028" y="570.00" id="9807" Region="埃维希尔" Type="system" x="760.00" /><text id="9808" x="760.00" y="570.00">阿克兰</text><rect height="5.00" width="5.00" Name="弗拉洛勒" ID="30003036" y="120.00" id="9810" Region="埃维希尔" Type="system" x="750.00" /><text id="9811" x="750.00" y="120.00">弗拉洛勒</text><rect height="5.00" width="5.00" Name="挨达拉拜尔" ID="30003030" y="676.23" id="9813" Region="埃维希尔" Type="system" x="809.06" /><text id="9814" x="809.06" y="676.23">挨达拉拜尔</text><rect height="5.00" width="5.00" Name="勒萨乌敦" ID="30003025" y="600.00" id="9816" Region="埃维希尔" Type="system" x="800.00" /><text id="9817" x="800.00" y="600.00">勒萨乌敦</text><rect height="5.00" width="5.00" Name="基科德" ID="30003035" y="180.00" id="9819" Region="埃维希尔" Type="system" x="800.00" /><text id="9820" x="800.00" y="180.00">基科德</text><rect height="5.00" width="5.00" Name="伊特尔尼迪" ID="30003033" y="250.00" id="9822" Region="埃维希尔" Type="system" x="800.00" /><text id="9823" x="800.00" y="250.00">伊特尔尼迪</text><rect height="5.00" width="5.00" Name="梅温斯" ID="30003032" y="300.00" id="9825" Region="埃维希尔" Type="system" x="850.00" /><text id="9826" x="850.00" y="300.00">梅温斯</text><rect height="5.00" width="5.00" Name="布拉梅斯顿" ID="30003026" y="520.00" id="9828" Region="埃维希尔" Type="system" x="880.00" /><text id="9829" x="880.00" y="520.00">布拉梅斯顿</text><rect height="5.00" width="5.00" Name="玛提瑞" ID="30003034" y="220.00" id="9831" Region="埃维希尔" Type="system" x="900.00" /><text id="9832" x="900.00" y="220.00">玛提瑞</text><rect height="5.00" width="5.00" Name="埃提纳的" ID="30003031" y="280.00" id="9834" Region="埃维希尔" Type="system" x="920.00" /><text id="9835" x="920.00" y="280.00">埃提纳的</text><rect height="5.00" width="5.00" Name="里尔米勒维" ID="30002728" y="500.00" id="9837" Region="金纳泽" Type="system" x="20.00" /><text id="9838" x="20.00" y="500.00">里尔米勒维</text><rect height="5.00" width="5.00" Name="吉尼-法" ID="30005288" y="50.00" id="9840" Region="吉勒西斯" Type="system" x="50.00" /><text id="9841" x="50.00" y="50.00">吉尼-法</text><rect height="5.00" width="5.00" Name="舒拉撒拿" ID="30002654" y="500.00" id="9843" Region="金纳泽" Type="system" x="100.00" /><text id="9844" x="100.00" y="500.00">舒拉撒拿</text><rect height="5.00" width="5.00" Name="马纳克" ID="30005201" y="50.00" id="9846" Region="吉勒西斯" Type="system" x="100.00" /><text id="9847" x="100.00" y="50.00">马纳克</text><rect height="5.00" width="5.00" Name="米尔斯" ID="30004968" y="400.00" id="9849" Region="精华之域" Type="system" x="380.00" /><text id="9850" x="380.00" y="400.00">米尔斯</text><rect height="5.00" width="5.00" Name="布拉佩列" ID="30002699" y="730.00" id="9852" Region="金纳泽" Type="system" x="720.00" /><text id="9853" x="720.00" y="730.00">布拉佩列</text><rect height="5.00" width="5.00" Name="克莱辛" ID="30002708" y="280.00" id="9855" Region="金纳泽" Type="system" x="650.00" /><text id="9856" x="650.00" y="280.00">克莱辛</text><rect height="5.00" width="5.00" Name="杰尔" ID="30002692" y="723.77" id="9858" Region="金纳泽" Type="system" x="820.94" /><text id="9859" x="820.94" y="723.77">杰尔</text><rect height="5.00" width="5.00" Name="普林" ID="30002662" y="500.00" id="9861" Region="金纳泽" Type="system" x="750.00" /><text id="9862" x="750.00" y="500.00">普林</text><rect height="5.00" width="5.00" Name="博因列斯" ID="30002715" y="220.00" id="9864" Region="金纳泽" Type="system" x="750.00" /><text id="9865" x="750.00" y="220.00">博因列斯</text><rect height="5.00" width="5.00" Name="阿尔蒂尼" ID="30002648" y="690.00" id="9867" Region="金纳泽" Type="system" x="910.00" /><text id="9868" x="910.00" y="690.00">阿尔蒂尼</text><rect height="5.00" width="5.00" Name="维拉德" ID="30002655" y="450.00" id="9870" Region="金纳泽" Type="system" x="900.00" /><text id="9871" x="900.00" y="450.00">维拉德</text><rect height="5.00" width="5.00" Name="埃卓蓝德" ID="30002639" y="150.00" id="9873" Region="金纳泽" Type="system" x="920.00" /><text id="9874" x="920.00" y="150.00">埃卓蓝德</text><rect height="5.00" width="5.00" Name="多迪谢" ID="30002659" y="350.00" id="9876" Region="金纳泽" Type="system" x="920.00" /><text id="9877" x="920.00" y="350.00">多迪谢</text><rect height="5.00" width="5.00" Name="多苏维特" ID="30002706" y="200.00" id="9879" Region="金纳泽" Type="system" x="1000.00" /><text id="9880" x="1000.00" y="200.00">多苏维特</text><line y2="500.00" id="9882" y1="550.00" style="stroke:blue;fill:blue;" x1="50.00" x2="20.00" /><line y2="600.00" id="9883" y1="550.00" style="stroke:blue;fill:blue;" x1="50.00" x2="100.00" /><line y2="100.00" id="9884" y1="100.00" style="stroke:blue;fill:blue;" x1="50.00" x2="120.00" /><line y2="50.00" id="9885" y1="100.00" style="stroke:blue;fill:blue;" x1="50.00" x2="50.00" /><line y2="620.00" id="9886" y1="600.00" style="stroke:blue;fill:blue;" x1="100.00" x2="150.00" /><line y2="550.00" id="9887" y1="600.00" style="stroke:blue;fill:blue;" x1="100.00" x2="100.00" /><line y2="550.00" id="9888" y1="600.00" style="stroke:blue;fill:blue;" x1="100.00" x2="50.00" /><line y2="500.00" id="9889" y1="550.00" style="stroke:blue;fill:blue;" x1="100.00" x2="100.00" /><line y2="600.00" id="9890" y1="550.00" style="stroke:blue;fill:blue;" x1="100.00" x2="100.00" /><line y2="620.00" id="9891" y1="650.00" style="stroke:blue;fill:blue;" x1="100.00" x2="150.00" /><line y2="300.00" id="9892" y1="350.00" style="stroke:blue;fill:blue;" x1="120.00" x2="300.00" /><line y2="420.00" id="9893" y1="350.00" style="stroke:blue;fill:blue;" x1="120.00" x2="200.00" /><line y2="400.00" id="9894" y1="350.00" style="stroke:blue;fill:blue;" x1="120.00" x2="300.00" /><line y2="300.00" id="9895" y1="350.00" style="stroke:blue;fill:blue;" x1="120.00" x2="180.00" /><line y2="350.00" id="9896" y1="350.00" style="stroke:blue;fill:blue;" x1="120.00" x2="220.00" /><line y2="100.00" id="9897" y1="100.00" style="stroke:blue;fill:blue;" x1="120.00" x2="200.00" /><line y2="100.00" id="9898" y1="100.00" style="stroke:blue;fill:blue;" x1="120.00" x2="50.00" /><line y2="50.00" id="9899" y1="100.00" style="stroke:blue;fill:blue;" x1="120.00" x2="100.00" /><line y2="650.00" id="9900" y1="620.00" style="stroke:blue;fill:blue;" x1="150.00" x2="220.00" /><line y2="650.00" id="9901" y1="620.00" style="stroke:blue;fill:blue;" x1="150.00" x2="100.00" /><line y2="600.00" id="9902" y1="620.00" style="stroke:blue;fill:blue;" x1="150.00" x2="100.00" /><line y2="420.00" id="9903" y1="300.00" style="stroke:blue;fill:blue;" x1="180.00" x2="200.00" /><line y2="350.00" id="9904" y1="300.00" style="stroke:blue;fill:blue;" x1="180.00" x2="120.00" /><line y2="400.00" id="9905" y1="300.00" style="stroke:blue;fill:blue;" x1="180.00" x2="300.00" /><line y2="224.50" id="9906" y1="300.00" style="stroke:blue;fill:blue;" x1="180.00" x2="300.00" /><line y2="300.00" id="9907" y1="420.00" style="stroke:blue;fill:blue;" x1="200.00" x2="300.00" /><line y2="350.00" id="9908" y1="420.00" style="stroke:blue;fill:blue;" x1="200.00" x2="120.00" /><line y2="400.00" id="9909" y1="420.00" style="stroke:blue;fill:blue;" x1="200.00" x2="300.00" /><line y2="300.00" id="9910" y1="420.00" style="stroke:blue;fill:blue;" x1="200.00" x2="180.00" /><line y2="350.00" id="9911" y1="420.00" style="stroke:blue;fill:blue;" x1="200.00" x2="220.00" /><line y2="520.00" id="9912" y1="420.00" style="stroke:blue;fill:blue;" x1="200.00" x2="300.00" /><line y2="175.50" id="9913" y1="100.00" style="stroke:blue;fill:blue;" x1="200.00" x2="300.00" /><line y2="100.00" id="9914" y1="100.00" style="stroke:blue;fill:blue;" x1="200.00" x2="300.00" /><line y2="100.00" id="9915" y1="100.00" style="stroke:blue;fill:blue;" x1="200.00" x2="120.00" /><line y2="180.00" id="9916" y1="100.00" style="stroke:blue;fill:blue;" x1="200.00" x2="200.00" /><line y2="224.50" id="9917" y1="180.00" style="stroke:blue;fill:blue;" x1="200.00" x2="300.00" /><line y2="175.50" id="9918" y1="180.00" style="stroke:blue;fill:blue;" x1="200.00" x2="300.00" /><line y2="100.00" id="9919" y1="180.00" style="stroke:blue;fill:blue;" x1="200.00" x2="200.00" /><line y2="100.00" id="9920" y1="180.00" style="stroke:blue;fill:blue;" x1="200.00" x2="300.00" /><line y2="50.00" id="9921" y1="180.00" style="stroke:blue;fill:blue;" x1="200.00" x2="280.00" /><line y2="621.91" id="9922" y1="650.00" style="stroke:blue;fill:blue;" x1="220.00" x2="299.04" /><line y2="620.00" id="9923" y1="650.00" style="stroke:blue;fill:blue;" x1="220.00" x2="150.00" /><line y2="300.00" id="9924" y1="350.00" style="stroke:blue;fill:blue;" x1="220.00" x2="300.00" /><line y2="420.00" id="9925" y1="350.00" style="stroke:blue;fill:blue;" x1="220.00" x2="200.00" /><line y2="350.00" id="9926" y1="350.00" style="stroke:blue;fill:blue;" x1="220.00" x2="120.00" /><line y2="100.00" id="9927" y1="50.00" style="stroke:blue;fill:blue;" x1="280.00" x2="300.00" /><line y2="180.00" id="9928" y1="50.00" style="stroke:blue;fill:blue;" x1="280.00" x2="200.00" /><line y2="175.50" id="9929" y1="100.00" style="stroke:blue;fill:blue;" x1="300.00" x2="300.00" /><line y2="100.00" id="9930" y1="100.00" style="stroke:blue;fill:blue;" x1="300.00" x2="200.00" /><line y2="180.00" id="9931" y1="100.00" style="stroke:blue;fill:blue;" x1="300.00" x2="200.00" /><line y2="50.00" id="9932" y1="100.00" style="stroke:blue;fill:blue;" x1="300.00" x2="280.00" /><line y2="224.50" id="9933" y1="175.50" style="stroke:blue;fill:blue;" x1="300.00" x2="300.00" /><line y2="100.00" id="9934" y1="175.50" style="stroke:blue;fill:blue;" x1="300.00" x2="200.00" /><line y2="100.00" id="9935" y1="175.50" style="stroke:blue;fill:blue;" x1="300.00" x2="300.00" /><line y2="180.00" id="9936" y1="175.50" style="stroke:blue;fill:blue;" x1="300.00" x2="200.00" /><line y2="350.00" id="9937" y1="300.00" style="stroke:blue;fill:blue;" x1="300.00" x2="350.00" /><line y2="280.00" id="9938" y1="300.00" style="stroke:blue;fill:blue;" x1="300.00" x2="350.00" /><line y2="420.00" id="9939" y1="300.00" style="stroke:blue;fill:blue;" x1="300.00" x2="200.00" /><line y2="350.00" id="9940" y1="300.00" style="stroke:blue;fill:blue;" x1="300.00" x2="120.00" /><line y2="400.00" id="9941" y1="300.00" style="stroke:blue;fill:blue;" x1="300.00" x2="300.00" /><line y2="350.00" id="9942" y1="300.00" style="stroke:blue;fill:blue;" x1="300.00" x2="220.00" /><line y2="420.00" id="9943" y1="520.00" style="stroke:blue;fill:blue;" x1="300.00" x2="200.00" /><line y2="500.00" id="9944" y1="520.00" style="stroke:blue;fill:blue;" x1="300.00" x2="420.00" /><line y2="578.09" id="9945" y1="520.00" style="stroke:blue;fill:blue;" x1="300.00" x2="320.96" /><line y2="550.00" id="9946" y1="520.00" style="stroke:blue;fill:blue;" x1="300.00" x2="420.00" /><line y2="300.00" id="9947" y1="400.00" style="stroke:blue;fill:blue;" x1="300.00" x2="300.00" /><line y2="350.00" id="9948" y1="400.00" style="stroke:blue;fill:blue;" x1="300.00" x2="350.00" /><line y2="420.00" id="9949" y1="400.00" style="stroke:blue;fill:blue;" x1="300.00" x2="200.00" /><line y2="350.00" id="9950" y1="400.00" style="stroke:blue;fill:blue;" x1="300.00" x2="120.00" /><line y2="300.00" id="9951" y1="400.00" style="stroke:blue;fill:blue;" x1="300.00" x2="180.00" /><line y2="500.00" id="9952" y1="400.00" style="stroke:blue;fill:blue;" x1="300.00" x2="420.00" /><line y2="400.00" id="9953" y1="400.00" style="stroke:blue;fill:blue;" x1="300.00" x2="380.00" /><line y2="300.00" id="9954" y1="224.50" style="stroke:blue;fill:blue;" x1="300.00" x2="180.00" /><line y2="175.50" id="9955" y1="224.50" style="stroke:blue;fill:blue;" x1="300.00" x2="300.00" /><line y2="221.91" id="9956" y1="224.50" style="stroke:blue;fill:blue;" x1="300.00" x2="379.04" /><line y2="178.09" id="9957" y1="224.50" style="stroke:blue;fill:blue;" x1="300.00" x2="400.96" /><line y2="180.00" id="9958" y1="224.50" style="stroke:blue;fill:blue;" x1="300.00" x2="200.00" /><line y2="620.00" id="9959" y1="621.91" style="stroke:blue;fill:blue;" x1="299.04" x2="500.00" /><line y2="578.09" id="9960" y1="621.91" style="stroke:blue;fill:blue;" x1="299.04" x2="320.96" /><line y2="650.00" id="9961" y1="621.91" style="stroke:blue;fill:blue;" x1="299.04" x2="220.00" /><line y2="620.00" id="9962" y1="578.09" style="stroke:blue;fill:blue;" x1="320.96" x2="500.00" /><line y2="500.00" id="9963" y1="578.09" style="stroke:blue;fill:blue;" x1="320.96" x2="420.00" /><line y2="520.00" id="9964" y1="578.09" style="stroke:blue;fill:blue;" x1="320.96" x2="300.00" /><line y2="621.91" id="9965" y1="578.09" style="stroke:blue;fill:blue;" x1="320.96" x2="299.04" /><line y2="300.00" id="9966" y1="280.00" style="stroke:blue;fill:blue;" x1="350.00" x2="300.00" /><line y2="350.00" id="9967" y1="280.00" style="stroke:blue;fill:blue;" x1="350.00" x2="350.00" /><line y2="300.00" id="9968" y1="350.00" style="stroke:blue;fill:blue;" x1="350.00" x2="300.00" /><line y2="280.00" id="9969" y1="350.00" style="stroke:blue;fill:blue;" x1="350.00" x2="350.00" /><line y2="400.00" id="9970" y1="350.00" style="stroke:blue;fill:blue;" x1="350.00" x2="300.00" /><line y2="224.50" id="9971" y1="221.91" style="stroke:blue;fill:blue;" x1="379.04" x2="300.00" /><line y2="178.09" id="9972" y1="221.91" style="stroke:blue;fill:blue;" x1="379.04" x2="400.96" /><line y2="224.50" id="9973" y1="178.09" style="stroke:blue;fill:blue;" x1="400.96" x2="300.00" /><line y2="221.91" id="9974" y1="178.09" style="stroke:blue;fill:blue;" x1="400.96" x2="379.04" /><line y2="220.00" id="9975" y1="178.09" style="stroke:blue;fill:blue;" x1="400.96" x2="450.00" /><line y2="400.00" id="9976" y1="500.00" style="stroke:blue;fill:blue;" x1="420.00" x2="300.00" /><line y2="620.00" id="9977" y1="500.00" style="stroke:blue;fill:blue;" x1="420.00" x2="500.00" /><line y2="578.09" id="9978" y1="500.00" style="stroke:blue;fill:blue;" x1="420.00" x2="320.96" /><line y2="450.00" id="9979" y1="500.00" style="stroke:blue;fill:blue;" x1="420.00" x2="500.00" /><line y2="520.00" id="9980" y1="500.00" style="stroke:blue;fill:blue;" x1="420.00" x2="300.00" /><line y2="220.00" id="9981" y1="500.00" style="stroke:blue;fill:blue;" x1="420.00" x2="450.00" /><line y2="620.00" id="9982" y1="550.00" style="stroke:blue;fill:blue;" x1="420.00" x2="500.00" /><line y2="520.00" id="9983" y1="550.00" style="stroke:blue;fill:blue;" x1="420.00" x2="300.00" /><line y2="500.00" id="9984" y1="220.00" style="stroke:blue;fill:blue;" x1="450.00" x2="420.00" /><line y2="178.09" id="9985" y1="220.00" style="stroke:blue;fill:blue;" x1="450.00" x2="400.96" /><line y2="500.00" id="9986" y1="450.00" style="stroke:blue;fill:blue;" x1="500.00" x2="420.00" /><line y2="421.91" id="9987" y1="620.00" style="stroke:blue;fill:blue;" x1="500.00" x2="600.96" /><line y2="600.00" id="9988" y1="620.00" style="stroke:blue;fill:blue;" x1="500.00" x2="650.00" /><line y2="500.00" id="9989" y1="620.00" style="stroke:blue;fill:blue;" x1="500.00" x2="420.00" /><line y2="578.09" id="9990" y1="620.00" style="stroke:blue;fill:blue;" x1="500.00" x2="320.96" /><line y2="550.00" id="9991" y1="620.00" style="stroke:blue;fill:blue;" x1="500.00" x2="420.00" /><line y2="621.91" id="9992" y1="620.00" style="stroke:blue;fill:blue;" x1="500.00" x2="299.04" /><line y2="378.09" id="9993" y1="320.00" style="stroke:blue;fill:blue;" x1="550.00" x2="579.04" /><line y2="250.00" id="9994" y1="320.00" style="stroke:blue;fill:blue;" x1="550.00" x2="550.00" /><line y2="320.00" id="9995" y1="250.00" style="stroke:blue;fill:blue;" x1="550.00" x2="550.00" /><line y2="421.91" id="9996" y1="378.09" style="stroke:blue;fill:blue;" x1="579.04" x2="600.96" /><line y2="320.00" id="9997" y1="378.09" style="stroke:blue;fill:blue;" x1="579.04" x2="550.00" /><line y2="350.00" id="9998" y1="421.91" style="stroke:blue;fill:blue;" x1="600.96" x2="650.00" /><line y2="450.00" id="9999" y1="421.91" style="stroke:blue;fill:blue;" x1="600.96" x2="680.00" /><line y2="378.09" id="10000" y1="421.91" style="stroke:blue;fill:blue;" x1="600.96" x2="579.04" /><line y2="480.00" id="10001" y1="421.91" style="stroke:blue;fill:blue;" x1="600.96" x2="620.00" /><line y2="620.00" id="10002" y1="421.91" style="stroke:blue;fill:blue;" x1="600.96" x2="500.00" /><line y2="421.91" id="10003" y1="480.00" style="stroke:blue;fill:blue;" x1="620.00" x2="600.96" /><line y2="450.00" id="10004" y1="480.00" style="stroke:blue;fill:blue;" x1="620.00" x2="680.00" /><line y2="600.00" id="10005" y1="480.00" style="stroke:blue;fill:blue;" x1="620.00" x2="650.00" /><line y2="480.00" id="10006" y1="600.00" style="stroke:blue;fill:blue;" x1="650.00" x2="620.00" /><line y2="630.00" id="10007" y1="600.00" style="stroke:blue;fill:blue;" x1="650.00" x2="730.00" /><line y2="550.00" id="10008" y1="600.00" style="stroke:blue;fill:blue;" x1="650.00" x2="700.00" /><line y2="620.00" id="10009" y1="600.00" style="stroke:blue;fill:blue;" x1="650.00" x2="500.00" /><line y2="120.00" id="10010" y1="80.00" style="stroke:blue;fill:blue;" x1="650.00" x2="750.00" /><line y2="280.00" id="10011" y1="350.00" style="stroke:blue;fill:blue;" x1="650.00" x2="650.00" /><line y2="421.91" id="10012" y1="350.00" style="stroke:blue;fill:blue;" x1="650.00" x2="600.96" /><line y2="450.00" id="10013" y1="350.00" style="stroke:blue;fill:blue;" x1="650.00" x2="680.00" /><line y2="250.00" id="10014" y1="350.00" style="stroke:blue;fill:blue;" x1="650.00" x2="800.00" /><line y2="350.00" id="10015" y1="450.00" style="stroke:blue;fill:blue;" x1="680.00" x2="650.00" /><line y2="421.91" id="10016" y1="450.00" style="stroke:blue;fill:blue;" x1="680.00" x2="600.96" /><line y2="480.00" id="10017" y1="450.00" style="stroke:blue;fill:blue;" x1="680.00" x2="620.00" /><line y2="550.00" id="10018" y1="450.00" style="stroke:blue;fill:blue;" x1="680.00" x2="700.00" /><line y2="500.00" id="10019" y1="550.00" style="stroke:blue;fill:blue;" x1="700.00" x2="750.00" /><line y2="450.00" id="10020" y1="550.00" style="stroke:blue;fill:blue;" x1="700.00" x2="680.00" /><line y2="630.00" id="10021" y1="550.00" style="stroke:blue;fill:blue;" x1="700.00" x2="730.00" /><line y2="600.00" id="10022" y1="550.00" style="stroke:blue;fill:blue;" x1="700.00" x2="650.00" /><line y2="570.00" id="10023" y1="550.00" style="stroke:blue;fill:blue;" x1="700.00" x2="760.00" /><line y2="600.00" id="10024" y1="630.00" style="stroke:blue;fill:blue;" x1="730.00" x2="800.00" /><line y2="600.00" id="10025" y1="630.00" style="stroke:blue;fill:blue;" x1="730.00" x2="650.00" /><line y2="550.00" id="10026" y1="630.00" style="stroke:blue;fill:blue;" x1="730.00" x2="700.00" /><line y2="550.00" id="10027" y1="570.00" style="stroke:blue;fill:blue;" x1="760.00" x2="700.00" /><line y2="180.00" id="10028" y1="120.00" style="stroke:blue;fill:blue;" x1="750.00" x2="800.00" /><line y2="80.00" id="10029" y1="120.00" style="stroke:blue;fill:blue;" x1="750.00" x2="650.00" /><line y2="690.00" id="10030" y1="676.23" style="stroke:blue;fill:blue;" x1="809.06" x2="910.00" /><line y2="723.77" id="10031" y1="676.23" style="stroke:blue;fill:blue;" x1="809.06" x2="820.94" /><line y2="730.00" id="10032" y1="676.23" style="stroke:blue;fill:blue;" x1="809.06" x2="720.00" /><line y2="600.00" id="10033" y1="676.23" style="stroke:blue;fill:blue;" x1="809.06" x2="800.00" /><line y2="630.00" id="10034" y1="600.00" style="stroke:blue;fill:blue;" x1="800.00" x2="730.00" /><line y2="520.00" id="10035" y1="600.00" style="stroke:blue;fill:blue;" x1="800.00" x2="880.00" /><line y2="676.23" id="10036" y1="600.00" style="stroke:blue;fill:blue;" x1="800.00" x2="809.06" /><line y2="300.00" id="10037" y1="600.00" style="stroke:blue;fill:blue;" x1="800.00" x2="850.00" /><line y2="250.00" id="10038" y1="180.00" style="stroke:blue;fill:blue;" x1="800.00" x2="800.00" /><line y2="220.00" id="10039" y1="180.00" style="stroke:blue;fill:blue;" x1="800.00" x2="900.00" /><line y2="120.00" id="10040" y1="180.00" style="stroke:blue;fill:blue;" x1="800.00" x2="750.00" /><line y2="220.00" id="10041" y1="250.00" style="stroke:blue;fill:blue;" x1="800.00" x2="750.00" /><line y2="350.00" id="10042" y1="250.00" style="stroke:blue;fill:blue;" x1="800.00" x2="650.00" /><line y2="280.00" id="10043" y1="250.00" style="stroke:blue;fill:blue;" x1="800.00" x2="920.00" /><line y2="300.00" id="10044" y1="250.00" style="stroke:blue;fill:blue;" x1="800.00" x2="850.00" /><line y2="220.00" id="10045" y1="250.00" style="stroke:blue;fill:blue;" x1="800.00" x2="900.00" /><line y2="180.00" id="10046" y1="250.00" style="stroke:blue;fill:blue;" x1="800.00" x2="800.00" /><line y2="350.00" id="10047" y1="300.00" style="stroke:blue;fill:blue;" x1="850.00" x2="920.00" /><line y2="600.00" id="10048" y1="300.00" style="stroke:blue;fill:blue;" x1="850.00" x2="800.00" /><line y2="280.00" id="10049" y1="300.00" style="stroke:blue;fill:blue;" x1="850.00" x2="920.00" /><line y2="250.00" id="10050" y1="300.00" style="stroke:blue;fill:blue;" x1="850.00" x2="800.00" /><line y2="220.00" id="10051" y1="300.00" style="stroke:blue;fill:blue;" x1="850.00" x2="900.00" /><line y2="450.00" id="10052" y1="520.00" style="stroke:blue;fill:blue;" x1="880.00" x2="900.00" /><line y2="600.00" id="10053" y1="520.00" style="stroke:blue;fill:blue;" x1="880.00" x2="800.00" /><line y2="150.00" id="10054" y1="220.00" style="stroke:blue;fill:blue;" x1="900.00" x2="920.00" /><line y2="200.00" id="10055" y1="220.00" style="stroke:blue;fill:blue;" x1="900.00" x2="1000.00" /><line y2="300.00" id="10056" y1="220.00" style="stroke:blue;fill:blue;" x1="900.00" x2="850.00" /><line y2="250.00" id="10057" y1="220.00" style="stroke:blue;fill:blue;" x1="900.00" x2="800.00" /><line y2="180.00" id="10058" y1="220.00" style="stroke:blue;fill:blue;" x1="900.00" x2="800.00" /><line y2="350.00" id="10059" y1="280.00" style="stroke:blue;fill:blue;" x1="920.00" x2="920.00" /><line y2="300.00" id="10060" y1="280.00" style="stroke:blue;fill:blue;" x1="920.00" x2="850.00" /><line y2="250.00" id="10061" y1="280.00" style="stroke:blue;fill:blue;" x1="920.00" x2="800.00" /><line y2="550.00" id="10062" y1="500.00" style="stroke:blue;fill:blue;" x1="20.00" x2="50.00" /><line y2="100.00" id="10063" y1="50.00" style="stroke:blue;fill:blue;" x1="50.00" x2="50.00" /><line y2="550.00" id="10064" y1="500.00" style="stroke:blue;fill:blue;" x1="100.00" x2="100.00" /><line y2="100.00" id="10065" y1="50.00" style="stroke:blue;fill:blue;" x1="100.00" x2="120.00" /><line y2="400.00" id="10066" y1="400.00" style="stroke:blue;fill:blue;" x1="380.00" x2="300.00" /><line y2="676.23" id="10067" y1="730.00" style="stroke:blue;fill:blue;" x1="720.00" x2="809.06" /><line y2="350.00" id="10068" y1="280.00" style="stroke:blue;fill:blue;" x1="650.00" x2="650.00" /><line y2="676.23" id="10069" y1="723.77" style="stroke:blue;fill:blue;" x1="820.94" x2="809.06" /><line y2="550.00" id="10070" y1="500.00" style="stroke:blue;fill:blue;" x1="750.00" x2="700.00" /><line y2="250.00" id="10071" y1="220.00" style="stroke:blue;fill:blue;" x1="750.00" x2="800.00" /><line y2="676.23" id="10072" y1="690.00" style="stroke:blue;fill:blue;" x1="910.00" x2="809.06" /><line y2="350.00" id="10073" y1="450.00" style="stroke:blue;fill:blue;" x1="900.00" x2="920.00" /><line y2="520.00" id="10074" y1="450.00" style="stroke:blue;fill:blue;" x1="900.00" x2="880.00" /><line y2="220.00" id="10075" y1="150.00" style="stroke:blue;fill:blue;" x1="920.00" x2="900.00" /><line y2="450.00" id="10076" y1="350.00" style="stroke:blue;fill:blue;" x1="920.00" x2="900.00" /><line y2="280.00" id="10077" y1="350.00" style="stroke:blue;fill:blue;" x1="920.00" x2="920.00" /><line y2="300.00" id="10078" y1="350.00" style="stroke:blue;fill:blue;" x1="920.00" x2="850.00" /><line y2="220.00" id="10079" y1="200.00" style="stroke:blue;fill:blue;" x1="1000.00" x2="900.00" /></svg>
