<?xml version="1.0" standalone="yes"?><!DOCTYPE svg PUBLIC "-//W3C//DTD SVG 1.1//EN" "http://www.w3.org/Graphics/SVG/1.1/DTD/svg11.dtd"[]><svg width="1050.00" id="26670" height="800.00" xmlns="http://www.w3.org/2000/svg" xmlns:xlink="http://www.w3.org/1999/xlink"><rect height="5.00" width="5.00" Name="法鲁里" ID="30003599" y="280.00" id="26671" Region="孤独之域" Type="system" x="80.00" /><text id="26672" x="80.00" y="280.00">法鲁里</text><rect height="5.00" width="5.00" Name="埃加罗尔斯" ID="30003600" y="350.00" id="26674" Region="孤独之域" Type="system" x="80.00" /><text id="26675" x="80.00" y="350.00">埃加罗尔斯</text><rect height="5.00" width="5.00" Name="赛通勒" ID="30003593" y="520.00" id="26677" Region="孤独之域" Type="system" x="150.00" /><text id="26678" x="150.00" y="520.00">赛通勒</text><rect height="5.00" width="5.00" Name="巴比尔莫特" ID="30003601" y="220.00" id="26680" Region="孤独之域" Type="system" x="150.00" /><text id="26681" x="150.00" y="220.00">巴比尔莫特</text><rect height="5.00" width="5.00" Name="奥贾瑞亚" ID="30003598" y="320.00" id="26683" Region="孤独之域" Type="system" x="150.00" /><text id="26684" x="150.00" y="320.00">奥贾瑞亚</text><rect height="5.00" width="5.00" Name="哈勒" ID="30003597" y="280.00" id="26686" Region="孤独之域" Type="system" x="200.00" /><text id="26687" x="200.00" y="280.00">哈勒</text><rect height="5.00" width="5.00" Name="拉泽尔" ID="30003592" y="450.00" id="26689" Region="孤独之域" Type="system" x="200.00" /><text id="26690" x="200.00" y="450.00">拉泽尔</text><rect height="5.00" width="5.00" Name="奥瑞瑟" ID="30003596" y="350.00" id="26692" Region="孤独之域" Type="system" x="220.00" /><text id="26693" x="220.00" y="350.00">奥瑞瑟</text><rect height="5.00" width="5.00" Name="埃里坦特" ID="30003595" y="220.00" id="26695" Region="孤独之域" Type="system" x="280.00" /><text id="26696" x="280.00" y="220.00">埃里坦特</text><rect height="5.00" width="5.00" Name="希伦尼" ID="30003594" y="280.00" id="26698" Region="孤独之域" Type="system" x="280.00" /><text id="26699" x="280.00" y="280.00">希伦尼</text><rect height="5.00" width="5.00" Name="阿拉撒热" ID="30003590" y="450.00" id="26701" Region="孤独之域" Type="system" x="300.00" /><text id="26702" x="300.00" y="450.00">阿拉撒热</text><rect height="5.00" width="5.00" Name="托斯坦" ID="30003606" y="75.50" id="26704" Region="孤独之域" Type="system" x="320.00" /><text id="26705" x="320.00" y="75.50">托斯坦</text><rect height="5.00" width="5.00" Name="斯塔罗因" ID="30003607" y="124.50" id="26707" Region="孤独之域" Type="system" x="320.00" /><text id="26708" x="320.00" y="124.50">斯塔罗因</text><rect height="5.00" width="5.00" Name="耶维勒特" ID="30003591" y="380.00" id="26710" Region="孤独之域" Type="system" x="350.00" /><text id="26711" x="350.00" y="380.00">耶维勒特</text><rect height="5.00" width="5.00" Name="伊格横农" ID="30003605" y="20.00" id="26713" Region="孤独之域" Type="system" x="350.00" /><text id="26714" x="350.00" y="20.00">伊格横农</text><rect height="5.00" width="5.00" Name="维考迪" ID="30003589" y="500.00" id="26716" Region="孤独之域" Type="system" x="380.00" /><text id="26717" x="380.00" y="500.00">维考迪</text><rect height="5.00" width="5.00" Name="吉尔瑞克" ID="30003586" y="600.00" id="26719" Region="孤独之域" Type="system" x="380.00" /><text id="26720" x="380.00" y="600.00">吉尔瑞克</text><rect height="5.00" width="5.00" Name="波彻林佩" ID="30003604" y="75.50" id="26722" Region="孤独之域" Type="system" x="400.00" /><text id="26723" x="400.00" y="75.50">波彻林佩</text><rect height="5.00" width="5.00" Name="昂卓耶" ID="30003603" y="124.50" id="26725" Region="孤独之域" Type="system" x="400.00" /><text id="26726" x="400.00" y="124.50">昂卓耶</text><rect height="5.00" width="5.00" Name="拉提罗瑟" ID="30003602" y="175.50" id="26728" Region="孤独之域" Type="system" x="400.00" /><text id="26729" x="400.00" y="175.50">拉提罗瑟</text><rect height="5.00" width="5.00" Name="维威农" ID="30003572" y="224.50" id="26731" Region="孤独之域" Type="system" x="400.00" /><text id="26732" x="400.00" y="224.50">维威农</text><rect height="5.00" width="5.00" Name="安克尔" ID="30003571" y="280.00" id="26734" Region="孤独之域" Type="system" x="400.00" /><text id="26735" x="400.00" y="280.00">安克尔</text><rect height="5.00" width="5.00" Name="耶尔瑞勒" ID="30003588" y="520.00" id="26737" Region="孤独之域" Type="system" x="450.00" /><text id="26738" x="450.00" y="520.00">耶尔瑞勒</text><rect height="5.00" width="5.00" Name="欧丁森" ID="30003582" y="580.00" id="26740" Region="孤独之域" Type="system" x="480.00" /><text id="26741" x="480.00" y="580.00">欧丁森</text><rect height="5.00" width="5.00" Name="哈尔列尔" ID="30003587" y="650.00" id="26743" Region="孤独之域" Type="system" x="480.00" /><text id="26744" x="480.00" y="650.00">哈尔列尔</text><rect height="5.00" width="5.00" Name="爱伊提尔" ID="30003585" y="720.00" id="26746" Region="孤独之域" Type="system" x="480.00" /><text id="26747" x="480.00" y="720.00">爱伊提尔</text><rect height="5.00" width="5.00" Name="伊尔罗" ID="30003570" y="280.00" id="26749" Region="孤独之域" Type="system" x="500.00" /><text id="26750" x="500.00" y="280.00">伊尔罗</text><rect height="5.00" width="5.00" Name="缪封" ID="30003568" y="247.68" id="26752" Region="孤独之域" Type="system" x="547.68" /><text id="26753" x="547.68" y="247.68">缪封</text><rect height="5.00" width="5.00" Name="波斯托温" ID="30003581" y="580.00" id="26755" Region="孤独之域" Type="system" x="580.00" /><text id="26756" x="580.00" y="580.00">波斯托温</text><rect height="5.00" width="5.00" Name="萨尔林" ID="30003584" y="680.00" id="26758" Region="孤独之域" Type="system" x="580.00" /><text id="26759" x="580.00" y="680.00">萨尔林</text><rect height="5.00" width="5.00" Name="耶维" ID="30003567" y="282.32" id="26761" Region="孤独之域" Type="system" x="582.32" /><text id="26762" x="582.32" y="282.32">耶维</text><rect height="5.00" width="5.00" Name="奥克坦尼维" ID="30003578" y="500.00" id="26764" Region="孤独之域" Type="system" x="600.00" /><text id="26765" x="600.00" y="500.00">奥克坦尼维</text><rect height="5.00" width="5.00" Name="卡诺梅特" ID="30003565" y="280.00" id="26767" Region="孤独之域" Type="system" x="680.00" /><text id="26768" x="680.00" y="280.00">卡诺梅特</text><rect height="5.00" width="5.00" Name="黎巴勒" ID="30003580" y="600.00" id="26770" Region="孤独之域" Type="system" x="680.00" /><text id="26771" x="680.00" y="600.00">黎巴勒</text><rect height="5.00" width="5.00" Name="埃莫古尔" ID="30003566" y="221.91" id="26773" Region="孤独之域" Type="system" x="699.04" /><text id="26774" x="699.04" y="221.91">埃莫古尔</text><rect height="5.00" width="5.00" Name="麦勒" ID="30003576" y="500.00" id="26776" Region="孤独之域" Type="system" x="700.00" /><text id="26777" x="700.00" y="500.00">麦勒</text><rect height="5.00" width="5.00" Name="罗乌尔" ID="30003575" y="420.00" id="26779" Region="孤独之域" Type="system" x="720.00" /><text id="26780" x="720.00" y="420.00">罗乌尔</text><rect height="5.00" width="5.00" Name="维拉罗克斯" ID="30003583" y="650.00" id="26782" Region="孤独之域" Type="system" x="720.00" /><text id="26783" x="720.00" y="650.00">维拉罗克斯</text><rect height="5.00" width="5.00" Name="卡德兰尼" ID="30003569" y="178.09" id="26785" Region="孤独之域" Type="system" x="720.96" /><text id="26786" x="720.96" y="178.09">卡德兰尼</text><rect height="5.00" width="5.00" Name="莱瑞因" ID="30003579" y="600.00" id="26788" Region="孤独之域" Type="system" x="780.00" /><text id="26789" x="780.00" y="600.00">莱瑞因</text><rect height="5.00" width="5.00" Name="欧尔瑟" ID="30003577" y="480.00" id="26791" Region="孤独之域" Type="system" x="820.00" /><text id="26792" x="820.00" y="480.00">欧尔瑟</text><rect height="5.00" width="5.00" Name="波伊斯汀" ID="30003574" y="420.00" id="26794" Region="孤独之域" Type="system" x="850.00" /><text id="26795" x="850.00" y="420.00">波伊斯汀</text><rect height="5.00" width="5.00" Name="皮特涅尔" ID="30003573" y="350.00" id="26797" Region="孤独之域" Type="system" x="850.00" /><text id="26798" x="850.00" y="350.00">皮特涅尔</text><rect height="5.00" width="5.00" Name="希尔希茨" ID="30004233" y="420.00" id="26800" Region="艾里迪亚" Type="system" x="50.00" /><text id="26801" x="50.00" y="420.00">希尔希茨</text><rect height="5.00" width="5.00" Name="D85-VD" ID="30003345" y="200.00" id="26803" Region="辛迪加" Type="system" x="50.00" /><text id="26804" x="50.00" y="200.00">D85-VD</text><rect height="5.00" width="5.00" Name="Y9G-KS" ID="30003307" y="300.00" id="26806" Region="辛迪加" Type="system" x="800.00" /><text id="26807" x="800.00" y="300.00">Y9G-KS</text><rect height="5.00" width="5.00" Name="克宁科" ID="30003823" y="20.00" id="26809" Region="宁静之域" Type="system" x="280.00" /><text id="26810" x="280.00" y="20.00">克宁科</text><line y2="200.00" id="26812" y1="280.00" style="stroke:blue;fill:blue;" x1="80.00" x2="50.00" /><line y2="320.00" id="26813" y1="280.00" style="stroke:blue;fill:blue;" x1="80.00" x2="150.00" /><line y2="350.00" id="26814" y1="280.00" style="stroke:blue;fill:blue;" x1="80.00" x2="80.00" /><line y2="220.00" id="26815" y1="280.00" style="stroke:blue;fill:blue;" x1="80.00" x2="150.00" /><line y2="280.00" id="26816" y1="350.00" style="stroke:blue;fill:blue;" x1="80.00" x2="80.00" /><line y2="420.00" id="26817" y1="350.00" style="stroke:blue;fill:blue;" x1="80.00" x2="50.00" /><line y2="450.00" id="26818" y1="520.00" style="stroke:blue;fill:blue;" x1="150.00" x2="200.00" /><line y2="280.00" id="26819" y1="220.00" style="stroke:blue;fill:blue;" x1="150.00" x2="200.00" /><line y2="280.00" id="26820" y1="220.00" style="stroke:blue;fill:blue;" x1="150.00" x2="80.00" /><line y2="280.00" id="26821" y1="320.00" style="stroke:blue;fill:blue;" x1="150.00" x2="200.00" /><line y2="280.00" id="26822" y1="320.00" style="stroke:blue;fill:blue;" x1="150.00" x2="80.00" /><line y2="280.00" id="26823" y1="280.00" style="stroke:blue;fill:blue;" x1="200.00" x2="280.00" /><line y2="350.00" id="26824" y1="280.00" style="stroke:blue;fill:blue;" x1="200.00" x2="220.00" /><line y2="320.00" id="26825" y1="280.00" style="stroke:blue;fill:blue;" x1="200.00" x2="150.00" /><line y2="220.00" id="26826" y1="280.00" style="stroke:blue;fill:blue;" x1="200.00" x2="150.00" /><line y2="450.00" id="26827" y1="450.00" style="stroke:blue;fill:blue;" x1="200.00" x2="300.00" /><line y2="520.00" id="26828" y1="450.00" style="stroke:blue;fill:blue;" x1="200.00" x2="150.00" /><line y2="280.00" id="26829" y1="350.00" style="stroke:blue;fill:blue;" x1="220.00" x2="280.00" /><line y2="280.00" id="26830" y1="350.00" style="stroke:blue;fill:blue;" x1="220.00" x2="200.00" /><line y2="280.00" id="26831" y1="220.00" style="stroke:blue;fill:blue;" x1="280.00" x2="280.00" /><line y2="280.00" id="26832" y1="280.00" style="stroke:blue;fill:blue;" x1="280.00" x2="400.00" /><line y2="220.00" id="26833" y1="280.00" style="stroke:blue;fill:blue;" x1="280.00" x2="280.00" /><line y2="350.00" id="26834" y1="280.00" style="stroke:blue;fill:blue;" x1="280.00" x2="220.00" /><line y2="280.00" id="26835" y1="280.00" style="stroke:blue;fill:blue;" x1="280.00" x2="200.00" /><line y2="500.00" id="26836" y1="450.00" style="stroke:blue;fill:blue;" x1="300.00" x2="380.00" /><line y2="380.00" id="26837" y1="450.00" style="stroke:blue;fill:blue;" x1="300.00" x2="350.00" /><line y2="450.00" id="26838" y1="450.00" style="stroke:blue;fill:blue;" x1="300.00" x2="200.00" /><line y2="75.50" id="26839" y1="75.50" style="stroke:blue;fill:blue;" x1="320.00" x2="400.00" /><line y2="20.00" id="26840" y1="75.50" style="stroke:blue;fill:blue;" x1="320.00" x2="350.00" /><line y2="124.50" id="26841" y1="75.50" style="stroke:blue;fill:blue;" x1="320.00" x2="320.00" /><line y2="124.50" id="26842" y1="124.50" style="stroke:blue;fill:blue;" x1="320.00" x2="400.00" /><line y2="75.50" id="26843" y1="124.50" style="stroke:blue;fill:blue;" x1="320.00" x2="320.00" /><line y2="282.32" id="26844" y1="380.00" style="stroke:blue;fill:blue;" x1="350.00" x2="582.32" /><line y2="450.00" id="26845" y1="380.00" style="stroke:blue;fill:blue;" x1="350.00" x2="300.00" /><line y2="75.50" id="26846" y1="20.00" style="stroke:blue;fill:blue;" x1="350.00" x2="400.00" /><line y2="75.50" id="26847" y1="20.00" style="stroke:blue;fill:blue;" x1="350.00" x2="320.00" /><line y2="20.00" id="26848" y1="20.00" style="stroke:blue;fill:blue;" x1="350.00" x2="280.00" /><line y2="520.00" id="26849" y1="500.00" style="stroke:blue;fill:blue;" x1="380.00" x2="450.00" /><line y2="450.00" id="26850" y1="500.00" style="stroke:blue;fill:blue;" x1="380.00" x2="300.00" /><line y2="580.00" id="26851" y1="600.00" style="stroke:blue;fill:blue;" x1="380.00" x2="480.00" /><line y2="124.50" id="26852" y1="75.50" style="stroke:blue;fill:blue;" x1="400.00" x2="400.00" /><line y2="20.00" id="26853" y1="75.50" style="stroke:blue;fill:blue;" x1="400.00" x2="350.00" /><line y2="75.50" id="26854" y1="75.50" style="stroke:blue;fill:blue;" x1="400.00" x2="320.00" /><line y2="175.50" id="26855" y1="124.50" style="stroke:blue;fill:blue;" x1="400.00" x2="400.00" /><line y2="75.50" id="26856" y1="124.50" style="stroke:blue;fill:blue;" x1="400.00" x2="400.00" /><line y2="124.50" id="26857" y1="124.50" style="stroke:blue;fill:blue;" x1="400.00" x2="320.00" /><line y2="224.50" id="26858" y1="175.50" style="stroke:blue;fill:blue;" x1="400.00" x2="400.00" /><line y2="124.50" id="26859" y1="175.50" style="stroke:blue;fill:blue;" x1="400.00" x2="400.00" /><line y2="280.00" id="26860" y1="224.50" style="stroke:blue;fill:blue;" x1="400.00" x2="400.00" /><line y2="175.50" id="26861" y1="224.50" style="stroke:blue;fill:blue;" x1="400.00" x2="400.00" /><line y2="280.00" id="26862" y1="280.00" style="stroke:blue;fill:blue;" x1="400.00" x2="500.00" /><line y2="224.50" id="26863" y1="280.00" style="stroke:blue;fill:blue;" x1="400.00" x2="400.00" /><line y2="280.00" id="26864" y1="280.00" style="stroke:blue;fill:blue;" x1="400.00" x2="280.00" /><line y2="500.00" id="26865" y1="520.00" style="stroke:blue;fill:blue;" x1="450.00" x2="600.00" /><line y2="500.00" id="26866" y1="520.00" style="stroke:blue;fill:blue;" x1="450.00" x2="380.00" /><line y2="580.00" id="26867" y1="580.00" style="stroke:blue;fill:blue;" x1="480.00" x2="580.00" /><line y2="600.00" id="26868" y1="580.00" style="stroke:blue;fill:blue;" x1="480.00" x2="380.00" /><line y2="680.00" id="26869" y1="650.00" style="stroke:blue;fill:blue;" x1="480.00" x2="580.00" /><line y2="720.00" id="26870" y1="650.00" style="stroke:blue;fill:blue;" x1="480.00" x2="480.00" /><line y2="680.00" id="26871" y1="720.00" style="stroke:blue;fill:blue;" x1="480.00" x2="580.00" /><line y2="650.00" id="26872" y1="720.00" style="stroke:blue;fill:blue;" x1="480.00" x2="480.00" /><line y2="282.32" id="26873" y1="280.00" style="stroke:blue;fill:blue;" x1="500.00" x2="582.32" /><line y2="247.68" id="26874" y1="280.00" style="stroke:blue;fill:blue;" x1="500.00" x2="547.68" /><line y2="280.00" id="26875" y1="280.00" style="stroke:blue;fill:blue;" x1="500.00" x2="400.00" /><line y2="282.32" id="26876" y1="247.68" style="stroke:blue;fill:blue;" x1="547.68" x2="582.32" /><line y2="280.00" id="26877" y1="247.68" style="stroke:blue;fill:blue;" x1="547.68" x2="500.00" /><line y2="600.00" id="26878" y1="580.00" style="stroke:blue;fill:blue;" x1="580.00" x2="680.00" /><line y2="580.00" id="26879" y1="580.00" style="stroke:blue;fill:blue;" x1="580.00" x2="480.00" /><line y2="650.00" id="26880" y1="680.00" style="stroke:blue;fill:blue;" x1="580.00" x2="720.00" /><line y2="720.00" id="26881" y1="680.00" style="stroke:blue;fill:blue;" x1="580.00" x2="480.00" /><line y2="650.00" id="26882" y1="680.00" style="stroke:blue;fill:blue;" x1="580.00" x2="480.00" /><line y2="280.00" id="26883" y1="282.32" style="stroke:blue;fill:blue;" x1="582.32" x2="680.00" /><line y2="247.68" id="26884" y1="282.32" style="stroke:blue;fill:blue;" x1="582.32" x2="547.68" /><line y2="280.00" id="26885" y1="282.32" style="stroke:blue;fill:blue;" x1="582.32" x2="500.00" /><line y2="380.00" id="26886" y1="282.32" style="stroke:blue;fill:blue;" x1="582.32" x2="350.00" /><line y2="500.00" id="26887" y1="500.00" style="stroke:blue;fill:blue;" x1="600.00" x2="700.00" /><line y2="520.00" id="26888" y1="500.00" style="stroke:blue;fill:blue;" x1="600.00" x2="450.00" /><line y2="300.00" id="26889" y1="280.00" style="stroke:blue;fill:blue;" x1="680.00" x2="800.00" /><line y2="221.91" id="26890" y1="280.00" style="stroke:blue;fill:blue;" x1="680.00" x2="699.04" /><line y2="282.32" id="26891" y1="280.00" style="stroke:blue;fill:blue;" x1="680.00" x2="582.32" /><line y2="600.00" id="26892" y1="600.00" style="stroke:blue;fill:blue;" x1="680.00" x2="780.00" /><line y2="580.00" id="26893" y1="600.00" style="stroke:blue;fill:blue;" x1="680.00" x2="580.00" /><line y2="280.00" id="26894" y1="221.91" style="stroke:blue;fill:blue;" x1="699.04" x2="680.00" /><line y2="178.09" id="26895" y1="221.91" style="stroke:blue;fill:blue;" x1="699.04" x2="720.96" /><line y2="420.00" id="26896" y1="500.00" style="stroke:blue;fill:blue;" x1="700.00" x2="720.00" /><line y2="480.00" id="26897" y1="500.00" style="stroke:blue;fill:blue;" x1="700.00" x2="820.00" /><line y2="500.00" id="26898" y1="500.00" style="stroke:blue;fill:blue;" x1="700.00" x2="600.00" /><line y2="420.00" id="26899" y1="420.00" style="stroke:blue;fill:blue;" x1="720.00" x2="850.00" /><line y2="500.00" id="26900" y1="420.00" style="stroke:blue;fill:blue;" x1="720.00" x2="700.00" /><line y2="480.00" id="26901" y1="420.00" style="stroke:blue;fill:blue;" x1="720.00" x2="820.00" /><line y2="600.00" id="26902" y1="650.00" style="stroke:blue;fill:blue;" x1="720.00" x2="780.00" /><line y2="680.00" id="26903" y1="650.00" style="stroke:blue;fill:blue;" x1="720.00" x2="580.00" /><line y2="221.91" id="26904" y1="178.09" style="stroke:blue;fill:blue;" x1="720.96" x2="699.04" /><line y2="480.00" id="26905" y1="600.00" style="stroke:blue;fill:blue;" x1="780.00" x2="820.00" /><line y2="600.00" id="26906" y1="600.00" style="stroke:blue;fill:blue;" x1="780.00" x2="680.00" /><line y2="650.00" id="26907" y1="600.00" style="stroke:blue;fill:blue;" x1="780.00" x2="720.00" /><line y2="420.00" id="26908" y1="480.00" style="stroke:blue;fill:blue;" x1="820.00" x2="850.00" /><line y2="420.00" id="26909" y1="480.00" style="stroke:blue;fill:blue;" x1="820.00" x2="720.00" /><line y2="500.00" id="26910" y1="480.00" style="stroke:blue;fill:blue;" x1="820.00" x2="700.00" /><line y2="600.00" id="26911" y1="480.00" style="stroke:blue;fill:blue;" x1="820.00" x2="780.00" /><line y2="350.00" id="26912" y1="420.00" style="stroke:blue;fill:blue;" x1="850.00" x2="850.00" /><line y2="420.00" id="26913" y1="420.00" style="stroke:blue;fill:blue;" x1="850.00" x2="720.00" /><line y2="480.00" id="26914" y1="420.00" style="stroke:blue;fill:blue;" x1="850.00" x2="820.00" /><line y2="300.00" id="26915" y1="350.00" style="stroke:blue;fill:blue;" x1="850.00" x2="800.00" /><line y2="420.00" id="26916" y1="350.00" style="stroke:blue;fill:blue;" x1="850.00" x2="850.00" /><line y2="350.00" id="26917" y1="420.00" style="stroke:blue;fill:blue;" x1="50.00" x2="80.00" /><line y2="280.00" id="26918" y1="200.00" style="stroke:blue;fill:blue;" x1="50.00" x2="80.00" /><line y2="280.00" id="26919" y1="300.00" style="stroke:blue;fill:blue;" x1="800.00" x2="680.00" /><line y2="350.00" id="26920" y1="300.00" style="stroke:blue;fill:blue;" x1="800.00" x2="850.00" /><line y2="20.00" id="26921" y1="20.00" style="stroke:blue;fill:blue;" x1="280.00" x2="350.00" /></svg>
