<?xml version="1.0" standalone="yes"?><!DOCTYPE svg PUBLIC "-//W3C//DTD SVG 1.1//EN" "http://www.w3.org/Graphics/SVG/1.1/DTD/svg11.dtd"[]><svg width="1050.00" id="797" height="800.00" xmlns="http://www.w3.org/2000/svg" xmlns:xlink="http://www.w3.org/1999/xlink"><rect height="5.00" width="5.00" Name="塞杜萨瑞斯" ID="30003090" y="50.00" id="798" Region="幽暗之域" Type="system" x="150.00" /><text id="799" x="150.00" y="50.00">塞杜萨瑞斯</text><rect height="5.00" width="5.00" Name="哈拉斯" ID="30003087" y="150.00" id="801" Region="幽暗之域" Type="system" x="220.00" /><text id="802" x="220.00" y="150.00">哈拉斯</text><rect height="5.00" width="5.00" Name="塞卡蒙" ID="30003079" y="250.00" id="804" Region="幽暗之域" Type="system" x="250.00" /><text id="805" x="250.00" y="250.00">塞卡蒙</text><rect height="5.00" width="5.00" Name="库尔尼埃能" ID="30003089" y="80.00" id="807" Region="幽暗之域" Type="system" x="250.00" /><text id="808" x="250.00" y="80.00">库尔尼埃能</text><rect height="5.00" width="5.00" Name="麦伊赫拉" ID="30003075" y="350.00" id="810" Region="幽暗之域" Type="system" x="280.00" /><text id="811" x="280.00" y="350.00">麦伊赫拉</text><rect height="5.00" width="5.00" Name="萨塔拉马" ID="30003097" y="580.00" id="813" Region="幽暗之域" Type="system" x="180.00" /><text id="814" x="180.00" y="580.00">萨塔拉马</text><rect height="5.00" width="5.00" Name="福尔斯可辛" ID="30003095" y="580.00" id="816" Region="幽暗之域" Type="system" x="250.00" /><text id="817" x="250.00" y="580.00">福尔斯可辛</text><rect height="5.00" width="5.00" Name="欧约纳塔" ID="30003088" y="120.00" id="819" Region="幽暗之域" Type="system" x="300.00" /><text id="820" x="300.00" y="120.00">欧约纳塔</text><rect height="5.00" width="5.00" Name="伊马塔" ID="30003094" y="550.00" id="822" Region="幽暗之域" Type="system" x="320.00" /><text id="823" x="320.00" y="550.00">伊马塔</text><rect height="5.00" width="5.00" Name="萨托加斯" ID="30003086" y="200.00" id="825" Region="幽暗之域" Type="system" x="300.00" /><text id="826" x="300.00" y="200.00">萨托加斯</text><rect height="5.00" width="5.00" Name="勒萨拉卡" ID="30003073" y="300.00" id="828" Region="幽暗之域" Type="system" x="320.00" /><text id="829" x="320.00" y="300.00">勒萨拉卡</text><rect height="5.00" width="5.00" Name="萨塞克" ID="30003074" y="350.00" id="831" Region="幽暗之域" Type="system" x="350.00" /><text id="832" x="350.00" y="350.00">萨塞克</text><rect height="5.00" width="5.00" Name="伊俄萨" ID="30003072" y="250.00" id="834" Region="幽暗之域" Type="system" x="350.00" /><text id="835" x="350.00" y="250.00">伊俄萨</text><rect height="5.00" width="5.00" Name="埃耶罗伊勒" ID="30003093" y="520.00" id="837" Region="幽暗之域" Type="system" x="390.00" /><text id="838" x="390.00" y="520.00">埃耶罗伊勒</text><rect height="5.00" width="5.00" Name="乌萨勒恩" ID="30003077" y="300.00" id="840" Region="幽暗之域" Type="system" x="400.00" /><text id="841" x="400.00" y="300.00">乌萨勒恩</text><rect height="5.00" width="5.00" Name="坦纳坎" ID="30003091" y="200.00" id="843" Region="幽暗之域" Type="system" x="420.00" /><text id="844" x="420.00" y="200.00">坦纳坎</text><rect height="5.00" width="5.00" Name="科马尔" ID="30003092" y="480.00" id="846" Region="幽暗之域" Type="system" x="420.00" /><text id="847" x="420.00" y="480.00">科马尔</text><rect height="5.00" width="5.00" Name="厄尔基尼" ID="30003078" y="400.00" id="849" Region="幽暗之域" Type="system" x="430.00" /><text id="850" x="430.00" y="400.00">厄尔基尼</text><rect height="5.00" width="5.00" Name="安卡" ID="30003071" y="250.00" id="852" Region="幽暗之域" Type="system" x="450.00" /><text id="853" x="450.00" y="250.00">安卡</text><rect height="5.00" width="5.00" Name="索萨拉" ID="30003070" y="350.00" id="855" Region="幽暗之域" Type="system" x="500.00" /><text id="856" x="500.00" y="350.00">索萨拉</text><rect height="5.00" width="5.00" Name="库尔玛鲁" ID="30003096" y="520.00" id="858" Region="幽暗之域" Type="system" x="500.00" /><text id="859" x="500.00" y="520.00">库尔玛鲁</text><rect height="5.00" width="5.00" Name="加姆梅尔" ID="30003076" y="300.00" id="861" Region="幽暗之域" Type="system" x="550.00" /><text id="862" x="550.00" y="300.00">加姆梅尔</text><rect height="5.00" width="5.00" Name="君森" ID="30003083" y="100.00" id="864" Region="幽暗之域" Type="system" x="580.00" /><text id="865" x="580.00" y="100.00">君森</text><rect height="5.00" width="5.00" Name="加尔克楞" ID="30003080" y="150.00" id="867" Region="幽暗之域" Type="system" x="620.00" /><text id="868" x="620.00" y="150.00">加尔克楞</text><rect height="5.00" width="5.00" Name="罗尼" ID="30003081" y="200.00" id="870" Region="幽暗之域" Type="system" x="650.00" /><text id="871" x="650.00" y="200.00">罗尼</text><rect height="5.00" width="5.00" Name="哈托里" ID="30003082" y="150.00" id="873" Region="幽暗之域" Type="system" x="750.00" /><text id="874" x="750.00" y="150.00">哈托里</text><rect height="5.00" width="5.00" Name="哈克坦" ID="30003085" y="220.00" id="876" Region="幽暗之域" Type="system" x="750.00" /><text id="877" x="750.00" y="220.00">哈克坦</text><rect height="5.00" width="5.00" Name="卡美拉" ID="30003069" y="450.00" id="879" Region="幽暗之域" Type="system" x="680.00" /><text id="880" x="680.00" y="450.00">卡美拉</text><rect height="5.00" width="5.00" Name="拉马亚" ID="30003063" y="400.00" id="882" Region="幽暗之域" Type="system" x="750.00" /><text id="883" x="750.00" y="400.00">拉马亚</text><rect height="5.00" width="5.00" Name="图欧姆塔" ID="30003064" y="550.00" id="885" Region="幽暗之域" Type="system" x="700.00" /><text id="886" x="700.00" y="550.00">图欧姆塔</text><rect height="5.00" width="5.00" Name="马尔帕拉" ID="30003084" y="130.00" id="888" Region="幽暗之域" Type="system" x="840.00" /><text id="889" x="840.00" y="130.00">马尔帕拉</text><rect height="5.00" width="5.00" Name="阔尔蒙尼" ID="30003068" y="430.00" id="891" Region="幽暗之域" Type="system" x="830.00" /><text id="892" x="830.00" y="430.00">阔尔蒙尼</text><rect height="5.00" width="5.00" Name="库欧米" ID="30003066" y="600.00" id="894" Region="幽暗之域" Type="system" x="800.00" /><text id="895" x="800.00" y="600.00">库欧米</text><rect height="5.00" width="5.00" Name="霍拉" ID="30003067" y="470.00" id="897" Region="幽暗之域" Type="system" x="910.00" /><text id="898" x="910.00" y="470.00">霍拉</text><rect height="5.00" width="5.00" Name="欧特能" ID="30003065" y="550.00" id="900" Region="幽暗之域" Type="system" x="900.00" /><text id="901" x="900.00" y="550.00">欧特能</text><rect height="5.00" width="5.00" Name="格瑞特西尔" ID="30002653" y="50.00" id="903" Region="金纳泽" Type="system" x="80.00" /><text id="904" x="80.00" y="50.00">格瑞特西尔</text><rect height="5.00" width="5.00" Name="伊斯巴巴塔" ID="30002087" y="20.00" id="906" Region="美特伯里斯" Type="system" x="250.00" /><text id="907" x="250.00" y="20.00">伊斯巴巴塔</text><rect height="5.00" width="5.00" Name="索姗" ID="30002980" y="80.00" id="909" Region="破碎" Type="system" x="350.00" /><text id="910" x="350.00" y="80.00">索姗</text><rect height="5.00" width="5.00" Name="哈提" ID="30002994" y="100.00" id="912" Region="破碎" Type="system" x="650.00" /><text id="913" x="650.00" y="100.00">哈提</text><rect height="5.00" width="5.00" Name="切文卡" ID="30002965" y="380.00" id="915" Region="破碎" Type="system" x="650.00" /><text id="916" x="650.00" y="380.00">切文卡</text><rect height="5.00" width="5.00" Name="欧西德" ID="30002970" y="500.00" id="918" Region="破碎" Type="system" x="620.00" /><text id="919" x="620.00" y="500.00">欧西德</text><rect height="5.00" width="5.00" Name="茨维" ID="30002957" y="320.00" id="921" Region="破碎" Type="system" x="750.00" /><text id="922" x="750.00" y="320.00">茨维</text><rect height="5.00" width="5.00" Name="奥加" ID="30002542" y="350.00" id="924" Region="西玛特尔" Type="system" x="870.00" /><text id="925" x="870.00" y="350.00">奥加</text><rect height="5.00" width="5.00" Name="罗什扎尔" ID="30002975" y="390.00" id="927" Region="破碎" Type="system" x="950.00" /><text id="928" x="950.00" y="390.00">罗什扎尔</text><rect height="5.00" width="5.00" Name="马霍克特" ID="30003520" y="600.00" id="930" Region="多美" Type="system" x="950.00" /><text id="931" x="950.00" y="600.00">马霍克特</text><line y2="50.00" id="933" y1="50.00" style="stroke:blue;fill:blue;" x1="150.00" x2="80.00" /><line y2="80.00" id="934" y1="50.00" style="stroke:blue;fill:blue;" x1="150.00" x2="250.00" /><line y2="200.00" id="935" y1="150.00" style="stroke:blue;fill:blue;" x1="220.00" x2="300.00" /><line y2="350.00" id="936" y1="250.00" style="stroke:blue;fill:blue;" x1="250.00" x2="280.00" /><line y2="200.00" id="937" y1="250.00" style="stroke:blue;fill:blue;" x1="250.00" x2="300.00" /><line y2="20.00" id="938" y1="80.00" style="stroke:blue;fill:blue;" x1="250.00" x2="250.00" /><line y2="120.00" id="939" y1="80.00" style="stroke:blue;fill:blue;" x1="250.00" x2="300.00" /><line y2="50.00" id="940" y1="80.00" style="stroke:blue;fill:blue;" x1="250.00" x2="150.00" /><line y2="300.00" id="941" y1="350.00" style="stroke:blue;fill:blue;" x1="280.00" x2="320.00" /><line y2="350.00" id="942" y1="350.00" style="stroke:blue;fill:blue;" x1="280.00" x2="350.00" /><line y2="250.00" id="943" y1="350.00" style="stroke:blue;fill:blue;" x1="280.00" x2="250.00" /><line y2="580.00" id="944" y1="580.00" style="stroke:blue;fill:blue;" x1="180.00" x2="250.00" /><line y2="550.00" id="945" y1="580.00" style="stroke:blue;fill:blue;" x1="250.00" x2="320.00" /><line y2="580.00" id="946" y1="580.00" style="stroke:blue;fill:blue;" x1="250.00" x2="180.00" /><line y2="80.00" id="947" y1="120.00" style="stroke:blue;fill:blue;" x1="300.00" x2="350.00" /><line y2="200.00" id="948" y1="120.00" style="stroke:blue;fill:blue;" x1="300.00" x2="300.00" /><line y2="80.00" id="949" y1="120.00" style="stroke:blue;fill:blue;" x1="300.00" x2="250.00" /><line y2="520.00" id="950" y1="550.00" style="stroke:blue;fill:blue;" x1="320.00" x2="390.00" /><line y2="580.00" id="951" y1="550.00" style="stroke:blue;fill:blue;" x1="320.00" x2="250.00" /><line y2="250.00" id="952" y1="200.00" style="stroke:blue;fill:blue;" x1="300.00" x2="250.00" /><line y2="150.00" id="953" y1="200.00" style="stroke:blue;fill:blue;" x1="300.00" x2="220.00" /><line y2="120.00" id="954" y1="200.00" style="stroke:blue;fill:blue;" x1="300.00" x2="300.00" /><line y2="200.00" id="955" y1="200.00" style="stroke:blue;fill:blue;" x1="300.00" x2="420.00" /><line y2="250.00" id="956" y1="300.00" style="stroke:blue;fill:blue;" x1="320.00" x2="350.00" /><line y2="350.00" id="957" y1="300.00" style="stroke:blue;fill:blue;" x1="320.00" x2="350.00" /><line y2="350.00" id="958" y1="300.00" style="stroke:blue;fill:blue;" x1="320.00" x2="280.00" /><line y2="350.00" id="959" y1="350.00" style="stroke:blue;fill:blue;" x1="350.00" x2="500.00" /><line y2="300.00" id="960" y1="350.00" style="stroke:blue;fill:blue;" x1="350.00" x2="320.00" /><line y2="350.00" id="961" y1="350.00" style="stroke:blue;fill:blue;" x1="350.00" x2="280.00" /><line y2="250.00" id="962" y1="250.00" style="stroke:blue;fill:blue;" x1="350.00" x2="450.00" /><line y2="300.00" id="963" y1="250.00" style="stroke:blue;fill:blue;" x1="350.00" x2="320.00" /><line y2="300.00" id="964" y1="250.00" style="stroke:blue;fill:blue;" x1="350.00" x2="400.00" /><line y2="480.00" id="965" y1="520.00" style="stroke:blue;fill:blue;" x1="390.00" x2="420.00" /><line y2="550.00" id="966" y1="520.00" style="stroke:blue;fill:blue;" x1="390.00" x2="320.00" /><line y2="350.00" id="967" y1="300.00" style="stroke:blue;fill:blue;" x1="400.00" x2="500.00" /><line y2="250.00" id="968" y1="300.00" style="stroke:blue;fill:blue;" x1="400.00" x2="350.00" /><line y2="400.00" id="969" y1="300.00" style="stroke:blue;fill:blue;" x1="400.00" x2="430.00" /><line y2="250.00" id="970" y1="200.00" style="stroke:blue;fill:blue;" x1="420.00" x2="450.00" /><line y2="200.00" id="971" y1="200.00" style="stroke:blue;fill:blue;" x1="420.00" x2="300.00" /><line y2="400.00" id="972" y1="480.00" style="stroke:blue;fill:blue;" x1="420.00" x2="430.00" /><line y2="520.00" id="973" y1="480.00" style="stroke:blue;fill:blue;" x1="420.00" x2="390.00" /><line y2="520.00" id="974" y1="480.00" style="stroke:blue;fill:blue;" x1="420.00" x2="500.00" /><line y2="300.00" id="975" y1="400.00" style="stroke:blue;fill:blue;" x1="430.00" x2="400.00" /><line y2="480.00" id="976" y1="400.00" style="stroke:blue;fill:blue;" x1="430.00" x2="420.00" /><line y2="350.00" id="977" y1="250.00" style="stroke:blue;fill:blue;" x1="450.00" x2="500.00" /><line y2="250.00" id="978" y1="250.00" style="stroke:blue;fill:blue;" x1="450.00" x2="350.00" /><line y2="300.00" id="979" y1="250.00" style="stroke:blue;fill:blue;" x1="450.00" x2="550.00" /><line y2="200.00" id="980" y1="250.00" style="stroke:blue;fill:blue;" x1="450.00" x2="420.00" /><line y2="450.00" id="981" y1="350.00" style="stroke:blue;fill:blue;" x1="500.00" x2="680.00" /><line y2="250.00" id="982" y1="350.00" style="stroke:blue;fill:blue;" x1="500.00" x2="450.00" /><line y2="350.00" id="983" y1="350.00" style="stroke:blue;fill:blue;" x1="500.00" x2="350.00" /><line y2="300.00" id="984" y1="350.00" style="stroke:blue;fill:blue;" x1="500.00" x2="550.00" /><line y2="300.00" id="985" y1="350.00" style="stroke:blue;fill:blue;" x1="500.00" x2="400.00" /><line y2="480.00" id="986" y1="520.00" style="stroke:blue;fill:blue;" x1="500.00" x2="420.00" /><line y2="350.00" id="987" y1="300.00" style="stroke:blue;fill:blue;" x1="550.00" x2="500.00" /><line y2="250.00" id="988" y1="300.00" style="stroke:blue;fill:blue;" x1="550.00" x2="450.00" /><line y2="200.00" id="989" y1="300.00" style="stroke:blue;fill:blue;" x1="550.00" x2="650.00" /><line y2="150.00" id="990" y1="100.00" style="stroke:blue;fill:blue;" x1="580.00" x2="620.00" /><line y2="100.00" id="991" y1="150.00" style="stroke:blue;fill:blue;" x1="620.00" x2="650.00" /><line y2="200.00" id="992" y1="150.00" style="stroke:blue;fill:blue;" x1="620.00" x2="650.00" /><line y2="100.00" id="993" y1="150.00" style="stroke:blue;fill:blue;" x1="620.00" x2="580.00" /><line y2="300.00" id="994" y1="200.00" style="stroke:blue;fill:blue;" x1="650.00" x2="550.00" /><line y2="150.00" id="995" y1="200.00" style="stroke:blue;fill:blue;" x1="650.00" x2="620.00" /><line y2="150.00" id="996" y1="200.00" style="stroke:blue;fill:blue;" x1="650.00" x2="750.00" /><line y2="220.00" id="997" y1="200.00" style="stroke:blue;fill:blue;" x1="650.00" x2="750.00" /><line y2="200.00" id="998" y1="150.00" style="stroke:blue;fill:blue;" x1="750.00" x2="650.00" /><line y2="130.00" id="999" y1="150.00" style="stroke:blue;fill:blue;" x1="750.00" x2="840.00" /><line y2="220.00" id="1000" y1="150.00" style="stroke:blue;fill:blue;" x1="750.00" x2="750.00" /><line y2="200.00" id="1001" y1="220.00" style="stroke:blue;fill:blue;" x1="750.00" x2="650.00" /><line y2="150.00" id="1002" y1="220.00" style="stroke:blue;fill:blue;" x1="750.00" x2="750.00" /><line y2="380.00" id="1003" y1="450.00" style="stroke:blue;fill:blue;" x1="680.00" x2="650.00" /><line y2="500.00" id="1004" y1="450.00" style="stroke:blue;fill:blue;" x1="680.00" x2="620.00" /><line y2="400.00" id="1005" y1="450.00" style="stroke:blue;fill:blue;" x1="680.00" x2="750.00" /><line y2="550.00" id="1006" y1="450.00" style="stroke:blue;fill:blue;" x1="680.00" x2="700.00" /><line y2="430.00" id="1007" y1="450.00" style="stroke:blue;fill:blue;" x1="680.00" x2="830.00" /><line y2="350.00" id="1008" y1="450.00" style="stroke:blue;fill:blue;" x1="680.00" x2="500.00" /><line y2="320.00" id="1009" y1="400.00" style="stroke:blue;fill:blue;" x1="750.00" x2="750.00" /><line y2="430.00" id="1010" y1="400.00" style="stroke:blue;fill:blue;" x1="750.00" x2="830.00" /><line y2="450.00" id="1011" y1="400.00" style="stroke:blue;fill:blue;" x1="750.00" x2="680.00" /><line y2="600.00" id="1012" y1="550.00" style="stroke:blue;fill:blue;" x1="700.00" x2="800.00" /><line y2="450.00" id="1013" y1="550.00" style="stroke:blue;fill:blue;" x1="700.00" x2="680.00" /><line y2="150.00" id="1014" y1="130.00" style="stroke:blue;fill:blue;" x1="840.00" x2="750.00" /><line y2="350.00" id="1015" y1="430.00" style="stroke:blue;fill:blue;" x1="830.00" x2="870.00" /><line y2="400.00" id="1016" y1="430.00" style="stroke:blue;fill:blue;" x1="830.00" x2="750.00" /><line y2="470.00" id="1017" y1="430.00" style="stroke:blue;fill:blue;" x1="830.00" x2="910.00" /><line y2="450.00" id="1018" y1="430.00" style="stroke:blue;fill:blue;" x1="830.00" x2="680.00" /><line y2="550.00" id="1019" y1="600.00" style="stroke:blue;fill:blue;" x1="800.00" x2="700.00" /><line y2="550.00" id="1020" y1="600.00" style="stroke:blue;fill:blue;" x1="800.00" x2="900.00" /><line y2="390.00" id="1021" y1="470.00" style="stroke:blue;fill:blue;" x1="910.00" x2="950.00" /><line y2="550.00" id="1022" y1="470.00" style="stroke:blue;fill:blue;" x1="910.00" x2="900.00" /><line y2="430.00" id="1023" y1="470.00" style="stroke:blue;fill:blue;" x1="910.00" x2="830.00" /><line y2="600.00" id="1024" y1="550.00" style="stroke:blue;fill:blue;" x1="900.00" x2="800.00" /><line y2="470.00" id="1025" y1="550.00" style="stroke:blue;fill:blue;" x1="900.00" x2="910.00" /><line y2="600.00" id="1026" y1="550.00" style="stroke:blue;fill:blue;" x1="900.00" x2="950.00" /><line y2="50.00" id="1027" y1="50.00" style="stroke:blue;fill:blue;" x1="80.00" x2="150.00" /><line y2="80.00" id="1028" y1="20.00" style="stroke:blue;fill:blue;" x1="250.00" x2="250.00" /><line y2="120.00" id="1029" y1="80.00" style="stroke:blue;fill:blue;" x1="350.00" x2="300.00" /><line y2="150.00" id="1030" y1="100.00" style="stroke:blue;fill:blue;" x1="650.00" x2="620.00" /><line y2="450.00" id="1031" y1="380.00" style="stroke:blue;fill:blue;" x1="650.00" x2="680.00" /><line y2="450.00" id="1032" y1="500.00" style="stroke:blue;fill:blue;" x1="620.00" x2="680.00" /><line y2="400.00" id="1033" y1="320.00" style="stroke:blue;fill:blue;" x1="750.00" x2="750.00" /><line y2="430.00" id="1034" y1="350.00" style="stroke:blue;fill:blue;" x1="870.00" x2="830.00" /><line y2="470.00" id="1035" y1="390.00" style="stroke:blue;fill:blue;" x1="950.00" x2="910.00" /><line y2="550.00" id="1036" y1="600.00" style="stroke:blue;fill:blue;" x1="950.00" x2="900.00" /></svg>
