<?xml version="1.0" standalone="yes"?><!DOCTYPE svg PUBLIC "-//W3C//DTD SVG 1.1//EN" "http://www.w3.org/Graphics/SVG/1.1/DTD/svg11.dtd"[]><svg width="1050.00" id="33281" height="800.00" xmlns="http://www.w3.org/2000/svg" xmlns:xlink="http://www.w3.org/1999/xlink"><rect height="5.00" width="5.00" Name="塞卡蒙" ID="30003079" y="520.00" id="33282" Region="幽暗之域" Type="system" x="80.00" /><text id="33283" x="80.00" y="520.00">塞卡蒙</text><rect height="5.00" width="5.00" Name="哈拉斯" ID="30003087" y="440.00" id="33285" Region="幽暗之域" Type="system" x="90.00" /><text id="33286" x="90.00" y="440.00">哈拉斯</text><rect height="5.00" width="5.00" Name="伊亚加德" ID="30002085" y="230.00" id="33288" Region="美特伯里斯" Type="system" x="100.00" /><text id="33289" x="100.00" y="230.00">伊亚加德</text><rect height="5.00" width="5.00" Name="塞杜萨瑞斯" ID="30003090" y="380.00" id="33291" Region="幽暗之域" Type="system" x="100.00" /><text id="33292" x="100.00" y="380.00">塞杜萨瑞斯</text><rect height="5.00" width="5.00" Name="埃文诺德" ID="30002089" y="150.00" id="33294" Region="美特伯里斯" Type="system" x="120.00" /><text id="33295" x="120.00" y="150.00">埃文诺德</text><rect height="5.00" width="5.00" Name="伊俄萨" ID="30003072" y="600.00" id="33297" Region="幽暗之域" Type="system" x="120.00" /><text id="33298" x="120.00" y="600.00">伊俄萨</text><rect height="5.00" width="5.00" Name="伊斯巴巴塔" ID="30002087" y="260.00" id="33300" Region="美特伯里斯" Type="system" x="140.00" /><text id="33301" x="140.00" y="260.00">伊斯巴巴塔</text><rect height="5.00" width="5.00" Name="维梅尼" ID="30002088" y="190.00" id="33303" Region="美特伯里斯" Type="system" x="150.00" /><text id="33304" x="150.00" y="190.00">维梅尼</text><rect height="5.00" width="5.00" Name="萨托加斯" ID="30003086" y="460.00" id="33306" Region="幽暗之域" Type="system" x="160.00" /><text id="33307" x="160.00" y="460.00">萨托加斯</text><rect height="5.00" width="5.00" Name="坦纳坎" ID="30003091" y="520.00" id="33309" Region="幽暗之域" Type="system" x="160.00" /><text id="33310" x="160.00" y="520.00">坦纳坎</text><rect height="5.00" width="5.00" Name="库尔尼埃能" ID="30003089" y="410.00" id="33312" Region="幽暗之域" Type="system" x="170.00" /><text id="33313" x="170.00" y="410.00">库尔尼埃能</text><rect height="5.00" width="5.00" Name="安卡" ID="30003071" y="580.00" id="33315" Region="幽暗之域" Type="system" x="180.00" /><text id="33316" x="180.00" y="580.00">安卡</text><rect height="5.00" width="5.00" Name="乌萨勒恩" ID="30003077" y="630.00" id="33318" Region="幽暗之域" Type="system" x="180.00" /><text id="33319" x="180.00" y="630.00">乌萨勒恩</text><rect height="5.00" width="5.00" Name="图尔鲁尔" ID="30002086" y="260.33" id="33321" Region="美特伯里斯" Type="system" x="219.54" /><text id="33322" x="219.54" y="260.33">图尔鲁尔</text><rect height="5.00" width="5.00" Name="艾瑟特" ID="30002084" y="190.00" id="33324" Region="美特伯里斯" Type="system" x="220.00" /><text id="33325" x="220.00" y="190.00">艾瑟特</text><rect height="5.00" width="5.00" Name="欧约纳塔" ID="30003088" y="440.00" id="33327" Region="幽暗之域" Type="system" x="240.00" /><text id="33328" x="240.00" y="440.00">欧约纳塔</text><rect height="5.00" width="5.00" Name="奥尼尔" ID="30002059" y="110.00" id="33330" Region="美特伯里斯" Type="system" x="250.00" /><text id="33331" x="250.00" y="110.00">奥尼尔</text><rect height="5.00" width="5.00" Name="尤斯佩尔" ID="30002083" y="231.81" id="33333" Region="美特伯里斯" Type="system" x="259.39" /><text id="33334" x="259.39" y="231.81">尤斯佩尔</text><rect height="5.00" width="5.00" Name="勒斯布洛克" ID="30002056" y="60.00" id="33336" Region="美特伯里斯" Type="system" x="270.00" /><text id="33337" x="270.00" y="60.00">勒斯布洛克</text><rect height="5.00" width="5.00" Name="索萨拉" ID="30003070" y="640.00" id="33339" Region="幽暗之域" Type="system" x="280.00" /><text id="33340" x="280.00" y="640.00">索萨拉</text><rect height="5.00" width="5.00" Name="弗洛瑟文" ID="30002082" y="187.86" id="33342" Region="美特伯里斯" Type="system" x="281.07" /><text id="33343" x="281.07" y="187.86">弗洛瑟文</text><rect height="5.00" width="5.00" Name="阿尔达" ID="30002058" y="120.00" id="33345" Region="美特伯里斯" Type="system" x="330.00" /><text id="33346" x="330.00" y="120.00">阿尔达</text><rect height="5.00" width="5.00" Name="哈多泽克" ID="30002057" y="70.00" id="33348" Region="美特伯里斯" Type="system" x="370.00" /><text id="33349" x="370.00" y="70.00">哈多泽克</text><rect height="5.00" width="5.00" Name="霍拉" ID="30003067" y="500.00" id="33351" Region="幽暗之域" Type="system" x="380.00" /><text id="33352" x="380.00" y="500.00">霍拉</text><rect height="5.00" width="5.00" Name="福尔塞多姆" ID="30002090" y="160.00" id="33354" Region="美特伯里斯" Type="system" x="380.00" /><text id="33355" x="380.00" y="160.00">福尔塞多姆</text><rect height="5.00" width="5.00" Name="兰多恩" ID="30002540" y="330.00" id="33357" Region="西玛特尔" Type="system" x="410.00" /><text id="33358" x="410.00" y="330.00">兰多恩</text><rect height="5.00" width="5.00" Name="昂托恩" ID="30002091" y="110.00" id="33360" Region="美特伯里斯" Type="system" x="420.00" /><text id="33361" x="420.00" y="110.00">昂托恩</text><rect height="5.00" width="5.00" Name="阔尔蒙尼" ID="30003068" y="540.00" id="33363" Region="幽暗之域" Type="system" x="430.00" /><text id="33364" x="430.00" y="540.00">阔尔蒙尼</text><rect height="5.00" width="5.00" Name="卡美拉" ID="30003069" y="700.00" id="33366" Region="幽暗之域" Type="system" x="430.00" /><text id="33367" x="430.00" y="700.00">卡美拉</text><rect height="5.00" width="5.00" Name="伊斯祖尔" ID="30002095" y="230.00" id="33369" Region="美特伯里斯" Type="system" x="430.00" /><text id="33370" x="430.00" y="230.00">伊斯祖尔</text><rect height="5.00" width="5.00" Name="希瑟伊德" ID="30002539" y="280.00" id="33372" Region="西玛特尔" Type="system" x="440.00" /><text id="33373" x="440.00" y="280.00">希瑟伊德</text><rect height="5.00" width="5.00" Name="奥加" ID="30002542" y="370.00" id="33375" Region="西玛特尔" Type="system" x="440.00" /><text id="33376" x="440.00" y="370.00">奥加</text><rect height="5.00" width="5.00" Name="加柏拉蒂" ID="30002093" y="190.00" id="33378" Region="美特伯里斯" Type="system" x="460.00" /><text id="33379" x="460.00" y="190.00">加柏拉蒂</text><rect height="5.00" width="5.00" Name="拉马亚" ID="30003063" y="630.00" id="33381" Region="幽暗之域" Type="system" x="460.00" /><text id="33382" x="460.00" y="630.00">拉马亚</text><rect height="5.00" width="5.00" Name="克洛格力" ID="30002097" y="70.00" id="33384" Region="美特伯里斯" Type="system" x="480.00" /><text id="33385" x="480.00" y="70.00">克洛格力</text><rect height="5.00" width="5.00" Name="罗什扎尔" ID="30002975" y="500.00" id="33387" Region="破碎" Type="system" x="480.00" /><text id="33388" x="480.00" y="500.00">罗什扎尔</text><rect height="5.00" width="5.00" Name="希尔勒库" ID="30002092" y="120.00" id="33390" Region="美特伯里斯" Type="system" x="510.00" /><text id="33391" x="510.00" y="120.00">希尔勒库</text><rect height="5.00" width="5.00" Name="赫加格德" ID="30002096" y="230.00" id="33393" Region="美特伯里斯" Type="system" x="520.00" /><text id="33394" x="520.00" y="230.00">赫加格德</text><rect height="5.00" width="5.00" Name="达尔" ID="30002541" y="280.00" id="33396" Region="西玛特尔" Type="system" x="520.00" /><text id="33397" x="520.00" y="280.00">达尔</text><rect height="5.00" width="5.00" Name="瓦尔蒂" ID="30002538" y="370.00" id="33399" Region="西玛特尔" Type="system" x="520.00" /><text id="33400" x="520.00" y="370.00">瓦尔蒂</text><rect height="5.00" width="5.00" Name="拉巴比" ID="30002976" y="540.00" id="33402" Region="破碎" Type="system" x="520.00" /><text id="33403" x="520.00" y="540.00">拉巴比</text><rect height="5.00" width="5.00" Name="伊波菲尔" ID="30002094" y="170.00" id="33405" Region="美特伯里斯" Type="system" x="530.00" /><text id="33406" x="530.00" y="170.00">伊波菲尔</text><rect height="5.00" width="5.00" Name="索姗" ID="30002980" y="430.00" id="33408" Region="破碎" Type="system" x="520.00" /><text id="33409" x="520.00" y="430.00">索姗</text><rect height="5.00" width="5.00" Name="欧尔弗德" ID="30002098" y="80.00" id="33411" Region="美特伯里斯" Type="system" x="560.00" /><text id="33412" x="560.00" y="80.00">欧尔弗德</text><rect height="5.00" width="5.00" Name="阿斯戈德" ID="30002978" y="500.00" id="33414" Region="破碎" Type="system" x="560.00" /><text id="33415" x="560.00" y="500.00">阿斯戈德</text><rect height="5.00" width="5.00" Name="埃玛马克" ID="30002537" y="320.00" id="33417" Region="西玛特尔" Type="system" x="570.00" /><text id="33418" x="570.00" y="320.00">埃玛马克</text><rect height="5.00" width="5.00" Name="茨维" ID="30002957" y="620.00" id="33420" Region="破碎" Type="system" x="570.00" /><text id="33421" x="570.00" y="620.00">茨维</text><rect height="5.00" width="5.00" Name="埃拉亚尔" ID="30002977" y="540.00" id="33423" Region="破碎" Type="system" x="590.00" /><text id="33424" x="590.00" y="540.00">埃拉亚尔</text><rect height="5.00" width="5.00" Name="欧耶曼" ID="30002961" y="590.00" id="33426" Region="破碎" Type="system" x="610.00" /><text id="33427" x="610.00" y="590.00">欧耶曼</text><rect height="5.00" width="5.00" Name="尤金" ID="30002101" y="30.00" id="33429" Region="美特伯里斯" Type="system" x="610.00" /><text id="33430" x="610.00" y="30.00">尤金</text><rect height="5.00" width="5.00" Name="古摩洛歌德" ID="30002517" y="240.00" id="33432" Region="西玛特尔" Type="system" x="620.00" /><text id="33433" x="620.00" y="240.00">古摩洛歌德</text><rect height="5.00" width="5.00" Name="哈马" ID="30002981" y="509.42" id="33435" Region="破碎" Type="system" x="629.56" /><text id="33436" x="629.56" y="509.42">哈马</text><rect height="5.00" width="5.00" Name="艾格玛尔" ID="30002099" y="120.00" id="33438" Region="美特伯里斯" Type="system" x="640.00" /><text id="33439" x="640.00" y="120.00">艾格玛尔</text><rect height="5.00" width="5.00" Name="塔夫" ID="30002100" y="70.00" id="33441" Region="美特伯里斯" Type="system" x="640.00" /><text id="33442" x="640.00" y="70.00">塔夫</text><rect height="5.00" width="5.00" Name="若尔" ID="30002958" y="630.03" id="33444" Region="破碎" Type="system" x="649.98" /><text id="33445" x="649.98" y="630.03">若尔</text><rect height="5.00" width="5.00" Name="塔拉燃" ID="30002979" y="470.00" id="33447" Region="破碎" Type="system" x="660.00" /><text id="33448" x="660.00" y="470.00">塔拉燃</text><rect height="5.00" width="5.00" Name="鲁尔姆" ID="30002516" y="200.00" id="33450" Region="西玛特尔" Type="system" x="680.00" /><text id="33451" x="680.00" y="200.00">鲁尔姆</text><rect height="5.00" width="5.00" Name="西非拉尔" ID="30002959" y="592.21" id="33453" Region="破碎" Type="system" x="681.14" /><text id="33454" x="681.14" y="592.21">西非拉尔</text><rect height="5.00" width="5.00" Name="古卡尔拉" ID="30002102" y="30.00" id="33456" Region="美特伯里斯" Type="system" x="690.00" /><text id="33457" x="690.00" y="30.00">古卡尔拉</text><rect height="5.00" width="5.00" Name="波斯伯格" ID="30002514" y="240.00" id="33459" Region="西玛特尔" Type="system" x="710.00" /><text id="33460" x="710.00" y="240.00">波斯伯格</text><rect height="5.00" width="5.00" Name="阿希尔" ID="30002066" y="110.00" id="33462" Region="美特伯里斯" Type="system" x="730.00" /><text id="33463" x="730.00" y="110.00">阿希尔</text><rect height="5.00" width="5.00" Name="拉斯勒努尔" ID="30002065" y="160.00" id="33465" Region="美特伯里斯" Type="system" x="740.00" /><text id="33466" x="740.00" y="160.00">拉斯勒努尔</text><rect height="5.00" width="5.00" Name="俄扎拉" ID="30002962" y="460.00" id="33468" Region="破碎" Type="system" x="760.00" /><text id="33469" x="760.00" y="460.00">俄扎拉</text><rect height="5.00" width="5.00" Name="阿尔扎德" ID="30002960" y="550.00" id="33471" Region="破碎" Type="system" x="760.00" /><text id="33472" x="760.00" y="550.00">阿尔扎德</text><rect height="5.00" width="5.00" Name="伊瓦提" ID="30002060" y="101.91" id="33474" Region="美特伯里斯" Type="system" x="799.04" /><text id="33475" x="799.04" y="101.91">伊瓦提</text><rect height="5.00" width="5.00" Name="欧法斯托德" ID="30002061" y="150.00" id="33477" Region="美特伯里斯" Type="system" x="810.00" /><text id="33478" x="810.00" y="150.00">欧法斯托德</text><rect height="5.00" width="5.00" Name="赫加特德" ID="30002063" y="170.00" id="33480" Region="美特伯里斯" Type="system" x="910.00" /><text id="33481" x="910.00" y="170.00">赫加特德</text><rect height="5.00" width="5.00" Name="托蒂弗伦" ID="30002062" y="120.00" id="33483" Region="美特伯里斯" Type="system" x="900.00" /><text id="33484" x="900.00" y="120.00">托蒂弗伦</text><rect height="5.00" width="5.00" Name="布林" ID="30002067" y="170.00" id="33486" Region="美特伯里斯" Type="system" x="980.00" /><text id="33487" x="980.00" y="170.00">布林</text><rect height="5.00" width="5.00" Name="恩斯图尔" ID="30002064" y="120.00" id="33489" Region="美特伯里斯" Type="system" x="970.00" /><text id="33490" x="970.00" y="120.00">恩斯图尔</text><rect height="5.00" width="5.00" Name="麦伊赫拉" ID="30003075" y="740.00" id="33492" Region="幽暗之域" Type="system" x="40.00" /><text id="33493" x="40.00" y="740.00">麦伊赫拉</text><rect height="5.00" width="5.00" Name="奥德尔尼" ID="30002684" y="130.00" id="33495" Region="金纳泽" Type="system" x="50.00" /><text id="33496" x="50.00" y="130.00">奥德尔尼</text><rect height="5.00" width="5.00" Name="格瑞特西尔" ID="30002653" y="340.00" id="33498" Region="金纳泽" Type="system" x="50.00" /><text id="33499" x="50.00" y="340.00">格瑞特西尔</text><rect height="5.00" width="5.00" Name="勒萨拉卡" ID="30003073" y="710.00" id="33501" Region="幽暗之域" Type="system" x="80.00" /><text id="33502" x="80.00" y="710.00">勒萨拉卡</text><rect height="5.00" width="5.00" Name="赫克" ID="30002053" y="60.00" id="33504" Region="美特伯里斯" Type="system" x="120.00" /><text id="33505" x="120.00" y="60.00">赫克</text><rect height="5.00" width="5.00" Name="厄尔基尼" ID="30003078" y="680.00" id="33507" Region="幽暗之域" Type="system" x="180.00" /><text id="33508" x="180.00" y="680.00">厄尔基尼</text><rect height="5.00" width="5.00" Name="萨塞克" ID="30003074" y="740.00" id="33510" Region="幽暗之域" Type="system" x="180.00" /><text id="33511" x="180.00" y="740.00">萨塞克</text><rect height="5.00" width="5.00" Name="阿莫" ID="30002055" y="110.00" id="33513" Region="美特伯里斯" Type="system" x="190.00" /><text id="33514" x="190.00" y="110.00">阿莫</text><rect height="5.00" width="5.00" Name="霍尔" ID="30002054" y="60.00" id="33516" Region="美特伯里斯" Type="system" x="210.00" /><text id="33517" x="210.00" y="60.00">霍尔</text><rect height="5.00" width="5.00" Name="加姆梅尔" ID="30003076" y="580.00" id="33519" Region="幽暗之域" Type="system" x="260.00" /><text id="33520" x="260.00" y="580.00">加姆梅尔</text><rect height="5.00" width="5.00" Name="库欧米" ID="30003066" y="601.91" id="33522" Region="幽暗之域" Type="system" x="329.04" /><text id="33523" x="329.04" y="601.91">库欧米</text><rect height="5.00" width="5.00" Name="欧特能" ID="30003065" y="558.09" id="33525" Region="幽暗之域" Type="system" x="350.96" /><text id="33526" x="350.96" y="558.09">欧特能</text><rect height="5.00" width="5.00" Name="图欧姆塔" ID="30003064" y="650.00" id="33528" Region="幽暗之域" Type="system" x="360.00" /><text id="33529" x="360.00" y="650.00">图欧姆塔</text><rect height="5.00" width="5.00" Name="伊格赫伦德" ID="30002693" y="270.00" id="33531" Region="金纳泽" Type="system" x="370.00" /><text id="33532" x="370.00" y="270.00">伊格赫伦德</text><rect height="5.00" width="5.00" Name="切文卡" ID="30002965" y="760.00" id="33534" Region="破碎" Type="system" x="440.00" /><text id="33535" x="440.00" y="760.00">切文卡</text><rect height="5.00" width="5.00" Name="欧西德" ID="30002970" y="710.00" id="33537" Region="破碎" Type="system" x="580.00" /><text id="33538" x="580.00" y="710.00">欧西德</text><rect height="5.00" width="5.00" Name="萨索逖库" ID="30002971" y="680.00" id="33540" Region="破碎" Type="system" x="670.00" /><text id="33541" x="670.00" y="680.00">萨索逖库</text><rect height="5.00" width="5.00" Name="米里" ID="30003001" y="548.34" id="33543" Region="破碎" Type="system" x="659.32" /><text id="33544" x="659.32" y="548.34">米里</text><rect height="5.00" width="5.00" Name="戈忒" ID="30002972" y="680.00" id="33546" Region="破碎" Type="system" x="730.00" /><text id="33547" x="730.00" y="680.00">戈忒</text><rect height="5.00" width="5.00" Name="奥索古尔" ID="30002506" y="330.00" id="33549" Region="西玛特尔" Type="system" x="700.00" /><text id="33550" x="700.00" y="330.00">奥索古尔</text><rect height="5.00" width="5.00" Name="莫哈托尔" ID="30002974" y="670.00" id="33552" Region="破碎" Type="system" x="800.00" /><text id="33553" x="800.00" y="670.00">莫哈托尔</text><rect height="5.00" width="5.00" Name="达马林" ID="30002513" y="250.00" id="33555" Region="西玛特尔" Type="system" x="780.00" /><text id="33556" x="780.00" y="250.00">达马林</text><rect height="5.00" width="5.00" Name="阿布德班" ID="30002507" y="330.00" id="33558" Region="西玛特尔" Type="system" x="780.00" /><text id="33559" x="780.00" y="330.00">阿布德班</text><rect height="5.00" width="5.00" Name="尤洱丹" ID="30002969" y="650.00" id="33561" Region="破碎" Type="system" x="880.00" /><text id="33562" x="880.00" y="650.00">尤洱丹</text><rect height="5.00" width="5.00" Name="里苏德尔" ID="30002973" y="680.00" id="33564" Region="破碎" Type="system" x="930.00" /><text id="33565" x="930.00" y="680.00">里苏德尔</text><rect height="5.00" width="5.00" Name="阿拉库古" ID="30002512" y="290.00" id="33567" Region="西玛特尔" Type="system" x="810.00" /><text id="33568" x="810.00" y="290.00">阿拉库古</text><rect height="5.00" width="5.00" Name="欧菲姆" ID="30002515" y="210.00" id="33570" Region="西玛特尔" Type="system" x="810.00" /><text id="33571" x="810.00" y="210.00">欧菲姆</text><rect height="5.00" width="5.00" Name="安赫尔" ID="30002051" y="58.09" id="33573" Region="美特伯里斯" Type="system" x="820.96" /><text id="33574" x="820.96" y="58.09">安赫尔</text><rect height="5.00" width="5.00" Name="伦斯" ID="30002510" y="350.00" id="33576" Region="西玛特尔" Type="system" x="870.00" /><text id="33577" x="870.00" y="350.00">伦斯</text><rect height="5.00" width="5.00" Name="埃加奥" ID="30000200" y="70.00" id="33579" Region="伏尔戈" Type="system" x="920.00" /><text id="33580" x="920.00" y="70.00">埃加奥</text><rect height="5.00" width="5.00" Name="瓜塔特伦" ID="30002560" y="70.00" id="33582" Region="西玛特尔" Type="system" x="990.00" /><text id="33583" x="990.00" y="70.00">瓜塔特伦</text><rect height="5.00" width="5.00" Name="荒渊" ID="30100000" y="320.00" id="33585" Region="赞颂之域" Type="system" x="260.00" /><text id="33586" x="260.00" y="320.00">荒渊</text><line y2="740.00" id="33588" y1="520.00" style="stroke:blue;fill:blue;" x1="80.00" x2="40.00" /><line y2="460.00" id="33589" y1="520.00" style="stroke:blue;fill:blue;" x1="80.00" x2="160.00" /><line y2="460.00" id="33590" y1="440.00" style="stroke:blue;fill:blue;" x1="90.00" x2="160.00" /><line y2="231.81" id="33591" y1="230.00" style="stroke:blue;fill:blue;" x1="100.00" x2="259.39" /><line y2="190.00" id="33592" y1="230.00" style="stroke:blue;fill:blue;" x1="100.00" x2="220.00" /><line y2="260.00" id="33593" y1="230.00" style="stroke:blue;fill:blue;" x1="100.00" x2="140.00" /><line y2="150.00" id="33594" y1="230.00" style="stroke:blue;fill:blue;" x1="100.00" x2="120.00" /><line y2="340.00" id="33595" y1="380.00" style="stroke:blue;fill:blue;" x1="100.00" x2="50.00" /><line y2="410.00" id="33596" y1="380.00" style="stroke:blue;fill:blue;" x1="100.00" x2="170.00" /><line y2="190.00" id="33597" y1="150.00" style="stroke:blue;fill:blue;" x1="120.00" x2="220.00" /><line y2="230.00" id="33598" y1="150.00" style="stroke:blue;fill:blue;" x1="120.00" x2="100.00" /><line y2="130.00" id="33599" y1="150.00" style="stroke:blue;fill:blue;" x1="120.00" x2="50.00" /><line y2="580.00" id="33600" y1="600.00" style="stroke:blue;fill:blue;" x1="120.00" x2="180.00" /><line y2="710.00" id="33601" y1="600.00" style="stroke:blue;fill:blue;" x1="120.00" x2="80.00" /><line y2="630.00" id="33602" y1="600.00" style="stroke:blue;fill:blue;" x1="120.00" x2="180.00" /><line y2="190.00" id="33603" y1="260.00" style="stroke:blue;fill:blue;" x1="140.00" x2="220.00" /><line y2="230.00" id="33604" y1="260.00" style="stroke:blue;fill:blue;" x1="140.00" x2="100.00" /><line y2="260.33" id="33605" y1="260.00" style="stroke:blue;fill:blue;" x1="140.00" x2="219.54" /><line y2="190.00" id="33606" y1="260.00" style="stroke:blue;fill:blue;" x1="140.00" x2="150.00" /><line y2="410.00" id="33607" y1="260.00" style="stroke:blue;fill:blue;" x1="140.00" x2="170.00" /><line y2="190.00" id="33608" y1="190.00" style="stroke:blue;fill:blue;" x1="150.00" x2="220.00" /><line y2="260.00" id="33609" y1="190.00" style="stroke:blue;fill:blue;" x1="150.00" x2="140.00" /><line y2="520.00" id="33610" y1="460.00" style="stroke:blue;fill:blue;" x1="160.00" x2="80.00" /><line y2="440.00" id="33611" y1="460.00" style="stroke:blue;fill:blue;" x1="160.00" x2="90.00" /><line y2="440.00" id="33612" y1="460.00" style="stroke:blue;fill:blue;" x1="160.00" x2="240.00" /><line y2="520.00" id="33613" y1="460.00" style="stroke:blue;fill:blue;" x1="160.00" x2="160.00" /><line y2="580.00" id="33614" y1="520.00" style="stroke:blue;fill:blue;" x1="160.00" x2="180.00" /><line y2="460.00" id="33615" y1="520.00" style="stroke:blue;fill:blue;" x1="160.00" x2="160.00" /><line y2="260.00" id="33616" y1="410.00" style="stroke:blue;fill:blue;" x1="170.00" x2="140.00" /><line y2="440.00" id="33617" y1="410.00" style="stroke:blue;fill:blue;" x1="170.00" x2="240.00" /><line y2="380.00" id="33618" y1="410.00" style="stroke:blue;fill:blue;" x1="170.00" x2="100.00" /><line y2="640.00" id="33619" y1="580.00" style="stroke:blue;fill:blue;" x1="180.00" x2="280.00" /><line y2="600.00" id="33620" y1="580.00" style="stroke:blue;fill:blue;" x1="180.00" x2="120.00" /><line y2="580.00" id="33621" y1="580.00" style="stroke:blue;fill:blue;" x1="180.00" x2="260.00" /><line y2="520.00" id="33622" y1="580.00" style="stroke:blue;fill:blue;" x1="180.00" x2="160.00" /><line y2="640.00" id="33623" y1="630.00" style="stroke:blue;fill:blue;" x1="180.00" x2="280.00" /><line y2="600.00" id="33624" y1="630.00" style="stroke:blue;fill:blue;" x1="180.00" x2="120.00" /><line y2="680.00" id="33625" y1="630.00" style="stroke:blue;fill:blue;" x1="180.00" x2="180.00" /><line y2="231.81" id="33626" y1="260.33" style="stroke:blue;fill:blue;" x1="219.54" x2="259.39" /><line y2="190.00" id="33627" y1="260.33" style="stroke:blue;fill:blue;" x1="219.54" x2="220.00" /><line y2="260.00" id="33628" y1="260.33" style="stroke:blue;fill:blue;" x1="219.54" x2="140.00" /><line y2="187.86" id="33629" y1="190.00" style="stroke:blue;fill:blue;" x1="220.00" x2="281.07" /><line y2="231.81" id="33630" y1="190.00" style="stroke:blue;fill:blue;" x1="220.00" x2="259.39" /><line y2="230.00" id="33631" y1="190.00" style="stroke:blue;fill:blue;" x1="220.00" x2="100.00" /><line y2="260.33" id="33632" y1="190.00" style="stroke:blue;fill:blue;" x1="220.00" x2="219.54" /><line y2="260.00" id="33633" y1="190.00" style="stroke:blue;fill:blue;" x1="220.00" x2="140.00" /><line y2="190.00" id="33634" y1="190.00" style="stroke:blue;fill:blue;" x1="220.00" x2="150.00" /><line y2="150.00" id="33635" y1="190.00" style="stroke:blue;fill:blue;" x1="220.00" x2="120.00" /><line y2="430.00" id="33636" y1="440.00" style="stroke:blue;fill:blue;" x1="240.00" x2="520.00" /><line y2="460.00" id="33637" y1="440.00" style="stroke:blue;fill:blue;" x1="240.00" x2="160.00" /><line y2="410.00" id="33638" y1="440.00" style="stroke:blue;fill:blue;" x1="240.00" x2="170.00" /><line y2="110.00" id="33639" y1="110.00" style="stroke:blue;fill:blue;" x1="250.00" x2="190.00" /><line y2="60.00" id="33640" y1="110.00" style="stroke:blue;fill:blue;" x1="250.00" x2="270.00" /><line y2="187.86" id="33641" y1="231.81" style="stroke:blue;fill:blue;" x1="259.39" x2="281.07" /><line y2="190.00" id="33642" y1="231.81" style="stroke:blue;fill:blue;" x1="259.39" x2="220.00" /><line y2="230.00" id="33643" y1="231.81" style="stroke:blue;fill:blue;" x1="259.39" x2="100.00" /><line y2="260.33" id="33644" y1="231.81" style="stroke:blue;fill:blue;" x1="259.39" x2="219.54" /><line y2="60.00" id="33645" y1="60.00" style="stroke:blue;fill:blue;" x1="270.00" x2="210.00" /><line y2="110.00" id="33646" y1="60.00" style="stroke:blue;fill:blue;" x1="270.00" x2="190.00" /><line y2="70.00" id="33647" y1="60.00" style="stroke:blue;fill:blue;" x1="270.00" x2="370.00" /><line y2="110.00" id="33648" y1="60.00" style="stroke:blue;fill:blue;" x1="270.00" x2="250.00" /><line y2="700.00" id="33649" y1="640.00" style="stroke:blue;fill:blue;" x1="280.00" x2="430.00" /><line y2="580.00" id="33650" y1="640.00" style="stroke:blue;fill:blue;" x1="280.00" x2="180.00" /><line y2="740.00" id="33651" y1="640.00" style="stroke:blue;fill:blue;" x1="280.00" x2="180.00" /><line y2="580.00" id="33652" y1="640.00" style="stroke:blue;fill:blue;" x1="280.00" x2="260.00" /><line y2="630.00" id="33653" y1="640.00" style="stroke:blue;fill:blue;" x1="280.00" x2="180.00" /><line y2="120.00" id="33654" y1="187.86" style="stroke:blue;fill:blue;" x1="281.07" x2="330.00" /><line y2="231.81" id="33655" y1="187.86" style="stroke:blue;fill:blue;" x1="281.07" x2="259.39" /><line y2="190.00" id="33656" y1="187.86" style="stroke:blue;fill:blue;" x1="281.07" x2="220.00" /><line y2="70.00" id="33657" y1="120.00" style="stroke:blue;fill:blue;" x1="330.00" x2="370.00" /><line y2="187.86" id="33658" y1="120.00" style="stroke:blue;fill:blue;" x1="330.00" x2="281.07" /><line y2="160.00" id="33659" y1="120.00" style="stroke:blue;fill:blue;" x1="330.00" x2="380.00" /><line y2="60.00" id="33660" y1="70.00" style="stroke:blue;fill:blue;" x1="370.00" x2="270.00" /><line y2="120.00" id="33661" y1="70.00" style="stroke:blue;fill:blue;" x1="370.00" x2="330.00" /><line y2="70.00" id="33662" y1="70.00" style="stroke:blue;fill:blue;" x1="370.00" x2="480.00" /><line y2="500.00" id="33663" y1="500.00" style="stroke:blue;fill:blue;" x1="380.00" x2="480.00" /><line y2="558.09" id="33664" y1="500.00" style="stroke:blue;fill:blue;" x1="380.00" x2="350.96" /><line y2="540.00" id="33665" y1="500.00" style="stroke:blue;fill:blue;" x1="380.00" x2="430.00" /><line y2="120.00" id="33666" y1="160.00" style="stroke:blue;fill:blue;" x1="380.00" x2="330.00" /><line y2="110.00" id="33667" y1="160.00" style="stroke:blue;fill:blue;" x1="380.00" x2="420.00" /><line y2="120.00" id="33668" y1="160.00" style="stroke:blue;fill:blue;" x1="380.00" x2="510.00" /><line y2="190.00" id="33669" y1="160.00" style="stroke:blue;fill:blue;" x1="380.00" x2="460.00" /><line y2="170.00" id="33670" y1="160.00" style="stroke:blue;fill:blue;" x1="380.00" x2="530.00" /><line y2="230.00" id="33671" y1="160.00" style="stroke:blue;fill:blue;" x1="380.00" x2="430.00" /><line y2="370.00" id="33672" y1="330.00" style="stroke:blue;fill:blue;" x1="410.00" x2="520.00" /><line y2="280.00" id="33673" y1="330.00" style="stroke:blue;fill:blue;" x1="410.00" x2="440.00" /><line y2="280.00" id="33674" y1="330.00" style="stroke:blue;fill:blue;" x1="410.00" x2="520.00" /><line y2="160.00" id="33675" y1="110.00" style="stroke:blue;fill:blue;" x1="420.00" x2="380.00" /><line y2="120.00" id="33676" y1="110.00" style="stroke:blue;fill:blue;" x1="420.00" x2="510.00" /><line y2="190.00" id="33677" y1="110.00" style="stroke:blue;fill:blue;" x1="420.00" x2="460.00" /><line y2="170.00" id="33678" y1="110.00" style="stroke:blue;fill:blue;" x1="420.00" x2="530.00" /><line y2="370.00" id="33679" y1="540.00" style="stroke:blue;fill:blue;" x1="430.00" x2="440.00" /><line y2="630.00" id="33680" y1="540.00" style="stroke:blue;fill:blue;" x1="430.00" x2="460.00" /><line y2="500.00" id="33681" y1="540.00" style="stroke:blue;fill:blue;" x1="430.00" x2="380.00" /><line y2="700.00" id="33682" y1="540.00" style="stroke:blue;fill:blue;" x1="430.00" x2="430.00" /><line y2="760.00" id="33683" y1="700.00" style="stroke:blue;fill:blue;" x1="430.00" x2="440.00" /><line y2="710.00" id="33684" y1="700.00" style="stroke:blue;fill:blue;" x1="430.00" x2="580.00" /><line y2="630.00" id="33685" y1="700.00" style="stroke:blue;fill:blue;" x1="430.00" x2="460.00" /><line y2="650.00" id="33686" y1="700.00" style="stroke:blue;fill:blue;" x1="430.00" x2="360.00" /><line y2="540.00" id="33687" y1="700.00" style="stroke:blue;fill:blue;" x1="430.00" x2="430.00" /><line y2="640.00" id="33688" y1="700.00" style="stroke:blue;fill:blue;" x1="430.00" x2="280.00" /><line y2="160.00" id="33689" y1="230.00" style="stroke:blue;fill:blue;" x1="430.00" x2="380.00" /><line y2="190.00" id="33690" y1="230.00" style="stroke:blue;fill:blue;" x1="430.00" x2="460.00" /><line y2="170.00" id="33691" y1="230.00" style="stroke:blue;fill:blue;" x1="430.00" x2="530.00" /><line y2="230.00" id="33692" y1="230.00" style="stroke:blue;fill:blue;" x1="430.00" x2="520.00" /><line y2="280.00" id="33693" y1="230.00" style="stroke:blue;fill:blue;" x1="430.00" x2="440.00" /><line y2="230.00" id="33694" y1="280.00" style="stroke:blue;fill:blue;" x1="440.00" x2="430.00" /><line y2="320.00" id="33695" y1="280.00" style="stroke:blue;fill:blue;" x1="440.00" x2="570.00" /><line y2="370.00" id="33696" y1="280.00" style="stroke:blue;fill:blue;" x1="440.00" x2="520.00" /><line y2="330.00" id="33697" y1="280.00" style="stroke:blue;fill:blue;" x1="440.00" x2="410.00" /><line y2="280.00" id="33698" y1="280.00" style="stroke:blue;fill:blue;" x1="440.00" x2="520.00" /><line y2="370.00" id="33699" y1="280.00" style="stroke:blue;fill:blue;" x1="440.00" x2="440.00" /><line y2="270.00" id="33700" y1="280.00" style="stroke:blue;fill:blue;" x1="440.00" x2="370.00" /><line y2="320.00" id="33701" y1="370.00" style="stroke:blue;fill:blue;" x1="440.00" x2="570.00" /><line y2="280.00" id="33702" y1="370.00" style="stroke:blue;fill:blue;" x1="440.00" x2="440.00" /><line y2="280.00" id="33703" y1="370.00" style="stroke:blue;fill:blue;" x1="440.00" x2="520.00" /><line y2="540.00" id="33704" y1="370.00" style="stroke:blue;fill:blue;" x1="440.00" x2="430.00" /><line y2="160.00" id="33705" y1="190.00" style="stroke:blue;fill:blue;" x1="460.00" x2="380.00" /><line y2="110.00" id="33706" y1="190.00" style="stroke:blue;fill:blue;" x1="460.00" x2="420.00" /><line y2="170.00" id="33707" y1="190.00" style="stroke:blue;fill:blue;" x1="460.00" x2="530.00" /><line y2="230.00" id="33708" y1="190.00" style="stroke:blue;fill:blue;" x1="460.00" x2="430.00" /><line y2="620.00" id="33709" y1="630.00" style="stroke:blue;fill:blue;" x1="460.00" x2="570.00" /><line y2="540.00" id="33710" y1="630.00" style="stroke:blue;fill:blue;" x1="460.00" x2="430.00" /><line y2="700.00" id="33711" y1="630.00" style="stroke:blue;fill:blue;" x1="460.00" x2="430.00" /><line y2="70.00" id="33712" y1="70.00" style="stroke:blue;fill:blue;" x1="480.00" x2="370.00" /><line y2="80.00" id="33713" y1="70.00" style="stroke:blue;fill:blue;" x1="480.00" x2="560.00" /><line y2="540.00" id="33714" y1="500.00" style="stroke:blue;fill:blue;" x1="480.00" x2="520.00" /><line y2="500.00" id="33715" y1="500.00" style="stroke:blue;fill:blue;" x1="480.00" x2="380.00" /><line y2="160.00" id="33716" y1="120.00" style="stroke:blue;fill:blue;" x1="510.00" x2="380.00" /><line y2="110.00" id="33717" y1="120.00" style="stroke:blue;fill:blue;" x1="510.00" x2="420.00" /><line y2="170.00" id="33718" y1="120.00" style="stroke:blue;fill:blue;" x1="510.00" x2="530.00" /><line y2="230.00" id="33719" y1="230.00" style="stroke:blue;fill:blue;" x1="520.00" x2="430.00" /><line y2="280.00" id="33720" y1="230.00" style="stroke:blue;fill:blue;" x1="520.00" x2="520.00" /><line y2="230.00" id="33721" y1="280.00" style="stroke:blue;fill:blue;" x1="520.00" x2="520.00" /><line y2="320.00" id="33722" y1="280.00" style="stroke:blue;fill:blue;" x1="520.00" x2="570.00" /><line y2="370.00" id="33723" y1="280.00" style="stroke:blue;fill:blue;" x1="520.00" x2="520.00" /><line y2="280.00" id="33724" y1="280.00" style="stroke:blue;fill:blue;" x1="520.00" x2="440.00" /><line y2="330.00" id="33725" y1="280.00" style="stroke:blue;fill:blue;" x1="520.00" x2="410.00" /><line y2="370.00" id="33726" y1="280.00" style="stroke:blue;fill:blue;" x1="520.00" x2="440.00" /><line y2="320.00" id="33727" y1="370.00" style="stroke:blue;fill:blue;" x1="520.00" x2="570.00" /><line y2="280.00" id="33728" y1="370.00" style="stroke:blue;fill:blue;" x1="520.00" x2="440.00" /><line y2="330.00" id="33729" y1="370.00" style="stroke:blue;fill:blue;" x1="520.00" x2="410.00" /><line y2="280.00" id="33730" y1="370.00" style="stroke:blue;fill:blue;" x1="520.00" x2="520.00" /><line y2="460.00" id="33731" y1="370.00" style="stroke:blue;fill:blue;" x1="520.00" x2="760.00" /><line y2="500.00" id="33732" y1="540.00" style="stroke:blue;fill:blue;" x1="520.00" x2="480.00" /><line y2="540.00" id="33733" y1="540.00" style="stroke:blue;fill:blue;" x1="520.00" x2="590.00" /><line y2="500.00" id="33734" y1="540.00" style="stroke:blue;fill:blue;" x1="520.00" x2="560.00" /><line y2="160.00" id="33735" y1="170.00" style="stroke:blue;fill:blue;" x1="530.00" x2="380.00" /><line y2="110.00" id="33736" y1="170.00" style="stroke:blue;fill:blue;" x1="530.00" x2="420.00" /><line y2="120.00" id="33737" y1="170.00" style="stroke:blue;fill:blue;" x1="530.00" x2="510.00" /><line y2="190.00" id="33738" y1="170.00" style="stroke:blue;fill:blue;" x1="530.00" x2="460.00" /><line y2="230.00" id="33739" y1="170.00" style="stroke:blue;fill:blue;" x1="530.00" x2="430.00" /><line y2="500.00" id="33740" y1="430.00" style="stroke:blue;fill:blue;" x1="520.00" x2="560.00" /><line y2="470.00" id="33741" y1="430.00" style="stroke:blue;fill:blue;" x1="520.00" x2="660.00" /><line y2="440.00" id="33742" y1="430.00" style="stroke:blue;fill:blue;" x1="520.00" x2="240.00" /><line y2="70.00" id="33743" y1="80.00" style="stroke:blue;fill:blue;" x1="560.00" x2="480.00" /><line y2="120.00" id="33744" y1="80.00" style="stroke:blue;fill:blue;" x1="560.00" x2="640.00" /><line y2="540.00" id="33745" y1="500.00" style="stroke:blue;fill:blue;" x1="560.00" x2="520.00" /><line y2="540.00" id="33746" y1="500.00" style="stroke:blue;fill:blue;" x1="560.00" x2="590.00" /><line y2="470.00" id="33747" y1="500.00" style="stroke:blue;fill:blue;" x1="560.00" x2="660.00" /><line y2="430.00" id="33748" y1="500.00" style="stroke:blue;fill:blue;" x1="560.00" x2="520.00" /><line y2="509.42" id="33749" y1="500.00" style="stroke:blue;fill:blue;" x1="560.00" x2="629.56" /><line y2="330.00" id="33750" y1="320.00" style="stroke:blue;fill:blue;" x1="570.00" x2="700.00" /><line y2="240.00" id="33751" y1="320.00" style="stroke:blue;fill:blue;" x1="570.00" x2="620.00" /><line y2="370.00" id="33752" y1="320.00" style="stroke:blue;fill:blue;" x1="570.00" x2="520.00" /><line y2="280.00" id="33753" y1="320.00" style="stroke:blue;fill:blue;" x1="570.00" x2="440.00" /><line y2="280.00" id="33754" y1="320.00" style="stroke:blue;fill:blue;" x1="570.00" x2="520.00" /><line y2="370.00" id="33755" y1="320.00" style="stroke:blue;fill:blue;" x1="570.00" x2="440.00" /><line y2="630.03" id="33756" y1="620.00" style="stroke:blue;fill:blue;" x1="570.00" x2="649.98" /><line y2="592.21" id="33757" y1="620.00" style="stroke:blue;fill:blue;" x1="570.00" x2="681.14" /><line y2="590.00" id="33758" y1="620.00" style="stroke:blue;fill:blue;" x1="570.00" x2="610.00" /><line y2="630.00" id="33759" y1="620.00" style="stroke:blue;fill:blue;" x1="570.00" x2="460.00" /><line y2="540.00" id="33760" y1="540.00" style="stroke:blue;fill:blue;" x1="590.00" x2="520.00" /><line y2="500.00" id="33761" y1="540.00" style="stroke:blue;fill:blue;" x1="590.00" x2="560.00" /><line y2="509.42" id="33762" y1="540.00" style="stroke:blue;fill:blue;" x1="590.00" x2="629.56" /><line y2="620.00" id="33763" y1="590.00" style="stroke:blue;fill:blue;" x1="610.00" x2="570.00" /><line y2="592.21" id="33764" y1="590.00" style="stroke:blue;fill:blue;" x1="610.00" x2="681.14" /><line y2="70.00" id="33765" y1="30.00" style="stroke:blue;fill:blue;" x1="610.00" x2="640.00" /><line y2="30.00" id="33766" y1="30.00" style="stroke:blue;fill:blue;" x1="610.00" x2="690.00" /><line y2="120.00" id="33767" y1="240.00" style="stroke:blue;fill:blue;" x1="620.00" x2="640.00" /><line y2="240.00" id="33768" y1="240.00" style="stroke:blue;fill:blue;" x1="620.00" x2="710.00" /><line y2="200.00" id="33769" y1="240.00" style="stroke:blue;fill:blue;" x1="620.00" x2="680.00" /><line y2="320.00" id="33770" y1="240.00" style="stroke:blue;fill:blue;" x1="620.00" x2="570.00" /><line y2="540.00" id="33771" y1="509.42" style="stroke:blue;fill:blue;" x1="629.56" x2="590.00" /><line y2="500.00" id="33772" y1="509.42" style="stroke:blue;fill:blue;" x1="629.56" x2="560.00" /><line y2="470.00" id="33773" y1="509.42" style="stroke:blue;fill:blue;" x1="629.56" x2="660.00" /><line y2="548.34" id="33774" y1="509.42" style="stroke:blue;fill:blue;" x1="629.56" x2="659.32" /><line y2="110.00" id="33775" y1="120.00" style="stroke:blue;fill:blue;" x1="640.00" x2="730.00" /><line y2="80.00" id="33776" y1="120.00" style="stroke:blue;fill:blue;" x1="640.00" x2="560.00" /><line y2="70.00" id="33777" y1="120.00" style="stroke:blue;fill:blue;" x1="640.00" x2="640.00" /><line y2="240.00" id="33778" y1="120.00" style="stroke:blue;fill:blue;" x1="640.00" x2="620.00" /><line y2="120.00" id="33779" y1="70.00" style="stroke:blue;fill:blue;" x1="640.00" x2="640.00" /><line y2="30.00" id="33780" y1="70.00" style="stroke:blue;fill:blue;" x1="640.00" x2="610.00" /><line y2="30.00" id="33781" y1="70.00" style="stroke:blue;fill:blue;" x1="640.00" x2="690.00" /><line y2="620.00" id="33782" y1="630.03" style="stroke:blue;fill:blue;" x1="649.98" x2="570.00" /><line y2="592.21" id="33783" y1="630.03" style="stroke:blue;fill:blue;" x1="649.98" x2="681.14" /><line y2="670.00" id="33784" y1="630.03" style="stroke:blue;fill:blue;" x1="649.98" x2="800.00" /><line y2="550.00" id="33785" y1="470.00" style="stroke:blue;fill:blue;" x1="660.00" x2="760.00" /><line y2="500.00" id="33786" y1="470.00" style="stroke:blue;fill:blue;" x1="660.00" x2="560.00" /><line y2="430.00" id="33787" y1="470.00" style="stroke:blue;fill:blue;" x1="660.00" x2="520.00" /><line y2="509.42" id="33788" y1="470.00" style="stroke:blue;fill:blue;" x1="660.00" x2="629.56" /><line y2="240.00" id="33789" y1="200.00" style="stroke:blue;fill:blue;" x1="680.00" x2="710.00" /><line y2="240.00" id="33790" y1="200.00" style="stroke:blue;fill:blue;" x1="680.00" x2="620.00" /><line y2="620.00" id="33791" y1="592.21" style="stroke:blue;fill:blue;" x1="681.14" x2="570.00" /><line y2="630.03" id="33792" y1="592.21" style="stroke:blue;fill:blue;" x1="681.14" x2="649.98" /><line y2="550.00" id="33793" y1="592.21" style="stroke:blue;fill:blue;" x1="681.14" x2="760.00" /><line y2="590.00" id="33794" y1="592.21" style="stroke:blue;fill:blue;" x1="681.14" x2="610.00" /><line y2="70.00" id="33795" y1="30.00" style="stroke:blue;fill:blue;" x1="690.00" x2="640.00" /><line y2="30.00" id="33796" y1="30.00" style="stroke:blue;fill:blue;" x1="690.00" x2="610.00" /><line y2="250.00" id="33797" y1="240.00" style="stroke:blue;fill:blue;" x1="710.00" x2="780.00" /><line y2="200.00" id="33798" y1="240.00" style="stroke:blue;fill:blue;" x1="710.00" x2="680.00" /><line y2="240.00" id="33799" y1="240.00" style="stroke:blue;fill:blue;" x1="710.00" x2="620.00" /><line y2="101.91" id="33800" y1="110.00" style="stroke:blue;fill:blue;" x1="730.00" x2="799.04" /><line y2="160.00" id="33801" y1="110.00" style="stroke:blue;fill:blue;" x1="730.00" x2="740.00" /><line y2="120.00" id="33802" y1="110.00" style="stroke:blue;fill:blue;" x1="730.00" x2="640.00" /><line y2="101.91" id="33803" y1="160.00" style="stroke:blue;fill:blue;" x1="740.00" x2="799.04" /><line y2="150.00" id="33804" y1="160.00" style="stroke:blue;fill:blue;" x1="740.00" x2="810.00" /><line y2="110.00" id="33805" y1="160.00" style="stroke:blue;fill:blue;" x1="740.00" x2="730.00" /><line y2="370.00" id="33806" y1="460.00" style="stroke:blue;fill:blue;" x1="760.00" x2="520.00" /><line y2="550.00" id="33807" y1="460.00" style="stroke:blue;fill:blue;" x1="760.00" x2="760.00" /><line y2="592.21" id="33808" y1="550.00" style="stroke:blue;fill:blue;" x1="760.00" x2="681.14" /><line y2="460.00" id="33809" y1="550.00" style="stroke:blue;fill:blue;" x1="760.00" x2="760.00" /><line y2="470.00" id="33810" y1="550.00" style="stroke:blue;fill:blue;" x1="760.00" x2="660.00" /><line y2="58.09" id="33811" y1="101.91" style="stroke:blue;fill:blue;" x1="799.04" x2="820.96" /><line y2="150.00" id="33812" y1="101.91" style="stroke:blue;fill:blue;" x1="799.04" x2="810.00" /><line y2="120.00" id="33813" y1="101.91" style="stroke:blue;fill:blue;" x1="799.04" x2="900.00" /><line y2="160.00" id="33814" y1="101.91" style="stroke:blue;fill:blue;" x1="799.04" x2="740.00" /><line y2="110.00" id="33815" y1="101.91" style="stroke:blue;fill:blue;" x1="799.04" x2="730.00" /><line y2="101.91" id="33816" y1="150.00" style="stroke:blue;fill:blue;" x1="810.00" x2="799.04" /><line y2="160.00" id="33817" y1="150.00" style="stroke:blue;fill:blue;" x1="810.00" x2="740.00" /><line y2="120.00" id="33818" y1="170.00" style="stroke:blue;fill:blue;" x1="910.00" x2="900.00" /><line y2="120.00" id="33819" y1="170.00" style="stroke:blue;fill:blue;" x1="910.00" x2="970.00" /><line y2="170.00" id="33820" y1="170.00" style="stroke:blue;fill:blue;" x1="910.00" x2="980.00" /><line y2="70.00" id="33821" y1="120.00" style="stroke:blue;fill:blue;" x1="900.00" x2="920.00" /><line y2="101.91" id="33822" y1="120.00" style="stroke:blue;fill:blue;" x1="900.00" x2="799.04" /><line y2="170.00" id="33823" y1="120.00" style="stroke:blue;fill:blue;" x1="900.00" x2="910.00" /><line y2="120.00" id="33824" y1="120.00" style="stroke:blue;fill:blue;" x1="900.00" x2="970.00" /><line y2="170.00" id="33825" y1="170.00" style="stroke:blue;fill:blue;" x1="980.00" x2="910.00" /><line y2="120.00" id="33826" y1="170.00" style="stroke:blue;fill:blue;" x1="980.00" x2="970.00" /><line y2="120.00" id="33827" y1="120.00" style="stroke:blue;fill:blue;" x1="970.00" x2="900.00" /><line y2="170.00" id="33828" y1="120.00" style="stroke:blue;fill:blue;" x1="970.00" x2="910.00" /><line y2="170.00" id="33829" y1="120.00" style="stroke:blue;fill:blue;" x1="970.00" x2="980.00" /><line y2="70.00" id="33830" y1="120.00" style="stroke:blue;fill:blue;" x1="970.00" x2="990.00" /><line y2="710.00" id="33831" y1="740.00" style="stroke:blue;fill:blue;" x1="40.00" x2="80.00" /><line y2="740.00" id="33832" y1="740.00" style="stroke:blue;fill:blue;" x1="40.00" x2="180.00" /><line y2="520.00" id="33833" y1="740.00" style="stroke:blue;fill:blue;" x1="40.00" x2="80.00" /><line y2="150.00" id="33834" y1="130.00" style="stroke:blue;fill:blue;" x1="50.00" x2="120.00" /><line y2="380.00" id="33835" y1="340.00" style="stroke:blue;fill:blue;" x1="50.00" x2="100.00" /><line y2="600.00" id="33836" y1="710.00" style="stroke:blue;fill:blue;" x1="80.00" x2="120.00" /><line y2="740.00" id="33837" y1="710.00" style="stroke:blue;fill:blue;" x1="80.00" x2="180.00" /><line y2="740.00" id="33838" y1="710.00" style="stroke:blue;fill:blue;" x1="80.00" x2="40.00" /><line y2="60.00" id="33839" y1="60.00" style="stroke:blue;fill:blue;" x1="120.00" x2="210.00" /><line y2="630.00" id="33840" y1="680.00" style="stroke:blue;fill:blue;" x1="180.00" x2="180.00" /><line y2="640.00" id="33841" y1="740.00" style="stroke:blue;fill:blue;" x1="180.00" x2="280.00" /><line y2="710.00" id="33842" y1="740.00" style="stroke:blue;fill:blue;" x1="180.00" x2="80.00" /><line y2="740.00" id="33843" y1="740.00" style="stroke:blue;fill:blue;" x1="180.00" x2="40.00" /><line y2="60.00" id="33844" y1="110.00" style="stroke:blue;fill:blue;" x1="190.00" x2="210.00" /><line y2="60.00" id="33845" y1="110.00" style="stroke:blue;fill:blue;" x1="190.00" x2="270.00" /><line y2="110.00" id="33846" y1="110.00" style="stroke:blue;fill:blue;" x1="190.00" x2="250.00" /><line y2="60.00" id="33847" y1="60.00" style="stroke:blue;fill:blue;" x1="210.00" x2="120.00" /><line y2="110.00" id="33848" y1="60.00" style="stroke:blue;fill:blue;" x1="210.00" x2="190.00" /><line y2="60.00" id="33849" y1="60.00" style="stroke:blue;fill:blue;" x1="210.00" x2="270.00" /><line y2="640.00" id="33850" y1="580.00" style="stroke:blue;fill:blue;" x1="260.00" x2="280.00" /><line y2="580.00" id="33851" y1="580.00" style="stroke:blue;fill:blue;" x1="260.00" x2="180.00" /><line y2="650.00" id="33852" y1="601.91" style="stroke:blue;fill:blue;" x1="329.04" x2="360.00" /><line y2="558.09" id="33853" y1="601.91" style="stroke:blue;fill:blue;" x1="329.04" x2="350.96" /><line y2="601.91" id="33854" y1="558.09" style="stroke:blue;fill:blue;" x1="350.96" x2="329.04" /><line y2="500.00" id="33855" y1="558.09" style="stroke:blue;fill:blue;" x1="350.96" x2="380.00" /><line y2="601.91" id="33856" y1="650.00" style="stroke:blue;fill:blue;" x1="360.00" x2="329.04" /><line y2="700.00" id="33857" y1="650.00" style="stroke:blue;fill:blue;" x1="360.00" x2="430.00" /><line y2="280.00" id="33858" y1="270.00" style="stroke:blue;fill:blue;" x1="370.00" x2="440.00" /><line y2="700.00" id="33859" y1="760.00" style="stroke:blue;fill:blue;" x1="440.00" x2="430.00" /><line y2="680.00" id="33860" y1="710.00" style="stroke:blue;fill:blue;" x1="580.00" x2="670.00" /><line y2="700.00" id="33861" y1="710.00" style="stroke:blue;fill:blue;" x1="580.00" x2="430.00" /><line y2="710.00" id="33862" y1="680.00" style="stroke:blue;fill:blue;" x1="670.00" x2="580.00" /><line y2="680.00" id="33863" y1="680.00" style="stroke:blue;fill:blue;" x1="670.00" x2="730.00" /><line y2="509.42" id="33864" y1="548.34" style="stroke:blue;fill:blue;" x1="659.32" x2="629.56" /><line y2="680.00" id="33865" y1="680.00" style="stroke:blue;fill:blue;" x1="730.00" x2="670.00" /><line y2="670.00" id="33866" y1="680.00" style="stroke:blue;fill:blue;" x1="730.00" x2="800.00" /><line y2="330.00" id="33867" y1="330.00" style="stroke:blue;fill:blue;" x1="700.00" x2="780.00" /><line y2="320.00" id="33868" y1="330.00" style="stroke:blue;fill:blue;" x1="700.00" x2="570.00" /><line y2="630.03" id="33869" y1="670.00" style="stroke:blue;fill:blue;" x1="800.00" x2="649.98" /><line y2="650.00" id="33870" y1="670.00" style="stroke:blue;fill:blue;" x1="800.00" x2="880.00" /><line y2="680.00" id="33871" y1="670.00" style="stroke:blue;fill:blue;" x1="800.00" x2="730.00" /><line y2="290.00" id="33872" y1="250.00" style="stroke:blue;fill:blue;" x1="780.00" x2="810.00" /><line y2="240.00" id="33873" y1="250.00" style="stroke:blue;fill:blue;" x1="780.00" x2="710.00" /><line y2="210.00" id="33874" y1="250.00" style="stroke:blue;fill:blue;" x1="780.00" x2="810.00" /><line y2="330.00" id="33875" y1="330.00" style="stroke:blue;fill:blue;" x1="780.00" x2="700.00" /><line y2="350.00" id="33876" y1="330.00" style="stroke:blue;fill:blue;" x1="780.00" x2="870.00" /><line y2="290.00" id="33877" y1="330.00" style="stroke:blue;fill:blue;" x1="780.00" x2="810.00" /><line y2="680.00" id="33878" y1="650.00" style="stroke:blue;fill:blue;" x1="880.00" x2="930.00" /><line y2="670.00" id="33879" y1="650.00" style="stroke:blue;fill:blue;" x1="880.00" x2="800.00" /><line y2="650.00" id="33880" y1="680.00" style="stroke:blue;fill:blue;" x1="930.00" x2="880.00" /><line y2="330.00" id="33881" y1="290.00" style="stroke:blue;fill:blue;" x1="810.00" x2="780.00" /><line y2="250.00" id="33882" y1="290.00" style="stroke:blue;fill:blue;" x1="810.00" x2="780.00" /><line y2="250.00" id="33883" y1="210.00" style="stroke:blue;fill:blue;" x1="810.00" x2="780.00" /><line y2="101.91" id="33884" y1="58.09" style="stroke:blue;fill:blue;" x1="820.96" x2="799.04" /><line y2="330.00" id="33885" y1="350.00" style="stroke:blue;fill:blue;" x1="870.00" x2="780.00" /><line y2="120.00" id="33886" y1="70.00" style="stroke:blue;fill:blue;" x1="920.00" x2="900.00" /><line y2="120.00" id="33887" y1="70.00" style="stroke:blue;fill:blue;" x1="990.00" x2="970.00" /></svg>
