<?xml version="1.0" standalone="yes"?><!DOCTYPE svg PUBLIC "-//W3C//DTD SVG 1.1//EN" "http://www.w3.org/Graphics/SVG/1.1/DTD/svg11.dtd"[]><svg width="1050.00" id="20113" height="800.00" xmlns="http://www.w3.org/2000/svg" xmlns:xlink="http://www.w3.org/1999/xlink"><rect height="5.00" width="5.00" Name="埃伊丁" ID="30002383" y="100.00" id="20114" Region="摩登赫斯" Type="system" x="20.00" /><text id="20115" x="20.00" y="100.00">埃伊丁</text><rect height="5.00" width="5.00" Name="古夫诺蒂" ID="30002384" y="150.00" id="20117" Region="摩登赫斯" Type="system" x="20.00" /><text id="20118" x="20.00" y="150.00">古夫诺蒂</text><rect height="5.00" width="5.00" Name="希尔伯" ID="30002392" y="450.00" id="20120" Region="摩登赫斯" Type="system" x="30.00" /><text id="20121" x="30.00" y="450.00">希尔伯</text><rect height="5.00" width="5.00" Name="希尔库乌" ID="30002391" y="450.03" id="20123" Region="摩登赫斯" Type="system" x="99.29" /><text id="20124" x="99.29" y="450.03">希尔库乌</text><rect height="5.00" width="5.00" Name="提鲁苏德" ID="30002385" y="150.00" id="20126" Region="摩登赫斯" Type="system" x="100.00" /><text id="20127" x="100.00" y="150.00">提鲁苏德</text><rect height="5.00" width="5.00" Name="海蒂" ID="30002390" y="447.47" id="20129" Region="摩登赫斯" Type="system" x="148.22" /><text id="20130" x="148.22" y="447.47">海蒂</text><rect height="5.00" width="5.00" Name="奥德斯代尔" ID="30002395" y="520.00" id="20132" Region="摩登赫斯" Type="system" x="150.00" /><text id="20133" x="150.00" y="520.00">奥德斯代尔</text><rect height="5.00" width="5.00" Name="伯瑟娜" ID="30002387" y="180.00" id="20135" Region="摩登赫斯" Type="system" x="180.00" /><text id="20136" x="180.00" y="180.00">伯瑟娜</text><rect height="5.00" width="5.00" Name="埃伊达特" ID="30002393" y="482.49" id="20138" Region="摩登赫斯" Type="system" x="182.49" /><text id="20139" x="182.49" y="482.49">埃伊达特</text><rect height="5.00" width="5.00" Name="杰斐文" ID="30002386" y="80.00" id="20141" Region="摩登赫斯" Type="system" x="200.00" /><text id="20142" x="200.00" y="80.00">杰斐文</text><rect height="5.00" width="5.00" Name="欧德鲁法" ID="30002388" y="120.00" id="20144" Region="摩登赫斯" Type="system" x="250.00" /><text id="20145" x="250.00" y="120.00">欧德鲁法</text><rect height="5.00" width="5.00" Name="马顿克恩" ID="30002394" y="520.00" id="20147" Region="摩登赫斯" Type="system" x="250.00" /><text id="20148" x="250.00" y="520.00">马顿克恩</text><rect height="5.00" width="5.00" Name="戈西姆" ID="30002403" y="275.50" id="20150" Region="摩登赫斯" Type="system" x="250.00" /><text id="20151" x="250.00" y="275.50">戈西姆</text><rect height="5.00" width="5.00" Name="赫达列法" ID="30002406" y="324.50" id="20153" Region="摩登赫斯" Type="system" x="250.00" /><text id="20154" x="250.00" y="324.50">赫达列法</text><rect height="5.00" width="5.00" Name="伊斯塔德" ID="30002402" y="220.00" id="20156" Region="摩登赫斯" Type="system" x="300.00" /><text id="20157" x="300.00" y="220.00">伊斯塔德</text><rect height="5.00" width="5.00" Name="哈夫" ID="30002404" y="280.00" id="20159" Region="摩登赫斯" Type="system" x="320.00" /><text id="20160" x="320.00" y="280.00">哈夫</text><rect height="5.00" width="5.00" Name="萨库尔达" ID="30002405" y="320.00" id="20162" Region="摩登赫斯" Type="system" x="350.00" /><text id="20163" x="350.00" y="320.00">萨库尔达</text><rect height="5.00" width="5.00" Name="埃塔拉尔" ID="30002389" y="100.00" id="20165" Region="摩登赫斯" Type="system" x="350.00" /><text id="20166" x="350.00" y="100.00">埃塔拉尔</text><rect height="5.00" width="5.00" Name="埃特布拉德" ID="30002407" y="220.00" id="20168" Region="摩登赫斯" Type="system" x="380.00" /><text id="20169" x="380.00" y="220.00">埃特布拉德</text><rect height="5.00" width="5.00" Name="伊拉缪尔" ID="30002396" y="100.00" id="20171" Region="摩登赫斯" Type="system" x="450.00" /><text id="20172" x="450.00" y="100.00">伊拉缪尔</text><rect height="5.00" width="5.00" Name="瓦瑞吉勒" ID="30002400" y="170.00" id="20174" Region="摩登赫斯" Type="system" x="480.00" /><text id="20175" x="480.00" y="170.00">瓦瑞吉勒</text><rect height="5.00" width="5.00" Name="赫拉卡" ID="30002397" y="130.00" id="20177" Region="摩登赫斯" Type="system" x="550.00" /><text id="20178" x="550.00" y="130.00">赫拉卡</text><rect height="5.00" width="5.00" Name="伊尔多夫" ID="30002398" y="200.00" id="20180" Region="摩登赫斯" Type="system" x="580.00" /><text id="20181" x="580.00" y="200.00">伊尔多夫</text><rect height="5.00" width="5.00" Name="伊格贝格尔" ID="30002420" y="570.00" id="20183" Region="摩登赫斯" Type="system" x="520.00" /><text id="20184" x="520.00" y="570.00">伊格贝格尔</text><rect height="5.00" width="5.00" Name="梅尔多夫" ID="30002401" y="80.00" id="20186" Region="摩登赫斯" Type="system" x="550.00" /><text id="20187" x="550.00" y="80.00">梅尔多夫</text><rect height="5.00" width="5.00" Name="欧瑞恩" ID="30002399" y="150.00" id="20189" Region="摩登赫斯" Type="system" x="650.00" /><text id="20190" x="650.00" y="150.00">欧瑞恩</text><rect height="5.00" width="5.00" Name="耶蒂泰德" ID="30002419" y="550.00" id="20192" Region="摩登赫斯" Type="system" x="650.00" /><text id="20193" x="650.00" y="550.00">耶蒂泰德</text><rect height="5.00" width="5.00" Name="赫古芬登" ID="30002418" y="650.00" id="20195" Region="摩登赫斯" Type="system" x="680.00" /><text id="20196" x="680.00" y="650.00">赫古芬登</text><rect height="5.00" width="5.00" Name="恩努尔" ID="30002412" y="50.00" id="20198" Region="摩登赫斯" Type="system" x="700.00" /><text id="20199" x="700.00" y="50.00">恩努尔</text><rect height="5.00" width="5.00" Name="卡德里纳" ID="30002417" y="580.00" id="20201" Region="摩登赫斯" Type="system" x="700.00" /><text id="20202" x="700.00" y="580.00">卡德里纳</text><rect height="5.00" width="5.00" Name="威尔德" ID="30002415" y="520.00" id="20204" Region="摩登赫斯" Type="system" x="720.00" /><text id="20205" x="720.00" y="520.00">威尔德</text><rect height="5.00" width="5.00" Name="菲格蒙克" ID="30002408" y="200.00" id="20207" Region="摩登赫斯" Type="system" x="750.00" /><text id="20208" x="750.00" y="200.00">菲格蒙克</text><rect height="5.00" width="5.00" Name="克林格特" ID="30002414" y="480.00" id="20210" Region="摩登赫斯" Type="system" x="780.00" /><text id="20211" x="780.00" y="480.00">克林格特</text><rect height="5.00" width="5.00" Name="卡特加德" ID="30002416" y="600.00" id="20213" Region="摩登赫斯" Type="system" x="780.00" /><text id="20214" x="780.00" y="600.00">卡特加德</text><rect height="5.00" width="5.00" Name="欧斯维图" ID="30002409" y="250.00" id="20216" Region="摩登赫斯" Type="system" x="800.00" /><text id="20217" x="800.00" y="250.00">欧斯维图</text><rect height="5.00" width="5.00" Name="尤勒迪克" ID="30002413" y="350.00" id="20219" Region="摩登赫斯" Type="system" x="820.00" /><text id="20220" x="820.00" y="350.00">尤勒迪克</text><rect height="5.00" width="5.00" Name="米米洛" ID="30002410" y="180.00" id="20222" Region="摩登赫斯" Type="system" x="850.00" /><text id="20223" x="850.00" y="180.00">米米洛</text><rect height="5.00" width="5.00" Name="奥斯塔卡" ID="30002523" y="50.00" id="20225" Region="西玛特尔" Type="system" x="20.00" /><text id="20226" x="20.00" y="50.00">奥斯塔卡</text><rect height="5.00" width="5.00" Name="玛吉库" ID="30002570" y="50.00" id="20228" Region="西玛特尔" Type="system" x="100.00" /><text id="20229" x="100.00" y="50.00">玛吉库</text><rect height="5.00" width="5.00" Name="科诺巴纳拉" ID="30000116" y="580.00" id="20231" Region="德里克" Type="system" x="100.00" /><text id="20232" x="100.00" y="580.00">科诺巴纳拉</text><rect height="5.00" width="5.00" Name="B-VIP9" ID="30000970" y="650.00" id="20234" Region="大荒野" Type="system" x="520.00" /><text id="20235" x="520.00" y="650.00">B-VIP9</text><rect height="5.00" width="5.00" Name="塔贝茨尔" ID="30003465" y="50.00" id="20237" Region="美特伯里斯" Type="system" x="750.00" /><text id="20238" x="750.00" y="50.00">塔贝茨尔</text><line y2="150.00" id="20240" y1="100.00" style="stroke:blue;fill:blue;" x1="20.00" x2="20.00" /><line y2="150.00" id="20241" y1="100.00" style="stroke:blue;fill:blue;" x1="20.00" x2="100.00" /><line y2="50.00" id="20242" y1="100.00" style="stroke:blue;fill:blue;" x1="20.00" x2="20.00" /><line y2="100.00" id="20243" y1="150.00" style="stroke:blue;fill:blue;" x1="20.00" x2="20.00" /><line y2="150.00" id="20244" y1="150.00" style="stroke:blue;fill:blue;" x1="20.00" x2="100.00" /><line y2="450.03" id="20245" y1="450.00" style="stroke:blue;fill:blue;" x1="30.00" x2="99.29" /><line y2="447.47" id="20246" y1="450.03" style="stroke:blue;fill:blue;" x1="99.29" x2="148.22" /><line y2="450.00" id="20247" y1="450.03" style="stroke:blue;fill:blue;" x1="99.29" x2="30.00" /><line y2="100.00" id="20248" y1="150.00" style="stroke:blue;fill:blue;" x1="100.00" x2="20.00" /><line y2="150.00" id="20249" y1="150.00" style="stroke:blue;fill:blue;" x1="100.00" x2="20.00" /><line y2="80.00" id="20250" y1="150.00" style="stroke:blue;fill:blue;" x1="100.00" x2="200.00" /><line y2="180.00" id="20251" y1="150.00" style="stroke:blue;fill:blue;" x1="100.00" x2="180.00" /><line y2="50.00" id="20252" y1="150.00" style="stroke:blue;fill:blue;" x1="100.00" x2="100.00" /><line y2="180.00" id="20253" y1="447.47" style="stroke:blue;fill:blue;" x1="148.22" x2="180.00" /><line y2="450.03" id="20254" y1="447.47" style="stroke:blue;fill:blue;" x1="148.22" x2="99.29" /><line y2="482.49" id="20255" y1="447.47" style="stroke:blue;fill:blue;" x1="148.22" x2="182.49" /><line y2="580.00" id="20256" y1="520.00" style="stroke:blue;fill:blue;" x1="150.00" x2="100.00" /><line y2="482.49" id="20257" y1="520.00" style="stroke:blue;fill:blue;" x1="150.00" x2="182.49" /><line y2="150.00" id="20258" y1="180.00" style="stroke:blue;fill:blue;" x1="180.00" x2="100.00" /><line y2="120.00" id="20259" y1="180.00" style="stroke:blue;fill:blue;" x1="180.00" x2="250.00" /><line y2="447.47" id="20260" y1="180.00" style="stroke:blue;fill:blue;" x1="180.00" x2="148.22" /><line y2="447.47" id="20261" y1="482.49" style="stroke:blue;fill:blue;" x1="182.49" x2="148.22" /><line y2="520.00" id="20262" y1="482.49" style="stroke:blue;fill:blue;" x1="182.49" x2="250.00" /><line y2="520.00" id="20263" y1="482.49" style="stroke:blue;fill:blue;" x1="182.49" x2="150.00" /><line y2="150.00" id="20264" y1="80.00" style="stroke:blue;fill:blue;" x1="200.00" x2="100.00" /><line y2="120.00" id="20265" y1="80.00" style="stroke:blue;fill:blue;" x1="200.00" x2="250.00" /><line y2="100.00" id="20266" y1="80.00" style="stroke:blue;fill:blue;" x1="200.00" x2="350.00" /><line y2="80.00" id="20267" y1="120.00" style="stroke:blue;fill:blue;" x1="250.00" x2="200.00" /><line y2="180.00" id="20268" y1="120.00" style="stroke:blue;fill:blue;" x1="250.00" x2="180.00" /><line y2="100.00" id="20269" y1="120.00" style="stroke:blue;fill:blue;" x1="250.00" x2="350.00" /><line y2="220.00" id="20270" y1="120.00" style="stroke:blue;fill:blue;" x1="250.00" x2="300.00" /><line y2="482.49" id="20271" y1="520.00" style="stroke:blue;fill:blue;" x1="250.00" x2="182.49" /><line y2="570.00" id="20272" y1="520.00" style="stroke:blue;fill:blue;" x1="250.00" x2="520.00" /><line y2="220.00" id="20273" y1="275.50" style="stroke:blue;fill:blue;" x1="250.00" x2="300.00" /><line y2="280.00" id="20274" y1="275.50" style="stroke:blue;fill:blue;" x1="250.00" x2="320.00" /><line y2="324.50" id="20275" y1="275.50" style="stroke:blue;fill:blue;" x1="250.00" x2="250.00" /><line y2="275.50" id="20276" y1="324.50" style="stroke:blue;fill:blue;" x1="250.00" x2="250.00" /><line y2="120.00" id="20277" y1="220.00" style="stroke:blue;fill:blue;" x1="300.00" x2="250.00" /><line y2="275.50" id="20278" y1="220.00" style="stroke:blue;fill:blue;" x1="300.00" x2="250.00" /><line y2="280.00" id="20279" y1="220.00" style="stroke:blue;fill:blue;" x1="300.00" x2="320.00" /><line y2="220.00" id="20280" y1="220.00" style="stroke:blue;fill:blue;" x1="300.00" x2="380.00" /><line y2="220.00" id="20281" y1="280.00" style="stroke:blue;fill:blue;" x1="320.00" x2="300.00" /><line y2="275.50" id="20282" y1="280.00" style="stroke:blue;fill:blue;" x1="320.00" x2="250.00" /><line y2="320.00" id="20283" y1="280.00" style="stroke:blue;fill:blue;" x1="320.00" x2="350.00" /><line y2="280.00" id="20284" y1="320.00" style="stroke:blue;fill:blue;" x1="350.00" x2="320.00" /><line y2="80.00" id="20285" y1="100.00" style="stroke:blue;fill:blue;" x1="350.00" x2="200.00" /><line y2="120.00" id="20286" y1="100.00" style="stroke:blue;fill:blue;" x1="350.00" x2="250.00" /><line y2="100.00" id="20287" y1="100.00" style="stroke:blue;fill:blue;" x1="350.00" x2="450.00" /><line y2="220.00" id="20288" y1="220.00" style="stroke:blue;fill:blue;" x1="380.00" x2="300.00" /><line y2="100.00" id="20289" y1="100.00" style="stroke:blue;fill:blue;" x1="450.00" x2="350.00" /><line y2="130.00" id="20290" y1="100.00" style="stroke:blue;fill:blue;" x1="450.00" x2="550.00" /><line y2="80.00" id="20291" y1="100.00" style="stroke:blue;fill:blue;" x1="450.00" x2="550.00" /><line y2="130.00" id="20292" y1="170.00" style="stroke:blue;fill:blue;" x1="480.00" x2="550.00" /><line y2="200.00" id="20293" y1="170.00" style="stroke:blue;fill:blue;" x1="480.00" x2="580.00" /><line y2="100.00" id="20294" y1="130.00" style="stroke:blue;fill:blue;" x1="550.00" x2="450.00" /><line y2="200.00" id="20295" y1="130.00" style="stroke:blue;fill:blue;" x1="550.00" x2="580.00" /><line y2="150.00" id="20296" y1="130.00" style="stroke:blue;fill:blue;" x1="550.00" x2="650.00" /><line y2="170.00" id="20297" y1="130.00" style="stroke:blue;fill:blue;" x1="550.00" x2="480.00" /><line y2="130.00" id="20298" y1="200.00" style="stroke:blue;fill:blue;" x1="580.00" x2="550.00" /><line y2="170.00" id="20299" y1="200.00" style="stroke:blue;fill:blue;" x1="580.00" x2="480.00" /><line y2="650.00" id="20300" y1="570.00" style="stroke:blue;fill:blue;" x1="520.00" x2="520.00" /><line y2="520.00" id="20301" y1="570.00" style="stroke:blue;fill:blue;" x1="520.00" x2="250.00" /><line y2="550.00" id="20302" y1="570.00" style="stroke:blue;fill:blue;" x1="520.00" x2="650.00" /><line y2="100.00" id="20303" y1="80.00" style="stroke:blue;fill:blue;" x1="550.00" x2="450.00" /><line y2="150.00" id="20304" y1="80.00" style="stroke:blue;fill:blue;" x1="550.00" x2="650.00" /><line y2="50.00" id="20305" y1="80.00" style="stroke:blue;fill:blue;" x1="550.00" x2="700.00" /><line y2="130.00" id="20306" y1="150.00" style="stroke:blue;fill:blue;" x1="650.00" x2="550.00" /><line y2="80.00" id="20307" y1="150.00" style="stroke:blue;fill:blue;" x1="650.00" x2="550.00" /><line y2="200.00" id="20308" y1="150.00" style="stroke:blue;fill:blue;" x1="650.00" x2="750.00" /><line y2="520.00" id="20309" y1="550.00" style="stroke:blue;fill:blue;" x1="650.00" x2="720.00" /><line y2="580.00" id="20310" y1="550.00" style="stroke:blue;fill:blue;" x1="650.00" x2="700.00" /><line y2="650.00" id="20311" y1="550.00" style="stroke:blue;fill:blue;" x1="650.00" x2="680.00" /><line y2="570.00" id="20312" y1="550.00" style="stroke:blue;fill:blue;" x1="650.00" x2="520.00" /><line y2="600.00" id="20313" y1="650.00" style="stroke:blue;fill:blue;" x1="680.00" x2="780.00" /><line y2="580.00" id="20314" y1="650.00" style="stroke:blue;fill:blue;" x1="680.00" x2="700.00" /><line y2="550.00" id="20315" y1="650.00" style="stroke:blue;fill:blue;" x1="680.00" x2="650.00" /><line y2="80.00" id="20316" y1="50.00" style="stroke:blue;fill:blue;" x1="700.00" x2="550.00" /><line y2="50.00" id="20317" y1="50.00" style="stroke:blue;fill:blue;" x1="700.00" x2="750.00" /><line y2="600.00" id="20318" y1="580.00" style="stroke:blue;fill:blue;" x1="700.00" x2="780.00" /><line y2="650.00" id="20319" y1="580.00" style="stroke:blue;fill:blue;" x1="700.00" x2="680.00" /><line y2="550.00" id="20320" y1="580.00" style="stroke:blue;fill:blue;" x1="700.00" x2="650.00" /><line y2="480.00" id="20321" y1="520.00" style="stroke:blue;fill:blue;" x1="720.00" x2="780.00" /><line y2="600.00" id="20322" y1="520.00" style="stroke:blue;fill:blue;" x1="720.00" x2="780.00" /><line y2="550.00" id="20323" y1="520.00" style="stroke:blue;fill:blue;" x1="720.00" x2="650.00" /><line y2="150.00" id="20324" y1="200.00" style="stroke:blue;fill:blue;" x1="750.00" x2="650.00" /><line y2="250.00" id="20325" y1="200.00" style="stroke:blue;fill:blue;" x1="750.00" x2="800.00" /><line y2="180.00" id="20326" y1="200.00" style="stroke:blue;fill:blue;" x1="750.00" x2="850.00" /><line y2="350.00" id="20327" y1="480.00" style="stroke:blue;fill:blue;" x1="780.00" x2="820.00" /><line y2="520.00" id="20328" y1="480.00" style="stroke:blue;fill:blue;" x1="780.00" x2="720.00" /><line y2="520.00" id="20329" y1="600.00" style="stroke:blue;fill:blue;" x1="780.00" x2="720.00" /><line y2="580.00" id="20330" y1="600.00" style="stroke:blue;fill:blue;" x1="780.00" x2="700.00" /><line y2="650.00" id="20331" y1="600.00" style="stroke:blue;fill:blue;" x1="780.00" x2="680.00" /><line y2="200.00" id="20332" y1="250.00" style="stroke:blue;fill:blue;" x1="800.00" x2="750.00" /><line y2="180.00" id="20333" y1="250.00" style="stroke:blue;fill:blue;" x1="800.00" x2="850.00" /><line y2="350.00" id="20334" y1="250.00" style="stroke:blue;fill:blue;" x1="800.00" x2="820.00" /><line y2="250.00" id="20335" y1="350.00" style="stroke:blue;fill:blue;" x1="820.00" x2="800.00" /><line y2="480.00" id="20336" y1="350.00" style="stroke:blue;fill:blue;" x1="820.00" x2="780.00" /><line y2="200.00" id="20337" y1="180.00" style="stroke:blue;fill:blue;" x1="850.00" x2="750.00" /><line y2="250.00" id="20338" y1="180.00" style="stroke:blue;fill:blue;" x1="850.00" x2="800.00" /><line y2="100.00" id="20339" y1="50.00" style="stroke:blue;fill:blue;" x1="20.00" x2="20.00" /><line y2="150.00" id="20340" y1="50.00" style="stroke:blue;fill:blue;" x1="100.00" x2="100.00" /><line y2="520.00" id="20341" y1="580.00" style="stroke:blue;fill:blue;" x1="100.00" x2="150.00" /><line y2="570.00" id="20342" y1="650.00" style="stroke:blue;fill:blue;" x1="520.00" x2="520.00" /><line y2="50.00" id="20343" y1="50.00" style="stroke:blue;fill:blue;" x1="750.00" x2="700.00" /></svg>
