<?xml version="1.0" standalone="yes"?><!DOCTYPE svg PUBLIC "-//W3C//DTD SVG 1.1//EN" "http://www.w3.org/Graphics/SVG/1.1/DTD/svg11.dtd"[]><svg width="1050.00" id="477" height="800.00" xmlns="http://www.w3.org/2000/svg" xmlns:xlink="http://www.w3.org/1999/xlink"><rect height="5.00" width="5.00" Name="诺托拉斯" ID="30045348" y="550.00" id="478" Region="暗涌之域" Type="system" x="90.00" /><text id="479" x="90.00" y="550.00">诺托拉斯</text><rect height="5.00" width="5.00" Name="尼苏瓦" ID="30045352" y="500.00" id="481" Region="暗涌之域" Type="system" x="140.00" /><text id="482" x="140.00" y="500.00">尼苏瓦</text><rect height="5.00" width="5.00" Name="撒勒尼米" ID="30045310" y="20.00" id="484" Region="暗涌之域" Type="system" x="120.00" /><text id="485" x="120.00" y="20.00">撒勒尼米</text><rect height="5.00" width="5.00" Name="忒蒙" ID="30045350" y="330.00" id="487" Region="暗涌之域" Type="system" x="190.00" /><text id="488" x="190.00" y="330.00">忒蒙</text><rect height="5.00" width="5.00" Name="柯达玛" ID="30045346" y="430.00" id="490" Region="暗涌之域" Type="system" x="190.00" /><text id="491" x="190.00" y="430.00">柯达玛</text><rect height="5.00" width="5.00" Name="欧纳斯肯" ID="30045347" y="550.00" id="493" Region="暗涌之域" Type="system" x="190.00" /><text id="494" x="190.00" y="550.00">欧纳斯肯</text><rect height="5.00" width="5.00" Name="西卡尼亚" ID="30045306" y="20.00" id="496" Region="暗涌之域" Type="system" x="200.00" /><text id="497" x="200.00" y="20.00">西卡尼亚</text><rect height="5.00" width="5.00" Name="埃希策" ID="30045311" y="121.91" id="499" Region="暗涌之域" Type="system" x="199.04" /><text id="500" x="199.04" y="121.91">埃希策</text><rect height="5.00" width="5.00" Name="荷利" ID="30045345" y="500.00" id="502" Region="暗涌之域" Type="system" x="240.00" /><text id="503" x="240.00" y="500.00">荷利</text><rect height="5.00" width="5.00" Name="伊那卡蒙" ID="30045313" y="78.09" id="505" Region="暗涌之域" Type="system" x="220.96" /><text id="506" x="220.96" y="78.09">伊那卡蒙</text><rect height="5.00" width="5.00" Name="拉卡帕斯" ID="30045349" y="480.00" id="508" Region="暗涌之域" Type="system" x="290.00" /><text id="509" x="290.00" y="480.00">拉卡帕斯</text><rect height="5.00" width="5.00" Name="雷苏多" ID="30045354" y="400.00" id="511" Region="暗涌之域" Type="system" x="310.00" /><text id="512" x="310.00" y="400.00">雷苏多</text><rect height="5.00" width="5.00" Name="欧卡伽肯" ID="30045307" y="50.00" id="514" Region="暗涌之域" Type="system" x="280.00" /><text id="515" x="280.00" y="50.00">欧卡伽肯</text><rect height="5.00" width="5.00" Name="派尼佳斯托" ID="30045353" y="550.00" id="517" Region="暗涌之域" Type="system" x="340.00" /><text id="518" x="340.00" y="550.00">派尼佳斯托</text><rect height="5.00" width="5.00" Name="姆什克基" ID="30045334" y="250.00" id="520" Region="暗涌之域" Type="system" x="300.00" /><text id="521" x="300.00" y="250.00">姆什克基</text><rect height="5.00" width="5.00" Name="奥卡蒙" ID="30045330" y="300.00" id="523" Region="暗涌之域" Type="system" x="350.00" /><text id="524" x="350.00" y="300.00">奥卡蒙</text><rect height="5.00" width="5.00" Name="伊维苏达" ID="30045351" y="480.00" id="526" Region="暗涌之域" Type="system" x="390.00" /><text id="527" x="390.00" y="480.00">伊维苏达</text><rect height="5.00" width="5.00" Name="维拉森" ID="30045309" y="20.00" id="529" Region="暗涌之域" Type="system" x="380.00" /><text id="530" x="380.00" y="20.00">维拉森</text><rect height="5.00" width="5.00" Name="克加里" ID="30045308" y="120.00" id="532" Region="暗涌之域" Type="system" x="380.00" /><text id="533" x="380.00" y="120.00">克加里</text><rect height="5.00" width="5.00" Name="瓦拉冷" ID="30045331" y="230.00" id="535" Region="暗涌之域" Type="system" x="380.00" /><text id="536" x="380.00" y="230.00">瓦拉冷</text><rect height="5.00" width="5.00" Name="特斯坎能" ID="30045335" y="180.00" id="538" Region="暗涌之域" Type="system" x="400.00" /><text id="539" x="400.00" y="180.00">特斯坎能</text><rect height="5.00" width="5.00" Name="科拉森" ID="30045312" y="20.00" id="541" Region="暗涌之域" Type="system" x="450.00" /><text id="542" x="450.00" y="20.00">科拉森</text><rect height="5.00" width="5.00" Name="伊伦娜拉" ID="30045336" y="250.00" id="544" Region="暗涌之域" Type="system" x="450.00" /><text id="545" x="450.00" y="250.00">伊伦娜拉</text><rect height="5.00" width="5.00" Name="艾萨凯" ID="30045332" y="300.00" id="547" Region="暗涌之域" Type="system" x="450.00" /><text id="548" x="450.00" y="300.00">艾萨凯</text><rect height="5.00" width="5.00" Name="希克肯" ID="30045338" y="590.00" id="550" Region="暗涌之域" Type="system" x="460.00" /><text id="551" x="460.00" y="590.00">希克肯</text><rect height="5.00" width="5.00" Name="普利斯姆" ID="30045333" y="250.00" id="553" Region="暗涌之域" Type="system" x="520.00" /><text id="554" x="520.00" y="250.00">普利斯姆</text><rect height="5.00" width="5.00" Name="伊克斯加" ID="30045337" y="300.00" id="556" Region="暗涌之域" Type="system" x="520.00" /><text id="557" x="520.00" y="300.00">伊克斯加</text><rect height="5.00" width="5.00" Name="伊姆利" ID="30045343" y="660.00" id="559" Region="暗涌之域" Type="system" x="530.00" /><text id="560" x="530.00" y="660.00">伊姆利</text><rect height="5.00" width="5.00" Name="哈尔那能" ID="30045341" y="510.00" id="562" Region="暗涌之域" Type="system" x="530.00" /><text id="563" x="530.00" y="510.00">哈尔那能</text><rect height="5.00" width="5.00" Name="马尔托" ID="30045318" y="50.00" id="565" Region="暗涌之域" Type="system" x="580.00" /><text id="566" x="580.00" y="50.00">马尔托</text><rect height="5.00" width="5.00" Name="依拉勒贾" ID="30045317" y="120.00" id="568" Region="暗涌之域" Type="system" x="580.00" /><text id="569" x="580.00" y="120.00">依拉勒贾</text><rect height="5.00" width="5.00" Name="阿希多" ID="30045323" y="230.00" id="571" Region="暗涌之域" Type="system" x="660.00" /><text id="572" x="660.00" y="230.00">阿希多</text><rect height="5.00" width="5.00" Name="莱贝卡" ID="30045315" y="150.00" id="574" Region="暗涌之域" Type="system" x="650.00" /><text id="575" x="650.00" y="150.00">莱贝卡</text><rect height="5.00" width="5.00" Name="萨马奴尼" ID="30045322" y="300.00" id="577" Region="暗涌之域" Type="system" x="650.00" /><text id="578" x="650.00" y="300.00">萨马奴尼</text><rect height="5.00" width="5.00" Name="埃托伦" ID="30003856" y="360.00" id="580" Region="宁静之域" Type="system" x="640.00" /><text id="581" x="640.00" y="360.00">埃托伦</text><rect height="5.00" width="5.00" Name="涅娜麦拉" ID="30045344" y="610.00" id="583" Region="暗涌之域" Type="system" x="630.00" /><text id="584" x="630.00" y="610.00">涅娜麦拉</text><rect height="5.00" width="5.00" Name="伊娜鲁瑞" ID="30045339" y="540.00" id="586" Region="暗涌之域" Type="system" x="630.00" /><text id="587" x="630.00" y="540.00">伊娜鲁瑞</text><rect height="5.00" width="5.00" Name="伊哈" ID="30045319" y="50.00" id="589" Region="暗涌之域" Type="system" x="700.00" /><text id="590" x="700.00" y="50.00">伊哈</text><rect height="5.00" width="5.00" Name="斯拉马" ID="30045327" y="180.00" id="592" Region="暗涌之域" Type="system" x="720.00" /><text id="593" x="720.00" y="180.00">斯拉马</text><rect height="5.00" width="5.00" Name="乌呼拉能" ID="30045326" y="260.00" id="595" Region="暗涌之域" Type="system" x="710.00" /><text id="596" x="710.00" y="260.00">乌呼拉能</text><rect height="5.00" width="5.00" Name="吉纳卡" ID="30045314" y="120.00" id="598" Region="暗涌之域" Type="system" x="720.00" /><text id="599" x="720.00" y="120.00">吉纳卡</text><rect height="5.00" width="5.00" Name="乌科米达" ID="30045321" y="350.00" id="601" Region="暗涌之域" Type="system" x="750.00" /><text id="602" x="750.00" y="350.00">乌科米达</text><rect height="5.00" width="5.00" Name="阿基达戈" ID="30045342" y="550.00" id="604" Region="暗涌之域" Type="system" x="750.00" /><text id="605" x="750.00" y="550.00">阿基达戈</text><rect height="5.00" width="5.00" Name="罗哈马" ID="30045325" y="300.00" id="607" Region="暗涌之域" Type="system" x="780.00" /><text id="608" x="780.00" y="300.00">罗哈马</text><rect height="5.00" width="5.00" Name="因尼亚" ID="30045316" y="80.00" id="610" Region="暗涌之域" Type="system" x="780.00" /><text id="611" x="780.00" y="80.00">因尼亚</text><rect height="5.00" width="5.00" Name="欧拿蒙" ID="30045324" y="200.00" id="613" Region="暗涌之域" Type="system" x="810.00" /><text id="614" x="810.00" y="200.00">欧拿蒙</text><rect height="5.00" width="5.00" Name="艾沃能" ID="30045340" y="460.00" id="616" Region="暗涌之域" Type="system" x="950.00" /><text id="617" x="950.00" y="460.00">艾沃能</text><rect height="5.00" width="5.00" Name="帕瓦纳卡" ID="30045320" y="120.00" id="619" Region="暗涌之域" Type="system" x="950.00" /><text id="620" x="950.00" y="120.00">帕瓦纳卡</text><rect height="5.00" width="5.00" Name="卡尔加塔伊蒙" ID="30001440" y="20.00" id="622" Region="长征" Type="system" x="50.00" /><text id="623" x="50.00" y="20.00">卡尔加塔伊蒙</text><rect height="5.00" width="5.00" Name="塔玛" ID="30002813" y="430.00" id="625" Region="赛塔德洱" Type="system" x="90.00" /><text id="626" x="90.00" y="430.00">塔玛</text><rect height="5.00" width="5.00" Name="埃布尼" ID="30004984" y="600.00" id="628" Region="精华之域" Type="system" x="190.00" /><text id="629" x="190.00" y="600.00">埃布尼</text><rect height="5.00" width="5.00" Name="曼贾纳克" ID="30002760" y="200.00" id="631" Region="赛塔德洱" Type="system" x="250.00" /><text id="632" x="250.00" y="200.00">曼贾纳克</text><rect height="5.00" width="5.00" Name="W-4NUU" ID="30004055" y="80.00" id="634" Region="云环" Type="system" x="320.00" /><text id="635" x="320.00" y="80.00">W-4NUU</text><rect height="5.00" width="5.00" Name="欧泊切" ID="30001435" y="200.00" id="637" Region="长征" Type="system" x="550.00" /><text id="638" x="550.00" y="200.00">欧泊切</text><rect height="5.00" width="5.00" Name="阿尔达然特" ID="30003837" y="690.00" id="640" Region="宁静之域" Type="system" x="780.00" /><text id="641" x="780.00" y="690.00">阿尔达然特</text><rect height="5.00" width="5.00" Name="皮亚卡" ID="30001403" y="250.00" id="643" Region="长征" Type="system" x="890.00" /><text id="644" x="890.00" y="250.00">皮亚卡</text><rect height="5.00" width="5.00" Name="奥伊瑟克斯" ID="30003838" y="50.00" id="646" Region="宁静之域" Type="system" x="950.00" /><text id="647" x="950.00" y="50.00">奥伊瑟克斯</text><line y2="500.00" id="649" y1="550.00" style="stroke:blue;fill:blue;" x1="90.00" x2="140.00" /><line y2="500.00" id="650" y1="500.00" style="stroke:blue;fill:blue;" x1="140.00" x2="240.00" /><line y2="430.00" id="651" y1="500.00" style="stroke:blue;fill:blue;" x1="140.00" x2="190.00" /><line y2="550.00" id="652" y1="500.00" style="stroke:blue;fill:blue;" x1="140.00" x2="190.00" /><line y2="550.00" id="653" y1="500.00" style="stroke:blue;fill:blue;" x1="140.00" x2="90.00" /><line y2="20.00" id="654" y1="20.00" style="stroke:blue;fill:blue;" x1="120.00" x2="50.00" /><line y2="20.00" id="655" y1="20.00" style="stroke:blue;fill:blue;" x1="120.00" x2="200.00" /><line y2="430.00" id="656" y1="330.00" style="stroke:blue;fill:blue;" x1="190.00" x2="190.00" /><line y2="430.00" id="657" y1="430.00" style="stroke:blue;fill:blue;" x1="190.00" x2="90.00" /><line y2="500.00" id="658" y1="430.00" style="stroke:blue;fill:blue;" x1="190.00" x2="240.00" /><line y2="330.00" id="659" y1="430.00" style="stroke:blue;fill:blue;" x1="190.00" x2="190.00" /><line y2="500.00" id="660" y1="430.00" style="stroke:blue;fill:blue;" x1="190.00" x2="140.00" /><line y2="400.00" id="661" y1="430.00" style="stroke:blue;fill:blue;" x1="190.00" x2="310.00" /><line y2="600.00" id="662" y1="550.00" style="stroke:blue;fill:blue;" x1="190.00" x2="190.00" /><line y2="500.00" id="663" y1="550.00" style="stroke:blue;fill:blue;" x1="190.00" x2="140.00" /><line y2="550.00" id="664" y1="550.00" style="stroke:blue;fill:blue;" x1="190.00" x2="340.00" /><line y2="20.00" id="665" y1="20.00" style="stroke:blue;fill:blue;" x1="200.00" x2="380.00" /><line y2="20.00" id="666" y1="20.00" style="stroke:blue;fill:blue;" x1="200.00" x2="120.00" /><line y2="121.91" id="667" y1="20.00" style="stroke:blue;fill:blue;" x1="200.00" x2="199.04" /><line y2="20.00" id="668" y1="121.91" style="stroke:blue;fill:blue;" x1="199.04" x2="200.00" /><line y2="120.00" id="669" y1="121.91" style="stroke:blue;fill:blue;" x1="199.04" x2="380.00" /><line y2="78.09" id="670" y1="121.91" style="stroke:blue;fill:blue;" x1="199.04" x2="220.96" /><line y2="430.00" id="671" y1="500.00" style="stroke:blue;fill:blue;" x1="240.00" x2="190.00" /><line y2="500.00" id="672" y1="500.00" style="stroke:blue;fill:blue;" x1="240.00" x2="140.00" /><line y2="550.00" id="673" y1="500.00" style="stroke:blue;fill:blue;" x1="240.00" x2="340.00" /><line y2="50.00" id="674" y1="78.09" style="stroke:blue;fill:blue;" x1="220.96" x2="280.00" /><line y2="121.91" id="675" y1="78.09" style="stroke:blue;fill:blue;" x1="220.96" x2="199.04" /><line y2="480.00" id="676" y1="480.00" style="stroke:blue;fill:blue;" x1="290.00" x2="390.00" /><line y2="550.00" id="677" y1="480.00" style="stroke:blue;fill:blue;" x1="290.00" x2="340.00" /><line y2="400.00" id="678" y1="480.00" style="stroke:blue;fill:blue;" x1="290.00" x2="310.00" /><line y2="300.00" id="679" y1="400.00" style="stroke:blue;fill:blue;" x1="310.00" x2="350.00" /><line y2="430.00" id="680" y1="400.00" style="stroke:blue;fill:blue;" x1="310.00" x2="190.00" /><line y2="480.00" id="681" y1="400.00" style="stroke:blue;fill:blue;" x1="310.00" x2="290.00" /><line y2="80.00" id="682" y1="50.00" style="stroke:blue;fill:blue;" x1="280.00" x2="320.00" /><line y2="20.00" id="683" y1="50.00" style="stroke:blue;fill:blue;" x1="280.00" x2="380.00" /><line y2="78.09" id="684" y1="50.00" style="stroke:blue;fill:blue;" x1="280.00" x2="220.96" /><line y2="590.00" id="685" y1="550.00" style="stroke:blue;fill:blue;" x1="340.00" x2="460.00" /><line y2="500.00" id="686" y1="550.00" style="stroke:blue;fill:blue;" x1="340.00" x2="240.00" /><line y2="550.00" id="687" y1="550.00" style="stroke:blue;fill:blue;" x1="340.00" x2="190.00" /><line y2="480.00" id="688" y1="550.00" style="stroke:blue;fill:blue;" x1="340.00" x2="290.00" /><line y2="200.00" id="689" y1="250.00" style="stroke:blue;fill:blue;" x1="300.00" x2="250.00" /><line y2="300.00" id="690" y1="250.00" style="stroke:blue;fill:blue;" x1="300.00" x2="350.00" /><line y2="230.00" id="691" y1="250.00" style="stroke:blue;fill:blue;" x1="300.00" x2="380.00" /><line y2="300.00" id="692" y1="250.00" style="stroke:blue;fill:blue;" x1="300.00" x2="450.00" /><line y2="300.00" id="693" y1="300.00" style="stroke:blue;fill:blue;" x1="350.00" x2="450.00" /><line y2="250.00" id="694" y1="300.00" style="stroke:blue;fill:blue;" x1="350.00" x2="300.00" /><line y2="400.00" id="695" y1="300.00" style="stroke:blue;fill:blue;" x1="350.00" x2="310.00" /><line y2="480.00" id="696" y1="480.00" style="stroke:blue;fill:blue;" x1="390.00" x2="290.00" /><line y2="20.00" id="697" y1="20.00" style="stroke:blue;fill:blue;" x1="380.00" x2="200.00" /><line y2="50.00" id="698" y1="20.00" style="stroke:blue;fill:blue;" x1="380.00" x2="280.00" /><line y2="120.00" id="699" y1="20.00" style="stroke:blue;fill:blue;" x1="380.00" x2="380.00" /><line y2="20.00" id="700" y1="20.00" style="stroke:blue;fill:blue;" x1="380.00" x2="450.00" /><line y2="20.00" id="701" y1="120.00" style="stroke:blue;fill:blue;" x1="380.00" x2="380.00" /><line y2="121.91" id="702" y1="120.00" style="stroke:blue;fill:blue;" x1="380.00" x2="199.04" /><line y2="50.00" id="703" y1="120.00" style="stroke:blue;fill:blue;" x1="380.00" x2="580.00" /><line y2="300.00" id="704" y1="230.00" style="stroke:blue;fill:blue;" x1="380.00" x2="450.00" /><line y2="250.00" id="705" y1="230.00" style="stroke:blue;fill:blue;" x1="380.00" x2="300.00" /><line y2="180.00" id="706" y1="230.00" style="stroke:blue;fill:blue;" x1="380.00" x2="400.00" /><line y2="230.00" id="707" y1="180.00" style="stroke:blue;fill:blue;" x1="400.00" x2="380.00" /><line y2="20.00" id="708" y1="20.00" style="stroke:blue;fill:blue;" x1="450.00" x2="380.00" /><line y2="300.00" id="709" y1="250.00" style="stroke:blue;fill:blue;" x1="450.00" x2="450.00" /><line y2="250.00" id="710" y1="250.00" style="stroke:blue;fill:blue;" x1="450.00" x2="520.00" /><line y2="300.00" id="711" y1="300.00" style="stroke:blue;fill:blue;" x1="450.00" x2="350.00" /><line y2="230.00" id="712" y1="300.00" style="stroke:blue;fill:blue;" x1="450.00" x2="380.00" /><line y2="250.00" id="713" y1="300.00" style="stroke:blue;fill:blue;" x1="450.00" x2="520.00" /><line y2="250.00" id="714" y1="300.00" style="stroke:blue;fill:blue;" x1="450.00" x2="300.00" /><line y2="250.00" id="715" y1="300.00" style="stroke:blue;fill:blue;" x1="450.00" x2="450.00" /><line y2="300.00" id="716" y1="300.00" style="stroke:blue;fill:blue;" x1="450.00" x2="520.00" /><line y2="510.00" id="717" y1="590.00" style="stroke:blue;fill:blue;" x1="460.00" x2="530.00" /><line y2="660.00" id="718" y1="590.00" style="stroke:blue;fill:blue;" x1="460.00" x2="530.00" /><line y2="610.00" id="719" y1="590.00" style="stroke:blue;fill:blue;" x1="460.00" x2="630.00" /><line y2="550.00" id="720" y1="590.00" style="stroke:blue;fill:blue;" x1="460.00" x2="340.00" /><line y2="300.00" id="721" y1="250.00" style="stroke:blue;fill:blue;" x1="520.00" x2="450.00" /><line y2="250.00" id="722" y1="250.00" style="stroke:blue;fill:blue;" x1="520.00" x2="450.00" /><line y2="300.00" id="723" y1="250.00" style="stroke:blue;fill:blue;" x1="520.00" x2="520.00" /><line y2="300.00" id="724" y1="300.00" style="stroke:blue;fill:blue;" x1="520.00" x2="650.00" /><line y2="300.00" id="725" y1="300.00" style="stroke:blue;fill:blue;" x1="520.00" x2="450.00" /><line y2="250.00" id="726" y1="300.00" style="stroke:blue;fill:blue;" x1="520.00" x2="520.00" /><line y2="590.00" id="727" y1="660.00" style="stroke:blue;fill:blue;" x1="530.00" x2="460.00" /><line y2="610.00" id="728" y1="660.00" style="stroke:blue;fill:blue;" x1="530.00" x2="630.00" /><line y2="590.00" id="729" y1="510.00" style="stroke:blue;fill:blue;" x1="530.00" x2="460.00" /><line y2="540.00" id="730" y1="510.00" style="stroke:blue;fill:blue;" x1="530.00" x2="630.00" /><line y2="120.00" id="731" y1="50.00" style="stroke:blue;fill:blue;" x1="580.00" x2="380.00" /><line y2="120.00" id="732" y1="50.00" style="stroke:blue;fill:blue;" x1="580.00" x2="720.00" /><line y2="80.00" id="733" y1="50.00" style="stroke:blue;fill:blue;" x1="580.00" x2="780.00" /><line y2="120.00" id="734" y1="50.00" style="stroke:blue;fill:blue;" x1="580.00" x2="580.00" /><line y2="50.00" id="735" y1="50.00" style="stroke:blue;fill:blue;" x1="580.00" x2="700.00" /><line y2="150.00" id="736" y1="120.00" style="stroke:blue;fill:blue;" x1="580.00" x2="650.00" /><line y2="50.00" id="737" y1="120.00" style="stroke:blue;fill:blue;" x1="580.00" x2="580.00" /><line y2="260.00" id="738" y1="230.00" style="stroke:blue;fill:blue;" x1="660.00" x2="710.00" /><line y2="180.00" id="739" y1="230.00" style="stroke:blue;fill:blue;" x1="660.00" x2="720.00" /><line y2="200.00" id="740" y1="150.00" style="stroke:blue;fill:blue;" x1="650.00" x2="550.00" /><line y2="120.00" id="741" y1="150.00" style="stroke:blue;fill:blue;" x1="650.00" x2="720.00" /><line y2="120.00" id="742" y1="150.00" style="stroke:blue;fill:blue;" x1="650.00" x2="580.00" /><line y2="350.00" id="743" y1="300.00" style="stroke:blue;fill:blue;" x1="650.00" x2="750.00" /><line y2="260.00" id="744" y1="300.00" style="stroke:blue;fill:blue;" x1="650.00" x2="710.00" /><line y2="300.00" id="745" y1="300.00" style="stroke:blue;fill:blue;" x1="650.00" x2="520.00" /><line y2="360.00" id="746" y1="300.00" style="stroke:blue;fill:blue;" x1="650.00" x2="640.00" /><line y2="300.00" id="747" y1="360.00" style="stroke:blue;fill:blue;" x1="640.00" x2="650.00" /><line y2="690.00" id="748" y1="610.00" style="stroke:blue;fill:blue;" x1="630.00" x2="780.00" /><line y2="590.00" id="749" y1="610.00" style="stroke:blue;fill:blue;" x1="630.00" x2="460.00" /><line y2="540.00" id="750" y1="610.00" style="stroke:blue;fill:blue;" x1="630.00" x2="630.00" /><line y2="550.00" id="751" y1="610.00" style="stroke:blue;fill:blue;" x1="630.00" x2="750.00" /><line y2="660.00" id="752" y1="610.00" style="stroke:blue;fill:blue;" x1="630.00" x2="530.00" /><line y2="510.00" id="753" y1="540.00" style="stroke:blue;fill:blue;" x1="630.00" x2="530.00" /><line y2="550.00" id="754" y1="540.00" style="stroke:blue;fill:blue;" x1="630.00" x2="750.00" /><line y2="610.00" id="755" y1="540.00" style="stroke:blue;fill:blue;" x1="630.00" x2="630.00" /><line y2="50.00" id="756" y1="50.00" style="stroke:blue;fill:blue;" x1="700.00" x2="950.00" /><line y2="80.00" id="757" y1="50.00" style="stroke:blue;fill:blue;" x1="700.00" x2="780.00" /><line y2="50.00" id="758" y1="50.00" style="stroke:blue;fill:blue;" x1="700.00" x2="580.00" /><line y2="230.00" id="759" y1="180.00" style="stroke:blue;fill:blue;" x1="720.00" x2="660.00" /><line y2="200.00" id="760" y1="180.00" style="stroke:blue;fill:blue;" x1="720.00" x2="810.00" /><line y2="300.00" id="761" y1="260.00" style="stroke:blue;fill:blue;" x1="710.00" x2="650.00" /><line y2="230.00" id="762" y1="260.00" style="stroke:blue;fill:blue;" x1="710.00" x2="660.00" /><line y2="200.00" id="763" y1="260.00" style="stroke:blue;fill:blue;" x1="710.00" x2="810.00" /><line y2="150.00" id="764" y1="120.00" style="stroke:blue;fill:blue;" x1="720.00" x2="650.00" /><line y2="80.00" id="765" y1="120.00" style="stroke:blue;fill:blue;" x1="720.00" x2="780.00" /><line y2="50.00" id="766" y1="120.00" style="stroke:blue;fill:blue;" x1="720.00" x2="580.00" /><line y2="200.00" id="767" y1="120.00" style="stroke:blue;fill:blue;" x1="720.00" x2="810.00" /><line y2="300.00" id="768" y1="350.00" style="stroke:blue;fill:blue;" x1="750.00" x2="650.00" /><line y2="300.00" id="769" y1="350.00" style="stroke:blue;fill:blue;" x1="750.00" x2="780.00" /><line y2="540.00" id="770" y1="550.00" style="stroke:blue;fill:blue;" x1="750.00" x2="630.00" /><line y2="460.00" id="771" y1="550.00" style="stroke:blue;fill:blue;" x1="750.00" x2="950.00" /><line y2="610.00" id="772" y1="550.00" style="stroke:blue;fill:blue;" x1="750.00" x2="630.00" /><line y2="350.00" id="773" y1="300.00" style="stroke:blue;fill:blue;" x1="780.00" x2="750.00" /><line y2="200.00" id="774" y1="300.00" style="stroke:blue;fill:blue;" x1="780.00" x2="810.00" /><line y2="120.00" id="775" y1="80.00" style="stroke:blue;fill:blue;" x1="780.00" x2="720.00" /><line y2="50.00" id="776" y1="80.00" style="stroke:blue;fill:blue;" x1="780.00" x2="580.00" /><line y2="50.00" id="777" y1="80.00" style="stroke:blue;fill:blue;" x1="780.00" x2="700.00" /><line y2="120.00" id="778" y1="80.00" style="stroke:blue;fill:blue;" x1="780.00" x2="950.00" /><line y2="250.00" id="779" y1="200.00" style="stroke:blue;fill:blue;" x1="810.00" x2="890.00" /><line y2="120.00" id="780" y1="200.00" style="stroke:blue;fill:blue;" x1="810.00" x2="720.00" /><line y2="300.00" id="781" y1="200.00" style="stroke:blue;fill:blue;" x1="810.00" x2="780.00" /><line y2="260.00" id="782" y1="200.00" style="stroke:blue;fill:blue;" x1="810.00" x2="710.00" /><line y2="180.00" id="783" y1="200.00" style="stroke:blue;fill:blue;" x1="810.00" x2="720.00" /><line y2="120.00" id="784" y1="460.00" style="stroke:blue;fill:blue;" x1="950.00" x2="950.00" /><line y2="550.00" id="785" y1="460.00" style="stroke:blue;fill:blue;" x1="950.00" x2="750.00" /><line y2="80.00" id="786" y1="120.00" style="stroke:blue;fill:blue;" x1="950.00" x2="780.00" /><line y2="460.00" id="787" y1="120.00" style="stroke:blue;fill:blue;" x1="950.00" x2="950.00" /><line y2="20.00" id="788" y1="20.00" style="stroke:blue;fill:blue;" x1="50.00" x2="120.00" /><line y2="430.00" id="789" y1="430.00" style="stroke:blue;fill:blue;" x1="90.00" x2="190.00" /><line y2="550.00" id="790" y1="600.00" style="stroke:blue;fill:blue;" x1="190.00" x2="190.00" /><line y2="250.00" id="791" y1="200.00" style="stroke:blue;fill:blue;" x1="250.00" x2="300.00" /><line y2="50.00" id="792" y1="80.00" style="stroke:blue;fill:blue;" x1="320.00" x2="280.00" /><line y2="150.00" id="793" y1="200.00" style="stroke:blue;fill:blue;" x1="550.00" x2="650.00" /><line y2="610.00" id="794" y1="690.00" style="stroke:blue;fill:blue;" x1="780.00" x2="630.00" /><line y2="200.00" id="795" y1="250.00" style="stroke:blue;fill:blue;" x1="890.00" x2="810.00" /><line y2="50.00" id="796" y1="50.00" style="stroke:blue;fill:blue;" x1="950.00" x2="700.00" /></svg>
