<?xml version="1.0" standalone="yes"?><!DOCTYPE svg PUBLIC "-//W3C//DTD SVG 1.1//EN" "http://www.w3.org/Graphics/SVG/1.1/DTD/svg11.dtd"[]><svg width="1050.00" id="17372" height="800.00" xmlns="http://www.w3.org/2000/svg" xmlns:xlink="http://www.w3.org/1999/xlink"><rect height="5.00" width="5.00" Name="埃巴特" ID="30005062" y="720.00" id="17373" Region="柯埃佐" Type="system" x="60.00" /><text id="17374" x="60.00" y="720.00">埃巴特</text><rect height="5.00" width="5.00" Name="欧尔迪恩" ID="30005060" y="350.00" id="17376" Region="柯埃佐" Type="system" x="40.00" /><text id="17377" x="40.00" y="350.00">欧尔迪恩</text><rect height="5.00" width="5.00" Name="歇玛耶尔" ID="30005063" y="670.00" id="17379" Region="柯埃佐" Type="system" x="50.00" /><text id="17380" x="50.00" y="670.00">歇玛耶尔</text><rect height="5.00" width="5.00" Name="米厦" ID="30005059" y="380.00" id="17382" Region="柯埃佐" Type="system" x="80.00" /><text id="17383" x="80.00" y="380.00">米厦</text><rect height="5.00" width="5.00" Name="金科恩" ID="30005055" y="200.00" id="17385" Region="柯埃佐" Type="system" x="80.00" /><text id="17386" x="80.00" y="200.00">金科恩</text><rect height="5.00" width="5.00" Name="欧古瑟尔" ID="30005068" y="600.00" id="17388" Region="柯埃佐" Type="system" x="100.00" /><text id="17389" x="100.00" y="600.00">欧古瑟尔</text><rect height="5.00" width="5.00" Name="佐仑耶恩" ID="30005067" y="650.00" id="17391" Region="柯埃佐" Type="system" x="100.00" /><text id="17392" x="100.00" y="650.00">佐仑耶恩</text><rect height="5.00" width="5.00" Name="佩布赫" ID="30005061" y="450.00" id="17394" Region="柯埃佐" Type="system" x="120.00" /><text id="17395" x="120.00" y="450.00">佩布赫</text><rect height="5.00" width="5.00" Name="马弗拉" ID="30005064" y="680.00" id="17397" Region="柯埃佐" Type="system" x="150.00" /><text id="17398" x="150.00" y="680.00">马弗拉</text><rect height="5.00" width="5.00" Name="尼什尔" ID="30005058" y="400.00" id="17400" Region="柯埃佐" Type="system" x="150.00" /><text id="17401" x="150.00" y="400.00">尼什尔</text><rect height="5.00" width="5.00" Name="库鲁" ID="30005050" y="80.00" id="17403" Region="柯埃佐" Type="system" x="150.00" /><text id="17404" x="150.00" y="80.00">库鲁</text><rect height="5.00" width="5.00" Name="莎赫" ID="30005057" y="350.00" id="17406" Region="柯埃佐" Type="system" x="150.00" /><text id="17407" x="150.00" y="350.00">莎赫</text><rect height="5.00" width="5.00" Name="基扎马" ID="30005056" y="300.00" id="17409" Region="柯埃佐" Type="system" x="150.00" /><text id="17410" x="150.00" y="300.00">基扎马</text><rect height="5.00" width="5.00" Name="阿尔兹" ID="30005065" y="620.00" id="17412" Region="柯埃佐" Type="system" x="150.00" /><text id="17413" x="150.00" y="620.00">阿尔兹</text><rect height="5.00" width="5.00" Name="索欧米" ID="30005052" y="150.00" id="17415" Region="柯埃佐" Type="system" x="180.00" /><text id="17416" x="180.00" y="150.00">索欧米</text><rect height="5.00" width="5.00" Name="纳勒" ID="30005054" y="200.00" id="17418" Region="柯埃佐" Type="system" x="180.00" /><text id="17419" x="180.00" y="200.00">纳勒</text><rect height="5.00" width="5.00" Name="查欧加" ID="30005051" y="80.00" id="17421" Region="柯埃佐" Type="system" x="220.00" /><text id="17422" x="220.00" y="80.00">查欧加</text><rect height="5.00" width="5.00" Name="克里因" ID="30005066" y="570.00" id="17424" Region="柯埃佐" Type="system" x="190.00" /><text id="17425" x="190.00" y="570.00">克里因</text><rect height="5.00" width="5.00" Name="伊米尔" ID="30005053" y="120.00" id="17427" Region="柯埃佐" Type="system" x="280.00" /><text id="17428" x="280.00" y="120.00">伊米尔</text><rect height="5.00" width="5.00" Name="阿尔察" ID="30005086" y="20.00" id="17430" Region="柯埃佐" Type="system" x="300.00" /><text id="17431" x="300.00" y="20.00">阿尔察</text><rect height="5.00" width="5.00" Name="布里迪" ID="30005034" y="320.00" id="17433" Region="柯埃佐" Type="system" x="350.00" /><text id="17434" x="350.00" y="320.00">布里迪</text><rect height="5.00" width="5.00" Name="杰尼" ID="30005033" y="180.00" id="17436" Region="柯埃佐" Type="system" x="350.00" /><text id="17437" x="350.00" y="180.00">杰尼</text><rect height="5.00" width="5.00" Name="尼沙尔" ID="30005040" y="450.00" id="17439" Region="柯埃佐" Type="system" x="330.00" /><text id="17440" x="330.00" y="450.00">尼沙尔</text><rect height="5.00" width="5.00" Name="利帕尔" ID="30005087" y="80.00" id="17442" Region="柯埃佐" Type="system" x="380.00" /><text id="17443" x="380.00" y="80.00">利帕尔</text><rect height="5.00" width="5.00" Name="阮妮" ID="30005085" y="20.00" id="17445" Region="柯埃佐" Type="system" x="400.00" /><text id="17446" x="400.00" y="20.00">阮妮</text><rect height="5.00" width="5.00" Name="马萨努" ID="30005041" y="650.00" id="17448" Region="柯埃佐" Type="system" x="380.00" /><text id="17449" x="380.00" y="650.00">马萨努</text><rect height="5.00" width="5.00" Name="安姆多尼" ID="30005036" y="450.00" id="17451" Region="柯埃佐" Type="system" x="400.00" /><text id="17452" x="400.00" y="450.00">安姆多尼</text><rect height="5.00" width="5.00" Name="勒瓦" ID="30005039" y="550.00" id="17454" Region="柯埃佐" Type="system" x="400.00" /><text id="17455" x="400.00" y="550.00">勒瓦</text><rect height="5.00" width="5.00" Name="勒比亚" ID="30005031" y="200.00" id="17457" Region="柯埃佐" Type="system" x="400.00" /><text id="17458" x="400.00" y="200.00">勒比亚</text><rect height="5.00" width="5.00" Name="安米" ID="30005035" y="380.00" id="17460" Region="柯埃佐" Type="system" x="400.00" /><text id="17461" x="400.00" y="380.00">安米</text><rect height="5.00" width="5.00" Name="卡巴拉" ID="30005032" y="150.00" id="17463" Region="柯埃佐" Type="system" x="400.00" /><text id="17464" x="400.00" y="150.00">卡巴拉</text><rect height="5.00" width="5.00" Name="芬斯" ID="30005030" y="300.00" id="17466" Region="柯埃佐" Type="system" x="420.00" /><text id="17467" x="420.00" y="300.00">芬斯</text><rect height="5.00" width="5.00" Name="米罗纳" ID="30005084" y="50.00" id="17469" Region="柯埃佐" Type="system" x="450.00" /><text id="17470" x="450.00" y="50.00">米罗纳</text><rect height="5.00" width="5.00" Name="柯埃佐首星" ID="30005038" y="575.50" id="17472" Region="柯埃佐" Type="system" x="500.00" /><text id="17473" x="500.00" y="575.50">柯埃佐首星</text><rect height="5.00" width="5.00" Name="纳奎格德" ID="30005043" y="624.50" id="17475" Region="柯埃佐" Type="system" x="500.00" /><text id="17476" x="500.00" y="624.50">纳奎格德</text><rect height="5.00" width="5.00" Name="康诺班" ID="30045042" y="520.00" id="17478" Region="柯埃佐" Type="system" x="520.00" /><text id="17479" x="520.00" y="520.00">康诺班</text><rect height="5.00" width="5.00" Name="魔纳" ID="30005037" y="480.00" id="17481" Region="柯埃佐" Type="system" x="550.00" /><text id="17482" x="550.00" y="480.00">魔纳</text><rect height="5.00" width="5.00" Name="杰丹达恩" ID="30005083" y="50.00" id="17484" Region="柯埃佐" Type="system" x="550.00" /><text id="17485" x="550.00" y="50.00">杰丹达恩</text><rect height="5.00" width="5.00" Name="兰诺泽" ID="30005080" y="200.00" id="17487" Region="柯埃佐" Type="system" x="580.00" /><text id="17488" x="580.00" y="200.00">兰诺泽</text><rect height="5.00" width="5.00" Name="瑟米" ID="30005042" y="550.00" id="17490" Region="柯埃佐" Type="system" x="600.00" /><text id="17491" x="600.00" y="550.00">瑟米</text><rect height="5.00" width="5.00" Name="恩纳" ID="30005082" y="50.00" id="17493" Region="柯埃佐" Type="system" x="620.00" /><text id="17494" x="620.00" y="50.00">恩纳</text><rect height="5.00" width="5.00" Name="达然" ID="30005074" y="310.00" id="17496" Region="柯埃佐" Type="system" x="600.00" /><text id="17497" x="600.00" y="310.00">达然</text><rect height="5.00" width="5.00" Name="查克塔伦" ID="30035042" y="375.50" id="17499" Region="柯埃佐" Type="system" x="650.00" /><text id="17500" x="650.00" y="375.50">查克塔伦</text><rect height="5.00" width="5.00" Name="包法利" ID="30005048" y="424.50" id="17502" Region="柯埃佐" Type="system" x="650.00" /><text id="17503" x="650.00" y="424.50">包法利</text><rect height="5.00" width="5.00" Name="爱塔利" ID="30005077" y="150.00" id="17505" Region="柯埃佐" Type="system" x="650.00" /><text id="17506" x="650.00" y="150.00">爱塔利</text><rect height="5.00" width="5.00" Name="丹亚娜" ID="30005044" y="530.00" id="17508" Region="柯埃佐" Type="system" x="700.00" /><text id="17509" x="700.00" y="530.00">丹亚娜</text><rect height="5.00" width="5.00" Name="皮惹" ID="30005081" y="80.00" id="17511" Region="柯埃佐" Type="system" x="700.00" /><text id="17512" x="700.00" y="80.00">皮惹</text><rect height="5.00" width="5.00" Name="帕纳南" ID="30005073" y="280.00" id="17514" Region="柯埃佐" Type="system" x="700.00" /><text id="17515" x="700.00" y="280.00">帕纳南</text><rect height="5.00" width="5.00" Name="尼拜恩界" ID="30005047" y="400.00" id="17517" Region="柯埃佐" Type="system" x="750.00" /><text id="17518" x="750.00" y="400.00">尼拜恩界</text><rect height="5.00" width="5.00" Name="科坡罗" ID="30005078" y="130.00" id="17520" Region="柯埃佐" Type="system" x="740.00" /><text id="17521" x="740.00" y="130.00">科坡罗</text><rect height="5.00" width="5.00" Name="扎塔马卡" ID="30005079" y="80.00" id="17523" Region="柯埃佐" Type="system" x="800.00" /><text id="17524" x="800.00" y="80.00">扎塔马卡</text><rect height="5.00" width="5.00" Name="雪喀" ID="30005076" y="200.00" id="17526" Region="柯埃佐" Type="system" x="800.00" /><text id="17527" x="800.00" y="200.00">雪喀</text><rect height="5.00" width="5.00" Name="金喀" ID="30005046" y="380.00" id="17529" Region="柯埃佐" Type="system" x="800.00" /><text id="17530" x="800.00" y="380.00">金喀</text><rect height="5.00" width="5.00" Name="纳伊恩" ID="30005045" y="490.00" id="17532" Region="柯埃佐" Type="system" x="800.00" /><text id="17533" x="800.00" y="490.00">纳伊恩</text><rect height="5.00" width="5.00" Name="安恩那德" ID="30025042" y="320.00" id="17535" Region="柯埃佐" Type="system" x="820.00" /><text id="17536" x="820.00" y="320.00">安恩那德</text><rect height="5.00" width="5.00" Name="加德曼" ID="30005072" y="250.00" id="17538" Region="柯埃佐" Type="system" x="850.00" /><text id="17539" x="850.00" y="250.00">加德曼</text><rect height="5.00" width="5.00" Name="安朱比" ID="30005049" y="430.00" id="17541" Region="柯埃佐" Type="system" x="910.00" /><text id="17542" x="910.00" y="430.00">安朱比</text><rect height="5.00" width="5.00" Name="塔达丹" ID="30005070" y="300.00" id="17544" Region="柯埃佐" Type="system" x="900.00" /><text id="17545" x="900.00" y="300.00">塔达丹</text><rect height="5.00" width="5.00" Name="纳霍尔" ID="30005069" y="350.00" id="17547" Region="柯埃佐" Type="system" x="950.00" /><text id="17548" x="950.00" y="350.00">纳霍尔</text><rect height="5.00" width="5.00" Name="查拉斯" ID="30005071" y="300.00" id="17550" Region="柯埃佐" Type="system" x="1000.00" /><text id="17551" x="1000.00" y="300.00">查拉斯</text><rect height="5.00" width="5.00" Name="拉达里" ID="30005075" y="400.00" id="17553" Region="柯埃佐" Type="system" x="1000.00" /><text id="17554" x="1000.00" y="400.00">拉达里</text><rect height="5.00" width="5.00" Name="维翰" ID="30004246" y="150.00" id="17556" Region="艾里迪亚" Type="system" x="20.00" /><text id="17557" x="20.00" y="150.00">维翰</text><rect height="5.00" width="5.00" Name="纳赫米德尔" ID="30003922" y="760.00" id="17559" Region="卡尼迪" Type="system" x="20.00" /><text id="17560" x="20.00" y="760.00">纳赫米德尔</text><rect height="5.00" width="5.00" Name="蒙尼尤库" ID="30003881" y="50.00" id="17562" Region="卡尼迪" Type="system" x="50.00" /><text id="17563" x="50.00" y="50.00">蒙尼尤库</text><rect height="5.00" width="5.00" Name="纳莱" ID="30002202" y="250.00" id="17565" Region="多美" Type="system" x="350.00" /><text id="17566" x="350.00" y="250.00">纳莱</text><rect height="5.00" width="5.00" Name="伊维卡姆" ID="30003867" y="700.00" id="17568" Region="卡尼迪" Type="system" x="320.00" /><text id="17569" x="320.00" y="700.00">伊维卡姆</text><rect height="5.00" width="5.00" Name="孙尼尔" ID="30004101" y="720.00" id="17571" Region="卡多尔" Type="system" x="400.00" /><text id="17572" x="400.00" y="720.00">孙尼尔</text><rect height="5.00" width="5.00" Name="洛南尼姆" ID="30005236" y="180.00" id="17574" Region="吉勒西斯" Type="system" x="480.00" /><text id="17575" x="480.00" y="180.00">洛南尼姆</text><rect height="5.00" width="5.00" Name="莫利亚" ID="30003876" y="720.00" id="17577" Region="卡尼迪" Type="system" x="500.00" /><text id="17578" x="500.00" y="720.00">莫利亚</text><rect height="5.00" width="5.00" Name="丹塔恩" ID="30004097" y="400.00" id="17580" Region="卡多尔" Type="system" x="550.00" /><text id="17581" x="550.00" y="400.00">丹塔恩</text><rect height="5.00" width="5.00" Name="梅耐" ID="30005238" y="150.00" id="17583" Region="吉勒西斯" Type="system" x="600.00" /><text id="17584" x="600.00" y="150.00">梅耐</text><rect height="5.00" width="5.00" Name="艾玛" ID="30002187" y="650.00" id="17586" Region="多美" Type="system" x="640.00" /><text id="17587" x="640.00" y="650.00">艾玛</text><rect height="5.00" width="5.00" Name="萨科提" ID="30002215" y="200.00" id="17589" Region="多美" Type="system" x="900.00" /><text id="17590" x="900.00" y="200.00">萨科提</text><line y2="760.00" id="17592" y1="720.00" style="stroke:blue;fill:blue;" x1="60.00" x2="20.00" /><line y2="670.00" id="17593" y1="720.00" style="stroke:blue;fill:blue;" x1="60.00" x2="50.00" /><line y2="380.00" id="17594" y1="350.00" style="stroke:blue;fill:blue;" x1="40.00" x2="80.00" /><line y2="720.00" id="17595" y1="670.00" style="stroke:blue;fill:blue;" x1="50.00" x2="60.00" /><line y2="680.00" id="17596" y1="670.00" style="stroke:blue;fill:blue;" x1="50.00" x2="150.00" /><line y2="650.00" id="17597" y1="670.00" style="stroke:blue;fill:blue;" x1="50.00" x2="100.00" /><line y2="600.00" id="17598" y1="670.00" style="stroke:blue;fill:blue;" x1="50.00" x2="100.00" /><line y2="350.00" id="17599" y1="380.00" style="stroke:blue;fill:blue;" x1="80.00" x2="150.00" /><line y2="400.00" id="17600" y1="380.00" style="stroke:blue;fill:blue;" x1="80.00" x2="150.00" /><line y2="350.00" id="17601" y1="380.00" style="stroke:blue;fill:blue;" x1="80.00" x2="40.00" /><line y2="150.00" id="17602" y1="200.00" style="stroke:blue;fill:blue;" x1="80.00" x2="20.00" /><line y2="200.00" id="17603" y1="200.00" style="stroke:blue;fill:blue;" x1="80.00" x2="180.00" /><line y2="450.00" id="17604" y1="600.00" style="stroke:blue;fill:blue;" x1="100.00" x2="120.00" /><line y2="670.00" id="17605" y1="600.00" style="stroke:blue;fill:blue;" x1="100.00" x2="50.00" /><line y2="620.00" id="17606" y1="600.00" style="stroke:blue;fill:blue;" x1="100.00" x2="150.00" /><line y2="670.00" id="17607" y1="650.00" style="stroke:blue;fill:blue;" x1="100.00" x2="50.00" /><line y2="620.00" id="17608" y1="650.00" style="stroke:blue;fill:blue;" x1="100.00" x2="150.00" /><line y2="400.00" id="17609" y1="450.00" style="stroke:blue;fill:blue;" x1="120.00" x2="150.00" /><line y2="600.00" id="17610" y1="450.00" style="stroke:blue;fill:blue;" x1="120.00" x2="100.00" /><line y2="670.00" id="17611" y1="680.00" style="stroke:blue;fill:blue;" x1="150.00" x2="50.00" /><line y2="620.00" id="17612" y1="680.00" style="stroke:blue;fill:blue;" x1="150.00" x2="150.00" /><line y2="350.00" id="17613" y1="400.00" style="stroke:blue;fill:blue;" x1="150.00" x2="150.00" /><line y2="380.00" id="17614" y1="400.00" style="stroke:blue;fill:blue;" x1="150.00" x2="80.00" /><line y2="450.00" id="17615" y1="400.00" style="stroke:blue;fill:blue;" x1="150.00" x2="120.00" /><line y2="50.00" id="17616" y1="80.00" style="stroke:blue;fill:blue;" x1="150.00" x2="50.00" /><line y2="80.00" id="17617" y1="80.00" style="stroke:blue;fill:blue;" x1="150.00" x2="220.00" /><line y2="150.00" id="17618" y1="80.00" style="stroke:blue;fill:blue;" x1="150.00" x2="180.00" /><line y2="300.00" id="17619" y1="350.00" style="stroke:blue;fill:blue;" x1="150.00" x2="150.00" /><line y2="400.00" id="17620" y1="350.00" style="stroke:blue;fill:blue;" x1="150.00" x2="150.00" /><line y2="380.00" id="17621" y1="350.00" style="stroke:blue;fill:blue;" x1="150.00" x2="80.00" /><line y2="200.00" id="17622" y1="300.00" style="stroke:blue;fill:blue;" x1="150.00" x2="180.00" /><line y2="350.00" id="17623" y1="300.00" style="stroke:blue;fill:blue;" x1="150.00" x2="150.00" /><line y2="680.00" id="17624" y1="620.00" style="stroke:blue;fill:blue;" x1="150.00" x2="150.00" /><line y2="570.00" id="17625" y1="620.00" style="stroke:blue;fill:blue;" x1="150.00" x2="190.00" /><line y2="650.00" id="17626" y1="620.00" style="stroke:blue;fill:blue;" x1="150.00" x2="100.00" /><line y2="600.00" id="17627" y1="620.00" style="stroke:blue;fill:blue;" x1="150.00" x2="100.00" /><line y2="80.00" id="17628" y1="150.00" style="stroke:blue;fill:blue;" x1="180.00" x2="150.00" /><line y2="80.00" id="17629" y1="150.00" style="stroke:blue;fill:blue;" x1="180.00" x2="220.00" /><line y2="200.00" id="17630" y1="150.00" style="stroke:blue;fill:blue;" x1="180.00" x2="180.00" /><line y2="150.00" id="17631" y1="200.00" style="stroke:blue;fill:blue;" x1="180.00" x2="180.00" /><line y2="120.00" id="17632" y1="200.00" style="stroke:blue;fill:blue;" x1="180.00" x2="280.00" /><line y2="200.00" id="17633" y1="200.00" style="stroke:blue;fill:blue;" x1="180.00" x2="80.00" /><line y2="300.00" id="17634" y1="200.00" style="stroke:blue;fill:blue;" x1="180.00" x2="150.00" /><line y2="80.00" id="17635" y1="80.00" style="stroke:blue;fill:blue;" x1="220.00" x2="150.00" /><line y2="150.00" id="17636" y1="80.00" style="stroke:blue;fill:blue;" x1="220.00" x2="180.00" /><line y2="120.00" id="17637" y1="80.00" style="stroke:blue;fill:blue;" x1="220.00" x2="280.00" /><line y2="620.00" id="17638" y1="570.00" style="stroke:blue;fill:blue;" x1="190.00" x2="150.00" /><line y2="80.00" id="17639" y1="120.00" style="stroke:blue;fill:blue;" x1="280.00" x2="220.00" /><line y2="200.00" id="17640" y1="120.00" style="stroke:blue;fill:blue;" x1="280.00" x2="180.00" /><line y2="80.00" id="17641" y1="120.00" style="stroke:blue;fill:blue;" x1="280.00" x2="380.00" /><line y2="20.00" id="17642" y1="20.00" style="stroke:blue;fill:blue;" x1="300.00" x2="400.00" /><line y2="300.00" id="17643" y1="320.00" style="stroke:blue;fill:blue;" x1="350.00" x2="420.00" /><line y2="380.00" id="17644" y1="320.00" style="stroke:blue;fill:blue;" x1="350.00" x2="400.00" /><line y2="200.00" id="17645" y1="180.00" style="stroke:blue;fill:blue;" x1="350.00" x2="400.00" /><line y2="150.00" id="17646" y1="180.00" style="stroke:blue;fill:blue;" x1="350.00" x2="400.00" /><line y2="450.00" id="17647" y1="450.00" style="stroke:blue;fill:blue;" x1="330.00" x2="400.00" /><line y2="120.00" id="17648" y1="80.00" style="stroke:blue;fill:blue;" x1="380.00" x2="280.00" /><line y2="50.00" id="17649" y1="80.00" style="stroke:blue;fill:blue;" x1="380.00" x2="450.00" /><line y2="50.00" id="17650" y1="20.00" style="stroke:blue;fill:blue;" x1="400.00" x2="450.00" /><line y2="20.00" id="17651" y1="20.00" style="stroke:blue;fill:blue;" x1="400.00" x2="300.00" /><line y2="700.00" id="17652" y1="650.00" style="stroke:blue;fill:blue;" x1="380.00" x2="320.00" /><line y2="720.00" id="17653" y1="650.00" style="stroke:blue;fill:blue;" x1="380.00" x2="400.00" /><line y2="550.00" id="17654" y1="650.00" style="stroke:blue;fill:blue;" x1="380.00" x2="400.00" /><line y2="400.00" id="17655" y1="450.00" style="stroke:blue;fill:blue;" x1="400.00" x2="550.00" /><line y2="380.00" id="17656" y1="450.00" style="stroke:blue;fill:blue;" x1="400.00" x2="400.00" /><line y2="480.00" id="17657" y1="450.00" style="stroke:blue;fill:blue;" x1="400.00" x2="550.00" /><line y2="575.50" id="17658" y1="450.00" style="stroke:blue;fill:blue;" x1="400.00" x2="500.00" /><line y2="550.00" id="17659" y1="450.00" style="stroke:blue;fill:blue;" x1="400.00" x2="400.00" /><line y2="450.00" id="17660" y1="450.00" style="stroke:blue;fill:blue;" x1="400.00" x2="330.00" /><line y2="450.00" id="17661" y1="550.00" style="stroke:blue;fill:blue;" x1="400.00" x2="400.00" /><line y2="575.50" id="17662" y1="550.00" style="stroke:blue;fill:blue;" x1="400.00" x2="500.00" /><line y2="650.00" id="17663" y1="550.00" style="stroke:blue;fill:blue;" x1="400.00" x2="380.00" /><line y2="300.00" id="17664" y1="200.00" style="stroke:blue;fill:blue;" x1="400.00" x2="420.00" /><line y2="150.00" id="17665" y1="200.00" style="stroke:blue;fill:blue;" x1="400.00" x2="400.00" /><line y2="180.00" id="17666" y1="200.00" style="stroke:blue;fill:blue;" x1="400.00" x2="350.00" /><line y2="180.00" id="17667" y1="200.00" style="stroke:blue;fill:blue;" x1="400.00" x2="480.00" /><line y2="300.00" id="17668" y1="380.00" style="stroke:blue;fill:blue;" x1="400.00" x2="420.00" /><line y2="320.00" id="17669" y1="380.00" style="stroke:blue;fill:blue;" x1="400.00" x2="350.00" /><line y2="450.00" id="17670" y1="380.00" style="stroke:blue;fill:blue;" x1="400.00" x2="400.00" /><line y2="310.00" id="17671" y1="380.00" style="stroke:blue;fill:blue;" x1="400.00" x2="600.00" /><line y2="200.00" id="17672" y1="150.00" style="stroke:blue;fill:blue;" x1="400.00" x2="400.00" /><line y2="180.00" id="17673" y1="150.00" style="stroke:blue;fill:blue;" x1="400.00" x2="350.00" /><line y2="250.00" id="17674" y1="300.00" style="stroke:blue;fill:blue;" x1="420.00" x2="350.00" /><line y2="200.00" id="17675" y1="300.00" style="stroke:blue;fill:blue;" x1="420.00" x2="400.00" /><line y2="320.00" id="17676" y1="300.00" style="stroke:blue;fill:blue;" x1="420.00" x2="350.00" /><line y2="380.00" id="17677" y1="300.00" style="stroke:blue;fill:blue;" x1="420.00" x2="400.00" /><line y2="200.00" id="17678" y1="300.00" style="stroke:blue;fill:blue;" x1="420.00" x2="580.00" /><line y2="50.00" id="17679" y1="50.00" style="stroke:blue;fill:blue;" x1="450.00" x2="550.00" /><line y2="20.00" id="17680" y1="50.00" style="stroke:blue;fill:blue;" x1="450.00" x2="400.00" /><line y2="80.00" id="17681" y1="50.00" style="stroke:blue;fill:blue;" x1="450.00" x2="380.00" /><line y2="650.00" id="17682" y1="575.50" style="stroke:blue;fill:blue;" x1="500.00" x2="640.00" /><line y2="450.00" id="17683" y1="575.50" style="stroke:blue;fill:blue;" x1="500.00" x2="400.00" /><line y2="550.00" id="17684" y1="575.50" style="stroke:blue;fill:blue;" x1="500.00" x2="400.00" /><line y2="550.00" id="17685" y1="575.50" style="stroke:blue;fill:blue;" x1="500.00" x2="600.00" /><line y2="624.50" id="17686" y1="575.50" style="stroke:blue;fill:blue;" x1="500.00" x2="500.00" /><line y2="720.00" id="17687" y1="624.50" style="stroke:blue;fill:blue;" x1="500.00" x2="500.00" /><line y2="575.50" id="17688" y1="624.50" style="stroke:blue;fill:blue;" x1="500.00" x2="500.00" /><line y2="480.00" id="17689" y1="520.00" style="stroke:blue;fill:blue;" x1="520.00" x2="550.00" /><line y2="450.00" id="17690" y1="480.00" style="stroke:blue;fill:blue;" x1="550.00" x2="400.00" /><line y2="550.00" id="17691" y1="480.00" style="stroke:blue;fill:blue;" x1="550.00" x2="600.00" /><line y2="424.50" id="17692" y1="480.00" style="stroke:blue;fill:blue;" x1="550.00" x2="650.00" /><line y2="520.00" id="17693" y1="480.00" style="stroke:blue;fill:blue;" x1="550.00" x2="520.00" /><line y2="50.00" id="17694" y1="50.00" style="stroke:blue;fill:blue;" x1="550.00" x2="620.00" /><line y2="50.00" id="17695" y1="50.00" style="stroke:blue;fill:blue;" x1="550.00" x2="450.00" /><line y2="300.00" id="17696" y1="200.00" style="stroke:blue;fill:blue;" x1="580.00" x2="420.00" /><line y2="150.00" id="17697" y1="200.00" style="stroke:blue;fill:blue;" x1="580.00" x2="650.00" /><line y2="480.00" id="17698" y1="550.00" style="stroke:blue;fill:blue;" x1="600.00" x2="550.00" /><line y2="575.50" id="17699" y1="550.00" style="stroke:blue;fill:blue;" x1="600.00" x2="500.00" /><line y2="530.00" id="17700" y1="550.00" style="stroke:blue;fill:blue;" x1="600.00" x2="700.00" /><line y2="80.00" id="17701" y1="50.00" style="stroke:blue;fill:blue;" x1="620.00" x2="700.00" /><line y2="50.00" id="17702" y1="50.00" style="stroke:blue;fill:blue;" x1="620.00" x2="550.00" /><line y2="380.00" id="17703" y1="310.00" style="stroke:blue;fill:blue;" x1="600.00" x2="400.00" /><line y2="280.00" id="17704" y1="310.00" style="stroke:blue;fill:blue;" x1="600.00" x2="700.00" /><line y2="424.50" id="17705" y1="375.50" style="stroke:blue;fill:blue;" x1="650.00" x2="650.00" /><line y2="480.00" id="17706" y1="424.50" style="stroke:blue;fill:blue;" x1="650.00" x2="550.00" /><line y2="530.00" id="17707" y1="424.50" style="stroke:blue;fill:blue;" x1="650.00" x2="700.00" /><line y2="400.00" id="17708" y1="424.50" style="stroke:blue;fill:blue;" x1="650.00" x2="750.00" /><line y2="375.50" id="17709" y1="424.50" style="stroke:blue;fill:blue;" x1="650.00" x2="650.00" /><line y2="200.00" id="17710" y1="150.00" style="stroke:blue;fill:blue;" x1="650.00" x2="800.00" /><line y2="130.00" id="17711" y1="150.00" style="stroke:blue;fill:blue;" x1="650.00" x2="740.00" /><line y2="80.00" id="17712" y1="150.00" style="stroke:blue;fill:blue;" x1="650.00" x2="800.00" /><line y2="200.00" id="17713" y1="150.00" style="stroke:blue;fill:blue;" x1="650.00" x2="580.00" /><line y2="80.00" id="17714" y1="150.00" style="stroke:blue;fill:blue;" x1="650.00" x2="700.00" /><line y2="150.00" id="17715" y1="150.00" style="stroke:blue;fill:blue;" x1="650.00" x2="600.00" /><line y2="400.00" id="17716" y1="530.00" style="stroke:blue;fill:blue;" x1="700.00" x2="550.00" /><line y2="550.00" id="17717" y1="530.00" style="stroke:blue;fill:blue;" x1="700.00" x2="600.00" /><line y2="490.00" id="17718" y1="530.00" style="stroke:blue;fill:blue;" x1="700.00" x2="800.00" /><line y2="400.00" id="17719" y1="530.00" style="stroke:blue;fill:blue;" x1="700.00" x2="750.00" /><line y2="424.50" id="17720" y1="530.00" style="stroke:blue;fill:blue;" x1="700.00" x2="650.00" /><line y2="150.00" id="17721" y1="80.00" style="stroke:blue;fill:blue;" x1="700.00" x2="650.00" /><line y2="80.00" id="17722" y1="80.00" style="stroke:blue;fill:blue;" x1="700.00" x2="800.00" /><line y2="50.00" id="17723" y1="80.00" style="stroke:blue;fill:blue;" x1="700.00" x2="620.00" /><line y2="250.00" id="17724" y1="280.00" style="stroke:blue;fill:blue;" x1="700.00" x2="850.00" /><line y2="310.00" id="17725" y1="280.00" style="stroke:blue;fill:blue;" x1="700.00" x2="600.00" /><line y2="530.00" id="17726" y1="400.00" style="stroke:blue;fill:blue;" x1="750.00" x2="700.00" /><line y2="490.00" id="17727" y1="400.00" style="stroke:blue;fill:blue;" x1="750.00" x2="800.00" /><line y2="380.00" id="17728" y1="400.00" style="stroke:blue;fill:blue;" x1="750.00" x2="800.00" /><line y2="424.50" id="17729" y1="400.00" style="stroke:blue;fill:blue;" x1="750.00" x2="650.00" /><line y2="200.00" id="17730" y1="400.00" style="stroke:blue;fill:blue;" x1="750.00" x2="800.00" /><line y2="200.00" id="17731" y1="130.00" style="stroke:blue;fill:blue;" x1="740.00" x2="800.00" /><line y2="150.00" id="17732" y1="130.00" style="stroke:blue;fill:blue;" x1="740.00" x2="650.00" /><line y2="80.00" id="17733" y1="130.00" style="stroke:blue;fill:blue;" x1="740.00" x2="800.00" /><line y2="200.00" id="17734" y1="80.00" style="stroke:blue;fill:blue;" x1="800.00" x2="800.00" /><line y2="150.00" id="17735" y1="80.00" style="stroke:blue;fill:blue;" x1="800.00" x2="650.00" /><line y2="130.00" id="17736" y1="80.00" style="stroke:blue;fill:blue;" x1="800.00" x2="740.00" /><line y2="80.00" id="17737" y1="80.00" style="stroke:blue;fill:blue;" x1="800.00" x2="700.00" /><line y2="400.00" id="17738" y1="200.00" style="stroke:blue;fill:blue;" x1="800.00" x2="750.00" /><line y2="150.00" id="17739" y1="200.00" style="stroke:blue;fill:blue;" x1="800.00" x2="650.00" /><line y2="130.00" id="17740" y1="200.00" style="stroke:blue;fill:blue;" x1="800.00" x2="740.00" /><line y2="80.00" id="17741" y1="200.00" style="stroke:blue;fill:blue;" x1="800.00" x2="800.00" /><line y2="490.00" id="17742" y1="380.00" style="stroke:blue;fill:blue;" x1="800.00" x2="800.00" /><line y2="400.00" id="17743" y1="380.00" style="stroke:blue;fill:blue;" x1="800.00" x2="750.00" /><line y2="320.00" id="17744" y1="380.00" style="stroke:blue;fill:blue;" x1="800.00" x2="820.00" /><line y2="530.00" id="17745" y1="490.00" style="stroke:blue;fill:blue;" x1="800.00" x2="700.00" /><line y2="380.00" id="17746" y1="490.00" style="stroke:blue;fill:blue;" x1="800.00" x2="800.00" /><line y2="400.00" id="17747" y1="490.00" style="stroke:blue;fill:blue;" x1="800.00" x2="750.00" /><line y2="430.00" id="17748" y1="490.00" style="stroke:blue;fill:blue;" x1="800.00" x2="910.00" /><line y2="380.00" id="17749" y1="320.00" style="stroke:blue;fill:blue;" x1="820.00" x2="800.00" /><line y2="200.00" id="17750" y1="250.00" style="stroke:blue;fill:blue;" x1="850.00" x2="900.00" /><line y2="300.00" id="17751" y1="250.00" style="stroke:blue;fill:blue;" x1="850.00" x2="900.00" /><line y2="280.00" id="17752" y1="250.00" style="stroke:blue;fill:blue;" x1="850.00" x2="700.00" /><line y2="490.00" id="17753" y1="430.00" style="stroke:blue;fill:blue;" x1="910.00" x2="800.00" /><line y2="350.00" id="17754" y1="430.00" style="stroke:blue;fill:blue;" x1="910.00" x2="950.00" /><line y2="350.00" id="17755" y1="300.00" style="stroke:blue;fill:blue;" x1="900.00" x2="950.00" /><line y2="250.00" id="17756" y1="300.00" style="stroke:blue;fill:blue;" x1="900.00" x2="850.00" /><line y2="430.00" id="17757" y1="350.00" style="stroke:blue;fill:blue;" x1="950.00" x2="910.00" /><line y2="300.00" id="17758" y1="350.00" style="stroke:blue;fill:blue;" x1="950.00" x2="900.00" /><line y2="300.00" id="17759" y1="350.00" style="stroke:blue;fill:blue;" x1="950.00" x2="1000.00" /><line y2="400.00" id="17760" y1="350.00" style="stroke:blue;fill:blue;" x1="950.00" x2="1000.00" /><line y2="350.00" id="17761" y1="300.00" style="stroke:blue;fill:blue;" x1="1000.00" x2="950.00" /><line y2="400.00" id="17762" y1="300.00" style="stroke:blue;fill:blue;" x1="1000.00" x2="1000.00" /><line y2="350.00" id="17763" y1="400.00" style="stroke:blue;fill:blue;" x1="1000.00" x2="950.00" /><line y2="300.00" id="17764" y1="400.00" style="stroke:blue;fill:blue;" x1="1000.00" x2="1000.00" /><line y2="200.00" id="17765" y1="150.00" style="stroke:blue;fill:blue;" x1="20.00" x2="80.00" /><line y2="720.00" id="17766" y1="760.00" style="stroke:blue;fill:blue;" x1="20.00" x2="60.00" /><line y2="80.00" id="17767" y1="50.00" style="stroke:blue;fill:blue;" x1="50.00" x2="150.00" /><line y2="300.00" id="17768" y1="250.00" style="stroke:blue;fill:blue;" x1="350.00" x2="420.00" /><line y2="650.00" id="17769" y1="700.00" style="stroke:blue;fill:blue;" x1="320.00" x2="380.00" /><line y2="650.00" id="17770" y1="720.00" style="stroke:blue;fill:blue;" x1="400.00" x2="380.00" /><line y2="200.00" id="17771" y1="180.00" style="stroke:blue;fill:blue;" x1="480.00" x2="400.00" /><line y2="150.00" id="17772" y1="180.00" style="stroke:blue;fill:blue;" x1="480.00" x2="600.00" /><line y2="624.50" id="17773" y1="720.00" style="stroke:blue;fill:blue;" x1="500.00" x2="500.00" /><line y2="450.00" id="17774" y1="400.00" style="stroke:blue;fill:blue;" x1="550.00" x2="400.00" /><line y2="530.00" id="17775" y1="400.00" style="stroke:blue;fill:blue;" x1="550.00" x2="700.00" /><line y2="150.00" id="17776" y1="150.00" style="stroke:blue;fill:blue;" x1="600.00" x2="650.00" /><line y2="180.00" id="17777" y1="150.00" style="stroke:blue;fill:blue;" x1="600.00" x2="480.00" /><line y2="575.50" id="17778" y1="650.00" style="stroke:blue;fill:blue;" x1="640.00" x2="500.00" /><line y2="250.00" id="17779" y1="200.00" style="stroke:blue;fill:blue;" x1="900.00" x2="850.00" /></svg>
