<?xml version="1.0" standalone="yes"?><!DOCTYPE svg PUBLIC "-//W3C//DTD SVG 1.1//EN" "http://www.w3.org/Graphics/SVG/1.1/DTD/svg11.dtd"[]><svg width="1050.00" id="33139" height="800.00" xmlns="http://www.w3.org/2000/svg" xmlns:xlink="http://www.w3.org/1999/xlink"><rect height="5.00" width="5.00" Name="乌特拉" ID="30000157" y="350.00" id="33140" Region="波赫文" Type="system" x="920.00" /><text id="33141" x="920.00" y="350.00">乌特拉</text><rect height="5.00" width="5.00" Name="欧塔诺米" ID="30000192" y="560.00" id="33143" Region="波赫文" Type="system" x="610.00" /><text id="33144" x="610.00" y="560.00">欧塔诺米</text><rect height="5.00" width="5.00" Name="吉诺" ID="30001372" y="400.00" id="33146" Region="波赫文" Type="system" x="800.00" /><text id="33147" x="800.00" y="400.00">吉诺</text><rect height="5.00" width="5.00" Name="纳瓦拉" ID="30001445" y="450.00" id="33149" Region="波赫文" Type="system" x="880.00" /><text id="33150" x="880.00" y="450.00">纳瓦拉</text><rect height="5.00" width="5.00" Name="克里拉德" ID="30002079" y="520.00" id="33152" Region="波赫文" Type="system" x="700.00" /><text id="33153" x="700.00" y="520.00">克里拉德</text><rect height="5.00" width="5.00" Name="卡诺拉" ID="30002737" y="480.00" id="33155" Region="波赫文" Type="system" x="790.00" /><text id="33156" x="790.00" y="480.00">卡诺拉</text><rect height="5.00" width="5.00" Name="伊杰巴尼尔" ID="30005005" y="310.00" id="33158" Region="波赫文" Type="system" x="830.00" /><text id="33159" x="830.00" y="310.00">伊杰巴尼尔</text><rect height="5.00" width="5.00" Name="萨肯达" ID="30010141" y="220.00" id="33161" Region="波赫文" Type="system" x="650.00" /><text id="33162" x="650.00" y="220.00">萨肯达</text><rect height="5.00" width="5.00" Name="克莫" ID="30031392" y="270.00" id="33164" Region="波赫文" Type="system" x="750.00" /><text id="33165" x="750.00" y="270.00">克莫</text><rect height="5.00" width="5.00" Name="库哈拉赫" ID="30000021" y="500.00" id="33167" Region="波赫文" Type="system" x="130.00" /><text id="33168" x="130.00" y="500.00">库哈拉赫</text><rect height="5.00" width="5.00" Name="拿尼" ID="30001413" y="660.00" id="33170" Region="波赫文" Type="system" x="370.00" /><text id="33171" x="370.00" y="660.00">拿尼</text><rect height="5.00" width="5.00" Name="哈洱瓦" ID="30002225" y="680.00" id="33173" Region="波赫文" Type="system" x="110.00" /><text id="33174" x="110.00" y="680.00">哈洱瓦</text><rect height="5.00" width="5.00" Name="斯卡尔克恩" ID="30002411" y="700.00" id="33176" Region="波赫文" Type="system" x="260.00" /><text id="33177" x="260.00" y="700.00">斯卡尔克恩</text><rect height="5.00" width="5.00" Name="图努但" ID="30002770" y="580.00" id="33179" Region="波赫文" Type="system" x="120.00" /><text id="33180" x="120.00" y="580.00">图努但</text><rect height="5.00" width="5.00" Name="拉拉沃斯" ID="30003495" y="750.00" id="33182" Region="波赫文" Type="system" x="150.00" /><text id="33183" x="150.00" y="750.00">拉拉沃斯</text><rect height="5.00" width="5.00" Name="米亚尔加" ID="30003504" y="650.00" id="33185" Region="波赫文" Type="system" x="200.00" /><text id="33186" x="200.00" y="650.00">米亚尔加</text><rect height="5.00" width="5.00" Name="乌西里奇" ID="30040141" y="620.00" id="33188" Region="波赫文" Type="system" x="450.00" /><text id="33189" x="450.00" y="620.00">乌西里奇</text><rect height="5.00" width="5.00" Name="艾特拉" ID="30045328" y="410.00" id="33191" Region="波赫文" Type="system" x="140.00" /><text id="33192" x="140.00" y="410.00">艾特拉</text><rect height="5.00" width="5.00" Name="维拉希达" ID="30000206" y="230.00" id="33194" Region="波赫文" Type="system" x="160.00" /><text id="33195" x="160.00" y="230.00">维拉希达</text><rect height="5.00" width="5.00" Name="埃瓦萨拉斯" ID="30001381" y="180.00" id="33197" Region="波赫文" Type="system" x="560.00" /><text id="33198" x="560.00" y="180.00">埃瓦萨拉斯</text><rect height="5.00" width="5.00" Name="埃拉" ID="30002652" y="150.00" id="33200" Region="波赫文" Type="system" x="170.00" /><text id="33201" x="170.00" y="150.00">埃拉</text><rect height="5.00" width="5.00" Name="阿尔谢" ID="30002702" y="120.00" id="33203" Region="波赫文" Type="system" x="250.00" /><text id="33204" x="250.00" y="120.00">阿尔谢</text><rect height="5.00" width="5.00" Name="库瓦诺加" ID="30002797" y="140.00" id="33206" Region="波赫文" Type="system" x="480.00" /><text id="33207" x="480.00" y="140.00">库瓦诺加</text><rect height="5.00" width="5.00" Name="安吉蒙勒" ID="30003046" y="50.00" id="33209" Region="波赫文" Type="system" x="280.00" /><text id="33210" x="280.00" y="50.00">安吉蒙勒</text><rect height="5.00" width="5.00" Name="瓦勒" ID="30005029" y="80.00" id="33212" Region="波赫文" Type="system" x="180.00" /><text id="33213" x="180.00" y="80.00">瓦勒</text><rect height="5.00" width="5.00" Name="森达" ID="30020141" y="300.00" id="33215" Region="波赫文" Type="system" x="150.00" /><text id="33216" x="150.00" y="300.00">森达</text><rect height="5.00" width="5.00" Name="伊切尼亚" ID="30045329" y="100.00" id="33218" Region="波赫文" Type="system" x="380.00" /><text id="33219" x="380.00" y="100.00">伊切尼亚</text><line y2="400.00" id="33221" y1="350.00" style="stroke:blue;fill:blue;" x1="920.00" x2="800.00" /><line y2="450.00" id="33222" y1="350.00" style="stroke:blue;fill:blue;" x1="920.00" x2="880.00" /><line y2="310.00" id="33223" y1="350.00" style="stroke:blue;fill:blue;" x1="920.00" x2="830.00" /><line y2="520.00" id="33224" y1="560.00" style="stroke:blue;fill:blue;" x1="610.00" x2="700.00" /><line y2="620.00" id="33225" y1="560.00" style="stroke:blue;fill:blue;" x1="610.00" x2="450.00" /><line y2="350.00" id="33226" y1="400.00" style="stroke:blue;fill:blue;" x1="800.00" x2="920.00" /><line y2="450.00" id="33227" y1="400.00" style="stroke:blue;fill:blue;" x1="800.00" x2="880.00" /><line y2="350.00" id="33228" y1="450.00" style="stroke:blue;fill:blue;" x1="880.00" x2="920.00" /><line y2="400.00" id="33229" y1="450.00" style="stroke:blue;fill:blue;" x1="880.00" x2="800.00" /><line y2="480.00" id="33230" y1="450.00" style="stroke:blue;fill:blue;" x1="880.00" x2="790.00" /><line y2="560.00" id="33231" y1="520.00" style="stroke:blue;fill:blue;" x1="700.00" x2="610.00" /><line y2="480.00" id="33232" y1="520.00" style="stroke:blue;fill:blue;" x1="700.00" x2="790.00" /><line y2="450.00" id="33233" y1="480.00" style="stroke:blue;fill:blue;" x1="790.00" x2="880.00" /><line y2="520.00" id="33234" y1="480.00" style="stroke:blue;fill:blue;" x1="790.00" x2="700.00" /><line y2="350.00" id="33235" y1="310.00" style="stroke:blue;fill:blue;" x1="830.00" x2="920.00" /><line y2="270.00" id="33236" y1="310.00" style="stroke:blue;fill:blue;" x1="830.00" x2="750.00" /><line y2="180.00" id="33237" y1="220.00" style="stroke:blue;fill:blue;" x1="650.00" x2="560.00" /><line y2="270.00" id="33238" y1="220.00" style="stroke:blue;fill:blue;" x1="650.00" x2="750.00" /><line y2="310.00" id="33239" y1="270.00" style="stroke:blue;fill:blue;" x1="750.00" x2="830.00" /><line y2="220.00" id="33240" y1="270.00" style="stroke:blue;fill:blue;" x1="750.00" x2="650.00" /><line y2="580.00" id="33241" y1="500.00" style="stroke:blue;fill:blue;" x1="130.00" x2="120.00" /><line y2="410.00" id="33242" y1="500.00" style="stroke:blue;fill:blue;" x1="130.00" x2="140.00" /><line y2="700.00" id="33243" y1="660.00" style="stroke:blue;fill:blue;" x1="370.00" x2="260.00" /><line y2="620.00" id="33244" y1="660.00" style="stroke:blue;fill:blue;" x1="370.00" x2="450.00" /><line y2="580.00" id="33245" y1="680.00" style="stroke:blue;fill:blue;" x1="110.00" x2="120.00" /><line y2="750.00" id="33246" y1="680.00" style="stroke:blue;fill:blue;" x1="110.00" x2="150.00" /><line y2="650.00" id="33247" y1="680.00" style="stroke:blue;fill:blue;" x1="110.00" x2="200.00" /><line y2="660.00" id="33248" y1="700.00" style="stroke:blue;fill:blue;" x1="260.00" x2="370.00" /><line y2="750.00" id="33249" y1="700.00" style="stroke:blue;fill:blue;" x1="260.00" x2="150.00" /><line y2="500.00" id="33250" y1="580.00" style="stroke:blue;fill:blue;" x1="120.00" x2="130.00" /><line y2="680.00" id="33251" y1="580.00" style="stroke:blue;fill:blue;" x1="120.00" x2="110.00" /><line y2="680.00" id="33252" y1="750.00" style="stroke:blue;fill:blue;" x1="150.00" x2="110.00" /><line y2="700.00" id="33253" y1="750.00" style="stroke:blue;fill:blue;" x1="150.00" x2="260.00" /><line y2="650.00" id="33254" y1="750.00" style="stroke:blue;fill:blue;" x1="150.00" x2="200.00" /><line y2="680.00" id="33255" y1="650.00" style="stroke:blue;fill:blue;" x1="200.00" x2="110.00" /><line y2="750.00" id="33256" y1="650.00" style="stroke:blue;fill:blue;" x1="200.00" x2="150.00" /><line y2="560.00" id="33257" y1="620.00" style="stroke:blue;fill:blue;" x1="450.00" x2="610.00" /><line y2="660.00" id="33258" y1="620.00" style="stroke:blue;fill:blue;" x1="450.00" x2="370.00" /><line y2="500.00" id="33259" y1="410.00" style="stroke:blue;fill:blue;" x1="140.00" x2="130.00" /><line y2="300.00" id="33260" y1="410.00" style="stroke:blue;fill:blue;" x1="140.00" x2="150.00" /><line y2="150.00" id="33261" y1="230.00" style="stroke:blue;fill:blue;" x1="160.00" x2="170.00" /><line y2="300.00" id="33262" y1="230.00" style="stroke:blue;fill:blue;" x1="160.00" x2="150.00" /><line y2="140.00" id="33263" y1="180.00" style="stroke:blue;fill:blue;" x1="560.00" x2="480.00" /><line y2="220.00" id="33264" y1="180.00" style="stroke:blue;fill:blue;" x1="560.00" x2="650.00" /><line y2="230.00" id="33265" y1="150.00" style="stroke:blue;fill:blue;" x1="170.00" x2="160.00" /><line y2="80.00" id="33266" y1="150.00" style="stroke:blue;fill:blue;" x1="170.00" x2="180.00" /><line y2="50.00" id="33267" y1="120.00" style="stroke:blue;fill:blue;" x1="250.00" x2="280.00" /><line y2="80.00" id="33268" y1="120.00" style="stroke:blue;fill:blue;" x1="250.00" x2="180.00" /><line y2="180.00" id="33269" y1="140.00" style="stroke:blue;fill:blue;" x1="480.00" x2="560.00" /><line y2="100.00" id="33270" y1="140.00" style="stroke:blue;fill:blue;" x1="480.00" x2="380.00" /><line y2="120.00" id="33271" y1="50.00" style="stroke:blue;fill:blue;" x1="280.00" x2="250.00" /><line y2="80.00" id="33272" y1="50.00" style="stroke:blue;fill:blue;" x1="280.00" x2="180.00" /><line y2="100.00" id="33273" y1="50.00" style="stroke:blue;fill:blue;" x1="280.00" x2="380.00" /><line y2="150.00" id="33274" y1="80.00" style="stroke:blue;fill:blue;" x1="180.00" x2="170.00" /><line y2="120.00" id="33275" y1="80.00" style="stroke:blue;fill:blue;" x1="180.00" x2="250.00" /><line y2="50.00" id="33276" y1="80.00" style="stroke:blue;fill:blue;" x1="180.00" x2="280.00" /><line y2="230.00" id="33277" y1="300.00" style="stroke:blue;fill:blue;" x1="150.00" x2="160.00" /><line y2="410.00" id="33278" y1="300.00" style="stroke:blue;fill:blue;" x1="150.00" x2="140.00" /><line y2="140.00" id="33279" y1="100.00" style="stroke:blue;fill:blue;" x1="380.00" x2="480.00" /><line y2="50.00" id="33280" y1="100.00" style="stroke:blue;fill:blue;" x1="380.00" x2="280.00" /></svg>
