<?xml version="1.0" standalone="yes"?><!DOCTYPE svg PUBLIC "-//W3C//DTD SVG 1.1//EN" "http://www.w3.org/Graphics/SVG/1.1/DTD/svg11.dtd"[]><svg width="1050.00" id="6521" height="800.00" xmlns="http://www.w3.org/2000/svg" xmlns:xlink="http://www.w3.org/1999/xlink"><rect height="5.00" width="5.00" Name="尼德博拉" ID="30003006" y="370.00" id="6522" Region="破碎" Type="system" x="50.00" /><text id="6523" x="50.00" y="370.00">尼德博拉</text><rect height="5.00" width="5.00" Name="乌勒拉" ID="30003004" y="320.00" id="6525" Region="破碎" Type="system" x="50.00" /><text id="6526" x="50.00" y="320.00">乌勒拉</text><rect height="5.00" width="5.00" Name="帕皮斯" ID="30003008" y="420.00" id="6528" Region="破碎" Type="system" x="50.00" /><text id="6529" x="50.00" y="420.00">帕皮斯</text><rect height="5.00" width="5.00" Name="法克顿" ID="30003002" y="270.00" id="6531" Region="破碎" Type="system" x="50.00" /><text id="6532" x="50.00" y="270.00">法克顿</text><rect height="5.00" width="5.00" Name="埃尔维伊" ID="30003007" y="420.00" id="6534" Region="破碎" Type="system" x="150.00" /><text id="6535" x="150.00" y="420.00">埃尔维伊</text><rect height="5.00" width="5.00" Name="米里" ID="30003001" y="270.00" id="6537" Region="破碎" Type="system" x="150.00" /><text id="6538" x="150.00" y="270.00">米里</text><rect height="5.00" width="5.00" Name="赫勒南" ID="30003003" y="320.00" id="6540" Region="破碎" Type="system" x="150.00" /><text id="6541" x="150.00" y="320.00">赫勒南</text><rect height="5.00" width="5.00" Name="乌克提亚德" ID="30003005" y="370.00" id="6543" Region="破碎" Type="system" x="150.00" /><text id="6544" x="150.00" y="370.00">乌克提亚德</text><rect height="5.00" width="5.00" Name="哈马" ID="30002981" y="100.00" id="6546" Region="破碎" Type="system" x="180.00" /><text id="6547" x="180.00" y="100.00">哈马</text><rect height="5.00" width="5.00" Name="乌萨德" ID="30002987" y="710.00" id="6549" Region="破碎" Type="system" x="160.00" /><text id="6550" x="160.00" y="710.00">乌萨德</text><rect height="5.00" width="5.00" Name="埃拉亚尔" ID="30002977" y="190.00" id="6552" Region="破碎" Type="system" x="210.00" /><text id="6553" x="210.00" y="190.00">埃拉亚尔</text><rect height="5.00" width="5.00" Name="阿斯戈德" ID="30002978" y="130.00" id="6555" Region="破碎" Type="system" x="270.00" /><text id="6556" x="270.00" y="130.00">阿斯戈德</text><rect height="5.00" width="5.00" Name="塔拉燃" ID="30002979" y="80.00" id="6558" Region="破碎" Type="system" x="250.00" /><text id="6559" x="250.00" y="80.00">塔拉燃</text><rect height="5.00" width="5.00" Name="坦卡拉" ID="30003000" y="580.00" id="6561" Region="破碎" Type="system" x="250.00" /><text id="6562" x="250.00" y="580.00">坦卡拉</text><rect height="5.00" width="5.00" Name="伊巴什" ID="30002984" y="710.00" id="6564" Region="破碎" Type="system" x="230.00" /><text id="6565" x="230.00" y="710.00">伊巴什</text><rect height="5.00" width="5.00" Name="拉巴比" ID="30002976" y="210.00" id="6567" Region="破碎" Type="system" x="300.00" /><text id="6568" x="300.00" y="210.00">拉巴比</text><rect height="5.00" width="5.00" Name="索姗" ID="30002980" y="120.00" id="6570" Region="破碎" Type="system" x="350.00" /><text id="6571" x="350.00" y="120.00">索姗</text><rect height="5.00" width="5.00" Name="罗什扎尔" ID="30002975" y="250.00" id="6573" Region="破碎" Type="system" x="330.00" /><text id="6574" x="330.00" y="250.00">罗什扎尔</text><rect height="5.00" width="5.00" Name="伊茨亚米" ID="30002985" y="690.00" id="6576" Region="破碎" Type="system" x="310.00" /><text id="6577" x="310.00" y="690.00">伊茨亚米</text><rect height="5.00" width="5.00" Name="苏萨特" ID="30002983" y="740.00" id="6579" Region="破碎" Type="system" x="310.00" /><text id="6580" x="310.00" y="740.00">苏萨特</text><rect height="5.00" width="5.00" Name="莎斯塔尔" ID="30002999" y="630.00" id="6582" Region="破碎" Type="system" x="380.00" /><text id="6583" x="380.00" y="630.00">莎斯塔尔</text><rect height="5.00" width="5.00" Name="娜伊尔" ID="30002995" y="500.00" id="6585" Region="破碎" Type="system" x="380.00" /><text id="6586" x="380.00" y="500.00">娜伊尔</text><rect height="5.00" width="5.00" Name="塔辛纳茨" ID="30002966" y="321.91" id="6588" Region="破碎" Type="system" x="420.96" /><text id="6589" x="420.96" y="321.91">塔辛纳茨</text><rect height="5.00" width="5.00" Name="蒂尔拉" ID="30002967" y="380.00" id="6591" Region="破碎" Type="system" x="420.00" /><text id="6592" x="420.00" y="380.00">蒂尔拉</text><rect height="5.00" width="5.00" Name="下德比" ID="30002996" y="530.00" id="6594" Region="破碎" Type="system" x="440.00" /><text id="6595" x="440.00" y="530.00">下德比</text><rect height="5.00" width="5.00" Name="拉哈达隆" ID="30002982" y="710.00" id="6597" Region="破碎" Type="system" x="390.00" /><text id="6598" x="390.00" y="710.00">拉哈达隆</text><rect height="5.00" width="5.00" Name="俄扎拉" ID="30002962" y="50.00" id="6600" Region="破碎" Type="system" x="450.00" /><text id="6601" x="450.00" y="50.00">俄扎拉</text><rect height="5.00" width="5.00" Name="阿尔扎德" ID="30002960" y="100.00" id="6603" Region="破碎" Type="system" x="450.00" /><text id="6604" x="450.00" y="100.00">阿尔扎德</text><rect height="5.00" width="5.00" Name="蒙多利" ID="30002986" y="660.00" id="6606" Region="破碎" Type="system" x="450.00" /><text id="6607" x="450.00" y="660.00">蒙多利</text><rect height="5.00" width="5.00" Name="恩诺姆" ID="30002997" y="590.00" id="6609" Region="破碎" Type="system" x="460.00" /><text id="6610" x="460.00" y="590.00">恩诺姆</text><rect height="5.00" width="5.00" Name="切文卡" ID="30002965" y="320.00" id="6612" Region="破碎" Type="system" x="520.00" /><text id="6613" x="520.00" y="320.00">切文卡</text><rect height="5.00" width="5.00" Name="迪塔尔" ID="30002968" y="375.50" id="6615" Region="破碎" Type="system" x="520.00" /><text id="6616" x="520.00" y="375.50">迪塔尔</text><rect height="5.00" width="5.00" Name="西非拉尔" ID="30002959" y="100.00" id="6618" Region="破碎" Type="system" x="520.00" /><text id="6619" x="520.00" y="100.00">西非拉尔</text><rect height="5.00" width="5.00" Name="欧耶曼" ID="30002961" y="150.00" id="6621" Region="破碎" Type="system" x="520.00" /><text id="6622" x="520.00" y="150.00">欧耶曼</text><rect height="5.00" width="5.00" Name="上德比" ID="30002998" y="560.00" id="6624" Region="破碎" Type="system" x="520.00" /><text id="6625" x="520.00" y="560.00">上德比</text><rect height="5.00" width="5.00" Name="拉迪亚哈" ID="30002989" y="500.00" id="6627" Region="破碎" Type="system" x="580.00" /><text id="6628" x="580.00" y="500.00">拉迪亚哈</text><rect height="5.00" width="5.00" Name="纳克特勒" ID="30002988" y="580.00" id="6630" Region="破碎" Type="system" x="580.00" /><text id="6631" x="580.00" y="580.00">纳克特勒</text><rect height="5.00" width="5.00" Name="哈克什马" ID="30002990" y="630.00" id="6633" Region="破碎" Type="system" x="580.00" /><text id="6634" x="580.00" y="630.00">哈克什马</text><rect height="5.00" width="5.00" Name="若尔" ID="30002958" y="100.00" id="6636" Region="破碎" Type="system" x="600.00" /><text id="6637" x="600.00" y="100.00">若尔</text><rect height="5.00" width="5.00" Name="茨维" ID="30002957" y="150.00" id="6639" Region="破碎" Type="system" x="600.00" /><text id="6640" x="600.00" y="150.00">茨维</text><rect height="5.00" width="5.00" Name="厄瑟斯坎马" ID="30002964" y="320.00" id="6642" Region="破碎" Type="system" x="620.00" /><text id="6643" x="620.00" y="320.00">厄瑟斯坎马</text><rect height="5.00" width="5.00" Name="尤德拉" ID="30002991" y="500.00" id="6645" Region="破碎" Type="system" x="650.00" /><text id="6646" x="650.00" y="500.00">尤德拉</text><rect height="5.00" width="5.00" Name="瑞瓦耶德" ID="30002993" y="600.00" id="6648" Region="破碎" Type="system" x="700.00" /><text id="6649" x="700.00" y="600.00">瑞瓦耶德</text><rect height="5.00" width="5.00" Name="欧丁" ID="30002963" y="300.00" id="6651" Region="破碎" Type="system" x="700.00" /><text id="6652" x="700.00" y="300.00">欧丁</text><rect height="5.00" width="5.00" Name="阿克苏" ID="30002992" y="500.00" id="6654" Region="破碎" Type="system" x="750.00" /><text id="6655" x="750.00" y="500.00">阿克苏</text><rect height="5.00" width="5.00" Name="哈提" ID="30002994" y="580.00" id="6657" Region="破碎" Type="system" x="750.00" /><text id="6658" x="750.00" y="580.00">哈提</text><rect height="5.00" width="5.00" Name="欧西德" ID="30002970" y="250.00" id="6660" Region="破碎" Type="system" x="750.00" /><text id="6661" x="750.00" y="250.00">欧西德</text><rect height="5.00" width="5.00" Name="萨索逖库" ID="30002971" y="220.00" id="6663" Region="破碎" Type="system" x="800.00" /><text id="6664" x="800.00" y="220.00">萨索逖库</text><rect height="5.00" width="5.00" Name="莫哈托尔" ID="30002974" y="121.57" id="6666" Region="破碎" Type="system" x="798.92" /><text id="6667" x="798.92" y="121.57">莫哈托尔</text><rect height="5.00" width="5.00" Name="戈忒" ID="30002972" y="170.56" id="6669" Region="破碎" Type="system" x="800.01" /><text id="6670" x="800.01" y="170.56">戈忒</text><rect height="5.00" width="5.00" Name="尤洱丹" ID="30002969" y="77.87" id="6672" Region="破碎" Type="system" x="821.07" /><text id="6673" x="821.07" y="77.87">尤洱丹</text><rect height="5.00" width="5.00" Name="里苏德尔" ID="30002973" y="50.00" id="6675" Region="破碎" Type="system" x="880.00" /><text id="6676" x="880.00" y="50.00">里苏德尔</text><rect height="5.00" width="5.00" Name="霍拉" ID="30003067" y="278.09" id="6678" Region="幽暗之域" Type="system" x="399.04" /><text id="6679" x="399.04" y="278.09">霍拉</text><rect height="5.00" width="5.00" Name="欧约纳塔" ID="30003088" y="180.00" id="6681" Region="幽暗之域" Type="system" x="420.00" /><text id="6682" x="420.00" y="180.00">欧约纳塔</text><rect height="5.00" width="5.00" Name="纳卡赫" ID="30000072" y="760.00" id="6684" Region="德里克" Type="system" x="430.00" /><text id="6685" x="430.00" y="760.00">纳卡赫</text><rect height="5.00" width="5.00" Name="瓦尔蒂" ID="30002538" y="20.00" id="6687" Region="西玛特尔" Type="system" x="500.00" /><text id="6688" x="500.00" y="20.00">瓦尔蒂</text><rect height="5.00" width="5.00" Name="KBP7-G" ID="30003729" y="424.50" id="6690" Region="普罗维登斯" Type="system" x="520.00" /><text id="6691" x="520.00" y="424.50">KBP7-G</text><rect height="5.00" width="5.00" Name="拉马亚" ID="30003063" y="200.00" id="6693" Region="幽暗之域" Type="system" x="600.00" /><text id="6694" x="600.00" y="200.00">拉马亚</text><rect height="5.00" width="5.00" Name="卡美拉" ID="30003069" y="250.00" id="6696" Region="幽暗之域" Type="system" x="600.00" /><text id="6697" x="600.00" y="250.00">卡美拉</text><rect height="5.00" width="5.00" Name="加尔克楞" ID="30003080" y="550.00" id="6699" Region="幽暗之域" Type="system" x="820.00" /><text id="6700" x="820.00" y="550.00">加尔克楞</text><rect height="5.00" width="5.00" Name="逾赫利亚" ID="30003545" y="660.00" id="6702" Region="多美" Type="system" x="850.00" /><text id="6703" x="850.00" y="660.00">逾赫利亚</text><rect height="5.00" width="5.00" Name="拉什希亚" ID="30000002" y="20.00" id="6705" Region="德里克" Type="system" x="950.00" /><text id="6706" x="950.00" y="20.00">拉什希亚</text><line y2="320.00" id="6708" y1="370.00" style="stroke:blue;fill:blue;" x1="50.00" x2="50.00" /><line y2="420.00" id="6709" y1="370.00" style="stroke:blue;fill:blue;" x1="50.00" x2="50.00" /><line y2="270.00" id="6710" y1="320.00" style="stroke:blue;fill:blue;" x1="50.00" x2="50.00" /><line y2="320.00" id="6711" y1="320.00" style="stroke:blue;fill:blue;" x1="50.00" x2="150.00" /><line y2="370.00" id="6712" y1="320.00" style="stroke:blue;fill:blue;" x1="50.00" x2="50.00" /><line y2="370.00" id="6713" y1="420.00" style="stroke:blue;fill:blue;" x1="50.00" x2="50.00" /><line y2="420.00" id="6714" y1="420.00" style="stroke:blue;fill:blue;" x1="50.00" x2="150.00" /><line y2="270.00" id="6715" y1="270.00" style="stroke:blue;fill:blue;" x1="50.00" x2="150.00" /><line y2="320.00" id="6716" y1="270.00" style="stroke:blue;fill:blue;" x1="50.00" x2="50.00" /><line y2="370.00" id="6717" y1="420.00" style="stroke:blue;fill:blue;" x1="150.00" x2="150.00" /><line y2="420.00" id="6718" y1="420.00" style="stroke:blue;fill:blue;" x1="150.00" x2="50.00" /><line y2="100.00" id="6719" y1="270.00" style="stroke:blue;fill:blue;" x1="150.00" x2="180.00" /><line y2="270.00" id="6720" y1="270.00" style="stroke:blue;fill:blue;" x1="150.00" x2="50.00" /><line y2="320.00" id="6721" y1="270.00" style="stroke:blue;fill:blue;" x1="150.00" x2="150.00" /><line y2="270.00" id="6722" y1="320.00" style="stroke:blue;fill:blue;" x1="150.00" x2="150.00" /><line y2="320.00" id="6723" y1="320.00" style="stroke:blue;fill:blue;" x1="150.00" x2="50.00" /><line y2="370.00" id="6724" y1="320.00" style="stroke:blue;fill:blue;" x1="150.00" x2="150.00" /><line y2="320.00" id="6725" y1="370.00" style="stroke:blue;fill:blue;" x1="150.00" x2="150.00" /><line y2="420.00" id="6726" y1="370.00" style="stroke:blue;fill:blue;" x1="150.00" x2="150.00" /><line y2="190.00" id="6727" y1="100.00" style="stroke:blue;fill:blue;" x1="180.00" x2="210.00" /><line y2="130.00" id="6728" y1="100.00" style="stroke:blue;fill:blue;" x1="180.00" x2="270.00" /><line y2="80.00" id="6729" y1="100.00" style="stroke:blue;fill:blue;" x1="180.00" x2="250.00" /><line y2="270.00" id="6730" y1="100.00" style="stroke:blue;fill:blue;" x1="180.00" x2="150.00" /><line y2="710.00" id="6731" y1="710.00" style="stroke:blue;fill:blue;" x1="160.00" x2="230.00" /><line y2="210.00" id="6732" y1="190.00" style="stroke:blue;fill:blue;" x1="210.00" x2="300.00" /><line y2="130.00" id="6733" y1="190.00" style="stroke:blue;fill:blue;" x1="210.00" x2="270.00" /><line y2="100.00" id="6734" y1="190.00" style="stroke:blue;fill:blue;" x1="210.00" x2="180.00" /><line y2="210.00" id="6735" y1="130.00" style="stroke:blue;fill:blue;" x1="270.00" x2="300.00" /><line y2="190.00" id="6736" y1="130.00" style="stroke:blue;fill:blue;" x1="270.00" x2="210.00" /><line y2="80.00" id="6737" y1="130.00" style="stroke:blue;fill:blue;" x1="270.00" x2="250.00" /><line y2="120.00" id="6738" y1="130.00" style="stroke:blue;fill:blue;" x1="270.00" x2="350.00" /><line y2="100.00" id="6739" y1="130.00" style="stroke:blue;fill:blue;" x1="270.00" x2="180.00" /><line y2="100.00" id="6740" y1="80.00" style="stroke:blue;fill:blue;" x1="250.00" x2="450.00" /><line y2="130.00" id="6741" y1="80.00" style="stroke:blue;fill:blue;" x1="250.00" x2="270.00" /><line y2="120.00" id="6742" y1="80.00" style="stroke:blue;fill:blue;" x1="250.00" x2="350.00" /><line y2="100.00" id="6743" y1="80.00" style="stroke:blue;fill:blue;" x1="250.00" x2="180.00" /><line y2="630.00" id="6744" y1="580.00" style="stroke:blue;fill:blue;" x1="250.00" x2="380.00" /><line y2="740.00" id="6745" y1="710.00" style="stroke:blue;fill:blue;" x1="230.00" x2="310.00" /><line y2="690.00" id="6746" y1="710.00" style="stroke:blue;fill:blue;" x1="230.00" x2="310.00" /><line y2="710.00" id="6747" y1="710.00" style="stroke:blue;fill:blue;" x1="230.00" x2="160.00" /><line y2="250.00" id="6748" y1="210.00" style="stroke:blue;fill:blue;" x1="300.00" x2="330.00" /><line y2="190.00" id="6749" y1="210.00" style="stroke:blue;fill:blue;" x1="300.00" x2="210.00" /><line y2="130.00" id="6750" y1="210.00" style="stroke:blue;fill:blue;" x1="300.00" x2="270.00" /><line y2="130.00" id="6751" y1="120.00" style="stroke:blue;fill:blue;" x1="350.00" x2="270.00" /><line y2="80.00" id="6752" y1="120.00" style="stroke:blue;fill:blue;" x1="350.00" x2="250.00" /><line y2="180.00" id="6753" y1="120.00" style="stroke:blue;fill:blue;" x1="350.00" x2="420.00" /><line y2="210.00" id="6754" y1="250.00" style="stroke:blue;fill:blue;" x1="330.00" x2="300.00" /><line y2="278.09" id="6755" y1="250.00" style="stroke:blue;fill:blue;" x1="330.00" x2="399.04" /><line y2="710.00" id="6756" y1="690.00" style="stroke:blue;fill:blue;" x1="310.00" x2="390.00" /><line y2="710.00" id="6757" y1="690.00" style="stroke:blue;fill:blue;" x1="310.00" x2="230.00" /><line y2="710.00" id="6758" y1="740.00" style="stroke:blue;fill:blue;" x1="310.00" x2="390.00" /><line y2="710.00" id="6759" y1="740.00" style="stroke:blue;fill:blue;" x1="310.00" x2="230.00" /><line y2="630.00" id="6760" y1="630.00" style="stroke:blue;fill:blue;" x1="380.00" x2="580.00" /><line y2="500.00" id="6761" y1="630.00" style="stroke:blue;fill:blue;" x1="380.00" x2="380.00" /><line y2="530.00" id="6762" y1="630.00" style="stroke:blue;fill:blue;" x1="380.00" x2="440.00" /><line y2="590.00" id="6763" y1="630.00" style="stroke:blue;fill:blue;" x1="380.00" x2="460.00" /><line y2="580.00" id="6764" y1="630.00" style="stroke:blue;fill:blue;" x1="380.00" x2="250.00" /><line y2="380.00" id="6765" y1="500.00" style="stroke:blue;fill:blue;" x1="380.00" x2="420.00" /><line y2="500.00" id="6766" y1="500.00" style="stroke:blue;fill:blue;" x1="380.00" x2="580.00" /><line y2="530.00" id="6767" y1="500.00" style="stroke:blue;fill:blue;" x1="380.00" x2="440.00" /><line y2="630.00" id="6768" y1="500.00" style="stroke:blue;fill:blue;" x1="380.00" x2="380.00" /><line y2="320.00" id="6769" y1="321.91" style="stroke:blue;fill:blue;" x1="420.96" x2="520.00" /><line y2="380.00" id="6770" y1="321.91" style="stroke:blue;fill:blue;" x1="420.96" x2="420.00" /><line y2="320.00" id="6771" y1="380.00" style="stroke:blue;fill:blue;" x1="420.00" x2="520.00" /><line y2="321.91" id="6772" y1="380.00" style="stroke:blue;fill:blue;" x1="420.00" x2="420.96" /><line y2="375.50" id="6773" y1="380.00" style="stroke:blue;fill:blue;" x1="420.00" x2="520.00" /><line y2="500.00" id="6774" y1="380.00" style="stroke:blue;fill:blue;" x1="420.00" x2="380.00" /><line y2="500.00" id="6775" y1="530.00" style="stroke:blue;fill:blue;" x1="440.00" x2="580.00" /><line y2="500.00" id="6776" y1="530.00" style="stroke:blue;fill:blue;" x1="440.00" x2="380.00" /><line y2="590.00" id="6777" y1="530.00" style="stroke:blue;fill:blue;" x1="440.00" x2="460.00" /><line y2="560.00" id="6778" y1="530.00" style="stroke:blue;fill:blue;" x1="440.00" x2="520.00" /><line y2="630.00" id="6779" y1="530.00" style="stroke:blue;fill:blue;" x1="440.00" x2="380.00" /><line y2="760.00" id="6780" y1="710.00" style="stroke:blue;fill:blue;" x1="390.00" x2="430.00" /><line y2="740.00" id="6781" y1="710.00" style="stroke:blue;fill:blue;" x1="390.00" x2="310.00" /><line y2="690.00" id="6782" y1="710.00" style="stroke:blue;fill:blue;" x1="390.00" x2="310.00" /><line y2="660.00" id="6783" y1="710.00" style="stroke:blue;fill:blue;" x1="390.00" x2="450.00" /><line y2="20.00" id="6784" y1="50.00" style="stroke:blue;fill:blue;" x1="450.00" x2="500.00" /><line y2="100.00" id="6785" y1="50.00" style="stroke:blue;fill:blue;" x1="450.00" x2="450.00" /><line y2="100.00" id="6786" y1="100.00" style="stroke:blue;fill:blue;" x1="450.00" x2="520.00" /><line y2="50.00" id="6787" y1="100.00" style="stroke:blue;fill:blue;" x1="450.00" x2="450.00" /><line y2="80.00" id="6788" y1="100.00" style="stroke:blue;fill:blue;" x1="450.00" x2="250.00" /><line y2="710.00" id="6789" y1="660.00" style="stroke:blue;fill:blue;" x1="450.00" x2="390.00" /><line y2="580.00" id="6790" y1="660.00" style="stroke:blue;fill:blue;" x1="450.00" x2="580.00" /><line y2="590.00" id="6791" y1="660.00" style="stroke:blue;fill:blue;" x1="450.00" x2="460.00" /><line y2="660.00" id="6792" y1="590.00" style="stroke:blue;fill:blue;" x1="460.00" x2="450.00" /><line y2="530.00" id="6793" y1="590.00" style="stroke:blue;fill:blue;" x1="460.00" x2="440.00" /><line y2="560.00" id="6794" y1="590.00" style="stroke:blue;fill:blue;" x1="460.00" x2="520.00" /><line y2="630.00" id="6795" y1="590.00" style="stroke:blue;fill:blue;" x1="460.00" x2="380.00" /><line y2="320.00" id="6796" y1="320.00" style="stroke:blue;fill:blue;" x1="520.00" x2="620.00" /><line y2="321.91" id="6797" y1="320.00" style="stroke:blue;fill:blue;" x1="520.00" x2="420.96" /><line y2="380.00" id="6798" y1="320.00" style="stroke:blue;fill:blue;" x1="520.00" x2="420.00" /><line y2="375.50" id="6799" y1="320.00" style="stroke:blue;fill:blue;" x1="520.00" x2="520.00" /><line y2="250.00" id="6800" y1="320.00" style="stroke:blue;fill:blue;" x1="520.00" x2="600.00" /><line y2="320.00" id="6801" y1="375.50" style="stroke:blue;fill:blue;" x1="520.00" x2="620.00" /><line y2="320.00" id="6802" y1="375.50" style="stroke:blue;fill:blue;" x1="520.00" x2="520.00" /><line y2="380.00" id="6803" y1="375.50" style="stroke:blue;fill:blue;" x1="520.00" x2="420.00" /><line y2="424.50" id="6804" y1="375.50" style="stroke:blue;fill:blue;" x1="520.00" x2="520.00" /><line y2="150.00" id="6805" y1="100.00" style="stroke:blue;fill:blue;" x1="520.00" x2="600.00" /><line y2="100.00" id="6806" y1="100.00" style="stroke:blue;fill:blue;" x1="520.00" x2="600.00" /><line y2="100.00" id="6807" y1="100.00" style="stroke:blue;fill:blue;" x1="520.00" x2="450.00" /><line y2="150.00" id="6808" y1="100.00" style="stroke:blue;fill:blue;" x1="520.00" x2="520.00" /><line y2="150.00" id="6809" y1="150.00" style="stroke:blue;fill:blue;" x1="520.00" x2="600.00" /><line y2="100.00" id="6810" y1="150.00" style="stroke:blue;fill:blue;" x1="520.00" x2="520.00" /><line y2="500.00" id="6811" y1="560.00" style="stroke:blue;fill:blue;" x1="520.00" x2="580.00" /><line y2="530.00" id="6812" y1="560.00" style="stroke:blue;fill:blue;" x1="520.00" x2="440.00" /><line y2="590.00" id="6813" y1="560.00" style="stroke:blue;fill:blue;" x1="520.00" x2="460.00" /><line y2="580.00" id="6814" y1="500.00" style="stroke:blue;fill:blue;" x1="580.00" x2="580.00" /><line y2="500.00" id="6815" y1="500.00" style="stroke:blue;fill:blue;" x1="580.00" x2="650.00" /><line y2="500.00" id="6816" y1="500.00" style="stroke:blue;fill:blue;" x1="580.00" x2="380.00" /><line y2="530.00" id="6817" y1="500.00" style="stroke:blue;fill:blue;" x1="580.00" x2="440.00" /><line y2="560.00" id="6818" y1="500.00" style="stroke:blue;fill:blue;" x1="580.00" x2="520.00" /><line y2="660.00" id="6819" y1="580.00" style="stroke:blue;fill:blue;" x1="580.00" x2="450.00" /><line y2="500.00" id="6820" y1="580.00" style="stroke:blue;fill:blue;" x1="580.00" x2="580.00" /><line y2="630.00" id="6821" y1="580.00" style="stroke:blue;fill:blue;" x1="580.00" x2="580.00" /><line y2="600.00" id="6822" y1="580.00" style="stroke:blue;fill:blue;" x1="580.00" x2="700.00" /><line y2="580.00" id="6823" y1="630.00" style="stroke:blue;fill:blue;" x1="580.00" x2="580.00" /><line y2="600.00" id="6824" y1="630.00" style="stroke:blue;fill:blue;" x1="580.00" x2="700.00" /><line y2="630.00" id="6825" y1="630.00" style="stroke:blue;fill:blue;" x1="580.00" x2="380.00" /><line y2="150.00" id="6826" y1="100.00" style="stroke:blue;fill:blue;" x1="600.00" x2="600.00" /><line y2="100.00" id="6827" y1="100.00" style="stroke:blue;fill:blue;" x1="600.00" x2="520.00" /><line y2="121.57" id="6828" y1="100.00" style="stroke:blue;fill:blue;" x1="600.00" x2="798.92" /><line y2="100.00" id="6829" y1="150.00" style="stroke:blue;fill:blue;" x1="600.00" x2="600.00" /><line y2="100.00" id="6830" y1="150.00" style="stroke:blue;fill:blue;" x1="600.00" x2="520.00" /><line y2="150.00" id="6831" y1="150.00" style="stroke:blue;fill:blue;" x1="600.00" x2="520.00" /><line y2="200.00" id="6832" y1="150.00" style="stroke:blue;fill:blue;" x1="600.00" x2="600.00" /><line y2="300.00" id="6833" y1="320.00" style="stroke:blue;fill:blue;" x1="620.00" x2="700.00" /><line y2="320.00" id="6834" y1="320.00" style="stroke:blue;fill:blue;" x1="620.00" x2="520.00" /><line y2="375.50" id="6835" y1="320.00" style="stroke:blue;fill:blue;" x1="620.00" x2="520.00" /><line y2="500.00" id="6836" y1="320.00" style="stroke:blue;fill:blue;" x1="620.00" x2="650.00" /><line y2="320.00" id="6837" y1="500.00" style="stroke:blue;fill:blue;" x1="650.00" x2="620.00" /><line y2="500.00" id="6838" y1="500.00" style="stroke:blue;fill:blue;" x1="650.00" x2="580.00" /><line y2="500.00" id="6839" y1="500.00" style="stroke:blue;fill:blue;" x1="650.00" x2="750.00" /><line y2="580.00" id="6840" y1="500.00" style="stroke:blue;fill:blue;" x1="650.00" x2="750.00" /><line y2="580.00" id="6841" y1="600.00" style="stroke:blue;fill:blue;" x1="700.00" x2="580.00" /><line y2="630.00" id="6842" y1="600.00" style="stroke:blue;fill:blue;" x1="700.00" x2="580.00" /><line y2="580.00" id="6843" y1="600.00" style="stroke:blue;fill:blue;" x1="700.00" x2="750.00" /><line y2="320.00" id="6844" y1="300.00" style="stroke:blue;fill:blue;" x1="700.00" x2="620.00" /><line y2="250.00" id="6845" y1="300.00" style="stroke:blue;fill:blue;" x1="700.00" x2="750.00" /><line y2="500.00" id="6846" y1="500.00" style="stroke:blue;fill:blue;" x1="750.00" x2="650.00" /><line y2="580.00" id="6847" y1="500.00" style="stroke:blue;fill:blue;" x1="750.00" x2="750.00" /><line y2="500.00" id="6848" y1="580.00" style="stroke:blue;fill:blue;" x1="750.00" x2="650.00" /><line y2="500.00" id="6849" y1="580.00" style="stroke:blue;fill:blue;" x1="750.00" x2="750.00" /><line y2="600.00" id="6850" y1="580.00" style="stroke:blue;fill:blue;" x1="750.00" x2="700.00" /><line y2="550.00" id="6851" y1="580.00" style="stroke:blue;fill:blue;" x1="750.00" x2="820.00" /><line y2="660.00" id="6852" y1="580.00" style="stroke:blue;fill:blue;" x1="750.00" x2="850.00" /><line y2="300.00" id="6853" y1="250.00" style="stroke:blue;fill:blue;" x1="750.00" x2="700.00" /><line y2="220.00" id="6854" y1="250.00" style="stroke:blue;fill:blue;" x1="750.00" x2="800.00" /><line y2="250.00" id="6855" y1="250.00" style="stroke:blue;fill:blue;" x1="750.00" x2="600.00" /><line y2="250.00" id="6856" y1="220.00" style="stroke:blue;fill:blue;" x1="800.00" x2="750.00" /><line y2="170.56" id="6857" y1="220.00" style="stroke:blue;fill:blue;" x1="800.00" x2="800.01" /><line y2="100.00" id="6858" y1="121.57" style="stroke:blue;fill:blue;" x1="798.92" x2="600.00" /><line y2="77.87" id="6859" y1="121.57" style="stroke:blue;fill:blue;" x1="798.92" x2="821.07" /><line y2="170.56" id="6860" y1="121.57" style="stroke:blue;fill:blue;" x1="798.92" x2="800.01" /><line y2="220.00" id="6861" y1="170.56" style="stroke:blue;fill:blue;" x1="800.01" x2="800.00" /><line y2="121.57" id="6862" y1="170.56" style="stroke:blue;fill:blue;" x1="800.01" x2="798.92" /><line y2="50.00" id="6863" y1="77.87" style="stroke:blue;fill:blue;" x1="821.07" x2="880.00" /><line y2="121.57" id="6864" y1="77.87" style="stroke:blue;fill:blue;" x1="821.07" x2="798.92" /><line y2="20.00" id="6865" y1="50.00" style="stroke:blue;fill:blue;" x1="880.00" x2="950.00" /><line y2="77.87" id="6866" y1="50.00" style="stroke:blue;fill:blue;" x1="880.00" x2="821.07" /><line y2="250.00" id="6867" y1="278.09" style="stroke:blue;fill:blue;" x1="399.04" x2="330.00" /><line y2="120.00" id="6868" y1="180.00" style="stroke:blue;fill:blue;" x1="420.00" x2="350.00" /><line y2="710.00" id="6869" y1="760.00" style="stroke:blue;fill:blue;" x1="430.00" x2="390.00" /><line y2="50.00" id="6870" y1="20.00" style="stroke:blue;fill:blue;" x1="500.00" x2="450.00" /><line y2="375.50" id="6871" y1="424.50" style="stroke:blue;fill:blue;" x1="520.00" x2="520.00" /><line y2="150.00" id="6872" y1="200.00" style="stroke:blue;fill:blue;" x1="600.00" x2="600.00" /><line y2="250.00" id="6873" y1="200.00" style="stroke:blue;fill:blue;" x1="600.00" x2="600.00" /><line y2="320.00" id="6874" y1="250.00" style="stroke:blue;fill:blue;" x1="600.00" x2="520.00" /><line y2="250.00" id="6875" y1="250.00" style="stroke:blue;fill:blue;" x1="600.00" x2="750.00" /><line y2="200.00" id="6876" y1="250.00" style="stroke:blue;fill:blue;" x1="600.00" x2="600.00" /><line y2="580.00" id="6877" y1="550.00" style="stroke:blue;fill:blue;" x1="820.00" x2="750.00" /><line y2="580.00" id="6878" y1="660.00" style="stroke:blue;fill:blue;" x1="850.00" x2="750.00" /><line y2="50.00" id="6879" y1="20.00" style="stroke:blue;fill:blue;" x1="950.00" x2="880.00" /></svg>
