<?xml version="1.0" standalone="yes"?><!DOCTYPE svg PUBLIC "-//W3C//DTD SVG 1.1//EN" "http://www.w3.org/Graphics/SVG/1.1/DTD/svg11.dtd"[]><svg width="1050.00" id="8567" height="800.00" xmlns="http://www.w3.org/2000/svg" xmlns:xlink="http://www.w3.org/1999/xlink"><rect height="5.00" width="5.00" Name="拉底赛迪尔" ID="30004999" y="60.00" id="8568" Region="精华之域" Type="system" x="50.00" /><text id="8569" x="50.00" y="60.00">拉底赛迪尔</text><rect height="5.00" width="5.00" Name="耶舒尔" ID="30005008" y="400.00" id="8571" Region="精华之域" Type="system" x="50.00" /><text id="8572" x="50.00" y="400.00">耶舒尔</text><rect height="5.00" width="5.00" Name="欧尼" ID="30004990" y="700.00" id="8574" Region="精华之域" Type="system" x="50.00" /><text id="8575" x="50.00" y="700.00">欧尼</text><rect height="5.00" width="5.00" Name="赫查理林" ID="30024971" y="180.00" id="8577" Region="精华之域" Type="system" x="100.00" /><text id="8578" x="100.00" y="180.00">赫查理林</text><rect height="5.00" width="5.00" Name="里斯巴塔尼" ID="30005007" y="530.00" id="8580" Region="精华之域" Type="system" x="100.00" /><text id="8581" x="100.00" y="530.00">里斯巴塔尼</text><rect height="5.00" width="5.00" Name="亚特兰杰斯" ID="30005024" y="227.68" id="8583" Region="精华之域" Type="system" x="132.32" /><text id="8584" x="132.32" y="227.68">亚特兰杰斯</text><rect height="5.00" width="5.00" Name="维佛瓦特" ID="30004997" y="100.00" id="8586" Region="精华之域" Type="system" x="150.00" /><text id="8587" x="150.00" y="100.00">维佛瓦特</text><rect height="5.00" width="5.00" Name="埃迪瑞恩" ID="30005003" y="355.50" id="8589" Region="精华之域" Type="system" x="150.00" /><text id="8590" x="150.00" y="355.50">埃迪瑞恩</text><rect height="5.00" width="5.00" Name="劳韦尔" ID="30005002" y="404.50" id="8592" Region="精华之域" Type="system" x="150.00" /><text id="8593" x="150.00" y="404.50">劳韦尔</text><rect height="5.00" width="5.00" Name="阿泰恩" ID="30005004" y="460.00" id="8595" Region="精华之域" Type="system" x="150.00" /><text id="8596" x="150.00" y="460.00">阿泰恩</text><rect height="5.00" width="5.00" Name="德瑞林特" ID="30005025" y="230.00" id="8598" Region="精华之域" Type="system" x="200.00" /><text id="8599" x="200.00" y="230.00">德瑞林特</text><rect height="5.00" width="5.00" Name="埃尔勒" ID="30005006" y="530.00" id="8601" Region="精华之域" Type="system" x="200.00" /><text id="8602" x="200.00" y="530.00">埃尔勒</text><rect height="5.00" width="5.00" Name="厄拉莫特" ID="30004995" y="130.00" id="8604" Region="精华之域" Type="system" x="220.00" /><text id="8605" x="220.00" y="130.00">厄拉莫特</text><rect height="5.00" width="5.00" Name="安多勒" ID="30005028" y="300.00" id="8607" Region="精华之域" Type="system" x="220.00" /><text id="8608" x="220.00" y="300.00">安多勒</text><rect height="5.00" width="5.00" Name="胡尔马特" ID="30004988" y="600.00" id="8610" Region="精华之域" Type="system" x="130.00" /><text id="8611" x="130.00" y="600.00">胡尔马特</text><rect height="5.00" width="5.00" Name="卡特" ID="30005026" y="200.00" id="8613" Region="精华之域" Type="system" x="250.00" /><text id="8614" x="250.00" y="200.00">卡特</text><rect height="5.00" width="5.00" Name="欧玛尔" ID="30005027" y="260.00" id="8616" Region="精华之域" Type="system" x="250.00" /><text id="8617" x="250.00" y="260.00">欧玛尔</text><rect height="5.00" width="5.00" Name="阿尔蒙" ID="30005001" y="404.50" id="8619" Region="精华之域" Type="system" x="250.00" /><text id="8620" x="250.00" y="404.50">阿尔蒙</text><rect height="5.00" width="5.00" Name="安纳格斯" ID="30004989" y="560.00" id="8622" Region="精华之域" Type="system" x="250.00" /><text id="8623" x="250.00" y="560.00">安纳格斯</text><rect height="5.00" width="5.00" Name="老人星" ID="30005000" y="60.00" id="8625" Region="精华之域" Type="system" x="300.00" /><text id="8626" x="300.00" y="60.00">老人星</text><rect height="5.00" width="5.00" Name="维洛勒" ID="30004993" y="180.00" id="8628" Region="精华之域" Type="system" x="320.00" /><text id="8629" x="320.00" y="180.00">维洛勒</text><rect height="5.00" width="5.00" Name="佩门勒" ID="30004978" y="255.50" id="8631" Region="精华之域" Type="system" x="320.00" /><text id="8632" x="320.00" y="255.50">佩门勒</text><rect height="5.00" width="5.00" Name="德妮娜的" ID="30004987" y="600.00" id="8634" Region="精华之域" Type="system" x="350.00" /><text id="8635" x="350.00" y="600.00">德妮娜的</text><rect height="5.00" width="5.00" Name="海勒" ID="30005012" y="380.00" id="8637" Region="精华之域" Type="system" x="400.00" /><text id="8638" x="400.00" y="380.00">海勒</text><rect height="5.00" width="5.00" Name="佩尔克希文" ID="30005013" y="460.00" id="8640" Region="精华之域" Type="system" x="400.00" /><text id="8641" x="400.00" y="460.00">佩尔克希文</text><rect height="5.00" width="5.00" Name="伊瑟南" ID="30005014" y="530.00" id="8643" Region="精华之域" Type="system" x="400.00" /><text id="8644" x="400.00" y="530.00">伊瑟南</text><rect height="5.00" width="5.00" Name="阿冉特" ID="30004994" y="260.00" id="8646" Region="精华之域" Type="system" x="400.00" /><text id="8647" x="400.00" y="260.00">阿冉特</text><rect height="5.00" width="5.00" Name="维查乌得" ID="30004991" y="660.00" id="8649" Region="精华之域" Type="system" x="350.00" /><text id="8650" x="350.00" y="660.00">维查乌得</text><rect height="5.00" width="5.00" Name="帕尔蒙" ID="30004992" y="680.00" id="8652" Region="精华之域" Type="system" x="430.00" /><text id="8653" x="430.00" y="680.00">帕尔蒙</text><rect height="5.00" width="5.00" Name="欧宝耶" ID="30004996" y="300.00" id="8655" Region="精华之域" Type="system" x="450.00" /><text id="8656" x="450.00" y="300.00">欧宝耶</text><rect height="5.00" width="5.00" Name="卓瑟罗瑞" ID="30005011" y="580.00" id="8658" Region="精华之域" Type="system" x="450.00" /><text id="8659" x="450.00" y="580.00">卓瑟罗瑞</text><rect height="5.00" width="5.00" Name="帕特斯" ID="30004998" y="355.50" id="8661" Region="精华之域" Type="system" x="450.00" /><text id="8662" x="450.00" y="355.50">帕特斯</text><rect height="5.00" width="5.00" Name="阿勒宾" ID="30005009" y="404.50" id="8664" Region="精华之域" Type="system" x="450.00" /><text id="8665" x="450.00" y="404.50">阿勒宾</text><rect height="5.00" width="5.00" Name="阿特鲁勒" ID="30005010" y="480.00" id="8667" Region="精华之域" Type="system" x="450.00" /><text id="8668" x="450.00" y="480.00">阿特鲁勒</text><rect height="5.00" width="5.00" Name="美希比尔" ID="30004975" y="204.50" id="8670" Region="精华之域" Type="system" x="450.00" /><text id="8671" x="450.00" y="204.50">美希比尔</text><rect height="5.00" width="5.00" Name="印卓古勒" ID="30004982" y="100.00" id="8673" Region="精华之域" Type="system" x="520.00" /><text id="8674" x="520.00" y="100.00">印卓古勒</text><rect height="5.00" width="5.00" Name="伦因" ID="30004970" y="430.00" id="8676" Region="精华之域" Type="system" x="550.00" /><text id="8677" x="550.00" y="430.00">伦因</text><rect height="5.00" width="5.00" Name="杜利潘特" ID="30004971" y="530.00" id="8679" Region="精华之域" Type="system" x="550.00" /><text id="8680" x="550.00" y="530.00">杜利潘特</text><rect height="5.00" width="5.00" Name="希迭勒斯" ID="30004979" y="55.50" id="8682" Region="精华之域" Type="system" x="600.00" /><text id="8683" x="600.00" y="55.50">希迭勒斯</text><rect height="5.00" width="5.00" Name="埃布尼" ID="30004984" y="104.50" id="8685" Region="精华之域" Type="system" x="600.00" /><text id="8686" x="600.00" y="104.50">埃布尼</text><rect height="5.00" width="5.00" Name="奥苏拉尔特" ID="30004969" y="430.00" id="8688" Region="精华之域" Type="system" x="650.00" /><text id="8689" x="650.00" y="430.00">奥苏拉尔特</text><rect height="5.00" width="5.00" Name="安尼" ID="30005022" y="230.00" id="8691" Region="精华之域" Type="system" x="680.00" /><text id="8692" x="680.00" y="230.00">安尼</text><rect height="5.00" width="5.00" Name="瑟伊林" ID="30005020" y="280.00" id="8694" Region="精华之域" Type="system" x="680.00" /><text id="8695" x="680.00" y="280.00">瑟伊林</text><rect height="5.00" width="5.00" Name="耶万基尔" ID="30004977" y="130.00" id="8697" Region="精华之域" Type="system" x="700.00" /><text id="8698" x="700.00" y="130.00">耶万基尔</text><rect height="5.00" width="5.00" Name="米尔斯" ID="30004968" y="460.00" id="8700" Region="精华之域" Type="system" x="700.00" /><text id="8701" x="700.00" y="460.00">米尔斯</text><rect height="5.00" width="5.00" Name="寇斯特" ID="30014971" y="700.00" id="8703" Region="精华之域" Type="system" x="760.00" /><text id="8704" x="760.00" y="700.00">寇斯特</text><rect height="5.00" width="5.00" Name="泛光之源" ID="30004967" y="550.00" id="8706" Region="精华之域" Type="system" x="760.00" /><text id="8707" x="760.00" y="550.00">泛光之源</text><rect height="5.00" width="5.00" Name="埃戈吉勒" ID="30004972" y="630.00" id="8709" Region="精华之域" Type="system" x="760.00" /><text id="8710" x="760.00" y="630.00">埃戈吉勒</text><rect height="5.00" width="5.00" Name="弗列特" ID="30004980" y="30.00" id="8712" Region="精华之域" Type="system" x="720.00" /><text id="8713" x="720.00" y="30.00">弗列特</text><rect height="5.00" width="5.00" Name="埃克提" ID="30004981" y="80.00" id="8715" Region="精华之域" Type="system" x="720.00" /><text id="8716" x="720.00" y="80.00">埃克提</text><rect height="5.00" width="5.00" Name="阿波鲁列" ID="30005019" y="300.00" id="8718" Region="精华之域" Type="system" x="750.00" /><text id="8719" x="750.00" y="300.00">阿波鲁列</text><rect height="5.00" width="5.00" Name="克洛特勒" ID="30005023" y="200.00" id="8721" Region="精华之域" Type="system" x="750.00" /><text id="8722" x="750.00" y="200.00">克洛特勒</text><rect height="5.00" width="5.00" Name="埃卓尔" ID="30005021" y="260.00" id="8724" Region="精华之域" Type="system" x="800.00" /><text id="8725" x="800.00" y="260.00">埃卓尔</text><rect height="5.00" width="5.00" Name="德温" ID="30004985" y="30.00" id="8727" Region="精华之域" Type="system" x="820.00" /><text id="8728" x="820.00" y="30.00">德温</text><rect height="5.00" width="5.00" Name="安玛尼" ID="30004983" y="80.00" id="8730" Region="精华之域" Type="system" x="820.00" /><text id="8731" x="820.00" y="80.00">安玛尼</text><rect height="5.00" width="5.00" Name="维萨兰" ID="30005016" y="380.00" id="8733" Region="精华之域" Type="system" x="820.00" /><text id="8734" x="820.00" y="380.00">维萨兰</text><rect height="5.00" width="5.00" Name="希恩彻尔" ID="30005015" y="430.00" id="8736" Region="精华之域" Type="system" x="820.00" /><text id="8737" x="820.00" y="430.00">希恩彻尔</text><rect height="5.00" width="5.00" Name="查莫罗特" ID="30004976" y="155.50" id="8739" Region="精华之域" Type="system" x="850.00" /><text id="8740" x="850.00" y="155.50">查莫罗特</text><rect height="5.00" width="5.00" Name="卡瑟蒙" ID="30004973" y="204.50" id="8742" Region="精华之域" Type="system" x="850.00" /><text id="8743" x="850.00" y="204.50">卡瑟蒙</text><rect height="5.00" width="5.00" Name="尤纳" ID="30005017" y="326.17" id="8745" Region="精华之域" Type="system" x="846.08" /><text id="8746" x="846.08" y="326.17">尤纳</text><rect height="5.00" width="5.00" Name="诺格希尔" ID="30005018" y="260.00" id="8748" Region="精华之域" Type="system" x="880.00" /><text id="8749" x="880.00" y="260.00">诺格希尔</text><rect height="5.00" width="5.00" Name="美索克尔" ID="30044971" y="359.56" id="8751" Region="精华之域" Type="system" x="881.93" /><text id="8752" x="881.93" y="359.56">美索克尔</text><rect height="5.00" width="5.00" Name="哈勒贝尼" ID="30034971" y="404.27" id="8754" Region="精华之域" Type="system" x="901.99" /><text id="8755" x="901.99" y="404.27">哈勒贝尼</text><rect height="5.00" width="5.00" Name="伊斯塔尼特" ID="30004986" y="80.00" id="8757" Region="精华之域" Type="system" x="920.00" /><text id="8758" x="920.00" y="80.00">伊斯塔尼特</text><rect height="5.00" width="5.00" Name="乔勒韦尔" ID="30004974" y="180.00" id="8760" Region="精华之域" Type="system" x="920.00" /><text id="8761" x="920.00" y="180.00">乔勒韦尔</text><rect height="5.00" width="5.00" Name="奥拉菲特" ID="30005203" y="262.32" id="8763" Region="吉勒西斯" Type="system" x="97.68" /><text id="8764" x="97.68" y="262.32">奥拉菲特</text><rect height="5.00" width="5.00" Name="乔万农" ID="30005321" y="330.00" id="8766" Region="维格温铎" Type="system" x="100.00" /><text id="8767" x="100.00" y="330.00">乔万农</text><rect height="5.00" width="5.00" Name="铁里耶维" ID="30005334" y="280.00" id="8769" Region="维格温铎" Type="system" x="150.00" /><text id="8770" x="150.00" y="280.00">铁里耶维</text><rect height="5.00" width="5.00" Name="厄姆萨" ID="30005202" y="355.50" id="8772" Region="吉勒西斯" Type="system" x="250.00" /><text id="8773" x="250.00" y="355.50">厄姆萨</text><rect height="5.00" width="5.00" Name="安德瑞亚" ID="30005329" y="304.50" id="8775" Region="维格温铎" Type="system" x="320.00" /><text id="8776" x="320.00" y="304.50">安德瑞亚</text><rect height="5.00" width="5.00" Name="埃拉隆" ID="30005330" y="460.00" id="8778" Region="维格温铎" Type="system" x="320.00" /><text id="8779" x="320.00" y="460.00">埃拉隆</text><rect height="5.00" width="5.00" Name="科梅尔克" ID="30005206" y="360.00" id="8781" Region="吉勒西斯" Type="system" x="350.00" /><text id="8782" x="350.00" y="360.00">科梅尔克</text><rect height="5.00" width="5.00" Name="俄沃勒" ID="30003830" y="155.50" id="8784" Region="宁静之域" Type="system" x="450.00" /><text id="8785" x="450.00" y="155.50">俄沃勒</text><rect height="5.00" width="5.00" Name="里尔米勒维" ID="30002728" y="730.00" id="8787" Region="金纳泽" Type="system" x="490.00" /><text id="8788" x="490.00" y="730.00">里尔米勒维</text><rect height="5.00" width="5.00" Name="缪勒坦" ID="30005295" y="160.00" id="8790" Region="维格温铎" Type="system" x="520.00" /><text id="8791" x="520.00" y="160.00">缪勒坦</text><rect height="5.00" width="5.00" Name="卓瑟昆斯勒" ID="30002668" y="580.00" id="8793" Region="金纳泽" Type="system" x="520.00" /><text id="8794" x="520.00" y="580.00">卓瑟昆斯勒</text><rect height="5.00" width="5.00" Name="厄尔梅" ID="30002640" y="280.00" id="8796" Region="金纳泽" Type="system" x="550.00" /><text id="8797" x="550.00" y="280.00">厄尔梅</text><rect height="5.00" width="5.00" Name="格里安卡尼" ID="30002636" y="330.00" id="8799" Region="金纳泽" Type="system" x="550.00" /><text id="8800" x="550.00" y="330.00">格里安卡尼</text><rect height="5.00" width="5.00" Name="梅茨瑞" ID="30002637" y="280.00" id="8802" Region="金纳泽" Type="system" x="600.00" /><text id="8803" x="600.00" y="280.00">梅茨瑞</text><rect height="5.00" width="5.00" Name="杜安尼斯" ID="30002633" y="330.00" id="8805" Region="金纳泽" Type="system" x="600.00" /><text id="8806" x="600.00" y="330.00">杜安尼斯</text><rect height="5.00" width="5.00" Name="欧纳斯肯" ID="30045347" y="160.00" id="8808" Region="暗涌之域" Type="system" x="620.00" /><text id="8809" x="620.00" y="160.00">欧纳斯肯</text><rect height="5.00" width="5.00" Name="帕克什" ID="30005198" y="380.00" id="8811" Region="吉勒西斯" Type="system" x="650.00" /><text id="8812" x="650.00" y="380.00">帕克什</text><rect height="5.00" width="5.00" Name="贝勒耶" ID="30003014" y="480.00" id="8814" Region="埃维希尔" Type="system" x="650.00" /><text id="8815" x="650.00" y="480.00">贝勒耶</text><rect height="5.00" width="5.00" Name="佩汀克" ID="30002632" y="360.00" id="8817" Region="金纳泽" Type="system" x="720.00" /><text id="8818" x="720.00" y="360.00">佩汀克</text><rect height="5.00" width="5.00" Name="那加玛嫩" ID="30002807" y="30.00" id="8820" Region="赛塔德洱" Type="system" x="920.00" /><text id="8821" x="920.00" y="30.00">那加玛嫩</text><rect height="5.00" width="5.00" Name="卡斯简恩" ID="30002761" y="530.00" id="8823" Region="赛塔德洱" Type="system" x="920.00" /><text id="8824" x="920.00" y="530.00">卡斯简恩</text><rect height="5.00" width="5.00" Name="亚述勒恩" ID="30002762" y="280.00" id="8826" Region="赛塔德洱" Type="system" x="950.00" /><text id="8827" x="950.00" y="280.00">亚述勒恩</text><line y2="100.00" id="8829" y1="60.00" style="stroke:blue;fill:blue;" x1="50.00" x2="150.00" /><line y2="60.00" id="8830" y1="60.00" style="stroke:blue;fill:blue;" x1="50.00" x2="300.00" /><line y2="400.00" id="8831" y1="60.00" style="stroke:blue;fill:blue;" x1="50.00" x2="50.00" /><line y2="700.00" id="8832" y1="400.00" style="stroke:blue;fill:blue;" x1="50.00" x2="50.00" /><line y2="60.00" id="8833" y1="400.00" style="stroke:blue;fill:blue;" x1="50.00" x2="50.00" /><line y2="355.50" id="8834" y1="400.00" style="stroke:blue;fill:blue;" x1="50.00" x2="150.00" /><line y2="530.00" id="8835" y1="400.00" style="stroke:blue;fill:blue;" x1="50.00" x2="100.00" /><line y2="330.00" id="8836" y1="400.00" style="stroke:blue;fill:blue;" x1="50.00" x2="100.00" /><line y2="600.00" id="8837" y1="700.00" style="stroke:blue;fill:blue;" x1="50.00" x2="350.00" /><line y2="600.00" id="8838" y1="700.00" style="stroke:blue;fill:blue;" x1="50.00" x2="130.00" /><line y2="660.00" id="8839" y1="700.00" style="stroke:blue;fill:blue;" x1="50.00" x2="350.00" /><line y2="400.00" id="8840" y1="700.00" style="stroke:blue;fill:blue;" x1="50.00" x2="50.00" /><line y2="227.68" id="8841" y1="180.00" style="stroke:blue;fill:blue;" x1="100.00" x2="132.32" /><line y2="530.00" id="8842" y1="530.00" style="stroke:blue;fill:blue;" x1="100.00" x2="200.00" /><line y2="400.00" id="8843" y1="530.00" style="stroke:blue;fill:blue;" x1="100.00" x2="50.00" /><line y2="230.00" id="8844" y1="227.68" style="stroke:blue;fill:blue;" x1="132.32" x2="200.00" /><line y2="262.32" id="8845" y1="227.68" style="stroke:blue;fill:blue;" x1="132.32" x2="97.68" /><line y2="180.00" id="8846" y1="227.68" style="stroke:blue;fill:blue;" x1="132.32" x2="100.00" /><line y2="130.00" id="8847" y1="100.00" style="stroke:blue;fill:blue;" x1="150.00" x2="220.00" /><line y2="60.00" id="8848" y1="100.00" style="stroke:blue;fill:blue;" x1="150.00" x2="50.00" /><line y2="404.50" id="8849" y1="355.50" style="stroke:blue;fill:blue;" x1="150.00" x2="250.00" /><line y2="404.50" id="8850" y1="355.50" style="stroke:blue;fill:blue;" x1="150.00" x2="150.00" /><line y2="400.00" id="8851" y1="355.50" style="stroke:blue;fill:blue;" x1="150.00" x2="50.00" /><line y2="404.50" id="8852" y1="404.50" style="stroke:blue;fill:blue;" x1="150.00" x2="250.00" /><line y2="355.50" id="8853" y1="404.50" style="stroke:blue;fill:blue;" x1="150.00" x2="150.00" /><line y2="460.00" id="8854" y1="404.50" style="stroke:blue;fill:blue;" x1="150.00" x2="150.00" /><line y2="404.50" id="8855" y1="460.00" style="stroke:blue;fill:blue;" x1="150.00" x2="150.00" /><line y2="460.00" id="8856" y1="460.00" style="stroke:blue;fill:blue;" x1="150.00" x2="320.00" /><line y2="227.68" id="8857" y1="230.00" style="stroke:blue;fill:blue;" x1="200.00" x2="132.32" /><line y2="200.00" id="8858" y1="230.00" style="stroke:blue;fill:blue;" x1="200.00" x2="250.00" /><line y2="280.00" id="8859" y1="230.00" style="stroke:blue;fill:blue;" x1="200.00" x2="150.00" /><line y2="600.00" id="8860" y1="530.00" style="stroke:blue;fill:blue;" x1="200.00" x2="130.00" /><line y2="404.50" id="8861" y1="530.00" style="stroke:blue;fill:blue;" x1="200.00" x2="250.00" /><line y2="530.00" id="8862" y1="530.00" style="stroke:blue;fill:blue;" x1="200.00" x2="100.00" /><line y2="180.00" id="8863" y1="130.00" style="stroke:blue;fill:blue;" x1="220.00" x2="320.00" /><line y2="100.00" id="8864" y1="130.00" style="stroke:blue;fill:blue;" x1="220.00" x2="150.00" /><line y2="260.00" id="8865" y1="300.00" style="stroke:blue;fill:blue;" x1="220.00" x2="250.00" /><line y2="600.00" id="8866" y1="600.00" style="stroke:blue;fill:blue;" x1="130.00" x2="350.00" /><line y2="560.00" id="8867" y1="600.00" style="stroke:blue;fill:blue;" x1="130.00" x2="250.00" /><line y2="700.00" id="8868" y1="600.00" style="stroke:blue;fill:blue;" x1="130.00" x2="50.00" /><line y2="530.00" id="8869" y1="600.00" style="stroke:blue;fill:blue;" x1="130.00" x2="200.00" /><line y2="180.00" id="8870" y1="200.00" style="stroke:blue;fill:blue;" x1="250.00" x2="320.00" /><line y2="230.00" id="8871" y1="200.00" style="stroke:blue;fill:blue;" x1="250.00" x2="200.00" /><line y2="260.00" id="8872" y1="200.00" style="stroke:blue;fill:blue;" x1="250.00" x2="250.00" /><line y2="200.00" id="8873" y1="260.00" style="stroke:blue;fill:blue;" x1="250.00" x2="250.00" /><line y2="300.00" id="8874" y1="260.00" style="stroke:blue;fill:blue;" x1="250.00" x2="220.00" /><line y2="404.50" id="8875" y1="404.50" style="stroke:blue;fill:blue;" x1="250.00" x2="150.00" /><line y2="355.50" id="8876" y1="404.50" style="stroke:blue;fill:blue;" x1="250.00" x2="150.00" /><line y2="530.00" id="8877" y1="404.50" style="stroke:blue;fill:blue;" x1="250.00" x2="200.00" /><line y2="355.50" id="8878" y1="404.50" style="stroke:blue;fill:blue;" x1="250.00" x2="250.00" /><line y2="600.00" id="8879" y1="560.00" style="stroke:blue;fill:blue;" x1="250.00" x2="350.00" /><line y2="600.00" id="8880" y1="560.00" style="stroke:blue;fill:blue;" x1="250.00" x2="130.00" /><line y2="55.50" id="8881" y1="60.00" style="stroke:blue;fill:blue;" x1="300.00" x2="600.00" /><line y2="180.00" id="8882" y1="60.00" style="stroke:blue;fill:blue;" x1="300.00" x2="320.00" /><line y2="60.00" id="8883" y1="60.00" style="stroke:blue;fill:blue;" x1="300.00" x2="50.00" /><line y2="280.00" id="8884" y1="180.00" style="stroke:blue;fill:blue;" x1="320.00" x2="550.00" /><line y2="255.50" id="8885" y1="180.00" style="stroke:blue;fill:blue;" x1="320.00" x2="320.00" /><line y2="260.00" id="8886" y1="180.00" style="stroke:blue;fill:blue;" x1="320.00" x2="400.00" /><line y2="130.00" id="8887" y1="180.00" style="stroke:blue;fill:blue;" x1="320.00" x2="220.00" /><line y2="60.00" id="8888" y1="180.00" style="stroke:blue;fill:blue;" x1="320.00" x2="300.00" /><line y2="200.00" id="8889" y1="180.00" style="stroke:blue;fill:blue;" x1="320.00" x2="250.00" /><line y2="204.50" id="8890" y1="255.50" style="stroke:blue;fill:blue;" x1="320.00" x2="450.00" /><line y2="180.00" id="8891" y1="255.50" style="stroke:blue;fill:blue;" x1="320.00" x2="320.00" /><line y2="304.50" id="8892" y1="255.50" style="stroke:blue;fill:blue;" x1="320.00" x2="320.00" /><line y2="600.00" id="8893" y1="600.00" style="stroke:blue;fill:blue;" x1="350.00" x2="130.00" /><line y2="560.00" id="8894" y1="600.00" style="stroke:blue;fill:blue;" x1="350.00" x2="250.00" /><line y2="700.00" id="8895" y1="600.00" style="stroke:blue;fill:blue;" x1="350.00" x2="50.00" /><line y2="360.00" id="8896" y1="600.00" style="stroke:blue;fill:blue;" x1="350.00" x2="350.00" /><line y2="404.50" id="8897" y1="380.00" style="stroke:blue;fill:blue;" x1="400.00" x2="450.00" /><line y2="460.00" id="8898" y1="380.00" style="stroke:blue;fill:blue;" x1="400.00" x2="400.00" /><line y2="404.50" id="8899" y1="460.00" style="stroke:blue;fill:blue;" x1="400.00" x2="450.00" /><line y2="380.00" id="8900" y1="460.00" style="stroke:blue;fill:blue;" x1="400.00" x2="400.00" /><line y2="480.00" id="8901" y1="530.00" style="stroke:blue;fill:blue;" x1="400.00" x2="450.00" /><line y2="180.00" id="8902" y1="260.00" style="stroke:blue;fill:blue;" x1="400.00" x2="320.00" /><line y2="300.00" id="8903" y1="260.00" style="stroke:blue;fill:blue;" x1="400.00" x2="450.00" /><line y2="360.00" id="8904" y1="260.00" style="stroke:blue;fill:blue;" x1="400.00" x2="350.00" /><line y2="700.00" id="8905" y1="660.00" style="stroke:blue;fill:blue;" x1="350.00" x2="50.00" /><line y2="680.00" id="8906" y1="660.00" style="stroke:blue;fill:blue;" x1="350.00" x2="430.00" /><line y2="580.00" id="8907" y1="660.00" style="stroke:blue;fill:blue;" x1="350.00" x2="450.00" /><line y2="730.00" id="8908" y1="680.00" style="stroke:blue;fill:blue;" x1="430.00" x2="490.00" /><line y2="660.00" id="8909" y1="680.00" style="stroke:blue;fill:blue;" x1="430.00" x2="350.00" /><line y2="260.00" id="8910" y1="300.00" style="stroke:blue;fill:blue;" x1="450.00" x2="400.00" /><line y2="355.50" id="8911" y1="300.00" style="stroke:blue;fill:blue;" x1="450.00" x2="450.00" /><line y2="660.00" id="8912" y1="580.00" style="stroke:blue;fill:blue;" x1="450.00" x2="350.00" /><line y2="480.00" id="8913" y1="580.00" style="stroke:blue;fill:blue;" x1="450.00" x2="450.00" /><line y2="300.00" id="8914" y1="355.50" style="stroke:blue;fill:blue;" x1="450.00" x2="450.00" /><line y2="404.50" id="8915" y1="355.50" style="stroke:blue;fill:blue;" x1="450.00" x2="450.00" /><line y2="355.50" id="8916" y1="404.50" style="stroke:blue;fill:blue;" x1="450.00" x2="450.00" /><line y2="480.00" id="8917" y1="404.50" style="stroke:blue;fill:blue;" x1="450.00" x2="450.00" /><line y2="380.00" id="8918" y1="404.50" style="stroke:blue;fill:blue;" x1="450.00" x2="400.00" /><line y2="460.00" id="8919" y1="404.50" style="stroke:blue;fill:blue;" x1="450.00" x2="400.00" /><line y2="404.50" id="8920" y1="480.00" style="stroke:blue;fill:blue;" x1="450.00" x2="450.00" /><line y2="580.00" id="8921" y1="480.00" style="stroke:blue;fill:blue;" x1="450.00" x2="450.00" /><line y2="530.00" id="8922" y1="480.00" style="stroke:blue;fill:blue;" x1="450.00" x2="400.00" /><line y2="155.50" id="8923" y1="204.50" style="stroke:blue;fill:blue;" x1="450.00" x2="450.00" /><line y2="204.50" id="8924" y1="204.50" style="stroke:blue;fill:blue;" x1="450.00" x2="850.00" /><line y2="255.50" id="8925" y1="204.50" style="stroke:blue;fill:blue;" x1="450.00" x2="320.00" /><line y2="160.00" id="8926" y1="204.50" style="stroke:blue;fill:blue;" x1="450.00" x2="520.00" /><line y2="55.50" id="8927" y1="100.00" style="stroke:blue;fill:blue;" x1="520.00" x2="600.00" /><line y2="160.00" id="8928" y1="100.00" style="stroke:blue;fill:blue;" x1="520.00" x2="520.00" /><line y2="330.00" id="8929" y1="430.00" style="stroke:blue;fill:blue;" x1="550.00" x2="600.00" /><line y2="330.00" id="8930" y1="430.00" style="stroke:blue;fill:blue;" x1="550.00" x2="550.00" /><line y2="430.00" id="8931" y1="430.00" style="stroke:blue;fill:blue;" x1="550.00" x2="650.00" /><line y2="530.00" id="8932" y1="430.00" style="stroke:blue;fill:blue;" x1="550.00" x2="550.00" /><line y2="630.00" id="8933" y1="430.00" style="stroke:blue;fill:blue;" x1="550.00" x2="760.00" /><line y2="380.00" id="8934" y1="430.00" style="stroke:blue;fill:blue;" x1="550.00" x2="650.00" /><line y2="580.00" id="8935" y1="530.00" style="stroke:blue;fill:blue;" x1="550.00" x2="520.00" /><line y2="430.00" id="8936" y1="530.00" style="stroke:blue;fill:blue;" x1="550.00" x2="550.00" /><line y2="130.00" id="8937" y1="55.50" style="stroke:blue;fill:blue;" x1="600.00" x2="700.00" /><line y2="30.00" id="8938" y1="55.50" style="stroke:blue;fill:blue;" x1="600.00" x2="720.00" /><line y2="80.00" id="8939" y1="55.50" style="stroke:blue;fill:blue;" x1="600.00" x2="720.00" /><line y2="100.00" id="8940" y1="55.50" style="stroke:blue;fill:blue;" x1="600.00" x2="520.00" /><line y2="104.50" id="8941" y1="55.50" style="stroke:blue;fill:blue;" x1="600.00" x2="600.00" /><line y2="60.00" id="8942" y1="55.50" style="stroke:blue;fill:blue;" x1="600.00" x2="300.00" /><line y2="55.50" id="8943" y1="104.50" style="stroke:blue;fill:blue;" x1="600.00" x2="600.00" /><line y2="160.00" id="8944" y1="104.50" style="stroke:blue;fill:blue;" x1="600.00" x2="620.00" /><line y2="460.00" id="8945" y1="430.00" style="stroke:blue;fill:blue;" x1="650.00" x2="700.00" /><line y2="430.00" id="8946" y1="430.00" style="stroke:blue;fill:blue;" x1="650.00" x2="550.00" /><line y2="380.00" id="8947" y1="430.00" style="stroke:blue;fill:blue;" x1="650.00" x2="650.00" /><line y2="280.00" id="8948" y1="230.00" style="stroke:blue;fill:blue;" x1="680.00" x2="680.00" /><line y2="200.00" id="8949" y1="230.00" style="stroke:blue;fill:blue;" x1="680.00" x2="750.00" /><line y2="280.00" id="8950" y1="280.00" style="stroke:blue;fill:blue;" x1="680.00" x2="600.00" /><line y2="300.00" id="8951" y1="280.00" style="stroke:blue;fill:blue;" x1="680.00" x2="750.00" /><line y2="230.00" id="8952" y1="280.00" style="stroke:blue;fill:blue;" x1="680.00" x2="680.00" /><line y2="155.50" id="8953" y1="130.00" style="stroke:blue;fill:blue;" x1="700.00" x2="850.00" /><line y2="55.50" id="8954" y1="130.00" style="stroke:blue;fill:blue;" x1="700.00" x2="600.00" /><line y2="480.00" id="8955" y1="460.00" style="stroke:blue;fill:blue;" x1="700.00" x2="650.00" /><line y2="550.00" id="8956" y1="460.00" style="stroke:blue;fill:blue;" x1="700.00" x2="760.00" /><line y2="430.00" id="8957" y1="460.00" style="stroke:blue;fill:blue;" x1="700.00" x2="650.00" /><line y2="630.00" id="8958" y1="700.00" style="stroke:blue;fill:blue;" x1="760.00" x2="760.00" /><line y2="360.00" id="8959" y1="550.00" style="stroke:blue;fill:blue;" x1="760.00" x2="720.00" /><line y2="460.00" id="8960" y1="550.00" style="stroke:blue;fill:blue;" x1="760.00" x2="700.00" /><line y2="630.00" id="8961" y1="550.00" style="stroke:blue;fill:blue;" x1="760.00" x2="760.00" /><line y2="530.00" id="8962" y1="630.00" style="stroke:blue;fill:blue;" x1="760.00" x2="920.00" /><line y2="550.00" id="8963" y1="630.00" style="stroke:blue;fill:blue;" x1="760.00" x2="760.00" /><line y2="430.00" id="8964" y1="630.00" style="stroke:blue;fill:blue;" x1="760.00" x2="550.00" /><line y2="430.00" id="8965" y1="630.00" style="stroke:blue;fill:blue;" x1="760.00" x2="820.00" /><line y2="700.00" id="8966" y1="630.00" style="stroke:blue;fill:blue;" x1="760.00" x2="760.00" /><line y2="55.50" id="8967" y1="30.00" style="stroke:blue;fill:blue;" x1="720.00" x2="600.00" /><line y2="80.00" id="8968" y1="30.00" style="stroke:blue;fill:blue;" x1="720.00" x2="720.00" /><line y2="30.00" id="8969" y1="30.00" style="stroke:blue;fill:blue;" x1="720.00" x2="820.00" /><line y2="55.50" id="8970" y1="80.00" style="stroke:blue;fill:blue;" x1="720.00" x2="600.00" /><line y2="30.00" id="8971" y1="80.00" style="stroke:blue;fill:blue;" x1="720.00" x2="720.00" /><line y2="80.00" id="8972" y1="80.00" style="stroke:blue;fill:blue;" x1="720.00" x2="820.00" /><line y2="380.00" id="8973" y1="300.00" style="stroke:blue;fill:blue;" x1="750.00" x2="820.00" /><line y2="326.17" id="8974" y1="300.00" style="stroke:blue;fill:blue;" x1="750.00" x2="846.08" /><line y2="280.00" id="8975" y1="300.00" style="stroke:blue;fill:blue;" x1="750.00" x2="680.00" /><line y2="230.00" id="8976" y1="200.00" style="stroke:blue;fill:blue;" x1="750.00" x2="680.00" /><line y2="204.50" id="8977" y1="260.00" style="stroke:blue;fill:blue;" x1="800.00" x2="850.00" /><line y2="326.17" id="8978" y1="260.00" style="stroke:blue;fill:blue;" x1="800.00" x2="846.08" /><line y2="260.00" id="8979" y1="260.00" style="stroke:blue;fill:blue;" x1="800.00" x2="880.00" /><line y2="30.00" id="8980" y1="30.00" style="stroke:blue;fill:blue;" x1="820.00" x2="920.00" /><line y2="30.00" id="8981" y1="30.00" style="stroke:blue;fill:blue;" x1="820.00" x2="720.00" /><line y2="80.00" id="8982" y1="80.00" style="stroke:blue;fill:blue;" x1="820.00" x2="720.00" /><line y2="80.00" id="8983" y1="80.00" style="stroke:blue;fill:blue;" x1="820.00" x2="920.00" /><line y2="430.00" id="8984" y1="380.00" style="stroke:blue;fill:blue;" x1="820.00" x2="820.00" /><line y2="326.17" id="8985" y1="380.00" style="stroke:blue;fill:blue;" x1="820.00" x2="846.08" /><line y2="300.00" id="8986" y1="380.00" style="stroke:blue;fill:blue;" x1="820.00" x2="750.00" /><line y2="359.56" id="8987" y1="380.00" style="stroke:blue;fill:blue;" x1="820.00" x2="881.93" /><line y2="530.00" id="8988" y1="430.00" style="stroke:blue;fill:blue;" x1="820.00" x2="920.00" /><line y2="630.00" id="8989" y1="430.00" style="stroke:blue;fill:blue;" x1="820.00" x2="760.00" /><line y2="380.00" id="8990" y1="430.00" style="stroke:blue;fill:blue;" x1="820.00" x2="820.00" /><line y2="380.00" id="8991" y1="430.00" style="stroke:blue;fill:blue;" x1="820.00" x2="650.00" /><line y2="404.27" id="8992" y1="430.00" style="stroke:blue;fill:blue;" x1="820.00" x2="901.99" /><line y2="204.50" id="8993" y1="155.50" style="stroke:blue;fill:blue;" x1="850.00" x2="850.00" /><line y2="180.00" id="8994" y1="155.50" style="stroke:blue;fill:blue;" x1="850.00" x2="920.00" /><line y2="130.00" id="8995" y1="155.50" style="stroke:blue;fill:blue;" x1="850.00" x2="700.00" /><line y2="180.00" id="8996" y1="204.50" style="stroke:blue;fill:blue;" x1="850.00" x2="920.00" /><line y2="204.50" id="8997" y1="204.50" style="stroke:blue;fill:blue;" x1="850.00" x2="450.00" /><line y2="155.50" id="8998" y1="204.50" style="stroke:blue;fill:blue;" x1="850.00" x2="850.00" /><line y2="260.00" id="8999" y1="204.50" style="stroke:blue;fill:blue;" x1="850.00" x2="880.00" /><line y2="260.00" id="9000" y1="204.50" style="stroke:blue;fill:blue;" x1="850.00" x2="800.00" /><line y2="380.00" id="9001" y1="326.17" style="stroke:blue;fill:blue;" x1="846.08" x2="820.00" /><line y2="260.00" id="9002" y1="326.17" style="stroke:blue;fill:blue;" x1="846.08" x2="880.00" /><line y2="300.00" id="9003" y1="326.17" style="stroke:blue;fill:blue;" x1="846.08" x2="750.00" /><line y2="260.00" id="9004" y1="326.17" style="stroke:blue;fill:blue;" x1="846.08" x2="800.00" /><line y2="204.50" id="9005" y1="260.00" style="stroke:blue;fill:blue;" x1="880.00" x2="850.00" /><line y2="326.17" id="9006" y1="260.00" style="stroke:blue;fill:blue;" x1="880.00" x2="846.08" /><line y2="260.00" id="9007" y1="260.00" style="stroke:blue;fill:blue;" x1="880.00" x2="800.00" /><line y2="380.00" id="9008" y1="359.56" style="stroke:blue;fill:blue;" x1="881.93" x2="820.00" /><line y2="430.00" id="9009" y1="404.27" style="stroke:blue;fill:blue;" x1="901.99" x2="820.00" /><line y2="80.00" id="9010" y1="80.00" style="stroke:blue;fill:blue;" x1="920.00" x2="820.00" /><line y2="280.00" id="9011" y1="180.00" style="stroke:blue;fill:blue;" x1="920.00" x2="950.00" /><line y2="204.50" id="9012" y1="180.00" style="stroke:blue;fill:blue;" x1="920.00" x2="850.00" /><line y2="155.50" id="9013" y1="180.00" style="stroke:blue;fill:blue;" x1="920.00" x2="850.00" /><line y2="227.68" id="9014" y1="262.32" style="stroke:blue;fill:blue;" x1="97.68" x2="132.32" /><line y2="400.00" id="9015" y1="330.00" style="stroke:blue;fill:blue;" x1="100.00" x2="50.00" /><line y2="230.00" id="9016" y1="280.00" style="stroke:blue;fill:blue;" x1="150.00" x2="200.00" /><line y2="404.50" id="9017" y1="355.50" style="stroke:blue;fill:blue;" x1="250.00" x2="250.00" /><line y2="255.50" id="9018" y1="304.50" style="stroke:blue;fill:blue;" x1="320.00" x2="320.00" /><line y2="460.00" id="9019" y1="304.50" style="stroke:blue;fill:blue;" x1="320.00" x2="320.00" /><line y2="460.00" id="9020" y1="460.00" style="stroke:blue;fill:blue;" x1="320.00" x2="150.00" /><line y2="304.50" id="9021" y1="460.00" style="stroke:blue;fill:blue;" x1="320.00" x2="320.00" /><line y2="600.00" id="9022" y1="360.00" style="stroke:blue;fill:blue;" x1="350.00" x2="350.00" /><line y2="260.00" id="9023" y1="360.00" style="stroke:blue;fill:blue;" x1="350.00" x2="400.00" /><line y2="204.50" id="9024" y1="155.50" style="stroke:blue;fill:blue;" x1="450.00" x2="450.00" /><line y2="680.00" id="9025" y1="730.00" style="stroke:blue;fill:blue;" x1="490.00" x2="430.00" /><line y2="204.50" id="9026" y1="160.00" style="stroke:blue;fill:blue;" x1="520.00" x2="450.00" /><line y2="100.00" id="9027" y1="160.00" style="stroke:blue;fill:blue;" x1="520.00" x2="520.00" /><line y2="530.00" id="9028" y1="580.00" style="stroke:blue;fill:blue;" x1="520.00" x2="550.00" /><line y2="330.00" id="9029" y1="280.00" style="stroke:blue;fill:blue;" x1="550.00" x2="600.00" /><line y2="330.00" id="9030" y1="280.00" style="stroke:blue;fill:blue;" x1="550.00" x2="550.00" /><line y2="280.00" id="9031" y1="280.00" style="stroke:blue;fill:blue;" x1="550.00" x2="600.00" /><line y2="180.00" id="9032" y1="280.00" style="stroke:blue;fill:blue;" x1="550.00" x2="320.00" /><line y2="330.00" id="9033" y1="330.00" style="stroke:blue;fill:blue;" x1="550.00" x2="600.00" /><line y2="280.00" id="9034" y1="330.00" style="stroke:blue;fill:blue;" x1="550.00" x2="550.00" /><line y2="430.00" id="9035" y1="330.00" style="stroke:blue;fill:blue;" x1="550.00" x2="550.00" /><line y2="330.00" id="9036" y1="280.00" style="stroke:blue;fill:blue;" x1="600.00" x2="600.00" /><line y2="280.00" id="9037" y1="280.00" style="stroke:blue;fill:blue;" x1="600.00" x2="550.00" /><line y2="280.00" id="9038" y1="280.00" style="stroke:blue;fill:blue;" x1="600.00" x2="680.00" /><line y2="360.00" id="9039" y1="330.00" style="stroke:blue;fill:blue;" x1="600.00" x2="720.00" /><line y2="330.00" id="9040" y1="330.00" style="stroke:blue;fill:blue;" x1="600.00" x2="550.00" /><line y2="280.00" id="9041" y1="330.00" style="stroke:blue;fill:blue;" x1="600.00" x2="600.00" /><line y2="280.00" id="9042" y1="330.00" style="stroke:blue;fill:blue;" x1="600.00" x2="550.00" /><line y2="430.00" id="9043" y1="330.00" style="stroke:blue;fill:blue;" x1="600.00" x2="550.00" /><line y2="104.50" id="9044" y1="160.00" style="stroke:blue;fill:blue;" x1="620.00" x2="600.00" /><line y2="430.00" id="9045" y1="380.00" style="stroke:blue;fill:blue;" x1="650.00" x2="650.00" /><line y2="430.00" id="9046" y1="380.00" style="stroke:blue;fill:blue;" x1="650.00" x2="550.00" /><line y2="430.00" id="9047" y1="380.00" style="stroke:blue;fill:blue;" x1="650.00" x2="820.00" /><line y2="460.00" id="9048" y1="480.00" style="stroke:blue;fill:blue;" x1="650.00" x2="700.00" /><line y2="330.00" id="9049" y1="360.00" style="stroke:blue;fill:blue;" x1="720.00" x2="600.00" /><line y2="550.00" id="9050" y1="360.00" style="stroke:blue;fill:blue;" x1="720.00" x2="760.00" /><line y2="30.00" id="9051" y1="30.00" style="stroke:blue;fill:blue;" x1="920.00" x2="820.00" /><line y2="280.00" id="9052" y1="530.00" style="stroke:blue;fill:blue;" x1="920.00" x2="950.00" /><line y2="630.00" id="9053" y1="530.00" style="stroke:blue;fill:blue;" x1="920.00" x2="760.00" /><line y2="430.00" id="9054" y1="530.00" style="stroke:blue;fill:blue;" x1="920.00" x2="820.00" /><line y2="530.00" id="9055" y1="280.00" style="stroke:blue;fill:blue;" x1="950.00" x2="920.00" /><line y2="180.00" id="9056" y1="280.00" style="stroke:blue;fill:blue;" x1="950.00" x2="920.00" /></svg>
