<?xml version="1.0" standalone="yes"?><!DOCTYPE svg PUBLIC "-//W3C//DTD SVG 1.1//EN" "http://www.w3.org/Graphics/SVG/1.1/DTD/svg11.dtd"[]><svg width="1050.00" id="32242" height="800.00" xmlns="http://www.w3.org/2000/svg" xmlns:xlink="http://www.w3.org/1999/xlink"><rect height="5.00" width="5.00" Name="斯塔克蒙" ID="30003794" y="221.91" id="32243" Region="宁静之域" Type="system" x="79.04" /><text id="32244" x="79.04" y="221.91">斯塔克蒙</text><rect height="5.00" width="5.00" Name="埃达尔特" ID="30005307" y="300.00" id="32246" Region="维格温铎" Type="system" x="80.00" /><text id="32247" x="80.00" y="300.00">埃达尔特</text><rect height="5.00" width="5.00" Name="茨图瓦尔特" ID="30005305" y="420.00" id="32249" Region="维格温铎" Type="system" x="120.00" /><text id="32250" x="120.00" y="420.00">茨图瓦尔特</text><rect height="5.00" width="5.00" Name="安大略尔" ID="30015305" y="600.00" id="32252" Region="维格温铎" Type="system" x="120.00" /><text id="32253" x="120.00" y="600.00">安大略尔</text><rect height="5.00" width="5.00" Name="克拉西勒" ID="30035305" y="120.00" id="32255" Region="维格温铎" Type="system" x="150.00" /><text id="32256" x="150.00" y="120.00">克拉西勒</text><rect height="5.00" width="5.00" Name="阿伦特尼" ID="30005304" y="580.00" id="32258" Region="维格温铎" Type="system" x="180.00" /><text id="32259" x="180.00" y="580.00">阿伦特尼</text><rect height="5.00" width="5.00" Name="梅尔罗勒斯" ID="30005303" y="480.00" id="32261" Region="维格温铎" Type="system" x="180.00" /><text id="32262" x="180.00" y="480.00">梅尔罗勒斯</text><rect height="5.00" width="5.00" Name="克勒里农" ID="30045305" y="80.00" id="32264" Region="维格温铎" Type="system" x="200.00" /><text id="32265" x="200.00" y="80.00">克勒里农</text><rect height="5.00" width="5.00" Name="伊勒达" ID="30005315" y="150.00" id="32267" Region="维格温铎" Type="system" x="220.00" /><text id="32268" x="220.00" y="150.00">伊勒达</text><rect height="5.00" width="5.00" Name="埃列尼亚" ID="30005302" y="500.00" id="32270" Region="维格温铎" Type="system" x="250.00" /><text id="32271" x="250.00" y="500.00">埃列尼亚</text><rect height="5.00" width="5.00" Name="鲁瑟" ID="30005316" y="100.00" id="32273" Region="维格温铎" Type="system" x="250.00" /><text id="32274" x="250.00" y="100.00">鲁瑟</text><rect height="5.00" width="5.00" Name="埃米格农" ID="30005311" y="279.70" id="32276" Region="维格温铎" Type="system" x="361.05" /><text id="32277" x="361.05" y="279.70">埃米格农</text><rect height="5.00" width="5.00" Name="特鲁尔瑟" ID="30005314" y="380.00" id="32279" Region="维格温铎" Type="system" x="280.00" /><text id="32280" x="280.00" y="380.00">特鲁尔瑟</text><rect height="5.00" width="5.00" Name="托瑞尔" ID="30005301" y="450.00" id="32282" Region="维格温铎" Type="system" x="280.00" /><text id="32283" x="280.00" y="450.00">托瑞尔</text><rect height="5.00" width="5.00" Name="瓦伊尔勒" ID="30005306" y="550.00" id="32285" Region="维格温铎" Type="system" x="280.00" /><text id="32286" x="280.00" y="550.00">瓦伊尔勒</text><rect height="5.00" width="5.00" Name="俄库恩比伦" ID="30005317" y="80.00" id="32288" Region="维格温铎" Type="system" x="300.00" /><text id="32289" x="300.00" y="80.00">俄库恩比伦</text><rect height="5.00" width="5.00" Name="维" ID="30005318" y="180.00" id="32291" Region="维格温铎" Type="system" x="300.00" /><text id="32292" x="300.00" y="180.00">维</text><rect height="5.00" width="5.00" Name="舍尔宁斯" ID="30005310" y="250.00" id="32294" Region="维格温铎" Type="system" x="300.00" /><text id="32295" x="300.00" y="250.00">舍尔宁斯</text><rect height="5.00" width="5.00" Name="加纳森" ID="30025305" y="520.00" id="32297" Region="维格温铎" Type="system" x="320.00" /><text id="32298" x="320.00" y="520.00">加纳森</text><rect height="5.00" width="5.00" Name="厄尔迈" ID="30005313" y="400.00" id="32300" Region="维格温铎" Type="system" x="350.00" /><text id="32301" x="350.00" y="400.00">厄尔迈</text><rect height="5.00" width="5.00" Name="吉夫维特" ID="30005308" y="311.47" id="32303" Region="维格温铎" Type="system" x="323.75" /><text id="32304" x="323.75" y="311.47">吉夫维特</text><rect height="5.00" width="5.00" Name="拉涅列斯" ID="30005319" y="100.00" id="32306" Region="维格温铎" Type="system" x="350.00" /><text id="32307" x="350.00" y="100.00">拉涅列斯</text><rect height="5.00" width="5.00" Name="安萨列" ID="30005309" y="342.29" id="32309" Region="维格温铎" Type="system" x="362.44" /><text id="32310" x="362.44" y="342.29">安萨列</text><rect height="5.00" width="5.00" Name="基斯尔勒斯" ID="30005312" y="400.00" id="32312" Region="维格温铎" Type="system" x="420.00" /><text id="32313" x="420.00" y="400.00">基斯尔勒斯</text><rect height="5.00" width="5.00" Name="罗耶斯" ID="30005300" y="250.00" id="32315" Region="维格温铎" Type="system" x="450.00" /><text id="32316" x="450.00" y="250.00">罗耶斯</text><rect height="5.00" width="5.00" Name="西维斯" ID="30005320" y="80.00" id="32318" Region="维格温铎" Type="system" x="450.00" /><text id="32319" x="450.00" y="80.00">西维斯</text><rect height="5.00" width="5.00" Name="舒鲁茨尔" ID="30005322" y="576.17" id="32321" Region="维格温铎" Type="system" x="478.09" /><text id="32322" x="478.09" y="576.17">舒鲁茨尔</text><rect height="5.00" width="5.00" Name="欧乐达" ID="30005297" y="280.00" id="32324" Region="维格温铎" Type="system" x="500.00" /><text id="32325" x="500.00" y="280.00">欧乐达</text><rect height="5.00" width="5.00" Name="索尔提特" ID="30005323" y="620.00" id="32327" Region="维格温铎" Type="system" x="500.00" /><text id="32328" x="500.00" y="620.00">索尔提特</text><rect height="5.00" width="5.00" Name="克劳勒尼" ID="30005324" y="663.83" id="32330" Region="维格温铎" Type="system" x="521.91" /><text id="32331" x="521.91" y="663.83">克劳勒尼</text><rect height="5.00" width="5.00" Name="缪塔勒尔" ID="30005299" y="100.00" id="32333" Region="维格温铎" Type="system" x="550.00" /><text id="32334" x="550.00" y="100.00">缪塔勒尔</text><rect height="5.00" width="5.00" Name="梅马尼尔" ID="30005296" y="220.00" id="32336" Region="维格温铎" Type="system" x="550.00" /><text id="32337" x="550.00" y="220.00">梅马尼尔</text><rect height="5.00" width="5.00" Name="乔万农" ID="30005321" y="50.00" id="32339" Region="维格温铎" Type="system" x="550.00" /><text id="32340" x="550.00" y="50.00">乔万农</text><rect height="5.00" width="5.00" Name="马萨勒" ID="30005325" y="710.00" id="32342" Region="维格温铎" Type="system" x="570.00" /><text id="32343" x="570.00" y="710.00">马萨勒</text><rect height="5.00" width="5.00" Name="靠斯托勒" ID="30005298" y="150.00" id="32345" Region="维格温铎" Type="system" x="550.00" /><text id="32346" x="550.00" y="150.00">靠斯托勒</text><rect height="5.00" width="5.00" Name="安尼列" ID="30005326" y="730.00" id="32348" Region="维格温铎" Type="system" x="620.00" /><text id="32349" x="620.00" y="730.00">安尼列</text><rect height="5.00" width="5.00" Name="缪勒坦" ID="30005295" y="217.68" id="32351" Region="维格温铎" Type="system" x="617.68" /><text id="32352" x="617.68" y="217.68">缪勒坦</text><rect height="5.00" width="5.00" Name="耶舒尔" ID="30005008" y="50.00" id="32354" Region="精华之域" Type="system" x="650.00" /><text id="32355" x="650.00" y="50.00">耶舒尔</text><rect height="5.00" width="5.00" Name="彻谢特" ID="30005327" y="750.00" id="32357" Region="维格温铎" Type="system" x="680.00" /><text id="32358" x="680.00" y="750.00">彻谢特</text><rect height="5.00" width="5.00" Name="奥斯蒙莫尼" ID="30005332" y="480.00" id="32360" Region="维格温铎" Type="system" x="750.00" /><text id="32361" x="750.00" y="480.00">奥斯蒙莫尼</text><rect height="5.00" width="5.00" Name="瑞比里尔" ID="30005328" y="750.00" id="32363" Region="维格温铎" Type="system" x="750.00" /><text id="32364" x="750.00" y="750.00">瑞比里尔</text><rect height="5.00" width="5.00" Name="斯托欧" ID="30005333" y="352.52" id="32366" Region="维格温铎" Type="system" x="767.46" /><text id="32367" x="767.46" y="352.52">斯托欧</text><rect height="5.00" width="5.00" Name="查卓斯" ID="30005331" y="420.00" id="32369" Region="维格温铎" Type="system" x="800.00" /><text id="32370" x="800.00" y="420.00">查卓斯</text><rect height="5.00" width="5.00" Name="安德瑞亚" ID="30005329" y="319.74" id="32372" Region="维格温铎" Type="system" x="803.88" /><text id="32373" x="803.88" y="319.74">安德瑞亚</text><rect height="5.00" width="5.00" Name="铁里耶维" ID="30005334" y="480.00" id="32375" Region="维格温铎" Type="system" x="820.00" /><text id="32376" x="820.00" y="480.00">铁里耶维</text><rect height="5.00" width="5.00" Name="埃拉隆" ID="30005330" y="380.00" id="32378" Region="维格温铎" Type="system" x="850.00" /><text id="32379" x="850.00" y="380.00">埃拉隆</text><rect height="5.00" width="5.00" Name="阿泰恩" ID="30005004" y="280.00" id="32381" Region="精华之域" Type="system" x="900.00" /><text id="32382" x="900.00" y="280.00">阿泰恩</text><rect height="5.00" width="5.00" Name="卡维因" ID="30003795" y="200.00" id="32384" Region="宁静之域" Type="system" x="20.00" /><text id="32385" x="20.00" y="200.00">卡维因</text><rect height="5.00" width="5.00" Name="埃瓦奥克" ID="30003843" y="350.00" id="32387" Region="宁静之域" Type="system" x="20.00" /><text id="32388" x="20.00" y="350.00">埃瓦奥克</text><rect height="5.00" width="5.00" Name="达斯顿斯" ID="30003797" y="178.09" id="32390" Region="宁静之域" Type="system" x="100.96" /><text id="32391" x="100.96" y="178.09">达斯顿斯</text><rect height="5.00" width="5.00" Name="斯雷斯" ID="30003798" y="250.00" id="32393" Region="宁静之域" Type="system" x="150.00" /><text id="32394" x="150.00" y="250.00">斯雷斯</text><rect height="5.00" width="5.00" Name="奥斯汀格勒" ID="30003792" y="200.00" id="32396" Region="宁静之域" Type="system" x="150.00" /><text id="32397" x="150.00" y="200.00">奥斯汀格勒</text><rect height="5.00" width="5.00" Name="塔尔" ID="30005199" y="420.00" id="32399" Region="吉勒西斯" Type="system" x="180.00" /><text id="32400" x="180.00" y="420.00">塔尔</text><rect height="5.00" width="5.00" Name="迪亚德里" ID="30005229" y="480.00" id="32402" Region="吉勒西斯" Type="system" x="380.00" /><text id="32403" x="380.00" y="480.00">迪亚德里</text><rect height="5.00" width="5.00" Name="埃格则" ID="30003787" y="185.39" id="32405" Region="宁静之域" Type="system" x="385.16" /><text id="32406" x="385.16" y="185.39">埃格则</text><rect height="5.00" width="5.00" Name="尤拉" ID="30005204" y="420.00" id="32408" Region="吉勒西斯" Type="system" x="520.00" /><text id="32409" x="520.00" y="420.00">尤拉</text><rect height="5.00" width="5.00" Name="拉底赛迪尔" ID="30004999" y="20.00" id="32411" Region="精华之域" Type="system" x="600.00" /><text id="32412" x="600.00" y="20.00">拉底赛迪尔</text><rect height="5.00" width="5.00" Name="奥拉菲特" ID="30005203" y="420.00" id="32414" Region="吉勒西斯" Type="system" x="620.00" /><text id="32415" x="620.00" y="420.00">奥拉菲特</text><rect height="5.00" width="5.00" Name="印卓古勒" ID="30004982" y="252.32" id="32417" Region="精华之域" Type="system" x="652.32" /><text id="32418" x="652.32" y="252.32">印卓古勒</text><rect height="5.00" width="5.00" Name="欧尼" ID="30004990" y="20.00" id="32420" Region="精华之域" Type="system" x="700.00" /><text id="32421" x="700.00" y="20.00">欧尼</text><rect height="5.00" width="5.00" Name="美希比尔" ID="30004975" y="220.00" id="32423" Region="精华之域" Type="system" x="720.00" /><text id="32424" x="720.00" y="220.00">美希比尔</text><rect height="5.00" width="5.00" Name="佩门勒" ID="30004978" y="277.74" id="32426" Region="精华之域" Type="system" x="778.66" /><text id="32427" x="778.66" y="277.74">佩门勒</text><rect height="5.00" width="5.00" Name="塔诺冷" ID="30002812" y="550.00" id="32429" Region="赛塔德洱" Type="system" x="800.00" /><text id="32430" x="800.00" y="550.00">塔诺冷</text><rect height="5.00" width="5.00" Name="6-CZ49" ID="30003280" y="750.00" id="32432" Region="辛迪加" Type="system" x="820.00" /><text id="32433" x="820.00" y="750.00">6-CZ49</text><rect height="5.00" width="5.00" Name="埃迪瑞恩" ID="30005003" y="100.00" id="32435" Region="精华之域" Type="system" x="850.00" /><text id="32436" x="850.00" y="100.00">埃迪瑞恩</text><rect height="5.00" width="5.00" Name="劳韦尔" ID="30005002" y="150.00" id="32438" Region="精华之域" Type="system" x="900.00" /><text id="32439" x="900.00" y="150.00">劳韦尔</text><rect height="5.00" width="5.00" Name="德瑞林特" ID="30005025" y="500.00" id="32441" Region="精华之域" Type="system" x="920.00" /><text id="32442" x="920.00" y="500.00">德瑞林特</text><rect height="5.00" width="5.00" Name="印塔基" ID="30003788" y="231.14" id="32444" Region="宁静之域" Type="system" x="367.60" /><text id="32445" x="367.60" y="231.14">印塔基</text><line y2="200.00" id="32447" y1="221.91" style="stroke:blue;fill:blue;" x1="79.04" x2="150.00" /><line y2="200.00" id="32448" y1="221.91" style="stroke:blue;fill:blue;" x1="79.04" x2="20.00" /><line y2="178.09" id="32449" y1="221.91" style="stroke:blue;fill:blue;" x1="79.04" x2="100.96" /><line y2="250.00" id="32450" y1="221.91" style="stroke:blue;fill:blue;" x1="79.04" x2="150.00" /><line y2="300.00" id="32451" y1="221.91" style="stroke:blue;fill:blue;" x1="79.04" x2="80.00" /><line y2="221.91" id="32452" y1="300.00" style="stroke:blue;fill:blue;" x1="80.00" x2="79.04" /><line y2="350.00" id="32453" y1="300.00" style="stroke:blue;fill:blue;" x1="80.00" x2="20.00" /><line y2="420.00" id="32454" y1="300.00" style="stroke:blue;fill:blue;" x1="80.00" x2="120.00" /><line y2="580.00" id="32455" y1="420.00" style="stroke:blue;fill:blue;" x1="120.00" x2="180.00" /><line y2="300.00" id="32456" y1="420.00" style="stroke:blue;fill:blue;" x1="120.00" x2="80.00" /><line y2="150.00" id="32457" y1="420.00" style="stroke:blue;fill:blue;" x1="120.00" x2="220.00" /><line y2="580.00" id="32458" y1="600.00" style="stroke:blue;fill:blue;" x1="120.00" x2="180.00" /><line y2="150.00" id="32459" y1="120.00" style="stroke:blue;fill:blue;" x1="150.00" x2="220.00" /><line y2="500.00" id="32460" y1="580.00" style="stroke:blue;fill:blue;" x1="180.00" x2="250.00" /><line y2="480.00" id="32461" y1="580.00" style="stroke:blue;fill:blue;" x1="180.00" x2="180.00" /><line y2="420.00" id="32462" y1="580.00" style="stroke:blue;fill:blue;" x1="180.00" x2="120.00" /><line y2="550.00" id="32463" y1="580.00" style="stroke:blue;fill:blue;" x1="180.00" x2="280.00" /><line y2="576.17" id="32464" y1="580.00" style="stroke:blue;fill:blue;" x1="180.00" x2="478.09" /><line y2="600.00" id="32465" y1="580.00" style="stroke:blue;fill:blue;" x1="180.00" x2="120.00" /><line y2="420.00" id="32466" y1="480.00" style="stroke:blue;fill:blue;" x1="180.00" x2="180.00" /><line y2="450.00" id="32467" y1="480.00" style="stroke:blue;fill:blue;" x1="180.00" x2="280.00" /><line y2="580.00" id="32468" y1="480.00" style="stroke:blue;fill:blue;" x1="180.00" x2="180.00" /><line y2="100.00" id="32469" y1="80.00" style="stroke:blue;fill:blue;" x1="200.00" x2="250.00" /><line y2="420.00" id="32470" y1="150.00" style="stroke:blue;fill:blue;" x1="220.00" x2="120.00" /><line y2="100.00" id="32471" y1="150.00" style="stroke:blue;fill:blue;" x1="220.00" x2="250.00" /><line y2="180.00" id="32472" y1="150.00" style="stroke:blue;fill:blue;" x1="220.00" x2="300.00" /><line y2="120.00" id="32473" y1="150.00" style="stroke:blue;fill:blue;" x1="220.00" x2="150.00" /><line y2="450.00" id="32474" y1="500.00" style="stroke:blue;fill:blue;" x1="250.00" x2="280.00" /><line y2="580.00" id="32475" y1="500.00" style="stroke:blue;fill:blue;" x1="250.00" x2="180.00" /><line y2="550.00" id="32476" y1="500.00" style="stroke:blue;fill:blue;" x1="250.00" x2="280.00" /><line y2="150.00" id="32477" y1="100.00" style="stroke:blue;fill:blue;" x1="250.00" x2="220.00" /><line y2="80.00" id="32478" y1="100.00" style="stroke:blue;fill:blue;" x1="250.00" x2="300.00" /><line y2="180.00" id="32479" y1="100.00" style="stroke:blue;fill:blue;" x1="250.00" x2="300.00" /><line y2="80.00" id="32480" y1="100.00" style="stroke:blue;fill:blue;" x1="250.00" x2="200.00" /><line y2="311.47" id="32481" y1="279.70" style="stroke:blue;fill:blue;" x1="361.05" x2="323.75" /><line y2="231.14" id="32482" y1="279.70" style="stroke:blue;fill:blue;" x1="361.05" x2="367.60" /><line y2="400.00" id="32483" y1="380.00" style="stroke:blue;fill:blue;" x1="280.00" x2="350.00" /><line y2="420.00" id="32484" y1="450.00" style="stroke:blue;fill:blue;" x1="280.00" x2="520.00" /><line y2="480.00" id="32485" y1="450.00" style="stroke:blue;fill:blue;" x1="280.00" x2="380.00" /><line y2="500.00" id="32486" y1="450.00" style="stroke:blue;fill:blue;" x1="280.00" x2="250.00" /><line y2="480.00" id="32487" y1="450.00" style="stroke:blue;fill:blue;" x1="280.00" x2="180.00" /><line y2="520.00" id="32488" y1="450.00" style="stroke:blue;fill:blue;" x1="280.00" x2="320.00" /><line y2="500.00" id="32489" y1="550.00" style="stroke:blue;fill:blue;" x1="280.00" x2="250.00" /><line y2="580.00" id="32490" y1="550.00" style="stroke:blue;fill:blue;" x1="280.00" x2="180.00" /><line y2="100.00" id="32491" y1="80.00" style="stroke:blue;fill:blue;" x1="300.00" x2="250.00" /><line y2="100.00" id="32492" y1="80.00" style="stroke:blue;fill:blue;" x1="300.00" x2="350.00" /><line y2="250.00" id="32493" y1="180.00" style="stroke:blue;fill:blue;" x1="300.00" x2="300.00" /><line y2="150.00" id="32494" y1="180.00" style="stroke:blue;fill:blue;" x1="300.00" x2="220.00" /><line y2="100.00" id="32495" y1="180.00" style="stroke:blue;fill:blue;" x1="300.00" x2="250.00" /><line y2="100.00" id="32496" y1="180.00" style="stroke:blue;fill:blue;" x1="300.00" x2="350.00" /><line y2="311.47" id="32497" y1="250.00" style="stroke:blue;fill:blue;" x1="300.00" x2="323.75" /><line y2="180.00" id="32498" y1="250.00" style="stroke:blue;fill:blue;" x1="300.00" x2="300.00" /><line y2="450.00" id="32499" y1="520.00" style="stroke:blue;fill:blue;" x1="320.00" x2="280.00" /><line y2="400.00" id="32500" y1="400.00" style="stroke:blue;fill:blue;" x1="350.00" x2="420.00" /><line y2="380.00" id="32501" y1="400.00" style="stroke:blue;fill:blue;" x1="350.00" x2="280.00" /><line y2="280.00" id="32502" y1="311.47" style="stroke:blue;fill:blue;" x1="323.75" x2="500.00" /><line y2="342.29" id="32503" y1="311.47" style="stroke:blue;fill:blue;" x1="323.75" x2="362.44" /><line y2="250.00" id="32504" y1="311.47" style="stroke:blue;fill:blue;" x1="323.75" x2="300.00" /><line y2="279.70" id="32505" y1="311.47" style="stroke:blue;fill:blue;" x1="323.75" x2="361.05" /><line y2="80.00" id="32506" y1="100.00" style="stroke:blue;fill:blue;" x1="350.00" x2="300.00" /><line y2="180.00" id="32507" y1="100.00" style="stroke:blue;fill:blue;" x1="350.00" x2="300.00" /><line y2="80.00" id="32508" y1="100.00" style="stroke:blue;fill:blue;" x1="350.00" x2="450.00" /><line y2="311.47" id="32509" y1="342.29" style="stroke:blue;fill:blue;" x1="362.44" x2="323.75" /><line y2="400.00" id="32510" y1="342.29" style="stroke:blue;fill:blue;" x1="362.44" x2="420.00" /><line y2="342.29" id="32511" y1="400.00" style="stroke:blue;fill:blue;" x1="420.00" x2="362.44" /><line y2="400.00" id="32512" y1="400.00" style="stroke:blue;fill:blue;" x1="420.00" x2="350.00" /><line y2="576.17" id="32513" y1="400.00" style="stroke:blue;fill:blue;" x1="420.00" x2="478.09" /><line y2="185.39" id="32514" y1="250.00" style="stroke:blue;fill:blue;" x1="450.00" x2="385.16" /><line y2="280.00" id="32515" y1="250.00" style="stroke:blue;fill:blue;" x1="450.00" x2="500.00" /><line y2="100.00" id="32516" y1="80.00" style="stroke:blue;fill:blue;" x1="450.00" x2="550.00" /><line y2="100.00" id="32517" y1="80.00" style="stroke:blue;fill:blue;" x1="450.00" x2="350.00" /><line y2="50.00" id="32518" y1="80.00" style="stroke:blue;fill:blue;" x1="450.00" x2="550.00" /><line y2="580.00" id="32519" y1="576.17" style="stroke:blue;fill:blue;" x1="478.09" x2="180.00" /><line y2="400.00" id="32520" y1="576.17" style="stroke:blue;fill:blue;" x1="478.09" x2="420.00" /><line y2="620.00" id="32521" y1="576.17" style="stroke:blue;fill:blue;" x1="478.09" x2="500.00" /><line y2="480.00" id="32522" y1="576.17" style="stroke:blue;fill:blue;" x1="478.09" x2="750.00" /><line y2="220.00" id="32523" y1="280.00" style="stroke:blue;fill:blue;" x1="500.00" x2="550.00" /><line y2="250.00" id="32524" y1="280.00" style="stroke:blue;fill:blue;" x1="500.00" x2="450.00" /><line y2="311.47" id="32525" y1="280.00" style="stroke:blue;fill:blue;" x1="500.00" x2="323.75" /><line y2="576.17" id="32526" y1="620.00" style="stroke:blue;fill:blue;" x1="500.00" x2="478.09" /><line y2="663.83" id="32527" y1="620.00" style="stroke:blue;fill:blue;" x1="500.00" x2="521.91" /><line y2="620.00" id="32528" y1="663.83" style="stroke:blue;fill:blue;" x1="521.91" x2="500.00" /><line y2="710.00" id="32529" y1="663.83" style="stroke:blue;fill:blue;" x1="521.91" x2="570.00" /><line y2="150.00" id="32530" y1="100.00" style="stroke:blue;fill:blue;" x1="550.00" x2="550.00" /><line y2="80.00" id="32531" y1="100.00" style="stroke:blue;fill:blue;" x1="550.00" x2="450.00" /><line y2="217.68" id="32532" y1="220.00" style="stroke:blue;fill:blue;" x1="550.00" x2="617.68" /><line y2="280.00" id="32533" y1="220.00" style="stroke:blue;fill:blue;" x1="550.00" x2="500.00" /><line y2="150.00" id="32534" y1="220.00" style="stroke:blue;fill:blue;" x1="550.00" x2="550.00" /><line y2="50.00" id="32535" y1="50.00" style="stroke:blue;fill:blue;" x1="550.00" x2="650.00" /><line y2="80.00" id="32536" y1="50.00" style="stroke:blue;fill:blue;" x1="550.00" x2="450.00" /><line y2="663.83" id="32537" y1="710.00" style="stroke:blue;fill:blue;" x1="570.00" x2="521.91" /><line y2="730.00" id="32538" y1="710.00" style="stroke:blue;fill:blue;" x1="570.00" x2="620.00" /><line y2="220.00" id="32539" y1="150.00" style="stroke:blue;fill:blue;" x1="550.00" x2="550.00" /><line y2="100.00" id="32540" y1="150.00" style="stroke:blue;fill:blue;" x1="550.00" x2="550.00" /><line y2="710.00" id="32541" y1="730.00" style="stroke:blue;fill:blue;" x1="620.00" x2="570.00" /><line y2="750.00" id="32542" y1="730.00" style="stroke:blue;fill:blue;" x1="620.00" x2="680.00" /><line y2="220.00" id="32543" y1="217.68" style="stroke:blue;fill:blue;" x1="617.68" x2="720.00" /><line y2="252.32" id="32544" y1="217.68" style="stroke:blue;fill:blue;" x1="617.68" x2="652.32" /><line y2="220.00" id="32545" y1="217.68" style="stroke:blue;fill:blue;" x1="617.68" x2="550.00" /><line y2="20.00" id="32546" y1="50.00" style="stroke:blue;fill:blue;" x1="650.00" x2="700.00" /><line y2="20.00" id="32547" y1="50.00" style="stroke:blue;fill:blue;" x1="650.00" x2="600.00" /><line y2="100.00" id="32548" y1="50.00" style="stroke:blue;fill:blue;" x1="650.00" x2="850.00" /><line y2="50.00" id="32549" y1="50.00" style="stroke:blue;fill:blue;" x1="650.00" x2="550.00" /><line y2="730.00" id="32550" y1="750.00" style="stroke:blue;fill:blue;" x1="680.00" x2="620.00" /><line y2="750.00" id="32551" y1="750.00" style="stroke:blue;fill:blue;" x1="680.00" x2="750.00" /><line y2="576.17" id="32552" y1="480.00" style="stroke:blue;fill:blue;" x1="750.00" x2="478.09" /><line y2="420.00" id="32553" y1="480.00" style="stroke:blue;fill:blue;" x1="750.00" x2="800.00" /><line y2="480.00" id="32554" y1="480.00" style="stroke:blue;fill:blue;" x1="750.00" x2="820.00" /><line y2="750.00" id="32555" y1="750.00" style="stroke:blue;fill:blue;" x1="750.00" x2="820.00" /><line y2="750.00" id="32556" y1="750.00" style="stroke:blue;fill:blue;" x1="750.00" x2="680.00" /><line y2="319.74" id="32557" y1="352.52" style="stroke:blue;fill:blue;" x1="767.46" x2="803.88" /><line y2="380.00" id="32558" y1="352.52" style="stroke:blue;fill:blue;" x1="767.46" x2="850.00" /><line y2="420.00" id="32559" y1="420.00" style="stroke:blue;fill:blue;" x1="800.00" x2="620.00" /><line y2="380.00" id="32560" y1="420.00" style="stroke:blue;fill:blue;" x1="800.00" x2="850.00" /><line y2="480.00" id="32561" y1="420.00" style="stroke:blue;fill:blue;" x1="800.00" x2="750.00" /><line y2="480.00" id="32562" y1="420.00" style="stroke:blue;fill:blue;" x1="800.00" x2="820.00" /><line y2="277.74" id="32563" y1="319.74" style="stroke:blue;fill:blue;" x1="803.88" x2="778.66" /><line y2="380.00" id="32564" y1="319.74" style="stroke:blue;fill:blue;" x1="803.88" x2="850.00" /><line y2="352.52" id="32565" y1="319.74" style="stroke:blue;fill:blue;" x1="803.88" x2="767.46" /><line y2="550.00" id="32566" y1="480.00" style="stroke:blue;fill:blue;" x1="820.00" x2="800.00" /><line y2="500.00" id="32567" y1="480.00" style="stroke:blue;fill:blue;" x1="820.00" x2="920.00" /><line y2="420.00" id="32568" y1="480.00" style="stroke:blue;fill:blue;" x1="820.00" x2="800.00" /><line y2="480.00" id="32569" y1="480.00" style="stroke:blue;fill:blue;" x1="820.00" x2="750.00" /><line y2="280.00" id="32570" y1="380.00" style="stroke:blue;fill:blue;" x1="850.00" x2="900.00" /><line y2="319.74" id="32571" y1="380.00" style="stroke:blue;fill:blue;" x1="850.00" x2="803.88" /><line y2="420.00" id="32572" y1="380.00" style="stroke:blue;fill:blue;" x1="850.00" x2="800.00" /><line y2="352.52" id="32573" y1="380.00" style="stroke:blue;fill:blue;" x1="850.00" x2="767.46" /><line y2="150.00" id="32574" y1="280.00" style="stroke:blue;fill:blue;" x1="900.00" x2="900.00" /><line y2="380.00" id="32575" y1="280.00" style="stroke:blue;fill:blue;" x1="900.00" x2="850.00" /><line y2="221.91" id="32576" y1="200.00" style="stroke:blue;fill:blue;" x1="20.00" x2="79.04" /><line y2="300.00" id="32577" y1="350.00" style="stroke:blue;fill:blue;" x1="20.00" x2="80.00" /><line y2="200.00" id="32578" y1="178.09" style="stroke:blue;fill:blue;" x1="100.96" x2="150.00" /><line y2="221.91" id="32579" y1="178.09" style="stroke:blue;fill:blue;" x1="100.96" x2="79.04" /><line y2="221.91" id="32580" y1="250.00" style="stroke:blue;fill:blue;" x1="150.00" x2="79.04" /><line y2="185.39" id="32581" y1="200.00" style="stroke:blue;fill:blue;" x1="150.00" x2="385.16" /><line y2="221.91" id="32582" y1="200.00" style="stroke:blue;fill:blue;" x1="150.00" x2="79.04" /><line y2="178.09" id="32583" y1="200.00" style="stroke:blue;fill:blue;" x1="150.00" x2="100.96" /><line y2="480.00" id="32584" y1="420.00" style="stroke:blue;fill:blue;" x1="180.00" x2="180.00" /><line y2="450.00" id="32585" y1="480.00" style="stroke:blue;fill:blue;" x1="380.00" x2="280.00" /><line y2="231.14" id="32586" y1="185.39" style="stroke:blue;fill:blue;" x1="385.16" x2="367.60" /><line y2="200.00" id="32587" y1="185.39" style="stroke:blue;fill:blue;" x1="385.16" x2="150.00" /><line y2="250.00" id="32588" y1="185.39" style="stroke:blue;fill:blue;" x1="385.16" x2="450.00" /><line y2="420.00" id="32589" y1="420.00" style="stroke:blue;fill:blue;" x1="520.00" x2="620.00" /><line y2="450.00" id="32590" y1="420.00" style="stroke:blue;fill:blue;" x1="520.00" x2="280.00" /><line y2="50.00" id="32591" y1="20.00" style="stroke:blue;fill:blue;" x1="600.00" x2="650.00" /><line y2="420.00" id="32592" y1="420.00" style="stroke:blue;fill:blue;" x1="620.00" x2="520.00" /><line y2="420.00" id="32593" y1="420.00" style="stroke:blue;fill:blue;" x1="620.00" x2="800.00" /><line y2="217.68" id="32594" y1="252.32" style="stroke:blue;fill:blue;" x1="652.32" x2="617.68" /><line y2="50.00" id="32595" y1="20.00" style="stroke:blue;fill:blue;" x1="700.00" x2="650.00" /><line y2="277.74" id="32596" y1="220.00" style="stroke:blue;fill:blue;" x1="720.00" x2="778.66" /><line y2="217.68" id="32597" y1="220.00" style="stroke:blue;fill:blue;" x1="720.00" x2="617.68" /><line y2="220.00" id="32598" y1="277.74" style="stroke:blue;fill:blue;" x1="778.66" x2="720.00" /><line y2="319.74" id="32599" y1="277.74" style="stroke:blue;fill:blue;" x1="778.66" x2="803.88" /><line y2="480.00" id="32600" y1="550.00" style="stroke:blue;fill:blue;" x1="800.00" x2="820.00" /><line y2="750.00" id="32601" y1="750.00" style="stroke:blue;fill:blue;" x1="820.00" x2="750.00" /><line y2="150.00" id="32602" y1="100.00" style="stroke:blue;fill:blue;" x1="850.00" x2="900.00" /><line y2="50.00" id="32603" y1="100.00" style="stroke:blue;fill:blue;" x1="850.00" x2="650.00" /><line y2="100.00" id="32604" y1="150.00" style="stroke:blue;fill:blue;" x1="900.00" x2="850.00" /><line y2="280.00" id="32605" y1="150.00" style="stroke:blue;fill:blue;" x1="900.00" x2="900.00" /><line y2="480.00" id="32606" y1="500.00" style="stroke:blue;fill:blue;" x1="920.00" x2="820.00" /><line y2="185.39" id="32607" y1="231.14" style="stroke:blue;fill:blue;" x1="367.60" x2="385.16" /><line y2="279.70" id="32608" y1="231.14" style="stroke:blue;fill:blue;" x1="367.60" x2="361.05" /></svg>
