<?xml version="1.0" standalone="yes"?><!DOCTYPE svg PUBLIC "-//W3C//DTD SVG 1.1//EN" "http://www.w3.org/Graphics/SVG/1.1/DTD/svg11.dtd"[]><svg width="1050.00" id="13812" height="800.00" xmlns="http://www.w3.org/2000/svg" xmlns:xlink="http://www.w3.org/1999/xlink"><rect height="5.00" width="5.00" Name="洛古图尔" ID="30042547" y="150.00" id="13813" Region="西玛特尔" Type="system" x="20.00" /><text id="13814" x="20.00" y="150.00">洛古图尔</text><rect height="5.00" width="5.00" Name="鲁尔姆" ID="30002516" y="500.00" id="13816" Region="西玛特尔" Type="system" x="20.00" /><text id="13817" x="20.00" y="500.00">鲁尔姆</text><rect height="5.00" width="5.00" Name="希瑟伊德" ID="30002539" y="700.00" id="13819" Region="西玛特尔" Type="system" x="20.00" /><text id="13820" x="20.00" y="700.00">希瑟伊德</text><rect height="5.00" width="5.00" Name="欧菲姆" ID="30002515" y="350.00" id="13822" Region="西玛特尔" Type="system" x="50.00" /><text id="13823" x="50.00" y="350.00">欧菲姆</text><rect height="5.00" width="5.00" Name="波斯伯格" ID="30002514" y="450.00" id="13825" Region="西玛特尔" Type="system" x="80.00" /><text id="13826" x="80.00" y="450.00">波斯伯格</text><rect height="5.00" width="5.00" Name="达马林" ID="30002513" y="400.00" id="13828" Region="西玛特尔" Type="system" x="80.00" /><text id="13829" x="80.00" y="400.00">达马林</text><rect height="5.00" width="5.00" Name="瓦拉特" ID="30002573" y="100.00" id="13831" Region="西玛特尔" Type="system" x="100.00" /><text id="13832" x="100.00" y="100.00">瓦拉特</text><rect height="5.00" width="5.00" Name="古摩洛歌德" ID="30002517" y="520.00" id="13834" Region="西玛特尔" Type="system" x="100.00" /><text id="13835" x="100.00" y="520.00">古摩洛歌德</text><rect height="5.00" width="5.00" Name="瓦尔蒂" ID="30002538" y="630.00" id="13837" Region="西玛特尔" Type="system" x="120.00" /><text id="13838" x="120.00" y="630.00">瓦尔蒂</text><rect height="5.00" width="5.00" Name="玛吉库" ID="30002570" y="180.00" id="13840" Region="西玛特尔" Type="system" x="120.00" /><text id="13841" x="120.00" y="180.00">玛吉库</text><rect height="5.00" width="5.00" Name="哈德加戈" ID="30012547" y="20.00" id="13843" Region="西玛特尔" Type="system" x="120.00" /><text id="13844" x="120.00" y="20.00">哈德加戈</text><rect height="5.00" width="5.00" Name="尤斯塔" ID="30002543" y="75.50" id="13846" Region="西玛特尔" Type="system" x="150.00" /><text id="13847" x="150.00" y="75.50">尤斯塔</text><rect height="5.00" width="5.00" Name="兰多恩" ID="30002540" y="682.32" id="13849" Region="西玛特尔" Type="system" x="147.68" /><text id="13850" x="147.68" y="682.32">兰多恩</text><rect height="5.00" width="5.00" Name="埃玛马克" ID="30002537" y="550.00" id="13852" Region="西玛特尔" Type="system" x="150.00" /><text id="13853" x="150.00" y="550.00">埃玛马克</text><rect height="5.00" width="5.00" Name="基里莫科努尔" ID="30022547" y="124.50" id="13855" Region="西玛特尔" Type="system" x="150.00" /><text id="13856" x="150.00" y="124.50">基里莫科努尔</text><rect height="5.00" width="5.00" Name="阿拉库古" ID="30002512" y="400.00" id="13858" Region="西玛特尔" Type="system" x="150.00" /><text id="13859" x="150.00" y="400.00">阿拉库古</text><rect height="5.00" width="5.00" Name="吉格" ID="30002529" y="250.00" id="13861" Region="西玛特尔" Type="system" x="180.00" /><text id="13862" x="180.00" y="250.00">吉格</text><rect height="5.00" width="5.00" Name="奥加" ID="30002542" y="647.68" id="13864" Region="西玛特尔" Type="system" x="182.32" /><text id="13865" x="182.32" y="647.68">奥加</text><rect height="5.00" width="5.00" Name="埃维斯贝尔" ID="30002530" y="320.00" id="13867" Region="西玛特尔" Type="system" x="180.00" /><text id="13868" x="180.00" y="320.00">埃维斯贝尔</text><rect height="5.00" width="5.00" Name="奥索古尔" ID="30002506" y="500.00" id="13870" Region="西玛特尔" Type="system" x="220.00" /><text id="13871" x="220.00" y="500.00">奥索古尔</text><rect height="5.00" width="5.00" Name="昂加" ID="30002568" y="180.00" id="13873" Region="西玛特尔" Type="system" x="220.00" /><text id="13874" x="220.00" y="180.00">昂加</text><rect height="5.00" width="5.00" Name="阿布德班" ID="30002507" y="450.00" id="13876" Region="西玛特尔" Type="system" x="250.00" /><text id="13877" x="250.00" y="450.00">阿布德班</text><rect height="5.00" width="5.00" Name="劳斯特威克" ID="30002545" y="80.00" id="13879" Region="西玛特尔" Type="system" x="250.00" /><text id="13880" x="250.00" y="80.00">劳斯特威克</text><rect height="5.00" width="5.00" Name="拉尔库戈伊" ID="30032547" y="220.00" id="13882" Region="西玛特尔" Type="system" x="250.00" /><text id="13883" x="250.00" y="220.00">拉尔库戈伊</text><rect height="5.00" width="5.00" Name="达尔" ID="30002541" y="700.00" id="13885" Region="西玛特尔" Type="system" x="250.00" /><text id="13886" x="250.00" y="700.00">达尔</text><rect height="5.00" width="5.00" Name="法若恩" ID="30002526" y="300.00" id="13888" Region="西玛特尔" Type="system" x="250.00" /><text id="13889" x="250.00" y="300.00">法若恩</text><rect height="5.00" width="5.00" Name="伊森杜迪克" ID="30002546" y="50.00" id="13891" Region="西玛特尔" Type="system" x="300.00" /><text id="13892" x="300.00" y="50.00">伊森杜迪克</text><rect height="5.00" width="5.00" Name="伦斯" ID="30002510" y="420.00" id="13894" Region="西玛特尔" Type="system" x="300.00" /><text id="13895" x="300.00" y="420.00">伦斯</text><rect height="5.00" width="5.00" Name="奥萨姆尼" ID="30002569" y="200.00" id="13897" Region="西玛特尔" Type="system" x="310.00" /><text id="13898" x="310.00" y="200.00">奥萨姆尼</text><rect height="5.00" width="5.00" Name="伊林福理克" ID="30002527" y="280.00" id="13900" Region="西玛特尔" Type="system" x="320.00" /><text id="13901" x="320.00" y="280.00">伊林福理克</text><rect height="5.00" width="5.00" Name="奥达特里克" ID="30002509" y="480.00" id="13903" Region="西玛特尔" Type="system" x="320.00" /><text id="13904" x="320.00" y="480.00">奥达特里克</text><rect height="5.00" width="5.00" Name="帕多尔" ID="30002544" y="120.00" id="13906" Region="西玛特尔" Type="system" x="310.00" /><text id="13907" x="310.00" y="120.00">帕多尔</text><rect height="5.00" width="5.00" Name="埃莫奥德" ID="30002547" y="50.00" id="13909" Region="西玛特尔" Type="system" x="380.00" /><text id="13910" x="380.00" y="50.00">埃莫奥德</text><rect height="5.00" width="5.00" Name="欧勒姆福" ID="30002571" y="160.00" id="13912" Region="西玛特尔" Type="system" x="380.00" /><text id="13913" x="380.00" y="160.00">欧勒姆福</text><rect height="5.00" width="5.00" Name="梅拉库夫" ID="30002525" y="400.00" id="13915" Region="西玛特尔" Type="system" x="400.00" /><text id="13916" x="400.00" y="400.00">梅拉库夫</text><rect height="5.00" width="5.00" Name="宝吉尼亚" ID="30002528" y="280.00" id="13918" Region="西玛特尔" Type="system" x="400.00" /><text id="13919" x="400.00" y="280.00">宝吉尼亚</text><rect height="5.00" width="5.00" Name="泰特达尔德" ID="30002508" y="480.00" id="13921" Region="西玛特尔" Type="system" x="400.00" /><text id="13922" x="400.00" y="480.00">泰特达尔德</text><rect height="5.00" width="5.00" Name="胡尔加芬" ID="30002572" y="210.00" id="13924" Region="西玛特尔" Type="system" x="430.00" /><text id="13925" x="430.00" y="210.00">胡尔加芬</text><rect height="5.00" width="5.00" Name="伊莫戈兰伦" ID="30002548" y="50.00" id="13927" Region="西玛特尔" Type="system" x="450.00" /><text id="13928" x="450.00" y="50.00">伊莫戈兰伦</text><rect height="5.00" width="5.00" Name="伊瓦尔" ID="30002524" y="500.00" id="13930" Region="西玛特尔" Type="system" x="480.00" /><text id="13931" x="480.00" y="500.00">伊瓦尔</text><rect height="5.00" width="5.00" Name="埃特古尔" ID="30002557" y="100.00" id="13933" Region="西玛特尔" Type="system" x="500.00" /><text id="13934" x="500.00" y="100.00">埃特古尔</text><rect height="5.00" width="5.00" Name="埃美纳卡" ID="30002511" y="550.00" id="13936" Region="西玛特尔" Type="system" x="500.00" /><text id="13937" x="500.00" y="550.00">埃美纳卡</text><rect height="5.00" width="5.00" Name="托德克" ID="30032505" y="680.00" id="13939" Region="西玛特尔" Type="system" x="520.00" /><text id="13940" x="520.00" y="680.00">托德克</text><rect height="5.00" width="5.00" Name="休姆" ID="30002505" y="600.00" id="13942" Region="西玛特尔" Type="system" x="520.00" /><text id="13943" x="520.00" y="600.00">休姆</text><rect height="5.00" width="5.00" Name="尤斯特里" ID="30042505" y="450.00" id="13945" Region="西玛特尔" Type="system" x="550.00" /><text id="13946" x="550.00" y="450.00">尤斯特里</text><rect height="5.00" width="5.00" Name="埃伊费尔" ID="30002555" y="50.00" id="13948" Region="西玛特尔" Type="system" x="550.00" /><text id="13949" x="550.00" y="50.00">埃伊费尔</text><rect height="5.00" width="5.00" Name="瓜塔特伦" ID="30002560" y="320.00" id="13951" Region="西玛特尔" Type="system" x="550.00" /><text id="13952" x="550.00" y="320.00">瓜塔特伦</text><rect height="5.00" width="5.00" Name="因加恩" ID="30002559" y="250.00" id="13954" Region="西玛特尔" Type="system" x="550.00" /><text id="13955" x="550.00" y="250.00">因加恩</text><rect height="5.00" width="5.00" Name="伊德马博多斯" ID="30002518" y="650.00" id="13957" Region="西玛特尔" Type="system" x="580.00" /><text id="13958" x="580.00" y="650.00">伊德马博多斯</text><rect height="5.00" width="5.00" Name="恩多拉夫" ID="30002558" y="100.00" id="13960" Region="西玛特尔" Type="system" x="600.00" /><text id="13961" x="600.00" y="100.00">恩多拉夫</text><rect height="5.00" width="5.00" Name="马鲁克克" ID="30012505" y="520.00" id="13963" Region="西玛特尔" Type="system" x="590.00" /><text id="13964" x="590.00" y="520.00">马鲁克克</text><rect height="5.00" width="5.00" Name="卡图古姆" ID="30002580" y="300.00" id="13966" Region="西玛特尔" Type="system" x="650.00" /><text id="13967" x="650.00" y="300.00">卡图古姆</text><rect height="5.00" width="5.00" Name="所特伦卓" ID="30002575" y="250.00" id="13969" Region="西玛特尔" Type="system" x="650.00" /><text id="13970" x="650.00" y="250.00">所特伦卓</text><rect height="5.00" width="5.00" Name="库罗素尔" ID="30002519" y="650.00" id="13972" Region="西玛特尔" Type="system" x="650.00" /><text id="13973" x="650.00" y="650.00">库罗素尔</text><rect height="5.00" width="5.00" Name="伯格勒克" ID="30002553" y="350.00" id="13975" Region="西玛特尔" Type="system" x="680.00" /><text id="13976" x="680.00" y="350.00">伯格勒克</text><rect height="5.00" width="5.00" Name="洛克菲尔" ID="30002534" y="400.00" id="13978" Region="西玛特尔" Type="system" x="680.00" /><text id="13979" x="680.00" y="400.00">洛克菲尔</text><rect height="5.00" width="5.00" Name="古萨恩杜" ID="30002556" y="50.00" id="13981" Region="西玛特尔" Type="system" x="700.00" /><text id="13982" x="700.00" y="50.00">古萨恩杜</text><rect height="5.00" width="5.00" Name="杜吉里努尔" ID="30002520" y="620.00" id="13984" Region="西玛特尔" Type="system" x="720.00" /><text id="13985" x="720.00" y="620.00">杜吉里努尔</text><rect height="5.00" width="5.00" Name="农德迪尔" ID="30002574" y="250.00" id="13987" Region="西玛特尔" Type="system" x="750.00" /><text id="13988" x="750.00" y="250.00">农德迪尔</text><rect height="5.00" width="5.00" Name="希斯特" ID="30002521" y="680.00" id="13990" Region="西玛特尔" Type="system" x="750.00" /><text id="13991" x="750.00" y="680.00">希斯特</text><rect height="5.00" width="5.00" Name="阿拉古鲁迪" ID="30002551" y="350.00" id="13993" Region="西玛特尔" Type="system" x="750.00" /><text id="13994" x="750.00" y="350.00">阿拉古鲁迪</text><rect height="5.00" width="5.00" Name="赫德基维特" ID="30002579" y="120.00" id="13996" Region="西玛特尔" Type="system" x="750.00" /><text id="13997" x="750.00" y="120.00">赫德基维特</text><rect height="5.00" width="5.00" Name="罗尼考" ID="30002550" y="300.00" id="13999" Region="西玛特尔" Type="system" x="780.00" /><text id="14000" x="780.00" y="300.00">罗尼考</text><rect height="5.00" width="5.00" Name="欧布洛贝尔" ID="30002522" y="580.00" id="14002" Region="西玛特尔" Type="system" x="780.00" /><text id="14003" x="780.00" y="580.00">欧布洛贝尔</text><rect height="5.00" width="5.00" Name="尤瑞斯" ID="30002567" y="20.00" id="14005" Region="西玛特尔" Type="system" x="800.00" /><text id="14006" x="800.00" y="20.00">尤瑞斯</text><rect height="5.00" width="5.00" Name="爱巴格杜尔" ID="30002535" y="460.00" id="14008" Region="西玛特尔" Type="system" x="810.00" /><text id="14009" x="810.00" y="460.00">爱巴格杜尔</text><rect height="5.00" width="5.00" Name="奥伦" ID="30002561" y="80.00" id="14011" Region="西玛特尔" Type="system" x="800.00" /><text id="14012" x="800.00" y="80.00">奥伦</text><rect height="5.00" width="5.00" Name="奥特拉伦" ID="30002578" y="150.00" id="14014" Region="西玛特尔" Type="system" x="800.00" /><text id="14015" x="800.00" y="150.00">奥特拉伦</text><rect height="5.00" width="5.00" Name="农德马蒂" ID="30002576" y="250.00" id="14017" Region="西玛特尔" Type="system" x="800.00" /><text id="14018" x="800.00" y="250.00">农德马蒂</text><rect height="5.00" width="5.00" Name="维斯克贝尔" ID="30002554" y="352.32" id="14020" Region="西玛特尔" Type="system" x="817.68" /><text id="14021" x="817.68" y="352.32">维斯克贝尔</text><rect height="5.00" width="5.00" Name="邦丁达斯" ID="30002577" y="200.00" id="14023" Region="西玛特尔" Type="system" x="820.00" /><text id="14024" x="820.00" y="200.00">邦丁达斯</text><rect height="5.00" width="5.00" Name="奥斯塔卡" ID="30002523" y="530.00" id="14026" Region="西玛特尔" Type="system" x="840.00" /><text id="14027" x="840.00" y="530.00">奥斯塔卡</text><rect height="5.00" width="5.00" Name="克里尔" ID="30002566" y="20.00" id="14029" Region="西玛特尔" Type="system" x="880.00" /><text id="14030" x="880.00" y="20.00">克里尔</text><rect height="5.00" width="5.00" Name="埃达尔" ID="30002552" y="180.00" id="14032" Region="西玛特尔" Type="system" x="900.00" /><text id="14033" x="900.00" y="180.00">埃达尔</text><rect height="5.00" width="5.00" Name="吉尔勒克" ID="30002531" y="450.00" id="14035" Region="西玛特尔" Type="system" x="900.00" /><text id="14036" x="900.00" y="450.00">吉尔勒克</text><rect height="5.00" width="5.00" Name="奥弗根" ID="30002549" y="280.00" id="14038" Region="西玛特尔" Type="system" x="950.00" /><text id="14039" x="950.00" y="280.00">奥弗根</text><rect height="5.00" width="5.00" Name="埃皮恩" ID="30002565" y="60.00" id="14041" Region="西玛特尔" Type="system" x="950.00" /><text id="14042" x="950.00" y="60.00">埃皮恩</text><rect height="5.00" width="5.00" Name="唐格夫" ID="30002532" y="500.00" id="14044" Region="西玛特尔" Type="system" x="950.00" /><text id="14045" x="950.00" y="500.00">唐格夫</text><rect height="5.00" width="5.00" Name="吉尔伯德" ID="30002533" y="380.00" id="14047" Region="西玛特尔" Type="system" x="950.00" /><text id="14048" x="950.00" y="380.00">吉尔伯德</text><rect height="5.00" width="5.00" Name="加仑德" ID="30002564" y="100.00" id="14050" Region="西玛特尔" Type="system" x="980.00" /><text id="14051" x="980.00" y="100.00">加仑德</text><rect height="5.00" width="5.00" Name="埃博多德" ID="30002536" y="540.00" id="14053" Region="西玛特尔" Type="system" x="1000.00" /><text id="14054" x="1000.00" y="540.00">埃博多德</text><rect height="5.00" width="5.00" Name="伊格缪尔" ID="30002563" y="200.00" id="14056" Region="西玛特尔" Type="system" x="1000.00" /><text id="14057" x="1000.00" y="200.00">伊格缪尔</text><rect height="5.00" width="5.00" Name="特瑞尔" ID="30002562" y="150.00" id="14059" Region="西玛特尔" Type="system" x="1000.00" /><text id="14060" x="1000.00" y="150.00">特瑞尔</text><rect height="5.00" width="5.00" Name="伊尔拉姆" ID="30003413" y="80.00" id="14062" Region="美特伯里斯" Type="system" x="20.00" /><text id="14063" x="20.00" y="80.00">伊尔拉姆</text><rect height="5.00" width="5.00" Name="伊格赫伦德" ID="30002693" y="750.00" id="14065" Region="金纳泽" Type="system" x="20.00" /><text id="14066" x="20.00" y="750.00">伊格赫伦德</text><rect height="5.00" width="5.00" Name="俄扎拉" ID="30002962" y="620.00" id="14068" Region="破碎" Type="system" x="50.00" /><text id="14069" x="50.00" y="620.00">俄扎拉</text><rect height="5.00" width="5.00" Name="艾格玛尔" ID="30002099" y="550.00" id="14071" Region="美特伯里斯" Type="system" x="50.00" /><text id="14072" x="50.00" y="550.00">艾格玛尔</text><rect height="5.00" width="5.00" Name="赫克" ID="30002053" y="50.00" id="14074" Region="美特伯里斯" Type="system" x="80.00" /><text id="14075" x="80.00" y="50.00">赫克</text><rect height="5.00" width="5.00" Name="伊斯祖尔" ID="30002095" y="750.00" id="14077" Region="美特伯里斯" Type="system" x="150.00" /><text id="14078" x="150.00" y="750.00">伊斯祖尔</text><rect height="5.00" width="5.00" Name="提鲁苏德" ID="30002385" y="350.00" id="14080" Region="摩登赫斯" Type="system" x="140.00" /><text id="14081" x="140.00" y="350.00">提鲁苏德</text><rect height="5.00" width="5.00" Name="奥布拉" ID="30003388" y="50.00" id="14083" Region="美特伯里斯" Type="system" x="200.00" /><text id="14084" x="200.00" y="50.00">奥布拉</text><rect height="5.00" width="5.00" Name="阔尔蒙尼" ID="30003068" y="610.00" id="14086" Region="幽暗之域" Type="system" x="250.00" /><text id="14087" x="250.00" y="610.00">阔尔蒙尼</text><rect height="5.00" width="5.00" Name="赫加格德" ID="30002096" y="750.00" id="14089" Region="美特伯里斯" Type="system" x="250.00" /><text id="14090" x="250.00" y="750.00">赫加格德</text><rect height="5.00" width="5.00" Name="加尔克" ID="30000004" y="530.00" id="14092" Region="德里克" Type="system" x="300.00" /><text id="14093" x="300.00" y="530.00">加尔克</text><rect height="5.00" width="5.00" Name="尤普林古尔" ID="30000037" y="540.00" id="14095" Region="德里克" Type="system" x="390.00" /><text id="14096" x="390.00" y="540.00">尤普林古尔</text><rect height="5.00" width="5.00" Name="阿尔卢浮" ID="30003374" y="590.00" id="14098" Region="美特伯里斯" Type="system" x="440.00" /><text id="14099" x="440.00" y="590.00">阿尔卢浮</text><rect height="5.00" width="5.00" Name="莱丁乔尔" ID="30003410" y="420.00" id="14101" Region="美特伯里斯" Type="system" x="480.00" /><text id="14102" x="480.00" y="420.00">莱丁乔尔</text><rect height="5.00" width="5.00" Name="恩斯图尔" ID="30002064" y="318.09" id="14104" Region="美特伯里斯" Type="system" x="499.04" /><text id="14105" x="499.04" y="318.09">恩斯图尔</text><rect height="5.00" width="5.00" Name="埃伊丁" ID="30002383" y="361.91" id="14107" Region="摩登赫斯" Type="system" x="520.96" /><text id="14108" x="520.96" y="361.91">埃伊丁</text><rect height="5.00" width="5.00" Name="马特贝尔" ID="30003444" y="317.68" id="14110" Region="美特伯里斯" Type="system" x="852.32" /><text id="14111" x="852.32" y="317.68">马特贝尔</text><rect height="5.00" width="5.00" Name="欧菲卡塔林" ID="30003460" y="400.00" id="14113" Region="美特伯里斯" Type="system" x="850.00" /><text id="14114" x="850.00" y="400.00">欧菲卡塔林</text><line y2="100.00" id="14116" y1="150.00" style="stroke:blue;fill:blue;" x1="20.00" x2="100.00" /><line y2="450.00" id="14117" y1="500.00" style="stroke:blue;fill:blue;" x1="20.00" x2="80.00" /><line y2="520.00" id="14118" y1="500.00" style="stroke:blue;fill:blue;" x1="20.00" x2="100.00" /><line y2="750.00" id="14119" y1="700.00" style="stroke:blue;fill:blue;" x1="20.00" x2="150.00" /><line y2="550.00" id="14120" y1="700.00" style="stroke:blue;fill:blue;" x1="20.00" x2="150.00" /><line y2="630.00" id="14121" y1="700.00" style="stroke:blue;fill:blue;" x1="20.00" x2="120.00" /><line y2="682.32" id="14122" y1="700.00" style="stroke:blue;fill:blue;" x1="20.00" x2="147.68" /><line y2="700.00" id="14123" y1="700.00" style="stroke:blue;fill:blue;" x1="20.00" x2="250.00" /><line y2="647.68" id="14124" y1="700.00" style="stroke:blue;fill:blue;" x1="20.00" x2="182.32" /><line y2="750.00" id="14125" y1="700.00" style="stroke:blue;fill:blue;" x1="20.00" x2="20.00" /><line y2="400.00" id="14126" y1="350.00" style="stroke:blue;fill:blue;" x1="50.00" x2="80.00" /><line y2="400.00" id="14127" y1="450.00" style="stroke:blue;fill:blue;" x1="80.00" x2="80.00" /><line y2="500.00" id="14128" y1="450.00" style="stroke:blue;fill:blue;" x1="80.00" x2="20.00" /><line y2="520.00" id="14129" y1="450.00" style="stroke:blue;fill:blue;" x1="80.00" x2="100.00" /><line y2="400.00" id="14130" y1="400.00" style="stroke:blue;fill:blue;" x1="80.00" x2="150.00" /><line y2="450.00" id="14131" y1="400.00" style="stroke:blue;fill:blue;" x1="80.00" x2="80.00" /><line y2="350.00" id="14132" y1="400.00" style="stroke:blue;fill:blue;" x1="80.00" x2="50.00" /><line y2="75.50" id="14133" y1="100.00" style="stroke:blue;fill:blue;" x1="100.00" x2="150.00" /><line y2="180.00" id="14134" y1="100.00" style="stroke:blue;fill:blue;" x1="100.00" x2="120.00" /><line y2="80.00" id="14135" y1="100.00" style="stroke:blue;fill:blue;" x1="100.00" x2="20.00" /><line y2="150.00" id="14136" y1="100.00" style="stroke:blue;fill:blue;" x1="100.00" x2="20.00" /><line y2="550.00" id="14137" y1="520.00" style="stroke:blue;fill:blue;" x1="100.00" x2="50.00" /><line y2="450.00" id="14138" y1="520.00" style="stroke:blue;fill:blue;" x1="100.00" x2="80.00" /><line y2="500.00" id="14139" y1="520.00" style="stroke:blue;fill:blue;" x1="100.00" x2="20.00" /><line y2="550.00" id="14140" y1="520.00" style="stroke:blue;fill:blue;" x1="100.00" x2="150.00" /><line y2="550.00" id="14141" y1="630.00" style="stroke:blue;fill:blue;" x1="120.00" x2="150.00" /><line y2="700.00" id="14142" y1="630.00" style="stroke:blue;fill:blue;" x1="120.00" x2="20.00" /><line y2="682.32" id="14143" y1="630.00" style="stroke:blue;fill:blue;" x1="120.00" x2="147.68" /><line y2="700.00" id="14144" y1="630.00" style="stroke:blue;fill:blue;" x1="120.00" x2="250.00" /><line y2="620.00" id="14145" y1="630.00" style="stroke:blue;fill:blue;" x1="120.00" x2="50.00" /><line y2="350.00" id="14146" y1="180.00" style="stroke:blue;fill:blue;" x1="120.00" x2="140.00" /><line y2="180.00" id="14147" y1="180.00" style="stroke:blue;fill:blue;" x1="120.00" x2="220.00" /><line y2="100.00" id="14148" y1="180.00" style="stroke:blue;fill:blue;" x1="120.00" x2="100.00" /><line y2="75.50" id="14149" y1="20.00" style="stroke:blue;fill:blue;" x1="120.00" x2="150.00" /><line y2="50.00" id="14150" y1="75.50" style="stroke:blue;fill:blue;" x1="150.00" x2="80.00" /><line y2="120.00" id="14151" y1="75.50" style="stroke:blue;fill:blue;" x1="150.00" x2="310.00" /><line y2="80.00" id="14152" y1="75.50" style="stroke:blue;fill:blue;" x1="150.00" x2="250.00" /><line y2="100.00" id="14153" y1="75.50" style="stroke:blue;fill:blue;" x1="150.00" x2="100.00" /><line y2="50.00" id="14154" y1="75.50" style="stroke:blue;fill:blue;" x1="150.00" x2="200.00" /><line y2="20.00" id="14155" y1="75.50" style="stroke:blue;fill:blue;" x1="150.00" x2="120.00" /><line y2="630.00" id="14156" y1="682.32" style="stroke:blue;fill:blue;" x1="147.68" x2="120.00" /><line y2="700.00" id="14157" y1="682.32" style="stroke:blue;fill:blue;" x1="147.68" x2="20.00" /><line y2="700.00" id="14158" y1="682.32" style="stroke:blue;fill:blue;" x1="147.68" x2="250.00" /><line y2="500.00" id="14159" y1="550.00" style="stroke:blue;fill:blue;" x1="150.00" x2="220.00" /><line y2="520.00" id="14160" y1="550.00" style="stroke:blue;fill:blue;" x1="150.00" x2="100.00" /><line y2="630.00" id="14161" y1="550.00" style="stroke:blue;fill:blue;" x1="150.00" x2="120.00" /><line y2="700.00" id="14162" y1="550.00" style="stroke:blue;fill:blue;" x1="150.00" x2="20.00" /><line y2="700.00" id="14163" y1="550.00" style="stroke:blue;fill:blue;" x1="150.00" x2="250.00" /><line y2="647.68" id="14164" y1="550.00" style="stroke:blue;fill:blue;" x1="150.00" x2="182.32" /><line y2="180.00" id="14165" y1="124.50" style="stroke:blue;fill:blue;" x1="150.00" x2="220.00" /><line y2="450.00" id="14166" y1="400.00" style="stroke:blue;fill:blue;" x1="150.00" x2="250.00" /><line y2="400.00" id="14167" y1="400.00" style="stroke:blue;fill:blue;" x1="150.00" x2="80.00" /><line y2="300.00" id="14168" y1="250.00" style="stroke:blue;fill:blue;" x1="180.00" x2="250.00" /><line y2="320.00" id="14169" y1="250.00" style="stroke:blue;fill:blue;" x1="180.00" x2="180.00" /><line y2="180.00" id="14170" y1="250.00" style="stroke:blue;fill:blue;" x1="180.00" x2="220.00" /><line y2="550.00" id="14171" y1="647.68" style="stroke:blue;fill:blue;" x1="182.32" x2="150.00" /><line y2="700.00" id="14172" y1="647.68" style="stroke:blue;fill:blue;" x1="182.32" x2="20.00" /><line y2="700.00" id="14173" y1="647.68" style="stroke:blue;fill:blue;" x1="182.32" x2="250.00" /><line y2="610.00" id="14174" y1="647.68" style="stroke:blue;fill:blue;" x1="182.32" x2="250.00" /><line y2="450.00" id="14175" y1="320.00" style="stroke:blue;fill:blue;" x1="180.00" x2="250.00" /><line y2="300.00" id="14176" y1="320.00" style="stroke:blue;fill:blue;" x1="180.00" x2="250.00" /><line y2="250.00" id="14177" y1="320.00" style="stroke:blue;fill:blue;" x1="180.00" x2="180.00" /><line y2="450.00" id="14178" y1="500.00" style="stroke:blue;fill:blue;" x1="220.00" x2="250.00" /><line y2="550.00" id="14179" y1="500.00" style="stroke:blue;fill:blue;" x1="220.00" x2="150.00" /><line y2="250.00" id="14180" y1="180.00" style="stroke:blue;fill:blue;" x1="220.00" x2="180.00" /><line y2="120.00" id="14181" y1="180.00" style="stroke:blue;fill:blue;" x1="220.00" x2="310.00" /><line y2="80.00" id="14182" y1="180.00" style="stroke:blue;fill:blue;" x1="220.00" x2="250.00" /><line y2="200.00" id="14183" y1="180.00" style="stroke:blue;fill:blue;" x1="220.00" x2="310.00" /><line y2="180.00" id="14184" y1="180.00" style="stroke:blue;fill:blue;" x1="220.00" x2="120.00" /><line y2="124.50" id="14185" y1="180.00" style="stroke:blue;fill:blue;" x1="220.00" x2="150.00" /><line y2="500.00" id="14186" y1="450.00" style="stroke:blue;fill:blue;" x1="250.00" x2="220.00" /><line y2="480.00" id="14187" y1="450.00" style="stroke:blue;fill:blue;" x1="250.00" x2="320.00" /><line y2="420.00" id="14188" y1="450.00" style="stroke:blue;fill:blue;" x1="250.00" x2="300.00" /><line y2="400.00" id="14189" y1="450.00" style="stroke:blue;fill:blue;" x1="250.00" x2="150.00" /><line y2="320.00" id="14190" y1="450.00" style="stroke:blue;fill:blue;" x1="250.00" x2="180.00" /><line y2="75.50" id="14191" y1="80.00" style="stroke:blue;fill:blue;" x1="250.00" x2="150.00" /><line y2="120.00" id="14192" y1="80.00" style="stroke:blue;fill:blue;" x1="250.00" x2="310.00" /><line y2="50.00" id="14193" y1="80.00" style="stroke:blue;fill:blue;" x1="250.00" x2="300.00" /><line y2="180.00" id="14194" y1="80.00" style="stroke:blue;fill:blue;" x1="250.00" x2="220.00" /><line y2="200.00" id="14195" y1="220.00" style="stroke:blue;fill:blue;" x1="250.00" x2="310.00" /><line y2="750.00" id="14196" y1="700.00" style="stroke:blue;fill:blue;" x1="250.00" x2="250.00" /><line y2="550.00" id="14197" y1="700.00" style="stroke:blue;fill:blue;" x1="250.00" x2="150.00" /><line y2="630.00" id="14198" y1="700.00" style="stroke:blue;fill:blue;" x1="250.00" x2="120.00" /><line y2="700.00" id="14199" y1="700.00" style="stroke:blue;fill:blue;" x1="250.00" x2="20.00" /><line y2="682.32" id="14200" y1="700.00" style="stroke:blue;fill:blue;" x1="250.00" x2="147.68" /><line y2="647.68" id="14201" y1="700.00" style="stroke:blue;fill:blue;" x1="250.00" x2="182.32" /><line y2="420.00" id="14202" y1="300.00" style="stroke:blue;fill:blue;" x1="250.00" x2="300.00" /><line y2="400.00" id="14203" y1="300.00" style="stroke:blue;fill:blue;" x1="250.00" x2="400.00" /><line y2="280.00" id="14204" y1="300.00" style="stroke:blue;fill:blue;" x1="250.00" x2="320.00" /><line y2="250.00" id="14205" y1="300.00" style="stroke:blue;fill:blue;" x1="250.00" x2="180.00" /><line y2="320.00" id="14206" y1="300.00" style="stroke:blue;fill:blue;" x1="250.00" x2="180.00" /><line y2="80.00" id="14207" y1="50.00" style="stroke:blue;fill:blue;" x1="300.00" x2="250.00" /><line y2="50.00" id="14208" y1="50.00" style="stroke:blue;fill:blue;" x1="300.00" x2="380.00" /><line y2="450.00" id="14209" y1="420.00" style="stroke:blue;fill:blue;" x1="300.00" x2="250.00" /><line y2="480.00" id="14210" y1="420.00" style="stroke:blue;fill:blue;" x1="300.00" x2="320.00" /><line y2="300.00" id="14211" y1="420.00" style="stroke:blue;fill:blue;" x1="300.00" x2="250.00" /><line y2="280.00" id="14212" y1="200.00" style="stroke:blue;fill:blue;" x1="310.00" x2="320.00" /><line y2="180.00" id="14213" y1="200.00" style="stroke:blue;fill:blue;" x1="310.00" x2="220.00" /><line y2="160.00" id="14214" y1="200.00" style="stroke:blue;fill:blue;" x1="310.00" x2="380.00" /><line y2="220.00" id="14215" y1="200.00" style="stroke:blue;fill:blue;" x1="310.00" x2="250.00" /><line y2="300.00" id="14216" y1="280.00" style="stroke:blue;fill:blue;" x1="320.00" x2="250.00" /><line y2="280.00" id="14217" y1="280.00" style="stroke:blue;fill:blue;" x1="320.00" x2="400.00" /><line y2="200.00" id="14218" y1="280.00" style="stroke:blue;fill:blue;" x1="320.00" x2="310.00" /><line y2="530.00" id="14219" y1="480.00" style="stroke:blue;fill:blue;" x1="320.00" x2="300.00" /><line y2="450.00" id="14220" y1="480.00" style="stroke:blue;fill:blue;" x1="320.00" x2="250.00" /><line y2="480.00" id="14221" y1="480.00" style="stroke:blue;fill:blue;" x1="320.00" x2="400.00" /><line y2="420.00" id="14222" y1="480.00" style="stroke:blue;fill:blue;" x1="320.00" x2="300.00" /><line y2="75.50" id="14223" y1="120.00" style="stroke:blue;fill:blue;" x1="310.00" x2="150.00" /><line y2="80.00" id="14224" y1="120.00" style="stroke:blue;fill:blue;" x1="310.00" x2="250.00" /><line y2="50.00" id="14225" y1="120.00" style="stroke:blue;fill:blue;" x1="310.00" x2="380.00" /><line y2="180.00" id="14226" y1="120.00" style="stroke:blue;fill:blue;" x1="310.00" x2="220.00" /><line y2="120.00" id="14227" y1="50.00" style="stroke:blue;fill:blue;" x1="380.00" x2="310.00" /><line y2="50.00" id="14228" y1="50.00" style="stroke:blue;fill:blue;" x1="380.00" x2="300.00" /><line y2="50.00" id="14229" y1="50.00" style="stroke:blue;fill:blue;" x1="380.00" x2="450.00" /><line y2="200.00" id="14230" y1="160.00" style="stroke:blue;fill:blue;" x1="380.00" x2="310.00" /><line y2="210.00" id="14231" y1="160.00" style="stroke:blue;fill:blue;" x1="380.00" x2="430.00" /><line y2="500.00" id="14232" y1="400.00" style="stroke:blue;fill:blue;" x1="400.00" x2="480.00" /><line y2="300.00" id="14233" y1="400.00" style="stroke:blue;fill:blue;" x1="400.00" x2="250.00" /><line y2="420.00" id="14234" y1="400.00" style="stroke:blue;fill:blue;" x1="400.00" x2="480.00" /><line y2="280.00" id="14235" y1="280.00" style="stroke:blue;fill:blue;" x1="400.00" x2="320.00" /><line y2="210.00" id="14236" y1="280.00" style="stroke:blue;fill:blue;" x1="400.00" x2="430.00" /><line y2="540.00" id="14237" y1="480.00" style="stroke:blue;fill:blue;" x1="400.00" x2="390.00" /><line y2="480.00" id="14238" y1="480.00" style="stroke:blue;fill:blue;" x1="400.00" x2="320.00" /><line y2="500.00" id="14239" y1="480.00" style="stroke:blue;fill:blue;" x1="400.00" x2="480.00" /><line y2="280.00" id="14240" y1="210.00" style="stroke:blue;fill:blue;" x1="430.00" x2="400.00" /><line y2="160.00" id="14241" y1="210.00" style="stroke:blue;fill:blue;" x1="430.00" x2="380.00" /><line y2="50.00" id="14242" y1="50.00" style="stroke:blue;fill:blue;" x1="450.00" x2="380.00" /><line y2="50.00" id="14243" y1="50.00" style="stroke:blue;fill:blue;" x1="450.00" x2="550.00" /><line y2="480.00" id="14244" y1="500.00" style="stroke:blue;fill:blue;" x1="480.00" x2="400.00" /><line y2="550.00" id="14245" y1="500.00" style="stroke:blue;fill:blue;" x1="480.00" x2="500.00" /><line y2="400.00" id="14246" y1="500.00" style="stroke:blue;fill:blue;" x1="480.00" x2="400.00" /><line y2="450.00" id="14247" y1="500.00" style="stroke:blue;fill:blue;" x1="480.00" x2="550.00" /><line y2="50.00" id="14248" y1="100.00" style="stroke:blue;fill:blue;" x1="500.00" x2="550.00" /><line y2="100.00" id="14249" y1="100.00" style="stroke:blue;fill:blue;" x1="500.00" x2="600.00" /><line y2="600.00" id="14250" y1="550.00" style="stroke:blue;fill:blue;" x1="500.00" x2="520.00" /><line y2="500.00" id="14251" y1="550.00" style="stroke:blue;fill:blue;" x1="500.00" x2="480.00" /><line y2="590.00" id="14252" y1="550.00" style="stroke:blue;fill:blue;" x1="500.00" x2="440.00" /><line y2="520.00" id="14253" y1="550.00" style="stroke:blue;fill:blue;" x1="500.00" x2="590.00" /><line y2="650.00" id="14254" y1="680.00" style="stroke:blue;fill:blue;" x1="520.00" x2="580.00" /><line y2="550.00" id="14255" y1="600.00" style="stroke:blue;fill:blue;" x1="520.00" x2="500.00" /><line y2="650.00" id="14256" y1="600.00" style="stroke:blue;fill:blue;" x1="520.00" x2="580.00" /><line y2="500.00" id="14257" y1="450.00" style="stroke:blue;fill:blue;" x1="550.00" x2="480.00" /><line y2="50.00" id="14258" y1="50.00" style="stroke:blue;fill:blue;" x1="550.00" x2="450.00" /><line y2="50.00" id="14259" y1="50.00" style="stroke:blue;fill:blue;" x1="550.00" x2="700.00" /><line y2="100.00" id="14260" y1="50.00" style="stroke:blue;fill:blue;" x1="550.00" x2="500.00" /><line y2="100.00" id="14261" y1="50.00" style="stroke:blue;fill:blue;" x1="550.00" x2="600.00" /><line y2="318.09" id="14262" y1="320.00" style="stroke:blue;fill:blue;" x1="550.00" x2="499.04" /><line y2="400.00" id="14263" y1="320.00" style="stroke:blue;fill:blue;" x1="550.00" x2="680.00" /><line y2="250.00" id="14264" y1="320.00" style="stroke:blue;fill:blue;" x1="550.00" x2="550.00" /><line y2="50.00" id="14265" y1="250.00" style="stroke:blue;fill:blue;" x1="550.00" x2="700.00" /><line y2="320.00" id="14266" y1="250.00" style="stroke:blue;fill:blue;" x1="550.00" x2="550.00" /><line y2="250.00" id="14267" y1="250.00" style="stroke:blue;fill:blue;" x1="550.00" x2="650.00" /><line y2="600.00" id="14268" y1="650.00" style="stroke:blue;fill:blue;" x1="580.00" x2="520.00" /><line y2="650.00" id="14269" y1="650.00" style="stroke:blue;fill:blue;" x1="580.00" x2="650.00" /><line y2="680.00" id="14270" y1="650.00" style="stroke:blue;fill:blue;" x1="580.00" x2="520.00" /><line y2="50.00" id="14271" y1="100.00" style="stroke:blue;fill:blue;" x1="600.00" x2="550.00" /><line y2="100.00" id="14272" y1="100.00" style="stroke:blue;fill:blue;" x1="600.00" x2="500.00" /><line y2="550.00" id="14273" y1="520.00" style="stroke:blue;fill:blue;" x1="590.00" x2="500.00" /><line y2="350.00" id="14274" y1="300.00" style="stroke:blue;fill:blue;" x1="650.00" x2="680.00" /><line y2="250.00" id="14275" y1="300.00" style="stroke:blue;fill:blue;" x1="650.00" x2="650.00" /><line y2="50.00" id="14276" y1="250.00" style="stroke:blue;fill:blue;" x1="650.00" x2="700.00" /><line y2="250.00" id="14277" y1="250.00" style="stroke:blue;fill:blue;" x1="650.00" x2="550.00" /><line y2="250.00" id="14278" y1="250.00" style="stroke:blue;fill:blue;" x1="650.00" x2="750.00" /><line y2="300.00" id="14279" y1="250.00" style="stroke:blue;fill:blue;" x1="650.00" x2="650.00" /><line y2="650.00" id="14280" y1="650.00" style="stroke:blue;fill:blue;" x1="650.00" x2="580.00" /><line y2="620.00" id="14281" y1="650.00" style="stroke:blue;fill:blue;" x1="650.00" x2="720.00" /><line y2="680.00" id="14282" y1="650.00" style="stroke:blue;fill:blue;" x1="650.00" x2="750.00" /><line y2="350.00" id="14283" y1="350.00" style="stroke:blue;fill:blue;" x1="680.00" x2="750.00" /><line y2="300.00" id="14284" y1="350.00" style="stroke:blue;fill:blue;" x1="680.00" x2="650.00" /><line y2="450.00" id="14285" y1="400.00" style="stroke:blue;fill:blue;" x1="680.00" x2="900.00" /><line y2="460.00" id="14286" y1="400.00" style="stroke:blue;fill:blue;" x1="680.00" x2="810.00" /><line y2="320.00" id="14287" y1="400.00" style="stroke:blue;fill:blue;" x1="680.00" x2="550.00" /><line y2="50.00" id="14288" y1="50.00" style="stroke:blue;fill:blue;" x1="700.00" x2="550.00" /><line y2="250.00" id="14289" y1="50.00" style="stroke:blue;fill:blue;" x1="700.00" x2="550.00" /><line y2="80.00" id="14290" y1="50.00" style="stroke:blue;fill:blue;" x1="700.00" x2="800.00" /><line y2="250.00" id="14291" y1="50.00" style="stroke:blue;fill:blue;" x1="700.00" x2="750.00" /><line y2="250.00" id="14292" y1="50.00" style="stroke:blue;fill:blue;" x1="700.00" x2="650.00" /><line y2="650.00" id="14293" y1="620.00" style="stroke:blue;fill:blue;" x1="720.00" x2="650.00" /><line y2="680.00" id="14294" y1="620.00" style="stroke:blue;fill:blue;" x1="720.00" x2="750.00" /><line y2="580.00" id="14295" y1="620.00" style="stroke:blue;fill:blue;" x1="720.00" x2="780.00" /><line y2="300.00" id="14296" y1="250.00" style="stroke:blue;fill:blue;" x1="750.00" x2="780.00" /><line y2="50.00" id="14297" y1="250.00" style="stroke:blue;fill:blue;" x1="750.00" x2="700.00" /><line y2="250.00" id="14298" y1="250.00" style="stroke:blue;fill:blue;" x1="750.00" x2="650.00" /><line y2="250.00" id="14299" y1="250.00" style="stroke:blue;fill:blue;" x1="750.00" x2="800.00" /><line y2="650.00" id="14300" y1="680.00" style="stroke:blue;fill:blue;" x1="750.00" x2="650.00" /><line y2="620.00" id="14301" y1="680.00" style="stroke:blue;fill:blue;" x1="750.00" x2="720.00" /><line y2="300.00" id="14302" y1="350.00" style="stroke:blue;fill:blue;" x1="750.00" x2="780.00" /><line y2="350.00" id="14303" y1="350.00" style="stroke:blue;fill:blue;" x1="750.00" x2="680.00" /><line y2="352.32" id="14304" y1="350.00" style="stroke:blue;fill:blue;" x1="750.00" x2="817.68" /><line y2="150.00" id="14305" y1="120.00" style="stroke:blue;fill:blue;" x1="750.00" x2="800.00" /><line y2="280.00" id="14306" y1="300.00" style="stroke:blue;fill:blue;" x1="780.00" x2="950.00" /><line y2="350.00" id="14307" y1="300.00" style="stroke:blue;fill:blue;" x1="780.00" x2="750.00" /><line y2="250.00" id="14308" y1="300.00" style="stroke:blue;fill:blue;" x1="780.00" x2="750.00" /><line y2="620.00" id="14309" y1="580.00" style="stroke:blue;fill:blue;" x1="780.00" x2="720.00" /><line y2="530.00" id="14310" y1="580.00" style="stroke:blue;fill:blue;" x1="780.00" x2="840.00" /><line y2="20.00" id="14311" y1="20.00" style="stroke:blue;fill:blue;" x1="800.00" x2="880.00" /><line y2="450.00" id="14312" y1="460.00" style="stroke:blue;fill:blue;" x1="810.00" x2="900.00" /><line y2="400.00" id="14313" y1="460.00" style="stroke:blue;fill:blue;" x1="810.00" x2="680.00" /><line y2="180.00" id="14314" y1="80.00" style="stroke:blue;fill:blue;" x1="800.00" x2="900.00" /><line y2="50.00" id="14315" y1="80.00" style="stroke:blue;fill:blue;" x1="800.00" x2="700.00" /><line y2="200.00" id="14316" y1="150.00" style="stroke:blue;fill:blue;" x1="800.00" x2="820.00" /><line y2="120.00" id="14317" y1="150.00" style="stroke:blue;fill:blue;" x1="800.00" x2="750.00" /><line y2="250.00" id="14318" y1="250.00" style="stroke:blue;fill:blue;" x1="800.00" x2="750.00" /><line y2="200.00" id="14319" y1="250.00" style="stroke:blue;fill:blue;" x1="800.00" x2="820.00" /><line y2="350.00" id="14320" y1="352.32" style="stroke:blue;fill:blue;" x1="817.68" x2="750.00" /><line y2="317.68" id="14321" y1="352.32" style="stroke:blue;fill:blue;" x1="817.68" x2="852.32" /><line y2="400.00" id="14322" y1="352.32" style="stroke:blue;fill:blue;" x1="817.68" x2="850.00" /><line y2="250.00" id="14323" y1="200.00" style="stroke:blue;fill:blue;" x1="820.00" x2="800.00" /><line y2="150.00" id="14324" y1="200.00" style="stroke:blue;fill:blue;" x1="820.00" x2="800.00" /><line y2="361.91" id="14325" y1="530.00" style="stroke:blue;fill:blue;" x1="840.00" x2="520.96" /><line y2="580.00" id="14326" y1="530.00" style="stroke:blue;fill:blue;" x1="840.00" x2="780.00" /><line y2="450.00" id="14327" y1="530.00" style="stroke:blue;fill:blue;" x1="840.00" x2="900.00" /><line y2="60.00" id="14328" y1="20.00" style="stroke:blue;fill:blue;" x1="880.00" x2="950.00" /><line y2="20.00" id="14329" y1="20.00" style="stroke:blue;fill:blue;" x1="880.00" x2="800.00" /><line y2="280.00" id="14330" y1="180.00" style="stroke:blue;fill:blue;" x1="900.00" x2="950.00" /><line y2="80.00" id="14331" y1="180.00" style="stroke:blue;fill:blue;" x1="900.00" x2="800.00" /><line y2="150.00" id="14332" y1="180.00" style="stroke:blue;fill:blue;" x1="900.00" x2="1000.00" /><line y2="530.00" id="14333" y1="450.00" style="stroke:blue;fill:blue;" x1="900.00" x2="840.00" /><line y2="500.00" id="14334" y1="450.00" style="stroke:blue;fill:blue;" x1="900.00" x2="950.00" /><line y2="380.00" id="14335" y1="450.00" style="stroke:blue;fill:blue;" x1="900.00" x2="950.00" /><line y2="400.00" id="14336" y1="450.00" style="stroke:blue;fill:blue;" x1="900.00" x2="680.00" /><line y2="460.00" id="14337" y1="450.00" style="stroke:blue;fill:blue;" x1="900.00" x2="810.00" /><line y2="380.00" id="14338" y1="280.00" style="stroke:blue;fill:blue;" x1="950.00" x2="950.00" /><line y2="300.00" id="14339" y1="280.00" style="stroke:blue;fill:blue;" x1="950.00" x2="780.00" /><line y2="180.00" id="14340" y1="280.00" style="stroke:blue;fill:blue;" x1="950.00" x2="900.00" /><line y2="100.00" id="14341" y1="60.00" style="stroke:blue;fill:blue;" x1="950.00" x2="980.00" /><line y2="20.00" id="14342" y1="60.00" style="stroke:blue;fill:blue;" x1="950.00" x2="880.00" /><line y2="450.00" id="14343" y1="500.00" style="stroke:blue;fill:blue;" x1="950.00" x2="900.00" /><line y2="540.00" id="14344" y1="500.00" style="stroke:blue;fill:blue;" x1="950.00" x2="1000.00" /><line y2="450.00" id="14345" y1="380.00" style="stroke:blue;fill:blue;" x1="950.00" x2="900.00" /><line y2="280.00" id="14346" y1="380.00" style="stroke:blue;fill:blue;" x1="950.00" x2="950.00" /><line y2="150.00" id="14347" y1="100.00" style="stroke:blue;fill:blue;" x1="980.00" x2="1000.00" /><line y2="60.00" id="14348" y1="100.00" style="stroke:blue;fill:blue;" x1="980.00" x2="950.00" /><line y2="500.00" id="14349" y1="540.00" style="stroke:blue;fill:blue;" x1="1000.00" x2="950.00" /><line y2="150.00" id="14350" y1="200.00" style="stroke:blue;fill:blue;" x1="1000.00" x2="1000.00" /><line y2="180.00" id="14351" y1="150.00" style="stroke:blue;fill:blue;" x1="1000.00" x2="900.00" /><line y2="200.00" id="14352" y1="150.00" style="stroke:blue;fill:blue;" x1="1000.00" x2="1000.00" /><line y2="100.00" id="14353" y1="150.00" style="stroke:blue;fill:blue;" x1="1000.00" x2="980.00" /><line y2="100.00" id="14354" y1="80.00" style="stroke:blue;fill:blue;" x1="20.00" x2="100.00" /><line y2="700.00" id="14355" y1="750.00" style="stroke:blue;fill:blue;" x1="20.00" x2="20.00" /><line y2="630.00" id="14356" y1="620.00" style="stroke:blue;fill:blue;" x1="50.00" x2="120.00" /><line y2="520.00" id="14357" y1="550.00" style="stroke:blue;fill:blue;" x1="50.00" x2="100.00" /><line y2="75.50" id="14358" y1="50.00" style="stroke:blue;fill:blue;" x1="80.00" x2="150.00" /><line y2="750.00" id="14359" y1="750.00" style="stroke:blue;fill:blue;" x1="150.00" x2="250.00" /><line y2="700.00" id="14360" y1="750.00" style="stroke:blue;fill:blue;" x1="150.00" x2="20.00" /><line y2="361.91" id="14361" y1="350.00" style="stroke:blue;fill:blue;" x1="140.00" x2="520.96" /><line y2="180.00" id="14362" y1="350.00" style="stroke:blue;fill:blue;" x1="140.00" x2="120.00" /><line y2="75.50" id="14363" y1="50.00" style="stroke:blue;fill:blue;" x1="200.00" x2="150.00" /><line y2="647.68" id="14364" y1="610.00" style="stroke:blue;fill:blue;" x1="250.00" x2="182.32" /><line y2="750.00" id="14365" y1="750.00" style="stroke:blue;fill:blue;" x1="250.00" x2="150.00" /><line y2="700.00" id="14366" y1="750.00" style="stroke:blue;fill:blue;" x1="250.00" x2="250.00" /><line y2="480.00" id="14367" y1="530.00" style="stroke:blue;fill:blue;" x1="300.00" x2="320.00" /><line y2="480.00" id="14368" y1="540.00" style="stroke:blue;fill:blue;" x1="390.00" x2="400.00" /><line y2="550.00" id="14369" y1="590.00" style="stroke:blue;fill:blue;" x1="440.00" x2="500.00" /><line y2="400.00" id="14370" y1="420.00" style="stroke:blue;fill:blue;" x1="480.00" x2="400.00" /><line y2="320.00" id="14371" y1="318.09" style="stroke:blue;fill:blue;" x1="499.04" x2="550.00" /><line y2="350.00" id="14372" y1="361.91" style="stroke:blue;fill:blue;" x1="520.96" x2="140.00" /><line y2="530.00" id="14373" y1="361.91" style="stroke:blue;fill:blue;" x1="520.96" x2="840.00" /><line y2="352.32" id="14374" y1="317.68" style="stroke:blue;fill:blue;" x1="852.32" x2="817.68" /><line y2="352.32" id="14375" y1="400.00" style="stroke:blue;fill:blue;" x1="850.00" x2="817.68" /></svg>
